<?xml version="1.0" encoding="UTF-8" standalone="no"?>
<!DOCTYPE svg PUBLIC "-//W3C//DTD SVG 1.1//EN"
 "http://www.w3.org/Graphics/SVG/1.1/DTD/svg11.dtd">
<!-- Generated by graphviz version 2.36.0 (20140111.2315)
 -->
<!-- Title: /home/travis/build/AliceO2Group/AliceO2/Framework/Core/include/Framework/ErrorContext.h Pages: 1 -->
<!--zoomable 342 -->
<svg id="main" version="1.1" xmlns="http://www.w3.org/2000/svg" xmlns:xlink="http://www.w3.org/1999/xlink" xml:space="preserve" onload="init(evt)">
<style type="text/css"><![CDATA[
.edge:hover path { stroke: red; }
.edge:hover polygon { stroke: red; fill: red; }
]]></style>
<script type="text/javascript"><![CDATA[
var edges = document.getElementsByTagName('g');
if (edges && edges.length) {
  for (var i=0;i<edges.length;i++) {
    if (edges[i].id.substr(0,4)=='edge') {
      edges[i].setAttribute('class','edge');
    }
  }
}
]]></script>
        <defs>
                <circle id="rim" cx="0" cy="0" r="7"/>
                <circle id="rim2" cx="0" cy="0" r="3.5"/>
                <g id="zoomPlus">
                        <use xlink:href="#rim" fill="#404040">
                                <set attributeName="fill" to="#808080" begin="zoomplus.mouseover" end="zoomplus.mouseout"/>
                        </use>
                        <path d="M-4,0h8M0,-4v8" fill="none" stroke="white" stroke-width="1.5" pointer-events="none"/>
                </g>
                <g id="zoomMin">
                        <use xlink:href="#rim" fill="#404040">
                                <set attributeName="fill" to="#808080" begin="zoomminus.mouseover" end="zoomminus.mouseout"/>
                        </use>
                        <path d="M-4,0h8" fill="none" stroke="white" stroke-width="1.5" pointer-events="none"/>
                </g>
                <g id="dirArrow">
                        <path fill="none" stroke="white" stroke-width="1.5" d="M0,-3.0v7 M-2.5,-0.5L0,-3.0L2.5,-0.5"/>
                </g>
               <g id="resetDef">
                       <use xlink:href="#rim2" fill="#404040">
                               <set attributeName="fill" to="#808080" begin="reset.mouseover" end="reset.mouseout"/>
                       </use>
               </g>
        </defs>

<script type="text/javascript">
var viewWidth = 1450;
var viewHeight = 342;
var sectionId = 'dynsection-0';
</script>
<script xlink:href="../../svgpan.js"/>
<svg id="graph" class="graph">
<g id="viewport">
<title>/home/travis/build/AliceO2Group/AliceO2/Framework/Core/include/Framework/ErrorContext.h</title>
<!-- Node1 -->
<g id="node1" class="node"><title>Node1</title>
<polygon fill="#bfbfbf" stroke="black" points="1047.28,-281 1047.28,-333 1182.28,-333 1182.28,-281 1047.28,-281"/>
<text text-anchor="start" x="1055.28" y="-321" font-family="Helvetica,sans-Serif" font-size="10.00">/home/travis/build</text>
<text text-anchor="start" x="1055.28" y="-310" font-family="Helvetica,sans-Serif" font-size="10.00">/AliceO2Group/AliceO2</text>
<text text-anchor="start" x="1055.28" y="-299" font-family="Helvetica,sans-Serif" font-size="10.00">/Framework/Core/include</text>
<text text-anchor="middle" x="1114.78" y="-288" font-family="Helvetica,sans-Serif" font-size="10.00">/Framework/ErrorContext.h</text>
</g>
<!-- Node2 -->
<g id="node2" class="node"><title>Node2</title>
<g id="a_node2"><a xlink:href="../../d6/d5c/InputRecord_8h.html" target="_top" xlink:title="Framework/InputRecord.h">
<polygon fill="none" stroke="black" points="610.783,-224.5 610.783,-243.5 740.783,-243.5 740.783,-224.5 610.783,-224.5"/>
<text text-anchor="middle" x="675.783" y="-231.5" font-family="Helvetica,sans-Serif" font-size="10.00">Framework/InputRecord.h</text>
</a>
</g>
</g>
<!-- Node1&#45;&gt;Node2 -->
<g id="edge1" class="edge"><title>Node1&#45;&gt;Node2</title>
<path fill="none" stroke="midnightblue" d="M1047.15,-295.062C962.994,-281.451 820.417,-258.392 738.575,-245.156"/>
<polygon fill="midnightblue" stroke="midnightblue" points="739.091,-241.694 728.66,-243.552 737.973,-248.604 739.091,-241.694"/>
</g>
<!-- Node26 -->
<g id="node26" class="node"><title>Node26</title>
<polygon fill="none" stroke="#bfbfbf" points="1097.28,-168.5 1097.28,-187.5 1156.28,-187.5 1156.28,-168.5 1097.28,-168.5"/>
<text text-anchor="middle" x="1126.78" y="-175.5" font-family="Helvetica,sans-Serif" font-size="10.00">exception</text>
</g>
<!-- Node1&#45;&gt;Node26 -->
<g id="edge44" class="edge"><title>Node1&#45;&gt;Node26</title>
<path fill="none" stroke="midnightblue" d="M1117.15,-280.909C1119.47,-256.409 1122.94,-219.69 1125.02,-197.664"/>
<polygon fill="midnightblue" stroke="midnightblue" points="1128.51,-197.913 1125.97,-187.628 1121.54,-197.254 1128.51,-197.913"/>
</g>
<!-- Node27 -->
<g id="node27" class="node"><title>Node27</title>
<g id="a_node27"><a xlink:href="../../d8/d17/ServiceRegistry_8h.html" target="_top" xlink:title="Framework/ServiceRegistry.h">
<polygon fill="none" stroke="black" points="1142.78,-224.5 1142.78,-243.5 1288.78,-243.5 1288.78,-224.5 1142.78,-224.5"/>
<text text-anchor="middle" x="1215.78" y="-231.5" font-family="Helvetica,sans-Serif" font-size="10.00">Framework/ServiceRegistry.h</text>
</a>
</g>
</g>
<!-- Node1&#45;&gt;Node27 -->
<g id="edge37" class="edge"><title>Node1&#45;&gt;Node27</title>
<path fill="none" stroke="midnightblue" d="M1150.39,-280.968C1165.34,-270.458 1182.21,-258.603 1195.06,-249.565"/>
<polygon fill="midnightblue" stroke="midnightblue" points="1197.08,-252.424 1203.25,-243.81 1193.06,-246.697 1197.08,-252.424"/>
</g>
<!-- Node3 -->
<g id="node3" class="node"><title>Node3</title>
<g id="a_node3"><a xlink:href="../../d5/dfb/DataRef_8h.html" target="_top" xlink:title="Framework/DataRef.h">
<polygon fill="none" stroke="black" points="96.2825,-112.5 96.2825,-131.5 209.283,-131.5 209.283,-112.5 96.2825,-112.5"/>
<text text-anchor="middle" x="152.783" y="-119.5" font-family="Helvetica,sans-Serif" font-size="10.00">Framework/DataRef.h</text>
</a>
</g>
</g>
<!-- Node2&#45;&gt;Node3 -->
<g id="edge2" class="edge"><title>Node2&#45;&gt;Node3</title>
<path fill="none" stroke="midnightblue" d="M610.609,-229.927C537.581,-225.325 416.141,-214.183 314.783,-188 265.272,-175.211 210.648,-151.041 179.161,-136.05"/>
<polygon fill="midnightblue" stroke="midnightblue" points="180.315,-132.721 169.787,-131.532 177.275,-139.027 180.315,-132.721"/>
</g>
<!-- Node4 -->
<g id="node4" class="node"><title>Node4</title>
<g id="a_node4"><a xlink:href="../../d5/db8/DataRefUtils_8h.html" target="_top" xlink:title="Framework/DataRefUtils.h">
<polygon fill="none" stroke="black" points="323.783,-168.5 323.783,-187.5 457.783,-187.5 457.783,-168.5 323.783,-168.5"/>
<text text-anchor="middle" x="390.783" y="-175.5" font-family="Helvetica,sans-Serif" font-size="10.00">Framework/DataRefUtils.h</text>
</a>
</g>
</g>
<!-- Node2&#45;&gt;Node4 -->
<g id="edge3" class="edge"><title>Node2&#45;&gt;Node4</title>
<path fill="none" stroke="midnightblue" d="M630.623,-224.444C580.489,-214.944 499.563,-199.611 445.776,-189.42"/>
<polygon fill="midnightblue" stroke="midnightblue" points="446.207,-185.939 435.73,-187.516 444.904,-192.817 446.207,-185.939"/>
</g>
<!-- Node7 -->
<g id="node7" class="node"><title>Node7</title>
<polygon fill="none" stroke="#bfbfbf" points="405.783,-0.5 405.783,-19.5 457.783,-19.5 457.783,-0.5 405.783,-0.5"/>
<text text-anchor="middle" x="431.783" y="-7.5" font-family="Helvetica,sans-Serif" font-size="10.00">memory</text>
</g>
<!-- Node2&#45;&gt;Node7 -->
<g id="edge35" class="edge"><title>Node2&#45;&gt;Node7</title>
<path fill="none" stroke="midnightblue" d="M610.574,-232.179C514.243,-229.838 328.696,-220.999 174.783,-188 100.295,-172.03 56.9833,-194.046 12.7825,-132 -33.878,-66.5008 285.401,-26.388 395.442,-14.6304"/>
<polygon fill="midnightblue" stroke="midnightblue" points="396.139,-18.0766 405.718,-13.5503 395.407,-11.115 396.139,-18.0766"/>
</g>
<!-- Node8 -->
<g id="node8" class="node"><title>Node8</title>
<polygon fill="none" stroke="#bfbfbf" points="757.283,-0.5 757.283,-19.5 806.283,-19.5 806.283,-0.5 757.283,-0.5"/>
<text text-anchor="middle" x="781.783" y="-7.5" font-family="Helvetica,sans-Serif" font-size="10.00">cassert</text>
</g>
<!-- Node2&#45;&gt;Node8 -->
<g id="edge33" class="edge"><title>Node2&#45;&gt;Node8</title>
<path fill="none" stroke="midnightblue" d="M703.376,-224.407C721.119,-217.435 743.141,-205.799 755.783,-188 790.199,-139.542 787.69,-64.624 784.229,-29.8836"/>
<polygon fill="midnightblue" stroke="midnightblue" points="787.682,-29.277 783.071,-19.7386 780.728,-30.0711 787.682,-29.277"/>
</g>
<!-- Node9 -->
<g id="node9" class="node"><title>Node9</title>
<polygon fill="none" stroke="#bfbfbf" points="202.783,-0.5 202.783,-19.5 248.783,-19.5 248.783,-0.5 202.783,-0.5"/>
<text text-anchor="middle" x="225.783" y="-7.5" font-family="Helvetica,sans-Serif" font-size="10.00">cstring</text>
</g>
<!-- Node2&#45;&gt;Node9 -->
<g id="edge32" class="edge"><title>Node2&#45;&gt;Node9</title>
<path fill="none" stroke="midnightblue" d="M610.757,-231.256C460.55,-226.812 98.5479,-213.563 49.7825,-188 15.015,-169.775 -10.7113,-148.068 4.78251,-112 35.8458,-39.6883 139.005,-19.1322 192.681,-13.3009"/>
<polygon fill="midnightblue" stroke="midnightblue" points="193.108,-16.7759 202.721,-12.32 192.428,-9.80909 193.108,-16.7759"/>
</g>
<!-- Node11 -->
<g id="node11" class="node"><title>Node11</title>
<g id="a_node11"><a xlink:href="../../d8/d3c/TMessageSerializer_8h.html" target="_top" xlink:title="Framework/TMessageSerializer.h">
<polygon fill="none" stroke="black" points="438.283,-112.5 438.283,-131.5 601.283,-131.5 601.283,-112.5 438.283,-112.5"/>
<text text-anchor="middle" x="519.783" y="-119.5" font-family="Helvetica,sans-Serif" font-size="10.00">Framework/TMessageSerializer.h</text>
</a>
</g>
</g>
<!-- Node2&#45;&gt;Node11 -->
<g id="edge27" class="edge"><title>Node2&#45;&gt;Node11</title>
<path fill="none" stroke="midnightblue" d="M663.541,-224.368C636.886,-205.573 573.345,-160.768 540.393,-137.533"/>
<polygon fill="midnightblue" stroke="midnightblue" points="542.156,-134.494 531.967,-131.591 538.122,-140.215 542.156,-134.494"/>
</g>
<!-- Node12 -->
<g id="node12" class="node"><title>Node12</title>
<polygon fill="none" stroke="#bfbfbf" points="495.283,-56.5 495.283,-75.5 622.283,-75.5 622.283,-56.5 495.283,-56.5"/>
<text text-anchor="middle" x="558.783" y="-63.5" font-family="Helvetica,sans-Serif" font-size="10.00">fairmq/FairMQMessage.h</text>
</g>
<!-- Node2&#45;&gt;Node12 -->
<g id="edge26" class="edge"><title>Node2&#45;&gt;Node12</title>
<path fill="none" stroke="midnightblue" d="M672.363,-224.47C663.83,-203.805 640.083,-149.966 609.783,-112 600.805,-100.752 588.817,-90.0147 578.719,-81.8511"/>
<polygon fill="midnightblue" stroke="midnightblue" points="580.821,-79.0516 570.789,-75.6443 576.506,-84.564 580.821,-79.0516"/>
</g>
<!-- Node15 -->
<g id="node15" class="node"><title>Node15</title>
<polygon fill="none" stroke="#bfbfbf" points="21.7825,-112.5 21.7825,-131.5 77.7825,-131.5 77.7825,-112.5 21.7825,-112.5"/>
<text text-anchor="middle" x="49.7825" y="-119.5" font-family="Helvetica,sans-Serif" font-size="10.00">TClass.h</text>
</g>
<!-- Node2&#45;&gt;Node15 -->
<g id="edge28" class="edge"><title>Node2&#45;&gt;Node15</title>
<path fill="none" stroke="midnightblue" d="M610.484,-230.237C526.657,-225.742 377.071,-214.511 251.783,-188 189.781,-174.88 119.893,-150.042 80.7148,-135.159"/>
<polygon fill="midnightblue" stroke="midnightblue" points="81.7973,-131.825 71.207,-131.512 79.2907,-138.361 81.7973,-131.825"/>
</g>
<!-- Node18 -->
<g id="node18" class="node"><title>Node18</title>
<polygon fill="none" stroke="#bfbfbf" points="695.783,-112.5 695.783,-131.5 757.783,-131.5 757.783,-112.5 695.783,-112.5"/>
<text text-anchor="middle" x="726.783" y="-119.5" font-family="Helvetica,sans-Serif" font-size="10.00">type_traits</text>
</g>
<!-- Node2&#45;&gt;Node18 -->
<g id="edge36" class="edge"><title>Node2&#45;&gt;Node18</title>
<path fill="none" stroke="midnightblue" d="M677.372,-224.251C679.909,-211.442 685.553,-187.044 694.783,-168 699.633,-157.99 706.661,-147.81 712.895,-139.67"/>
<polygon fill="midnightblue" stroke="midnightblue" points="715.717,-141.745 719.209,-131.742 710.241,-137.384 715.717,-141.745"/>
</g>
<!-- Node20 -->
<g id="node20" class="node"><title>Node20</title>
<g id="a_node20"><a xlink:href="../../d5/d19/InputRoute_8h.html" target="_top" xlink:title="Framework/InputRoute.h">
<polygon fill="none" stroke="black" points="915.283,-168.5 915.283,-187.5 1040.28,-187.5 1040.28,-168.5 915.283,-168.5"/>
<text text-anchor="middle" x="977.783" y="-175.5" font-family="Helvetica,sans-Serif" font-size="10.00">Framework/InputRoute.h</text>
</a>
</g>
</g>
<!-- Node2&#45;&gt;Node20 -->
<g id="edge20" class="edge"><title>Node2&#45;&gt;Node20</title>
<path fill="none" stroke="midnightblue" d="M723.635,-224.444C776.981,-214.905 863.227,-199.483 920.218,-189.293"/>
<polygon fill="midnightblue" stroke="midnightblue" points="920.926,-192.722 930.154,-187.516 919.694,-185.831 920.926,-192.722"/>
</g>
<!-- Node22 -->
<g id="node22" class="node"><title>Node22</title>
<polygon fill="none" stroke="#bfbfbf" points="1029.28,-56.5 1029.28,-75.5 1070.28,-75.5 1070.28,-56.5 1029.28,-56.5"/>
<text text-anchor="middle" x="1049.78" y="-63.5" font-family="Helvetica,sans-Serif" font-size="10.00">string</text>
</g>
<!-- Node2&#45;&gt;Node22 -->
<g id="edge30" class="edge"><title>Node2&#45;&gt;Node22</title>
<path fill="none" stroke="midnightblue" d="M740.89,-229.749C842.335,-224.012 1028.65,-210.52 1048.78,-188 1073.9,-159.907 1064.31,-111.777 1056.32,-85.4814"/>
<polygon fill="midnightblue" stroke="midnightblue" points="1059.54,-84.0801 1053.1,-75.6707 1052.89,-86.2636 1059.54,-84.0801"/>
</g>
<!-- Node24 -->
<g id="node24" class="node"><title>Node24</title>
<polygon fill="none" stroke="#bfbfbf" points="811.283,-168.5 811.283,-187.5 858.283,-187.5 858.283,-168.5 811.283,-168.5"/>
<text text-anchor="middle" x="834.783" y="-175.5" font-family="Helvetica,sans-Serif" font-size="10.00">iterator</text>
</g>
<!-- Node2&#45;&gt;Node24 -->
<g id="edge29" class="edge"><title>Node2&#45;&gt;Node24</title>
<path fill="none" stroke="midnightblue" d="M700.977,-224.444C728.197,-215.199 771.689,-200.428 801.659,-190.25"/>
<polygon fill="midnightblue" stroke="midnightblue" points="802.918,-193.518 811.261,-186.988 800.667,-186.89 802.918,-193.518"/>
</g>
<!-- Node25 -->
<g id="node25" class="node"><title>Node25</title>
<polygon fill="none" stroke="#bfbfbf" points="703.783,-168.5 703.783,-187.5 747.783,-187.5 747.783,-168.5 703.783,-168.5"/>
<text text-anchor="middle" x="725.783" y="-175.5" font-family="Helvetica,sans-Serif" font-size="10.00">vector</text>
</g>
<!-- Node2&#45;&gt;Node25 -->
<g id="edge31" class="edge"><title>Node2&#45;&gt;Node25</title>
<path fill="none" stroke="midnightblue" d="M684.039,-224.083C691.247,-216.298 701.892,-204.801 710.628,-195.367"/>
<polygon fill="midnightblue" stroke="midnightblue" points="713.454,-197.467 717.68,-187.751 708.317,-192.711 713.454,-197.467"/>
</g>
<!-- Node2&#45;&gt;Node26 -->
<g id="edge34" class="edge"><title>Node2&#45;&gt;Node26</title>
<path fill="none" stroke="midnightblue" d="M740.877,-227.656C821.439,-220.616 962.693,-206.88 1082.78,-188 1084.23,-187.773 1085.7,-187.531 1087.18,-187.277"/>
<polygon fill="midnightblue" stroke="midnightblue" points="1087.82,-190.717 1097.03,-185.471 1086.56,-183.832 1087.82,-190.717"/>
</g>
<!-- Node4&#45;&gt;Node3 -->
<g id="edge4" class="edge"><title>Node4&#45;&gt;Node3</title>
<path fill="none" stroke="midnightblue" d="M353.071,-168.444C311.639,-159.043 245.026,-143.929 200.115,-133.739"/>
<polygon fill="midnightblue" stroke="midnightblue" points="200.844,-130.316 190.318,-131.516 199.296,-137.142 200.844,-130.316"/>
</g>
<!-- Node5 -->
<g id="node5" class="node"><title>Node5</title>
<g id="a_node5"><a xlink:href="../../dc/dcd/DataHeader_8h.html" target="_top" xlink:title="Headers/DataHeader.h">
<polygon fill="none" stroke="black" points="640.283,-56.5 640.283,-75.5 757.283,-75.5 757.283,-56.5 640.283,-56.5"/>
<text text-anchor="middle" x="698.783" y="-63.5" font-family="Helvetica,sans-Serif" font-size="10.00">Headers/DataHeader.h</text>
</a>
</g>
</g>
<!-- Node4&#45;&gt;Node5 -->
<g id="edge5" class="edge"><title>Node4&#45;&gt;Node5</title>
<path fill="none" stroke="midnightblue" d="M458.211,-170.692C502.721,-164.732 561.512,-153.367 609.783,-132 637.495,-119.733 664.985,-97.7632 681.919,-82.7929"/>
<polygon fill="midnightblue" stroke="midnightblue" points="684.697,-84.9989 689.758,-75.6909 679.997,-79.8114 684.697,-84.9989"/>
</g>
<!-- Node4&#45;&gt;Node11 -->
<g id="edge11" class="edge"><title>Node4&#45;&gt;Node11</title>
<path fill="none" stroke="midnightblue" d="M411.223,-168.444C432.453,-159.557 465.882,-145.563 490.037,-135.451"/>
<polygon fill="midnightblue" stroke="midnightblue" points="491.565,-138.606 499.438,-131.516 488.862,-132.149 491.565,-138.606"/>
</g>
<!-- Node4&#45;&gt;Node15 -->
<g id="edge15" class="edge"><title>Node4&#45;&gt;Node15</title>
<path fill="none" stroke="midnightblue" d="M323.765,-168.874C264.26,-161.25 174.76,-148.786 88.0201,-132.096"/>
<polygon fill="midnightblue" stroke="midnightblue" points="88.49,-128.622 78.0056,-130.147 87.153,-135.493 88.49,-128.622"/>
</g>
<!-- Node16 -->
<g id="node16" class="node"><title>Node16</title>
<polygon fill="none" stroke="#bfbfbf" points="361.283,-112.5 361.283,-131.5 420.283,-131.5 420.283,-112.5 361.283,-112.5"/>
<text text-anchor="middle" x="390.783" y="-119.5" font-family="Helvetica,sans-Serif" font-size="10.00">stdexcept</text>
</g>
<!-- Node4&#45;&gt;Node16 -->
<g id="edge16" class="edge"><title>Node4&#45;&gt;Node16</title>
<path fill="none" stroke="midnightblue" d="M390.783,-168.083C390.783,-161.006 390.783,-150.861 390.783,-141.986"/>
<polygon fill="midnightblue" stroke="midnightblue" points="394.283,-141.751 390.783,-131.751 387.283,-141.751 394.283,-141.751"/>
</g>
<!-- Node17 -->
<g id="node17" class="node"><title>Node17</title>
<polygon fill="none" stroke="#bfbfbf" points="227.783,-112.5 227.783,-131.5 279.783,-131.5 279.783,-112.5 227.783,-112.5"/>
<text text-anchor="middle" x="253.783" y="-119.5" font-family="Helvetica,sans-Serif" font-size="10.00">sstream</text>
</g>
<!-- Node4&#45;&gt;Node17 -->
<g id="edge17" class="edge"><title>Node4&#45;&gt;Node17</title>
<path fill="none" stroke="midnightblue" d="M369.074,-168.444C346.428,-159.517 310.71,-145.439 285.031,-135.317"/>
<polygon fill="midnightblue" stroke="midnightblue" points="285.976,-131.927 275.389,-131.516 283.409,-138.44 285.976,-131.927"/>
</g>
<!-- Node4&#45;&gt;Node18 -->
<g id="edge18" class="edge"><title>Node4&#45;&gt;Node18</title>
<path fill="none" stroke="midnightblue" d="M451.102,-168.462C510.043,-159.933 602.25,-146.096 681.783,-132 682.881,-131.805 683.994,-131.605 685.116,-131.4"/>
<polygon fill="midnightblue" stroke="midnightblue" points="686.167,-134.764 695.345,-129.471 684.869,-127.885 686.167,-134.764"/>
</g>
<!-- Node19 -->
<g id="node19" class="node"><title>Node19</title>
<polygon fill="none" stroke="#bfbfbf" points="298.283,-112.5 298.283,-131.5 343.283,-131.5 343.283,-112.5 298.283,-112.5"/>
<text text-anchor="middle" x="320.783" y="-119.5" font-family="Helvetica,sans-Serif" font-size="10.00">gsl/gsl</text>
</g>
<!-- Node4&#45;&gt;Node19 -->
<g id="edge19" class="edge"><title>Node4&#45;&gt;Node19</title>
<path fill="none" stroke="midnightblue" d="M379.536,-168.324C368.985,-160.185 352.982,-147.839 340.34,-138.087"/>
<polygon fill="midnightblue" stroke="midnightblue" points="342.29,-135.171 332.234,-131.834 338.014,-140.713 342.29,-135.171"/>
</g>
<!-- Node6 -->
<g id="node6" class="node"><title>Node6</title>
<polygon fill="none" stroke="#bfbfbf" points="610.783,-0.5 610.783,-19.5 656.783,-19.5 656.783,-0.5 610.783,-0.5"/>
<text text-anchor="middle" x="633.783" y="-7.5" font-family="Helvetica,sans-Serif" font-size="10.00">cstdint</text>
</g>
<!-- Node5&#45;&gt;Node6 -->
<g id="edge6" class="edge"><title>Node5&#45;&gt;Node6</title>
<path fill="none" stroke="midnightblue" d="M688.339,-56.324C678.636,-48.2631 663.967,-36.0765 652.283,-26.3695"/>
<polygon fill="midnightblue" stroke="midnightblue" points="654.344,-23.532 644.416,-19.8339 649.871,-28.9163 654.344,-23.532"/>
</g>
<!-- Node5&#45;&gt;Node7 -->
<g id="edge7" class="edge"><title>Node5&#45;&gt;Node7</title>
<path fill="none" stroke="midnightblue" d="M656.476,-56.4435C604.447,-45.9208 517.019,-28.2388 467.967,-18.3183"/>
<polygon fill="midnightblue" stroke="midnightblue" points="468.605,-14.8764 458.109,-16.3245 467.217,-21.7375 468.605,-14.8764"/>
</g>
<!-- Node5&#45;&gt;Node8 -->
<g id="edge8" class="edge"><title>Node5&#45;&gt;Node8</title>
<path fill="none" stroke="midnightblue" d="M712.118,-56.324C724.944,-47.979 744.567,-35.2122 759.722,-25.3524"/>
<polygon fill="midnightblue" stroke="midnightblue" points="762.007,-28.0417 768.48,-19.6545 758.189,-22.1742 762.007,-28.0417"/>
</g>
<!-- Node5&#45;&gt;Node9 -->
<g id="edge9" class="edge"><title>Node5&#45;&gt;Node9</title>
<path fill="none" stroke="midnightblue" d="M640.187,-57.1656C637.007,-56.7651 633.856,-56.3741 630.783,-56 493.128,-39.2449 328.835,-21.766 259.398,-14.4946"/>
<polygon fill="midnightblue" stroke="midnightblue" points="259.397,-10.9754 249.087,-13.4169 258.669,-17.9375 259.397,-10.9754"/>
</g>
<!-- Node10 -->
<g id="node10" class="node"><title>Node10</title>
<polygon fill="none" stroke="#bfbfbf" points="674.783,-0.5 674.783,-19.5 730.783,-19.5 730.783,-0.5 674.783,-0.5"/>
<text text-anchor="middle" x="702.783" y="-7.5" font-family="Helvetica,sans-Serif" font-size="10.00">algorithm</text>
</g>
<!-- Node5&#45;&gt;Node10 -->
<g id="edge10" class="edge"><title>Node5&#45;&gt;Node10</title>
<path fill="none" stroke="midnightblue" d="M699.443,-56.083C699.967,-49.0059 700.719,-38.8611 701.376,-29.9865"/>
<polygon fill="midnightblue" stroke="midnightblue" points="704.886,-29.9823 702.134,-19.7511 697.905,-29.4652 704.886,-29.9823"/>
</g>
<!-- Node11&#45;&gt;Node12 -->
<g id="edge12" class="edge"><title>Node11&#45;&gt;Node12</title>
<path fill="none" stroke="midnightblue" d="M526.223,-112.083C531.731,-104.455 539.814,-93.2645 546.547,-83.9408"/>
<polygon fill="midnightblue" stroke="midnightblue" points="549.445,-85.9071 552.462,-75.7511 543.77,-81.8087 549.445,-85.9071"/>
</g>
<!-- Node13 -->
<g id="node13" class="node"><title>Node13</title>
<polygon fill="none" stroke="#bfbfbf" points="406.283,-56.5 406.283,-75.5 477.283,-75.5 477.283,-56.5 406.283,-56.5"/>
<text text-anchor="middle" x="441.783" y="-63.5" font-family="Helvetica,sans-Serif" font-size="10.00">TMessage.h</text>
</g>
<!-- Node11&#45;&gt;Node13 -->
<g id="edge13" class="edge"><title>Node11&#45;&gt;Node13</title>
<path fill="none" stroke="midnightblue" d="M507.25,-112.324C495.197,-103.979 476.756,-91.2122 462.514,-81.3524"/>
<polygon fill="midnightblue" stroke="midnightblue" points="464.498,-78.469 454.283,-75.6545 460.513,-84.2243 464.498,-78.469"/>
</g>
<!-- Node14 -->
<g id="node14" class="node"><title>Node14</title>
<polygon fill="none" stroke="#bfbfbf" points="303.283,-56.5 303.283,-75.5 388.283,-75.5 388.283,-56.5 303.283,-56.5"/>
<text text-anchor="middle" x="345.783" y="-63.5" font-family="Helvetica,sans-Serif" font-size="10.00">TClonesArray.h</text>
</g>
<!-- Node11&#45;&gt;Node14 -->
<g id="edge14" class="edge"><title>Node11&#45;&gt;Node14</title>
<path fill="none" stroke="midnightblue" d="M492.212,-112.444C462.685,-103.28 415.665,-88.6876 382.9,-78.5192"/>
<polygon fill="midnightblue" stroke="midnightblue" points="383.812,-75.1378 373.224,-75.5164 381.738,-81.8232 383.812,-75.1378"/>
</g>
<!-- Node21 -->
<g id="node21" class="node"><title>Node21</title>
<g id="a_node21"><a xlink:href="../../d5/d3f/InputSpec_8h.html" target="_top" xlink:title="Framework/InputSpec.h">
<polygon fill="none" stroke="black" points="814.283,-112.5 814.283,-131.5 935.283,-131.5 935.283,-112.5 814.283,-112.5"/>
<text text-anchor="middle" x="874.783" y="-119.5" font-family="Helvetica,sans-Serif" font-size="10.00">Framework/InputSpec.h</text>
</a>
</g>
</g>
<!-- Node20&#45;&gt;Node21 -->
<g id="edge21" class="edge"><title>Node20&#45;&gt;Node21</title>
<path fill="none" stroke="midnightblue" d="M961.234,-168.324C944.791,-159.703 919.348,-146.364 900.314,-136.386"/>
<polygon fill="midnightblue" stroke="midnightblue" points="901.772,-133.198 891.29,-131.655 898.522,-139.398 901.772,-133.198"/>
</g>
<!-- Node20&#45;&gt;Node22 -->
<g id="edge25" class="edge"><title>Node20&#45;&gt;Node22</title>
<path fill="none" stroke="midnightblue" d="M984.604,-168.208C991.457,-159.26 1002.2,-144.91 1010.78,-132 1021.23,-116.279 1032.21,-97.7689 1039.85,-84.5307"/>
<polygon fill="midnightblue" stroke="midnightblue" points="1043.05,-85.9869 1044.98,-75.5685 1036.98,-82.5119 1043.05,-85.9869"/>
</g>
<!-- Node23 -->
<g id="node23" class="node"><title>Node23</title>
<polygon fill="none" stroke="#bfbfbf" points="953.283,-112.5 953.283,-131.5 1002.28,-131.5 1002.28,-112.5 953.283,-112.5"/>
<text text-anchor="middle" x="977.783" y="-119.5" font-family="Helvetica,sans-Serif" font-size="10.00">cstddef</text>
</g>
<!-- Node20&#45;&gt;Node23 -->
<g id="edge24" class="edge"><title>Node20&#45;&gt;Node23</title>
<path fill="none" stroke="midnightblue" d="M977.783,-168.083C977.783,-161.006 977.783,-150.861 977.783,-141.986"/>
<polygon fill="midnightblue" stroke="midnightblue" points="981.283,-141.751 977.783,-131.751 974.283,-141.751 981.283,-141.751"/>
</g>
<!-- Node21&#45;&gt;Node5 -->
<g id="edge23" class="edge"><title>Node21&#45;&gt;Node5</title>
<path fill="none" stroke="midnightblue" d="M846.895,-112.444C817.029,-103.28 769.468,-88.6876 736.327,-78.5192"/>
<polygon fill="midnightblue" stroke="midnightblue" points="737.127,-75.1037 726.54,-75.5164 735.073,-81.7958 737.127,-75.1037"/>
</g>
<!-- Node21&#45;&gt;Node22 -->
<g id="edge22" class="edge"><title>Node21&#45;&gt;Node22</title>
<path fill="none" stroke="midnightblue" d="M902.512,-112.444C934.392,-102.606 986.548,-86.5122 1019.48,-76.3518"/>
<polygon fill="midnightblue" stroke="midnightblue" points="1020.51,-79.6956 1029.03,-73.4026 1018.45,-73.0068 1020.51,-79.6956"/>
</g>
<!-- Node27&#45;&gt;Node18 -->
<g id="edge41" class="edge"><title>Node27&#45;&gt;Node18</title>
<path fill="none" stroke="midnightblue" d="M1142.52,-228.922C1078.98,-223.84 985.144,-212.595 906.783,-188 887.819,-182.048 885.186,-175.507 866.783,-168 834.149,-154.688 796.001,-142.648 767.774,-134.378"/>
<polygon fill="midnightblue" stroke="midnightblue" points="768.432,-130.925 757.853,-131.507 766.486,-137.649 768.432,-130.925"/>
</g>
<!-- Node27&#45;&gt;Node22 -->
<g id="edge40" class="edge"><title>Node27&#45;&gt;Node22</title>
<path fill="none" stroke="midnightblue" d="M1224.29,-224.167C1235.64,-211.254 1253.09,-186.727 1241.78,-168 1206.54,-109.646 1125.16,-83.3202 1080.5,-72.9025"/>
<polygon fill="midnightblue" stroke="midnightblue" points="1081.03,-69.4349 1070.51,-70.6955 1079.52,-76.2701 1081.03,-69.4349"/>
</g>
<!-- Node27&#45;&gt;Node26 -->
<g id="edge38" class="edge"><title>Node27&#45;&gt;Node26</title>
<path fill="none" stroke="midnightblue" d="M1201.48,-224.324C1187.6,-215.9 1166.29,-202.971 1149.98,-193.074"/>
<polygon fill="midnightblue" stroke="midnightblue" points="1151.41,-189.85 1141.05,-187.655 1147.78,-195.834 1151.41,-189.85"/>
</g>
<!-- Node28 -->
<g id="node28" class="node"><title>Node28</title>
<polygon fill="none" stroke="#bfbfbf" points="1174.28,-168.5 1174.28,-187.5 1233.28,-187.5 1233.28,-168.5 1174.28,-168.5"/>
<text text-anchor="middle" x="1203.78" y="-175.5" font-family="Helvetica,sans-Serif" font-size="10.00">functional</text>
</g>
<!-- Node27&#45;&gt;Node28 -->
<g id="edge39" class="edge"><title>Node27&#45;&gt;Node28</title>
<path fill="none" stroke="midnightblue" d="M1213.8,-224.083C1212.21,-216.927 1209.92,-206.635 1207.94,-197.691"/>
<polygon fill="midnightblue" stroke="midnightblue" points="1211.31,-196.754 1205.73,-187.751 1204.48,-198.272 1211.31,-196.754"/>
</g>
<!-- Node29 -->
<g id="node29" class="node"><title>Node29</title>
<polygon fill="none" stroke="#bfbfbf" points="1290.28,-168.5 1290.28,-187.5 1341.28,-187.5 1341.28,-168.5 1290.28,-168.5"/>
<text text-anchor="middle" x="1315.78" y="-175.5" font-family="Helvetica,sans-Serif" font-size="10.00">typeinfo</text>
</g>
<!-- Node27&#45;&gt;Node29 -->
<g id="edge42" class="edge"><title>Node27&#45;&gt;Node29</title>
<path fill="none" stroke="midnightblue" d="M1231.85,-224.324C1247.74,-215.743 1272.29,-202.486 1290.74,-192.522"/>
<polygon fill="midnightblue" stroke="midnightblue" points="1292.62,-195.486 1299.76,-187.655 1289.29,-189.326 1292.62,-195.486"/>
</g>
<!-- Node30 -->
<g id="node30" class="node"><title>Node30</title>
<polygon fill="none" stroke="#bfbfbf" points="1359.28,-168.5 1359.28,-187.5 1442.28,-187.5 1442.28,-168.5 1359.28,-168.5"/>
<text text-anchor="middle" x="1400.78" y="-175.5" font-family="Helvetica,sans-Serif" font-size="10.00">unordered_map</text>
</g>
<!-- Node27&#45;&gt;Node30 -->
<g id="edge43" class="edge"><title>Node27&#45;&gt;Node30</title>
<path fill="none" stroke="midnightblue" d="M1245.1,-224.444C1276.62,-215.241 1326.91,-200.562 1361.77,-190.388"/>
<polygon fill="midnightblue" stroke="midnightblue" points="1362.99,-193.678 1371.61,-187.516 1361.03,-186.959 1362.99,-193.678"/>
</g>
</g>
</svg>
        <g id="navigator" transform="translate(0 0)" fill="#404254">
                <rect fill="#f2f5e9" fill-opacity="0.5" stroke="#606060" stroke-width=".5" x="0" y="0" width="60" height="60"/>
                <use id="zoomplus" xlink:href="#zoomPlus" x="17" y="9" onmousedown="handleZoom(evt,'in')"/>
                <use id="zoomminus" xlink:href="#zoomMin" x="42" y="9" onmousedown="handleZoom(evt,'out')"/>
                <use id="reset" xlink:href="#resetDef" x="30" y="36" onmousedown="handleReset()"/>
                <g id="arrowUp" xlink:href="#dirArrow" transform="translate(30 24)" onmousedown="handlePan(0,-1)">
                  <use xlink:href="#rim" fill="#404040">
                        <set attributeName="fill" to="#808080" begin="arrowUp.mouseover" end="arrowUp.mouseout"/>
                  </use>
                  <path fill="none" stroke="white" stroke-width="1.5" d="M0,-3.0v7 M-2.5,-0.5L0,-3.0L2.5,-0.5"/>
                </g>
                <g id="arrowRight" xlink:href="#dirArrow" transform="rotate(90) translate(36 -43)" onmousedown="handlePan(1,0)">
                  <use xlink:href="#rim" fill="#404040">
                        <set attributeName="fill" to="#808080" begin="arrowRight.mouseover" end="arrowRight.mouseout"/>
                  </use>
                  <path fill="none" stroke="white" stroke-width="1.5" d="M0,-3.0v7 M-2.5,-0.5L0,-3.0L2.5,-0.5"/>
                </g>
                <g id="arrowDown" xlink:href="#dirArrow" transform="rotate(180) translate(-30 -48)" onmousedown="handlePan(0,1)">
                  <use xlink:href="#rim" fill="#404040">
                        <set attributeName="fill" to="#808080" begin="arrowDown.mouseover" end="arrowDown.mouseout"/>
                  </use>
                  <path fill="none" stroke="white" stroke-width="1.5" d="M0,-3.0v7 M-2.5,-0.5L0,-3.0L2.5,-0.5"/>
                </g>
                <g id="arrowLeft" xlink:href="#dirArrow" transform="rotate(270) translate(-36 17)" onmousedown="handlePan(-1,0)">
                  <use xlink:href="#rim" fill="#404040">
                        <set attributeName="fill" to="#808080" begin="arrowLeft.mouseover" end="arrowLeft.mouseout"/>
                  </use>
                  <path fill="none" stroke="white" stroke-width="1.5" d="M0,-3.0v7 M-2.5,-0.5L0,-3.0L2.5,-0.5"/>
                </g>
        </g>
        <svg viewBox="0 0 15 15" width="100%" height="30px" preserveAspectRatio="xMaxYMin meet">
         <g id="arrow_out" transform="scale(0.3 0.3)">
          <a xlink:href="ErrorContext_8h__incl_org.svg" target="_base">
           <rect id="button" ry="5" rx="5" y="6" x="6" height="38" width="38"
                fill="#f2f5e9" fill-opacity="0.5" stroke="#606060" stroke-width="1.0"/>
           <path id="arrow"
             d="M 11.500037,31.436501 C 11.940474,20.09759 22.043105,11.32322 32.158766,21.979434 L 37.068811,17.246167 C 37.068811,17.246167 37.088388,32 37.088388,32 L 22.160133,31.978069 C 22.160133,31.978069 26.997745,27.140456 26.997745,27.140456 C 18.528582,18.264221 13.291696,25.230495 11.500037,31.436501 z"
             style="fill:#404040;"/>
          </a>
         </g>
        </svg>
</svg>
