<?xml version="1.0" encoding="UTF-8" standalone="no"?>
<!DOCTYPE svg PUBLIC "-//W3C//DTD SVG 1.1//EN"
 "http://www.w3.org/Graphics/SVG/1.1/DTD/svg11.dtd">
<!-- Generated by graphviz version 2.36.0 (20140111.2315)
 -->
<!-- Title: /home/travis/build/AliceO2Group/AliceO2/Common/Field/include/Field/MagFieldParam.h Pages: 1 -->
<svg width="3270pt" height="320pt"
 viewBox="0.00 0.00 3270.00 320.00" xmlns="http://www.w3.org/2000/svg" xmlns:xlink="http://www.w3.org/1999/xlink">
<g id="graph0" class="graph" transform="scale(1 1) rotate(0) translate(4 316)">
<title>/home/travis/build/AliceO2Group/AliceO2/Common/Field/include/Field/MagFieldParam.h</title>
<!-- Node1 -->
<g id="node1" class="node"><title>Node1</title>
<polygon fill="#bfbfbf" stroke="black" points="2969,-259 2969,-311 3089,-311 3089,-259 2969,-259"/>
<text text-anchor="start" x="2977" y="-299" font-family="Helvetica,sans-Serif" font-size="10.00">/home/travis/build</text>
<text text-anchor="start" x="2977" y="-288" font-family="Helvetica,sans-Serif" font-size="10.00">/AliceO2Group/AliceO2</text>
<text text-anchor="start" x="2977" y="-277" font-family="Helvetica,sans-Serif" font-size="10.00">/Common/Field/include</text>
<text text-anchor="middle" x="3029" y="-266" font-family="Helvetica,sans-Serif" font-size="10.00">/Field/MagFieldParam.h</text>
</g>
<!-- Node2 -->
<g id="node2" class="node"><title>Node2</title>
<g id="a_node2"><a xlink:href="../../db/d4b/MagneticField_8h.html" target="_top" xlink:title="Definition of the MagF class. ">
<polygon fill="none" stroke="black" points="1696,-169 1696,-221 1814,-221 1814,-169 1696,-169"/>
<text text-anchor="start" x="1704" y="-209" font-family="Helvetica,sans-Serif" font-size="10.00">/home/travis/build</text>
<text text-anchor="start" x="1704" y="-198" font-family="Helvetica,sans-Serif" font-size="10.00">/AliceO2Group/AliceO2</text>
<text text-anchor="start" x="1704" y="-187" font-family="Helvetica,sans-Serif" font-size="10.00">/Common/Field/include</text>
<text text-anchor="middle" x="1755" y="-176" font-family="Helvetica,sans-Serif" font-size="10.00">/Field/MagneticField.h</text>
</a>
</g>
</g>
<!-- Node1&#45;&gt;Node2 -->
<g id="edge1" class="edge"><title>Node1&#45;&gt;Node2</title>
<path fill="none" stroke="midnightblue" d="M2958.74,-279.147C2732.27,-263.504 2024.05,-214.584 1814.18,-200.088"/>
<polygon fill="midnightblue" stroke="midnightblue" points="2958.62,-282.647 2968.84,-279.844 2959.1,-275.663 2958.62,-282.647"/>
</g>
<!-- Node4 -->
<g id="node4" class="node"><title>Node4</title>
<g id="a_node4"><a xlink:href="../../d0/dec/MagFieldFact_8cxx.html" target="_top" xlink:title="/home/travis/build\l/AliceO2Group/AliceO2\l/Common/Field/src/MagFieldFact.cxx">
<polygon fill="none" stroke="black" points="2733.5,-0.5 2733.5,-41.5 2914.5,-41.5 2914.5,-0.5 2733.5,-0.5"/>
<text text-anchor="start" x="2741.5" y="-29.5" font-family="Helvetica,sans-Serif" font-size="10.00">/home/travis/build</text>
<text text-anchor="start" x="2741.5" y="-18.5" font-family="Helvetica,sans-Serif" font-size="10.00">/AliceO2Group/AliceO2</text>
<text text-anchor="middle" x="2824" y="-7.5" font-family="Helvetica,sans-Serif" font-size="10.00">/Common/Field/src/MagFieldFact.cxx</text>
</a>
</g>
</g>
<!-- Node1&#45;&gt;Node4 -->
<g id="edge26" class="edge"><title>Node1&#45;&gt;Node4</title>
<path fill="none" stroke="midnightblue" d="M3046.13,-249.464C3065.5,-204.922 3089.64,-127.33 3051,-78 3033.89,-56.1506 2970.28,-41.6647 2914.74,-32.9101"/>
<polygon fill="midnightblue" stroke="midnightblue" points="3042.88,-248.156 3041.97,-258.711 3049.27,-251.027 3042.88,-248.156"/>
</g>
<!-- Node5 -->
<g id="node5" class="node"><title>Node5</title>
<g id="a_node5"><a xlink:href="../../df/d54/MagFieldParam_8cxx.html" target="_top" xlink:title="Implementation of the MagFieldParam class. ">
<polygon fill="none" stroke="black" points="2852,-84.5 2852,-125.5 3042,-125.5 3042,-84.5 2852,-84.5"/>
<text text-anchor="start" x="2860" y="-113.5" font-family="Helvetica,sans-Serif" font-size="10.00">/home/travis/build</text>
<text text-anchor="start" x="2860" y="-102.5" font-family="Helvetica,sans-Serif" font-size="10.00">/AliceO2Group/AliceO2</text>
<text text-anchor="middle" x="2947" y="-91.5" font-family="Helvetica,sans-Serif" font-size="10.00">/Common/Field/src/MagFieldParam.cxx</text>
</a>
</g>
</g>
<!-- Node1&#45;&gt;Node5 -->
<g id="edge27" class="edge"><title>Node1&#45;&gt;Node5</title>
<path fill="none" stroke="midnightblue" d="M3013.11,-249.499C2996.1,-212.58 2969.72,-155.319 2955.99,-125.52"/>
<polygon fill="midnightblue" stroke="midnightblue" points="3010.06,-251.256 3017.43,-258.874 3016.42,-248.327 3010.06,-251.256"/>
</g>
<!-- Node24 -->
<g id="node24" class="node"><title>Node24</title>
<g id="a_node24"><a xlink:href="../../da/d9c/MagFieldContFact_8cxx.html" target="_top" xlink:title="Implementation of the MagFieldContFact: factory for ALICE mag. field. ">
<polygon fill="none" stroke="black" points="3098,-169 3098,-221 3262,-221 3262,-169 3098,-169"/>
<text text-anchor="start" x="3106" y="-209" font-family="Helvetica,sans-Serif" font-size="10.00">/home/travis/build</text>
<text text-anchor="start" x="3106" y="-198" font-family="Helvetica,sans-Serif" font-size="10.00">/AliceO2Group/AliceO2</text>
<text text-anchor="start" x="3106" y="-187" font-family="Helvetica,sans-Serif" font-size="10.00">/Common/Field/src/MagFieldCont</text>
<text text-anchor="middle" x="3180" y="-176" font-family="Helvetica,sans-Serif" font-size="10.00">Fact.cxx</text>
</a>
</g>
</g>
<!-- Node1&#45;&gt;Node24 -->
<g id="edge25" class="edge"><title>Node1&#45;&gt;Node24</title>
<path fill="none" stroke="midnightblue" d="M3081.04,-253.67C3099.29,-243.038 3119.56,-231.222 3136.98,-221.069"/>
<polygon fill="midnightblue" stroke="midnightblue" points="3079.15,-250.724 3072.27,-258.783 3082.67,-256.771 3079.15,-250.724"/>
</g>
<!-- Node3 -->
<g id="node3" class="node"><title>Node3</title>
<g id="a_node3"><a xlink:href="../../da/d34/MagFieldFact_8h.html" target="_top" xlink:title="Definition of the MagFieldFact: factory for ALIDE mag. field from MagFieldParam. ">
<polygon fill="none" stroke="black" points="2678,-79 2678,-131 2796,-131 2796,-79 2678,-79"/>
<text text-anchor="start" x="2686" y="-119" font-family="Helvetica,sans-Serif" font-size="10.00">/home/travis/build</text>
<text text-anchor="start" x="2686" y="-108" font-family="Helvetica,sans-Serif" font-size="10.00">/AliceO2Group/AliceO2</text>
<text text-anchor="start" x="2686" y="-97" font-family="Helvetica,sans-Serif" font-size="10.00">/Common/Field/include</text>
<text text-anchor="middle" x="2737" y="-86" font-family="Helvetica,sans-Serif" font-size="10.00">/Field/MagFieldFact.h</text>
</a>
</g>
</g>
<!-- Node2&#45;&gt;Node3 -->
<g id="edge2" class="edge"><title>Node2&#45;&gt;Node3</title>
<path fill="none" stroke="midnightblue" d="M1824.41,-191.959C2008.86,-186.109 2508.07,-167.391 2669,-132 2671.96,-131.348 2674.97,-130.591 2677.98,-129.752"/>
<polygon fill="midnightblue" stroke="midnightblue" points="1824.18,-188.464 1814.29,-192.277 1824.4,-195.461 1824.18,-188.464"/>
</g>
<!-- Node2&#45;&gt;Node4 -->
<g id="edge4" class="edge"><title>Node2&#45;&gt;Node4</title>
<path fill="none" stroke="midnightblue" d="M1824.53,-192.251C2053.03,-186.196 2768.42,-164.696 2805,-132 2830.14,-109.528 2829.88,-66.7868 2827.14,-41.7111"/>
<polygon fill="midnightblue" stroke="midnightblue" points="1824.24,-188.757 1814.34,-192.519 1824.43,-195.754 1824.24,-188.757"/>
</g>
<!-- Node2&#45;&gt;Node5 -->
<g id="edge5" class="edge"><title>Node2&#45;&gt;Node5</title>
<path fill="none" stroke="midnightblue" d="M1824.26,-194.267C1996.6,-194.016 2458.18,-187.723 2838,-132 2849.36,-130.334 2861.27,-128.055 2872.88,-125.534"/>
<polygon fill="midnightblue" stroke="midnightblue" points="1824.06,-190.767 1814.07,-194.275 1824.07,-197.767 1824.06,-190.767"/>
</g>
<!-- Node6 -->
<g id="node6" class="node"><title>Node6</title>
<g id="a_node6"><a xlink:href="../../d2/d78/MagneticField_8cxx.html" target="_top" xlink:title="/home/travis/build\l/AliceO2Group/AliceO2\l/Common/Field/src/MagneticField.cxx">
<polygon fill="none" stroke="black" points="0,-84.5 0,-125.5 182,-125.5 182,-84.5 0,-84.5"/>
<text text-anchor="start" x="8" y="-113.5" font-family="Helvetica,sans-Serif" font-size="10.00">/home/travis/build</text>
<text text-anchor="start" x="8" y="-102.5" font-family="Helvetica,sans-Serif" font-size="10.00">/AliceO2Group/AliceO2</text>
<text text-anchor="middle" x="91" y="-91.5" font-family="Helvetica,sans-Serif" font-size="10.00">/Common/Field/src/MagneticField.cxx</text>
</a>
</g>
</g>
<!-- Node2&#45;&gt;Node6 -->
<g id="edge6" class="edge"><title>Node2&#45;&gt;Node6</title>
<path fill="none" stroke="midnightblue" d="M1685.59,-193.229C1422.34,-189.997 485.612,-175.621 191,-132 180.264,-130.41 169.018,-128.12 158.102,-125.549"/>
<polygon fill="midnightblue" stroke="midnightblue" points="1685.73,-196.731 1695.77,-193.352 1685.82,-189.731 1685.73,-196.731"/>
</g>
<!-- Node7 -->
<g id="node7" class="node"><title>Node7</title>
<g id="a_node7"><a xlink:href="../../d6/dda/testMagneticField_8cxx.html" target="_top" xlink:title="/home/travis/build\l/AliceO2Group/AliceO2\l/Common/Field/test/testMagnetic\lField.cxx">
<polygon fill="none" stroke="black" points="200,-79 200,-131 362,-131 362,-79 200,-79"/>
<text text-anchor="start" x="208" y="-119" font-family="Helvetica,sans-Serif" font-size="10.00">/home/travis/build</text>
<text text-anchor="start" x="208" y="-108" font-family="Helvetica,sans-Serif" font-size="10.00">/AliceO2Group/AliceO2</text>
<text text-anchor="start" x="208" y="-97" font-family="Helvetica,sans-Serif" font-size="10.00">/Common/Field/test/testMagnetic</text>
<text text-anchor="middle" x="281" y="-86" font-family="Helvetica,sans-Serif" font-size="10.00">Field.cxx</text>
</a>
</g>
</g>
<!-- Node2&#45;&gt;Node7 -->
<g id="edge7" class="edge"><title>Node2&#45;&gt;Node7</title>
<path fill="none" stroke="midnightblue" d="M1685.55,-193.058C1442.1,-189.418 628.221,-174.302 371,-132 368.111,-131.525 365.184,-130.988 362.237,-130.401"/>
<polygon fill="midnightblue" stroke="midnightblue" points="1685.64,-196.56 1695.69,-193.208 1685.74,-189.561 1685.64,-196.56"/>
</g>
<!-- Node8 -->
<g id="node8" class="node"><title>Node8</title>
<g id="a_node8"><a xlink:href="../../d3/dee/Base_2src_2Detector_8cxx.html" target="_top" xlink:title="/home/travis/build\l/AliceO2Group/AliceO2\l/Detectors/Base/src/Detector.cxx">
<polygon fill="none" stroke="black" points="380,-84.5 380,-125.5 544,-125.5 544,-84.5 380,-84.5"/>
<text text-anchor="start" x="388" y="-113.5" font-family="Helvetica,sans-Serif" font-size="10.00">/home/travis/build</text>
<text text-anchor="start" x="388" y="-102.5" font-family="Helvetica,sans-Serif" font-size="10.00">/AliceO2Group/AliceO2</text>
<text text-anchor="middle" x="462" y="-91.5" font-family="Helvetica,sans-Serif" font-size="10.00">/Detectors/Base/src/Detector.cxx</text>
</a>
</g>
</g>
<!-- Node2&#45;&gt;Node8 -->
<g id="edge8" class="edge"><title>Node2&#45;&gt;Node8</title>
<path fill="none" stroke="midnightblue" d="M1685.53,-192.486C1463.59,-187.323 773.276,-168.66 553,-132 543.275,-130.382 533.11,-128.093 523.245,-125.539"/>
<polygon fill="midnightblue" stroke="midnightblue" points="1685.67,-195.99 1695.74,-192.721 1685.83,-188.992 1685.67,-195.99"/>
</g>
<!-- Node9 -->
<g id="node9" class="node"><title>Node9</title>
<g id="a_node9"><a xlink:href="../../d3/d85/Detectors_2EMCAL_2testsimulation_2run__sim__emcal_8C.html" target="_top" xlink:title="/home/travis/build\l/AliceO2Group/AliceO2\l/Detectors/EMCAL/testsimulation\l/run_sim_emcal.C">
<polygon fill="none" stroke="black" points="562,-79 562,-131 726,-131 726,-79 562,-79"/>
<text text-anchor="start" x="570" y="-119" font-family="Helvetica,sans-Serif" font-size="10.00">/home/travis/build</text>
<text text-anchor="start" x="570" y="-108" font-family="Helvetica,sans-Serif" font-size="10.00">/AliceO2Group/AliceO2</text>
<text text-anchor="start" x="570" y="-97" font-family="Helvetica,sans-Serif" font-size="10.00">/Detectors/EMCAL/testsimulation</text>
<text text-anchor="middle" x="644" y="-86" font-family="Helvetica,sans-Serif" font-size="10.00">/run_sim_emcal.C</text>
</a>
</g>
</g>
<!-- Node2&#45;&gt;Node9 -->
<g id="edge9" class="edge"><title>Node2&#45;&gt;Node9</title>
<path fill="none" stroke="midnightblue" d="M1685.75,-191.755C1487.22,-185.008 918.588,-163.421 735,-132 732.085,-131.501 729.13,-130.944 726.155,-130.339"/>
<polygon fill="midnightblue" stroke="midnightblue" points="1685.65,-195.254 1695.76,-192.094 1685.89,-188.258 1685.65,-195.254"/>
</g>
<!-- Node10 -->
<g id="node10" class="node"><title>Node10</title>
<g id="a_node10"><a xlink:href="../../d7/dca/CookedTracker_8cxx.html" target="_top" xlink:title="Implementation of the &quot;Cooked Matrix&quot; ITS tracker. ">
<polygon fill="none" stroke="black" points="744,-79 744,-131 930,-131 930,-79 744,-79"/>
<text text-anchor="start" x="752" y="-119" font-family="Helvetica,sans-Serif" font-size="10.00">/home/travis/build</text>
<text text-anchor="start" x="752" y="-108" font-family="Helvetica,sans-Serif" font-size="10.00">/AliceO2Group/AliceO2</text>
<text text-anchor="start" x="752" y="-97" font-family="Helvetica,sans-Serif" font-size="10.00">/Detectors/ITSMFT/ITS</text>
<text text-anchor="middle" x="837" y="-86" font-family="Helvetica,sans-Serif" font-size="10.00">/reconstruction/src/CookedTracker.cxx</text>
</a>
</g>
</g>
<!-- Node2&#45;&gt;Node10 -->
<g id="edge10" class="edge"><title>Node2&#45;&gt;Node10</title>
<path fill="none" stroke="midnightblue" d="M1685.71,-192.787C1544.38,-189.423 1213.06,-176.991 939,-132 936.115,-131.526 933.192,-131.01 930.247,-130.459"/>
<polygon fill="midnightblue" stroke="midnightblue" points="1685.88,-196.291 1695.95,-193.022 1686.04,-189.293 1685.88,-196.291"/>
</g>
<!-- Node11 -->
<g id="node11" class="node"><title>Node11</title>
<g id="a_node11"><a xlink:href="../../dd/d56/run__simu_8C.html" target="_top" xlink:title="/home/travis/build\l/AliceO2Group/AliceO2\l/Detectors/ITSMFT/MFT\l/macros/run_simu.C">
<polygon fill="none" stroke="black" points="947.5,-79 947.5,-131 1072.5,-131 1072.5,-79 947.5,-79"/>
<text text-anchor="start" x="955.5" y="-119" font-family="Helvetica,sans-Serif" font-size="10.00">/home/travis/build</text>
<text text-anchor="start" x="955.5" y="-108" font-family="Helvetica,sans-Serif" font-size="10.00">/AliceO2Group/AliceO2</text>
<text text-anchor="start" x="955.5" y="-97" font-family="Helvetica,sans-Serif" font-size="10.00">/Detectors/ITSMFT/MFT</text>
<text text-anchor="middle" x="1010" y="-86" font-family="Helvetica,sans-Serif" font-size="10.00">/macros/run_simu.C</text>
</a>
</g>
</g>
<!-- Node2&#45;&gt;Node11 -->
<g id="edge11" class="edge"><title>Node2&#45;&gt;Node11</title>
<path fill="none" stroke="midnightblue" d="M1685.67,-193.399C1562.63,-191.056 1298.66,-180.269 1082,-132 1078.89,-131.306 1075.72,-130.514 1072.55,-129.648"/>
<polygon fill="midnightblue" stroke="midnightblue" points="1685.65,-196.899 1695.71,-193.577 1685.77,-189.9 1685.65,-196.899"/>
</g>
<!-- Node12 -->
<g id="node12" class="node"><title>Node12</title>
<g id="a_node12"><a xlink:href="../../d0/d6b/ITSMFT_2MFT_2simulation_2src_2Detector_8cxx.html" target="_top" xlink:title="/home/travis/build\l/AliceO2Group/AliceO2\l/Detectors/ITSMFT/MFT\l/simulation/src/Detector.cxx">
<polygon fill="none" stroke="black" points="1091,-79 1091,-131 1231,-131 1231,-79 1091,-79"/>
<text text-anchor="start" x="1099" y="-119" font-family="Helvetica,sans-Serif" font-size="10.00">/home/travis/build</text>
<text text-anchor="start" x="1099" y="-108" font-family="Helvetica,sans-Serif" font-size="10.00">/AliceO2Group/AliceO2</text>
<text text-anchor="start" x="1099" y="-97" font-family="Helvetica,sans-Serif" font-size="10.00">/Detectors/ITSMFT/MFT</text>
<text text-anchor="middle" x="1161" y="-86" font-family="Helvetica,sans-Serif" font-size="10.00">/simulation/src/Detector.cxx</text>
</a>
</g>
</g>
<!-- Node2&#45;&gt;Node12 -->
<g id="edge12" class="edge"><title>Node2&#45;&gt;Node12</title>
<path fill="none" stroke="midnightblue" d="M1685.42,-190.011C1585.76,-183.309 1397.07,-166.939 1240,-132 1237.04,-131.342 1234.03,-130.616 1231.01,-129.839"/>
<polygon fill="midnightblue" stroke="midnightblue" points="1685.45,-193.52 1695.66,-190.686 1685.91,-186.535 1685.45,-193.52"/>
</g>
<!-- Node13 -->
<g id="node13" class="node"><title>Node13</title>
<g id="a_node13"><a xlink:href="../../de/da5/FrameStructure_8cxx.html" target="_top" xlink:title="/home/travis/build\l/AliceO2Group/AliceO2\l/Detectors/Passive/src\l/FrameStructure.cxx">
<polygon fill="none" stroke="black" points="1249,-79 1249,-131 1367,-131 1367,-79 1249,-79"/>
<text text-anchor="start" x="1257" y="-119" font-family="Helvetica,sans-Serif" font-size="10.00">/home/travis/build</text>
<text text-anchor="start" x="1257" y="-108" font-family="Helvetica,sans-Serif" font-size="10.00">/AliceO2Group/AliceO2</text>
<text text-anchor="start" x="1257" y="-97" font-family="Helvetica,sans-Serif" font-size="10.00">/Detectors/Passive/src</text>
<text text-anchor="middle" x="1308" y="-86" font-family="Helvetica,sans-Serif" font-size="10.00">/FrameStructure.cxx</text>
</a>
</g>
</g>
<!-- Node2&#45;&gt;Node13 -->
<g id="edge13" class="edge"><title>Node2&#45;&gt;Node13</title>
<path fill="none" stroke="midnightblue" d="M1685.97,-186.833C1609.52,-177.94 1483.06,-160.379 1377,-132 1373.78,-131.14 1370.51,-130.186 1367.22,-129.166"/>
<polygon fill="midnightblue" stroke="midnightblue" points="1685.62,-190.317 1695.96,-187.979 1686.42,-183.362 1685.62,-190.317"/>
</g>
<!-- Node14 -->
<g id="node14" class="node"><title>Node14</title>
<g id="a_node14"><a xlink:href="../../dd/d2b/o2__sim__its__ALP3_8cxx.html" target="_top" xlink:title="/home/travis/build\l/AliceO2Group/AliceO2\l/Framework/TestWorkflows\l/src/o2_sim_its_ALP3.cxx">
<polygon fill="none" stroke="black" points="1385.5,-79 1385.5,-131 1522.5,-131 1522.5,-79 1385.5,-79"/>
<text text-anchor="start" x="1393.5" y="-119" font-family="Helvetica,sans-Serif" font-size="10.00">/home/travis/build</text>
<text text-anchor="start" x="1393.5" y="-108" font-family="Helvetica,sans-Serif" font-size="10.00">/AliceO2Group/AliceO2</text>
<text text-anchor="start" x="1393.5" y="-97" font-family="Helvetica,sans-Serif" font-size="10.00">/Framework/TestWorkflows</text>
<text text-anchor="middle" x="1454" y="-86" font-family="Helvetica,sans-Serif" font-size="10.00">/src/o2_sim_its_ALP3.cxx</text>
</a>
</g>
</g>
<!-- Node2&#45;&gt;Node14 -->
<g id="edge14" class="edge"><title>Node2&#45;&gt;Node14</title>
<path fill="none" stroke="midnightblue" d="M1685.84,-175.738C1641.67,-163.837 1583.27,-147.661 1532,-132 1529,-131.083 1525.93,-130.131 1522.84,-129.157"/>
<polygon fill="midnightblue" stroke="midnightblue" points="1685.04,-179.148 1695.6,-178.363 1686.86,-172.388 1685.04,-179.148"/>
</g>
<!-- Node15 -->
<g id="node15" class="node"><title>Node15</title>
<g id="a_node15"><a xlink:href="../../d7/d11/o2__sim__tpc_8cxx.html" target="_top" xlink:title="/home/travis/build\l/AliceO2Group/AliceO2\l/Framework/TestWorkflows\l/src/o2_sim_tpc.cxx">
<polygon fill="none" stroke="black" points="1540.5,-79 1540.5,-131 1677.5,-131 1677.5,-79 1540.5,-79"/>
<text text-anchor="start" x="1548.5" y="-119" font-family="Helvetica,sans-Serif" font-size="10.00">/home/travis/build</text>
<text text-anchor="start" x="1548.5" y="-108" font-family="Helvetica,sans-Serif" font-size="10.00">/AliceO2Group/AliceO2</text>
<text text-anchor="start" x="1548.5" y="-97" font-family="Helvetica,sans-Serif" font-size="10.00">/Framework/TestWorkflows</text>
<text text-anchor="middle" x="1609" y="-86" font-family="Helvetica,sans-Serif" font-size="10.00">/src/o2_sim_tpc.cxx</text>
</a>
</g>
</g>
<!-- Node2&#45;&gt;Node15 -->
<g id="edge15" class="edge"><title>Node2&#45;&gt;Node15</title>
<path fill="none" stroke="midnightblue" d="M1704.2,-163.38C1686.68,-152.823 1667.28,-141.13 1650.59,-131.069"/>
<polygon fill="midnightblue" stroke="midnightblue" points="1702.79,-166.618 1713.16,-168.783 1706.4,-160.623 1702.79,-166.618"/>
</g>
<!-- Node16 -->
<g id="node16" class="node"><title>Node16</title>
<g id="a_node16"><a xlink:href="../../d3/db7/run__digi__tpc_8C.html" target="_top" xlink:title="/home/travis/build\l/AliceO2Group/AliceO2\l/macro/run_digi_tpc.C">
<polygon fill="none" stroke="black" points="1696,-84.5 1696,-125.5 1814,-125.5 1814,-84.5 1696,-84.5"/>
<text text-anchor="start" x="1704" y="-113.5" font-family="Helvetica,sans-Serif" font-size="10.00">/home/travis/build</text>
<text text-anchor="start" x="1704" y="-102.5" font-family="Helvetica,sans-Serif" font-size="10.00">/AliceO2Group/AliceO2</text>
<text text-anchor="middle" x="1755" y="-91.5" font-family="Helvetica,sans-Serif" font-size="10.00">/macro/run_digi_tpc.C</text>
</a>
</g>
</g>
<!-- Node2&#45;&gt;Node16 -->
<g id="edge16" class="edge"><title>Node2&#45;&gt;Node16</title>
<path fill="none" stroke="midnightblue" d="M1755,-158.515C1755,-147.257 1755,-135.227 1755,-125.525"/>
<polygon fill="midnightblue" stroke="midnightblue" points="1751.5,-158.547 1755,-168.547 1758.5,-158.547 1751.5,-158.547"/>
</g>
<!-- Node18 -->
<g id="node18" class="node"><title>Node18</title>
<g id="a_node18"><a xlink:href="../../d9/d71/run__sim_8C.html" target="_top" xlink:title="/home/travis/build\l/AliceO2Group/AliceO2\l/macro/run_sim.C">
<polygon fill="none" stroke="black" points="1832,-84.5 1832,-125.5 1950,-125.5 1950,-84.5 1832,-84.5"/>
<text text-anchor="start" x="1840" y="-113.5" font-family="Helvetica,sans-Serif" font-size="10.00">/home/travis/build</text>
<text text-anchor="start" x="1840" y="-102.5" font-family="Helvetica,sans-Serif" font-size="10.00">/AliceO2Group/AliceO2</text>
<text text-anchor="middle" x="1891" y="-91.5" font-family="Helvetica,sans-Serif" font-size="10.00">/macro/run_sim.C</text>
</a>
</g>
</g>
<!-- Node2&#45;&gt;Node18 -->
<g id="edge18" class="edge"><title>Node2&#45;&gt;Node18</title>
<path fill="none" stroke="midnightblue" d="M1802.38,-163.345C1821.72,-150.828 1843.53,-136.719 1860.67,-125.628"/>
<polygon fill="midnightblue" stroke="midnightblue" points="1800.47,-160.412 1793.97,-168.783 1804.27,-166.289 1800.47,-160.412"/>
</g>
<!-- Node19 -->
<g id="node19" class="node"><title>Node19</title>
<g id="a_node19"><a xlink:href="../../db/df3/macro_2run__sim__emcal_8C.html" target="_top" xlink:title="/home/travis/build\l/AliceO2Group/AliceO2\l/macro/run_sim_emcal.C">
<polygon fill="none" stroke="black" points="1968,-84.5 1968,-125.5 2094,-125.5 2094,-84.5 1968,-84.5"/>
<text text-anchor="start" x="1976" y="-113.5" font-family="Helvetica,sans-Serif" font-size="10.00">/home/travis/build</text>
<text text-anchor="start" x="1976" y="-102.5" font-family="Helvetica,sans-Serif" font-size="10.00">/AliceO2Group/AliceO2</text>
<text text-anchor="middle" x="2031" y="-91.5" font-family="Helvetica,sans-Serif" font-size="10.00">/macro/run_sim_emcal.C</text>
</a>
</g>
</g>
<!-- Node2&#45;&gt;Node19 -->
<g id="edge19" class="edge"><title>Node2&#45;&gt;Node19</title>
<path fill="none" stroke="midnightblue" d="M1824.01,-173.989C1863.66,-162.251 1914.31,-146.849 1959,-132 1965.05,-129.988 1971.37,-127.817 1977.63,-125.617"/>
<polygon fill="midnightblue" stroke="midnightblue" points="1822.77,-170.704 1814.17,-176.892 1824.75,-177.418 1822.77,-170.704"/>
</g>
<!-- Node20 -->
<g id="node20" class="node"><title>Node20</title>
<g id="a_node20"><a xlink:href="../../d5/dd2/run__sim__its__ALP3_8C.html" target="_top" xlink:title="/home/travis/build\l/AliceO2Group/AliceO2\l/macro/run_sim_its_ALP3.C">
<polygon fill="none" stroke="black" points="2112,-84.5 2112,-125.5 2252,-125.5 2252,-84.5 2112,-84.5"/>
<text text-anchor="start" x="2120" y="-113.5" font-family="Helvetica,sans-Serif" font-size="10.00">/home/travis/build</text>
<text text-anchor="start" x="2120" y="-102.5" font-family="Helvetica,sans-Serif" font-size="10.00">/AliceO2Group/AliceO2</text>
<text text-anchor="middle" x="2182" y="-91.5" font-family="Helvetica,sans-Serif" font-size="10.00">/macro/run_sim_its_ALP3.C</text>
</a>
</g>
</g>
<!-- Node2&#45;&gt;Node20 -->
<g id="edge20" class="edge"><title>Node2&#45;&gt;Node20</title>
<path fill="none" stroke="midnightblue" d="M1824.15,-184.632C1894.81,-174.37 2007.44,-156.109 2103,-132 2110.42,-130.128 2118.15,-127.917 2125.75,-125.587"/>
<polygon fill="midnightblue" stroke="midnightblue" points="1823.43,-181.198 1814.03,-186.087 1824.43,-188.127 1823.43,-181.198"/>
</g>
<!-- Node21 -->
<g id="node21" class="node"><title>Node21</title>
<g id="a_node21"><a xlink:href="../../d4/d5f/run__sim__mft_8C.html" target="_top" xlink:title="/home/travis/build\l/AliceO2Group/AliceO2\l/macro/run_sim_mft.C">
<polygon fill="none" stroke="black" points="2270,-84.5 2270,-125.5 2388,-125.5 2388,-84.5 2270,-84.5"/>
<text text-anchor="start" x="2278" y="-113.5" font-family="Helvetica,sans-Serif" font-size="10.00">/home/travis/build</text>
<text text-anchor="start" x="2278" y="-102.5" font-family="Helvetica,sans-Serif" font-size="10.00">/AliceO2Group/AliceO2</text>
<text text-anchor="middle" x="2329" y="-91.5" font-family="Helvetica,sans-Serif" font-size="10.00">/macro/run_sim_mft.C</text>
</a>
</g>
</g>
<!-- Node2&#45;&gt;Node21 -->
<g id="edge21" class="edge"><title>Node2&#45;&gt;Node21</title>
<path fill="none" stroke="midnightblue" d="M1824.4,-190.84C1922.8,-185.159 2107.95,-170.033 2261,-132 2267.99,-130.263 2275.24,-128.01 2282.29,-125.558"/>
<polygon fill="midnightblue" stroke="midnightblue" points="1824.07,-187.352 1814.28,-191.408 1824.46,-194.341 1824.07,-187.352"/>
</g>
<!-- Node22 -->
<g id="node22" class="node"><title>Node22</title>
<g id="a_node22"><a xlink:href="../../d7/d08/run__sim__tpc_8C.html" target="_top" xlink:title="/home/travis/build\l/AliceO2Group/AliceO2\l/macro/run_sim_tpc.C">
<polygon fill="none" stroke="black" points="2406,-84.5 2406,-125.5 2524,-125.5 2524,-84.5 2406,-84.5"/>
<text text-anchor="start" x="2414" y="-113.5" font-family="Helvetica,sans-Serif" font-size="10.00">/home/travis/build</text>
<text text-anchor="start" x="2414" y="-102.5" font-family="Helvetica,sans-Serif" font-size="10.00">/AliceO2Group/AliceO2</text>
<text text-anchor="middle" x="2465" y="-91.5" font-family="Helvetica,sans-Serif" font-size="10.00">/macro/run_sim_tpc.C</text>
</a>
</g>
</g>
<!-- Node2&#45;&gt;Node22 -->
<g id="edge22" class="edge"><title>Node2&#45;&gt;Node22</title>
<path fill="none" stroke="midnightblue" d="M1824.33,-193.373C1943.13,-190.96 2192.57,-180.025 2397,-132 2404.14,-130.324 2411.53,-128.072 2418.7,-125.592"/>
<polygon fill="midnightblue" stroke="midnightblue" points="1824.21,-189.875 1814.28,-193.563 1824.35,-196.874 1824.21,-189.875"/>
</g>
<!-- Node23 -->
<g id="node23" class="node"><title>Node23</title>
<g id="a_node23"><a xlink:href="../../dd/d4e/run__trac__its_8C.html" target="_top" xlink:title="/home/travis/build\l/AliceO2Group/AliceO2\l/macro/run_trac_its.C">
<polygon fill="none" stroke="black" points="2542,-84.5 2542,-125.5 2660,-125.5 2660,-84.5 2542,-84.5"/>
<text text-anchor="start" x="2550" y="-113.5" font-family="Helvetica,sans-Serif" font-size="10.00">/home/travis/build</text>
<text text-anchor="start" x="2550" y="-102.5" font-family="Helvetica,sans-Serif" font-size="10.00">/AliceO2Group/AliceO2</text>
<text text-anchor="middle" x="2601" y="-91.5" font-family="Helvetica,sans-Serif" font-size="10.00">/macro/run_trac_its.C</text>
</a>
</g>
</g>
<!-- Node2&#45;&gt;Node23 -->
<g id="edge24" class="edge"><title>Node2&#45;&gt;Node23</title>
<path fill="none" stroke="midnightblue" d="M1824.28,-191.014C1988.75,-183.518 2398.94,-162.312 2533,-132 2540.27,-130.355 2547.81,-128.088 2555.09,-125.572"/>
<polygon fill="midnightblue" stroke="midnightblue" points="1824.11,-187.519 1814.28,-191.467 1824.43,-194.511 1824.11,-187.519"/>
</g>
<!-- Node3&#45;&gt;Node4 -->
<g id="edge3" class="edge"><title>Node3&#45;&gt;Node4</title>
<path fill="none" stroke="midnightblue" d="M2770.92,-72.0295C2781.77,-61.8003 2793.46,-50.7821 2803.1,-41.6965"/>
<polygon fill="midnightblue" stroke="midnightblue" points="2768.45,-69.5459 2763.58,-78.9517 2773.25,-74.6398 2768.45,-69.5459"/>
</g>
<!-- Node17 -->
<g id="node17" class="node"><title>Node17</title>
<g id="a_node17"><a xlink:href="../../d3/d56/runTPC_8cxx.html" target="_top" xlink:title="/home/travis/build\l/AliceO2Group/AliceO2\l/run/runTPC.cxx">
<polygon fill="none" stroke="black" points="2051,-0.5 2051,-41.5 2169,-41.5 2169,-0.5 2051,-0.5"/>
<text text-anchor="start" x="2059" y="-29.5" font-family="Helvetica,sans-Serif" font-size="10.00">/home/travis/build</text>
<text text-anchor="start" x="2059" y="-18.5" font-family="Helvetica,sans-Serif" font-size="10.00">/AliceO2Group/AliceO2</text>
<text text-anchor="middle" x="2110" y="-7.5" font-family="Helvetica,sans-Serif" font-size="10.00">/run/runTPC.cxx</text>
</a>
</g>
</g>
<!-- Node16&#45;&gt;Node17 -->
<g id="edge17" class="edge"><title>Node16&#45;&gt;Node17</title>
<path fill="none" stroke="midnightblue" d="M1812.7,-81.1648C1816.17,-80.0348 1819.62,-78.969 1823,-78 1900.48,-55.8095 1992.23,-39.6058 2050.76,-30.4972"/>
<polygon fill="midnightblue" stroke="midnightblue" points="1811.28,-77.9516 1802.94,-84.4928 1813.54,-84.5768 1811.28,-77.9516"/>
</g>
<!-- Node22&#45;&gt;Node17 -->
<g id="edge23" class="edge"><title>Node22&#45;&gt;Node17</title>
<path fill="none" stroke="midnightblue" d="M2407.3,-81.1648C2403.83,-80.0348 2400.38,-78.969 2397,-78 2319.52,-55.8095 2227.77,-39.6058 2169.24,-30.4972"/>
<polygon fill="midnightblue" stroke="midnightblue" points="2406.46,-84.5768 2417.06,-84.4928 2408.72,-77.9516 2406.46,-84.5768"/>
</g>
</g>
</svg>
