<?xml version="1.0" encoding="UTF-8" standalone="no"?>
<!DOCTYPE svg PUBLIC "-//W3C//DTD SVG 1.1//EN"
 "http://www.w3.org/Graphics/SVG/1.1/DTD/svg11.dtd">
<!-- Generated by graphviz version 2.36.0 (20140111.2315)
 -->
<!-- Title: o2::Header::HeartbeatTrailer Pages: 1 -->
<svg width="389pt" height="218pt"
 viewBox="0.00 0.00 389.00 218.00" xmlns="http://www.w3.org/2000/svg" xmlns:xlink="http://www.w3.org/1999/xlink">
<g id="graph0" class="graph" transform="scale(1 1) rotate(0) translate(4 214)">
<title>o2::Header::HeartbeatTrailer</title>
<!-- Node1 -->
<g id="node1" class="node"><title>Node1</title>
<polygon fill="#bfbfbf" stroke="black" points="91,-1 91,-69 231,-69 231,-1 91,-1"/>
<text text-anchor="middle" x="161" y="-57" font-family="Helvetica,sans-Serif" font-size="10.00">o2::Header::HeartbeatTrailer</text>
<polyline fill="none" stroke="black" points="91,-50 231,-50 "/>
<text text-anchor="middle" x="161" y="-38" font-family="Helvetica,sans-Serif" font-size="10.00"> </text>
<polyline fill="none" stroke="black" points="91,-31 231,-31 "/>
<text text-anchor="start" x="99" y="-19" font-family="Helvetica,sans-Serif" font-size="10.00">+ operator bool()</text>
<text text-anchor="start" x="99" y="-8" font-family="Helvetica,sans-Serif" font-size="10.00">+ operator uint64_t()</text>
</g>
<!-- Node2 -->
<g id="node2" class="node"><title>Node2</title>
<polygon fill="none" stroke="#bfbfbf" points="-0.5,-151.5 -0.5,-208.5 50.5,-208.5 50.5,-151.5 -0.5,-151.5"/>
<text text-anchor="middle" x="25" y="-196.5" font-family="Helvetica,sans-Serif" font-size="10.00">uint64_t</text>
<polyline fill="none" stroke="#bfbfbf" points="-0.5,-189.5 50.5,-189.5 "/>
<text text-anchor="middle" x="25" y="-177.5" font-family="Helvetica,sans-Serif" font-size="10.00"> </text>
<polyline fill="none" stroke="#bfbfbf" points="-0.5,-170.5 50.5,-170.5 "/>
<text text-anchor="middle" x="25" y="-158.5" font-family="Helvetica,sans-Serif" font-size="10.00"> </text>
</g>
<!-- Node2&#45;&gt;Node1 -->
<g id="edge1" class="edge"><title>Node2&#45;&gt;Node1</title>
<path fill="none" stroke="#404040" d="M27.3127,-151.103C30.2484,-131.477 36.9062,-105.666 52,-88 59.8144,-78.854 69.6011,-71.1957 80.0836,-64.8176"/>
<polygon fill="none" stroke="#404040" points="80.2746,-64.711 83.5618,-58.2927 90.7507,-58.8586 87.4634,-65.2768 80.2746,-64.711"/>
<text text-anchor="middle" x="80.5" y="-107.5" font-family="Helvetica,sans-Serif" font-size="10.00"> +trailerWord</text>
</g>
<!-- Node3 -->
<g id="node3" class="node"><title>Node3</title>
<polygon fill="none" stroke="#bfbfbf" points="89.5,-151 89.5,-209 118.5,-209 118.5,-151 89.5,-151"/>
<polyline fill="none" stroke="#bfbfbf" points="89.5,-189 118.5,-189 "/>
<text text-anchor="middle" x="104" y="-177" font-family="Helvetica,sans-Serif" font-size="10.00"> </text>
<polyline fill="none" stroke="#bfbfbf" points="89.5,-170 118.5,-170 "/>
<text text-anchor="middle" x="104" y="-158" font-family="Helvetica,sans-Serif" font-size="10.00"> </text>
</g>
<!-- Node3&#45;&gt;Node1 -->
<g id="edge2" class="edge"><title>Node3&#45;&gt;Node1</title>
<path fill="none" stroke="#404040" d="M108.636,-150.731C112.251,-132.351 118.164,-108.146 127,-88 128.213,-85.2342 129.567,-82.4513 131.018,-79.6882"/>
<polygon fill="none" stroke="#404040" points="131.05,-79.6325 130.545,-72.439 136.991,-69.2068 137.496,-76.4002 131.05,-79.6325"/>
<text text-anchor="middle" x="142.5" y="-107.5" font-family="Helvetica,sans-Serif" font-size="10.00"> +@15</text>
</g>
<!-- Node4 -->
<g id="node4" class="node"><title>Node4</title>
<polygon fill="none" stroke="#bfbfbf" points="136.5,-151.5 136.5,-208.5 187.5,-208.5 187.5,-151.5 136.5,-151.5"/>
<text text-anchor="middle" x="162" y="-196.5" font-family="Helvetica,sans-Serif" font-size="10.00">uint16_t</text>
<polyline fill="none" stroke="#bfbfbf" points="136.5,-189.5 187.5,-189.5 "/>
<text text-anchor="middle" x="162" y="-177.5" font-family="Helvetica,sans-Serif" font-size="10.00"> </text>
<polyline fill="none" stroke="#bfbfbf" points="136.5,-170.5 187.5,-170.5 "/>
<text text-anchor="middle" x="162" y="-158.5" font-family="Helvetica,sans-Serif" font-size="10.00"> </text>
</g>
<!-- Node4&#45;&gt;Node1 -->
<g id="edge3" class="edge"><title>Node4&#45;&gt;Node1</title>
<path fill="none" stroke="#404040" d="M161.807,-151.428C161.668,-131.569 161.478,-104.329 161.317,-81.2975"/>
<polygon fill="none" stroke="#404040" points="161.315,-81.0088 157.273,-75.037 161.231,-69.0091 165.273,-74.981 161.315,-81.0088"/>
<text text-anchor="middle" x="195.5" y="-124" font-family="Helvetica,sans-Serif" font-size="10.00"> +hbfTruncated</text>
<text text-anchor="middle" x="195.5" y="-113" font-family="Helvetica,sans-Serif" font-size="10.00">+hbfStatus</text>
<text text-anchor="middle" x="195.5" y="-102" font-family="Helvetica,sans-Serif" font-size="10.00">+trailerLength</text>
<text text-anchor="middle" x="195.5" y="-91" font-family="Helvetica,sans-Serif" font-size="10.00">+hbAccept</text>
</g>
<!-- Node5 -->
<g id="node5" class="node"><title>Node5</title>
<polygon fill="none" stroke="#bfbfbf" points="225.5,-151.5 225.5,-208.5 276.5,-208.5 276.5,-151.5 225.5,-151.5"/>
<text text-anchor="middle" x="251" y="-196.5" font-family="Helvetica,sans-Serif" font-size="10.00">uint32_t</text>
<polyline fill="none" stroke="#bfbfbf" points="225.5,-189.5 276.5,-189.5 "/>
<text text-anchor="middle" x="251" y="-177.5" font-family="Helvetica,sans-Serif" font-size="10.00"> </text>
<polyline fill="none" stroke="#bfbfbf" points="225.5,-170.5 276.5,-170.5 "/>
<text text-anchor="middle" x="251" y="-158.5" font-family="Helvetica,sans-Serif" font-size="10.00"> </text>
</g>
<!-- Node5&#45;&gt;Node1 -->
<g id="edge4" class="edge"><title>Node5&#45;&gt;Node1</title>
<path fill="none" stroke="#404040" d="M249.144,-151.212C246.761,-132.129 241.336,-106.928 229,-88 226.699,-84.469 224.073,-81.0821 221.223,-77.8509"/>
<polygon fill="none" stroke="#404040" points="221.094,-77.7203 214.035,-76.2483 212.679,-69.1659 219.738,-70.6379 221.094,-77.7203"/>
<text text-anchor="middle" x="273.5" y="-113" font-family="Helvetica,sans-Serif" font-size="10.00"> +status</text>
<text text-anchor="middle" x="273.5" y="-102" font-family="Helvetica,sans-Serif" font-size="10.00">+dataLength</text>
</g>
<!-- Node6 -->
<g id="node6" class="node"><title>Node6</title>
<polygon fill="none" stroke="#bfbfbf" points="306,-151.5 306,-208.5 352,-208.5 352,-151.5 306,-151.5"/>
<text text-anchor="middle" x="329" y="-196.5" font-family="Helvetica,sans-Serif" font-size="10.00">uint8_t</text>
<polyline fill="none" stroke="#bfbfbf" points="306,-189.5 352,-189.5 "/>
<text text-anchor="middle" x="329" y="-177.5" font-family="Helvetica,sans-Serif" font-size="10.00"> </text>
<polyline fill="none" stroke="#bfbfbf" points="306,-170.5 352,-170.5 "/>
<text text-anchor="middle" x="329" y="-158.5" font-family="Helvetica,sans-Serif" font-size="10.00"> </text>
</g>
<!-- Node6&#45;&gt;Node1 -->
<g id="edge5" class="edge"><title>Node6&#45;&gt;Node1</title>
<path fill="none" stroke="#404040" d="M328.279,-151.118C326.334,-131.243 320.662,-105.117 305,-88 288.575,-70.0504 265.486,-58.2887 242.598,-50.5848"/>
<polygon fill="none" stroke="#404040" points="242.513,-50.5586 235.6,-52.6098 231.048,-47.0172 237.961,-44.9661 242.513,-50.5586"/>
<text text-anchor="middle" x="353.5" y="-107.5" font-family="Helvetica,sans-Serif" font-size="10.00"> +blockType</text>
</g>
</g>
</svg>
