<?xml version="1.0" encoding="UTF-8" standalone="no"?>
<!DOCTYPE svg PUBLIC "-//W3C//DTD SVG 1.1//EN"
 "http://www.w3.org/Graphics/SVG/1.1/DTD/svg11.dtd">
<!-- Generated by graphviz version 2.36.0 (20140111.2315)
 -->
<!-- Title: ImGuiStorage Pages: 1 -->
<!--zoomable 1058 -->
<svg id="main" version="1.1" xmlns="http://www.w3.org/2000/svg" xmlns:xlink="http://www.w3.org/1999/xlink" xml:space="preserve" onload="init(evt)">
<style type="text/css"><![CDATA[
.edge:hover path { stroke: red; }
.edge:hover polygon { stroke: red; fill: red; }
]]></style>
<script type="text/javascript"><![CDATA[
var edges = document.getElementsByTagName('g');
if (edges && edges.length) {
  for (var i=0;i<edges.length;i++) {
    if (edges[i].id.substr(0,4)=='edge') {
      edges[i].setAttribute('class','edge');
    }
  }
}
]]></script>
        <defs>
                <circle id="rim" cx="0" cy="0" r="7"/>
                <circle id="rim2" cx="0" cy="0" r="3.5"/>
                <g id="zoomPlus">
                        <use xlink:href="#rim" fill="#404040">
                                <set attributeName="fill" to="#808080" begin="zoomplus.mouseover" end="zoomplus.mouseout"/>
                        </use>
                        <path d="M-4,0h8M0,-4v8" fill="none" stroke="white" stroke-width="1.5" pointer-events="none"/>
                </g>
                <g id="zoomMin">
                        <use xlink:href="#rim" fill="#404040">
                                <set attributeName="fill" to="#808080" begin="zoomminus.mouseover" end="zoomminus.mouseout"/>
                        </use>
                        <path d="M-4,0h8" fill="none" stroke="white" stroke-width="1.5" pointer-events="none"/>
                </g>
                <g id="dirArrow">
                        <path fill="none" stroke="white" stroke-width="1.5" d="M0,-3.0v7 M-2.5,-0.5L0,-3.0L2.5,-0.5"/>
                </g>
               <g id="resetDef">
                       <use xlink:href="#rim2" fill="#404040">
                               <set attributeName="fill" to="#808080" begin="reset.mouseover" end="reset.mouseout"/>
                       </use>
               </g>
        </defs>

<script type="text/javascript">
var viewWidth = 453;
var viewHeight = 1058;
var sectionId = 'dynsection-0';
</script>
<script xlink:href="../../svgpan.js"/>
<svg id="graph" class="graph">
<g id="viewport">
<title>ImGuiStorage</title>
<!-- Node1 -->
<g id="node1" class="node"><title>Node1</title>
<polygon fill="#bfbfbf" stroke="black" points="230.5,-1 230.5,-201 325.5,-201 325.5,-1 230.5,-1"/>
<text text-anchor="middle" x="278" y="-189" font-family="Helvetica,sans-Serif" font-size="10.00">ImGuiStorage</text>
<polyline fill="none" stroke="black" points="230.5,-182 325.5,-182 "/>
<text text-anchor="middle" x="278" y="-170" font-family="Helvetica,sans-Serif" font-size="10.00"> </text>
<polyline fill="none" stroke="black" points="230.5,-163 325.5,-163 "/>
<text text-anchor="start" x="238.5" y="-151" font-family="Helvetica,sans-Serif" font-size="10.00">+ Clear()</text>
<text text-anchor="start" x="238.5" y="-140" font-family="Helvetica,sans-Serif" font-size="10.00">+ GetInt()</text>
<text text-anchor="start" x="238.5" y="-129" font-family="Helvetica,sans-Serif" font-size="10.00">+ SetInt()</text>
<text text-anchor="start" x="238.5" y="-118" font-family="Helvetica,sans-Serif" font-size="10.00">+ GetBool()</text>
<text text-anchor="start" x="238.5" y="-107" font-family="Helvetica,sans-Serif" font-size="10.00">+ SetBool()</text>
<text text-anchor="start" x="238.5" y="-96" font-family="Helvetica,sans-Serif" font-size="10.00">+ GetFloat()</text>
<text text-anchor="start" x="238.5" y="-85" font-family="Helvetica,sans-Serif" font-size="10.00">+ SetFloat()</text>
<text text-anchor="start" x="238.5" y="-74" font-family="Helvetica,sans-Serif" font-size="10.00">+ GetVoidPtr()</text>
<text text-anchor="start" x="238.5" y="-63" font-family="Helvetica,sans-Serif" font-size="10.00">+ SetVoidPtr()</text>
<text text-anchor="start" x="238.5" y="-52" font-family="Helvetica,sans-Serif" font-size="10.00">+ GetIntRef()</text>
<text text-anchor="start" x="238.5" y="-41" font-family="Helvetica,sans-Serif" font-size="10.00">+ GetBoolRef()</text>
<text text-anchor="start" x="238.5" y="-30" font-family="Helvetica,sans-Serif" font-size="10.00">+ GetFloatRef()</text>
<text text-anchor="start" x="238.5" y="-19" font-family="Helvetica,sans-Serif" font-size="10.00">+ GetVoidPtrRef()</text>
<text text-anchor="start" x="238.5" y="-8" font-family="Helvetica,sans-Serif" font-size="10.00">+ SetAllInt()</text>
</g>
<!-- Node2 -->
<g id="node2" class="node"><title>Node2</title>
<g id="a_node2"><a xlink:href="../../d3/d32/classImVector.html" target="_top" xlink:title="{ImVector\&lt; ImGuiStorage\l::Pair \&gt;\n||+ ImVector()\l+ ~ImVector()\l+ empty()\l+ size()\l+ capacity()\l+ operator[]()\l+ operator[]()\l+ clear()\l+ begin()\l+ begin()\l+ end()\l+ end()\l+ front()\l+ front()\l+ back()\l+ back()\l+ swap()\l+ _grow_capacity()\l+ resize()\l+ reserve()\l+ push_back()\l+ pop_back()\l+ erase()\l+ insert()\l}">
<polygon fill="none" stroke="black" points="215.5,-250.5 215.5,-571.5 340.5,-571.5 340.5,-250.5 215.5,-250.5"/>
<text text-anchor="start" x="223.5" y="-559.5" font-family="Helvetica,sans-Serif" font-size="10.00">ImVector&lt; ImGuiStorage</text>
<text text-anchor="middle" x="278" y="-548.5" font-family="Helvetica,sans-Serif" font-size="10.00">::Pair &gt;</text>
<polyline fill="none" stroke="black" points="215.5,-541.5 340.5,-541.5 "/>
<text text-anchor="middle" x="278" y="-529.5" font-family="Helvetica,sans-Serif" font-size="10.00"> </text>
<polyline fill="none" stroke="black" points="215.5,-522.5 340.5,-522.5 "/>
<text text-anchor="start" x="223.5" y="-510.5" font-family="Helvetica,sans-Serif" font-size="10.00">+ ImVector()</text>
<text text-anchor="start" x="223.5" y="-499.5" font-family="Helvetica,sans-Serif" font-size="10.00">+ ~ImVector()</text>
<text text-anchor="start" x="223.5" y="-488.5" font-family="Helvetica,sans-Serif" font-size="10.00">+ empty()</text>
<text text-anchor="start" x="223.5" y="-477.5" font-family="Helvetica,sans-Serif" font-size="10.00">+ size()</text>
<text text-anchor="start" x="223.5" y="-466.5" font-family="Helvetica,sans-Serif" font-size="10.00">+ capacity()</text>
<text text-anchor="start" x="223.5" y="-455.5" font-family="Helvetica,sans-Serif" font-size="10.00">+ operator[]()</text>
<text text-anchor="start" x="223.5" y="-444.5" font-family="Helvetica,sans-Serif" font-size="10.00">+ operator[]()</text>
<text text-anchor="start" x="223.5" y="-433.5" font-family="Helvetica,sans-Serif" font-size="10.00">+ clear()</text>
<text text-anchor="start" x="223.5" y="-422.5" font-family="Helvetica,sans-Serif" font-size="10.00">+ begin()</text>
<text text-anchor="start" x="223.5" y="-411.5" font-family="Helvetica,sans-Serif" font-size="10.00">+ begin()</text>
<text text-anchor="start" x="223.5" y="-400.5" font-family="Helvetica,sans-Serif" font-size="10.00">+ end()</text>
<text text-anchor="start" x="223.5" y="-389.5" font-family="Helvetica,sans-Serif" font-size="10.00">+ end()</text>
<text text-anchor="start" x="223.5" y="-378.5" font-family="Helvetica,sans-Serif" font-size="10.00">+ front()</text>
<text text-anchor="start" x="223.5" y="-367.5" font-family="Helvetica,sans-Serif" font-size="10.00">+ front()</text>
<text text-anchor="start" x="223.5" y="-356.5" font-family="Helvetica,sans-Serif" font-size="10.00">+ back()</text>
<text text-anchor="start" x="223.5" y="-345.5" font-family="Helvetica,sans-Serif" font-size="10.00">+ back()</text>
<text text-anchor="start" x="223.5" y="-334.5" font-family="Helvetica,sans-Serif" font-size="10.00">+ swap()</text>
<text text-anchor="start" x="223.5" y="-323.5" font-family="Helvetica,sans-Serif" font-size="10.00">+ _grow_capacity()</text>
<text text-anchor="start" x="223.5" y="-312.5" font-family="Helvetica,sans-Serif" font-size="10.00">+ resize()</text>
<text text-anchor="start" x="223.5" y="-301.5" font-family="Helvetica,sans-Serif" font-size="10.00">+ reserve()</text>
<text text-anchor="start" x="223.5" y="-290.5" font-family="Helvetica,sans-Serif" font-size="10.00">+ push_back()</text>
<text text-anchor="start" x="223.5" y="-279.5" font-family="Helvetica,sans-Serif" font-size="10.00">+ pop_back()</text>
<text text-anchor="start" x="223.5" y="-268.5" font-family="Helvetica,sans-Serif" font-size="10.00">+ erase()</text>
<text text-anchor="start" x="223.5" y="-257.5" font-family="Helvetica,sans-Serif" font-size="10.00">+ insert()</text>
</a>
</g>
</g>
<!-- Node2&#45;&gt;Node1 -->
<g id="edge1" class="edge"><title>Node2&#45;&gt;Node1</title>
<path fill="none" stroke="#404040" d="M278,-250.136C278,-237.743 278,-225.4 278,-213.43"/>
<polygon fill="none" stroke="#404040" points="278,-213.104 274,-207.104 278,-201.104 282,-207.104 278,-213.104"/>
<text text-anchor="middle" x="293.5" y="-223.5" font-family="Helvetica,sans-Serif" font-size="10.00"> +Data</text>
</g>
<!-- Node3 -->
<g id="node3" class="node"><title>Node3</title>
<g id="a_node3"><a xlink:href="../../d3/d51/structImGuiStorage_1_1Pair.html" target="_top" xlink:title="{ImGuiStorage::Pair\n||+ Pair()\l+ Pair()\l+ Pair()\l}">
<polygon fill="none" stroke="black" points="103,-736.5 103,-815.5 203,-815.5 203,-736.5 103,-736.5"/>
<text text-anchor="middle" x="153" y="-803.5" font-family="Helvetica,sans-Serif" font-size="10.00">ImGuiStorage::Pair</text>
<polyline fill="none" stroke="black" points="103,-796.5 203,-796.5 "/>
<text text-anchor="middle" x="153" y="-784.5" font-family="Helvetica,sans-Serif" font-size="10.00"> </text>
<polyline fill="none" stroke="black" points="103,-777.5 203,-777.5 "/>
<text text-anchor="start" x="111" y="-765.5" font-family="Helvetica,sans-Serif" font-size="10.00">+ Pair()</text>
<text text-anchor="start" x="111" y="-754.5" font-family="Helvetica,sans-Serif" font-size="10.00">+ Pair()</text>
<text text-anchor="start" x="111" y="-743.5" font-family="Helvetica,sans-Serif" font-size="10.00">+ Pair()</text>
</a>
</g>
</g>
<!-- Node3&#45;&gt;Node2 -->
<g id="edge2" class="edge"><title>Node3&#45;&gt;Node2</title>
<path fill="none" stroke="#404040" d="M166.259,-736.496C179.041,-699.376 199.307,-640.523 219.092,-583.069"/>
<polygon fill="none" stroke="#404040" points="219.133,-582.95 217.304,-575.975 223.04,-571.604 224.868,-578.579 219.133,-582.95"/>
<text text-anchor="middle" x="231.5" y="-593.5" font-family="Helvetica,sans-Serif" font-size="10.00"> +Data</text>
</g>
<!-- Node4 -->
<g id="node4" class="node"><title>Node4</title>
<g id="a_node4"><a xlink:href="../../d4/dc3/classfloat.html" target="_top" xlink:title="{float\n||}">
<polygon fill="none" stroke="black" points="-0.5,-991.5 -0.5,-1048.5 34.5,-1048.5 34.5,-991.5 -0.5,-991.5"/>
<text text-anchor="middle" x="17" y="-1036.5" font-family="Helvetica,sans-Serif" font-size="10.00">float</text>
<polyline fill="none" stroke="black" points="-0.5,-1029.5 34.5,-1029.5 "/>
<text text-anchor="middle" x="17" y="-1017.5" font-family="Helvetica,sans-Serif" font-size="10.00"> </text>
<polyline fill="none" stroke="black" points="-0.5,-1010.5 34.5,-1010.5 "/>
<text text-anchor="middle" x="17" y="-998.5" font-family="Helvetica,sans-Serif" font-size="10.00"> </text>
</a>
</g>
</g>
<!-- Node4&#45;&gt;Node3 -->
<g id="edge3" class="edge"><title>Node4&#45;&gt;Node3</title>
<path fill="none" stroke="#404040" d="M31.0939,-991.323C37.6312,-978.658 45.5815,-963.499 53,-950 76.1422,-907.889 103.516,-860.703 123.768,-826.261"/>
<polygon fill="none" stroke="#404040" points="123.987,-825.888 123.586,-818.688 130.078,-815.549 130.479,-822.749 123.987,-825.888"/>
<text text-anchor="middle" x="68.5" y="-958.5" font-family="Helvetica,sans-Serif" font-size="10.00"> +val_f</text>
</g>
<!-- Node5 -->
<g id="node5" class="node"><title>Node5</title>
<polygon fill="none" stroke="#bfbfbf" points="54.5,-991 54.5,-1049 83.5,-1049 83.5,-991 54.5,-991"/>
<polyline fill="none" stroke="#bfbfbf" points="54.5,-1029 83.5,-1029 "/>
<text text-anchor="middle" x="69" y="-1017" font-family="Helvetica,sans-Serif" font-size="10.00"> </text>
<polyline fill="none" stroke="#bfbfbf" points="54.5,-1010 83.5,-1010 "/>
<text text-anchor="middle" x="69" y="-998" font-family="Helvetica,sans-Serif" font-size="10.00"> </text>
</g>
<!-- Node5&#45;&gt;Node3 -->
<g id="edge4" class="edge"><title>Node5&#45;&gt;Node3</title>
<path fill="none" stroke="#404040" d="M78.8003,-990.766C92.7031,-950.712 118.37,-876.767 135.566,-827.227"/>
<polygon fill="none" stroke="#404040" points="135.593,-827.15 133.781,-820.17 139.528,-815.813 141.339,-822.793 135.593,-827.15"/>
<text text-anchor="middle" x="107.5" y="-958.5" font-family="Helvetica,sans-Serif" font-size="10.00"> +@63</text>
</g>
<!-- Node6 -->
<g id="node6" class="node"><title>Node6</title>
<polygon fill="none" stroke="#bfbfbf" points="263.5,-991.5 263.5,-1048.5 292.5,-1048.5 292.5,-991.5 263.5,-991.5"/>
<text text-anchor="middle" x="278" y="-1036.5" font-family="Helvetica,sans-Serif" font-size="10.00">int</text>
<polyline fill="none" stroke="#bfbfbf" points="263.5,-1029.5 292.5,-1029.5 "/>
<text text-anchor="middle" x="278" y="-1017.5" font-family="Helvetica,sans-Serif" font-size="10.00"> </text>
<polyline fill="none" stroke="#bfbfbf" points="263.5,-1010.5 292.5,-1010.5 "/>
<text text-anchor="middle" x="278" y="-998.5" font-family="Helvetica,sans-Serif" font-size="10.00"> </text>
</g>
<!-- Node6&#45;&gt;Node2 -->
<g id="edge8" class="edge"><title>Node6&#45;&gt;Node2</title>
<path fill="none" stroke="#404040" d="M278,-991.341C278,-920.394 278,-727.422 278,-583.56"/>
<polygon fill="none" stroke="#404040" points="278,-583.547 274,-577.547 278,-571.547 282,-577.547 278,-583.547"/>
<text text-anchor="middle" x="302.5" y="-779" font-family="Helvetica,sans-Serif" font-size="10.00"> +Capacity</text>
<text text-anchor="middle" x="302.5" y="-768" font-family="Helvetica,sans-Serif" font-size="10.00">+Size</text>
</g>
<!-- Node6&#45;&gt;Node3 -->
<g id="edge5" class="edge"><title>Node6&#45;&gt;Node3</title>
<path fill="none" stroke="#404040" d="M263.493,-1006.12C254.145,-997.239 242.242,-984.773 234,-972 204.512,-926.303 181.998,-868.082 168.279,-827.2"/>
<polygon fill="none" stroke="#404040" points="168.223,-827.028 162.549,-822.577 164.475,-815.628 170.149,-820.079 168.223,-827.028"/>
<text text-anchor="middle" x="249" y="-958.5" font-family="Helvetica,sans-Serif" font-size="10.00"> +val_i</text>
</g>
<!-- Node9 -->
<g id="node9" class="node"><title>Node9</title>
<g id="a_node9"><a xlink:href="../../d3/d32/classImVector.html" target="_top" xlink:title="{ImVector\&lt; T \&gt;\n||+ ImVector()\l+ ~ImVector()\l+ empty()\l+ size()\l+ capacity()\l+ operator[]()\l+ operator[]()\l+ clear()\l+ begin()\l+ begin()\l+ end()\l+ end()\l+ front()\l+ front()\l+ back()\l+ back()\l+ swap()\l+ _grow_capacity()\l+ resize()\l+ reserve()\l+ push_back()\l+ pop_back()\l+ erase()\l+ insert()\l}">
<polygon fill="none" stroke="black" points="345,-621 345,-931 445,-931 445,-621 345,-621"/>
<text text-anchor="middle" x="395" y="-919" font-family="Helvetica,sans-Serif" font-size="10.00">ImVector&lt; T &gt;</text>
<polyline fill="none" stroke="black" points="345,-912 445,-912 "/>
<text text-anchor="middle" x="395" y="-900" font-family="Helvetica,sans-Serif" font-size="10.00"> </text>
<polyline fill="none" stroke="black" points="345,-893 445,-893 "/>
<text text-anchor="start" x="353" y="-881" font-family="Helvetica,sans-Serif" font-size="10.00">+ ImVector()</text>
<text text-anchor="start" x="353" y="-870" font-family="Helvetica,sans-Serif" font-size="10.00">+ ~ImVector()</text>
<text text-anchor="start" x="353" y="-859" font-family="Helvetica,sans-Serif" font-size="10.00">+ empty()</text>
<text text-anchor="start" x="353" y="-848" font-family="Helvetica,sans-Serif" font-size="10.00">+ size()</text>
<text text-anchor="start" x="353" y="-837" font-family="Helvetica,sans-Serif" font-size="10.00">+ capacity()</text>
<text text-anchor="start" x="353" y="-826" font-family="Helvetica,sans-Serif" font-size="10.00">+ operator[]()</text>
<text text-anchor="start" x="353" y="-815" font-family="Helvetica,sans-Serif" font-size="10.00">+ operator[]()</text>
<text text-anchor="start" x="353" y="-804" font-family="Helvetica,sans-Serif" font-size="10.00">+ clear()</text>
<text text-anchor="start" x="353" y="-793" font-family="Helvetica,sans-Serif" font-size="10.00">+ begin()</text>
<text text-anchor="start" x="353" y="-782" font-family="Helvetica,sans-Serif" font-size="10.00">+ begin()</text>
<text text-anchor="start" x="353" y="-771" font-family="Helvetica,sans-Serif" font-size="10.00">+ end()</text>
<text text-anchor="start" x="353" y="-760" font-family="Helvetica,sans-Serif" font-size="10.00">+ end()</text>
<text text-anchor="start" x="353" y="-749" font-family="Helvetica,sans-Serif" font-size="10.00">+ front()</text>
<text text-anchor="start" x="353" y="-738" font-family="Helvetica,sans-Serif" font-size="10.00">+ front()</text>
<text text-anchor="start" x="353" y="-727" font-family="Helvetica,sans-Serif" font-size="10.00">+ back()</text>
<text text-anchor="start" x="353" y="-716" font-family="Helvetica,sans-Serif" font-size="10.00">+ back()</text>
<text text-anchor="start" x="353" y="-705" font-family="Helvetica,sans-Serif" font-size="10.00">+ swap()</text>
<text text-anchor="start" x="353" y="-694" font-family="Helvetica,sans-Serif" font-size="10.00">+ _grow_capacity()</text>
<text text-anchor="start" x="353" y="-683" font-family="Helvetica,sans-Serif" font-size="10.00">+ resize()</text>
<text text-anchor="start" x="353" y="-672" font-family="Helvetica,sans-Serif" font-size="10.00">+ reserve()</text>
<text text-anchor="start" x="353" y="-661" font-family="Helvetica,sans-Serif" font-size="10.00">+ push_back()</text>
<text text-anchor="start" x="353" y="-650" font-family="Helvetica,sans-Serif" font-size="10.00">+ pop_back()</text>
<text text-anchor="start" x="353" y="-639" font-family="Helvetica,sans-Serif" font-size="10.00">+ erase()</text>
<text text-anchor="start" x="353" y="-628" font-family="Helvetica,sans-Serif" font-size="10.00">+ insert()</text>
</a>
</g>
</g>
<!-- Node6&#45;&gt;Node9 -->
<g id="edge10" class="edge"><title>Node6&#45;&gt;Node9</title>
<path fill="none" stroke="#404040" d="M292.709,-997.015C303.938,-979.745 319.4,-954.872 331,-932 333.963,-926.158 336.899,-920.145 339.791,-914.038"/>
<polygon fill="none" stroke="#404040" points="339.884,-913.838 338.787,-906.71 344.944,-902.957 346.041,-910.084 339.884,-913.838"/>
<text text-anchor="middle" x="344.5" y="-964" font-family="Helvetica,sans-Serif" font-size="10.00"> +Capacity</text>
<text text-anchor="middle" x="344.5" y="-953" font-family="Helvetica,sans-Serif" font-size="10.00">+Size</text>
</g>
<!-- Node7 -->
<g id="node7" class="node"><title>Node7</title>
<polygon fill="none" stroke="#bfbfbf" points="101,-991.5 101,-1048.5 157,-1048.5 157,-991.5 101,-991.5"/>
<text text-anchor="middle" x="129" y="-1036.5" font-family="Helvetica,sans-Serif" font-size="10.00">unsigned</text>
<polyline fill="none" stroke="#bfbfbf" points="101,-1029.5 157,-1029.5 "/>
<text text-anchor="middle" x="129" y="-1017.5" font-family="Helvetica,sans-Serif" font-size="10.00"> </text>
<polyline fill="none" stroke="#bfbfbf" points="101,-1010.5 157,-1010.5 "/>
<text text-anchor="middle" x="129" y="-998.5" font-family="Helvetica,sans-Serif" font-size="10.00"> </text>
</g>
<!-- Node7&#45;&gt;Node3 -->
<g id="edge6" class="edge"><title>Node7&#45;&gt;Node3</title>
<path fill="none" stroke="#404040" d="M128.658,-991.435C128.692,-978.794 128.999,-963.621 130,-950 133.035,-908.689 139.388,-862.164 144.649,-827.774"/>
<polygon fill="none" stroke="#404040" points="144.685,-827.543 141.655,-820.999 146.53,-815.686 149.56,-822.229 144.685,-827.543"/>
<text text-anchor="middle" x="142.5" y="-958.5" font-family="Helvetica,sans-Serif" font-size="10.00"> +key</text>
</g>
<!-- Node8 -->
<g id="node8" class="node"><title>Node8</title>
<polygon fill="none" stroke="#bfbfbf" points="175.5,-991.5 175.5,-1048.5 216.5,-1048.5 216.5,-991.5 175.5,-991.5"/>
<text text-anchor="middle" x="196" y="-1036.5" font-family="Helvetica,sans-Serif" font-size="10.00">void *</text>
<polyline fill="none" stroke="#bfbfbf" points="175.5,-1029.5 216.5,-1029.5 "/>
<text text-anchor="middle" x="196" y="-1017.5" font-family="Helvetica,sans-Serif" font-size="10.00"> </text>
<polyline fill="none" stroke="#bfbfbf" points="175.5,-1010.5 216.5,-1010.5 "/>
<text text-anchor="middle" x="196" y="-998.5" font-family="Helvetica,sans-Serif" font-size="10.00"> </text>
</g>
<!-- Node8&#45;&gt;Node3 -->
<g id="edge7" class="edge"><title>Node8&#45;&gt;Node3</title>
<path fill="none" stroke="#404040" d="M184.036,-991.019C181.749,-984.843 179.579,-978.27 178,-972 165.868,-923.811 159.45,-867.363 156.17,-827.637"/>
<polygon fill="none" stroke="#404040" points="156.165,-827.579 151.71,-821.908 155.231,-815.615 159.686,-821.285 156.165,-827.579"/>
<text text-anchor="middle" x="194.5" y="-958.5" font-family="Helvetica,sans-Serif" font-size="10.00"> +val_p</text>
</g>
<!-- Node9&#45;&gt;Node2 -->
<g id="edge9" class="edge"><title>Node9&#45;&gt;Node2</title>
<path fill="none" stroke="orange" d="M342.224,-611.258C337.992,-598.128 333.72,-584.874 329.497,-571.772"/>
<polygon fill="orange" stroke="orange" points="338.898,-612.348 345.297,-620.792 345.56,-610.201 338.898,-612.348"/>
<text text-anchor="middle" x="388.5" y="-593.5" font-family="Helvetica,sans-Serif" font-size="10.00"> &lt; ImGuiStorage::Pair &gt;</text>
</g>
<!-- Node10 -->
<g id="node10" class="node"><title>Node10</title>
<polygon fill="none" stroke="#bfbfbf" points="380.5,-991.5 380.5,-1048.5 409.5,-1048.5 409.5,-991.5 380.5,-991.5"/>
<text text-anchor="middle" x="395" y="-1036.5" font-family="Helvetica,sans-Serif" font-size="10.00">T</text>
<polyline fill="none" stroke="#bfbfbf" points="380.5,-1029.5 409.5,-1029.5 "/>
<text text-anchor="middle" x="395" y="-1017.5" font-family="Helvetica,sans-Serif" font-size="10.00"> </text>
<polyline fill="none" stroke="#bfbfbf" points="380.5,-1010.5 409.5,-1010.5 "/>
<text text-anchor="middle" x="395" y="-998.5" font-family="Helvetica,sans-Serif" font-size="10.00"> </text>
</g>
<!-- Node10&#45;&gt;Node9 -->
<g id="edge11" class="edge"><title>Node10&#45;&gt;Node9</title>
<path fill="none" stroke="#404040" d="M395,-991.24C395,-978.255 395,-961.635 395,-943.407"/>
<polygon fill="none" stroke="#404040" points="395,-943.218 391,-937.218 395,-931.218 399,-937.218 395,-943.218"/>
<text text-anchor="middle" x="410.5" y="-958.5" font-family="Helvetica,sans-Serif" font-size="10.00"> +Data</text>
</g>
</g>
</svg>
        <g id="navigator" transform="translate(0 0)" fill="#404254">
                <rect fill="#f2f5e9" fill-opacity="0.5" stroke="#606060" stroke-width=".5" x="0" y="0" width="60" height="60"/>
                <use id="zoomplus" xlink:href="#zoomPlus" x="17" y="9" onmousedown="handleZoom(evt,'in')"/>
                <use id="zoomminus" xlink:href="#zoomMin" x="42" y="9" onmousedown="handleZoom(evt,'out')"/>
                <use id="reset" xlink:href="#resetDef" x="30" y="36" onmousedown="handleReset()"/>
                <g id="arrowUp" xlink:href="#dirArrow" transform="translate(30 24)" onmousedown="handlePan(0,-1)">
                  <use xlink:href="#rim" fill="#404040">
                        <set attributeName="fill" to="#808080" begin="arrowUp.mouseover" end="arrowUp.mouseout"/>
                  </use>
                  <path fill="none" stroke="white" stroke-width="1.5" d="M0,-3.0v7 M-2.5,-0.5L0,-3.0L2.5,-0.5"/>
                </g>
                <g id="arrowRight" xlink:href="#dirArrow" transform="rotate(90) translate(36 -43)" onmousedown="handlePan(1,0)">
                  <use xlink:href="#rim" fill="#404040">
                        <set attributeName="fill" to="#808080" begin="arrowRight.mouseover" end="arrowRight.mouseout"/>
                  </use>
                  <path fill="none" stroke="white" stroke-width="1.5" d="M0,-3.0v7 M-2.5,-0.5L0,-3.0L2.5,-0.5"/>
                </g>
                <g id="arrowDown" xlink:href="#dirArrow" transform="rotate(180) translate(-30 -48)" onmousedown="handlePan(0,1)">
                  <use xlink:href="#rim" fill="#404040">
                        <set attributeName="fill" to="#808080" begin="arrowDown.mouseover" end="arrowDown.mouseout"/>
                  </use>
                  <path fill="none" stroke="white" stroke-width="1.5" d="M0,-3.0v7 M-2.5,-0.5L0,-3.0L2.5,-0.5"/>
                </g>
                <g id="arrowLeft" xlink:href="#dirArrow" transform="rotate(270) translate(-36 17)" onmousedown="handlePan(-1,0)">
                  <use xlink:href="#rim" fill="#404040">
                        <set attributeName="fill" to="#808080" begin="arrowLeft.mouseover" end="arrowLeft.mouseout"/>
                  </use>
                  <path fill="none" stroke="white" stroke-width="1.5" d="M0,-3.0v7 M-2.5,-0.5L0,-3.0L2.5,-0.5"/>
                </g>
        </g>
        <svg viewBox="0 0 15 15" width="100%" height="30px" preserveAspectRatio="xMaxYMin meet">
         <g id="arrow_out" transform="scale(0.3 0.3)">
          <a xlink:href="structImGuiStorage__coll__graph_org.svg" target="_base">
           <rect id="button" ry="5" rx="5" y="6" x="6" height="38" width="38"
                fill="#f2f5e9" fill-opacity="0.5" stroke="#606060" stroke-width="1.0"/>
           <path id="arrow"
             d="M 11.500037,31.436501 C 11.940474,20.09759 22.043105,11.32322 32.158766,21.979434 L 37.068811,17.246167 C 37.068811,17.246167 37.088388,32 37.088388,32 L 22.160133,31.978069 C 22.160133,31.978069 26.997745,27.140456 26.997745,27.140456 C 18.528582,18.264221 13.291696,25.230495 11.500037,31.436501 z"
             style="fill:#404040;"/>
          </a>
         </g>
        </svg>
</svg>
