<?xml version="1.0" encoding="UTF-8" standalone="no"?>
<!DOCTYPE svg PUBLIC "-//W3C//DTD SVG 1.1//EN"
 "http://www.w3.org/Graphics/SVG/1.1/DTD/svg11.dtd">
<!-- Generated by graphviz version 2.36.0 (20140111.2315)
 -->
<!-- Title: Composite&lt; HeaderT, TrailerT &gt; Pages: 1 -->
<svg width="382pt" height="194pt"
 viewBox="0.00 0.00 382.00 194.00" xmlns="http://www.w3.org/2000/svg" xmlns:xlink="http://www.w3.org/1999/xlink">
<g id="graph0" class="graph" transform="scale(1 1) rotate(0) translate(4 190)">
<title>Composite&lt; HeaderT, TrailerT &gt;</title>
<!-- Node1 -->
<g id="node1" class="node"><title>Node1</title>
<polygon fill="#bfbfbf" stroke="black" points="126.5,-0.5 126.5,-79.5 239.5,-79.5 239.5,-0.5 126.5,-0.5"/>
<text text-anchor="start" x="134.5" y="-67.5" font-family="Helvetica,sans-Serif" font-size="10.00">Composite&lt; HeaderT,</text>
<text text-anchor="middle" x="183" y="-56.5" font-family="Helvetica,sans-Serif" font-size="10.00"> TrailerT &gt;</text>
<polyline fill="none" stroke="black" points="126.5,-49.5 239.5,-49.5 "/>
<text text-anchor="middle" x="183" y="-37.5" font-family="Helvetica,sans-Serif" font-size="10.00"> </text>
<polyline fill="none" stroke="black" points="126.5,-30.5 239.5,-30.5 "/>
<text text-anchor="start" x="134.5" y="-18.5" font-family="Helvetica,sans-Serif" font-size="10.00">+ Composite()</text>
<text text-anchor="start" x="134.5" y="-7.5" font-family="Helvetica,sans-Serif" font-size="10.00">+ getDataLength()</text>
</g>
<!-- Node2 -->
<g id="node2" class="node"><title>Node2</title>
<polygon fill="none" stroke="#bfbfbf" points="-0.5,-128.5 -0.5,-185.5 106.5,-185.5 106.5,-128.5 -0.5,-128.5"/>
<text text-anchor="middle" x="53" y="-173.5" font-family="Helvetica,sans-Serif" font-size="10.00">const HeaderType &amp;</text>
<polyline fill="none" stroke="#bfbfbf" points="-0.5,-166.5 106.5,-166.5 "/>
<text text-anchor="middle" x="53" y="-154.5" font-family="Helvetica,sans-Serif" font-size="10.00"> </text>
<polyline fill="none" stroke="#bfbfbf" points="-0.5,-147.5 106.5,-147.5 "/>
<text text-anchor="middle" x="53" y="-135.5" font-family="Helvetica,sans-Serif" font-size="10.00"> </text>
</g>
<!-- Node2&#45;&gt;Node1 -->
<g id="edge1" class="edge"><title>Node2&#45;&gt;Node1</title>
<path fill="none" stroke="#404040" d="M82.5861,-128.32C93.06,-118.639 104.979,-107.755 116,-98 119.795,-94.6408 123.733,-91.1947 127.711,-87.7405"/>
<polygon fill="none" stroke="#404040" points="127.938,-87.5445 129.867,-80.596 137.023,-79.7036 135.094,-86.6521 127.938,-87.5445"/>
<text text-anchor="middle" x="135.5" y="-101.5" font-family="Helvetica,sans-Serif" font-size="10.00"> +header</text>
</g>
<!-- Node3 -->
<g id="node3" class="node"><title>Node3</title>
<polygon fill="none" stroke="#bfbfbf" points="124.5,-128.5 124.5,-185.5 167.5,-185.5 167.5,-128.5 124.5,-128.5"/>
<text text-anchor="middle" x="146" y="-173.5" font-family="Helvetica,sans-Serif" font-size="10.00">size_t</text>
<polyline fill="none" stroke="#bfbfbf" points="124.5,-166.5 167.5,-166.5 "/>
<text text-anchor="middle" x="146" y="-154.5" font-family="Helvetica,sans-Serif" font-size="10.00"> </text>
<polyline fill="none" stroke="#bfbfbf" points="124.5,-147.5 167.5,-147.5 "/>
<text text-anchor="middle" x="146" y="-135.5" font-family="Helvetica,sans-Serif" font-size="10.00"> </text>
</g>
<!-- Node3&#45;&gt;Node1 -->
<g id="edge2" class="edge"><title>Node3&#45;&gt;Node1</title>
<path fill="none" stroke="#404040" d="M153.101,-128.421C155.725,-118.749 158.835,-107.845 162,-98 162.714,-95.7787 163.462,-93.5155 164.232,-91.2344"/>
<polygon fill="none" stroke="#404040" points="164.271,-91.1224 162.465,-84.1409 168.216,-79.7893 170.021,-86.7709 164.271,-91.1224"/>
<text text-anchor="middle" x="180" y="-101.5" font-family="Helvetica,sans-Serif" font-size="10.00"> +length</text>
</g>
<!-- Node4 -->
<g id="node4" class="node"><title>Node4</title>
<polygon fill="none" stroke="#bfbfbf" points="185.5,-128.5 185.5,-185.5 254.5,-185.5 254.5,-128.5 185.5,-128.5"/>
<text text-anchor="middle" x="220" y="-173.5" font-family="Helvetica,sans-Serif" font-size="10.00">const char *</text>
<polyline fill="none" stroke="#bfbfbf" points="185.5,-166.5 254.5,-166.5 "/>
<text text-anchor="middle" x="220" y="-154.5" font-family="Helvetica,sans-Serif" font-size="10.00"> </text>
<polyline fill="none" stroke="#bfbfbf" points="185.5,-147.5 254.5,-147.5 "/>
<text text-anchor="middle" x="220" y="-135.5" font-family="Helvetica,sans-Serif" font-size="10.00"> </text>
</g>
<!-- Node4&#45;&gt;Node1 -->
<g id="edge3" class="edge"><title>Node4&#45;&gt;Node1</title>
<path fill="none" stroke="#404040" d="M211.138,-128.455C207.537,-117.262 203.26,-103.969 199.141,-91.1684"/>
<polygon fill="none" stroke="#404040" points="199.103,-91.0491 193.457,-86.5625 195.427,-79.6258 201.073,-84.1123 199.103,-91.0491"/>
<text text-anchor="middle" x="219" y="-101.5" font-family="Helvetica,sans-Serif" font-size="10.00"> +data</text>
</g>
<!-- Node5 -->
<g id="node5" class="node"><title>Node5</title>
<polygon fill="none" stroke="#bfbfbf" points="273,-128.5 273,-185.5 375,-185.5 375,-128.5 273,-128.5"/>
<text text-anchor="middle" x="324" y="-173.5" font-family="Helvetica,sans-Serif" font-size="10.00">const TrailerType &amp;</text>
<polyline fill="none" stroke="#bfbfbf" points="273,-166.5 375,-166.5 "/>
<text text-anchor="middle" x="324" y="-154.5" font-family="Helvetica,sans-Serif" font-size="10.00"> </text>
<polyline fill="none" stroke="#bfbfbf" points="273,-147.5 375,-147.5 "/>
<text text-anchor="middle" x="324" y="-135.5" font-family="Helvetica,sans-Serif" font-size="10.00"> </text>
</g>
<!-- Node5&#45;&gt;Node1 -->
<g id="edge4" class="edge"><title>Node5&#45;&gt;Node1</title>
<path fill="none" stroke="#404040" d="M290.227,-128.455C275.104,-116.12 256.852,-101.234 239.729,-87.268"/>
<polygon fill="none" stroke="#404040" points="239.658,-87.2103 232.48,-86.5178 230.359,-79.6258 237.536,-80.3183 239.658,-87.2103"/>
<text text-anchor="middle" x="284" y="-101.5" font-family="Helvetica,sans-Serif" font-size="10.00"> +trailer</text>
</g>
</g>
</svg>
