<?xml version="1.0" encoding="UTF-8" standalone="no"?>
<!DOCTYPE svg PUBLIC "-//W3C//DTD SVG 1.1//EN"
 "http://www.w3.org/Graphics/SVG/1.1/DTD/svg11.dtd">
<!-- Generated by graphviz version 2.36.0 (20140111.2315)
 -->
<!-- Title: /home/travis/build/AliceO2Group/AliceO2/DataFormats/simulation/src/MCTrack.cxx Pages: 1 -->
<!--zoomable 298 -->
<svg id="main" version="1.1" xmlns="http://www.w3.org/2000/svg" xmlns:xlink="http://www.w3.org/1999/xlink" xml:space="preserve" onload="init(evt)">
<style type="text/css"><![CDATA[
.edge:hover path { stroke: red; }
.edge:hover polygon { stroke: red; fill: red; }
]]></style>
<script type="text/javascript"><![CDATA[
var edges = document.getElementsByTagName('g');
if (edges && edges.length) {
  for (var i=0;i<edges.length;i++) {
    if (edges[i].id.substr(0,4)=='edge') {
      edges[i].setAttribute('class','edge');
    }
  }
}
]]></script>
        <defs>
                <circle id="rim" cx="0" cy="0" r="7"/>
                <circle id="rim2" cx="0" cy="0" r="3.5"/>
                <g id="zoomPlus">
                        <use xlink:href="#rim" fill="#404040">
                                <set attributeName="fill" to="#808080" begin="zoomplus.mouseover" end="zoomplus.mouseout"/>
                        </use>
                        <path d="M-4,0h8M0,-4v8" fill="none" stroke="white" stroke-width="1.5" pointer-events="none"/>
                </g>
                <g id="zoomMin">
                        <use xlink:href="#rim" fill="#404040">
                                <set attributeName="fill" to="#808080" begin="zoomminus.mouseover" end="zoomminus.mouseout"/>
                        </use>
                        <path d="M-4,0h8" fill="none" stroke="white" stroke-width="1.5" pointer-events="none"/>
                </g>
                <g id="dirArrow">
                        <path fill="none" stroke="white" stroke-width="1.5" d="M0,-3.0v7 M-2.5,-0.5L0,-3.0L2.5,-0.5"/>
                </g>
               <g id="resetDef">
                       <use xlink:href="#rim2" fill="#404040">
                               <set attributeName="fill" to="#808080" begin="reset.mouseover" end="reset.mouseout"/>
                       </use>
               </g>
        </defs>

<script type="text/javascript">
var viewWidth = 806;
var viewHeight = 298;
var sectionId = 'dynsection-0';
</script>
<script xlink:href="../../svgpan.js"/>
<svg id="graph" class="graph">
<g id="viewport">
<title>/home/travis/build/AliceO2Group/AliceO2/DataFormats/simulation/src/MCTrack.cxx</title>
<!-- Node1 -->
<g id="node1" class="node"><title>Node1</title>
<polygon fill="#bfbfbf" stroke="black" points="331.055,-237 331.055,-289 455.055,-289 455.055,-237 331.055,-237"/>
<text text-anchor="start" x="339.055" y="-277" font-family="Helvetica,sans-Serif" font-size="10.00">/home/travis/build</text>
<text text-anchor="start" x="339.055" y="-266" font-family="Helvetica,sans-Serif" font-size="10.00">/AliceO2Group/AliceO2</text>
<text text-anchor="start" x="339.055" y="-255" font-family="Helvetica,sans-Serif" font-size="10.00">/DataFormats/simulation</text>
<text text-anchor="middle" x="393.055" y="-244" font-family="Helvetica,sans-Serif" font-size="10.00">/src/MCTrack.cxx</text>
</g>
<!-- Node2 -->
<g id="node2" class="node"><title>Node2</title>
<g id="a_node2"><a xlink:href="../../d2/de2/MCTrack_8h.html" target="_top" xlink:title="Definition of the MCTrack class. ">
<polygon fill="none" stroke="black" points="281.055,-169 281.055,-199 395.055,-199 395.055,-169 281.055,-169"/>
<text text-anchor="start" x="289.055" y="-187" font-family="Helvetica,sans-Serif" font-size="10.00">SimulationDataFormat</text>
<text text-anchor="middle" x="338.055" y="-176" font-family="Helvetica,sans-Serif" font-size="10.00">/MCTrack.h</text>
</a>
</g>
</g>
<!-- Node1&#45;&gt;Node2 -->
<g id="edge1" class="edge"><title>Node1&#45;&gt;Node2</title>
<path fill="none" stroke="midnightblue" d="M375.046,-236.787C368.304,-227.348 360.693,-216.694 354.136,-207.514"/>
<polygon fill="midnightblue" stroke="midnightblue" points="356.896,-205.355 348.235,-199.252 351.2,-209.424 356.896,-205.355"/>
</g>
<!-- Node19 -->
<g id="node19" class="node"><title>Node19</title>
<polygon fill="none" stroke="#bfbfbf" points="413.555,-174.5 413.555,-193.5 484.555,-193.5 484.555,-174.5 413.555,-174.5"/>
<text text-anchor="middle" x="449.055" y="-181.5" font-family="Helvetica,sans-Serif" font-size="10.00">FairLogger.h</text>
</g>
<!-- Node1&#45;&gt;Node19 -->
<g id="edge20" class="edge"><title>Node1&#45;&gt;Node19</title>
<path fill="none" stroke="midnightblue" d="M411.392,-236.787C419.78,-225.253 429.487,-211.906 436.946,-201.651"/>
<polygon fill="midnightblue" stroke="midnightblue" points="439.78,-203.704 442.831,-193.558 434.119,-199.586 439.78,-203.704"/>
</g>
<!-- Node3 -->
<g id="node3" class="node"><title>Node3</title>
<polygon fill="none" stroke="#bfbfbf" points="44.0552,-56.5 44.0552,-75.5 100.055,-75.5 100.055,-56.5 44.0552,-56.5"/>
<text text-anchor="middle" x="72.0552" y="-63.5" font-family="Helvetica,sans-Serif" font-size="10.00">Rtypes.h</text>
</g>
<!-- Node2&#45;&gt;Node3 -->
<g id="edge2" class="edge"><title>Node2&#45;&gt;Node3</title>
<path fill="none" stroke="midnightblue" d="M280.769,-182.829C195.099,-181.218 39.9143,-172.604 5.05517,-132 -11.5134,-112.701 17.4172,-92.634 42.285,-79.9948"/>
<polygon fill="midnightblue" stroke="midnightblue" points="44.0351,-83.0363 51.5136,-75.5315 40.9873,-76.7346 44.0351,-83.0363"/>
</g>
<!-- Node4 -->
<g id="node4" class="node"><title>Node4</title>
<polygon fill="none" stroke="#bfbfbf" points="14.0552,-112.5 14.0552,-131.5 106.055,-131.5 106.055,-112.5 14.0552,-112.5"/>
<text text-anchor="middle" x="60.0552" y="-119.5" font-family="Helvetica,sans-Serif" font-size="10.00">TLorentzVector.h</text>
</g>
<!-- Node2&#45;&gt;Node4 -->
<g id="edge3" class="edge"><title>Node2&#45;&gt;Node4</title>
<path fill="none" stroke="midnightblue" d="M280.79,-170.641C230.337,-159.752 157.601,-144.053 109.604,-133.694"/>
<polygon fill="midnightblue" stroke="midnightblue" points="110.268,-130.257 99.7542,-131.568 108.791,-137.099 110.268,-130.257"/>
</g>
<!-- Node5 -->
<g id="node5" class="node"><title>Node5</title>
<polygon fill="none" stroke="#bfbfbf" points="124.555,-112.5 124.555,-131.5 177.555,-131.5 177.555,-112.5 124.555,-112.5"/>
<text text-anchor="middle" x="151.055" y="-119.5" font-family="Helvetica,sans-Serif" font-size="10.00">TMath.h</text>
</g>
<!-- Node2&#45;&gt;Node5 -->
<g id="edge4" class="edge"><title>Node2&#45;&gt;Node5</title>
<path fill="none" stroke="midnightblue" d="M294.212,-168.933C261.721,-158.508 217.96,-144.467 187.406,-134.663"/>
<polygon fill="midnightblue" stroke="midnightblue" points="188.178,-131.235 177.586,-131.513 186.039,-137.901 188.178,-131.235"/>
</g>
<!-- Node6 -->
<g id="node6" class="node"><title>Node6</title>
<polygon fill="none" stroke="#bfbfbf" points="195.555,-112.5 195.555,-131.5 260.555,-131.5 260.555,-112.5 195.555,-112.5"/>
<text text-anchor="middle" x="228.055" y="-119.5" font-family="Helvetica,sans-Serif" font-size="10.00">TVector3.h</text>
</g>
<!-- Node2&#45;&gt;Node6 -->
<g id="edge5" class="edge"><title>Node2&#45;&gt;Node6</title>
<path fill="none" stroke="midnightblue" d="M312.265,-168.933C294.37,-159.171 270.662,-146.24 252.962,-136.586"/>
<polygon fill="midnightblue" stroke="midnightblue" points="254.277,-133.316 243.822,-131.6 250.925,-139.461 254.277,-133.316"/>
</g>
<!-- Node7 -->
<g id="node7" class="node"><title>Node7</title>
<g id="a_node7"><a xlink:href="../../d6/d31/DetID_8h.html" target="_top" xlink:title="DetectorsBase/DetID.h">
<polygon fill="none" stroke="black" points="278.555,-112.5 278.555,-131.5 397.555,-131.5 397.555,-112.5 278.555,-112.5"/>
<text text-anchor="middle" x="338.055" y="-119.5" font-family="Helvetica,sans-Serif" font-size="10.00">DetectorsBase/DetID.h</text>
</a>
</g>
</g>
<!-- Node2&#45;&gt;Node7 -->
<g id="edge6" class="edge"><title>Node2&#45;&gt;Node7</title>
<path fill="none" stroke="midnightblue" d="M338.055,-168.781C338.055,-160.781 338.055,-150.689 338.055,-142.017"/>
<polygon fill="midnightblue" stroke="midnightblue" points="341.555,-141.73 338.055,-131.731 334.555,-141.731 341.555,-141.73"/>
</g>
<!-- Node15 -->
<g id="node15" class="node"><title>Node15</title>
<polygon fill="none" stroke="#bfbfbf" points="415.555,-112.5 415.555,-131.5 510.555,-131.5 510.555,-112.5 415.555,-112.5"/>
<text text-anchor="middle" x="463.055" y="-119.5" font-family="Helvetica,sans-Serif" font-size="10.00">TDatabasePDG.h</text>
</g>
<!-- Node2&#45;&gt;Node15 -->
<g id="edge16" class="edge"><title>Node2&#45;&gt;Node15</title>
<path fill="none" stroke="midnightblue" d="M367.362,-168.933C388.074,-158.991 415.638,-145.76 435.862,-136.053"/>
<polygon fill="midnightblue" stroke="midnightblue" points="437.638,-139.083 445.138,-131.6 434.609,-132.772 437.638,-139.083"/>
</g>
<!-- Node16 -->
<g id="node16" class="node"><title>Node16</title>
<polygon fill="none" stroke="#bfbfbf" points="529.055,-112.5 529.055,-131.5 593.055,-131.5 593.055,-112.5 529.055,-112.5"/>
<text text-anchor="middle" x="561.055" y="-119.5" font-family="Helvetica,sans-Serif" font-size="10.00">TParticle.h</text>
</g>
<!-- Node2&#45;&gt;Node16 -->
<g id="edge17" class="edge"><title>Node2&#45;&gt;Node16</title>
<path fill="none" stroke="midnightblue" d="M390.339,-168.933C429.759,-158.326 483.09,-143.977 519.592,-134.156"/>
<polygon fill="midnightblue" stroke="midnightblue" points="520.669,-137.491 529.416,-131.513 518.85,-130.731 520.669,-137.491"/>
</g>
<!-- Node17 -->
<g id="node17" class="node"><title>Node17</title>
<polygon fill="none" stroke="#bfbfbf" points="611.055,-112.5 611.055,-131.5 697.055,-131.5 697.055,-112.5 611.055,-112.5"/>
<text text-anchor="middle" x="654.055" y="-119.5" font-family="Helvetica,sans-Serif" font-size="10.00">TParticlePDG.h</text>
</g>
<!-- Node2&#45;&gt;Node17 -->
<g id="edge18" class="edge"><title>Node2&#45;&gt;Node17</title>
<path fill="none" stroke="midnightblue" d="M395.258,-169.832C398.231,-169.2 401.177,-168.586 404.055,-168 440.795,-160.522 539.019,-143.126 600.844,-132.286"/>
<polygon fill="midnightblue" stroke="midnightblue" points="601.568,-135.712 610.814,-130.539 600.36,-128.817 601.568,-135.712"/>
</g>
<!-- Node18 -->
<g id="node18" class="node"><title>Node18</title>
<polygon fill="none" stroke="#bfbfbf" points="715.555,-112.5 715.555,-131.5 798.555,-131.5 798.555,-112.5 715.555,-112.5"/>
<text text-anchor="middle" x="757.055" y="-119.5" font-family="Helvetica,sans-Serif" font-size="10.00">TMCProcess.h</text>
</g>
<!-- Node2&#45;&gt;Node18 -->
<g id="edge19" class="edge"><title>Node2&#45;&gt;Node18</title>
<path fill="none" stroke="midnightblue" d="M395.219,-169.623C398.202,-169.046 401.16,-168.5 404.055,-168 534.003,-145.552 570.562,-151.441 705.054,-132.061"/>
<polygon fill="midnightblue" stroke="midnightblue" points="705.949,-135.468 715.338,-130.558 704.936,-128.541 705.949,-135.468"/>
</g>
<!-- Node7&#45;&gt;Node3 -->
<g id="edge10" class="edge"><title>Node7&#45;&gt;Node3</title>
<path fill="none" stroke="midnightblue" d="M295.907,-112.444C244.756,-102.06 159.264,-84.7041 110.058,-74.7149"/>
<polygon fill="midnightblue" stroke="midnightblue" points="110.631,-71.2599 100.135,-72.7003 109.238,-78.1199 110.631,-71.2599"/>
</g>
<!-- Node8 -->
<g id="node8" class="node"><title>Node8</title>
<polygon fill="none" stroke="#bfbfbf" points="205.055,-56.5 205.055,-75.5 251.055,-75.5 251.055,-56.5 205.055,-56.5"/>
<text text-anchor="middle" x="228.055" y="-63.5" font-family="Helvetica,sans-Serif" font-size="10.00">cstdint</text>
</g>
<!-- Node7&#45;&gt;Node8 -->
<g id="edge7" class="edge"><title>Node7&#45;&gt;Node8</title>
<path fill="none" stroke="midnightblue" d="M320.382,-112.324C302.661,-103.625 275.152,-90.1202 254.767,-80.113"/>
<polygon fill="midnightblue" stroke="midnightblue" points="256.204,-76.9195 245.685,-75.6545 253.119,-83.2031 256.204,-76.9195"/>
</g>
<!-- Node9 -->
<g id="node9" class="node"><title>Node9</title>
<polygon fill="none" stroke="#bfbfbf" points="275.055,-0.5 275.055,-19.5 313.055,-19.5 313.055,-0.5 275.055,-0.5"/>
<text text-anchor="middle" x="294.055" y="-7.5" font-family="Helvetica,sans-Serif" font-size="10.00">array</text>
</g>
<!-- Node7&#45;&gt;Node9 -->
<g id="edge8" class="edge"><title>Node7&#45;&gt;Node9</title>
<path fill="none" stroke="midnightblue" d="M327.009,-112.34C317.455,-104.129 304.235,-90.8636 298.055,-76 292.012,-61.4661 291.359,-43.5166 292.02,-30.1648"/>
<polygon fill="midnightblue" stroke="midnightblue" points="295.539,-30.0609 292.838,-19.8163 288.561,-29.5097 295.539,-30.0609"/>
</g>
<!-- Node10 -->
<g id="node10" class="node"><title>Node10</title>
<polygon fill="none" stroke="#bfbfbf" points="307.055,-56.5 307.055,-75.5 369.055,-75.5 369.055,-56.5 307.055,-56.5"/>
<text text-anchor="middle" x="338.055" y="-63.5" font-family="Helvetica,sans-Serif" font-size="10.00">type_traits</text>
</g>
<!-- Node7&#45;&gt;Node10 -->
<g id="edge9" class="edge"><title>Node7&#45;&gt;Node10</title>
<path fill="none" stroke="midnightblue" d="M338.055,-112.083C338.055,-105.006 338.055,-94.8611 338.055,-85.9865"/>
<polygon fill="midnightblue" stroke="midnightblue" points="341.555,-85.751 338.055,-75.7511 334.555,-85.7511 341.555,-85.751"/>
</g>
<!-- Node11 -->
<g id="node11" class="node"><title>Node11</title>
<g id="a_node11"><a xlink:href="../../d9/ded/Utils_8h.html" target="_top" xlink:title="DetectorsBase/Utils.h">
<polygon fill="none" stroke="black" points="387.555,-56.5 387.555,-75.5 500.555,-75.5 500.555,-56.5 387.555,-56.5"/>
<text text-anchor="middle" x="444.055" y="-63.5" font-family="Helvetica,sans-Serif" font-size="10.00">DetectorsBase/Utils.h</text>
</a>
</g>
</g>
<!-- Node7&#45;&gt;Node11 -->
<g id="edge11" class="edge"><title>Node7&#45;&gt;Node11</title>
<path fill="none" stroke="midnightblue" d="M355.086,-112.324C372.085,-103.664 398.431,-90.2424 418.048,-80.249"/>
<polygon fill="midnightblue" stroke="midnightblue" points="419.745,-83.3125 427.067,-75.6545 416.568,-77.0752 419.745,-83.3125"/>
</g>
<!-- Node14 -->
<g id="node14" class="node"><title>Node14</title>
<polygon fill="none" stroke="#bfbfbf" points="518.555,-56.5 518.555,-75.5 567.555,-75.5 567.555,-56.5 518.555,-56.5"/>
<text text-anchor="middle" x="543.055" y="-63.5" font-family="Helvetica,sans-Serif" font-size="10.00">cassert</text>
</g>
<!-- Node7&#45;&gt;Node14 -->
<g id="edge15" class="edge"><title>Node7&#45;&gt;Node14</title>
<path fill="none" stroke="midnightblue" d="M370.523,-112.471C402.973,-103.943 454.559,-90.3774 508.755,-76.0762"/>
<polygon fill="midnightblue" stroke="midnightblue" points="509.767,-79.4293 518.542,-73.4932 507.98,-72.6611 509.767,-79.4293"/>
</g>
<!-- Node11&#45;&gt;Node9 -->
<g id="edge14" class="edge"><title>Node11&#45;&gt;Node9</title>
<path fill="none" stroke="midnightblue" d="M420.287,-56.4435C393.948,-46.9613 351.46,-31.6657 323.151,-21.4745"/>
<polygon fill="midnightblue" stroke="midnightblue" points="324.013,-18.0651 313.419,-17.971 321.642,-24.6513 324.013,-18.0651"/>
</g>
<!-- Node12 -->
<g id="node12" class="node"><title>Node12</title>
<g id="a_node12"><a xlink:href="../../d1/daa/Base_2include_2DetectorsBase_2Constants_8h.html" target="_top" xlink:title="DetectorsBase/Constants.h">
<polygon fill="none" stroke="black" points="360.055,-0.5 360.055,-19.5 498.055,-19.5 498.055,-0.5 360.055,-0.5"/>
<text text-anchor="middle" x="429.055" y="-7.5" font-family="Helvetica,sans-Serif" font-size="10.00">DetectorsBase/Constants.h</text>
</a>
</g>
</g>
<!-- Node11&#45;&gt;Node12 -->
<g id="edge12" class="edge"><title>Node11&#45;&gt;Node12</title>
<path fill="none" stroke="midnightblue" d="M441.578,-56.083C439.569,-48.8486 436.669,-38.4087 434.165,-29.3968"/>
<polygon fill="midnightblue" stroke="midnightblue" points="437.535,-28.4495 431.486,-19.7511 430.79,-30.323 437.535,-28.4495"/>
</g>
<!-- Node13 -->
<g id="node13" class="node"><title>Node13</title>
<polygon fill="none" stroke="#bfbfbf" points="516.055,-0.5 516.055,-19.5 560.055,-19.5 560.055,-0.5 516.055,-0.5"/>
<text text-anchor="middle" x="538.055" y="-7.5" font-family="Helvetica,sans-Serif" font-size="10.00">cmath</text>
</g>
<!-- Node11&#45;&gt;Node13 -->
<g id="edge13" class="edge"><title>Node11&#45;&gt;Node13</title>
<path fill="none" stroke="midnightblue" d="M459.158,-56.324C473.958,-47.8215 496.749,-34.7288 514.037,-24.7975"/>
<polygon fill="midnightblue" stroke="midnightblue" points="516.062,-27.6707 522.99,-19.6545 512.575,-21.6009 516.062,-27.6707"/>
</g>
</g>
</svg>
        <g id="navigator" transform="translate(0 0)" fill="#404254">
                <rect fill="#f2f5e9" fill-opacity="0.5" stroke="#606060" stroke-width=".5" x="0" y="0" width="60" height="60"/>
                <use id="zoomplus" xlink:href="#zoomPlus" x="17" y="9" onmousedown="handleZoom(evt,'in')"/>
                <use id="zoomminus" xlink:href="#zoomMin" x="42" y="9" onmousedown="handleZoom(evt,'out')"/>
                <use id="reset" xlink:href="#resetDef" x="30" y="36" onmousedown="handleReset()"/>
                <g id="arrowUp" xlink:href="#dirArrow" transform="translate(30 24)" onmousedown="handlePan(0,-1)">
                  <use xlink:href="#rim" fill="#404040">
                        <set attributeName="fill" to="#808080" begin="arrowUp.mouseover" end="arrowUp.mouseout"/>
                  </use>
                  <path fill="none" stroke="white" stroke-width="1.5" d="M0,-3.0v7 M-2.5,-0.5L0,-3.0L2.5,-0.5"/>
                </g>
                <g id="arrowRight" xlink:href="#dirArrow" transform="rotate(90) translate(36 -43)" onmousedown="handlePan(1,0)">
                  <use xlink:href="#rim" fill="#404040">
                        <set attributeName="fill" to="#808080" begin="arrowRight.mouseover" end="arrowRight.mouseout"/>
                  </use>
                  <path fill="none" stroke="white" stroke-width="1.5" d="M0,-3.0v7 M-2.5,-0.5L0,-3.0L2.5,-0.5"/>
                </g>
                <g id="arrowDown" xlink:href="#dirArrow" transform="rotate(180) translate(-30 -48)" onmousedown="handlePan(0,1)">
                  <use xlink:href="#rim" fill="#404040">
                        <set attributeName="fill" to="#808080" begin="arrowDown.mouseover" end="arrowDown.mouseout"/>
                  </use>
                  <path fill="none" stroke="white" stroke-width="1.5" d="M0,-3.0v7 M-2.5,-0.5L0,-3.0L2.5,-0.5"/>
                </g>
                <g id="arrowLeft" xlink:href="#dirArrow" transform="rotate(270) translate(-36 17)" onmousedown="handlePan(-1,0)">
                  <use xlink:href="#rim" fill="#404040">
                        <set attributeName="fill" to="#808080" begin="arrowLeft.mouseover" end="arrowLeft.mouseout"/>
                  </use>
                  <path fill="none" stroke="white" stroke-width="1.5" d="M0,-3.0v7 M-2.5,-0.5L0,-3.0L2.5,-0.5"/>
                </g>
        </g>
        <svg viewBox="0 0 15 15" width="100%" height="30px" preserveAspectRatio="xMaxYMin meet">
         <g id="arrow_out" transform="scale(0.3 0.3)">
          <a xlink:href="src_2MCTrack_8cxx__incl_org.svg" target="_base">
           <rect id="button" ry="5" rx="5" y="6" x="6" height="38" width="38"
                fill="#f2f5e9" fill-opacity="0.5" stroke="#606060" stroke-width="1.0"/>
           <path id="arrow"
             d="M 11.500037,31.436501 C 11.940474,20.09759 22.043105,11.32322 32.158766,21.979434 L 37.068811,17.246167 C 37.068811,17.246167 37.088388,32 37.088388,32 L 22.160133,31.978069 C 22.160133,31.978069 26.997745,27.140456 26.997745,27.140456 C 18.528582,18.264221 13.291696,25.230495 11.500037,31.436501 z"
             style="fill:#404040;"/>
          </a>
         </g>
        </svg>
</svg>
