<?xml version="1.0" encoding="UTF-8" standalone="no"?>
<!DOCTYPE svg PUBLIC "-//W3C//DTD SVG 1.1//EN"
 "http://www.w3.org/Graphics/SVG/1.1/DTD/svg11.dtd">
<!-- Generated by graphviz version 2.36.0 (20140111.2315)
 -->
<!-- Title: /home/travis/build/AliceO2Group/AliceO2/Framework/Core/src/InputRecord.cxx Pages: 1 -->
<!--zoomable 330 -->
<svg id="main" version="1.1" xmlns="http://www.w3.org/2000/svg" xmlns:xlink="http://www.w3.org/1999/xlink" xml:space="preserve" onload="init(evt)">
<style type="text/css"><![CDATA[
.edge:hover path { stroke: red; }
.edge:hover polygon { stroke: red; fill: red; }
]]></style>
<script type="text/javascript"><![CDATA[
var edges = document.getElementsByTagName('g');
if (edges && edges.length) {
  for (var i=0;i<edges.length;i++) {
    if (edges[i].id.substr(0,4)=='edge') {
      edges[i].setAttribute('class','edge');
    }
  }
}
]]></script>
        <defs>
                <circle id="rim" cx="0" cy="0" r="7"/>
                <circle id="rim2" cx="0" cy="0" r="3.5"/>
                <g id="zoomPlus">
                        <use xlink:href="#rim" fill="#404040">
                                <set attributeName="fill" to="#808080" begin="zoomplus.mouseover" end="zoomplus.mouseout"/>
                        </use>
                        <path d="M-4,0h8M0,-4v8" fill="none" stroke="white" stroke-width="1.5" pointer-events="none"/>
                </g>
                <g id="zoomMin">
                        <use xlink:href="#rim" fill="#404040">
                                <set attributeName="fill" to="#808080" begin="zoomminus.mouseover" end="zoomminus.mouseout"/>
                        </use>
                        <path d="M-4,0h8" fill="none" stroke="white" stroke-width="1.5" pointer-events="none"/>
                </g>
                <g id="dirArrow">
                        <path fill="none" stroke="white" stroke-width="1.5" d="M0,-3.0v7 M-2.5,-0.5L0,-3.0L2.5,-0.5"/>
                </g>
               <g id="resetDef">
                       <use xlink:href="#rim2" fill="#404040">
                               <set attributeName="fill" to="#808080" begin="reset.mouseover" end="reset.mouseout"/>
                       </use>
               </g>
        </defs>

<script type="text/javascript">
var viewWidth = 1270;
var viewHeight = 330;
var sectionId = 'dynsection-0';
</script>
<script xlink:href="../../svgpan.js"/>
<svg id="graph" class="graph">
<g id="viewport">
<title>/home/travis/build/AliceO2Group/AliceO2/Framework/Core/src/InputRecord.cxx</title>
<!-- Node1 -->
<g id="node1" class="node"><title>Node1</title>
<polygon fill="#bfbfbf" stroke="black" points="757,-280.5 757,-321.5 941,-321.5 941,-280.5 757,-280.5"/>
<text text-anchor="start" x="765" y="-309.5" font-family="Helvetica,sans-Serif" font-size="10.00">/home/travis/build</text>
<text text-anchor="start" x="765" y="-298.5" font-family="Helvetica,sans-Serif" font-size="10.00">/AliceO2Group/AliceO2</text>
<text text-anchor="middle" x="849" y="-287.5" font-family="Helvetica,sans-Serif" font-size="10.00">/Framework/Core/src/InputRecord.cxx</text>
</g>
<!-- Node2 -->
<g id="node2" class="node"><title>Node2</title>
<g id="a_node2"><a xlink:href="../../d6/d5c/InputRecord_8h.html" target="_top" xlink:title="Framework/InputRecord.h">
<polygon fill="none" stroke="black" points="465,-224.5 465,-243.5 595,-243.5 595,-224.5 465,-224.5"/>
<text text-anchor="middle" x="530" y="-231.5" font-family="Helvetica,sans-Serif" font-size="10.00">Framework/InputRecord.h</text>
</a>
</g>
</g>
<!-- Node1&#45;&gt;Node2 -->
<g id="edge1" class="edge"><title>Node1&#45;&gt;Node2</title>
<path fill="none" stroke="midnightblue" d="M756.732,-281.199C699.988,-269.637 629.349,-255.244 582.137,-245.623"/>
<polygon fill="midnightblue" stroke="midnightblue" points="582.634,-242.153 572.137,-243.586 581.237,-249.012 582.634,-242.153"/>
</g>
<!-- Node8 -->
<g id="node8" class="node"><title>Node8</title>
<polygon fill="none" stroke="#bfbfbf" points="860.5,-0.5 860.5,-19.5 909.5,-19.5 909.5,-0.5 860.5,-0.5"/>
<text text-anchor="middle" x="885" y="-7.5" font-family="Helvetica,sans-Serif" font-size="10.00">cassert</text>
</g>
<!-- Node1&#45;&gt;Node8 -->
<g id="edge39" class="edge"><title>Node1&#45;&gt;Node8</title>
<path fill="none" stroke="midnightblue" d="M941.204,-291.538C1062.65,-277.792 1261,-245.209 1261,-179 1261,-179 1261,-179 1261,-121 1261,-90.7745 1264.14,-75.4491 1241,-56 1192.91,-15.5742 999.614,-10.9157 919.771,-10.7584"/>
<polygon fill="midnightblue" stroke="midnightblue" points="919.725,-7.2583 909.726,-10.7616 919.727,-14.2583 919.725,-7.2583"/>
</g>
<!-- Node12 -->
<g id="node12" class="node"><title>Node12</title>
<polygon fill="none" stroke="#bfbfbf" points="1105.5,-56.5 1105.5,-75.5 1232.5,-75.5 1232.5,-56.5 1105.5,-56.5"/>
<text text-anchor="middle" x="1169" y="-63.5" font-family="Helvetica,sans-Serif" font-size="10.00">fairmq/FairMQMessage.h</text>
</g>
<!-- Node1&#45;&gt;Node12 -->
<g id="edge38" class="edge"><title>Node1&#45;&gt;Node12</title>
<path fill="none" stroke="midnightblue" d="M900.796,-280.391C963.302,-254.534 1068.41,-203.762 1136,-132 1148.72,-118.492 1157.7,-99.1346 1163.04,-85.0594"/>
<polygon fill="midnightblue" stroke="midnightblue" points="1166.39,-86.1048 1166.43,-75.5101 1159.79,-83.7674 1166.39,-86.1048"/>
</g>
<!-- Node21 -->
<g id="node21" class="node"><title>Node21</title>
<g id="a_node21"><a xlink:href="../../d5/d3f/InputSpec_8h.html" target="_top" xlink:title="Framework/InputSpec.h">
<polygon fill="none" stroke="black" points="121.5,-112.5 121.5,-131.5 242.5,-131.5 242.5,-112.5 121.5,-112.5"/>
<text text-anchor="middle" x="182" y="-119.5" font-family="Helvetica,sans-Serif" font-size="10.00">Framework/InputSpec.h</text>
</a>
</g>
</g>
<!-- Node1&#45;&gt;Node21 -->
<g id="edge37" class="edge"><title>Node1&#45;&gt;Node21</title>
<path fill="none" stroke="midnightblue" d="M756.858,-294.538C601.29,-283.595 295.421,-254.126 213,-188 198.546,-176.404 190.437,-156.446 186.172,-141.697"/>
<polygon fill="midnightblue" stroke="midnightblue" points="189.475,-140.486 183.617,-131.658 182.691,-142.212 189.475,-140.486"/>
</g>
<!-- Node3 -->
<g id="node3" class="node"><title>Node3</title>
<g id="a_node3"><a xlink:href="../../d5/dfb/DataRef_8h.html" target="_top" xlink:title="Framework/DataRef.h">
<polygon fill="none" stroke="black" points="520.5,-112.5 520.5,-131.5 633.5,-131.5 633.5,-112.5 520.5,-112.5"/>
<text text-anchor="middle" x="577" y="-119.5" font-family="Helvetica,sans-Serif" font-size="10.00">Framework/DataRef.h</text>
</a>
</g>
</g>
<!-- Node2&#45;&gt;Node3 -->
<g id="edge2" class="edge"><title>Node2&#45;&gt;Node3</title>
<path fill="none" stroke="midnightblue" d="M581.53,-224.44C602.733,-218.104 625.268,-207.098 638,-188 651.145,-168.283 626.74,-148.897 605.003,-136.501"/>
<polygon fill="midnightblue" stroke="midnightblue" points="606.432,-133.296 595.968,-131.636 603.113,-139.459 606.432,-133.296"/>
</g>
<!-- Node4 -->
<g id="node4" class="node"><title>Node4</title>
<g id="a_node4"><a xlink:href="../../d5/db8/DataRefUtils_8h.html" target="_top" xlink:title="Framework/DataRefUtils.h">
<polygon fill="none" stroke="black" points="686,-168.5 686,-187.5 820,-187.5 820,-168.5 686,-168.5"/>
<text text-anchor="middle" x="753" y="-175.5" font-family="Helvetica,sans-Serif" font-size="10.00">Framework/DataRefUtils.h</text>
</a>
</g>
</g>
<!-- Node2&#45;&gt;Node4 -->
<g id="edge3" class="edge"><title>Node2&#45;&gt;Node4</title>
<path fill="none" stroke="midnightblue" d="M565.335,-224.444C603.911,-215.102 665.785,-200.119 707.853,-189.933"/>
<polygon fill="midnightblue" stroke="midnightblue" points="708.935,-193.272 717.83,-187.516 707.287,-186.468 708.935,-193.272"/>
</g>
<!-- Node7 -->
<g id="node7" class="node"><title>Node7</title>
<polygon fill="none" stroke="#bfbfbf" points="0,-0.5 0,-19.5 52,-19.5 52,-0.5 0,-0.5"/>
<text text-anchor="middle" x="26" y="-7.5" font-family="Helvetica,sans-Serif" font-size="10.00">memory</text>
</g>
<!-- Node2&#45;&gt;Node7 -->
<g id="edge35" class="edge"><title>Node2&#45;&gt;Node7</title>
<path fill="none" stroke="midnightblue" d="M464.592,-233.254C362.662,-232.446 171.905,-225.742 117,-188 61.2621,-149.686 37.5575,-66.4756 29.487,-29.4307"/>
<polygon fill="midnightblue" stroke="midnightblue" points="32.893,-28.6163 27.4661,-19.5169 26.0341,-30.0145 32.893,-28.6163"/>
</g>
<!-- Node2&#45;&gt;Node8 -->
<g id="edge33" class="edge"><title>Node2&#45;&gt;Node8</title>
<path fill="none" stroke="midnightblue" d="M595.236,-227.608C670.398,-220.627 788.727,-207.058 829,-188 862.563,-172.117 875.924,-165.933 891,-132 905.959,-98.3302 897.637,-54.084 890.891,-29.5005"/>
<polygon fill="midnightblue" stroke="midnightblue" points="894.184,-28.2941 887.991,-19.6975 887.471,-30.2796 894.184,-28.2941"/>
</g>
<!-- Node9 -->
<g id="node9" class="node"><title>Node9</title>
<polygon fill="none" stroke="#bfbfbf" points="87,-0.5 87,-19.5 133,-19.5 133,-0.5 87,-0.5"/>
<text text-anchor="middle" x="110" y="-7.5" font-family="Helvetica,sans-Serif" font-size="10.00">cstring</text>
</g>
<!-- Node2&#45;&gt;Node9 -->
<g id="edge32" class="edge"><title>Node2&#45;&gt;Node9</title>
<path fill="none" stroke="midnightblue" d="M464.915,-231.687C369.603,-228.721 197.658,-219.098 145,-188 118.664,-172.447 114.334,-161.127 105,-132 93.8664,-97.2581 100.123,-54.0224 105.31,-29.7686"/>
<polygon fill="midnightblue" stroke="midnightblue" points="108.776,-30.3144 107.621,-19.7827 101.957,-28.7362 108.776,-30.3144"/>
</g>
<!-- Node11 -->
<g id="node11" class="node"><title>Node11</title>
<g id="a_node11"><a xlink:href="../../d8/d3c/TMessageSerializer_8h.html" target="_top" xlink:title="Framework/TMessageSerializer.h">
<polygon fill="none" stroke="black" points="939.5,-112.5 939.5,-131.5 1102.5,-131.5 1102.5,-112.5 939.5,-112.5"/>
<text text-anchor="middle" x="1021" y="-119.5" font-family="Helvetica,sans-Serif" font-size="10.00">Framework/TMessageSerializer.h</text>
</a>
</g>
</g>
<!-- Node2&#45;&gt;Node11 -->
<g id="edge27" class="edge"><title>Node2&#45;&gt;Node11</title>
<path fill="none" stroke="midnightblue" d="M595.168,-229.356C691.299,-223.342 866.093,-209.791 925,-188 955.499,-176.718 985.738,-153.787 1003.9,-138.404"/>
<polygon fill="midnightblue" stroke="midnightblue" points="1006.54,-140.745 1011.79,-131.543 1001.95,-135.463 1006.54,-140.745"/>
</g>
<!-- Node2&#45;&gt;Node12 -->
<g id="edge26" class="edge"><title>Node2&#45;&gt;Node12</title>
<path fill="none" stroke="midnightblue" d="M595.356,-231.113C680.017,-227.539 831.719,-217.277 958,-188 1028.54,-171.646 1051.1,-172.681 1111,-132 1129.88,-119.175 1146.66,-98.8777 1157.25,-84.3774"/>
<polygon fill="midnightblue" stroke="midnightblue" points="1160.38,-86.0136 1163.28,-75.8226 1154.66,-81.9824 1160.38,-86.0136"/>
</g>
<!-- Node15 -->
<g id="node15" class="node"><title>Node15</title>
<polygon fill="none" stroke="#bfbfbf" points="366,-112.5 366,-131.5 422,-131.5 422,-112.5 366,-112.5"/>
<text text-anchor="middle" x="394" y="-119.5" font-family="Helvetica,sans-Serif" font-size="10.00">TClass.h</text>
</g>
<!-- Node2&#45;&gt;Node15 -->
<g id="edge28" class="edge"><title>Node2&#45;&gt;Node15</title>
<path fill="none" stroke="midnightblue" d="M494.662,-224.466C472.693,-217.655 445.093,-206.178 426,-188 412.643,-175.283 404.089,-155.811 399.218,-141.493"/>
<polygon fill="midnightblue" stroke="midnightblue" points="402.5,-140.258 396.192,-131.746 395.814,-142.334 402.5,-140.258"/>
</g>
<!-- Node18 -->
<g id="node18" class="node"><title>Node18</title>
<polygon fill="none" stroke="#bfbfbf" points="440,-112.5 440,-131.5 502,-131.5 502,-112.5 440,-112.5"/>
<text text-anchor="middle" x="471" y="-119.5" font-family="Helvetica,sans-Serif" font-size="10.00">type_traits</text>
</g>
<!-- Node2&#45;&gt;Node18 -->
<g id="edge36" class="edge"><title>Node2&#45;&gt;Node18</title>
<path fill="none" stroke="midnightblue" d="M487.61,-224.451C467.419,-218.022 445.088,-206.933 433,-188 422.317,-171.267 437.684,-151.511 451.952,-138.208"/>
<polygon fill="midnightblue" stroke="midnightblue" points="454.359,-140.753 459.593,-131.541 449.757,-135.478 454.359,-140.753"/>
</g>
<!-- Node20 -->
<g id="node20" class="node"><title>Node20</title>
<g id="a_node20"><a xlink:href="../../d5/d19/InputRoute_8h.html" target="_top" xlink:title="Framework/InputRoute.h">
<polygon fill="none" stroke="black" points="222.5,-168.5 222.5,-187.5 347.5,-187.5 347.5,-168.5 222.5,-168.5"/>
<text text-anchor="middle" x="285" y="-175.5" font-family="Helvetica,sans-Serif" font-size="10.00">Framework/InputRoute.h</text>
</a>
</g>
</g>
<!-- Node2&#45;&gt;Node20 -->
<g id="edge20" class="edge"><title>Node2&#45;&gt;Node20</title>
<path fill="none" stroke="midnightblue" d="M491.179,-224.444C448.439,-215.023 379.668,-199.866 333.434,-189.675"/>
<polygon fill="midnightblue" stroke="midnightblue" points="334.158,-186.251 323.639,-187.516 332.652,-193.087 334.158,-186.251"/>
</g>
<!-- Node22 -->
<g id="node22" class="node"><title>Node22</title>
<polygon fill="none" stroke="#bfbfbf" points="152.5,-56.5 152.5,-75.5 193.5,-75.5 193.5,-56.5 152.5,-56.5"/>
<text text-anchor="middle" x="173" y="-63.5" font-family="Helvetica,sans-Serif" font-size="10.00">string</text>
</g>
<!-- Node2&#45;&gt;Node22 -->
<g id="edge30" class="edge"><title>Node2&#45;&gt;Node22</title>
<path fill="none" stroke="midnightblue" d="M464.966,-230.676C399.748,-226.758 297.189,-216.24 213,-188 164.338,-171.677 138.048,-176.226 112,-132 100.043,-111.698 123.884,-92.5536 145.172,-80.3709"/>
<polygon fill="midnightblue" stroke="midnightblue" points="146.889,-83.4217 154.027,-75.5929 143.565,-77.2612 146.889,-83.4217"/>
</g>
<!-- Node24 -->
<g id="node24" class="node"><title>Node24</title>
<polygon fill="none" stroke="#bfbfbf" points="442.5,-168.5 442.5,-187.5 489.5,-187.5 489.5,-168.5 442.5,-168.5"/>
<text text-anchor="middle" x="466" y="-175.5" font-family="Helvetica,sans-Serif" font-size="10.00">iterator</text>
</g>
<!-- Node2&#45;&gt;Node24 -->
<g id="edge29" class="edge"><title>Node2&#45;&gt;Node24</title>
<path fill="none" stroke="midnightblue" d="M519.717,-224.324C510.164,-216.263 495.72,-204.077 484.216,-194.369"/>
<polygon fill="midnightblue" stroke="midnightblue" points="486.37,-191.608 476.47,-187.834 481.856,-196.958 486.37,-191.608"/>
</g>
<!-- Node25 -->
<g id="node25" class="node"><title>Node25</title>
<polygon fill="none" stroke="#bfbfbf" points="508,-168.5 508,-187.5 552,-187.5 552,-168.5 508,-168.5"/>
<text text-anchor="middle" x="530" y="-175.5" font-family="Helvetica,sans-Serif" font-size="10.00">vector</text>
</g>
<!-- Node2&#45;&gt;Node25 -->
<g id="edge31" class="edge"><title>Node2&#45;&gt;Node25</title>
<path fill="none" stroke="midnightblue" d="M530,-224.083C530,-217.006 530,-206.861 530,-197.986"/>
<polygon fill="midnightblue" stroke="midnightblue" points="533.5,-197.751 530,-187.751 526.5,-197.751 533.5,-197.751"/>
</g>
<!-- Node26 -->
<g id="node26" class="node"><title>Node26</title>
<polygon fill="none" stroke="#bfbfbf" points="570.5,-168.5 570.5,-187.5 629.5,-187.5 629.5,-168.5 570.5,-168.5"/>
<text text-anchor="middle" x="600" y="-175.5" font-family="Helvetica,sans-Serif" font-size="10.00">exception</text>
</g>
<!-- Node2&#45;&gt;Node26 -->
<g id="edge34" class="edge"><title>Node2&#45;&gt;Node26</title>
<path fill="none" stroke="midnightblue" d="M541.247,-224.324C551.797,-216.185 567.801,-203.839 580.442,-194.087"/>
<polygon fill="midnightblue" stroke="midnightblue" points="582.769,-196.713 588.549,-187.834 578.493,-191.171 582.769,-196.713"/>
</g>
<!-- Node4&#45;&gt;Node3 -->
<g id="edge4" class="edge"><title>Node4&#45;&gt;Node3</title>
<path fill="none" stroke="midnightblue" d="M725.112,-168.444C695.246,-159.28 647.685,-144.688 614.544,-134.519"/>
<polygon fill="midnightblue" stroke="midnightblue" points="615.344,-131.104 604.757,-131.516 613.291,-137.796 615.344,-131.104"/>
</g>
<!-- Node5 -->
<g id="node5" class="node"><title>Node5</title>
<g id="a_node5"><a xlink:href="../../dc/dcd/DataHeader_8h.html" target="_top" xlink:title="Headers/DataHeader.h">
<polygon fill="none" stroke="black" points="211.5,-56.5 211.5,-75.5 328.5,-75.5 328.5,-56.5 211.5,-56.5"/>
<text text-anchor="middle" x="270" y="-63.5" font-family="Helvetica,sans-Serif" font-size="10.00">Headers/DataHeader.h</text>
</a>
</g>
</g>
<!-- Node4&#45;&gt;Node5 -->
<g id="edge5" class="edge"><title>Node4&#45;&gt;Node5</title>
<path fill="none" stroke="midnightblue" d="M738.854,-168.279C711.32,-151.371 652.317,-115.477 642,-112 540.288,-77.7208 415.164,-68.9353 339.053,-67.0211"/>
<polygon fill="midnightblue" stroke="midnightblue" points="338.72,-63.5131 328.647,-66.7946 338.568,-70.5114 338.72,-63.5131"/>
</g>
<!-- Node4&#45;&gt;Node11 -->
<g id="edge11" class="edge"><title>Node4&#45;&gt;Node11</title>
<path fill="none" stroke="midnightblue" d="M795.465,-168.444C842.413,-158.984 918.076,-143.738 968.654,-133.547"/>
<polygon fill="midnightblue" stroke="midnightblue" points="969.622,-136.923 978.733,-131.516 968.239,-130.061 969.622,-136.923"/>
</g>
<!-- Node4&#45;&gt;Node15 -->
<g id="edge15" class="edge"><title>Node4&#45;&gt;Node15</title>
<path fill="none" stroke="midnightblue" d="M685.767,-169.585C622.637,-162.172 525.388,-149.602 432.105,-132.053"/>
<polygon fill="midnightblue" stroke="midnightblue" points="432.697,-128.603 422.218,-130.171 431.388,-135.479 432.697,-128.603"/>
</g>
<!-- Node16 -->
<g id="node16" class="node"><title>Node16</title>
<polygon fill="none" stroke="#bfbfbf" points="823.5,-112.5 823.5,-131.5 882.5,-131.5 882.5,-112.5 823.5,-112.5"/>
<text text-anchor="middle" x="853" y="-119.5" font-family="Helvetica,sans-Serif" font-size="10.00">stdexcept</text>
</g>
<!-- Node4&#45;&gt;Node16 -->
<g id="edge16" class="edge"><title>Node4&#45;&gt;Node16</title>
<path fill="none" stroke="midnightblue" d="M769.067,-168.324C784.958,-159.743 809.507,-146.486 827.958,-136.522"/>
<polygon fill="midnightblue" stroke="midnightblue" points="829.837,-139.486 836.973,-131.655 826.511,-133.326 829.837,-139.486"/>
</g>
<!-- Node17 -->
<g id="node17" class="node"><title>Node17</title>
<polygon fill="none" stroke="#bfbfbf" points="690,-112.5 690,-131.5 742,-131.5 742,-112.5 690,-112.5"/>
<text text-anchor="middle" x="716" y="-119.5" font-family="Helvetica,sans-Serif" font-size="10.00">sstream</text>
</g>
<!-- Node4&#45;&gt;Node17 -->
<g id="edge17" class="edge"><title>Node4&#45;&gt;Node17</title>
<path fill="none" stroke="midnightblue" d="M746.89,-168.083C741.718,-160.534 734.154,-149.495 727.806,-140.23"/>
<polygon fill="midnightblue" stroke="midnightblue" points="730.536,-138.022 721.996,-131.751 724.761,-141.979 730.536,-138.022"/>
</g>
<!-- Node4&#45;&gt;Node18 -->
<g id="edge18" class="edge"><title>Node4&#45;&gt;Node18</title>
<path fill="none" stroke="midnightblue" d="M704.226,-168.484C657.476,-160.197 584.673,-146.969 512.584,-132.27"/>
<polygon fill="midnightblue" stroke="midnightblue" points="512.918,-128.765 502.419,-130.186 511.512,-135.623 512.918,-128.765"/>
</g>
<!-- Node19 -->
<g id="node19" class="node"><title>Node19</title>
<polygon fill="none" stroke="#bfbfbf" points="760.5,-112.5 760.5,-131.5 805.5,-131.5 805.5,-112.5 760.5,-112.5"/>
<text text-anchor="middle" x="783" y="-119.5" font-family="Helvetica,sans-Serif" font-size="10.00">gsl/gsl</text>
</g>
<!-- Node4&#45;&gt;Node19 -->
<g id="edge19" class="edge"><title>Node4&#45;&gt;Node19</title>
<path fill="none" stroke="midnightblue" d="M757.954,-168.083C762.104,-160.613 768.153,-149.724 773.267,-140.52"/>
<polygon fill="midnightblue" stroke="midnightblue" points="776.341,-142.192 778.138,-131.751 770.222,-138.793 776.341,-142.192"/>
</g>
<!-- Node6 -->
<g id="node6" class="node"><title>Node6</title>
<polygon fill="none" stroke="#bfbfbf" points="186,-0.5 186,-19.5 232,-19.5 232,-0.5 186,-0.5"/>
<text text-anchor="middle" x="209" y="-7.5" font-family="Helvetica,sans-Serif" font-size="10.00">cstdint</text>
</g>
<!-- Node5&#45;&gt;Node6 -->
<g id="edge6" class="edge"><title>Node5&#45;&gt;Node6</title>
<path fill="none" stroke="midnightblue" d="M260.199,-56.324C251.182,-48.3414 237.594,-36.3128 226.682,-26.6529"/>
<polygon fill="midnightblue" stroke="midnightblue" points="228.787,-23.8416 218.979,-19.8339 224.147,-29.083 228.787,-23.8416"/>
</g>
<!-- Node5&#45;&gt;Node7 -->
<g id="edge7" class="edge"><title>Node5&#45;&gt;Node7</title>
<path fill="none" stroke="midnightblue" d="M231.337,-56.4435C184.837,-46.1524 107.395,-29.0136 62.0777,-18.9844"/>
<polygon fill="midnightblue" stroke="midnightblue" points="62.6224,-15.5203 52.1023,-16.7767 61.1098,-22.355 62.6224,-15.5203"/>
</g>
<!-- Node5&#45;&gt;Node8 -->
<g id="edge8" class="edge"><title>Node5&#45;&gt;Node8</title>
<path fill="none" stroke="midnightblue" d="M328.69,-59.8467C454.975,-48.7583 749.215,-22.9226 850.228,-14.0532"/>
<polygon fill="midnightblue" stroke="midnightblue" points="850.555,-17.538 860.21,-13.1767 849.942,-10.5649 850.555,-17.538"/>
</g>
<!-- Node5&#45;&gt;Node9 -->
<g id="edge9" class="edge"><title>Node5&#45;&gt;Node9</title>
<path fill="none" stroke="midnightblue" d="M244.648,-56.4435C217.097,-47.1454 172.984,-32.2572 142.81,-22.0735"/>
<polygon fill="midnightblue" stroke="midnightblue" points="143.75,-18.6967 133.156,-18.8151 141.512,-25.3292 143.75,-18.6967"/>
</g>
<!-- Node10 -->
<g id="node10" class="node"><title>Node10</title>
<polygon fill="none" stroke="#bfbfbf" points="250,-0.5 250,-19.5 306,-19.5 306,-0.5 250,-0.5"/>
<text text-anchor="middle" x="278" y="-7.5" font-family="Helvetica,sans-Serif" font-size="10.00">algorithm</text>
</g>
<!-- Node5&#45;&gt;Node10 -->
<g id="edge10" class="edge"><title>Node5&#45;&gt;Node10</title>
<path fill="none" stroke="midnightblue" d="M271.321,-56.083C272.381,-48.9272 273.906,-38.6353 275.231,-29.6911"/>
<polygon fill="midnightblue" stroke="midnightblue" points="278.7,-30.1561 276.704,-19.7511 271.776,-29.1302 278.7,-30.1561"/>
</g>
<!-- Node11&#45;&gt;Node12 -->
<g id="edge12" class="edge"><title>Node11&#45;&gt;Node12</title>
<path fill="none" stroke="midnightblue" d="M1044.45,-112.444C1069.13,-103.438 1108.19,-89.1891 1135.98,-79.049"/>
<polygon fill="midnightblue" stroke="midnightblue" points="1137.46,-82.2321 1145.66,-75.5164 1135.06,-75.6561 1137.46,-82.2321"/>
</g>
<!-- Node13 -->
<g id="node13" class="node"><title>Node13</title>
<polygon fill="none" stroke="#bfbfbf" points="913.5,-56.5 913.5,-75.5 984.5,-75.5 984.5,-56.5 913.5,-56.5"/>
<text text-anchor="middle" x="949" y="-63.5" font-family="Helvetica,sans-Serif" font-size="10.00">TMessage.h</text>
</g>
<!-- Node11&#45;&gt;Node13 -->
<g id="edge13" class="edge"><title>Node11&#45;&gt;Node13</title>
<path fill="none" stroke="midnightblue" d="M1009.43,-112.324C998.58,-104.185 982.119,-91.8395 969.117,-82.0874"/>
<polygon fill="midnightblue" stroke="midnightblue" points="970.879,-79.0339 960.779,-75.8339 966.679,-84.6339 970.879,-79.0339"/>
</g>
<!-- Node14 -->
<g id="node14" class="node"><title>Node14</title>
<polygon fill="none" stroke="#bfbfbf" points="1002.5,-56.5 1002.5,-75.5 1087.5,-75.5 1087.5,-56.5 1002.5,-56.5"/>
<text text-anchor="middle" x="1045" y="-63.5" font-family="Helvetica,sans-Serif" font-size="10.00">TClonesArray.h</text>
</g>
<!-- Node11&#45;&gt;Node14 -->
<g id="edge14" class="edge"><title>Node11&#45;&gt;Node14</title>
<path fill="none" stroke="midnightblue" d="M1024.96,-112.083C1028.21,-104.77 1032.92,-94.1814 1036.95,-85.1034"/>
<polygon fill="midnightblue" stroke="midnightblue" points="1040.25,-86.3107 1041.11,-75.7511 1033.85,-83.4677 1040.25,-86.3107"/>
</g>
<!-- Node20&#45;&gt;Node21 -->
<g id="edge21" class="edge"><title>Node20&#45;&gt;Node21</title>
<path fill="none" stroke="midnightblue" d="M268.451,-168.324C252.008,-159.703 226.565,-146.364 207.532,-136.386"/>
<polygon fill="midnightblue" stroke="midnightblue" points="208.989,-133.198 198.508,-131.655 205.739,-139.398 208.989,-133.198"/>
</g>
<!-- Node20&#45;&gt;Node22 -->
<g id="edge25" class="edge"><title>Node20&#45;&gt;Node22</title>
<path fill="none" stroke="midnightblue" d="M295.103,-168.495C309.219,-155.574 331.662,-130.544 318,-112 318,-112 245.894,-89.6221 203.377,-76.4275"/>
<polygon fill="midnightblue" stroke="midnightblue" points="204.363,-73.0687 193.775,-73.4474 202.288,-79.7542 204.363,-73.0687"/>
</g>
<!-- Node23 -->
<g id="node23" class="node"><title>Node23</title>
<polygon fill="none" stroke="#bfbfbf" points="260.5,-112.5 260.5,-131.5 309.5,-131.5 309.5,-112.5 260.5,-112.5"/>
<text text-anchor="middle" x="285" y="-119.5" font-family="Helvetica,sans-Serif" font-size="10.00">cstddef</text>
</g>
<!-- Node20&#45;&gt;Node23 -->
<g id="edge24" class="edge"><title>Node20&#45;&gt;Node23</title>
<path fill="none" stroke="midnightblue" d="M285,-168.083C285,-161.006 285,-150.861 285,-141.986"/>
<polygon fill="midnightblue" stroke="midnightblue" points="288.5,-141.751 285,-131.751 281.5,-141.751 288.5,-141.751"/>
</g>
<!-- Node21&#45;&gt;Node5 -->
<g id="edge23" class="edge"><title>Node21&#45;&gt;Node5</title>
<path fill="none" stroke="midnightblue" d="M196.139,-112.324C209.866,-103.9 230.936,-90.9709 247.064,-81.0741"/>
<polygon fill="midnightblue" stroke="midnightblue" points="249.204,-83.8678 255.896,-75.6545 245.543,-77.9016 249.204,-83.8678"/>
</g>
<!-- Node21&#45;&gt;Node22 -->
<g id="edge22" class="edge"><title>Node21&#45;&gt;Node22</title>
<path fill="none" stroke="midnightblue" d="M180.514,-112.083C179.321,-104.927 177.606,-94.6353 176.115,-85.6911"/>
<polygon fill="midnightblue" stroke="midnightblue" points="179.555,-85.0396 174.459,-75.7511 172.65,-86.1904 179.555,-85.0396"/>
</g>
</g>
</svg>
        <g id="navigator" transform="translate(0 0)" fill="#404254">
                <rect fill="#f2f5e9" fill-opacity="0.5" stroke="#606060" stroke-width=".5" x="0" y="0" width="60" height="60"/>
                <use id="zoomplus" xlink:href="#zoomPlus" x="17" y="9" onmousedown="handleZoom(evt,'in')"/>
                <use id="zoomminus" xlink:href="#zoomMin" x="42" y="9" onmousedown="handleZoom(evt,'out')"/>
                <use id="reset" xlink:href="#resetDef" x="30" y="36" onmousedown="handleReset()"/>
                <g id="arrowUp" xlink:href="#dirArrow" transform="translate(30 24)" onmousedown="handlePan(0,-1)">
                  <use xlink:href="#rim" fill="#404040">
                        <set attributeName="fill" to="#808080" begin="arrowUp.mouseover" end="arrowUp.mouseout"/>
                  </use>
                  <path fill="none" stroke="white" stroke-width="1.5" d="M0,-3.0v7 M-2.5,-0.5L0,-3.0L2.5,-0.5"/>
                </g>
                <g id="arrowRight" xlink:href="#dirArrow" transform="rotate(90) translate(36 -43)" onmousedown="handlePan(1,0)">
                  <use xlink:href="#rim" fill="#404040">
                        <set attributeName="fill" to="#808080" begin="arrowRight.mouseover" end="arrowRight.mouseout"/>
                  </use>
                  <path fill="none" stroke="white" stroke-width="1.5" d="M0,-3.0v7 M-2.5,-0.5L0,-3.0L2.5,-0.5"/>
                </g>
                <g id="arrowDown" xlink:href="#dirArrow" transform="rotate(180) translate(-30 -48)" onmousedown="handlePan(0,1)">
                  <use xlink:href="#rim" fill="#404040">
                        <set attributeName="fill" to="#808080" begin="arrowDown.mouseover" end="arrowDown.mouseout"/>
                  </use>
                  <path fill="none" stroke="white" stroke-width="1.5" d="M0,-3.0v7 M-2.5,-0.5L0,-3.0L2.5,-0.5"/>
                </g>
                <g id="arrowLeft" xlink:href="#dirArrow" transform="rotate(270) translate(-36 17)" onmousedown="handlePan(-1,0)">
                  <use xlink:href="#rim" fill="#404040">
                        <set attributeName="fill" to="#808080" begin="arrowLeft.mouseover" end="arrowLeft.mouseout"/>
                  </use>
                  <path fill="none" stroke="white" stroke-width="1.5" d="M0,-3.0v7 M-2.5,-0.5L0,-3.0L2.5,-0.5"/>
                </g>
        </g>
        <svg viewBox="0 0 15 15" width="100%" height="30px" preserveAspectRatio="xMaxYMin meet">
         <g id="arrow_out" transform="scale(0.3 0.3)">
          <a xlink:href="InputRecord_8cxx__incl_org.svg" target="_base">
           <rect id="button" ry="5" rx="5" y="6" x="6" height="38" width="38"
                fill="#f2f5e9" fill-opacity="0.5" stroke="#606060" stroke-width="1.0"/>
           <path id="arrow"
             d="M 11.500037,31.436501 C 11.940474,20.09759 22.043105,11.32322 32.158766,21.979434 L 37.068811,17.246167 C 37.068811,17.246167 37.088388,32 37.088388,32 L 22.160133,31.978069 C 22.160133,31.978069 26.997745,27.140456 26.997745,27.140456 C 18.528582,18.264221 13.291696,25.230495 11.500037,31.436501 z"
             style="fill:#404040;"/>
          </a>
         </g>
        </svg>
</svg>
