<?xml version="1.0" encoding="UTF-8" standalone="no"?>
<!DOCTYPE svg PUBLIC "-//W3C//DTD SVG 1.1//EN"
 "http://www.w3.org/Graphics/SVG/1.1/DTD/svg11.dtd">
<!-- Generated by graphviz version 2.36.0 (20140111.2315)
 -->
<!-- Title: /home/travis/build/AliceO2Group/AliceO2/Detectors/Passive/include/DetectorsPassive/FrameStructure.h Pages: 1 -->
<svg width="794pt" height="152pt"
 viewBox="0.00 0.00 794.00 152.00" xmlns="http://www.w3.org/2000/svg" xmlns:xlink="http://www.w3.org/1999/xlink">
<g id="graph0" class="graph" transform="scale(1 1) rotate(0) translate(4 148)">
<title>/home/travis/build/AliceO2Group/AliceO2/Detectors/Passive/include/DetectorsPassive/FrameStructure.h</title>
<!-- Node1 -->
<g id="node1" class="node"><title>Node1</title>
<polygon fill="#bfbfbf" stroke="black" points="342,-91 342,-143 518,-143 518,-91 342,-91"/>
<text text-anchor="start" x="350" y="-131" font-family="Helvetica,sans-Serif" font-size="10.00">/home/travis/build</text>
<text text-anchor="start" x="350" y="-120" font-family="Helvetica,sans-Serif" font-size="10.00">/AliceO2Group/AliceO2</text>
<text text-anchor="start" x="350" y="-109" font-family="Helvetica,sans-Serif" font-size="10.00">/Detectors/Passive/include</text>
<text text-anchor="middle" x="430" y="-98" font-family="Helvetica,sans-Serif" font-size="10.00">/DetectorsPassive/FrameStructure.h</text>
</g>
<!-- Node2 -->
<g id="node2" class="node"><title>Node2</title>
<g id="a_node2"><a xlink:href="../../d3/ddc/drawEMCALgeometry_8C.html" target="_top" xlink:title="/home/travis/build\l/AliceO2Group/AliceO2\l/Detectors/EMCAL/testsimulation\l/drawEMCALgeometry.C">
<polygon fill="none" stroke="black" points="0,-1 0,-53 164,-53 164,-1 0,-1"/>
<text text-anchor="start" x="8" y="-41" font-family="Helvetica,sans-Serif" font-size="10.00">/home/travis/build</text>
<text text-anchor="start" x="8" y="-30" font-family="Helvetica,sans-Serif" font-size="10.00">/AliceO2Group/AliceO2</text>
<text text-anchor="start" x="8" y="-19" font-family="Helvetica,sans-Serif" font-size="10.00">/Detectors/EMCAL/testsimulation</text>
<text text-anchor="middle" x="82" y="-8" font-family="Helvetica,sans-Serif" font-size="10.00">/drawEMCALgeometry.C</text>
</a>
</g>
</g>
<!-- Node1&#45;&gt;Node2 -->
<g id="edge1" class="edge"><title>Node1&#45;&gt;Node2</title>
<path fill="none" stroke="midnightblue" d="M331.982,-93.3639C283.948,-82.0142 225.32,-67.7789 173,-54 170.14,-53.2468 167.232,-52.471 164.298,-51.6794"/>
<polygon fill="midnightblue" stroke="midnightblue" points="331.217,-96.7794 341.753,-95.6675 332.823,-89.9662 331.217,-96.7794"/>
</g>
<!-- Node3 -->
<g id="node3" class="node"><title>Node3</title>
<g id="a_node3"><a xlink:href="../../d5/dce/PutEmcalInTop_8C.html" target="_top" xlink:title="/home/travis/build\l/AliceO2Group/AliceO2\l/Detectors/EMCAL/testsimulation\l/PutEmcalInTop.C">
<polygon fill="none" stroke="black" points="182,-1 182,-53 346,-53 346,-1 182,-1"/>
<text text-anchor="start" x="190" y="-41" font-family="Helvetica,sans-Serif" font-size="10.00">/home/travis/build</text>
<text text-anchor="start" x="190" y="-30" font-family="Helvetica,sans-Serif" font-size="10.00">/AliceO2Group/AliceO2</text>
<text text-anchor="start" x="190" y="-19" font-family="Helvetica,sans-Serif" font-size="10.00">/Detectors/EMCAL/testsimulation</text>
<text text-anchor="middle" x="264" y="-8" font-family="Helvetica,sans-Serif" font-size="10.00">/PutEmcalInTop.C</text>
</a>
</g>
</g>
<!-- Node1&#45;&gt;Node3 -->
<g id="edge2" class="edge"><title>Node1&#45;&gt;Node3</title>
<path fill="none" stroke="midnightblue" d="M373.334,-85.9601C353.136,-75.2526 330.616,-63.3145 311.289,-53.0687"/>
<polygon fill="midnightblue" stroke="midnightblue" points="371.956,-89.1913 382.431,-90.7827 375.235,-83.0066 371.956,-89.1913"/>
</g>
<!-- Node4 -->
<g id="node4" class="node"><title>Node4</title>
<g id="a_node4"><a xlink:href="../../dc/dd2/PutFrameInTop_8C.html" target="_top" xlink:title="/home/travis/build\l/AliceO2Group/AliceO2\l/Detectors/Passive/macro\l/PutFrameInTop.C">
<polygon fill="none" stroke="black" points="364.5,-1 364.5,-53 495.5,-53 495.5,-1 364.5,-1"/>
<text text-anchor="start" x="372.5" y="-41" font-family="Helvetica,sans-Serif" font-size="10.00">/home/travis/build</text>
<text text-anchor="start" x="372.5" y="-30" font-family="Helvetica,sans-Serif" font-size="10.00">/AliceO2Group/AliceO2</text>
<text text-anchor="start" x="372.5" y="-19" font-family="Helvetica,sans-Serif" font-size="10.00">/Detectors/Passive/macro</text>
<text text-anchor="middle" x="430" y="-8" font-family="Helvetica,sans-Serif" font-size="10.00">/PutFrameInTop.C</text>
</a>
</g>
</g>
<!-- Node1&#45;&gt;Node4 -->
<g id="edge3" class="edge"><title>Node1&#45;&gt;Node4</title>
<path fill="none" stroke="midnightblue" d="M430,-80.4892C430,-71.3088 430,-61.616 430,-53.0921"/>
<polygon fill="midnightblue" stroke="midnightblue" points="426.5,-80.5467 430,-90.5468 433.5,-80.5468 426.5,-80.5467"/>
</g>
<!-- Node5 -->
<g id="node5" class="node"><title>Node5</title>
<g id="a_node5"><a xlink:href="../../de/da5/FrameStructure_8cxx.html" target="_top" xlink:title="/home/travis/build\l/AliceO2Group/AliceO2\l/Detectors/Passive/src\l/FrameStructure.cxx">
<polygon fill="none" stroke="black" points="514,-1 514,-53 632,-53 632,-1 514,-1"/>
<text text-anchor="start" x="522" y="-41" font-family="Helvetica,sans-Serif" font-size="10.00">/home/travis/build</text>
<text text-anchor="start" x="522" y="-30" font-family="Helvetica,sans-Serif" font-size="10.00">/AliceO2Group/AliceO2</text>
<text text-anchor="start" x="522" y="-19" font-family="Helvetica,sans-Serif" font-size="10.00">/Detectors/Passive/src</text>
<text text-anchor="middle" x="573" y="-8" font-family="Helvetica,sans-Serif" font-size="10.00">/FrameStructure.cxx</text>
</a>
</g>
</g>
<!-- Node1&#45;&gt;Node5 -->
<g id="edge4" class="edge"><title>Node1&#45;&gt;Node5</title>
<path fill="none" stroke="midnightblue" d="M479.719,-85.4039C496.798,-74.8936 515.71,-63.2553 532.016,-53.221"/>
<polygon fill="midnightblue" stroke="midnightblue" points="477.66,-82.5609 470.978,-90.7827 481.329,-88.5225 477.66,-82.5609"/>
</g>
<!-- Node6 -->
<g id="node6" class="node"><title>Node6</title>
<g id="a_node6"><a xlink:href="../../de/d69/drawTOFgeometry_8C.html" target="_top" xlink:title="/home/travis/build\l/AliceO2Group/AliceO2\l/Detectors/TOF/prototyping\l/drawTOFgeometry.C">
<polygon fill="none" stroke="black" points="650,-1 650,-53 786,-53 786,-1 650,-1"/>
<text text-anchor="start" x="658" y="-41" font-family="Helvetica,sans-Serif" font-size="10.00">/home/travis/build</text>
<text text-anchor="start" x="658" y="-30" font-family="Helvetica,sans-Serif" font-size="10.00">/AliceO2Group/AliceO2</text>
<text text-anchor="start" x="658" y="-19" font-family="Helvetica,sans-Serif" font-size="10.00">/Detectors/TOF/prototyping</text>
<text text-anchor="middle" x="718" y="-8" font-family="Helvetica,sans-Serif" font-size="10.00">/drawTOFgeometry.C</text>
</a>
</g>
</g>
<!-- Node1&#45;&gt;Node6 -->
<g id="edge5" class="edge"><title>Node1&#45;&gt;Node6</title>
<path fill="none" stroke="midnightblue" d="M527.938,-88.1026C563.622,-77.7062 604.224,-65.6069 641,-54 643.826,-53.1082 646.706,-52.1878 649.613,-51.2494"/>
<polygon fill="midnightblue" stroke="midnightblue" points="526.637,-84.8359 518.011,-90.9879 528.59,-91.5578 526.637,-84.8359"/>
</g>
</g>
</svg>
