<?xml version="1.0" encoding="UTF-8" standalone="no"?>
<!DOCTYPE svg PUBLIC "-//W3C//DTD SVG 1.1//EN"
 "http://www.w3.org/Graphics/SVG/1.1/DTD/svg11.dtd">
<!-- Generated by graphviz version 2.36.0 (20140111.2315)
 -->
<!-- Title: o2::Header::HeartbeatFrameSequence&lt; SlotDataT &gt;::outerIterator&lt; Direction &gt; Pages: 1 -->
<svg width="571pt" height="696pt"
 viewBox="0.00 0.00 571.00 696.00" xmlns="http://www.w3.org/2000/svg" xmlns:xlink="http://www.w3.org/1999/xlink">
<g id="graph0" class="graph" transform="scale(1 1) rotate(0) translate(4 692)">
<title>o2::Header::HeartbeatFrameSequence&lt; SlotDataT &gt;::outerIterator&lt; Direction &gt;</title>
<!-- Node1 -->
<g id="node1" class="node"><title>Node1</title>
<polygon fill="#bfbfbf" stroke="black" points="421.5,-1 421.5,-135 562.5,-135 562.5,-1 421.5,-1"/>
<text text-anchor="start" x="429.5" y="-123" font-family="Helvetica,sans-Serif" font-size="10.00">o2::Header::HeartbeatFrame</text>
<text text-anchor="start" x="429.5" y="-112" font-family="Helvetica,sans-Serif" font-size="10.00">Sequence&lt; SlotDataT &gt;::</text>
<text text-anchor="middle" x="492" y="-101" font-family="Helvetica,sans-Serif" font-size="10.00">outerIterator&lt; Direction &gt;</text>
<polyline fill="none" stroke="black" points="421.5,-94 562.5,-94 "/>
<text text-anchor="middle" x="492" y="-82" font-family="Helvetica,sans-Serif" font-size="10.00"> </text>
<polyline fill="none" stroke="black" points="421.5,-75 562.5,-75 "/>
<text text-anchor="start" x="429.5" y="-63" font-family="Helvetica,sans-Serif" font-size="10.00">+ outerIterator()</text>
<text text-anchor="start" x="429.5" y="-52" font-family="Helvetica,sans-Serif" font-size="10.00">+ ~outerIterator()</text>
<text text-anchor="start" x="429.5" y="-41" font-family="Helvetica,sans-Serif" font-size="10.00">+ outerIterator()</text>
<text text-anchor="start" x="429.5" y="-30" font-family="Helvetica,sans-Serif" font-size="10.00">+ operator++()</text>
<text text-anchor="start" x="429.5" y="-19" font-family="Helvetica,sans-Serif" font-size="10.00">+ begin()</text>
<text text-anchor="start" x="429.5" y="-8" font-family="Helvetica,sans-Serif" font-size="10.00">+ end()</text>
</g>
<!-- Node2 -->
<g id="node2" class="node"><title>Node2</title>
<g id="a_node2"><a xlink:href="../../d6/df6/classo2_1_1Header_1_1HeartbeatFrameSequence_1_1iterator.html" target="_top" xlink:title="Iterator class for configurable direction, i.e. either row or column. ">
<polygon fill="none" stroke="black" points="246.5,-175 246.5,-353 387.5,-353 387.5,-175 246.5,-175"/>
<text text-anchor="start" x="254.5" y="-341" font-family="Helvetica,sans-Serif" font-size="10.00">o2::Header::HeartbeatFrame</text>
<text text-anchor="start" x="254.5" y="-330" font-family="Helvetica,sans-Serif" font-size="10.00">Sequence&lt; SlotDataT &gt;::</text>
<text text-anchor="middle" x="317" y="-319" font-family="Helvetica,sans-Serif" font-size="10.00">iterator</text>
<polyline fill="none" stroke="black" points="246.5,-312 387.5,-312 "/>
<text text-anchor="middle" x="317" y="-300" font-family="Helvetica,sans-Serif" font-size="10.00"> </text>
<polyline fill="none" stroke="black" points="246.5,-293 387.5,-293 "/>
<text text-anchor="start" x="254.5" y="-281" font-family="Helvetica,sans-Serif" font-size="10.00">+ iterator()</text>
<text text-anchor="start" x="254.5" y="-270" font-family="Helvetica,sans-Serif" font-size="10.00">+ ~iterator()</text>
<text text-anchor="start" x="254.5" y="-259" font-family="Helvetica,sans-Serif" font-size="10.00">+ iterator()</text>
<text text-anchor="start" x="254.5" y="-248" font-family="Helvetica,sans-Serif" font-size="10.00">+ operator++()</text>
<text text-anchor="start" x="254.5" y="-237" font-family="Helvetica,sans-Serif" font-size="10.00">+ operator*()</text>
<text text-anchor="start" x="254.5" y="-226" font-family="Helvetica,sans-Serif" font-size="10.00">+ operator==()</text>
<text text-anchor="start" x="254.5" y="-215" font-family="Helvetica,sans-Serif" font-size="10.00">+ operator!=()</text>
<text text-anchor="start" x="254.5" y="-204" font-family="Helvetica,sans-Serif" font-size="10.00">+ isEnd()</text>
<text text-anchor="start" x="254.5" y="-193" font-family="Helvetica,sans-Serif" font-size="10.00">+ isValid()</text>
<text text-anchor="start" x="254.5" y="-182" font-family="Helvetica,sans-Serif" font-size="10.00">+ getSlotData()</text>
</a>
</g>
</g>
<!-- Node2&#45;&gt;Node1 -->
<g id="edge1" class="edge"><title>Node2&#45;&gt;Node1</title>
<path fill="none" stroke="midnightblue" d="M394.654,-176.915C407.279,-162.919 420.181,-148.616 432.291,-135.192"/>
<polygon fill="none" stroke="midnightblue" points="391.774,-174.882 387.675,-184.652 396.972,-179.571 391.774,-174.882"/>
</g>
<!-- Node3 -->
<g id="node3" class="node"><title>Node3</title>
<g id="a_node3"><a xlink:href="../../d5/d8c/structo2_1_1Header_1_1HeartbeatFrameSequence_1_1FrameData.html" target="_top" xlink:title="descriptor pointing to one frame ">
<polygon fill="none" stroke="black" points="0.5,-463.5 0.5,-542.5 141.5,-542.5 141.5,-463.5 0.5,-463.5"/>
<text text-anchor="start" x="8.5" y="-530.5" font-family="Helvetica,sans-Serif" font-size="10.00">o2::Header::HeartbeatFrame</text>
<text text-anchor="start" x="8.5" y="-519.5" font-family="Helvetica,sans-Serif" font-size="10.00">Sequence&lt; SlotDataT &gt;::</text>
<text text-anchor="middle" x="71" y="-508.5" font-family="Helvetica,sans-Serif" font-size="10.00">FrameData</text>
<polyline fill="none" stroke="black" points="0.5,-501.5 141.5,-501.5 "/>
<text text-anchor="middle" x="71" y="-489.5" font-family="Helvetica,sans-Serif" font-size="10.00"> </text>
<polyline fill="none" stroke="black" points="0.5,-482.5 141.5,-482.5 "/>
<text text-anchor="middle" x="71" y="-470.5" font-family="Helvetica,sans-Serif" font-size="10.00"> </text>
</a>
</g>
</g>
<!-- Node3&#45;&gt;Node2 -->
<g id="edge2" class="edge"><title>Node3&#45;&gt;Node2</title>
<path fill="none" stroke="#404040" d="M99.1055,-463.356C119.56,-436.414 148.7,-400.36 178,-372 195.959,-354.617 216.689,-337.383 236.567,-321.988"/>
<polygon fill="none" stroke="#404040" points="236.711,-321.878 239.046,-315.055 246.242,-314.586 243.907,-321.409 236.711,-321.878"/>
<text text-anchor="middle" x="201" y="-386.5" font-family="Helvetica,sans-Serif" font-size="10.00"> #mCache</text>
</g>
<!-- Node4 -->
<g id="node4" class="node"><title>Node4</title>
<polygon fill="none" stroke="#bfbfbf" points="-0.5,-630.5 -0.5,-687.5 68.5,-687.5 68.5,-630.5 -0.5,-630.5"/>
<text text-anchor="middle" x="34" y="-675.5" font-family="Helvetica,sans-Serif" font-size="10.00">const byte *</text>
<polyline fill="none" stroke="#bfbfbf" points="-0.5,-668.5 68.5,-668.5 "/>
<text text-anchor="middle" x="34" y="-656.5" font-family="Helvetica,sans-Serif" font-size="10.00"> </text>
<polyline fill="none" stroke="#bfbfbf" points="-0.5,-649.5 68.5,-649.5 "/>
<text text-anchor="middle" x="34" y="-637.5" font-family="Helvetica,sans-Serif" font-size="10.00"> </text>
</g>
<!-- Node4&#45;&gt;Node3 -->
<g id="edge3" class="edge"><title>Node4&#45;&gt;Node3</title>
<path fill="none" stroke="#404040" d="M40.6149,-630.468C45.6701,-609.427 52.7786,-579.84 58.8492,-554.574"/>
<polygon fill="none" stroke="#404040" points="58.9289,-554.241 56.4413,-547.473 61.7323,-542.574 64.22,-549.342 58.9289,-554.241"/>
<text text-anchor="middle" x="65" y="-603.5" font-family="Helvetica,sans-Serif" font-size="10.00"> +buffer</text>
</g>
<!-- Node5 -->
<g id="node5" class="node"><title>Node5</title>
<polygon fill="none" stroke="#bfbfbf" points="86.5,-630.5 86.5,-687.5 129.5,-687.5 129.5,-630.5 86.5,-630.5"/>
<text text-anchor="middle" x="108" y="-675.5" font-family="Helvetica,sans-Serif" font-size="10.00">size_t</text>
<polyline fill="none" stroke="#bfbfbf" points="86.5,-668.5 129.5,-668.5 "/>
<text text-anchor="middle" x="108" y="-656.5" font-family="Helvetica,sans-Serif" font-size="10.00"> </text>
<polyline fill="none" stroke="#bfbfbf" points="86.5,-649.5 129.5,-649.5 "/>
<text text-anchor="middle" x="108" y="-637.5" font-family="Helvetica,sans-Serif" font-size="10.00"> </text>
</g>
<!-- Node5&#45;&gt;Node3 -->
<g id="edge4" class="edge"><title>Node5&#45;&gt;Node3</title>
<path fill="none" stroke="#404040" d="M101.385,-630.468C96.3299,-609.427 89.2214,-579.84 83.1508,-554.574"/>
<polygon fill="none" stroke="#404040" points="83.0711,-554.241 77.78,-549.342 80.2677,-542.574 85.5587,-547.473 83.0711,-554.241"/>
<text text-anchor="middle" x="111" y="-603.5" font-family="Helvetica,sans-Serif" font-size="10.00"> +size</text>
</g>
<!-- Node6 -->
<g id="node6" class="node"><title>Node6</title>
<polygon fill="none" stroke="#bfbfbf" points="160,-474.5 160,-531.5 252,-531.5 252,-474.5 160,-474.5"/>
<text text-anchor="middle" x="206" y="-519.5" font-family="Helvetica,sans-Serif" font-size="10.00">IteratorDirections</text>
<polyline fill="none" stroke="#bfbfbf" points="160,-512.5 252,-512.5 "/>
<text text-anchor="middle" x="206" y="-500.5" font-family="Helvetica,sans-Serif" font-size="10.00"> </text>
<polyline fill="none" stroke="#bfbfbf" points="160,-493.5 252,-493.5 "/>
<text text-anchor="middle" x="206" y="-481.5" font-family="Helvetica,sans-Serif" font-size="10.00"> </text>
</g>
<!-- Node6&#45;&gt;Node2 -->
<g id="edge5" class="edge"><title>Node6&#45;&gt;Node2</title>
<path fill="none" stroke="#404040" d="M210.188,-474.352C214.975,-447.319 224.257,-405.457 240,-372 241.3,-369.237 242.674,-366.471 244.11,-363.71"/>
<polygon fill="none" stroke="#404040" points="244.159,-363.621 243.542,-356.436 249.936,-353.103 250.554,-360.288 244.159,-363.621"/>
<text text-anchor="middle" x="268" y="-386.5" font-family="Helvetica,sans-Serif" font-size="10.00"> #mDirection</text>
</g>
<!-- Node7 -->
<g id="node7" class="node"><title>Node7</title>
<polygon fill="none" stroke="#bfbfbf" points="270.5,-474.5 270.5,-531.5 305.5,-531.5 305.5,-474.5 270.5,-474.5"/>
<text text-anchor="middle" x="288" y="-519.5" font-family="Helvetica,sans-Serif" font-size="10.00">bool</text>
<polyline fill="none" stroke="#bfbfbf" points="270.5,-512.5 305.5,-512.5 "/>
<text text-anchor="middle" x="288" y="-500.5" font-family="Helvetica,sans-Serif" font-size="10.00"> </text>
<polyline fill="none" stroke="#bfbfbf" points="270.5,-493.5 305.5,-493.5 "/>
<text text-anchor="middle" x="288" y="-481.5" font-family="Helvetica,sans-Serif" font-size="10.00"> </text>
</g>
<!-- Node7&#45;&gt;Node2 -->
<g id="edge6" class="edge"><title>Node7&#45;&gt;Node2</title>
<path fill="none" stroke="#404040" d="M291.383,-474.349C294.681,-447.401 299.895,-404.788 304.761,-365.022"/>
<polygon fill="none" stroke="#404040" points="304.766,-364.981 301.524,-358.54 306.224,-353.07 309.465,-359.511 304.766,-364.981"/>
<text text-anchor="middle" x="333.5" y="-386.5" font-family="Helvetica,sans-Serif" font-size="10.00"> #mIsCached</text>
</g>
<!-- Node8 -->
<g id="node8" class="node"><title>Node8</title>
<g id="a_node8"><a xlink:href="../../dd/d39/classo2_1_1Header_1_1HeartbeatFrameSequence.html" target="_top" xlink:title="{o2::Header::HeartbeatFrame\lSequence\&lt; SlotDataT \&gt;\n||+ HeartbeatFrameSequence()\l+ ~HeartbeatFrameSequence()\l+ addSlot()\l+ clear()\l+ getNColumns()\l+ getNSlots()\l+ getSlotData()\l+ begin()\l+ end()\l}">
<polygon fill="none" stroke="black" points="324,-425 324,-581 476,-581 476,-425 324,-425"/>
<text text-anchor="start" x="332" y="-569" font-family="Helvetica,sans-Serif" font-size="10.00">o2::Header::HeartbeatFrame</text>
<text text-anchor="middle" x="400" y="-558" font-family="Helvetica,sans-Serif" font-size="10.00">Sequence&lt; SlotDataT &gt;</text>
<polyline fill="none" stroke="black" points="324,-551 476,-551 "/>
<text text-anchor="middle" x="400" y="-539" font-family="Helvetica,sans-Serif" font-size="10.00"> </text>
<polyline fill="none" stroke="black" points="324,-532 476,-532 "/>
<text text-anchor="start" x="332" y="-520" font-family="Helvetica,sans-Serif" font-size="10.00">+ HeartbeatFrameSequence()</text>
<text text-anchor="start" x="332" y="-509" font-family="Helvetica,sans-Serif" font-size="10.00">+ ~HeartbeatFrameSequence()</text>
<text text-anchor="start" x="332" y="-498" font-family="Helvetica,sans-Serif" font-size="10.00">+ addSlot()</text>
<text text-anchor="start" x="332" y="-487" font-family="Helvetica,sans-Serif" font-size="10.00">+ clear()</text>
<text text-anchor="start" x="332" y="-476" font-family="Helvetica,sans-Serif" font-size="10.00">+ getNColumns()</text>
<text text-anchor="start" x="332" y="-465" font-family="Helvetica,sans-Serif" font-size="10.00">+ getNSlots()</text>
<text text-anchor="start" x="332" y="-454" font-family="Helvetica,sans-Serif" font-size="10.00">+ getSlotData()</text>
<text text-anchor="start" x="332" y="-443" font-family="Helvetica,sans-Serif" font-size="10.00">+ begin()</text>
<text text-anchor="start" x="332" y="-432" font-family="Helvetica,sans-Serif" font-size="10.00">+ end()</text>
</a>
</g>
</g>
<!-- Node8&#45;&gt;Node2 -->
<g id="edge7" class="edge"><title>Node8&#45;&gt;Node2</title>
<path fill="none" stroke="#404040" d="M383.002,-424.975C378.415,-407.375 373.028,-388.886 367,-372 366.104,-369.49 365.17,-366.958 364.204,-364.414"/>
<polygon fill="none" stroke="#404040" points="364.187,-364.372 358.265,-360.258 359.785,-353.209 365.707,-357.323 364.187,-364.372"/>
<text text-anchor="middle" x="401" y="-386.5" font-family="Helvetica,sans-Serif" font-size="10.00"> #mParent</text>
</g>
<!-- Node9 -->
<g id="node9" class="node"><title>Node9</title>
<polygon fill="none" stroke="#bfbfbf" points="494,-474.5 494,-531.5 550,-531.5 550,-474.5 494,-474.5"/>
<text text-anchor="middle" x="522" y="-519.5" font-family="Helvetica,sans-Serif" font-size="10.00">unsigned</text>
<polyline fill="none" stroke="#bfbfbf" points="494,-512.5 550,-512.5 "/>
<text text-anchor="middle" x="522" y="-500.5" font-family="Helvetica,sans-Serif" font-size="10.00"> </text>
<polyline fill="none" stroke="#bfbfbf" points="494,-493.5 550,-493.5 "/>
<text text-anchor="middle" x="522" y="-481.5" font-family="Helvetica,sans-Serif" font-size="10.00"> </text>
</g>
<!-- Node9&#45;&gt;Node1 -->
<g id="edge9" class="edge"><title>Node9&#45;&gt;Node1</title>
<path fill="none" stroke="#404040" d="M520.078,-474.255C515.582,-409.368 504.247,-245.772 497.433,-147.42"/>
<polygon fill="none" stroke="#404040" points="497.414,-147.142 493.009,-141.433 496.585,-135.171 500.99,-140.88 497.414,-147.142"/>
<text text-anchor="middle" x="535" y="-261.5" font-family="Helvetica,sans-Serif" font-size="10.00"> +direction</text>
</g>
<!-- Node9&#45;&gt;Node2 -->
<g id="edge8" class="edge"><title>Node9&#45;&gt;Node2</title>
<path fill="none" stroke="#404040" d="M512.857,-474.423C506.678,-458.542 497.379,-438.852 485,-424 476.234,-413.483 470.295,-415.026 460,-406 444.397,-392.319 442.585,-386.761 428,-372 417.932,-361.811 407.222,-351.206 396.58,-340.804"/>
<polygon fill="none" stroke="#404040" points="396.268,-340.5 389.179,-339.18 387.671,-332.128 394.76,-333.449 396.268,-340.5"/>
<text text-anchor="middle" x="484" y="-397.5" font-family="Helvetica,sans-Serif" font-size="10.00"> #mEnd</text>
<text text-anchor="middle" x="484" y="-386.5" font-family="Helvetica,sans-Serif" font-size="10.00">#mColumn</text>
<text text-anchor="middle" x="484" y="-375.5" font-family="Helvetica,sans-Serif" font-size="10.00">#mRow</text>
</g>
</g>
</svg>
