<?xml version="1.0" encoding="UTF-8" standalone="no"?>
<!DOCTYPE svg PUBLIC "-//W3C//DTD SVG 1.1//EN"
 "http://www.w3.org/Graphics/SVG/1.1/DTD/svg11.dtd">
<!-- Generated by graphviz version 2.36.0 (20140111.2315)
 -->
<!-- Title: /home/travis/build/AliceO2Group/AliceO2/Detectors/TOF/base/include/TOFBase/Geo.h Pages: 1 -->
<svg width="599pt" height="242pt"
 viewBox="0.00 0.00 599.00 242.00" xmlns="http://www.w3.org/2000/svg" xmlns:xlink="http://www.w3.org/1999/xlink">
<g id="graph0" class="graph" transform="scale(1 1) rotate(0) translate(4 238)">
<title>/home/travis/build/AliceO2Group/AliceO2/Detectors/TOF/base/include/TOFBase/Geo.h</title>
<!-- Node1 -->
<g id="node1" class="node"><title>Node1</title>
<polygon fill="#bfbfbf" stroke="black" points="135.5,-181 135.5,-233 278.5,-233 278.5,-181 135.5,-181"/>
<text text-anchor="start" x="143.5" y="-221" font-family="Helvetica,sans-Serif" font-size="10.00">/home/travis/build</text>
<text text-anchor="start" x="143.5" y="-210" font-family="Helvetica,sans-Serif" font-size="10.00">/AliceO2Group/AliceO2</text>
<text text-anchor="start" x="143.5" y="-199" font-family="Helvetica,sans-Serif" font-size="10.00">/Detectors/TOF/base/include</text>
<text text-anchor="middle" x="207" y="-188" font-family="Helvetica,sans-Serif" font-size="10.00">/TOFBase/Geo.h</text>
</g>
<!-- Node2 -->
<g id="node2" class="node"><title>Node2</title>
<g id="a_node2"><a xlink:href="../../da/d39/Geo_8cxx.html" target="_top" xlink:title="/home/travis/build\l/AliceO2Group/AliceO2\l/Detectors/TOF/base/src\l/Geo.cxx">
<polygon fill="none" stroke="black" points="-0.5,-91 -0.5,-143 124.5,-143 124.5,-91 -0.5,-91"/>
<text text-anchor="start" x="7.5" y="-131" font-family="Helvetica,sans-Serif" font-size="10.00">/home/travis/build</text>
<text text-anchor="start" x="7.5" y="-120" font-family="Helvetica,sans-Serif" font-size="10.00">/AliceO2Group/AliceO2</text>
<text text-anchor="start" x="7.5" y="-109" font-family="Helvetica,sans-Serif" font-size="10.00">/Detectors/TOF/base/src</text>
<text text-anchor="middle" x="62" y="-98" font-family="Helvetica,sans-Serif" font-size="10.00">/Geo.cxx</text>
</a>
</g>
</g>
<!-- Node1&#45;&gt;Node2 -->
<g id="edge1" class="edge"><title>Node1&#45;&gt;Node2</title>
<path fill="none" stroke="midnightblue" d="M156.586,-175.404C139.268,-164.894 120.091,-153.255 103.557,-143.221"/>
<polygon fill="midnightblue" stroke="midnightblue" points="155.084,-178.587 165.449,-180.783 158.716,-172.602 155.084,-178.587"/>
</g>
<!-- Node3 -->
<g id="node3" class="node"><title>Node3</title>
<g id="a_node3"><a xlink:href="../../d3/d5a/testTOFIndex_8cxx.html" target="_top" xlink:title="/home/travis/build\l/AliceO2Group/AliceO2\l/Detectors/TOF/base/test\l/testTOFIndex.cxx">
<polygon fill="none" stroke="black" points="143,-91 143,-143 271,-143 271,-91 143,-91"/>
<text text-anchor="start" x="151" y="-131" font-family="Helvetica,sans-Serif" font-size="10.00">/home/travis/build</text>
<text text-anchor="start" x="151" y="-120" font-family="Helvetica,sans-Serif" font-size="10.00">/AliceO2Group/AliceO2</text>
<text text-anchor="start" x="151" y="-109" font-family="Helvetica,sans-Serif" font-size="10.00">/Detectors/TOF/base/test</text>
<text text-anchor="middle" x="207" y="-98" font-family="Helvetica,sans-Serif" font-size="10.00">/testTOFIndex.cxx</text>
</a>
</g>
</g>
<!-- Node1&#45;&gt;Node3 -->
<g id="edge2" class="edge"><title>Node1&#45;&gt;Node3</title>
<path fill="none" stroke="midnightblue" d="M207,-170.489C207,-161.309 207,-151.616 207,-143.092"/>
<polygon fill="midnightblue" stroke="midnightblue" points="203.5,-170.547 207,-180.547 210.5,-170.547 203.5,-170.547"/>
</g>
<!-- Node4 -->
<g id="node4" class="node"><title>Node4</title>
<g id="a_node4"><a xlink:href="../../d5/d3c/TOF_2simulation_2include_2TOFSimulation_2Detector_8h.html" target="_top" xlink:title="/home/travis/build\l/AliceO2Group/AliceO2\l/Detectors/TOF/simulation\l/include/TOFSimulation/Detector.h">
<polygon fill="none" stroke="black" points="289.5,-91 289.5,-143 456.5,-143 456.5,-91 289.5,-91"/>
<text text-anchor="start" x="297.5" y="-131" font-family="Helvetica,sans-Serif" font-size="10.00">/home/travis/build</text>
<text text-anchor="start" x="297.5" y="-120" font-family="Helvetica,sans-Serif" font-size="10.00">/AliceO2Group/AliceO2</text>
<text text-anchor="start" x="297.5" y="-109" font-family="Helvetica,sans-Serif" font-size="10.00">/Detectors/TOF/simulation</text>
<text text-anchor="middle" x="373" y="-98" font-family="Helvetica,sans-Serif" font-size="10.00">/include/TOFSimulation/Detector.h</text>
</a>
</g>
</g>
<!-- Node1&#45;&gt;Node4 -->
<g id="edge3" class="edge"><title>Node1&#45;&gt;Node4</title>
<path fill="none" stroke="midnightblue" d="M263.666,-175.96C283.864,-165.253 306.384,-153.315 325.711,-143.069"/>
<polygon fill="midnightblue" stroke="midnightblue" points="261.765,-173.007 254.569,-180.783 265.044,-179.191 261.765,-173.007"/>
</g>
<!-- Node5 -->
<g id="node5" class="node"><title>Node5</title>
<g id="a_node5"><a xlink:href="../../d3/ddc/drawEMCALgeometry_8C.html" target="_top" xlink:title="/home/travis/build\l/AliceO2Group/AliceO2\l/Detectors/EMCAL/testsimulation\l/drawEMCALgeometry.C">
<polygon fill="none" stroke="black" points="123,-1 123,-53 287,-53 287,-1 123,-1"/>
<text text-anchor="start" x="131" y="-41" font-family="Helvetica,sans-Serif" font-size="10.00">/home/travis/build</text>
<text text-anchor="start" x="131" y="-30" font-family="Helvetica,sans-Serif" font-size="10.00">/AliceO2Group/AliceO2</text>
<text text-anchor="start" x="131" y="-19" font-family="Helvetica,sans-Serif" font-size="10.00">/Detectors/EMCAL/testsimulation</text>
<text text-anchor="middle" x="205" y="-8" font-family="Helvetica,sans-Serif" font-size="10.00">/drawEMCALgeometry.C</text>
</a>
</g>
</g>
<!-- Node4&#45;&gt;Node5 -->
<g id="edge4" class="edge"><title>Node4&#45;&gt;Node5</title>
<path fill="none" stroke="midnightblue" d="M315.927,-86.1047C295.415,-75.3602 272.507,-63.3607 252.858,-53.0687"/>
<polygon fill="midnightblue" stroke="midnightblue" points="314.376,-89.243 324.858,-90.7827 317.624,-83.0422 314.376,-89.243"/>
</g>
<!-- Node6 -->
<g id="node6" class="node"><title>Node6</title>
<g id="a_node6"><a xlink:href="../../de/d69/drawTOFgeometry_8C.html" target="_top" xlink:title="/home/travis/build\l/AliceO2Group/AliceO2\l/Detectors/TOF/prototyping\l/drawTOFgeometry.C">
<polygon fill="none" stroke="black" points="305,-1 305,-53 441,-53 441,-1 305,-1"/>
<text text-anchor="start" x="313" y="-41" font-family="Helvetica,sans-Serif" font-size="10.00">/home/travis/build</text>
<text text-anchor="start" x="313" y="-30" font-family="Helvetica,sans-Serif" font-size="10.00">/AliceO2Group/AliceO2</text>
<text text-anchor="start" x="313" y="-19" font-family="Helvetica,sans-Serif" font-size="10.00">/Detectors/TOF/prototyping</text>
<text text-anchor="middle" x="373" y="-8" font-family="Helvetica,sans-Serif" font-size="10.00">/drawTOFgeometry.C</text>
</a>
</g>
</g>
<!-- Node4&#45;&gt;Node6 -->
<g id="edge5" class="edge"><title>Node4&#45;&gt;Node6</title>
<path fill="none" stroke="midnightblue" d="M373,-80.4892C373,-71.3088 373,-61.616 373,-53.0921"/>
<polygon fill="midnightblue" stroke="midnightblue" points="369.5,-80.5467 373,-90.5468 376.5,-80.5468 369.5,-80.5467"/>
</g>
<!-- Node7 -->
<g id="node7" class="node"><title>Node7</title>
<g id="a_node7"><a xlink:href="../../d4/d59/TOF_2simulation_2src_2Detector_8cxx.html" target="_top" xlink:title="/home/travis/build\l/AliceO2Group/AliceO2\l/Detectors/TOF/simulation\l/src/Detector.cxx">
<polygon fill="none" stroke="black" points="459,-1 459,-53 591,-53 591,-1 459,-1"/>
<text text-anchor="start" x="467" y="-41" font-family="Helvetica,sans-Serif" font-size="10.00">/home/travis/build</text>
<text text-anchor="start" x="467" y="-30" font-family="Helvetica,sans-Serif" font-size="10.00">/AliceO2Group/AliceO2</text>
<text text-anchor="start" x="467" y="-19" font-family="Helvetica,sans-Serif" font-size="10.00">/Detectors/TOF/simulation</text>
<text text-anchor="middle" x="525" y="-8" font-family="Helvetica,sans-Serif" font-size="10.00">/src/Detector.cxx</text>
</a>
</g>
</g>
<!-- Node4&#45;&gt;Node7 -->
<g id="edge6" class="edge"><title>Node4&#45;&gt;Node7</title>
<path fill="none" stroke="midnightblue" d="M425.387,-85.6704C443.753,-75.0376 464.162,-63.2222 481.7,-53.0687"/>
<polygon fill="midnightblue" stroke="midnightblue" points="423.458,-82.7433 416.557,-90.7827 426.965,-88.8013 423.458,-82.7433"/>
</g>
</g>
</svg>
