<?xml version="1.0" encoding="UTF-8" standalone="no"?>
<!DOCTYPE svg PUBLIC "-//W3C//DTD SVG 1.1//EN"
 "http://www.w3.org/Graphics/SVG/1.1/DTD/svg11.dtd">
<!-- Generated by graphviz version 2.36.0 (20140111.2315)
 -->
<!-- Title: o2::Base::TrackReference Pages: 1 -->
<svg width="287pt" height="668pt"
 viewBox="0.00 0.00 287.00 668.00" xmlns="http://www.w3.org/2000/svg" xmlns:xlink="http://www.w3.org/1999/xlink">
<g id="graph0" class="graph" transform="scale(1 1) rotate(0) translate(4 664)">
<title>o2::Base::TrackReference</title>
<!-- Node1 -->
<g id="node1" class="node"><title>Node1</title>
<polygon fill="#bfbfbf" stroke="black" points="26.5,-1 26.5,-443 157.5,-443 157.5,-1 26.5,-1"/>
<text text-anchor="middle" x="92" y="-431" font-family="Helvetica,sans-Serif" font-size="10.00">o2::Base::TrackReference</text>
<polyline fill="none" stroke="black" points="26.5,-424 157.5,-424 "/>
<text text-anchor="middle" x="92" y="-412" font-family="Helvetica,sans-Serif" font-size="10.00"> </text>
<polyline fill="none" stroke="black" points="26.5,-405 157.5,-405 "/>
<text text-anchor="start" x="34.5" y="-393" font-family="Helvetica,sans-Serif" font-size="10.00">+ TrackReference()</text>
<text text-anchor="start" x="34.5" y="-382" font-family="Helvetica,sans-Serif" font-size="10.00">+ TrackReference()</text>
<text text-anchor="start" x="34.5" y="-371" font-family="Helvetica,sans-Serif" font-size="10.00">+ TrackReference()</text>
<text text-anchor="start" x="34.5" y="-360" font-family="Helvetica,sans-Serif" font-size="10.00">+ ~TrackReference()</text>
<text text-anchor="start" x="34.5" y="-349" font-family="Helvetica,sans-Serif" font-size="10.00">+ GetTrack()</text>
<text text-anchor="start" x="34.5" y="-338" font-family="Helvetica,sans-Serif" font-size="10.00">+ SetTrack()</text>
<text text-anchor="start" x="34.5" y="-327" font-family="Helvetica,sans-Serif" font-size="10.00">+ SetLength()</text>
<text text-anchor="start" x="34.5" y="-316" font-family="Helvetica,sans-Serif" font-size="10.00">+ SetTime()</text>
<text text-anchor="start" x="34.5" y="-305" font-family="Helvetica,sans-Serif" font-size="10.00">+ GetLength()</text>
<text text-anchor="start" x="34.5" y="-294" font-family="Helvetica,sans-Serif" font-size="10.00">+ GetTime()</text>
<text text-anchor="start" x="34.5" y="-283" font-family="Helvetica,sans-Serif" font-size="10.00">+ Label()</text>
<text text-anchor="start" x="34.5" y="-272" font-family="Helvetica,sans-Serif" font-size="10.00">+ SetLabel()</text>
<text text-anchor="start" x="34.5" y="-261" font-family="Helvetica,sans-Serif" font-size="10.00">+ R()</text>
<text text-anchor="start" x="34.5" y="-250" font-family="Helvetica,sans-Serif" font-size="10.00">+ Pt()</text>
<text text-anchor="start" x="34.5" y="-239" font-family="Helvetica,sans-Serif" font-size="10.00">+ Phi()</text>
<text text-anchor="start" x="34.5" y="-228" font-family="Helvetica,sans-Serif" font-size="10.00">+ Theta()</text>
<text text-anchor="start" x="34.5" y="-217" font-family="Helvetica,sans-Serif" font-size="10.00">+ X()</text>
<text text-anchor="start" x="34.5" y="-206" font-family="Helvetica,sans-Serif" font-size="10.00">+ Y()</text>
<text text-anchor="start" x="34.5" y="-195" font-family="Helvetica,sans-Serif" font-size="10.00">+ Z()</text>
<text text-anchor="start" x="34.5" y="-184" font-family="Helvetica,sans-Serif" font-size="10.00">+ Px()</text>
<text text-anchor="start" x="34.5" y="-173" font-family="Helvetica,sans-Serif" font-size="10.00">+ Py()</text>
<text text-anchor="start" x="34.5" y="-162" font-family="Helvetica,sans-Serif" font-size="10.00">+ Pz()</text>
<text text-anchor="start" x="34.5" y="-151" font-family="Helvetica,sans-Serif" font-size="10.00">+ P()</text>
<text text-anchor="start" x="34.5" y="-140" font-family="Helvetica,sans-Serif" font-size="10.00">+ UserId()</text>
<text text-anchor="start" x="34.5" y="-129" font-family="Helvetica,sans-Serif" font-size="10.00">+ DetectorId()</text>
<text text-anchor="start" x="34.5" y="-118" font-family="Helvetica,sans-Serif" font-size="10.00">+ SetDetectorId()</text>
<text text-anchor="start" x="34.5" y="-107" font-family="Helvetica,sans-Serif" font-size="10.00">+ setPosition()</text>
<text text-anchor="start" x="34.5" y="-96" font-family="Helvetica,sans-Serif" font-size="10.00">+ SetMomentum()</text>
<text text-anchor="start" x="34.5" y="-85" font-family="Helvetica,sans-Serif" font-size="10.00">+ setUserId()</text>
<text text-anchor="start" x="34.5" y="-74" font-family="Helvetica,sans-Serif" font-size="10.00">+ phiPosition()</text>
<text text-anchor="start" x="34.5" y="-63" font-family="Helvetica,sans-Serif" font-size="10.00">+ Alpha()</text>
<text text-anchor="start" x="34.5" y="-52" font-family="Helvetica,sans-Serif" font-size="10.00">+ LocalX()</text>
<text text-anchor="start" x="34.5" y="-41" font-family="Helvetica,sans-Serif" font-size="10.00">+ LocalY()</text>
<text text-anchor="start" x="34.5" y="-30" font-family="Helvetica,sans-Serif" font-size="10.00">+ isSortable()</text>
<text text-anchor="start" x="34.5" y="-19" font-family="Helvetica,sans-Serif" font-size="10.00">+ Compare()</text>
<text text-anchor="start" x="34.5" y="-8" font-family="Helvetica,sans-Serif" font-size="10.00">+ Print()</text>
</g>
<!-- Node2 -->
<g id="node2" class="node"><title>Node2</title>
<polygon fill="none" stroke="#bfbfbf" points="-0.5,-602.5 -0.5,-659.5 50.5,-659.5 50.5,-602.5 -0.5,-602.5"/>
<text text-anchor="middle" x="25" y="-647.5" font-family="Helvetica,sans-Serif" font-size="10.00">TObject</text>
<polyline fill="none" stroke="#bfbfbf" points="-0.5,-640.5 50.5,-640.5 "/>
<text text-anchor="middle" x="25" y="-628.5" font-family="Helvetica,sans-Serif" font-size="10.00"> </text>
<polyline fill="none" stroke="#bfbfbf" points="-0.5,-621.5 50.5,-621.5 "/>
<text text-anchor="middle" x="25" y="-609.5" font-family="Helvetica,sans-Serif" font-size="10.00"> </text>
</g>
<!-- Node2&#45;&gt;Node1 -->
<g id="edge1" class="edge"><title>Node2&#45;&gt;Node1</title>
<path fill="none" stroke="midnightblue" d="M31.2498,-592.035C37.0784,-556.628 46.279,-500.738 55.7736,-443.062"/>
<polygon fill="none" stroke="midnightblue" points="27.7234,-591.909 29.5525,-602.345 34.6304,-593.047 27.7234,-591.909"/>
</g>
<!-- Node3 -->
<g id="node3" class="node"><title>Node3</title>
<g id="a_node3"><a xlink:href="../../d9/d7d/classFloat__t.html" target="_top" xlink:title="{Float_t\n||}">
<polygon fill="none" stroke="black" points="68.5,-602.5 68.5,-659.5 115.5,-659.5 115.5,-602.5 68.5,-602.5"/>
<text text-anchor="middle" x="92" y="-647.5" font-family="Helvetica,sans-Serif" font-size="10.00">Float_t</text>
<polyline fill="none" stroke="black" points="68.5,-640.5 115.5,-640.5 "/>
<text text-anchor="middle" x="92" y="-628.5" font-family="Helvetica,sans-Serif" font-size="10.00"> </text>
<polyline fill="none" stroke="black" points="68.5,-621.5 115.5,-621.5 "/>
<text text-anchor="middle" x="92" y="-609.5" font-family="Helvetica,sans-Serif" font-size="10.00"> </text>
</a>
</g>
</g>
<!-- Node3&#45;&gt;Node1 -->
<g id="edge2" class="edge"><title>Node3&#45;&gt;Node1</title>
<path fill="none" stroke="#404040" d="M92,-602.345C92,-570.375 92,-514.515 92,-455.334"/>
<polygon fill="none" stroke="#404040" points="92.0001,-455.062 88,-449.062 92,-443.062 96,-449.062 92.0001,-455.062"/>
<text text-anchor="middle" x="139" y="-575.5" font-family="Helvetica,sans-Serif" font-size="10.00"> #mTof</text>
<text text-anchor="middle" x="139" y="-564.5" font-family="Helvetica,sans-Serif" font-size="10.00">#mMomentumX</text>
<text text-anchor="middle" x="139" y="-553.5" font-family="Helvetica,sans-Serif" font-size="10.00">#mMomentumY</text>
<text text-anchor="middle" x="139" y="-542.5" font-family="Helvetica,sans-Serif" font-size="10.00">#mMomentumZ</text>
<text text-anchor="start" x="92" y="-531.5" font-family="Helvetica,sans-Serif" font-size="10.00">#mReferencePosition</text>
<text text-anchor="middle" x="139" y="-520.5" font-family="Helvetica,sans-Serif" font-size="10.00">X</text>
<text text-anchor="start" x="92" y="-509.5" font-family="Helvetica,sans-Serif" font-size="10.00">#mReferencePosition</text>
<text text-anchor="middle" x="139" y="-498.5" font-family="Helvetica,sans-Serif" font-size="10.00">Y</text>
<text text-anchor="start" x="92" y="-487.5" font-family="Helvetica,sans-Serif" font-size="10.00">#mReferencePosition</text>
<text text-anchor="middle" x="139" y="-476.5" font-family="Helvetica,sans-Serif" font-size="10.00">Z</text>
<text text-anchor="middle" x="139" y="-465.5" font-family="Helvetica,sans-Serif" font-size="10.00">#mTrackLength</text>
</g>
<!-- Node4 -->
<g id="node4" class="node"><title>Node4</title>
<polygon fill="none" stroke="#bfbfbf" points="191,-602.5 191,-659.5 227,-659.5 227,-602.5 191,-602.5"/>
<text text-anchor="middle" x="209" y="-647.5" font-family="Helvetica,sans-Serif" font-size="10.00">Int_t</text>
<polyline fill="none" stroke="#bfbfbf" points="191,-640.5 227,-640.5 "/>
<text text-anchor="middle" x="209" y="-628.5" font-family="Helvetica,sans-Serif" font-size="10.00"> </text>
<polyline fill="none" stroke="#bfbfbf" points="191,-621.5 227,-621.5 "/>
<text text-anchor="middle" x="209" y="-609.5" font-family="Helvetica,sans-Serif" font-size="10.00"> </text>
</g>
<!-- Node4&#45;&gt;Node1 -->
<g id="edge3" class="edge"><title>Node4&#45;&gt;Node1</title>
<path fill="none" stroke="#404040" d="M207.478,-602.246C205.153,-568.602 199.579,-510.399 187,-462 180.249,-436.025 171.431,-409.073 161.89,-383.034"/>
<polygon fill="none" stroke="#404040" points="161.797,-382.786 155.955,-378.558 157.61,-371.54 163.452,-375.767 161.797,-382.786"/>
<text text-anchor="middle" x="242.5" y="-531.5" font-family="Helvetica,sans-Serif" font-size="10.00"> #mDetectorId</text>
<text text-anchor="middle" x="242.5" y="-520.5" font-family="Helvetica,sans-Serif" font-size="10.00">#mUserId</text>
<text text-anchor="middle" x="242.5" y="-509.5" font-family="Helvetica,sans-Serif" font-size="10.00">#mTrackNumber</text>
</g>
</g>
</svg>
