<?xml version="1.0" encoding="UTF-8" standalone="no"?>
<!DOCTYPE svg PUBLIC "-//W3C//DTD SVG 1.1//EN"
 "http://www.w3.org/Graphics/SVG/1.1/DTD/svg11.dtd">
<!-- Generated by graphviz version 2.36.0 (20140111.2315)
 -->
<!-- Title: o2::DataFormat::TPC::ClusterNativeAccessFullTPC Pages: 1 -->
<svg width="480pt" height="476pt"
 viewBox="0.00 0.00 480.00 476.00" xmlns="http://www.w3.org/2000/svg" xmlns:xlink="http://www.w3.org/1999/xlink">
<g id="graph0" class="graph" transform="scale(1 1) rotate(0) translate(4 472)">
<title>o2::DataFormat::TPC::ClusterNativeAccessFullTPC</title>
<!-- Node1 -->
<g id="node1" class="node"><title>Node1</title>
<polygon fill="#bfbfbf" stroke="black" points="109,-1 109,-69 261,-69 261,-1 109,-1"/>
<text text-anchor="start" x="117" y="-57" font-family="Helvetica,sans-Serif" font-size="10.00">o2::DataFormat::TPC</text>
<text text-anchor="middle" x="185" y="-46" font-family="Helvetica,sans-Serif" font-size="10.00">::ClusterNativeAccessFullTPC</text>
<polyline fill="none" stroke="black" points="109,-39 261,-39 "/>
<text text-anchor="middle" x="185" y="-27" font-family="Helvetica,sans-Serif" font-size="10.00"> </text>
<polyline fill="none" stroke="black" points="109,-20 261,-20 "/>
<text text-anchor="middle" x="185" y="-8" font-family="Helvetica,sans-Serif" font-size="10.00"> </text>
</g>
<!-- Node2 -->
<g id="node2" class="node"><title>Node2</title>
<g id="a_node2"><a xlink:href="../../da/dad/structo2_1_1DataFormat_1_1TPC_1_1ClusterNative.html" target="_top" xlink:title="{o2::DataFormat::TPC\l::ClusterNative\n||+ getFlags()\l+ getTimePacked()\l+ setTimePackedFlags()\l+ setTimePacked()\l+ setFlags()\l+ getTime()\l+ setTime()\l+ setTimeFlags()\l+ getPad()\l+ setPad()\l+ getSigmaTime2()\l+ setSigmaTime2()\l+ getSigmaPad2()\l+ setSigmaPad2()\l}">
<polygon fill="none" stroke="black" points="123,-118.5 123,-329.5 247,-329.5 247,-118.5 123,-118.5"/>
<text text-anchor="start" x="131" y="-317.5" font-family="Helvetica,sans-Serif" font-size="10.00">o2::DataFormat::TPC</text>
<text text-anchor="middle" x="185" y="-306.5" font-family="Helvetica,sans-Serif" font-size="10.00">::ClusterNative</text>
<polyline fill="none" stroke="black" points="123,-299.5 247,-299.5 "/>
<text text-anchor="middle" x="185" y="-287.5" font-family="Helvetica,sans-Serif" font-size="10.00"> </text>
<polyline fill="none" stroke="black" points="123,-280.5 247,-280.5 "/>
<text text-anchor="start" x="131" y="-268.5" font-family="Helvetica,sans-Serif" font-size="10.00">+ getFlags()</text>
<text text-anchor="start" x="131" y="-257.5" font-family="Helvetica,sans-Serif" font-size="10.00">+ getTimePacked()</text>
<text text-anchor="start" x="131" y="-246.5" font-family="Helvetica,sans-Serif" font-size="10.00">+ setTimePackedFlags()</text>
<text text-anchor="start" x="131" y="-235.5" font-family="Helvetica,sans-Serif" font-size="10.00">+ setTimePacked()</text>
<text text-anchor="start" x="131" y="-224.5" font-family="Helvetica,sans-Serif" font-size="10.00">+ setFlags()</text>
<text text-anchor="start" x="131" y="-213.5" font-family="Helvetica,sans-Serif" font-size="10.00">+ getTime()</text>
<text text-anchor="start" x="131" y="-202.5" font-family="Helvetica,sans-Serif" font-size="10.00">+ setTime()</text>
<text text-anchor="start" x="131" y="-191.5" font-family="Helvetica,sans-Serif" font-size="10.00">+ setTimeFlags()</text>
<text text-anchor="start" x="131" y="-180.5" font-family="Helvetica,sans-Serif" font-size="10.00">+ getPad()</text>
<text text-anchor="start" x="131" y="-169.5" font-family="Helvetica,sans-Serif" font-size="10.00">+ setPad()</text>
<text text-anchor="start" x="131" y="-158.5" font-family="Helvetica,sans-Serif" font-size="10.00">+ getSigmaTime2()</text>
<text text-anchor="start" x="131" y="-147.5" font-family="Helvetica,sans-Serif" font-size="10.00">+ setSigmaTime2()</text>
<text text-anchor="start" x="131" y="-136.5" font-family="Helvetica,sans-Serif" font-size="10.00">+ getSigmaPad2()</text>
<text text-anchor="start" x="131" y="-125.5" font-family="Helvetica,sans-Serif" font-size="10.00">+ setSigmaPad2()</text>
</a>
</g>
</g>
<!-- Node2&#45;&gt;Node1 -->
<g id="edge1" class="edge"><title>Node2&#45;&gt;Node1</title>
<path fill="none" stroke="#404040" d="M185,-118.293C185,-105.317 185,-92.6323 185,-81.2595"/>
<polygon fill="none" stroke="#404040" points="185,-81.0308 181,-75.0308 185,-69.0308 189,-75.0307 185,-81.0308"/>
<text text-anchor="middle" x="207" y="-91.5" font-family="Helvetica,sans-Serif" font-size="10.00"> +clusters</text>
</g>
<!-- Node3 -->
<g id="node3" class="node"><title>Node3</title>
<polygon fill="none" stroke="#bfbfbf" points="-0.5,-410.5 -0.5,-467.5 50.5,-467.5 50.5,-410.5 -0.5,-410.5"/>
<text text-anchor="middle" x="25" y="-455.5" font-family="Helvetica,sans-Serif" font-size="10.00">uint16_t</text>
<polyline fill="none" stroke="#bfbfbf" points="-0.5,-448.5 50.5,-448.5 "/>
<text text-anchor="middle" x="25" y="-436.5" font-family="Helvetica,sans-Serif" font-size="10.00"> </text>
<polyline fill="none" stroke="#bfbfbf" points="-0.5,-429.5 50.5,-429.5 "/>
<text text-anchor="middle" x="25" y="-417.5" font-family="Helvetica,sans-Serif" font-size="10.00"> </text>
</g>
<!-- Node3&#45;&gt;Node2 -->
<g id="edge2" class="edge"><title>Node3&#45;&gt;Node2</title>
<path fill="none" stroke="#404040" d="M25.1294,-410.377C26.3203,-391.675 30.1197,-367.007 41,-348 58.4572,-317.504 86.4361,-291.034 113.109,-270.542"/>
<polygon fill="none" stroke="#404040" points="113.239,-270.446 115.654,-263.651 122.855,-263.267 120.439,-270.062 113.239,-270.446"/>
<text text-anchor="middle" x="73.5" y="-378.5" font-family="Helvetica,sans-Serif" font-size="10.00"> +mQMax</text>
<text text-anchor="middle" x="73.5" y="-367.5" font-family="Helvetica,sans-Serif" font-size="10.00">+mQTot</text>
<text text-anchor="middle" x="73.5" y="-356.5" font-family="Helvetica,sans-Serif" font-size="10.00">+mPadPacked</text>
</g>
<!-- Node4 -->
<g id="node4" class="node"><title>Node4</title>
<g id="a_node4"><a xlink:href="../../d4/dc3/classfloat.html" target="_top" xlink:title="{float\n||}">
<polygon fill="none" stroke="black" points="95.5,-410.5 95.5,-467.5 130.5,-467.5 130.5,-410.5 95.5,-410.5"/>
<text text-anchor="middle" x="113" y="-455.5" font-family="Helvetica,sans-Serif" font-size="10.00">float</text>
<polyline fill="none" stroke="black" points="95.5,-448.5 130.5,-448.5 "/>
<text text-anchor="middle" x="113" y="-436.5" font-family="Helvetica,sans-Serif" font-size="10.00"> </text>
<polyline fill="none" stroke="black" points="95.5,-429.5 130.5,-429.5 "/>
<text text-anchor="middle" x="113" y="-417.5" font-family="Helvetica,sans-Serif" font-size="10.00"> </text>
</a>
</g>
</g>
<!-- Node4&#45;&gt;Node2 -->
<g id="edge3" class="edge"><title>Node4&#45;&gt;Node2</title>
<path fill="none" stroke="#404040" d="M109.725,-410.324C108.455,-392.261 108.428,-368.346 114,-348 115.264,-343.383 116.745,-338.759 118.403,-334.156"/>
<polygon fill="none" stroke="#404040" points="118.486,-333.944 116.95,-326.898 122.863,-322.771 124.399,-329.816 118.486,-333.944"/>
<text text-anchor="middle" x="175" y="-384" font-family="Helvetica,sans-Serif" font-size="10.00"> +mScaleTimePacked</text>
<text text-anchor="middle" x="175" y="-373" font-family="Helvetica,sans-Serif" font-size="10.00">+mScaleSigmaTimePacked</text>
<text text-anchor="middle" x="175" y="-362" font-family="Helvetica,sans-Serif" font-size="10.00">+mScaleSigmaPadPacked</text>
<text text-anchor="middle" x="175" y="-351" font-family="Helvetica,sans-Serif" font-size="10.00">+mScalePadPacked</text>
</g>
<!-- Node5 -->
<g id="node5" class="node"><title>Node5</title>
<polygon fill="none" stroke="#bfbfbf" points="232.5,-410.5 232.5,-467.5 283.5,-467.5 283.5,-410.5 232.5,-410.5"/>
<text text-anchor="middle" x="258" y="-455.5" font-family="Helvetica,sans-Serif" font-size="10.00">uint32_t</text>
<polyline fill="none" stroke="#bfbfbf" points="232.5,-448.5 283.5,-448.5 "/>
<text text-anchor="middle" x="258" y="-436.5" font-family="Helvetica,sans-Serif" font-size="10.00"> </text>
<polyline fill="none" stroke="#bfbfbf" points="232.5,-429.5 283.5,-429.5 "/>
<text text-anchor="middle" x="258" y="-417.5" font-family="Helvetica,sans-Serif" font-size="10.00"> </text>
</g>
<!-- Node5&#45;&gt;Node2 -->
<g id="edge4" class="edge"><title>Node5&#45;&gt;Node2</title>
<path fill="none" stroke="#404040" d="M252.342,-410.118C248.42,-392.183 242.706,-368.484 236,-348 235.258,-345.734 234.493,-343.452 233.709,-341.157"/>
<polygon fill="none" stroke="#404040" points="233.626,-340.923 227.858,-336.596 229.633,-329.607 235.402,-333.934 233.626,-340.923"/>
<text text-anchor="middle" x="297.5" y="-367.5" font-family="Helvetica,sans-Serif" font-size="10.00"> +mTimeFlagsPacked</text>
</g>
<!-- Node6 -->
<g id="node6" class="node"><title>Node6</title>
<polygon fill="none" stroke="#bfbfbf" points="355,-410.5 355,-467.5 401,-467.5 401,-410.5 355,-410.5"/>
<text text-anchor="middle" x="378" y="-455.5" font-family="Helvetica,sans-Serif" font-size="10.00">uint8_t</text>
<polyline fill="none" stroke="#bfbfbf" points="355,-448.5 401,-448.5 "/>
<text text-anchor="middle" x="378" y="-436.5" font-family="Helvetica,sans-Serif" font-size="10.00"> </text>
<polyline fill="none" stroke="#bfbfbf" points="355,-429.5 401,-429.5 "/>
<text text-anchor="middle" x="378" y="-417.5" font-family="Helvetica,sans-Serif" font-size="10.00"> </text>
</g>
<!-- Node6&#45;&gt;Node2 -->
<g id="edge5" class="edge"><title>Node6&#45;&gt;Node2</title>
<path fill="none" stroke="#404040" d="M374.034,-410.421C370.266,-391.504 363.14,-366.566 350,-348 326.066,-314.184 289.964,-285.768 257.626,-264.797"/>
<polygon fill="none" stroke="#404040" points="257.421,-264.667 250.211,-264.84 247.279,-258.252 254.488,-258.079 257.421,-264.667"/>
<text text-anchor="middle" x="420.5" y="-373" font-family="Helvetica,sans-Serif" font-size="10.00"> +mSigmaPad2Packed</text>
<text text-anchor="middle" x="420.5" y="-362" font-family="Helvetica,sans-Serif" font-size="10.00">+mSigmaTime2Packed</text>
</g>
</g>
</svg>
