<?xml version="1.0" encoding="UTF-8" standalone="no"?>
<!DOCTYPE svg PUBLIC "-//W3C//DTD SVG 1.1//EN"
 "http://www.w3.org/Graphics/SVG/1.1/DTD/svg11.dtd">
<!-- Generated by graphviz version 2.36.0 (20140111.2315)
 -->
<!-- Title: /home/travis/build/AliceO2Group/AliceO2/Detectors/ITSMFT/MFT/reconstruction/src/FindTracks.cxx Pages: 1 -->
<svg width="1683pt" height="446pt"
 viewBox="0.00 0.00 1683.00 446.00" xmlns="http://www.w3.org/2000/svg" xmlns:xlink="http://www.w3.org/1999/xlink">
<g id="graph0" class="graph" transform="scale(1 1) rotate(0) translate(4 442)">
<title>/home/travis/build/AliceO2Group/AliceO2/Detectors/ITSMFT/MFT/reconstruction/src/FindTracks.cxx</title>
<!-- Node1 -->
<g id="node1" class="node"><title>Node1</title>
<polygon fill="#bfbfbf" stroke="black" points="1211,-385 1211,-437 1379,-437 1379,-385 1211,-385"/>
<text text-anchor="start" x="1219" y="-425" font-family="Helvetica,sans-Serif" font-size="10.00">/home/travis/build</text>
<text text-anchor="start" x="1219" y="-414" font-family="Helvetica,sans-Serif" font-size="10.00">/AliceO2Group/AliceO2</text>
<text text-anchor="start" x="1219" y="-403" font-family="Helvetica,sans-Serif" font-size="10.00">/Detectors/ITSMFT/MFT</text>
<text text-anchor="middle" x="1295" y="-392" font-family="Helvetica,sans-Serif" font-size="10.00">/reconstruction/src/FindTracks.cxx</text>
</g>
<!-- Node2 -->
<g id="node2" class="node"><title>Node2</title>
<g id="a_node2"><a xlink:href="../../dc/de1/ITSMFT_2common_2reconstruction_2include_2ITSMFTReconstruction_2Cluster_8h.html" target="_top" xlink:title="ITSMFTReconstruction\l/Cluster.h">
<polygon fill="none" stroke="black" points="627.5,-317 627.5,-347 746.5,-347 746.5,-317 627.5,-317"/>
<text text-anchor="start" x="635.5" y="-335" font-family="Helvetica,sans-Serif" font-size="10.00">ITSMFTReconstruction</text>
<text text-anchor="middle" x="687" y="-324" font-family="Helvetica,sans-Serif" font-size="10.00">/Cluster.h</text>
</a>
</g>
</g>
<!-- Node1&#45;&gt;Node2 -->
<g id="edge1" class="edge"><title>Node1&#45;&gt;Node2</title>
<path fill="none" stroke="midnightblue" d="M1210.78,-399.334C1089.85,-384.019 869.239,-356.08 756.844,-341.845"/>
<polygon fill="midnightblue" stroke="midnightblue" points="757.001,-338.337 746.64,-340.553 756.121,-345.282 757.001,-338.337"/>
</g>
<!-- Node31 -->
<g id="node31" class="node"><title>Node31</title>
<g id="a_node31"><a xlink:href="../../d5/d61/EventHeader_8h.html" target="_top" xlink:title="MFTSimulation/EventHeader.h">
<polygon fill="none" stroke="black" points="816.5,-322.5 816.5,-341.5 967.5,-341.5 967.5,-322.5 816.5,-322.5"/>
<text text-anchor="middle" x="892" y="-329.5" font-family="Helvetica,sans-Serif" font-size="10.00">MFTSimulation/EventHeader.h</text>
</a>
</g>
</g>
<!-- Node1&#45;&gt;Node31 -->
<g id="edge36" class="edge"><title>Node1&#45;&gt;Node31</title>
<path fill="none" stroke="midnightblue" d="M1210.52,-393.858C1131.16,-378.695 1014.73,-356.45 946.82,-343.474"/>
<polygon fill="midnightblue" stroke="midnightblue" points="947.236,-339.99 936.756,-341.551 945.922,-346.866 947.236,-339.99"/>
</g>
<!-- Node35 -->
<g id="node35" class="node"><title>Node35</title>
<g id="a_node35"><a xlink:href="../../d5/d03/Detectors_2ITSMFT_2MFT_2reconstruction_2include_2MFTReconstruction_2Track_8h.html" target="_top" xlink:title="MFTReconstruction/Track.h">
<polygon fill="none" stroke="black" points="985.5,-322.5 985.5,-341.5 1124.5,-341.5 1124.5,-322.5 985.5,-322.5"/>
<text text-anchor="middle" x="1055" y="-329.5" font-family="Helvetica,sans-Serif" font-size="10.00">MFTReconstruction/Track.h</text>
</a>
</g>
</g>
<!-- Node1&#45;&gt;Node35 -->
<g id="edge40" class="edge"><title>Node1&#45;&gt;Node35</title>
<path fill="none" stroke="midnightblue" d="M1216.75,-384.894C1174.6,-371.371 1124.6,-355.33 1091.47,-344.699"/>
<polygon fill="midnightblue" stroke="midnightblue" points="1092.34,-341.305 1081.75,-341.583 1090.2,-347.97 1092.34,-341.305"/>
</g>
<!-- Node37 -->
<g id="node37" class="node"><title>Node37</title>
<g id="a_node37"><a xlink:href="../../dc/d68/FindTracks_8h.html" target="_top" xlink:title="Simple track finding from the hits. ">
<polygon fill="none" stroke="black" points="1142.5,-322.5 1142.5,-341.5 1305.5,-341.5 1305.5,-322.5 1142.5,-322.5"/>
<text text-anchor="middle" x="1224" y="-329.5" font-family="Helvetica,sans-Serif" font-size="10.00">MFTReconstruction/FindTracks.h</text>
</a>
</g>
</g>
<!-- Node1&#45;&gt;Node37 -->
<g id="edge42" class="edge"><title>Node1&#45;&gt;Node37</title>
<path fill="none" stroke="midnightblue" d="M1271.75,-384.787C1260.9,-373.02 1248.31,-359.366 1238.78,-349.033"/>
<polygon fill="midnightblue" stroke="midnightblue" points="1241.24,-346.537 1231.89,-341.558 1236.1,-351.282 1241.24,-346.537"/>
</g>
<!-- Node39 -->
<g id="node39" class="node"><title>Node39</title>
<polygon fill="none" stroke="#bfbfbf" points="1323.5,-322.5 1323.5,-341.5 1408.5,-341.5 1408.5,-322.5 1323.5,-322.5"/>
<text text-anchor="middle" x="1366" y="-329.5" font-family="Helvetica,sans-Serif" font-size="10.00">TClonesArray.h</text>
</g>
<!-- Node1&#45;&gt;Node39 -->
<g id="edge44" class="edge"><title>Node1&#45;&gt;Node39</title>
<path fill="none" stroke="midnightblue" d="M1318.25,-384.787C1329.1,-373.02 1341.69,-359.366 1351.22,-349.033"/>
<polygon fill="midnightblue" stroke="midnightblue" points="1353.9,-351.282 1358.11,-341.558 1348.76,-346.537 1353.9,-351.282"/>
</g>
<!-- Node40 -->
<g id="node40" class="node"><title>Node40</title>
<polygon fill="none" stroke="#bfbfbf" points="1427,-322.5 1427,-341.5 1469,-341.5 1469,-322.5 1427,-322.5"/>
<text text-anchor="middle" x="1448" y="-329.5" font-family="Helvetica,sans-Serif" font-size="10.00">TF1.h</text>
</g>
<!-- Node1&#45;&gt;Node40 -->
<g id="edge45" class="edge"><title>Node1&#45;&gt;Node40</title>
<path fill="none" stroke="midnightblue" d="M1345.1,-384.787C1370.79,-371.855 1401.02,-356.644 1422.04,-346.067"/>
<polygon fill="midnightblue" stroke="midnightblue" points="1423.64,-349.18 1431,-341.558 1420.49,-342.927 1423.64,-349.18"/>
</g>
<!-- Node41 -->
<g id="node41" class="node"><title>Node41</title>
<polygon fill="none" stroke="#bfbfbf" points="1487.5,-322.5 1487.5,-341.5 1570.5,-341.5 1570.5,-322.5 1487.5,-322.5"/>
<text text-anchor="middle" x="1529" y="-329.5" font-family="Helvetica,sans-Serif" font-size="10.00">TGraphErrors.h</text>
</g>
<!-- Node1&#45;&gt;Node41 -->
<g id="edge46" class="edge"><title>Node1&#45;&gt;Node41</title>
<path fill="none" stroke="midnightblue" d="M1371.3,-384.894C1412.21,-371.429 1460.72,-355.468 1493.03,-344.837"/>
<polygon fill="midnightblue" stroke="midnightblue" points="1494.51,-348.033 1502.92,-341.583 1492.32,-341.384 1494.51,-348.033"/>
</g>
<!-- Node42 -->
<g id="node42" class="node"><title>Node42</title>
<polygon fill="none" stroke="#bfbfbf" points="1589,-322.5 1589,-341.5 1675,-341.5 1675,-322.5 1589,-322.5"/>
<text text-anchor="middle" x="1632" y="-329.5" font-family="Helvetica,sans-Serif" font-size="10.00">FairMQLogger.h</text>
</g>
<!-- Node1&#45;&gt;Node42 -->
<g id="edge47" class="edge"><title>Node1&#45;&gt;Node42</title>
<path fill="none" stroke="midnightblue" d="M1379.19,-393.022C1435.87,-381.25 1512.18,-364.734 1579,-348 1583.63,-346.841 1588.46,-345.565 1593.25,-344.26"/>
<polygon fill="midnightblue" stroke="midnightblue" points="1594.23,-347.621 1602.93,-341.572 1592.35,-340.877 1594.23,-347.621"/>
</g>
<!-- Node3 -->
<g id="node3" class="node"><title>Node3</title>
<g id="a_node3"><a xlink:href="../../d4/de2/BaseCluster_8h.html" target="_top" xlink:title="DetectorsBase/BaseCluster.h">
<polygon fill="none" stroke="black" points="562.5,-254.5 562.5,-273.5 709.5,-273.5 709.5,-254.5 562.5,-254.5"/>
<text text-anchor="middle" x="636" y="-261.5" font-family="Helvetica,sans-Serif" font-size="10.00">DetectorsBase/BaseCluster.h</text>
</a>
</g>
</g>
<!-- Node2&#45;&gt;Node3 -->
<g id="edge2" class="edge"><title>Node2&#45;&gt;Node3</title>
<path fill="none" stroke="midnightblue" d="M675.934,-316.679C668.06,-306.49 657.45,-292.759 649.145,-282.011"/>
<polygon fill="midnightblue" stroke="midnightblue" points="651.706,-279.601 642.822,-273.828 646.167,-283.881 651.706,-279.601"/>
</g>
<!-- Node4 -->
<g id="node4" class="node"><title>Node4</title>
<polygon fill="none" stroke="#bfbfbf" points="416.5,-192.5 416.5,-211.5 475.5,-211.5 475.5,-192.5 416.5,-192.5"/>
<text text-anchor="middle" x="446" y="-199.5" font-family="Helvetica,sans-Serif" font-size="10.00">TObject.h</text>
</g>
<!-- Node3&#45;&gt;Node4 -->
<g id="edge3" class="edge"><title>Node3&#45;&gt;Node4</title>
<path fill="none" stroke="midnightblue" d="M608.778,-254.403C575.763,-243.978 519.96,-226.356 483.047,-214.699"/>
<polygon fill="midnightblue" stroke="midnightblue" points="483.762,-211.254 473.172,-211.581 481.654,-217.93 483.762,-211.254"/>
</g>
<!-- Node5 -->
<g id="node5" class="node"><title>Node5</title>
<polygon fill="none" stroke="#bfbfbf" points="493.5,-192.5 493.5,-211.5 534.5,-211.5 534.5,-192.5 493.5,-192.5"/>
<text text-anchor="middle" x="514" y="-199.5" font-family="Helvetica,sans-Serif" font-size="10.00">bitset</text>
</g>
<!-- Node3&#45;&gt;Node5 -->
<g id="edge4" class="edge"><title>Node3&#45;&gt;Node5</title>
<path fill="none" stroke="midnightblue" d="M618.52,-254.403C598.137,-244.379 564.225,-227.701 540.575,-216.07"/>
<polygon fill="midnightblue" stroke="midnightblue" points="541.965,-212.853 531.447,-211.581 538.876,-219.135 541.965,-212.853"/>
</g>
<!-- Node6 -->
<g id="node6" class="node"><title>Node6</title>
<polygon fill="none" stroke="#bfbfbf" points="553,-192.5 553,-211.5 603,-211.5 603,-192.5 553,-192.5"/>
<text text-anchor="middle" x="578" y="-199.5" font-family="Helvetica,sans-Serif" font-size="10.00">iomanip</text>
</g>
<!-- Node3&#45;&gt;Node6 -->
<g id="edge5" class="edge"><title>Node3&#45;&gt;Node6</title>
<path fill="none" stroke="midnightblue" d="M627.69,-254.403C618.732,-245.136 604.277,-230.183 593.261,-218.788"/>
<polygon fill="midnightblue" stroke="midnightblue" points="595.761,-216.338 586.295,-211.581 590.728,-221.203 595.761,-216.338"/>
</g>
<!-- Node7 -->
<g id="node7" class="node"><title>Node7</title>
<polygon fill="none" stroke="#bfbfbf" points="621.5,-192.5 621.5,-211.5 650.5,-211.5 650.5,-192.5 621.5,-192.5"/>
<text text-anchor="middle" x="636" y="-199.5" font-family="Helvetica,sans-Serif" font-size="10.00">ios</text>
</g>
<!-- Node3&#45;&gt;Node7 -->
<g id="edge6" class="edge"><title>Node3&#45;&gt;Node7</title>
<path fill="none" stroke="midnightblue" d="M636,-254.403C636,-245.938 636,-232.728 636,-221.82"/>
<polygon fill="midnightblue" stroke="midnightblue" points="639.5,-221.581 636,-211.581 632.5,-221.581 639.5,-221.581"/>
</g>
<!-- Node8 -->
<g id="node8" class="node"><title>Node8</title>
<polygon fill="none" stroke="#bfbfbf" points="31,-74.5 31,-93.5 85,-93.5 85,-74.5 31,-74.5"/>
<text text-anchor="middle" x="58" y="-81.5" font-family="Helvetica,sans-Serif" font-size="10.00">iostream</text>
</g>
<!-- Node3&#45;&gt;Node8 -->
<g id="edge7" class="edge"><title>Node3&#45;&gt;Node8</title>
<path fill="none" stroke="midnightblue" d="M643.72,-254.096C655.396,-239.521 674.612,-210.36 659,-192 576.594,-95.0905 216.322,-134.923 94,-100 91.3449,-99.242 88.6221,-98.3448 85.9206,-97.372"/>
<polygon fill="midnightblue" stroke="midnightblue" points="86.9762,-94.0265 76.3887,-93.6315 84.419,-100.543 86.9762,-94.0265"/>
</g>
<!-- Node9 -->
<g id="node9" class="node"><title>Node9</title>
<g id="a_node9"><a xlink:href="../../dd/d76/Cartesian3D_8h.html" target="_top" xlink:title="MathUtils/Cartesian3D.h">
<polygon fill="none" stroke="black" points="707.5,-136.5 707.5,-155.5 832.5,-155.5 832.5,-136.5 707.5,-136.5"/>
<text text-anchor="middle" x="770" y="-143.5" font-family="Helvetica,sans-Serif" font-size="10.00">MathUtils/Cartesian3D.h</text>
</a>
</g>
</g>
<!-- Node3&#45;&gt;Node9 -->
<g id="edge8" class="edge"><title>Node3&#45;&gt;Node9</title>
<path fill="none" stroke="midnightblue" d="M646.072,-254.281C668.785,-234.619 724.221,-186.63 752.615,-162.05"/>
<polygon fill="midnightblue" stroke="midnightblue" points="754.906,-164.696 760.176,-155.505 750.324,-159.404 754.906,-164.696"/>
</g>
<!-- Node20 -->
<g id="node20" class="node"><title>Node20</title>
<g id="a_node20"><a xlink:href="../../d4/d20/DetMatrixCache_8h.html" target="_top" xlink:title="DetectorsBase/DetMatrixCache.h">
<polygon fill="none" stroke="black" points="1219,-192.5 1219,-211.5 1383,-211.5 1383,-192.5 1219,-192.5"/>
<text text-anchor="middle" x="1301" y="-199.5" font-family="Helvetica,sans-Serif" font-size="10.00">DetectorsBase/DetMatrixCache.h</text>
</a>
</g>
</g>
<!-- Node3&#45;&gt;Node20 -->
<g id="edge20" class="edge"><title>Node3&#45;&gt;Node20</title>
<path fill="none" stroke="midnightblue" d="M678.522,-254.458C691.476,-252.088 705.784,-249.701 719,-248 891.21,-225.839 1093.59,-213.185 1208.63,-207.239"/>
<polygon fill="midnightblue" stroke="midnightblue" points="1209,-210.725 1218.8,-206.719 1208.64,-203.734 1209,-210.725"/>
</g>
<!-- Node9&#45;&gt;Node8 -->
<g id="edge19" class="edge"><title>Node9&#45;&gt;Node8</title>
<path fill="none" stroke="midnightblue" d="M707.415,-137.386C702.541,-136.885 697.692,-136.415 693,-136 427.334,-112.51 353.836,-160.129 94,-100 90.9326,-99.2902 87.7918,-98.3433 84.7054,-97.2689"/>
<polygon fill="midnightblue" stroke="midnightblue" points="85.7759,-93.9293 75.1883,-93.5366 83.2201,-100.446 85.7759,-93.9293"/>
</g>
<!-- Node10 -->
<g id="node10" class="node"><title>Node10</title>
<polygon fill="none" stroke="#bfbfbf" points="609.5,-74.5 609.5,-93.5 758.5,-93.5 758.5,-74.5 609.5,-74.5"/>
<text text-anchor="middle" x="684" y="-81.5" font-family="Helvetica,sans-Serif" font-size="10.00">Math/GenVector/Rotation3D.h</text>
</g>
<!-- Node9&#45;&gt;Node10 -->
<g id="edge9" class="edge"><title>Node9&#45;&gt;Node10</title>
<path fill="none" stroke="midnightblue" d="M757.678,-136.403C743.884,-126.78 721.301,-111.024 704.768,-99.4891"/>
<polygon fill="midnightblue" stroke="midnightblue" points="706.503,-96.432 696.299,-93.5806 702.497,-102.173 706.503,-96.432"/>
</g>
<!-- Node11 -->
<g id="node11" class="node"><title>Node11</title>
<polygon fill="none" stroke="#bfbfbf" points="777,-74.5 777,-93.5 933,-93.5 933,-74.5 777,-74.5"/>
<text text-anchor="middle" x="855" y="-81.5" font-family="Helvetica,sans-Serif" font-size="10.00">Math/GenVector/Transform3D.h</text>
</g>
<!-- Node9&#45;&gt;Node11 -->
<g id="edge10" class="edge"><title>Node9&#45;&gt;Node11</title>
<path fill="none" stroke="midnightblue" d="M782.178,-136.403C795.812,-126.78 818.132,-111.024 834.474,-99.4891"/>
<polygon fill="midnightblue" stroke="midnightblue" points="836.693,-102.207 842.844,-93.5806 832.656,-96.4881 836.693,-102.207"/>
</g>
<!-- Node12 -->
<g id="node12" class="node"><title>Node12</title>
<polygon fill="none" stroke="#bfbfbf" points="951,-74.5 951,-93.5 1111,-93.5 1111,-74.5 951,-74.5"/>
<text text-anchor="middle" x="1031" y="-81.5" font-family="Helvetica,sans-Serif" font-size="10.00">Math/GenVector/Translation3D.h</text>
</g>
<!-- Node9&#45;&gt;Node12 -->
<g id="edge11" class="edge"><title>Node9&#45;&gt;Node12</title>
<path fill="none" stroke="midnightblue" d="M807.118,-136.467C853.596,-125.783 933.261,-107.469 983.964,-95.8129"/>
<polygon fill="midnightblue" stroke="midnightblue" points="985.049,-99.1549 994.01,-93.5034 983.48,-92.3328 985.049,-99.1549"/>
</g>
<!-- Node13 -->
<g id="node13" class="node"><title>Node13</title>
<polygon fill="none" stroke="#bfbfbf" points="1223,-74.5 1223,-93.5 1279,-93.5 1279,-74.5 1223,-74.5"/>
<text text-anchor="middle" x="1251" y="-81.5" font-family="Helvetica,sans-Serif" font-size="10.00">Rtypes.h</text>
</g>
<!-- Node9&#45;&gt;Node13 -->
<g id="edge12" class="edge"><title>Node9&#45;&gt;Node13</title>
<path fill="none" stroke="midnightblue" d="M832.724,-144.219C919.598,-141.884 1080.9,-133.008 1214,-100 1217.06,-99.2404 1220.21,-98.2765 1223.31,-97.205"/>
<polygon fill="midnightblue" stroke="midnightblue" points="1224.81,-100.377 1232.9,-93.534 1222.31,-93.8391 1224.81,-100.377"/>
</g>
<!-- Node14 -->
<g id="node14" class="node"><title>Node14</title>
<polygon fill="none" stroke="#bfbfbf" points="1129,-74.5 1129,-93.5 1205,-93.5 1205,-74.5 1129,-74.5"/>
<text text-anchor="middle" x="1167" y="-81.5" font-family="Helvetica,sans-Serif" font-size="10.00">TGeoMatrix.h</text>
</g>
<!-- Node9&#45;&gt;Node14 -->
<g id="edge13" class="edge"><title>Node9&#45;&gt;Node14</title>
<path fill="none" stroke="midnightblue" d="M832.547,-140.395C903.027,-134.414 1020.72,-122.035 1120,-100 1124.23,-99.0605 1128.63,-97.906 1132.96,-96.6582"/>
<polygon fill="midnightblue" stroke="midnightblue" points="1134.3,-99.9091 1142.84,-93.6349 1132.25,-93.2157 1134.3,-99.9091"/>
</g>
<!-- Node15 -->
<g id="node15" class="node"><title>Node15</title>
<polygon fill="none" stroke="#bfbfbf" points="246.5,-69 246.5,-99 397.5,-99 397.5,-69 246.5,-69"/>
<text text-anchor="start" x="254.5" y="-87" font-family="Helvetica,sans-Serif" font-size="10.00">Math/GenVector/Displacement</text>
<text text-anchor="middle" x="322" y="-76" font-family="Helvetica,sans-Serif" font-size="10.00">Vector3D.h</text>
</g>
<!-- Node9&#45;&gt;Node15 -->
<g id="edge14" class="edge"><title>Node9&#45;&gt;Node15</title>
<path fill="none" stroke="midnightblue" d="M707.227,-137.613C623.452,-127.69 478.415,-110.269 407.782,-100.048"/>
<polygon fill="midnightblue" stroke="midnightblue" points="407.915,-96.5297 397.511,-98.5328 406.893,-103.455 407.915,-96.5297"/>
</g>
<!-- Node16 -->
<g id="node16" class="node"><title>Node16</title>
<polygon fill="none" stroke="#bfbfbf" points="416,-74.5 416,-93.5 592,-93.5 592,-74.5 416,-74.5"/>
<text text-anchor="middle" x="504" y="-81.5" font-family="Helvetica,sans-Serif" font-size="10.00">Math/GenVector/PositionVector3D.h</text>
</g>
<!-- Node9&#45;&gt;Node16 -->
<g id="edge15" class="edge"><title>Node9&#45;&gt;Node16</title>
<path fill="none" stroke="midnightblue" d="M732.171,-136.467C684.704,-125.76 603.272,-107.392 551.614,-95.74"/>
<polygon fill="midnightblue" stroke="midnightblue" points="552.223,-92.2896 541.698,-93.5034 550.683,-99.118 552.223,-92.2896"/>
</g>
<!-- Node17 -->
<g id="node17" class="node"><title>Node17</title>
<g id="a_node17"><a xlink:href="../../d2/dd0/Cartesian2D_8h.html" target="_top" xlink:title="MathUtils/Cartesian2D.h">
<polygon fill="none" stroke="black" points="103.5,-74.5 103.5,-93.5 228.5,-93.5 228.5,-74.5 103.5,-74.5"/>
<text text-anchor="middle" x="166" y="-81.5" font-family="Helvetica,sans-Serif" font-size="10.00">MathUtils/Cartesian2D.h</text>
</a>
</g>
</g>
<!-- Node9&#45;&gt;Node17 -->
<g id="edge16" class="edge"><title>Node9&#45;&gt;Node17</title>
<path fill="none" stroke="midnightblue" d="M707.406,-137.485C702.534,-136.961 697.688,-136.459 693,-136 490.67,-116.196 438.208,-129.072 237,-100 228.845,-98.8216 220.222,-97.2662 211.903,-95.6034"/>
<polygon fill="midnightblue" stroke="midnightblue" points="212.461,-92.1447 201.958,-93.5399 211.038,-98.9987 212.461,-92.1447"/>
</g>
<!-- Node18 -->
<g id="node18" class="node"><title>Node18</title>
<polygon fill="none" stroke="#bfbfbf" points="-0.5,-1 -0.5,-31 150.5,-31 150.5,-1 -0.5,-1"/>
<text text-anchor="start" x="7.5" y="-19" font-family="Helvetica,sans-Serif" font-size="10.00">Math/GenVector/Displacement</text>
<text text-anchor="middle" x="75" y="-8" font-family="Helvetica,sans-Serif" font-size="10.00">Vector2D.h</text>
</g>
<!-- Node17&#45;&gt;Node18 -->
<g id="edge17" class="edge"><title>Node17&#45;&gt;Node18</title>
<path fill="none" stroke="midnightblue" d="M154.103,-74.3717C141.221,-65.0286 120.22,-49.7966 103.093,-37.375"/>
<polygon fill="midnightblue" stroke="midnightblue" points="104.703,-34.2194 94.5532,-31.1815 100.593,-39.8859 104.703,-34.2194"/>
</g>
<!-- Node19 -->
<g id="node19" class="node"><title>Node19</title>
<polygon fill="none" stroke="#bfbfbf" points="169,-6.5 169,-25.5 345,-25.5 345,-6.5 169,-6.5"/>
<text text-anchor="middle" x="257" y="-13.5" font-family="Helvetica,sans-Serif" font-size="10.00">Math/GenVector/PositionVector2D.h</text>
</g>
<!-- Node17&#45;&gt;Node19 -->
<g id="edge18" class="edge"><title>Node17&#45;&gt;Node19</title>
<path fill="none" stroke="midnightblue" d="M177.897,-74.3717C192.884,-63.5015 218.862,-44.6602 236.942,-31.5474"/>
<polygon fill="midnightblue" stroke="midnightblue" points="239.06,-34.3349 245.1,-25.6305 234.95,-28.6684 239.06,-34.3349"/>
</g>
<!-- Node20&#45;&gt;Node9 -->
<g id="edge23" class="edge"><title>Node20&#45;&gt;Node9</title>
<path fill="none" stroke="midnightblue" d="M1218.9,-192.651C1116,-182.186 941.21,-164.411 842.847,-154.408"/>
<polygon fill="midnightblue" stroke="midnightblue" points="843.001,-150.906 832.698,-153.376 842.292,-157.87 843.001,-150.906"/>
</g>
<!-- Node20&#45;&gt;Node13 -->
<g id="edge34" class="edge"><title>Node20&#45;&gt;Node13</title>
<path fill="none" stroke="midnightblue" d="M1293.61,-192.249C1286.62,-183.562 1276.28,-169.61 1270,-156 1262.16,-139.012 1257.07,-118.193 1254.15,-103.504"/>
<polygon fill="midnightblue" stroke="midnightblue" points="1257.58,-102.831 1252.33,-93.6306 1250.7,-104.099 1257.58,-102.831"/>
</g>
<!-- Node21 -->
<g id="node21" class="node"><title>Node21</title>
<polygon fill="none" stroke="#bfbfbf" points="1279,-136.5 1279,-155.5 1323,-155.5 1323,-136.5 1279,-136.5"/>
<text text-anchor="middle" x="1301" y="-143.5" font-family="Helvetica,sans-Serif" font-size="10.00">vector</text>
</g>
<!-- Node20&#45;&gt;Node21 -->
<g id="edge21" class="edge"><title>Node20&#45;&gt;Node21</title>
<path fill="none" stroke="midnightblue" d="M1301,-192.083C1301,-185.006 1301,-174.861 1301,-165.986"/>
<polygon fill="midnightblue" stroke="midnightblue" points="1304.5,-165.751 1301,-155.751 1297.5,-165.751 1304.5,-165.751"/>
</g>
<!-- Node22 -->
<g id="node22" class="node"><title>Node22</title>
<polygon fill="none" stroke="#bfbfbf" points="1631,-6.5 1631,-25.5 1669,-25.5 1669,-6.5 1631,-6.5"/>
<text text-anchor="middle" x="1650" y="-13.5" font-family="Helvetica,sans-Serif" font-size="10.00">array</text>
</g>
<!-- Node20&#45;&gt;Node22 -->
<g id="edge22" class="edge"><title>Node20&#45;&gt;Node22</title>
<path fill="none" stroke="midnightblue" d="M1383.11,-194.207C1434.56,-188.117 1501.58,-176.788 1558,-156 1603.99,-139.056 1628.69,-142.556 1653,-100 1664.31,-80.1972 1660.5,-53.1798 1655.94,-35.4228"/>
<polygon fill="midnightblue" stroke="midnightblue" points="1659.27,-34.3428 1653.12,-25.7105 1652.54,-36.2894 1659.27,-34.3428"/>
</g>
<!-- Node23 -->
<g id="node23" class="node"><title>Node23</title>
<g id="a_node23"><a xlink:href="../../d6/d31/DetID_8h.html" target="_top" xlink:title="DetectorsBase/DetID.h">
<polygon fill="none" stroke="black" points="1341.5,-136.5 1341.5,-155.5 1460.5,-155.5 1460.5,-136.5 1341.5,-136.5"/>
<text text-anchor="middle" x="1401" y="-143.5" font-family="Helvetica,sans-Serif" font-size="10.00">DetectorsBase/DetID.h</text>
</a>
</g>
</g>
<!-- Node20&#45;&gt;Node23 -->
<g id="edge24" class="edge"><title>Node20&#45;&gt;Node23</title>
<path fill="none" stroke="midnightblue" d="M1317.07,-192.324C1332.96,-183.743 1357.51,-170.486 1375.96,-160.522"/>
<polygon fill="midnightblue" stroke="midnightblue" points="1377.84,-163.486 1384.97,-155.655 1374.51,-157.326 1377.84,-163.486"/>
</g>
<!-- Node30 -->
<g id="node30" class="node"><title>Node30</title>
<polygon fill="none" stroke="#bfbfbf" points="1478.5,-136.5 1478.5,-155.5 1549.5,-155.5 1549.5,-136.5 1478.5,-136.5"/>
<text text-anchor="middle" x="1514" y="-143.5" font-family="Helvetica,sans-Serif" font-size="10.00">FairLogger.h</text>
</g>
<!-- Node20&#45;&gt;Node30 -->
<g id="edge35" class="edge"><title>Node20&#45;&gt;Node30</title>
<path fill="none" stroke="midnightblue" d="M1334.75,-192.444C1371.52,-183.122 1430.45,-168.183 1470.62,-157.997"/>
<polygon fill="midnightblue" stroke="midnightblue" points="1471.57,-161.367 1480.41,-155.516 1469.85,-154.581 1471.57,-161.367"/>
</g>
<!-- Node23&#45;&gt;Node13 -->
<g id="edge28" class="edge"><title>Node23&#45;&gt;Node13</title>
<path fill="none" stroke="midnightblue" d="M1379.32,-136.413C1356.56,-127.387 1319.74,-112.754 1288,-100 1285.91,-99.1601 1283.75,-98.2917 1281.58,-97.4156"/>
<polygon fill="midnightblue" stroke="midnightblue" points="1282.71,-94.0943 1272.12,-93.5894 1280.08,-100.584 1282.71,-94.0943"/>
</g>
<!-- Node23&#45;&gt;Node22 -->
<g id="edge26" class="edge"><title>Node23&#45;&gt;Node22</title>
<path fill="none" stroke="midnightblue" d="M1460.64,-136.751C1524.64,-127.368 1618.8,-111.819 1631,-100 1648.14,-83.3984 1651.22,-54.7347 1651.15,-35.8199"/>
<polygon fill="midnightblue" stroke="midnightblue" points="1654.65,-35.6148 1650.82,-25.7359 1647.65,-35.8461 1654.65,-35.6148"/>
</g>
<!-- Node24 -->
<g id="node24" class="node"><title>Node24</title>
<polygon fill="none" stroke="#bfbfbf" points="1576,-74.5 1576,-93.5 1622,-93.5 1622,-74.5 1576,-74.5"/>
<text text-anchor="middle" x="1599" y="-81.5" font-family="Helvetica,sans-Serif" font-size="10.00">cstdint</text>
</g>
<!-- Node23&#45;&gt;Node24 -->
<g id="edge25" class="edge"><title>Node23&#45;&gt;Node24</title>
<path fill="none" stroke="midnightblue" d="M1438.89,-136.499C1472.68,-128.486 1523.27,-115.425 1566,-100 1567.91,-99.3109 1569.86,-98.5573 1571.81,-97.7665"/>
<polygon fill="midnightblue" stroke="midnightblue" points="1573.61,-100.803 1581.4,-93.6277 1570.84,-94.3764 1573.61,-100.803"/>
</g>
<!-- Node25 -->
<g id="node25" class="node"><title>Node25</title>
<polygon fill="none" stroke="#bfbfbf" points="1297,-74.5 1297,-93.5 1359,-93.5 1359,-74.5 1297,-74.5"/>
<text text-anchor="middle" x="1328" y="-81.5" font-family="Helvetica,sans-Serif" font-size="10.00">type_traits</text>
</g>
<!-- Node23&#45;&gt;Node25 -->
<g id="edge27" class="edge"><title>Node23&#45;&gt;Node25</title>
<path fill="none" stroke="midnightblue" d="M1390.54,-136.403C1379.05,-126.958 1360.37,-111.606 1346.41,-100.134"/>
<polygon fill="midnightblue" stroke="midnightblue" points="1348.39,-97.2264 1338.44,-93.5806 1343.94,-102.634 1348.39,-97.2264"/>
</g>
<!-- Node26 -->
<g id="node26" class="node"><title>Node26</title>
<g id="a_node26"><a xlink:href="../../d9/ded/Utils_8h.html" target="_top" xlink:title="DetectorsBase/Utils.h">
<polygon fill="none" stroke="black" points="1444.5,-74.5 1444.5,-93.5 1557.5,-93.5 1557.5,-74.5 1444.5,-74.5"/>
<text text-anchor="middle" x="1501" y="-81.5" font-family="Helvetica,sans-Serif" font-size="10.00">DetectorsBase/Utils.h</text>
</a>
</g>
</g>
<!-- Node23&#45;&gt;Node26 -->
<g id="edge29" class="edge"><title>Node23&#45;&gt;Node26</title>
<path fill="none" stroke="midnightblue" d="M1415.33,-136.403C1431.66,-126.601 1458.6,-110.439 1477.91,-98.8526"/>
<polygon fill="midnightblue" stroke="midnightblue" points="1479.92,-101.727 1486.7,-93.5806 1476.32,-95.7244 1479.92,-101.727"/>
</g>
<!-- Node29 -->
<g id="node29" class="node"><title>Node29</title>
<polygon fill="none" stroke="#bfbfbf" points="1377.5,-74.5 1377.5,-93.5 1426.5,-93.5 1426.5,-74.5 1377.5,-74.5"/>
<text text-anchor="middle" x="1402" y="-81.5" font-family="Helvetica,sans-Serif" font-size="10.00">cassert</text>
</g>
<!-- Node23&#45;&gt;Node29 -->
<g id="edge33" class="edge"><title>Node23&#45;&gt;Node29</title>
<path fill="none" stroke="midnightblue" d="M1401.14,-136.403C1401.28,-127.938 1401.5,-114.728 1401.69,-103.82"/>
<polygon fill="midnightblue" stroke="midnightblue" points="1405.19,-103.638 1401.86,-93.5806 1398.19,-103.521 1405.19,-103.638"/>
</g>
<!-- Node26&#45;&gt;Node22 -->
<g id="edge32" class="edge"><title>Node26&#45;&gt;Node22</title>
<path fill="none" stroke="midnightblue" d="M1520.48,-74.3717C1546.28,-62.9447 1591.96,-42.7088 1621.6,-29.5791"/>
<polygon fill="midnightblue" stroke="midnightblue" points="1623.26,-32.672 1630.99,-25.4218 1620.43,-26.2717 1623.26,-32.672"/>
</g>
<!-- Node27 -->
<g id="node27" class="node"><title>Node27</title>
<g id="a_node27"><a xlink:href="../../d1/daa/Base_2include_2DetectorsBase_2Constants_8h.html" target="_top" xlink:title="DetectorsBase/Constants.h">
<polygon fill="none" stroke="black" points="1368,-6.5 1368,-25.5 1506,-25.5 1506,-6.5 1368,-6.5"/>
<text text-anchor="middle" x="1437" y="-13.5" font-family="Helvetica,sans-Serif" font-size="10.00">DetectorsBase/Constants.h</text>
</a>
</g>
</g>
<!-- Node26&#45;&gt;Node27 -->
<g id="edge30" class="edge"><title>Node26&#45;&gt;Node27</title>
<path fill="none" stroke="midnightblue" d="M1492.63,-74.3717C1482.53,-63.9547 1465.33,-46.2173 1452.72,-33.2162"/>
<polygon fill="midnightblue" stroke="midnightblue" points="1455.05,-30.5836 1445.57,-25.8411 1450.02,-35.4567 1455.05,-30.5836"/>
</g>
<!-- Node28 -->
<g id="node28" class="node"><title>Node28</title>
<polygon fill="none" stroke="#bfbfbf" points="1524,-6.5 1524,-25.5 1568,-25.5 1568,-6.5 1524,-6.5"/>
<text text-anchor="middle" x="1546" y="-13.5" font-family="Helvetica,sans-Serif" font-size="10.00">cmath</text>
</g>
<!-- Node26&#45;&gt;Node28 -->
<g id="edge31" class="edge"><title>Node26&#45;&gt;Node28</title>
<path fill="none" stroke="midnightblue" d="M1506.88,-74.3717C1513.78,-64.2495 1525.4,-47.2154 1534.18,-34.3312"/>
<polygon fill="midnightblue" stroke="midnightblue" points="1537.23,-36.0751 1539.97,-25.8411 1531.45,-32.1317 1537.23,-36.0751"/>
</g>
<!-- Node32 -->
<g id="node32" class="node"><title>Node32</title>
<polygon fill="none" stroke="#bfbfbf" points="728,-254.5 728,-273.5 826,-273.5 826,-254.5 728,-254.5"/>
<text text-anchor="middle" x="777" y="-261.5" font-family="Helvetica,sans-Serif" font-size="10.00">FairEventHeader.h</text>
</g>
<!-- Node31&#45;&gt;Node32 -->
<g id="edge37" class="edge"><title>Node31&#45;&gt;Node32</title>
<path fill="none" stroke="midnightblue" d="M876.966,-322.372C857.595,-311.254 823.696,-291.8 800.806,-278.662"/>
<polygon fill="midnightblue" stroke="midnightblue" points="802.453,-275.573 792.038,-273.63 798.969,-281.644 802.453,-275.573"/>
</g>
<!-- Node33 -->
<g id="node33" class="node"><title>Node33</title>
<polygon fill="none" stroke="#bfbfbf" points="844.5,-249 844.5,-279 939.5,-279 939.5,-249 844.5,-249"/>
<text text-anchor="start" x="852.5" y="-267" font-family="Helvetica,sans-Serif" font-size="10.00">boost/serialization</text>
<text text-anchor="middle" x="892" y="-256" font-family="Helvetica,sans-Serif" font-size="10.00">/access.hpp</text>
</g>
<!-- Node31&#45;&gt;Node33 -->
<g id="edge38" class="edge"><title>Node31&#45;&gt;Node33</title>
<path fill="none" stroke="midnightblue" d="M892,-322.372C892,-313.971 892,-300.811 892,-289.213"/>
<polygon fill="midnightblue" stroke="midnightblue" points="895.5,-289.181 892,-279.181 888.5,-289.181 895.5,-289.181"/>
</g>
<!-- Node34 -->
<g id="node34" class="node"><title>Node34</title>
<polygon fill="none" stroke="#bfbfbf" points="957.5,-249 957.5,-279 1052.5,-279 1052.5,-249 957.5,-249"/>
<text text-anchor="start" x="965.5" y="-267" font-family="Helvetica,sans-Serif" font-size="10.00">boost/serialization</text>
<text text-anchor="middle" x="1005" y="-256" font-family="Helvetica,sans-Serif" font-size="10.00">/base_object.hpp</text>
</g>
<!-- Node31&#45;&gt;Node34 -->
<g id="edge39" class="edge"><title>Node31&#45;&gt;Node34</title>
<path fill="none" stroke="midnightblue" d="M906.773,-322.372C923.209,-312.771 950.291,-296.954 971.86,-284.356"/>
<polygon fill="midnightblue" stroke="midnightblue" points="973.85,-287.247 980.72,-279.181 970.319,-281.203 973.85,-287.247"/>
</g>
<!-- Node36 -->
<g id="node36" class="node"><title>Node36</title>
<polygon fill="none" stroke="#bfbfbf" points="1070.5,-254.5 1070.5,-273.5 1165.5,-273.5 1165.5,-254.5 1070.5,-254.5"/>
<text text-anchor="middle" x="1118" y="-261.5" font-family="Helvetica,sans-Serif" font-size="10.00">FairTrackParam.h</text>
</g>
<!-- Node35&#45;&gt;Node36 -->
<g id="edge41" class="edge"><title>Node35&#45;&gt;Node36</title>
<path fill="none" stroke="midnightblue" d="M1063.24,-322.372C1073.18,-311.955 1090.11,-294.217 1102.52,-281.216"/>
<polygon fill="midnightblue" stroke="midnightblue" points="1105.19,-283.491 1109.56,-273.841 1100.12,-278.658 1105.19,-283.491"/>
</g>
<!-- Node38 -->
<g id="node38" class="node"><title>Node38</title>
<polygon fill="none" stroke="#bfbfbf" points="1192.5,-254.5 1192.5,-273.5 1255.5,-273.5 1255.5,-254.5 1192.5,-254.5"/>
<text text-anchor="middle" x="1224" y="-261.5" font-family="Helvetica,sans-Serif" font-size="10.00">FairTask.h</text>
</g>
<!-- Node37&#45;&gt;Node38 -->
<g id="edge43" class="edge"><title>Node37&#45;&gt;Node38</title>
<path fill="none" stroke="midnightblue" d="M1224,-322.372C1224,-312.643 1224,-296.528 1224,-283.85"/>
<polygon fill="midnightblue" stroke="midnightblue" points="1227.5,-283.841 1224,-273.841 1220.5,-283.841 1227.5,-283.841"/>
</g>
</g>
</svg>
