<?xml version="1.0" encoding="UTF-8" standalone="no"?>
<!DOCTYPE svg PUBLIC "-//W3C//DTD SVG 1.1//EN"
 "http://www.w3.org/Graphics/SVG/1.1/DTD/svg11.dtd">
<!-- Generated by graphviz version 2.36.0 (20140111.2315)
 -->
<!-- Title: /home/travis/build/AliceO2Group/AliceO2/Detectors/TPC/reconstruction/include/TPCReconstruction/TrackTPC.h Pages: 1 -->
<!--zoomable 444 -->
<svg id="main" version="1.1" xmlns="http://www.w3.org/2000/svg" xmlns:xlink="http://www.w3.org/1999/xlink" xml:space="preserve" onload="init(evt)">
<style type="text/css"><![CDATA[
.edge:hover path { stroke: red; }
.edge:hover polygon { stroke: red; fill: red; }
]]></style>
<script type="text/javascript"><![CDATA[
var edges = document.getElementsByTagName('g');
if (edges && edges.length) {
  for (var i=0;i<edges.length;i++) {
    if (edges[i].id.substr(0,4)=='edge') {
      edges[i].setAttribute('class','edge');
    }
  }
}
]]></script>
        <defs>
                <circle id="rim" cx="0" cy="0" r="7"/>
                <circle id="rim2" cx="0" cy="0" r="3.5"/>
                <g id="zoomPlus">
                        <use xlink:href="#rim" fill="#404040">
                                <set attributeName="fill" to="#808080" begin="zoomplus.mouseover" end="zoomplus.mouseout"/>
                        </use>
                        <path d="M-4,0h8M0,-4v8" fill="none" stroke="white" stroke-width="1.5" pointer-events="none"/>
                </g>
                <g id="zoomMin">
                        <use xlink:href="#rim" fill="#404040">
                                <set attributeName="fill" to="#808080" begin="zoomminus.mouseover" end="zoomminus.mouseout"/>
                        </use>
                        <path d="M-4,0h8" fill="none" stroke="white" stroke-width="1.5" pointer-events="none"/>
                </g>
                <g id="dirArrow">
                        <path fill="none" stroke="white" stroke-width="1.5" d="M0,-3.0v7 M-2.5,-0.5L0,-3.0L2.5,-0.5"/>
                </g>
               <g id="resetDef">
                       <use xlink:href="#rim2" fill="#404040">
                               <set attributeName="fill" to="#808080" begin="reset.mouseover" end="reset.mouseout"/>
                       </use>
               </g>
        </defs>

<script type="text/javascript">
var viewWidth = 2073;
var viewHeight = 444;
var sectionId = 'dynsection-0';
</script>
<script xlink:href="../../svgpan.js"/>
<svg id="graph" class="graph">
<g id="viewport">
<title>/home/travis/build/AliceO2Group/AliceO2/Detectors/TPC/reconstruction/include/TPCReconstruction/TrackTPC.h</title>
<!-- Node1 -->
<g id="node1" class="node"><title>Node1</title>
<polygon fill="#bfbfbf" stroke="black" points="1743,-372.5 1743,-435.5 1893,-435.5 1893,-372.5 1743,-372.5"/>
<text text-anchor="start" x="1751" y="-423.5" font-family="Helvetica,sans-Serif" font-size="10.00">/home/travis/build</text>
<text text-anchor="start" x="1751" y="-412.5" font-family="Helvetica,sans-Serif" font-size="10.00">/AliceO2Group/AliceO2</text>
<text text-anchor="start" x="1751" y="-401.5" font-family="Helvetica,sans-Serif" font-size="10.00">/Detectors/TPC/reconstruction</text>
<text text-anchor="start" x="1751" y="-390.5" font-family="Helvetica,sans-Serif" font-size="10.00">/include/TPCReconstruction</text>
<text text-anchor="middle" x="1818" y="-379.5" font-family="Helvetica,sans-Serif" font-size="10.00">/TrackTPC.h</text>
</g>
<!-- Node2 -->
<g id="node2" class="node"><title>Node2</title>
<g id="a_node2"><a xlink:href="../../d7/d65/Detectors_2Base_2include_2DetectorsBase_2Track_8h.html" target="_top" xlink:title="DetectorsBase/Track.h">
<polygon fill="none" stroke="black" points="306,-316.5 306,-335.5 424,-335.5 424,-316.5 306,-316.5"/>
<text text-anchor="middle" x="365" y="-323.5" font-family="Helvetica,sans-Serif" font-size="10.00">DetectorsBase/Track.h</text>
</a>
</g>
</g>
<!-- Node1&#45;&gt;Node2 -->
<g id="edge1" class="edge"><title>Node1&#45;&gt;Node2</title>
<path fill="none" stroke="midnightblue" d="M1742.94,-399.074C1491.01,-385.897 677.807,-343.362 434.437,-330.632"/>
<polygon fill="midnightblue" stroke="midnightblue" points="434.476,-327.129 424.306,-330.102 434.11,-334.12 434.476,-327.129"/>
</g>
<!-- Node36 -->
<g id="node36" class="node"><title>Node36</title>
<g id="a_node36"><a xlink:href="../../d1/d73/Defs_8h.html" target="_top" xlink:title="Common definitions for 2D coordinates. ">
<polygon fill="none" stroke="black" points="1790,-192.5 1790,-211.5 1882,-211.5 1882,-192.5 1790,-192.5"/>
<text text-anchor="middle" x="1836" y="-199.5" font-family="Helvetica,sans-Serif" font-size="10.00">TPCBase/Defs.h</text>
</a>
</g>
</g>
<!-- Node1&#45;&gt;Node36 -->
<g id="edge48" class="edge"><title>Node1&#45;&gt;Node36</title>
<path fill="none" stroke="midnightblue" d="M1820.77,-372.188C1824.55,-330.251 1831.19,-256.47 1834.3,-221.888"/>
<polygon fill="midnightblue" stroke="midnightblue" points="1837.8,-222.039 1835.21,-211.766 1830.83,-221.412 1837.8,-222.039"/>
</g>
<!-- Node37 -->
<g id="node37" class="node"><title>Node37</title>
<g id="a_node37"><a xlink:href="../../d6/d6f/TPC_2reconstruction_2include_2TPCReconstruction_2Cluster_8h.html" target="_top" xlink:title="TPCReconstruction/Cluster.h">
<polygon fill="none" stroke="black" points="1846,-316.5 1846,-335.5 1992,-335.5 1992,-316.5 1846,-316.5"/>
<text text-anchor="middle" x="1919" y="-323.5" font-family="Helvetica,sans-Serif" font-size="10.00">TPCReconstruction/Cluster.h</text>
</a>
</g>
</g>
<!-- Node1&#45;&gt;Node37 -->
<g id="edge52" class="edge"><title>Node1&#45;&gt;Node37</title>
<path fill="none" stroke="midnightblue" d="M1858.79,-372.307C1872.75,-361.802 1887.74,-350.522 1899.27,-341.846"/>
<polygon fill="midnightblue" stroke="midnightblue" points="1901.45,-344.583 1907.34,-335.774 1897.25,-338.99 1901.45,-344.583"/>
</g>
<!-- Node3 -->
<g id="node3" class="node"><title>Node3</title>
<polygon fill="none" stroke="#bfbfbf" points="375,-74.5 375,-93.5 431,-93.5 431,-74.5 375,-74.5"/>
<text text-anchor="middle" x="403" y="-81.5" font-family="Helvetica,sans-Serif" font-size="10.00">Rtypes.h</text>
</g>
<!-- Node2&#45;&gt;Node3 -->
<g id="edge2" class="edge"><title>Node2&#45;&gt;Node3</title>
<path fill="none" stroke="midnightblue" d="M424.089,-318.797C473.052,-312.294 537.099,-300.157 553,-280 605.217,-213.809 479.716,-237.939 453,-212 422.356,-182.247 410.077,-131.431 405.493,-103.963"/>
<polygon fill="midnightblue" stroke="midnightblue" points="408.907,-103.124 403.969,-93.7502 401.984,-104.157 408.907,-103.124"/>
</g>
<!-- Node4 -->
<g id="node4" class="node"><title>Node4</title>
<polygon fill="none" stroke="#bfbfbf" points="46,-254.5 46,-273.5 102,-273.5 102,-254.5 46,-254.5"/>
<text text-anchor="middle" x="74" y="-261.5" font-family="Helvetica,sans-Serif" font-size="10.00">algorithm</text>
</g>
<!-- Node2&#45;&gt;Node4 -->
<g id="edge3" class="edge"><title>Node2&#45;&gt;Node4</title>
<path fill="none" stroke="midnightblue" d="M305.787,-317.098C254.955,-309.651 179.982,-297.083 116,-280 112.606,-279.094 109.095,-278.037 105.616,-276.913"/>
<polygon fill="midnightblue" stroke="midnightblue" points="106.613,-273.555 96.0181,-273.63 104.347,-280.178 106.613,-273.555"/>
</g>
<!-- Node5 -->
<g id="node5" class="node"><title>Node5</title>
<polygon fill="none" stroke="#bfbfbf" points="637,-6.5 637,-25.5 675,-25.5 675,-6.5 637,-6.5"/>
<text text-anchor="middle" x="656" y="-13.5" font-family="Helvetica,sans-Serif" font-size="10.00">array</text>
</g>
<!-- Node2&#45;&gt;Node5 -->
<g id="edge4" class="edge"><title>Node2&#45;&gt;Node5</title>
<path fill="none" stroke="midnightblue" d="M424.135,-322.985C690.033,-313.543 1762,-271.244 1762,-203 1762,-203 1762,-203 1762,-145 1762,-102.421 1742.55,-88.0787 1705,-68 1612.95,-18.7774 846.265,-16.8073 685.497,-16.9395"/>
<polygon fill="midnightblue" stroke="midnightblue" points="685.386,-13.4396 675.39,-16.9514 685.395,-20.4396 685.386,-13.4396"/>
</g>
<!-- Node6 -->
<g id="node6" class="node"><title>Node6</title>
<polygon fill="none" stroke="#bfbfbf" points="158.5,-254.5 158.5,-273.5 199.5,-273.5 199.5,-254.5 158.5,-254.5"/>
<text text-anchor="middle" x="179" y="-261.5" font-family="Helvetica,sans-Serif" font-size="10.00">cfloat</text>
</g>
<!-- Node2&#45;&gt;Node6 -->
<g id="edge5" class="edge"><title>Node2&#45;&gt;Node6</title>
<path fill="none" stroke="midnightblue" d="M332.542,-316.493C301.724,-308.143 254.255,-294.569 214,-280 211.879,-279.232 209.701,-278.403 207.52,-277.541"/>
<polygon fill="midnightblue" stroke="midnightblue" points="208.676,-274.232 198.097,-273.655 206.007,-280.704 208.676,-274.232"/>
</g>
<!-- Node7 -->
<g id="node7" class="node"><title>Node7</title>
<polygon fill="none" stroke="#bfbfbf" points="206,-6.5 206,-25.5 250,-25.5 250,-6.5 206,-6.5"/>
<text text-anchor="middle" x="228" y="-13.5" font-family="Helvetica,sans-Serif" font-size="10.00">cmath</text>
</g>
<!-- Node2&#45;&gt;Node7 -->
<g id="edge6" class="edge"><title>Node2&#45;&gt;Node7</title>
<path fill="none" stroke="midnightblue" d="M305.963,-319.735C249.921,-313.53 171.061,-301.269 149,-280 123.624,-255.535 130,-238.249 130,-203 130,-203 130,-203 130,-145 130,-107.94 139.472,-97.4266 162,-68 173.481,-53.0031 190.396,-40.0491 204.227,-30.9493"/>
<polygon fill="midnightblue" stroke="midnightblue" points="206.198,-33.8438 212.782,-25.5432 202.459,-27.9262 206.198,-33.8438"/>
</g>
<!-- Node8 -->
<g id="node8" class="node"><title>Node8</title>
<polygon fill="none" stroke="#bfbfbf" points="256,-254.5 256,-273.5 302,-273.5 302,-254.5 256,-254.5"/>
<text text-anchor="middle" x="279" y="-261.5" font-family="Helvetica,sans-Serif" font-size="10.00">cstring</text>
</g>
<!-- Node2&#45;&gt;Node8 -->
<g id="edge7" class="edge"><title>Node2&#45;&gt;Node8</title>
<path fill="none" stroke="midnightblue" d="M352.678,-316.403C338.884,-306.78 316.301,-291.024 299.768,-279.489"/>
<polygon fill="midnightblue" stroke="midnightblue" points="301.503,-276.432 291.299,-273.581 297.497,-282.173 301.503,-276.432"/>
</g>
<!-- Node9 -->
<g id="node9" class="node"><title>Node9</title>
<polygon fill="none" stroke="#bfbfbf" points="303,-74.5 303,-93.5 357,-93.5 357,-74.5 303,-74.5"/>
<text text-anchor="middle" x="330" y="-81.5" font-family="Helvetica,sans-Serif" font-size="10.00">iostream</text>
</g>
<!-- Node2&#45;&gt;Node9 -->
<g id="edge8" class="edge"><title>Node2&#45;&gt;Node9</title>
<path fill="none" stroke="midnightblue" d="M361.155,-316.224C357.415,-307.29 351.887,-292.949 349,-280 334.835,-216.467 331.23,-138.954 330.313,-103.864"/>
<polygon fill="midnightblue" stroke="midnightblue" points="333.808,-103.594 330.094,-93.6714 326.81,-103.744 333.808,-103.594"/>
</g>
<!-- Node10 -->
<g id="node10" class="node"><title>Node10</title>
<polygon fill="none" stroke="#bfbfbf" points="358.5,-254.5 358.5,-273.5 441.5,-273.5 441.5,-254.5 358.5,-254.5"/>
<text text-anchor="middle" x="400" y="-261.5" font-family="Helvetica,sans-Serif" font-size="10.00">Math/SMatrix.h</text>
</g>
<!-- Node2&#45;&gt;Node10 -->
<g id="edge9" class="edge"><title>Node2&#45;&gt;Node10</title>
<path fill="none" stroke="midnightblue" d="M370.015,-316.403C375.161,-307.582 383.312,-293.608 389.818,-282.455"/>
<polygon fill="midnightblue" stroke="midnightblue" points="392.979,-283.982 394.995,-273.581 386.933,-280.455 392.979,-283.982"/>
</g>
<!-- Node11 -->
<g id="node11" class="node"><title>Node11</title>
<polygon fill="none" stroke="#bfbfbf" points="459.5,-254.5 459.5,-273.5 544.5,-273.5 544.5,-254.5 459.5,-254.5"/>
<text text-anchor="middle" x="502" y="-261.5" font-family="Helvetica,sans-Serif" font-size="10.00">Math/SVector.h</text>
</g>
<!-- Node2&#45;&gt;Node11 -->
<g id="edge10" class="edge"><title>Node2&#45;&gt;Node11</title>
<path fill="none" stroke="midnightblue" d="M384.629,-316.403C407.824,-306.245 446.619,-289.255 473.213,-277.607"/>
<polygon fill="midnightblue" stroke="midnightblue" points="474.652,-280.798 482.408,-273.581 471.843,-274.386 474.652,-280.798"/>
</g>
<!-- Node12 -->
<g id="node12" class="node"><title>Node12</title>
<g id="a_node12"><a xlink:href="../../d4/de2/BaseCluster_8h.html" target="_top" xlink:title="DetectorsBase/BaseCluster.h">
<polygon fill="none" stroke="black" points="601.5,-254.5 601.5,-273.5 748.5,-273.5 748.5,-254.5 601.5,-254.5"/>
<text text-anchor="middle" x="675" y="-261.5" font-family="Helvetica,sans-Serif" font-size="10.00">DetectorsBase/BaseCluster.h</text>
</a>
</g>
</g>
<!-- Node2&#45;&gt;Node12 -->
<g id="edge11" class="edge"><title>Node2&#45;&gt;Node12</title>
<path fill="none" stroke="midnightblue" d="M409.086,-316.467C464.866,-305.671 560.891,-287.086 621.008,-275.45"/>
<polygon fill="midnightblue" stroke="midnightblue" points="621.913,-278.84 631.066,-273.503 620.583,-271.967 621.913,-278.84"/>
</g>
<!-- Node17 -->
<g id="node17" class="node"><title>Node17</title>
<g id="a_node17"><a xlink:href="../../dd/d76/Cartesian3D_8h.html" target="_top" xlink:title="MathUtils/Cartesian3D.h">
<polygon fill="none" stroke="black" points="932.5,-136.5 932.5,-155.5 1057.5,-155.5 1057.5,-136.5 932.5,-136.5"/>
<text text-anchor="middle" x="995" y="-143.5" font-family="Helvetica,sans-Serif" font-size="10.00">MathUtils/Cartesian3D.h</text>
</a>
</g>
</g>
<!-- Node2&#45;&gt;Node17 -->
<g id="edge47" class="edge"><title>Node2&#45;&gt;Node17</title>
<path fill="none" stroke="midnightblue" d="M424.034,-323.291C501.569,-319.902 641.422,-309.833 757,-280 833.8,-260.177 854.765,-254.078 922,-212 944.125,-198.153 966.016,-177.481 979.967,-163.183"/>
<polygon fill="midnightblue" stroke="midnightblue" points="982.832,-165.252 987.206,-155.602 977.769,-160.418 982.832,-165.252"/>
</g>
<!-- Node32 -->
<g id="node32" class="node"><title>Node32</title>
<g id="a_node32"><a xlink:href="../../d9/ded/Utils_8h.html" target="_top" xlink:title="DetectorsBase/Utils.h">
<polygon fill="none" stroke="black" points="171.5,-74.5 171.5,-93.5 284.5,-93.5 284.5,-74.5 171.5,-74.5"/>
<text text-anchor="middle" x="228" y="-81.5" font-family="Helvetica,sans-Serif" font-size="10.00">DetectorsBase/Utils.h</text>
</a>
</g>
</g>
<!-- Node2&#45;&gt;Node32 -->
<g id="edge46" class="edge"><title>Node2&#45;&gt;Node32</title>
<path fill="none" stroke="midnightblue" d="M307.912,-316.494C285.474,-310.178 261.63,-299.173 247,-280 206.609,-227.067 216.879,-141.07 223.95,-103.523"/>
<polygon fill="midnightblue" stroke="midnightblue" points="227.422,-104.013 225.982,-93.5165 220.562,-102.62 227.422,-104.013"/>
</g>
<!-- Node33 -->
<g id="node33" class="node"><title>Node33</title>
<g id="a_node33"><a xlink:href="../../d1/daa/Base_2include_2DetectorsBase_2Constants_8h.html" target="_top" xlink:title="DetectorsBase/Constants.h">
<polygon fill="none" stroke="black" points="0,-6.5 0,-25.5 138,-25.5 138,-6.5 0,-6.5"/>
<text text-anchor="middle" x="69" y="-13.5" font-family="Helvetica,sans-Serif" font-size="10.00">DetectorsBase/Constants.h</text>
</a>
</g>
</g>
<!-- Node2&#45;&gt;Node33 -->
<g id="edge45" class="edge"><title>Node2&#45;&gt;Node33</title>
<path fill="none" stroke="midnightblue" d="M305.956,-324.612C222.4,-322.812 75.5112,-314.646 37,-280 10.795,-256.425 18,-238.249 18,-203 18,-203 18,-203 18,-145 18,-102.741 42.2866,-57.8512 57.3405,-34.0858"/>
<polygon fill="midnightblue" stroke="midnightblue" points="60.3951,-35.8102 62.9494,-25.5279 54.5404,-31.9731 60.3951,-35.8102"/>
</g>
<!-- Node12&#45;&gt;Node9 -->
<g id="edge16" class="edge"><title>Node12&#45;&gt;Node9</title>
<path fill="none" stroke="midnightblue" d="M632.018,-254.496C571.956,-242.405 468.5,-220.743 453,-212 403.281,-183.953 360.886,-129.631 341.414,-102.012"/>
<polygon fill="midnightblue" stroke="midnightblue" points="344.271,-99.9902 335.711,-93.7463 338.509,-103.965 344.271,-99.9902"/>
</g>
<!-- Node13 -->
<g id="node13" class="node"><title>Node13</title>
<polygon fill="none" stroke="#bfbfbf" points="462.5,-192.5 462.5,-211.5 521.5,-211.5 521.5,-192.5 462.5,-192.5"/>
<text text-anchor="middle" x="492" y="-199.5" font-family="Helvetica,sans-Serif" font-size="10.00">TObject.h</text>
</g>
<!-- Node12&#45;&gt;Node13 -->
<g id="edge12" class="edge"><title>Node12&#45;&gt;Node13</title>
<path fill="none" stroke="midnightblue" d="M648.781,-254.403C616.982,-243.978 563.235,-226.356 527.683,-214.699"/>
<polygon fill="midnightblue" stroke="midnightblue" points="528.764,-211.37 518.171,-211.581 526.583,-218.022 528.764,-211.37"/>
</g>
<!-- Node14 -->
<g id="node14" class="node"><title>Node14</title>
<polygon fill="none" stroke="#bfbfbf" points="539.5,-192.5 539.5,-211.5 580.5,-211.5 580.5,-192.5 539.5,-192.5"/>
<text text-anchor="middle" x="560" y="-199.5" font-family="Helvetica,sans-Serif" font-size="10.00">bitset</text>
</g>
<!-- Node12&#45;&gt;Node14 -->
<g id="edge13" class="edge"><title>Node12&#45;&gt;Node14</title>
<path fill="none" stroke="midnightblue" d="M658.523,-254.403C639.395,-244.423 607.627,-227.849 585.348,-216.225"/>
<polygon fill="midnightblue" stroke="midnightblue" points="586.931,-213.103 576.446,-211.581 583.693,-219.309 586.931,-213.103"/>
</g>
<!-- Node15 -->
<g id="node15" class="node"><title>Node15</title>
<polygon fill="none" stroke="#bfbfbf" points="599,-192.5 599,-211.5 649,-211.5 649,-192.5 599,-192.5"/>
<text text-anchor="middle" x="624" y="-199.5" font-family="Helvetica,sans-Serif" font-size="10.00">iomanip</text>
</g>
<!-- Node12&#45;&gt;Node15 -->
<g id="edge14" class="edge"><title>Node12&#45;&gt;Node15</title>
<path fill="none" stroke="midnightblue" d="M667.693,-254.403C659.967,-245.314 647.592,-230.756 637.982,-219.449"/>
<polygon fill="midnightblue" stroke="midnightblue" points="640.437,-216.933 631.294,-211.581 635.103,-221.467 640.437,-216.933"/>
</g>
<!-- Node16 -->
<g id="node16" class="node"><title>Node16</title>
<polygon fill="none" stroke="#bfbfbf" points="667.5,-192.5 667.5,-211.5 696.5,-211.5 696.5,-192.5 667.5,-192.5"/>
<text text-anchor="middle" x="682" y="-199.5" font-family="Helvetica,sans-Serif" font-size="10.00">ios</text>
</g>
<!-- Node12&#45;&gt;Node16 -->
<g id="edge15" class="edge"><title>Node12&#45;&gt;Node16</title>
<path fill="none" stroke="midnightblue" d="M676.003,-254.403C676.991,-245.938 678.532,-232.728 679.804,-221.82"/>
<polygon fill="midnightblue" stroke="midnightblue" points="683.316,-221.919 680.999,-211.581 676.364,-221.108 683.316,-221.919"/>
</g>
<!-- Node12&#45;&gt;Node17 -->
<g id="edge17" class="edge"><title>Node12&#45;&gt;Node17</title>
<path fill="none" stroke="midnightblue" d="M731.199,-254.467C775.027,-246.653 836.839,-233.057 888,-212 920.391,-198.668 954.403,-176.364 975.159,-161.666"/>
<polygon fill="midnightblue" stroke="midnightblue" points="977.383,-164.377 983.455,-155.694 973.294,-158.696 977.383,-164.377"/>
</g>
<!-- Node27 -->
<g id="node27" class="node"><title>Node27</title>
<g id="a_node27"><a xlink:href="../../d4/d20/DetMatrixCache_8h.html" target="_top" xlink:title="DetectorsBase/DetMatrixCache.h">
<polygon fill="none" stroke="black" points="715,-192.5 715,-211.5 879,-211.5 879,-192.5 715,-192.5"/>
<text text-anchor="middle" x="797" y="-199.5" font-family="Helvetica,sans-Serif" font-size="10.00">DetectorsBase/DetMatrixCache.h</text>
</a>
</g>
</g>
<!-- Node12&#45;&gt;Node27 -->
<g id="edge29" class="edge"><title>Node12&#45;&gt;Node27</title>
<path fill="none" stroke="midnightblue" d="M692.48,-254.403C712.863,-244.379 746.775,-227.701 770.425,-216.07"/>
<polygon fill="midnightblue" stroke="midnightblue" points="772.124,-219.135 779.553,-211.581 769.035,-212.853 772.124,-219.135"/>
</g>
<!-- Node17&#45;&gt;Node3 -->
<g id="edge21" class="edge"><title>Node17&#45;&gt;Node3</title>
<path fill="none" stroke="midnightblue" d="M932.064,-142.304C807.13,-136.558 531.941,-121.822 440,-100 436.929,-99.2712 433.781,-98.3272 430.679,-97.2675"/>
<polygon fill="midnightblue" stroke="midnightblue" points="431.673,-93.9009 421.082,-93.6104 429.18,-100.442 431.673,-93.9009"/>
</g>
<!-- Node17&#45;&gt;Node9 -->
<g id="edge28" class="edge"><title>Node17&#45;&gt;Node9</title>
<path fill="none" stroke="midnightblue" d="M932.234,-141.663C783.898,-133.61 420.059,-112.835 366,-100 363.001,-99.2879 359.929,-98.3545 356.907,-97.3013"/>
<polygon fill="midnightblue" stroke="midnightblue" points="358.152,-94.0302 347.564,-93.6517 355.605,-100.55 358.152,-94.0302"/>
</g>
<!-- Node18 -->
<g id="node18" class="node"><title>Node18</title>
<polygon fill="none" stroke="#bfbfbf" points="1100.5,-74.5 1100.5,-93.5 1249.5,-93.5 1249.5,-74.5 1100.5,-74.5"/>
<text text-anchor="middle" x="1175" y="-81.5" font-family="Helvetica,sans-Serif" font-size="10.00">Math/GenVector/Rotation3D.h</text>
</g>
<!-- Node17&#45;&gt;Node18 -->
<g id="edge18" class="edge"><title>Node17&#45;&gt;Node18</title>
<path fill="none" stroke="midnightblue" d="M1020.79,-136.403C1051.93,-126.022 1104.48,-108.506 1139.45,-96.849"/>
<polygon fill="midnightblue" stroke="midnightblue" points="1140.88,-100.063 1149.26,-93.5806 1138.66,-93.4225 1140.88,-100.063"/>
</g>
<!-- Node19 -->
<g id="node19" class="node"><title>Node19</title>
<polygon fill="none" stroke="#bfbfbf" points="1268,-74.5 1268,-93.5 1424,-93.5 1424,-74.5 1268,-74.5"/>
<text text-anchor="middle" x="1346" y="-81.5" font-family="Helvetica,sans-Serif" font-size="10.00">Math/GenVector/Transform3D.h</text>
</g>
<!-- Node17&#45;&gt;Node19 -->
<g id="edge19" class="edge"><title>Node17&#45;&gt;Node19</title>
<path fill="none" stroke="midnightblue" d="M1044.92,-136.467C1108.47,-125.604 1218.15,-106.855 1286.13,-95.2346"/>
<polygon fill="midnightblue" stroke="midnightblue" points="1286.99,-98.6384 1296.26,-93.5034 1285.81,-91.7385 1286.99,-98.6384"/>
</g>
<!-- Node20 -->
<g id="node20" class="node"><title>Node20</title>
<polygon fill="none" stroke="#bfbfbf" points="1442,-74.5 1442,-93.5 1602,-93.5 1602,-74.5 1442,-74.5"/>
<text text-anchor="middle" x="1522" y="-81.5" font-family="Helvetica,sans-Serif" font-size="10.00">Math/GenVector/Translation3D.h</text>
</g>
<!-- Node17&#45;&gt;Node20 -->
<g id="edge20" class="edge"><title>Node17&#45;&gt;Node20</title>
<path fill="none" stroke="midnightblue" d="M1057.53,-139.855C1142.65,-132.56 1299.68,-118.064 1433,-100 1443.35,-98.597 1454.35,-96.907 1464.96,-95.1748"/>
<polygon fill="midnightblue" stroke="midnightblue" points="1465.68,-98.6027 1474.97,-93.5092 1464.53,-91.6975 1465.68,-98.6027"/>
</g>
<!-- Node21 -->
<g id="node21" class="node"><title>Node21</title>
<polygon fill="none" stroke="#bfbfbf" points="1620,-74.5 1620,-93.5 1696,-93.5 1696,-74.5 1620,-74.5"/>
<text text-anchor="middle" x="1658" y="-81.5" font-family="Helvetica,sans-Serif" font-size="10.00">TGeoMatrix.h</text>
</g>
<!-- Node17&#45;&gt;Node21 -->
<g id="edge22" class="edge"><title>Node17&#45;&gt;Node21</title>
<path fill="none" stroke="midnightblue" d="M1057.72,-145.274C1169.81,-144.691 1411.49,-138.561 1611,-100 1615.57,-99.1167 1620.32,-97.9325 1624.96,-96.6149"/>
<polygon fill="midnightblue" stroke="midnightblue" points="1626.32,-99.8598 1634.85,-93.5825 1624.27,-93.1672 1626.32,-99.8598"/>
</g>
<!-- Node22 -->
<g id="node22" class="node"><title>Node22</title>
<polygon fill="none" stroke="#bfbfbf" points="737.5,-69 737.5,-99 888.5,-99 888.5,-69 737.5,-69"/>
<text text-anchor="start" x="745.5" y="-87" font-family="Helvetica,sans-Serif" font-size="10.00">Math/GenVector/Displacement</text>
<text text-anchor="middle" x="813" y="-76" font-family="Helvetica,sans-Serif" font-size="10.00">Vector3D.h</text>
</g>
<!-- Node17&#45;&gt;Node22 -->
<g id="edge23" class="edge"><title>Node17&#45;&gt;Node22</title>
<path fill="none" stroke="midnightblue" d="M968.924,-136.403C941.997,-127.526 899.244,-113.432 865.311,-102.245"/>
<polygon fill="midnightblue" stroke="midnightblue" points="866.137,-98.8323 855.543,-99.0253 863.945,-105.48 866.137,-98.8323"/>
</g>
<!-- Node23 -->
<g id="node23" class="node"><title>Node23</title>
<polygon fill="none" stroke="#bfbfbf" points="907,-74.5 907,-93.5 1083,-93.5 1083,-74.5 907,-74.5"/>
<text text-anchor="middle" x="995" y="-81.5" font-family="Helvetica,sans-Serif" font-size="10.00">Math/GenVector/PositionVector3D.h</text>
</g>
<!-- Node17&#45;&gt;Node23 -->
<g id="edge24" class="edge"><title>Node17&#45;&gt;Node23</title>
<path fill="none" stroke="midnightblue" d="M995,-136.403C995,-127.938 995,-114.728 995,-103.82"/>
<polygon fill="midnightblue" stroke="midnightblue" points="998.5,-103.581 995,-93.5806 991.5,-103.581 998.5,-103.581"/>
</g>
<!-- Node24 -->
<g id="node24" class="node"><title>Node24</title>
<g id="a_node24"><a xlink:href="../../d2/dd0/Cartesian2D_8h.html" target="_top" xlink:title="MathUtils/Cartesian2D.h">
<polygon fill="none" stroke="black" points="1790.5,-74.5 1790.5,-93.5 1915.5,-93.5 1915.5,-74.5 1790.5,-74.5"/>
<text text-anchor="middle" x="1853" y="-81.5" font-family="Helvetica,sans-Serif" font-size="10.00">MathUtils/Cartesian2D.h</text>
</a>
</g>
</g>
<!-- Node17&#45;&gt;Node24 -->
<g id="edge25" class="edge"><title>Node17&#45;&gt;Node24</title>
<path fill="none" stroke="midnightblue" d="M1057.74,-141.82C1181.59,-135.366 1466.2,-119.662 1705,-100 1729.55,-97.9788 1756.35,-95.3816 1780.31,-92.9182"/>
<polygon fill="midnightblue" stroke="midnightblue" points="1780.81,-96.3855 1790.4,-91.8727 1780.09,-89.4228 1780.81,-96.3855"/>
</g>
<!-- Node25 -->
<g id="node25" class="node"><title>Node25</title>
<polygon fill="none" stroke="#bfbfbf" points="1868.5,-1 1868.5,-31 2019.5,-31 2019.5,-1 1868.5,-1"/>
<text text-anchor="start" x="1876.5" y="-19" font-family="Helvetica,sans-Serif" font-size="10.00">Math/GenVector/Displacement</text>
<text text-anchor="middle" x="1944" y="-8" font-family="Helvetica,sans-Serif" font-size="10.00">Vector2D.h</text>
</g>
<!-- Node24&#45;&gt;Node25 -->
<g id="edge26" class="edge"><title>Node24&#45;&gt;Node25</title>
<path fill="none" stroke="midnightblue" d="M1864.9,-74.3717C1877.78,-65.0286 1898.78,-49.7966 1915.91,-37.375"/>
<polygon fill="midnightblue" stroke="midnightblue" points="1918.41,-39.8859 1924.45,-31.1815 1914.3,-34.2194 1918.41,-39.8859"/>
</g>
<!-- Node26 -->
<g id="node26" class="node"><title>Node26</title>
<polygon fill="none" stroke="#bfbfbf" points="1674,-6.5 1674,-25.5 1850,-25.5 1850,-6.5 1674,-6.5"/>
<text text-anchor="middle" x="1762" y="-13.5" font-family="Helvetica,sans-Serif" font-size="10.00">Math/GenVector/PositionVector2D.h</text>
</g>
<!-- Node24&#45;&gt;Node26 -->
<g id="edge27" class="edge"><title>Node24&#45;&gt;Node26</title>
<path fill="none" stroke="midnightblue" d="M1841.1,-74.3717C1826.12,-63.5015 1800.14,-44.6602 1782.06,-31.5474"/>
<polygon fill="midnightblue" stroke="midnightblue" points="1784.05,-28.6684 1773.9,-25.6305 1779.94,-34.3349 1784.05,-28.6684"/>
</g>
<!-- Node27&#45;&gt;Node3 -->
<g id="edge43" class="edge"><title>Node27&#45;&gt;Node3</title>
<path fill="none" stroke="midnightblue" d="M725.519,-192.5C641.876,-182.238 512.061,-165.215 491,-156 461.635,-143.152 433.93,-117.809 417.713,-101.138"/>
<polygon fill="midnightblue" stroke="midnightblue" points="420.132,-98.6026 410.718,-93.743 415.047,-103.413 420.132,-98.6026"/>
</g>
<!-- Node27&#45;&gt;Node5 -->
<g id="edge31" class="edge"><title>Node27&#45;&gt;Node5</title>
<path fill="none" stroke="midnightblue" d="M796.611,-192.206C795.628,-178.909 792.171,-153.394 780,-136 763.885,-112.969 748.929,-118.764 728,-100 704.898,-79.2886 682.088,-51.3909 668.524,-33.7989"/>
<polygon fill="midnightblue" stroke="midnightblue" points="671.157,-31.4784 662.321,-25.6314 665.582,-35.712 671.157,-31.4784"/>
</g>
<!-- Node27&#45;&gt;Node17 -->
<g id="edge32" class="edge"><title>Node27&#45;&gt;Node17</title>
<path fill="none" stroke="midnightblue" d="M828.374,-192.444C862.263,-183.201 916.403,-168.436 953.724,-158.257"/>
<polygon fill="midnightblue" stroke="midnightblue" points="955.046,-161.524 963.773,-155.516 953.205,-154.771 955.046,-161.524"/>
</g>
<!-- Node28 -->
<g id="node28" class="node"><title>Node28</title>
<polygon fill="none" stroke="#bfbfbf" points="638,-136.5 638,-155.5 682,-155.5 682,-136.5 638,-136.5"/>
<text text-anchor="middle" x="660" y="-143.5" font-family="Helvetica,sans-Serif" font-size="10.00">vector</text>
</g>
<!-- Node27&#45;&gt;Node28 -->
<g id="edge30" class="edge"><title>Node27&#45;&gt;Node28</title>
<path fill="none" stroke="midnightblue" d="M775.292,-192.444C752.645,-183.517 716.928,-169.439 691.248,-159.317"/>
<polygon fill="midnightblue" stroke="midnightblue" points="692.193,-155.927 681.606,-155.516 689.626,-162.44 692.193,-155.927"/>
</g>
<!-- Node29 -->
<g id="node29" class="node"><title>Node29</title>
<g id="a_node29"><a xlink:href="../../d6/d31/DetID_8h.html" target="_top" xlink:title="DetectorsBase/DetID.h">
<polygon fill="none" stroke="black" points="500.5,-136.5 500.5,-155.5 619.5,-155.5 619.5,-136.5 500.5,-136.5"/>
<text text-anchor="middle" x="560" y="-143.5" font-family="Helvetica,sans-Serif" font-size="10.00">DetectorsBase/DetID.h</text>
</a>
</g>
</g>
<!-- Node27&#45;&gt;Node29 -->
<g id="edge33" class="edge"><title>Node27&#45;&gt;Node29</title>
<path fill="none" stroke="midnightblue" d="M759.447,-192.444C718.189,-183.043 651.856,-167.929 607.134,-157.739"/>
<polygon fill="midnightblue" stroke="midnightblue" points="607.905,-154.326 597.378,-155.516 606.35,-161.151 607.905,-154.326"/>
</g>
<!-- Node35 -->
<g id="node35" class="node"><title>Node35</title>
<polygon fill="none" stroke="#bfbfbf" points="700.5,-136.5 700.5,-155.5 771.5,-155.5 771.5,-136.5 700.5,-136.5"/>
<text text-anchor="middle" x="736" y="-143.5" font-family="Helvetica,sans-Serif" font-size="10.00">FairLogger.h</text>
</g>
<!-- Node27&#45;&gt;Node35 -->
<g id="edge44" class="edge"><title>Node27&#45;&gt;Node35</title>
<path fill="none" stroke="midnightblue" d="M787.199,-192.324C778.182,-184.341 764.594,-172.313 753.682,-162.653"/>
<polygon fill="midnightblue" stroke="midnightblue" points="755.787,-159.842 745.979,-155.834 751.147,-165.083 755.787,-159.842"/>
</g>
<!-- Node29&#45;&gt;Node3 -->
<g id="edge37" class="edge"><title>Node29&#45;&gt;Node3</title>
<path fill="none" stroke="midnightblue" d="M536.476,-136.387C512.232,-127.461 473.373,-113.02 440,-100 437.766,-99.1285 435.46,-98.2187 433.143,-97.2967"/>
<polygon fill="midnightblue" stroke="midnightblue" points="434.289,-93.9852 423.705,-93.506 431.68,-100.481 434.289,-93.9852"/>
</g>
<!-- Node29&#45;&gt;Node5 -->
<g id="edge35" class="edge"><title>Node29&#45;&gt;Node5</title>
<path fill="none" stroke="midnightblue" d="M566.598,-136.202C582.431,-115.092 622.788,-61.2823 643.428,-33.7623"/>
<polygon fill="midnightblue" stroke="midnightblue" points="646.408,-35.6225 649.608,-25.5224 640.808,-31.4224 646.408,-35.6225"/>
</g>
<!-- Node30 -->
<g id="node30" class="node"><title>Node30</title>
<polygon fill="none" stroke="#bfbfbf" points="449,-74.5 449,-93.5 495,-93.5 495,-74.5 449,-74.5"/>
<text text-anchor="middle" x="472" y="-81.5" font-family="Helvetica,sans-Serif" font-size="10.00">cstdint</text>
</g>
<!-- Node29&#45;&gt;Node30 -->
<g id="edge34" class="edge"><title>Node29&#45;&gt;Node30</title>
<path fill="none" stroke="midnightblue" d="M547.392,-136.403C533.277,-126.78 510.169,-111.024 493.251,-99.4891"/>
<polygon fill="midnightblue" stroke="midnightblue" points="494.819,-96.3222 484.585,-93.5806 490.875,-102.106 494.819,-96.3222"/>
</g>
<!-- Node31 -->
<g id="node31" class="node"><title>Node31</title>
<polygon fill="none" stroke="#bfbfbf" points="513,-74.5 513,-93.5 575,-93.5 575,-74.5 513,-74.5"/>
<text text-anchor="middle" x="544" y="-81.5" font-family="Helvetica,sans-Serif" font-size="10.00">type_traits</text>
</g>
<!-- Node29&#45;&gt;Node31 -->
<g id="edge36" class="edge"><title>Node29&#45;&gt;Node31</title>
<path fill="none" stroke="midnightblue" d="M557.708,-136.403C555.426,-127.849 551.853,-114.45 548.927,-103.476"/>
<polygon fill="midnightblue" stroke="midnightblue" points="552.247,-102.341 546.288,-93.5806 545.483,-104.145 552.247,-102.341"/>
</g>
<!-- Node29&#45;&gt;Node32 -->
<g id="edge38" class="edge"><title>Node29&#45;&gt;Node32</title>
<path fill="none" stroke="midnightblue" d="M504.046,-136.466C450.103,-128.019 366.247,-114.309 294,-100 287.417,-98.6962 280.487,-97.2276 273.692,-95.7327"/>
<polygon fill="midnightblue" stroke="midnightblue" points="274.412,-92.3073 263.889,-93.5396 272.883,-99.1384 274.412,-92.3073"/>
</g>
<!-- Node34 -->
<g id="node34" class="node"><title>Node34</title>
<polygon fill="none" stroke="#bfbfbf" points="631.5,-74.5 631.5,-93.5 680.5,-93.5 680.5,-74.5 631.5,-74.5"/>
<text text-anchor="middle" x="656" y="-81.5" font-family="Helvetica,sans-Serif" font-size="10.00">cassert</text>
</g>
<!-- Node29&#45;&gt;Node34 -->
<g id="edge42" class="edge"><title>Node29&#45;&gt;Node34</title>
<path fill="none" stroke="midnightblue" d="M573.754,-136.403C589.366,-126.646 615.063,-110.585 633.583,-99.0109"/>
<polygon fill="midnightblue" stroke="midnightblue" points="635.646,-101.849 642.271,-93.5806 631.936,-95.9126 635.646,-101.849"/>
</g>
<!-- Node32&#45;&gt;Node5 -->
<g id="edge41" class="edge"><title>Node32&#45;&gt;Node5</title>
<path fill="none" stroke="midnightblue" d="M263.168,-74.4352C273.102,-72.1717 283.945,-69.8475 294,-68 416.78,-45.4396 564.586,-27.4403 626.483,-20.3111"/>
<polygon fill="midnightblue" stroke="midnightblue" points="627.141,-23.7587 636.679,-19.1459 626.346,-16.804 627.141,-23.7587"/>
</g>
<!-- Node32&#45;&gt;Node7 -->
<g id="edge40" class="edge"><title>Node32&#45;&gt;Node7</title>
<path fill="none" stroke="midnightblue" d="M228,-74.3717C228,-64.6426 228,-48.528 228,-35.8504"/>
<polygon fill="midnightblue" stroke="midnightblue" points="231.5,-35.8411 228,-25.8411 224.5,-35.8412 231.5,-35.8411"/>
</g>
<!-- Node32&#45;&gt;Node33 -->
<g id="edge39" class="edge"><title>Node32&#45;&gt;Node33</title>
<path fill="none" stroke="midnightblue" d="M207.214,-74.3717C179.641,-62.9265 130.78,-42.6445 99.1535,-29.5165"/>
<polygon fill="midnightblue" stroke="midnightblue" points="100.117,-26.1271 89.5396,-25.5259 97.4337,-32.5923 100.117,-26.1271"/>
</g>
<!-- Node36&#45;&gt;Node7 -->
<g id="edge49" class="edge"><title>Node36&#45;&gt;Node7</title>
<path fill="none" stroke="midnightblue" d="M1830.87,-192.308C1815.55,-167.319 1767.33,-95.329 1705,-68 1595.34,-19.9226 747.658,-36.2434 628,-32 491.21,-27.149 328.127,-20.8833 260.183,-18.2513"/>
<polygon fill="midnightblue" stroke="midnightblue" points="260.242,-14.7511 250.114,-17.8609 259.971,-21.7458 260.242,-14.7511"/>
</g>
<!-- Node36&#45;&gt;Node17 -->
<g id="edge51" class="edge"><title>Node36&#45;&gt;Node17</title>
<path fill="none" stroke="midnightblue" d="M1789.89,-198.039C1651.09,-189.127 1236.43,-162.502 1067.66,-151.665"/>
<polygon fill="midnightblue" stroke="midnightblue" points="1067.83,-148.169 1057.63,-151.021 1067.38,-155.155 1067.83,-148.169"/>
</g>
<!-- Node36&#45;&gt;Node24 -->
<g id="edge50" class="edge"><title>Node36&#45;&gt;Node24</title>
<path fill="none" stroke="midnightblue" d="M1837.28,-192.281C1840.02,-173.547 1846.54,-129.098 1850.26,-103.682"/>
<polygon fill="midnightblue" stroke="midnightblue" points="1853.77,-103.907 1851.75,-93.5048 1846.84,-102.892 1853.77,-103.907"/>
</g>
<!-- Node38 -->
<g id="node38" class="node"><title>Node38</title>
<polygon fill="none" stroke="#bfbfbf" points="1859.5,-249 1859.5,-279 1954.5,-279 1954.5,-249 1859.5,-249"/>
<text text-anchor="start" x="1867.5" y="-267" font-family="Helvetica,sans-Serif" font-size="10.00">boost/serialization</text>
<text text-anchor="middle" x="1907" y="-256" font-family="Helvetica,sans-Serif" font-size="10.00">/base_object.hpp</text>
</g>
<!-- Node37&#45;&gt;Node38 -->
<g id="edge53" class="edge"><title>Node37&#45;&gt;Node38</title>
<path fill="none" stroke="midnightblue" d="M1917.28,-316.403C1915.85,-309.265 1913.75,-298.752 1911.82,-289.09"/>
<polygon fill="midnightblue" stroke="midnightblue" points="1915.22,-288.26 1909.83,-279.141 1908.36,-289.633 1915.22,-288.26"/>
</g>
<!-- Node39 -->
<g id="node39" class="node"><title>Node39</title>
<polygon fill="none" stroke="#bfbfbf" points="1973,-254.5 1973,-273.5 2065,-273.5 2065,-254.5 1973,-254.5"/>
<text text-anchor="middle" x="2019" y="-261.5" font-family="Helvetica,sans-Serif" font-size="10.00">FairTimeStamp.h</text>
</g>
<!-- Node37&#45;&gt;Node39 -->
<g id="edge54" class="edge"><title>Node37&#45;&gt;Node39</title>
<path fill="none" stroke="midnightblue" d="M1933.33,-316.403C1949.66,-306.601 1976.6,-290.439 1995.91,-278.853"/>
<polygon fill="midnightblue" stroke="midnightblue" points="1997.92,-281.727 2004.7,-273.581 1994.32,-275.724 1997.92,-281.727"/>
</g>
</g>
</svg>
        <g id="navigator" transform="translate(0 0)" fill="#404254">
                <rect fill="#f2f5e9" fill-opacity="0.5" stroke="#606060" stroke-width=".5" x="0" y="0" width="60" height="60"/>
                <use id="zoomplus" xlink:href="#zoomPlus" x="17" y="9" onmousedown="handleZoom(evt,'in')"/>
                <use id="zoomminus" xlink:href="#zoomMin" x="42" y="9" onmousedown="handleZoom(evt,'out')"/>
                <use id="reset" xlink:href="#resetDef" x="30" y="36" onmousedown="handleReset()"/>
                <g id="arrowUp" xlink:href="#dirArrow" transform="translate(30 24)" onmousedown="handlePan(0,-1)">
                  <use xlink:href="#rim" fill="#404040">
                        <set attributeName="fill" to="#808080" begin="arrowUp.mouseover" end="arrowUp.mouseout"/>
                  </use>
                  <path fill="none" stroke="white" stroke-width="1.5" d="M0,-3.0v7 M-2.5,-0.5L0,-3.0L2.5,-0.5"/>
                </g>
                <g id="arrowRight" xlink:href="#dirArrow" transform="rotate(90) translate(36 -43)" onmousedown="handlePan(1,0)">
                  <use xlink:href="#rim" fill="#404040">
                        <set attributeName="fill" to="#808080" begin="arrowRight.mouseover" end="arrowRight.mouseout"/>
                  </use>
                  <path fill="none" stroke="white" stroke-width="1.5" d="M0,-3.0v7 M-2.5,-0.5L0,-3.0L2.5,-0.5"/>
                </g>
                <g id="arrowDown" xlink:href="#dirArrow" transform="rotate(180) translate(-30 -48)" onmousedown="handlePan(0,1)">
                  <use xlink:href="#rim" fill="#404040">
                        <set attributeName="fill" to="#808080" begin="arrowDown.mouseover" end="arrowDown.mouseout"/>
                  </use>
                  <path fill="none" stroke="white" stroke-width="1.5" d="M0,-3.0v7 M-2.5,-0.5L0,-3.0L2.5,-0.5"/>
                </g>
                <g id="arrowLeft" xlink:href="#dirArrow" transform="rotate(270) translate(-36 17)" onmousedown="handlePan(-1,0)">
                  <use xlink:href="#rim" fill="#404040">
                        <set attributeName="fill" to="#808080" begin="arrowLeft.mouseover" end="arrowLeft.mouseout"/>
                  </use>
                  <path fill="none" stroke="white" stroke-width="1.5" d="M0,-3.0v7 M-2.5,-0.5L0,-3.0L2.5,-0.5"/>
                </g>
        </g>
        <svg viewBox="0 0 15 15" width="100%" height="30px" preserveAspectRatio="xMaxYMin meet">
         <g id="arrow_out" transform="scale(0.3 0.3)">
          <a xlink:href="TrackTPC_8h__incl_org.svg" target="_base">
           <rect id="button" ry="5" rx="5" y="6" x="6" height="38" width="38"
                fill="#f2f5e9" fill-opacity="0.5" stroke="#606060" stroke-width="1.0"/>
           <path id="arrow"
             d="M 11.500037,31.436501 C 11.940474,20.09759 22.043105,11.32322 32.158766,21.979434 L 37.068811,17.246167 C 37.068811,17.246167 37.088388,32 37.088388,32 L 22.160133,31.978069 C 22.160133,31.978069 26.997745,27.140456 26.997745,27.140456 C 18.528582,18.264221 13.291696,25.230495 11.500037,31.436501 z"
             style="fill:#404040;"/>
          </a>
         </g>
        </svg>
</svg>
