<?xml version="1.0" encoding="UTF-8" standalone="no"?>
<!DOCTYPE svg PUBLIC "-//W3C//DTD SVG 1.1//EN"
 "http://www.w3.org/Graphics/SVG/1.1/DTD/svg11.dtd">
<!-- Generated by graphviz version 2.36.0 (20140111.2315)
 -->
<!-- Title: o2::framework::DeviceInfo Pages: 1 -->
<svg width="398pt" height="182pt"
 viewBox="0.00 0.00 398.00 182.00" xmlns="http://www.w3.org/2000/svg" xmlns:xlink="http://www.w3.org/1999/xlink">
<g id="graph0" class="graph" transform="scale(1 1) rotate(0) translate(4 178)">
<title>o2::framework::DeviceInfo</title>
<!-- Node1 -->
<g id="node1" class="node"><title>Node1</title>
<polygon fill="#bfbfbf" stroke="black" points="159,-0.5 159,-57.5 291,-57.5 291,-0.5 159,-0.5"/>
<text text-anchor="middle" x="225" y="-45.5" font-family="Helvetica,sans-Serif" font-size="10.00">o2::framework::DeviceInfo</text>
<polyline fill="none" stroke="black" points="159,-38.5 291,-38.5 "/>
<text text-anchor="middle" x="225" y="-26.5" font-family="Helvetica,sans-Serif" font-size="10.00"> </text>
<polyline fill="none" stroke="black" points="159,-19.5 291,-19.5 "/>
<text text-anchor="middle" x="225" y="-7.5" font-family="Helvetica,sans-Serif" font-size="10.00"> </text>
</g>
<!-- Node2 -->
<g id="node2" class="node"><title>Node2</title>
<polygon fill="none" stroke="#bfbfbf" points="-0.5,-116.5 -0.5,-173.5 104.5,-173.5 104.5,-116.5 -0.5,-116.5"/>
<text text-anchor="middle" x="52" y="-161.5" font-family="Helvetica,sans-Serif" font-size="10.00">vector&lt; std::string &gt;</text>
<polyline fill="none" stroke="#bfbfbf" points="-0.5,-154.5 104.5,-154.5 "/>
<text text-anchor="middle" x="52" y="-142.5" font-family="Helvetica,sans-Serif" font-size="10.00"> </text>
<polyline fill="none" stroke="#bfbfbf" points="-0.5,-135.5 104.5,-135.5 "/>
<text text-anchor="middle" x="52" y="-123.5" font-family="Helvetica,sans-Serif" font-size="10.00"> </text>
</g>
<!-- Node2&#45;&gt;Node1 -->
<g id="edge1" class="edge"><title>Node2&#45;&gt;Node1</title>
<path fill="none" stroke="#404040" d="M70.6516,-116.347C80.9557,-102.738 94.7473,-86.9479 110,-76 121.464,-67.7714 134.608,-60.7388 147.816,-54.8296"/>
<polygon fill="none" stroke="#404040" points="147.846,-54.8173 151.806,-48.7909 158.892,-50.1285 154.932,-56.155 147.846,-54.8173"/>
<text text-anchor="middle" x="129.5" y="-84.5" font-family="Helvetica,sans-Serif" font-size="10.00"> +history</text>
</g>
<!-- Node3 -->
<g id="node3" class="node"><title>Node3</title>
<polygon fill="none" stroke="#bfbfbf" points="122.5,-116.5 122.5,-173.5 165.5,-173.5 165.5,-116.5 122.5,-116.5"/>
<text text-anchor="middle" x="144" y="-161.5" font-family="Helvetica,sans-Serif" font-size="10.00">size_t</text>
<polyline fill="none" stroke="#bfbfbf" points="122.5,-154.5 165.5,-154.5 "/>
<text text-anchor="middle" x="144" y="-142.5" font-family="Helvetica,sans-Serif" font-size="10.00"> </text>
<polyline fill="none" stroke="#bfbfbf" points="122.5,-135.5 165.5,-135.5 "/>
<text text-anchor="middle" x="144" y="-123.5" font-family="Helvetica,sans-Serif" font-size="10.00"> </text>
</g>
<!-- Node3&#45;&gt;Node1 -->
<g id="edge2" class="edge"><title>Node3&#45;&gt;Node1</title>
<path fill="none" stroke="#404040" d="M147.466,-116.413C150.126,-103.296 154.803,-87.9175 163,-76 165.389,-72.5266 168.127,-69.2123 171.092,-66.0704"/>
<polygon fill="none" stroke="#404040" points="171.235,-65.935 172.841,-58.905 179.948,-57.6837 178.342,-64.7137 171.235,-65.935"/>
<text text-anchor="middle" x="192" y="-90" font-family="Helvetica,sans-Serif" font-size="10.00"> +historySize</text>
<text text-anchor="middle" x="192" y="-79" font-family="Helvetica,sans-Serif" font-size="10.00">+historyPos</text>
</g>
<!-- Node4 -->
<g id="node4" class="node"><title>Node4</title>
<polygon fill="none" stroke="#bfbfbf" points="210.5,-116.5 210.5,-173.5 239.5,-173.5 239.5,-116.5 210.5,-116.5"/>
<text text-anchor="middle" x="225" y="-161.5" font-family="Helvetica,sans-Serif" font-size="10.00">int</text>
<polyline fill="none" stroke="#bfbfbf" points="210.5,-154.5 239.5,-154.5 "/>
<text text-anchor="middle" x="225" y="-142.5" font-family="Helvetica,sans-Serif" font-size="10.00"> </text>
<polyline fill="none" stroke="#bfbfbf" points="210.5,-135.5 239.5,-135.5 "/>
<text text-anchor="middle" x="225" y="-123.5" font-family="Helvetica,sans-Serif" font-size="10.00"> </text>
</g>
<!-- Node4&#45;&gt;Node1 -->
<g id="edge3" class="edge"><title>Node4&#45;&gt;Node1</title>
<path fill="none" stroke="#404040" d="M225,-116.404C225,-102.504 225,-85.3915 225,-70.073"/>
<polygon fill="none" stroke="#404040" points="225,-69.7372 221,-63.7372 225,-57.7372 229,-63.7372 225,-69.7372"/>
<text text-anchor="middle" x="249.5" y="-84.5" font-family="Helvetica,sans-Serif" font-size="10.00"> +unprinted</text>
</g>
<!-- Node5 -->
<g id="node5" class="node"><title>Node5</title>
<polygon fill="none" stroke="#bfbfbf" points="278,-116.5 278,-173.5 316,-173.5 316,-116.5 278,-116.5"/>
<text text-anchor="middle" x="297" y="-161.5" font-family="Helvetica,sans-Serif" font-size="10.00">pid_t</text>
<polyline fill="none" stroke="#bfbfbf" points="278,-154.5 316,-154.5 "/>
<text text-anchor="middle" x="297" y="-142.5" font-family="Helvetica,sans-Serif" font-size="10.00"> </text>
<polyline fill="none" stroke="#bfbfbf" points="278,-135.5 316,-135.5 "/>
<text text-anchor="middle" x="297" y="-123.5" font-family="Helvetica,sans-Serif" font-size="10.00"> </text>
</g>
<!-- Node5&#45;&gt;Node1 -->
<g id="edge4" class="edge"><title>Node5&#45;&gt;Node1</title>
<path fill="none" stroke="#404040" d="M291.514,-116.438C288.102,-103.476 282.834,-88.2224 275,-76 272.9,-72.7229 270.51,-69.5263 267.94,-66.4438"/>
<polygon fill="none" stroke="#404040" points="267.914,-66.4153 260.91,-64.6983 259.802,-57.573 266.805,-59.2899 267.914,-66.4153"/>
<text text-anchor="middle" x="297" y="-84.5" font-family="Helvetica,sans-Serif" font-size="10.00"> +pid</text>
</g>
<!-- Node6 -->
<g id="node6" class="node"><title>Node6</title>
<polygon fill="none" stroke="#bfbfbf" points="334.5,-116.5 334.5,-173.5 369.5,-173.5 369.5,-116.5 334.5,-116.5"/>
<text text-anchor="middle" x="352" y="-161.5" font-family="Helvetica,sans-Serif" font-size="10.00">bool</text>
<polyline fill="none" stroke="#bfbfbf" points="334.5,-154.5 369.5,-154.5 "/>
<text text-anchor="middle" x="352" y="-142.5" font-family="Helvetica,sans-Serif" font-size="10.00"> </text>
<polyline fill="none" stroke="#bfbfbf" points="334.5,-135.5 369.5,-135.5 "/>
<text text-anchor="middle" x="352" y="-123.5" font-family="Helvetica,sans-Serif" font-size="10.00"> </text>
</g>
<!-- Node6&#45;&gt;Node1 -->
<g id="edge5" class="edge"><title>Node6&#45;&gt;Node1</title>
<path fill="none" stroke="#404040" d="M340.188,-116.431C333.414,-103.007 323.882,-87.3554 312,-76 307.746,-71.9349 303.063,-68.1311 298.142,-64.5918"/>
<polygon fill="none" stroke="#404040" points="297.764,-64.3409 290.553,-64.3518 287.769,-57.6996 294.98,-57.6887 297.764,-64.3409"/>
<text text-anchor="middle" x="360" y="-90" font-family="Helvetica,sans-Serif" font-size="10.00"> +active</text>
<text text-anchor="middle" x="360" y="-79" font-family="Helvetica,sans-Serif" font-size="10.00">+readyToQuit</text>
</g>
</g>
</svg>
