<?xml version="1.0" encoding="UTF-8" standalone="no"?>
<!DOCTYPE svg PUBLIC "-//W3C//DTD SVG 1.1//EN"
 "http://www.w3.org/Graphics/SVG/1.1/DTD/svg11.dtd">
<!-- Generated by graphviz version 2.36.0 (20140111.2315)
 -->
<!-- Title: /home/travis/build/AliceO2Group/AliceO2/run/o2sim.cxx Pages: 1 -->
<!--zoomable 230 -->
<svg id="main" version="1.1" xmlns="http://www.w3.org/2000/svg" xmlns:xlink="http://www.w3.org/1999/xlink" xml:space="preserve" onload="init(evt)">
<style type="text/css"><![CDATA[
.edge:hover path { stroke: red; }
.edge:hover polygon { stroke: red; fill: red; }
]]></style>
<script type="text/javascript"><![CDATA[
var edges = document.getElementsByTagName('g');
if (edges && edges.length) {
  for (var i=0;i<edges.length;i++) {
    if (edges[i].id.substr(0,4)=='edge') {
      edges[i].setAttribute('class','edge');
    }
  }
}
]]></script>
        <defs>
                <circle id="rim" cx="0" cy="0" r="7"/>
                <circle id="rim2" cx="0" cy="0" r="3.5"/>
                <g id="zoomPlus">
                        <use xlink:href="#rim" fill="#404040">
                                <set attributeName="fill" to="#808080" begin="zoomplus.mouseover" end="zoomplus.mouseout"/>
                        </use>
                        <path d="M-4,0h8M0,-4v8" fill="none" stroke="white" stroke-width="1.5" pointer-events="none"/>
                </g>
                <g id="zoomMin">
                        <use xlink:href="#rim" fill="#404040">
                                <set attributeName="fill" to="#808080" begin="zoomminus.mouseover" end="zoomminus.mouseout"/>
                        </use>
                        <path d="M-4,0h8" fill="none" stroke="white" stroke-width="1.5" pointer-events="none"/>
                </g>
                <g id="dirArrow">
                        <path fill="none" stroke="white" stroke-width="1.5" d="M0,-3.0v7 M-2.5,-0.5L0,-3.0L2.5,-0.5"/>
                </g>
               <g id="resetDef">
                       <use xlink:href="#rim2" fill="#404040">
                               <set attributeName="fill" to="#808080" begin="reset.mouseover" end="reset.mouseout"/>
                       </use>
               </g>
        </defs>

<script type="text/javascript">
var viewWidth = 1040;
var viewHeight = 230;
var sectionId = 'dynsection-0';
</script>
<script xlink:href="../../svgpan.js"/>
<svg id="graph" class="graph">
<g id="viewport">
<title>/home/travis/build/AliceO2Group/AliceO2/run/o2sim.cxx</title>
<!-- Node1 -->
<g id="node1" class="node"><title>Node1</title>
<polygon fill="#bfbfbf" stroke="black" points="613,-180.5 613,-221.5 731,-221.5 731,-180.5 613,-180.5"/>
<text text-anchor="start" x="621" y="-209.5" font-family="Helvetica,sans-Serif" font-size="10.00">/home/travis/build</text>
<text text-anchor="start" x="621" y="-198.5" font-family="Helvetica,sans-Serif" font-size="10.00">/AliceO2Group/AliceO2</text>
<text text-anchor="middle" x="672" y="-187.5" font-family="Helvetica,sans-Serif" font-size="10.00">/run/o2sim.cxx</text>
</g>
<!-- Node2 -->
<g id="node2" class="node"><title>Node2</title>
<g id="a_node2"><a xlink:href="../../dc/d6b/o2sim_8C.html" target="_top" xlink:title="../macro/o2sim.C">
<polygon fill="none" stroke="black" points="483,-124.5 483,-143.5 575,-143.5 575,-124.5 483,-124.5"/>
<text text-anchor="middle" x="529" y="-131.5" font-family="Helvetica,sans-Serif" font-size="10.00">../macro/o2sim.C</text>
</a>
</g>
</g>
<!-- Node1&#45;&gt;Node2 -->
<g id="edge1" class="edge"><title>Node1&#45;&gt;Node2</title>
<path fill="none" stroke="midnightblue" d="M629.095,-180.498C605.8,-169.909 577.657,-157.117 557.153,-147.797"/>
<polygon fill="midnightblue" stroke="midnightblue" points="558.587,-144.604 548.035,-143.652 555.691,-150.977 558.587,-144.604"/>
</g>
<!-- Node10 -->
<g id="node10" class="node"><title>Node10</title>
<g id="a_node10"><a xlink:href="../../d4/dee/SimConfig_8h.html" target="_top" xlink:title="SimConfig/SimConfig.h">
<polygon fill="none" stroke="black" points="913.5,-62.5 913.5,-81.5 1032.5,-81.5 1032.5,-62.5 913.5,-62.5"/>
<text text-anchor="middle" x="973" y="-69.5" font-family="Helvetica,sans-Serif" font-size="10.00">SimConfig/SimConfig.h</text>
</a>
</g>
</g>
<!-- Node1&#45;&gt;Node10 -->
<g id="edge13" class="edge"><title>Node1&#45;&gt;Node10</title>
<path fill="none" stroke="midnightblue" d="M718.372,-180.435C780.961,-154.027 890.677,-107.734 943.258,-85.5492"/>
<polygon fill="midnightblue" stroke="midnightblue" points="944.831,-88.6841 952.684,-81.5719 942.11,-82.2346 944.831,-88.6841"/>
</g>
<!-- Node3 -->
<g id="node3" class="node"><title>Node3</title>
<polygon fill="none" stroke="#bfbfbf" points="651.5,-62.5 651.5,-81.5 744.5,-81.5 744.5,-62.5 651.5,-62.5"/>
<text text-anchor="middle" x="698" y="-69.5" font-family="Helvetica,sans-Serif" font-size="10.00">build_geometry.C</text>
</g>
<!-- Node2&#45;&gt;Node3 -->
<g id="edge2" class="edge"><title>Node2&#45;&gt;Node3</title>
<path fill="none" stroke="midnightblue" d="M553.214,-124.403C582.329,-114.067 631.368,-96.6564 664.202,-84.9994"/>
<polygon fill="midnightblue" stroke="midnightblue" points="665.579,-88.2247 673.831,-81.5806 663.237,-81.6281 665.579,-88.2247"/>
</g>
<!-- Node4 -->
<g id="node4" class="node"><title>Node4</title>
<polygon fill="none" stroke="#bfbfbf" points="-0.5,-62.5 -0.5,-81.5 100.5,-81.5 100.5,-62.5 -0.5,-62.5"/>
<text text-anchor="middle" x="50" y="-69.5" font-family="Helvetica,sans-Serif" font-size="10.00">FairBoxGenerator.h</text>
</g>
<!-- Node2&#45;&gt;Node4 -->
<g id="edge3" class="edge"><title>Node2&#45;&gt;Node4</title>
<path fill="none" stroke="midnightblue" d="M482.826,-130.133C405.32,-124.854 244.339,-111.888 110,-88 103.687,-86.8774 97.0541,-85.4623 90.5943,-83.9522"/>
<polygon fill="midnightblue" stroke="midnightblue" points="91.201,-80.4976 80.6565,-81.5295 89.5429,-87.2985 91.201,-80.4976"/>
</g>
<!-- Node5 -->
<g id="node5" class="node"><title>Node5</title>
<polygon fill="none" stroke="#bfbfbf" points="119,-62.5 119,-81.5 237,-81.5 237,-62.5 119,-62.5"/>
<text text-anchor="middle" x="178" y="-69.5" font-family="Helvetica,sans-Serif" font-size="10.00">FairPrimaryGenerator.h</text>
</g>
<!-- Node2&#45;&gt;Node5 -->
<g id="edge4" class="edge"><title>Node2&#45;&gt;Node5</title>
<path fill="none" stroke="midnightblue" d="M482.95,-126.458C427.005,-118.324 329.826,-103.599 247,-88 240.12,-86.7043 232.876,-85.2402 225.772,-83.7473"/>
<polygon fill="midnightblue" stroke="midnightblue" points="226.035,-80.2244 215.524,-81.5557 224.571,-87.0696 226.035,-80.2244"/>
</g>
<!-- Node6 -->
<g id="node6" class="node"><title>Node6</title>
<polygon fill="none" stroke="#bfbfbf" points="255.5,-62.5 255.5,-81.5 332.5,-81.5 332.5,-62.5 255.5,-62.5"/>
<text text-anchor="middle" x="294" y="-69.5" font-family="Helvetica,sans-Serif" font-size="10.00">TStopwatch.h</text>
</g>
<!-- Node2&#45;&gt;Node6 -->
<g id="edge5" class="edge"><title>Node2&#45;&gt;Node6</title>
<path fill="none" stroke="midnightblue" d="M490.127,-124.441C452.168,-115.897 392.855,-102.048 342,-88 338.134,-86.9321 334.11,-85.7644 330.109,-84.5672"/>
<polygon fill="midnightblue" stroke="midnightblue" points="330.901,-81.1494 320.314,-81.5703 328.853,-87.8431 330.901,-81.1494"/>
</g>
<!-- Node7 -->
<g id="node7" class="node"><title>Node7</title>
<polygon fill="none" stroke="#bfbfbf" points="351,-62.5 351,-81.5 403,-81.5 403,-62.5 351,-62.5"/>
<text text-anchor="middle" x="377" y="-69.5" font-family="Helvetica,sans-Serif" font-size="10.00">memory</text>
</g>
<!-- Node2&#45;&gt;Node7 -->
<g id="edge6" class="edge"><title>Node2&#45;&gt;Node7</title>
<path fill="none" stroke="midnightblue" d="M506.263,-124.37C482.828,-115.431 445.266,-100.978 413,-88 411.115,-87.242 409.178,-86.4557 407.227,-85.658"/>
<polygon fill="midnightblue" stroke="midnightblue" points="408.104,-82.2337 397.525,-81.6548 405.434,-88.7045 408.104,-82.2337"/>
</g>
<!-- Node8 -->
<g id="node8" class="node"><title>Node8</title>
<polygon fill="none" stroke="#bfbfbf" points="421.5,-62.5 421.5,-81.5 522.5,-81.5 522.5,-62.5 421.5,-62.5"/>
<text text-anchor="middle" x="472" y="-69.5" font-family="Helvetica,sans-Serif" font-size="10.00">FairParRootFileIo.h</text>
</g>
<!-- Node2&#45;&gt;Node8 -->
<g id="edge7" class="edge"><title>Node2&#45;&gt;Node8</title>
<path fill="none" stroke="midnightblue" d="M520.833,-124.403C512.114,-115.225 498.096,-100.47 487.311,-89.1173"/>
<polygon fill="midnightblue" stroke="midnightblue" points="489.577,-86.42 480.152,-81.5806 484.502,-91.2412 489.577,-86.42"/>
</g>
<!-- Node9 -->
<g id="node9" class="node"><title>Node9</title>
<polygon fill="none" stroke="#bfbfbf" points="541,-62.5 541,-81.5 633,-81.5 633,-62.5 541,-62.5"/>
<text text-anchor="middle" x="587" y="-69.5" font-family="Helvetica,sans-Serif" font-size="10.00">FairSystemInfo.h</text>
</g>
<!-- Node2&#45;&gt;Node9 -->
<g id="edge8" class="edge"><title>Node2&#45;&gt;Node9</title>
<path fill="none" stroke="midnightblue" d="M537.31,-124.403C546.268,-115.136 560.723,-100.183 571.739,-88.7876"/>
<polygon fill="midnightblue" stroke="midnightblue" points="574.272,-91.2031 578.705,-81.5806 569.239,-86.3379 574.272,-91.2031"/>
</g>
<!-- Node2&#45;&gt;Node10 -->
<g id="edge9" class="edge"><title>Node2&#45;&gt;Node10</title>
<path fill="none" stroke="midnightblue" d="M575.094,-128.886C646.042,-122.235 786.154,-107.834 904,-88 911.481,-86.7409 919.377,-85.214 927.051,-83.6224"/>
<polygon fill="midnightblue" stroke="midnightblue" points="927.906,-87.0187 936.956,-81.5098 926.446,-80.1727 927.906,-87.0187"/>
</g>
<!-- Node12 -->
<g id="node12" class="node"><title>Node12</title>
<g id="a_node12"><a xlink:href="../../de/daf/GeneratorFromFile_8h.html" target="_top" xlink:title="Generators/GeneratorFrom\lFile.h">
<polygon fill="none" stroke="black" points="762.5,-57 762.5,-87 895.5,-87 895.5,-57 762.5,-57"/>
<text text-anchor="start" x="770.5" y="-75" font-family="Helvetica,sans-Serif" font-size="10.00">Generators/GeneratorFrom</text>
<text text-anchor="middle" x="829" y="-64" font-family="Helvetica,sans-Serif" font-size="10.00">File.h</text>
</a>
</g>
</g>
<!-- Node2&#45;&gt;Node12 -->
<g id="edge11" class="edge"><title>Node2&#45;&gt;Node12</title>
<path fill="none" stroke="midnightblue" d="M571.664,-124.467C618.59,-115.082 694.947,-99.8106 752.323,-88.3354"/>
<polygon fill="midnightblue" stroke="midnightblue" points="753.322,-91.7049 762.442,-86.3117 751.949,-84.8409 753.322,-91.7049"/>
</g>
<!-- Node11 -->
<g id="node11" class="node"><title>Node11</title>
<polygon fill="none" stroke="#bfbfbf" points="945,-0.5 945,-19.5 1001,-19.5 1001,-0.5 945,-0.5"/>
<text text-anchor="middle" x="973" y="-7.5" font-family="Helvetica,sans-Serif" font-size="10.00">Rtypes.h</text>
</g>
<!-- Node10&#45;&gt;Node11 -->
<g id="edge10" class="edge"><title>Node10&#45;&gt;Node11</title>
<path fill="none" stroke="midnightblue" d="M973,-62.4035C973,-53.9381 973,-40.7283 973,-29.8199"/>
<polygon fill="midnightblue" stroke="midnightblue" points="976.5,-29.5806 973,-19.5806 969.5,-29.5806 976.5,-29.5806"/>
</g>
<!-- Node13 -->
<g id="node13" class="node"><title>Node13</title>
<polygon fill="none" stroke="#bfbfbf" points="787,-0.5 787,-19.5 871,-19.5 871,-0.5 787,-0.5"/>
<text text-anchor="middle" x="829" y="-7.5" font-family="Helvetica,sans-Serif" font-size="10.00">FairGenerator.h</text>
</g>
<!-- Node12&#45;&gt;Node13 -->
<g id="edge12" class="edge"><title>Node12&#45;&gt;Node13</title>
<path fill="none" stroke="midnightblue" d="M829,-56.7808C829,-48.7812 829,-38.6887 829,-30.0168"/>
<polygon fill="midnightblue" stroke="midnightblue" points="832.5,-29.7305 829,-19.7305 825.5,-29.7306 832.5,-29.7305"/>
</g>
</g>
</svg>
        <g id="navigator" transform="translate(0 0)" fill="#404254">
                <rect fill="#f2f5e9" fill-opacity="0.5" stroke="#606060" stroke-width=".5" x="0" y="0" width="60" height="60"/>
                <use id="zoomplus" xlink:href="#zoomPlus" x="17" y="9" onmousedown="handleZoom(evt,'in')"/>
                <use id="zoomminus" xlink:href="#zoomMin" x="42" y="9" onmousedown="handleZoom(evt,'out')"/>
                <use id="reset" xlink:href="#resetDef" x="30" y="36" onmousedown="handleReset()"/>
                <g id="arrowUp" xlink:href="#dirArrow" transform="translate(30 24)" onmousedown="handlePan(0,-1)">
                  <use xlink:href="#rim" fill="#404040">
                        <set attributeName="fill" to="#808080" begin="arrowUp.mouseover" end="arrowUp.mouseout"/>
                  </use>
                  <path fill="none" stroke="white" stroke-width="1.5" d="M0,-3.0v7 M-2.5,-0.5L0,-3.0L2.5,-0.5"/>
                </g>
                <g id="arrowRight" xlink:href="#dirArrow" transform="rotate(90) translate(36 -43)" onmousedown="handlePan(1,0)">
                  <use xlink:href="#rim" fill="#404040">
                        <set attributeName="fill" to="#808080" begin="arrowRight.mouseover" end="arrowRight.mouseout"/>
                  </use>
                  <path fill="none" stroke="white" stroke-width="1.5" d="M0,-3.0v7 M-2.5,-0.5L0,-3.0L2.5,-0.5"/>
                </g>
                <g id="arrowDown" xlink:href="#dirArrow" transform="rotate(180) translate(-30 -48)" onmousedown="handlePan(0,1)">
                  <use xlink:href="#rim" fill="#404040">
                        <set attributeName="fill" to="#808080" begin="arrowDown.mouseover" end="arrowDown.mouseout"/>
                  </use>
                  <path fill="none" stroke="white" stroke-width="1.5" d="M0,-3.0v7 M-2.5,-0.5L0,-3.0L2.5,-0.5"/>
                </g>
                <g id="arrowLeft" xlink:href="#dirArrow" transform="rotate(270) translate(-36 17)" onmousedown="handlePan(-1,0)">
                  <use xlink:href="#rim" fill="#404040">
                        <set attributeName="fill" to="#808080" begin="arrowLeft.mouseover" end="arrowLeft.mouseout"/>
                  </use>
                  <path fill="none" stroke="white" stroke-width="1.5" d="M0,-3.0v7 M-2.5,-0.5L0,-3.0L2.5,-0.5"/>
                </g>
        </g>
        <svg viewBox="0 0 15 15" width="100%" height="30px" preserveAspectRatio="xMaxYMin meet">
         <g id="arrow_out" transform="scale(0.3 0.3)">
          <a xlink:href="o2sim_8cxx__incl_org.svg" target="_base">
           <rect id="button" ry="5" rx="5" y="6" x="6" height="38" width="38"
                fill="#f2f5e9" fill-opacity="0.5" stroke="#606060" stroke-width="1.0"/>
           <path id="arrow"
             d="M 11.500037,31.436501 C 11.940474,20.09759 22.043105,11.32322 32.158766,21.979434 L 37.068811,17.246167 C 37.068811,17.246167 37.088388,32 37.088388,32 L 22.160133,31.978069 C 22.160133,31.978069 26.997745,27.140456 26.997745,27.140456 C 18.528582,18.264221 13.291696,25.230495 11.500037,31.436501 z"
             style="fill:#404040;"/>
          </a>
         </g>
        </svg>
</svg>
