<?xml version="1.0" encoding="UTF-8" standalone="no"?>
<!DOCTYPE svg PUBLIC "-//W3C//DTD SVG 1.1//EN"
 "http://www.w3.org/Graphics/SVG/1.1/DTD/svg11.dtd">
<!-- Generated by graphviz version 2.36.0 (20140111.2315)
 -->
<!-- Title: o2::field::MagneticField Pages: 1 -->
<!--zoomable 812 -->
<svg id="main" version="1.1" xmlns="http://www.w3.org/2000/svg" xmlns:xlink="http://www.w3.org/1999/xlink" xml:space="preserve" onload="init(evt)">
<style type="text/css"><![CDATA[
.edge:hover path { stroke: red; }
.edge:hover polygon { stroke: red; fill: red; }
]]></style>
<script type="text/javascript"><![CDATA[
var edges = document.getElementsByTagName('g');
if (edges && edges.length) {
  for (var i=0;i<edges.length;i++) {
    if (edges[i].id.substr(0,4)=='edge') {
      edges[i].setAttribute('class','edge');
    }
  }
}
]]></script>
        <defs>
                <circle id="rim" cx="0" cy="0" r="7"/>
                <circle id="rim2" cx="0" cy="0" r="3.5"/>
                <g id="zoomPlus">
                        <use xlink:href="#rim" fill="#404040">
                                <set attributeName="fill" to="#808080" begin="zoomplus.mouseover" end="zoomplus.mouseout"/>
                        </use>
                        <path d="M-4,0h8M0,-4v8" fill="none" stroke="white" stroke-width="1.5" pointer-events="none"/>
                </g>
                <g id="zoomMin">
                        <use xlink:href="#rim" fill="#404040">
                                <set attributeName="fill" to="#808080" begin="zoomminus.mouseover" end="zoomminus.mouseout"/>
                        </use>
                        <path d="M-4,0h8" fill="none" stroke="white" stroke-width="1.5" pointer-events="none"/>
                </g>
                <g id="dirArrow">
                        <path fill="none" stroke="white" stroke-width="1.5" d="M0,-3.0v7 M-2.5,-0.5L0,-3.0L2.5,-0.5"/>
                </g>
               <g id="resetDef">
                       <use xlink:href="#rim2" fill="#404040">
                               <set attributeName="fill" to="#808080" begin="reset.mouseover" end="reset.mouseout"/>
                       </use>
               </g>
        </defs>

<script type="text/javascript">
var viewWidth = 1180;
var viewHeight = 812;
var sectionId = 'dynsection-1';
</script>
<script xlink:href="../../svgpan.js"/>
<svg id="graph" class="graph">
<g id="viewport">
<title>o2::field::MagneticField</title>
<!-- Node1 -->
<g id="node1" class="node"><title>Node1</title>
<polygon fill="#bfbfbf" stroke="black" points="438.5,-1 438.5,-575 597.5,-575 597.5,-1 438.5,-1"/>
<text text-anchor="middle" x="518" y="-563" font-family="Helvetica,sans-Serif" font-size="10.00">o2::field::MagneticField</text>
<polyline fill="none" stroke="black" points="438.5,-556 597.5,-556 "/>
<text text-anchor="start" x="446.5" y="-544" font-family="Helvetica,sans-Serif" font-size="10.00"># mDipoleField</text>
<polyline fill="none" stroke="black" points="438.5,-537 597.5,-537 "/>
<text text-anchor="start" x="446.5" y="-525" font-family="Helvetica,sans-Serif" font-size="10.00">+ MagneticField()</text>
<text text-anchor="start" x="446.5" y="-514" font-family="Helvetica,sans-Serif" font-size="10.00">+ MagneticField()</text>
<text text-anchor="start" x="446.5" y="-503" font-family="Helvetica,sans-Serif" font-size="10.00">+ MagneticField()</text>
<text text-anchor="start" x="446.5" y="-492" font-family="Helvetica,sans-Serif" font-size="10.00">+ operator=()</text>
<text text-anchor="start" x="446.5" y="-481" font-family="Helvetica,sans-Serif" font-size="10.00">+ ~MagneticField()</text>
<text text-anchor="start" x="446.5" y="-470" font-family="Helvetica,sans-Serif" font-size="10.00">+ CreateField()</text>
<text text-anchor="start" x="446.5" y="-459" font-family="Helvetica,sans-Serif" font-size="10.00">+ AllowFastField()</text>
<text text-anchor="start" x="446.5" y="-448" font-family="Helvetica,sans-Serif" font-size="10.00">+ GetBx()</text>
<text text-anchor="start" x="446.5" y="-437" font-family="Helvetica,sans-Serif" font-size="10.00">+ GetBy()</text>
<text text-anchor="start" x="446.5" y="-426" font-family="Helvetica,sans-Serif" font-size="10.00">+ GetBz()</text>
<text text-anchor="start" x="446.5" y="-415" font-family="Helvetica,sans-Serif" font-size="10.00">+ Field()</text>
<text text-anchor="start" x="446.5" y="-404" font-family="Helvetica,sans-Serif" font-size="10.00">+ GetBxyz()</text>
<text text-anchor="start" x="446.5" y="-393" font-family="Helvetica,sans-Serif" font-size="10.00">+ FillParContainer()</text>
<text text-anchor="start" x="446.5" y="-382" font-family="Helvetica,sans-Serif" font-size="10.00">+ getTPCIntegral()</text>
<text text-anchor="start" x="446.5" y="-371" font-family="Helvetica,sans-Serif" font-size="10.00">+ getTPCRatIntegral()</text>
<text text-anchor="start" x="446.5" y="-360" font-family="Helvetica,sans-Serif" font-size="10.00">+ getTPCIntegralCylindrical()</text>
<text text-anchor="start" x="446.5" y="-349" font-family="Helvetica,sans-Serif" font-size="10.00">+ getTPCRatIntegralCylindrical()</text>
<text text-anchor="start" x="446.5" y="-338" font-family="Helvetica,sans-Serif" font-size="10.00">+ getBz()</text>
<text text-anchor="start" x="446.5" y="-327" font-family="Helvetica,sans-Serif" font-size="10.00">+ getMeasuredMap()</text>
<text text-anchor="start" x="446.5" y="-316" font-family="Helvetica,sans-Serif" font-size="10.00">+ getFastField()</text>
<text text-anchor="start" x="446.5" y="-305" font-family="Helvetica,sans-Serif" font-size="10.00">+ setFactorSolenoid()</text>
<text text-anchor="start" x="446.5" y="-294" font-family="Helvetica,sans-Serif" font-size="10.00">+ setFactorDipole()</text>
<text text-anchor="start" x="446.5" y="-283" font-family="Helvetica,sans-Serif" font-size="10.00">+ getFactorSolenoid()</text>
<text text-anchor="start" x="446.5" y="-272" font-family="Helvetica,sans-Serif" font-size="10.00">+ getFactorDipole()</text>
<text text-anchor="start" x="446.5" y="-261" font-family="Helvetica,sans-Serif" font-size="10.00">+ Factor()</text>
<text text-anchor="start" x="446.5" y="-250" font-family="Helvetica,sans-Serif" font-size="10.00">+ getCurrentSolenoid()</text>
<text text-anchor="start" x="446.5" y="-239" font-family="Helvetica,sans-Serif" font-size="10.00">+ getCurrentDipole()</text>
<text text-anchor="start" x="446.5" y="-228" font-family="Helvetica,sans-Serif" font-size="10.00">+ IsUniform()</text>
<text text-anchor="start" x="446.5" y="-217" font-family="Helvetica,sans-Serif" font-size="10.00">+ MachineField()</text>
<text text-anchor="start" x="446.5" y="-206" font-family="Helvetica,sans-Serif" font-size="10.00">+ getMapType()</text>
<text text-anchor="start" x="446.5" y="-195" font-family="Helvetica,sans-Serif" font-size="10.00">+ getBeamType()</text>
<text text-anchor="start" x="446.5" y="-184" font-family="Helvetica,sans-Serif" font-size="10.00">+ getBeamTypeText()</text>
<text text-anchor="start" x="446.5" y="-173" font-family="Helvetica,sans-Serif" font-size="10.00">+ getBeamEnergy()</text>
<text text-anchor="start" x="446.5" y="-162" font-family="Helvetica,sans-Serif" font-size="10.00">+ Max()</text>
<text text-anchor="start" x="446.5" y="-151" font-family="Helvetica,sans-Serif" font-size="10.00">+ Integral()</text>
<text text-anchor="start" x="446.5" y="-140" font-family="Helvetica,sans-Serif" font-size="10.00">+ precIntegral()</text>
<text text-anchor="start" x="446.5" y="-129" font-family="Helvetica,sans-Serif" font-size="10.00">+ solenoidField()</text>
<text text-anchor="start" x="446.5" y="-118" font-family="Helvetica,sans-Serif" font-size="10.00">+ getDataFileName()</text>
<text text-anchor="start" x="446.5" y="-107" font-family="Helvetica,sans-Serif" font-size="10.00">+ getParameterName()</text>
<text text-anchor="start" x="446.5" y="-96" font-family="Helvetica,sans-Serif" font-size="10.00">+ setDataFileName()</text>
<text text-anchor="start" x="446.5" y="-85" font-family="Helvetica,sans-Serif" font-size="10.00">+ setParameterName()</text>
<text text-anchor="start" x="446.5" y="-74" font-family="Helvetica,sans-Serif" font-size="10.00">+ Print()</text>
<text text-anchor="start" x="446.5" y="-63" font-family="Helvetica,sans-Serif" font-size="10.00">+ loadParameterization()</text>
<text text-anchor="start" x="446.5" y="-52" font-family="Helvetica,sans-Serif" font-size="10.00">+ getPolarityConvention()</text>
<text text-anchor="start" x="446.5" y="-41" font-family="Helvetica,sans-Serif" font-size="10.00">+ createFieldMap()</text>
<text text-anchor="start" x="446.5" y="-30" font-family="Helvetica,sans-Serif" font-size="10.00"># initializeMachineField()</text>
<text text-anchor="start" x="446.5" y="-19" font-family="Helvetica,sans-Serif" font-size="10.00"># setBeamType()</text>
<text text-anchor="start" x="446.5" y="-8" font-family="Helvetica,sans-Serif" font-size="10.00"># setBeamEnergy()</text>
</g>
<!-- Node2 -->
<g id="node2" class="node"><title>Node2</title>
<g id="a_node2"><a xlink:href="../../dc/ddd/classFairField.html" target="_top" xlink:title="{FairField\n||}">
<polygon fill="none" stroke="black" points="0,-740.5 0,-797.5 54,-797.5 54,-740.5 0,-740.5"/>
<text text-anchor="middle" x="27" y="-785.5" font-family="Helvetica,sans-Serif" font-size="10.00">FairField</text>
<polyline fill="none" stroke="black" points="0,-778.5 54,-778.5 "/>
<text text-anchor="middle" x="27" y="-766.5" font-family="Helvetica,sans-Serif" font-size="10.00"> </text>
<polyline fill="none" stroke="black" points="0,-759.5 54,-759.5 "/>
<text text-anchor="middle" x="27" y="-747.5" font-family="Helvetica,sans-Serif" font-size="10.00"> </text>
</a>
</g>
</g>
<!-- Node2&#45;&gt;Node1 -->
<g id="edge1" class="edge"><title>Node2&#45;&gt;Node1</title>
<path fill="none" stroke="midnightblue" d="M37.6714,-730.321C49.6229,-692.879 71.7826,-635.241 105,-594 198.933,-477.379 347.443,-382.471 438.444,-331.001"/>
<polygon fill="none" stroke="midnightblue" points="34.191,-729.727 34.5705,-740.315 40.8766,-731.801 34.191,-729.727"/>
</g>
<!-- Node3 -->
<g id="node3" class="node"><title>Node3</title>
<polygon fill="none" stroke="#bfbfbf" points="72.5,-740.5 72.5,-797.5 141.5,-797.5 141.5,-740.5 72.5,-740.5"/>
<text text-anchor="middle" x="107" y="-785.5" font-family="Helvetica,sans-Serif" font-size="10.00">FairLogger *</text>
<polyline fill="none" stroke="#bfbfbf" points="72.5,-778.5 141.5,-778.5 "/>
<text text-anchor="middle" x="107" y="-766.5" font-family="Helvetica,sans-Serif" font-size="10.00"> </text>
<polyline fill="none" stroke="#bfbfbf" points="72.5,-759.5 141.5,-759.5 "/>
<text text-anchor="middle" x="107" y="-747.5" font-family="Helvetica,sans-Serif" font-size="10.00"> </text>
</g>
<!-- Node3&#45;&gt;Node1 -->
<g id="edge2" class="edge"><title>Node3&#45;&gt;Node1</title>
<path fill="none" stroke="#404040" d="M106.923,-740.313C108.022,-704.142 114.176,-640.011 142,-594 211.486,-479.096 340.674,-388.825 427.991,-337.191"/>
<polygon fill="none" stroke="#404040" points="428.067,-337.146 431.226,-330.664 438.424,-331.087 435.266,-337.569 428.067,-337.146"/>
<text text-anchor="middle" x="165" y="-652.5" font-family="Helvetica,sans-Serif" font-size="10.00"> #mLogger</text>
</g>
<!-- Node4 -->
<g id="node4" class="node"><title>Node4</title>
<polygon fill="none" stroke="#bfbfbf" points="160,-740.5 160,-797.5 214,-797.5 214,-740.5 160,-740.5"/>
<text text-anchor="middle" x="187" y="-785.5" font-family="Helvetica,sans-Serif" font-size="10.00">TNamed</text>
<polyline fill="none" stroke="#bfbfbf" points="160,-778.5 214,-778.5 "/>
<text text-anchor="middle" x="187" y="-766.5" font-family="Helvetica,sans-Serif" font-size="10.00"> </text>
<polyline fill="none" stroke="#bfbfbf" points="160,-759.5 214,-759.5 "/>
<text text-anchor="middle" x="187" y="-747.5" font-family="Helvetica,sans-Serif" font-size="10.00"> </text>
</g>
<!-- Node4&#45;&gt;Node1 -->
<g id="edge3" class="edge"><title>Node4&#45;&gt;Node1</title>
<path fill="none" stroke="#404040" d="M188.608,-740.493C191.68,-704.798 200.551,-641.476 226,-594 276.195,-500.36 363.146,-414.989 429.147,-358.538"/>
<polygon fill="none" stroke="#404040" points="429.161,-358.526 431.151,-351.595 438.315,-350.766 436.324,-357.697 429.161,-358.526"/>
<text text-anchor="middle" x="273" y="-652.5" font-family="Helvetica,sans-Serif" font-size="10.00"> #mParameterNames</text>
</g>
<!-- Node5 -->
<g id="node5" class="node"><title>Node5</title>
<polygon fill="none" stroke="#bfbfbf" points="232,-735 232,-803 390,-803 390,-735 232,-735"/>
<text text-anchor="start" x="240" y="-791" font-family="Helvetica,sans-Serif" font-size="10.00">unique_ptr&lt; o2::field</text>
<text text-anchor="middle" x="311" y="-780" font-family="Helvetica,sans-Serif" font-size="10.00">::MagneticWrapperChebyshev &gt;</text>
<polyline fill="none" stroke="#bfbfbf" points="232,-773 390,-773 "/>
<text text-anchor="middle" x="311" y="-761" font-family="Helvetica,sans-Serif" font-size="10.00"> </text>
<polyline fill="none" stroke="#bfbfbf" points="232,-754 390,-754 "/>
<text text-anchor="middle" x="311" y="-742" font-family="Helvetica,sans-Serif" font-size="10.00"> </text>
</g>
<!-- Node5&#45;&gt;Node1 -->
<g id="edge4" class="edge"><title>Node5&#45;&gt;Node1</title>
<path fill="none" stroke="#404040" d="M318.185,-734.957C326.389,-699.462 341.147,-641.723 360,-594 380.472,-542.179 407.047,-487.556 432.544,-439.08"/>
<polygon fill="none" stroke="#404040" points="432.694,-438.797 431.965,-431.623 438.307,-428.191 439.036,-435.365 432.694,-438.797"/>
<text text-anchor="middle" x="399.5" y="-652.5" font-family="Helvetica,sans-Serif" font-size="10.00"> #mMeasuredMap</text>
</g>
<!-- Node6 -->
<g id="node6" class="node"><title>Node6</title>
<polygon fill="none" stroke="#bfbfbf" points="408,-740.5 408,-797.5 480,-797.5 480,-740.5 408,-740.5"/>
<text text-anchor="middle" x="444" y="-785.5" font-family="Helvetica,sans-Serif" font-size="10.00">BeamType_t</text>
<polyline fill="none" stroke="#bfbfbf" points="408,-778.5 480,-778.5 "/>
<text text-anchor="middle" x="444" y="-766.5" font-family="Helvetica,sans-Serif" font-size="10.00"> </text>
<polyline fill="none" stroke="#bfbfbf" points="408,-759.5 480,-759.5 "/>
<text text-anchor="middle" x="444" y="-747.5" font-family="Helvetica,sans-Serif" font-size="10.00"> </text>
</g>
<!-- Node6&#45;&gt;Node1 -->
<g id="edge5" class="edge"><title>Node6&#45;&gt;Node1</title>
<path fill="none" stroke="#404040" d="M443.152,-740.449C442.47,-706.036 442.507,-645.42 449,-594 449.281,-591.774 449.571,-589.54 449.87,-587.3"/>
<polygon fill="none" stroke="#404040" points="449.891,-587.144 446.757,-580.65 451.546,-575.259 454.68,-581.753 449.891,-587.144"/>
<text text-anchor="middle" x="481" y="-652.5" font-family="Helvetica,sans-Serif" font-size="10.00"> #mBeamType</text>
</g>
<!-- Node7 -->
<g id="node7" class="node"><title>Node7</title>
<polygon fill="none" stroke="#bfbfbf" points="498,-740.5 498,-797.5 548,-797.5 548,-740.5 498,-740.5"/>
<text text-anchor="middle" x="523" y="-785.5" font-family="Helvetica,sans-Serif" font-size="10.00">BMap_t</text>
<polyline fill="none" stroke="#bfbfbf" points="498,-778.5 548,-778.5 "/>
<text text-anchor="middle" x="523" y="-766.5" font-family="Helvetica,sans-Serif" font-size="10.00"> </text>
<polyline fill="none" stroke="#bfbfbf" points="498,-759.5 548,-759.5 "/>
<text text-anchor="middle" x="523" y="-747.5" font-family="Helvetica,sans-Serif" font-size="10.00"> </text>
</g>
<!-- Node7&#45;&gt;Node1 -->
<g id="edge6" class="edge"><title>Node7&#45;&gt;Node1</title>
<path fill="none" stroke="#404040" d="M520.5,-740.496C519.886,-732.594 519.315,-723.962 519,-716 517.352,-674.359 516.379,-630.417 515.865,-587.191"/>
<polygon fill="none" stroke="#404040" points="515.864,-587.02 511.798,-581.064 515.732,-575.02 519.798,-580.976 515.864,-587.02"/>
<text text-anchor="middle" x="548" y="-652.5" font-family="Helvetica,sans-Serif" font-size="10.00"> #mMapType</text>
</g>
<!-- Node8 -->
<g id="node8" class="node"><title>Node8</title>
<polygon fill="none" stroke="#bfbfbf" points="571,-740.5 571,-797.5 627,-797.5 627,-740.5 571,-740.5"/>
<text text-anchor="middle" x="599" y="-785.5" font-family="Helvetica,sans-Serif" font-size="10.00">Double_t</text>
<polyline fill="none" stroke="#bfbfbf" points="571,-778.5 627,-778.5 "/>
<text text-anchor="middle" x="599" y="-766.5" font-family="Helvetica,sans-Serif" font-size="10.00"> </text>
<polyline fill="none" stroke="#bfbfbf" points="571,-759.5 627,-759.5 "/>
<text text-anchor="middle" x="599" y="-747.5" font-family="Helvetica,sans-Serif" font-size="10.00"> </text>
</g>
<!-- Node8&#45;&gt;Node1 -->
<g id="edge7" class="edge"><title>Node8&#45;&gt;Node1</title>
<path fill="none" stroke="#404040" d="M596.084,-740.497C592.312,-706.132 585.238,-645.566 577,-594 576.625,-591.653 576.246,-589.297 575.862,-586.932"/>
<polygon fill="none" stroke="#404040" points="575.854,-586.883 570.934,-581.611 573.908,-575.042 578.828,-580.314 575.854,-586.883"/>
<text text-anchor="middle" x="661" y="-707.5" font-family="Helvetica,sans-Serif" font-size="10.00"> #mQuadrupoleGradient</text>
<text text-anchor="middle" x="661" y="-696.5" font-family="Helvetica,sans-Serif" font-size="10.00">#mMaxField</text>
<text text-anchor="middle" x="661" y="-685.5" font-family="Helvetica,sans-Serif" font-size="10.00">#mMultipicativeFactorDipole</text>
<text text-anchor="middle" x="661" y="-674.5" font-family="Helvetica,sans-Serif" font-size="10.00">#sSolenoidToDipoleZ</text>
<text text-anchor="middle" x="661" y="-663.5" font-family="Helvetica,sans-Serif" font-size="10.00">#mMultipicativeFactorSolenoid</text>
<text text-anchor="middle" x="661" y="-652.5" font-family="Helvetica,sans-Serif" font-size="10.00">#mSolenoid</text>
<text text-anchor="middle" x="661" y="-641.5" font-family="Helvetica,sans-Serif" font-size="10.00">#mBeamEnergy</text>
<text text-anchor="middle" x="661" y="-630.5" font-family="Helvetica,sans-Serif" font-size="10.00">#mCompensatorField2A</text>
<text text-anchor="middle" x="661" y="-619.5" font-family="Helvetica,sans-Serif" font-size="10.00">#mCompensatorField1A</text>
<text text-anchor="middle" x="661" y="-608.5" font-family="Helvetica,sans-Serif" font-size="10.00">#mCompensatorField2C</text>
<text text-anchor="middle" x="661" y="-597.5" font-family="Helvetica,sans-Serif" font-size="10.00">...</text>
</g>
<!-- Node9 -->
<g id="node9" class="node"><title>Node9</title>
<polygon fill="none" stroke="#bfbfbf" points="695,-740.5 695,-797.5 805,-797.5 805,-740.5 695,-740.5"/>
<text text-anchor="middle" x="750" y="-785.5" font-family="Helvetica,sans-Serif" font-size="10.00">static const UShort_t</text>
<polyline fill="none" stroke="#bfbfbf" points="695,-778.5 805,-778.5 "/>
<text text-anchor="middle" x="750" y="-766.5" font-family="Helvetica,sans-Serif" font-size="10.00"> </text>
<polyline fill="none" stroke="#bfbfbf" points="695,-759.5 805,-759.5 "/>
<text text-anchor="middle" x="750" y="-747.5" font-family="Helvetica,sans-Serif" font-size="10.00"> </text>
</g>
<!-- Node9&#45;&gt;Node1 -->
<g id="edge8" class="edge"><title>Node9&#45;&gt;Node1</title>
<path fill="none" stroke="#404040" d="M751.355,-740.205C752.13,-705.018 750.33,-643.076 732,-594 703.491,-517.671 651.227,-442.614 605.487,-386.057"/>
<polygon fill="none" stroke="#404040" points="605.213,-385.722 598.319,-383.607 597.62,-376.43 604.514,-378.545 605.213,-385.722"/>
<text text-anchor="middle" x="800.5" y="-652.5" font-family="Helvetica,sans-Serif" font-size="10.00"> #sPolarityConvention</text>
</g>
<!-- Node10 -->
<g id="node10" class="node"><title>Node10</title>
<polygon fill="none" stroke="#bfbfbf" points="823.5,-735 823.5,-803 928.5,-803 928.5,-735 823.5,-735"/>
<text text-anchor="start" x="831.5" y="-791" font-family="Helvetica,sans-Serif" font-size="10.00">unique_ptr&lt; o2::field</text>
<text text-anchor="middle" x="876" y="-780" font-family="Helvetica,sans-Serif" font-size="10.00">::MagFieldFast &gt;</text>
<polyline fill="none" stroke="#bfbfbf" points="823.5,-773 928.5,-773 "/>
<text text-anchor="middle" x="876" y="-761" font-family="Helvetica,sans-Serif" font-size="10.00"> </text>
<polyline fill="none" stroke="#bfbfbf" points="823.5,-754 928.5,-754 "/>
<text text-anchor="middle" x="876" y="-742" font-family="Helvetica,sans-Serif" font-size="10.00"> </text>
</g>
<!-- Node10&#45;&gt;Node1 -->
<g id="edge9" class="edge"><title>Node10&#45;&gt;Node1</title>
<path fill="none" stroke="#404040" d="M878.171,-734.893C879.135,-698.318 876.369,-638.688 853,-594 796.753,-486.44 686.584,-397.724 607.943,-344.22"/>
<polygon fill="none" stroke="#404040" points="607.505,-343.926 600.294,-343.896 597.549,-337.228 604.76,-337.258 607.505,-343.926"/>
<text text-anchor="middle" x="908" y="-652.5" font-family="Helvetica,sans-Serif" font-size="10.00"> #mFastField</text>
</g>
<!-- Node11 -->
<g id="node11" class="node"><title>Node11</title>
<polygon fill="none" stroke="#bfbfbf" points="947,-740.5 947,-797.5 991,-797.5 991,-740.5 947,-740.5"/>
<text text-anchor="middle" x="969" y="-785.5" font-family="Helvetica,sans-Serif" font-size="10.00">Bool_t</text>
<polyline fill="none" stroke="#bfbfbf" points="947,-778.5 991,-778.5 "/>
<text text-anchor="middle" x="969" y="-766.5" font-family="Helvetica,sans-Serif" font-size="10.00"> </text>
<polyline fill="none" stroke="#bfbfbf" points="947,-759.5 991,-759.5 "/>
<text text-anchor="middle" x="969" y="-747.5" font-family="Helvetica,sans-Serif" font-size="10.00"> </text>
</g>
<!-- Node11&#45;&gt;Node1 -->
<g id="edge10" class="edge"><title>Node11&#45;&gt;Node1</title>
<path fill="none" stroke="#404040" d="M965.721,-740.282C960.112,-694.341 948.551,-606.239 941,-594 862.071,-466.075 707.604,-375.795 608.775,-328.137"/>
<polygon fill="none" stroke="#404040" points="608.736,-328.118 601.599,-329.149 597.902,-322.957 605.04,-321.926 608.736,-328.118"/>
<text text-anchor="middle" x="1008" y="-652.5" font-family="Helvetica,sans-Serif" font-size="10.00"> #mDipoleOnOffFlag</text>
</g>
<!-- Node12 -->
<g id="node12" class="node"><title>Node12</title>
<polygon fill="none" stroke="#bfbfbf" points="1058,-740.5 1058,-797.5 1094,-797.5 1094,-740.5 1058,-740.5"/>
<text text-anchor="middle" x="1076" y="-785.5" font-family="Helvetica,sans-Serif" font-size="10.00">Int_t</text>
<polyline fill="none" stroke="#bfbfbf" points="1058,-778.5 1094,-778.5 "/>
<text text-anchor="middle" x="1076" y="-766.5" font-family="Helvetica,sans-Serif" font-size="10.00"> </text>
<polyline fill="none" stroke="#bfbfbf" points="1058,-759.5 1094,-759.5 "/>
<text text-anchor="middle" x="1076" y="-747.5" font-family="Helvetica,sans-Serif" font-size="10.00"> </text>
</g>
<!-- Node12&#45;&gt;Node1 -->
<g id="edge11" class="edge"><title>Node12&#45;&gt;Node1</title>
<path fill="none" stroke="#404040" d="M1079.66,-740.38C1083.03,-703.708 1083.71,-638.415 1054,-594 948.603,-436.455 732.638,-350.946 609.441,-313.185"/>
<polygon fill="none" stroke="#404040" points="609.304,-313.144 602.404,-315.241 597.815,-309.679 604.714,-307.582 609.304,-313.144"/>
<text text-anchor="middle" x="1126.5" y="-658" font-family="Helvetica,sans-Serif" font-size="10.00"> #mPrecisionInteg</text>
<text text-anchor="middle" x="1126.5" y="-647" font-family="Helvetica,sans-Serif" font-size="10.00">#mDefaultIntegration</text>
</g>
</g>
</svg>
        <g id="navigator" transform="translate(0 0)" fill="#404254">
                <rect fill="#f2f5e9" fill-opacity="0.5" stroke="#606060" stroke-width=".5" x="0" y="0" width="60" height="60"/>
                <use id="zoomplus" xlink:href="#zoomPlus" x="17" y="9" onmousedown="handleZoom(evt,'in')"/>
                <use id="zoomminus" xlink:href="#zoomMin" x="42" y="9" onmousedown="handleZoom(evt,'out')"/>
                <use id="reset" xlink:href="#resetDef" x="30" y="36" onmousedown="handleReset()"/>
                <g id="arrowUp" xlink:href="#dirArrow" transform="translate(30 24)" onmousedown="handlePan(0,-1)">
                  <use xlink:href="#rim" fill="#404040">
                        <set attributeName="fill" to="#808080" begin="arrowUp.mouseover" end="arrowUp.mouseout"/>
                  </use>
                  <path fill="none" stroke="white" stroke-width="1.5" d="M0,-3.0v7 M-2.5,-0.5L0,-3.0L2.5,-0.5"/>
                </g>
                <g id="arrowRight" xlink:href="#dirArrow" transform="rotate(90) translate(36 -43)" onmousedown="handlePan(1,0)">
                  <use xlink:href="#rim" fill="#404040">
                        <set attributeName="fill" to="#808080" begin="arrowRight.mouseover" end="arrowRight.mouseout"/>
                  </use>
                  <path fill="none" stroke="white" stroke-width="1.5" d="M0,-3.0v7 M-2.5,-0.5L0,-3.0L2.5,-0.5"/>
                </g>
                <g id="arrowDown" xlink:href="#dirArrow" transform="rotate(180) translate(-30 -48)" onmousedown="handlePan(0,1)">
                  <use xlink:href="#rim" fill="#404040">
                        <set attributeName="fill" to="#808080" begin="arrowDown.mouseover" end="arrowDown.mouseout"/>
                  </use>
                  <path fill="none" stroke="white" stroke-width="1.5" d="M0,-3.0v7 M-2.5,-0.5L0,-3.0L2.5,-0.5"/>
                </g>
                <g id="arrowLeft" xlink:href="#dirArrow" transform="rotate(270) translate(-36 17)" onmousedown="handlePan(-1,0)">
                  <use xlink:href="#rim" fill="#404040">
                        <set attributeName="fill" to="#808080" begin="arrowLeft.mouseover" end="arrowLeft.mouseout"/>
                  </use>
                  <path fill="none" stroke="white" stroke-width="1.5" d="M0,-3.0v7 M-2.5,-0.5L0,-3.0L2.5,-0.5"/>
                </g>
        </g>
        <svg viewBox="0 0 15 15" width="100%" height="30px" preserveAspectRatio="xMaxYMin meet">
         <g id="arrow_out" transform="scale(0.3 0.3)">
          <a xlink:href="classo2_1_1field_1_1MagneticField__coll__graph_org.svg" target="_base">
           <rect id="button" ry="5" rx="5" y="6" x="6" height="38" width="38"
                fill="#f2f5e9" fill-opacity="0.5" stroke="#606060" stroke-width="1.0"/>
           <path id="arrow"
             d="M 11.500037,31.436501 C 11.940474,20.09759 22.043105,11.32322 32.158766,21.979434 L 37.068811,17.246167 C 37.068811,17.246167 37.088388,32 37.088388,32 L 22.160133,31.978069 C 22.160133,31.978069 26.997745,27.140456 26.997745,27.140456 C 18.528582,18.264221 13.291696,25.230495 11.500037,31.436501 z"
             style="fill:#404040;"/>
          </a>
         </g>
        </svg>
</svg>
