<?xml version="1.0" encoding="UTF-8" standalone="no"?>
<!DOCTYPE svg PUBLIC "-//W3C//DTD SVG 1.1//EN"
 "http://www.w3.org/Graphics/SVG/1.1/DTD/svg11.dtd">
<!-- Generated by graphviz version 2.36.0 (20140111.2315)
 -->
<!-- Title: /home/travis/build/AliceO2Group/AliceO2/Detectors/ITSMFT/MFT/simulation/include/MFTSimulation/DigitizerTask.h Pages: 1 -->
<svg width="2512pt" height="456pt"
 viewBox="0.00 0.00 2512.00 456.00" xmlns="http://www.w3.org/2000/svg" xmlns:xlink="http://www.w3.org/1999/xlink">
<g id="graph0" class="graph" transform="scale(1 1) rotate(0) translate(4 452)">
<title>/home/travis/build/AliceO2Group/AliceO2/Detectors/ITSMFT/MFT/simulation/include/MFTSimulation/DigitizerTask.h</title>
<!-- Node1 -->
<g id="node1" class="node"><title>Node1</title>
<polygon fill="#bfbfbf" stroke="black" points="68.5,-384.5 68.5,-447.5 235.5,-447.5 235.5,-384.5 68.5,-384.5"/>
<text text-anchor="start" x="76.5" y="-435.5" font-family="Helvetica,sans-Serif" font-size="10.00">/home/travis/build</text>
<text text-anchor="start" x="76.5" y="-424.5" font-family="Helvetica,sans-Serif" font-size="10.00">/AliceO2Group/AliceO2</text>
<text text-anchor="start" x="76.5" y="-413.5" font-family="Helvetica,sans-Serif" font-size="10.00">/Detectors/ITSMFT/MFT</text>
<text text-anchor="start" x="76.5" y="-402.5" font-family="Helvetica,sans-Serif" font-size="10.00">/simulation/include/MFTSimulation</text>
<text text-anchor="middle" x="152" y="-391.5" font-family="Helvetica,sans-Serif" font-size="10.00">/DigitizerTask.h</text>
</g>
<!-- Node2 -->
<g id="node2" class="node"><title>Node2</title>
<polygon fill="none" stroke="#bfbfbf" points="-0.5,-328.5 -0.5,-347.5 42.5,-347.5 42.5,-328.5 -0.5,-328.5"/>
<text text-anchor="middle" x="21" y="-335.5" font-family="Helvetica,sans-Serif" font-size="10.00">cstdio</text>
</g>
<!-- Node1&#45;&gt;Node2 -->
<g id="edge1" class="edge"><title>Node1&#45;&gt;Node2</title>
<path fill="none" stroke="midnightblue" d="M99.0949,-384.307C80.1595,-373.322 59.7648,-361.489 44.5669,-352.672"/>
<polygon fill="midnightblue" stroke="midnightblue" points="46.2414,-349.598 35.8352,-347.607 42.7286,-355.652 46.2414,-349.598"/>
</g>
<!-- Node3 -->
<g id="node3" class="node"><title>Node3</title>
<polygon fill="none" stroke="#bfbfbf" points="60.5,-328.5 60.5,-347.5 123.5,-347.5 123.5,-328.5 60.5,-328.5"/>
<text text-anchor="middle" x="92" y="-335.5" font-family="Helvetica,sans-Serif" font-size="10.00">FairTask.h</text>
</g>
<!-- Node1&#45;&gt;Node3 -->
<g id="edge2" class="edge"><title>Node1&#45;&gt;Node3</title>
<path fill="none" stroke="midnightblue" d="M127.596,-384.088C119.89,-374.328 111.674,-363.921 105.079,-355.567"/>
<polygon fill="midnightblue" stroke="midnightblue" points="107.826,-353.398 98.8828,-347.718 102.332,-357.736 107.826,-353.398"/>
</g>
<!-- Node4 -->
<g id="node4" class="node"><title>Node4</title>
<polygon fill="none" stroke="#bfbfbf" points="594,-6.5 594,-25.5 650,-25.5 650,-6.5 594,-6.5"/>
<text text-anchor="middle" x="622" y="-13.5" font-family="Helvetica,sans-Serif" font-size="10.00">Rtypes.h</text>
</g>
<!-- Node1&#45;&gt;Node4 -->
<g id="edge3" class="edge"><title>Node1&#45;&gt;Node4</title>
<path fill="none" stroke="midnightblue" d="M152,-384.306C152,-356.34 152,-313.896 152,-277 152,-277 152,-277 152,-145 152,-109.751 144.517,-91.262 171,-68 201.8,-40.9457 480.551,-24.1751 583.78,-18.8466"/>
<polygon fill="midnightblue" stroke="midnightblue" points="583.968,-22.3417 593.777,-18.3382 583.612,-15.3507 583.968,-22.3417"/>
</g>
<!-- Node5 -->
<g id="node5" class="node"><title>Node5</title>
<g id="a_node5"><a xlink:href="../../df/d29/DigiParams_8h.html" target="_top" xlink:title="Simulation parameters for the ALIPIDE chip. ">
<polygon fill="none" stroke="black" points="1238.5,-266.5 1238.5,-285.5 1399.5,-285.5 1399.5,-266.5 1238.5,-266.5"/>
<text text-anchor="middle" x="1319" y="-273.5" font-family="Helvetica,sans-Serif" font-size="10.00">ITSMFTSimulation/DigiParams.h</text>
</a>
</g>
</g>
<!-- Node1&#45;&gt;Node5 -->
<g id="edge4" class="edge"><title>Node1&#45;&gt;Node5</title>
<path fill="none" stroke="midnightblue" d="M235.55,-406.631C416.19,-388.27 856.478,-342.076 1224,-292 1234.77,-290.533 1246.2,-288.842 1257.26,-287.137"/>
<polygon fill="midnightblue" stroke="midnightblue" points="1257.95,-290.572 1267.29,-285.572 1256.87,-283.656 1257.95,-290.572"/>
</g>
<!-- Node6 -->
<g id="node6" class="node"><title>Node6</title>
<g id="a_node6"><a xlink:href="../../d7/d9c/ITSMFT_2common_2simulation_2include_2ITSMFTSimulation_2Digitizer_8h.html" target="_top" xlink:title="ITSMFTSimulation/Digitizer.h">
<polygon fill="none" stroke="black" points="560,-328.5 560,-347.5 706,-347.5 706,-328.5 560,-328.5"/>
<text text-anchor="middle" x="633" y="-335.5" font-family="Helvetica,sans-Serif" font-size="10.00">ITSMFTSimulation/Digitizer.h</text>
</a>
</g>
</g>
<!-- Node1&#45;&gt;Node6 -->
<g id="edge6" class="edge"><title>Node1&#45;&gt;Node6</title>
<path fill="none" stroke="midnightblue" d="M235.509,-401.805C330.384,-386.815 483.146,-362.678 569.037,-349.106"/>
<polygon fill="midnightblue" stroke="midnightblue" points="569.841,-352.523 579.172,-347.505 568.748,-345.609 569.841,-352.523"/>
</g>
<!-- Node5&#45;&gt;Node4 -->
<g id="edge5" class="edge"><title>Node5&#45;&gt;Node4</title>
<path fill="none" stroke="midnightblue" d="M1399.8,-275.971C1509.54,-275.563 1697.84,-268.182 1748,-224 1800.05,-178.16 1798.86,-110.433 1744,-68 1700.24,-34.1552 852.194,-20.2359 660.351,-17.5134"/>
<polygon fill="midnightblue" stroke="midnightblue" points="660.232,-14.0115 650.184,-17.3709 660.134,-21.0108 660.232,-14.0115"/>
</g>
<!-- Node6&#45;&gt;Node4 -->
<g id="edge9" class="edge"><title>Node6&#45;&gt;Node4</title>
<path fill="none" stroke="midnightblue" d="M632.63,-328.393C631.311,-297.5 626.772,-189.308 624,-100 623.317,-77.9934 622.737,-52.6983 622.38,-35.8741"/>
<polygon fill="midnightblue" stroke="midnightblue" points="625.877,-35.6499 622.17,-25.7244 618.878,-35.7946 625.877,-35.6499"/>
</g>
<!-- Node6&#45;&gt;Node5 -->
<g id="edge44" class="edge"><title>Node6&#45;&gt;Node5</title>
<path fill="none" stroke="midnightblue" d="M706.43,-333.316C818.355,-327.271 1038.24,-313.702 1224,-292 1235.54,-290.651 1247.83,-288.927 1259.61,-287.131"/>
<polygon fill="midnightblue" stroke="midnightblue" points="1260.46,-290.542 1269.8,-285.542 1259.38,-283.625 1260.46,-290.542"/>
</g>
<!-- Node7 -->
<g id="node7" class="node"><title>Node7</title>
<polygon fill="none" stroke="#bfbfbf" points="1272,-136.5 1272,-155.5 1316,-155.5 1316,-136.5 1272,-136.5"/>
<text text-anchor="middle" x="1294" y="-143.5" font-family="Helvetica,sans-Serif" font-size="10.00">vector</text>
</g>
<!-- Node6&#45;&gt;Node7 -->
<g id="edge7" class="edge"><title>Node6&#45;&gt;Node7</title>
<path fill="none" stroke="midnightblue" d="M706.084,-332.52C850.102,-323.479 1158.48,-302.979 1179,-292 1232.96,-263.131 1270.29,-196.954 1285.86,-164.965"/>
<polygon fill="midnightblue" stroke="midnightblue" points="1289.21,-166.069 1290.3,-155.53 1282.87,-163.088 1289.21,-166.069"/>
</g>
<!-- Node8 -->
<g id="node8" class="node"><title>Node8</title>
<polygon fill="none" stroke="#bfbfbf" points="553,-266.5 553,-285.5 605,-285.5 605,-266.5 553,-266.5"/>
<text text-anchor="middle" x="579" y="-273.5" font-family="Helvetica,sans-Serif" font-size="10.00">memory</text>
</g>
<!-- Node6&#45;&gt;Node8 -->
<g id="edge8" class="edge"><title>Node6&#45;&gt;Node8</title>
<path fill="none" stroke="midnightblue" d="M625.263,-328.403C617.003,-319.225 603.723,-304.47 593.506,-293.117"/>
<polygon fill="midnightblue" stroke="midnightblue" points="596.014,-290.672 586.723,-285.581 590.811,-295.355 596.014,-290.672"/>
</g>
<!-- Node9 -->
<g id="node9" class="node"><title>Node9</title>
<polygon fill="none" stroke="#bfbfbf" points="180.5,-136.5 180.5,-155.5 239.5,-155.5 239.5,-136.5 180.5,-136.5"/>
<text text-anchor="middle" x="210" y="-143.5" font-family="Helvetica,sans-Serif" font-size="10.00">TObject.h</text>
</g>
<!-- Node6&#45;&gt;Node9 -->
<g id="edge10" class="edge"><title>Node6&#45;&gt;Node9</title>
<path fill="none" stroke="midnightblue" d="M559.729,-333.931C507.109,-329.419 435.602,-318.454 378,-292 310.473,-260.988 249.338,-194.403 223.292,-163.448"/>
<polygon fill="midnightblue" stroke="midnightblue" points="225.971,-161.195 216.9,-155.721 220.577,-165.657 225.971,-161.195"/>
</g>
<!-- Node10 -->
<g id="node10" class="node"><title>Node10</title>
<g id="a_node10"><a xlink:href="../../d7/d9e/SimulationAlpide_8h.html" target="_top" xlink:title="Simulation of the ALIPIDE chip response. ">
<polygon fill="none" stroke="black" points="387.5,-261 387.5,-291 534.5,-291 534.5,-261 387.5,-261"/>
<text text-anchor="start" x="395.5" y="-279" font-family="Helvetica,sans-Serif" font-size="10.00">ITSMFTSimulation/Simulation</text>
<text text-anchor="middle" x="461" y="-268" font-family="Helvetica,sans-Serif" font-size="10.00">Alpide.h</text>
</a>
</g>
</g>
<!-- Node6&#45;&gt;Node10 -->
<g id="edge11" class="edge"><title>Node6&#45;&gt;Node10</title>
<path fill="none" stroke="midnightblue" d="M608.357,-328.403C583.018,-319.564 542.852,-305.553 510.85,-294.39"/>
<polygon fill="midnightblue" stroke="midnightblue" points="511.801,-291.014 501.206,-291.025 509.495,-297.624 511.801,-291.014"/>
</g>
<!-- Node30 -->
<g id="node30" class="node"><title>Node30</title>
<g id="a_node30"><a xlink:href="../../dc/d1a/AlpideSimResponse_8h.html" target="_top" xlink:title="Definition of the ITSMFT Alpide simulated response parametrization. ">
<polygon fill="none" stroke="black" points="827,-193 827,-223 973,-223 973,-193 827,-193"/>
<text text-anchor="start" x="835" y="-211" font-family="Helvetica,sans-Serif" font-size="10.00">ITSMFTSimulation/AlpideSim</text>
<text text-anchor="middle" x="900" y="-200" font-family="Helvetica,sans-Serif" font-size="10.00">Response.h</text>
</a>
</g>
</g>
<!-- Node6&#45;&gt;Node30 -->
<g id="edge43" class="edge"><title>Node6&#45;&gt;Node30</title>
<path fill="none" stroke="midnightblue" d="M650.933,-328.403C693.686,-307.907 802.401,-255.789 861.061,-227.668"/>
<polygon fill="midnightblue" stroke="midnightblue" points="862.868,-230.683 870.372,-223.204 859.842,-224.371 862.868,-230.683"/>
</g>
<!-- Node33 -->
<g id="node33" class="node"><title>Node33</title>
<g id="a_node33"><a xlink:href="../../d0/d2d/common_2base_2include_2ITSMFTBase_2GeometryTGeo_8h.html" target="_top" xlink:title="ITSMFTBase/GeometryTGeo.h">
<polygon fill="none" stroke="black" points="1017.5,-266.5 1017.5,-285.5 1170.5,-285.5 1170.5,-266.5 1017.5,-266.5"/>
<text text-anchor="middle" x="1094" y="-273.5" font-family="Helvetica,sans-Serif" font-size="10.00">ITSMFTBase/GeometryTGeo.h</text>
</a>
</g>
</g>
<!-- Node6&#45;&gt;Node33 -->
<g id="edge45" class="edge"><title>Node6&#45;&gt;Node33</title>
<path fill="none" stroke="midnightblue" d="M698.56,-328.467C783.054,-317.47 929.641,-298.392 1018.64,-286.808"/>
<polygon fill="midnightblue" stroke="midnightblue" points="1019.2,-290.265 1028.67,-285.503 1018.3,-283.323 1019.2,-290.265"/>
</g>
<!-- Node10&#45;&gt;Node9 -->
<g id="edge12" class="edge"><title>Node10&#45;&gt;Node9</title>
<path fill="none" stroke="midnightblue" d="M433.18,-260.813C384.221,-235.846 283.358,-184.41 235.84,-160.177"/>
<polygon fill="midnightblue" stroke="midnightblue" points="237.311,-156.999 226.813,-155.574 234.131,-163.235 237.311,-156.999"/>
</g>
<!-- Node11 -->
<g id="node11" class="node"><title>Node11</title>
<g id="a_node11"><a xlink:href="../../d9/d55/Chip_8h.html" target="_top" xlink:title="ITSMFTSimulation/Chip.h">
<polygon fill="none" stroke="black" points="396,-198.5 396,-217.5 526,-217.5 526,-198.5 396,-198.5"/>
<text text-anchor="middle" x="461" y="-205.5" font-family="Helvetica,sans-Serif" font-size="10.00">ITSMFTSimulation/Chip.h</text>
</a>
</g>
</g>
<!-- Node10&#45;&gt;Node11 -->
<g id="edge13" class="edge"><title>Node10&#45;&gt;Node11</title>
<path fill="none" stroke="midnightblue" d="M461,-260.679C461,-251.101 461,-238.394 461,-227.977"/>
<polygon fill="midnightblue" stroke="midnightblue" points="464.5,-227.828 461,-217.828 457.5,-227.828 464.5,-227.828"/>
</g>
<!-- Node10&#45;&gt;Node30 -->
<g id="edge38" class="edge"><title>Node10&#45;&gt;Node30</title>
<path fill="none" stroke="midnightblue" d="M534.742,-261.529C537.868,-261.003 540.964,-260.492 544,-260 637.301,-244.891 744.741,-229.818 816.974,-220.021"/>
<polygon fill="midnightblue" stroke="midnightblue" points="817.487,-223.484 826.928,-218.674 816.549,-216.547 817.487,-223.484"/>
</g>
<!-- Node11&#45;&gt;Node7 -->
<g id="edge16" class="edge"><title>Node11&#45;&gt;Node7</title>
<path fill="none" stroke="midnightblue" d="M526.036,-204.627C687.152,-198.471 1102.58,-180.83 1261.66,-155.576"/>
<polygon fill="midnightblue" stroke="midnightblue" points="1262.46,-158.99 1271.76,-153.902 1261.32,-152.084 1262.46,-158.99"/>
</g>
<!-- Node11&#45;&gt;Node9 -->
<g id="edge18" class="edge"><title>Node11&#45;&gt;Node9</title>
<path fill="none" stroke="midnightblue" d="M425.304,-198.467C378.805,-187.352 297.765,-167.98 249.476,-156.437"/>
<polygon fill="midnightblue" stroke="midnightblue" points="250.233,-153.019 239.693,-154.098 248.606,-159.827 250.233,-153.019"/>
</g>
<!-- Node12 -->
<g id="node12" class="node"><title>Node12</title>
<polygon fill="none" stroke="#bfbfbf" points="421.5,-136.5 421.5,-155.5 480.5,-155.5 480.5,-136.5 421.5,-136.5"/>
<text text-anchor="middle" x="451" y="-143.5" font-family="Helvetica,sans-Serif" font-size="10.00">exception</text>
</g>
<!-- Node11&#45;&gt;Node12 -->
<g id="edge14" class="edge"><title>Node11&#45;&gt;Node12</title>
<path fill="none" stroke="midnightblue" d="M459.567,-198.403C458.141,-189.849 455.908,-176.45 454.079,-165.476"/>
<polygon fill="midnightblue" stroke="midnightblue" points="457.527,-164.869 452.43,-155.581 450.622,-166.02 457.527,-164.869"/>
</g>
<!-- Node13 -->
<g id="node13" class="node"><title>Node13</title>
<polygon fill="none" stroke="#bfbfbf" points="499,-136.5 499,-155.5 551,-155.5 551,-136.5 499,-136.5"/>
<text text-anchor="middle" x="525" y="-143.5" font-family="Helvetica,sans-Serif" font-size="10.00">sstream</text>
</g>
<!-- Node11&#45;&gt;Node13 -->
<g id="edge15" class="edge"><title>Node11&#45;&gt;Node13</title>
<path fill="none" stroke="midnightblue" d="M470.17,-198.403C480.15,-189.047 496.312,-173.895 508.509,-162.46"/>
<polygon fill="midnightblue" stroke="midnightblue" points="510.946,-164.973 515.847,-155.581 506.158,-159.867 510.946,-164.973"/>
</g>
<!-- Node14 -->
<g id="node14" class="node"><title>Node14</title>
<polygon fill="none" stroke="#bfbfbf" points="569.5,-136.5 569.5,-155.5 604.5,-155.5 604.5,-136.5 569.5,-136.5"/>
<text text-anchor="middle" x="587" y="-143.5" font-family="Helvetica,sans-Serif" font-size="10.00">map</text>
</g>
<!-- Node11&#45;&gt;Node14 -->
<g id="edge17" class="edge"><title>Node11&#45;&gt;Node14</title>
<path fill="none" stroke="midnightblue" d="M479.053,-198.403C500.319,-188.277 535.841,-171.361 560.294,-159.717"/>
<polygon fill="midnightblue" stroke="midnightblue" points="561.863,-162.847 569.387,-155.387 558.854,-156.527 561.863,-162.847"/>
</g>
<!-- Node15 -->
<g id="node15" class="node"><title>Node15</title>
<g id="a_node15"><a xlink:href="../../d0/d06/ITSMFT_2common_2base_2include_2ITSMFTBase_2Digit_8h.html" target="_top" xlink:title="ITSMFTBase/Digit.h">
<polygon fill="none" stroke="black" points="296.5,-136.5 296.5,-155.5 403.5,-155.5 403.5,-136.5 296.5,-136.5"/>
<text text-anchor="middle" x="350" y="-143.5" font-family="Helvetica,sans-Serif" font-size="10.00">ITSMFTBase/Digit.h</text>
</a>
</g>
</g>
<!-- Node11&#45;&gt;Node15 -->
<g id="edge19" class="edge"><title>Node11&#45;&gt;Node15</title>
<path fill="none" stroke="midnightblue" d="M445.096,-198.403C426.715,-188.468 396.244,-171.997 374.755,-160.381"/>
<polygon fill="midnightblue" stroke="midnightblue" points="376.335,-157.257 365.874,-155.581 373.007,-163.415 376.335,-157.257"/>
</g>
<!-- Node17 -->
<g id="node17" class="node"><title>Node17</title>
<g id="a_node17"><a xlink:href="../../d7/dcd/MCCompLabel_8h.html" target="_top" xlink:title="SimulationDataFormat\l/MCCompLabel.h">
<polygon fill="none" stroke="black" points="180,-69 180,-99 294,-99 294,-69 180,-69"/>
<text text-anchor="start" x="188" y="-87" font-family="Helvetica,sans-Serif" font-size="10.00">SimulationDataFormat</text>
<text text-anchor="middle" x="237" y="-76" font-family="Helvetica,sans-Serif" font-size="10.00">/MCCompLabel.h</text>
</a>
</g>
</g>
<!-- Node11&#45;&gt;Node17 -->
<g id="edge25" class="edge"><title>Node11&#45;&gt;Node17</title>
<path fill="none" stroke="midnightblue" d="M395.66,-198.51C360.895,-191.495 318.87,-178.809 287,-156 269.943,-143.793 256.659,-123.884 248.084,-108.25"/>
<polygon fill="midnightblue" stroke="midnightblue" points="251.082,-106.431 243.361,-99.1756 244.873,-109.662 251.082,-106.431"/>
</g>
<!-- Node19 -->
<g id="node19" class="node"><title>Node19</title>
<g id="a_node19"><a xlink:href="../../dd/d76/Cartesian3D_8h.html" target="_top" xlink:title="MathUtils/Cartesian3D.h">
<polygon fill="none" stroke="black" points="1030.5,-136.5 1030.5,-155.5 1155.5,-155.5 1155.5,-136.5 1030.5,-136.5"/>
<text text-anchor="middle" x="1093" y="-143.5" font-family="Helvetica,sans-Serif" font-size="10.00">MathUtils/Cartesian3D.h</text>
</a>
</g>
</g>
<!-- Node11&#45;&gt;Node19 -->
<g id="edge26" class="edge"><title>Node11&#45;&gt;Node19</title>
<path fill="none" stroke="midnightblue" d="M526.255,-200.805C645.123,-189.52 896.105,-165.693 1020.28,-153.904"/>
<polygon fill="midnightblue" stroke="midnightblue" points="1020.82,-157.369 1030.44,-152.939 1020.16,-150.4 1020.82,-157.369"/>
</g>
<!-- Node15&#45;&gt;Node4 -->
<g id="edge24" class="edge"><title>Node15&#45;&gt;Node4</title>
<path fill="none" stroke="midnightblue" d="M345.368,-136.445C337.644,-120.884 324.525,-87.7339 341,-68 371.45,-31.5255 513.811,-21.0799 583.445,-18.1332"/>
<polygon fill="midnightblue" stroke="midnightblue" points="583.713,-21.6255 593.569,-17.7362 583.439,-14.6309 583.713,-21.6255"/>
</g>
<!-- Node16 -->
<g id="node16" class="node"><title>Node16</title>
<polygon fill="none" stroke="#bfbfbf" points="350.5,-69 350.5,-99 445.5,-99 445.5,-69 350.5,-69"/>
<text text-anchor="start" x="358.5" y="-87" font-family="Helvetica,sans-Serif" font-size="10.00">boost/serialization</text>
<text text-anchor="middle" x="398" y="-76" font-family="Helvetica,sans-Serif" font-size="10.00">/base_object.hpp</text>
</g>
<!-- Node15&#45;&gt;Node16 -->
<g id="edge20" class="edge"><title>Node15&#45;&gt;Node16</title>
<path fill="none" stroke="midnightblue" d="M356.877,-136.403C362.953,-128.809 372.083,-117.396 380.199,-107.252"/>
<polygon fill="midnightblue" stroke="midnightblue" points="383.173,-109.136 386.687,-99.1408 377.707,-104.763 383.173,-109.136"/>
</g>
<!-- Node15&#45;&gt;Node17 -->
<g id="edge21" class="edge"><title>Node15&#45;&gt;Node17</title>
<path fill="none" stroke="midnightblue" d="M333.81,-136.403C317.933,-127.974 293.197,-114.839 272.702,-103.957"/>
<polygon fill="midnightblue" stroke="midnightblue" points="274.105,-100.739 263.632,-99.1408 270.823,-106.922 274.105,-100.739"/>
</g>
<!-- Node18 -->
<g id="node18" class="node"><title>Node18</title>
<polygon fill="none" stroke="#bfbfbf" points="464,-74.5 464,-93.5 556,-93.5 556,-74.5 464,-74.5"/>
<text text-anchor="middle" x="510" y="-81.5" font-family="Helvetica,sans-Serif" font-size="10.00">FairTimeStamp.h</text>
</g>
<!-- Node15&#45;&gt;Node18 -->
<g id="edge23" class="edge"><title>Node15&#45;&gt;Node18</title>
<path fill="none" stroke="midnightblue" d="M372.924,-136.403C400.37,-126.111 446.516,-108.806 477.599,-97.1504"/>
<polygon fill="midnightblue" stroke="midnightblue" points="478.984,-100.369 487.118,-93.5806 476.526,-93.8147 478.984,-100.369"/>
</g>
<!-- Node17&#45;&gt;Node4 -->
<g id="edge22" class="edge"><title>Node17&#45;&gt;Node4</title>
<path fill="none" stroke="midnightblue" d="M294.305,-70.651C298.933,-69.7276 303.542,-68.8325 308,-68 407.101,-49.4943 524.523,-31.4492 583.753,-22.6169"/>
<polygon fill="midnightblue" stroke="midnightblue" points="584.399,-26.0594 593.776,-21.1275 583.37,-19.1354 584.399,-26.0594"/>
</g>
<!-- Node19&#45;&gt;Node4 -->
<g id="edge30" class="edge"><title>Node19&#45;&gt;Node4</title>
<path fill="none" stroke="midnightblue" d="M1030.42,-144.49C929.629,-142.639 736.795,-134.537 679,-100 654.07,-85.1021 637.491,-54.583 628.924,-34.9934"/>
<polygon fill="midnightblue" stroke="midnightblue" points="632.119,-33.5616 625.079,-25.6445 625.646,-36.2241 632.119,-33.5616"/>
</g>
<!-- Node20 -->
<g id="node20" class="node"><title>Node20</title>
<polygon fill="none" stroke="#bfbfbf" points="759.5,-74.5 759.5,-93.5 908.5,-93.5 908.5,-74.5 759.5,-74.5"/>
<text text-anchor="middle" x="834" y="-81.5" font-family="Helvetica,sans-Serif" font-size="10.00">Math/GenVector/Rotation3D.h</text>
</g>
<!-- Node19&#45;&gt;Node20 -->
<g id="edge27" class="edge"><title>Node19&#45;&gt;Node20</title>
<path fill="none" stroke="midnightblue" d="M1056.17,-136.467C1010.04,-125.783 930.99,-107.469 880.676,-95.8129"/>
<polygon fill="midnightblue" stroke="midnightblue" points="881.238,-92.3506 870.706,-93.5034 879.658,-99.17 881.238,-92.3506"/>
</g>
<!-- Node21 -->
<g id="node21" class="node"><title>Node21</title>
<polygon fill="none" stroke="#bfbfbf" points="927,-74.5 927,-93.5 1083,-93.5 1083,-74.5 927,-74.5"/>
<text text-anchor="middle" x="1005" y="-81.5" font-family="Helvetica,sans-Serif" font-size="10.00">Math/GenVector/Transform3D.h</text>
</g>
<!-- Node19&#45;&gt;Node21 -->
<g id="edge28" class="edge"><title>Node19&#45;&gt;Node21</title>
<path fill="none" stroke="midnightblue" d="M1080.39,-136.403C1066.28,-126.78 1043.17,-111.024 1026.25,-99.4891"/>
<polygon fill="midnightblue" stroke="midnightblue" points="1027.82,-96.3222 1017.58,-93.5806 1023.88,-102.106 1027.82,-96.3222"/>
</g>
<!-- Node22 -->
<g id="node22" class="node"><title>Node22</title>
<polygon fill="none" stroke="#bfbfbf" points="1101,-74.5 1101,-93.5 1261,-93.5 1261,-74.5 1101,-74.5"/>
<text text-anchor="middle" x="1181" y="-81.5" font-family="Helvetica,sans-Serif" font-size="10.00">Math/GenVector/Translation3D.h</text>
</g>
<!-- Node19&#45;&gt;Node22 -->
<g id="edge29" class="edge"><title>Node19&#45;&gt;Node22</title>
<path fill="none" stroke="midnightblue" d="M1105.61,-136.403C1119.72,-126.78 1142.83,-111.024 1159.75,-99.4891"/>
<polygon fill="midnightblue" stroke="midnightblue" points="1162.12,-102.106 1168.42,-93.5806 1158.18,-96.3222 1162.12,-102.106"/>
</g>
<!-- Node23 -->
<g id="node23" class="node"><title>Node23</title>
<polygon fill="none" stroke="#bfbfbf" points="1279,-74.5 1279,-93.5 1355,-93.5 1355,-74.5 1279,-74.5"/>
<text text-anchor="middle" x="1317" y="-81.5" font-family="Helvetica,sans-Serif" font-size="10.00">TGeoMatrix.h</text>
</g>
<!-- Node19&#45;&gt;Node23 -->
<g id="edge31" class="edge"><title>Node19&#45;&gt;Node23</title>
<path fill="none" stroke="midnightblue" d="M1129.1,-136.493C1164.99,-127.878 1221.53,-113.881 1270,-100 1273.78,-98.9166 1277.72,-97.7391 1281.64,-96.536"/>
<polygon fill="midnightblue" stroke="midnightblue" points="1282.73,-99.8614 1291.23,-93.5321 1280.64,-93.1815 1282.73,-99.8614"/>
</g>
<!-- Node24 -->
<g id="node24" class="node"><title>Node24</title>
<polygon fill="none" stroke="#bfbfbf" points="1373.5,-69 1373.5,-99 1524.5,-99 1524.5,-69 1373.5,-69"/>
<text text-anchor="start" x="1381.5" y="-87" font-family="Helvetica,sans-Serif" font-size="10.00">Math/GenVector/Displacement</text>
<text text-anchor="middle" x="1449" y="-76" font-family="Helvetica,sans-Serif" font-size="10.00">Vector3D.h</text>
</g>
<!-- Node19&#45;&gt;Node24 -->
<g id="edge32" class="edge"><title>Node19&#45;&gt;Node24</title>
<path fill="none" stroke="midnightblue" d="M1145.23,-136.488C1197.69,-127.902 1281.13,-114.148 1363.43,-100.087"/>
<polygon fill="midnightblue" stroke="midnightblue" points="1364.2,-103.507 1373.46,-98.3709 1363.02,-96.6076 1364.2,-103.507"/>
</g>
<!-- Node25 -->
<g id="node25" class="node"><title>Node25</title>
<polygon fill="none" stroke="#bfbfbf" points="1543,-74.5 1543,-93.5 1719,-93.5 1719,-74.5 1543,-74.5"/>
<text text-anchor="middle" x="1631" y="-81.5" font-family="Helvetica,sans-Serif" font-size="10.00">Math/GenVector/PositionVector3D.h</text>
</g>
<!-- Node19&#45;&gt;Node25 -->
<g id="edge33" class="edge"><title>Node19&#45;&gt;Node25</title>
<path fill="none" stroke="midnightblue" d="M1155.6,-137.59C1160.47,-137.042 1165.32,-136.506 1170,-136 1331.19,-118.589 1372.15,-120.272 1533,-100 1544.49,-98.5518 1556.71,-96.8286 1568.49,-95.075"/>
<polygon fill="midnightblue" stroke="midnightblue" points="1569.32,-98.4883 1578.69,-93.5323 1568.28,-91.567 1569.32,-98.4883"/>
</g>
<!-- Node26 -->
<g id="node26" class="node"><title>Node26</title>
<g id="a_node26"><a xlink:href="../../d2/dd0/Cartesian2D_8h.html" target="_top" xlink:title="MathUtils/Cartesian2D.h">
<polygon fill="none" stroke="black" points="1851.5,-74.5 1851.5,-93.5 1976.5,-93.5 1976.5,-74.5 1851.5,-74.5"/>
<text text-anchor="middle" x="1914" y="-81.5" font-family="Helvetica,sans-Serif" font-size="10.00">MathUtils/Cartesian2D.h</text>
</a>
</g>
</g>
<!-- Node19&#45;&gt;Node26 -->
<g id="edge34" class="edge"><title>Node19&#45;&gt;Node26</title>
<path fill="none" stroke="midnightblue" d="M1155.59,-137.41C1160.46,-136.903 1165.31,-136.425 1170,-136 1417.06,-113.593 1479.58,-117.918 1727,-100 1764.7,-97.2701 1806.64,-93.9329 1841.24,-91.0999"/>
<polygon fill="midnightblue" stroke="midnightblue" points="1841.58,-94.5839 1851.26,-90.2768 1841.01,-87.6074 1841.58,-94.5839"/>
</g>
<!-- Node29 -->
<g id="node29" class="node"><title>Node29</title>
<polygon fill="none" stroke="#bfbfbf" points="688,-74.5 688,-93.5 742,-93.5 742,-74.5 688,-74.5"/>
<text text-anchor="middle" x="715" y="-81.5" font-family="Helvetica,sans-Serif" font-size="10.00">iostream</text>
</g>
<!-- Node19&#45;&gt;Node29 -->
<g id="edge37" class="edge"><title>Node19&#45;&gt;Node29</title>
<path fill="none" stroke="midnightblue" d="M1030.25,-141.715C960.912,-136.944 846.42,-125.671 751,-100 748.18,-99.2414 745.289,-98.3128 742.43,-97.2928"/>
<polygon fill="midnightblue" stroke="midnightblue" points="743.575,-93.9822 732.988,-93.5882 741.018,-100.499 743.575,-93.9822"/>
</g>
<!-- Node27 -->
<g id="node27" class="node"><title>Node27</title>
<polygon fill="none" stroke="#bfbfbf" points="1747.5,-1 1747.5,-31 1898.5,-31 1898.5,-1 1747.5,-1"/>
<text text-anchor="start" x="1755.5" y="-19" font-family="Helvetica,sans-Serif" font-size="10.00">Math/GenVector/Displacement</text>
<text text-anchor="middle" x="1823" y="-8" font-family="Helvetica,sans-Serif" font-size="10.00">Vector2D.h</text>
</g>
<!-- Node26&#45;&gt;Node27 -->
<g id="edge35" class="edge"><title>Node26&#45;&gt;Node27</title>
<path fill="none" stroke="midnightblue" d="M1902.1,-74.3717C1889.22,-65.0286 1868.22,-49.7966 1851.09,-37.375"/>
<polygon fill="midnightblue" stroke="midnightblue" points="1852.7,-34.2194 1842.55,-31.1815 1848.59,-39.8859 1852.7,-34.2194"/>
</g>
<!-- Node28 -->
<g id="node28" class="node"><title>Node28</title>
<polygon fill="none" stroke="#bfbfbf" points="1917,-6.5 1917,-25.5 2093,-25.5 2093,-6.5 1917,-6.5"/>
<text text-anchor="middle" x="2005" y="-13.5" font-family="Helvetica,sans-Serif" font-size="10.00">Math/GenVector/PositionVector2D.h</text>
</g>
<!-- Node26&#45;&gt;Node28 -->
<g id="edge36" class="edge"><title>Node26&#45;&gt;Node28</title>
<path fill="none" stroke="midnightblue" d="M1925.9,-74.3717C1940.88,-63.5015 1966.86,-44.6602 1984.94,-31.5474"/>
<polygon fill="midnightblue" stroke="midnightblue" points="1987.06,-34.3349 1993.1,-25.6305 1982.95,-28.6684 1987.06,-34.3349"/>
</g>
<!-- Node30&#45;&gt;Node4 -->
<g id="edge42" class="edge"><title>Node30&#45;&gt;Node4</title>
<path fill="none" stroke="midnightblue" d="M826.77,-194.63C769.09,-181.105 690.848,-153.739 644,-100 628.424,-82.1334 623.71,-54.4426 622.373,-36.0233"/>
<polygon fill="midnightblue" stroke="midnightblue" points="625.865,-35.7529 621.911,-25.9235 618.872,-36.0732 625.865,-35.7529"/>
</g>
<!-- Node30&#45;&gt;Node7 -->
<g id="edge41" class="edge"><title>Node30&#45;&gt;Node7</title>
<path fill="none" stroke="midnightblue" d="M973.303,-199.595C1044.56,-191.733 1155.94,-177.695 1261.82,-155.757"/>
<polygon fill="midnightblue" stroke="midnightblue" points="1262.65,-159.159 1271.72,-153.68 1261.21,-152.309 1262.65,-159.159"/>
</g>
<!-- Node31 -->
<g id="node31" class="node"><title>Node31</title>
<polygon fill="none" stroke="#bfbfbf" points="2240,-6.5 2240,-25.5 2278,-25.5 2278,-6.5 2240,-6.5"/>
<text text-anchor="middle" x="2259" y="-13.5" font-family="Helvetica,sans-Serif" font-size="10.00">array</text>
</g>
<!-- Node30&#45;&gt;Node31 -->
<g id="edge39" class="edge"><title>Node30&#45;&gt;Node31</title>
<path fill="none" stroke="midnightblue" d="M973.088,-198.342C1026.87,-190.668 1101.23,-177.307 1164,-156 1182.82,-149.611 1184.77,-141.011 1204,-136 1372.13,-92.1993 1822.8,-162.275 1985,-100 2005.93,-91.9634 2003.81,-77.7609 2024,-68 2092.89,-34.6849 2183.61,-22.9314 2229.58,-18.9426"/>
<polygon fill="midnightblue" stroke="midnightblue" points="2230.05,-22.4161 2239.74,-18.1258 2229.49,-15.4386 2230.05,-22.4161"/>
</g>
<!-- Node32 -->
<g id="node32" class="node"><title>Node32</title>
<polygon fill="none" stroke="#bfbfbf" points="1212.5,-136.5 1212.5,-155.5 1253.5,-155.5 1253.5,-136.5 1212.5,-136.5"/>
<text text-anchor="middle" x="1233" y="-143.5" font-family="Helvetica,sans-Serif" font-size="10.00">string</text>
</g>
<!-- Node30&#45;&gt;Node32 -->
<g id="edge40" class="edge"><title>Node30&#45;&gt;Node32</title>
<path fill="none" stroke="midnightblue" d="M973.189,-196.193C1033.71,-186.845 1121.78,-172.294 1198,-156 1199.46,-155.689 1200.95,-155.357 1202.45,-155.013"/>
<polygon fill="midnightblue" stroke="midnightblue" points="1203.45,-158.372 1212.34,-152.613 1201.8,-151.569 1203.45,-158.372"/>
</g>
<!-- Node33&#45;&gt;Node32 -->
<g id="edge63" class="edge"><title>Node33&#45;&gt;Node32</title>
<path fill="none" stroke="midnightblue" d="M1092.29,-266.102C1089.64,-249.543 1086.53,-213.712 1104,-192 1110.38,-184.074 1166.15,-166.56 1202.24,-155.87"/>
<polygon fill="midnightblue" stroke="midnightblue" points="1203.68,-159.095 1212.29,-152.919 1201.7,-152.379 1203.68,-159.095"/>
</g>
<!-- Node34 -->
<g id="node34" class="node"><title>Node34</title>
<g id="a_node34"><a xlink:href="../../d4/d20/DetMatrixCache_8h.html" target="_top" xlink:title="DetectorsBase/DetMatrixCache.h">
<polygon fill="none" stroke="black" points="1575,-198.5 1575,-217.5 1739,-217.5 1739,-198.5 1575,-198.5"/>
<text text-anchor="middle" x="1657" y="-205.5" font-family="Helvetica,sans-Serif" font-size="10.00">DetectorsBase/DetMatrixCache.h</text>
</a>
</g>
</g>
<!-- Node33&#45;&gt;Node34 -->
<g id="edge46" class="edge"><title>Node33&#45;&gt;Node34</title>
<path fill="none" stroke="midnightblue" d="M1166.74,-266.473C1271.52,-254.19 1464.4,-231.578 1574.41,-218.682"/>
<polygon fill="midnightblue" stroke="midnightblue" points="1574.94,-222.144 1584.47,-217.503 1574.13,-215.191 1574.94,-222.144"/>
</g>
<!-- Node43 -->
<g id="node43" class="node"><title>Node43</title>
<polygon fill="none" stroke="#bfbfbf" points="1112.5,-198.5 1112.5,-217.5 1181.5,-217.5 1181.5,-198.5 1112.5,-198.5"/>
<text text-anchor="middle" x="1147" y="-205.5" font-family="Helvetica,sans-Serif" font-size="10.00">TObjArray.h</text>
</g>
<!-- Node33&#45;&gt;Node43 -->
<g id="edge62" class="edge"><title>Node33&#45;&gt;Node43</title>
<path fill="none" stroke="midnightblue" d="M1100.93,-266.372C1109.14,-256.151 1123,-238.884 1133.38,-225.957"/>
<polygon fill="midnightblue" stroke="midnightblue" points="1136.37,-227.83 1139.9,-217.841 1130.91,-223.447 1136.37,-227.83"/>
</g>
<!-- Node34&#45;&gt;Node4 -->
<g id="edge60" class="edge"><title>Node34&#45;&gt;Node4</title>
<path fill="none" stroke="midnightblue" d="M1657.6,-198.355C1658.97,-184.152 1663.34,-155.514 1677,-136 1692.7,-113.566 1714.52,-124.372 1727,-100 1733.48,-87.3418 1736.82,-78.2858 1727,-68 1689.39,-28.618 850.854,-18.9852 660.29,-17.3015"/>
<polygon fill="midnightblue" stroke="midnightblue" points="660.216,-13.8009 650.186,-17.2144 660.156,-20.8006 660.216,-13.8009"/>
</g>
<!-- Node34&#45;&gt;Node7 -->
<g id="edge47" class="edge"><title>Node34&#45;&gt;Node7</title>
<path fill="none" stroke="midnightblue" d="M1605.38,-198.467C1529.33,-185.897 1389.4,-162.768 1326.33,-152.343"/>
<polygon fill="midnightblue" stroke="midnightblue" points="1326.62,-148.844 1316.18,-150.666 1325.47,-155.75 1326.62,-148.844"/>
</g>
<!-- Node34&#45;&gt;Node19 -->
<g id="edge49" class="edge"><title>Node34&#45;&gt;Node19</title>
<path fill="none" stroke="midnightblue" d="M1577.09,-198.499C1467.28,-186.817 1271.35,-165.974 1165.55,-154.718"/>
<polygon fill="midnightblue" stroke="midnightblue" points="1165.92,-151.237 1155.6,-153.66 1165.18,-158.198 1165.92,-151.237"/>
</g>
<!-- Node34&#45;&gt;Node31 -->
<g id="edge48" class="edge"><title>Node34&#45;&gt;Node31</title>
<path fill="none" stroke="midnightblue" d="M1739.26,-205.581C1869.45,-202.278 2116.4,-191.406 2196,-156 2229.63,-141.043 2241.79,-133.512 2257,-100 2266.29,-79.5433 2265.01,-53.2302 2262.58,-35.7745"/>
<polygon fill="midnightblue" stroke="midnightblue" points="2266.01,-35.0298 2260.93,-25.7331 2259.1,-36.1696 2266.01,-35.0298"/>
</g>
<!-- Node35 -->
<g id="node35" class="node"><title>Node35</title>
<g id="a_node35"><a xlink:href="../../d6/d31/DetID_8h.html" target="_top" xlink:title="DetectorsBase/DetID.h">
<polygon fill="none" stroke="black" points="2068.5,-136.5 2068.5,-155.5 2187.5,-155.5 2187.5,-136.5 2068.5,-136.5"/>
<text text-anchor="middle" x="2128" y="-143.5" font-family="Helvetica,sans-Serif" font-size="10.00">DetectorsBase/DetID.h</text>
</a>
</g>
</g>
<!-- Node34&#45;&gt;Node35 -->
<g id="edge50" class="edge"><title>Node34&#45;&gt;Node35</title>
<path fill="none" stroke="midnightblue" d="M1723.98,-198.467C1812.63,-187.174 1968.18,-167.359 2058.22,-155.89"/>
<polygon fill="midnightblue" stroke="midnightblue" points="2058.85,-159.338 2068.33,-154.602 2057.96,-152.394 2058.85,-159.338"/>
</g>
<!-- Node42 -->
<g id="node42" class="node"><title>Node42</title>
<polygon fill="none" stroke="#bfbfbf" points="1685.5,-136.5 1685.5,-155.5 1756.5,-155.5 1756.5,-136.5 1685.5,-136.5"/>
<text text-anchor="middle" x="1721" y="-143.5" font-family="Helvetica,sans-Serif" font-size="10.00">FairLogger.h</text>
</g>
<!-- Node34&#45;&gt;Node42 -->
<g id="edge61" class="edge"><title>Node34&#45;&gt;Node42</title>
<path fill="none" stroke="midnightblue" d="M1666.17,-198.403C1676.15,-189.047 1692.31,-173.895 1704.51,-162.46"/>
<polygon fill="midnightblue" stroke="midnightblue" points="1706.95,-164.973 1711.85,-155.581 1702.16,-159.867 1706.95,-164.973"/>
</g>
<!-- Node35&#45;&gt;Node4 -->
<g id="edge54" class="edge"><title>Node35&#45;&gt;Node4</title>
<path fill="none" stroke="midnightblue" d="M2068.23,-143.657C2008.99,-140.488 1916.7,-130.527 1843,-100 1820.66,-90.7466 1821.83,-75.9737 1799,-68 1689.5,-29.7516 849.944,-19.2435 660.081,-17.3457"/>
<polygon fill="midnightblue" stroke="midnightblue" points="660.052,-13.8453 650.019,-17.2471 659.984,-20.845 660.052,-13.8453"/>
</g>
<!-- Node35&#45;&gt;Node31 -->
<g id="edge52" class="edge"><title>Node35&#45;&gt;Node31</title>
<path fill="none" stroke="midnightblue" d="M2170.23,-136.494C2192.35,-129.99 2218.26,-118.82 2235,-100 2250.94,-82.0885 2256.33,-54.19 2258.13,-35.7566"/>
<polygon fill="midnightblue" stroke="midnightblue" points="2261.63,-35.9004 2258.85,-25.6762 2254.65,-35.4012 2261.63,-35.9004"/>
</g>
<!-- Node36 -->
<g id="node36" class="node"><title>Node36</title>
<polygon fill="none" stroke="#bfbfbf" points="2033,-74.5 2033,-93.5 2079,-93.5 2079,-74.5 2033,-74.5"/>
<text text-anchor="middle" x="2056" y="-81.5" font-family="Helvetica,sans-Serif" font-size="10.00">cstdint</text>
</g>
<!-- Node35&#45;&gt;Node36 -->
<g id="edge51" class="edge"><title>Node35&#45;&gt;Node36</title>
<path fill="none" stroke="midnightblue" d="M2117.68,-136.403C2106.35,-126.958 2087.93,-111.606 2074.16,-100.134"/>
<polygon fill="midnightblue" stroke="midnightblue" points="2076.22,-97.2937 2066.3,-93.5806 2071.74,-102.671 2076.22,-97.2937"/>
</g>
<!-- Node37 -->
<g id="node37" class="node"><title>Node37</title>
<polygon fill="none" stroke="#bfbfbf" points="2097,-74.5 2097,-93.5 2159,-93.5 2159,-74.5 2097,-74.5"/>
<text text-anchor="middle" x="2128" y="-81.5" font-family="Helvetica,sans-Serif" font-size="10.00">type_traits</text>
</g>
<!-- Node35&#45;&gt;Node37 -->
<g id="edge53" class="edge"><title>Node35&#45;&gt;Node37</title>
<path fill="none" stroke="midnightblue" d="M2128,-136.403C2128,-127.938 2128,-114.728 2128,-103.82"/>
<polygon fill="midnightblue" stroke="midnightblue" points="2131.5,-103.581 2128,-93.5806 2124.5,-103.581 2131.5,-103.581"/>
</g>
<!-- Node38 -->
<g id="node38" class="node"><title>Node38</title>
<g id="a_node38"><a xlink:href="../../d9/ded/Utils_8h.html" target="_top" xlink:title="DetectorsBase/Utils.h">
<polygon fill="none" stroke="black" points="2321.5,-74.5 2321.5,-93.5 2434.5,-93.5 2434.5,-74.5 2321.5,-74.5"/>
<text text-anchor="middle" x="2378" y="-81.5" font-family="Helvetica,sans-Serif" font-size="10.00">DetectorsBase/Utils.h</text>
</a>
</g>
</g>
<!-- Node35&#45;&gt;Node38 -->
<g id="edge55" class="edge"><title>Node35&#45;&gt;Node38</title>
<path fill="none" stroke="midnightblue" d="M2163.55,-136.467C2207.98,-125.805 2284.06,-107.545 2332.64,-95.886"/>
<polygon fill="midnightblue" stroke="midnightblue" points="2333.66,-99.2405 2342.57,-93.5034 2332.03,-92.4338 2333.66,-99.2405"/>
</g>
<!-- Node41 -->
<g id="node41" class="node"><title>Node41</title>
<polygon fill="none" stroke="#bfbfbf" points="2177.5,-74.5 2177.5,-93.5 2226.5,-93.5 2226.5,-74.5 2177.5,-74.5"/>
<text text-anchor="middle" x="2202" y="-81.5" font-family="Helvetica,sans-Serif" font-size="10.00">cassert</text>
</g>
<!-- Node35&#45;&gt;Node41 -->
<g id="edge59" class="edge"><title>Node35&#45;&gt;Node41</title>
<path fill="none" stroke="midnightblue" d="M2138.6,-136.403C2150.25,-126.958 2169.19,-111.606 2183.33,-100.134"/>
<polygon fill="midnightblue" stroke="midnightblue" points="2185.85,-102.597 2191.42,-93.5806 2181.45,-97.16 2185.85,-102.597"/>
</g>
<!-- Node38&#45;&gt;Node31 -->
<g id="edge58" class="edge"><title>Node38&#45;&gt;Node31</title>
<path fill="none" stroke="midnightblue" d="M2362.44,-74.3717C2342.31,-63.2051 2307.01,-43.6266 2283.32,-30.4876"/>
<polygon fill="midnightblue" stroke="midnightblue" points="2285,-27.4199 2274.56,-25.6305 2281.61,-33.5415 2285,-27.4199"/>
</g>
<!-- Node39 -->
<g id="node39" class="node"><title>Node39</title>
<g id="a_node39"><a xlink:href="../../d1/daa/Base_2include_2DetectorsBase_2Constants_8h.html" target="_top" xlink:title="DetectorsBase/Constants.h">
<polygon fill="none" stroke="black" points="2304,-6.5 2304,-25.5 2442,-25.5 2442,-6.5 2304,-6.5"/>
<text text-anchor="middle" x="2373" y="-13.5" font-family="Helvetica,sans-Serif" font-size="10.00">DetectorsBase/Constants.h</text>
</a>
</g>
</g>
<!-- Node38&#45;&gt;Node39 -->
<g id="edge56" class="edge"><title>Node38&#45;&gt;Node39</title>
<path fill="none" stroke="midnightblue" d="M2377.35,-74.3717C2376.61,-64.6426 2375.39,-48.528 2374.43,-35.8504"/>
<polygon fill="midnightblue" stroke="midnightblue" points="2377.92,-35.5481 2373.67,-25.8411 2370.94,-36.077 2377.92,-35.5481"/>
</g>
<!-- Node40 -->
<g id="node40" class="node"><title>Node40</title>
<polygon fill="none" stroke="#bfbfbf" points="2460,-6.5 2460,-25.5 2504,-25.5 2504,-6.5 2460,-6.5"/>
<text text-anchor="middle" x="2482" y="-13.5" font-family="Helvetica,sans-Serif" font-size="10.00">cmath</text>
</g>
<!-- Node38&#45;&gt;Node40 -->
<g id="edge57" class="edge"><title>Node38&#45;&gt;Node40</title>
<path fill="none" stroke="midnightblue" d="M2391.6,-74.3717C2408.96,-63.3533 2439.23,-44.1449 2459.92,-31.0142"/>
<polygon fill="midnightblue" stroke="midnightblue" points="2461.83,-33.9439 2468.4,-25.6305 2458.08,-28.0336 2461.83,-33.9439"/>
</g>
</g>
</svg>
