<?xml version="1.0" encoding="UTF-8" standalone="no"?>
<!DOCTYPE svg PUBLIC "-//W3C//DTD SVG 1.1//EN"
 "http://www.w3.org/Graphics/SVG/1.1/DTD/svg11.dtd">
<!-- Generated by graphviz version 2.36.0 (20140111.2315)
 -->
<!-- Title: /home/travis/build/AliceO2Group/AliceO2/DataFormats Pages: 1 -->
<svg width="483pt" height="168pt"
 viewBox="0.00 0.00 483.00 167.85" xmlns="http://www.w3.org/2000/svg" xmlns:xlink="http://www.w3.org/1999/xlink">
<g id="graph0" class="graph" transform="scale(1 1) rotate(0) translate(4 163.846)">
<title>/home/travis/build/AliceO2Group/AliceO2/DataFormats</title>
<g id="clust1" class="cluster"><title>clusterdir_2171f7ec022c5423887b07c69b2f5b48</title>
<g id="a_clust1"><a xlink:href="dir_2171f7ec022c5423887b07c69b2f5b48.html" target="_top">
<polygon fill="#eeeeff" stroke="black" points="8,-8 8,-132 406,-132 406,-8 8,-8"/>
</a>
</g>
</g>
<!-- dir_2171f7ec022c5423887b07c69b2f5b48 -->
<g id="node1" class="node"><title>dir_2171f7ec022c5423887b07c69b2f5b48</title>
<text text-anchor="middle" x="361" y="-103.5" font-family="Helvetica,sans-Serif" font-size="10.00">DataFormats</text>
</g>
<!-- dir_183e7c4434404fe9096e1bd8673e1fcf -->
<g id="node2" class="node"><title>dir_183e7c4434404fe9096e1bd8673e1fcf</title>
<g id="a_node2"><a xlink:href="dir_183e7c4434404fe9096e1bd8673e1fcf.html" target="_top" xlink:title="Headers">
<polygon fill="white" stroke="red" points="148,-52 94,-52 94,-16 148,-16 148,-52"/>
<text text-anchor="middle" x="121" y="-31.5" font-family="Helvetica,sans-Serif" font-size="10.00">Headers</text>
</a>
</g>
</g>
<!-- dir_dfa95816b29f32ea9733fcc47ad2b363 -->
<g id="node3" class="node"><title>dir_dfa95816b29f32ea9733fcc47ad2b363</title>
<g id="a_node3"><a xlink:href="dir_dfa95816b29f32ea9733fcc47ad2b363.html" target="_top" xlink:title="Legacy">
<polygon fill="white" stroke="red" points="306,-124 252,-124 252,-88 306,-88 306,-124"/>
<text text-anchor="middle" x="279" y="-103.5" font-family="Helvetica,sans-Serif" font-size="10.00">Legacy</text>
</a>
</g>
</g>
<!-- dir_047746f9f311f49446db9474b7431d0d -->
<g id="node4" class="node"><title>dir_047746f9f311f49446db9474b7431d0d</title>
<g id="a_node4"><a xlink:href="dir_047746f9f311f49446db9474b7431d0d.html" target="_top" xlink:title="simulation">
<polygon fill="white" stroke="red" points="233.25,-124 172.75,-124 172.75,-88 233.25,-88 233.25,-124"/>
<text text-anchor="middle" x="203" y="-103.5" font-family="Helvetica,sans-Serif" font-size="10.00">simulation</text>
</a>
</g>
</g>
<!-- dir_4ab6b4cc6a7edbff49100e9123df213f -->
<g id="node7" class="node"><title>dir_4ab6b4cc6a7edbff49100e9123df213f</title>
<g id="a_node7"><a xlink:href="dir_4ab6b4cc6a7edbff49100e9123df213f.html" target="_top" xlink:title="Common">
<polygon fill="none" stroke="red" points="471.5,-52 416.5,-52 416.5,-16 471.5,-16 471.5,-52"/>
<text text-anchor="middle" x="444" y="-31.5" font-family="Helvetica,sans-Serif" font-size="10.00">Common</text>
</a>
</g>
</g>
<!-- dir_047746f9f311f49446db9474b7431d0d&#45;&gt;dir_4ab6b4cc6a7edbff49100e9123df213f -->
<g id="edge4" class="edge"><title>dir_047746f9f311f49446db9474b7431d0d&#45;&gt;dir_4ab6b4cc6a7edbff49100e9123df213f</title>
<path fill="none" stroke="black" d="M233.35,-91.3988C236.577,-90.1645 239.835,-89.0036 243,-88 312.265,-66.0341 336.301,-76.1988 406.652,-52.8544"/>
<polygon fill="black" stroke="black" points="408.095,-56.0596 416.416,-49.5015 405.821,-49.4391 408.095,-56.0596"/>
<g id="a_edge4&#45;headlabel"><a xlink:href="dir_000042_000016.html" target="_top" xlink:title="1">
<text text-anchor="middle" x="405.617" y="-57.4124" font-family="Helvetica,sans-Serif" font-size="10.00">1</text>
</a>
</g>
</g>
<!-- dir_051dca18e802f8e9474f2e30d29c04e0 -->
<g id="node8" class="node"><title>dir_051dca18e802f8e9474f2e30d29c04e0</title>
<g id="a_node8"><a xlink:href="dir_051dca18e802f8e9474f2e30d29c04e0.html" target="_top" xlink:title="Detectors">
<polygon fill="none" stroke="red" points="475.25,-124 416.75,-124 416.75,-88 475.25,-88 475.25,-124"/>
<text text-anchor="middle" x="446" y="-103.5" font-family="Helvetica,sans-Serif" font-size="10.00">Detectors</text>
</a>
</g>
</g>
<!-- dir_047746f9f311f49446db9474b7431d0d&#45;&gt;dir_051dca18e802f8e9474f2e30d29c04e0 -->
<g id="edge5" class="edge"><title>dir_047746f9f311f49446db9474b7431d0d&#45;&gt;dir_051dca18e802f8e9474f2e30d29c04e0</title>
<path fill="none" stroke="black" d="M217.25,-124.073C226.084,-133.765 238.334,-144.765 252,-150 282.92,-161.845 370.339,-162.499 401,-150 410.511,-146.123 419.105,-139.161 426.172,-131.902"/>
<polygon fill="black" stroke="black" points="429.149,-133.824 433.213,-124.04 423.934,-129.154 429.149,-133.824"/>
<g id="a_edge5&#45;headlabel"><a xlink:href="dir_000042_000056.html" target="_top" xlink:title="5">
<text text-anchor="middle" x="428.865" y="-135.896" font-family="Helvetica,sans-Serif" font-size="10.00">5</text>
</a>
</g>
</g>
<!-- dir_938f0f489a9afdd9521c88acbea7d897 -->
<g id="node5" class="node"><title>dir_938f0f489a9afdd9521c88acbea7d897</title>
<g id="a_node5"><a xlink:href="dir_938f0f489a9afdd9521c88acbea7d897.html" target="_top" xlink:title="TimeFrame">
<polygon fill="white" stroke="red" points="154,-124 88,-124 88,-88 154,-88 154,-124"/>
<text text-anchor="middle" x="121" y="-103.5" font-family="Helvetica,sans-Serif" font-size="10.00">TimeFrame</text>
</a>
</g>
</g>
<!-- dir_938f0f489a9afdd9521c88acbea7d897&#45;&gt;dir_183e7c4434404fe9096e1bd8673e1fcf -->
<g id="edge7" class="edge"><title>dir_938f0f489a9afdd9521c88acbea7d897&#45;&gt;dir_183e7c4434404fe9096e1bd8673e1fcf</title>
<path fill="none" stroke="black" d="M121,-87.6966C121,-79.9827 121,-70.7125 121,-62.1124"/>
<polygon fill="black" stroke="black" points="124.5,-62.1043 121,-52.1043 117.5,-62.1044 124.5,-62.1043"/>
<g id="a_edge7&#45;headlabel"><a xlink:href="dir_000047_000033.html" target="_top" xlink:title="2">
<text text-anchor="middle" x="127.339" y="-63.199" font-family="Helvetica,sans-Serif" font-size="10.00">2</text>
</a>
</g>
</g>
<!-- dir_ca8d7a97db1fcc83aa37982b02bd5e83 -->
<g id="node6" class="node"><title>dir_ca8d7a97db1fcc83aa37982b02bd5e83</title>
<g id="a_node6"><a xlink:href="dir_ca8d7a97db1fcc83aa37982b02bd5e83.html" target="_top" xlink:title="TPC">
<polygon fill="white" stroke="red" points="70,-124 16,-124 16,-88 70,-88 70,-124"/>
<text text-anchor="middle" x="43" y="-103.5" font-family="Helvetica,sans-Serif" font-size="10.00">TPC</text>
</a>
</g>
</g>
<!-- dir_ca8d7a97db1fcc83aa37982b02bd5e83&#45;&gt;dir_051dca18e802f8e9474f2e30d29c04e0 -->
<g id="edge6" class="edge"><title>dir_ca8d7a97db1fcc83aa37982b02bd5e83&#45;&gt;dir_051dca18e802f8e9474f2e30d29c04e0</title>
<path fill="none" stroke="black" d="M55.7866,-124.04C63.7989,-133.721 75.0489,-144.721 88,-150 120.205,-163.128 368.795,-163.128 401,-150 410.511,-146.123 419.105,-139.161 426.172,-131.902"/>
<polygon fill="black" stroke="black" points="429.149,-133.824 433.213,-124.04 423.934,-129.154 429.149,-133.824"/>
<g id="a_edge6&#45;headlabel"><a xlink:href="dir_000052_000056.html" target="_top" xlink:title="1">
<text text-anchor="middle" x="428.865" y="-135.896" font-family="Helvetica,sans-Serif" font-size="10.00">1</text>
</a>
</g>
</g>
<!-- dir_051dca18e802f8e9474f2e30d29c04e0&#45;&gt;dir_047746f9f311f49446db9474b7431d0d -->
<g id="edge2" class="edge"><title>dir_051dca18e802f8e9474f2e30d29c04e0&#45;&gt;dir_047746f9f311f49446db9474b7431d0d</title>
<path fill="none" stroke="black" d="M433.213,-124.04C425.201,-133.721 413.951,-144.721 401,-150 370.339,-162.499 282.92,-161.845 252,-150 241.75,-146.073 232.297,-138.904 224.485,-131.477"/>
<polygon fill="black" stroke="black" points="226.743,-128.779 217.25,-124.073 221.736,-133.672 226.743,-128.779"/>
<g id="a_edge2&#45;headlabel"><a xlink:href="dir_000056_000042.html" target="_top" xlink:title="53">
<text text-anchor="middle" x="231.286" y="-126.866" font-family="Helvetica,sans-Serif" font-size="10.00">53</text>
</a>
</g>
</g>
<!-- dir_051dca18e802f8e9474f2e30d29c04e0&#45;&gt;dir_ca8d7a97db1fcc83aa37982b02bd5e83 -->
<g id="edge3" class="edge"><title>dir_051dca18e802f8e9474f2e30d29c04e0&#45;&gt;dir_ca8d7a97db1fcc83aa37982b02bd5e83</title>
<path fill="none" stroke="black" d="M433.213,-124.04C425.201,-133.721 413.951,-144.721 401,-150 368.795,-163.128 120.205,-163.128 88,-150 78.489,-146.123 69.8955,-139.161 62.8279,-131.902"/>
<polygon fill="black" stroke="black" points="65.0657,-129.154 55.7866,-124.04 59.8515,-133.824 65.0657,-129.154"/>
<g id="a_edge3&#45;headlabel"><a xlink:href="dir_000056_000052.html" target="_top" xlink:title="5">
<text text-anchor="middle" x="69.5789" y="-127.437" font-family="Helvetica,sans-Serif" font-size="10.00">5</text>
</a>
</g>
</g>
<!-- dir_051dca18e802f8e9474f2e30d29c04e0&#45;&gt;dir_4ab6b4cc6a7edbff49100e9123df213f -->
<g id="edge1" class="edge"><title>dir_051dca18e802f8e9474f2e30d29c04e0&#45;&gt;dir_4ab6b4cc6a7edbff49100e9123df213f</title>
<path fill="none" stroke="black" d="M445.506,-87.6966C445.285,-79.9827 445.02,-70.7125 444.775,-62.1124"/>
<polygon fill="black" stroke="black" points="448.273,-62.0003 444.489,-52.1043 441.276,-62.2002 448.273,-62.0003"/>
<g id="a_edge1&#45;headlabel"><a xlink:href="dir_000056_000016.html" target="_top" xlink:title="31">
<text text-anchor="middle" x="451.214" y="-63.0124" font-family="Helvetica,sans-Serif" font-size="10.00">31</text>
</a>
</g>
</g>
</g>
</svg>
