<?xml version="1.0" encoding="UTF-8" standalone="no"?>
<!DOCTYPE svg PUBLIC "-//W3C//DTD SVG 1.1//EN"
 "http://www.w3.org/Graphics/SVG/1.1/DTD/svg11.dtd">
<!-- Generated by graphviz version 2.36.0 (20140111.2315)
 -->
<!-- Title: /home/travis/build/AliceO2Group/AliceO2/Detectors Pages: 1 -->
<!--zoomable 348 -->
<svg id="main" version="1.1" xmlns="http://www.w3.org/2000/svg" xmlns:xlink="http://www.w3.org/1999/xlink" xml:space="preserve" onload="init(evt)">
<style type="text/css"><![CDATA[
.edge:hover path { stroke: red; }
.edge:hover polygon { stroke: red; fill: red; }
]]></style>
<script type="text/javascript"><![CDATA[
var edges = document.getElementsByTagName('g');
if (edges && edges.length) {
  for (var i=0;i<edges.length;i++) {
    if (edges[i].id.substr(0,4)=='edge') {
      edges[i].setAttribute('class','edge');
    }
  }
}
]]></script>
        <defs>
                <circle id="rim" cx="0" cy="0" r="7"/>
                <circle id="rim2" cx="0" cy="0" r="3.5"/>
                <g id="zoomPlus">
                        <use xlink:href="#rim" fill="#404040">
                                <set attributeName="fill" to="#808080" begin="zoomplus.mouseover" end="zoomplus.mouseout"/>
                        </use>
                        <path d="M-4,0h8M0,-4v8" fill="none" stroke="white" stroke-width="1.5" pointer-events="none"/>
                </g>
                <g id="zoomMin">
                        <use xlink:href="#rim" fill="#404040">
                                <set attributeName="fill" to="#808080" begin="zoomminus.mouseover" end="zoomminus.mouseout"/>
                        </use>
                        <path d="M-4,0h8" fill="none" stroke="white" stroke-width="1.5" pointer-events="none"/>
                </g>
                <g id="dirArrow">
                        <path fill="none" stroke="white" stroke-width="1.5" d="M0,-3.0v7 M-2.5,-0.5L0,-3.0L2.5,-0.5"/>
                </g>
               <g id="resetDef">
                       <use xlink:href="#rim2" fill="#404040">
                               <set attributeName="fill" to="#808080" begin="reset.mouseover" end="reset.mouseout"/>
                       </use>
               </g>
        </defs>

<script type="text/javascript">
var viewWidth = 589;
var viewHeight = 348;
var sectionId = 'dynsection-0';
</script>
<script xlink:href="svgpan.js"/>
<svg id="graph" class="graph">
<g id="viewport">
<title>/home/travis/build/AliceO2Group/AliceO2/Detectors</title>
<g id="clust1" class="cluster"><title>clusterdir_051dca18e802f8e9474f2e30d29c04e0</title>
<g id="a_clust1"><a xlink:href="dir_051dca18e802f8e9474f2e30d29c04e0.html" target="_top">
<polygon fill="#eeeeff" stroke="black" points="8,-64 8,-332 354,-332 354,-64 8,-64"/>
</a>
</g>
</g>
<!-- dir_051dca18e802f8e9474f2e30d29c04e0 -->
<g id="node1" class="node"><title>dir_051dca18e802f8e9474f2e30d29c04e0</title>
<text text-anchor="middle" x="316" y="-303.5" font-family="Helvetica,sans-Serif" font-size="10.00">Detectors</text>
</g>
<!-- dir_37c90836491b695b472bf98d1be8336b -->
<g id="node2" class="node"><title>dir_37c90836491b695b472bf98d1be8336b</title>
<g id="a_node2"><a xlink:href="dir_37c90836491b695b472bf98d1be8336b.html" target="_top" xlink:title="Base">
<polygon fill="white" stroke="red" points="202,-108 148,-108 148,-72 202,-72 202,-108"/>
<text text-anchor="middle" x="175" y="-87.5" font-family="Helvetica,sans-Serif" font-size="10.00">Base</text>
</a>
</g>
</g>
<!-- dir_4ab6b4cc6a7edbff49100e9123df213f -->
<g id="node12" class="node"><title>dir_4ab6b4cc6a7edbff49100e9123df213f</title>
<g id="a_node12"><a xlink:href="dir_4ab6b4cc6a7edbff49100e9123df213f.html" target="_top" xlink:title="Common">
<polygon fill="none" stroke="red" points="307.5,-36 252.5,-36 252.5,-0 307.5,-0 307.5,-36"/>
<text text-anchor="middle" x="280" y="-15.5" font-family="Helvetica,sans-Serif" font-size="10.00">Common</text>
</a>
</g>
</g>
<!-- dir_37c90836491b695b472bf98d1be8336b&#45;&gt;dir_4ab6b4cc6a7edbff49100e9123df213f -->
<g id="edge15" class="edge"><title>dir_37c90836491b695b472bf98d1be8336b&#45;&gt;dir_4ab6b4cc6a7edbff49100e9123df213f</title>
<path fill="none" stroke="black" d="M200.686,-71.8761C214.288,-62.8083 231.172,-51.5523 245.861,-41.7592"/>
<polygon fill="black" stroke="black" points="247.836,-44.649 254.215,-36.1898 243.953,-38.8246 247.836,-44.649"/>
<g id="a_edge15&#45;headlabel"><a xlink:href="dir_000057_000016.html" target="_top" xlink:title="5">
<text text-anchor="middle" x="246.42" y="-46.5053" font-family="Helvetica,sans-Serif" font-size="10.00">5</text>
</a>
</g>
</g>
<!-- dir_088378b58cb1ba39db48039cbd66d10f -->
<g id="node3" class="node"><title>dir_088378b58cb1ba39db48039cbd66d10f</title>
<g id="a_node3"><a xlink:href="dir_088378b58cb1ba39db48039cbd66d10f.html" target="_top" xlink:title="EMCAL">
<polygon fill="white" stroke="red" points="268,-324 214,-324 214,-288 268,-288 268,-324"/>
<text text-anchor="middle" x="241" y="-303.5" font-family="Helvetica,sans-Serif" font-size="10.00">EMCAL</text>
</a>
</g>
</g>
<!-- dir_088378b58cb1ba39db48039cbd66d10f&#45;&gt;dir_37c90836491b695b472bf98d1be8336b -->
<g id="edge6" class="edge"><title>dir_088378b58cb1ba39db48039cbd66d10f&#45;&gt;dir_37c90836491b695b472bf98d1be8336b</title>
<path fill="none" stroke="black" d="M213.935,-299.347C163.239,-288.512 58.0636,-264.762 47,-252 15.4492,-215.606 10.7701,-183.731 38,-144 60.2461,-111.541 105.446,-98.9561 137.848,-94.0796"/>
<polygon fill="black" stroke="black" points="138.419,-97.5346 147.873,-92.7517 137.5,-90.5952 138.419,-97.5346"/>
<g id="a_edge6&#45;headlabel"><a xlink:href="dir_000060_000057.html" target="_top" xlink:title="1">
<text text-anchor="middle" x="135.228" y="-98.3212" font-family="Helvetica,sans-Serif" font-size="10.00">1</text>
</a>
</g>
</g>
<!-- dir_f01815b857f9009bea48e2cb39492245 -->
<g id="node7" class="node"><title>dir_f01815b857f9009bea48e2cb39492245</title>
<g id="a_node7"><a xlink:href="dir_f01815b857f9009bea48e2cb39492245.html" target="_top" xlink:title="Passive">
<polygon fill="white" stroke="red" points="110,-180 56,-180 56,-144 110,-144 110,-180"/>
<text text-anchor="middle" x="83" y="-159.5" font-family="Helvetica,sans-Serif" font-size="10.00">Passive</text>
</a>
</g>
</g>
<!-- dir_088378b58cb1ba39db48039cbd66d10f&#45;&gt;dir_f01815b857f9009bea48e2cb39492245 -->
<g id="edge8" class="edge"><title>dir_088378b58cb1ba39db48039cbd66d10f&#45;&gt;dir_f01815b857f9009bea48e2cb39492245</title>
<path fill="none" stroke="black" d="M213.61,-295.828C191.373,-287.284 160.317,-272.73 139,-252 125.878,-239.239 128.596,-231.586 119,-216 113.46,-207.002 107.074,-197.383 101.233,-188.844"/>
<polygon fill="black" stroke="black" points="103.967,-186.643 95.4014,-180.407 98.2081,-190.623 103.967,-186.643"/>
<g id="a_edge8&#45;headlabel"><a xlink:href="dir_000060_000168.html" target="_top" xlink:title="5">
<text text-anchor="middle" x="108.346" y="-185.486" font-family="Helvetica,sans-Serif" font-size="10.00">5</text>
</a>
</g>
</g>
<!-- dir_577c839d346a264df4e9e588ca2a45dd -->
<g id="node8" class="node"><title>dir_577c839d346a264df4e9e588ca2a45dd</title>
<g id="a_node8"><a xlink:href="dir_577c839d346a264df4e9e588ca2a45dd.html" target="_top" xlink:title="TOF">
<polygon fill="white" stroke="red" points="110,-252 56,-252 56,-216 110,-216 110,-252"/>
<text text-anchor="middle" x="83" y="-231.5" font-family="Helvetica,sans-Serif" font-size="10.00">TOF</text>
</a>
</g>
</g>
<!-- dir_088378b58cb1ba39db48039cbd66d10f&#45;&gt;dir_577c839d346a264df4e9e588ca2a45dd -->
<g id="edge7" class="edge"><title>dir_088378b58cb1ba39db48039cbd66d10f&#45;&gt;dir_577c839d346a264df4e9e588ca2a45dd</title>
<path fill="none" stroke="black" d="M213.839,-292.967C187.759,-281.412 148.184,-263.879 119.388,-251.121"/>
<polygon fill="black" stroke="black" points="120.631,-247.844 110.071,-246.993 117.796,-254.244 120.631,-247.844"/>
<g id="a_edge7&#45;headlabel"><a xlink:href="dir_000060_000087.html" target="_top" xlink:title="1">
<text text-anchor="middle" x="125.068" y="-244.204" font-family="Helvetica,sans-Serif" font-size="10.00">1</text>
</a>
</g>
</g>
<!-- dir_a597e8e061b11201a1dff411feb10d0b -->
<g id="node9" class="node"><title>dir_a597e8e061b11201a1dff411feb10d0b</title>
<g id="a_node9"><a xlink:href="dir_a597e8e061b11201a1dff411feb10d0b.html" target="_top" xlink:title="TPC">
<polygon fill="white" stroke="red" points="346,-180 292,-180 292,-144 346,-144 346,-180"/>
<text text-anchor="middle" x="319" y="-159.5" font-family="Helvetica,sans-Serif" font-size="10.00">TPC</text>
</a>
</g>
</g>
<!-- dir_088378b58cb1ba39db48039cbd66d10f&#45;&gt;dir_a597e8e061b11201a1dff411feb10d0b -->
<g id="edge5" class="edge"><title>dir_088378b58cb1ba39db48039cbd66d10f&#45;&gt;dir_a597e8e061b11201a1dff411feb10d0b</title>
<path fill="none" stroke="black" d="M250.409,-287.871C263.878,-263.35 288.771,-218.032 304.576,-189.259"/>
<polygon fill="black" stroke="black" points="307.811,-190.639 309.558,-180.189 301.676,-187.269 307.811,-190.639"/>
<g id="a_edge5&#45;headlabel"><a xlink:href="dir_000060_000069.html" target="_top" xlink:title="1">
<text text-anchor="middle" x="308.569" y="-192.657" font-family="Helvetica,sans-Serif" font-size="10.00">1</text>
</a>
</g>
</g>
<!-- dir_0b342c6c6b7d2278121a0bb9c4985063 -->
<g id="node11" class="node"><title>dir_0b342c6c6b7d2278121a0bb9c4985063</title>
<g id="a_node11"><a xlink:href="dir_0b342c6c6b7d2278121a0bb9c4985063.html" target="_top" xlink:title="Generators">
<polygon fill="none" stroke="red" points="581.25,-252 516.75,-252 516.75,-216 581.25,-216 581.25,-252"/>
<text text-anchor="middle" x="549" y="-231.5" font-family="Helvetica,sans-Serif" font-size="10.00">Generators</text>
</a>
</g>
</g>
<!-- dir_088378b58cb1ba39db48039cbd66d10f&#45;&gt;dir_0b342c6c6b7d2278121a0bb9c4985063 -->
<g id="edge3" class="edge"><title>dir_088378b58cb1ba39db48039cbd66d10f&#45;&gt;dir_0b342c6c6b7d2278121a0bb9c4985063</title>
<path fill="none" stroke="black" d="M268.198,-291.183C271.124,-289.99 274.095,-288.898 277,-288 373.751,-258.08 403.948,-277.335 502,-252 503.646,-251.575 505.316,-251.115 506.995,-250.628"/>
<polygon fill="black" stroke="black" points="508.14,-253.937 516.633,-247.604 506.044,-247.259 508.14,-253.937"/>
<g id="a_edge3&#45;headlabel"><a xlink:href="dir_000060_000248.html" target="_top" xlink:title="1">
<text text-anchor="middle" x="505.56" y="-255.223" font-family="Helvetica,sans-Serif" font-size="10.00">1</text>
</a>
</g>
</g>
<!-- dir_088378b58cb1ba39db48039cbd66d10f&#45;&gt;dir_4ab6b4cc6a7edbff49100e9123df213f -->
<g id="edge4" class="edge"><title>dir_088378b58cb1ba39db48039cbd66d10f&#45;&gt;dir_4ab6b4cc6a7edbff49100e9123df213f</title>
<path fill="none" stroke="black" d="M268.056,-292.036C271.064,-290.651 274.09,-289.281 277,-288 315.675,-270.972 330.709,-276.694 365,-252 424.412,-209.216 436.055,-180.665 445,-108 447.389,-88.591 456.87,-79.5409 445,-64 429.608,-43.8478 361.302,-30.5544 317.544,-23.9385"/>
<polygon fill="black" stroke="black" points="317.934,-20.4584 307.533,-22.476 316.922,-27.3849 317.934,-20.4584"/>
<g id="a_edge4&#45;headlabel"><a xlink:href="dir_000060_000016.html" target="_top" xlink:title="3">
<text text-anchor="middle" x="321.901" y="-15.6685" font-family="Helvetica,sans-Serif" font-size="10.00">3</text>
</a>
</g>
</g>
<!-- dir_2171f7ec022c5423887b07c69b2f5b48 -->
<g id="node13" class="node"><title>dir_2171f7ec022c5423887b07c69b2f5b48</title>
<g id="a_node13"><a xlink:href="dir_2171f7ec022c5423887b07c69b2f5b48.html" target="_top" xlink:title="DataFormats">
<polygon fill="none" stroke="red" points="436,-108 362,-108 362,-72 436,-72 436,-108"/>
<text text-anchor="middle" x="399" y="-87.5" font-family="Helvetica,sans-Serif" font-size="10.00">DataFormats</text>
</a>
</g>
</g>
<!-- dir_088378b58cb1ba39db48039cbd66d10f&#45;&gt;dir_2171f7ec022c5423887b07c69b2f5b48 -->
<g id="edge9" class="edge"><title>dir_088378b58cb1ba39db48039cbd66d10f&#45;&gt;dir_2171f7ec022c5423887b07c69b2f5b48</title>
<path fill="none" stroke="black" d="M268.217,-289.082C311.987,-262.841 394.68,-210.387 410,-180 419.758,-160.646 415.649,-136.021 409.87,-117.582"/>
<polygon fill="black" stroke="black" points="413.148,-116.349 406.566,-108.047 406.534,-118.642 413.148,-116.349"/>
<g id="a_edge9&#45;headlabel"><a xlink:href="dir_000060_000032.html" target="_top" xlink:title="2">
<text text-anchor="middle" x="417.008" y="-116.316" font-family="Helvetica,sans-Serif" font-size="10.00">2</text>
</a>
</g>
</g>
<!-- dir_d14e88a79bca429480864605ee348cef -->
<g id="node4" class="node"><title>dir_d14e88a79bca429480864605ee348cef</title>
<g id="a_node4"><a xlink:href="dir_d14e88a79bca429480864605ee348cef.html" target="_top" xlink:title="FIT">
<polygon fill="white" stroke="red" points="274,-180 220,-180 220,-144 274,-144 274,-180"/>
<text text-anchor="middle" x="247" y="-159.5" font-family="Helvetica,sans-Serif" font-size="10.00">FIT</text>
</a>
</g>
</g>
<!-- dir_d14e88a79bca429480864605ee348cef&#45;&gt;dir_37c90836491b695b472bf98d1be8336b -->
<g id="edge10" class="edge"><title>dir_d14e88a79bca429480864605ee348cef&#45;&gt;dir_37c90836491b695b472bf98d1be8336b</title>
<path fill="none" stroke="black" d="M229.202,-143.697C220.396,-135.135 209.618,-124.656 199.999,-115.304"/>
<polygon fill="black" stroke="black" points="202.203,-112.566 192.593,-108.104 197.323,-117.585 202.203,-112.566"/>
<g id="a_edge10&#45;headlabel"><a xlink:href="dir_000076_000057.html" target="_top" xlink:title="1">
<text text-anchor="middle" x="206.759" y="-110.536" font-family="Helvetica,sans-Serif" font-size="10.00">1</text>
</a>
</g>
</g>
<!-- dir_d14e88a79bca429480864605ee348cef&#45;&gt;dir_2171f7ec022c5423887b07c69b2f5b48 -->
<g id="edge11" class="edge"><title>dir_d14e88a79bca429480864605ee348cef&#45;&gt;dir_2171f7ec022c5423887b07c69b2f5b48</title>
<path fill="none" stroke="black" d="M274.11,-148.153C277.107,-146.746 280.117,-145.339 283,-144 305.915,-133.355 331.449,-121.67 352.716,-111.986"/>
<polygon fill="black" stroke="black" points="354.201,-115.155 361.854,-107.828 351.302,-108.784 354.201,-115.155"/>
<g id="a_edge11&#45;headlabel"><a xlink:href="dir_000076_000032.html" target="_top" xlink:title="1">
<text text-anchor="middle" x="352.105" y="-116.728" font-family="Helvetica,sans-Serif" font-size="10.00">1</text>
</a>
</g>
</g>
<!-- dir_fda58d415f46ed5554e220ec8997f6b0 -->
<g id="node5" class="node"><title>dir_fda58d415f46ed5554e220ec8997f6b0</title>
<g id="a_node5"><a xlink:href="dir_fda58d415f46ed5554e220ec8997f6b0.html" target="_top" xlink:title="gconfig">
<polygon fill="white" stroke="black" points="133,-324 79,-324 79,-288 133,-288 133,-324"/>
<text text-anchor="middle" x="106" y="-303.5" font-family="Helvetica,sans-Serif" font-size="10.00">gconfig</text>
</a>
</g>
</g>
<!-- dir_1306292b77b40360479b729ac9ee7efe -->
<g id="node6" class="node"><title>dir_1306292b77b40360479b729ac9ee7efe</title>
<g id="a_node6"><a xlink:href="dir_1306292b77b40360479b729ac9ee7efe.html" target="_top" xlink:title="ITSMFT">
<polygon fill="white" stroke="red" points="202,-252 148,-252 148,-216 202,-216 202,-252"/>
<text text-anchor="middle" x="175" y="-231.5" font-family="Helvetica,sans-Serif" font-size="10.00">ITSMFT</text>
</a>
</g>
</g>
<!-- dir_1306292b77b40360479b729ac9ee7efe&#45;&gt;dir_37c90836491b695b472bf98d1be8336b -->
<g id="edge18" class="edge"><title>dir_1306292b77b40360479b729ac9ee7efe&#45;&gt;dir_37c90836491b695b472bf98d1be8336b</title>
<path fill="none" stroke="black" d="M159.39,-215.774C151.627,-206.03 143.054,-193.184 139,-180 134.297,-164.707 134.297,-159.293 139,-144 142.009,-134.215 147.507,-124.616 153.316,-116.334"/>
<polygon fill="black" stroke="black" points="156.195,-118.328 159.39,-108.226 150.593,-114.131 156.195,-118.328"/>
<g id="a_edge18&#45;headlabel"><a xlink:href="dir_000064_000057.html" target="_top" xlink:title="35">
<text text-anchor="middle" x="156.312" y="-120.407" font-family="Helvetica,sans-Serif" font-size="10.00">35</text>
</a>
</g>
</g>
<!-- dir_1306292b77b40360479b729ac9ee7efe&#45;&gt;dir_f01815b857f9009bea48e2cb39492245 -->
<g id="edge19" class="edge"><title>dir_1306292b77b40360479b729ac9ee7efe&#45;&gt;dir_f01815b857f9009bea48e2cb39492245</title>
<path fill="none" stroke="black" d="M152.258,-215.697C140.56,-206.796 126.139,-195.823 113.49,-186.199"/>
<polygon fill="black" stroke="black" points="115.558,-183.374 105.48,-180.104 111.319,-188.945 115.558,-183.374"/>
<g id="a_edge19&#45;headlabel"><a xlink:href="dir_000064_000168.html" target="_top" xlink:title="1">
<text text-anchor="middle" x="120.138" y="-180.791" font-family="Helvetica,sans-Serif" font-size="10.00">1</text>
</a>
</g>
</g>
<!-- dir_1306292b77b40360479b729ac9ee7efe&#45;&gt;dir_a597e8e061b11201a1dff411feb10d0b -->
<g id="edge17" class="edge"><title>dir_1306292b77b40360479b729ac9ee7efe&#45;&gt;dir_a597e8e061b11201a1dff411feb10d0b</title>
<path fill="none" stroke="black" d="M202.085,-219.834C224.769,-208.807 257.357,-192.966 282.368,-180.807"/>
<polygon fill="black" stroke="black" points="284.083,-183.865 291.547,-176.345 281.023,-177.57 284.083,-183.865"/>
<g id="a_edge17&#45;headlabel"><a xlink:href="dir_000064_000069.html" target="_top" xlink:title="1">
<text text-anchor="middle" x="282.091" y="-185.49" font-family="Helvetica,sans-Serif" font-size="10.00">1</text>
</a>
</g>
</g>
<!-- dir_1306292b77b40360479b729ac9ee7efe&#45;&gt;dir_4ab6b4cc6a7edbff49100e9123df213f -->
<g id="edge16" class="edge"><title>dir_1306292b77b40360479b729ac9ee7efe&#45;&gt;dir_4ab6b4cc6a7edbff49100e9123df213f</title>
<path fill="none" stroke="black" d="M147.947,-223.609C112.173,-210.922 52.9302,-188.874 47,-180 38.11,-166.697 40.3661,-158.56 47,-144 81.7608,-67.7084 185.51,-36.6519 242.122,-25.1171"/>
<polygon fill="black" stroke="black" points="242.964,-28.5193 252.117,-23.184 241.635,-21.6467 242.964,-28.5193"/>
<g id="a_edge16&#45;headlabel"><a xlink:href="dir_000064_000016.html" target="_top" xlink:title="16">
<text text-anchor="middle" x="239.974" y="-29.4894" font-family="Helvetica,sans-Serif" font-size="10.00">16</text>
</a>
</g>
</g>
<!-- dir_1306292b77b40360479b729ac9ee7efe&#45;&gt;dir_2171f7ec022c5423887b07c69b2f5b48 -->
<g id="edge20" class="edge"><title>dir_1306292b77b40360479b729ac9ee7efe&#45;&gt;dir_2171f7ec022c5423887b07c69b2f5b48</title>
<path fill="none" stroke="black" d="M202.116,-230.048C253.806,-223.839 363.49,-207.668 388,-180 402.721,-163.382 404.455,-137.664 403.103,-118.139"/>
<polygon fill="black" stroke="black" points="406.57,-117.631 402.097,-108.026 399.604,-118.324 406.57,-117.631"/>
<g id="a_edge20&#45;headlabel"><a xlink:href="dir_000064_000032.html" target="_top" xlink:title="31">
<text text-anchor="middle" x="409.751" y="-118.427" font-family="Helvetica,sans-Serif" font-size="10.00">31</text>
</a>
</g>
</g>
<!-- dir_f01815b857f9009bea48e2cb39492245&#45;&gt;dir_37c90836491b695b472bf98d1be8336b -->
<g id="edge25" class="edge"><title>dir_f01815b857f9009bea48e2cb39492245&#45;&gt;dir_37c90836491b695b472bf98d1be8336b</title>
<path fill="none" stroke="black" d="M105.742,-143.697C117.44,-134.796 131.861,-123.823 144.51,-114.199"/>
<polygon fill="black" stroke="black" points="146.681,-116.945 152.52,-108.104 142.442,-111.374 146.681,-116.945"/>
<g id="a_edge25&#45;headlabel"><a xlink:href="dir_000168_000057.html" target="_top" xlink:title="7">
<text text-anchor="middle" x="145.54" y="-118.881" font-family="Helvetica,sans-Serif" font-size="10.00">7</text>
</a>
</g>
</g>
<!-- dir_f01815b857f9009bea48e2cb39492245&#45;&gt;dir_4ab6b4cc6a7edbff49100e9123df213f -->
<g id="edge24" class="edge"><title>dir_f01815b857f9009bea48e2cb39492245&#45;&gt;dir_4ab6b4cc6a7edbff49100e9123df213f</title>
<path fill="none" stroke="black" d="M110.272,-151.579C142.731,-140.047 194.605,-120.513 211,-108 233.54,-90.796 252.687,-64.5202 265.051,-44.9731"/>
<polygon fill="black" stroke="black" points="268.153,-46.6088 270.401,-36.2551 262.187,-42.9473 268.153,-46.6088"/>
<g id="a_edge24&#45;headlabel"><a xlink:href="dir_000168_000016.html" target="_top" xlink:title="1">
<text text-anchor="middle" x="268.693" y="-48.6576" font-family="Helvetica,sans-Serif" font-size="10.00">1</text>
</a>
</g>
</g>
<!-- dir_577c839d346a264df4e9e588ca2a45dd&#45;&gt;dir_37c90836491b695b472bf98d1be8336b -->
<g id="edge21" class="edge"><title>dir_577c839d346a264df4e9e588ca2a45dd&#45;&gt;dir_37c90836491b695b472bf98d1be8336b</title>
<path fill="none" stroke="black" d="M66.7949,-215.925C51.0917,-197.228 31.7195,-166.866 47,-144 67.0833,-113.947 107.698,-100.914 137.817,-95.2751"/>
<polygon fill="black" stroke="black" points="138.698,-98.6765 147.982,-93.573 137.541,-91.7726 138.698,-98.6765"/>
<g id="a_edge21&#45;headlabel"><a xlink:href="dir_000087_000057.html" target="_top" xlink:title="2">
<text text-anchor="middle" x="135.621" y="-99.5703" font-family="Helvetica,sans-Serif" font-size="10.00">2</text>
</a>
</g>
</g>
<!-- dir_577c839d346a264df4e9e588ca2a45dd&#45;&gt;dir_f01815b857f9009bea48e2cb39492245 -->
<g id="edge22" class="edge"><title>dir_577c839d346a264df4e9e588ca2a45dd&#45;&gt;dir_f01815b857f9009bea48e2cb39492245</title>
<path fill="none" stroke="black" d="M83,-215.697C83,-207.983 83,-198.712 83,-190.112"/>
<polygon fill="black" stroke="black" points="86.5001,-190.104 83,-180.104 79.5001,-190.104 86.5001,-190.104"/>
<g id="a_edge22&#45;headlabel"><a xlink:href="dir_000087_000168.html" target="_top" xlink:title="2">
<text text-anchor="middle" x="89.3393" y="-191.199" font-family="Helvetica,sans-Serif" font-size="10.00">2</text>
</a>
</g>
</g>
<!-- dir_577c839d346a264df4e9e588ca2a45dd&#45;&gt;dir_2171f7ec022c5423887b07c69b2f5b48 -->
<g id="edge23" class="edge"><title>dir_577c839d346a264df4e9e588ca2a45dd&#45;&gt;dir_2171f7ec022c5423887b07c69b2f5b48</title>
<path fill="none" stroke="black" d="M110.152,-223.984C119.254,-221.169 129.503,-218.223 139,-216 233.763,-193.818 276.844,-237.997 355,-180 375.156,-165.043 386.618,-138.305 392.755,-118.029"/>
<polygon fill="black" stroke="black" points="396.206,-118.682 395.497,-108.111 389.459,-116.816 396.206,-118.682"/>
<g id="a_edge23&#45;headlabel"><a xlink:href="dir_000087_000032.html" target="_top" xlink:title="2">
<text text-anchor="middle" x="397.985" y="-120.403" font-family="Helvetica,sans-Serif" font-size="10.00">2</text>
</a>
</g>
</g>
<!-- dir_a597e8e061b11201a1dff411feb10d0b&#45;&gt;dir_37c90836491b695b472bf98d1be8336b -->
<g id="edge13" class="edge"><title>dir_a597e8e061b11201a1dff411feb10d0b&#45;&gt;dir_37c90836491b695b472bf98d1be8336b</title>
<path fill="none" stroke="black" d="M291.915,-147.834C269.231,-136.807 236.643,-120.966 211.632,-108.807"/>
<polygon fill="black" stroke="black" points="212.977,-105.57 202.453,-104.345 209.917,-111.865 212.977,-105.57"/>
<g id="a_edge13&#45;headlabel"><a xlink:href="dir_000069_000057.html" target="_top" xlink:title="7">
<text text-anchor="middle" x="217.451" y="-102.088" font-family="Helvetica,sans-Serif" font-size="10.00">7</text>
</a>
</g>
</g>
<!-- dir_a597e8e061b11201a1dff411feb10d0b&#45;&gt;dir_4ab6b4cc6a7edbff49100e9123df213f -->
<g id="edge12" class="edge"><title>dir_a597e8e061b11201a1dff411feb10d0b&#45;&gt;dir_4ab6b4cc6a7edbff49100e9123df213f</title>
<path fill="none" stroke="black" d="M314.296,-143.871C307.62,-119.564 295.33,-74.8187 287.419,-46.0132"/>
<polygon fill="black" stroke="black" points="290.744,-44.9052 284.721,-36.1893 283.994,-46.7592 290.744,-44.9052"/>
<g id="a_edge12&#45;headlabel"><a xlink:href="dir_000069_000016.html" target="_top" xlink:title="6">
<text text-anchor="middle" x="294.434" y="-45.1195" font-family="Helvetica,sans-Serif" font-size="10.00">6</text>
</a>
</g>
</g>
<!-- dir_a597e8e061b11201a1dff411feb10d0b&#45;&gt;dir_2171f7ec022c5423887b07c69b2f5b48 -->
<g id="edge14" class="edge"><title>dir_a597e8e061b11201a1dff411feb10d0b&#45;&gt;dir_2171f7ec022c5423887b07c69b2f5b48</title>
<path fill="none" stroke="black" d="M332.86,-143.697C342.026,-134.881 354.258,-124.032 365.759,-114.474"/>
<polygon fill="black" stroke="black" points="368.027,-117.141 373.557,-108.104 363.598,-111.72 368.027,-117.141"/>
<g id="a_edge14&#45;headlabel"><a xlink:href="dir_000069_000032.html" target="_top" xlink:title="20">
<text text-anchor="middle" x="367.039" y="-119.114" font-family="Helvetica,sans-Serif" font-size="10.00">20</text>
</a>
</g>
</g>
<!-- dir_69dd0583e11051991bf4c0cf23c50933 -->
<g id="node10" class="node"><title>dir_69dd0583e11051991bf4c0cf23c50933</title>
<g id="a_node10"><a xlink:href="dir_69dd0583e11051991bf4c0cf23c50933.html" target="_top" xlink:title="TRD">
<polygon fill="white" stroke="red" points="202,-180 148,-180 148,-144 202,-144 202,-180"/>
<text text-anchor="middle" x="175" y="-159.5" font-family="Helvetica,sans-Serif" font-size="10.00">TRD</text>
</a>
</g>
</g>
<!-- dir_69dd0583e11051991bf4c0cf23c50933&#45;&gt;dir_37c90836491b695b472bf98d1be8336b -->
<g id="edge1" class="edge"><title>dir_69dd0583e11051991bf4c0cf23c50933&#45;&gt;dir_37c90836491b695b472bf98d1be8336b</title>
<path fill="none" stroke="black" d="M175,-143.697C175,-135.983 175,-126.712 175,-118.112"/>
<polygon fill="black" stroke="black" points="178.5,-118.104 175,-108.104 171.5,-118.104 178.5,-118.104"/>
<g id="a_edge1&#45;headlabel"><a xlink:href="dir_000094_000057.html" target="_top" xlink:title="1">
<text text-anchor="middle" x="181.339" y="-119.199" font-family="Helvetica,sans-Serif" font-size="10.00">1</text>
</a>
</g>
</g>
<!-- dir_69dd0583e11051991bf4c0cf23c50933&#45;&gt;dir_2171f7ec022c5423887b07c69b2f5b48 -->
<g id="edge2" class="edge"><title>dir_69dd0583e11051991bf4c0cf23c50933&#45;&gt;dir_2171f7ec022c5423887b07c69b2f5b48</title>
<path fill="none" stroke="black" d="M202.278,-147.425C205.189,-146.185 208.134,-145.016 211,-144 271.303,-122.623 292.053,-128.29 352.383,-109.701"/>
<polygon fill="black" stroke="black" points="353.531,-113.009 361.997,-106.64 351.407,-106.339 353.531,-113.009"/>
<g id="a_edge2&#45;headlabel"><a xlink:href="dir_000094_000032.html" target="_top" xlink:title="2">
<text text-anchor="middle" x="350.967" y="-114.305" font-family="Helvetica,sans-Serif" font-size="10.00">2</text>
</a>
</g>
</g>
<!-- dir_2171f7ec022c5423887b07c69b2f5b48&#45;&gt;dir_37c90836491b695b472bf98d1be8336b -->
<g id="edge28" class="edge"><title>dir_2171f7ec022c5423887b07c69b2f5b48&#45;&gt;dir_37c90836491b695b472bf98d1be8336b</title>
<path fill="none" stroke="black" d="M361.701,-90C311.938,-90 262.174,-90 212.41,-90"/>
<polygon fill="black" stroke="black" points="212.125,-86.5001 202.125,-90 212.125,-93.5001 212.125,-86.5001"/>
<g id="a_edge28&#45;headlabel"><a xlink:href="dir_000032_000057.html" target="_top" xlink:title="5">
<text text-anchor="middle" x="215.72" y="-81.1607" font-family="Helvetica,sans-Serif" font-size="10.00">5</text>
</a>
</g>
</g>
<!-- dir_2171f7ec022c5423887b07c69b2f5b48&#45;&gt;dir_a597e8e061b11201a1dff411feb10d0b -->
<g id="edge27" class="edge"><title>dir_2171f7ec022c5423887b07c69b2f5b48&#45;&gt;dir_a597e8e061b11201a1dff411feb10d0b</title>
<path fill="none" stroke="black" d="M385.347,-108.104C376.228,-116.889 364.013,-127.732 352.501,-137.309"/>
<polygon fill="black" stroke="black" points="350.216,-134.657 344.691,-143.697 354.648,-140.075 350.216,-134.657"/>
<g id="a_edge27&#45;headlabel"><a xlink:href="dir_000032_000069.html" target="_top" xlink:title="1">
<text text-anchor="middle" x="351.202" y="-127.683" font-family="Helvetica,sans-Serif" font-size="10.00">1</text>
</a>
</g>
</g>
<!-- dir_2171f7ec022c5423887b07c69b2f5b48&#45;&gt;dir_4ab6b4cc6a7edbff49100e9123df213f -->
<g id="edge26" class="edge"><title>dir_2171f7ec022c5423887b07c69b2f5b48&#45;&gt;dir_4ab6b4cc6a7edbff49100e9123df213f</title>
<path fill="none" stroke="black" d="M371.266,-71.9642C366.84,-69.2812 362.302,-66.5521 358,-64 344.453,-55.9638 329.488,-47.2832 316.32,-39.71"/>
<polygon fill="black" stroke="black" points="317.945,-36.6072 307.529,-34.6655 314.46,-42.6785 317.945,-36.6072"/>
<g id="a_edge26&#45;headlabel"><a xlink:href="dir_000032_000016.html" target="_top" xlink:title="1">
<text text-anchor="middle" x="322.475" y="-33.4337" font-family="Helvetica,sans-Serif" font-size="10.00">1</text>
</a>
</g>
</g>
</g>
</svg>
        <g id="navigator" transform="translate(0 0)" fill="#404254">
                <rect fill="#f2f5e9" fill-opacity="0.5" stroke="#606060" stroke-width=".5" x="0" y="0" width="60" height="60"/>
                <use id="zoomplus" xlink:href="#zoomPlus" x="17" y="9" onmousedown="handleZoom(evt,'in')"/>
                <use id="zoomminus" xlink:href="#zoomMin" x="42" y="9" onmousedown="handleZoom(evt,'out')"/>
                <use id="reset" xlink:href="#resetDef" x="30" y="36" onmousedown="handleReset()"/>
                <g id="arrowUp" xlink:href="#dirArrow" transform="translate(30 24)" onmousedown="handlePan(0,-1)">
                  <use xlink:href="#rim" fill="#404040">
                        <set attributeName="fill" to="#808080" begin="arrowUp.mouseover" end="arrowUp.mouseout"/>
                  </use>
                  <path fill="none" stroke="white" stroke-width="1.5" d="M0,-3.0v7 M-2.5,-0.5L0,-3.0L2.5,-0.5"/>
                </g>
                <g id="arrowRight" xlink:href="#dirArrow" transform="rotate(90) translate(36 -43)" onmousedown="handlePan(1,0)">
                  <use xlink:href="#rim" fill="#404040">
                        <set attributeName="fill" to="#808080" begin="arrowRight.mouseover" end="arrowRight.mouseout"/>
                  </use>
                  <path fill="none" stroke="white" stroke-width="1.5" d="M0,-3.0v7 M-2.5,-0.5L0,-3.0L2.5,-0.5"/>
                </g>
                <g id="arrowDown" xlink:href="#dirArrow" transform="rotate(180) translate(-30 -48)" onmousedown="handlePan(0,1)">
                  <use xlink:href="#rim" fill="#404040">
                        <set attributeName="fill" to="#808080" begin="arrowDown.mouseover" end="arrowDown.mouseout"/>
                  </use>
                  <path fill="none" stroke="white" stroke-width="1.5" d="M0,-3.0v7 M-2.5,-0.5L0,-3.0L2.5,-0.5"/>
                </g>
                <g id="arrowLeft" xlink:href="#dirArrow" transform="rotate(270) translate(-36 17)" onmousedown="handlePan(-1,0)">
                  <use xlink:href="#rim" fill="#404040">
                        <set attributeName="fill" to="#808080" begin="arrowLeft.mouseover" end="arrowLeft.mouseout"/>
                  </use>
                  <path fill="none" stroke="white" stroke-width="1.5" d="M0,-3.0v7 M-2.5,-0.5L0,-3.0L2.5,-0.5"/>
                </g>
        </g>
        <svg viewBox="0 0 15 15" width="100%" height="30px" preserveAspectRatio="xMaxYMin meet">
         <g id="arrow_out" transform="scale(0.3 0.3)">
          <a xlink:href="dir_051dca18e802f8e9474f2e30d29c04e0_dep_org.svg" target="_base">
           <rect id="button" ry="5" rx="5" y="6" x="6" height="38" width="38"
                fill="#f2f5e9" fill-opacity="0.5" stroke="#606060" stroke-width="1.0"/>
           <path id="arrow"
             d="M 11.500037,31.436501 C 11.940474,20.09759 22.043105,11.32322 32.158766,21.979434 L 37.068811,17.246167 C 37.068811,17.246167 37.088388,32 37.088388,32 L 22.160133,31.978069 C 22.160133,31.978069 26.997745,27.140456 26.997745,27.140456 C 18.528582,18.264221 13.291696,25.230495 11.500037,31.436501 z"
             style="fill:#404040;"/>
          </a>
         </g>
        </svg>
</svg>
