<?xml version="1.0" encoding="UTF-8" standalone="no"?>
<!DOCTYPE svg PUBLIC "-//W3C//DTD SVG 1.1//EN"
 "http://www.w3.org/Graphics/SVG/1.1/DTD/svg11.dtd">
<!-- Generated by graphviz version 2.36.0 (20140111.2315)
 -->
<!-- Title: /home/travis/build/AliceO2Group/AliceO2/Framework/Core/src Pages: 1 -->
<svg width="180pt" height="223pt"
 viewBox="0.00 0.00 180.00 223.00" xmlns="http://www.w3.org/2000/svg" xmlns:xlink="http://www.w3.org/1999/xlink">
<g id="graph0" class="graph" transform="scale(1 1) rotate(0) translate(4 219)">
<title>/home/travis/build/AliceO2Group/AliceO2/Framework/Core/src</title>
<g id="clust1" class="cluster"><title>clusterdir_9f165b2481dacfe69aa54d326bd5cd47</title>
<g id="a_clust1"><a xlink:href="dir_9f165b2481dacfe69aa54d326bd5cd47.html" target="_top" xlink:title="Core">
<polygon fill="#ddddee" stroke="black" points="73,-136 73,-207 143,-207 143,-136 73,-136"/>
<text text-anchor="middle" x="108" y="-195" font-family="Helvetica,sans-Serif" font-size="10.00">Core</text>
</a>
</g>
</g>
<!-- dir_0b60ff9a1849fb34896fe8bde9baec43 -->
<g id="node1" class="node"><title>dir_0b60ff9a1849fb34896fe8bde9baec43</title>
<g id="a_node1"><a xlink:href="dir_0b60ff9a1849fb34896fe8bde9baec43.html" target="_top" xlink:title="src">
<polygon fill="#eeeeff" stroke="black" points="135,-180 81,-180 81,-144 135,-144 135,-180"/>
<text text-anchor="middle" x="108" y="-159.5" font-family="Helvetica,sans-Serif" font-size="10.00">src</text>
</a>
</g>
</g>
<!-- dir_f0af9df59806ed8bcb6931e6b1774828 -->
<g id="node2" class="node"><title>dir_f0af9df59806ed8bcb6931e6b1774828</title>
<g id="a_node2"><a xlink:href="dir_f0af9df59806ed8bcb6931e6b1774828.html" target="_top" xlink:title="DebugGUI">
<polygon fill="none" stroke="red" points="62.25,-108 -0.25,-108 -0.25,-72 62.25,-72 62.25,-108"/>
<text text-anchor="middle" x="31" y="-87.5" font-family="Helvetica,sans-Serif" font-size="10.00">DebugGUI</text>
</a>
</g>
</g>
<!-- dir_0b60ff9a1849fb34896fe8bde9baec43&#45;&gt;dir_f0af9df59806ed8bcb6931e6b1774828 -->
<g id="edge1" class="edge"><title>dir_0b60ff9a1849fb34896fe8bde9baec43&#45;&gt;dir_f0af9df59806ed8bcb6931e6b1774828</title>
<path fill="none" stroke="black" d="M88.9663,-143.697C79.4553,-135.05 67.7934,-124.449 57.4297,-115.027"/>
<polygon fill="black" stroke="black" points="59.5686,-112.241 49.8148,-108.104 54.8598,-117.421 59.5686,-112.241"/>
<g id="a_edge1&#45;headlabel"><a xlink:href="dir_000237_000239.html" target="_top" xlink:title="2">
<text text-anchor="middle" x="64.1382" y="-110.058" font-family="Helvetica,sans-Serif" font-size="10.00">2</text>
</a>
</g>
</g>
<!-- dir_985a55873ec4a56b27533251576853b6 -->
<g id="node3" class="node"><title>dir_985a55873ec4a56b27533251576853b6</title>
<g id="a_node3"><a xlink:href="dir_985a55873ec4a56b27533251576853b6.html" target="_top" xlink:title="include">
<polygon fill="none" stroke="red" points="135,-108 81,-108 81,-72 135,-72 135,-108"/>
<text text-anchor="middle" x="108" y="-87.5" font-family="Helvetica,sans-Serif" font-size="10.00">include</text>
</a>
</g>
</g>
<!-- dir_0b60ff9a1849fb34896fe8bde9baec43&#45;&gt;dir_985a55873ec4a56b27533251576853b6 -->
<g id="edge2" class="edge"><title>dir_0b60ff9a1849fb34896fe8bde9baec43&#45;&gt;dir_985a55873ec4a56b27533251576853b6</title>
<path fill="none" stroke="black" d="M108,-143.697C108,-135.983 108,-126.712 108,-118.112"/>
<polygon fill="black" stroke="black" points="111.5,-118.104 108,-108.104 104.5,-118.104 111.5,-118.104"/>
<g id="a_edge2&#45;headlabel"><a xlink:href="dir_000237_000235.html" target="_top" xlink:title="108">
<text text-anchor="middle" x="114.339" y="-119.199" font-family="Helvetica,sans-Serif" font-size="10.00">108</text>
</a>
</g>
</g>
<!-- dir_2171f7ec022c5423887b07c69b2f5b48 -->
<g id="node4" class="node"><title>dir_2171f7ec022c5423887b07c69b2f5b48</title>
<g id="a_node4"><a xlink:href="dir_2171f7ec022c5423887b07c69b2f5b48.html" target="_top" xlink:title="DataFormats">
<polygon fill="none" stroke="red" points="172,-36 98,-36 98,-0 172,-0 172,-36"/>
<text text-anchor="middle" x="135" y="-15.5" font-family="Helvetica,sans-Serif" font-size="10.00">DataFormats</text>
</a>
</g>
</g>
<!-- dir_0b60ff9a1849fb34896fe8bde9baec43&#45;&gt;dir_2171f7ec022c5423887b07c69b2f5b48 -->
<g id="edge3" class="edge"><title>dir_0b60ff9a1849fb34896fe8bde9baec43&#45;&gt;dir_2171f7ec022c5423887b07c69b2f5b48</title>
<path fill="none" stroke="black" d="M123.61,-143.774C131.373,-134.03 139.946,-121.184 144,-108 150.22,-87.7736 147.269,-63.865 143.147,-45.9241"/>
<polygon fill="black" stroke="black" points="146.51,-44.9471 140.646,-36.1232 139.728,-46.6782 146.51,-44.9471"/>
<g id="a_edge3&#45;headlabel"><a xlink:href="dir_000237_000032.html" target="_top" xlink:title="3">
<text text-anchor="middle" x="150.15" y="-45.228" font-family="Helvetica,sans-Serif" font-size="10.00">3</text>
</a>
</g>
</g>
<!-- dir_985a55873ec4a56b27533251576853b6&#45;&gt;dir_2171f7ec022c5423887b07c69b2f5b48 -->
<g id="edge4" class="edge"><title>dir_985a55873ec4a56b27533251576853b6&#45;&gt;dir_2171f7ec022c5423887b07c69b2f5b48</title>
<path fill="none" stroke="black" d="M114.674,-71.6966C117.715,-63.8132 121.383,-54.3042 124.761,-45.5464"/>
<polygon fill="black" stroke="black" points="128.069,-46.6939 128.403,-36.1043 121.538,-44.1748 128.069,-46.6939"/>
<g id="a_edge4&#45;headlabel"><a xlink:href="dir_000235_000032.html" target="_top" xlink:title="6">
<text text-anchor="middle" x="129.425" y="-48.5695" font-family="Helvetica,sans-Serif" font-size="10.00">6</text>
</a>
</g>
</g>
</g>
</svg>
