<?xml version="1.0" encoding="UTF-8" standalone="no"?>
<!DOCTYPE svg PUBLIC "-//W3C//DTD SVG 1.1//EN"
 "http://www.w3.org/Graphics/SVG/1.1/DTD/svg11.dtd">
<!-- Generated by graphviz version 2.36.0 (20140111.2315)
 -->
<!-- Title: /home/travis/build/AliceO2Group/AliceO2/Framework/Core Pages: 1 -->
<svg width="311pt" height="303pt"
 viewBox="0.00 0.00 311.00 303.00" xmlns="http://www.w3.org/2000/svg" xmlns:xlink="http://www.w3.org/1999/xlink">
<g id="graph0" class="graph" transform="scale(1 1) rotate(0) translate(4 299)">
<title>/home/travis/build/AliceO2Group/AliceO2/Framework/Core</title>
<g id="clust1" class="cluster"><title>clusterdir_bcbb2cf9a3d3d83e5515c82071a07177</title>
<g id="a_clust1"><a xlink:href="dir_bcbb2cf9a3d3d83e5515c82071a07177.html" target="_top" xlink:title="Framework">
<polygon fill="#ddddee" stroke="black" points="8,-56 8,-287 166,-287 166,-56 8,-56"/>
<text text-anchor="middle" x="87" y="-275" font-family="Helvetica,sans-Serif" font-size="10.00">Framework</text>
</a>
</g>
</g>
<g id="clust2" class="cluster"><title>clusterdir_9f165b2481dacfe69aa54d326bd5cd47</title>
<g id="a_clust2"><a xlink:href="dir_9f165b2481dacfe69aa54d326bd5cd47.html" target="_top">
<polygon fill="#eeeeff" stroke="black" points="16,-64 16,-260 158,-260 158,-64 16,-64"/>
</a>
</g>
</g>
<!-- dir_9f165b2481dacfe69aa54d326bd5cd47 -->
<g id="node1" class="node"><title>dir_9f165b2481dacfe69aa54d326bd5cd47</title>
<text text-anchor="middle" x="123" y="-231.5" font-family="Helvetica,sans-Serif" font-size="10.00">Core</text>
</g>
<!-- dir_985a55873ec4a56b27533251576853b6 -->
<g id="node2" class="node"><title>dir_985a55873ec4a56b27533251576853b6</title>
<g id="a_node2"><a xlink:href="dir_985a55873ec4a56b27533251576853b6.html" target="_top" xlink:title="include">
<polygon fill="white" stroke="red" points="150,-108 96,-108 96,-72 150,-72 150,-108"/>
<text text-anchor="middle" x="123" y="-87.5" font-family="Helvetica,sans-Serif" font-size="10.00">include</text>
</a>
</g>
</g>
<!-- dir_2171f7ec022c5423887b07c69b2f5b48 -->
<g id="node6" class="node"><title>dir_2171f7ec022c5423887b07c69b2f5b48</title>
<g id="a_node6"><a xlink:href="dir_2171f7ec022c5423887b07c69b2f5b48.html" target="_top" xlink:title="DataFormats">
<polygon fill="none" stroke="red" points="303,-36 229,-36 229,-0 303,-0 303,-36"/>
<text text-anchor="middle" x="266" y="-15.5" font-family="Helvetica,sans-Serif" font-size="10.00">DataFormats</text>
</a>
</g>
</g>
<!-- dir_985a55873ec4a56b27533251576853b6&#45;&gt;dir_2171f7ec022c5423887b07c69b2f5b48 -->
<g id="edge4" class="edge"><title>dir_985a55873ec4a56b27533251576853b6&#45;&gt;dir_2171f7ec022c5423887b07c69b2f5b48</title>
<path fill="none" stroke="black" d="M142.694,-71.8993C149.733,-66.3382 157.927,-60.4575 166,-56 182.527,-46.875 201.756,-39.1483 218.912,-33.154"/>
<polygon fill="black" stroke="black" points="220.388,-36.3496 228.738,-29.8274 218.143,-29.7193 220.388,-36.3496"/>
<g id="a_edge4&#45;headlabel"><a xlink:href="dir_000235_000032.html" target="_top" xlink:title="6">
<text text-anchor="middle" x="217.894" y="-37.6916" font-family="Helvetica,sans-Serif" font-size="10.00">6</text>
</a>
</g>
</g>
<!-- dir_0b60ff9a1849fb34896fe8bde9baec43 -->
<g id="node3" class="node"><title>dir_0b60ff9a1849fb34896fe8bde9baec43</title>
<g id="a_node3"><a xlink:href="dir_0b60ff9a1849fb34896fe8bde9baec43.html" target="_top" xlink:title="src">
<polygon fill="white" stroke="black" points="150,-180 96,-180 96,-144 150,-144 150,-180"/>
<text text-anchor="middle" x="123" y="-159.5" font-family="Helvetica,sans-Serif" font-size="10.00">src</text>
</a>
</g>
</g>
<!-- dir_0b60ff9a1849fb34896fe8bde9baec43&#45;&gt;dir_985a55873ec4a56b27533251576853b6 -->
<g id="edge2" class="edge"><title>dir_0b60ff9a1849fb34896fe8bde9baec43&#45;&gt;dir_985a55873ec4a56b27533251576853b6</title>
<path fill="none" stroke="black" d="M123,-143.697C123,-135.983 123,-126.712 123,-118.112"/>
<polygon fill="black" stroke="black" points="126.5,-118.104 123,-108.104 119.5,-118.104 126.5,-118.104"/>
<g id="a_edge2&#45;headlabel"><a xlink:href="dir_000237_000235.html" target="_top" xlink:title="108">
<text text-anchor="middle" x="129.339" y="-119.199" font-family="Helvetica,sans-Serif" font-size="10.00">108</text>
</a>
</g>
</g>
<!-- dir_f0af9df59806ed8bcb6931e6b1774828 -->
<g id="node5" class="node"><title>dir_f0af9df59806ed8bcb6931e6b1774828</title>
<g id="a_node5"><a xlink:href="dir_f0af9df59806ed8bcb6931e6b1774828.html" target="_top" xlink:title="DebugGUI">
<polygon fill="none" stroke="red" points="237.25,-108 174.75,-108 174.75,-72 237.25,-72 237.25,-108"/>
<text text-anchor="middle" x="206" y="-87.5" font-family="Helvetica,sans-Serif" font-size="10.00">DebugGUI</text>
</a>
</g>
</g>
<!-- dir_0b60ff9a1849fb34896fe8bde9baec43&#45;&gt;dir_f0af9df59806ed8bcb6931e6b1774828 -->
<g id="edge1" class="edge"><title>dir_0b60ff9a1849fb34896fe8bde9baec43&#45;&gt;dir_f0af9df59806ed8bcb6931e6b1774828</title>
<path fill="none" stroke="black" d="M143.517,-143.697C153.869,-134.965 166.586,-124.24 177.839,-114.75"/>
<polygon fill="black" stroke="black" points="180.331,-117.227 185.719,-108.104 175.818,-111.876 180.331,-117.227"/>
<g id="a_edge1&#45;headlabel"><a xlink:href="dir_000237_000239.html" target="_top" xlink:title="2">
<text text-anchor="middle" x="179.414" y="-119.215" font-family="Helvetica,sans-Serif" font-size="10.00">2</text>
</a>
</g>
</g>
<!-- dir_0b60ff9a1849fb34896fe8bde9baec43&#45;&gt;dir_2171f7ec022c5423887b07c69b2f5b48 -->
<g id="edge3" class="edge"><title>dir_0b60ff9a1849fb34896fe8bde9baec43&#45;&gt;dir_2171f7ec022c5423887b07c69b2f5b48</title>
<path fill="none" stroke="black" d="M150.064,-156.702C178.287,-150.764 221.727,-137.26 246,-108 260.266,-90.8023 264.882,-65.5266 266.152,-46.3013"/>
<polygon fill="black" stroke="black" points="269.659,-46.1911 266.557,-36.0606 262.664,-45.9145 269.659,-46.1911"/>
<g id="a_edge3&#45;headlabel"><a xlink:href="dir_000237_000032.html" target="_top" xlink:title="3">
<text text-anchor="middle" x="272.354" y="-47.3951" font-family="Helvetica,sans-Serif" font-size="10.00">3</text>
</a>
</g>
</g>
<!-- dir_8cb91374fcd70b92d5ee52379f113c0f -->
<g id="node4" class="node"><title>dir_8cb91374fcd70b92d5ee52379f113c0f</title>
<g id="a_node4"><a xlink:href="dir_8cb91374fcd70b92d5ee52379f113c0f.html" target="_top" xlink:title="test">
<polygon fill="white" stroke="black" points="78,-252 24,-252 24,-216 78,-216 78,-252"/>
<text text-anchor="middle" x="51" y="-231.5" font-family="Helvetica,sans-Serif" font-size="10.00">test</text>
</a>
</g>
</g>
<!-- dir_8cb91374fcd70b92d5ee52379f113c0f&#45;&gt;dir_985a55873ec4a56b27533251576853b6 -->
<g id="edge6" class="edge"><title>dir_8cb91374fcd70b92d5ee52379f113c0f&#45;&gt;dir_985a55873ec4a56b27533251576853b6</title>
<path fill="none" stroke="black" d="M56.734,-215.785C63.1063,-197.493 74.2016,-167.965 87,-144 91.978,-134.679 98.219,-124.977 104.1,-116.461"/>
<polygon fill="black" stroke="black" points="107.111,-118.265 110.03,-108.081 101.397,-114.222 107.111,-118.265"/>
<g id="a_edge6&#45;headlabel"><a xlink:href="dir_000238_000235.html" target="_top" xlink:title="51">
<text text-anchor="middle" x="107.352" y="-120.34" font-family="Helvetica,sans-Serif" font-size="10.00">51</text>
</a>
</g>
</g>
<!-- dir_8cb91374fcd70b92d5ee52379f113c0f&#45;&gt;dir_0b60ff9a1849fb34896fe8bde9baec43 -->
<g id="edge5" class="edge"><title>dir_8cb91374fcd70b92d5ee52379f113c0f&#45;&gt;dir_0b60ff9a1849fb34896fe8bde9baec43</title>
<path fill="none" stroke="black" d="M68.7978,-215.697C77.604,-207.135 88.3821,-196.656 98.0011,-187.304"/>
<polygon fill="black" stroke="black" points="100.677,-189.585 105.407,-180.104 95.7972,-184.566 100.677,-189.585"/>
<g id="a_edge5&#45;headlabel"><a xlink:href="dir_000238_000237.html" target="_top" xlink:title="9">
<text text-anchor="middle" x="100.079" y="-191.626" font-family="Helvetica,sans-Serif" font-size="10.00">9</text>
</a>
</g>
</g>
<!-- dir_8cb91374fcd70b92d5ee52379f113c0f&#45;&gt;dir_2171f7ec022c5423887b07c69b2f5b48 -->
<g id="edge7" class="edge"><title>dir_8cb91374fcd70b92d5ee52379f113c0f&#45;&gt;dir_2171f7ec022c5423887b07c69b2f5b48</title>
<path fill="none" stroke="black" d="M78.0449,-220.198C104.956,-207.374 144.301,-188.375 159,-180 209.768,-151.074 241.212,-159.4 269,-108 279.189,-89.154 277.468,-64.6328 273.746,-46.1026"/>
<polygon fill="black" stroke="black" points="277.127,-45.1918 271.466,-36.2361 270.307,-46.7673 277.127,-45.1918"/>
<g id="a_edge7&#45;headlabel"><a xlink:href="dir_000238_000032.html" target="_top" xlink:title="3">
<text text-anchor="middle" x="280.703" y="-45.5551" font-family="Helvetica,sans-Serif" font-size="10.00">3</text>
</a>
</g>
</g>
</g>
</svg>
