<?xml version="1.0" encoding="UTF-8" standalone="no"?>
<!DOCTYPE svg PUBLIC "-//W3C//DTD SVG 1.1//EN"
 "http://www.w3.org/Graphics/SVG/1.1/DTD/svg11.dtd">
<!-- Generated by graphviz version 2.36.0 (20140111.2315)
 -->
<!-- Title: Graphical Class Hierarchy Pages: 1 -->
<svg width="502pt" height="256pt"
 viewBox="0.00 0.00 502.00 256.00" xmlns="http://www.w3.org/2000/svg" xmlns:xlink="http://www.w3.org/1999/xlink">
<g id="graph0" class="graph" transform="scale(1 1) rotate(0) translate(4 252)">
<title>Graphical Class Hierarchy</title>
<!-- Node1 -->
<g id="node1" class="node"><title>Node1</title>
<g id="a_node1"><a xlink:href="d6/d0c/classFairDetector.html" target="_top" xlink:title="FairDetector">
<polygon fill="none" stroke="black" points="0.5,-71.5 0.5,-90.5 71.5,-90.5 71.5,-71.5 0.5,-71.5"/>
<text text-anchor="middle" x="36" y="-78.5" font-family="Helvetica,sans-Serif" font-size="10.00">FairDetector</text>
</a>
</g>
</g>
<!-- Node2 -->
<g id="node2" class="node"><title>Node2</title>
<g id="a_node2"><a xlink:href="d7/d02/classo2_1_1Base_1_1Detector.html" target="_top" xlink:title="o2::Base::Detector">
<polygon fill="none" stroke="black" points="108.5,-90.5 108.5,-109.5 207.5,-109.5 207.5,-90.5 108.5,-90.5"/>
<text text-anchor="middle" x="158" y="-97.5" font-family="Helvetica,sans-Serif" font-size="10.00">o2::Base::Detector</text>
</a>
</g>
</g>
<!-- Node1&#45;&gt;Node2 -->
<g id="edge1" class="edge"><title>Node1&#45;&gt;Node2</title>
<path fill="none" stroke="midnightblue" d="M81.5911,-88.0603C90.2281,-89.4278 99.322,-90.8676 108.089,-92.2557"/>
<polygon fill="midnightblue" stroke="midnightblue" points="82.1333,-84.6026 71.709,-86.4956 81.0386,-91.5165 82.1333,-84.6026"/>
</g>
<!-- Node12 -->
<g id="node12" class="node"><title>Node12</title>
<g id="a_node12"><a xlink:href="db/df6/classo2_1_1Passive_1_1Cave.html" target="_top" xlink:title="o2::Passive::Cave">
<polygon fill="none" stroke="black" points="109,-52.5 109,-71.5 207,-71.5 207,-52.5 109,-52.5"/>
<text text-anchor="middle" x="158" y="-59.5" font-family="Helvetica,sans-Serif" font-size="10.00">o2::Passive::Cave</text>
</a>
</g>
</g>
<!-- Node1&#45;&gt;Node12 -->
<g id="edge11" class="edge"><title>Node1&#45;&gt;Node12</title>
<path fill="none" stroke="midnightblue" d="M81.8385,-73.9006C90.695,-72.4983 100.023,-71.0213 108.98,-69.6032"/>
<polygon fill="midnightblue" stroke="midnightblue" points="81.0386,-70.4835 71.709,-75.5044 82.1333,-77.3974 81.0386,-70.4835"/>
</g>
<!-- Node3 -->
<g id="node3" class="node"><title>Node3</title>
<g id="a_node3"><a xlink:href="d4/d8a/classo2_1_1Base_1_1DetImpl.html" target="_top" xlink:title="o2::Base::DetImpl\&lt;\l Detector \&gt;">
<polygon fill="none" stroke="black" points="244,-109 244,-139 346,-139 346,-109 244,-109"/>
<text text-anchor="start" x="252" y="-127" font-family="Helvetica,sans-Serif" font-size="10.00">o2::Base::DetImpl&lt;</text>
<text text-anchor="middle" x="295" y="-116" font-family="Helvetica,sans-Serif" font-size="10.00"> Detector &gt;</text>
</a>
</g>
</g>
<!-- Node2&#45;&gt;Node3 -->
<g id="edge2" class="edge"><title>Node2&#45;&gt;Node3</title>
<path fill="none" stroke="midnightblue" d="M217.84,-110.46C226.553,-112.009 235.461,-113.593 243.971,-115.106"/>
<polygon fill="midnightblue" stroke="midnightblue" points="218.196,-106.969 207.738,-108.665 216.971,-113.861 218.196,-106.969"/>
</g>
<!-- Node11 -->
<g id="node11" class="node"><title>Node11</title>
<g id="a_node11"><a xlink:href="d4/d8a/classo2_1_1Base_1_1DetImpl.html" target="_top" xlink:title="o2::Base::DetImpl\&lt;\l Det \&gt;">
<polygon fill="none" stroke="black" points="244,-60 244,-90 346,-90 346,-60 244,-60"/>
<text text-anchor="start" x="252" y="-78" font-family="Helvetica,sans-Serif" font-size="10.00">o2::Base::DetImpl&lt;</text>
<text text-anchor="middle" x="295" y="-67" font-family="Helvetica,sans-Serif" font-size="10.00"> Det &gt;</text>
</a>
</g>
</g>
<!-- Node2&#45;&gt;Node11 -->
<g id="edge10" class="edge"><title>Node2&#45;&gt;Node11</title>
<path fill="none" stroke="midnightblue" d="M217.84,-89.1037C226.553,-87.4903 235.461,-85.8406 243.971,-84.2647"/>
<polygon fill="midnightblue" stroke="midnightblue" points="216.934,-85.712 207.738,-90.9744 218.208,-92.5949 216.934,-85.712"/>
</g>
<!-- Node4 -->
<g id="node4" class="node"><title>Node4</title>
<g id="a_node4"><a xlink:href="df/d30/classo2_1_1EMCAL_1_1Detector.html" target="_top" xlink:title="o2::EMCAL::Detector">
<polygon fill="none" stroke="black" points="382.5,-228.5 382.5,-247.5 493.5,-247.5 493.5,-228.5 382.5,-228.5"/>
<text text-anchor="middle" x="438" y="-235.5" font-family="Helvetica,sans-Serif" font-size="10.00">o2::EMCAL::Detector</text>
</a>
</g>
</g>
<!-- Node3&#45;&gt;Node4 -->
<g id="edge3" class="edge"><title>Node3&#45;&gt;Node4</title>
<path fill="none" stroke="midnightblue" d="M311.727,-147.222C327.296,-168.599 352.961,-199.814 382,-219 387.732,-222.787 394.299,-225.902 400.854,-228.436"/>
<polygon fill="midnightblue" stroke="midnightblue" points="314.531,-145.126 305.884,-139.004 308.826,-149.182 314.531,-145.126"/>
</g>
<!-- Node5 -->
<g id="node5" class="node"><title>Node5</title>
<g id="a_node5"><a xlink:href="d2/d64/classo2_1_1fit_1_1Detector.html" target="_top" xlink:title="o2::fit::Detector">
<polygon fill="none" stroke="black" points="395.5,-190.5 395.5,-209.5 480.5,-209.5 480.5,-190.5 395.5,-190.5"/>
<text text-anchor="middle" x="438" y="-197.5" font-family="Helvetica,sans-Serif" font-size="10.00">o2::fit::Detector</text>
</a>
</g>
</g>
<!-- Node3&#45;&gt;Node5 -->
<g id="edge4" class="edge"><title>Node3&#45;&gt;Node5</title>
<path fill="none" stroke="midnightblue" d="M324.137,-145.277C340.428,-156.912 361.676,-170.957 382,-181 389.245,-184.58 397.334,-187.779 405.03,-190.484"/>
<polygon fill="midnightblue" stroke="midnightblue" points="325.782,-142.146 315.634,-139.102 321.669,-147.81 325.782,-142.146"/>
</g>
<!-- Node6 -->
<g id="node6" class="node"><title>Node6</title>
<g id="a_node6"><a xlink:href="d6/dd3/classo2_1_1ITS_1_1Detector.html" target="_top" xlink:title="o2::ITS::Detector">
<polygon fill="none" stroke="black" points="392,-152.5 392,-171.5 484,-171.5 484,-152.5 392,-152.5"/>
<text text-anchor="middle" x="438" y="-159.5" font-family="Helvetica,sans-Serif" font-size="10.00">o2::ITS::Detector</text>
</a>
</g>
</g>
<!-- Node3&#45;&gt;Node6 -->
<g id="edge5" class="edge"><title>Node3&#45;&gt;Node6</title>
<path fill="none" stroke="midnightblue" d="M356.171,-140.216C371.682,-144.397 387.875,-148.761 401.659,-152.475"/>
<polygon fill="midnightblue" stroke="midnightblue" points="356.675,-136.727 346.108,-137.504 354.853,-143.486 356.675,-136.727"/>
</g>
<!-- Node7 -->
<g id="node7" class="node"><title>Node7</title>
<g id="a_node7"><a xlink:href="dd/d98/classo2_1_1MFT_1_1Detector.html" target="_top" xlink:title="o2::MFT::Detector">
<polygon fill="none" stroke="black" points="389.5,-114.5 389.5,-133.5 486.5,-133.5 486.5,-114.5 389.5,-114.5"/>
<text text-anchor="middle" x="438" y="-121.5" font-family="Helvetica,sans-Serif" font-size="10.00">o2::MFT::Detector</text>
</a>
</g>
</g>
<!-- Node3&#45;&gt;Node7 -->
<g id="edge6" class="edge"><title>Node3&#45;&gt;Node7</title>
<path fill="none" stroke="midnightblue" d="M356.178,-124C367.286,-124 378.743,-124 389.414,-124"/>
<polygon fill="midnightblue" stroke="midnightblue" points="356.108,-120.5 346.108,-124 356.108,-127.5 356.108,-120.5"/>
</g>
<!-- Node8 -->
<g id="node8" class="node"><title>Node8</title>
<g id="a_node8"><a xlink:href="db/d30/classo2_1_1tof_1_1Detector.html" target="_top" xlink:title="o2::tof::Detector">
<polygon fill="none" stroke="black" points="394,-76.5 394,-95.5 482,-95.5 482,-76.5 394,-76.5"/>
<text text-anchor="middle" x="438" y="-83.5" font-family="Helvetica,sans-Serif" font-size="10.00">o2::tof::Detector</text>
</a>
</g>
</g>
<!-- Node3&#45;&gt;Node8 -->
<g id="edge7" class="edge"><title>Node3&#45;&gt;Node8</title>
<path fill="none" stroke="midnightblue" d="M356.171,-107.784C371.682,-103.603 387.875,-99.2393 401.659,-95.5246"/>
<polygon fill="midnightblue" stroke="midnightblue" points="354.853,-104.514 346.108,-110.496 356.675,-111.273 354.853,-104.514"/>
</g>
<!-- Node9 -->
<g id="node9" class="node"><title>Node9</title>
<g id="a_node9"><a xlink:href="d3/dcb/classo2_1_1TPC_1_1Detector.html" target="_top" xlink:title="o2::TPC::Detector">
<polygon fill="none" stroke="black" points="389.5,-38.5 389.5,-57.5 486.5,-57.5 486.5,-38.5 389.5,-38.5"/>
<text text-anchor="middle" x="438" y="-45.5" font-family="Helvetica,sans-Serif" font-size="10.00">o2::TPC::Detector</text>
</a>
</g>
</g>
<!-- Node3&#45;&gt;Node9 -->
<g id="edge8" class="edge"><title>Node3&#45;&gt;Node9</title>
<path fill="none" stroke="midnightblue" d="M338.079,-103.994C340.806,-102.383 343.47,-100.713 346,-99 363.727,-86.9985 363.526,-77.8153 382,-67 388.364,-63.2742 395.571,-60.1283 402.623,-57.5345"/>
<polygon fill="midnightblue" stroke="midnightblue" points="336.271,-100.995 329.243,-108.923 339.681,-107.108 336.271,-100.995"/>
</g>
<!-- Node10 -->
<g id="node10" class="node"><title>Node10</title>
<g id="a_node10"><a xlink:href="d5/da6/classo2_1_1trd_1_1Detector.html" target="_top" xlink:title="o2::trd::Detector">
<polygon fill="none" stroke="black" points="394,-0.5 394,-19.5 482,-19.5 482,-0.5 394,-0.5"/>
<text text-anchor="middle" x="438" y="-7.5" font-family="Helvetica,sans-Serif" font-size="10.00">o2::trd::Detector</text>
</a>
</g>
</g>
<!-- Node3&#45;&gt;Node10 -->
<g id="edge9" class="edge"><title>Node3&#45;&gt;Node10</title>
<path fill="none" stroke="midnightblue" d="M341.469,-103.03C343.058,-101.75 344.577,-100.407 346,-99 370.878,-74.4033 355.565,-51.9152 382,-29 386.504,-25.0959 391.853,-21.9821 397.419,-19.5018"/>
<polygon fill="midnightblue" stroke="midnightblue" points="339.245,-100.313 333.048,-108.907 343.251,-106.054 339.245,-100.313"/>
</g>
</g>
</svg>
