<?xml version="1.0" encoding="UTF-8" standalone="no"?>
<!DOCTYPE svg PUBLIC "-//W3C//DTD SVG 1.1//EN"
 "http://www.w3.org/Graphics/SVG/1.1/DTD/svg11.dtd">
<!-- Generated by graphviz version 2.36.0 (20140111.2315)
 -->
<!-- Title: Graphical Class Hierarchy Pages: 1 -->
<svg width="370pt" height="189pt"
 viewBox="0.00 0.00 370.00 189.00" xmlns="http://www.w3.org/2000/svg" xmlns:xlink="http://www.w3.org/1999/xlink">
<g id="graph0" class="graph" transform="scale(1 1) rotate(0) translate(4 185)">
<title>Graphical Class Hierarchy</title>
<!-- Node1 -->
<g id="node1" class="node"><title>Node1</title>
<g id="a_node1"><a xlink:href="db/dfe/classo2_1_1BaseHit.html" target="_top" xlink:title="o2::BaseHit">
<polygon fill="none" stroke="black" points="0,-60.5 0,-79.5 68,-79.5 68,-60.5 0,-60.5"/>
<text text-anchor="middle" x="34" y="-67.5" font-family="Helvetica,sans-Serif" font-size="10.00">o2::BaseHit</text>
</a>
</g>
</g>
<!-- Node2 -->
<g id="node2" class="node"><title>Node2</title>
<g id="a_node2"><a xlink:href="de/d90/classo2_1_1BasicXYZEHit.html" target="_top" xlink:title="o2::BasicXYZEHit\&lt; float \&gt;">
<polygon fill="none" stroke="black" points="104,-126.5 104,-145.5 238,-145.5 238,-126.5 104,-126.5"/>
<text text-anchor="middle" x="171" y="-133.5" font-family="Helvetica,sans-Serif" font-size="10.00">o2::BasicXYZEHit&lt; float &gt;</text>
</a>
</g>
</g>
<!-- Node1&#45;&gt;Node2 -->
<g id="edge1" class="edge"><title>Node1&#45;&gt;Node2</title>
<path fill="none" stroke="midnightblue" d="M55.4132,-85.9363C68.6697,-95.6825 86.6522,-107.809 104,-116 112.661,-120.089 122.355,-123.576 131.589,-126.437"/>
<polygon fill="midnightblue" stroke="midnightblue" points="57.1512,-82.8639 47.0566,-79.6469 52.9418,-88.4568 57.1512,-82.8639"/>
</g>
<!-- Node5 -->
<g id="node5" class="node"><title>Node5</title>
<g id="a_node5"><a xlink:href="de/d90/classo2_1_1BasicXYZEHit.html" target="_top" xlink:title="o2::BasicXYZEHit\&lt; Float\l_t, Float_t \&gt;">
<polygon fill="none" stroke="black" points="107,-77 107,-107 235,-107 235,-77 107,-77"/>
<text text-anchor="start" x="115" y="-95" font-family="Helvetica,sans-Serif" font-size="10.00">o2::BasicXYZEHit&lt; Float</text>
<text text-anchor="middle" x="171" y="-84" font-family="Helvetica,sans-Serif" font-size="10.00">_t, Float_t &gt;</text>
</a>
</g>
</g>
<!-- Node1&#45;&gt;Node5 -->
<g id="edge4" class="edge"><title>Node1&#45;&gt;Node5</title>
<path fill="none" stroke="midnightblue" d="M78.0797,-77.0204C87.2884,-78.5211 97.1979,-80.136 106.981,-81.7303"/>
<polygon fill="midnightblue" stroke="midnightblue" points="78.4575,-73.5359 68.0247,-75.3818 77.3315,-80.4447 78.4575,-73.5359"/>
</g>
<!-- Node7 -->
<g id="node7" class="node"><title>Node7</title>
<g id="a_node7"><a xlink:href="de/d90/classo2_1_1BasicXYZEHit.html" target="_top" xlink:title="o2::BasicXYZEHit\&lt; T, E \&gt;">
<polygon fill="none" stroke="black" points="104,-38.5 104,-57.5 238,-57.5 238,-38.5 104,-38.5"/>
<text text-anchor="middle" x="171" y="-45.5" font-family="Helvetica,sans-Serif" font-size="10.00">o2::BasicXYZEHit&lt; T, E &gt;</text>
</a>
</g>
</g>
<!-- Node1&#45;&gt;Node7 -->
<g id="edge6" class="edge"><title>Node1&#45;&gt;Node7</title>
<path fill="none" stroke="midnightblue" d="M77.9283,-63.0043C88.6054,-61.2643 100.232,-59.3695 111.517,-57.5306"/>
<polygon fill="midnightblue" stroke="midnightblue" points="77.3315,-59.5553 68.0247,-64.6182 78.4575,-66.4641 77.3315,-59.5553"/>
</g>
<!-- Node8 -->
<g id="node8" class="node"><title>Node8</title>
<g id="a_node8"><a xlink:href="d6/dec/classo2_1_1TPC_1_1HitGroup.html" target="_top" xlink:title="o2::TPC::HitGroup">
<polygon fill="none" stroke="black" points="122,-0.5 122,-19.5 220,-19.5 220,-0.5 122,-0.5"/>
<text text-anchor="middle" x="171" y="-7.5" font-family="Helvetica,sans-Serif" font-size="10.00">o2::TPC::HitGroup</text>
</a>
</g>
</g>
<!-- Node1&#45;&gt;Node8 -->
<g id="edge7" class="edge"><title>Node1&#45;&gt;Node8</title>
<path fill="none" stroke="midnightblue" d="M57.1067,-54.8849C70.2785,-46.3906 87.5816,-36.1013 104,-29 112.427,-25.3552 121.755,-22.1841 130.681,-19.5314"/>
<polygon fill="midnightblue" stroke="midnightblue" points="55.1342,-51.993 48.7094,-60.4175 58.9855,-57.8384 55.1342,-51.993"/>
</g>
<!-- Node3 -->
<g id="node3" class="node"><title>Node3</title>
<g id="a_node3"><a xlink:href="da/d56/classo2_1_1EMCAL_1_1Hit.html" target="_top" xlink:title="EMCAL simulation hit information. ">
<polygon fill="none" stroke="black" points="275,-161.5 275,-180.5 361,-180.5 361,-161.5 275,-161.5"/>
<text text-anchor="middle" x="318" y="-168.5" font-family="Helvetica,sans-Serif" font-size="10.00">o2::EMCAL::Hit</text>
</a>
</g>
</g>
<!-- Node2&#45;&gt;Node3 -->
<g id="edge2" class="edge"><title>Node2&#45;&gt;Node3</title>
<path fill="none" stroke="midnightblue" d="M221.503,-147.949C239.752,-152.354 260.169,-157.282 277.426,-161.448"/>
<polygon fill="midnightblue" stroke="midnightblue" points="222.164,-144.508 211.622,-145.564 220.521,-151.313 222.164,-144.508"/>
</g>
<!-- Node4 -->
<g id="node4" class="node"><title>Node4</title>
<g id="a_node4"><a xlink:href="d1/dbc/classo2_1_1TPC_1_1Point.html" target="_top" xlink:title="o2::TPC::Point">
<polygon fill="none" stroke="black" points="277,-123.5 277,-142.5 359,-142.5 359,-123.5 277,-123.5"/>
<text text-anchor="middle" x="318" y="-130.5" font-family="Helvetica,sans-Serif" font-size="10.00">o2::TPC::Point</text>
</a>
</g>
</g>
<!-- Node2&#45;&gt;Node4 -->
<g id="edge3" class="edge"><title>Node2&#45;&gt;Node4</title>
<path fill="none" stroke="midnightblue" d="M248.329,-134.421C258.107,-134.218 267.792,-134.018 276.67,-133.834"/>
<polygon fill="midnightblue" stroke="midnightblue" points="248.061,-130.925 238.135,-134.632 248.206,-137.924 248.061,-130.925"/>
</g>
<!-- Node6 -->
<g id="node6" class="node"><title>Node6</title>
<g id="a_node6"><a xlink:href="dd/d52/classo2_1_1ITSMFT_1_1Hit.html" target="_top" xlink:title="o2::ITSMFT::Hit">
<polygon fill="none" stroke="black" points="274,-82.5 274,-101.5 362,-101.5 362,-82.5 274,-82.5"/>
<text text-anchor="middle" x="318" y="-89.5" font-family="Helvetica,sans-Serif" font-size="10.00">o2::ITSMFT::Hit</text>
</a>
</g>
</g>
<!-- Node5&#45;&gt;Node6 -->
<g id="edge5" class="edge"><title>Node5&#45;&gt;Node6</title>
<path fill="none" stroke="midnightblue" d="M245.263,-92C254.964,-92 264.646,-92 273.615,-92"/>
<polygon fill="midnightblue" stroke="midnightblue" points="245.177,-88.5001 235.177,-92 245.177,-95.5001 245.177,-88.5001"/>
</g>
</g>
</svg>
