<?xml version="1.0" encoding="UTF-8" standalone="no"?>
<!DOCTYPE svg PUBLIC "-//W3C//DTD SVG 1.1//EN"
 "http://www.w3.org/Graphics/SVG/1.1/DTD/svg11.dtd">
<!-- Generated by graphviz version 2.36.0 (20140111.2315)
 -->
<!-- Title: Graphical Class Hierarchy Pages: 1 -->
<svg width="460pt" height="799pt"
 viewBox="0.00 0.00 460.00 799.00" xmlns="http://www.w3.org/2000/svg" xmlns:xlink="http://www.w3.org/1999/xlink">
<g id="graph0" class="graph" transform="scale(1 1) rotate(0) translate(4 795)">
<title>Graphical Class Hierarchy</title>
<!-- Node1 -->
<g id="node1" class="node"><title>Node1</title>
<polygon fill="none" stroke="#bfbfbf" points="0.5,-380.5 0.5,-399.5 51.5,-399.5 51.5,-380.5 0.5,-380.5"/>
<text text-anchor="middle" x="26" y="-387.5" font-family="Helvetica,sans-Serif" font-size="10.00">TObject</text>
</g>
<!-- Node2 -->
<g id="node2" class="node"><title>Node2</title>
<g id="a_node2"><a xlink:href="d4/d17/classo2_1_1Base_1_1BaseCluster.html" target="_top" xlink:title="o2::Base::BaseCluster\l\&lt; float \&gt;">
<polygon fill="none" stroke="black" points="110,-761 110,-791 226,-791 226,-761 110,-761"/>
<text text-anchor="start" x="118" y="-779" font-family="Helvetica,sans-Serif" font-size="10.00">o2::Base::BaseCluster</text>
<text text-anchor="middle" x="168" y="-768" font-family="Helvetica,sans-Serif" font-size="10.00">&lt; float &gt;</text>
</a>
</g>
</g>
<!-- Node1&#45;&gt;Node2 -->
<g id="edge1" class="edge"><title>Node1&#45;&gt;Node2</title>
<path fill="none" stroke="midnightblue" d="M27.7026,-409.889C30.4945,-477.805 42.9488,-699.203 88,-751 93.8533,-757.73 101.505,-762.666 109.741,-766.283"/>
<polygon fill="midnightblue" stroke="midnightblue" points="31.1928,-409.563 27.3107,-399.705 24.198,-409.833 31.1928,-409.563"/>
</g>
<!-- Node4 -->
<g id="node4" class="node"><title>Node4</title>
<g id="a_node4"><a xlink:href="d4/d17/classo2_1_1Base_1_1BaseCluster.html" target="_top" xlink:title="o2::Base::BaseCluster\&lt; T \&gt;">
<polygon fill="none" stroke="black" points="98,-722.5 98,-741.5 238,-741.5 238,-722.5 98,-722.5"/>
<text text-anchor="middle" x="168" y="-729.5" font-family="Helvetica,sans-Serif" font-size="10.00">o2::Base::BaseCluster&lt; T &gt;</text>
</a>
</g>
</g>
<!-- Node1&#45;&gt;Node4 -->
<g id="edge3" class="edge"><title>Node1&#45;&gt;Node4</title>
<path fill="none" stroke="midnightblue" d="M28.0026,-409.925C31.6004,-473.328 45.9604,-668.832 88,-713 91.5984,-716.781 95.8069,-719.865 100.374,-722.376"/>
<polygon fill="midnightblue" stroke="midnightblue" points="31.4842,-409.487 27.4519,-399.69 24.4944,-409.863 31.4842,-409.487"/>
</g>
<!-- Node5 -->
<g id="node5" class="node"><title>Node5</title>
<g id="a_node5"><a xlink:href="d2/da4/classo2_1_1Base_1_1GeometryManager.html" target="_top" xlink:title="o2::Base::GeometryManager">
<polygon fill="none" stroke="black" points="97,-684.5 97,-703.5 239,-703.5 239,-684.5 97,-684.5"/>
<text text-anchor="middle" x="168" y="-691.5" font-family="Helvetica,sans-Serif" font-size="10.00">o2::Base::GeometryManager</text>
</a>
</g>
</g>
<!-- Node1&#45;&gt;Node5 -->
<g id="edge4" class="edge"><title>Node1&#45;&gt;Node5</title>
<path fill="none" stroke="midnightblue" d="M28.5415,-409.832C33.4682,-468.053 50.7417,-636.792 88,-675 91.7424,-678.838 96.1144,-681.955 100.847,-684.481"/>
<polygon fill="midnightblue" stroke="midnightblue" points="32.0193,-409.415 27.7185,-399.732 25.0424,-409.984 32.0193,-409.415"/>
</g>
<!-- Node6 -->
<g id="node6" class="node"><title>Node6</title>
<g id="a_node6"><a xlink:href="da/da3/classo2_1_1Base_1_1TrackReference.html" target="_top" xlink:title="o2::Base::TrackReference">
<polygon fill="none" stroke="black" points="102.5,-646.5 102.5,-665.5 233.5,-665.5 233.5,-646.5 102.5,-646.5"/>
<text text-anchor="middle" x="168" y="-653.5" font-family="Helvetica,sans-Serif" font-size="10.00">o2::Base::TrackReference</text>
</a>
</g>
</g>
<!-- Node1&#45;&gt;Node6 -->
<g id="edge5" class="edge"><title>Node1&#45;&gt;Node6</title>
<path fill="none" stroke="midnightblue" d="M29.2154,-409.564C35.5592,-462.133 55.457,-604.655 88,-637 92.2021,-641.177 97.1518,-644.494 102.491,-647.122"/>
<polygon fill="midnightblue" stroke="midnightblue" points="32.679,-409.049 28.0382,-399.524 25.7267,-409.864 32.679,-409.049"/>
</g>
<!-- Node7 -->
<g id="node7" class="node"><title>Node7</title>
<g id="a_node7"><a xlink:href="d8/dcd/classo2_1_1CDB_1_1Condition.html" target="_top" xlink:title="o2::CDB::Condition">
<polygon fill="none" stroke="black" points="117,-608.5 117,-627.5 219,-627.5 219,-608.5 117,-608.5"/>
<text text-anchor="middle" x="168" y="-615.5" font-family="Helvetica,sans-Serif" font-size="10.00">o2::CDB::Condition</text>
</a>
</g>
</g>
<!-- Node1&#45;&gt;Node7 -->
<g id="edge6" class="edge"><title>Node1&#45;&gt;Node7</title>
<path fill="none" stroke="midnightblue" d="M26.6353,-409.724C27.0011,-451.127 33.9796,-547.51 88,-599 95.8625,-606.494 106.142,-611.199 116.674,-614.115"/>
<polygon fill="midnightblue" stroke="midnightblue" points="30.1357,-409.601 26.6738,-399.587 23.1357,-409.574 30.1357,-409.601"/>
</g>
<!-- Node8 -->
<g id="node8" class="node"><title>Node8</title>
<g id="a_node8"><a xlink:href="d7/dc9/classo2_1_1CDB_1_1ConditionId.html" target="_top" xlink:title="o2::CDB::ConditionId">
<polygon fill="none" stroke="black" points="113,-570.5 113,-589.5 223,-589.5 223,-570.5 113,-570.5"/>
<text text-anchor="middle" x="168" y="-577.5" font-family="Helvetica,sans-Serif" font-size="10.00">o2::CDB::ConditionId</text>
</a>
</g>
</g>
<!-- Node1&#45;&gt;Node8 -->
<g id="edge7" class="edge"><title>Node1&#45;&gt;Node8</title>
<path fill="none" stroke="midnightblue" d="M28.1708,-410.032C31.3811,-445.855 43.364,-520.887 88,-561 95.0297,-567.317 103.791,-571.63 112.896,-574.553"/>
<polygon fill="midnightblue" stroke="midnightblue" points="31.6469,-409.582 27.4065,-399.873 24.6666,-410.107 31.6469,-409.582"/>
</g>
<!-- Node9 -->
<g id="node9" class="node"><title>Node9</title>
<g id="a_node9"><a xlink:href="d8/d14/classo2_1_1CDB_1_1ConditionMetaData.html" target="_top" xlink:title="o2::CDB::ConditionMetaData">
<polygon fill="none" stroke="black" points="95.5,-532.5 95.5,-551.5 240.5,-551.5 240.5,-532.5 95.5,-532.5"/>
<text text-anchor="middle" x="168" y="-539.5" font-family="Helvetica,sans-Serif" font-size="10.00">o2::CDB::ConditionMetaData</text>
</a>
</g>
</g>
<!-- Node1&#45;&gt;Node9 -->
<g id="edge8" class="edge"><title>Node1&#45;&gt;Node9</title>
<path fill="none" stroke="midnightblue" d="M30.4167,-409.659C36.5656,-438.931 52.3392,-493.664 88,-523 92.6844,-526.854 98.0239,-529.949 103.666,-532.431"/>
<polygon fill="midnightblue" stroke="midnightblue" points="33.844,-408.947 28.51,-399.793 26.9712,-410.276 33.844,-408.947"/>
</g>
<!-- Node10 -->
<g id="node10" class="node"><title>Node10</title>
<g id="a_node10"><a xlink:href="d6/dae/classo2_1_1CDB_1_1IdPath.html" target="_top" xlink:title="o2::CDB::IdPath">
<polygon fill="none" stroke="black" points="123.5,-494.5 123.5,-513.5 212.5,-513.5 212.5,-494.5 123.5,-494.5"/>
<text text-anchor="middle" x="168" y="-501.5" font-family="Helvetica,sans-Serif" font-size="10.00">o2::CDB::IdPath</text>
</a>
</g>
</g>
<!-- Node1&#45;&gt;Node10 -->
<g id="edge9" class="edge"><title>Node1&#45;&gt;Node10</title>
<path fill="none" stroke="midnightblue" d="M34.0836,-409.026C43.1853,-430.788 61.0921,-465.871 88,-485 98.3475,-492.356 111.183,-496.888 123.479,-499.673"/>
<polygon fill="midnightblue" stroke="midnightblue" points="37.2621,-407.546 30.3219,-399.541 30.7552,-410.127 37.2621,-407.546"/>
</g>
<!-- Node11 -->
<g id="node11" class="node"><title>Node11</title>
<g id="a_node11"><a xlink:href="d5/dc9/classo2_1_1CDB_1_1IdRunRange.html" target="_top" xlink:title="o2::CDB::IdRunRange">
<polygon fill="none" stroke="black" points="110,-456.5 110,-475.5 226,-475.5 226,-456.5 110,-456.5"/>
<text text-anchor="middle" x="168" y="-463.5" font-family="Helvetica,sans-Serif" font-size="10.00">o2::CDB::IdRunRange</text>
</a>
</g>
</g>
<!-- Node1&#45;&gt;Node11 -->
<g id="edge10" class="edge"><title>Node1&#45;&gt;Node11</title>
<path fill="none" stroke="midnightblue" d="M41.1691,-407.404C52.5294,-420.222 69.5736,-437.082 88,-447 95.2044,-450.878 103.199,-453.974 111.257,-456.443"/>
<polygon fill="midnightblue" stroke="midnightblue" points="43.7244,-405.007 34.5671,-399.678 38.4028,-409.554 43.7244,-405.007"/>
</g>
<!-- Node12 -->
<g id="node12" class="node"><title>Node12</title>
<g id="a_node12"><a xlink:href="d2/d59/classo2_1_1CDB_1_1Manager.html" target="_top" xlink:title="o2::CDB::Manager">
<polygon fill="none" stroke="black" points="119,-418.5 119,-437.5 217,-437.5 217,-418.5 119,-418.5"/>
<text text-anchor="middle" x="168" y="-425.5" font-family="Helvetica,sans-Serif" font-size="10.00">o2::CDB::Manager</text>
</a>
</g>
</g>
<!-- Node1&#45;&gt;Node12 -->
<g id="edge11" class="edge"><title>Node1&#45;&gt;Node12</title>
<path fill="none" stroke="midnightblue" d="M61.3312,-401.128C70.001,-403.818 79.3151,-406.606 88,-409 99.9672,-412.299 113.042,-415.575 125.049,-418.454"/>
<polygon fill="midnightblue" stroke="midnightblue" points="62.1152,-397.706 51.5258,-398.044 60.015,-404.383 62.1152,-397.706"/>
</g>
<!-- Node13 -->
<g id="node13" class="node"><title>Node13</title>
<g id="a_node13"><a xlink:href="df/d3a/classo2_1_1CDB_1_1Storage.html" target="_top" xlink:title="o2::CDB::Storage">
<polygon fill="none" stroke="black" points="120.5,-380.5 120.5,-399.5 215.5,-399.5 215.5,-380.5 120.5,-380.5"/>
<text text-anchor="middle" x="168" y="-387.5" font-family="Helvetica,sans-Serif" font-size="10.00">o2::CDB::Storage</text>
</a>
</g>
</g>
<!-- Node1&#45;&gt;Node13 -->
<g id="edge12" class="edge"><title>Node1&#45;&gt;Node13</title>
<path fill="none" stroke="midnightblue" d="M62.1343,-390C79.8018,-390 101.449,-390 120.478,-390"/>
<polygon fill="midnightblue" stroke="midnightblue" points="61.707,-386.5 51.7069,-390 61.7069,-393.5 61.707,-386.5"/>
</g>
<!-- Node17 -->
<g id="node17" class="node"><title>Node17</title>
<g id="a_node17"><a xlink:href="dd/d3f/classo2_1_1CDB_1_1StorageFactory.html" target="_top" xlink:title="o2::CDB::StorageFactory">
<polygon fill="none" stroke="black" points="104,-342.5 104,-361.5 232,-361.5 232,-342.5 104,-342.5"/>
<text text-anchor="middle" x="168" y="-349.5" font-family="Helvetica,sans-Serif" font-size="10.00">o2::CDB::StorageFactory</text>
</a>
</g>
</g>
<!-- Node1&#45;&gt;Node17 -->
<g id="edge16" class="edge"><title>Node1&#45;&gt;Node17</title>
<path fill="none" stroke="midnightblue" d="M61.3312,-378.872C70.001,-376.182 79.3151,-373.394 88,-371 99.9672,-367.701 113.042,-364.425 125.049,-361.546"/>
<polygon fill="midnightblue" stroke="midnightblue" points="60.015,-375.617 51.5258,-381.956 62.1152,-382.294 60.015,-375.617"/>
</g>
<!-- Node21 -->
<g id="node21" class="node"><title>Node21</title>
<g id="a_node21"><a xlink:href="d2/d64/classo2_1_1CDB_1_1StorageParameters.html" target="_top" xlink:title="o2::CDB::StorageParameters">
<polygon fill="none" stroke="black" points="95.5,-304.5 95.5,-323.5 240.5,-323.5 240.5,-304.5 95.5,-304.5"/>
<text text-anchor="middle" x="168" y="-311.5" font-family="Helvetica,sans-Serif" font-size="10.00">o2::CDB::StorageParameters</text>
</a>
</g>
</g>
<!-- Node1&#45;&gt;Node21 -->
<g id="edge20" class="edge"><title>Node1&#45;&gt;Node21</title>
<path fill="none" stroke="midnightblue" d="M41.1691,-372.596C52.5294,-359.778 69.5736,-342.918 88,-333 95.2044,-329.122 103.199,-326.026 111.257,-323.557"/>
<polygon fill="midnightblue" stroke="midnightblue" points="38.4028,-370.446 34.5671,-380.322 43.7244,-374.993 38.4028,-370.446"/>
</g>
<!-- Node25 -->
<g id="node25" class="node"><title>Node25</title>
<g id="a_node25"><a xlink:href="d4/d8b/classo2_1_1CDB_1_1XmlHandler.html" target="_top" xlink:title="o2::CDB::XmlHandler">
<polygon fill="none" stroke="black" points="112,-266.5 112,-285.5 224,-285.5 224,-266.5 112,-266.5"/>
<text text-anchor="middle" x="168" y="-273.5" font-family="Helvetica,sans-Serif" font-size="10.00">o2::CDB::XmlHandler</text>
</a>
</g>
</g>
<!-- Node1&#45;&gt;Node25 -->
<g id="edge24" class="edge"><title>Node1&#45;&gt;Node25</title>
<path fill="none" stroke="midnightblue" d="M34.0836,-370.974C43.1853,-349.212 61.0921,-314.129 88,-295 95.1283,-289.932 103.437,-286.205 111.938,-283.466"/>
<polygon fill="midnightblue" stroke="midnightblue" points="30.7552,-369.873 30.3219,-380.459 37.2621,-372.454 30.7552,-369.873"/>
</g>
<!-- Node26 -->
<g id="node26" class="node"><title>Node26</title>
<g id="a_node26"><a xlink:href="d6/d5b/classo2_1_1ITS_1_1V11Geometry.html" target="_top" xlink:title="o2::ITS::V11Geometry">
<polygon fill="none" stroke="black" points="110.5,-228.5 110.5,-247.5 225.5,-247.5 225.5,-228.5 110.5,-228.5"/>
<text text-anchor="middle" x="168" y="-235.5" font-family="Helvetica,sans-Serif" font-size="10.00">o2::ITS::V11Geometry</text>
</a>
</g>
</g>
<!-- Node1&#45;&gt;Node26 -->
<g id="edge25" class="edge"><title>Node1&#45;&gt;Node26</title>
<path fill="none" stroke="midnightblue" d="M30.4167,-370.341C36.5656,-341.069 52.3392,-286.336 88,-257 94.5363,-251.623 102.348,-247.723 110.479,-244.902"/>
<polygon fill="midnightblue" stroke="midnightblue" points="26.9712,-369.724 28.51,-380.207 33.844,-371.053 26.9712,-369.724"/>
</g>
<!-- Node29 -->
<g id="node29" class="node"><title>Node29</title>
<g id="a_node29"><a xlink:href="d9/d42/classo2_1_1ITSMFT_1_1ClusterShape.html" target="_top" xlink:title="o2::ITSMFT::ClusterShape">
<polygon fill="none" stroke="black" points="101,-190.5 101,-209.5 235,-209.5 235,-190.5 101,-190.5"/>
<text text-anchor="middle" x="168" y="-197.5" font-family="Helvetica,sans-Serif" font-size="10.00">o2::ITSMFT::ClusterShape</text>
</a>
</g>
</g>
<!-- Node1&#45;&gt;Node29 -->
<g id="edge28" class="edge"><title>Node1&#45;&gt;Node29</title>
<path fill="none" stroke="midnightblue" d="M28.1708,-369.968C31.3811,-334.145 43.364,-259.113 88,-219 92.3018,-215.134 97.252,-212.019 102.533,-209.514"/>
<polygon fill="midnightblue" stroke="midnightblue" points="24.6666,-369.893 27.4065,-380.127 31.6469,-370.418 24.6666,-369.893"/>
</g>
<!-- Node30 -->
<g id="node30" class="node"><title>Node30</title>
<g id="a_node30"><a xlink:href="d8/d92/classo2_1_1ITSMFT_1_1Digitizer.html" target="_top" xlink:title="o2::ITSMFT::Digitizer">
<polygon fill="none" stroke="black" points="112.5,-152.5 112.5,-171.5 223.5,-171.5 223.5,-152.5 112.5,-152.5"/>
<text text-anchor="middle" x="168" y="-159.5" font-family="Helvetica,sans-Serif" font-size="10.00">o2::ITSMFT::Digitizer</text>
</a>
</g>
</g>
<!-- Node1&#45;&gt;Node30 -->
<g id="edge29" class="edge"><title>Node1&#45;&gt;Node30</title>
<path fill="none" stroke="midnightblue" d="M26.6353,-370.276C27.0011,-328.873 33.9796,-232.49 88,-181 94.7392,-174.576 103.254,-170.202 112.182,-167.247"/>
<polygon fill="midnightblue" stroke="midnightblue" points="23.1357,-370.426 26.6738,-380.413 30.1357,-370.399 23.1357,-370.426"/>
</g>
<!-- Node31 -->
<g id="node31" class="node"><title>Node31</title>
<g id="a_node31"><a xlink:href="dc/ddc/classo2_1_1ITSMFT_1_1SDigit.html" target="_top" xlink:title="o2::ITSMFT::SDigit">
<polygon fill="none" stroke="black" points="117,-114.5 117,-133.5 219,-133.5 219,-114.5 117,-114.5"/>
<text text-anchor="middle" x="168" y="-121.5" font-family="Helvetica,sans-Serif" font-size="10.00">o2::ITSMFT::SDigit</text>
</a>
</g>
</g>
<!-- Node1&#45;&gt;Node31 -->
<g id="edge30" class="edge"><title>Node1&#45;&gt;Node31</title>
<path fill="none" stroke="midnightblue" d="M29.2154,-370.436C35.5592,-317.867 55.457,-175.345 88,-143 95.8039,-135.243 106.186,-130.45 116.851,-127.533"/>
<polygon fill="midnightblue" stroke="midnightblue" points="25.7267,-370.136 28.0382,-380.476 32.679,-370.951 25.7267,-370.136"/>
</g>
<!-- Node32 -->
<g id="node32" class="node"><title>Node32</title>
<g id="a_node32"><a xlink:href="d8/dc5/classo2_1_1ITSMFT_1_1SimuClusterShaper.html" target="_top" xlink:title="o2::ITSMFT::SimuClusterShaper">
<polygon fill="none" stroke="black" points="88,-76.5 88,-95.5 248,-95.5 248,-76.5 88,-76.5"/>
<text text-anchor="middle" x="168" y="-83.5" font-family="Helvetica,sans-Serif" font-size="10.00">o2::ITSMFT::SimuClusterShaper</text>
</a>
</g>
</g>
<!-- Node1&#45;&gt;Node32 -->
<g id="edge31" class="edge"><title>Node1&#45;&gt;Node32</title>
<path fill="none" stroke="midnightblue" d="M28.5415,-370.168C33.4682,-311.947 50.7417,-143.208 88,-105 91.7424,-101.162 96.1144,-98.0451 100.847,-95.5193"/>
<polygon fill="midnightblue" stroke="midnightblue" points="25.0424,-370.016 27.7185,-380.268 32.0193,-370.585 25.0424,-370.016"/>
</g>
<!-- Node33 -->
<g id="node33" class="node"><title>Node33</title>
<g id="a_node33"><a xlink:href="de/d4b/classo2_1_1MFT_1_1Constants.html" target="_top" xlink:title="o2::MFT::Constants">
<polygon fill="none" stroke="black" points="116,-38.5 116,-57.5 220,-57.5 220,-38.5 116,-38.5"/>
<text text-anchor="middle" x="168" y="-45.5" font-family="Helvetica,sans-Serif" font-size="10.00">o2::MFT::Constants</text>
</a>
</g>
</g>
<!-- Node1&#45;&gt;Node33 -->
<g id="edge32" class="edge"><title>Node1&#45;&gt;Node33</title>
<path fill="none" stroke="midnightblue" d="M28.0026,-370.075C31.6004,-306.672 45.9604,-111.168 88,-67 95.3914,-59.2344 105.357,-54.4051 115.716,-51.453"/>
<polygon fill="midnightblue" stroke="midnightblue" points="24.4944,-370.137 27.4519,-380.31 31.4842,-370.513 24.4944,-370.137"/>
</g>
<!-- Node34 -->
<g id="node34" class="node"><title>Node34</title>
<g id="a_node34"><a xlink:href="d7/d2d/classo2_1_1TObjectWrapper.html" target="_top" xlink:title="o2::TObjectWrapper\&lt; T \&gt;">
<polygon fill="none" stroke="black" points="104,-0.5 104,-19.5 232,-19.5 232,-0.5 104,-0.5"/>
<text text-anchor="middle" x="168" y="-7.5" font-family="Helvetica,sans-Serif" font-size="10.00">o2::TObjectWrapper&lt; T &gt;</text>
</a>
</g>
</g>
<!-- Node1&#45;&gt;Node34 -->
<g id="edge33" class="edge"><title>Node1&#45;&gt;Node34</title>
<path fill="none" stroke="midnightblue" d="M27.5711,-369.993C29.9332,-301.69 41.1523,-79.1785 88,-29 92.4282,-24.2569 97.8158,-20.6049 103.675,-17.805"/>
<polygon fill="midnightblue" stroke="midnightblue" points="24.0651,-370.129 27.2449,-380.235 31.0615,-370.352 24.0651,-370.129"/>
</g>
<!-- Node3 -->
<g id="node3" class="node"><title>Node3</title>
<g id="a_node3"><a xlink:href="d1/d15/classo2_1_1ITSMFT_1_1Cluster.html" target="_top" xlink:title="Cluster class for the ITSMFT. ">
<polygon fill="none" stroke="black" points="314.5,-766.5 314.5,-785.5 421.5,-785.5 421.5,-766.5 314.5,-766.5"/>
<text text-anchor="middle" x="368" y="-773.5" font-family="Helvetica,sans-Serif" font-size="10.00">o2::ITSMFT::Cluster</text>
</a>
</g>
</g>
<!-- Node2&#45;&gt;Node3 -->
<g id="edge2" class="edge"><title>Node2&#45;&gt;Node3</title>
<path fill="none" stroke="midnightblue" d="M236.01,-776C261.608,-776 290.402,-776 314.461,-776"/>
<polygon fill="midnightblue" stroke="midnightblue" points="236.004,-772.5 226.004,-776 236.004,-779.5 236.004,-772.5"/>
</g>
<!-- Node14 -->
<g id="node14" class="node"><title>Node14</title>
<g id="a_node14"><a xlink:href="d2/d33/classo2_1_1CDB_1_1FileStorage.html" target="_top" xlink:title="o2::CDB::FileStorage">
<polygon fill="none" stroke="black" points="313,-532.5 313,-551.5 423,-551.5 423,-532.5 313,-532.5"/>
<text text-anchor="middle" x="368" y="-539.5" font-family="Helvetica,sans-Serif" font-size="10.00">o2::CDB::FileStorage</text>
</a>
</g>
</g>
<!-- Node13&#45;&gt;Node14 -->
<g id="edge13" class="edge"><title>Node13&#45;&gt;Node14</title>
<path fill="none" stroke="midnightblue" d="M225.127,-395.852C233.548,-398.78 241.554,-402.989 248,-409 286.86,-445.236 244.942,-486.978 284,-523 292.041,-530.416 302.369,-535.132 312.989,-538.09"/>
<polygon fill="midnightblue" stroke="midnightblue" points="226.085,-392.486 215.506,-393.063 224.136,-399.209 226.085,-392.486"/>
</g>
<!-- Node15 -->
<g id="node15" class="node"><title>Node15</title>
<g id="a_node15"><a xlink:href="dd/ddb/classo2_1_1CDB_1_1GridStorage.html" target="_top" xlink:title="o2::CDB::GridStorage">
<polygon fill="none" stroke="black" points="311.5,-494.5 311.5,-513.5 424.5,-513.5 424.5,-494.5 311.5,-494.5"/>
<text text-anchor="middle" x="368" y="-501.5" font-family="Helvetica,sans-Serif" font-size="10.00">o2::CDB::GridStorage</text>
</a>
</g>
</g>
<!-- Node13&#45;&gt;Node15 -->
<g id="edge14" class="edge"><title>Node13&#45;&gt;Node15</title>
<path fill="none" stroke="midnightblue" d="M225.31,-396.921C233.503,-399.736 241.39,-403.63 248,-409 277.01,-432.566 254.861,-461.594 284,-485 291.837,-491.295 301.367,-495.586 311.137,-498.494"/>
<polygon fill="midnightblue" stroke="midnightblue" points="226.19,-393.532 215.61,-394.088 224.227,-400.251 226.19,-393.532"/>
</g>
<!-- Node16 -->
<g id="node16" class="node"><title>Node16</title>
<g id="a_node16"><a xlink:href="d6/dba/classo2_1_1CDB_1_1LocalStorage.html" target="_top" xlink:title="o2::CDB::LocalStorage">
<polygon fill="none" stroke="black" points="309,-456.5 309,-475.5 427,-475.5 427,-456.5 309,-456.5"/>
<text text-anchor="middle" x="368" y="-463.5" font-family="Helvetica,sans-Serif" font-size="10.00">o2::CDB::LocalStorage</text>
</a>
</g>
</g>
<!-- Node13&#45;&gt;Node16 -->
<g id="edge15" class="edge"><title>Node13&#45;&gt;Node16</title>
<path fill="none" stroke="midnightblue" d="M225.687,-399.397C233.466,-401.885 241.131,-405.028 248,-409 268.14,-420.645 263.796,-435.466 284,-447 291.574,-451.324 300.066,-454.664 308.65,-457.244"/>
<polygon fill="midnightblue" stroke="midnightblue" points="226.401,-395.961 215.824,-396.584 224.481,-402.692 226.401,-395.961"/>
</g>
<!-- Node18 -->
<g id="node18" class="node"><title>Node18</title>
<g id="a_node18"><a xlink:href="d2/d56/classo2_1_1CDB_1_1FileStorageFactory.html" target="_top" xlink:title="o2::CDB::FileStorageFactory">
<polygon fill="none" stroke="black" points="296.5,-418.5 296.5,-437.5 439.5,-437.5 439.5,-418.5 296.5,-418.5"/>
<text text-anchor="middle" x="368" y="-425.5" font-family="Helvetica,sans-Serif" font-size="10.00">o2::CDB::FileStorageFactory</text>
</a>
</g>
</g>
<!-- Node17&#45;&gt;Node18 -->
<g id="edge17" class="edge"><title>Node17&#45;&gt;Node18</title>
<path fill="none" stroke="midnightblue" d="M235.711,-365.027C239.98,-366.774 244.117,-368.755 248,-371 268.14,-382.645 263.796,-397.466 284,-409 290.804,-412.884 298.348,-415.975 306.035,-418.433"/>
<polygon fill="midnightblue" stroke="midnightblue" points="236.8,-361.699 226.206,-361.564 234.403,-368.276 236.8,-361.699"/>
</g>
<!-- Node19 -->
<g id="node19" class="node"><title>Node19</title>
<g id="a_node19"><a xlink:href="dd/dcc/classo2_1_1CDB_1_1GridStorageFactory.html" target="_top" xlink:title="o2::CDB::GridStorageFactory">
<polygon fill="none" stroke="black" points="295,-380.5 295,-399.5 441,-399.5 441,-380.5 295,-380.5"/>
<text text-anchor="middle" x="368" y="-387.5" font-family="Helvetica,sans-Serif" font-size="10.00">o2::CDB::GridStorageFactory</text>
</a>
</g>
</g>
<!-- Node17&#45;&gt;Node19 -->
<g id="edge18" class="edge"><title>Node17&#45;&gt;Node19</title>
<path fill="none" stroke="midnightblue" d="M228.866,-363.489C257.117,-368.911 290.436,-375.306 317.271,-380.456"/>
<polygon fill="midnightblue" stroke="midnightblue" points="229.189,-359.988 218.708,-361.54 227.869,-366.862 229.189,-359.988"/>
</g>
<!-- Node20 -->
<g id="node20" class="node"><title>Node20</title>
<g id="a_node20"><a xlink:href="d4/d68/classo2_1_1CDB_1_1LocalStorageFactory.html" target="_top" xlink:title="o2::CDB::LocalStorageFactory">
<polygon fill="none" stroke="black" points="292.5,-342.5 292.5,-361.5 443.5,-361.5 443.5,-342.5 292.5,-342.5"/>
<text text-anchor="middle" x="368" y="-349.5" font-family="Helvetica,sans-Serif" font-size="10.00">o2::CDB::LocalStorageFactory</text>
</a>
</g>
</g>
<!-- Node17&#45;&gt;Node20 -->
<g id="edge19" class="edge"><title>Node17&#45;&gt;Node20</title>
<path fill="none" stroke="midnightblue" d="M242.22,-352C258.562,-352 275.911,-352 292.311,-352"/>
<polygon fill="midnightblue" stroke="midnightblue" points="242.193,-348.5 232.193,-352 242.193,-355.5 242.193,-348.5"/>
</g>
<!-- Node22 -->
<g id="node22" class="node"><title>Node22</title>
<g id="a_node22"><a xlink:href="d4/d3f/classo2_1_1CDB_1_1FileStorageParameters.html" target="_top" xlink:title="o2::CDB::FileStorageParameters">
<polygon fill="none" stroke="black" points="287.5,-304.5 287.5,-323.5 448.5,-323.5 448.5,-304.5 287.5,-304.5"/>
<text text-anchor="middle" x="368" y="-311.5" font-family="Helvetica,sans-Serif" font-size="10.00">o2::CDB::FileStorageParameters</text>
</a>
</g>
</g>
<!-- Node21&#45;&gt;Node22 -->
<g id="edge21" class="edge"><title>Node21&#45;&gt;Node22</title>
<path fill="none" stroke="midnightblue" d="M250.829,-314C262.931,-314 275.386,-314 287.441,-314"/>
<polygon fill="midnightblue" stroke="midnightblue" points="250.763,-310.5 240.762,-314 250.762,-317.5 250.763,-310.5"/>
</g>
<!-- Node23 -->
<g id="node23" class="node"><title>Node23</title>
<g id="a_node23"><a xlink:href="d7/dde/classo2_1_1CDB_1_1GridStorageParameters.html" target="_top" xlink:title="o2::CDB::GridStorageParameters">
<polygon fill="none" stroke="black" points="286.5,-266.5 286.5,-285.5 449.5,-285.5 449.5,-266.5 286.5,-266.5"/>
<text text-anchor="middle" x="368" y="-273.5" font-family="Helvetica,sans-Serif" font-size="10.00">o2::CDB::GridStorageParameters</text>
</a>
</g>
</g>
<!-- Node21&#45;&gt;Node23 -->
<g id="edge22" class="edge"><title>Node21&#45;&gt;Node23</title>
<path fill="none" stroke="midnightblue" d="M228.866,-302.511C257.117,-297.089 290.436,-290.694 317.271,-285.544"/>
<polygon fill="midnightblue" stroke="midnightblue" points="227.869,-299.138 218.708,-304.46 229.189,-306.012 227.869,-299.138"/>
</g>
<!-- Node24 -->
<g id="node24" class="node"><title>Node24</title>
<g id="a_node24"><a xlink:href="db/dab/classo2_1_1CDB_1_1LocalStorageParameters.html" target="_top" xlink:title="o2::CDB::LocalStorageParameters">
<polygon fill="none" stroke="black" points="284,-228.5 284,-247.5 452,-247.5 452,-228.5 284,-228.5"/>
<text text-anchor="middle" x="368" y="-235.5" font-family="Helvetica,sans-Serif" font-size="10.00">o2::CDB::LocalStorageParameters</text>
</a>
</g>
</g>
<!-- Node21&#45;&gt;Node24 -->
<g id="edge23" class="edge"><title>Node21&#45;&gt;Node24</title>
<path fill="none" stroke="midnightblue" d="M235.711,-300.973C239.98,-299.226 244.117,-297.245 248,-295 268.14,-283.355 263.796,-268.534 284,-257 290.804,-253.116 298.348,-250.025 306.035,-247.567"/>
<polygon fill="midnightblue" stroke="midnightblue" points="234.403,-297.724 226.206,-304.436 236.8,-304.301 234.403,-297.724"/>
</g>
<!-- Node27 -->
<g id="node27" class="node"><title>Node27</title>
<g id="a_node27"><a xlink:href="df/daf/classo2_1_1ITS_1_1V1Layer.html" target="_top" xlink:title="o2::ITS::V1Layer">
<polygon fill="none" stroke="black" points="322.5,-190.5 322.5,-209.5 413.5,-209.5 413.5,-190.5 322.5,-190.5"/>
<text text-anchor="middle" x="368" y="-197.5" font-family="Helvetica,sans-Serif" font-size="10.00">o2::ITS::V1Layer</text>
</a>
</g>
</g>
<!-- Node26&#45;&gt;Node27 -->
<g id="edge26" class="edge"><title>Node26&#45;&gt;Node27</title>
<path fill="none" stroke="midnightblue" d="M228.674,-226.547C258.774,-220.771 294.665,-213.882 322.344,-208.57"/>
<polygon fill="midnightblue" stroke="midnightblue" points="227.869,-223.138 218.708,-228.46 229.189,-230.012 227.869,-223.138"/>
</g>
<!-- Node28 -->
<g id="node28" class="node"><title>Node28</title>
<g id="a_node28"><a xlink:href="d5/de4/classo2_1_1ITS_1_1V3Layer.html" target="_top" xlink:title="o2::ITS::V3Layer">
<polygon fill="none" stroke="black" points="322.5,-152.5 322.5,-171.5 413.5,-171.5 413.5,-152.5 322.5,-152.5"/>
<text text-anchor="middle" x="368" y="-159.5" font-family="Helvetica,sans-Serif" font-size="10.00">o2::ITS::V3Layer</text>
</a>
</g>
</g>
<!-- Node26&#45;&gt;Node28 -->
<g id="edge27" class="edge"><title>Node26&#45;&gt;Node28</title>
<path fill="none" stroke="midnightblue" d="M235.478,-225.068C239.829,-223.298 244.046,-221.286 248,-219 268.14,-207.355 263.796,-192.534 284,-181 295.554,-174.404 309.243,-170.098 322.137,-167.286"/>
<polygon fill="midnightblue" stroke="midnightblue" points="234.005,-221.878 225.791,-228.57 236.385,-228.462 234.005,-221.878"/>
</g>
</g>
</svg>
