<?xml version="1.0" encoding="UTF-8" standalone="no"?>
<!DOCTYPE svg PUBLIC "-//W3C//DTD SVG 1.1//EN"
 "http://www.w3.org/Graphics/SVG/1.1/DTD/svg11.dtd">
<!-- Generated by graphviz version 2.36.0 (20140111.2315)
 -->
<!-- Title: Graphical Class Hierarchy Pages: 1 -->
<svg width="326pt" height="165pt"
 viewBox="0.00 0.00 326.00 165.00" xmlns="http://www.w3.org/2000/svg" xmlns:xlink="http://www.w3.org/1999/xlink">
<g id="graph0" class="graph" transform="scale(1 1) rotate(0) translate(4 161)">
<title>Graphical Class Hierarchy</title>
<!-- Node1 -->
<g id="node1" class="node"><title>Node1</title>
<g id="a_node1"><a xlink:href="d9/d75/structo2_1_1Header_1_1BaseHeader.html" target="_top" xlink:title="the base header struct Every header type must begin (i.e. derive) with this. Don&#39;t use this struct di...">
<polygon fill="none" stroke="black" points="0.5,-66.5 0.5,-85.5 125.5,-85.5 125.5,-66.5 0.5,-66.5"/>
<text text-anchor="middle" x="63" y="-73.5" font-family="Helvetica,sans-Serif" font-size="10.00">o2::Header::BaseHeader</text>
</a>
</g>
</g>
<!-- Node2 -->
<g id="node2" class="node"><title>Node2</title>
<g id="a_node2"><a xlink:href="d7/df0/structo2_1_1framework_1_1DataProcessingHeader.html" target="_top" xlink:title="o2::framework::DataProcessing\lHeader">
<polygon fill="none" stroke="black" points="162.5,-127 162.5,-157 317.5,-157 317.5,-127 162.5,-127"/>
<text text-anchor="start" x="170.5" y="-145" font-family="Helvetica,sans-Serif" font-size="10.00">o2::framework::DataProcessing</text>
<text text-anchor="middle" x="240" y="-134" font-family="Helvetica,sans-Serif" font-size="10.00">Header</text>
</a>
</g>
</g>
<!-- Node1&#45;&gt;Node2 -->
<g id="edge1" class="edge"><title>Node1&#45;&gt;Node2</title>
<path fill="none" stroke="midnightblue" d="M95.0134,-89.7447C114.162,-98.0383 139.323,-108.591 162,-117 171.093,-120.372 180.878,-123.742 190.322,-126.867"/>
<polygon fill="midnightblue" stroke="midnightblue" points="96.1583,-86.4257 85.5928,-85.6369 93.3604,-92.8422 96.1583,-86.4257"/>
</g>
<!-- Node3 -->
<g id="node3" class="node"><title>Node3</title>
<g id="a_node3"><a xlink:href="dc/d2a/structo2_1_1Header_1_1DataHeader.html" target="_top" xlink:title="the main header struct ">
<polygon fill="none" stroke="black" points="178.5,-88.5 178.5,-107.5 301.5,-107.5 301.5,-88.5 178.5,-88.5"/>
<text text-anchor="middle" x="240" y="-95.5" font-family="Helvetica,sans-Serif" font-size="10.00">o2::Header::DataHeader</text>
</a>
</g>
</g>
<!-- Node1&#45;&gt;Node3 -->
<g id="edge2" class="edge"><title>Node1&#45;&gt;Node3</title>
<path fill="none" stroke="midnightblue" d="M135.875,-85.0357C150.017,-86.8136 164.722,-88.6623 178.448,-90.3877"/>
<polygon fill="midnightblue" stroke="midnightblue" points="136.057,-81.5311 125.698,-83.7564 135.184,-88.4765 136.057,-81.5311"/>
</g>
<!-- Node4 -->
<g id="node4" class="node"><title>Node4</title>
<g id="a_node4"><a xlink:href="d1/d55/structo2_1_1Header_1_1HeartbeatFrameEnvelope.html" target="_top" xlink:title="o2::Header::HeartbeatFrame\lEnvelope">
<polygon fill="none" stroke="black" points="169.5,-39 169.5,-69 310.5,-69 310.5,-39 169.5,-39"/>
<text text-anchor="start" x="177.5" y="-57" font-family="Helvetica,sans-Serif" font-size="10.00">o2::Header::HeartbeatFrame</text>
<text text-anchor="middle" x="240" y="-46" font-family="Helvetica,sans-Serif" font-size="10.00">Envelope</text>
</a>
</g>
</g>
<!-- Node1&#45;&gt;Node4 -->
<g id="edge3" class="edge"><title>Node1&#45;&gt;Node4</title>
<path fill="none" stroke="midnightblue" d="M135.733,-66.9822C146.788,-65.5923 158.191,-64.1588 169.204,-62.7744"/>
<polygon fill="midnightblue" stroke="midnightblue" points="135.184,-63.5235 125.698,-68.2436 136.057,-70.4689 135.184,-63.5235"/>
</g>
<!-- Node5 -->
<g id="node5" class="node"><title>Node5</title>
<g id="a_node5"><a xlink:href="d9/d6d/structo2_1_1Header_1_1NameHeader.html" target="_top" xlink:title="an example data header containing a name of an object as a null terminated char arr. this is a template! at instantiation the template parameter determines the size of the held string array. a caveat with decoding is you have to use Header::get&lt;NameHeader&lt;0&gt;&gt;(buffer) to get it out of a buffer. May improve in the future if enough people complain. ">
<polygon fill="none" stroke="black" points="163,-0.5 163,-19.5 317,-19.5 317,-0.5 163,-0.5"/>
<text text-anchor="middle" x="240" y="-7.5" font-family="Helvetica,sans-Serif" font-size="10.00">o2::Header::NameHeader&lt; N &gt;</text>
</a>
</g>
</g>
<!-- Node1&#45;&gt;Node5 -->
<g id="edge4" class="edge"><title>Node1&#45;&gt;Node5</title>
<path fill="none" stroke="midnightblue" d="M91.1172,-61.6108C110.477,-51.7524 137.35,-38.9002 162,-30 173.042,-26.0131 185.241,-22.4689 196.61,-19.5129"/>
<polygon fill="midnightblue" stroke="midnightblue" points="89.2767,-58.6219 81.9948,-66.3176 92.4864,-64.8427 89.2767,-58.6219"/>
</g>
</g>
</svg>
