<?xml version="1.0" encoding="UTF-8" standalone="no"?>
<!DOCTYPE svg PUBLIC "-//W3C//DTD SVG 1.1//EN"
 "http://www.w3.org/Graphics/SVG/1.1/DTD/svg11.dtd">
<!-- Generated by graphviz version 2.36.0 (20140111.2315)
 -->
<!-- Title: /home/travis/build/AliceO2Group/AliceO2/Detectors/ITSMFT/ITS/reconstruction/src/CookedTrack.cxx Pages: 1 -->
<!--zoomable 502 -->
<svg id="main" version="1.1" xmlns="http://www.w3.org/2000/svg" xmlns:xlink="http://www.w3.org/1999/xlink" xml:space="preserve" onload="init(evt)">
<style type="text/css"><![CDATA[
.edge:hover path { stroke: red; }
.edge:hover polygon { stroke: red; fill: red; }
]]></style>
<script type="text/javascript"><![CDATA[
var edges = document.getElementsByTagName('g');
if (edges && edges.length) {
  for (var i=0;i<edges.length;i++) {
    if (edges[i].id.substr(0,4)=='edge') {
      edges[i].setAttribute('class','edge');
    }
  }
}
]]></script>
        <defs>
                <circle id="rim" cx="0" cy="0" r="7"/>
                <circle id="rim2" cx="0" cy="0" r="3.5"/>
                <g id="zoomPlus">
                        <use xlink:href="#rim" fill="#404040">
                                <set attributeName="fill" to="#808080" begin="zoomplus.mouseover" end="zoomplus.mouseout"/>
                        </use>
                        <path d="M-4,0h8M0,-4v8" fill="none" stroke="white" stroke-width="1.5" pointer-events="none"/>
                </g>
                <g id="zoomMin">
                        <use xlink:href="#rim" fill="#404040">
                                <set attributeName="fill" to="#808080" begin="zoomminus.mouseover" end="zoomminus.mouseout"/>
                        </use>
                        <path d="M-4,0h8" fill="none" stroke="white" stroke-width="1.5" pointer-events="none"/>
                </g>
                <g id="dirArrow">
                        <path fill="none" stroke="white" stroke-width="1.5" d="M0,-3.0v7 M-2.5,-0.5L0,-3.0L2.5,-0.5"/>
                </g>
               <g id="resetDef">
                       <use xlink:href="#rim2" fill="#404040">
                               <set attributeName="fill" to="#808080" begin="reset.mouseover" end="reset.mouseout"/>
                       </use>
               </g>
        </defs>

<script type="text/javascript">
var viewWidth = 2214;
var viewHeight = 502;
var sectionId = 'dynsection-0';
</script>
<script xlink:href="../../svgpan.js"/>
<svg id="graph" class="graph">
<g id="viewport">
<title>/home/travis/build/AliceO2Group/AliceO2/Detectors/ITSMFT/ITS/reconstruction/src/CookedTrack.cxx</title>
<!-- Node1 -->
<g id="node1" class="node"><title>Node1</title>
<polygon fill="#bfbfbf" stroke="black" points="1443,-441 1443,-493 1621,-493 1621,-441 1443,-441"/>
<text text-anchor="start" x="1451" y="-481" font-family="Helvetica,sans-Serif" font-size="10.00">/home/travis/build</text>
<text text-anchor="start" x="1451" y="-470" font-family="Helvetica,sans-Serif" font-size="10.00">/AliceO2Group/AliceO2</text>
<text text-anchor="start" x="1451" y="-459" font-family="Helvetica,sans-Serif" font-size="10.00">/Detectors/ITSMFT/ITS</text>
<text text-anchor="middle" x="1532" y="-448" font-family="Helvetica,sans-Serif" font-size="10.00">/reconstruction/src/CookedTrack.cxx</text>
</g>
<!-- Node2 -->
<g id="node2" class="node"><title>Node2</title>
<polygon fill="none" stroke="#bfbfbf" points="1345.5,-378.5 1345.5,-397.5 1398.5,-397.5 1398.5,-378.5 1345.5,-378.5"/>
<text text-anchor="middle" x="1372" y="-385.5" font-family="Helvetica,sans-Serif" font-size="10.00">TMath.h</text>
</g>
<!-- Node1&#45;&gt;Node2 -->
<g id="edge1" class="edge"><title>Node1&#45;&gt;Node2</title>
<path fill="none" stroke="midnightblue" d="M1479.61,-440.787C1452.62,-427.797 1420.85,-412.507 1398.85,-401.924"/>
<polygon fill="midnightblue" stroke="midnightblue" points="1400.31,-398.74 1389.78,-397.558 1397.28,-405.048 1400.31,-398.74"/>
</g>
<!-- Node3 -->
<g id="node3" class="node"><title>Node3</title>
<g id="a_node3"><a xlink:href="../../d1/daa/Base_2include_2DetectorsBase_2Constants_8h.html" target="_top" xlink:title="DetectorsBase/Constants.h">
<polygon fill="none" stroke="black" points="2006,-6.5 2006,-25.5 2144,-25.5 2144,-6.5 2006,-6.5"/>
<text text-anchor="middle" x="2075" y="-13.5" font-family="Helvetica,sans-Serif" font-size="10.00">DetectorsBase/Constants.h</text>
</a>
</g>
</g>
<!-- Node1&#45;&gt;Node3 -->
<g id="edge2" class="edge"><title>Node1&#45;&gt;Node3</title>
<path fill="none" stroke="midnightblue" d="M1621.05,-461.963C1782.73,-452.185 2108,-420.188 2108,-321 2108,-321 2108,-321 2108,-145 2108,-104.819 2092.56,-59.7252 2082.81,-35.2347"/>
<polygon fill="midnightblue" stroke="midnightblue" points="2085.96,-33.7095 2078.92,-25.7985 2079.49,-36.3777 2085.96,-33.7095"/>
</g>
<!-- Node4 -->
<g id="node4" class="node"><title>Node4</title>
<g id="a_node4"><a xlink:href="../../dc/de1/ITSMFT_2common_2reconstruction_2include_2ITSMFTReconstruction_2Cluster_8h.html" target="_top" xlink:title="ITSMFTReconstruction\l/Cluster.h">
<polygon fill="none" stroke="black" points="1403.5,-305 1403.5,-335 1522.5,-335 1522.5,-305 1403.5,-305"/>
<text text-anchor="start" x="1411.5" y="-323" font-family="Helvetica,sans-Serif" font-size="10.00">ITSMFTReconstruction</text>
<text text-anchor="middle" x="1463" y="-312" font-family="Helvetica,sans-Serif" font-size="10.00">/Cluster.h</text>
</a>
</g>
</g>
<!-- Node1&#45;&gt;Node4 -->
<g id="edge3" class="edge"><title>Node1&#45;&gt;Node4</title>
<path fill="none" stroke="midnightblue" d="M1550.19,-440.636C1561.94,-420.862 1572.85,-393.28 1560,-372 1551.28,-357.569 1536.98,-347.018 1522,-339.39"/>
<polygon fill="midnightblue" stroke="midnightblue" points="1523.17,-336.074 1512.63,-335.01 1520.21,-342.415 1523.17,-336.074"/>
</g>
<!-- Node32 -->
<g id="node32" class="node"><title>Node32</title>
<g id="a_node32"><a xlink:href="../../d8/ddd/CookedTrack_8h.html" target="_top" xlink:title="Definition of the ITS cooked track. ">
<polygon fill="none" stroke="black" points="1416.5,-373 1416.5,-403 1551.5,-403 1551.5,-373 1416.5,-373"/>
<text text-anchor="start" x="1424.5" y="-391" font-family="Helvetica,sans-Serif" font-size="10.00">ITSReconstruction/Cooked</text>
<text text-anchor="middle" x="1484" y="-380" font-family="Helvetica,sans-Serif" font-size="10.00">Track.h</text>
</a>
</g>
</g>
<!-- Node1&#45;&gt;Node32 -->
<g id="edge38" class="edge"><title>Node1&#45;&gt;Node32</title>
<path fill="none" stroke="midnightblue" d="M1516.28,-440.787C1510.46,-431.445 1503.89,-420.913 1498.21,-411.798"/>
<polygon fill="midnightblue" stroke="midnightblue" points="1501.14,-409.887 1492.88,-403.252 1495.2,-413.59 1501.14,-409.887"/>
</g>
<!-- Node5 -->
<g id="node5" class="node"><title>Node5</title>
<g id="a_node5"><a xlink:href="../../d4/de2/BaseCluster_8h.html" target="_top" xlink:title="DetectorsBase/BaseCluster.h">
<polygon fill="none" stroke="black" points="1294.5,-248.5 1294.5,-267.5 1441.5,-267.5 1441.5,-248.5 1294.5,-248.5"/>
<text text-anchor="middle" x="1368" y="-255.5" font-family="Helvetica,sans-Serif" font-size="10.00">DetectorsBase/BaseCluster.h</text>
</a>
</g>
</g>
<!-- Node4&#45;&gt;Node5 -->
<g id="edge4" class="edge"><title>Node4&#45;&gt;Node5</title>
<path fill="none" stroke="midnightblue" d="M1440.49,-304.781C1425.31,-295.196 1405.38,-282.606 1390.25,-273.056"/>
<polygon fill="midnightblue" stroke="midnightblue" points="1391.87,-269.936 1381.55,-267.556 1388.13,-275.855 1391.87,-269.936"/>
</g>
<!-- Node6 -->
<g id="node6" class="node"><title>Node6</title>
<polygon fill="none" stroke="#bfbfbf" points="1396.5,-192.5 1396.5,-211.5 1455.5,-211.5 1455.5,-192.5 1396.5,-192.5"/>
<text text-anchor="middle" x="1426" y="-199.5" font-family="Helvetica,sans-Serif" font-size="10.00">TObject.h</text>
</g>
<!-- Node5&#45;&gt;Node6 -->
<g id="edge5" class="edge"><title>Node5&#45;&gt;Node6</title>
<path fill="none" stroke="midnightblue" d="M1377.32,-248.324C1385.89,-240.341 1398.81,-228.313 1409.19,-218.653"/>
<polygon fill="midnightblue" stroke="midnightblue" points="1411.58,-221.21 1416.51,-211.834 1406.81,-216.086 1411.58,-221.21"/>
</g>
<!-- Node7 -->
<g id="node7" class="node"><title>Node7</title>
<polygon fill="none" stroke="#bfbfbf" points="1473.5,-192.5 1473.5,-211.5 1514.5,-211.5 1514.5,-192.5 1473.5,-192.5"/>
<text text-anchor="middle" x="1494" y="-199.5" font-family="Helvetica,sans-Serif" font-size="10.00">bitset</text>
</g>
<!-- Node5&#45;&gt;Node7 -->
<g id="edge6" class="edge"><title>Node5&#45;&gt;Node7</title>
<path fill="none" stroke="midnightblue" d="M1387.97,-248.444C1408.61,-239.596 1441.06,-225.687 1464.63,-215.586"/>
<polygon fill="midnightblue" stroke="midnightblue" points="1466.32,-218.673 1474.13,-211.516 1463.56,-212.239 1466.32,-218.673"/>
</g>
<!-- Node8 -->
<g id="node8" class="node"><title>Node8</title>
<polygon fill="none" stroke="#bfbfbf" points="1060,-192.5 1060,-211.5 1110,-211.5 1110,-192.5 1060,-192.5"/>
<text text-anchor="middle" x="1085" y="-199.5" font-family="Helvetica,sans-Serif" font-size="10.00">iomanip</text>
</g>
<!-- Node5&#45;&gt;Node8 -->
<g id="edge7" class="edge"><title>Node5&#45;&gt;Node8</title>
<path fill="none" stroke="midnightblue" d="M1314.56,-248.45C1264.19,-240.119 1186.68,-226.603 1120,-212 1119.9,-211.978 1119.8,-211.956 1119.7,-211.934"/>
<polygon fill="midnightblue" stroke="midnightblue" points="1120.72,-208.578 1110.18,-209.707 1119.12,-215.394 1120.72,-208.578"/>
</g>
<!-- Node9 -->
<g id="node9" class="node"><title>Node9</title>
<polygon fill="none" stroke="#bfbfbf" points="1128.5,-192.5 1128.5,-211.5 1157.5,-211.5 1157.5,-192.5 1128.5,-192.5"/>
<text text-anchor="middle" x="1143" y="-199.5" font-family="Helvetica,sans-Serif" font-size="10.00">ios</text>
</g>
<!-- Node5&#45;&gt;Node9 -->
<g id="edge8" class="edge"><title>Node5&#45;&gt;Node9</title>
<path fill="none" stroke="midnightblue" d="M1321.23,-248.437C1282.35,-240.892 1225.48,-228.87 1167.33,-211.753"/>
<polygon fill="midnightblue" stroke="midnightblue" points="1168.2,-208.358 1157.61,-208.847 1166.19,-215.065 1168.2,-208.358"/>
</g>
<!-- Node10 -->
<g id="node10" class="node"><title>Node10</title>
<polygon fill="none" stroke="#bfbfbf" points="1288,-74.5 1288,-93.5 1342,-93.5 1342,-74.5 1288,-74.5"/>
<text text-anchor="middle" x="1315" y="-81.5" font-family="Helvetica,sans-Serif" font-size="10.00">iostream</text>
</g>
<!-- Node5&#45;&gt;Node10 -->
<g id="edge9" class="edge"><title>Node5&#45;&gt;Node10</title>
<path fill="none" stroke="midnightblue" d="M1367.78,-248.474C1367,-228.26 1363.52,-176.114 1348,-136 1343.27,-123.776 1335.36,-111.401 1328.46,-101.902"/>
<polygon fill="midnightblue" stroke="midnightblue" points="1331.13,-99.6318 1322.31,-93.7759 1325.56,-103.86 1331.13,-99.6318"/>
</g>
<!-- Node11 -->
<g id="node11" class="node"><title>Node11</title>
<g id="a_node11"><a xlink:href="../../dd/d76/Cartesian3D_8h.html" target="_top" xlink:title="MathUtils/Cartesian3D.h">
<polygon fill="none" stroke="black" points="900.5,-136.5 900.5,-155.5 1025.5,-155.5 1025.5,-136.5 900.5,-136.5"/>
<text text-anchor="middle" x="963" y="-143.5" font-family="Helvetica,sans-Serif" font-size="10.00">MathUtils/Cartesian3D.h</text>
</a>
</g>
</g>
<!-- Node5&#45;&gt;Node11 -->
<g id="edge10" class="edge"><title>Node5&#45;&gt;Node11</title>
<path fill="none" stroke="midnightblue" d="M1294.21,-256.683C1228.2,-254.068 1129.96,-244.329 1051,-212 1023.16,-200.601 996.082,-178.425 979.482,-163.172"/>
<polygon fill="midnightblue" stroke="midnightblue" points="981.479,-160.244 971.807,-155.92 976.672,-165.332 981.479,-160.244"/>
</g>
<!-- Node22 -->
<g id="node22" class="node"><title>Node22</title>
<g id="a_node22"><a xlink:href="../../d4/d20/DetMatrixCache_8h.html" target="_top" xlink:title="DetectorsBase/DetMatrixCache.h">
<polygon fill="none" stroke="black" points="1176,-192.5 1176,-211.5 1340,-211.5 1340,-192.5 1176,-192.5"/>
<text text-anchor="middle" x="1258" y="-199.5" font-family="Helvetica,sans-Serif" font-size="10.00">DetectorsBase/DetMatrixCache.h</text>
</a>
</g>
</g>
<!-- Node5&#45;&gt;Node22 -->
<g id="edge22" class="edge"><title>Node5&#45;&gt;Node22</title>
<path fill="none" stroke="midnightblue" d="M1350.33,-248.324C1332.61,-239.625 1305.1,-226.12 1284.71,-216.113"/>
<polygon fill="midnightblue" stroke="midnightblue" points="1286.15,-212.919 1275.63,-211.655 1283.06,-219.203 1286.15,-212.919"/>
</g>
<!-- Node11&#45;&gt;Node10 -->
<g id="edge21" class="edge"><title>Node11&#45;&gt;Node10</title>
<path fill="none" stroke="midnightblue" d="M1013.32,-136.495C1066.63,-127.474 1153.25,-112.79 1228,-100 1244.33,-97.2065 1262.37,-94.0986 1277.77,-91.4395"/>
<polygon fill="midnightblue" stroke="midnightblue" points="1278.7,-94.8307 1287.96,-89.6797 1277.51,-87.9329 1278.7,-94.8307"/>
</g>
<!-- Node12 -->
<g id="node12" class="node"><title>Node12</title>
<polygon fill="none" stroke="#bfbfbf" points="895.5,-74.5 895.5,-93.5 1044.5,-93.5 1044.5,-74.5 895.5,-74.5"/>
<text text-anchor="middle" x="970" y="-81.5" font-family="Helvetica,sans-Serif" font-size="10.00">Math/GenVector/Rotation3D.h</text>
</g>
<!-- Node11&#45;&gt;Node12 -->
<g id="edge11" class="edge"><title>Node11&#45;&gt;Node12</title>
<path fill="none" stroke="midnightblue" d="M964.003,-136.403C964.991,-127.938 966.532,-114.728 967.804,-103.82"/>
<polygon fill="midnightblue" stroke="midnightblue" points="971.316,-103.919 968.999,-93.5806 964.364,-103.108 971.316,-103.919"/>
</g>
<!-- Node13 -->
<g id="node13" class="node"><title>Node13</title>
<polygon fill="none" stroke="#bfbfbf" points="1063,-74.5 1063,-93.5 1219,-93.5 1219,-74.5 1063,-74.5"/>
<text text-anchor="middle" x="1141" y="-81.5" font-family="Helvetica,sans-Serif" font-size="10.00">Math/GenVector/Transform3D.h</text>
</g>
<!-- Node11&#45;&gt;Node13 -->
<g id="edge12" class="edge"><title>Node11&#45;&gt;Node13</title>
<path fill="none" stroke="midnightblue" d="M988.503,-136.403C1019.3,-126.022 1071.27,-108.506 1105.85,-96.849"/>
<polygon fill="midnightblue" stroke="midnightblue" points="1107.19,-100.092 1115.54,-93.5806 1104.95,-93.4582 1107.19,-100.092"/>
</g>
<!-- Node14 -->
<g id="node14" class="node"><title>Node14</title>
<polygon fill="none" stroke="#bfbfbf" points="260,-74.5 260,-93.5 420,-93.5 420,-74.5 260,-74.5"/>
<text text-anchor="middle" x="340" y="-81.5" font-family="Helvetica,sans-Serif" font-size="10.00">Math/GenVector/Translation3D.h</text>
</g>
<!-- Node11&#45;&gt;Node14 -->
<g id="edge13" class="edge"><title>Node11&#45;&gt;Node14</title>
<path fill="none" stroke="midnightblue" d="M900.344,-141.409C800.401,-135.302 598.841,-121.431 429,-100 418.288,-98.6483 406.894,-96.9375 395.962,-95.1589"/>
<polygon fill="midnightblue" stroke="midnightblue" points="396.524,-91.7043 386.085,-93.5147 395.375,-98.6093 396.524,-91.7043"/>
</g>
<!-- Node15 -->
<g id="node15" class="node"><title>Node15</title>
<polygon fill="none" stroke="#bfbfbf" points="1360,-74.5 1360,-93.5 1416,-93.5 1416,-74.5 1360,-74.5"/>
<text text-anchor="middle" x="1388" y="-81.5" font-family="Helvetica,sans-Serif" font-size="10.00">Rtypes.h</text>
</g>
<!-- Node11&#45;&gt;Node15 -->
<g id="edge14" class="edge"><title>Node11&#45;&gt;Node15</title>
<path fill="none" stroke="midnightblue" d="M1025.76,-139.792C1119.39,-131.671 1291.05,-115.328 1351,-100 1353.99,-99.2349 1357.06,-98.2816 1360.1,-97.2289"/>
<polygon fill="midnightblue" stroke="midnightblue" points="1361.41,-100.473 1369.51,-93.6358 1358.92,-93.9332 1361.41,-100.473"/>
</g>
<!-- Node16 -->
<g id="node16" class="node"><title>Node16</title>
<polygon fill="none" stroke="#bfbfbf" points="438,-74.5 438,-93.5 514,-93.5 514,-74.5 438,-74.5"/>
<text text-anchor="middle" x="476" y="-81.5" font-family="Helvetica,sans-Serif" font-size="10.00">TGeoMatrix.h</text>
</g>
<!-- Node11&#45;&gt;Node16 -->
<g id="edge15" class="edge"><title>Node11&#45;&gt;Node16</title>
<path fill="none" stroke="midnightblue" d="M900.244,-142.527C814.499,-138.252 656.274,-127.16 524,-100 519.451,-99.066 514.721,-97.8726 510.08,-96.5679"/>
<polygon fill="midnightblue" stroke="midnightblue" points="510.755,-93.1162 500.171,-93.5915 508.741,-99.8203 510.755,-93.1162"/>
</g>
<!-- Node17 -->
<g id="node17" class="node"><title>Node17</title>
<polygon fill="none" stroke="#bfbfbf" points="532.5,-69 532.5,-99 683.5,-99 683.5,-69 532.5,-69"/>
<text text-anchor="start" x="540.5" y="-87" font-family="Helvetica,sans-Serif" font-size="10.00">Math/GenVector/Displacement</text>
<text text-anchor="middle" x="608" y="-76" font-family="Helvetica,sans-Serif" font-size="10.00">Vector3D.h</text>
</g>
<!-- Node11&#45;&gt;Node17 -->
<g id="edge16" class="edge"><title>Node11&#45;&gt;Node17</title>
<path fill="none" stroke="midnightblue" d="M910.963,-136.478C858.697,-127.885 775.569,-114.125 693.534,-100.082"/>
<polygon fill="midnightblue" stroke="midnightblue" points="693.985,-96.6085 683.537,-98.3686 692.802,-103.508 693.985,-96.6085"/>
</g>
<!-- Node18 -->
<g id="node18" class="node"><title>Node18</title>
<polygon fill="none" stroke="#bfbfbf" points="702,-74.5 702,-93.5 878,-93.5 878,-74.5 702,-74.5"/>
<text text-anchor="middle" x="790" y="-81.5" font-family="Helvetica,sans-Serif" font-size="10.00">Math/GenVector/PositionVector3D.h</text>
</g>
<!-- Node11&#45;&gt;Node18 -->
<g id="edge17" class="edge"><title>Node11&#45;&gt;Node18</title>
<path fill="none" stroke="midnightblue" d="M938.213,-136.403C908.409,-126.067 858.209,-108.656 824.598,-96.9994"/>
<polygon fill="midnightblue" stroke="midnightblue" points="825.335,-93.5506 814.741,-93.5806 823.042,-100.164 825.335,-93.5506"/>
</g>
<!-- Node19 -->
<g id="node19" class="node"><title>Node19</title>
<g id="a_node19"><a xlink:href="../../d2/dd0/Cartesian2D_8h.html" target="_top" xlink:title="MathUtils/Cartesian2D.h">
<polygon fill="none" stroke="black" points="116.5,-74.5 116.5,-93.5 241.5,-93.5 241.5,-74.5 116.5,-74.5"/>
<text text-anchor="middle" x="179" y="-81.5" font-family="Helvetica,sans-Serif" font-size="10.00">MathUtils/Cartesian2D.h</text>
</a>
</g>
</g>
<!-- Node11&#45;&gt;Node19 -->
<g id="edge18" class="edge"><title>Node11&#45;&gt;Node19</title>
<path fill="none" stroke="midnightblue" d="M900.324,-144.03C775.965,-141.445 489.429,-132.204 251,-100 242.542,-98.8576 233.592,-97.2891 224.984,-95.5949"/>
<polygon fill="midnightblue" stroke="midnightblue" points="225.584,-92.1453 215.085,-93.5664 224.179,-99.0028 225.584,-92.1453"/>
</g>
<!-- Node20 -->
<g id="node20" class="node"><title>Node20</title>
<polygon fill="none" stroke="#bfbfbf" points="194.5,-1 194.5,-31 345.5,-31 345.5,-1 194.5,-1"/>
<text text-anchor="start" x="202.5" y="-19" font-family="Helvetica,sans-Serif" font-size="10.00">Math/GenVector/Displacement</text>
<text text-anchor="middle" x="270" y="-8" font-family="Helvetica,sans-Serif" font-size="10.00">Vector2D.h</text>
</g>
<!-- Node19&#45;&gt;Node20 -->
<g id="edge19" class="edge"><title>Node19&#45;&gt;Node20</title>
<path fill="none" stroke="midnightblue" d="M190.897,-74.3717C203.779,-65.0286 224.78,-49.7966 241.907,-37.375"/>
<polygon fill="midnightblue" stroke="midnightblue" points="244.407,-39.8859 250.447,-31.1815 240.297,-34.2194 244.407,-39.8859"/>
</g>
<!-- Node21 -->
<g id="node21" class="node"><title>Node21</title>
<polygon fill="none" stroke="#bfbfbf" points="0,-6.5 0,-25.5 176,-25.5 176,-6.5 0,-6.5"/>
<text text-anchor="middle" x="88" y="-13.5" font-family="Helvetica,sans-Serif" font-size="10.00">Math/GenVector/PositionVector2D.h</text>
</g>
<!-- Node19&#45;&gt;Node21 -->
<g id="edge20" class="edge"><title>Node19&#45;&gt;Node21</title>
<path fill="none" stroke="midnightblue" d="M167.103,-74.3717C152.116,-63.5015 126.138,-44.6602 108.058,-31.5474"/>
<polygon fill="midnightblue" stroke="midnightblue" points="110.05,-28.6684 99.8996,-25.6305 105.94,-34.3349 110.05,-28.6684"/>
</g>
<!-- Node22&#45;&gt;Node11 -->
<g id="edge25" class="edge"><title>Node22&#45;&gt;Node11</title>
<path fill="none" stroke="midnightblue" d="M1211.26,-192.444C1159.25,-182.925 1075.25,-167.547 1019.58,-157.356"/>
<polygon fill="midnightblue" stroke="midnightblue" points="1019.99,-153.874 1009.52,-155.516 1018.73,-160.76 1019.99,-153.874"/>
</g>
<!-- Node22&#45;&gt;Node15 -->
<g id="edge36" class="edge"><title>Node22&#45;&gt;Node15</title>
<path fill="none" stroke="midnightblue" d="M1284.96,-192.351C1304.31,-185.077 1330.03,-173.102 1348,-156 1363.49,-141.259 1374.63,-119.18 1381.16,-103.563"/>
<polygon fill="midnightblue" stroke="midnightblue" points="1384.54,-104.54 1384.94,-93.9531 1378.02,-101.978 1384.54,-104.54"/>
</g>
<!-- Node23 -->
<g id="node23" class="node"><title>Node23</title>
<polygon fill="none" stroke="#bfbfbf" points="1102,-136.5 1102,-155.5 1146,-155.5 1146,-136.5 1102,-136.5"/>
<text text-anchor="middle" x="1124" y="-143.5" font-family="Helvetica,sans-Serif" font-size="10.00">vector</text>
</g>
<!-- Node22&#45;&gt;Node23 -->
<g id="edge23" class="edge"><title>Node22&#45;&gt;Node23</title>
<path fill="none" stroke="midnightblue" d="M1236.77,-192.444C1214.62,-183.517 1179.68,-169.439 1154.56,-159.317"/>
<polygon fill="midnightblue" stroke="midnightblue" points="1155.72,-156.008 1145.13,-155.516 1153.1,-162.501 1155.72,-156.008"/>
</g>
<!-- Node24 -->
<g id="node24" class="node"><title>Node24</title>
<polygon fill="none" stroke="#bfbfbf" points="1550,-6.5 1550,-25.5 1588,-25.5 1588,-6.5 1550,-6.5"/>
<text text-anchor="middle" x="1569" y="-13.5" font-family="Helvetica,sans-Serif" font-size="10.00">array</text>
</g>
<!-- Node22&#45;&gt;Node24 -->
<g id="edge24" class="edge"><title>Node22&#45;&gt;Node24</title>
<path fill="none" stroke="midnightblue" d="M1256.14,-192.17C1251.63,-168.044 1242.97,-100.649 1279,-68 1317.04,-33.5331 1473.85,-21.7578 1539.69,-18.2829"/>
<polygon fill="midnightblue" stroke="midnightblue" points="1539.99,-21.7724 1549.8,-17.7773 1539.64,-14.7811 1539.99,-21.7724"/>
</g>
<!-- Node25 -->
<g id="node25" class="node"><title>Node25</title>
<g id="a_node25"><a xlink:href="../../d6/d31/DetID_8h.html" target="_top" xlink:title="DetectorsBase/DetID.h">
<polygon fill="none" stroke="black" points="1510.5,-136.5 1510.5,-155.5 1629.5,-155.5 1629.5,-136.5 1510.5,-136.5"/>
<text text-anchor="middle" x="1570" y="-143.5" font-family="Helvetica,sans-Serif" font-size="10.00">DetectorsBase/DetID.h</text>
</a>
</g>
</g>
<!-- Node22&#45;&gt;Node25 -->
<g id="edge26" class="edge"><title>Node22&#45;&gt;Node25</title>
<path fill="none" stroke="midnightblue" d="M1307.44,-192.444C1362.66,-182.885 1452.02,-167.419 1510.89,-157.23"/>
<polygon fill="midnightblue" stroke="midnightblue" points="1511.54,-160.671 1520.79,-155.516 1510.34,-153.773 1511.54,-160.671"/>
</g>
<!-- Node31 -->
<g id="node31" class="node"><title>Node31</title>
<polygon fill="none" stroke="#bfbfbf" points="1268.5,-136.5 1268.5,-155.5 1339.5,-155.5 1339.5,-136.5 1268.5,-136.5"/>
<text text-anchor="middle" x="1304" y="-143.5" font-family="Helvetica,sans-Serif" font-size="10.00">FairLogger.h</text>
</g>
<!-- Node22&#45;&gt;Node31 -->
<g id="edge37" class="edge"><title>Node22&#45;&gt;Node31</title>
<path fill="none" stroke="midnightblue" d="M1265.6,-192.083C1272.23,-184.298 1282.02,-172.801 1290.06,-163.367"/>
<polygon fill="midnightblue" stroke="midnightblue" points="1292.73,-165.633 1296.55,-155.751 1287.4,-161.094 1292.73,-165.633"/>
</g>
<!-- Node25&#45;&gt;Node15 -->
<g id="edge30" class="edge"><title>Node25&#45;&gt;Node15</title>
<path fill="none" stroke="midnightblue" d="M1542.55,-136.463C1514.26,-127.598 1468.93,-113.203 1430,-100 1427.09,-99.0122 1424.07,-97.9698 1421.04,-96.9135"/>
<polygon fill="midnightblue" stroke="midnightblue" points="1422.09,-93.5727 1411.5,-93.5425 1419.76,-100.173 1422.09,-93.5727"/>
</g>
<!-- Node25&#45;&gt;Node24 -->
<g id="edge28" class="edge"><title>Node25&#45;&gt;Node24</title>
<path fill="none" stroke="midnightblue" d="M1520.23,-136.45C1499.17,-130.104 1476.63,-119.089 1464,-100 1456.15,-88.1401 1456.45,-80.055 1464,-68 1480.47,-41.6969 1514.8,-28.6133 1539.74,-22.3455"/>
<polygon fill="midnightblue" stroke="midnightblue" points="1540.8,-25.6936 1549.77,-20.0579 1539.24,-18.8688 1540.8,-25.6936"/>
</g>
<!-- Node26 -->
<g id="node26" class="node"><title>Node26</title>
<polygon fill="none" stroke="#bfbfbf" points="1540,-74.5 1540,-93.5 1586,-93.5 1586,-74.5 1540,-74.5"/>
<text text-anchor="middle" x="1563" y="-81.5" font-family="Helvetica,sans-Serif" font-size="10.00">cstdint</text>
</g>
<!-- Node25&#45;&gt;Node26 -->
<g id="edge27" class="edge"><title>Node25&#45;&gt;Node26</title>
<path fill="none" stroke="midnightblue" d="M1569,-136.403C1568.01,-127.938 1566.47,-114.728 1565.2,-103.82"/>
<polygon fill="midnightblue" stroke="midnightblue" points="1568.64,-103.108 1564,-93.5806 1561.68,-103.919 1568.64,-103.108"/>
</g>
<!-- Node27 -->
<g id="node27" class="node"><title>Node27</title>
<polygon fill="none" stroke="#bfbfbf" points="1604,-74.5 1604,-93.5 1666,-93.5 1666,-74.5 1604,-74.5"/>
<text text-anchor="middle" x="1635" y="-81.5" font-family="Helvetica,sans-Serif" font-size="10.00">type_traits</text>
</g>
<!-- Node25&#45;&gt;Node27 -->
<g id="edge29" class="edge"><title>Node25&#45;&gt;Node27</title>
<path fill="none" stroke="midnightblue" d="M1579.31,-136.403C1589.45,-127.047 1605.86,-111.895 1618.25,-100.46"/>
<polygon fill="midnightblue" stroke="midnightblue" points="1620.73,-102.935 1625.7,-93.5806 1615.98,-97.7916 1620.73,-102.935"/>
</g>
<!-- Node28 -->
<g id="node28" class="node"><title>Node28</title>
<g id="a_node28"><a xlink:href="../../d9/ded/Utils_8h.html" target="_top" xlink:title="DetectorsBase/Utils.h">
<polygon fill="none" stroke="black" points="1722.5,-74.5 1722.5,-93.5 1835.5,-93.5 1835.5,-74.5 1722.5,-74.5"/>
<text text-anchor="middle" x="1779" y="-81.5" font-family="Helvetica,sans-Serif" font-size="10.00">DetectorsBase/Utils.h</text>
</a>
</g>
</g>
<!-- Node25&#45;&gt;Node28 -->
<g id="edge31" class="edge"><title>Node25&#45;&gt;Node28</title>
<path fill="none" stroke="midnightblue" d="M1599.94,-136.403C1636.57,-125.889 1698.7,-108.054 1739.28,-96.4016"/>
<polygon fill="midnightblue" stroke="midnightblue" points="1740.46,-99.7041 1749.11,-93.5806 1738.53,-92.9759 1740.46,-99.7041"/>
</g>
<!-- Node30 -->
<g id="node30" class="node"><title>Node30</title>
<polygon fill="none" stroke="#bfbfbf" points="1472.5,-74.5 1472.5,-93.5 1521.5,-93.5 1521.5,-74.5 1472.5,-74.5"/>
<text text-anchor="middle" x="1497" y="-81.5" font-family="Helvetica,sans-Serif" font-size="10.00">cassert</text>
</g>
<!-- Node25&#45;&gt;Node30 -->
<g id="edge35" class="edge"><title>Node25&#45;&gt;Node30</title>
<path fill="none" stroke="midnightblue" d="M1559.54,-136.403C1548.05,-126.958 1529.37,-111.606 1515.41,-100.134"/>
<polygon fill="midnightblue" stroke="midnightblue" points="1517.39,-97.2264 1507.44,-93.5806 1512.94,-102.634 1517.39,-97.2264"/>
</g>
<!-- Node28&#45;&gt;Node3 -->
<g id="edge32" class="edge"><title>Node28&#45;&gt;Node3</title>
<path fill="none" stroke="midnightblue" d="M1817.39,-74.4393C1870.96,-62.4954 1968.11,-40.834 2026.58,-27.7966"/>
<polygon fill="midnightblue" stroke="midnightblue" points="2027.68,-31.138 2036.67,-25.5455 2026.15,-24.3058 2027.68,-31.138"/>
</g>
<!-- Node28&#45;&gt;Node24 -->
<g id="edge34" class="edge"><title>Node28&#45;&gt;Node24</title>
<path fill="none" stroke="midnightblue" d="M1751.55,-74.3717C1711.68,-61.8413 1638.1,-38.7187 1597.6,-25.9887"/>
<polygon fill="midnightblue" stroke="midnightblue" points="1598.65,-22.6484 1588.06,-22.989 1596.55,-29.3263 1598.65,-22.6484"/>
</g>
<!-- Node29 -->
<g id="node29" class="node"><title>Node29</title>
<polygon fill="none" stroke="#bfbfbf" points="2162,-6.5 2162,-25.5 2206,-25.5 2206,-6.5 2162,-6.5"/>
<text text-anchor="middle" x="2184" y="-13.5" font-family="Helvetica,sans-Serif" font-size="10.00">cmath</text>
</g>
<!-- Node28&#45;&gt;Node29 -->
<g id="edge33" class="edge"><title>Node28&#45;&gt;Node29</title>
<path fill="none" stroke="midnightblue" d="M1835.61,-80.8121C1909.91,-76.6989 2043.68,-64.9909 2153,-32 2155.14,-31.3544 2157.31,-30.5776 2159.47,-29.7216"/>
<polygon fill="midnightblue" stroke="midnightblue" points="2160.92,-32.9065 2168.62,-25.624 2158.06,-26.5183 2160.92,-32.9065"/>
</g>
<!-- Node32&#45;&gt;Node23 -->
<g id="edge39" class="edge"><title>Node32&#45;&gt;Node23</title>
<path fill="none" stroke="midnightblue" d="M1429.08,-372.982C1322.71,-344.6 1095.15,-277.457 1051,-212 1036.21,-190.072 1066.49,-170.751 1092.44,-158.991"/>
<polygon fill="midnightblue" stroke="midnightblue" points="1093.9,-162.171 1101.71,-155.01 1091.14,-155.739 1093.9,-162.171"/>
</g>
<!-- Node33 -->
<g id="node33" class="node"><title>Node33</title>
<g id="a_node33"><a xlink:href="../../d7/d65/Detectors_2Base_2include_2DetectorsBase_2Track_8h.html" target="_top" xlink:title="DetectorsBase/Track.h">
<polygon fill="none" stroke="black" points="1636,-310.5 1636,-329.5 1754,-329.5 1754,-310.5 1636,-310.5"/>
<text text-anchor="middle" x="1695" y="-317.5" font-family="Helvetica,sans-Serif" font-size="10.00">DetectorsBase/Track.h</text>
</a>
</g>
</g>
<!-- Node32&#45;&gt;Node33 -->
<g id="edge40" class="edge"><title>Node32&#45;&gt;Node33</title>
<path fill="none" stroke="midnightblue" d="M1529.01,-372.922C1567.51,-360.88 1622.24,-343.76 1658.17,-332.519"/>
<polygon fill="midnightblue" stroke="midnightblue" points="1659.28,-335.84 1667.78,-329.514 1657.19,-329.159 1659.28,-335.84"/>
</g>
<!-- Node33&#45;&gt;Node3 -->
<g id="edge51" class="edge"><title>Node33&#45;&gt;Node3</title>
<path fill="none" stroke="midnightblue" d="M1754.01,-316.366C1849.1,-311.292 2031.34,-297.907 2088,-268 2122.24,-249.927 2146,-241.718 2146,-203 2146,-203 2146,-203 2146,-145 2146,-109.154 2139.92,-99.0476 2122,-68 2114.38,-54.801 2102.81,-42.1875 2093.05,-32.8067"/>
<polygon fill="midnightblue" stroke="midnightblue" points="2095.13,-29.962 2085.41,-25.7452 2090.38,-35.1028 2095.13,-29.962"/>
</g>
<!-- Node33&#45;&gt;Node5 -->
<g id="edge50" class="edge"><title>Node33&#45;&gt;Node5</title>
<path fill="none" stroke="midnightblue" d="M1648.5,-310.467C1589.54,-299.649 1487.95,-281.009 1424.56,-269.378"/>
<polygon fill="midnightblue" stroke="midnightblue" points="1424.81,-265.866 1414.34,-267.503 1423.55,-272.751 1424.81,-265.866"/>
</g>
<!-- Node33&#45;&gt;Node10 -->
<g id="edge47" class="edge"><title>Node33&#45;&gt;Node10</title>
<path fill="none" stroke="midnightblue" d="M1672.18,-310.403C1650.57,-301.637 1617.84,-286.689 1593,-268 1556.31,-240.39 1559.54,-219.82 1523,-192 1492.26,-168.59 1392.27,-120.852 1342.98,-97.8952"/>
<polygon fill="midnightblue" stroke="midnightblue" points="1344.38,-94.6856 1333.84,-93.6488 1341.43,-101.035 1344.38,-94.6856"/>
</g>
<!-- Node33&#45;&gt;Node11 -->
<g id="edge53" class="edge"><title>Node33&#45;&gt;Node11</title>
<path fill="none" stroke="midnightblue" d="M1635.87,-313.095C1556.15,-304.8 1409.91,-288.403 1286,-268 1163.79,-247.877 1118.03,-277.657 1013,-212 994.58,-200.485 980.356,-179.606 971.869,-164.616"/>
<polygon fill="midnightblue" stroke="midnightblue" points="974.94,-162.937 967.134,-155.773 968.769,-166.241 974.94,-162.937"/>
</g>
<!-- Node33&#45;&gt;Node15 -->
<g id="edge41" class="edge"><title>Node33&#45;&gt;Node15</title>
<path fill="none" stroke="midnightblue" d="M1677.87,-310.387C1660.8,-301.297 1634.4,-285.833 1615,-268 1583.71,-239.248 1588.33,-220.703 1557,-192 1550.72,-186.251 1454.94,-126.551 1410.43,-98.9076"/>
<polygon fill="midnightblue" stroke="midnightblue" points="1412.1,-95.8262 1401.76,-93.5263 1408.41,-101.774 1412.1,-95.8262"/>
</g>
<!-- Node33&#45;&gt;Node24 -->
<g id="edge43" class="edge"><title>Node33&#45;&gt;Node24</title>
<path fill="none" stroke="midnightblue" d="M1691.39,-310.156C1687.5,-300.129 1681.52,-283.196 1679,-268 1664.44,-180.284 1722.12,-142.772 1674,-68 1657.21,-41.9047 1622.94,-28.7803 1598.11,-22.4462"/>
<polygon fill="midnightblue" stroke="midnightblue" points="1598.65,-18.9801 1588.12,-20.1292 1597.07,-25.799 1598.65,-18.9801"/>
</g>
<!-- Node33&#45;&gt;Node28 -->
<g id="edge52" class="edge"><title>Node33&#45;&gt;Node28</title>
<path fill="none" stroke="midnightblue" d="M1691.73,-310.111C1687.2,-296.522 1680.2,-269.858 1686,-248 1701.52,-189.462 1743.54,-129.995 1765.39,-101.811"/>
<polygon fill="midnightblue" stroke="midnightblue" points="1768.26,-103.818 1771.71,-93.8008 1762.77,-99.4795 1768.26,-103.818"/>
</g>
<!-- Node33&#45;&gt;Node29 -->
<g id="edge45" class="edge"><title>Node33&#45;&gt;Node29</title>
<path fill="none" stroke="midnightblue" d="M1754.38,-316.625C1855.44,-311.799 2056.07,-298.596 2119,-268 2155.74,-250.136 2184,-243.855 2184,-203 2184,-203 2184,-203 2184,-145 2184,-106.248 2184,-60.8973 2184,-35.9188"/>
<polygon fill="midnightblue" stroke="midnightblue" points="2187.5,-35.6912 2184,-25.6913 2180.5,-35.6913 2187.5,-35.6912"/>
</g>
<!-- Node34 -->
<g id="node34" class="node"><title>Node34</title>
<polygon fill="none" stroke="#bfbfbf" points="1695,-248.5 1695,-267.5 1751,-267.5 1751,-248.5 1695,-248.5"/>
<text text-anchor="middle" x="1723" y="-255.5" font-family="Helvetica,sans-Serif" font-size="10.00">algorithm</text>
</g>
<!-- Node33&#45;&gt;Node34 -->
<g id="edge42" class="edge"><title>Node33&#45;&gt;Node34</title>
<path fill="none" stroke="midnightblue" d="M1699.01,-310.403C1703.09,-301.671 1709.52,-287.889 1714.7,-276.794"/>
<polygon fill="midnightblue" stroke="midnightblue" points="1717.94,-278.123 1719,-267.581 1711.6,-275.162 1717.94,-278.123"/>
</g>
<!-- Node35 -->
<g id="node35" class="node"><title>Node35</title>
<polygon fill="none" stroke="#bfbfbf" points="1769.5,-248.5 1769.5,-267.5 1810.5,-267.5 1810.5,-248.5 1769.5,-248.5"/>
<text text-anchor="middle" x="1790" y="-255.5" font-family="Helvetica,sans-Serif" font-size="10.00">cfloat</text>
</g>
<!-- Node33&#45;&gt;Node35 -->
<g id="edge44" class="edge"><title>Node33&#45;&gt;Node35</title>
<path fill="none" stroke="midnightblue" d="M1708.61,-310.403C1724.06,-300.646 1749.49,-284.585 1767.82,-273.011"/>
<polygon fill="midnightblue" stroke="midnightblue" points="1769.83,-275.88 1776.41,-267.581 1766.09,-269.961 1769.83,-275.88"/>
</g>
<!-- Node36 -->
<g id="node36" class="node"><title>Node36</title>
<polygon fill="none" stroke="#bfbfbf" points="1829,-248.5 1829,-267.5 1875,-267.5 1875,-248.5 1829,-248.5"/>
<text text-anchor="middle" x="1852" y="-255.5" font-family="Helvetica,sans-Serif" font-size="10.00">cstring</text>
</g>
<!-- Node33&#45;&gt;Node36 -->
<g id="edge46" class="edge"><title>Node33&#45;&gt;Node36</title>
<path fill="none" stroke="midnightblue" d="M1717.49,-310.403C1744.31,-300.156 1789.32,-282.956 1819.81,-271.302"/>
<polygon fill="midnightblue" stroke="midnightblue" points="1821.46,-274.42 1829.55,-267.581 1818.96,-267.881 1821.46,-274.42"/>
</g>
<!-- Node37 -->
<g id="node37" class="node"><title>Node37</title>
<polygon fill="none" stroke="#bfbfbf" points="1893.5,-248.5 1893.5,-267.5 1976.5,-267.5 1976.5,-248.5 1893.5,-248.5"/>
<text text-anchor="middle" x="1935" y="-255.5" font-family="Helvetica,sans-Serif" font-size="10.00">Math/SMatrix.h</text>
</g>
<!-- Node33&#45;&gt;Node37 -->
<g id="edge48" class="edge"><title>Node33&#45;&gt;Node37</title>
<path fill="none" stroke="midnightblue" d="M1729.13,-310.467C1771.69,-299.827 1844.51,-281.622 1891.16,-269.959"/>
<polygon fill="midnightblue" stroke="midnightblue" points="1892.13,-273.324 1900.99,-267.503 1890.44,-266.533 1892.13,-273.324"/>
</g>
<!-- Node38 -->
<g id="node38" class="node"><title>Node38</title>
<polygon fill="none" stroke="#bfbfbf" points="1994.5,-248.5 1994.5,-267.5 2079.5,-267.5 2079.5,-248.5 1994.5,-248.5"/>
<text text-anchor="middle" x="2037" y="-255.5" font-family="Helvetica,sans-Serif" font-size="10.00">Math/SVector.h</text>
</g>
<!-- Node33&#45;&gt;Node38 -->
<g id="edge49" class="edge"><title>Node33&#45;&gt;Node38</title>
<path fill="none" stroke="midnightblue" d="M1743.64,-310.467C1807.36,-299.289 1918.67,-279.759 1984.33,-268.24"/>
<polygon fill="midnightblue" stroke="midnightblue" points="1985.22,-271.639 1994.46,-266.463 1984.01,-264.744 1985.22,-271.639"/>
</g>
</g>
</svg>
        <g id="navigator" transform="translate(0 0)" fill="#404254">
                <rect fill="#f2f5e9" fill-opacity="0.5" stroke="#606060" stroke-width=".5" x="0" y="0" width="60" height="60"/>
                <use id="zoomplus" xlink:href="#zoomPlus" x="17" y="9" onmousedown="handleZoom(evt,'in')"/>
                <use id="zoomminus" xlink:href="#zoomMin" x="42" y="9" onmousedown="handleZoom(evt,'out')"/>
                <use id="reset" xlink:href="#resetDef" x="30" y="36" onmousedown="handleReset()"/>
                <g id="arrowUp" xlink:href="#dirArrow" transform="translate(30 24)" onmousedown="handlePan(0,-1)">
                  <use xlink:href="#rim" fill="#404040">
                        <set attributeName="fill" to="#808080" begin="arrowUp.mouseover" end="arrowUp.mouseout"/>
                  </use>
                  <path fill="none" stroke="white" stroke-width="1.5" d="M0,-3.0v7 M-2.5,-0.5L0,-3.0L2.5,-0.5"/>
                </g>
                <g id="arrowRight" xlink:href="#dirArrow" transform="rotate(90) translate(36 -43)" onmousedown="handlePan(1,0)">
                  <use xlink:href="#rim" fill="#404040">
                        <set attributeName="fill" to="#808080" begin="arrowRight.mouseover" end="arrowRight.mouseout"/>
                  </use>
                  <path fill="none" stroke="white" stroke-width="1.5" d="M0,-3.0v7 M-2.5,-0.5L0,-3.0L2.5,-0.5"/>
                </g>
                <g id="arrowDown" xlink:href="#dirArrow" transform="rotate(180) translate(-30 -48)" onmousedown="handlePan(0,1)">
                  <use xlink:href="#rim" fill="#404040">
                        <set attributeName="fill" to="#808080" begin="arrowDown.mouseover" end="arrowDown.mouseout"/>
                  </use>
                  <path fill="none" stroke="white" stroke-width="1.5" d="M0,-3.0v7 M-2.5,-0.5L0,-3.0L2.5,-0.5"/>
                </g>
                <g id="arrowLeft" xlink:href="#dirArrow" transform="rotate(270) translate(-36 17)" onmousedown="handlePan(-1,0)">
                  <use xlink:href="#rim" fill="#404040">
                        <set attributeName="fill" to="#808080" begin="arrowLeft.mouseover" end="arrowLeft.mouseout"/>
                  </use>
                  <path fill="none" stroke="white" stroke-width="1.5" d="M0,-3.0v7 M-2.5,-0.5L0,-3.0L2.5,-0.5"/>
                </g>
        </g>
        <svg viewBox="0 0 15 15" width="100%" height="30px" preserveAspectRatio="xMaxYMin meet">
         <g id="arrow_out" transform="scale(0.3 0.3)">
          <a xlink:href="CookedTrack_8cxx__incl_org.svg" target="_base">
           <rect id="button" ry="5" rx="5" y="6" x="6" height="38" width="38"
                fill="#f2f5e9" fill-opacity="0.5" stroke="#606060" stroke-width="1.0"/>
           <path id="arrow"
             d="M 11.500037,31.436501 C 11.940474,20.09759 22.043105,11.32322 32.158766,21.979434 L 37.068811,17.246167 C 37.068811,17.246167 37.088388,32 37.088388,32 L 22.160133,31.978069 C 22.160133,31.978069 26.997745,27.140456 26.997745,27.140456 C 18.528582,18.264221 13.291696,25.230495 11.500037,31.436501 z"
             style="fill:#404040;"/>
          </a>
         </g>
        </svg>
</svg>
