<?xml version="1.0" encoding="UTF-8" standalone="no"?>
<!DOCTYPE svg PUBLIC "-//W3C//DTD SVG 1.1//EN"
 "http://www.w3.org/Graphics/SVG/1.1/DTD/svg11.dtd">
<!-- Generated by graphviz version 2.36.0 (20140111.2315)
 -->
<!-- Title: /home/travis/build/AliceO2Group/AliceO2/Detectors/ITSMFT/ITS/reconstruction/include/ITSReconstruction/CookedTrackerTask.h Pages: 1 -->
<svg width="2518pt" height="580pt"
 viewBox="0.00 0.00 2518.00 580.00" xmlns="http://www.w3.org/2000/svg" xmlns:xlink="http://www.w3.org/1999/xlink">
<g id="graph0" class="graph" transform="scale(1 1) rotate(0) translate(4 576)">
<title>/home/travis/build/AliceO2Group/AliceO2/Detectors/ITSMFT/ITS/reconstruction/include/ITSReconstruction/CookedTrackerTask.h</title>
<!-- Node1 -->
<g id="node1" class="node"><title>Node1</title>
<polygon fill="#bfbfbf" stroke="black" points="699.5,-497 699.5,-571 870.5,-571 870.5,-497 699.5,-497"/>
<text text-anchor="start" x="707.5" y="-559" font-family="Helvetica,sans-Serif" font-size="10.00">/home/travis/build</text>
<text text-anchor="start" x="707.5" y="-548" font-family="Helvetica,sans-Serif" font-size="10.00">/AliceO2Group/AliceO2</text>
<text text-anchor="start" x="707.5" y="-537" font-family="Helvetica,sans-Serif" font-size="10.00">/Detectors/ITSMFT/ITS</text>
<text text-anchor="start" x="707.5" y="-526" font-family="Helvetica,sans-Serif" font-size="10.00">/reconstruction/include</text>
<text text-anchor="start" x="707.5" y="-515" font-family="Helvetica,sans-Serif" font-size="10.00">/ITSReconstruction/CookedTracker</text>
<text text-anchor="middle" x="785" y="-504" font-family="Helvetica,sans-Serif" font-size="10.00">Task.h</text>
</g>
<!-- Node2 -->
<g id="node2" class="node"><title>Node2</title>
<polygon fill="none" stroke="#bfbfbf" points="693.5,-434.5 693.5,-453.5 756.5,-453.5 756.5,-434.5 693.5,-434.5"/>
<text text-anchor="middle" x="725" y="-441.5" font-family="Helvetica,sans-Serif" font-size="10.00">FairTask.h</text>
</g>
<!-- Node1&#45;&gt;Node2 -->
<g id="edge1" class="edge"><title>Node1&#45;&gt;Node2</title>
<path fill="none" stroke="midnightblue" d="M760.423,-496.953C752.182,-484.867 743.377,-471.953 736.607,-462.024"/>
<polygon fill="midnightblue" stroke="midnightblue" points="739.35,-459.833 730.825,-453.543 733.566,-463.777 739.35,-459.833"/>
</g>
<!-- Node3 -->
<g id="node3" class="node"><title>Node3</title>
<g id="a_node3"><a xlink:href="../../df/d9a/ITS_2base_2include_2ITSBase_2GeometryTGeo_8h.html" target="_top" xlink:title="ITSBase/GeometryTGeo.h">
<polygon fill="none" stroke="black" points="737.5,-304.5 737.5,-323.5 870.5,-323.5 870.5,-304.5 737.5,-304.5"/>
<text text-anchor="middle" x="804" y="-311.5" font-family="Helvetica,sans-Serif" font-size="10.00">ITSBase/GeometryTGeo.h</text>
</a>
</g>
</g>
<!-- Node1&#45;&gt;Node3 -->
<g id="edge2" class="edge"><title>Node1&#45;&gt;Node3</title>
<path fill="none" stroke="midnightblue" d="M788.18,-496.512C792.26,-449.7 799.186,-370.234 802.343,-334.01"/>
<polygon fill="midnightblue" stroke="midnightblue" points="805.846,-334.131 803.227,-323.865 798.872,-333.523 805.846,-334.131"/>
</g>
<!-- Node37 -->
<g id="node37" class="node"><title>Node37</title>
<g id="a_node37"><a xlink:href="../../d6/d0c/CookedTracker_8h.html" target="_top" xlink:title="Definition of the &quot;Cooked Matrix&quot; ITS tracker. ">
<polygon fill="none" stroke="black" points="813.5,-429 813.5,-459 948.5,-459 948.5,-429 813.5,-429"/>
<text text-anchor="start" x="821.5" y="-447" font-family="Helvetica,sans-Serif" font-size="10.00">ITSReconstruction/Cooked</text>
<text text-anchor="middle" x="881" y="-436" font-family="Helvetica,sans-Serif" font-size="10.00">Tracker.h</text>
</a>
</g>
</g>
<!-- Node1&#45;&gt;Node37 -->
<g id="edge51" class="edge"><title>Node1&#45;&gt;Node37</title>
<path fill="none" stroke="midnightblue" d="M824.324,-496.953C835.764,-486.466 847.885,-475.356 857.968,-466.113"/>
<polygon fill="midnightblue" stroke="midnightblue" points="860.559,-468.485 865.566,-459.148 855.829,-463.325 860.559,-468.485"/>
</g>
<!-- Node4 -->
<g id="node4" class="node"><title>Node4</title>
<polygon fill="none" stroke="#bfbfbf" points="79,-136.5 79,-155.5 123,-155.5 123,-136.5 79,-136.5"/>
<text text-anchor="middle" x="101" y="-143.5" font-family="Helvetica,sans-Serif" font-size="10.00">vector</text>
</g>
<!-- Node3&#45;&gt;Node4 -->
<g id="edge3" class="edge"><title>Node3&#45;&gt;Node4</title>
<path fill="none" stroke="midnightblue" d="M737.343,-310.688C587.258,-304.28 228.483,-281.877 133,-212 117.808,-200.882 109.442,-180.546 105.113,-165.571"/>
<polygon fill="midnightblue" stroke="midnightblue" points="108.491,-164.652 102.635,-155.823 101.707,-166.377 108.491,-164.652"/>
</g>
<!-- Node5 -->
<g id="node5" class="node"><title>Node5</title>
<polygon fill="none" stroke="#bfbfbf" points="979,-6.5 979,-25.5 1017,-25.5 1017,-6.5 979,-6.5"/>
<text text-anchor="middle" x="998" y="-13.5" font-family="Helvetica,sans-Serif" font-size="10.00">array</text>
</g>
<!-- Node3&#45;&gt;Node5 -->
<g id="edge4" class="edge"><title>Node3&#45;&gt;Node5</title>
<path fill="none" stroke="midnightblue" d="M737.334,-313.837C627.256,-313.905 401.147,-308.474 215,-268 133.11,-250.195 38,-286.803 38,-203 38,-203 38,-203 38,-145 38,-48.641 807.742,-22.2173 968.709,-17.7451"/>
<polygon fill="midnightblue" stroke="midnightblue" points="968.922,-21.2407 978.824,-17.471 968.732,-14.2433 968.922,-21.2407"/>
</g>
<!-- Node6 -->
<g id="node6" class="node"><title>Node6</title>
<polygon fill="none" stroke="#bfbfbf" points="796.5,-192.5 796.5,-211.5 837.5,-211.5 837.5,-192.5 796.5,-192.5"/>
<text text-anchor="middle" x="817" y="-199.5" font-family="Helvetica,sans-Serif" font-size="10.00">string</text>
</g>
<!-- Node3&#45;&gt;Node6 -->
<g id="edge5" class="edge"><title>Node3&#45;&gt;Node6</title>
<path fill="none" stroke="midnightblue" d="M794.243,-304.357C781.631,-292.078 762.265,-268.765 771,-248 776.026,-236.053 785.944,-225.692 795.287,-217.934"/>
<polygon fill="midnightblue" stroke="midnightblue" points="797.439,-220.694 803.213,-211.811 793.16,-215.155 797.439,-220.694"/>
</g>
<!-- Node7 -->
<g id="node7" class="node"><title>Node7</title>
<polygon fill="none" stroke="#bfbfbf" points="1138,-74.5 1138,-93.5 1214,-93.5 1214,-74.5 1138,-74.5"/>
<text text-anchor="middle" x="1176" y="-81.5" font-family="Helvetica,sans-Serif" font-size="10.00">TGeoMatrix.h</text>
</g>
<!-- Node3&#45;&gt;Node7 -->
<g id="edge6" class="edge"><title>Node3&#45;&gt;Node7</title>
<path fill="none" stroke="midnightblue" d="M870.511,-309.707C928.064,-305.122 1012.7,-294.166 1082,-268 1157.52,-239.482 1194.79,-230.861 1225,-156 1233.54,-134.83 1214.54,-113.698 1197.77,-100.065"/>
<polygon fill="midnightblue" stroke="midnightblue" points="1199.43,-96.9335 1189.36,-93.6587 1195.19,-102.502 1199.43,-96.9335"/>
</g>
<!-- Node8 -->
<g id="node8" class="node"><title>Node8</title>
<polygon fill="none" stroke="#bfbfbf" points="719.5,-192.5 719.5,-211.5 778.5,-211.5 778.5,-192.5 719.5,-192.5"/>
<text text-anchor="middle" x="749" y="-199.5" font-family="Helvetica,sans-Serif" font-size="10.00">TObject.h</text>
</g>
<!-- Node3&#45;&gt;Node8 -->
<g id="edge7" class="edge"><title>Node3&#45;&gt;Node8</title>
<path fill="none" stroke="midnightblue" d="M793.883,-304.397C784.699,-296.029 771.482,-282.488 764,-268 756.527,-253.53 752.738,-235.343 750.84,-221.89"/>
<polygon fill="midnightblue" stroke="midnightblue" points="754.307,-221.405 749.652,-211.888 747.356,-222.231 754.307,-221.405"/>
</g>
<!-- Node9 -->
<g id="node9" class="node"><title>Node9</title>
<g id="a_node9"><a xlink:href="../../d6/d31/DetID_8h.html" target="_top" xlink:title="DetectorsBase/DetID.h">
<polygon fill="none" stroke="black" points="850.5,-136.5 850.5,-155.5 969.5,-155.5 969.5,-136.5 850.5,-136.5"/>
<text text-anchor="middle" x="910" y="-143.5" font-family="Helvetica,sans-Serif" font-size="10.00">DetectorsBase/DetID.h</text>
</a>
</g>
</g>
<!-- Node3&#45;&gt;Node9 -->
<g id="edge8" class="edge"><title>Node3&#45;&gt;Node9</title>
<path fill="none" stroke="midnightblue" d="M870.737,-307.628C897.032,-301.854 924.776,-290.406 941,-268 964.006,-236.228 939.022,-188.942 922.381,-163.931"/>
<polygon fill="midnightblue" stroke="midnightblue" points="925.111,-161.727 916.529,-155.514 919.364,-165.723 925.111,-161.727"/>
</g>
<!-- Node12 -->
<g id="node12" class="node"><title>Node12</title>
<polygon fill="none" stroke="#bfbfbf" points="1026,-74.5 1026,-93.5 1082,-93.5 1082,-74.5 1026,-74.5"/>
<text text-anchor="middle" x="1054" y="-81.5" font-family="Helvetica,sans-Serif" font-size="10.00">Rtypes.h</text>
</g>
<!-- Node3&#45;&gt;Node12 -->
<g id="edge50" class="edge"><title>Node3&#45;&gt;Node12</title>
<path fill="none" stroke="midnightblue" d="M863.921,-304.444C954.414,-290.158 1119.12,-258.371 1154,-212 1185.55,-170.061 1117.64,-121.624 1078.75,-98.5622"/>
<polygon fill="midnightblue" stroke="midnightblue" points="1080.43,-95.4916 1070.02,-93.5215 1076.93,-101.553 1080.43,-95.4916"/>
</g>
<!-- Node13 -->
<g id="node13" class="node"><title>Node13</title>
<g id="a_node13"><a xlink:href="../../d9/ded/Utils_8h.html" target="_top" xlink:title="DetectorsBase/Utils.h">
<polygon fill="none" stroke="black" points="2258.5,-74.5 2258.5,-93.5 2371.5,-93.5 2371.5,-74.5 2258.5,-74.5"/>
<text text-anchor="middle" x="2315" y="-81.5" font-family="Helvetica,sans-Serif" font-size="10.00">DetectorsBase/Utils.h</text>
</a>
</g>
</g>
<!-- Node3&#45;&gt;Node13 -->
<g id="edge18" class="edge"><title>Node3&#45;&gt;Node13</title>
<path fill="none" stroke="midnightblue" d="M870.572,-312.234C1055.68,-309.709 1567.43,-299.893 1636,-268 1708.98,-234.055 1687.35,-170.653 1760,-136 1858.35,-89.0908 2141.24,-116.119 2249,-100 2256.51,-98.8759 2264.44,-97.3627 2272.1,-95.7285"/>
<polygon fill="midnightblue" stroke="midnightblue" points="2272.95,-99.1253 2281.95,-93.5333 2271.42,-92.293 2272.95,-99.1253"/>
</g>
<!-- Node17 -->
<g id="node17" class="node"><title>Node17</title>
<g id="a_node17"><a xlink:href="../../db/dcc/Detectors_2Base_2include_2DetectorsBase_2GeometryManager_8h.html" target="_top" xlink:title="DetectorsBase/GeometryManager.h">
<polygon fill="none" stroke="black" points="511.5,-248.5 511.5,-267.5 684.5,-267.5 684.5,-248.5 511.5,-248.5"/>
<text text-anchor="middle" x="598" y="-255.5" font-family="Helvetica,sans-Serif" font-size="10.00">DetectorsBase/GeometryManager.h</text>
</a>
</g>
</g>
<!-- Node3&#45;&gt;Node17 -->
<g id="edge19" class="edge"><title>Node3&#45;&gt;Node17</title>
<path fill="none" stroke="midnightblue" d="M771.359,-304.444C735.95,-295.162 679.291,-280.309 640.447,-270.127"/>
<polygon fill="midnightblue" stroke="midnightblue" points="641.049,-266.667 630.489,-267.516 639.274,-273.438 641.049,-266.667"/>
</g>
<!-- Node34 -->
<g id="node34" class="node"><title>Node34</title>
<g id="a_node34"><a xlink:href="../../d0/d2d/common_2base_2include_2ITSMFTBase_2GeometryTGeo_8h.html" target="_top" xlink:title="ITSMFTBase/GeometryTGeo.h">
<polygon fill="none" stroke="black" points="779.5,-248.5 779.5,-267.5 932.5,-267.5 932.5,-248.5 779.5,-248.5"/>
<text text-anchor="middle" x="856" y="-255.5" font-family="Helvetica,sans-Serif" font-size="10.00">ITSMFTBase/GeometryTGeo.h</text>
</a>
</g>
</g>
<!-- Node3&#45;&gt;Node34 -->
<g id="edge40" class="edge"><title>Node3&#45;&gt;Node34</title>
<path fill="none" stroke="midnightblue" d="M812.587,-304.083C820.159,-296.22 831.378,-284.569 840.514,-275.081"/>
<polygon fill="midnightblue" stroke="midnightblue" points="843.158,-277.382 847.573,-267.751 838.115,-272.527 843.158,-277.382"/>
</g>
<!-- Node9&#45;&gt;Node5 -->
<g id="edge10" class="edge"><title>Node9&#45;&gt;Node5</title>
<path fill="none" stroke="midnightblue" d="M882.718,-136.453C865.706,-129.548 845.175,-117.971 835,-100 827.993,-87.6238 826.578,-79.4602 835,-68 865.685,-26.2471 930.43,-17.7324 968.437,-16.5334"/>
<polygon fill="midnightblue" stroke="midnightblue" points="968.91,-20.0264 978.853,-16.3673 968.798,-13.0273 968.91,-20.0264"/>
</g>
<!-- Node10 -->
<g id="node10" class="node"><title>Node10</title>
<polygon fill="none" stroke="#bfbfbf" points="844,-74.5 844,-93.5 890,-93.5 890,-74.5 844,-74.5"/>
<text text-anchor="middle" x="867" y="-81.5" font-family="Helvetica,sans-Serif" font-size="10.00">cstdint</text>
</g>
<!-- Node9&#45;&gt;Node10 -->
<g id="edge9" class="edge"><title>Node9&#45;&gt;Node10</title>
<path fill="none" stroke="midnightblue" d="M903.839,-136.403C897.389,-127.403 887.096,-113.041 879.027,-101.782"/>
<polygon fill="midnightblue" stroke="midnightblue" points="881.82,-99.6699 873.149,-93.5806 876.13,-103.748 881.82,-99.6699"/>
</g>
<!-- Node11 -->
<g id="node11" class="node"><title>Node11</title>
<polygon fill="none" stroke="#bfbfbf" points="908,-74.5 908,-93.5 970,-93.5 970,-74.5 908,-74.5"/>
<text text-anchor="middle" x="939" y="-81.5" font-family="Helvetica,sans-Serif" font-size="10.00">type_traits</text>
</g>
<!-- Node9&#45;&gt;Node11 -->
<g id="edge11" class="edge"><title>Node9&#45;&gt;Node11</title>
<path fill="none" stroke="midnightblue" d="M914.155,-136.403C918.376,-127.671 925.037,-113.889 930.4,-102.794"/>
<polygon fill="midnightblue" stroke="midnightblue" points="933.652,-104.107 934.853,-93.5806 927.35,-101.061 933.652,-104.107"/>
</g>
<!-- Node9&#45;&gt;Node12 -->
<g id="edge12" class="edge"><title>Node9&#45;&gt;Node12</title>
<path fill="none" stroke="midnightblue" d="M930.632,-136.403C955.119,-126.2 996.147,-109.105 1024.11,-97.4544"/>
<polygon fill="midnightblue" stroke="midnightblue" points="1025.52,-100.658 1033.41,-93.5806 1022.83,-94.196 1025.52,-100.658"/>
</g>
<!-- Node9&#45;&gt;Node13 -->
<g id="edge13" class="edge"><title>Node9&#45;&gt;Node13</title>
<path fill="none" stroke="midnightblue" d="M969.853,-143.659C1213.18,-138.114 2121.33,-116.501 2249,-100 2256.87,-98.9833 2265.17,-97.4599 2273.14,-95.7677"/>
<polygon fill="midnightblue" stroke="midnightblue" points="2274,-99.1618 2282.99,-93.5594 2272.47,-92.3313 2274,-99.1618"/>
</g>
<!-- Node16 -->
<g id="node16" class="node"><title>Node16</title>
<polygon fill="none" stroke="#bfbfbf" points="738.5,-74.5 738.5,-93.5 787.5,-93.5 787.5,-74.5 738.5,-74.5"/>
<text text-anchor="middle" x="763" y="-81.5" font-family="Helvetica,sans-Serif" font-size="10.00">cassert</text>
</g>
<!-- Node9&#45;&gt;Node16 -->
<g id="edge17" class="edge"><title>Node9&#45;&gt;Node16</title>
<path fill="none" stroke="midnightblue" d="M888.938,-136.403C863.941,-126.2 822.058,-109.105 793.513,-97.4544"/>
<polygon fill="midnightblue" stroke="midnightblue" points="794.604,-94.1192 784.022,-93.5806 791.958,-100.6 794.604,-94.1192"/>
</g>
<!-- Node13&#45;&gt;Node5 -->
<g id="edge16" class="edge"><title>Node13&#45;&gt;Node5</title>
<path fill="none" stroke="midnightblue" d="M2282.99,-74.4278C2272.27,-71.9032 2260.19,-69.4351 2249,-68 1747.52,-3.68005 1615.92,-73.0285 1112,-32 1083.14,-29.6506 1050.39,-25.1489 1027.42,-21.6876"/>
<polygon fill="midnightblue" stroke="midnightblue" points="1027.72,-18.1915 1017.3,-20.1341 1026.66,-25.1105 1027.72,-18.1915"/>
</g>
<!-- Node14 -->
<g id="node14" class="node"><title>Node14</title>
<g id="a_node14"><a xlink:href="../../d1/daa/Base_2include_2DetectorsBase_2Constants_8h.html" target="_top" xlink:title="DetectorsBase/Constants.h">
<polygon fill="none" stroke="black" points="2267,-6.5 2267,-25.5 2405,-25.5 2405,-6.5 2267,-6.5"/>
<text text-anchor="middle" x="2336" y="-13.5" font-family="Helvetica,sans-Serif" font-size="10.00">DetectorsBase/Constants.h</text>
</a>
</g>
</g>
<!-- Node13&#45;&gt;Node14 -->
<g id="edge14" class="edge"><title>Node13&#45;&gt;Node14</title>
<path fill="none" stroke="midnightblue" d="M2317.75,-74.3717C2320.87,-64.5443 2326.07,-48.2018 2330.12,-35.4673"/>
<polygon fill="midnightblue" stroke="midnightblue" points="2333.49,-36.4316 2333.19,-25.8411 2326.82,-34.3091 2333.49,-36.4316"/>
</g>
<!-- Node15 -->
<g id="node15" class="node"><title>Node15</title>
<polygon fill="none" stroke="#bfbfbf" points="2466,-6.5 2466,-25.5 2510,-25.5 2510,-6.5 2466,-6.5"/>
<text text-anchor="middle" x="2488" y="-13.5" font-family="Helvetica,sans-Serif" font-size="10.00">cmath</text>
</g>
<!-- Node13&#45;&gt;Node15 -->
<g id="edge15" class="edge"><title>Node13&#45;&gt;Node15</title>
<path fill="none" stroke="midnightblue" d="M2337.62,-74.3717C2367.96,-62.7956 2422,-42.1794 2456.36,-29.069"/>
<polygon fill="midnightblue" stroke="midnightblue" points="2457.83,-32.2564 2465.92,-25.4218 2455.33,-25.7162 2457.83,-32.2564"/>
</g>
<!-- Node17&#45;&gt;Node8 -->
<g id="edge25" class="edge"><title>Node17&#45;&gt;Node8</title>
<path fill="none" stroke="midnightblue" d="M621.926,-248.444C647.219,-239.399 687.302,-225.064 715.68,-214.916"/>
<polygon fill="midnightblue" stroke="midnightblue" points="716.948,-218.179 725.186,-211.516 714.591,-211.588 716.948,-218.179"/>
</g>
<!-- Node17&#45;&gt;Node9 -->
<g id="edge26" class="edge"><title>Node17&#45;&gt;Node9</title>
<path fill="none" stroke="midnightblue" d="M612.861,-248.294C642.34,-231.047 705.835,-194.016 711,-192 752.799,-175.682 801.959,-164.495 840.96,-157.356"/>
<polygon fill="midnightblue" stroke="midnightblue" points="841.929,-160.739 851.159,-155.538 840.7,-153.847 841.929,-160.739"/>
</g>
<!-- Node18 -->
<g id="node18" class="node"><title>Node18</title>
<polygon fill="none" stroke="#bfbfbf" points="142,-192.5 142,-211.5 228,-211.5 228,-192.5 142,-192.5"/>
<text text-anchor="middle" x="185" y="-199.5" font-family="Helvetica,sans-Serif" font-size="10.00">TGeoManager.h</text>
</g>
<!-- Node17&#45;&gt;Node18 -->
<g id="edge20" class="edge"><title>Node17&#45;&gt;Node18</title>
<path fill="none" stroke="midnightblue" d="M521.096,-248.483C450.199,-240.386 341.8,-227.389 238.122,-212.108"/>
<polygon fill="midnightblue" stroke="midnightblue" points="238.51,-208.628 228.105,-210.622 237.483,-215.552 238.51,-208.628"/>
</g>
<!-- Node19 -->
<g id="node19" class="node"><title>Node19</title>
<polygon fill="none" stroke="#bfbfbf" points="246.5,-192.5 246.5,-211.5 329.5,-211.5 329.5,-192.5 246.5,-192.5"/>
<text text-anchor="middle" x="288" y="-199.5" font-family="Helvetica,sans-Serif" font-size="10.00">TGeoMaterial.h</text>
</g>
<!-- Node17&#45;&gt;Node19 -->
<g id="edge21" class="edge"><title>Node17&#45;&gt;Node19</title>
<path fill="none" stroke="midnightblue" d="M548.823,-248.496C498.857,-239.846 418.942,-225.987 339.884,-212.151"/>
<polygon fill="midnightblue" stroke="midnightblue" points="340.201,-208.653 329.747,-210.376 338.994,-215.549 340.201,-208.653"/>
</g>
<!-- Node20 -->
<g id="node20" class="node"><title>Node20</title>
<polygon fill="none" stroke="#bfbfbf" points="348,-192.5 348,-211.5 458,-211.5 458,-192.5 348,-192.5"/>
<text text-anchor="middle" x="403" y="-199.5" font-family="Helvetica,sans-Serif" font-size="10.00">TGeoPhysicalNode.h</text>
</g>
<!-- Node17&#45;&gt;Node20 -->
<g id="edge22" class="edge"><title>Node17&#45;&gt;Node20</title>
<path fill="none" stroke="midnightblue" d="M567.102,-248.444C533.726,-239.201 480.406,-224.436 443.651,-214.257"/>
<polygon fill="midnightblue" stroke="midnightblue" points="444.325,-210.812 433.754,-211.516 442.457,-217.558 444.325,-210.812"/>
</g>
<!-- Node21 -->
<g id="node21" class="node"><title>Node21</title>
<polygon fill="none" stroke="#bfbfbf" points="476.5,-192.5 476.5,-211.5 553.5,-211.5 553.5,-192.5 476.5,-192.5"/>
<text text-anchor="middle" x="515" y="-199.5" font-family="Helvetica,sans-Serif" font-size="10.00">TGeoShape.h</text>
</g>
<!-- Node17&#45;&gt;Node21 -->
<g id="edge23" class="edge"><title>Node17&#45;&gt;Node21</title>
<path fill="none" stroke="midnightblue" d="M584.665,-248.324C571.838,-239.979 552.215,-227.212 537.06,-217.352"/>
<polygon fill="midnightblue" stroke="midnightblue" points="538.593,-214.174 528.302,-211.655 534.776,-220.042 538.593,-214.174"/>
</g>
<!-- Node22 -->
<g id="node22" class="node"><title>Node22</title>
<polygon fill="none" stroke="#bfbfbf" points="571.5,-192.5 571.5,-211.5 624.5,-211.5 624.5,-192.5 571.5,-192.5"/>
<text text-anchor="middle" x="598" y="-199.5" font-family="Helvetica,sans-Serif" font-size="10.00">TMath.h</text>
</g>
<!-- Node17&#45;&gt;Node22 -->
<g id="edge24" class="edge"><title>Node17&#45;&gt;Node22</title>
<path fill="none" stroke="midnightblue" d="M598,-248.083C598,-241.006 598,-230.861 598,-221.986"/>
<polygon fill="midnightblue" stroke="midnightblue" points="601.5,-221.751 598,-211.751 594.5,-221.751 601.5,-221.751"/>
</g>
<!-- Node23 -->
<g id="node23" class="node"><title>Node23</title>
<polygon fill="none" stroke="#bfbfbf" points="689.5,-136.5 689.5,-155.5 760.5,-155.5 760.5,-136.5 689.5,-136.5"/>
<text text-anchor="middle" x="725" y="-143.5" font-family="Helvetica,sans-Serif" font-size="10.00">FairLogger.h</text>
</g>
<!-- Node17&#45;&gt;Node23 -->
<g id="edge27" class="edge"><title>Node17&#45;&gt;Node23</title>
<path fill="none" stroke="midnightblue" d="M607.965,-248.368C629.388,-229.814 680.073,-185.913 707.177,-162.438"/>
<polygon fill="midnightblue" stroke="midnightblue" points="709.813,-164.784 715.081,-155.591 705.23,-159.493 709.813,-164.784"/>
</g>
<!-- Node24 -->
<g id="node24" class="node"><title>Node24</title>
<g id="a_node24"><a xlink:href="../../dd/d76/Cartesian3D_8h.html" target="_top" xlink:title="MathUtils/Cartesian3D.h">
<polygon fill="none" stroke="black" points="1372.5,-136.5 1372.5,-155.5 1497.5,-155.5 1497.5,-136.5 1372.5,-136.5"/>
<text text-anchor="middle" x="1435" y="-143.5" font-family="Helvetica,sans-Serif" font-size="10.00">MathUtils/Cartesian3D.h</text>
</a>
</g>
</g>
<!-- Node17&#45;&gt;Node24 -->
<g id="edge28" class="edge"><title>Node17&#45;&gt;Node24</title>
<path fill="none" stroke="midnightblue" d="M684.581,-251.55C817.584,-242.913 1066.02,-225.661 1154,-212 1240.69,-198.539 1340.34,-173.057 1394.61,-158.314"/>
<polygon fill="midnightblue" stroke="midnightblue" points="1395.79,-161.617 1404.52,-155.603 1393.95,-154.865 1395.79,-161.617"/>
</g>
<!-- Node24&#45;&gt;Node7 -->
<g id="edge33" class="edge"><title>Node24&#45;&gt;Node7</title>
<path fill="none" stroke="midnightblue" d="M1389.02,-136.471C1346.09,-128.205 1280.34,-114.776 1224,-100 1219.91,-98.9285 1215.66,-97.7263 1211.44,-96.4811"/>
<polygon fill="midnightblue" stroke="midnightblue" points="1212.37,-93.1033 1201.78,-93.5389 1210.33,-99.7998 1212.37,-93.1033"/>
</g>
<!-- Node24&#45;&gt;Node12 -->
<g id="edge32" class="edge"><title>Node24&#45;&gt;Node12</title>
<path fill="none" stroke="midnightblue" d="M1372.43,-136.757C1310.48,-128.37 1212.99,-114.565 1129,-100 1116.96,-97.9118 1103.88,-95.3862 1092.07,-93.0077"/>
<polygon fill="midnightblue" stroke="midnightblue" points="1092.57,-89.5379 1082.07,-90.97 1091.17,-96.3969 1092.57,-89.5379"/>
</g>
<!-- Node25 -->
<g id="node25" class="node"><title>Node25</title>
<polygon fill="none" stroke="#bfbfbf" points="1738.5,-74.5 1738.5,-93.5 1887.5,-93.5 1887.5,-74.5 1738.5,-74.5"/>
<text text-anchor="middle" x="1813" y="-81.5" font-family="Helvetica,sans-Serif" font-size="10.00">Math/GenVector/Rotation3D.h</text>
</g>
<!-- Node24&#45;&gt;Node25 -->
<g id="edge29" class="edge"><title>Node24&#45;&gt;Node25</title>
<path fill="none" stroke="midnightblue" d="M1493.64,-136.462C1553.03,-127.713 1647.49,-113.513 1729,-100 1737.91,-98.5231 1747.34,-96.8992 1756.53,-95.2819"/>
<polygon fill="midnightblue" stroke="midnightblue" points="1757.15,-98.7276 1766.38,-93.5369 1755.93,-91.8349 1757.15,-98.7276"/>
</g>
<!-- Node26 -->
<g id="node26" class="node"><title>Node26</title>
<polygon fill="none" stroke="#bfbfbf" points="1906,-74.5 1906,-93.5 2062,-93.5 2062,-74.5 1906,-74.5"/>
<text text-anchor="middle" x="1984" y="-81.5" font-family="Helvetica,sans-Serif" font-size="10.00">Math/GenVector/Transform3D.h</text>
</g>
<!-- Node24&#45;&gt;Node26 -->
<g id="edge30" class="edge"><title>Node24&#45;&gt;Node26</title>
<path fill="none" stroke="midnightblue" d="M1497.8,-140.302C1586.67,-133.328 1754.13,-118.991 1896,-100 1906.24,-98.6287 1917.12,-96.954 1927.61,-95.227"/>
<polygon fill="midnightblue" stroke="midnightblue" points="1928.23,-98.672 1937.51,-93.5633 1927.07,-91.7688 1928.23,-98.672"/>
</g>
<!-- Node27 -->
<g id="node27" class="node"><title>Node27</title>
<polygon fill="none" stroke="#bfbfbf" points="2080,-74.5 2080,-93.5 2240,-93.5 2240,-74.5 2080,-74.5"/>
<text text-anchor="middle" x="2160" y="-81.5" font-family="Helvetica,sans-Serif" font-size="10.00">Math/GenVector/Translation3D.h</text>
</g>
<!-- Node24&#45;&gt;Node27 -->
<g id="edge31" class="edge"><title>Node24&#45;&gt;Node27</title>
<path fill="none" stroke="midnightblue" d="M1497.93,-142.559C1612.33,-137.675 1861.89,-124.96 2071,-100 2081.84,-98.7061 2093.37,-97.0054 2104.42,-95.2152"/>
<polygon fill="midnightblue" stroke="midnightblue" points="2105.1,-98.6499 2114.39,-93.5551 2103.95,-91.7449 2105.1,-98.6499"/>
</g>
<!-- Node28 -->
<g id="node28" class="node"><title>Node28</title>
<polygon fill="none" stroke="#bfbfbf" points="1375.5,-69 1375.5,-99 1526.5,-99 1526.5,-69 1375.5,-69"/>
<text text-anchor="start" x="1383.5" y="-87" font-family="Helvetica,sans-Serif" font-size="10.00">Math/GenVector/Displacement</text>
<text text-anchor="middle" x="1451" y="-76" font-family="Helvetica,sans-Serif" font-size="10.00">Vector3D.h</text>
</g>
<!-- Node24&#45;&gt;Node28 -->
<g id="edge34" class="edge"><title>Node24&#45;&gt;Node28</title>
<path fill="none" stroke="midnightblue" d="M1437.29,-136.403C1439.2,-129.265 1442,-118.752 1444.58,-109.09"/>
<polygon fill="midnightblue" stroke="midnightblue" points="1448.03,-109.705 1447.23,-99.1408 1441.27,-107.901 1448.03,-109.705"/>
</g>
<!-- Node29 -->
<g id="node29" class="node"><title>Node29</title>
<polygon fill="none" stroke="#bfbfbf" points="1545,-74.5 1545,-93.5 1721,-93.5 1721,-74.5 1545,-74.5"/>
<text text-anchor="middle" x="1633" y="-81.5" font-family="Helvetica,sans-Serif" font-size="10.00">Math/GenVector/PositionVector3D.h</text>
</g>
<!-- Node24&#45;&gt;Node29 -->
<g id="edge35" class="edge"><title>Node24&#45;&gt;Node29</title>
<path fill="none" stroke="midnightblue" d="M1463.37,-136.403C1497.92,-125.933 1556.42,-108.205 1594.88,-96.5501"/>
<polygon fill="midnightblue" stroke="midnightblue" points="1596.13,-99.8303 1604.68,-93.5806 1594.1,-93.1311 1596.13,-99.8303"/>
</g>
<!-- Node30 -->
<g id="node30" class="node"><title>Node30</title>
<g id="a_node30"><a xlink:href="../../d2/dd0/Cartesian2D_8h.html" target="_top" xlink:title="MathUtils/Cartesian2D.h">
<polygon fill="none" stroke="black" points="1232.5,-74.5 1232.5,-93.5 1357.5,-93.5 1357.5,-74.5 1232.5,-74.5"/>
<text text-anchor="middle" x="1295" y="-81.5" font-family="Helvetica,sans-Serif" font-size="10.00">MathUtils/Cartesian2D.h</text>
</a>
</g>
</g>
<!-- Node24&#45;&gt;Node30 -->
<g id="edge36" class="edge"><title>Node24&#45;&gt;Node30</title>
<path fill="none" stroke="midnightblue" d="M1414.94,-136.403C1391.24,-126.245 1351.59,-109.255 1324.42,-97.6074"/>
<polygon fill="midnightblue" stroke="midnightblue" points="1325.59,-94.3028 1315.02,-93.5806 1322.83,-100.737 1325.59,-94.3028"/>
</g>
<!-- Node33 -->
<g id="node33" class="node"><title>Node33</title>
<polygon fill="none" stroke="#bfbfbf" points="2390,-74.5 2390,-93.5 2444,-93.5 2444,-74.5 2390,-74.5"/>
<text text-anchor="middle" x="2417" y="-81.5" font-family="Helvetica,sans-Serif" font-size="10.00">iostream</text>
</g>
<!-- Node24&#45;&gt;Node33 -->
<g id="edge39" class="edge"><title>Node24&#45;&gt;Node33</title>
<path fill="none" stroke="midnightblue" d="M1497.7,-142.595C1701.87,-134.687 2336.96,-109.46 2380,-100 2383.25,-99.2857 2386.58,-98.312 2389.85,-97.2011"/>
<polygon fill="midnightblue" stroke="midnightblue" points="2391.23,-100.42 2399.32,-93.5798 2388.73,-93.8814 2391.23,-100.42"/>
</g>
<!-- Node31 -->
<g id="node31" class="node"><title>Node31</title>
<polygon fill="none" stroke="#bfbfbf" points="1315.5,-1 1315.5,-31 1466.5,-31 1466.5,-1 1315.5,-1"/>
<text text-anchor="start" x="1323.5" y="-19" font-family="Helvetica,sans-Serif" font-size="10.00">Math/GenVector/Displacement</text>
<text text-anchor="middle" x="1391" y="-8" font-family="Helvetica,sans-Serif" font-size="10.00">Vector2D.h</text>
</g>
<!-- Node30&#45;&gt;Node31 -->
<g id="edge37" class="edge"><title>Node30&#45;&gt;Node31</title>
<path fill="none" stroke="midnightblue" d="M1307.55,-74.3717C1321.26,-64.9429 1343.7,-49.5167 1361.86,-37.0338"/>
<polygon fill="midnightblue" stroke="midnightblue" points="1364.11,-39.7309 1370.37,-31.1815 1360.15,-33.9626 1364.11,-39.7309"/>
</g>
<!-- Node32 -->
<g id="node32" class="node"><title>Node32</title>
<polygon fill="none" stroke="#bfbfbf" points="1121,-6.5 1121,-25.5 1297,-25.5 1297,-6.5 1121,-6.5"/>
<text text-anchor="middle" x="1209" y="-13.5" font-family="Helvetica,sans-Serif" font-size="10.00">Math/GenVector/PositionVector2D.h</text>
</g>
<!-- Node30&#45;&gt;Node32 -->
<g id="edge38" class="edge"><title>Node30&#45;&gt;Node32</title>
<path fill="none" stroke="midnightblue" d="M1283.76,-74.3717C1269.72,-63.6004 1245.49,-45.0021 1228.42,-31.9065"/>
<polygon fill="midnightblue" stroke="midnightblue" points="1230.31,-28.9421 1220.25,-25.6305 1226.05,-34.4953 1230.31,-28.9421"/>
</g>
<!-- Node34&#45;&gt;Node6 -->
<g id="edge49" class="edge"><title>Node34&#45;&gt;Node6</title>
<path fill="none" stroke="midnightblue" d="M849.56,-248.083C844.051,-240.455 835.969,-229.264 829.235,-219.941"/>
<polygon fill="midnightblue" stroke="midnightblue" points="832.013,-217.809 823.32,-211.751 826.338,-221.907 832.013,-217.809"/>
</g>
<!-- Node35 -->
<g id="node35" class="node"><title>Node35</title>
<g id="a_node35"><a xlink:href="../../d4/d20/DetMatrixCache_8h.html" target="_top" xlink:title="DetectorsBase/DetMatrixCache.h">
<polygon fill="none" stroke="black" points="981,-192.5 981,-211.5 1145,-211.5 1145,-192.5 981,-192.5"/>
<text text-anchor="middle" x="1063" y="-199.5" font-family="Helvetica,sans-Serif" font-size="10.00">DetectorsBase/DetMatrixCache.h</text>
</a>
</g>
</g>
<!-- Node34&#45;&gt;Node35 -->
<g id="edge41" class="edge"><title>Node34&#45;&gt;Node35</title>
<path fill="none" stroke="midnightblue" d="M888.8,-248.444C924.38,-239.162 981.314,-224.309 1020.35,-214.127"/>
<polygon fill="midnightblue" stroke="midnightblue" points="1021.56,-217.427 1030.35,-211.516 1019.79,-210.654 1021.56,-217.427"/>
</g>
<!-- Node36 -->
<g id="node36" class="node"><title>Node36</title>
<polygon fill="none" stroke="#bfbfbf" points="855.5,-192.5 855.5,-211.5 924.5,-211.5 924.5,-192.5 855.5,-192.5"/>
<text text-anchor="middle" x="890" y="-199.5" font-family="Helvetica,sans-Serif" font-size="10.00">TObjArray.h</text>
</g>
<!-- Node34&#45;&gt;Node36 -->
<g id="edge48" class="edge"><title>Node34&#45;&gt;Node36</title>
<path fill="none" stroke="midnightblue" d="M861.614,-248.083C866.367,-240.534 873.318,-229.495 879.152,-220.23"/>
<polygon fill="midnightblue" stroke="midnightblue" points="882.124,-222.078 884.49,-211.751 876.2,-218.349 882.124,-222.078"/>
</g>
<!-- Node35&#45;&gt;Node4 -->
<g id="edge42" class="edge"><title>Node35&#45;&gt;Node4</title>
<path fill="none" stroke="midnightblue" d="M980.835,-195.123C964.966,-194.041 948.468,-192.954 933,-192 621.755,-172.81 244.729,-154.03 133.409,-148.577"/>
<polygon fill="midnightblue" stroke="midnightblue" points="133.343,-145.069 123.184,-148.077 133.001,-152.061 133.343,-145.069"/>
</g>
<!-- Node35&#45;&gt;Node5 -->
<g id="edge43" class="edge"><title>Node35&#45;&gt;Node5</title>
<path fill="none" stroke="midnightblue" d="M1058.32,-192.328C1049.22,-175.153 1028.98,-135.408 1017,-100 1009.76,-78.6106 1004.4,-53.1962 1001.25,-36.1753"/>
<polygon fill="midnightblue" stroke="midnightblue" points="1004.62,-35.1211 999.424,-25.8852 997.723,-36.3425 1004.62,-35.1211"/>
</g>
<!-- Node35&#45;&gt;Node9 -->
<g id="edge45" class="edge"><title>Node35&#45;&gt;Node9</title>
<path fill="none" stroke="midnightblue" d="M1038.76,-192.444C1013.13,-183.399 972.515,-169.064 943.762,-158.916"/>
<polygon fill="midnightblue" stroke="midnightblue" points="944.725,-155.544 934.13,-155.516 942.395,-162.145 944.725,-155.544"/>
</g>
<!-- Node35&#45;&gt;Node12 -->
<g id="edge46" class="edge"><title>Node35&#45;&gt;Node12</title>
<path fill="none" stroke="midnightblue" d="M1062.32,-192.281C1060.87,-173.547 1057.42,-129.098 1055.45,-103.682"/>
<polygon fill="midnightblue" stroke="midnightblue" points="1058.92,-103.204 1054.66,-93.5048 1051.94,-103.746 1058.92,-103.204"/>
</g>
<!-- Node35&#45;&gt;Node23 -->
<g id="edge47" class="edge"><title>Node35&#45;&gt;Node23</title>
<path fill="none" stroke="midnightblue" d="M1009.44,-192.444C943.496,-181.908 832.623,-164.194 770.573,-154.281"/>
<polygon fill="midnightblue" stroke="midnightblue" points="771.107,-150.822 760.68,-152.7 770.002,-157.734 771.107,-150.822"/>
</g>
<!-- Node35&#45;&gt;Node24 -->
<g id="edge44" class="edge"><title>Node35&#45;&gt;Node24</title>
<path fill="none" stroke="midnightblue" d="M1121.94,-192.444C1188.34,-182.806 1296.1,-167.163 1366.26,-156.978"/>
<polygon fill="midnightblue" stroke="midnightblue" points="1366.94,-160.417 1376.33,-155.516 1365.93,-153.489 1366.94,-160.417"/>
</g>
<!-- Node37&#45;&gt;Node3 -->
<g id="edge53" class="edge"><title>Node37&#45;&gt;Node3</title>
<path fill="none" stroke="midnightblue" d="M869.336,-428.739C861.44,-418.762 851.024,-404.954 843,-392 830.96,-372.563 819.418,-348.943 812.057,-333.031"/>
<polygon fill="midnightblue" stroke="midnightblue" points="815.188,-331.461 807.861,-323.808 808.817,-334.36 815.188,-331.461"/>
</g>
<!-- Node37&#45;&gt;Node4 -->
<g id="edge52" class="edge"><title>Node37&#45;&gt;Node4</title>
<path fill="none" stroke="midnightblue" d="M813.332,-434.058C607.035,-406.684 0,-325.264 0,-315 0,-315 0,-315 0,-257 0,-212.593 45.2128,-178.367 75.1375,-160.577"/>
<polygon fill="midnightblue" stroke="midnightblue" points="76.9196,-163.59 83.8667,-155.591 73.4475,-157.512 76.9196,-163.59"/>
</g>
<!-- Node37&#45;&gt;Node24 -->
<g id="edge54" class="edge"><title>Node37&#45;&gt;Node24</title>
<path fill="none" stroke="midnightblue" d="M948.917,-437.579C1073.3,-425.768 1325,-392.315 1325,-315 1325,-315 1325,-315 1325,-257 1325,-210.91 1373.88,-177.387 1406.47,-160.158"/>
<polygon fill="midnightblue" stroke="midnightblue" points="1408.25,-163.181 1415.59,-155.536 1405.09,-156.938 1408.25,-163.181"/>
</g>
<!-- Node38 -->
<g id="node38" class="node"><title>Node38</title>
<g id="a_node38"><a xlink:href="../../d8/ddd/CookedTrack_8h.html" target="_top" xlink:title="Definition of the ITS cooked track. ">
<polygon fill="none" stroke="black" points="851.5,-361 851.5,-391 986.5,-391 986.5,-361 851.5,-361"/>
<text text-anchor="start" x="859.5" y="-379" font-family="Helvetica,sans-Serif" font-size="10.00">ITSReconstruction/Cooked</text>
<text text-anchor="middle" x="919" y="-368" font-family="Helvetica,sans-Serif" font-size="10.00">Track.h</text>
</a>
</g>
</g>
<!-- Node37&#45;&gt;Node38 -->
<g id="edge55" class="edge"><title>Node37&#45;&gt;Node38</title>
<path fill="none" stroke="midnightblue" d="M889.245,-428.679C894.026,-420.376 900.161,-409.721 905.616,-400.245"/>
<polygon fill="midnightblue" stroke="midnightblue" points="908.814,-401.706 910.771,-391.293 902.748,-398.213 908.814,-401.706"/>
</g>
<!-- Node38&#45;&gt;Node4 -->
<g id="edge56" class="edge"><title>Node38&#45;&gt;Node4</title>
<path fill="none" stroke="midnightblue" d="M851.292,-368.583C682.024,-351.37 245.943,-299.457 133,-212 118.26,-200.586 109.861,-180.6 105.402,-165.794"/>
<polygon fill="midnightblue" stroke="midnightblue" points="108.673,-164.474 102.72,-155.709 101.908,-166.273 108.673,-164.474"/>
</g>
<!-- Node39 -->
<g id="node39" class="node"><title>Node39</title>
<g id="a_node39"><a xlink:href="../../d7/d65/Detectors_2Base_2include_2DetectorsBase_2Track_8h.html" target="_top" xlink:title="DetectorsBase/Track.h">
<polygon fill="none" stroke="black" points="1762,-304.5 1762,-323.5 1880,-323.5 1880,-304.5 1762,-304.5"/>
<text text-anchor="middle" x="1821" y="-311.5" font-family="Helvetica,sans-Serif" font-size="10.00">DetectorsBase/Track.h</text>
</a>
</g>
</g>
<!-- Node38&#45;&gt;Node39 -->
<g id="edge57" class="edge"><title>Node38&#45;&gt;Node39</title>
<path fill="none" stroke="midnightblue" d="M986.797,-370.49C1153.82,-359.38 1583.74,-330.782 1752.01,-319.589"/>
<polygon fill="midnightblue" stroke="midnightblue" points="1752.25,-323.081 1761.99,-318.925 1751.78,-316.097 1752.25,-323.081"/>
</g>
<!-- Node39&#45;&gt;Node5 -->
<g id="edge60" class="edge"><title>Node39&#45;&gt;Node5</title>
<path fill="none" stroke="midnightblue" d="M1761.81,-312.246C1687.78,-309.849 1557.88,-300.807 1452,-268 1297.44,-220.106 1264.05,-189.133 1129,-100 1110.29,-87.6494 1108.55,-80.598 1090,-68 1068.9,-53.6698 1043.44,-39.7969 1024.66,-30.1471"/>
<polygon fill="midnightblue" stroke="midnightblue" points="1026.01,-26.9058 1015.51,-25.5058 1022.84,-33.1493 1026.01,-26.9058"/>
</g>
<!-- Node39&#45;&gt;Node12 -->
<g id="edge58" class="edge"><title>Node39&#45;&gt;Node12</title>
<path fill="none" stroke="midnightblue" d="M1761.62,-310.997C1652.28,-306.709 1423.46,-294.765 1349,-268 1250.51,-232.6 1244.12,-189.209 1154,-136 1130.1,-121.887 1101.83,-107.69 1081.46,-97.8715"/>
<polygon fill="midnightblue" stroke="midnightblue" points="1082.96,-94.7074 1072.43,-93.554 1079.94,-101.023 1082.96,-94.7074"/>
</g>
<!-- Node39&#45;&gt;Node13 -->
<g id="edge76" class="edge"><title>Node39&#45;&gt;Node13</title>
<path fill="none" stroke="midnightblue" d="M1808.79,-304.236C1798.65,-296.143 1784.96,-283.112 1779,-268 1757.49,-213.42 1739.13,-179.039 1779,-136 1814.59,-97.577 2197.21,-107.825 2249,-100 2256.51,-98.8648 2264.44,-97.346 2272.1,-95.7099"/>
<polygon fill="midnightblue" stroke="midnightblue" points="2272.95,-99.1066 2281.94,-93.5138 2271.42,-92.2745 2272.95,-99.1066"/>
</g>
<!-- Node39&#45;&gt;Node14 -->
<g id="edge75" class="edge"><title>Node39&#45;&gt;Node14</title>
<path fill="none" stroke="midnightblue" d="M1880.21,-309.195C2040.69,-298.096 2472,-262.711 2472,-203 2472,-203 2472,-203 2472,-145 2472,-109.751 2475.73,-94.9409 2453,-68 2436.5,-48.4391 2411.07,-36.1475 2388.13,-28.5475"/>
<polygon fill="midnightblue" stroke="midnightblue" points="2389.07,-25.1753 2378.48,-25.5701 2387.01,-31.8639 2389.07,-25.1753"/>
</g>
<!-- Node39&#45;&gt;Node15 -->
<g id="edge62" class="edge"><title>Node39&#45;&gt;Node15</title>
<path fill="none" stroke="midnightblue" d="M1880.05,-313.292C1977.54,-312.581 2177.71,-306.062 2342,-268 2419.99,-249.93 2510,-283.06 2510,-203 2510,-203 2510,-203 2510,-145 2510,-105.502 2499.7,-60.1263 2493.19,-35.4103"/>
<polygon fill="midnightblue" stroke="midnightblue" points="2496.53,-34.3323 2490.52,-25.6034 2489.77,-36.1717 2496.53,-34.3323"/>
</g>
<!-- Node39&#45;&gt;Node24 -->
<g id="edge77" class="edge"><title>Node39&#45;&gt;Node24</title>
<path fill="none" stroke="midnightblue" d="M1761.75,-312.895C1673.83,-311.519 1514.6,-303.961 1472,-268 1441.74,-242.457 1435.75,-192.897 1434.85,-165.804"/>
<polygon fill="midnightblue" stroke="midnightblue" points="1438.35,-165.658 1434.73,-155.704 1431.35,-165.747 1438.35,-165.658"/>
</g>
<!-- Node39&#45;&gt;Node33 -->
<g id="edge64" class="edge"><title>Node39&#45;&gt;Node33</title>
<path fill="none" stroke="midnightblue" d="M1816.22,-304.403C1809.44,-290.909 1799.18,-264.586 1812,-248 1971.52,-41.5847 2132.37,-182.069 2380,-100 2382.56,-99.1503 2385.2,-98.2116 2387.84,-97.2309"/>
<polygon fill="midnightblue" stroke="midnightblue" points="2389.16,-100.472 2397.21,-93.578 2386.62,-93.9503 2389.16,-100.472"/>
</g>
<!-- Node40 -->
<g id="node40" class="node"><title>Node40</title>
<polygon fill="none" stroke="#bfbfbf" points="1821,-248.5 1821,-267.5 1877,-267.5 1877,-248.5 1821,-248.5"/>
<text text-anchor="middle" x="1849" y="-255.5" font-family="Helvetica,sans-Serif" font-size="10.00">algorithm</text>
</g>
<!-- Node39&#45;&gt;Node40 -->
<g id="edge59" class="edge"><title>Node39&#45;&gt;Node40</title>
<path fill="none" stroke="midnightblue" d="M1825.62,-304.083C1829.46,-296.691 1835.02,-285.953 1839.76,-276.811"/>
<polygon fill="midnightblue" stroke="midnightblue" points="1842.97,-278.24 1844.46,-267.751 1836.75,-275.018 1842.97,-278.24"/>
</g>
<!-- Node41 -->
<g id="node41" class="node"><title>Node41</title>
<polygon fill="none" stroke="#bfbfbf" points="1895.5,-248.5 1895.5,-267.5 1936.5,-267.5 1936.5,-248.5 1895.5,-248.5"/>
<text text-anchor="middle" x="1916" y="-255.5" font-family="Helvetica,sans-Serif" font-size="10.00">cfloat</text>
</g>
<!-- Node39&#45;&gt;Node41 -->
<g id="edge61" class="edge"><title>Node39&#45;&gt;Node41</title>
<path fill="none" stroke="midnightblue" d="M1836.26,-304.324C1851.22,-295.822 1874.25,-282.729 1891.73,-272.797"/>
<polygon fill="midnightblue" stroke="midnightblue" points="1893.81,-275.639 1900.77,-267.655 1890.35,-269.553 1893.81,-275.639"/>
</g>
<!-- Node42 -->
<g id="node42" class="node"><title>Node42</title>
<polygon fill="none" stroke="#bfbfbf" points="1955,-248.5 1955,-267.5 2001,-267.5 2001,-248.5 1955,-248.5"/>
<text text-anchor="middle" x="1978" y="-255.5" font-family="Helvetica,sans-Serif" font-size="10.00">cstring</text>
</g>
<!-- Node39&#45;&gt;Node42 -->
<g id="edge63" class="edge"><title>Node39&#45;&gt;Node42</title>
<path fill="none" stroke="midnightblue" d="M1845.88,-304.444C1872.76,-295.199 1915.7,-280.428 1945.29,-270.25"/>
<polygon fill="midnightblue" stroke="midnightblue" points="1946.46,-273.551 1954.77,-266.988 1944.18,-266.931 1946.46,-273.551"/>
</g>
<!-- Node43 -->
<g id="node43" class="node"><title>Node43</title>
<polygon fill="none" stroke="#bfbfbf" points="2019.5,-248.5 2019.5,-267.5 2102.5,-267.5 2102.5,-248.5 2019.5,-248.5"/>
<text text-anchor="middle" x="2061" y="-255.5" font-family="Helvetica,sans-Serif" font-size="10.00">Math/SMatrix.h</text>
</g>
<!-- Node39&#45;&gt;Node43 -->
<g id="edge65" class="edge"><title>Node39&#45;&gt;Node43</title>
<path fill="none" stroke="midnightblue" d="M1859.03,-304.444C1900.81,-295.043 1967.98,-279.929 2013.27,-269.739"/>
<polygon fill="midnightblue" stroke="midnightblue" points="2014.16,-273.126 2023.15,-267.516 2012.62,-266.297 2014.16,-273.126"/>
</g>
<!-- Node44 -->
<g id="node44" class="node"><title>Node44</title>
<polygon fill="none" stroke="#bfbfbf" points="2120.5,-248.5 2120.5,-267.5 2205.5,-267.5 2205.5,-248.5 2120.5,-248.5"/>
<text text-anchor="middle" x="2163" y="-255.5" font-family="Helvetica,sans-Serif" font-size="10.00">Math/SVector.h</text>
</g>
<!-- Node39&#45;&gt;Node44 -->
<g id="edge66" class="edge"><title>Node39&#45;&gt;Node44</title>
<path fill="none" stroke="midnightblue" d="M1877.73,-304.497C1934.05,-295.986 2023.14,-282.343 2110.37,-268.079"/>
<polygon fill="midnightblue" stroke="midnightblue" points="2111.14,-271.5 2120.44,-266.428 2110.01,-264.592 2111.14,-271.5"/>
</g>
<!-- Node45 -->
<g id="node45" class="node"><title>Node45</title>
<g id="a_node45"><a xlink:href="../../d4/de2/BaseCluster_8h.html" target="_top" xlink:title="DetectorsBase/BaseCluster.h">
<polygon fill="none" stroke="black" points="1480.5,-248.5 1480.5,-267.5 1627.5,-267.5 1627.5,-248.5 1480.5,-248.5"/>
<text text-anchor="middle" x="1554" y="-255.5" font-family="Helvetica,sans-Serif" font-size="10.00">DetectorsBase/BaseCluster.h</text>
</a>
</g>
</g>
<!-- Node39&#45;&gt;Node45 -->
<g id="edge67" class="edge"><title>Node39&#45;&gt;Node45</title>
<path fill="none" stroke="midnightblue" d="M1778.69,-304.444C1731.92,-294.984 1656.54,-279.738 1606.15,-269.547"/>
<polygon fill="midnightblue" stroke="midnightblue" points="1606.6,-266.068 1596.11,-267.516 1605.22,-272.929 1606.6,-266.068"/>
</g>
<!-- Node45&#45;&gt;Node8 -->
<g id="edge68" class="edge"><title>Node45&#45;&gt;Node8</title>
<path fill="none" stroke="midnightblue" d="M1480.45,-256.778C1345.22,-255.475 1048.02,-248.448 788.698,-211.826"/>
<polygon fill="midnightblue" stroke="midnightblue" points="789.108,-208.35 778.713,-210.399 788.117,-215.279 789.108,-208.35"/>
</g>
<!-- Node45&#45;&gt;Node24 -->
<g id="edge73" class="edge"><title>Node45&#45;&gt;Node24</title>
<path fill="none" stroke="midnightblue" d="M1537.57,-248.384C1522.85,-240.203 1501.17,-226.956 1485,-212 1469.55,-197.703 1455.26,-178.235 1445.95,-164.34"/>
<polygon fill="midnightblue" stroke="midnightblue" points="1448.74,-162.21 1440.35,-155.743 1442.88,-166.032 1448.74,-162.21"/>
</g>
<!-- Node45&#45;&gt;Node33 -->
<g id="edge72" class="edge"><title>Node45&#45;&gt;Node33</title>
<path fill="none" stroke="midnightblue" d="M1577.02,-248.364C1598.62,-239.973 1631.63,-226.417 1659,-212 1714.86,-182.583 1718.92,-155.39 1779,-136 2033.65,-53.8092 2119.01,-159.047 2380,-100 2383.25,-99.2658 2386.57,-98.2796 2389.84,-97.1617"/>
<polygon fill="midnightblue" stroke="midnightblue" points="2391.23,-100.379 2399.31,-93.5332 2388.72,-93.8424 2391.23,-100.379"/>
</g>
<!-- Node45&#45;&gt;Node35 -->
<g id="edge74" class="edge"><title>Node45&#45;&gt;Node35</title>
<path fill="none" stroke="midnightblue" d="M1480.49,-248.916C1392.34,-239.221 1244.75,-222.988 1150.72,-212.648"/>
<polygon fill="midnightblue" stroke="midnightblue" points="1150.99,-209.156 1140.66,-211.541 1150.22,-216.114 1150.99,-209.156"/>
</g>
<!-- Node46 -->
<g id="node46" class="node"><title>Node46</title>
<polygon fill="none" stroke="#bfbfbf" points="1493.5,-192.5 1493.5,-211.5 1534.5,-211.5 1534.5,-192.5 1493.5,-192.5"/>
<text text-anchor="middle" x="1514" y="-199.5" font-family="Helvetica,sans-Serif" font-size="10.00">bitset</text>
</g>
<!-- Node45&#45;&gt;Node46 -->
<g id="edge69" class="edge"><title>Node45&#45;&gt;Node46</title>
<path fill="none" stroke="midnightblue" d="M1547.39,-248.083C1541.74,-240.455 1533.46,-229.264 1526.55,-219.941"/>
<polygon fill="midnightblue" stroke="midnightblue" points="1529.25,-217.703 1520.48,-211.751 1523.62,-221.87 1529.25,-217.703"/>
</g>
<!-- Node47 -->
<g id="node47" class="node"><title>Node47</title>
<polygon fill="none" stroke="#bfbfbf" points="1553,-192.5 1553,-211.5 1603,-211.5 1603,-192.5 1553,-192.5"/>
<text text-anchor="middle" x="1578" y="-199.5" font-family="Helvetica,sans-Serif" font-size="10.00">iomanip</text>
</g>
<!-- Node45&#45;&gt;Node47 -->
<g id="edge70" class="edge"><title>Node45&#45;&gt;Node47</title>
<path fill="none" stroke="midnightblue" d="M1557.96,-248.083C1561.21,-240.77 1565.92,-230.181 1569.95,-221.103"/>
<polygon fill="midnightblue" stroke="midnightblue" points="1573.25,-222.311 1574.11,-211.751 1566.85,-219.468 1573.25,-222.311"/>
</g>
<!-- Node48 -->
<g id="node48" class="node"><title>Node48</title>
<polygon fill="none" stroke="#bfbfbf" points="1621.5,-192.5 1621.5,-211.5 1650.5,-211.5 1650.5,-192.5 1621.5,-192.5"/>
<text text-anchor="middle" x="1636" y="-199.5" font-family="Helvetica,sans-Serif" font-size="10.00">ios</text>
</g>
<!-- Node45&#45;&gt;Node48 -->
<g id="edge71" class="edge"><title>Node45&#45;&gt;Node48</title>
<path fill="none" stroke="midnightblue" d="M1567.17,-248.324C1579.85,-239.979 1599.23,-227.212 1614.21,-217.352"/>
<polygon fill="midnightblue" stroke="midnightblue" points="1616.43,-220.078 1622.86,-211.655 1612.58,-214.231 1616.43,-220.078"/>
</g>
</g>
</svg>
