<?xml version="1.0" encoding="UTF-8" standalone="no"?>
<!DOCTYPE svg PUBLIC "-//W3C//DTD SVG 1.1//EN"
 "http://www.w3.org/Graphics/SVG/1.1/DTD/svg11.dtd">
<!-- Generated by graphviz version 2.36.0 (20140111.2315)
 -->
<!-- Title: /home/travis/build/AliceO2Group/AliceO2/Detectors/TPC/reconstruction/include/TPCReconstruction/Cluster.h Pages: 1 -->
<svg width="2147pt" height="440pt"
 viewBox="0.00 0.00 2146.80 440.00" xmlns="http://www.w3.org/2000/svg" xmlns:xlink="http://www.w3.org/1999/xlink">
<g id="graph0" class="graph" transform="scale(1 1) rotate(0) translate(4 436)">
<title>/home/travis/build/AliceO2Group/AliceO2/Detectors/TPC/reconstruction/include/TPCReconstruction/Cluster.h</title>
<!-- Node1 -->
<g id="node1" class="node"><title>Node1</title>
<polygon fill="#bfbfbf" stroke="black" points="1150.8,-368.5 1150.8,-431.5 1300.8,-431.5 1300.8,-368.5 1150.8,-368.5"/>
<text text-anchor="start" x="1158.8" y="-419.5" font-family="Helvetica,sans-Serif" font-size="10.00">/home/travis/build</text>
<text text-anchor="start" x="1158.8" y="-408.5" font-family="Helvetica,sans-Serif" font-size="10.00">/AliceO2Group/AliceO2</text>
<text text-anchor="start" x="1158.8" y="-397.5" font-family="Helvetica,sans-Serif" font-size="10.00">/Detectors/TPC/reconstruction</text>
<text text-anchor="start" x="1158.8" y="-386.5" font-family="Helvetica,sans-Serif" font-size="10.00">/include/TPCReconstruction</text>
<text text-anchor="middle" x="1225.8" y="-375.5" font-family="Helvetica,sans-Serif" font-size="10.00">/Cluster.h</text>
</g>
<!-- Node2 -->
<g id="node2" class="node"><title>Node2</title>
<g id="a_node2"><a xlink:href="../../d2/df8/BoxClusterer_8h.html" target="_top" xlink:title="Class for TPC cluster finding. ">
<polygon fill="none" stroke="black" points="557.802,-268.5 557.802,-331.5 707.802,-331.5 707.802,-268.5 557.802,-268.5"/>
<text text-anchor="start" x="565.802" y="-319.5" font-family="Helvetica,sans-Serif" font-size="10.00">/home/travis/build</text>
<text text-anchor="start" x="565.802" y="-308.5" font-family="Helvetica,sans-Serif" font-size="10.00">/AliceO2Group/AliceO2</text>
<text text-anchor="start" x="565.802" y="-297.5" font-family="Helvetica,sans-Serif" font-size="10.00">/Detectors/TPC/reconstruction</text>
<text text-anchor="start" x="565.802" y="-286.5" font-family="Helvetica,sans-Serif" font-size="10.00">/include/TPCReconstruction</text>
<text text-anchor="middle" x="632.802" y="-275.5" font-family="Helvetica,sans-Serif" font-size="10.00">/BoxClusterer.h</text>
</a>
</g>
</g>
<!-- Node1&#45;&gt;Node2 -->
<g id="edge1" class="edge"><title>Node1&#45;&gt;Node2</title>
<path fill="none" stroke="midnightblue" d="M1140.67,-385.369C1057.33,-371.976 926.79,-350.863 813.802,-332 779.054,-326.199 740.581,-319.63 708.072,-314.037"/>
<polygon fill="midnightblue" stroke="midnightblue" points="1140.16,-388.833 1150.59,-386.964 1141.27,-381.922 1140.16,-388.833"/>
</g>
<!-- Node4 -->
<g id="node4" class="node"><title>Node4</title>
<g id="a_node4"><a xlink:href="../../d8/d0f/TPC_2reconstruction_2src_2ClustererTask_8cxx.html" target="_top" xlink:title="/home/travis/build\l/AliceO2Group/AliceO2\l/Detectors/TPC/reconstruction\l/src/ClustererTask.cxx">
<polygon fill="none" stroke="black" points="153.802,-79 153.802,-131 303.802,-131 303.802,-79 153.802,-79"/>
<text text-anchor="start" x="161.802" y="-119" font-family="Helvetica,sans-Serif" font-size="10.00">/home/travis/build</text>
<text text-anchor="start" x="161.802" y="-108" font-family="Helvetica,sans-Serif" font-size="10.00">/AliceO2Group/AliceO2</text>
<text text-anchor="start" x="161.802" y="-97" font-family="Helvetica,sans-Serif" font-size="10.00">/Detectors/TPC/reconstruction</text>
<text text-anchor="middle" x="228.802" y="-86" font-family="Helvetica,sans-Serif" font-size="10.00">/src/ClustererTask.cxx</text>
</a>
</g>
</g>
<!-- Node1&#45;&gt;Node4 -->
<g id="edge35" class="edge"><title>Node1&#45;&gt;Node4</title>
<path fill="none" stroke="midnightblue" d="M1140.5,-398.489C982.831,-396.22 635.685,-385.022 348.802,-332 195.59,-303.683 105.944,-356.901 12.8018,-232 -4.20253,-209.198 -4.31348,-190.719 12.8018,-168 30.0267,-145.135 98.4825,-128.111 153.774,-117.745"/>
<polygon fill="midnightblue" stroke="midnightblue" points="1140.56,-401.99 1150.61,-398.626 1140.66,-394.991 1140.56,-401.99"/>
</g>
<!-- Node7 -->
<g id="node7" class="node"><title>Node7</title>
<g id="a_node7"><a xlink:href="../../d5/db8/RawClusterFinder_8C.html" target="_top" xlink:title="/home/travis/build\l/AliceO2Group/AliceO2\l/Detectors/TPC/reconstruction\l/macro/RawClusterFinder.C">
<polygon fill="none" stroke="black" points="693.802,-174 693.802,-226 843.802,-226 843.802,-174 693.802,-174"/>
<text text-anchor="start" x="701.802" y="-214" font-family="Helvetica,sans-Serif" font-size="10.00">/home/travis/build</text>
<text text-anchor="start" x="701.802" y="-203" font-family="Helvetica,sans-Serif" font-size="10.00">/AliceO2Group/AliceO2</text>
<text text-anchor="start" x="701.802" y="-192" font-family="Helvetica,sans-Serif" font-size="10.00">/Detectors/TPC/reconstruction</text>
<text text-anchor="middle" x="768.802" y="-181" font-family="Helvetica,sans-Serif" font-size="10.00">/macro/RawClusterFinder.C</text>
</a>
</g>
</g>
<!-- Node1&#45;&gt;Node7 -->
<g id="edge29" class="edge"><title>Node1&#45;&gt;Node7</title>
<path fill="none" stroke="midnightblue" d="M1140.56,-391.018C1078.23,-382.619 993.005,-365.687 924.802,-332 870.738,-305.297 819.491,-256.055 791.29,-226.141"/>
<polygon fill="midnightblue" stroke="midnightblue" points="1140.39,-394.524 1150.75,-392.343 1141.29,-387.583 1140.39,-394.524"/>
</g>
<!-- Node10 -->
<g id="node10" class="node"><title>Node10</title>
<g id="a_node10"><a xlink:href="../../de/df6/HwClusterer_8h.html" target="_top" xlink:title="Class for TPC HW cluster finding. ">
<polygon fill="none" stroke="black" points="357.802,-268.5 357.802,-331.5 507.802,-331.5 507.802,-268.5 357.802,-268.5"/>
<text text-anchor="start" x="365.802" y="-319.5" font-family="Helvetica,sans-Serif" font-size="10.00">/home/travis/build</text>
<text text-anchor="start" x="365.802" y="-308.5" font-family="Helvetica,sans-Serif" font-size="10.00">/AliceO2Group/AliceO2</text>
<text text-anchor="start" x="365.802" y="-297.5" font-family="Helvetica,sans-Serif" font-size="10.00">/Detectors/TPC/reconstruction</text>
<text text-anchor="start" x="365.802" y="-286.5" font-family="Helvetica,sans-Serif" font-size="10.00">/include/TPCReconstruction</text>
<text text-anchor="middle" x="432.802" y="-275.5" font-family="Helvetica,sans-Serif" font-size="10.00">/HwClusterer.h</text>
</a>
</g>
</g>
<!-- Node1&#45;&gt;Node10 -->
<g id="edge9" class="edge"><title>Node1&#45;&gt;Node10</title>
<path fill="none" stroke="midnightblue" d="M1140.41,-395.006C1011.41,-387.971 759.523,-370.321 548.802,-332 535.471,-329.576 521.431,-326.384 507.902,-322.971"/>
<polygon fill="midnightblue" stroke="midnightblue" points="1140.44,-398.513 1150.62,-395.555 1140.82,-391.523 1140.44,-398.513"/>
</g>
<!-- Node13 -->
<g id="node13" class="node"><title>Node13</title>
<g id="a_node13"><a xlink:href="../../df/d30/TPCCATracking_8h.html" target="_top" xlink:title="Decoder to convert TPC ClusterHardware to ClusterNative. ">
<polygon fill="none" stroke="black" points="958.802,-268.5 958.802,-331.5 1108.8,-331.5 1108.8,-268.5 958.802,-268.5"/>
<text text-anchor="start" x="966.802" y="-319.5" font-family="Helvetica,sans-Serif" font-size="10.00">/home/travis/build</text>
<text text-anchor="start" x="966.802" y="-308.5" font-family="Helvetica,sans-Serif" font-size="10.00">/AliceO2Group/AliceO2</text>
<text text-anchor="start" x="966.802" y="-297.5" font-family="Helvetica,sans-Serif" font-size="10.00">/Detectors/TPC/reconstruction</text>
<text text-anchor="start" x="966.802" y="-286.5" font-family="Helvetica,sans-Serif" font-size="10.00">/include/TPCReconstruction</text>
<text text-anchor="middle" x="1033.8" y="-275.5" font-family="Helvetica,sans-Serif" font-size="10.00">/TPCCATracking.h</text>
</a>
</g>
</g>
<!-- Node1&#45;&gt;Node13 -->
<g id="edge14" class="edge"><title>Node1&#45;&gt;Node13</title>
<path fill="none" stroke="midnightblue" d="M1156.8,-363.781C1136.14,-353.234 1113.66,-341.76 1093.64,-331.541"/>
<polygon fill="midnightblue" stroke="midnightblue" points="1155.34,-366.966 1165.84,-368.395 1158.53,-360.732 1155.34,-366.966"/>
</g>
<!-- Node14 -->
<g id="node14" class="node"><title>Node14</title>
<g id="a_node14"><a xlink:href="../../d1/d27/runCATracking_8C.html" target="_top" xlink:title="/home/travis/build\l/AliceO2Group/AliceO2\l/Detectors/TPC/reconstruction\l/macro/runCATracking.C">
<polygon fill="none" stroke="black" points="861.802,-174 861.802,-226 1011.8,-226 1011.8,-174 861.802,-174"/>
<text text-anchor="start" x="869.802" y="-214" font-family="Helvetica,sans-Serif" font-size="10.00">/home/travis/build</text>
<text text-anchor="start" x="869.802" y="-203" font-family="Helvetica,sans-Serif" font-size="10.00">/AliceO2Group/AliceO2</text>
<text text-anchor="start" x="869.802" y="-192" font-family="Helvetica,sans-Serif" font-size="10.00">/Detectors/TPC/reconstruction</text>
<text text-anchor="middle" x="936.802" y="-181" font-family="Helvetica,sans-Serif" font-size="10.00">/macro/runCATracking.C</text>
</a>
</g>
</g>
<!-- Node1&#45;&gt;Node14 -->
<g id="edge31" class="edge"><title>Node1&#45;&gt;Node14</title>
<path fill="none" stroke="midnightblue" d="M1140.81,-389.165C1069.25,-379.02 974.679,-360.606 949.802,-332 924.456,-302.855 926.909,-255.1 931.504,-226.007"/>
<polygon fill="midnightblue" stroke="midnightblue" points="1140.36,-392.636 1150.75,-390.542 1141.32,-385.702 1140.36,-392.636"/>
</g>
<!-- Node15 -->
<g id="node15" class="node"><title>Node15</title>
<g id="a_node15"><a xlink:href="../../d8/ded/TPCCATracking_8cxx.html" target="_top" xlink:title="/home/travis/build\l/AliceO2Group/AliceO2\l/Detectors/TPC/reconstruction\l/src/TPCCATracking.cxx">
<polygon fill="none" stroke="black" points="1029.8,-174 1029.8,-226 1179.8,-226 1179.8,-174 1029.8,-174"/>
<text text-anchor="start" x="1037.8" y="-214" font-family="Helvetica,sans-Serif" font-size="10.00">/home/travis/build</text>
<text text-anchor="start" x="1037.8" y="-203" font-family="Helvetica,sans-Serif" font-size="10.00">/AliceO2Group/AliceO2</text>
<text text-anchor="start" x="1037.8" y="-192" font-family="Helvetica,sans-Serif" font-size="10.00">/Detectors/TPC/reconstruction</text>
<text text-anchor="middle" x="1104.8" y="-181" font-family="Helvetica,sans-Serif" font-size="10.00">/src/TPCCATracking.cxx</text>
</a>
</g>
</g>
<!-- Node1&#45;&gt;Node15 -->
<g id="edge37" class="edge"><title>Node1&#45;&gt;Node15</title>
<path fill="none" stroke="midnightblue" d="M1201.1,-359.851C1195.39,-350.728 1189.36,-341.039 1183.8,-332 1161.27,-295.35 1135.62,-252.626 1119.82,-226.192"/>
<polygon fill="midnightblue" stroke="midnightblue" points="1198.18,-361.772 1206.45,-368.383 1204.11,-358.052 1198.18,-361.772"/>
</g>
<!-- Node16 -->
<g id="node16" class="node"><title>Node16</title>
<g id="a_node16"><a xlink:href="../../d5/dc9/TrackTPC_8h.html" target="_top" xlink:title="/home/travis/build\l/AliceO2Group/AliceO2\l/Detectors/TPC/reconstruction\l/include/TPCReconstruction\l/TrackTPC.h">
<polygon fill="none" stroke="black" points="1202.8,-268.5 1202.8,-331.5 1352.8,-331.5 1352.8,-268.5 1202.8,-268.5"/>
<text text-anchor="start" x="1210.8" y="-319.5" font-family="Helvetica,sans-Serif" font-size="10.00">/home/travis/build</text>
<text text-anchor="start" x="1210.8" y="-308.5" font-family="Helvetica,sans-Serif" font-size="10.00">/AliceO2Group/AliceO2</text>
<text text-anchor="start" x="1210.8" y="-297.5" font-family="Helvetica,sans-Serif" font-size="10.00">/Detectors/TPC/reconstruction</text>
<text text-anchor="start" x="1210.8" y="-286.5" font-family="Helvetica,sans-Serif" font-size="10.00">/include/TPCReconstruction</text>
<text text-anchor="middle" x="1277.8" y="-275.5" font-family="Helvetica,sans-Serif" font-size="10.00">/TrackTPC.h</text>
</a>
</g>
</g>
<!-- Node1&#45;&gt;Node16 -->
<g id="edge18" class="edge"><title>Node1&#45;&gt;Node16</title>
<path fill="none" stroke="midnightblue" d="M1246.89,-359.252C1251.78,-350.042 1256.91,-340.379 1261.55,-331.63"/>
<polygon fill="midnightblue" stroke="midnightblue" points="1243.71,-357.787 1242.11,-368.261 1249.89,-361.068 1243.71,-357.787"/>
</g>
<!-- Node17 -->
<g id="node17" class="node"><title>Node17</title>
<g id="a_node17"><a xlink:href="../../d9/d90/convertTracks_8C.html" target="_top" xlink:title="/home/travis/build\l/AliceO2Group/AliceO2\l/Detectors/TPC/reconstruction\l/macro/convertTracks.C">
<polygon fill="none" stroke="black" points="1197.8,-174 1197.8,-226 1347.8,-226 1347.8,-174 1197.8,-174"/>
<text text-anchor="start" x="1205.8" y="-214" font-family="Helvetica,sans-Serif" font-size="10.00">/home/travis/build</text>
<text text-anchor="start" x="1205.8" y="-203" font-family="Helvetica,sans-Serif" font-size="10.00">/AliceO2Group/AliceO2</text>
<text text-anchor="start" x="1205.8" y="-192" font-family="Helvetica,sans-Serif" font-size="10.00">/Detectors/TPC/reconstruction</text>
<text text-anchor="middle" x="1272.8" y="-181" font-family="Helvetica,sans-Serif" font-size="10.00">/macro/convertTracks.C</text>
</a>
</g>
</g>
<!-- Node1&#45;&gt;Node17 -->
<g id="edge27" class="edge"><title>Node1&#45;&gt;Node17</title>
<path fill="none" stroke="midnightblue" d="M1202.83,-359.445C1190.48,-332.736 1180.29,-297.171 1193.8,-268 1201.59,-251.192 1215.89,-237.063 1230.22,-226.178"/>
<polygon fill="midnightblue" stroke="midnightblue" points="1199.72,-361.05 1207.26,-368.498 1206.01,-357.976 1199.72,-361.05"/>
</g>
<!-- Node18 -->
<g id="node18" class="node"><title>Node18</title>
<g id="a_node18"><a xlink:href="../../d6/dee/dEdxRes_8C.html" target="_top" xlink:title="/home/travis/build\l/AliceO2Group/AliceO2\l/Detectors/TPC/reconstruction\l/macro/dEdxRes.C">
<polygon fill="none" stroke="black" points="1533.8,-174 1533.8,-226 1683.8,-226 1683.8,-174 1533.8,-174"/>
<text text-anchor="start" x="1541.8" y="-214" font-family="Helvetica,sans-Serif" font-size="10.00">/home/travis/build</text>
<text text-anchor="start" x="1541.8" y="-203" font-family="Helvetica,sans-Serif" font-size="10.00">/AliceO2Group/AliceO2</text>
<text text-anchor="start" x="1541.8" y="-192" font-family="Helvetica,sans-Serif" font-size="10.00">/Detectors/TPC/reconstruction</text>
<text text-anchor="middle" x="1608.8" y="-181" font-family="Helvetica,sans-Serif" font-size="10.00">/macro/dEdxRes.C</text>
</a>
</g>
</g>
<!-- Node1&#45;&gt;Node18 -->
<g id="edge28" class="edge"><title>Node1&#45;&gt;Node18</title>
<path fill="none" stroke="midnightblue" d="M1310.34,-365.302C1328.08,-356.042 1345.91,-344.922 1360.8,-332 1386.88,-309.38 1376.93,-288.368 1404.8,-268 1449.41,-235.395 1471.38,-249.473 1523.8,-232 1529.46,-230.113 1535.32,-228.102 1541.18,-226.047"/>
<polygon fill="midnightblue" stroke="midnightblue" points="1308.44,-362.342 1301.09,-369.974 1311.59,-368.591 1308.44,-362.342"/>
</g>
<!-- Node19 -->
<g id="node19" class="node"><title>Node19</title>
<g id="a_node19"><a xlink:href="../../db/d60/testTracks_8C.html" target="_top" xlink:title="/home/travis/build\l/AliceO2Group/AliceO2\l/Detectors/TPC/reconstruction\l/macro/testTracks.C">
<polygon fill="none" stroke="black" points="1701.8,-174 1701.8,-226 1851.8,-226 1851.8,-174 1701.8,-174"/>
<text text-anchor="start" x="1709.8" y="-214" font-family="Helvetica,sans-Serif" font-size="10.00">/home/travis/build</text>
<text text-anchor="start" x="1709.8" y="-203" font-family="Helvetica,sans-Serif" font-size="10.00">/AliceO2Group/AliceO2</text>
<text text-anchor="start" x="1709.8" y="-192" font-family="Helvetica,sans-Serif" font-size="10.00">/Detectors/TPC/reconstruction</text>
<text text-anchor="middle" x="1776.8" y="-181" font-family="Helvetica,sans-Serif" font-size="10.00">/macro/testTracks.C</text>
</a>
</g>
</g>
<!-- Node1&#45;&gt;Node19 -->
<g id="edge32" class="edge"><title>Node1&#45;&gt;Node19</title>
<path fill="none" stroke="midnightblue" d="M1310.71,-376.53C1339.91,-366.116 1371.58,-351.596 1396.8,-332 1424.46,-310.509 1412.86,-286.178 1442.8,-268 1538.39,-209.975 1583.37,-259.301 1691.8,-232 1698.5,-230.313 1705.41,-228.289 1712.26,-226.096"/>
<polygon fill="midnightblue" stroke="midnightblue" points="1309.22,-373.34 1300.91,-379.906 1311.5,-379.958 1309.22,-373.34"/>
</g>
<!-- Node21 -->
<g id="node21" class="node"><title>Node21</title>
<g id="a_node21"><a xlink:href="../../d9/d59/testHitsDigitsClusters_8C.html" target="_top" xlink:title="/home/travis/build\l/AliceO2Group/AliceO2\l/Detectors/TPC/simulation\l/macro/testHitsDigitsClusters.C">
<polygon fill="none" stroke="black" points="1870.3,-174 1870.3,-226 2027.3,-226 2027.3,-174 1870.3,-174"/>
<text text-anchor="start" x="1878.3" y="-214" font-family="Helvetica,sans-Serif" font-size="10.00">/home/travis/build</text>
<text text-anchor="start" x="1878.3" y="-203" font-family="Helvetica,sans-Serif" font-size="10.00">/AliceO2Group/AliceO2</text>
<text text-anchor="start" x="1878.3" y="-192" font-family="Helvetica,sans-Serif" font-size="10.00">/Detectors/TPC/simulation</text>
<text text-anchor="middle" x="1948.8" y="-181" font-family="Helvetica,sans-Serif" font-size="10.00">/macro/testHitsDigitsClusters.C</text>
</a>
</g>
</g>
<!-- Node1&#45;&gt;Node21 -->
<g id="edge38" class="edge"><title>Node1&#45;&gt;Node21</title>
<path fill="none" stroke="midnightblue" d="M1310.66,-385.288C1351.01,-375.545 1398.11,-359.18 1433.8,-332 1460.87,-311.388 1446.65,-285.543 1475.8,-268 1549.24,-223.805 1776.06,-250.229 1859.8,-232 1867.16,-230.399 1874.74,-228.373 1882.24,-226.125"/>
<polygon fill="midnightblue" stroke="midnightblue" points="1309.78,-381.9 1300.83,-387.565 1311.36,-388.719 1309.78,-381.9"/>
</g>
<!-- Node22 -->
<g id="node22" class="node"><title>Node22</title>
<g id="a_node22"><a xlink:href="../../d4/d0e/readClusterMCtruth_8C.html" target="_top" xlink:title="/home/travis/build\l/AliceO2Group/AliceO2\l/Detectors/TPC/reconstruction\l/macro/readClusterMCtruth.C">
<polygon fill="none" stroke="black" points="1484.8,-274 1484.8,-326 1634.8,-326 1634.8,-274 1484.8,-274"/>
<text text-anchor="start" x="1492.8" y="-314" font-family="Helvetica,sans-Serif" font-size="10.00">/home/travis/build</text>
<text text-anchor="start" x="1492.8" y="-303" font-family="Helvetica,sans-Serif" font-size="10.00">/AliceO2Group/AliceO2</text>
<text text-anchor="start" x="1492.8" y="-292" font-family="Helvetica,sans-Serif" font-size="10.00">/Detectors/TPC/reconstruction</text>
<text text-anchor="middle" x="1559.8" y="-281" font-family="Helvetica,sans-Serif" font-size="10.00">/macro/readClusterMCtruth.C</text>
</a>
</g>
</g>
<!-- Node1&#45;&gt;Node22 -->
<g id="edge30" class="edge"><title>Node1&#45;&gt;Node22</title>
<path fill="none" stroke="midnightblue" d="M1310.87,-377.263C1358.19,-364.79 1418.02,-348.389 1470.8,-332 1476.74,-330.156 1482.88,-328.177 1489.02,-326.143"/>
<polygon fill="midnightblue" stroke="midnightblue" points="1309.76,-373.937 1300.97,-379.863 1311.53,-380.708 1309.76,-373.937"/>
</g>
<!-- Node23 -->
<g id="node23" class="node"><title>Node23</title>
<g id="a_node23"><a xlink:href="../../db/dce/TPC_2reconstruction_2src_2Cluster_8cxx.html" target="_top" xlink:title="/home/travis/build\l/AliceO2Group/AliceO2\l/Detectors/TPC/reconstruction\l/src/Cluster.cxx">
<polygon fill="none" stroke="black" points="1652.8,-274 1652.8,-326 1802.8,-326 1802.8,-274 1652.8,-274"/>
<text text-anchor="start" x="1660.8" y="-314" font-family="Helvetica,sans-Serif" font-size="10.00">/home/travis/build</text>
<text text-anchor="start" x="1660.8" y="-303" font-family="Helvetica,sans-Serif" font-size="10.00">/AliceO2Group/AliceO2</text>
<text text-anchor="start" x="1660.8" y="-292" font-family="Helvetica,sans-Serif" font-size="10.00">/Detectors/TPC/reconstruction</text>
<text text-anchor="middle" x="1727.8" y="-281" font-family="Helvetica,sans-Serif" font-size="10.00">/src/Cluster.cxx</text>
</a>
</g>
</g>
<!-- Node1&#45;&gt;Node23 -->
<g id="edge33" class="edge"><title>Node1&#45;&gt;Node23</title>
<path fill="none" stroke="midnightblue" d="M1311,-390.127C1395.97,-380.155 1529.78,-361.404 1642.8,-332 1649.34,-330.299 1656.08,-328.296 1662.77,-326.138"/>
<polygon fill="midnightblue" stroke="midnightblue" points="1310.41,-386.671 1300.88,-391.299 1311.22,-393.624 1310.41,-386.671"/>
</g>
<!-- Node24 -->
<g id="node24" class="node"><title>Node24</title>
<g id="a_node24"><a xlink:href="../../dc/dab/ClusterContainer_8cxx.html" target="_top" xlink:title="/home/travis/build\l/AliceO2Group/AliceO2\l/Detectors/TPC/reconstruction\l/src/ClusterContainer.cxx">
<polygon fill="none" stroke="black" points="1820.8,-274 1820.8,-326 1970.8,-326 1970.8,-274 1820.8,-274"/>
<text text-anchor="start" x="1828.8" y="-314" font-family="Helvetica,sans-Serif" font-size="10.00">/home/travis/build</text>
<text text-anchor="start" x="1828.8" y="-303" font-family="Helvetica,sans-Serif" font-size="10.00">/AliceO2Group/AliceO2</text>
<text text-anchor="start" x="1828.8" y="-292" font-family="Helvetica,sans-Serif" font-size="10.00">/Detectors/TPC/reconstruction</text>
<text text-anchor="middle" x="1895.8" y="-281" font-family="Helvetica,sans-Serif" font-size="10.00">/src/ClusterContainer.cxx</text>
</a>
</g>
</g>
<!-- Node1&#45;&gt;Node24 -->
<g id="edge34" class="edge"><title>Node1&#45;&gt;Node24</title>
<path fill="none" stroke="midnightblue" d="M1311.25,-395.517C1426.16,-389.409 1636.24,-373.217 1810.8,-332 1817.83,-330.34 1825.08,-328.275 1832.24,-326.005"/>
<polygon fill="midnightblue" stroke="midnightblue" points="1310.92,-392.029 1301.11,-396.043 1311.28,-399.02 1310.92,-392.029"/>
</g>
<!-- Node25 -->
<g id="node25" class="node"><title>Node25</title>
<g id="a_node25"><a xlink:href="../../d6/dc6/HwClusterFinder_8cxx.html" target="_top" xlink:title="/home/travis/build\l/AliceO2Group/AliceO2\l/Detectors/TPC/reconstruction\l/src/HwClusterFinder.cxx">
<polygon fill="none" stroke="black" points="1988.8,-274 1988.8,-326 2138.8,-326 2138.8,-274 1988.8,-274"/>
<text text-anchor="start" x="1996.8" y="-314" font-family="Helvetica,sans-Serif" font-size="10.00">/home/travis/build</text>
<text text-anchor="start" x="1996.8" y="-303" font-family="Helvetica,sans-Serif" font-size="10.00">/AliceO2Group/AliceO2</text>
<text text-anchor="start" x="1996.8" y="-292" font-family="Helvetica,sans-Serif" font-size="10.00">/Detectors/TPC/reconstruction</text>
<text text-anchor="middle" x="2063.8" y="-281" font-family="Helvetica,sans-Serif" font-size="10.00">/src/HwClusterFinder.cxx</text>
</a>
</g>
</g>
<!-- Node1&#45;&gt;Node25 -->
<g id="edge36" class="edge"><title>Node1&#45;&gt;Node25</title>
<path fill="none" stroke="midnightblue" d="M1311.36,-398.605C1452.22,-396.354 1741.03,-384.977 1978.8,-332 1986.01,-330.394 1993.43,-328.334 2000.75,-326.039"/>
<polygon fill="midnightblue" stroke="midnightblue" points="1311.02,-395.11 1301.07,-398.758 1311.12,-402.109 1311.02,-395.11"/>
</g>
<!-- Node3 -->
<g id="node3" class="node"><title>Node3</title>
<g id="a_node3"><a xlink:href="../../de/d64/TPC_2reconstruction_2include_2TPCReconstruction_2ClustererTask_8h.html" target="_top" xlink:title="/home/travis/build\l/AliceO2Group/AliceO2\l/Detectors/TPC/reconstruction\l/include/TPCReconstruction\l/ClustererTask.h">
<polygon fill="none" stroke="black" points="357.802,-168.5 357.802,-231.5 507.802,-231.5 507.802,-168.5 357.802,-168.5"/>
<text text-anchor="start" x="365.802" y="-219.5" font-family="Helvetica,sans-Serif" font-size="10.00">/home/travis/build</text>
<text text-anchor="start" x="365.802" y="-208.5" font-family="Helvetica,sans-Serif" font-size="10.00">/AliceO2Group/AliceO2</text>
<text text-anchor="start" x="365.802" y="-197.5" font-family="Helvetica,sans-Serif" font-size="10.00">/Detectors/TPC/reconstruction</text>
<text text-anchor="start" x="365.802" y="-186.5" font-family="Helvetica,sans-Serif" font-size="10.00">/include/TPCReconstruction</text>
<text text-anchor="middle" x="432.802" y="-175.5" font-family="Helvetica,sans-Serif" font-size="10.00">/ClustererTask.h</text>
</a>
</g>
</g>
<!-- Node2&#45;&gt;Node3 -->
<g id="edge2" class="edge"><title>Node2&#45;&gt;Node3</title>
<path fill="none" stroke="midnightblue" d="M561.216,-263.923C539.613,-253.337 516.08,-241.806 495.13,-231.541"/>
<polygon fill="midnightblue" stroke="midnightblue" points="559.823,-267.138 570.343,-268.395 562.903,-260.852 559.823,-267.138"/>
</g>
<!-- Node2&#45;&gt;Node7 -->
<g id="edge6" class="edge"><title>Node2&#45;&gt;Node7</title>
<path fill="none" stroke="midnightblue" d="M683.573,-262.415C700.386,-250.299 718.704,-237.1 734.034,-226.054"/>
<polygon fill="midnightblue" stroke="midnightblue" points="681.527,-259.575 675.46,-268.261 685.619,-265.254 681.527,-259.575"/>
</g>
<!-- Node9 -->
<g id="node9" class="node"><title>Node9</title>
<g id="a_node9"><a xlink:href="../../da/d67/BoxClusterer_8cxx.html" target="_top" xlink:title="/home/travis/build\l/AliceO2Group/AliceO2\l/Detectors/TPC/reconstruction\l/src/BoxClusterer.cxx">
<polygon fill="none" stroke="black" points="525.802,-174 525.802,-226 675.802,-226 675.802,-174 525.802,-174"/>
<text text-anchor="start" x="533.802" y="-214" font-family="Helvetica,sans-Serif" font-size="10.00">/home/travis/build</text>
<text text-anchor="start" x="533.802" y="-203" font-family="Helvetica,sans-Serif" font-size="10.00">/AliceO2Group/AliceO2</text>
<text text-anchor="start" x="533.802" y="-192" font-family="Helvetica,sans-Serif" font-size="10.00">/Detectors/TPC/reconstruction</text>
<text text-anchor="middle" x="600.802" y="-181" font-family="Helvetica,sans-Serif" font-size="10.00">/src/BoxClusterer.cxx</text>
</a>
</g>
</g>
<!-- Node2&#45;&gt;Node9 -->
<g id="edge8" class="edge"><title>Node2&#45;&gt;Node9</title>
<path fill="none" stroke="midnightblue" d="M619.659,-258.751C616.045,-247.681 612.229,-235.995 608.983,-226.054"/>
<polygon fill="midnightblue" stroke="midnightblue" points="616.333,-259.841 622.765,-268.261 622.988,-257.669 616.333,-259.841"/>
</g>
<!-- Node3&#45;&gt;Node4 -->
<g id="edge3" class="edge"><title>Node3&#45;&gt;Node4</title>
<path fill="none" stroke="midnightblue" d="M356.558,-164.242C332.351,-153.206 306.072,-141.226 283.678,-131.017"/>
<polygon fill="midnightblue" stroke="midnightblue" points="355.171,-167.456 365.722,-168.42 358.075,-161.087 355.171,-167.456"/>
</g>
<!-- Node5 -->
<g id="node5" class="node"><title>Node5</title>
<g id="a_node5"><a xlink:href="../../df/d9b/run__clus__tpc_8C.html" target="_top" xlink:title="/home/travis/build\l/AliceO2Group/AliceO2\l/macro/run_clus_tpc.C">
<polygon fill="none" stroke="black" points="464.802,-84.5 464.802,-125.5 582.802,-125.5 582.802,-84.5 464.802,-84.5"/>
<text text-anchor="start" x="472.802" y="-113.5" font-family="Helvetica,sans-Serif" font-size="10.00">/home/travis/build</text>
<text text-anchor="start" x="472.802" y="-102.5" font-family="Helvetica,sans-Serif" font-size="10.00">/AliceO2Group/AliceO2</text>
<text text-anchor="middle" x="523.802" y="-91.5" font-family="Helvetica,sans-Serif" font-size="10.00">/macro/run_clus_tpc.C</text>
</a>
</g>
</g>
<!-- Node3&#45;&gt;Node5 -->
<g id="edge4" class="edge"><title>Node3&#45;&gt;Node5</title>
<path fill="none" stroke="midnightblue" d="M470.111,-160.871C481.98,-148.741 494.617,-135.826 504.648,-125.575"/>
<polygon fill="midnightblue" stroke="midnightblue" points="467.343,-158.695 462.851,-168.291 472.346,-163.591 467.343,-158.695"/>
</g>
<!-- Node6 -->
<g id="node6" class="node"><title>Node6</title>
<g id="a_node6"><a xlink:href="../../d3/d56/runTPC_8cxx.html" target="_top" xlink:title="/home/travis/build\l/AliceO2Group/AliceO2\l/run/runTPC.cxx">
<polygon fill="none" stroke="black" points="654.802,-0.5 654.802,-41.5 772.802,-41.5 772.802,-0.5 654.802,-0.5"/>
<text text-anchor="start" x="662.802" y="-29.5" font-family="Helvetica,sans-Serif" font-size="10.00">/home/travis/build</text>
<text text-anchor="start" x="662.802" y="-18.5" font-family="Helvetica,sans-Serif" font-size="10.00">/AliceO2Group/AliceO2</text>
<text text-anchor="middle" x="713.802" y="-7.5" font-family="Helvetica,sans-Serif" font-size="10.00">/run/runTPC.cxx</text>
</a>
</g>
</g>
<!-- Node5&#45;&gt;Node6 -->
<g id="edge5" class="edge"><title>Node5&#45;&gt;Node6</title>
<path fill="none" stroke="midnightblue" d="M578.706,-80.3043C607.129,-68.0379 641.415,-53.2406 668.334,-41.6227"/>
<polygon fill="midnightblue" stroke="midnightblue" points="577.106,-77.1829 569.311,-84.359 579.88,-83.6099 577.106,-77.1829"/>
</g>
<!-- Node8 -->
<g id="node8" class="node"><title>Node8</title>
<g id="a_node8"><a xlink:href="../../df/da0/runRawClusterFinder_8C.html" target="_top" xlink:title="/home/travis/build\l/AliceO2Group/AliceO2\l/Detectors/TPC/reconstruction\l/macro/runRawClusterFinder.C">
<polygon fill="none" stroke="black" points="692.802,-79 692.802,-131 844.802,-131 844.802,-79 692.802,-79"/>
<text text-anchor="start" x="700.802" y="-119" font-family="Helvetica,sans-Serif" font-size="10.00">/home/travis/build</text>
<text text-anchor="start" x="700.802" y="-108" font-family="Helvetica,sans-Serif" font-size="10.00">/AliceO2Group/AliceO2</text>
<text text-anchor="start" x="700.802" y="-97" font-family="Helvetica,sans-Serif" font-size="10.00">/Detectors/TPC/reconstruction</text>
<text text-anchor="middle" x="768.802" y="-86" font-family="Helvetica,sans-Serif" font-size="10.00">/macro/runRawClusterFinder.C</text>
</a>
</g>
</g>
<!-- Node7&#45;&gt;Node8 -->
<g id="edge7" class="edge"><title>Node7&#45;&gt;Node8</title>
<path fill="none" stroke="midnightblue" d="M768.802,-163.549C768.802,-152.722 768.802,-141.046 768.802,-131.06"/>
<polygon fill="midnightblue" stroke="midnightblue" points="765.302,-163.587 768.802,-173.587 772.302,-163.587 765.302,-163.587"/>
</g>
<!-- Node10&#45;&gt;Node3 -->
<g id="edge10" class="edge"><title>Node10&#45;&gt;Node3</title>
<path fill="none" stroke="midnightblue" d="M432.802,-258.099C432.802,-249.238 432.802,-240.015 432.802,-231.63"/>
<polygon fill="midnightblue" stroke="midnightblue" points="429.302,-258.261 432.802,-268.261 436.302,-258.261 429.302,-258.261"/>
</g>
<!-- Node10&#45;&gt;Node7 -->
<g id="edge11" class="edge"><title>Node10&#45;&gt;Node7</title>
<path fill="none" stroke="midnightblue" d="M517.922,-276.247C528.323,-273.468 538.805,-270.669 548.802,-268 608.797,-251.984 624.574,-250.657 683.802,-232 689.645,-230.159 695.68,-228.16 701.714,-226.093"/>
<polygon fill="midnightblue" stroke="midnightblue" points="516.749,-272.937 507.991,-278.9 518.556,-279.7 516.749,-272.937"/>
</g>
<!-- Node11 -->
<g id="node11" class="node"><title>Node11</title>
<g id="a_node11"><a xlink:href="../../dc/dc3/testClustererData_8C.html" target="_top" xlink:title="/home/travis/build\l/AliceO2Group/AliceO2\l/Detectors/TPC/reconstruction\l/macro/testClustererData.C">
<polygon fill="none" stroke="black" points="189.802,-174 189.802,-226 339.802,-226 339.802,-174 189.802,-174"/>
<text text-anchor="start" x="197.802" y="-214" font-family="Helvetica,sans-Serif" font-size="10.00">/home/travis/build</text>
<text text-anchor="start" x="197.802" y="-203" font-family="Helvetica,sans-Serif" font-size="10.00">/AliceO2Group/AliceO2</text>
<text text-anchor="start" x="197.802" y="-192" font-family="Helvetica,sans-Serif" font-size="10.00">/Detectors/TPC/reconstruction</text>
<text text-anchor="middle" x="264.802" y="-181" font-family="Helvetica,sans-Serif" font-size="10.00">/macro/testClustererData.C</text>
</a>
</g>
</g>
<!-- Node10&#45;&gt;Node11 -->
<g id="edge12" class="edge"><title>Node10&#45;&gt;Node11</title>
<path fill="none" stroke="midnightblue" d="M371.215,-263.075C350.139,-250.78 327.032,-237.301 307.751,-226.054"/>
<polygon fill="midnightblue" stroke="midnightblue" points="369.705,-266.246 380.106,-268.261 373.232,-260.199 369.705,-266.246"/>
</g>
<!-- Node12 -->
<g id="node12" class="node"><title>Node12</title>
<g id="a_node12"><a xlink:href="../../d4/d6c/HwClusterer_8cxx.html" target="_top" xlink:title="/home/travis/build\l/AliceO2Group/AliceO2\l/Detectors/TPC/reconstruction\l/src/HwClusterer.cxx">
<polygon fill="none" stroke="black" points="21.8018,-174 21.8018,-226 171.802,-226 171.802,-174 21.8018,-174"/>
<text text-anchor="start" x="29.8018" y="-214" font-family="Helvetica,sans-Serif" font-size="10.00">/home/travis/build</text>
<text text-anchor="start" x="29.8018" y="-203" font-family="Helvetica,sans-Serif" font-size="10.00">/AliceO2Group/AliceO2</text>
<text text-anchor="start" x="29.8018" y="-192" font-family="Helvetica,sans-Serif" font-size="10.00">/Detectors/TPC/reconstruction</text>
<text text-anchor="middle" x="96.8018" y="-181" font-family="Helvetica,sans-Serif" font-size="10.00">/src/HwClusterer.cxx</text>
</a>
</g>
</g>
<!-- Node10&#45;&gt;Node12 -->
<g id="edge13" class="edge"><title>Node10&#45;&gt;Node12</title>
<path fill="none" stroke="midnightblue" d="M347.619,-278.467C298.52,-266.105 235.814,-249.422 180.802,-232 175.022,-230.17 169.054,-228.178 163.089,-226.115"/>
<polygon fill="midnightblue" stroke="midnightblue" points="347.015,-281.923 357.566,-280.959 348.717,-275.133 347.015,-281.923"/>
</g>
<!-- Node13&#45;&gt;Node14 -->
<g id="edge15" class="edge"><title>Node13&#45;&gt;Node14</title>
<path fill="none" stroke="midnightblue" d="M996.278,-261.089C984.651,-249.342 972.136,-236.698 961.6,-226.054"/>
<polygon fill="midnightblue" stroke="midnightblue" points="993.854,-263.616 1003.38,-268.261 998.829,-258.692 993.854,-263.616"/>
</g>
<!-- Node13&#45;&gt;Node15 -->
<g id="edge17" class="edge"><title>Node13&#45;&gt;Node15</title>
<path fill="none" stroke="midnightblue" d="M1061.99,-260.09C1070.3,-248.628 1079.16,-236.397 1086.65,-226.054"/>
<polygon fill="midnightblue" stroke="midnightblue" points="1059.1,-258.11 1056.07,-268.261 1064.77,-262.216 1059.1,-258.11"/>
</g>
<!-- Node14&#45;&gt;Node6 -->
<g id="edge16" class="edge"><title>Node14&#45;&gt;Node6</title>
<path fill="none" stroke="midnightblue" d="M920.548,-164.925C906.251,-138.121 883.155,-101.497 853.802,-78 830.3,-59.1869 799.661,-45.9756 773.04,-37.1296"/>
<polygon fill="midnightblue" stroke="midnightblue" points="917.522,-166.694 925.234,-173.959 923.736,-163.47 917.522,-166.694"/>
</g>
<!-- Node16&#45;&gt;Node7 -->
<g id="edge21" class="edge"><title>Node16&#45;&gt;Node7</title>
<path fill="none" stroke="midnightblue" d="M1192.64,-281.701C1168.2,-276.982 1141.49,-272.057 1116.8,-268 999.95,-248.798 967.698,-260.67 852.802,-232 846.015,-230.306 839.018,-228.25 832.096,-226.012"/>
<polygon fill="midnightblue" stroke="midnightblue" points="1192.12,-285.165 1202.6,-283.637 1193.45,-278.293 1192.12,-285.165"/>
</g>
<!-- Node16&#45;&gt;Node14 -->
<g id="edge22" class="edge"><title>Node16&#45;&gt;Node14</title>
<path fill="none" stroke="midnightblue" d="M1192.87,-279.091C1142.51,-266.731 1077.61,-249.841 1020.8,-232 1015.02,-230.184 1009.05,-228.201 1003.08,-226.146"/>
<polygon fill="midnightblue" stroke="midnightblue" points="1192.2,-282.529 1202.74,-281.501 1193.86,-275.729 1192.2,-282.529"/>
</g>
<!-- Node16&#45;&gt;Node15 -->
<g id="edge24" class="edge"><title>Node16&#45;&gt;Node15</title>
<path fill="none" stroke="midnightblue" d="M1214.67,-263.239C1192.89,-250.9 1168.97,-237.351 1149.03,-226.054"/>
<polygon fill="midnightblue" stroke="midnightblue" points="1213.11,-266.377 1223.54,-268.261 1216.56,-260.287 1213.11,-266.377"/>
</g>
<!-- Node16&#45;&gt;Node17 -->
<g id="edge19" class="edge"><title>Node16&#45;&gt;Node17</title>
<path fill="none" stroke="midnightblue" d="M1275.71,-258.079C1275.16,-247.21 1274.58,-235.794 1274.08,-226.054"/>
<polygon fill="midnightblue" stroke="midnightblue" points="1272.23,-258.452 1276.23,-268.261 1279.22,-258.096 1272.23,-258.452"/>
</g>
<!-- Node16&#45;&gt;Node18 -->
<g id="edge20" class="edge"><title>Node16&#45;&gt;Node18</title>
<path fill="none" stroke="midnightblue" d="M1362.5,-269.259C1363.94,-268.83 1365.38,-268.41 1366.8,-268 1435.6,-248.196 1455.15,-252.303 1523.8,-232 1529.98,-230.173 1536.36,-228.137 1542.71,-226.004"/>
<polygon fill="midnightblue" stroke="midnightblue" points="1361.42,-265.929 1352.88,-272.199 1363.46,-272.623 1361.42,-265.929"/>
</g>
<!-- Node16&#45;&gt;Node19 -->
<g id="edge23" class="edge"><title>Node16&#45;&gt;Node19</title>
<path fill="none" stroke="midnightblue" d="M1363.07,-276.767C1376.96,-273.555 1391.24,-270.497 1404.8,-268 1531.23,-244.719 1566.85,-262.214 1691.8,-232 1698.67,-230.339 1705.75,-228.304 1712.76,-226.077"/>
<polygon fill="midnightblue" stroke="midnightblue" points="1361.98,-273.429 1353.05,-279.127 1363.58,-280.243 1361.98,-273.429"/>
</g>
<!-- Node20 -->
<g id="node20" class="node"><title>Node20</title>
<g id="a_node20"><a xlink:href="../../d6/da8/TrackTPC_8cxx.html" target="_top" xlink:title="Implementation of the TPC track. ">
<polygon fill="none" stroke="black" points="1365.8,-174 1365.8,-226 1515.8,-226 1515.8,-174 1365.8,-174"/>
<text text-anchor="start" x="1373.8" y="-214" font-family="Helvetica,sans-Serif" font-size="10.00">/home/travis/build</text>
<text text-anchor="start" x="1373.8" y="-203" font-family="Helvetica,sans-Serif" font-size="10.00">/AliceO2Group/AliceO2</text>
<text text-anchor="start" x="1373.8" y="-192" font-family="Helvetica,sans-Serif" font-size="10.00">/Detectors/TPC/reconstruction</text>
<text text-anchor="middle" x="1440.8" y="-181" font-family="Helvetica,sans-Serif" font-size="10.00">/src/TrackTPC.cxx</text>
</a>
</g>
</g>
<!-- Node16&#45;&gt;Node20 -->
<g id="edge25" class="edge"><title>Node16&#45;&gt;Node20</title>
<path fill="none" stroke="midnightblue" d="M1337.56,-263.075C1358,-250.78 1380.42,-237.301 1399.13,-226.054"/>
<polygon fill="midnightblue" stroke="midnightblue" points="1335.7,-260.109 1328.93,-268.261 1339.3,-266.108 1335.7,-260.109"/>
</g>
<!-- Node16&#45;&gt;Node21 -->
<g id="edge26" class="edge"><title>Node16&#45;&gt;Node21</title>
<path fill="none" stroke="midnightblue" d="M1363.14,-281.292C1388.67,-276.446 1416.8,-271.556 1442.8,-268 1627.11,-242.794 1677.89,-270.896 1859.8,-232 1867.32,-230.392 1875.08,-228.33 1882.74,-226.034"/>
<polygon fill="midnightblue" stroke="midnightblue" points="1362.28,-277.893 1353.11,-283.216 1363.6,-284.767 1362.28,-277.893"/>
</g>
</g>
</svg>
