<?xml version="1.0" encoding="UTF-8" standalone="no"?>
<!DOCTYPE svg PUBLIC "-//W3C//DTD SVG 1.1//EN"
 "http://www.w3.org/Graphics/SVG/1.1/DTD/svg11.dtd">
<!-- Generated by graphviz version 2.36.0 (20140111.2315)
 -->
<!-- Title: /home/travis/build/AliceO2Group/AliceO2/Detectors/ITSMFT/ITS/simulation/include/ITSSimulation/DigitizerTask.h Pages: 1 -->
<svg width="2542pt" height="456pt"
 viewBox="0.00 0.00 2542.00 456.00" xmlns="http://www.w3.org/2000/svg" xmlns:xlink="http://www.w3.org/1999/xlink">
<g id="graph0" class="graph" transform="scale(1 1) rotate(0) translate(4 452)">
<title>/home/travis/build/AliceO2Group/AliceO2/Detectors/ITSMFT/ITS/simulation/include/ITSSimulation/DigitizerTask.h</title>
<!-- Node1 -->
<g id="node1" class="node"><title>Node1</title>
<polygon fill="#bfbfbf" stroke="black" points="548,-384.5 548,-447.5 710,-447.5 710,-384.5 548,-384.5"/>
<text text-anchor="start" x="556" y="-435.5" font-family="Helvetica,sans-Serif" font-size="10.00">/home/travis/build</text>
<text text-anchor="start" x="556" y="-424.5" font-family="Helvetica,sans-Serif" font-size="10.00">/AliceO2Group/AliceO2</text>
<text text-anchor="start" x="556" y="-413.5" font-family="Helvetica,sans-Serif" font-size="10.00">/Detectors/ITSMFT/ITS</text>
<text text-anchor="start" x="556" y="-402.5" font-family="Helvetica,sans-Serif" font-size="10.00">/simulation/include/ITSSimulation</text>
<text text-anchor="middle" x="629" y="-391.5" font-family="Helvetica,sans-Serif" font-size="10.00">/DigitizerTask.h</text>
</g>
<!-- Node2 -->
<g id="node2" class="node"><title>Node2</title>
<polygon fill="none" stroke="#bfbfbf" points="422.5,-328.5 422.5,-347.5 465.5,-347.5 465.5,-328.5 422.5,-328.5"/>
<text text-anchor="middle" x="444" y="-335.5" font-family="Helvetica,sans-Serif" font-size="10.00">cstdio</text>
</g>
<!-- Node1&#45;&gt;Node2 -->
<g id="edge1" class="edge"><title>Node1&#45;&gt;Node2</title>
<path fill="none" stroke="midnightblue" d="M554.553,-384.416C526.517,-372.899 496.179,-360.436 474.388,-351.484"/>
<polygon fill="midnightblue" stroke="midnightblue" points="475.597,-348.197 465.017,-347.634 472.937,-354.672 475.597,-348.197"/>
</g>
<!-- Node3 -->
<g id="node3" class="node"><title>Node3</title>
<polygon fill="none" stroke="#bfbfbf" points="483.5,-328.5 483.5,-347.5 546.5,-347.5 546.5,-328.5 483.5,-328.5"/>
<text text-anchor="middle" x="515" y="-335.5" font-family="Helvetica,sans-Serif" font-size="10.00">FairTask.h</text>
</g>
<!-- Node1&#45;&gt;Node3 -->
<g id="edge2" class="edge"><title>Node1&#45;&gt;Node3</title>
<path fill="none" stroke="midnightblue" d="M582.96,-384.307C566.894,-373.596 549.62,-362.08 536.507,-353.338"/>
<polygon fill="midnightblue" stroke="midnightblue" points="538.423,-350.409 528.161,-347.774 534.54,-356.233 538.423,-350.409"/>
</g>
<!-- Node4 -->
<g id="node4" class="node"><title>Node4</title>
<polygon fill="none" stroke="#bfbfbf" points="882,-6.5 882,-25.5 938,-25.5 938,-6.5 882,-6.5"/>
<text text-anchor="middle" x="910" y="-13.5" font-family="Helvetica,sans-Serif" font-size="10.00">Rtypes.h</text>
</g>
<!-- Node1&#45;&gt;Node4 -->
<g id="edge3" class="edge"><title>Node1&#45;&gt;Node4</title>
<path fill="none" stroke="midnightblue" d="M609.352,-384.273C593.912,-357.152 575,-315.977 575,-277 575,-277 575,-277 575,-145 575,-94.0263 614.522,-91.0238 660,-68 729.18,-32.9764 820.642,-22.0043 871.568,-18.5674"/>
<polygon fill="midnightblue" stroke="midnightblue" points="872.029,-22.0458 881.797,-17.9424 871.602,-15.0589 872.029,-22.0458"/>
</g>
<!-- Node5 -->
<g id="node5" class="node"><title>Node5</title>
<g id="a_node5"><a xlink:href="../../df/d29/DigiParams_8h.html" target="_top" xlink:title="Simulation parameters for the ALIPIDE chip. ">
<polygon fill="none" stroke="black" points="603.5,-266.5 603.5,-285.5 764.5,-285.5 764.5,-266.5 603.5,-266.5"/>
<text text-anchor="middle" x="684" y="-273.5" font-family="Helvetica,sans-Serif" font-size="10.00">ITSMFTSimulation/DigiParams.h</text>
</a>
</g>
</g>
<!-- Node1&#45;&gt;Node5 -->
<g id="edge4" class="edge"><title>Node1&#45;&gt;Node5</title>
<path fill="none" stroke="midnightblue" d="M641.206,-384.373C652.135,-356.953 667.787,-317.679 676.821,-295.013"/>
<polygon fill="midnightblue" stroke="midnightblue" points="680.119,-296.192 680.57,-285.606 673.616,-293.6 680.119,-296.192"/>
</g>
<!-- Node6 -->
<g id="node6" class="node"><title>Node6</title>
<g id="a_node6"><a xlink:href="../../d7/d9c/ITSMFT_2common_2simulation_2include_2ITSMFTSimulation_2Digitizer_8h.html" target="_top" xlink:title="ITSMFTSimulation/Digitizer.h">
<polygon fill="none" stroke="black" points="987,-328.5 987,-347.5 1133,-347.5 1133,-328.5 987,-328.5"/>
<text text-anchor="middle" x="1060" y="-335.5" font-family="Helvetica,sans-Serif" font-size="10.00">ITSMFTSimulation/Digitizer.h</text>
</a>
</g>
</g>
<!-- Node1&#45;&gt;Node6 -->
<g id="edge6" class="edge"><title>Node1&#45;&gt;Node6</title>
<path fill="none" stroke="midnightblue" d="M710.068,-400.705C794.958,-385.736 926.186,-362.596 1001.49,-349.317"/>
<polygon fill="midnightblue" stroke="midnightblue" points="1002.5,-352.694 1011.74,-347.51 1001.28,-345.8 1002.5,-352.694"/>
</g>
<!-- Node44 -->
<g id="node44" class="node"><title>Node44</title>
<g id="a_node44"><a xlink:href="../../d0/dae/ITSMFT_2common_2simulation_2include_2ITSMFTSimulation_2Hit_8h.html" target="_top" xlink:title="ITSMFTSimulation/Hit.h">
<polygon fill="none" stroke="black" points="2111,-266.5 2111,-285.5 2233,-285.5 2233,-266.5 2111,-266.5"/>
<text text-anchor="middle" x="2172" y="-273.5" font-family="Helvetica,sans-Serif" font-size="10.00">ITSMFTSimulation/Hit.h</text>
</a>
</g>
</g>
<!-- Node1&#45;&gt;Node44 -->
<g id="edge64" class="edge"><title>Node1&#45;&gt;Node44</title>
<path fill="none" stroke="midnightblue" d="M710.056,-407.751C979.944,-383.613 1845.47,-306.204 2100.59,-283.387"/>
<polygon fill="midnightblue" stroke="midnightblue" points="2101.19,-286.847 2110.84,-282.47 2100.57,-279.875 2101.19,-286.847"/>
</g>
<!-- Node5&#45;&gt;Node4 -->
<g id="edge5" class="edge"><title>Node5&#45;&gt;Node4</title>
<path fill="none" stroke="midnightblue" d="M670.374,-266.399C657.73,-257.531 639.735,-242.421 632,-224 616.858,-187.939 611.796,-169.489 632,-136 682.866,-51.6874 808.422,-27.0417 871.921,-19.89"/>
<polygon fill="midnightblue" stroke="midnightblue" points="872.34,-23.3653 881.925,-18.8509 871.617,-16.4028 872.34,-23.3653"/>
</g>
<!-- Node6&#45;&gt;Node4 -->
<g id="edge9" class="edge"><title>Node6&#45;&gt;Node4</title>
<path fill="none" stroke="midnightblue" d="M1123.94,-328.47C1183.45,-320.228 1274.49,-306.836 1353,-292 1448.57,-273.941 2146.24,-175.94 2207,-100 2215.89,-88.8951 2216.86,-78.2523 2207,-68 2162.27,-21.4715 1158.49,-17.3769 948.358,-17.0299"/>
<polygon fill="midnightblue" stroke="midnightblue" points="948.132,-13.5296 938.126,-17.015 948.121,-20.5296 948.132,-13.5296"/>
</g>
<!-- Node6&#45;&gt;Node5 -->
<g id="edge44" class="edge"><title>Node6&#45;&gt;Node5</title>
<path fill="none" stroke="midnightblue" d="M1006.53,-328.467C938.173,-317.559 819.991,-298.701 747.242,-287.092"/>
<polygon fill="midnightblue" stroke="midnightblue" points="747.714,-283.623 737.288,-285.503 746.611,-290.536 747.714,-283.623"/>
</g>
<!-- Node7 -->
<g id="node7" class="node"><title>Node7</title>
<polygon fill="none" stroke="#bfbfbf" points="1033,-136.5 1033,-155.5 1077,-155.5 1077,-136.5 1033,-136.5"/>
<text text-anchor="middle" x="1055" y="-143.5" font-family="Helvetica,sans-Serif" font-size="10.00">vector</text>
</g>
<!-- Node6&#45;&gt;Node7 -->
<g id="edge7" class="edge"><title>Node6&#45;&gt;Node7</title>
<path fill="none" stroke="midnightblue" d="M1061.12,-328.112C1063.2,-313.411 1068.45,-283.338 1079,-260 1087.02,-242.249 1098.18,-242.589 1104,-224 1108.25,-210.428 1109.72,-205.021 1104,-192 1098.61,-179.732 1088.04,-169.341 1078.1,-161.646"/>
<polygon fill="midnightblue" stroke="midnightblue" points="1079.83,-158.581 1069.66,-155.598 1075.75,-164.27 1079.83,-158.581"/>
</g>
<!-- Node8 -->
<g id="node8" class="node"><title>Node8</title>
<polygon fill="none" stroke="#bfbfbf" points="1292,-266.5 1292,-285.5 1344,-285.5 1344,-266.5 1292,-266.5"/>
<text text-anchor="middle" x="1318" y="-273.5" font-family="Helvetica,sans-Serif" font-size="10.00">memory</text>
</g>
<!-- Node6&#45;&gt;Node8 -->
<g id="edge8" class="edge"><title>Node6&#45;&gt;Node8</title>
<path fill="none" stroke="midnightblue" d="M1112.98,-328.439C1157.47,-320.685 1222.49,-308.031 1278,-292 1281.14,-291.095 1284.37,-290.057 1287.59,-288.96"/>
<polygon fill="midnightblue" stroke="midnightblue" points="1288.81,-292.241 1297.03,-285.561 1286.44,-285.655 1288.81,-292.241"/>
</g>
<!-- Node9 -->
<g id="node9" class="node"><title>Node9</title>
<polygon fill="none" stroke="#bfbfbf" points="1129.5,-136.5 1129.5,-155.5 1188.5,-155.5 1188.5,-136.5 1129.5,-136.5"/>
<text text-anchor="middle" x="1159" y="-143.5" font-family="Helvetica,sans-Serif" font-size="10.00">TObject.h</text>
</g>
<!-- Node6&#45;&gt;Node9 -->
<g id="edge10" class="edge"><title>Node6&#45;&gt;Node9</title>
<path fill="none" stroke="midnightblue" d="M1132.8,-328.432C1178,-321.447 1230.04,-309.785 1244,-292 1278.38,-248.198 1214.27,-189.128 1179.41,-161.891"/>
<polygon fill="midnightblue" stroke="midnightblue" points="1181.33,-158.954 1171.25,-155.681 1177.09,-164.523 1181.33,-158.954"/>
</g>
<!-- Node10 -->
<g id="node10" class="node"><title>Node10</title>
<g id="a_node10"><a xlink:href="../../d7/d9e/SimulationAlpide_8h.html" target="_top" xlink:title="Simulation of the ALIPIDE chip response. ">
<polygon fill="none" stroke="black" points="1088.5,-261 1088.5,-291 1235.5,-291 1235.5,-261 1088.5,-261"/>
<text text-anchor="start" x="1096.5" y="-279" font-family="Helvetica,sans-Serif" font-size="10.00">ITSMFTSimulation/Simulation</text>
<text text-anchor="middle" x="1162" y="-268" font-family="Helvetica,sans-Serif" font-size="10.00">Alpide.h</text>
</a>
</g>
</g>
<!-- Node6&#45;&gt;Node10 -->
<g id="edge11" class="edge"><title>Node6&#45;&gt;Node10</title>
<path fill="none" stroke="midnightblue" d="M1074.61,-328.403C1088.82,-320.049 1110.87,-307.075 1129.27,-296.252"/>
<polygon fill="midnightblue" stroke="midnightblue" points="1131.12,-299.228 1137.96,-291.141 1127.57,-293.194 1131.12,-299.228"/>
</g>
<!-- Node30 -->
<g id="node30" class="node"><title>Node30</title>
<g id="a_node30"><a xlink:href="../../dc/d1a/AlpideSimResponse_8h.html" target="_top" xlink:title="Definition of the ITSMFT Alpide simulated response parametrization. ">
<polygon fill="none" stroke="black" points="949,-193 949,-223 1095,-223 1095,-193 949,-193"/>
<text text-anchor="start" x="957" y="-211" font-family="Helvetica,sans-Serif" font-size="10.00">ITSMFTSimulation/AlpideSim</text>
<text text-anchor="middle" x="1022" y="-200" font-family="Helvetica,sans-Serif" font-size="10.00">Response.h</text>
</a>
</g>
</g>
<!-- Node6&#45;&gt;Node30 -->
<g id="edge43" class="edge"><title>Node6&#45;&gt;Node30</title>
<path fill="none" stroke="midnightblue" d="M1057.26,-328.389C1054.4,-319.343 1049.81,-304.695 1046,-292 1040.06,-272.2 1033.56,-249.665 1028.82,-233.077"/>
<polygon fill="midnightblue" stroke="midnightblue" points="1032.09,-231.784 1025.99,-223.124 1025.36,-233.7 1032.09,-231.784"/>
</g>
<!-- Node33 -->
<g id="node33" class="node"><title>Node33</title>
<g id="a_node33"><a xlink:href="../../d0/d2d/common_2base_2include_2ITSMFTBase_2GeometryTGeo_8h.html" target="_top" xlink:title="ITSMFTBase/GeometryTGeo.h">
<polygon fill="none" stroke="black" points="811.5,-266.5 811.5,-285.5 964.5,-285.5 964.5,-266.5 811.5,-266.5"/>
<text text-anchor="middle" x="888" y="-273.5" font-family="Helvetica,sans-Serif" font-size="10.00">ITSMFTBase/GeometryTGeo.h</text>
</a>
</g>
</g>
<!-- Node6&#45;&gt;Node33 -->
<g id="edge45" class="edge"><title>Node6&#45;&gt;Node33</title>
<path fill="none" stroke="midnightblue" d="M1035.36,-328.403C1005.72,-318.067 955.815,-300.656 922.398,-288.999"/>
<polygon fill="midnightblue" stroke="midnightblue" points="923.193,-285.57 912.598,-285.581 920.887,-292.179 923.193,-285.57"/>
</g>
<!-- Node10&#45;&gt;Node9 -->
<g id="edge12" class="edge"><title>Node10&#45;&gt;Node9</title>
<path fill="none" stroke="midnightblue" d="M1161.67,-260.813C1161.13,-237.67 1160.05,-191.785 1159.44,-165.904"/>
<polygon fill="midnightblue" stroke="midnightblue" points="1162.93,-165.489 1159.2,-155.574 1155.94,-165.653 1162.93,-165.489"/>
</g>
<!-- Node11 -->
<g id="node11" class="node"><title>Node11</title>
<g id="a_node11"><a xlink:href="../../d9/d55/Chip_8h.html" target="_top" xlink:title="ITSMFTSimulation/Chip.h">
<polygon fill="none" stroke="black" points="1296,-198.5 1296,-217.5 1426,-217.5 1426,-198.5 1296,-198.5"/>
<text text-anchor="middle" x="1361" y="-205.5" font-family="Helvetica,sans-Serif" font-size="10.00">ITSMFTSimulation/Chip.h</text>
</a>
</g>
</g>
<!-- Node10&#45;&gt;Node11 -->
<g id="edge13" class="edge"><title>Node10&#45;&gt;Node11</title>
<path fill="none" stroke="midnightblue" d="M1204.69,-260.841C1240.6,-248.93 1291.37,-232.094 1325.19,-220.876"/>
<polygon fill="midnightblue" stroke="midnightblue" points="1326.72,-224.057 1335.11,-217.587 1324.52,-217.413 1326.72,-224.057"/>
</g>
<!-- Node10&#45;&gt;Node30 -->
<g id="edge38" class="edge"><title>Node10&#45;&gt;Node30</title>
<path fill="none" stroke="midnightblue" d="M1131.97,-260.841C1111.3,-251.098 1083.64,-238.058 1061.23,-227.494"/>
<polygon fill="midnightblue" stroke="midnightblue" points="1062.52,-224.234 1051.98,-223.135 1059.54,-230.565 1062.52,-224.234"/>
</g>
<!-- Node11&#45;&gt;Node7 -->
<g id="edge16" class="edge"><title>Node11&#45;&gt;Node7</title>
<path fill="none" stroke="midnightblue" d="M1317.48,-198.467C1255.32,-186.279 1142.53,-164.163 1087.27,-153.328"/>
<polygon fill="midnightblue" stroke="midnightblue" points="1087.82,-149.868 1077.33,-151.379 1086.47,-156.738 1087.82,-149.868"/>
</g>
<!-- Node11&#45;&gt;Node9 -->
<g id="edge18" class="edge"><title>Node11&#45;&gt;Node9</title>
<path fill="none" stroke="midnightblue" d="M1332.06,-198.403C1296.73,-187.911 1236.87,-170.129 1197.64,-158.476"/>
<polygon fill="midnightblue" stroke="midnightblue" points="1198.47,-155.073 1187.89,-155.581 1196.48,-161.783 1198.47,-155.073"/>
</g>
<!-- Node12 -->
<g id="node12" class="node"><title>Node12</title>
<polygon fill="none" stroke="#bfbfbf" points="1331.5,-136.5 1331.5,-155.5 1390.5,-155.5 1390.5,-136.5 1331.5,-136.5"/>
<text text-anchor="middle" x="1361" y="-143.5" font-family="Helvetica,sans-Serif" font-size="10.00">exception</text>
</g>
<!-- Node11&#45;&gt;Node12 -->
<g id="edge14" class="edge"><title>Node11&#45;&gt;Node12</title>
<path fill="none" stroke="midnightblue" d="M1361,-198.403C1361,-189.938 1361,-176.728 1361,-165.82"/>
<polygon fill="midnightblue" stroke="midnightblue" points="1364.5,-165.581 1361,-155.581 1357.5,-165.581 1364.5,-165.581"/>
</g>
<!-- Node13 -->
<g id="node13" class="node"><title>Node13</title>
<polygon fill="none" stroke="#bfbfbf" points="1409,-136.5 1409,-155.5 1461,-155.5 1461,-136.5 1409,-136.5"/>
<text text-anchor="middle" x="1435" y="-143.5" font-family="Helvetica,sans-Serif" font-size="10.00">sstream</text>
</g>
<!-- Node11&#45;&gt;Node13 -->
<g id="edge15" class="edge"><title>Node11&#45;&gt;Node13</title>
<path fill="none" stroke="midnightblue" d="M1371.6,-198.403C1383.25,-188.958 1402.19,-173.606 1416.33,-162.134"/>
<polygon fill="midnightblue" stroke="midnightblue" points="1418.85,-164.597 1424.42,-155.581 1414.45,-159.16 1418.85,-164.597"/>
</g>
<!-- Node14 -->
<g id="node14" class="node"><title>Node14</title>
<polygon fill="none" stroke="#bfbfbf" points="1479.5,-136.5 1479.5,-155.5 1514.5,-155.5 1514.5,-136.5 1479.5,-136.5"/>
<text text-anchor="middle" x="1497" y="-143.5" font-family="Helvetica,sans-Serif" font-size="10.00">map</text>
</g>
<!-- Node11&#45;&gt;Node14 -->
<g id="edge17" class="edge"><title>Node11&#45;&gt;Node14</title>
<path fill="none" stroke="midnightblue" d="M1380.49,-198.403C1403.93,-188.06 1443.43,-170.633 1469.86,-158.975"/>
<polygon fill="midnightblue" stroke="midnightblue" points="1471.55,-162.056 1479.28,-154.817 1468.72,-155.651 1471.55,-162.056"/>
</g>
<!-- Node15 -->
<g id="node15" class="node"><title>Node15</title>
<g id="a_node15"><a xlink:href="../../d0/d06/ITSMFT_2common_2base_2include_2ITSMFTBase_2Digit_8h.html" target="_top" xlink:title="ITSMFTBase/Digit.h">
<polygon fill="none" stroke="black" points="1206.5,-136.5 1206.5,-155.5 1313.5,-155.5 1313.5,-136.5 1206.5,-136.5"/>
<text text-anchor="middle" x="1260" y="-143.5" font-family="Helvetica,sans-Serif" font-size="10.00">ITSMFTBase/Digit.h</text>
</a>
</g>
</g>
<!-- Node11&#45;&gt;Node15 -->
<g id="edge19" class="edge"><title>Node11&#45;&gt;Node15</title>
<path fill="none" stroke="midnightblue" d="M1346.53,-198.403C1329.95,-188.557 1302.57,-172.291 1283.05,-160.695"/>
<polygon fill="midnightblue" stroke="midnightblue" points="1284.83,-157.679 1274.44,-155.581 1281.25,-163.697 1284.83,-157.679"/>
</g>
<!-- Node17 -->
<g id="node17" class="node"><title>Node17</title>
<g id="a_node17"><a xlink:href="../../d7/dcd/MCCompLabel_8h.html" target="_top" xlink:title="SimulationDataFormat\l/MCCompLabel.h">
<polygon fill="none" stroke="black" points="2084,-69 2084,-99 2198,-99 2198,-69 2084,-69"/>
<text text-anchor="start" x="2092" y="-87" font-family="Helvetica,sans-Serif" font-size="10.00">SimulationDataFormat</text>
<text text-anchor="middle" x="2141" y="-76" font-family="Helvetica,sans-Serif" font-size="10.00">/MCCompLabel.h</text>
</a>
</g>
</g>
<!-- Node11&#45;&gt;Node17 -->
<g id="edge25" class="edge"><title>Node11&#45;&gt;Node17</title>
<path fill="none" stroke="midnightblue" d="M1426.14,-198.806C1550.15,-182.862 1828.77,-145.387 2073.52,-100.008"/>
<polygon fill="midnightblue" stroke="midnightblue" points="2074.48,-103.388 2083.67,-98.1165 2073.2,-96.5065 2074.48,-103.388"/>
</g>
<!-- Node19 -->
<g id="node19" class="node"><title>Node19</title>
<g id="a_node19"><a xlink:href="../../dd/d76/Cartesian3D_8h.html" target="_top" xlink:title="MathUtils/Cartesian3D.h">
<polygon fill="none" stroke="black" points="1549.5,-136.5 1549.5,-155.5 1674.5,-155.5 1674.5,-136.5 1549.5,-136.5"/>
<text text-anchor="middle" x="1612" y="-143.5" font-family="Helvetica,sans-Serif" font-size="10.00">MathUtils/Cartesian3D.h</text>
</a>
</g>
</g>
<!-- Node11&#45;&gt;Node19 -->
<g id="edge26" class="edge"><title>Node11&#45;&gt;Node19</title>
<path fill="none" stroke="midnightblue" d="M1396.7,-198.467C1441.3,-187.805 1517.69,-169.545 1566.46,-157.886"/>
<polygon fill="midnightblue" stroke="midnightblue" points="1567.52,-161.232 1576.43,-155.503 1565.89,-154.424 1567.52,-161.232"/>
</g>
<!-- Node15&#45;&gt;Node4 -->
<g id="edge24" class="edge"><title>Node15&#45;&gt;Node4</title>
<path fill="none" stroke="midnightblue" d="M1213.48,-136.492C1164.55,-127.148 1091.08,-111.892 1065,-100 1043,-89.9683 1041.87,-80.2187 1021,-68 995.174,-52.8772 964.092,-38.9299 941.396,-29.4574"/>
<polygon fill="midnightblue" stroke="midnightblue" points="942.495,-26.1249 931.915,-25.5568 939.831,-32.5984 942.495,-26.1249"/>
</g>
<!-- Node16 -->
<g id="node16" class="node"><title>Node16</title>
<polygon fill="none" stroke="#bfbfbf" points="917.5,-69 917.5,-99 1012.5,-99 1012.5,-69 917.5,-69"/>
<text text-anchor="start" x="925.5" y="-87" font-family="Helvetica,sans-Serif" font-size="10.00">boost/serialization</text>
<text text-anchor="middle" x="965" y="-76" font-family="Helvetica,sans-Serif" font-size="10.00">/base_object.hpp</text>
</g>
<!-- Node15&#45;&gt;Node16 -->
<g id="edge20" class="edge"><title>Node15&#45;&gt;Node16</title>
<path fill="none" stroke="midnightblue" d="M1212.12,-136.427C1164.92,-127.817 1090.81,-113.873 1027,-100 1025.55,-99.6839 1024.07,-99.3596 1022.59,-99.0289"/>
<polygon fill="midnightblue" stroke="midnightblue" points="1023.2,-95.5792 1012.68,-96.7715 1021.65,-102.405 1023.2,-95.5792"/>
</g>
<!-- Node15&#45;&gt;Node17 -->
<g id="edge21" class="edge"><title>Node15&#45;&gt;Node17</title>
<path fill="none" stroke="midnightblue" d="M1313.58,-136.997C1316.76,-136.63 1319.92,-136.293 1323,-136 1652.41,-104.645 1741.11,-143.887 2073.82,-99.8298"/>
<polygon fill="midnightblue" stroke="midnightblue" points="2074.29,-103.298 2083.74,-98.5019 2073.36,-96.3604 2074.29,-103.298"/>
</g>
<!-- Node18 -->
<g id="node18" class="node"><title>Node18</title>
<polygon fill="none" stroke="#bfbfbf" points="807,-74.5 807,-93.5 899,-93.5 899,-74.5 807,-74.5"/>
<text text-anchor="middle" x="853" y="-81.5" font-family="Helvetica,sans-Serif" font-size="10.00">FairTimeStamp.h</text>
</g>
<!-- Node15&#45;&gt;Node18 -->
<g id="edge23" class="edge"><title>Node15&#45;&gt;Node18</title>
<path fill="none" stroke="midnightblue" d="M1206.39,-137.275C1203.22,-136.838 1200.07,-136.41 1197,-136 1068.7,-118.847 1034.98,-125.092 908,-100 902.538,-98.9208 896.821,-97.5916 891.225,-96.1744"/>
<polygon fill="midnightblue" stroke="midnightblue" points="891.926,-92.7395 881.363,-93.5635 890.134,-99.5063 891.926,-92.7395"/>
</g>
<!-- Node17&#45;&gt;Node4 -->
<g id="edge22" class="edge"><title>Node17&#45;&gt;Node4</title>
<path fill="none" stroke="midnightblue" d="M2083.74,-69.4824C2080.45,-68.9248 2077.19,-68.4236 2074,-68 1848.88,-38.1065 1123.19,-21.4176 948.221,-17.767"/>
<polygon fill="midnightblue" stroke="midnightblue" points="948.267,-14.2673 938.196,-17.5596 948.122,-21.2658 948.267,-14.2673"/>
</g>
<!-- Node19&#45;&gt;Node4 -->
<g id="edge30" class="edge"><title>Node19&#45;&gt;Node4</title>
<path fill="none" stroke="midnightblue" d="M1549.29,-138.529C1540.46,-137.656 1531.5,-136.79 1523,-136 1428.62,-127.232 1186.24,-134.594 1098,-100 1076.48,-91.5632 1077.3,-79.0484 1057,-68 1022.04,-48.9759 978.625,-34.9561 948.071,-26.4821"/>
<polygon fill="midnightblue" stroke="midnightblue" points="948.8,-23.0535 938.233,-23.8217 946.972,-29.8108 948.8,-23.0535"/>
</g>
<!-- Node20 -->
<g id="node20" class="node"><title>Node20</title>
<polygon fill="none" stroke="#bfbfbf" points="1916.5,-74.5 1916.5,-93.5 2065.5,-93.5 2065.5,-74.5 1916.5,-74.5"/>
<text text-anchor="middle" x="1991" y="-81.5" font-family="Helvetica,sans-Serif" font-size="10.00">Math/GenVector/Rotation3D.h</text>
</g>
<!-- Node19&#45;&gt;Node20 -->
<g id="edge27" class="edge"><title>Node19&#45;&gt;Node20</title>
<path fill="none" stroke="midnightblue" d="M1670.84,-136.473C1730.43,-127.731 1825.22,-113.537 1907,-100 1915.91,-98.5254 1925.34,-96.9026 1934.53,-95.2859"/>
<polygon fill="midnightblue" stroke="midnightblue" points="1935.15,-98.7315 1944.38,-93.5411 1933.93,-91.8388 1935.15,-98.7315"/>
</g>
<!-- Node21 -->
<g id="node21" class="node"><title>Node21</title>
<polygon fill="none" stroke="#bfbfbf" points="1107,-74.5 1107,-93.5 1263,-93.5 1263,-74.5 1107,-74.5"/>
<text text-anchor="middle" x="1185" y="-81.5" font-family="Helvetica,sans-Serif" font-size="10.00">Math/GenVector/Transform3D.h</text>
</g>
<!-- Node19&#45;&gt;Node21 -->
<g id="edge28" class="edge"><title>Node19&#45;&gt;Node21</title>
<path fill="none" stroke="midnightblue" d="M1549.23,-137.439C1480.92,-129.037 1368.54,-114.705 1272,-100 1262.44,-98.5439 1252.31,-96.8946 1242.47,-95.2357"/>
<polygon fill="midnightblue" stroke="midnightblue" points="1242.8,-91.7419 1232.36,-93.5111 1241.63,-98.6423 1242.8,-91.7419"/>
</g>
<!-- Node22 -->
<g id="node22" class="node"><title>Node22</title>
<polygon fill="none" stroke="#bfbfbf" points="1281,-74.5 1281,-93.5 1441,-93.5 1441,-74.5 1281,-74.5"/>
<text text-anchor="middle" x="1361" y="-81.5" font-family="Helvetica,sans-Serif" font-size="10.00">Math/GenVector/Translation3D.h</text>
</g>
<!-- Node19&#45;&gt;Node22 -->
<g id="edge29" class="edge"><title>Node19&#45;&gt;Node22</title>
<path fill="none" stroke="midnightblue" d="M1576.3,-136.467C1531.7,-125.805 1455.31,-107.545 1406.54,-95.886"/>
<polygon fill="midnightblue" stroke="midnightblue" points="1407.11,-92.4243 1396.57,-93.5034 1405.48,-99.2325 1407.11,-92.4243"/>
</g>
<!-- Node23 -->
<g id="node23" class="node"><title>Node23</title>
<polygon fill="none" stroke="#bfbfbf" points="1459,-74.5 1459,-93.5 1535,-93.5 1535,-74.5 1459,-74.5"/>
<text text-anchor="middle" x="1497" y="-81.5" font-family="Helvetica,sans-Serif" font-size="10.00">TGeoMatrix.h</text>
</g>
<!-- Node19&#45;&gt;Node23 -->
<g id="edge31" class="edge"><title>Node19&#45;&gt;Node23</title>
<path fill="none" stroke="midnightblue" d="M1595.52,-136.403C1576.39,-126.423 1544.63,-109.849 1522.35,-98.2253"/>
<polygon fill="midnightblue" stroke="midnightblue" points="1523.93,-95.1033 1513.45,-93.5806 1520.69,-101.309 1523.93,-95.1033"/>
</g>
<!-- Node24 -->
<g id="node24" class="node"><title>Node24</title>
<polygon fill="none" stroke="#bfbfbf" points="1553.5,-69 1553.5,-99 1704.5,-99 1704.5,-69 1553.5,-69"/>
<text text-anchor="start" x="1561.5" y="-87" font-family="Helvetica,sans-Serif" font-size="10.00">Math/GenVector/Displacement</text>
<text text-anchor="middle" x="1629" y="-76" font-family="Helvetica,sans-Serif" font-size="10.00">Vector3D.h</text>
</g>
<!-- Node19&#45;&gt;Node24 -->
<g id="edge32" class="edge"><title>Node19&#45;&gt;Node24</title>
<path fill="none" stroke="midnightblue" d="M1614.44,-136.403C1616.48,-129.189 1619.5,-118.528 1622.26,-108.782"/>
<polygon fill="midnightblue" stroke="midnightblue" points="1625.63,-109.716 1624.99,-99.1408 1618.9,-107.808 1625.63,-109.716"/>
</g>
<!-- Node25 -->
<g id="node25" class="node"><title>Node25</title>
<polygon fill="none" stroke="#bfbfbf" points="1723,-74.5 1723,-93.5 1899,-93.5 1899,-74.5 1723,-74.5"/>
<text text-anchor="middle" x="1811" y="-81.5" font-family="Helvetica,sans-Serif" font-size="10.00">Math/GenVector/PositionVector3D.h</text>
</g>
<!-- Node19&#45;&gt;Node25 -->
<g id="edge33" class="edge"><title>Node19&#45;&gt;Node25</title>
<path fill="none" stroke="midnightblue" d="M1640.51,-136.403C1675.24,-125.933 1734.04,-108.205 1772.69,-96.5501"/>
<polygon fill="midnightblue" stroke="midnightblue" points="1773.98,-99.8184 1782.54,-93.5806 1771.96,-93.1164 1773.98,-99.8184"/>
</g>
<!-- Node26 -->
<g id="node26" class="node"><title>Node26</title>
<g id="a_node26"><a xlink:href="../../d2/dd0/Cartesian2D_8h.html" target="_top" xlink:title="MathUtils/Cartesian2D.h">
<polygon fill="none" stroke="black" points="2292.5,-74.5 2292.5,-93.5 2417.5,-93.5 2417.5,-74.5 2292.5,-74.5"/>
<text text-anchor="middle" x="2355" y="-81.5" font-family="Helvetica,sans-Serif" font-size="10.00">MathUtils/Cartesian2D.h</text>
</a>
</g>
</g>
<!-- Node19&#45;&gt;Node26 -->
<g id="edge34" class="edge"><title>Node19&#45;&gt;Node26</title>
<path fill="none" stroke="midnightblue" d="M1674.58,-140.795C1783.05,-133.387 2013,-117.164 2207,-100 2231.54,-97.8292 2258.33,-95.1939 2282.3,-92.7415"/>
<polygon fill="midnightblue" stroke="midnightblue" points="2282.79,-96.2092 2292.38,-91.7035 2282.08,-89.246 2282.79,-96.2092"/>
</g>
<!-- Node29 -->
<g id="node29" class="node"><title>Node29</title>
<polygon fill="none" stroke="#bfbfbf" points="2436,-74.5 2436,-93.5 2490,-93.5 2490,-74.5 2436,-74.5"/>
<text text-anchor="middle" x="2463" y="-81.5" font-family="Helvetica,sans-Serif" font-size="10.00">iostream</text>
</g>
<!-- Node19&#45;&gt;Node29 -->
<g id="edge37" class="edge"><title>Node19&#45;&gt;Node29</title>
<path fill="none" stroke="midnightblue" d="M1674.64,-144.197C1839.6,-141.659 2283.13,-131.976 2426,-100 2429.25,-99.2733 2432.58,-98.2918 2435.84,-97.1765"/>
<polygon fill="midnightblue" stroke="midnightblue" points="2437.23,-100.394 2445.32,-93.5507 2434.73,-93.8571 2437.23,-100.394"/>
</g>
<!-- Node27 -->
<g id="node27" class="node"><title>Node27</title>
<polygon fill="none" stroke="#bfbfbf" points="2188.5,-1 2188.5,-31 2339.5,-31 2339.5,-1 2188.5,-1"/>
<text text-anchor="start" x="2196.5" y="-19" font-family="Helvetica,sans-Serif" font-size="10.00">Math/GenVector/Displacement</text>
<text text-anchor="middle" x="2264" y="-8" font-family="Helvetica,sans-Serif" font-size="10.00">Vector2D.h</text>
</g>
<!-- Node26&#45;&gt;Node27 -->
<g id="edge35" class="edge"><title>Node26&#45;&gt;Node27</title>
<path fill="none" stroke="midnightblue" d="M2343.1,-74.3717C2330.22,-65.0286 2309.22,-49.7966 2292.09,-37.375"/>
<polygon fill="midnightblue" stroke="midnightblue" points="2293.7,-34.2194 2283.55,-31.1815 2289.59,-39.8859 2293.7,-34.2194"/>
</g>
<!-- Node28 -->
<g id="node28" class="node"><title>Node28</title>
<polygon fill="none" stroke="#bfbfbf" points="2358,-6.5 2358,-25.5 2534,-25.5 2534,-6.5 2358,-6.5"/>
<text text-anchor="middle" x="2446" y="-13.5" font-family="Helvetica,sans-Serif" font-size="10.00">Math/GenVector/PositionVector2D.h</text>
</g>
<!-- Node26&#45;&gt;Node28 -->
<g id="edge36" class="edge"><title>Node26&#45;&gt;Node28</title>
<path fill="none" stroke="midnightblue" d="M2366.9,-74.3717C2381.88,-63.5015 2407.86,-44.6602 2425.94,-31.5474"/>
<polygon fill="midnightblue" stroke="midnightblue" points="2428.06,-34.3349 2434.1,-25.6305 2423.95,-28.6684 2428.06,-34.3349"/>
</g>
<!-- Node30&#45;&gt;Node4 -->
<g id="edge42" class="edge"><title>Node30&#45;&gt;Node4</title>
<path fill="none" stroke="midnightblue" d="M948.812,-193.333C896.914,-179.409 830.872,-152.132 798,-100 790.414,-87.9697 790.304,-79.9603 798,-68 814.228,-42.7796 846.332,-29.8836 872.023,-23.3791"/>
<polygon fill="midnightblue" stroke="midnightblue" points="872.904,-26.768 881.863,-21.1128 871.333,-19.9466 872.904,-26.768"/>
</g>
<!-- Node30&#45;&gt;Node7 -->
<g id="edge41" class="edge"><title>Node30&#45;&gt;Node7</title>
<path fill="none" stroke="midnightblue" d="M1029.82,-192.781C1034.47,-184.332 1040.4,-173.548 1045.34,-164.569"/>
<polygon fill="midnightblue" stroke="midnightblue" points="1048.45,-166.179 1050.2,-155.731 1042.31,-162.806 1048.45,-166.179"/>
</g>
<!-- Node31 -->
<g id="node31" class="node"><title>Node31</title>
<polygon fill="none" stroke="#bfbfbf" points="226,-6.5 226,-25.5 264,-25.5 264,-6.5 226,-6.5"/>
<text text-anchor="middle" x="245" y="-13.5" font-family="Helvetica,sans-Serif" font-size="10.00">array</text>
</g>
<!-- Node30&#45;&gt;Node31 -->
<g id="edge39" class="edge"><title>Node30&#45;&gt;Node31</title>
<path fill="none" stroke="midnightblue" d="M948.812,-197.22C933.06,-195.313 916.49,-193.457 901,-192 776.846,-180.324 456.796,-202.278 341,-156 304.962,-141.598 296.085,-131.913 274,-100 260.326,-80.2407 252.503,-53.3962 248.506,-35.6525"/>
<polygon fill="midnightblue" stroke="midnightblue" points="251.9,-34.7846 246.451,-25.6988 245.045,-36.2 251.9,-34.7846"/>
</g>
<!-- Node32 -->
<g id="node32" class="node"><title>Node32</title>
<polygon fill="none" stroke="#bfbfbf" points="769.5,-136.5 769.5,-155.5 810.5,-155.5 810.5,-136.5 769.5,-136.5"/>
<text text-anchor="middle" x="790" y="-143.5" font-family="Helvetica,sans-Serif" font-size="10.00">string</text>
</g>
<!-- Node30&#45;&gt;Node32 -->
<g id="edge40" class="edge"><title>Node30&#45;&gt;Node32</title>
<path fill="none" stroke="midnightblue" d="M967.606,-192.933C921.699,-181.06 857.656,-164.497 820.336,-154.846"/>
<polygon fill="midnightblue" stroke="midnightblue" points="821.114,-151.432 810.556,-152.316 819.361,-158.209 821.114,-151.432"/>
</g>
<!-- Node33&#45;&gt;Node32 -->
<g id="edge63" class="edge"><title>Node33&#45;&gt;Node32</title>
<path fill="none" stroke="midnightblue" d="M892.965,-266.386C901.51,-250.3 916.646,-215.226 901,-192 891.647,-178.116 850.148,-163.895 820.64,-155.254"/>
<polygon fill="midnightblue" stroke="midnightblue" points="821.352,-151.817 810.776,-152.439 819.432,-158.548 821.352,-151.817"/>
</g>
<!-- Node34 -->
<g id="node34" class="node"><title>Node34</title>
<g id="a_node34"><a xlink:href="../../d4/d20/DetMatrixCache_8h.html" target="_top" xlink:title="DetectorsBase/DetMatrixCache.h">
<polygon fill="none" stroke="black" points="641,-198.5 641,-217.5 805,-217.5 805,-198.5 641,-198.5"/>
<text text-anchor="middle" x="723" y="-205.5" font-family="Helvetica,sans-Serif" font-size="10.00">DetectorsBase/DetMatrixCache.h</text>
</a>
</g>
</g>
<!-- Node33&#45;&gt;Node34 -->
<g id="edge46" class="edge"><title>Node33&#45;&gt;Node34</title>
<path fill="none" stroke="midnightblue" d="M866.429,-266.372C837.692,-254.877 786.672,-234.469 753.866,-221.346"/>
<polygon fill="midnightblue" stroke="midnightblue" points="754.899,-217.99 744.315,-217.526 752.3,-224.49 754.899,-217.99"/>
</g>
<!-- Node43 -->
<g id="node43" class="node"><title>Node43</title>
<polygon fill="none" stroke="#bfbfbf" points="823.5,-198.5 823.5,-217.5 892.5,-217.5 892.5,-198.5 823.5,-198.5"/>
<text text-anchor="middle" x="858" y="-205.5" font-family="Helvetica,sans-Serif" font-size="10.00">TObjArray.h</text>
</g>
<!-- Node33&#45;&gt;Node43 -->
<g id="edge62" class="edge"><title>Node33&#45;&gt;Node43</title>
<path fill="none" stroke="midnightblue" d="M884.078,-266.372C879.566,-256.446 872.034,-239.874 866.221,-227.086"/>
<polygon fill="midnightblue" stroke="midnightblue" points="869.343,-225.496 862.019,-217.841 862.97,-228.393 869.343,-225.496"/>
</g>
<!-- Node34&#45;&gt;Node4 -->
<g id="edge60" class="edge"><title>Node34&#45;&gt;Node4</title>
<path fill="none" stroke="midnightblue" d="M724.856,-198.223C730.372,-174.165 748.847,-106.409 789,-68 811.978,-46.0203 845.838,-32.8518 871.9,-25.418"/>
<polygon fill="midnightblue" stroke="midnightblue" points="873.073,-28.7272 881.823,-22.7535 871.257,-21.9667 873.073,-28.7272"/>
</g>
<!-- Node34&#45;&gt;Node7 -->
<g id="edge47" class="edge"><title>Node34&#45;&gt;Node7</title>
<path fill="none" stroke="midnightblue" d="M770.215,-198.467C838.781,-186.076 964.126,-163.423 1022.93,-152.795"/>
<polygon fill="midnightblue" stroke="midnightblue" points="1023.56,-156.238 1032.78,-151.015 1022.32,-149.35 1023.56,-156.238"/>
</g>
<!-- Node34&#45;&gt;Node19 -->
<g id="edge49" class="edge"><title>Node34&#45;&gt;Node19</title>
<path fill="none" stroke="midnightblue" d="M768.69,-198.436C783.136,-196.006 799.194,-193.591 814,-192 1127.71,-158.289 1208.39,-179.88 1523,-156 1528.32,-155.596 1533.82,-155.138 1539.35,-154.648"/>
<polygon fill="midnightblue" stroke="midnightblue" points="1539.67,-158.134 1549.31,-153.737 1539.03,-151.163 1539.67,-158.134"/>
</g>
<!-- Node34&#45;&gt;Node31 -->
<g id="edge48" class="edge"><title>Node34&#45;&gt;Node31</title>
<path fill="none" stroke="midnightblue" d="M640.77,-204.299C508.764,-199.107 261.602,-185.527 235,-156 204.856,-122.541 223.835,-64.2508 236.438,-34.9289"/>
<polygon fill="midnightblue" stroke="midnightblue" points="239.754,-36.0899 240.69,-25.5364 233.377,-33.203 239.754,-36.0899"/>
</g>
<!-- Node35 -->
<g id="node35" class="node"><title>Node35</title>
<g id="a_node35"><a xlink:href="../../d6/d31/DetID_8h.html" target="_top" xlink:title="DetectorsBase/DetID.h">
<polygon fill="none" stroke="black" points="350.5,-136.5 350.5,-155.5 469.5,-155.5 469.5,-136.5 350.5,-136.5"/>
<text text-anchor="middle" x="410" y="-143.5" font-family="Helvetica,sans-Serif" font-size="10.00">DetectorsBase/DetID.h</text>
</a>
</g>
</g>
<!-- Node34&#45;&gt;Node35 -->
<g id="edge50" class="edge"><title>Node34&#45;&gt;Node35</title>
<path fill="none" stroke="midnightblue" d="M678.487,-198.467C622.167,-187.671 525.213,-169.086 464.515,-157.45"/>
<polygon fill="midnightblue" stroke="midnightblue" points="464.839,-153.949 454.359,-155.503 463.522,-160.824 464.839,-153.949"/>
</g>
<!-- Node42 -->
<g id="node42" class="node"><title>Node42</title>
<polygon fill="none" stroke="#bfbfbf" points="641.5,-136.5 641.5,-155.5 712.5,-155.5 712.5,-136.5 641.5,-136.5"/>
<text text-anchor="middle" x="677" y="-143.5" font-family="Helvetica,sans-Serif" font-size="10.00">FairLogger.h</text>
</g>
<!-- Node34&#45;&gt;Node42 -->
<g id="edge61" class="edge"><title>Node34&#45;&gt;Node42</title>
<path fill="none" stroke="midnightblue" d="M716.409,-198.403C709.509,-189.403 698.498,-175.041 689.866,-163.782"/>
<polygon fill="midnightblue" stroke="midnightblue" points="692.44,-161.387 683.578,-155.581 686.885,-165.646 692.44,-161.387"/>
</g>
<!-- Node35&#45;&gt;Node4 -->
<g id="edge54" class="edge"><title>Node35&#45;&gt;Node4</title>
<path fill="none" stroke="midnightblue" d="M434.982,-136.363C457.169,-128.26 490.143,-115.145 517,-100 538.062,-88.1229 538.607,-77.1249 561,-68 667.358,-24.6598 805.205,-17.4504 871.309,-16.6933"/>
<polygon fill="midnightblue" stroke="midnightblue" points="871.689,-20.1909 881.664,-16.6218 871.64,-13.1911 871.689,-20.1909"/>
</g>
<!-- Node35&#45;&gt;Node31 -->
<g id="edge52" class="edge"><title>Node35&#45;&gt;Node31</title>
<path fill="none" stroke="midnightblue" d="M379.029,-136.38C357.042,-129.18 327.696,-117.284 306,-100 283.118,-81.771 264.57,-52.9443 254.161,-34.5094"/>
<polygon fill="midnightblue" stroke="midnightblue" points="257.218,-32.8049 249.36,-25.6987 251.072,-36.1544 257.218,-32.8049"/>
</g>
<!-- Node36 -->
<g id="node36" class="node"><title>Node36</title>
<polygon fill="none" stroke="#bfbfbf" points="315,-74.5 315,-93.5 361,-93.5 361,-74.5 315,-74.5"/>
<text text-anchor="middle" x="338" y="-81.5" font-family="Helvetica,sans-Serif" font-size="10.00">cstdint</text>
</g>
<!-- Node35&#45;&gt;Node36 -->
<g id="edge51" class="edge"><title>Node35&#45;&gt;Node36</title>
<path fill="none" stroke="midnightblue" d="M399.684,-136.403C388.349,-126.958 369.927,-111.606 356.161,-100.134"/>
<polygon fill="midnightblue" stroke="midnightblue" points="358.22,-97.2937 348.297,-93.5806 353.738,-102.671 358.22,-97.2937"/>
</g>
<!-- Node37 -->
<g id="node37" class="node"><title>Node37</title>
<polygon fill="none" stroke="#bfbfbf" points="379,-74.5 379,-93.5 441,-93.5 441,-74.5 379,-74.5"/>
<text text-anchor="middle" x="410" y="-81.5" font-family="Helvetica,sans-Serif" font-size="10.00">type_traits</text>
</g>
<!-- Node35&#45;&gt;Node37 -->
<g id="edge53" class="edge"><title>Node35&#45;&gt;Node37</title>
<path fill="none" stroke="midnightblue" d="M410,-136.403C410,-127.938 410,-114.728 410,-103.82"/>
<polygon fill="midnightblue" stroke="midnightblue" points="413.5,-103.581 410,-93.5806 406.5,-103.581 413.5,-103.581"/>
</g>
<!-- Node38 -->
<g id="node38" class="node"><title>Node38</title>
<g id="a_node38"><a xlink:href="../../d9/ded/Utils_8h.html" target="_top" xlink:title="DetectorsBase/Utils.h">
<polygon fill="none" stroke="black" points="69.5,-74.5 69.5,-93.5 182.5,-93.5 182.5,-74.5 69.5,-74.5"/>
<text text-anchor="middle" x="126" y="-81.5" font-family="Helvetica,sans-Serif" font-size="10.00">DetectorsBase/Utils.h</text>
</a>
</g>
</g>
<!-- Node35&#45;&gt;Node38 -->
<g id="edge55" class="edge"><title>Node35&#45;&gt;Node38</title>
<path fill="none" stroke="midnightblue" d="M369.611,-136.467C318.721,-125.716 231.265,-107.239 176.148,-95.5947"/>
<polygon fill="midnightblue" stroke="midnightblue" points="176.757,-92.1461 166.249,-93.5034 175.31,-98.9949 176.757,-92.1461"/>
</g>
<!-- Node41 -->
<g id="node41" class="node"><title>Node41</title>
<polygon fill="none" stroke="#bfbfbf" points="459.5,-74.5 459.5,-93.5 508.5,-93.5 508.5,-74.5 459.5,-74.5"/>
<text text-anchor="middle" x="484" y="-81.5" font-family="Helvetica,sans-Serif" font-size="10.00">cassert</text>
</g>
<!-- Node35&#45;&gt;Node41 -->
<g id="edge59" class="edge"><title>Node35&#45;&gt;Node41</title>
<path fill="none" stroke="midnightblue" d="M420.602,-136.403C432.252,-126.958 451.186,-111.606 465.335,-100.134"/>
<polygon fill="midnightblue" stroke="midnightblue" points="467.854,-102.597 473.417,-93.5806 463.445,-97.16 467.854,-102.597"/>
</g>
<!-- Node38&#45;&gt;Node31 -->
<g id="edge58" class="edge"><title>Node38&#45;&gt;Node31</title>
<path fill="none" stroke="midnightblue" d="M141.557,-74.3717C161.691,-63.2051 196.991,-43.6266 220.681,-30.4876"/>
<polygon fill="midnightblue" stroke="midnightblue" points="222.392,-33.5415 229.439,-25.6305 218.996,-27.4199 222.392,-33.5415"/>
</g>
<!-- Node39 -->
<g id="node39" class="node"><title>Node39</title>
<g id="a_node39"><a xlink:href="../../d1/daa/Base_2include_2DetectorsBase_2Constants_8h.html" target="_top" xlink:title="DetectorsBase/Constants.h">
<polygon fill="none" stroke="black" points="62,-6.5 62,-25.5 200,-25.5 200,-6.5 62,-6.5"/>
<text text-anchor="middle" x="131" y="-13.5" font-family="Helvetica,sans-Serif" font-size="10.00">DetectorsBase/Constants.h</text>
</a>
</g>
</g>
<!-- Node38&#45;&gt;Node39 -->
<g id="edge56" class="edge"><title>Node38&#45;&gt;Node39</title>
<path fill="none" stroke="midnightblue" d="M126.654,-74.3717C127.391,-64.6426 128.612,-48.528 129.572,-35.8504"/>
<polygon fill="midnightblue" stroke="midnightblue" points="133.065,-36.077 130.33,-25.8411 126.085,-35.5481 133.065,-36.077"/>
</g>
<!-- Node40 -->
<g id="node40" class="node"><title>Node40</title>
<polygon fill="none" stroke="#bfbfbf" points="0,-6.5 0,-25.5 44,-25.5 44,-6.5 0,-6.5"/>
<text text-anchor="middle" x="22" y="-13.5" font-family="Helvetica,sans-Serif" font-size="10.00">cmath</text>
</g>
<!-- Node38&#45;&gt;Node40 -->
<g id="edge57" class="edge"><title>Node38&#45;&gt;Node40</title>
<path fill="none" stroke="midnightblue" d="M112.404,-74.3717C95.0416,-63.3533 64.7738,-44.1449 44.083,-31.0142"/>
<polygon fill="midnightblue" stroke="midnightblue" points="45.9182,-28.0336 35.5995,-25.6305 42.1674,-33.9439 45.9182,-28.0336"/>
</g>
<!-- Node44&#45;&gt;Node4 -->
<g id="edge68" class="edge"><title>Node44&#45;&gt;Node4</title>
<path fill="none" stroke="midnightblue" d="M2193.73,-266.344C2210.85,-258.224 2233.52,-244.274 2244,-224 2262.03,-189.139 2304.1,-132.492 2240,-68 2193.27,-20.9842 1161.42,-17.2784 948.3,-17.0149"/>
<polygon fill="midnightblue" stroke="midnightblue" points="948.219,-13.515 938.215,-17.0044 948.212,-20.5149 948.219,-13.515"/>
</g>
<!-- Node44&#45;&gt;Node17 -->
<g id="edge67" class="edge"><title>Node44&#45;&gt;Node17</title>
<path fill="none" stroke="midnightblue" d="M2170.19,-266.358C2168.09,-256.232 2164.59,-238.935 2162,-224 2155.04,-183.878 2148.23,-137.009 2144.33,-109.232"/>
<polygon fill="midnightblue" stroke="midnightblue" points="2147.79,-108.662 2142.94,-99.2403 2140.86,-109.628 2147.79,-108.662"/>
</g>
<!-- Node44&#45;&gt;Node29 -->
<g id="edge70" class="edge"><title>Node44&#45;&gt;Node29</title>
<path fill="none" stroke="midnightblue" d="M2192.95,-266.375C2214.79,-257.048 2249.73,-241.191 2278,-224 2342.95,-184.502 2412.95,-127.458 2445.06,-100.381"/>
<polygon fill="midnightblue" stroke="midnightblue" points="2447.71,-102.718 2453.07,-93.5786 2443.18,-97.3812 2447.71,-102.718"/>
</g>
<!-- Node45 -->
<g id="node45" class="node"><title>Node45</title>
<g id="a_node45"><a xlink:href="../../d4/d25/BaseHits_8h.html" target="_top" xlink:title="SimulationDataFormat\l/BaseHits.h">
<polygon fill="none" stroke="black" points="2000,-193 2000,-223 2114,-223 2114,-193 2000,-193"/>
<text text-anchor="start" x="2008" y="-211" font-family="Helvetica,sans-Serif" font-size="10.00">SimulationDataFormat</text>
<text text-anchor="middle" x="2057" y="-200" font-family="Helvetica,sans-Serif" font-size="10.00">/BaseHits.h</text>
</a>
</g>
</g>
<!-- Node44&#45;&gt;Node45 -->
<g id="edge65" class="edge"><title>Node44&#45;&gt;Node45</title>
<path fill="none" stroke="midnightblue" d="M2156.97,-266.372C2140.16,-256.729 2112.43,-240.812 2090.43,-228.187"/>
<polygon fill="midnightblue" stroke="midnightblue" points="2092.13,-225.124 2081.71,-223.181 2088.64,-231.195 2092.13,-225.124"/>
</g>
<!-- Node46 -->
<g id="node46" class="node"><title>Node46</title>
<polygon fill="none" stroke="#bfbfbf" points="2170.5,-198.5 2170.5,-217.5 2235.5,-217.5 2235.5,-198.5 2170.5,-198.5"/>
<text text-anchor="middle" x="2203" y="-205.5" font-family="Helvetica,sans-Serif" font-size="10.00">TVector3.h</text>
</g>
<!-- Node44&#45;&gt;Node46 -->
<g id="edge69" class="edge"><title>Node44&#45;&gt;Node46</title>
<path fill="none" stroke="midnightblue" d="M2176.05,-266.372C2180.71,-256.446 2188.5,-239.874 2194.5,-227.086"/>
<polygon fill="midnightblue" stroke="midnightblue" points="2197.76,-228.38 2198.85,-217.841 2191.43,-225.404 2197.76,-228.38"/>
</g>
<!-- Node45&#45;&gt;Node19 -->
<g id="edge66" class="edge"><title>Node45&#45;&gt;Node19</title>
<path fill="none" stroke="midnightblue" d="M1999.74,-199.279C1919.27,-188.429 1772.75,-168.674 1684.69,-156.801"/>
<polygon fill="midnightblue" stroke="midnightblue" points="1685.16,-153.332 1674.78,-155.464 1684.22,-160.269 1685.16,-153.332"/>
</g>
</g>
</svg>
