<?xml version="1.0" encoding="UTF-8" standalone="no"?>
<!DOCTYPE svg PUBLIC "-//W3C//DTD SVG 1.1//EN"
 "http://www.w3.org/Graphics/SVG/1.1/DTD/svg11.dtd">
<!-- Generated by graphviz version 2.36.0 (20140111.2315)
 -->
<!-- Title: /home/travis/build/AliceO2Group/AliceO2/Framework/Core/include/Framework/DeviceInfo.h Pages: 1 -->
<svg width="641pt" height="174pt"
 viewBox="0.00 0.00 641.00 174.00" xmlns="http://www.w3.org/2000/svg" xmlns:xlink="http://www.w3.org/1999/xlink">
<g id="graph0" class="graph" transform="scale(1 1) rotate(0) translate(4 170)">
<title>/home/travis/build/AliceO2Group/AliceO2/Framework/Core/include/Framework/DeviceInfo.h</title>
<!-- Node1 -->
<g id="node1" class="node"><title>Node1</title>
<polygon fill="#bfbfbf" stroke="black" points="387.5,-113 387.5,-165 514.5,-165 514.5,-113 387.5,-113"/>
<text text-anchor="start" x="395.5" y="-153" font-family="Helvetica,sans-Serif" font-size="10.00">/home/travis/build</text>
<text text-anchor="start" x="395.5" y="-142" font-family="Helvetica,sans-Serif" font-size="10.00">/AliceO2Group/AliceO2</text>
<text text-anchor="start" x="395.5" y="-131" font-family="Helvetica,sans-Serif" font-size="10.00">/Framework/Core/include</text>
<text text-anchor="middle" x="451" y="-120" font-family="Helvetica,sans-Serif" font-size="10.00">/Framework/DeviceInfo.h</text>
</g>
<!-- Node2 -->
<g id="node2" class="node"><title>Node2</title>
<g id="a_node2"><a xlink:href="../../de/d56/Variant_8h.html" target="_top" xlink:title="Framework/Variant.h">
<polygon fill="none" stroke="black" points="212.5,-56.5 212.5,-75.5 319.5,-75.5 319.5,-56.5 212.5,-56.5"/>
<text text-anchor="middle" x="266" y="-63.5" font-family="Helvetica,sans-Serif" font-size="10.00">Framework/Variant.h</text>
</a>
</g>
</g>
<!-- Node1&#45;&gt;Node2 -->
<g id="edge1" class="edge"><title>Node1&#45;&gt;Node2</title>
<path fill="none" stroke="midnightblue" d="M387.333,-113.566C357.203,-102.002 322.536,-88.6977 297.994,-79.2789"/>
<polygon fill="midnightblue" stroke="midnightblue" points="299.055,-75.9372 288.465,-75.6217 296.547,-82.4724 299.055,-75.9372"/>
</g>
<!-- Node11 -->
<g id="node11" class="node"><title>Node11</title>
<polygon fill="none" stroke="#bfbfbf" points="337,-56.5 337,-75.5 381,-75.5 381,-56.5 337,-56.5"/>
<text text-anchor="middle" x="359" y="-63.5" font-family="Helvetica,sans-Serif" font-size="10.00">vector</text>
</g>
<!-- Node1&#45;&gt;Node11 -->
<g id="edge10" class="edge"><title>Node1&#45;&gt;Node11</title>
<path fill="none" stroke="midnightblue" d="M418.564,-112.968C405.207,-102.66 390.175,-91.0589 378.553,-82.09"/>
<polygon fill="midnightblue" stroke="midnightblue" points="380.47,-79.1483 370.415,-75.8095 376.193,-84.69 380.47,-79.1483"/>
</g>
<!-- Node12 -->
<g id="node12" class="node"><title>Node12</title>
<polygon fill="none" stroke="#bfbfbf" points="399.5,-56.5 399.5,-75.5 440.5,-75.5 440.5,-56.5 399.5,-56.5"/>
<text text-anchor="middle" x="420" y="-63.5" font-family="Helvetica,sans-Serif" font-size="10.00">string</text>
</g>
<!-- Node1&#45;&gt;Node12 -->
<g id="edge11" class="edge"><title>Node1&#45;&gt;Node12</title>
<path fill="none" stroke="midnightblue" d="M439.983,-112.768C435.975,-103.587 431.528,-93.4034 427.849,-84.9775"/>
<polygon fill="midnightblue" stroke="midnightblue" points="431.033,-83.5212 423.824,-75.7572 424.617,-86.3222 431.033,-83.5212"/>
</g>
<!-- Node13 -->
<g id="node13" class="node"><title>Node13</title>
<polygon fill="none" stroke="#bfbfbf" points="458.5,-56.5 458.5,-75.5 507.5,-75.5 507.5,-56.5 458.5,-56.5"/>
<text text-anchor="middle" x="483" y="-63.5" font-family="Helvetica,sans-Serif" font-size="10.00">cstddef</text>
</g>
<!-- Node1&#45;&gt;Node13 -->
<g id="edge12" class="edge"><title>Node1&#45;&gt;Node13</title>
<path fill="none" stroke="midnightblue" d="M462.372,-112.768C466.51,-103.587 471.1,-93.4034 474.897,-84.9775"/>
<polygon fill="midnightblue" stroke="midnightblue" points="478.135,-86.3121 479.053,-75.7572 471.753,-83.4358 478.135,-86.3121"/>
</g>
<!-- Node14 -->
<g id="node14" class="node"><title>Node14</title>
<polygon fill="none" stroke="#bfbfbf" points="525.5,-56.5 525.5,-75.5 576.5,-75.5 576.5,-56.5 525.5,-56.5"/>
<text text-anchor="middle" x="551" y="-63.5" font-family="Helvetica,sans-Serif" font-size="10.00">unistd.h</text>
</g>
<!-- Node1&#45;&gt;Node14 -->
<g id="edge13" class="edge"><title>Node1&#45;&gt;Node14</title>
<path fill="none" stroke="midnightblue" d="M486.256,-112.968C500.917,-102.559 517.435,-90.8313 530.117,-81.827"/>
<polygon fill="midnightblue" stroke="midnightblue" points="532.465,-84.4527 538.592,-75.8095 528.412,-78.745 532.465,-84.4527"/>
</g>
<!-- Node15 -->
<g id="node15" class="node"><title>Node15</title>
<polygon fill="none" stroke="#bfbfbf" points="595,-56.5 595,-75.5 633,-75.5 633,-56.5 595,-56.5"/>
<text text-anchor="middle" x="614" y="-63.5" font-family="Helvetica,sans-Serif" font-size="10.00">array</text>
</g>
<!-- Node1&#45;&gt;Node15 -->
<g id="edge14" class="edge"><title>Node1&#45;&gt;Node15</title>
<path fill="none" stroke="midnightblue" d="M508.468,-112.968C534.579,-101.594 564.306,-88.6461 585.54,-79.3967"/>
<polygon fill="midnightblue" stroke="midnightblue" points="587.171,-82.5038 594.942,-75.3015 584.376,-76.0862 587.171,-82.5038"/>
</g>
<!-- Node3 -->
<g id="node3" class="node"><title>Node3</title>
<polygon fill="none" stroke="#bfbfbf" points="0,-0.5 0,-19.5 62,-19.5 62,-0.5 0,-0.5"/>
<text text-anchor="middle" x="31" y="-7.5" font-family="Helvetica,sans-Serif" font-size="10.00">type_traits</text>
</g>
<!-- Node2&#45;&gt;Node3 -->
<g id="edge2" class="edge"><title>Node2&#45;&gt;Node3</title>
<path fill="none" stroke="midnightblue" d="M228.764,-56.4435C186.019,-46.6214 116.129,-30.5616 71.9016,-20.3987"/>
<polygon fill="midnightblue" stroke="midnightblue" points="72.5883,-16.9653 62.0584,-18.1368 71.0205,-23.7875 72.5883,-16.9653"/>
</g>
<!-- Node4 -->
<g id="node4" class="node"><title>Node4</title>
<polygon fill="none" stroke="#bfbfbf" points="80,-0.5 80,-19.5 126,-19.5 126,-0.5 80,-0.5"/>
<text text-anchor="middle" x="103" y="-7.5" font-family="Helvetica,sans-Serif" font-size="10.00">cstring</text>
</g>
<!-- Node2&#45;&gt;Node4 -->
<g id="edge3" class="edge"><title>Node2&#45;&gt;Node4</title>
<path fill="none" stroke="midnightblue" d="M240.172,-56.4435C211.944,-47.0919 166.648,-32.0859 135.897,-21.8984"/>
<polygon fill="midnightblue" stroke="midnightblue" points="136.665,-18.4658 126.072,-18.6433 134.463,-25.1106 136.665,-18.4658"/>
</g>
<!-- Node5 -->
<g id="node5" class="node"><title>Node5</title>
<polygon fill="none" stroke="#bfbfbf" points="144,-0.5 144,-19.5 190,-19.5 190,-0.5 144,-0.5"/>
<text text-anchor="middle" x="167" y="-7.5" font-family="Helvetica,sans-Serif" font-size="10.00">cstdint</text>
</g>
<!-- Node2&#45;&gt;Node5 -->
<g id="edge4" class="edge"><title>Node2&#45;&gt;Node5</title>
<path fill="none" stroke="midnightblue" d="M250.094,-56.324C234.362,-47.7428 210.058,-34.486 191.791,-24.5224"/>
<polygon fill="midnightblue" stroke="midnightblue" points="193.322,-21.3704 182.867,-19.6545 189.97,-27.5157 193.322,-21.3704"/>
</g>
<!-- Node6 -->
<g id="node6" class="node"><title>Node6</title>
<polygon fill="none" stroke="#bfbfbf" points="208.5,-0.5 208.5,-19.5 253.5,-19.5 253.5,-0.5 208.5,-0.5"/>
<text text-anchor="middle" x="231" y="-7.5" font-family="Helvetica,sans-Serif" font-size="10.00">cstdlib</text>
</g>
<!-- Node2&#45;&gt;Node6 -->
<g id="edge5" class="edge"><title>Node2&#45;&gt;Node6</title>
<path fill="none" stroke="midnightblue" d="M260.22,-56.083C255.328,-48.5341 248.173,-37.4948 242.167,-28.2298"/>
<polygon fill="midnightblue" stroke="midnightblue" points="245.048,-26.239 236.672,-19.7511 239.174,-30.0463 245.048,-26.239"/>
</g>
<!-- Node7 -->
<g id="node7" class="node"><title>Node7</title>
<polygon fill="none" stroke="#bfbfbf" points="271.5,-0.5 271.5,-19.5 330.5,-19.5 330.5,-0.5 271.5,-0.5"/>
<text text-anchor="middle" x="301" y="-7.5" font-family="Helvetica,sans-Serif" font-size="10.00">stdexcept</text>
</g>
<!-- Node2&#45;&gt;Node7 -->
<g id="edge6" class="edge"><title>Node2&#45;&gt;Node7</title>
<path fill="none" stroke="midnightblue" d="M271.78,-56.083C276.672,-48.5341 283.827,-37.4948 289.833,-28.2298"/>
<polygon fill="midnightblue" stroke="midnightblue" points="292.826,-30.0463 295.328,-19.7511 286.952,-26.239 292.826,-30.0463"/>
</g>
<!-- Node8 -->
<g id="node8" class="node"><title>Node8</title>
<polygon fill="none" stroke="#bfbfbf" points="348.5,-0.5 348.5,-19.5 393.5,-19.5 393.5,-0.5 348.5,-0.5"/>
<text text-anchor="middle" x="371" y="-7.5" font-family="Helvetica,sans-Serif" font-size="10.00">iosfwd</text>
</g>
<!-- Node2&#45;&gt;Node8 -->
<g id="edge7" class="edge"><title>Node2&#45;&gt;Node8</title>
<path fill="none" stroke="midnightblue" d="M282.87,-56.324C299.709,-47.6641 325.807,-34.2424 345.238,-24.249"/>
<polygon fill="midnightblue" stroke="midnightblue" points="346.88,-27.3405 354.172,-19.6545 343.678,-21.1155 346.88,-27.3405"/>
</g>
<!-- Node9 -->
<g id="node9" class="node"><title>Node9</title>
<polygon fill="none" stroke="#bfbfbf" points="412,-0.5 412,-19.5 466,-19.5 466,-0.5 412,-0.5"/>
<text text-anchor="middle" x="439" y="-7.5" font-family="Helvetica,sans-Serif" font-size="10.00">iostream</text>
</g>
<!-- Node2&#45;&gt;Node9 -->
<g id="edge8" class="edge"><title>Node2&#45;&gt;Node9</title>
<path fill="none" stroke="midnightblue" d="M293.412,-56.4435C322.769,-47.2801 369.519,-32.6876 402.096,-22.5192"/>
<polygon fill="midnightblue" stroke="midnightblue" points="403.213,-25.8371 411.716,-19.5164 401.127,-19.1551 403.213,-25.8371"/>
</g>
<!-- Node10 -->
<g id="node10" class="node"><title>Node10</title>
<polygon fill="none" stroke="#bfbfbf" points="484.5,-0.5 484.5,-19.5 557.5,-19.5 557.5,-0.5 484.5,-0.5"/>
<text text-anchor="middle" x="521" y="-7.5" font-family="Helvetica,sans-Serif" font-size="10.00">initializer_list</text>
</g>
<!-- Node2&#45;&gt;Node10 -->
<g id="edge9" class="edge"><title>Node2&#45;&gt;Node10</title>
<path fill="none" stroke="midnightblue" d="M306.406,-56.4435C352.032,-46.7815 426.161,-31.0835 474.249,-20.9002"/>
<polygon fill="midnightblue" stroke="midnightblue" points="475.037,-24.311 484.095,-18.8151 473.587,-17.4628 475.037,-24.311"/>
</g>
</g>
</svg>
