<?xml version="1.0" encoding="UTF-8" standalone="no"?>
<!DOCTYPE svg PUBLIC "-//W3C//DTD SVG 1.1//EN"
 "http://www.w3.org/Graphics/SVG/1.1/DTD/svg11.dtd">
<!-- Generated by graphviz version 2.36.0 (20140111.2315)
 -->
<!-- Title: /home/travis/build/AliceO2Group/AliceO2/Detectors/ITSMFT/ITS/reconstruction/src/CAaux.cxx Pages: 1 -->
<svg width="1972pt" height="478pt"
 viewBox="0.00 0.00 1972.00 478.00" xmlns="http://www.w3.org/2000/svg" xmlns:xlink="http://www.w3.org/1999/xlink">
<g id="graph0" class="graph" transform="scale(1 1) rotate(0) translate(4 474)">
<title>/home/travis/build/AliceO2Group/AliceO2/Detectors/ITSMFT/ITS/reconstruction/src/CAaux.cxx</title>
<!-- Node1 -->
<g id="node1" class="node"><title>Node1</title>
<polygon fill="#bfbfbf" stroke="black" points="1263.5,-417 1263.5,-469 1412.5,-469 1412.5,-417 1263.5,-417"/>
<text text-anchor="start" x="1271.5" y="-457" font-family="Helvetica,sans-Serif" font-size="10.00">/home/travis/build</text>
<text text-anchor="start" x="1271.5" y="-446" font-family="Helvetica,sans-Serif" font-size="10.00">/AliceO2Group/AliceO2</text>
<text text-anchor="start" x="1271.5" y="-435" font-family="Helvetica,sans-Serif" font-size="10.00">/Detectors/ITSMFT/ITS</text>
<text text-anchor="middle" x="1338" y="-424" font-family="Helvetica,sans-Serif" font-size="10.00">/reconstruction/src/CAaux.cxx</text>
</g>
<!-- Node2 -->
<g id="node2" class="node"><title>Node2</title>
<g id="a_node2"><a xlink:href="../../d1/db5/CAaux_8h.html" target="_top" xlink:title="ITSReconstruction/CAaux.h">
<polygon fill="none" stroke="black" points="368,-360.5 368,-379.5 508,-379.5 508,-360.5 368,-360.5"/>
<text text-anchor="middle" x="438" y="-367.5" font-family="Helvetica,sans-Serif" font-size="10.00">ITSReconstruction/CAaux.h</text>
</a>
</g>
</g>
<!-- Node1&#45;&gt;Node2 -->
<g id="edge1" class="edge"><title>Node1&#45;&gt;Node2</title>
<path fill="none" stroke="midnightblue" d="M1263.2,-436.099C1095.5,-422.869 690.658,-390.932 518.09,-377.318"/>
<polygon fill="midnightblue" stroke="midnightblue" points="518.301,-373.824 508.057,-376.527 517.751,-380.802 518.301,-373.824"/>
</g>
<!-- Node34 -->
<g id="node34" class="node"><title>Node34</title>
<g id="a_node34"><a xlink:href="../../d1/daa/Base_2include_2DetectorsBase_2Constants_8h.html" target="_top" xlink:title="DetectorsBase/Constants.h">
<polygon fill="none" stroke="black" points="1826,-6.5 1826,-25.5 1964,-25.5 1964,-6.5 1826,-6.5"/>
<text text-anchor="middle" x="1895" y="-13.5" font-family="Helvetica,sans-Serif" font-size="10.00">DetectorsBase/Constants.h</text>
</a>
</g>
</g>
<!-- Node1&#45;&gt;Node34 -->
<g id="edge53" class="edge"><title>Node1&#45;&gt;Node34</title>
<path fill="none" stroke="midnightblue" d="M1412.71,-441.024C1568.56,-436.961 1914,-416.506 1914,-315 1914,-315 1914,-315 1914,-145 1914,-105.646 1905.1,-60.2174 1899.49,-35.4534"/>
<polygon fill="midnightblue" stroke="midnightblue" points="1902.87,-34.5613 1897.18,-25.6256 1896.06,-36.1608 1902.87,-34.5613"/>
</g>
<!-- Node3 -->
<g id="node3" class="node"><title>Node3</title>
<polygon fill="none" stroke="#bfbfbf" points="216,-136.5 216,-155.5 260,-155.5 260,-136.5 216,-136.5"/>
<text text-anchor="middle" x="238" y="-143.5" font-family="Helvetica,sans-Serif" font-size="10.00">vector</text>
</g>
<!-- Node2&#45;&gt;Node3 -->
<g id="edge2" class="edge"><title>Node2&#45;&gt;Node3</title>
<path fill="none" stroke="midnightblue" d="M430.16,-360.297C400.171,-327.01 292.433,-207.421 252.782,-163.408"/>
<polygon fill="midnightblue" stroke="midnightblue" points="255.297,-160.971 246.003,-155.884 250.096,-165.656 255.297,-160.971"/>
</g>
<!-- Node4 -->
<g id="node4" class="node"><title>Node4</title>
<polygon fill="none" stroke="#bfbfbf" points="95,-6.5 95,-25.5 133,-25.5 133,-6.5 95,-6.5"/>
<text text-anchor="middle" x="114" y="-13.5" font-family="Helvetica,sans-Serif" font-size="10.00">array</text>
</g>
<!-- Node2&#45;&gt;Node4 -->
<g id="edge3" class="edge"><title>Node2&#45;&gt;Node4</title>
<path fill="none" stroke="midnightblue" d="M367.628,-365.808C243.815,-358.255 0,-333.875 0,-259 0,-259 0,-259 0,-145 0,-92.2307 54.6991,-51.1502 88.3185,-30.8847"/>
<polygon fill="midnightblue" stroke="midnightblue" points="90.2964,-33.7832 97.1789,-25.7283 86.7755,-27.7332 90.2964,-33.7832"/>
</g>
<!-- Node5 -->
<g id="node5" class="node"><title>Node5</title>
<polygon fill="none" stroke="#bfbfbf" points="215,-6.5 215,-25.5 259,-25.5 259,-6.5 215,-6.5"/>
<text text-anchor="middle" x="237" y="-13.5" font-family="Helvetica,sans-Serif" font-size="10.00">cmath</text>
</g>
<!-- Node2&#45;&gt;Node5 -->
<g id="edge4" class="edge"><title>Node2&#45;&gt;Node5</title>
<path fill="none" stroke="midnightblue" d="M367.774,-362.081C262.502,-349.735 76,-319.348 76,-259 76,-259 76,-259 76,-145 76,-79.6291 158.332,-42.2962 205.243,-26.3302"/>
<polygon fill="midnightblue" stroke="midnightblue" points="206.533,-29.591 214.951,-23.1581 204.359,-22.9372 206.533,-29.591"/>
</g>
<!-- Node6 -->
<g id="node6" class="node"><title>Node6</title>
<g id="a_node6"><a xlink:href="../../d7/d65/Detectors_2Base_2include_2DetectorsBase_2Track_8h.html" target="_top" xlink:title="DetectorsBase/Track.h">
<polygon fill="none" stroke="black" points="704,-304.5 704,-323.5 822,-323.5 822,-304.5 704,-304.5"/>
<text text-anchor="middle" x="763" y="-311.5" font-family="Helvetica,sans-Serif" font-size="10.00">DetectorsBase/Track.h</text>
</a>
</g>
</g>
<!-- Node2&#45;&gt;Node6 -->
<g id="edge5" class="edge"><title>Node2&#45;&gt;Node6</title>
<path fill="none" stroke="midnightblue" d="M489.497,-360.444C547.144,-350.865 640.49,-335.356 701.812,-325.167"/>
<polygon fill="midnightblue" stroke="midnightblue" points="702.453,-328.608 711.744,-323.516 701.305,-321.703 702.453,-328.608"/>
</g>
<!-- Node2&#45;&gt;Node34 -->
<g id="edge52" class="edge"><title>Node2&#45;&gt;Node34</title>
<path fill="none" stroke="midnightblue" d="M508.331,-367.347C797.038,-360.106 1876,-328.403 1876,-259 1876,-259 1876,-259 1876,-145 1876,-105.646 1884.9,-60.2174 1890.51,-35.4534"/>
<polygon fill="midnightblue" stroke="midnightblue" points="1893.94,-36.1608 1892.82,-25.6256 1887.13,-34.5613 1893.94,-36.1608"/>
</g>
<!-- Node6&#45;&gt;Node4 -->
<g id="edge8" class="edge"><title>Node6&#45;&gt;Node4</title>
<path fill="none" stroke="midnightblue" d="M703.795,-310.885C627.126,-307.068 489.831,-296.545 376,-268 222.479,-229.502 137.436,-239.141 62,-100 55.2215,-87.4971 56.4937,-81.113 62,-68 68.164,-53.3208 80.843,-40.7443 92.1376,-31.7531"/>
<polygon fill="midnightblue" stroke="midnightblue" points="94.4568,-34.3893 100.374,-25.6008 90.2677,-28.7812 94.4568,-34.3893"/>
</g>
<!-- Node6&#45;&gt;Node5 -->
<g id="edge10" class="edge"><title>Node6&#45;&gt;Node5</title>
<path fill="none" stroke="midnightblue" d="M822.284,-311.946C1021.73,-307.623 1656,-287.254 1656,-203 1656,-203 1656,-203 1656,-145 1656,-109.642 1663.57,-90.1379 1636,-68 1580.96,-23.8049 473.447,-17.8222 269.223,-17.0938"/>
<polygon fill="midnightblue" stroke="midnightblue" points="269.152,-13.5937 259.14,-17.0596 269.128,-20.5936 269.152,-13.5937"/>
</g>
<!-- Node7 -->
<g id="node7" class="node"><title>Node7</title>
<polygon fill="none" stroke="#bfbfbf" points="523,-74.5 523,-93.5 579,-93.5 579,-74.5 523,-74.5"/>
<text text-anchor="middle" x="551" y="-81.5" font-family="Helvetica,sans-Serif" font-size="10.00">Rtypes.h</text>
</g>
<!-- Node6&#45;&gt;Node7 -->
<g id="edge6" class="edge"><title>Node6&#45;&gt;Node7</title>
<path fill="none" stroke="midnightblue" d="M710.223,-304.474C626.15,-289.695 467.916,-256.577 435,-212 401.866,-167.128 478.845,-120.123 522.887,-97.9879"/>
<polygon fill="midnightblue" stroke="midnightblue" points="524.552,-101.07 531.993,-93.5278 521.473,-94.7832 524.552,-101.07"/>
</g>
<!-- Node8 -->
<g id="node8" class="node"><title>Node8</title>
<polygon fill="none" stroke="#bfbfbf" points="702,-248.5 702,-267.5 758,-267.5 758,-248.5 702,-248.5"/>
<text text-anchor="middle" x="730" y="-255.5" font-family="Helvetica,sans-Serif" font-size="10.00">algorithm</text>
</g>
<!-- Node6&#45;&gt;Node8 -->
<g id="edge7" class="edge"><title>Node6&#45;&gt;Node8</title>
<path fill="none" stroke="midnightblue" d="M757.551,-304.083C752.986,-296.613 746.332,-285.724 740.707,-276.52"/>
<polygon fill="midnightblue" stroke="midnightblue" points="743.549,-274.459 735.348,-267.751 737.576,-278.109 743.549,-274.459"/>
</g>
<!-- Node9 -->
<g id="node9" class="node"><title>Node9</title>
<polygon fill="none" stroke="#bfbfbf" points="776.5,-248.5 776.5,-267.5 817.5,-267.5 817.5,-248.5 776.5,-248.5"/>
<text text-anchor="middle" x="797" y="-255.5" font-family="Helvetica,sans-Serif" font-size="10.00">cfloat</text>
</g>
<!-- Node6&#45;&gt;Node9 -->
<g id="edge9" class="edge"><title>Node6&#45;&gt;Node9</title>
<path fill="none" stroke="midnightblue" d="M768.614,-304.083C773.367,-296.534 780.318,-285.495 786.152,-276.23"/>
<polygon fill="midnightblue" stroke="midnightblue" points="789.124,-278.078 791.49,-267.751 783.2,-274.349 789.124,-278.078"/>
</g>
<!-- Node10 -->
<g id="node10" class="node"><title>Node10</title>
<polygon fill="none" stroke="#bfbfbf" points="836,-248.5 836,-267.5 882,-267.5 882,-248.5 836,-248.5"/>
<text text-anchor="middle" x="859" y="-255.5" font-family="Helvetica,sans-Serif" font-size="10.00">cstring</text>
</g>
<!-- Node6&#45;&gt;Node10 -->
<g id="edge11" class="edge"><title>Node6&#45;&gt;Node10</title>
<path fill="none" stroke="midnightblue" d="M778.424,-304.324C793.54,-295.822 816.815,-282.729 834.471,-272.797"/>
<polygon fill="midnightblue" stroke="midnightblue" points="836.614,-275.608 843.614,-267.655 833.183,-269.507 836.614,-275.608"/>
</g>
<!-- Node11 -->
<g id="node11" class="node"><title>Node11</title>
<polygon fill="none" stroke="#bfbfbf" points="597,-74.5 597,-93.5 651,-93.5 651,-74.5 597,-74.5"/>
<text text-anchor="middle" x="624" y="-81.5" font-family="Helvetica,sans-Serif" font-size="10.00">iostream</text>
</g>
<!-- Node6&#45;&gt;Node11 -->
<g id="edge12" class="edge"><title>Node6&#45;&gt;Node11</title>
<path fill="none" stroke="midnightblue" d="M738.725,-304.407C721.502,-297.162 699.039,-285.197 685,-268 644.104,-217.904 630.197,-139.261 625.831,-103.641"/>
<polygon fill="midnightblue" stroke="midnightblue" points="629.308,-103.232 624.727,-93.6779 622.35,-104.003 629.308,-103.232"/>
</g>
<!-- Node12 -->
<g id="node12" class="node"><title>Node12</title>
<polygon fill="none" stroke="#bfbfbf" points="900.5,-248.5 900.5,-267.5 983.5,-267.5 983.5,-248.5 900.5,-248.5"/>
<text text-anchor="middle" x="942" y="-255.5" font-family="Helvetica,sans-Serif" font-size="10.00">Math/SMatrix.h</text>
</g>
<!-- Node6&#45;&gt;Node12 -->
<g id="edge13" class="edge"><title>Node6&#45;&gt;Node12</title>
<path fill="none" stroke="midnightblue" d="M791.363,-304.444C821.738,-295.28 870.11,-280.688 903.816,-270.519"/>
<polygon fill="midnightblue" stroke="midnightblue" points="905.207,-273.756 913.77,-267.516 903.185,-267.054 905.207,-273.756"/>
</g>
<!-- Node13 -->
<g id="node13" class="node"><title>Node13</title>
<polygon fill="none" stroke="#bfbfbf" points="1001.5,-248.5 1001.5,-267.5 1086.5,-267.5 1086.5,-248.5 1001.5,-248.5"/>
<text text-anchor="middle" x="1044" y="-255.5" font-family="Helvetica,sans-Serif" font-size="10.00">Math/SVector.h</text>
</g>
<!-- Node6&#45;&gt;Node13 -->
<g id="edge14" class="edge"><title>Node6&#45;&gt;Node13</title>
<path fill="none" stroke="midnightblue" d="M807.525,-304.444C857.392,-294.861 938.157,-279.34 991.176,-269.151"/>
<polygon fill="midnightblue" stroke="midnightblue" points="991.906,-272.575 1001.07,-267.251 990.584,-265.701 991.906,-272.575"/>
</g>
<!-- Node14 -->
<g id="node14" class="node"><title>Node14</title>
<g id="a_node14"><a xlink:href="../../d4/de2/BaseCluster_8h.html" target="_top" xlink:title="DetectorsBase/BaseCluster.h">
<polygon fill="none" stroke="black" points="1104.5,-248.5 1104.5,-267.5 1251.5,-267.5 1251.5,-248.5 1104.5,-248.5"/>
<text text-anchor="middle" x="1178" y="-255.5" font-family="Helvetica,sans-Serif" font-size="10.00">DetectorsBase/BaseCluster.h</text>
</a>
</g>
</g>
<!-- Node6&#45;&gt;Node14 -->
<g id="edge15" class="edge"><title>Node6&#45;&gt;Node14</title>
<path fill="none" stroke="midnightblue" d="M822.019,-305.32C895.626,-295.743 1021.58,-279.353 1102.24,-268.857"/>
<polygon fill="midnightblue" stroke="midnightblue" points="1102.87,-272.305 1112.34,-267.544 1101.97,-265.364 1102.87,-272.305"/>
</g>
<!-- Node19 -->
<g id="node19" class="node"><title>Node19</title>
<g id="a_node19"><a xlink:href="../../dd/d76/Cartesian3D_8h.html" target="_top" xlink:title="MathUtils/Cartesian3D.h">
<polygon fill="none" stroke="black" points="939.5,-136.5 939.5,-155.5 1064.5,-155.5 1064.5,-136.5 939.5,-136.5"/>
<text text-anchor="middle" x="1002" y="-143.5" font-family="Helvetica,sans-Serif" font-size="10.00">MathUtils/Cartesian3D.h</text>
</a>
</g>
</g>
<!-- Node6&#45;&gt;Node19 -->
<g id="edge51" class="edge"><title>Node6&#45;&gt;Node19</title>
<path fill="none" stroke="midnightblue" d="M740.841,-304.456C714.485,-292.994 676.059,-271.36 693,-248 746.639,-174.036 856.004,-153.228 929.167,-147.925"/>
<polygon fill="midnightblue" stroke="midnightblue" points="929.487,-151.412 939.241,-147.276 929.036,-144.426 929.487,-151.412"/>
</g>
<!-- Node33 -->
<g id="node33" class="node"><title>Node33</title>
<g id="a_node33"><a xlink:href="../../d9/ded/Utils_8h.html" target="_top" xlink:title="DetectorsBase/Utils.h">
<polygon fill="none" stroke="black" points="180.5,-74.5 180.5,-93.5 293.5,-93.5 293.5,-74.5 180.5,-74.5"/>
<text text-anchor="middle" x="237" y="-81.5" font-family="Helvetica,sans-Serif" font-size="10.00">DetectorsBase/Utils.h</text>
</a>
</g>
</g>
<!-- Node6&#45;&gt;Node33 -->
<g id="edge50" class="edge"><title>Node6&#45;&gt;Node33</title>
<path fill="none" stroke="midnightblue" d="M703.857,-306.875C648.228,-300.258 562.967,-287.902 491,-268 360.225,-231.835 283.341,-268.169 207,-156 195.311,-138.825 208.833,-116.37 221.286,-101.355"/>
<polygon fill="midnightblue" stroke="midnightblue" points="223.916,-103.665 227.928,-93.8592 218.677,-99.0223 223.916,-103.665"/>
</g>
<!-- Node6&#45;&gt;Node34 -->
<g id="edge49" class="edge"><title>Node6&#45;&gt;Node34</title>
<path fill="none" stroke="midnightblue" d="M822.328,-313.208C1047.69,-313.226 1838,-305.949 1838,-203 1838,-203 1838,-203 1838,-145 1838,-102.049 1865.11,-57.4573 1881.94,-33.9188"/>
<polygon fill="midnightblue" stroke="midnightblue" points="1884.88,-35.8325 1888.01,-25.7111 1879.25,-31.6703 1884.88,-35.8325"/>
</g>
<!-- Node14&#45;&gt;Node11 -->
<g id="edge20" class="edge"><title>Node14&#45;&gt;Node11</title>
<path fill="none" stroke="midnightblue" d="M1133.14,-248.462C1092.36,-240.333 1030.68,-227.12 978,-212 833.568,-170.549 799.024,-154.515 659,-100 657.106,-99.2625 655.161,-98.4857 653.207,-97.6898"/>
<polygon fill="midnightblue" stroke="midnightblue" points="654.103,-94.2709 643.526,-93.6432 651.403,-100.729 654.103,-94.2709"/>
</g>
<!-- Node15 -->
<g id="node15" class="node"><title>Node15</title>
<polygon fill="none" stroke="#bfbfbf" points="987.5,-192.5 987.5,-211.5 1046.5,-211.5 1046.5,-192.5 987.5,-192.5"/>
<text text-anchor="middle" x="1017" y="-199.5" font-family="Helvetica,sans-Serif" font-size="10.00">TObject.h</text>
</g>
<!-- Node14&#45;&gt;Node15 -->
<g id="edge16" class="edge"><title>Node14&#45;&gt;Node15</title>
<path fill="none" stroke="midnightblue" d="M1152.49,-248.444C1125.4,-239.359 1082.41,-224.939 1052.13,-214.783"/>
<polygon fill="midnightblue" stroke="midnightblue" points="1052.99,-211.378 1042.39,-211.516 1050.76,-218.015 1052.99,-211.378"/>
</g>
<!-- Node16 -->
<g id="node16" class="node"><title>Node16</title>
<polygon fill="none" stroke="#bfbfbf" points="1064.5,-192.5 1064.5,-211.5 1105.5,-211.5 1105.5,-192.5 1064.5,-192.5"/>
<text text-anchor="middle" x="1085" y="-199.5" font-family="Helvetica,sans-Serif" font-size="10.00">bitset</text>
</g>
<!-- Node14&#45;&gt;Node16 -->
<g id="edge17" class="edge"><title>Node14&#45;&gt;Node16</title>
<path fill="none" stroke="midnightblue" d="M1163.06,-248.324C1148.41,-239.822 1125.87,-226.729 1108.76,-216.797"/>
<polygon fill="midnightblue" stroke="midnightblue" points="1110.31,-213.649 1099.9,-211.655 1106.8,-219.703 1110.31,-213.649"/>
</g>
<!-- Node17 -->
<g id="node17" class="node"><title>Node17</title>
<polygon fill="none" stroke="#bfbfbf" points="1124,-192.5 1124,-211.5 1174,-211.5 1174,-192.5 1124,-192.5"/>
<text text-anchor="middle" x="1149" y="-199.5" font-family="Helvetica,sans-Serif" font-size="10.00">iomanip</text>
</g>
<!-- Node14&#45;&gt;Node17 -->
<g id="edge18" class="edge"><title>Node14&#45;&gt;Node17</title>
<path fill="none" stroke="midnightblue" d="M1173.21,-248.083C1169.24,-240.691 1163.47,-229.953 1158.57,-220.811"/>
<polygon fill="midnightblue" stroke="midnightblue" points="1161.51,-218.905 1153.7,-211.751 1155.35,-222.217 1161.51,-218.905"/>
</g>
<!-- Node18 -->
<g id="node18" class="node"><title>Node18</title>
<polygon fill="none" stroke="#bfbfbf" points="1192.5,-192.5 1192.5,-211.5 1221.5,-211.5 1221.5,-192.5 1192.5,-192.5"/>
<text text-anchor="middle" x="1207" y="-199.5" font-family="Helvetica,sans-Serif" font-size="10.00">ios</text>
</g>
<!-- Node14&#45;&gt;Node18 -->
<g id="edge19" class="edge"><title>Node14&#45;&gt;Node18</title>
<path fill="none" stroke="midnightblue" d="M1182.79,-248.083C1186.76,-240.691 1192.53,-229.953 1197.43,-220.811"/>
<polygon fill="midnightblue" stroke="midnightblue" points="1200.65,-222.217 1202.3,-211.751 1194.49,-218.905 1200.65,-222.217"/>
</g>
<!-- Node14&#45;&gt;Node19 -->
<g id="edge21" class="edge"><title>Node14&#45;&gt;Node19</title>
<path fill="none" stroke="midnightblue" d="M1193.74,-248.32C1214.46,-235.801 1246.43,-211.984 1230,-192 1210.53,-168.318 1133.84,-156.895 1074.72,-151.522"/>
<polygon fill="midnightblue" stroke="midnightblue" points="1074.92,-148.025 1064.65,-150.649 1074.31,-154.999 1074.92,-148.025"/>
</g>
<!-- Node29 -->
<g id="node29" class="node"><title>Node29</title>
<g id="a_node29"><a xlink:href="../../d4/d20/DetMatrixCache_8h.html" target="_top" xlink:title="DetectorsBase/DetMatrixCache.h">
<polygon fill="none" stroke="black" points="444,-192.5 444,-211.5 608,-211.5 608,-192.5 444,-192.5"/>
<text text-anchor="middle" x="526" y="-199.5" font-family="Helvetica,sans-Serif" font-size="10.00">DetectorsBase/DetMatrixCache.h</text>
</a>
</g>
</g>
<!-- Node14&#45;&gt;Node29 -->
<g id="edge33" class="edge"><title>Node14&#45;&gt;Node29</title>
<path fill="none" stroke="midnightblue" d="M1104.25,-248.89C1101.12,-248.582 1098.03,-248.284 1095,-248 927.092,-232.26 730.963,-217.56 618.342,-209.474"/>
<polygon fill="midnightblue" stroke="midnightblue" points="618.266,-205.959 608.042,-208.736 617.766,-212.941 618.266,-205.959"/>
</g>
<!-- Node19&#45;&gt;Node7 -->
<g id="edge25" class="edge"><title>Node19&#45;&gt;Node7</title>
<path fill="none" stroke="midnightblue" d="M939.331,-143.563C857.407,-140.47 709.99,-130.723 588,-100 584.94,-99.2293 581.797,-98.2582 578.699,-97.1824"/>
<polygon fill="midnightblue" stroke="midnightblue" points="579.698,-93.8168 569.107,-93.5064 577.193,-100.353 579.698,-93.8168"/>
</g>
<!-- Node19&#45;&gt;Node11 -->
<g id="edge32" class="edge"><title>Node19&#45;&gt;Node11</title>
<path fill="none" stroke="midnightblue" d="M939.334,-141.94C869.78,-137.361 754.713,-126.25 659,-100 656.342,-99.2711 653.622,-98.3818 650.93,-97.4037"/>
<polygon fill="midnightblue" stroke="midnightblue" points="652.05,-94.082 641.467,-93.6001 649.44,-100.577 652.05,-94.082"/>
</g>
<!-- Node20 -->
<g id="node20" class="node"><title>Node20</title>
<polygon fill="none" stroke="#bfbfbf" points="668.5,-74.5 668.5,-93.5 817.5,-93.5 817.5,-74.5 668.5,-74.5"/>
<text text-anchor="middle" x="743" y="-81.5" font-family="Helvetica,sans-Serif" font-size="10.00">Math/GenVector/Rotation3D.h</text>
</g>
<!-- Node19&#45;&gt;Node20 -->
<g id="edge22" class="edge"><title>Node19&#45;&gt;Node20</title>
<path fill="none" stroke="midnightblue" d="M965.167,-136.467C919.045,-125.783 839.99,-107.469 789.676,-95.8129"/>
<polygon fill="midnightblue" stroke="midnightblue" points="790.238,-92.3506 779.706,-93.5034 788.658,-99.17 790.238,-92.3506"/>
</g>
<!-- Node21 -->
<g id="node21" class="node"><title>Node21</title>
<polygon fill="none" stroke="#bfbfbf" points="836,-74.5 836,-93.5 992,-93.5 992,-74.5 836,-74.5"/>
<text text-anchor="middle" x="914" y="-81.5" font-family="Helvetica,sans-Serif" font-size="10.00">Math/GenVector/Transform3D.h</text>
</g>
<!-- Node19&#45;&gt;Node21 -->
<g id="edge23" class="edge"><title>Node19&#45;&gt;Node21</title>
<path fill="none" stroke="midnightblue" d="M989.392,-136.403C975.277,-126.78 952.169,-111.024 935.251,-99.4891"/>
<polygon fill="midnightblue" stroke="midnightblue" points="936.819,-96.3222 926.585,-93.5806 932.875,-102.106 936.819,-96.3222"/>
</g>
<!-- Node22 -->
<g id="node22" class="node"><title>Node22</title>
<polygon fill="none" stroke="#bfbfbf" points="1010,-74.5 1010,-93.5 1170,-93.5 1170,-74.5 1010,-74.5"/>
<text text-anchor="middle" x="1090" y="-81.5" font-family="Helvetica,sans-Serif" font-size="10.00">Math/GenVector/Translation3D.h</text>
</g>
<!-- Node19&#45;&gt;Node22 -->
<g id="edge24" class="edge"><title>Node19&#45;&gt;Node22</title>
<path fill="none" stroke="midnightblue" d="M1014.61,-136.403C1028.72,-126.78 1051.83,-111.024 1068.75,-99.4891"/>
<polygon fill="midnightblue" stroke="midnightblue" points="1071.12,-102.106 1077.42,-93.5806 1067.18,-96.3222 1071.12,-102.106"/>
</g>
<!-- Node23 -->
<g id="node23" class="node"><title>Node23</title>
<polygon fill="none" stroke="#bfbfbf" points="1188,-74.5 1188,-93.5 1264,-93.5 1264,-74.5 1188,-74.5"/>
<text text-anchor="middle" x="1226" y="-81.5" font-family="Helvetica,sans-Serif" font-size="10.00">TGeoMatrix.h</text>
</g>
<!-- Node19&#45;&gt;Node23 -->
<g id="edge26" class="edge"><title>Node19&#45;&gt;Node23</title>
<path fill="none" stroke="midnightblue" d="M1038.1,-136.493C1073.99,-127.878 1130.53,-113.881 1179,-100 1182.78,-98.9166 1186.72,-97.7391 1190.64,-96.536"/>
<polygon fill="midnightblue" stroke="midnightblue" points="1191.73,-99.8614 1200.23,-93.5321 1189.64,-93.1815 1191.73,-99.8614"/>
</g>
<!-- Node24 -->
<g id="node24" class="node"><title>Node24</title>
<polygon fill="none" stroke="#bfbfbf" points="1282.5,-69 1282.5,-99 1433.5,-99 1433.5,-69 1282.5,-69"/>
<text text-anchor="start" x="1290.5" y="-87" font-family="Helvetica,sans-Serif" font-size="10.00">Math/GenVector/Displacement</text>
<text text-anchor="middle" x="1358" y="-76" font-family="Helvetica,sans-Serif" font-size="10.00">Vector3D.h</text>
</g>
<!-- Node19&#45;&gt;Node24 -->
<g id="edge27" class="edge"><title>Node19&#45;&gt;Node24</title>
<path fill="none" stroke="midnightblue" d="M1054.23,-136.488C1106.69,-127.902 1190.13,-114.148 1272.43,-100.087"/>
<polygon fill="midnightblue" stroke="midnightblue" points="1273.2,-103.507 1282.46,-98.3709 1272.02,-96.6076 1273.2,-103.507"/>
</g>
<!-- Node25 -->
<g id="node25" class="node"><title>Node25</title>
<polygon fill="none" stroke="#bfbfbf" points="1452,-74.5 1452,-93.5 1628,-93.5 1628,-74.5 1452,-74.5"/>
<text text-anchor="middle" x="1540" y="-81.5" font-family="Helvetica,sans-Serif" font-size="10.00">Math/GenVector/PositionVector3D.h</text>
</g>
<!-- Node19&#45;&gt;Node25 -->
<g id="edge28" class="edge"><title>Node19&#45;&gt;Node25</title>
<path fill="none" stroke="midnightblue" d="M1064.78,-139.574C1150.24,-131.96 1307.94,-117.104 1442,-100 1453.49,-98.5342 1465.71,-96.8026 1477.48,-95.0463"/>
<polygon fill="midnightblue" stroke="midnightblue" points="1478.32,-98.4595 1487.68,-93.5025 1477.27,-91.5383 1478.32,-98.4595"/>
</g>
<!-- Node26 -->
<g id="node26" class="node"><title>Node26</title>
<g id="a_node26"><a xlink:href="../../d2/dd0/Cartesian2D_8h.html" target="_top" xlink:title="MathUtils/Cartesian2D.h">
<polygon fill="none" stroke="black" points="1684.5,-74.5 1684.5,-93.5 1809.5,-93.5 1809.5,-74.5 1684.5,-74.5"/>
<text text-anchor="middle" x="1747" y="-81.5" font-family="Helvetica,sans-Serif" font-size="10.00">MathUtils/Cartesian2D.h</text>
</a>
</g>
</g>
<!-- Node19&#45;&gt;Node26 -->
<g id="edge29" class="edge"><title>Node19&#45;&gt;Node26</title>
<path fill="none" stroke="midnightblue" d="M1064.66,-141.874C1178.58,-135.897 1427.17,-121.499 1636,-100 1649.93,-98.5658 1664.81,-96.7513 1679,-94.8841"/>
<polygon fill="midnightblue" stroke="midnightblue" points="1679.74,-98.3164 1689.19,-93.5199 1678.81,-91.3783 1679.74,-98.3164"/>
</g>
<!-- Node27 -->
<g id="node27" class="node"><title>Node27</title>
<polygon fill="none" stroke="#bfbfbf" points="1462.5,-1 1462.5,-31 1613.5,-31 1613.5,-1 1462.5,-1"/>
<text text-anchor="start" x="1470.5" y="-19" font-family="Helvetica,sans-Serif" font-size="10.00">Math/GenVector/Displacement</text>
<text text-anchor="middle" x="1538" y="-8" font-family="Helvetica,sans-Serif" font-size="10.00">Vector2D.h</text>
</g>
<!-- Node26&#45;&gt;Node27 -->
<g id="edge30" class="edge"><title>Node26&#45;&gt;Node27</title>
<path fill="none" stroke="midnightblue" d="M1719.68,-74.3717C1687.41,-64.182 1632.96,-46.9877 1592.07,-34.0738"/>
<polygon fill="midnightblue" stroke="midnightblue" points="1593.1,-30.7301 1582.51,-31.0562 1590.99,-37.4051 1593.1,-30.7301"/>
</g>
<!-- Node28 -->
<g id="node28" class="node"><title>Node28</title>
<polygon fill="none" stroke="#bfbfbf" points="1632,-6.5 1632,-25.5 1808,-25.5 1808,-6.5 1632,-6.5"/>
<text text-anchor="middle" x="1720" y="-13.5" font-family="Helvetica,sans-Serif" font-size="10.00">Math/GenVector/PositionVector2D.h</text>
</g>
<!-- Node26&#45;&gt;Node28 -->
<g id="edge31" class="edge"><title>Node26&#45;&gt;Node28</title>
<path fill="none" stroke="midnightblue" d="M1743.47,-74.3717C1739.45,-64.5443 1732.76,-48.2018 1727.55,-35.4673"/>
<polygon fill="midnightblue" stroke="midnightblue" points="1730.64,-33.7714 1723.62,-25.8411 1724.16,-36.4218 1730.64,-33.7714"/>
</g>
<!-- Node29&#45;&gt;Node3 -->
<g id="edge34" class="edge"><title>Node29&#45;&gt;Node3</title>
<path fill="none" stroke="midnightblue" d="M466.683,-192.497C416.602,-184.89 342.851,-172.689 270.07,-156.05"/>
<polygon fill="midnightblue" stroke="midnightblue" points="270.806,-152.628 260.274,-153.782 269.227,-159.448 270.806,-152.628"/>
</g>
<!-- Node29&#45;&gt;Node4 -->
<g id="edge35" class="edge"><title>Node29&#45;&gt;Node4</title>
<path fill="none" stroke="midnightblue" d="M443.867,-194.439C363.806,-187.148 248.275,-173.986 207,-156 170.793,-140.222 159.818,-132.922 138,-100 124.955,-80.3161 118.878,-53.4542 116.133,-35.686"/>
<polygon fill="midnightblue" stroke="midnightblue" points="119.594,-35.1623 114.795,-25.7165 112.656,-36.0931 119.594,-35.1623"/>
</g>
<!-- Node29&#45;&gt;Node7 -->
<g id="edge47" class="edge"><title>Node29&#45;&gt;Node7</title>
<path fill="none" stroke="midnightblue" d="M525,-192.448C523.784,-179.886 522.416,-155.791 527,-136 529.72,-124.255 535.381,-112.002 540.522,-102.451"/>
<polygon fill="midnightblue" stroke="midnightblue" points="543.648,-104.034 545.546,-93.6104 537.562,-100.575 543.648,-104.034"/>
</g>
<!-- Node29&#45;&gt;Node19 -->
<g id="edge36" class="edge"><title>Node29&#45;&gt;Node19</title>
<path fill="none" stroke="midnightblue" d="M601.161,-192.473C691.091,-182.271 840.612,-165.309 929.395,-155.237"/>
<polygon fill="midnightblue" stroke="midnightblue" points="929.841,-158.709 939.383,-154.104 929.052,-151.753 929.841,-158.709"/>
</g>
<!-- Node30 -->
<g id="node30" class="node"><title>Node30</title>
<g id="a_node30"><a xlink:href="../../d6/d31/DetID_8h.html" target="_top" xlink:title="DetectorsBase/DetID.h">
<polygon fill="none" stroke="black" points="278.5,-136.5 278.5,-155.5 397.5,-155.5 397.5,-136.5 278.5,-136.5"/>
<text text-anchor="middle" x="338" y="-143.5" font-family="Helvetica,sans-Serif" font-size="10.00">DetectorsBase/DetID.h</text>
</a>
</g>
</g>
<!-- Node29&#45;&gt;Node30 -->
<g id="edge37" class="edge"><title>Node29&#45;&gt;Node30</title>
<path fill="none" stroke="midnightblue" d="M496.211,-192.444C464.171,-183.241 413.067,-168.562 377.647,-158.388"/>
<polygon fill="midnightblue" stroke="midnightblue" points="378.227,-154.913 367.65,-155.516 376.295,-161.641 378.227,-154.913"/>
</g>
<!-- Node36 -->
<g id="node36" class="node"><title>Node36</title>
<polygon fill="none" stroke="#bfbfbf" points="536.5,-136.5 536.5,-155.5 607.5,-155.5 607.5,-136.5 536.5,-136.5"/>
<text text-anchor="middle" x="572" y="-143.5" font-family="Helvetica,sans-Serif" font-size="10.00">FairLogger.h</text>
</g>
<!-- Node29&#45;&gt;Node36 -->
<g id="edge48" class="edge"><title>Node29&#45;&gt;Node36</title>
<path fill="none" stroke="midnightblue" d="M533.596,-192.083C540.227,-184.298 550.021,-172.801 558.058,-163.367"/>
<polygon fill="midnightblue" stroke="midnightblue" points="560.725,-165.633 564.545,-155.751 555.396,-161.094 560.725,-165.633"/>
</g>
<!-- Node30&#45;&gt;Node4 -->
<g id="edge39" class="edge"><title>Node30&#45;&gt;Node4</title>
<path fill="none" stroke="midnightblue" d="M292.632,-136.456C250.185,-127.813 190.482,-113.795 171,-100 147.527,-83.38 130.682,-53.8391 121.641,-34.8509"/>
<polygon fill="midnightblue" stroke="midnightblue" points="124.738,-33.2059 117.428,-25.5367 118.36,-36.0905 124.738,-33.2059"/>
</g>
<!-- Node30&#45;&gt;Node7 -->
<g id="edge41" class="edge"><title>Node30&#45;&gt;Node7</title>
<path fill="none" stroke="midnightblue" d="M376.975,-136.443C412.704,-128.255 466.9,-114.962 513,-100 515.629,-99.1468 518.338,-98.2058 521.042,-97.2234"/>
<polygon fill="midnightblue" stroke="midnightblue" points="522.555,-100.393 530.659,-93.5679 520.068,-93.8492 522.555,-100.393"/>
</g>
<!-- Node31 -->
<g id="node31" class="node"><title>Node31</title>
<polygon fill="none" stroke="#bfbfbf" points="379,-74.5 379,-93.5 425,-93.5 425,-74.5 379,-74.5"/>
<text text-anchor="middle" x="402" y="-81.5" font-family="Helvetica,sans-Serif" font-size="10.00">cstdint</text>
</g>
<!-- Node30&#45;&gt;Node31 -->
<g id="edge38" class="edge"><title>Node30&#45;&gt;Node31</title>
<path fill="none" stroke="midnightblue" d="M347.17,-136.403C357.15,-127.047 373.312,-111.895 385.509,-100.46"/>
<polygon fill="midnightblue" stroke="midnightblue" points="387.946,-102.973 392.847,-93.5806 383.158,-97.8666 387.946,-102.973"/>
</g>
<!-- Node32 -->
<g id="node32" class="node"><title>Node32</title>
<polygon fill="none" stroke="#bfbfbf" points="443,-74.5 443,-93.5 505,-93.5 505,-74.5 443,-74.5"/>
<text text-anchor="middle" x="474" y="-81.5" font-family="Helvetica,sans-Serif" font-size="10.00">type_traits</text>
</g>
<!-- Node30&#45;&gt;Node32 -->
<g id="edge40" class="edge"><title>Node30&#45;&gt;Node32</title>
<path fill="none" stroke="midnightblue" d="M357.485,-136.403C380.41,-126.29 418.685,-109.404 445.075,-97.761"/>
<polygon fill="midnightblue" stroke="midnightblue" points="446.814,-100.819 454.551,-93.5806 443.989,-94.4148 446.814,-100.819"/>
</g>
<!-- Node30&#45;&gt;Node33 -->
<g id="edge42" class="edge"><title>Node30&#45;&gt;Node33</title>
<path fill="none" stroke="midnightblue" d="M323.529,-136.403C306.954,-126.557 279.574,-110.291 260.053,-98.6949"/>
<polygon fill="midnightblue" stroke="midnightblue" points="261.829,-95.6789 251.444,-93.5806 258.254,-101.697 261.829,-95.6789"/>
</g>
<!-- Node35 -->
<g id="node35" class="node"><title>Node35</title>
<polygon fill="none" stroke="#bfbfbf" points="311.5,-74.5 311.5,-93.5 360.5,-93.5 360.5,-74.5 311.5,-74.5"/>
<text text-anchor="middle" x="336" y="-81.5" font-family="Helvetica,sans-Serif" font-size="10.00">cassert</text>
</g>
<!-- Node30&#45;&gt;Node35 -->
<g id="edge46" class="edge"><title>Node30&#45;&gt;Node35</title>
<path fill="none" stroke="midnightblue" d="M337.713,-136.403C337.431,-127.938 336.991,-114.728 336.627,-103.82"/>
<polygon fill="midnightblue" stroke="midnightblue" points="340.117,-103.458 336.286,-93.5806 333.121,-103.692 340.117,-103.458"/>
</g>
<!-- Node33&#45;&gt;Node4 -->
<g id="edge45" class="edge"><title>Node33&#45;&gt;Node4</title>
<path fill="none" stroke="midnightblue" d="M220.92,-74.3717C200.109,-63.2051 163.622,-43.6266 139.136,-30.4876"/>
<polygon fill="midnightblue" stroke="midnightblue" points="140.551,-27.2746 130.084,-25.6305 137.241,-33.4428 140.551,-27.2746"/>
</g>
<!-- Node33&#45;&gt;Node5 -->
<g id="edge44" class="edge"><title>Node33&#45;&gt;Node5</title>
<path fill="none" stroke="midnightblue" d="M237,-74.3717C237,-64.6426 237,-48.528 237,-35.8504"/>
<polygon fill="midnightblue" stroke="midnightblue" points="240.5,-35.8411 237,-25.8411 233.5,-35.8412 240.5,-35.8411"/>
</g>
<!-- Node33&#45;&gt;Node34 -->
<g id="edge43" class="edge"><title>Node33&#45;&gt;Node34</title>
<path fill="none" stroke="midnightblue" d="M268.177,-74.4532C278.823,-71.8973 290.854,-69.4038 302,-68 969.803,16.1071 1146.68,-103.017 1816,-32 1826.1,-30.9284 1836.84,-29.2545 1847.04,-27.4072"/>
<polygon fill="midnightblue" stroke="midnightblue" points="1847.84,-30.8175 1857.01,-25.5179 1846.54,-23.9398 1847.84,-30.8175"/>
</g>
</g>
</svg>
