<?xml version="1.0" encoding="UTF-8" standalone="no"?>
<!DOCTYPE svg PUBLIC "-//W3C//DTD SVG 1.1//EN"
 "http://www.w3.org/Graphics/SVG/1.1/DTD/svg11.dtd">
<!-- Generated by graphviz version 2.36.0 (20140111.2315)
 -->
<!-- Title: /home/travis/build/AliceO2Group/AliceO2/Detectors/FIT/simulation/src/Detector.cxx Pages: 1 -->
<!--zoomable 378 -->
<svg id="main" version="1.1" xmlns="http://www.w3.org/2000/svg" xmlns:xlink="http://www.w3.org/1999/xlink" xml:space="preserve" onload="init(evt)">
<style type="text/css"><![CDATA[
.edge:hover path { stroke: red; }
.edge:hover polygon { stroke: red; fill: red; }
]]></style>
<script type="text/javascript"><![CDATA[
var edges = document.getElementsByTagName('g');
if (edges && edges.length) {
  for (var i=0;i<edges.length;i++) {
    if (edges[i].id.substr(0,4)=='edge') {
      edges[i].setAttribute('class','edge');
    }
  }
}
]]></script>
        <defs>
                <circle id="rim" cx="0" cy="0" r="7"/>
                <circle id="rim2" cx="0" cy="0" r="3.5"/>
                <g id="zoomPlus">
                        <use xlink:href="#rim" fill="#404040">
                                <set attributeName="fill" to="#808080" begin="zoomplus.mouseover" end="zoomplus.mouseout"/>
                        </use>
                        <path d="M-4,0h8M0,-4v8" fill="none" stroke="white" stroke-width="1.5" pointer-events="none"/>
                </g>
                <g id="zoomMin">
                        <use xlink:href="#rim" fill="#404040">
                                <set attributeName="fill" to="#808080" begin="zoomminus.mouseover" end="zoomminus.mouseout"/>
                        </use>
                        <path d="M-4,0h8" fill="none" stroke="white" stroke-width="1.5" pointer-events="none"/>
                </g>
                <g id="dirArrow">
                        <path fill="none" stroke="white" stroke-width="1.5" d="M0,-3.0v7 M-2.5,-0.5L0,-3.0L2.5,-0.5"/>
                </g>
               <g id="resetDef">
                       <use xlink:href="#rim2" fill="#404040">
                               <set attributeName="fill" to="#808080" begin="reset.mouseover" end="reset.mouseout"/>
                       </use>
               </g>
        </defs>

<script type="text/javascript">
var viewWidth = 2436;
var viewHeight = 378;
var sectionId = 'dynsection-0';
</script>
<script xlink:href="../../svgpan.js"/>
<svg id="graph" class="graph">
<g id="viewport">
<title>/home/travis/build/AliceO2Group/AliceO2/Detectors/FIT/simulation/src/Detector.cxx</title>
<!-- Node1 -->
<g id="node1" class="node"><title>Node1</title>
<polygon fill="#bfbfbf" stroke="black" points="595,-317 595,-369 723,-369 723,-317 595,-317"/>
<text text-anchor="start" x="603" y="-357" font-family="Helvetica,sans-Serif" font-size="10.00">/home/travis/build</text>
<text text-anchor="start" x="603" y="-346" font-family="Helvetica,sans-Serif" font-size="10.00">/AliceO2Group/AliceO2</text>
<text text-anchor="start" x="603" y="-335" font-family="Helvetica,sans-Serif" font-size="10.00">/Detectors/FIT/simulation</text>
<text text-anchor="middle" x="659" y="-324" font-family="Helvetica,sans-Serif" font-size="10.00">/src/Detector.cxx</text>
</g>
<!-- Node2 -->
<g id="node2" class="node"><title>Node2</title>
<polygon fill="none" stroke="#bfbfbf" points="-0.5,-260.5 -0.5,-279.5 84.5,-279.5 84.5,-260.5 -0.5,-260.5"/>
<text text-anchor="middle" x="42" y="-267.5" font-family="Helvetica,sans-Serif" font-size="10.00">TClonesArray.h</text>
</g>
<!-- Node1&#45;&gt;Node2 -->
<g id="edge1" class="edge"><title>Node1&#45;&gt;Node2</title>
<path fill="none" stroke="midnightblue" d="M594.866,-336.27C491.752,-326.769 282.527,-306.306 94.5996,-280"/>
<polygon fill="midnightblue" stroke="midnightblue" points="94.9237,-276.512 84.5333,-278.583 93.9475,-283.443 94.9237,-276.512"/>
</g>
<!-- Node3 -->
<g id="node3" class="node"><title>Node3</title>
<polygon fill="none" stroke="#bfbfbf" points="103,-260.5 103,-279.5 189,-279.5 189,-260.5 103,-260.5"/>
<text text-anchor="middle" x="146" y="-267.5" font-family="Helvetica,sans-Serif" font-size="10.00">TGeoManager.h</text>
</g>
<!-- Node1&#45;&gt;Node3 -->
<g id="edge2" class="edge"><title>Node1&#45;&gt;Node3</title>
<path fill="none" stroke="midnightblue" d="M594.754,-334.136C507.575,-323.292 346.709,-302.671 199.252,-280.146"/>
<polygon fill="midnightblue" stroke="midnightblue" points="199.525,-276.647 189.11,-278.59 198.463,-283.566 199.525,-276.647"/>
</g>
<!-- Node4 -->
<g id="node4" class="node"><title>Node4</title>
<polygon fill="none" stroke="#bfbfbf" points="207,-260.5 207,-279.5 299,-279.5 299,-260.5 207,-260.5"/>
<text text-anchor="middle" x="253" y="-267.5" font-family="Helvetica,sans-Serif" font-size="10.00">TLorentzVector.h</text>
</g>
<!-- Node1&#45;&gt;Node4 -->
<g id="edge3" class="edge"><title>Node1&#45;&gt;Node4</title>
<path fill="none" stroke="midnightblue" d="M594.668,-330.75C515.974,-316.988 384.026,-293.913 309.22,-280.832"/>
<polygon fill="midnightblue" stroke="midnightblue" points="309.509,-277.329 299.056,-279.054 308.303,-284.224 309.509,-277.329"/>
</g>
<!-- Node5 -->
<g id="node5" class="node"><title>Node5</title>
<polygon fill="none" stroke="#bfbfbf" points="317.5,-260.5 317.5,-279.5 370.5,-279.5 370.5,-260.5 317.5,-260.5"/>
<text text-anchor="middle" x="344" y="-267.5" font-family="Helvetica,sans-Serif" font-size="10.00">TMath.h</text>
</g>
<!-- Node1&#45;&gt;Node5 -->
<g id="edge4" class="edge"><title>Node1&#45;&gt;Node5</title>
<path fill="none" stroke="midnightblue" d="M594.897,-328.257C540.599,-316.501 460.429,-298.875 380.914,-280.168"/>
<polygon fill="midnightblue" stroke="midnightblue" points="381.254,-276.652 370.717,-277.762 379.646,-283.465 381.254,-276.652"/>
</g>
<!-- Node6 -->
<g id="node6" class="node"><title>Node6</title>
<polygon fill="none" stroke="#bfbfbf" points="388.5,-260.5 388.5,-279.5 445.5,-279.5 445.5,-260.5 388.5,-260.5"/>
<text text-anchor="middle" x="417" y="-267.5" font-family="Helvetica,sans-Serif" font-size="10.00">TGraph.h</text>
</g>
<!-- Node1&#45;&gt;Node6 -->
<g id="edge5" class="edge"><title>Node1&#45;&gt;Node6</title>
<path fill="none" stroke="midnightblue" d="M594.784,-323.16C550.498,-310.167 493.088,-293.323 455.666,-282.344"/>
<polygon fill="midnightblue" stroke="midnightblue" points="456.249,-278.868 445.668,-279.411 454.278,-285.585 456.249,-278.868"/>
</g>
<!-- Node7 -->
<g id="node7" class="node"><title>Node7</title>
<polygon fill="none" stroke="#bfbfbf" points="464,-260.5 464,-279.5 520,-279.5 520,-260.5 464,-260.5"/>
<text text-anchor="middle" x="492" y="-267.5" font-family="Helvetica,sans-Serif" font-size="10.00">TString.h</text>
</g>
<!-- Node1&#45;&gt;Node7 -->
<g id="edge6" class="edge"><title>Node1&#45;&gt;Node7</title>
<path fill="none" stroke="midnightblue" d="M600.122,-316.968C573.574,-305.681 543.38,-292.844 521.659,-283.61"/>
<polygon fill="midnightblue" stroke="midnightblue" points="522.892,-280.331 512.32,-279.639 520.153,-286.773 522.892,-280.331"/>
</g>
<!-- Node8 -->
<g id="node8" class="node"><title>Node8</title>
<polygon fill="none" stroke="#bfbfbf" points="538.5,-260.5 538.5,-279.5 603.5,-279.5 603.5,-260.5 538.5,-260.5"/>
<text text-anchor="middle" x="571" y="-267.5" font-family="Helvetica,sans-Serif" font-size="10.00">TSystem.h</text>
</g>
<!-- Node1&#45;&gt;Node8 -->
<g id="edge7" class="edge"><title>Node1&#45;&gt;Node8</title>
<path fill="none" stroke="midnightblue" d="M627.727,-316.768C615.097,-306.578 600.936,-295.153 589.923,-286.267"/>
<polygon fill="midnightblue" stroke="midnightblue" points="591.834,-283.312 581.854,-279.757 587.439,-288.76 591.834,-283.312"/>
</g>
<!-- Node9 -->
<g id="node9" class="node"><title>Node9</title>
<polygon fill="none" stroke="#bfbfbf" points="622,-260.5 622,-279.5 696,-279.5 696,-260.5 622,-260.5"/>
<text text-anchor="middle" x="659" y="-267.5" font-family="Helvetica,sans-Serif" font-size="10.00">TVirtualMC.h</text>
</g>
<!-- Node1&#45;&gt;Node9 -->
<g id="edge8" class="edge"><title>Node1&#45;&gt;Node9</title>
<path fill="none" stroke="midnightblue" d="M659,-316.768C659,-307.89 659,-298.074 659,-289.816"/>
<polygon fill="midnightblue" stroke="midnightblue" points="662.5,-289.757 659,-279.757 655.5,-289.757 662.5,-289.757"/>
</g>
<!-- Node10 -->
<g id="node10" class="node"><title>Node10</title>
<polygon fill="none" stroke="#bfbfbf" points="714,-260.5 714,-279.5 848,-279.5 848,-260.5 714,-260.5"/>
<text text-anchor="middle" x="781" y="-267.5" font-family="Helvetica,sans-Serif" font-size="10.00">FairGenericRootManager.h</text>
</g>
<!-- Node1&#45;&gt;Node10 -->
<g id="edge9" class="edge"><title>Node1&#45;&gt;Node10</title>
<path fill="none" stroke="midnightblue" d="M702.013,-316.968C720.533,-306.19 741.483,-293.997 757.151,-284.879"/>
<polygon fill="midnightblue" stroke="midnightblue" points="759.273,-287.694 766.156,-279.639 755.752,-281.644 759.273,-287.694"/>
</g>
<!-- Node11 -->
<g id="node11" class="node"><title>Node11</title>
<polygon fill="none" stroke="#bfbfbf" points="866.5,-260.5 866.5,-279.5 937.5,-279.5 937.5,-260.5 866.5,-260.5"/>
<text text-anchor="middle" x="902" y="-267.5" font-family="Helvetica,sans-Serif" font-size="10.00">FairLogger.h</text>
</g>
<!-- Node1&#45;&gt;Node11 -->
<g id="edge10" class="edge"><title>Node1&#45;&gt;Node11</title>
<path fill="none" stroke="midnightblue" d="M723.163,-323.253C767.506,-310.297 825.069,-293.478 862.745,-282.47"/>
<polygon fill="midnightblue" stroke="midnightblue" points="864.199,-285.691 872.816,-279.527 862.236,-278.972 864.199,-285.691"/>
</g>
<!-- Node12 -->
<g id="node12" class="node"><title>Node12</title>
<polygon fill="none" stroke="#bfbfbf" points="956,-260.5 956,-279.5 1030,-279.5 1030,-260.5 956,-260.5"/>
<text text-anchor="middle" x="993" y="-267.5" font-family="Helvetica,sans-Serif" font-size="10.00">FairVolume.h</text>
</g>
<!-- Node1&#45;&gt;Node12 -->
<g id="edge11" class="edge"><title>Node1&#45;&gt;Node12</title>
<path fill="none" stroke="midnightblue" d="M723.003,-328.394C788.047,-314.568 887.289,-293.472 945.601,-281.076"/>
<polygon fill="midnightblue" stroke="midnightblue" points="946.592,-284.443 955.646,-278.941 945.136,-277.596 946.592,-284.443"/>
</g>
<!-- Node13 -->
<g id="node13" class="node"><title>Node13</title>
<polygon fill="none" stroke="#bfbfbf" points="1042,-136.5 1042,-155.5 1142,-155.5 1142,-136.5 1042,-136.5"/>
<text text-anchor="middle" x="1092" y="-143.5" font-family="Helvetica,sans-Serif" font-size="10.00">FairRootManager.h</text>
</g>
<!-- Node1&#45;&gt;Node13 -->
<g id="edge12" class="edge"><title>Node1&#45;&gt;Node13</title>
<path fill="none" stroke="midnightblue" d="M723.098,-339.57C821.834,-334.597 1004.99,-320.105 1055,-280 1089.5,-252.336 1093.49,-195.461 1093.03,-165.852"/>
<polygon fill="midnightblue" stroke="midnightblue" points="1096.52,-165.505 1092.67,-155.634 1089.52,-165.751 1096.52,-165.505"/>
</g>
<!-- Node14 -->
<g id="node14" class="node"><title>Node14</title>
<polygon fill="none" stroke="#bfbfbf" points="1268,-260.5 1268,-279.5 1320,-279.5 1320,-260.5 1268,-260.5"/>
<text text-anchor="middle" x="1294" y="-267.5" font-family="Helvetica,sans-Serif" font-size="10.00">sstream</text>
</g>
<!-- Node1&#45;&gt;Node14 -->
<g id="edge13" class="edge"><title>Node1&#45;&gt;Node14</title>
<path fill="none" stroke="midnightblue" d="M723.373,-338.498C831.872,-331.907 1058.06,-315.204 1257.63,-280.003"/>
<polygon fill="midnightblue" stroke="midnightblue" points="1258.49,-283.406 1267.72,-278.205 1257.26,-276.515 1258.49,-283.406"/>
</g>
<!-- Node15 -->
<g id="node15" class="node"><title>Node15</title>
<g id="a_node15"><a xlink:href="../../d1/db1/FIT_2base_2include_2FITBase_2Geometry_8h.html" target="_top" xlink:title="FITBase/Geometry.h">
<polygon fill="none" stroke="black" points="960,-198.5 960,-217.5 1068,-217.5 1068,-198.5 960,-198.5"/>
<text text-anchor="middle" x="1014" y="-205.5" font-family="Helvetica,sans-Serif" font-size="10.00">FITBase/Geometry.h</text>
</a>
</g>
</g>
<!-- Node1&#45;&gt;Node15 -->
<g id="edge14" class="edge"><title>Node1&#45;&gt;Node15</title>
<path fill="none" stroke="midnightblue" d="M723.214,-341.153C820.773,-338.354 999.224,-326.792 1039,-280 1052.16,-264.519 1040.11,-241.652 1028.62,-226.082"/>
<polygon fill="midnightblue" stroke="midnightblue" points="1031.07,-223.534 1022.12,-217.868 1025.58,-227.88 1031.07,-223.534"/>
</g>
<!-- Node18 -->
<g id="node18" class="node"><title>Node18</title>
<g id="a_node18"><a xlink:href="../../de/d6b/FIT_2simulation_2include_2FITSimulation_2Detector_8h.html" target="_top" xlink:title="FITSimulation/Detector.h">
<polygon fill="none" stroke="black" points="1124,-260.5 1124,-279.5 1250,-279.5 1250,-260.5 1124,-260.5"/>
<text text-anchor="middle" x="1187" y="-267.5" font-family="Helvetica,sans-Serif" font-size="10.00">FITSimulation/Detector.h</text>
</a>
</g>
</g>
<!-- Node1&#45;&gt;Node18 -->
<g id="edge17" class="edge"><title>Node1&#45;&gt;Node18</title>
<path fill="none" stroke="midnightblue" d="M723.215,-333.365C821.758,-320.114 1009.74,-294.836 1113.56,-280.876"/>
<polygon fill="midnightblue" stroke="midnightblue" points="1114.2,-284.321 1123.64,-279.52 1113.26,-277.384 1114.2,-284.321"/>
</g>
<!-- Node16 -->
<g id="node16" class="node"><title>Node16</title>
<polygon fill="none" stroke="#bfbfbf" points="1142,-74.5 1142,-93.5 1198,-93.5 1198,-74.5 1142,-74.5"/>
<text text-anchor="middle" x="1170" y="-81.5" font-family="Helvetica,sans-Serif" font-size="10.00">Rtypes.h</text>
</g>
<!-- Node15&#45;&gt;Node16 -->
<g id="edge15" class="edge"><title>Node15&#45;&gt;Node16</title>
<path fill="none" stroke="midnightblue" d="M1013.89,-198.39C1014.18,-183.72 1016.86,-153.748 1033,-136 1058.54,-107.912 1101.01,-95.2356 1131.91,-89.5505"/>
<polygon fill="midnightblue" stroke="midnightblue" points="1132.61,-92.981 1141.9,-87.8784 1131.46,-86.077 1132.61,-92.981"/>
</g>
<!-- Node17 -->
<g id="node17" class="node"><title>Node17</title>
<polygon fill="none" stroke="#bfbfbf" points="920.5,-136.5 920.5,-155.5 985.5,-155.5 985.5,-136.5 920.5,-136.5"/>
<text text-anchor="middle" x="953" y="-143.5" font-family="Helvetica,sans-Serif" font-size="10.00">TVector3.h</text>
</g>
<!-- Node15&#45;&gt;Node17 -->
<g id="edge16" class="edge"><title>Node15&#45;&gt;Node17</title>
<path fill="none" stroke="midnightblue" d="M1005.26,-198.403C995.838,-189.136 980.636,-174.183 969.051,-162.788"/>
<polygon fill="midnightblue" stroke="midnightblue" points="971.307,-160.098 961.724,-155.581 966.399,-165.088 971.307,-160.098"/>
</g>
<!-- Node18&#45;&gt;Node15 -->
<g id="edge42" class="edge"><title>Node18&#45;&gt;Node15</title>
<path fill="none" stroke="midnightblue" d="M1162.21,-260.403C1132.41,-250.067 1082.21,-232.656 1048.6,-220.999"/>
<polygon fill="midnightblue" stroke="midnightblue" points="1049.34,-217.551 1038.74,-217.581 1047.04,-224.164 1049.34,-217.551"/>
</g>
<!-- Node19 -->
<g id="node19" class="node"><title>Node19</title>
<g id="a_node19"><a xlink:href="../../d4/d25/BaseHits_8h.html" target="_top" xlink:title="SimulationDataFormat\l/BaseHits.h">
<polygon fill="none" stroke="black" points="1610,-193 1610,-223 1724,-223 1724,-193 1610,-193"/>
<text text-anchor="start" x="1618" y="-211" font-family="Helvetica,sans-Serif" font-size="10.00">SimulationDataFormat</text>
<text text-anchor="middle" x="1667" y="-200" font-family="Helvetica,sans-Serif" font-size="10.00">/BaseHits.h</text>
</a>
</g>
</g>
<!-- Node18&#45;&gt;Node19 -->
<g id="edge18" class="edge"><title>Node18&#45;&gt;Node19</title>
<path fill="none" stroke="midnightblue" d="M1250.25,-261.094C1340.91,-249.761 1507.09,-228.988 1599.87,-217.392"/>
<polygon fill="midnightblue" stroke="midnightblue" points="1600.49,-220.841 1609.98,-216.127 1599.62,-213.895 1600.49,-220.841"/>
</g>
<!-- Node31 -->
<g id="node31" class="node"><title>Node31</title>
<g id="a_node31"><a xlink:href="../../d1/d3a/Base_2include_2DetectorsBase_2Detector_8h.html" target="_top" xlink:title="DetectorsBase/Detector.h">
<polygon fill="none" stroke="black" points="1304.5,-198.5 1304.5,-217.5 1435.5,-217.5 1435.5,-198.5 1304.5,-198.5"/>
<text text-anchor="middle" x="1370" y="-205.5" font-family="Helvetica,sans-Serif" font-size="10.00">DetectorsBase/Detector.h</text>
</a>
</g>
</g>
<!-- Node18&#45;&gt;Node31 -->
<g id="edge31" class="edge"><title>Node18&#45;&gt;Node31</title>
<path fill="none" stroke="midnightblue" d="M1213.22,-260.403C1245.02,-249.978 1298.77,-232.356 1334.32,-220.699"/>
<polygon fill="midnightblue" stroke="midnightblue" points="1335.42,-224.022 1343.83,-217.581 1333.24,-217.37 1335.42,-224.022"/>
</g>
<!-- Node20 -->
<g id="node20" class="node"><title>Node20</title>
<g id="a_node20"><a xlink:href="../../dd/d76/Cartesian3D_8h.html" target="_top" xlink:title="MathUtils/Cartesian3D.h">
<polygon fill="none" stroke="black" points="1760.5,-136.5 1760.5,-155.5 1885.5,-155.5 1885.5,-136.5 1760.5,-136.5"/>
<text text-anchor="middle" x="1823" y="-143.5" font-family="Helvetica,sans-Serif" font-size="10.00">MathUtils/Cartesian3D.h</text>
</a>
</g>
</g>
<!-- Node19&#45;&gt;Node20 -->
<g id="edge19" class="edge"><title>Node19&#45;&gt;Node20</title>
<path fill="none" stroke="midnightblue" d="M1703.58,-192.933C1730.13,-182.72 1765.71,-169.036 1791.11,-159.266"/>
<polygon fill="midnightblue" stroke="midnightblue" points="1792.56,-162.457 1800.64,-155.6 1790.05,-155.923 1792.56,-162.457"/>
</g>
<!-- Node20&#45;&gt;Node16 -->
<g id="edge23" class="edge"><title>Node20&#45;&gt;Node16</title>
<path fill="none" stroke="midnightblue" d="M1760.19,-136.949C1757.09,-136.614 1754.01,-136.295 1751,-136 1526.62,-114.01 1468.43,-130.168 1245,-100 1232.99,-98.3784 1220.01,-96.0066 1208.28,-93.6255"/>
<polygon fill="midnightblue" stroke="midnightblue" points="1208.85,-90.1697 1198.35,-91.5494 1207.42,-97.0216 1208.85,-90.1697"/>
</g>
<!-- Node21 -->
<g id="node21" class="node"><title>Node21</title>
<polygon fill="none" stroke="#bfbfbf" points="2104.5,-74.5 2104.5,-93.5 2253.5,-93.5 2253.5,-74.5 2104.5,-74.5"/>
<text text-anchor="middle" x="2179" y="-81.5" font-family="Helvetica,sans-Serif" font-size="10.00">Math/GenVector/Rotation3D.h</text>
</g>
<!-- Node20&#45;&gt;Node21 -->
<g id="edge20" class="edge"><title>Node20&#45;&gt;Node21</title>
<path fill="none" stroke="midnightblue" d="M1876.14,-136.489C1931.19,-127.615 2019.67,-113.187 2096,-100 2104.6,-98.5148 2113.69,-96.9084 2122.58,-95.3177"/>
<polygon fill="midnightblue" stroke="midnightblue" points="2123.27,-98.7498 2132.49,-93.5358 2122.03,-91.8602 2123.27,-98.7498"/>
</g>
<!-- Node22 -->
<g id="node22" class="node"><title>Node22</title>
<polygon fill="none" stroke="#bfbfbf" points="2272,-74.5 2272,-93.5 2428,-93.5 2428,-74.5 2272,-74.5"/>
<text text-anchor="middle" x="2350" y="-81.5" font-family="Helvetica,sans-Serif" font-size="10.00">Math/GenVector/Transform3D.h</text>
</g>
<!-- Node20&#45;&gt;Node22 -->
<g id="edge21" class="edge"><title>Node20&#45;&gt;Node22</title>
<path fill="none" stroke="midnightblue" d="M1885.68,-139.899C1971,-132.653 2128.39,-118.214 2262,-100 2272.24,-98.6039 2283.12,-96.9173 2293.6,-95.1863"/>
<polygon fill="midnightblue" stroke="midnightblue" points="2294.22,-98.6312 2303.51,-93.5211 2293.06,-91.7282 2294.22,-98.6312"/>
</g>
<!-- Node23 -->
<g id="node23" class="node"><title>Node23</title>
<polygon fill="none" stroke="#bfbfbf" points="1254,-74.5 1254,-93.5 1414,-93.5 1414,-74.5 1254,-74.5"/>
<text text-anchor="middle" x="1334" y="-81.5" font-family="Helvetica,sans-Serif" font-size="10.00">Math/GenVector/Translation3D.h</text>
</g>
<!-- Node20&#45;&gt;Node23 -->
<g id="edge22" class="edge"><title>Node20&#45;&gt;Node23</title>
<path fill="none" stroke="midnightblue" d="M1760.18,-137.091C1757.08,-136.718 1754,-136.352 1751,-136 1605.35,-118.904 1568.26,-120.195 1423,-100 1412.77,-98.5774 1401.9,-96.8927 1391.41,-95.1752"/>
<polygon fill="midnightblue" stroke="midnightblue" points="1391.94,-91.7145 1381.5,-93.5259 1390.79,-98.6196 1391.94,-91.7145"/>
</g>
<!-- Node24 -->
<g id="node24" class="node"><title>Node24</title>
<polygon fill="none" stroke="#bfbfbf" points="1432,-74.5 1432,-93.5 1508,-93.5 1508,-74.5 1432,-74.5"/>
<text text-anchor="middle" x="1470" y="-81.5" font-family="Helvetica,sans-Serif" font-size="10.00">TGeoMatrix.h</text>
</g>
<!-- Node20&#45;&gt;Node24 -->
<g id="edge24" class="edge"><title>Node20&#45;&gt;Node24</title>
<path fill="none" stroke="midnightblue" d="M1760.2,-136.914C1684.78,-126.995 1562.81,-110.241 1518,-100 1513.57,-98.9879 1508.96,-97.7676 1504.42,-96.4654"/>
<polygon fill="midnightblue" stroke="midnightblue" points="1505.3,-93.0728 1494.71,-93.5334 1503.27,-99.7741 1505.3,-93.0728"/>
</g>
<!-- Node25 -->
<g id="node25" class="node"><title>Node25</title>
<polygon fill="none" stroke="#bfbfbf" points="1526.5,-69 1526.5,-99 1677.5,-99 1677.5,-69 1526.5,-69"/>
<text text-anchor="start" x="1534.5" y="-87" font-family="Helvetica,sans-Serif" font-size="10.00">Math/GenVector/Displacement</text>
<text text-anchor="middle" x="1602" y="-76" font-family="Helvetica,sans-Serif" font-size="10.00">Vector3D.h</text>
</g>
<!-- Node20&#45;&gt;Node25 -->
<g id="edge25" class="edge"><title>Node20&#45;&gt;Node25</title>
<path fill="none" stroke="midnightblue" d="M1791.34,-136.403C1758.08,-127.374 1704.94,-112.947 1663.41,-101.672"/>
<polygon fill="midnightblue" stroke="midnightblue" points="1664.23,-98.2677 1653.66,-99.0253 1662.39,-105.023 1664.23,-98.2677"/>
</g>
<!-- Node26 -->
<g id="node26" class="node"><title>Node26</title>
<polygon fill="none" stroke="#bfbfbf" points="1696,-74.5 1696,-93.5 1872,-93.5 1872,-74.5 1696,-74.5"/>
<text text-anchor="middle" x="1784" y="-81.5" font-family="Helvetica,sans-Serif" font-size="10.00">Math/GenVector/PositionVector3D.h</text>
</g>
<!-- Node20&#45;&gt;Node26 -->
<g id="edge26" class="edge"><title>Node20&#45;&gt;Node26</title>
<path fill="none" stroke="midnightblue" d="M1817.41,-136.403C1811.62,-127.493 1802.41,-113.325 1795.13,-102.118"/>
<polygon fill="midnightblue" stroke="midnightblue" points="1797.96,-100.058 1789.58,-93.5806 1792.09,-103.873 1797.96,-100.058"/>
</g>
<!-- Node27 -->
<g id="node27" class="node"><title>Node27</title>
<g id="a_node27"><a xlink:href="../../d2/dd0/Cartesian2D_8h.html" target="_top" xlink:title="MathUtils/Cartesian2D.h">
<polygon fill="none" stroke="black" points="1889.5,-74.5 1889.5,-93.5 2014.5,-93.5 2014.5,-74.5 1889.5,-74.5"/>
<text text-anchor="middle" x="1952" y="-81.5" font-family="Helvetica,sans-Serif" font-size="10.00">MathUtils/Cartesian2D.h</text>
</a>
</g>
</g>
<!-- Node20&#45;&gt;Node27 -->
<g id="edge27" class="edge"><title>Node20&#45;&gt;Node27</title>
<path fill="none" stroke="midnightblue" d="M1841.48,-136.403C1863.13,-126.334 1899.21,-109.552 1924.23,-97.9151"/>
<polygon fill="midnightblue" stroke="midnightblue" points="1925.96,-100.971 1933.55,-93.5806 1923.01,-94.6244 1925.96,-100.971"/>
</g>
<!-- Node30 -->
<g id="node30" class="node"><title>Node30</title>
<polygon fill="none" stroke="#bfbfbf" points="2033,-74.5 2033,-93.5 2087,-93.5 2087,-74.5 2033,-74.5"/>
<text text-anchor="middle" x="2060" y="-81.5" font-family="Helvetica,sans-Serif" font-size="10.00">iostream</text>
</g>
<!-- Node20&#45;&gt;Node30 -->
<g id="edge30" class="edge"><title>Node20&#45;&gt;Node30</title>
<path fill="none" stroke="midnightblue" d="M1871.27,-136.443C1912.14,-128.651 1972.05,-115.941 2023,-100 2025.64,-99.1747 2028.35,-98.2425 2031.05,-97.2569"/>
<polygon fill="midnightblue" stroke="midnightblue" points="2032.57,-100.423 2040.63,-93.5479 2030.04,-93.8952 2032.57,-100.423"/>
</g>
<!-- Node28 -->
<g id="node28" class="node"><title>Node28</title>
<polygon fill="none" stroke="#bfbfbf" points="1785.5,-1 1785.5,-31 1936.5,-31 1936.5,-1 1785.5,-1"/>
<text text-anchor="start" x="1793.5" y="-19" font-family="Helvetica,sans-Serif" font-size="10.00">Math/GenVector/Displacement</text>
<text text-anchor="middle" x="1861" y="-8" font-family="Helvetica,sans-Serif" font-size="10.00">Vector2D.h</text>
</g>
<!-- Node27&#45;&gt;Node28 -->
<g id="edge28" class="edge"><title>Node27&#45;&gt;Node28</title>
<path fill="none" stroke="midnightblue" d="M1940.1,-74.3717C1927.22,-65.0286 1906.22,-49.7966 1889.09,-37.375"/>
<polygon fill="midnightblue" stroke="midnightblue" points="1890.7,-34.2194 1880.55,-31.1815 1886.59,-39.8859 1890.7,-34.2194"/>
</g>
<!-- Node29 -->
<g id="node29" class="node"><title>Node29</title>
<polygon fill="none" stroke="#bfbfbf" points="1955,-6.5 1955,-25.5 2131,-25.5 2131,-6.5 1955,-6.5"/>
<text text-anchor="middle" x="2043" y="-13.5" font-family="Helvetica,sans-Serif" font-size="10.00">Math/GenVector/PositionVector2D.h</text>
</g>
<!-- Node27&#45;&gt;Node29 -->
<g id="edge29" class="edge"><title>Node27&#45;&gt;Node29</title>
<path fill="none" stroke="midnightblue" d="M1963.9,-74.3717C1978.88,-63.5015 2004.86,-44.6602 2022.94,-31.5474"/>
<polygon fill="midnightblue" stroke="midnightblue" points="2025.06,-34.3349 2031.1,-25.6305 2020.95,-28.6684 2025.06,-34.3349"/>
</g>
<!-- Node31&#45;&gt;Node13 -->
<g id="edge36" class="edge"><title>Node31&#45;&gt;Node13</title>
<path fill="none" stroke="midnightblue" d="M1330.46,-198.467C1280.75,-187.738 1195.4,-169.316 1141.43,-157.667"/>
<polygon fill="midnightblue" stroke="midnightblue" points="1141.91,-154.192 1131.4,-155.503 1140.44,-161.034 1141.91,-154.192"/>
</g>
<!-- Node31&#45;&gt;Node16 -->
<g id="edge37" class="edge"><title>Node31&#45;&gt;Node16</title>
<path fill="none" stroke="midnightblue" d="M1304.17,-204.169C1265.73,-199.081 1219.04,-186.44 1189,-156 1175.44,-142.261 1171.27,-119.966 1170.13,-104.025"/>
<polygon fill="midnightblue" stroke="midnightblue" points="1173.62,-103.614 1169.74,-93.7532 1166.62,-103.878 1173.62,-103.614"/>
</g>
<!-- Node32 -->
<g id="node32" class="node"><title>Node32</title>
<polygon fill="none" stroke="#bfbfbf" points="1707.5,-136.5 1707.5,-155.5 1742.5,-155.5 1742.5,-136.5 1707.5,-136.5"/>
<text text-anchor="middle" x="1725" y="-143.5" font-family="Helvetica,sans-Serif" font-size="10.00">map</text>
</g>
<!-- Node31&#45;&gt;Node32 -->
<g id="edge32" class="edge"><title>Node31&#45;&gt;Node32</title>
<path fill="none" stroke="midnightblue" d="M1435.67,-200.071C1500.13,-192.53 1601.26,-178.728 1697.51,-155.737"/>
<polygon fill="midnightblue" stroke="midnightblue" points="1698.51,-159.095 1707.4,-153.336 1696.86,-152.292 1698.51,-159.095"/>
</g>
<!-- Node33 -->
<g id="node33" class="node"><title>Node33</title>
<polygon fill="none" stroke="#bfbfbf" points="1198,-136.5 1198,-155.5 1242,-155.5 1242,-136.5 1198,-136.5"/>
<text text-anchor="middle" x="1220" y="-143.5" font-family="Helvetica,sans-Serif" font-size="10.00">vector</text>
</g>
<!-- Node31&#45;&gt;Node33 -->
<g id="edge33" class="edge"><title>Node31&#45;&gt;Node33</title>
<path fill="none" stroke="midnightblue" d="M1348.51,-198.403C1322.89,-188.156 1279.89,-170.956 1250.76,-159.302"/>
<polygon fill="midnightblue" stroke="midnightblue" points="1252.04,-156.045 1241.45,-155.581 1249.44,-162.544 1252.04,-156.045"/>
</g>
<!-- Node34 -->
<g id="node34" class="node"><title>Node34</title>
<polygon fill="none" stroke="#bfbfbf" points="1260,-136.5 1260,-155.5 1312,-155.5 1312,-136.5 1260,-136.5"/>
<text text-anchor="middle" x="1286" y="-143.5" font-family="Helvetica,sans-Serif" font-size="10.00">memory</text>
</g>
<!-- Node31&#45;&gt;Node34 -->
<g id="edge34" class="edge"><title>Node31&#45;&gt;Node34</title>
<path fill="none" stroke="midnightblue" d="M1357.96,-198.403C1344.49,-188.78 1322.43,-173.024 1306.28,-161.489"/>
<polygon fill="midnightblue" stroke="midnightblue" points="1308.18,-158.545 1298.01,-155.581 1304.12,-164.241 1308.18,-158.545"/>
</g>
<!-- Node35 -->
<g id="node35" class="node"><title>Node35</title>
<polygon fill="none" stroke="#bfbfbf" points="1330.5,-136.5 1330.5,-155.5 1409.5,-155.5 1409.5,-136.5 1330.5,-136.5"/>
<text text-anchor="middle" x="1370" y="-143.5" font-family="Helvetica,sans-Serif" font-size="10.00">FairDetector.h</text>
</g>
<!-- Node31&#45;&gt;Node35 -->
<g id="edge35" class="edge"><title>Node31&#45;&gt;Node35</title>
<path fill="none" stroke="midnightblue" d="M1370,-198.403C1370,-189.938 1370,-176.728 1370,-165.82"/>
<polygon fill="midnightblue" stroke="midnightblue" points="1373.5,-165.581 1370,-155.581 1366.5,-165.581 1373.5,-165.581"/>
</g>
<!-- Node36 -->
<g id="node36" class="node"><title>Node36</title>
<polygon fill="none" stroke="#bfbfbf" points="1427.5,-136.5 1427.5,-155.5 1480.5,-155.5 1480.5,-136.5 1427.5,-136.5"/>
<text text-anchor="middle" x="1454" y="-143.5" font-family="Helvetica,sans-Serif" font-size="10.00">cxxabi.h</text>
</g>
<!-- Node31&#45;&gt;Node36 -->
<g id="edge38" class="edge"><title>Node31&#45;&gt;Node36</title>
<path fill="none" stroke="midnightblue" d="M1382.04,-198.403C1395.51,-188.78 1417.57,-173.024 1433.72,-161.489"/>
<polygon fill="midnightblue" stroke="midnightblue" points="1435.88,-164.241 1441.99,-155.581 1431.82,-158.545 1435.88,-164.241"/>
</g>
<!-- Node37 -->
<g id="node37" class="node"><title>Node37</title>
<polygon fill="none" stroke="#bfbfbf" points="1498.5,-136.5 1498.5,-155.5 1549.5,-155.5 1549.5,-136.5 1498.5,-136.5"/>
<text text-anchor="middle" x="1524" y="-143.5" font-family="Helvetica,sans-Serif" font-size="10.00">typeinfo</text>
</g>
<!-- Node31&#45;&gt;Node37 -->
<g id="edge39" class="edge"><title>Node31&#45;&gt;Node37</title>
<path fill="none" stroke="midnightblue" d="M1392.06,-198.403C1418.37,-188.156 1462.51,-170.956 1492.42,-159.302"/>
<polygon fill="midnightblue" stroke="midnightblue" points="1493.93,-162.472 1501.98,-155.581 1491.39,-155.95 1493.93,-162.472"/>
</g>
<!-- Node38 -->
<g id="node38" class="node"><title>Node38</title>
<polygon fill="none" stroke="#bfbfbf" points="1568,-136.5 1568,-155.5 1630,-155.5 1630,-136.5 1568,-136.5"/>
<text text-anchor="middle" x="1599" y="-143.5" font-family="Helvetica,sans-Serif" font-size="10.00">type_traits</text>
</g>
<!-- Node31&#45;&gt;Node38 -->
<g id="edge40" class="edge"><title>Node31&#45;&gt;Node38</title>
<path fill="none" stroke="midnightblue" d="M1402.81,-198.403C1443.66,-187.701 1513.44,-169.417 1557.83,-157.786"/>
<polygon fill="midnightblue" stroke="midnightblue" points="1558.93,-161.116 1567.72,-155.195 1557.16,-154.344 1558.93,-161.116"/>
</g>
<!-- Node39 -->
<g id="node39" class="node"><title>Node39</title>
<polygon fill="none" stroke="#bfbfbf" points="1648.5,-136.5 1648.5,-155.5 1689.5,-155.5 1689.5,-136.5 1648.5,-136.5"/>
<text text-anchor="middle" x="1669" y="-143.5" font-family="Helvetica,sans-Serif" font-size="10.00">string</text>
</g>
<!-- Node31&#45;&gt;Node39 -->
<g id="edge41" class="edge"><title>Node31&#45;&gt;Node39</title>
<path fill="none" stroke="midnightblue" d="M1422.69,-198.487C1476.96,-189.366 1563.85,-173.778 1638,-156 1638.21,-155.949 1638.42,-155.898 1638.64,-155.847"/>
<polygon fill="midnightblue" stroke="midnightblue" points="1639.62,-159.208 1648.4,-153.276 1637.83,-152.438 1639.62,-159.208"/>
</g>
</g>
</svg>
        <g id="navigator" transform="translate(0 0)" fill="#404254">
                <rect fill="#f2f5e9" fill-opacity="0.5" stroke="#606060" stroke-width=".5" x="0" y="0" width="60" height="60"/>
                <use id="zoomplus" xlink:href="#zoomPlus" x="17" y="9" onmousedown="handleZoom(evt,'in')"/>
                <use id="zoomminus" xlink:href="#zoomMin" x="42" y="9" onmousedown="handleZoom(evt,'out')"/>
                <use id="reset" xlink:href="#resetDef" x="30" y="36" onmousedown="handleReset()"/>
                <g id="arrowUp" xlink:href="#dirArrow" transform="translate(30 24)" onmousedown="handlePan(0,-1)">
                  <use xlink:href="#rim" fill="#404040">
                        <set attributeName="fill" to="#808080" begin="arrowUp.mouseover" end="arrowUp.mouseout"/>
                  </use>
                  <path fill="none" stroke="white" stroke-width="1.5" d="M0,-3.0v7 M-2.5,-0.5L0,-3.0L2.5,-0.5"/>
                </g>
                <g id="arrowRight" xlink:href="#dirArrow" transform="rotate(90) translate(36 -43)" onmousedown="handlePan(1,0)">
                  <use xlink:href="#rim" fill="#404040">
                        <set attributeName="fill" to="#808080" begin="arrowRight.mouseover" end="arrowRight.mouseout"/>
                  </use>
                  <path fill="none" stroke="white" stroke-width="1.5" d="M0,-3.0v7 M-2.5,-0.5L0,-3.0L2.5,-0.5"/>
                </g>
                <g id="arrowDown" xlink:href="#dirArrow" transform="rotate(180) translate(-30 -48)" onmousedown="handlePan(0,1)">
                  <use xlink:href="#rim" fill="#404040">
                        <set attributeName="fill" to="#808080" begin="arrowDown.mouseover" end="arrowDown.mouseout"/>
                  </use>
                  <path fill="none" stroke="white" stroke-width="1.5" d="M0,-3.0v7 M-2.5,-0.5L0,-3.0L2.5,-0.5"/>
                </g>
                <g id="arrowLeft" xlink:href="#dirArrow" transform="rotate(270) translate(-36 17)" onmousedown="handlePan(-1,0)">
                  <use xlink:href="#rim" fill="#404040">
                        <set attributeName="fill" to="#808080" begin="arrowLeft.mouseover" end="arrowLeft.mouseout"/>
                  </use>
                  <path fill="none" stroke="white" stroke-width="1.5" d="M0,-3.0v7 M-2.5,-0.5L0,-3.0L2.5,-0.5"/>
                </g>
        </g>
        <svg viewBox="0 0 15 15" width="100%" height="30px" preserveAspectRatio="xMaxYMin meet">
         <g id="arrow_out" transform="scale(0.3 0.3)">
          <a xlink:href="FIT_2simulation_2src_2Detector_8cxx__incl_org.svg" target="_base">
           <rect id="button" ry="5" rx="5" y="6" x="6" height="38" width="38"
                fill="#f2f5e9" fill-opacity="0.5" stroke="#606060" stroke-width="1.0"/>
           <path id="arrow"
             d="M 11.500037,31.436501 C 11.940474,20.09759 22.043105,11.32322 32.158766,21.979434 L 37.068811,17.246167 C 37.068811,17.246167 37.088388,32 37.088388,32 L 22.160133,31.978069 C 22.160133,31.978069 26.997745,27.140456 26.997745,27.140456 C 18.528582,18.264221 13.291696,25.230495 11.500037,31.436501 z"
             style="fill:#404040;"/>
          </a>
         </g>
        </svg>
</svg>
