<?xml version="1.0" encoding="UTF-8" standalone="no"?>
<!DOCTYPE svg PUBLIC "-//W3C//DTD SVG 1.1//EN"
 "http://www.w3.org/Graphics/SVG/1.1/DTD/svg11.dtd">
<!-- Generated by graphviz version 2.36.0 (20140111.2315)
 -->
<!-- Title: o2::DataFormat::TPC::ClusterNative Pages: 1 -->
<svg width="480pt" height="358pt"
 viewBox="0.00 0.00 480.00 358.00" xmlns="http://www.w3.org/2000/svg" xmlns:xlink="http://www.w3.org/1999/xlink">
<g id="graph0" class="graph" transform="scale(1 1) rotate(0) translate(4 354)">
<title>o2::DataFormat::TPC::ClusterNative</title>
<!-- Node1 -->
<g id="node1" class="node"><title>Node1</title>
<polygon fill="#bfbfbf" stroke="black" points="123,-0.5 123,-211.5 247,-211.5 247,-0.5 123,-0.5"/>
<text text-anchor="start" x="131" y="-199.5" font-family="Helvetica,sans-Serif" font-size="10.00">o2::DataFormat::TPC</text>
<text text-anchor="middle" x="185" y="-188.5" font-family="Helvetica,sans-Serif" font-size="10.00">::ClusterNative</text>
<polyline fill="none" stroke="black" points="123,-181.5 247,-181.5 "/>
<text text-anchor="middle" x="185" y="-169.5" font-family="Helvetica,sans-Serif" font-size="10.00"> </text>
<polyline fill="none" stroke="black" points="123,-162.5 247,-162.5 "/>
<text text-anchor="start" x="131" y="-150.5" font-family="Helvetica,sans-Serif" font-size="10.00">+ getFlags()</text>
<text text-anchor="start" x="131" y="-139.5" font-family="Helvetica,sans-Serif" font-size="10.00">+ getTimePacked()</text>
<text text-anchor="start" x="131" y="-128.5" font-family="Helvetica,sans-Serif" font-size="10.00">+ setTimePackedFlags()</text>
<text text-anchor="start" x="131" y="-117.5" font-family="Helvetica,sans-Serif" font-size="10.00">+ setTimePacked()</text>
<text text-anchor="start" x="131" y="-106.5" font-family="Helvetica,sans-Serif" font-size="10.00">+ setFlags()</text>
<text text-anchor="start" x="131" y="-95.5" font-family="Helvetica,sans-Serif" font-size="10.00">+ getTime()</text>
<text text-anchor="start" x="131" y="-84.5" font-family="Helvetica,sans-Serif" font-size="10.00">+ setTime()</text>
<text text-anchor="start" x="131" y="-73.5" font-family="Helvetica,sans-Serif" font-size="10.00">+ setTimeFlags()</text>
<text text-anchor="start" x="131" y="-62.5" font-family="Helvetica,sans-Serif" font-size="10.00">+ getPad()</text>
<text text-anchor="start" x="131" y="-51.5" font-family="Helvetica,sans-Serif" font-size="10.00">+ setPad()</text>
<text text-anchor="start" x="131" y="-40.5" font-family="Helvetica,sans-Serif" font-size="10.00">+ getSigmaTime2()</text>
<text text-anchor="start" x="131" y="-29.5" font-family="Helvetica,sans-Serif" font-size="10.00">+ setSigmaTime2()</text>
<text text-anchor="start" x="131" y="-18.5" font-family="Helvetica,sans-Serif" font-size="10.00">+ getSigmaPad2()</text>
<text text-anchor="start" x="131" y="-7.5" font-family="Helvetica,sans-Serif" font-size="10.00">+ setSigmaPad2()</text>
</g>
<!-- Node2 -->
<g id="node2" class="node"><title>Node2</title>
<polygon fill="none" stroke="#bfbfbf" points="-0.5,-292.5 -0.5,-349.5 50.5,-349.5 50.5,-292.5 -0.5,-292.5"/>
<text text-anchor="middle" x="25" y="-337.5" font-family="Helvetica,sans-Serif" font-size="10.00">uint16_t</text>
<polyline fill="none" stroke="#bfbfbf" points="-0.5,-330.5 50.5,-330.5 "/>
<text text-anchor="middle" x="25" y="-318.5" font-family="Helvetica,sans-Serif" font-size="10.00"> </text>
<polyline fill="none" stroke="#bfbfbf" points="-0.5,-311.5 50.5,-311.5 "/>
<text text-anchor="middle" x="25" y="-299.5" font-family="Helvetica,sans-Serif" font-size="10.00"> </text>
</g>
<!-- Node2&#45;&gt;Node1 -->
<g id="edge1" class="edge"><title>Node2&#45;&gt;Node1</title>
<path fill="none" stroke="#404040" d="M25.1294,-292.377C26.3203,-273.675 30.1197,-249.007 41,-230 58.4572,-199.504 86.4361,-173.034 113.109,-152.542"/>
<polygon fill="none" stroke="#404040" points="113.239,-152.446 115.654,-145.651 122.855,-145.267 120.439,-152.062 113.239,-152.446"/>
<text text-anchor="middle" x="73.5" y="-260.5" font-family="Helvetica,sans-Serif" font-size="10.00"> +mQMax</text>
<text text-anchor="middle" x="73.5" y="-249.5" font-family="Helvetica,sans-Serif" font-size="10.00">+mQTot</text>
<text text-anchor="middle" x="73.5" y="-238.5" font-family="Helvetica,sans-Serif" font-size="10.00">+mPadPacked</text>
</g>
<!-- Node3 -->
<g id="node3" class="node"><title>Node3</title>
<g id="a_node3"><a xlink:href="../../d4/dc3/classfloat.html" target="_top" xlink:title="{float\n||}">
<polygon fill="none" stroke="black" points="95.5,-292.5 95.5,-349.5 130.5,-349.5 130.5,-292.5 95.5,-292.5"/>
<text text-anchor="middle" x="113" y="-337.5" font-family="Helvetica,sans-Serif" font-size="10.00">float</text>
<polyline fill="none" stroke="black" points="95.5,-330.5 130.5,-330.5 "/>
<text text-anchor="middle" x="113" y="-318.5" font-family="Helvetica,sans-Serif" font-size="10.00"> </text>
<polyline fill="none" stroke="black" points="95.5,-311.5 130.5,-311.5 "/>
<text text-anchor="middle" x="113" y="-299.5" font-family="Helvetica,sans-Serif" font-size="10.00"> </text>
</a>
</g>
</g>
<!-- Node3&#45;&gt;Node1 -->
<g id="edge2" class="edge"><title>Node3&#45;&gt;Node1</title>
<path fill="none" stroke="#404040" d="M109.725,-292.324C108.455,-274.261 108.428,-250.346 114,-230 115.264,-225.383 116.745,-220.759 118.403,-216.156"/>
<polygon fill="none" stroke="#404040" points="118.486,-215.944 116.95,-208.898 122.863,-204.771 124.399,-211.816 118.486,-215.944"/>
<text text-anchor="middle" x="175" y="-266" font-family="Helvetica,sans-Serif" font-size="10.00"> +mScaleTimePacked</text>
<text text-anchor="middle" x="175" y="-255" font-family="Helvetica,sans-Serif" font-size="10.00">+mScaleSigmaTimePacked</text>
<text text-anchor="middle" x="175" y="-244" font-family="Helvetica,sans-Serif" font-size="10.00">+mScaleSigmaPadPacked</text>
<text text-anchor="middle" x="175" y="-233" font-family="Helvetica,sans-Serif" font-size="10.00">+mScalePadPacked</text>
</g>
<!-- Node4 -->
<g id="node4" class="node"><title>Node4</title>
<polygon fill="none" stroke="#bfbfbf" points="232.5,-292.5 232.5,-349.5 283.5,-349.5 283.5,-292.5 232.5,-292.5"/>
<text text-anchor="middle" x="258" y="-337.5" font-family="Helvetica,sans-Serif" font-size="10.00">uint32_t</text>
<polyline fill="none" stroke="#bfbfbf" points="232.5,-330.5 283.5,-330.5 "/>
<text text-anchor="middle" x="258" y="-318.5" font-family="Helvetica,sans-Serif" font-size="10.00"> </text>
<polyline fill="none" stroke="#bfbfbf" points="232.5,-311.5 283.5,-311.5 "/>
<text text-anchor="middle" x="258" y="-299.5" font-family="Helvetica,sans-Serif" font-size="10.00"> </text>
</g>
<!-- Node4&#45;&gt;Node1 -->
<g id="edge3" class="edge"><title>Node4&#45;&gt;Node1</title>
<path fill="none" stroke="#404040" d="M252.342,-292.118C248.42,-274.183 242.706,-250.484 236,-230 235.258,-227.734 234.493,-225.452 233.709,-223.157"/>
<polygon fill="none" stroke="#404040" points="233.626,-222.923 227.858,-218.596 229.633,-211.607 235.402,-215.934 233.626,-222.923"/>
<text text-anchor="middle" x="297.5" y="-249.5" font-family="Helvetica,sans-Serif" font-size="10.00"> +mTimeFlagsPacked</text>
</g>
<!-- Node5 -->
<g id="node5" class="node"><title>Node5</title>
<polygon fill="none" stroke="#bfbfbf" points="355,-292.5 355,-349.5 401,-349.5 401,-292.5 355,-292.5"/>
<text text-anchor="middle" x="378" y="-337.5" font-family="Helvetica,sans-Serif" font-size="10.00">uint8_t</text>
<polyline fill="none" stroke="#bfbfbf" points="355,-330.5 401,-330.5 "/>
<text text-anchor="middle" x="378" y="-318.5" font-family="Helvetica,sans-Serif" font-size="10.00"> </text>
<polyline fill="none" stroke="#bfbfbf" points="355,-311.5 401,-311.5 "/>
<text text-anchor="middle" x="378" y="-299.5" font-family="Helvetica,sans-Serif" font-size="10.00"> </text>
</g>
<!-- Node5&#45;&gt;Node1 -->
<g id="edge4" class="edge"><title>Node5&#45;&gt;Node1</title>
<path fill="none" stroke="#404040" d="M374.034,-292.421C370.266,-273.504 363.14,-248.566 350,-230 326.066,-196.184 289.964,-167.768 257.626,-146.797"/>
<polygon fill="none" stroke="#404040" points="257.421,-146.667 250.211,-146.84 247.279,-140.252 254.488,-140.079 257.421,-146.667"/>
<text text-anchor="middle" x="420.5" y="-255" font-family="Helvetica,sans-Serif" font-size="10.00"> +mSigmaPad2Packed</text>
<text text-anchor="middle" x="420.5" y="-244" font-family="Helvetica,sans-Serif" font-size="10.00">+mSigmaTime2Packed</text>
</g>
</g>
</svg>
