<?xml version="1.0" encoding="UTF-8" standalone="no"?>
<!DOCTYPE svg PUBLIC "-//W3C//DTD SVG 1.1//EN"
 "http://www.w3.org/Graphics/SVG/1.1/DTD/svg11.dtd">
<!-- Generated by graphviz version 2.36.0 (20140111.2315)
 -->
<!-- Title: /home/travis/build/AliceO2Group/AliceO2/Detectors/ITSMFT/ITS/reconstruction/include/ITSReconstruction/CATracker.h Pages: 1 -->
<!--zoomable 556 -->
<svg id="main" version="1.1" xmlns="http://www.w3.org/2000/svg" xmlns:xlink="http://www.w3.org/1999/xlink" xml:space="preserve" onload="init(evt)">
<style type="text/css"><![CDATA[
.edge:hover path { stroke: red; }
.edge:hover polygon { stroke: red; fill: red; }
]]></style>
<script type="text/javascript"><![CDATA[
var edges = document.getElementsByTagName('g');
if (edges && edges.length) {
  for (var i=0;i<edges.length;i++) {
    if (edges[i].id.substr(0,4)=='edge') {
      edges[i].setAttribute('class','edge');
    }
  }
}
]]></script>
        <defs>
                <circle id="rim" cx="0" cy="0" r="7"/>
                <circle id="rim2" cx="0" cy="0" r="3.5"/>
                <g id="zoomPlus">
                        <use xlink:href="#rim" fill="#404040">
                                <set attributeName="fill" to="#808080" begin="zoomplus.mouseover" end="zoomplus.mouseout"/>
                        </use>
                        <path d="M-4,0h8M0,-4v8" fill="none" stroke="white" stroke-width="1.5" pointer-events="none"/>
                </g>
                <g id="zoomMin">
                        <use xlink:href="#rim" fill="#404040">
                                <set attributeName="fill" to="#808080" begin="zoomminus.mouseover" end="zoomminus.mouseout"/>
                        </use>
                        <path d="M-4,0h8" fill="none" stroke="white" stroke-width="1.5" pointer-events="none"/>
                </g>
                <g id="dirArrow">
                        <path fill="none" stroke="white" stroke-width="1.5" d="M0,-3.0v7 M-2.5,-0.5L0,-3.0L2.5,-0.5"/>
                </g>
               <g id="resetDef">
                       <use xlink:href="#rim2" fill="#404040">
                               <set attributeName="fill" to="#808080" begin="reset.mouseover" end="reset.mouseout"/>
                       </use>
               </g>
        </defs>

<script type="text/javascript">
var viewWidth = 2203;
var viewHeight = 556;
var sectionId = 'dynsection-0';
</script>
<script xlink:href="../../svgpan.js"/>
<svg id="graph" class="graph">
<g id="viewport">
<title>/home/travis/build/AliceO2Group/AliceO2/Detectors/ITSMFT/ITS/reconstruction/include/ITSReconstruction/CATracker.h</title>
<!-- Node1 -->
<g id="node1" class="node"><title>Node1</title>
<polygon fill="#bfbfbf" stroke="black" points="1924,-484.5 1924,-547.5 2084,-547.5 2084,-484.5 1924,-484.5"/>
<text text-anchor="start" x="1932" y="-535.5" font-family="Helvetica,sans-Serif" font-size="10.00">/home/travis/build</text>
<text text-anchor="start" x="1932" y="-524.5" font-family="Helvetica,sans-Serif" font-size="10.00">/AliceO2Group/AliceO2</text>
<text text-anchor="start" x="1932" y="-513.5" font-family="Helvetica,sans-Serif" font-size="10.00">/Detectors/ITSMFT/ITS</text>
<text text-anchor="start" x="1932" y="-502.5" font-family="Helvetica,sans-Serif" font-size="10.00">/reconstruction/include</text>
<text text-anchor="middle" x="2004" y="-491.5" font-family="Helvetica,sans-Serif" font-size="10.00">/ITSReconstruction/CATracker.h</text>
</g>
<!-- Node2 -->
<g id="node2" class="node"><title>Node2</title>
<polygon fill="none" stroke="#bfbfbf" points="2053,-136.5 2053,-155.5 2097,-155.5 2097,-136.5 2053,-136.5"/>
<text text-anchor="middle" x="2075" y="-143.5" font-family="Helvetica,sans-Serif" font-size="10.00">vector</text>
</g>
<!-- Node1&#45;&gt;Node2 -->
<g id="edge1" class="edge"><title>Node1&#45;&gt;Node2</title>
<path fill="none" stroke="midnightblue" d="M2052.18,-484.164C2065.44,-473.906 2078.94,-461.591 2089,-448 2110.86,-418.484 2119,-407.728 2119,-371 2119,-371 2119,-371 2119,-257 2119,-222.04 2099.6,-185.013 2086.57,-164.075"/>
<polygon fill="midnightblue" stroke="midnightblue" points="2089.49,-162.146 2081.12,-155.651 2083.61,-165.949 2089.49,-162.146"/>
</g>
<!-- Node3 -->
<g id="node3" class="node"><title>Node3</title>
<polygon fill="none" stroke="#bfbfbf" points="1924,-6.5 1924,-25.5 1962,-25.5 1962,-6.5 1924,-6.5"/>
<text text-anchor="middle" x="1943" y="-13.5" font-family="Helvetica,sans-Serif" font-size="10.00">array</text>
</g>
<!-- Node1&#45;&gt;Node3 -->
<g id="edge2" class="edge"><title>Node1&#45;&gt;Node3</title>
<path fill="none" stroke="midnightblue" d="M2084.17,-489.731C2136.44,-467.692 2195,-429.866 2195,-371 2195,-371 2195,-371 2195,-145 2195,-46.2246 2039.19,-23.6451 1972.61,-18.5055"/>
<polygon fill="midnightblue" stroke="midnightblue" points="1972.57,-14.995 1962.36,-17.7991 1972.09,-21.9785 1972.57,-14.995"/>
</g>
<!-- Node4 -->
<g id="node4" class="node"><title>Node4</title>
<g id="a_node4"><a xlink:href="../../d1/db5/CAaux_8h.html" target="_top" xlink:title="ITSReconstruction/CAaux.h">
<polygon fill="none" stroke="black" points="1771,-360.5 1771,-379.5 1911,-379.5 1911,-360.5 1771,-360.5"/>
<text text-anchor="middle" x="1841" y="-367.5" font-family="Helvetica,sans-Serif" font-size="10.00">ITSReconstruction/CAaux.h</text>
</a>
</g>
</g>
<!-- Node1&#45;&gt;Node4 -->
<g id="edge3" class="edge"><title>Node1&#45;&gt;Node4</title>
<path fill="none" stroke="midnightblue" d="M1962.48,-484.308C1948.08,-473.237 1932.04,-460.406 1918,-448 1895.56,-428.174 1871.41,-403.405 1856.26,-387.399"/>
<polygon fill="midnightblue" stroke="midnightblue" points="1858.61,-384.791 1849.21,-379.901 1853.51,-389.585 1858.61,-384.791"/>
</g>
<!-- Node6 -->
<g id="node6" class="node"><title>Node6</title>
<g id="a_node6"><a xlink:href="../../d7/d65/Detectors_2Base_2include_2DetectorsBase_2Track_8h.html" target="_top" xlink:title="DetectorsBase/Track.h">
<polygon fill="none" stroke="black" points="1388,-304.5 1388,-323.5 1506,-323.5 1506,-304.5 1388,-304.5"/>
<text text-anchor="middle" x="1447" y="-311.5" font-family="Helvetica,sans-Serif" font-size="10.00">DetectorsBase/Track.h</text>
</a>
</g>
</g>
<!-- Node1&#45;&gt;Node6 -->
<g id="edge60" class="edge"><title>Node1&#45;&gt;Node6</title>
<path fill="none" stroke="midnightblue" d="M1923.9,-486.238C1799.96,-441.736 1566.99,-358.084 1480.47,-327.016"/>
<polygon fill="midnightblue" stroke="midnightblue" points="1481.49,-323.665 1470.89,-323.579 1479.12,-330.253 1481.49,-323.665"/>
</g>
<!-- Node37 -->
<g id="node37" class="node"><title>Node37</title>
<g id="a_node37"><a xlink:href="../../d5/df0/CATrackingStation_8h.html" target="_top" xlink:title="ITSReconstruction/CATracking\lStation.h">
<polygon fill="none" stroke="black" points="1927.5,-417 1927.5,-447 2080.5,-447 2080.5,-417 1927.5,-417"/>
<text text-anchor="start" x="1935.5" y="-435" font-family="Helvetica,sans-Serif" font-size="10.00">ITSReconstruction/CATracking</text>
<text text-anchor="middle" x="2004" y="-424" font-family="Helvetica,sans-Serif" font-size="10.00">Station.h</text>
</a>
</g>
</g>
<!-- Node1&#45;&gt;Node37 -->
<g id="edge55" class="edge"><title>Node1&#45;&gt;Node37</title>
<path fill="none" stroke="midnightblue" d="M2004,-484.466C2004,-475.502 2004,-465.822 2004,-457.302"/>
<polygon fill="midnightblue" stroke="midnightblue" points="2007.5,-457.272 2004,-447.272 2000.5,-457.272 2007.5,-457.272"/>
</g>
<!-- Node4&#45;&gt;Node2 -->
<g id="edge4" class="edge"><title>Node4&#45;&gt;Node2</title>
<path fill="none" stroke="midnightblue" d="M1911.23,-367.073C1947.58,-362.52 1990.24,-351.115 2019,-324 2042.47,-301.87 2063.48,-206.123 2071.52,-165.42"/>
<polygon fill="midnightblue" stroke="midnightblue" points="2074.98,-165.989 2073.44,-155.506 2068.1,-164.66 2074.98,-165.989"/>
</g>
<!-- Node4&#45;&gt;Node3 -->
<g id="edge5" class="edge"><title>Node4&#45;&gt;Node3</title>
<path fill="none" stroke="midnightblue" d="M1883.41,-360.436C1906.91,-353.847 1935.26,-342.612 1955,-324 1974.96,-305.174 1975.08,-294.795 1981,-268 2000.06,-181.694 1965.94,-76.576 1950.26,-35.083"/>
<polygon fill="midnightblue" stroke="midnightblue" points="1953.52,-33.8012 1946.63,-25.748 1946.99,-36.3367 1953.52,-33.8012"/>
</g>
<!-- Node5 -->
<g id="node5" class="node"><title>Node5</title>
<polygon fill="none" stroke="#bfbfbf" points="370,-6.5 370,-25.5 414,-25.5 414,-6.5 370,-6.5"/>
<text text-anchor="middle" x="392" y="-13.5" font-family="Helvetica,sans-Serif" font-size="10.00">cmath</text>
</g>
<!-- Node4&#45;&gt;Node5 -->
<g id="edge6" class="edge"><title>Node4&#45;&gt;Node5</title>
<path fill="none" stroke="midnightblue" d="M1770.78,-367.53C1476.03,-360.904 354,-330.956 354,-259 354,-259 354,-259 354,-145 354,-104.231 371.935,-59.0653 383.163,-34.7866"/>
<polygon fill="midnightblue" stroke="midnightblue" points="386.335,-36.2655 387.492,-25.734 380.02,-33.2455 386.335,-36.2655"/>
</g>
<!-- Node4&#45;&gt;Node6 -->
<g id="edge7" class="edge"><title>Node4&#45;&gt;Node6</title>
<path fill="none" stroke="midnightblue" d="M1778.57,-360.444C1707.18,-350.659 1590.61,-334.683 1516.42,-324.514"/>
<polygon fill="midnightblue" stroke="midnightblue" points="1516.62,-321.01 1506.24,-323.119 1515.67,-327.945 1516.62,-321.01"/>
</g>
<!-- Node34 -->
<g id="node34" class="node"><title>Node34</title>
<g id="a_node34"><a xlink:href="../../d1/daa/Base_2include_2DetectorsBase_2Constants_8h.html" target="_top" xlink:title="DetectorsBase/Constants.h">
<polygon fill="none" stroke="black" points="1713,-6.5 1713,-25.5 1851,-25.5 1851,-6.5 1713,-6.5"/>
<text text-anchor="middle" x="1782" y="-13.5" font-family="Helvetica,sans-Serif" font-size="10.00">DetectorsBase/Constants.h</text>
</a>
</g>
</g>
<!-- Node4&#45;&gt;Node34 -->
<g id="edge54" class="edge"><title>Node4&#45;&gt;Node34</title>
<path fill="none" stroke="midnightblue" d="M1865.29,-360.47C1901.91,-345.881 1967,-312.43 1967,-259 1967,-259 1967,-259 1967,-201 1967,-114.431 1863.9,-54.5726 1811.64,-29.788"/>
<polygon fill="midnightblue" stroke="midnightblue" points="1813.05,-26.586 1802.51,-25.5698 1810.12,-32.9408 1813.05,-26.586"/>
</g>
<!-- Node6&#45;&gt;Node3 -->
<g id="edge10" class="edge"><title>Node6&#45;&gt;Node3</title>
<path fill="none" stroke="midnightblue" d="M1506.27,-310.669C1564.83,-306.745 1656.1,-296.221 1730,-268 1832.23,-228.959 1854.14,-194.101 1910,-100 1922.34,-79.2169 1931.88,-52.9749 1937.47,-35.6246"/>
<polygon fill="midnightblue" stroke="midnightblue" points="1940.94,-36.2415 1940.55,-25.6538 1934.25,-34.1727 1940.94,-36.2415"/>
</g>
<!-- Node6&#45;&gt;Node5 -->
<g id="edge12" class="edge"><title>Node6&#45;&gt;Node5</title>
<path fill="none" stroke="midnightblue" d="M1387.95,-307.549C1315.21,-300.425 1188.01,-286.626 1080,-268 777.893,-215.905 622.074,-322.328 411,-100 394.649,-82.7767 391.337,-54.4825 391.139,-35.7959"/>
<polygon fill="midnightblue" stroke="midnightblue" points="394.642,-35.6507 391.329,-25.5872 387.643,-35.5203 394.642,-35.6507"/>
</g>
<!-- Node7 -->
<g id="node7" class="node"><title>Node7</title>
<polygon fill="none" stroke="#bfbfbf" points="1507,-74.5 1507,-93.5 1563,-93.5 1563,-74.5 1507,-74.5"/>
<text text-anchor="middle" x="1535" y="-81.5" font-family="Helvetica,sans-Serif" font-size="10.00">Rtypes.h</text>
</g>
<!-- Node6&#45;&gt;Node7 -->
<g id="edge8" class="edge"><title>Node6&#45;&gt;Node7</title>
<path fill="none" stroke="midnightblue" d="M1388.43,-304.483C1366.67,-298.164 1344.12,-287.16 1331,-268 1325.98,-260.666 1328.66,-256.576 1331,-248 1352.96,-167.467 1448.87,-118.456 1500.99,-97.2851"/>
<polygon fill="midnightblue" stroke="midnightblue" points="1502.47,-100.463 1510.49,-93.5377 1499.9,-93.9515 1502.47,-100.463"/>
</g>
<!-- Node8 -->
<g id="node8" class="node"><title>Node8</title>
<polygon fill="none" stroke="#bfbfbf" points="1883,-248.5 1883,-267.5 1939,-267.5 1939,-248.5 1883,-248.5"/>
<text text-anchor="middle" x="1911" y="-255.5" font-family="Helvetica,sans-Serif" font-size="10.00">algorithm</text>
</g>
<!-- Node6&#45;&gt;Node8 -->
<g id="edge9" class="edge"><title>Node6&#45;&gt;Node8</title>
<path fill="none" stroke="midnightblue" d="M1506.32,-308.648C1588.22,-302.191 1740.41,-288.576 1869,-268 1870.24,-267.801 1871.5,-267.589 1872.78,-267.367"/>
<polygon fill="midnightblue" stroke="midnightblue" points="1873.44,-270.805 1882.61,-265.505 1872.13,-263.927 1873.44,-270.805"/>
</g>
<!-- Node9 -->
<g id="node9" class="node"><title>Node9</title>
<polygon fill="none" stroke="#bfbfbf" points="1538.5,-248.5 1538.5,-267.5 1579.5,-267.5 1579.5,-248.5 1538.5,-248.5"/>
<text text-anchor="middle" x="1559" y="-255.5" font-family="Helvetica,sans-Serif" font-size="10.00">cfloat</text>
</g>
<!-- Node6&#45;&gt;Node9 -->
<g id="edge11" class="edge"><title>Node6&#45;&gt;Node9</title>
<path fill="none" stroke="midnightblue" d="M1464.99,-304.324C1483.04,-295.625 1511.05,-282.12 1531.8,-272.113"/>
<polygon fill="midnightblue" stroke="midnightblue" points="1533.56,-275.15 1541.05,-267.655 1530.52,-268.845 1533.56,-275.15"/>
</g>
<!-- Node10 -->
<g id="node10" class="node"><title>Node10</title>
<polygon fill="none" stroke="#bfbfbf" points="1598,-248.5 1598,-267.5 1644,-267.5 1644,-248.5 1598,-248.5"/>
<text text-anchor="middle" x="1621" y="-255.5" font-family="Helvetica,sans-Serif" font-size="10.00">cstring</text>
</g>
<!-- Node6&#45;&gt;Node10 -->
<g id="edge13" class="edge"><title>Node6&#45;&gt;Node10</title>
<path fill="none" stroke="midnightblue" d="M1474.57,-304.444C1505.4,-294.876 1555.3,-279.389 1588.13,-269.2"/>
<polygon fill="midnightblue" stroke="midnightblue" points="1589.22,-272.527 1597.73,-266.22 1587.15,-265.842 1589.22,-272.527"/>
</g>
<!-- Node11 -->
<g id="node11" class="node"><title>Node11</title>
<polygon fill="none" stroke="#bfbfbf" points="420,-74.5 420,-93.5 474,-93.5 474,-74.5 420,-74.5"/>
<text text-anchor="middle" x="447" y="-81.5" font-family="Helvetica,sans-Serif" font-size="10.00">iostream</text>
</g>
<!-- Node6&#45;&gt;Node11 -->
<g id="edge14" class="edge"><title>Node6&#45;&gt;Node11</title>
<path fill="none" stroke="midnightblue" d="M1392.56,-304.459C1244.32,-280.461 821.911,-207.117 483,-100 480.426,-99.1863 477.78,-98.2622 475.147,-97.2818"/>
<polygon fill="midnightblue" stroke="midnightblue" points="476.409,-94.0168 465.823,-93.5812 473.826,-100.523 476.409,-94.0168"/>
</g>
<!-- Node12 -->
<g id="node12" class="node"><title>Node12</title>
<polygon fill="none" stroke="#bfbfbf" points="382.5,-248.5 382.5,-267.5 465.5,-267.5 465.5,-248.5 382.5,-248.5"/>
<text text-anchor="middle" x="424" y="-255.5" font-family="Helvetica,sans-Serif" font-size="10.00">Math/SMatrix.h</text>
</g>
<!-- Node6&#45;&gt;Node12 -->
<g id="edge15" class="edge"><title>Node6&#45;&gt;Node12</title>
<path fill="none" stroke="midnightblue" d="M1387.83,-312.974C1237.15,-312.328 826.613,-306.926 475.782,-268.057"/>
<polygon fill="midnightblue" stroke="midnightblue" points="476.009,-264.561 465.681,-266.927 475.23,-271.517 476.009,-264.561"/>
</g>
<!-- Node13 -->
<g id="node13" class="node"><title>Node13</title>
<polygon fill="none" stroke="#bfbfbf" points="483.5,-248.5 483.5,-267.5 568.5,-267.5 568.5,-248.5 483.5,-248.5"/>
<text text-anchor="middle" x="526" y="-255.5" font-family="Helvetica,sans-Serif" font-size="10.00">Math/SVector.h</text>
</g>
<!-- Node6&#45;&gt;Node13 -->
<g id="edge16" class="edge"><title>Node6&#45;&gt;Node13</title>
<path fill="none" stroke="midnightblue" d="M1387.91,-312.05C1247.8,-309.335 884.575,-299.575 583,-268 581.537,-267.847 580.053,-267.682 578.558,-267.506"/>
<polygon fill="midnightblue" stroke="midnightblue" points="578.943,-264.027 568.578,-266.221 578.049,-270.97 578.943,-264.027"/>
</g>
<!-- Node14 -->
<g id="node14" class="node"><title>Node14</title>
<g id="a_node14"><a xlink:href="../../d4/de2/BaseCluster_8h.html" target="_top" xlink:title="DetectorsBase/BaseCluster.h">
<polygon fill="none" stroke="black" points="1373.5,-248.5 1373.5,-267.5 1520.5,-267.5 1520.5,-248.5 1373.5,-248.5"/>
<text text-anchor="middle" x="1447" y="-255.5" font-family="Helvetica,sans-Serif" font-size="10.00">DetectorsBase/BaseCluster.h</text>
</a>
</g>
</g>
<!-- Node6&#45;&gt;Node14 -->
<g id="edge17" class="edge"><title>Node6&#45;&gt;Node14</title>
<path fill="none" stroke="midnightblue" d="M1447,-304.083C1447,-297.006 1447,-286.861 1447,-277.986"/>
<polygon fill="midnightblue" stroke="midnightblue" points="1450.5,-277.751 1447,-267.751 1443.5,-277.751 1450.5,-277.751"/>
</g>
<!-- Node19 -->
<g id="node19" class="node"><title>Node19</title>
<g id="a_node19"><a xlink:href="../../dd/d76/Cartesian3D_8h.html" target="_top" xlink:title="MathUtils/Cartesian3D.h">
<polygon fill="none" stroke="black" points="993.5,-136.5 993.5,-155.5 1118.5,-155.5 1118.5,-136.5 993.5,-136.5"/>
<text text-anchor="middle" x="1056" y="-143.5" font-family="Helvetica,sans-Serif" font-size="10.00">MathUtils/Cartesian3D.h</text>
</a>
</g>
</g>
<!-- Node6&#45;&gt;Node19 -->
<g id="edge53" class="edge"><title>Node6&#45;&gt;Node19</title>
<path fill="none" stroke="midnightblue" d="M1410.88,-304.494C1379.26,-296.565 1332.35,-283.632 1293,-268 1211.74,-235.718 1121.1,-185.035 1079.36,-160.802"/>
<polygon fill="midnightblue" stroke="midnightblue" points="1080.92,-157.662 1070.52,-155.642 1077.39,-163.707 1080.92,-157.662"/>
</g>
<!-- Node33 -->
<g id="node33" class="node"><title>Node33</title>
<g id="a_node33"><a xlink:href="../../d9/ded/Utils_8h.html" target="_top" xlink:title="DetectorsBase/Utils.h">
<polygon fill="none" stroke="black" points="1725.5,-74.5 1725.5,-93.5 1838.5,-93.5 1838.5,-74.5 1725.5,-74.5"/>
<text text-anchor="middle" x="1782" y="-81.5" font-family="Helvetica,sans-Serif" font-size="10.00">DetectorsBase/Utils.h</text>
</a>
</g>
</g>
<!-- Node6&#45;&gt;Node33 -->
<g id="edge52" class="edge"><title>Node6&#45;&gt;Node33</title>
<path fill="none" stroke="midnightblue" d="M1506.1,-305.054C1597.21,-291.408 1764.92,-260.242 1798,-212 1820.75,-178.832 1803.34,-129.089 1791.18,-102.783"/>
<polygon fill="midnightblue" stroke="midnightblue" points="1794.25,-101.094 1786.72,-93.6395 1787.96,-104.162 1794.25,-101.094"/>
</g>
<!-- Node6&#45;&gt;Node34 -->
<g id="edge51" class="edge"><title>Node6&#45;&gt;Node34</title>
<path fill="none" stroke="midnightblue" d="M1414.82,-304.488C1396.46,-297.801 1374.98,-286.45 1364,-268 1346.72,-238.976 1350.47,-222.95 1364,-192 1368.06,-182.706 1488.92,-72.5226 1498,-68 1562.32,-35.9578 1643.73,-23.8118 1702.88,-19.3252"/>
<polygon fill="midnightblue" stroke="midnightblue" points="1703.19,-22.8125 1712.92,-18.6211 1702.7,-15.8297 1703.19,-22.8125"/>
</g>
<!-- Node14&#45;&gt;Node11 -->
<g id="edge22" class="edge"><title>Node14&#45;&gt;Node11</title>
<path fill="none" stroke="midnightblue" d="M1401.9,-248.476C1272.48,-224.073 901.361,-154.507 779,-136 647.965,-116.181 611.142,-133.802 483,-100 480.177,-99.2552 477.283,-98.3357 474.423,-97.3215"/>
<polygon fill="midnightblue" stroke="midnightblue" points="475.566,-94.0104 464.978,-93.6245 473.014,-100.529 475.566,-94.0104"/>
</g>
<!-- Node15 -->
<g id="node15" class="node"><title>Node15</title>
<polygon fill="none" stroke="#bfbfbf" points="1420.5,-192.5 1420.5,-211.5 1479.5,-211.5 1479.5,-192.5 1420.5,-192.5"/>
<text text-anchor="middle" x="1450" y="-199.5" font-family="Helvetica,sans-Serif" font-size="10.00">TObject.h</text>
</g>
<!-- Node14&#45;&gt;Node15 -->
<g id="edge18" class="edge"><title>Node14&#45;&gt;Node15</title>
<path fill="none" stroke="midnightblue" d="M1447.5,-248.083C1447.89,-241.006 1448.45,-230.861 1448.95,-221.986"/>
<polygon fill="midnightblue" stroke="midnightblue" points="1452.45,-221.93 1449.51,-211.751 1445.46,-221.542 1452.45,-221.93"/>
</g>
<!-- Node16 -->
<g id="node16" class="node"><title>Node16</title>
<polygon fill="none" stroke="#bfbfbf" points="1497.5,-192.5 1497.5,-211.5 1538.5,-211.5 1538.5,-192.5 1497.5,-192.5"/>
<text text-anchor="middle" x="1518" y="-199.5" font-family="Helvetica,sans-Serif" font-size="10.00">bitset</text>
</g>
<!-- Node14&#45;&gt;Node16 -->
<g id="edge19" class="edge"><title>Node14&#45;&gt;Node16</title>
<path fill="none" stroke="midnightblue" d="M1458.41,-248.324C1469.11,-240.185 1485.34,-227.839 1498.16,-218.087"/>
<polygon fill="midnightblue" stroke="midnightblue" points="1500.54,-220.673 1506.39,-211.834 1496.31,-215.102 1500.54,-220.673"/>
</g>
<!-- Node17 -->
<g id="node17" class="node"><title>Node17</title>
<polygon fill="none" stroke="#bfbfbf" points="1557,-192.5 1557,-211.5 1607,-211.5 1607,-192.5 1557,-192.5"/>
<text text-anchor="middle" x="1582" y="-199.5" font-family="Helvetica,sans-Serif" font-size="10.00">iomanip</text>
</g>
<!-- Node14&#45;&gt;Node17 -->
<g id="edge20" class="edge"><title>Node14&#45;&gt;Node17</title>
<path fill="none" stroke="midnightblue" d="M1468.39,-248.444C1490.71,-239.517 1525.9,-225.439 1551.21,-215.317"/>
<polygon fill="midnightblue" stroke="midnightblue" points="1552.72,-218.48 1560.71,-211.516 1550.12,-211.981 1552.72,-218.48"/>
</g>
<!-- Node18 -->
<g id="node18" class="node"><title>Node18</title>
<polygon fill="none" stroke="#bfbfbf" points="1373.5,-192.5 1373.5,-211.5 1402.5,-211.5 1402.5,-192.5 1373.5,-192.5"/>
<text text-anchor="middle" x="1388" y="-199.5" font-family="Helvetica,sans-Serif" font-size="10.00">ios</text>
</g>
<!-- Node14&#45;&gt;Node18 -->
<g id="edge21" class="edge"><title>Node14&#45;&gt;Node18</title>
<path fill="none" stroke="midnightblue" d="M1437.52,-248.324C1428.8,-240.341 1415.66,-228.313 1405.1,-218.653"/>
<polygon fill="midnightblue" stroke="midnightblue" points="1407.39,-216.004 1397.65,-211.834 1402.67,-221.167 1407.39,-216.004"/>
</g>
<!-- Node14&#45;&gt;Node19 -->
<g id="edge23" class="edge"><title>Node14&#45;&gt;Node19</title>
<path fill="none" stroke="midnightblue" d="M1416.64,-248.46C1346.84,-228.822 1174.9,-180.45 1096.34,-158.348"/>
<polygon fill="midnightblue" stroke="midnightblue" points="1096.91,-154.874 1086.34,-155.535 1095.01,-161.612 1096.91,-154.874"/>
</g>
<!-- Node29 -->
<g id="node29" class="node"><title>Node29</title>
<g id="a_node29"><a xlink:href="../../d4/d20/DetMatrixCache_8h.html" target="_top" xlink:title="DetectorsBase/DetMatrixCache.h">
<polygon fill="none" stroke="black" points="1625,-192.5 1625,-211.5 1789,-211.5 1789,-192.5 1625,-192.5"/>
<text text-anchor="middle" x="1707" y="-199.5" font-family="Helvetica,sans-Serif" font-size="10.00">DetectorsBase/DetMatrixCache.h</text>
</a>
</g>
</g>
<!-- Node14&#45;&gt;Node29 -->
<g id="edge35" class="edge"><title>Node14&#45;&gt;Node29</title>
<path fill="none" stroke="midnightblue" d="M1488.2,-248.444C1533.65,-239.004 1606.84,-223.802 1655.91,-213.611"/>
<polygon fill="midnightblue" stroke="midnightblue" points="1656.92,-216.977 1665.99,-211.516 1655.49,-210.123 1656.92,-216.977"/>
</g>
<!-- Node19&#45;&gt;Node7 -->
<g id="edge27" class="edge"><title>Node19&#45;&gt;Node7</title>
<path fill="none" stroke="midnightblue" d="M1118.51,-139.727C1198.09,-132.626 1339.71,-118.693 1460,-100 1472.08,-98.1233 1485.16,-95.6572 1496.97,-93.268"/>
<polygon fill="midnightblue" stroke="midnightblue" points="1497.88,-96.6547 1506.97,-91.205 1496.47,-89.7993 1497.88,-96.6547"/>
</g>
<!-- Node19&#45;&gt;Node11 -->
<g id="edge34" class="edge"><title>Node19&#45;&gt;Node11</title>
<path fill="none" stroke="midnightblue" d="M993.48,-141.209C855.162,-132.66 531.594,-111.716 483,-100 480.003,-99.2774 476.933,-98.3374 473.912,-97.2801"/>
<polygon fill="midnightblue" stroke="midnightblue" points="475.158,-94.0095 464.57,-93.6259 472.608,-100.528 475.158,-94.0095"/>
</g>
<!-- Node20 -->
<g id="node20" class="node"><title>Node20</title>
<polygon fill="none" stroke="#bfbfbf" points="949.5,-74.5 949.5,-93.5 1098.5,-93.5 1098.5,-74.5 949.5,-74.5"/>
<text text-anchor="middle" x="1024" y="-81.5" font-family="Helvetica,sans-Serif" font-size="10.00">Math/GenVector/Rotation3D.h</text>
</g>
<!-- Node19&#45;&gt;Node20 -->
<g id="edge24" class="edge"><title>Node19&#45;&gt;Node20</title>
<path fill="none" stroke="midnightblue" d="M1051.42,-136.403C1046.71,-127.582 1039.26,-113.608 1033.31,-102.455"/>
<polygon fill="midnightblue" stroke="midnightblue" points="1036.37,-100.757 1028.58,-93.5806 1030.19,-104.051 1036.37,-100.757"/>
</g>
<!-- Node21 -->
<g id="node21" class="node"><title>Node21</title>
<polygon fill="none" stroke="#bfbfbf" points="1117,-74.5 1117,-93.5 1273,-93.5 1273,-74.5 1117,-74.5"/>
<text text-anchor="middle" x="1195" y="-81.5" font-family="Helvetica,sans-Serif" font-size="10.00">Math/GenVector/Transform3D.h</text>
</g>
<!-- Node19&#45;&gt;Node21 -->
<g id="edge25" class="edge"><title>Node19&#45;&gt;Node21</title>
<path fill="none" stroke="midnightblue" d="M1075.92,-136.403C1099.45,-126.245 1138.81,-109.255 1165.79,-97.6074"/>
<polygon fill="midnightblue" stroke="midnightblue" points="1167.33,-100.757 1175.12,-93.5806 1164.55,-94.3303 1167.33,-100.757"/>
</g>
<!-- Node22 -->
<g id="node22" class="node"><title>Node22</title>
<polygon fill="none" stroke="#bfbfbf" points="1291,-74.5 1291,-93.5 1451,-93.5 1451,-74.5 1291,-74.5"/>
<text text-anchor="middle" x="1371" y="-81.5" font-family="Helvetica,sans-Serif" font-size="10.00">Math/GenVector/Translation3D.h</text>
</g>
<!-- Node19&#45;&gt;Node22 -->
<g id="edge26" class="edge"><title>Node19&#45;&gt;Node22</title>
<path fill="none" stroke="midnightblue" d="M1100.8,-136.467C1157.59,-125.649 1255.45,-107.009 1316.52,-95.3781"/>
<polygon fill="midnightblue" stroke="midnightblue" points="1317.19,-98.8128 1326.36,-93.5034 1315.88,-91.9364 1317.19,-98.8128"/>
</g>
<!-- Node23 -->
<g id="node23" class="node"><title>Node23</title>
<polygon fill="none" stroke="#bfbfbf" points="492,-74.5 492,-93.5 568,-93.5 568,-74.5 492,-74.5"/>
<text text-anchor="middle" x="530" y="-81.5" font-family="Helvetica,sans-Serif" font-size="10.00">TGeoMatrix.h</text>
</g>
<!-- Node19&#45;&gt;Node23 -->
<g id="edge28" class="edge"><title>Node19&#45;&gt;Node23</title>
<path fill="none" stroke="midnightblue" d="M993.283,-140.794C882.133,-133.059 654.952,-115.907 577,-100 572.536,-99.0891 567.899,-97.9093 563.352,-96.6115"/>
<polygon fill="midnightblue" stroke="midnightblue" points="564.233,-93.221 553.647,-93.6408 562.184,-99.9145 564.233,-93.221"/>
</g>
<!-- Node24 -->
<g id="node24" class="node"><title>Node24</title>
<polygon fill="none" stroke="#bfbfbf" points="586.5,-69 586.5,-99 737.5,-99 737.5,-69 586.5,-69"/>
<text text-anchor="start" x="594.5" y="-87" font-family="Helvetica,sans-Serif" font-size="10.00">Math/GenVector/Displacement</text>
<text text-anchor="middle" x="662" y="-76" font-family="Helvetica,sans-Serif" font-size="10.00">Vector3D.h</text>
</g>
<!-- Node19&#45;&gt;Node24 -->
<g id="edge29" class="edge"><title>Node19&#45;&gt;Node24</title>
<path fill="none" stroke="midnightblue" d="M993.772,-136.497C933.505,-128.136 839.28,-114.729 747.54,-100.058"/>
<polygon fill="midnightblue" stroke="midnightblue" points="747.952,-96.5791 737.524,-98.4491 746.842,-103.491 747.952,-96.5791"/>
</g>
<!-- Node25 -->
<g id="node25" class="node"><title>Node25</title>
<polygon fill="none" stroke="#bfbfbf" points="756,-74.5 756,-93.5 932,-93.5 932,-74.5 756,-74.5"/>
<text text-anchor="middle" x="844" y="-81.5" font-family="Helvetica,sans-Serif" font-size="10.00">Math/GenVector/PositionVector3D.h</text>
</g>
<!-- Node19&#45;&gt;Node25 -->
<g id="edge30" class="edge"><title>Node19&#45;&gt;Node25</title>
<path fill="none" stroke="midnightblue" d="M1025.63,-136.403C988.394,-125.866 925.19,-107.978 884.024,-96.3276"/>
<polygon fill="midnightblue" stroke="midnightblue" points="884.893,-92.9362 874.318,-93.5806 882.987,-99.6716 884.893,-92.9362"/>
</g>
<!-- Node26 -->
<g id="node26" class="node"><title>Node26</title>
<g id="a_node26"><a xlink:href="../../d2/dd0/Cartesian2D_8h.html" target="_top" xlink:title="MathUtils/Cartesian2D.h">
<polygon fill="none" stroke="black" points="200.5,-74.5 200.5,-93.5 325.5,-93.5 325.5,-74.5 200.5,-74.5"/>
<text text-anchor="middle" x="263" y="-81.5" font-family="Helvetica,sans-Serif" font-size="10.00">MathUtils/Cartesian2D.h</text>
</a>
</g>
</g>
<!-- Node19&#45;&gt;Node26 -->
<g id="edge31" class="edge"><title>Node19&#45;&gt;Node26</title>
<path fill="none" stroke="midnightblue" d="M993.232,-141.277C877.857,-134.287 624.34,-118.249 411,-100 386.458,-97.9007 359.66,-95.2837 335.694,-92.826"/>
<polygon fill="midnightblue" stroke="midnightblue" points="335.918,-89.3306 325.611,-91.7844 335.198,-96.2935 335.918,-89.3306"/>
</g>
<!-- Node27 -->
<g id="node27" class="node"><title>Node27</title>
<polygon fill="none" stroke="#bfbfbf" points="194.5,-1 194.5,-31 345.5,-31 345.5,-1 194.5,-1"/>
<text text-anchor="start" x="202.5" y="-19" font-family="Helvetica,sans-Serif" font-size="10.00">Math/GenVector/Displacement</text>
<text text-anchor="middle" x="270" y="-8" font-family="Helvetica,sans-Serif" font-size="10.00">Vector2D.h</text>
</g>
<!-- Node26&#45;&gt;Node27 -->
<g id="edge32" class="edge"><title>Node26&#45;&gt;Node27</title>
<path fill="none" stroke="midnightblue" d="M263.915,-74.3717C264.806,-65.9715 266.202,-52.811 267.432,-41.2126"/>
<polygon fill="midnightblue" stroke="midnightblue" points="270.922,-41.4949 268.496,-31.1815 263.961,-40.7565 270.922,-41.4949"/>
</g>
<!-- Node28 -->
<g id="node28" class="node"><title>Node28</title>
<polygon fill="none" stroke="#bfbfbf" points="0,-6.5 0,-25.5 176,-25.5 176,-6.5 0,-6.5"/>
<text text-anchor="middle" x="88" y="-13.5" font-family="Helvetica,sans-Serif" font-size="10.00">Math/GenVector/PositionVector2D.h</text>
</g>
<!-- Node26&#45;&gt;Node28 -->
<g id="edge33" class="edge"><title>Node26&#45;&gt;Node28</title>
<path fill="none" stroke="midnightblue" d="M240.122,-74.3717C209.512,-62.8274 155.064,-42.2926 120.288,-29.1772"/>
<polygon fill="midnightblue" stroke="midnightblue" points="121.198,-25.7799 110.606,-25.5259 118.728,-32.3296 121.198,-25.7799"/>
</g>
<!-- Node29&#45;&gt;Node2 -->
<g id="edge36" class="edge"><title>Node29&#45;&gt;Node2</title>
<path fill="none" stroke="midnightblue" d="M1765.31,-192.444C1843.86,-180.917 1980.95,-160.801 2042.94,-151.705"/>
<polygon fill="midnightblue" stroke="midnightblue" points="2043.53,-155.155 2052.92,-150.24 2042.52,-148.229 2043.53,-155.155"/>
</g>
<!-- Node29&#45;&gt;Node3 -->
<g id="edge37" class="edge"><title>Node29&#45;&gt;Node3</title>
<path fill="none" stroke="midnightblue" d="M1727.85,-192.401C1762.48,-177.402 1832.81,-143.828 1881,-100 1902.56,-80.3958 1921.66,-52.3657 1932.78,-34.4242"/>
<polygon fill="midnightblue" stroke="midnightblue" points="1935.93,-35.9816 1938.1,-25.6123 1929.94,-32.3624 1935.93,-35.9816"/>
</g>
<!-- Node29&#45;&gt;Node7 -->
<g id="edge49" class="edge"><title>Node29&#45;&gt;Node7</title>
<path fill="none" stroke="midnightblue" d="M1638.67,-192.495C1612.32,-186.178 1583.62,-175.173 1563,-156 1548.32,-142.351 1541.21,-120.039 1537.85,-104.07"/>
<polygon fill="midnightblue" stroke="midnightblue" points="1541.22,-103.006 1536.02,-93.7769 1534.33,-104.236 1541.22,-103.006"/>
</g>
<!-- Node29&#45;&gt;Node19 -->
<g id="edge38" class="edge"><title>Node29&#45;&gt;Node19</title>
<path fill="none" stroke="midnightblue" d="M1624.67,-192.789C1621.74,-192.519 1618.85,-192.255 1616,-192 1441.19,-176.333 1235.44,-160.457 1128.62,-152.407"/>
<polygon fill="midnightblue" stroke="midnightblue" points="1128.83,-148.913 1118.6,-151.653 1128.31,-155.893 1128.83,-148.913"/>
</g>
<!-- Node30 -->
<g id="node30" class="node"><title>Node30</title>
<g id="a_node30"><a xlink:href="../../d6/d31/DetID_8h.html" target="_top" xlink:title="DetectorsBase/DetID.h">
<polygon fill="none" stroke="black" points="1661.5,-136.5 1661.5,-155.5 1780.5,-155.5 1780.5,-136.5 1661.5,-136.5"/>
<text text-anchor="middle" x="1721" y="-143.5" font-family="Helvetica,sans-Serif" font-size="10.00">DetectorsBase/DetID.h</text>
</a>
</g>
</g>
<!-- Node29&#45;&gt;Node30 -->
<g id="edge39" class="edge"><title>Node29&#45;&gt;Node30</title>
<path fill="none" stroke="midnightblue" d="M1709.31,-192.083C1711.17,-184.927 1713.84,-174.635 1716.15,-165.691"/>
<polygon fill="midnightblue" stroke="midnightblue" points="1719.61,-166.309 1718.73,-155.751 1712.83,-164.553 1719.61,-166.309"/>
</g>
<!-- Node36 -->
<g id="node36" class="node"><title>Node36</title>
<polygon fill="none" stroke="#bfbfbf" points="1572.5,-136.5 1572.5,-155.5 1643.5,-155.5 1643.5,-136.5 1572.5,-136.5"/>
<text text-anchor="middle" x="1608" y="-143.5" font-family="Helvetica,sans-Serif" font-size="10.00">FairLogger.h</text>
</g>
<!-- Node29&#45;&gt;Node36 -->
<g id="edge50" class="edge"><title>Node29&#45;&gt;Node36</title>
<path fill="none" stroke="midnightblue" d="M1691.09,-192.324C1675.36,-183.743 1651.06,-170.486 1632.79,-160.522"/>
<polygon fill="midnightblue" stroke="midnightblue" points="1634.32,-157.37 1623.87,-155.655 1630.97,-163.516 1634.32,-157.37"/>
</g>
<!-- Node30&#45;&gt;Node3 -->
<g id="edge41" class="edge"><title>Node30&#45;&gt;Node3</title>
<path fill="none" stroke="midnightblue" d="M1755.38,-136.449C1781.6,-129.067 1818.01,-116.909 1847,-100 1863.95,-90.1147 1903.79,-53.8023 1926.46,-32.6246"/>
<polygon fill="midnightblue" stroke="midnightblue" points="1929.06,-34.9798 1933.96,-25.5841 1924.27,-29.8759 1929.06,-34.9798"/>
</g>
<!-- Node30&#45;&gt;Node7 -->
<g id="edge43" class="edge"><title>Node30&#45;&gt;Node7</title>
<path fill="none" stroke="midnightblue" d="M1689.62,-136.431C1659.28,-127.931 1612.13,-114.162 1572,-100 1569.6,-99.1524 1567.12,-98.239 1564.65,-97.2962"/>
<polygon fill="midnightblue" stroke="midnightblue" points="1565.81,-93.9951 1555.23,-93.5911 1563.25,-100.509 1565.81,-93.9951"/>
</g>
<!-- Node31 -->
<g id="node31" class="node"><title>Node31</title>
<polygon fill="none" stroke="#bfbfbf" points="1661,-74.5 1661,-93.5 1707,-93.5 1707,-74.5 1661,-74.5"/>
<text text-anchor="middle" x="1684" y="-81.5" font-family="Helvetica,sans-Serif" font-size="10.00">cstdint</text>
</g>
<!-- Node30&#45;&gt;Node31 -->
<g id="edge40" class="edge"><title>Node30&#45;&gt;Node31</title>
<path fill="none" stroke="midnightblue" d="M1715.7,-136.403C1710.2,-127.493 1701.47,-113.325 1694.56,-102.118"/>
<polygon fill="midnightblue" stroke="midnightblue" points="1697.52,-100.255 1689.29,-93.5806 1691.56,-103.929 1697.52,-100.255"/>
</g>
<!-- Node32 -->
<g id="node32" class="node"><title>Node32</title>
<polygon fill="none" stroke="#bfbfbf" points="1581,-74.5 1581,-93.5 1643,-93.5 1643,-74.5 1581,-74.5"/>
<text text-anchor="middle" x="1612" y="-81.5" font-family="Helvetica,sans-Serif" font-size="10.00">type_traits</text>
</g>
<!-- Node30&#45;&gt;Node32 -->
<g id="edge42" class="edge"><title>Node30&#45;&gt;Node32</title>
<path fill="none" stroke="midnightblue" d="M1705.38,-136.403C1687.41,-126.512 1657.68,-110.144 1636.59,-98.5378"/>
<polygon fill="midnightblue" stroke="midnightblue" points="1638.04,-95.3367 1627.59,-93.5806 1634.66,-101.469 1638.04,-95.3367"/>
</g>
<!-- Node30&#45;&gt;Node33 -->
<g id="edge44" class="edge"><title>Node30&#45;&gt;Node33</title>
<path fill="none" stroke="midnightblue" d="M1729.74,-136.403C1739.16,-127.136 1754.36,-112.183 1765.95,-100.788"/>
<polygon fill="midnightblue" stroke="midnightblue" points="1768.6,-103.088 1773.28,-93.5806 1763.69,-98.0978 1768.6,-103.088"/>
</g>
<!-- Node35 -->
<g id="node35" class="node"><title>Node35</title>
<polygon fill="none" stroke="#bfbfbf" points="2082.5,-74.5 2082.5,-93.5 2131.5,-93.5 2131.5,-74.5 2082.5,-74.5"/>
<text text-anchor="middle" x="2107" y="-81.5" font-family="Helvetica,sans-Serif" font-size="10.00">cassert</text>
</g>
<!-- Node30&#45;&gt;Node35 -->
<g id="edge48" class="edge"><title>Node30&#45;&gt;Node35</title>
<path fill="none" stroke="midnightblue" d="M1775.89,-136.467C1856.5,-123.937 2004.61,-100.916 2071.98,-90.4434"/>
<polygon fill="midnightblue" stroke="midnightblue" points="2072.73,-93.8685 2082.08,-88.874 2071.66,-86.9516 2072.73,-93.8685"/>
</g>
<!-- Node33&#45;&gt;Node3 -->
<g id="edge47" class="edge"><title>Node33&#45;&gt;Node3</title>
<path fill="none" stroke="midnightblue" d="M1803.05,-74.3717C1831.51,-62.7058 1882.36,-41.859 1914.3,-28.7652"/>
<polygon fill="midnightblue" stroke="midnightblue" points="1916.03,-31.8394 1923.95,-24.8078 1913.37,-25.3625 1916.03,-31.8394"/>
</g>
<!-- Node33&#45;&gt;Node5 -->
<g id="edge46" class="edge"><title>Node33&#45;&gt;Node5</title>
<path fill="none" stroke="midnightblue" d="M1749.99,-74.4727C1739.26,-71.9511 1727.18,-69.4734 1716,-68 1454.92,-33.6046 601.797,-19.939 424.464,-17.4357"/>
<polygon fill="midnightblue" stroke="midnightblue" points="424.273,-13.9328 414.226,-17.293 424.176,-20.9321 424.273,-13.9328"/>
</g>
<!-- Node33&#45;&gt;Node34 -->
<g id="edge45" class="edge"><title>Node33&#45;&gt;Node34</title>
<path fill="none" stroke="midnightblue" d="M1782,-74.3717C1782,-64.6426 1782,-48.528 1782,-35.8504"/>
<polygon fill="midnightblue" stroke="midnightblue" points="1785.5,-35.8411 1782,-25.8411 1778.5,-35.8412 1785.5,-35.8411"/>
</g>
<!-- Node37&#45;&gt;Node2 -->
<g id="edge57" class="edge"><title>Node37&#45;&gt;Node2</title>
<path fill="none" stroke="midnightblue" d="M2021.47,-416.901C2044.19,-396.859 2081,-357.784 2081,-315 2081,-315 2081,-315 2081,-257 2081,-224.9 2078.42,-187.61 2076.64,-165.732"/>
<polygon fill="midnightblue" stroke="midnightblue" points="2080.11,-165.219 2075.78,-155.549 2073.14,-165.808 2080.11,-165.219"/>
</g>
<!-- Node37&#45;&gt;Node4 -->
<g id="edge59" class="edge"><title>Node37&#45;&gt;Node4</title>
<path fill="none" stroke="midnightblue" d="M1965.78,-416.933C1937.92,-406.674 1900.54,-392.915 1873.97,-383.137"/>
<polygon fill="midnightblue" stroke="midnightblue" points="1874.96,-379.77 1864.36,-379.6 1872.54,-386.339 1874.96,-379.77"/>
</g>
<!-- Node37&#45;&gt;Node8 -->
<g id="edge56" class="edge"><title>Node37&#45;&gt;Node8</title>
<path fill="none" stroke="midnightblue" d="M1996.39,-416.925C1979.49,-385.671 1938.88,-310.557 1920.42,-276.416"/>
<polygon fill="midnightblue" stroke="midnightblue" points="1923.48,-274.716 1915.64,-267.585 1917.32,-278.046 1923.48,-274.716"/>
</g>
<!-- Node37&#45;&gt;Node35 -->
<g id="edge58" class="edge"><title>Node37&#45;&gt;Node35</title>
<path fill="none" stroke="midnightblue" d="M2051.99,-416.951C2096.86,-400.513 2157,-368.501 2157,-315 2157,-315 2157,-315 2157,-201 2157,-163.198 2134.33,-123.71 2119.52,-101.946"/>
<polygon fill="midnightblue" stroke="midnightblue" points="2122.37,-99.9122 2113.74,-93.7601 2116.65,-103.948 2122.37,-99.9122"/>
</g>
</g>
</svg>
        <g id="navigator" transform="translate(0 0)" fill="#404254">
                <rect fill="#f2f5e9" fill-opacity="0.5" stroke="#606060" stroke-width=".5" x="0" y="0" width="60" height="60"/>
                <use id="zoomplus" xlink:href="#zoomPlus" x="17" y="9" onmousedown="handleZoom(evt,'in')"/>
                <use id="zoomminus" xlink:href="#zoomMin" x="42" y="9" onmousedown="handleZoom(evt,'out')"/>
                <use id="reset" xlink:href="#resetDef" x="30" y="36" onmousedown="handleReset()"/>
                <g id="arrowUp" xlink:href="#dirArrow" transform="translate(30 24)" onmousedown="handlePan(0,-1)">
                  <use xlink:href="#rim" fill="#404040">
                        <set attributeName="fill" to="#808080" begin="arrowUp.mouseover" end="arrowUp.mouseout"/>
                  </use>
                  <path fill="none" stroke="white" stroke-width="1.5" d="M0,-3.0v7 M-2.5,-0.5L0,-3.0L2.5,-0.5"/>
                </g>
                <g id="arrowRight" xlink:href="#dirArrow" transform="rotate(90) translate(36 -43)" onmousedown="handlePan(1,0)">
                  <use xlink:href="#rim" fill="#404040">
                        <set attributeName="fill" to="#808080" begin="arrowRight.mouseover" end="arrowRight.mouseout"/>
                  </use>
                  <path fill="none" stroke="white" stroke-width="1.5" d="M0,-3.0v7 M-2.5,-0.5L0,-3.0L2.5,-0.5"/>
                </g>
                <g id="arrowDown" xlink:href="#dirArrow" transform="rotate(180) translate(-30 -48)" onmousedown="handlePan(0,1)">
                  <use xlink:href="#rim" fill="#404040">
                        <set attributeName="fill" to="#808080" begin="arrowDown.mouseover" end="arrowDown.mouseout"/>
                  </use>
                  <path fill="none" stroke="white" stroke-width="1.5" d="M0,-3.0v7 M-2.5,-0.5L0,-3.0L2.5,-0.5"/>
                </g>
                <g id="arrowLeft" xlink:href="#dirArrow" transform="rotate(270) translate(-36 17)" onmousedown="handlePan(-1,0)">
                  <use xlink:href="#rim" fill="#404040">
                        <set attributeName="fill" to="#808080" begin="arrowLeft.mouseover" end="arrowLeft.mouseout"/>
                  </use>
                  <path fill="none" stroke="white" stroke-width="1.5" d="M0,-3.0v7 M-2.5,-0.5L0,-3.0L2.5,-0.5"/>
                </g>
        </g>
        <svg viewBox="0 0 15 15" width="100%" height="30px" preserveAspectRatio="xMaxYMin meet">
         <g id="arrow_out" transform="scale(0.3 0.3)">
          <a xlink:href="CATracker_8h__incl_org.svg" target="_base">
           <rect id="button" ry="5" rx="5" y="6" x="6" height="38" width="38"
                fill="#f2f5e9" fill-opacity="0.5" stroke="#606060" stroke-width="1.0"/>
           <path id="arrow"
             d="M 11.500037,31.436501 C 11.940474,20.09759 22.043105,11.32322 32.158766,21.979434 L 37.068811,17.246167 C 37.068811,17.246167 37.088388,32 37.088388,32 L 22.160133,31.978069 C 22.160133,31.978069 26.997745,27.140456 26.997745,27.140456 C 18.528582,18.264221 13.291696,25.230495 11.500037,31.436501 z"
             style="fill:#404040;"/>
          </a>
         </g>
        </svg>
</svg>
