<?xml version="1.0" encoding="UTF-8" standalone="no"?>
<!DOCTYPE svg PUBLIC "-//W3C//DTD SVG 1.1//EN"
 "http://www.w3.org/Graphics/SVG/1.1/DTD/svg11.dtd">
<!-- Generated by graphviz version 2.36.0 (20140111.2315)
 -->
<!-- Title: o2::mathUtils::Chebyshev3DCalc Pages: 1 -->
<svg width="523pt" height="600pt"
 viewBox="0.00 0.00 523.00 600.00" xmlns="http://www.w3.org/2000/svg" xmlns:xlink="http://www.w3.org/1999/xlink">
<g id="graph0" class="graph" transform="scale(1 1) rotate(0) translate(4 596)">
<title>o2::mathUtils::Chebyshev3DCalc</title>
<!-- Node1 -->
<g id="node1" class="node"><title>Node1</title>
<polygon fill="#bfbfbf" stroke="black" points="76.5,-0.5 76.5,-431.5 255.5,-431.5 255.5,-0.5 76.5,-0.5"/>
<text text-anchor="start" x="84.5" y="-419.5" font-family="Helvetica,sans-Serif" font-size="10.00">o2::mathUtils::Chebyshev3</text>
<text text-anchor="middle" x="166" y="-408.5" font-family="Helvetica,sans-Serif" font-size="10.00">DCalc</text>
<polyline fill="none" stroke="black" points="76.5,-401.5 255.5,-401.5 "/>
<text text-anchor="middle" x="166" y="-389.5" font-family="Helvetica,sans-Serif" font-size="10.00"> </text>
<polyline fill="none" stroke="black" points="76.5,-382.5 255.5,-382.5 "/>
<text text-anchor="start" x="84.5" y="-370.5" font-family="Helvetica,sans-Serif" font-size="10.00">+ Chebyshev3DCalc()</text>
<text text-anchor="start" x="84.5" y="-359.5" font-family="Helvetica,sans-Serif" font-size="10.00">+ Chebyshev3DCalc()</text>
<text text-anchor="start" x="84.5" y="-348.5" font-family="Helvetica,sans-Serif" font-size="10.00">+ Chebyshev3DCalc()</text>
<text text-anchor="start" x="84.5" y="-337.5" font-family="Helvetica,sans-Serif" font-size="10.00">+ ~Chebyshev3DCalc()</text>
<text text-anchor="start" x="84.5" y="-326.5" font-family="Helvetica,sans-Serif" font-size="10.00">+ operator=()</text>
<text text-anchor="start" x="84.5" y="-315.5" font-family="Helvetica,sans-Serif" font-size="10.00">+ Print()</text>
<text text-anchor="start" x="84.5" y="-304.5" font-family="Helvetica,sans-Serif" font-size="10.00">+ loadData()</text>
<text text-anchor="start" x="84.5" y="-293.5" font-family="Helvetica,sans-Serif" font-size="10.00">+ evaluateDerivative()</text>
<text text-anchor="start" x="84.5" y="-282.5" font-family="Helvetica,sans-Serif" font-size="10.00">+ evaluateDerivative2()</text>
<text text-anchor="start" x="84.5" y="-271.5" font-family="Helvetica,sans-Serif" font-size="10.00">+ saveData()</text>
<text text-anchor="start" x="84.5" y="-260.5" font-family="Helvetica,sans-Serif" font-size="10.00">+ saveData()</text>
<text text-anchor="start" x="84.5" y="-249.5" font-family="Helvetica,sans-Serif" font-size="10.00">+ initializeRows()</text>
<text text-anchor="start" x="84.5" y="-238.5" font-family="Helvetica,sans-Serif" font-size="10.00">+ initializeColumns()</text>
<text text-anchor="start" x="84.5" y="-227.5" font-family="Helvetica,sans-Serif" font-size="10.00">+ getNumberOfCoefficients()</text>
<text text-anchor="start" x="84.5" y="-216.5" font-family="Helvetica,sans-Serif" font-size="10.00">+ getNumberOfColumns()</text>
<text text-anchor="start" x="84.5" y="-205.5" font-family="Helvetica,sans-Serif" font-size="10.00">+ getNumberOfRows()</text>
<text text-anchor="start" x="84.5" y="-194.5" font-family="Helvetica,sans-Serif" font-size="10.00">+ getNumberOfElementsBound2D()</text>
<text text-anchor="start" x="84.5" y="-183.5" font-family="Helvetica,sans-Serif" font-size="10.00">+ getMaxColumnsAtRow()</text>
<text text-anchor="start" x="84.5" y="-172.5" font-family="Helvetica,sans-Serif" font-size="10.00">+ getNumberOfColumnsAtRow()</text>
<text text-anchor="start" x="84.5" y="-161.5" font-family="Helvetica,sans-Serif" font-size="10.00">+ getColAtRowBg()</text>
<text text-anchor="start" x="84.5" y="-150.5" font-family="Helvetica,sans-Serif" font-size="10.00">+ getPrecision()</text>
<text text-anchor="start" x="84.5" y="-139.5" font-family="Helvetica,sans-Serif" font-size="10.00">+ setPrecision()</text>
<text text-anchor="start" x="84.5" y="-128.5" font-family="Helvetica,sans-Serif" font-size="10.00">+ initializeElementBound2D()</text>
<text text-anchor="start" x="84.5" y="-117.5" font-family="Helvetica,sans-Serif" font-size="10.00">+ getCoefficientBound2D0()</text>
<text text-anchor="start" x="84.5" y="-106.5" font-family="Helvetica,sans-Serif" font-size="10.00">+ getCoefficientBound2D1()</text>
<text text-anchor="start" x="84.5" y="-95.5" font-family="Helvetica,sans-Serif" font-size="10.00">+ Clear()</text>
<text text-anchor="start" x="84.5" y="-84.5" font-family="Helvetica,sans-Serif" font-size="10.00">+ initializeCoefficients()</text>
<text text-anchor="start" x="84.5" y="-73.5" font-family="Helvetica,sans-Serif" font-size="10.00">+ getCoefficients()</text>
<text text-anchor="start" x="84.5" y="-62.5" font-family="Helvetica,sans-Serif" font-size="10.00">+ Eval()</text>
<text text-anchor="start" x="84.5" y="-51.5" font-family="Helvetica,sans-Serif" font-size="10.00">+ Eval()</text>
<text text-anchor="start" x="84.5" y="-40.5" font-family="Helvetica,sans-Serif" font-size="10.00">+ chebyshevEvaluation1D()</text>
<text text-anchor="start" x="84.5" y="-29.5" font-family="Helvetica,sans-Serif" font-size="10.00">+ chebyshevEvaluation1Derivative()</text>
<text text-anchor="start" x="84.5" y="-18.5" font-family="Helvetica,sans-Serif" font-size="10.00">+ chebyshevEvaluation1Derivative2()</text>
<text text-anchor="start" x="84.5" y="-7.5" font-family="Helvetica,sans-Serif" font-size="10.00">+ readLine()</text>
</g>
<!-- Node2 -->
<g id="node2" class="node"><title>Node2</title>
<polygon fill="none" stroke="#bfbfbf" points="0,-534.5 0,-591.5 54,-591.5 54,-534.5 0,-534.5"/>
<text text-anchor="middle" x="27" y="-579.5" font-family="Helvetica,sans-Serif" font-size="10.00">TNamed</text>
<polyline fill="none" stroke="#bfbfbf" points="0,-572.5 54,-572.5 "/>
<text text-anchor="middle" x="27" y="-560.5" font-family="Helvetica,sans-Serif" font-size="10.00"> </text>
<polyline fill="none" stroke="#bfbfbf" points="0,-553.5 54,-553.5 "/>
<text text-anchor="middle" x="27" y="-541.5" font-family="Helvetica,sans-Serif" font-size="10.00"> </text>
</g>
<!-- Node2&#45;&gt;Node1 -->
<g id="edge1" class="edge"><title>Node2&#45;&gt;Node1</title>
<path fill="none" stroke="midnightblue" d="M41.9036,-525.009C51.5474,-501.073 64.9735,-467.749 79.4517,-431.814"/>
<polygon fill="none" stroke="midnightblue" points="38.6307,-523.767 38.14,-534.35 45.1235,-526.383 38.6307,-523.767"/>
</g>
<!-- Node3 -->
<g id="node3" class="node"><title>Node3</title>
<g id="a_node3"><a xlink:href="../../d9/d7d/classFloat__t.html" target="_top" xlink:title="{Float_t\n||}">
<polygon fill="none" stroke="black" points="72.5,-534.5 72.5,-591.5 119.5,-591.5 119.5,-534.5 72.5,-534.5"/>
<text text-anchor="middle" x="96" y="-579.5" font-family="Helvetica,sans-Serif" font-size="10.00">Float_t</text>
<polyline fill="none" stroke="black" points="72.5,-572.5 119.5,-572.5 "/>
<text text-anchor="middle" x="96" y="-560.5" font-family="Helvetica,sans-Serif" font-size="10.00"> </text>
<polyline fill="none" stroke="black" points="72.5,-553.5 119.5,-553.5 "/>
<text text-anchor="middle" x="96" y="-541.5" font-family="Helvetica,sans-Serif" font-size="10.00"> </text>
</a>
</g>
</g>
<!-- Node3&#45;&gt;Node1 -->
<g id="edge2" class="edge"><title>Node3&#45;&gt;Node1</title>
<path fill="none" stroke="#404040" d="M94.1115,-534.215C93.0751,-511.449 92.7443,-478.463 97,-450 97.311,-447.92 97.636,-445.833 97.9743,-443.74"/>
<polygon fill="none" stroke="#404040" points="98.013,-443.515 95.0918,-436.922 100.054,-431.69 102.975,-438.283 98.013,-443.515"/>
<text text-anchor="middle" x="156" y="-508" font-family="Helvetica,sans-Serif" font-size="10.00"> #mCoefficients</text>
<text text-anchor="start" x="97" y="-497" font-family="Helvetica,sans-Serif" font-size="10.00">#mTemporaryCoefficients2</text>
<text text-anchor="middle" x="156" y="-486" font-family="Helvetica,sans-Serif" font-size="10.00">D</text>
<text text-anchor="start" x="97" y="-475" font-family="Helvetica,sans-Serif" font-size="10.00">#mTemporaryCoefficients1</text>
<text text-anchor="middle" x="156" y="-464" font-family="Helvetica,sans-Serif" font-size="10.00">D</text>
<text text-anchor="middle" x="156" y="-453" font-family="Helvetica,sans-Serif" font-size="10.00">#mPrecision</text>
</g>
<!-- Node4 -->
<g id="node4" class="node"><title>Node4</title>
<polygon fill="none" stroke="#bfbfbf" points="209,-534.5 209,-591.5 265,-591.5 265,-534.5 209,-534.5"/>
<text text-anchor="middle" x="237" y="-579.5" font-family="Helvetica,sans-Serif" font-size="10.00">UShort_t</text>
<polyline fill="none" stroke="#bfbfbf" points="209,-572.5 265,-572.5 "/>
<text text-anchor="middle" x="237" y="-560.5" font-family="Helvetica,sans-Serif" font-size="10.00"> </text>
<polyline fill="none" stroke="#bfbfbf" points="209,-553.5 265,-553.5 "/>
<text text-anchor="middle" x="237" y="-541.5" font-family="Helvetica,sans-Serif" font-size="10.00"> </text>
</g>
<!-- Node4&#45;&gt;Node1 -->
<g id="edge3" class="edge"><title>Node4&#45;&gt;Node1</title>
<path fill="none" stroke="#404040" d="M231.678,-534.363C227.284,-511.683 220.844,-478.739 215,-450 214.556,-447.816 214.109,-445.621 213.659,-443.417"/>
<polygon fill="none" stroke="#404040" points="213.634,-443.296 208.513,-438.219 211.23,-431.539 216.351,-436.616 213.634,-443.296"/>
<text text-anchor="middle" x="292" y="-497" font-family="Helvetica,sans-Serif" font-size="10.00"> #mColumnAtRowBeginning</text>
<text text-anchor="middle" x="292" y="-486" font-family="Helvetica,sans-Serif" font-size="10.00">#mNumberOfColumnsAtRow</text>
<text text-anchor="middle" x="292" y="-475" font-family="Helvetica,sans-Serif" font-size="10.00">#mCoefficientBound2D0</text>
<text text-anchor="middle" x="292" y="-464" font-family="Helvetica,sans-Serif" font-size="10.00">#mCoefficientBound2D1</text>
</g>
<!-- Node5 -->
<g id="node5" class="node"><title>Node5</title>
<polygon fill="none" stroke="#bfbfbf" points="370,-534.5 370,-591.5 406,-591.5 406,-534.5 370,-534.5"/>
<text text-anchor="middle" x="388" y="-579.5" font-family="Helvetica,sans-Serif" font-size="10.00">Int_t</text>
<polyline fill="none" stroke="#bfbfbf" points="370,-572.5 406,-572.5 "/>
<text text-anchor="middle" x="388" y="-560.5" font-family="Helvetica,sans-Serif" font-size="10.00"> </text>
<polyline fill="none" stroke="#bfbfbf" points="370,-553.5 406,-553.5 "/>
<text text-anchor="middle" x="388" y="-541.5" font-family="Helvetica,sans-Serif" font-size="10.00"> </text>
</g>
<!-- Node5&#45;&gt;Node1 -->
<g id="edge4" class="edge"><title>Node5&#45;&gt;Node1</title>
<path fill="none" stroke="#404040" d="M384.572,-534.084C380.881,-510.654 373.606,-476.809 360,-450 335.244,-401.222 298.619,-353.651 263.84,-314.345"/>
<polygon fill="none" stroke="#404040" points="263.525,-313.993 256.542,-312.193 255.519,-305.055 262.501,-306.855 263.525,-313.993"/>
<text text-anchor="middle" x="448.5" y="-502.5" font-family="Helvetica,sans-Serif" font-size="10.00"> #mNumberOfColumns</text>
<text text-anchor="middle" x="448.5" y="-491.5" font-family="Helvetica,sans-Serif" font-size="10.00">#mNumberOfRows</text>
<text text-anchor="start" x="382" y="-480.5" font-family="Helvetica,sans-Serif" font-size="10.00">#mNumberOfElementsBound2</text>
<text text-anchor="middle" x="448.5" y="-469.5" font-family="Helvetica,sans-Serif" font-size="10.00">D</text>
<text text-anchor="middle" x="448.5" y="-458.5" font-family="Helvetica,sans-Serif" font-size="10.00">#mNumberOfCoefficients</text>
</g>
</g>
</svg>
