<?xml version="1.0" encoding="UTF-8" standalone="no"?>
<!DOCTYPE svg PUBLIC "-//W3C//DTD SVG 1.1//EN"
 "http://www.w3.org/Graphics/SVG/1.1/DTD/svg11.dtd">
<!-- Generated by graphviz version 2.36.0 (20140111.2315)
 -->
<!-- Title: /home/travis/build/AliceO2Group/AliceO2/Detectors/ITSMFT/MFT/simulation/include/MFTSimulation/Detector.h Pages: 1 -->
<svg width="2034pt" height="400pt"
 viewBox="0.00 0.00 2034.00 400.00" xmlns="http://www.w3.org/2000/svg" xmlns:xlink="http://www.w3.org/1999/xlink">
<g id="graph0" class="graph" transform="scale(1 1) rotate(0) translate(4 396)">
<title>/home/travis/build/AliceO2Group/AliceO2/Detectors/ITSMFT/MFT/simulation/include/MFTSimulation/Detector.h</title>
<!-- Node1 -->
<g id="node1" class="node"><title>Node1</title>
<polygon fill="#bfbfbf" stroke="black" points="257.5,-328.5 257.5,-391.5 424.5,-391.5 424.5,-328.5 257.5,-328.5"/>
<text text-anchor="start" x="265.5" y="-379.5" font-family="Helvetica,sans-Serif" font-size="10.00">/home/travis/build</text>
<text text-anchor="start" x="265.5" y="-368.5" font-family="Helvetica,sans-Serif" font-size="10.00">/AliceO2Group/AliceO2</text>
<text text-anchor="start" x="265.5" y="-357.5" font-family="Helvetica,sans-Serif" font-size="10.00">/Detectors/ITSMFT/MFT</text>
<text text-anchor="start" x="265.5" y="-346.5" font-family="Helvetica,sans-Serif" font-size="10.00">/simulation/include/MFTSimulation</text>
<text text-anchor="middle" x="341" y="-335.5" font-family="Helvetica,sans-Serif" font-size="10.00">/Detector.h</text>
</g>
<!-- Node2 -->
<g id="node2" class="node"><title>Node2</title>
<polygon fill="none" stroke="#bfbfbf" points="127,-272.5 127,-291.5 219,-291.5 219,-272.5 127,-272.5"/>
<text text-anchor="middle" x="173" y="-279.5" font-family="Helvetica,sans-Serif" font-size="10.00">TLorentzVector.h</text>
</g>
<!-- Node1&#45;&gt;Node2 -->
<g id="edge1" class="edge"><title>Node1&#45;&gt;Node2</title>
<path fill="none" stroke="midnightblue" d="M273.152,-328.307C248.067,-316.959 220.984,-304.707 201.315,-295.809"/>
<polygon fill="midnightblue" stroke="midnightblue" points="202.579,-292.54 192.025,-291.607 199.694,-298.917 202.579,-292.54"/>
</g>
<!-- Node3 -->
<g id="node3" class="node"><title>Node3</title>
<g id="a_node3"><a xlink:href="../../d1/d3a/Base_2include_2DetectorsBase_2Detector_8h.html" target="_top" xlink:title="DetectorsBase/Detector.h">
<polygon fill="none" stroke="black" points="275.5,-272.5 275.5,-291.5 406.5,-291.5 406.5,-272.5 275.5,-272.5"/>
<text text-anchor="middle" x="341" y="-279.5" font-family="Helvetica,sans-Serif" font-size="10.00">DetectorsBase/Detector.h</text>
</a>
</g>
</g>
<!-- Node1&#45;&gt;Node3 -->
<g id="edge2" class="edge"><title>Node1&#45;&gt;Node3</title>
<path fill="none" stroke="midnightblue" d="M341,-328.088C341,-319.15 341,-309.669 341,-301.719"/>
<polygon fill="midnightblue" stroke="midnightblue" points="344.5,-301.718 341,-291.718 337.5,-301.718 344.5,-301.718"/>
</g>
<!-- Node5 -->
<g id="node5" class="node"><title>Node5</title>
<polygon fill="none" stroke="#bfbfbf" points="0,-210.5 0,-229.5 44,-229.5 44,-210.5 0,-210.5"/>
<text text-anchor="middle" x="22" y="-217.5" font-family="Helvetica,sans-Serif" font-size="10.00">vector</text>
</g>
<!-- Node1&#45;&gt;Node5 -->
<g id="edge42" class="edge"><title>Node1&#45;&gt;Node5</title>
<path fill="none" stroke="midnightblue" d="M309.497,-328.393C288.151,-309.351 258.389,-285.919 228,-272 155.806,-238.934 128.205,-261.489 53,-236 51.0889,-235.352 49.1429,-234.615 47.2044,-233.822"/>
<polygon fill="midnightblue" stroke="midnightblue" points="48.3255,-230.488 37.7711,-229.563 45.445,-236.868 48.3255,-230.488"/>
</g>
<!-- Node14 -->
<g id="node14" class="node"><title>Node14</title>
<g id="a_node14"><a xlink:href="../../d6/d31/DetID_8h.html" target="_top" xlink:title="DetectorsBase/DetID.h">
<polygon fill="none" stroke="black" points="733.5,-272.5 733.5,-291.5 852.5,-291.5 852.5,-272.5 733.5,-272.5"/>
<text text-anchor="middle" x="793" y="-279.5" font-family="Helvetica,sans-Serif" font-size="10.00">DetectorsBase/DetID.h</text>
</a>
</g>
</g>
<!-- Node1&#45;&gt;Node14 -->
<g id="edge13" class="edge"><title>Node1&#45;&gt;Node14</title>
<path fill="none" stroke="midnightblue" d="M424.694,-344.928C513.838,-329.939 652.781,-306.577 732.077,-293.244"/>
<polygon fill="midnightblue" stroke="midnightblue" points="733.106,-296.62 742.388,-291.51 731.946,-289.717 733.106,-296.62"/>
</g>
<!-- Node21 -->
<g id="node21" class="node"><title>Node21</title>
<g id="a_node21"><a xlink:href="../../d0/dae/ITSMFT_2common_2simulation_2include_2ITSMFTSimulation_2Hit_8h.html" target="_top" xlink:title="ITSMFTSimulation/Hit.h">
<polygon fill="none" stroke="black" points="1183,-272.5 1183,-291.5 1305,-291.5 1305,-272.5 1183,-272.5"/>
<text text-anchor="middle" x="1244" y="-279.5" font-family="Helvetica,sans-Serif" font-size="10.00">ITSMFTSimulation/Hit.h</text>
</a>
</g>
</g>
<!-- Node1&#45;&gt;Node21 -->
<g id="edge23" class="edge"><title>Node1&#45;&gt;Node21</title>
<path fill="none" stroke="midnightblue" d="M424.737,-351.952C601.072,-337.111 1007.94,-302.867 1172.75,-288.997"/>
<polygon fill="midnightblue" stroke="midnightblue" points="1173.11,-292.479 1182.78,-288.153 1172.52,-285.504 1173.11,-292.479"/>
</g>
<!-- Node4 -->
<g id="node4" class="node"><title>Node4</title>
<polygon fill="none" stroke="#bfbfbf" points="261.5,-210.5 261.5,-229.5 296.5,-229.5 296.5,-210.5 261.5,-210.5"/>
<text text-anchor="middle" x="279" y="-217.5" font-family="Helvetica,sans-Serif" font-size="10.00">map</text>
</g>
<!-- Node3&#45;&gt;Node4 -->
<g id="edge3" class="edge"><title>Node3&#45;&gt;Node4</title>
<path fill="none" stroke="midnightblue" d="M332.117,-272.403C322.541,-263.136 307.089,-248.183 295.314,-236.788"/>
<polygon fill="midnightblue" stroke="midnightblue" points="297.487,-234.02 287.867,-229.581 292.619,-239.05 297.487,-234.02"/>
</g>
<!-- Node3&#45;&gt;Node5 -->
<g id="edge4" class="edge"><title>Node3&#45;&gt;Node5</title>
<path fill="none" stroke="midnightblue" d="M275.401,-273.034C203.604,-263.912 93.3338,-248.602 53,-236 50.8671,-235.334 48.6962,-234.542 46.5439,-233.676"/>
<polygon fill="midnightblue" stroke="midnightblue" points="47.9579,-230.474 37.4025,-229.561 45.0844,-236.857 47.9579,-230.474"/>
</g>
<!-- Node6 -->
<g id="node6" class="node"><title>Node6</title>
<polygon fill="none" stroke="#bfbfbf" points="315,-210.5 315,-229.5 367,-229.5 367,-210.5 315,-210.5"/>
<text text-anchor="middle" x="341" y="-217.5" font-family="Helvetica,sans-Serif" font-size="10.00">memory</text>
</g>
<!-- Node3&#45;&gt;Node6 -->
<g id="edge5" class="edge"><title>Node3&#45;&gt;Node6</title>
<path fill="none" stroke="midnightblue" d="M341,-272.403C341,-263.938 341,-250.728 341,-239.82"/>
<polygon fill="midnightblue" stroke="midnightblue" points="344.5,-239.581 341,-229.581 337.5,-239.581 344.5,-239.581"/>
</g>
<!-- Node7 -->
<g id="node7" class="node"><title>Node7</title>
<polygon fill="none" stroke="#bfbfbf" points="385.5,-210.5 385.5,-229.5 464.5,-229.5 464.5,-210.5 385.5,-210.5"/>
<text text-anchor="middle" x="425" y="-217.5" font-family="Helvetica,sans-Serif" font-size="10.00">FairDetector.h</text>
</g>
<!-- Node3&#45;&gt;Node7 -->
<g id="edge6" class="edge"><title>Node3&#45;&gt;Node7</title>
<path fill="none" stroke="midnightblue" d="M353.035,-272.403C366.508,-262.78 388.566,-247.024 404.715,-235.489"/>
<polygon fill="midnightblue" stroke="midnightblue" points="406.884,-238.241 412.987,-229.581 402.815,-232.545 406.884,-238.241"/>
</g>
<!-- Node8 -->
<g id="node8" class="node"><title>Node8</title>
<polygon fill="none" stroke="#bfbfbf" points="483,-210.5 483,-229.5 583,-229.5 583,-210.5 483,-210.5"/>
<text text-anchor="middle" x="533" y="-217.5" font-family="Helvetica,sans-Serif" font-size="10.00">FairRootManager.h</text>
</g>
<!-- Node3&#45;&gt;Node8 -->
<g id="edge7" class="edge"><title>Node3&#45;&gt;Node8</title>
<path fill="none" stroke="midnightblue" d="M368.509,-272.403C401.871,-261.978 458.262,-244.356 495.563,-232.699"/>
<polygon fill="midnightblue" stroke="midnightblue" points="497.041,-235.904 505.542,-229.581 494.953,-229.223 497.041,-235.904"/>
</g>
<!-- Node9 -->
<g id="node9" class="node"><title>Node9</title>
<polygon fill="none" stroke="#bfbfbf" points="778,-74.5 778,-93.5 834,-93.5 834,-74.5 778,-74.5"/>
<text text-anchor="middle" x="806" y="-81.5" font-family="Helvetica,sans-Serif" font-size="10.00">Rtypes.h</text>
</g>
<!-- Node3&#45;&gt;Node9 -->
<g id="edge8" class="edge"><title>Node3&#45;&gt;Node9</title>
<path fill="none" stroke="midnightblue" d="M406.718,-278.505C459.067,-274.375 533.083,-263.64 592,-236 611.989,-226.623 612.386,-217.313 630,-204 683.255,-163.749 749.177,-120.934 783.238,-99.2973"/>
<polygon fill="midnightblue" stroke="midnightblue" points="785.384,-102.081 791.963,-93.7761 781.641,-96.1658 785.384,-102.081"/>
</g>
<!-- Node10 -->
<g id="node10" class="node"><title>Node10</title>
<polygon fill="none" stroke="#bfbfbf" points="62.5,-210.5 62.5,-229.5 115.5,-229.5 115.5,-210.5 62.5,-210.5"/>
<text text-anchor="middle" x="89" y="-217.5" font-family="Helvetica,sans-Serif" font-size="10.00">cxxabi.h</text>
</g>
<!-- Node3&#45;&gt;Node10 -->
<g id="edge9" class="edge"><title>Node3&#45;&gt;Node10</title>
<path fill="none" stroke="midnightblue" d="M284.461,-272.472C240.2,-265.034 177.403,-252.794 124,-236 121.572,-235.236 119.083,-234.363 116.605,-233.431"/>
<polygon fill="midnightblue" stroke="midnightblue" points="117.848,-230.158 107.266,-229.646 115.22,-236.646 117.848,-230.158"/>
</g>
<!-- Node11 -->
<g id="node11" class="node"><title>Node11</title>
<polygon fill="none" stroke="#bfbfbf" points="133.5,-210.5 133.5,-229.5 184.5,-229.5 184.5,-210.5 133.5,-210.5"/>
<text text-anchor="middle" x="159" y="-217.5" font-family="Helvetica,sans-Serif" font-size="10.00">typeinfo</text>
</g>
<!-- Node3&#45;&gt;Node11 -->
<g id="edge10" class="edge"><title>Node3&#45;&gt;Node11</title>
<path fill="none" stroke="midnightblue" d="M308.874,-272.437C278.644,-264.097 232.278,-250.575 193,-236 190.887,-235.216 188.717,-234.366 186.546,-233.484"/>
<polygon fill="midnightblue" stroke="midnightblue" points="187.757,-230.196 177.185,-229.505 185.019,-236.638 187.757,-230.196"/>
</g>
<!-- Node12 -->
<g id="node12" class="node"><title>Node12</title>
<polygon fill="none" stroke="#bfbfbf" points="639,-210.5 639,-229.5 701,-229.5 701,-210.5 639,-210.5"/>
<text text-anchor="middle" x="670" y="-217.5" font-family="Helvetica,sans-Serif" font-size="10.00">type_traits</text>
</g>
<!-- Node3&#45;&gt;Node12 -->
<g id="edge11" class="edge"><title>Node3&#45;&gt;Node12</title>
<path fill="none" stroke="midnightblue" d="M406.747,-273.699C464.702,-266.527 551.164,-254.026 625,-236 628.938,-235.039 633.024,-233.893 637.058,-232.668"/>
<polygon fill="midnightblue" stroke="midnightblue" points="638.404,-235.912 646.857,-229.524 636.266,-229.247 638.404,-235.912"/>
</g>
<!-- Node13 -->
<g id="node13" class="node"><title>Node13</title>
<polygon fill="none" stroke="#bfbfbf" points="202.5,-210.5 202.5,-229.5 243.5,-229.5 243.5,-210.5 202.5,-210.5"/>
<text text-anchor="middle" x="223" y="-217.5" font-family="Helvetica,sans-Serif" font-size="10.00">string</text>
</g>
<!-- Node3&#45;&gt;Node13 -->
<g id="edge12" class="edge"><title>Node3&#45;&gt;Node13</title>
<path fill="none" stroke="midnightblue" d="M323.914,-272.42C305.98,-263.399 276.973,-248.771 252,-236 250.865,-235.419 249.705,-234.825 248.533,-234.223"/>
<polygon fill="midnightblue" stroke="midnightblue" points="250.041,-231.063 239.549,-229.593 246.835,-237.286 250.041,-231.063"/>
</g>
<!-- Node14&#45;&gt;Node9 -->
<g id="edge17" class="edge"><title>Node14&#45;&gt;Node9</title>
<path fill="none" stroke="midnightblue" d="M852.587,-276.848C909.781,-271.484 990.303,-259.84 1010,-236 1038.31,-201.735 1038.94,-170.565 1011,-136 962.993,-76.6161 915.993,-122.43 843,-100 840.358,-99.1882 837.641,-98.2653 834.937,-97.2857"/>
<polygon fill="midnightblue" stroke="midnightblue" points="835.946,-93.9233 825.357,-93.5864 833.425,-100.453 835.946,-93.9233"/>
</g>
<!-- Node14&#45;&gt;Node12 -->
<g id="edge16" class="edge"><title>Node14&#45;&gt;Node12</title>
<path fill="none" stroke="midnightblue" d="M775.377,-272.403C754.826,-262.379 720.636,-245.701 696.793,-234.07"/>
<polygon fill="midnightblue" stroke="midnightblue" points="698.112,-230.819 687.59,-229.581 695.043,-237.111 698.112,-230.819"/>
</g>
<!-- Node15 -->
<g id="node15" class="node"><title>Node15</title>
<polygon fill="none" stroke="#bfbfbf" points="719,-210.5 719,-229.5 765,-229.5 765,-210.5 719,-210.5"/>
<text text-anchor="middle" x="742" y="-217.5" font-family="Helvetica,sans-Serif" font-size="10.00">cstdint</text>
</g>
<!-- Node14&#45;&gt;Node15 -->
<g id="edge14" class="edge"><title>Node14&#45;&gt;Node15</title>
<path fill="none" stroke="midnightblue" d="M785.693,-272.403C777.967,-263.314 765.592,-248.756 755.982,-237.449"/>
<polygon fill="midnightblue" stroke="midnightblue" points="758.437,-234.933 749.294,-229.581 753.103,-239.467 758.437,-234.933"/>
</g>
<!-- Node16 -->
<g id="node16" class="node"><title>Node16</title>
<polygon fill="none" stroke="#bfbfbf" points="746,-142.5 746,-161.5 784,-161.5 784,-142.5 746,-142.5"/>
<text text-anchor="middle" x="765" y="-149.5" font-family="Helvetica,sans-Serif" font-size="10.00">array</text>
</g>
<!-- Node14&#45;&gt;Node16 -->
<g id="edge15" class="edge"><title>Node14&#45;&gt;Node16</title>
<path fill="none" stroke="midnightblue" d="M791.075,-272.202C786.558,-251.551 775.195,-199.606 769.067,-171.594"/>
<polygon fill="midnightblue" stroke="midnightblue" points="772.42,-170.543 766.864,-161.522 765.582,-172.039 772.42,-170.543"/>
</g>
<!-- Node17 -->
<g id="node17" class="node"><title>Node17</title>
<g id="a_node17"><a xlink:href="../../d9/ded/Utils_8h.html" target="_top" xlink:title="DetectorsBase/Utils.h">
<polygon fill="none" stroke="black" points="821.5,-210.5 821.5,-229.5 934.5,-229.5 934.5,-210.5 821.5,-210.5"/>
<text text-anchor="middle" x="878" y="-217.5" font-family="Helvetica,sans-Serif" font-size="10.00">DetectorsBase/Utils.h</text>
</a>
</g>
</g>
<!-- Node14&#45;&gt;Node17 -->
<g id="edge18" class="edge"><title>Node14&#45;&gt;Node17</title>
<path fill="none" stroke="midnightblue" d="M805.178,-272.403C818.812,-262.78 841.132,-247.024 857.474,-235.489"/>
<polygon fill="midnightblue" stroke="midnightblue" points="859.693,-238.207 865.844,-229.581 855.656,-232.488 859.693,-238.207"/>
</g>
<!-- Node20 -->
<g id="node20" class="node"><title>Node20</title>
<polygon fill="none" stroke="#bfbfbf" points="952.5,-210.5 952.5,-229.5 1001.5,-229.5 1001.5,-210.5 952.5,-210.5"/>
<text text-anchor="middle" x="977" y="-217.5" font-family="Helvetica,sans-Serif" font-size="10.00">cassert</text>
</g>
<!-- Node14&#45;&gt;Node20 -->
<g id="edge22" class="edge"><title>Node14&#45;&gt;Node20</title>
<path fill="none" stroke="midnightblue" d="M825.568,-272.486C856.212,-264.18 903.208,-250.682 943,-236 945.115,-235.22 947.285,-234.373 949.458,-233.493"/>
<polygon fill="midnightblue" stroke="midnightblue" points="950.983,-236.648 958.82,-229.518 948.247,-230.204 950.983,-236.648"/>
</g>
<!-- Node17&#45;&gt;Node16 -->
<g id="edge21" class="edge"><title>Node17&#45;&gt;Node16</title>
<path fill="none" stroke="midnightblue" d="M863.227,-210.372C844.278,-199.304 811.18,-179.972 788.692,-166.838"/>
<polygon fill="midnightblue" stroke="midnightblue" points="790.177,-163.652 779.776,-161.63 786.646,-169.696 790.177,-163.652"/>
</g>
<!-- Node18 -->
<g id="node18" class="node"><title>Node18</title>
<g id="a_node18"><a xlink:href="../../d1/daa/Base_2include_2DetectorsBase_2Constants_8h.html" target="_top" xlink:title="DetectorsBase/Constants.h">
<polygon fill="none" stroke="black" points="864,-142.5 864,-161.5 1002,-161.5 1002,-142.5 864,-142.5"/>
<text text-anchor="middle" x="933" y="-149.5" font-family="Helvetica,sans-Serif" font-size="10.00">DetectorsBase/Constants.h</text>
</a>
</g>
</g>
<!-- Node17&#45;&gt;Node18 -->
<g id="edge19" class="edge"><title>Node17&#45;&gt;Node18</title>
<path fill="none" stroke="midnightblue" d="M885.19,-210.372C893.789,-200.053 908.374,-182.551 919.179,-169.585"/>
<polygon fill="midnightblue" stroke="midnightblue" points="921.919,-171.764 925.632,-161.841 916.542,-167.283 921.919,-171.764"/>
</g>
<!-- Node19 -->
<g id="node19" class="node"><title>Node19</title>
<polygon fill="none" stroke="#bfbfbf" points="802,-142.5 802,-161.5 846,-161.5 846,-142.5 802,-142.5"/>
<text text-anchor="middle" x="824" y="-149.5" font-family="Helvetica,sans-Serif" font-size="10.00">cmath</text>
</g>
<!-- Node17&#45;&gt;Node19 -->
<g id="edge20" class="edge"><title>Node17&#45;&gt;Node19</title>
<path fill="none" stroke="midnightblue" d="M870.94,-210.372C862.498,-200.053 848.178,-182.551 837.57,-169.585"/>
<polygon fill="midnightblue" stroke="midnightblue" points="840.275,-167.364 831.234,-161.841 834.857,-171.797 840.275,-167.364"/>
</g>
<!-- Node21&#45;&gt;Node9 -->
<g id="edge39" class="edge"><title>Node21&#45;&gt;Node9</title>
<path fill="none" stroke="midnightblue" d="M1239.61,-272.453C1235.05,-263.459 1227.77,-248.852 1222,-236 1202.33,-192.177 1219.42,-164.836 1181,-136 1120.59,-90.6541 916.269,-118.368 843,-100 839.939,-99.2326 836.796,-98.2636 833.698,-97.1891"/>
<polygon fill="midnightblue" stroke="midnightblue" points="834.696,-93.8234 824.105,-93.5146 832.191,-100.36 834.696,-93.8234"/>
</g>
<!-- Node22 -->
<g id="node22" class="node"><title>Node22</title>
<g id="a_node22"><a xlink:href="../../d4/d25/BaseHits_8h.html" target="_top" xlink:title="SimulationDataFormat\l/BaseHits.h">
<polygon fill="none" stroke="black" points="1231,-205 1231,-235 1345,-235 1345,-205 1231,-205"/>
<text text-anchor="start" x="1239" y="-223" font-family="Helvetica,sans-Serif" font-size="10.00">SimulationDataFormat</text>
<text text-anchor="middle" x="1288" y="-212" font-family="Helvetica,sans-Serif" font-size="10.00">/BaseHits.h</text>
</a>
</g>
</g>
<!-- Node21&#45;&gt;Node22 -->
<g id="edge24" class="edge"><title>Node21&#45;&gt;Node22</title>
<path fill="none" stroke="midnightblue" d="M1250.3,-272.403C1255.87,-264.809 1264.24,-253.396 1271.68,-243.252"/>
<polygon fill="midnightblue" stroke="midnightblue" points="1274.54,-245.275 1277.63,-235.141 1268.89,-241.135 1274.54,-245.275"/>
</g>
<!-- Node33 -->
<g id="node33" class="node"><title>Node33</title>
<polygon fill="none" stroke="#bfbfbf" points="1972,-74.5 1972,-93.5 2026,-93.5 2026,-74.5 1972,-74.5"/>
<text text-anchor="middle" x="1999" y="-81.5" font-family="Helvetica,sans-Serif" font-size="10.00">iostream</text>
</g>
<!-- Node21&#45;&gt;Node33 -->
<g id="edge41" class="edge"><title>Node21&#45;&gt;Node33</title>
<path fill="none" stroke="midnightblue" d="M1269.11,-272.359C1291.83,-264.16 1325.94,-250.903 1354,-236 1376.64,-223.975 1378.24,-213.645 1402,-204 1636.96,-108.612 1719.94,-172.281 1963,-100 1965.65,-99.2129 1968.36,-98.296 1971.06,-97.3105"/>
<polygon fill="midnightblue" stroke="midnightblue" points="1972.57,-100.478 1980.59,-93.5507 1970,-93.9663 1972.57,-100.478"/>
</g>
<!-- Node34 -->
<g id="node34" class="node"><title>Node34</title>
<g id="a_node34"><a xlink:href="../../d7/dcd/MCCompLabel_8h.html" target="_top" xlink:title="SimulationDataFormat\l/MCCompLabel.h">
<polygon fill="none" stroke="black" points="1058,-137 1058,-167 1172,-167 1172,-137 1058,-137"/>
<text text-anchor="start" x="1066" y="-155" font-family="Helvetica,sans-Serif" font-size="10.00">SimulationDataFormat</text>
<text text-anchor="middle" x="1115" y="-144" font-family="Helvetica,sans-Serif" font-size="10.00">/MCCompLabel.h</text>
</a>
</g>
</g>
<!-- Node21&#45;&gt;Node34 -->
<g id="edge37" class="edge"><title>Node21&#45;&gt;Node34</title>
<path fill="none" stroke="midnightblue" d="M1231.42,-272.374C1219.25,-263.779 1200.57,-249.895 1186,-236 1165.95,-216.884 1145.66,-192.556 1131.94,-175.189"/>
<polygon fill="midnightblue" stroke="midnightblue" points="1134.67,-173.003 1125.75,-167.276 1129.15,-177.312 1134.67,-173.003"/>
</g>
<!-- Node35 -->
<g id="node35" class="node"><title>Node35</title>
<polygon fill="none" stroke="#bfbfbf" points="1410.5,-210.5 1410.5,-229.5 1475.5,-229.5 1475.5,-210.5 1410.5,-210.5"/>
<text text-anchor="middle" x="1443" y="-217.5" font-family="Helvetica,sans-Serif" font-size="10.00">TVector3.h</text>
</g>
<!-- Node21&#45;&gt;Node35 -->
<g id="edge40" class="edge"><title>Node21&#45;&gt;Node35</title>
<path fill="none" stroke="midnightblue" d="M1273.48,-272.473C1304.14,-263.556 1353.52,-249.066 1396,-236 1399.57,-234.903 1403.28,-233.745 1406.99,-232.579"/>
<polygon fill="midnightblue" stroke="midnightblue" points="1408.21,-235.864 1416.68,-229.507 1406.09,-229.191 1408.21,-235.864"/>
</g>
<!-- Node23 -->
<g id="node23" class="node"><title>Node23</title>
<g id="a_node23"><a xlink:href="../../dd/d76/Cartesian3D_8h.html" target="_top" xlink:title="MathUtils/Cartesian3D.h">
<polygon fill="none" stroke="black" points="1228.5,-142.5 1228.5,-161.5 1353.5,-161.5 1353.5,-142.5 1228.5,-142.5"/>
<text text-anchor="middle" x="1291" y="-149.5" font-family="Helvetica,sans-Serif" font-size="10.00">MathUtils/Cartesian3D.h</text>
</a>
</g>
</g>
<!-- Node22&#45;&gt;Node23 -->
<g id="edge25" class="edge"><title>Node22&#45;&gt;Node23</title>
<path fill="none" stroke="midnightblue" d="M1288.65,-204.679C1289.09,-195.101 1289.66,-182.394 1290.14,-171.977"/>
<polygon fill="midnightblue" stroke="midnightblue" points="1293.64,-171.977 1290.6,-161.828 1286.65,-171.659 1293.64,-171.977"/>
</g>
<!-- Node23&#45;&gt;Node9 -->
<g id="edge29" class="edge"><title>Node23&#45;&gt;Node9</title>
<path fill="none" stroke="midnightblue" d="M1251.16,-142.486C1239.25,-140.144 1226.13,-137.766 1214,-136 1050.06,-112.134 1003.88,-139.531 843,-100 839.935,-99.2469 836.79,-98.2872 833.69,-97.2182"/>
<polygon fill="midnightblue" stroke="midnightblue" points="834.687,-93.8522 824.096,-93.5502 832.187,-100.391 834.687,-93.8522"/>
</g>
<!-- Node24 -->
<g id="node24" class="node"><title>Node24</title>
<polygon fill="none" stroke="#bfbfbf" points="1630.5,-74.5 1630.5,-93.5 1779.5,-93.5 1779.5,-74.5 1630.5,-74.5"/>
<text text-anchor="middle" x="1705" y="-81.5" font-family="Helvetica,sans-Serif" font-size="10.00">Math/GenVector/Rotation3D.h</text>
</g>
<!-- Node23&#45;&gt;Node24 -->
<g id="edge26" class="edge"><title>Node23&#45;&gt;Node24</title>
<path fill="none" stroke="midnightblue" d="M1332.89,-142.437C1344.26,-140.222 1356.58,-137.923 1368,-136 1480,-117.135 1508.86,-117.986 1621,-100 1630.02,-98.5529 1639.58,-96.9322 1648.88,-95.3056"/>
<polygon fill="midnightblue" stroke="midnightblue" points="1649.6,-98.7327 1658.84,-93.5462 1648.38,-91.8394 1649.6,-98.7327"/>
</g>
<!-- Node25 -->
<g id="node25" class="node"><title>Node25</title>
<polygon fill="none" stroke="#bfbfbf" points="1798,-74.5 1798,-93.5 1954,-93.5 1954,-74.5 1798,-74.5"/>
<text text-anchor="middle" x="1876" y="-81.5" font-family="Helvetica,sans-Serif" font-size="10.00">Math/GenVector/Transform3D.h</text>
</g>
<!-- Node23&#45;&gt;Node25 -->
<g id="edge27" class="edge"><title>Node23&#45;&gt;Node25</title>
<path fill="none" stroke="midnightblue" d="M1330.43,-142.478C1342.45,-140.108 1355.73,-137.717 1368,-136 1553.55,-110.051 1602.16,-123.761 1788,-100 1798.48,-98.6594 1809.63,-96.9685 1820.34,-95.209"/>
<polygon fill="midnightblue" stroke="midnightblue" points="1821.15,-98.6209 1830.43,-93.5103 1819.99,-91.7179 1821.15,-98.6209"/>
</g>
<!-- Node26 -->
<g id="node26" class="node"><title>Node26</title>
<polygon fill="none" stroke="#bfbfbf" points="852,-74.5 852,-93.5 1012,-93.5 1012,-74.5 852,-74.5"/>
<text text-anchor="middle" x="932" y="-81.5" font-family="Helvetica,sans-Serif" font-size="10.00">Math/GenVector/Translation3D.h</text>
</g>
<!-- Node23&#45;&gt;Node26 -->
<g id="edge28" class="edge"><title>Node23&#45;&gt;Node26</title>
<path fill="none" stroke="midnightblue" d="M1247.85,-142.488C1236.82,-140.341 1224.98,-138.061 1214,-136 1136.62,-121.467 1047.15,-105.413 990.103,-95.2721"/>
<polygon fill="midnightblue" stroke="midnightblue" points="990.646,-91.8139 980.188,-93.5111 989.422,-98.706 990.646,-91.8139"/>
</g>
<!-- Node27 -->
<g id="node27" class="node"><title>Node27</title>
<polygon fill="none" stroke="#bfbfbf" points="1030,-74.5 1030,-93.5 1106,-93.5 1106,-74.5 1030,-74.5"/>
<text text-anchor="middle" x="1068" y="-81.5" font-family="Helvetica,sans-Serif" font-size="10.00">TGeoMatrix.h</text>
</g>
<!-- Node23&#45;&gt;Node27 -->
<g id="edge30" class="edge"><title>Node23&#45;&gt;Node27</title>
<path fill="none" stroke="midnightblue" d="M1260.91,-142.422C1226,-132.427 1166.74,-115.321 1116,-100 1112.25,-98.8683 1108.34,-97.6729 1104.45,-96.4707"/>
<polygon fill="midnightblue" stroke="midnightblue" points="1105.47,-93.1234 1094.88,-93.501 1103.39,-99.8086 1105.47,-93.1234"/>
</g>
<!-- Node28 -->
<g id="node28" class="node"><title>Node28</title>
<polygon fill="none" stroke="#bfbfbf" points="1124.5,-69 1124.5,-99 1275.5,-99 1275.5,-69 1124.5,-69"/>
<text text-anchor="start" x="1132.5" y="-87" font-family="Helvetica,sans-Serif" font-size="10.00">Math/GenVector/Displacement</text>
<text text-anchor="middle" x="1200" y="-76" font-family="Helvetica,sans-Serif" font-size="10.00">Vector3D.h</text>
</g>
<!-- Node23&#45;&gt;Node28 -->
<g id="edge31" class="edge"><title>Node23&#45;&gt;Node28</title>
<path fill="none" stroke="midnightblue" d="M1279.1,-142.372C1266.22,-133.029 1245.22,-117.797 1228.09,-105.375"/>
<polygon fill="midnightblue" stroke="midnightblue" points="1229.7,-102.219 1219.55,-99.1815 1225.59,-107.886 1229.7,-102.219"/>
</g>
<!-- Node29 -->
<g id="node29" class="node"><title>Node29</title>
<polygon fill="none" stroke="#bfbfbf" points="1294,-74.5 1294,-93.5 1470,-93.5 1470,-74.5 1294,-74.5"/>
<text text-anchor="middle" x="1382" y="-81.5" font-family="Helvetica,sans-Serif" font-size="10.00">Math/GenVector/PositionVector3D.h</text>
</g>
<!-- Node23&#45;&gt;Node29 -->
<g id="edge32" class="edge"><title>Node23&#45;&gt;Node29</title>
<path fill="none" stroke="midnightblue" d="M1302.9,-142.372C1317.88,-131.502 1343.86,-112.66 1361.94,-99.5474"/>
<polygon fill="midnightblue" stroke="midnightblue" points="1364.06,-102.335 1370.1,-93.6305 1359.95,-96.6684 1364.06,-102.335"/>
</g>
<!-- Node30 -->
<g id="node30" class="node"><title>Node30</title>
<g id="a_node30"><a xlink:href="../../d2/dd0/Cartesian2D_8h.html" target="_top" xlink:title="MathUtils/Cartesian2D.h">
<polygon fill="none" stroke="black" points="1487.5,-74.5 1487.5,-93.5 1612.5,-93.5 1612.5,-74.5 1487.5,-74.5"/>
<text text-anchor="middle" x="1550" y="-81.5" font-family="Helvetica,sans-Serif" font-size="10.00">MathUtils/Cartesian2D.h</text>
</a>
</g>
</g>
<!-- Node23&#45;&gt;Node30 -->
<g id="edge33" class="edge"><title>Node23&#45;&gt;Node30</title>
<path fill="none" stroke="midnightblue" d="M1324.59,-142.439C1371.17,-130.57 1455.42,-109.103 1506.67,-96.0406"/>
<polygon fill="midnightblue" stroke="midnightblue" points="1507.64,-99.4066 1516.47,-93.5455 1505.91,-92.6233 1507.64,-99.4066"/>
</g>
<!-- Node23&#45;&gt;Node33 -->
<g id="edge36" class="edge"><title>Node23&#45;&gt;Node33</title>
<path fill="none" stroke="midnightblue" d="M1329.62,-142.443C1341.84,-140.013 1355.44,-137.597 1368,-136 1630.81,-102.599 1704.9,-159.781 1963,-100 1966.07,-99.2896 1969.21,-98.3423 1972.29,-97.2677"/>
<polygon fill="midnightblue" stroke="midnightblue" points="1973.78,-100.445 1981.81,-93.5351 1971.22,-93.928 1973.78,-100.445"/>
</g>
<!-- Node31 -->
<g id="node31" class="node"><title>Node31</title>
<polygon fill="none" stroke="#bfbfbf" points="1383.5,-1 1383.5,-31 1534.5,-31 1534.5,-1 1383.5,-1"/>
<text text-anchor="start" x="1391.5" y="-19" font-family="Helvetica,sans-Serif" font-size="10.00">Math/GenVector/Displacement</text>
<text text-anchor="middle" x="1459" y="-8" font-family="Helvetica,sans-Serif" font-size="10.00">Vector2D.h</text>
</g>
<!-- Node30&#45;&gt;Node31 -->
<g id="edge34" class="edge"><title>Node30&#45;&gt;Node31</title>
<path fill="none" stroke="midnightblue" d="M1538.1,-74.3717C1525.22,-65.0286 1504.22,-49.7966 1487.09,-37.375"/>
<polygon fill="midnightblue" stroke="midnightblue" points="1488.7,-34.2194 1478.55,-31.1815 1484.59,-39.8859 1488.7,-34.2194"/>
</g>
<!-- Node32 -->
<g id="node32" class="node"><title>Node32</title>
<polygon fill="none" stroke="#bfbfbf" points="1553,-6.5 1553,-25.5 1729,-25.5 1729,-6.5 1553,-6.5"/>
<text text-anchor="middle" x="1641" y="-13.5" font-family="Helvetica,sans-Serif" font-size="10.00">Math/GenVector/PositionVector2D.h</text>
</g>
<!-- Node30&#45;&gt;Node32 -->
<g id="edge35" class="edge"><title>Node30&#45;&gt;Node32</title>
<path fill="none" stroke="midnightblue" d="M1561.9,-74.3717C1576.88,-63.5015 1602.86,-44.6602 1620.94,-31.5474"/>
<polygon fill="midnightblue" stroke="midnightblue" points="1623.06,-34.3349 1629.1,-25.6305 1618.95,-28.6684 1623.06,-34.3349"/>
</g>
<!-- Node34&#45;&gt;Node9 -->
<g id="edge38" class="edge"><title>Node34&#45;&gt;Node9</title>
<path fill="none" stroke="midnightblue" d="M1057.68,-138.731C1053.06,-137.79 1048.45,-136.869 1044,-136 954.925,-118.618 930.191,-125.185 843,-100 840.191,-99.1885 837.302,-98.2372 834.438,-97.214"/>
<polygon fill="midnightblue" stroke="midnightblue" points="835.526,-93.8828 824.936,-93.5581 833.012,-100.416 835.526,-93.8828"/>
</g>
</g>
</svg>
