<?xml version="1.0" encoding="UTF-8" standalone="no"?>
<!DOCTYPE svg PUBLIC "-//W3C//DTD SVG 1.1//EN"
 "http://www.w3.org/Graphics/SVG/1.1/DTD/svg11.dtd">
<!-- Generated by graphviz version 2.36.0 (20140111.2315)
 -->
<!-- Title: o2::framework::DeviceControl Pages: 1 -->
<svg width="280pt" height="206pt"
 viewBox="0.00 0.00 280.00 206.00" xmlns="http://www.w3.org/2000/svg" xmlns:xlink="http://www.w3.org/1999/xlink">
<g id="graph0" class="graph" transform="scale(1 1) rotate(0) translate(4 202)">
<title>o2::framework::DeviceControl</title>
<!-- Node1 -->
<g id="node1" class="node"><title>Node1</title>
<polygon fill="#bfbfbf" stroke="black" points="68.5,-0.5 68.5,-57.5 215.5,-57.5 215.5,-0.5 68.5,-0.5"/>
<text text-anchor="middle" x="142" y="-45.5" font-family="Helvetica,sans-Serif" font-size="10.00">o2::framework::DeviceControl</text>
<polyline fill="none" stroke="black" points="68.5,-38.5 215.5,-38.5 "/>
<text text-anchor="middle" x="142" y="-26.5" font-family="Helvetica,sans-Serif" font-size="10.00"> </text>
<polyline fill="none" stroke="black" points="68.5,-19.5 215.5,-19.5 "/>
<text text-anchor="middle" x="142" y="-7.5" font-family="Helvetica,sans-Serif" font-size="10.00"> </text>
</g>
<!-- Node2 -->
<g id="node2" class="node"><title>Node2</title>
<polygon fill="none" stroke="#bfbfbf" points="-0.5,-129 -0.5,-197 106.5,-197 106.5,-129 -0.5,-129"/>
<text text-anchor="start" x="7.5" y="-185" font-family="Helvetica,sans-Serif" font-size="10.00">map&lt; std::string, std</text>
<text text-anchor="middle" x="53" y="-174" font-family="Helvetica,sans-Serif" font-size="10.00">::string &gt;</text>
<polyline fill="none" stroke="#bfbfbf" points="-0.5,-167 106.5,-167 "/>
<text text-anchor="middle" x="53" y="-155" font-family="Helvetica,sans-Serif" font-size="10.00"> </text>
<polyline fill="none" stroke="#bfbfbf" points="-0.5,-148 106.5,-148 "/>
<text text-anchor="middle" x="53" y="-136" font-family="Helvetica,sans-Serif" font-size="10.00"> </text>
</g>
<!-- Node2&#45;&gt;Node1 -->
<g id="edge1" class="edge"><title>Node2&#45;&gt;Node1</title>
<path fill="none" stroke="#404040" d="M67.1084,-128.806C74.844,-112.254 85.2466,-92.3368 97,-76 99.2836,-72.8259 101.784,-69.6599 104.399,-66.5591"/>
<polygon fill="none" stroke="#404040" points="104.49,-66.457 105.506,-59.3177 112.487,-57.5094 111.471,-64.6487 104.49,-66.457"/>
<text text-anchor="middle" x="117.5" y="-90.5" font-family="Helvetica,sans-Serif" font-size="10.00"> +options</text>
</g>
<!-- Node3 -->
<g id="node3" class="node"><title>Node3</title>
<polygon fill="none" stroke="#bfbfbf" points="124.5,-134.5 124.5,-191.5 159.5,-191.5 159.5,-134.5 124.5,-134.5"/>
<text text-anchor="middle" x="142" y="-179.5" font-family="Helvetica,sans-Serif" font-size="10.00">char</text>
<polyline fill="none" stroke="#bfbfbf" points="124.5,-172.5 159.5,-172.5 "/>
<text text-anchor="middle" x="142" y="-160.5" font-family="Helvetica,sans-Serif" font-size="10.00"> </text>
<polyline fill="none" stroke="#bfbfbf" points="124.5,-153.5 159.5,-153.5 "/>
<text text-anchor="middle" x="142" y="-141.5" font-family="Helvetica,sans-Serif" font-size="10.00"> </text>
</g>
<!-- Node3&#45;&gt;Node1 -->
<g id="edge2" class="edge"><title>Node3&#45;&gt;Node1</title>
<path fill="none" stroke="#404040" d="M142,-134.328C142,-115.584 142,-90.5277 142,-69.6685"/>
<polygon fill="none" stroke="#404040" points="142,-69.6351 138,-63.6351 142,-57.6351 146,-63.6351 142,-69.6351"/>
<text text-anchor="middle" x="178.5" y="-101.5" font-family="Helvetica,sans-Serif" font-size="10.00"> +logStopTrigger</text>
<text text-anchor="middle" x="178.5" y="-90.5" font-family="Helvetica,sans-Serif" font-size="10.00">+logStartTrigger</text>
<text text-anchor="middle" x="178.5" y="-79.5" font-family="Helvetica,sans-Serif" font-size="10.00">+logFilter</text>
</g>
<!-- Node4 -->
<g id="node4" class="node"><title>Node4</title>
<polygon fill="none" stroke="#bfbfbf" points="220.5,-134.5 220.5,-191.5 255.5,-191.5 255.5,-134.5 220.5,-134.5"/>
<text text-anchor="middle" x="238" y="-179.5" font-family="Helvetica,sans-Serif" font-size="10.00">bool</text>
<polyline fill="none" stroke="#bfbfbf" points="220.5,-172.5 255.5,-172.5 "/>
<text text-anchor="middle" x="238" y="-160.5" font-family="Helvetica,sans-Serif" font-size="10.00"> </text>
<polyline fill="none" stroke="#bfbfbf" points="220.5,-153.5 255.5,-153.5 "/>
<text text-anchor="middle" x="238" y="-141.5" font-family="Helvetica,sans-Serif" font-size="10.00"> </text>
</g>
<!-- Node4&#45;&gt;Node1 -->
<g id="edge3" class="edge"><title>Node4&#45;&gt;Node1</title>
<path fill="none" stroke="#404040" d="M236.198,-134.169C233.826,-116.119 228.391,-92.9044 216,-76 213.292,-72.3055 210.189,-68.8415 206.823,-65.605"/>
<polygon fill="none" stroke="#404040" points="206.522,-65.3489 199.361,-64.5032 197.387,-57.5674 204.548,-58.4131 206.522,-65.3489"/>
<text text-anchor="middle" x="251.5" y="-96" font-family="Helvetica,sans-Serif" font-size="10.00"> +quiet</text>
<text text-anchor="middle" x="251.5" y="-85" font-family="Helvetica,sans-Serif" font-size="10.00">+stopped</text>
</g>
</g>
</svg>
