<?xml version="1.0" encoding="UTF-8" standalone="no"?>
<!DOCTYPE svg PUBLIC "-//W3C//DTD SVG 1.1//EN"
 "http://www.w3.org/Graphics/SVG/1.1/DTD/svg11.dtd">
<!-- Generated by graphviz version 2.36.0 (20140111.2315)
 -->
<!-- Title: o2::Header::TimeStamp Pages: 1 -->
<!--zoomable 512 -->
<svg id="main" version="1.1" xmlns="http://www.w3.org/2000/svg" xmlns:xlink="http://www.w3.org/1999/xlink" xml:space="preserve" onload="init(evt)">
<style type="text/css"><![CDATA[
.edge:hover path { stroke: red; }
.edge:hover polygon { stroke: red; fill: red; }
]]></style>
<script type="text/javascript"><![CDATA[
var edges = document.getElementsByTagName('g');
if (edges && edges.length) {
  for (var i=0;i<edges.length;i++) {
    if (edges[i].id.substr(0,4)=='edge') {
      edges[i].setAttribute('class','edge');
    }
  }
}
]]></script>
        <defs>
                <circle id="rim" cx="0" cy="0" r="7"/>
                <circle id="rim2" cx="0" cy="0" r="3.5"/>
                <g id="zoomPlus">
                        <use xlink:href="#rim" fill="#404040">
                                <set attributeName="fill" to="#808080" begin="zoomplus.mouseover" end="zoomplus.mouseout"/>
                        </use>
                        <path d="M-4,0h8M0,-4v8" fill="none" stroke="white" stroke-width="1.5" pointer-events="none"/>
                </g>
                <g id="zoomMin">
                        <use xlink:href="#rim" fill="#404040">
                                <set attributeName="fill" to="#808080" begin="zoomminus.mouseover" end="zoomminus.mouseout"/>
                        </use>
                        <path d="M-4,0h8" fill="none" stroke="white" stroke-width="1.5" pointer-events="none"/>
                </g>
                <g id="dirArrow">
                        <path fill="none" stroke="white" stroke-width="1.5" d="M0,-3.0v7 M-2.5,-0.5L0,-3.0L2.5,-0.5"/>
                </g>
               <g id="resetDef">
                       <use xlink:href="#rim2" fill="#404040">
                               <set attributeName="fill" to="#808080" begin="reset.mouseover" end="reset.mouseout"/>
                       </use>
               </g>
        </defs>

<script type="text/javascript">
var viewWidth = 431;
var viewHeight = 512;
var sectionId = 'dynsection-0';
</script>
<script xlink:href="../../svgpan.js"/>
<svg id="graph" class="graph">
<g id="viewport">
<title>o2::Header::TimeStamp</title>
<!-- Node1 -->
<g id="node1" class="node"><title>Node1</title>
<polygon fill="#bfbfbf" stroke="black" points="109.5,-1 109.5,-113 230.5,-113 230.5,-1 109.5,-1"/>
<text text-anchor="middle" x="170" y="-101" font-family="Helvetica,sans-Serif" font-size="10.00">o2::Header::TimeStamp</text>
<polyline fill="none" stroke="black" points="109.5,-94 230.5,-94 "/>
<text text-anchor="middle" x="170" y="-82" font-family="Helvetica,sans-Serif" font-size="10.00"> </text>
<polyline fill="none" stroke="black" points="109.5,-75 230.5,-75 "/>
<text text-anchor="start" x="117.5" y="-63" font-family="Helvetica,sans-Serif" font-size="10.00">+ TimeStamp()</text>
<text text-anchor="start" x="117.5" y="-52" font-family="Helvetica,sans-Serif" font-size="10.00">+ TimeStamp()</text>
<text text-anchor="start" x="117.5" y="-41" font-family="Helvetica,sans-Serif" font-size="10.00">+ TimeStamp()</text>
<text text-anchor="start" x="117.5" y="-30" font-family="Helvetica,sans-Serif" font-size="10.00">+ ~TimeStamp()</text>
<text text-anchor="start" x="117.5" y="-19" font-family="Helvetica,sans-Serif" font-size="10.00">+ operator uint64_t()</text>
<text text-anchor="start" x="117.5" y="-8" font-family="Helvetica,sans-Serif" font-size="10.00">+ get()</text>
</g>
<!-- Node2 -->
<g id="node2" class="node"><title>Node2</title>
<polygon fill="none" stroke="#bfbfbf" points="-0.5,-250.5 -0.5,-307.5 50.5,-307.5 50.5,-250.5 -0.5,-250.5"/>
<text text-anchor="middle" x="25" y="-295.5" font-family="Helvetica,sans-Serif" font-size="10.00">uint64_t</text>
<polyline fill="none" stroke="#bfbfbf" points="-0.5,-288.5 50.5,-288.5 "/>
<text text-anchor="middle" x="25" y="-276.5" font-family="Helvetica,sans-Serif" font-size="10.00"> </text>
<polyline fill="none" stroke="#bfbfbf" points="-0.5,-269.5 50.5,-269.5 "/>
<text text-anchor="middle" x="25" y="-257.5" font-family="Helvetica,sans-Serif" font-size="10.00"> </text>
</g>
<!-- Node2&#45;&gt;Node1 -->
<g id="edge1" class="edge"><title>Node2&#45;&gt;Node1</title>
<path fill="none" stroke="#404040" d="M20.7505,-250.255C17.4555,-218.914 16.7569,-167.644 40,-132 53.8971,-110.688 76.1964,-94.8509 98.4317,-83.4188"/>
<polygon fill="none" stroke="#404040" points="98.5037,-83.384 102.162,-77.1695 109.305,-78.1559 105.647,-84.3704 98.5037,-83.384"/>
<text text-anchor="middle" x="79.5" y="-146.5" font-family="Helvetica,sans-Serif" font-size="10.00"> +mTimeStamp64</text>
</g>
<!-- Node3 -->
<g id="node3" class="node"><title>Node3</title>
<polygon fill="none" stroke="#bfbfbf" points="101.5,-250.5 101.5,-307.5 152.5,-307.5 152.5,-250.5 101.5,-250.5"/>
<text text-anchor="middle" x="127" y="-295.5" font-family="Helvetica,sans-Serif" font-size="10.00">uint16_t</text>
<polyline fill="none" stroke="#bfbfbf" points="101.5,-288.5 152.5,-288.5 "/>
<text text-anchor="middle" x="127" y="-276.5" font-family="Helvetica,sans-Serif" font-size="10.00"> </text>
<polyline fill="none" stroke="#bfbfbf" points="101.5,-269.5 152.5,-269.5 "/>
<text text-anchor="middle" x="127" y="-257.5" font-family="Helvetica,sans-Serif" font-size="10.00"> </text>
</g>
<!-- Node3&#45;&gt;Node1 -->
<g id="edge2" class="edge"><title>Node3&#45;&gt;Node1</title>
<path fill="none" stroke="#404040" d="M123.1,-250.271C119.848,-220.485 117.284,-172.034 128,-132 128.657,-129.547 129.414,-127.09 130.256,-124.641"/>
<polygon fill="none" stroke="#404040" points="130.338,-124.434 128.826,-117.383 134.753,-113.276 136.265,-120.326 130.338,-124.434"/>
<text text-anchor="middle" x="160" y="-157.5" font-family="Helvetica,sans-Serif" font-size="10.00"> +mUnit</text>
<text text-anchor="middle" x="160" y="-146.5" font-family="Helvetica,sans-Serif" font-size="10.00">+mSubTicks</text>
<text text-anchor="middle" x="160" y="-135.5" font-family="Helvetica,sans-Serif" font-size="10.00">+mBCNumber</text>
</g>
<!-- Node4 -->
<g id="node4" class="node"><title>Node4</title>
<polygon fill="none" stroke="#bfbfbf" points="188.5,-250.5 188.5,-307.5 239.5,-307.5 239.5,-250.5 188.5,-250.5"/>
<text text-anchor="middle" x="214" y="-295.5" font-family="Helvetica,sans-Serif" font-size="10.00">uint32_t</text>
<polyline fill="none" stroke="#bfbfbf" points="188.5,-288.5 239.5,-288.5 "/>
<text text-anchor="middle" x="214" y="-276.5" font-family="Helvetica,sans-Serif" font-size="10.00"> </text>
<polyline fill="none" stroke="#bfbfbf" points="188.5,-269.5 239.5,-269.5 "/>
<text text-anchor="middle" x="214" y="-257.5" font-family="Helvetica,sans-Serif" font-size="10.00"> </text>
</g>
<!-- Node4&#45;&gt;Node1 -->
<g id="edge3" class="edge"><title>Node4&#45;&gt;Node1</title>
<path fill="none" stroke="#404040" d="M210.998,-250.342C207.522,-220.821 201.088,-172.782 192,-132 191.486,-129.694 190.939,-127.355 190.365,-124.999"/>
<polygon fill="none" stroke="#404040" points="190.303,-124.759 184.932,-119.947 187.308,-113.139 192.679,-117.95 190.303,-124.759"/>
<text text-anchor="middle" x="220.5" y="-152" font-family="Helvetica,sans-Serif" font-size="10.00"> +mTicks</text>
<text text-anchor="middle" x="220.5" y="-141" font-family="Helvetica,sans-Serif" font-size="10.00">+mPeriod</text>
</g>
<!-- Node5 -->
<g id="node5" class="node"><title>Node5</title>
<g id="a_node5"><a xlink:href="../../d0/da5/structo2_1_1Header_1_1Descriptor.html" target="_top" xlink:title="{o2::Header::Descriptor\l\&lt; N, PrinterPolicy \&gt;\n||+ Descriptor()\l+ Descriptor()\l+ Descriptor()\l+ operator=()\l+ operator ItgType()\l+ Descriptor()\l+ runtimeInit()\l+ operator==()\l+ operator!=()\l+ operator==()\l+ operator!=()\l+ print()\l}">
<polygon fill="none" stroke="black" points="257,-184.5 257,-373.5 373,-373.5 373,-184.5 257,-184.5"/>
<text text-anchor="start" x="265" y="-361.5" font-family="Helvetica,sans-Serif" font-size="10.00">o2::Header::Descriptor</text>
<text text-anchor="middle" x="315" y="-350.5" font-family="Helvetica,sans-Serif" font-size="10.00">&lt; N, PrinterPolicy &gt;</text>
<polyline fill="none" stroke="black" points="257,-343.5 373,-343.5 "/>
<text text-anchor="middle" x="315" y="-331.5" font-family="Helvetica,sans-Serif" font-size="10.00"> </text>
<polyline fill="none" stroke="black" points="257,-324.5 373,-324.5 "/>
<text text-anchor="start" x="265" y="-312.5" font-family="Helvetica,sans-Serif" font-size="10.00">+ Descriptor()</text>
<text text-anchor="start" x="265" y="-301.5" font-family="Helvetica,sans-Serif" font-size="10.00">+ Descriptor()</text>
<text text-anchor="start" x="265" y="-290.5" font-family="Helvetica,sans-Serif" font-size="10.00">+ Descriptor()</text>
<text text-anchor="start" x="265" y="-279.5" font-family="Helvetica,sans-Serif" font-size="10.00">+ operator=()</text>
<text text-anchor="start" x="265" y="-268.5" font-family="Helvetica,sans-Serif" font-size="10.00">+ operator ItgType()</text>
<text text-anchor="start" x="265" y="-257.5" font-family="Helvetica,sans-Serif" font-size="10.00">+ Descriptor()</text>
<text text-anchor="start" x="265" y="-246.5" font-family="Helvetica,sans-Serif" font-size="10.00">+ runtimeInit()</text>
<text text-anchor="start" x="265" y="-235.5" font-family="Helvetica,sans-Serif" font-size="10.00">+ operator==()</text>
<text text-anchor="start" x="265" y="-224.5" font-family="Helvetica,sans-Serif" font-size="10.00">+ operator!=()</text>
<text text-anchor="start" x="265" y="-213.5" font-family="Helvetica,sans-Serif" font-size="10.00">+ operator==()</text>
<text text-anchor="start" x="265" y="-202.5" font-family="Helvetica,sans-Serif" font-size="10.00">+ operator!=()</text>
<text text-anchor="start" x="265" y="-191.5" font-family="Helvetica,sans-Serif" font-size="10.00">+ print()</text>
</a>
</g>
</g>
<!-- Node5&#45;&gt;Node1 -->
<g id="edge4" class="edge"><title>Node5&#45;&gt;Node1</title>
<path fill="none" stroke="#404040" d="M276.909,-184.456C267.879,-166.383 257.486,-148.085 246,-132 243.699,-128.778 241.249,-125.575 238.69,-122.411"/>
<polygon fill="none" stroke="#404040" points="238.506,-122.194 231.571,-120.216 230.73,-113.054 237.665,-115.032 238.506,-122.194"/>
<text text-anchor="middle" x="305" y="-152" font-family="Helvetica,sans-Serif" font-size="10.00"> +sClockLHC</text>
<text text-anchor="middle" x="305" y="-141" font-family="Helvetica,sans-Serif" font-size="10.00">+sMicroSeconds</text>
</g>
<!-- Node6 -->
<g id="node6" class="node"><title>Node6</title>
<polygon fill="none" stroke="#bfbfbf" points="219,-445.5 219,-502.5 257,-502.5 257,-445.5 219,-445.5"/>
<text text-anchor="middle" x="238" y="-490.5" font-family="Helvetica,sans-Serif" font-size="10.00">Type</text>
<polyline fill="none" stroke="#bfbfbf" points="219,-483.5 257,-483.5 "/>
<text text-anchor="middle" x="238" y="-471.5" font-family="Helvetica,sans-Serif" font-size="10.00"> </text>
<polyline fill="none" stroke="#bfbfbf" points="219,-464.5 257,-464.5 "/>
<text text-anchor="middle" x="238" y="-452.5" font-family="Helvetica,sans-Serif" font-size="10.00"> </text>
</g>
<!-- Node6&#45;&gt;Node5 -->
<g id="edge5" class="edge"><title>Node6&#45;&gt;Node5</title>
<path fill="none" stroke="#404040" d="M247.386,-445.475C252.872,-429.729 260.063,-409.656 267,-392 267.922,-389.654 268.861,-387.284 269.816,-384.897"/>
<polygon fill="none" stroke="#404040" points="269.873,-384.755 268.415,-377.692 274.374,-373.63 275.832,-380.693 269.873,-384.755"/>
<text text-anchor="middle" x="277" y="-406.5" font-family="Helvetica,sans-Serif" font-size="10.00"> +itg</text>
</g>
<!-- Node7 -->
<g id="node7" class="node"><title>Node7</title>
<polygon fill="none" stroke="#bfbfbf" points="275.5,-445 275.5,-503 304.5,-503 304.5,-445 275.5,-445"/>
<polyline fill="none" stroke="#bfbfbf" points="275.5,-483 304.5,-483 "/>
<text text-anchor="middle" x="290" y="-471" font-family="Helvetica,sans-Serif" font-size="10.00"> </text>
<polyline fill="none" stroke="#bfbfbf" points="275.5,-464 304.5,-464 "/>
<text text-anchor="middle" x="290" y="-452" font-family="Helvetica,sans-Serif" font-size="10.00"> </text>
</g>
<!-- Node7&#45;&gt;Node5 -->
<g id="edge6" class="edge"><title>Node7&#45;&gt;Node5</title>
<path fill="none" stroke="#404040" d="M289.96,-444.803C290.21,-429.194 290.973,-409.473 293,-392 293.239,-389.936 293.496,-387.854 293.768,-385.757"/>
<polygon fill="none" stroke="#404040" points="293.802,-385.516 290.682,-379.015 295.484,-373.635 298.603,-380.136 293.802,-385.516"/>
<text text-anchor="middle" x="305.5" y="-406.5" font-family="Helvetica,sans-Serif" font-size="10.00"> +@3</text>
</g>
<!-- Node8 -->
<g id="node8" class="node"><title>Node8</title>
<polygon fill="none" stroke="#bfbfbf" points="322.5,-445.5 322.5,-502.5 357.5,-502.5 357.5,-445.5 322.5,-445.5"/>
<text text-anchor="middle" x="340" y="-490.5" font-family="Helvetica,sans-Serif" font-size="10.00">char</text>
<polyline fill="none" stroke="#bfbfbf" points="322.5,-483.5 357.5,-483.5 "/>
<text text-anchor="middle" x="340" y="-471.5" font-family="Helvetica,sans-Serif" font-size="10.00"> </text>
<polyline fill="none" stroke="#bfbfbf" points="322.5,-464.5 357.5,-464.5 "/>
<text text-anchor="middle" x="340" y="-452.5" font-family="Helvetica,sans-Serif" font-size="10.00"> </text>
</g>
<!-- Node8&#45;&gt;Node5 -->
<g id="edge7" class="edge"><title>Node8&#45;&gt;Node5</title>
<path fill="none" stroke="#404040" d="M336.418,-445.348C334.335,-429.268 331.563,-407.866 328.706,-385.809"/>
<polygon fill="none" stroke="#404040" points="328.702,-385.781 323.965,-380.345 327.161,-373.881 331.898,-379.317 328.702,-385.781"/>
<text text-anchor="middle" x="344.5" y="-406.5" font-family="Helvetica,sans-Serif" font-size="10.00"> +str</text>
</g>
<!-- Node9 -->
<g id="node9" class="node"><title>Node9</title>
<polygon fill="none" stroke="#bfbfbf" points="375.5,-445.5 375.5,-502.5 404.5,-502.5 404.5,-445.5 375.5,-445.5"/>
<text text-anchor="middle" x="390" y="-490.5" font-family="Helvetica,sans-Serif" font-size="10.00">int</text>
<polyline fill="none" stroke="#bfbfbf" points="375.5,-483.5 404.5,-483.5 "/>
<text text-anchor="middle" x="390" y="-471.5" font-family="Helvetica,sans-Serif" font-size="10.00"> </text>
<polyline fill="none" stroke="#bfbfbf" points="375.5,-464.5 404.5,-464.5 "/>
<text text-anchor="middle" x="390" y="-452.5" font-family="Helvetica,sans-Serif" font-size="10.00"> </text>
</g>
<!-- Node9&#45;&gt;Node5 -->
<g id="edge8" class="edge"><title>Node9&#45;&gt;Node5</title>
<path fill="none" stroke="#404040" d="M379.443,-445.235C373.476,-429.587 365.859,-409.689 359,-392 358.1,-389.679 357.189,-387.332 356.269,-384.966"/>
<polygon fill="none" stroke="#404040" points="356.268,-384.963 350.363,-380.824 351.913,-373.781 357.817,-377.92 356.268,-384.963"/>
<text text-anchor="middle" x="397.5" y="-417.5" font-family="Helvetica,sans-Serif" font-size="10.00"> +arraySize</text>
<text text-anchor="middle" x="397.5" y="-406.5" font-family="Helvetica,sans-Serif" font-size="10.00">+size</text>
<text text-anchor="middle" x="397.5" y="-395.5" font-family="Helvetica,sans-Serif" font-size="10.00">+bitcount</text>
</g>
</g>
</svg>
        <g id="navigator" transform="translate(0 0)" fill="#404254">
                <rect fill="#f2f5e9" fill-opacity="0.5" stroke="#606060" stroke-width=".5" x="0" y="0" width="60" height="60"/>
                <use id="zoomplus" xlink:href="#zoomPlus" x="17" y="9" onmousedown="handleZoom(evt,'in')"/>
                <use id="zoomminus" xlink:href="#zoomMin" x="42" y="9" onmousedown="handleZoom(evt,'out')"/>
                <use id="reset" xlink:href="#resetDef" x="30" y="36" onmousedown="handleReset()"/>
                <g id="arrowUp" xlink:href="#dirArrow" transform="translate(30 24)" onmousedown="handlePan(0,-1)">
                  <use xlink:href="#rim" fill="#404040">
                        <set attributeName="fill" to="#808080" begin="arrowUp.mouseover" end="arrowUp.mouseout"/>
                  </use>
                  <path fill="none" stroke="white" stroke-width="1.5" d="M0,-3.0v7 M-2.5,-0.5L0,-3.0L2.5,-0.5"/>
                </g>
                <g id="arrowRight" xlink:href="#dirArrow" transform="rotate(90) translate(36 -43)" onmousedown="handlePan(1,0)">
                  <use xlink:href="#rim" fill="#404040">
                        <set attributeName="fill" to="#808080" begin="arrowRight.mouseover" end="arrowRight.mouseout"/>
                  </use>
                  <path fill="none" stroke="white" stroke-width="1.5" d="M0,-3.0v7 M-2.5,-0.5L0,-3.0L2.5,-0.5"/>
                </g>
                <g id="arrowDown" xlink:href="#dirArrow" transform="rotate(180) translate(-30 -48)" onmousedown="handlePan(0,1)">
                  <use xlink:href="#rim" fill="#404040">
                        <set attributeName="fill" to="#808080" begin="arrowDown.mouseover" end="arrowDown.mouseout"/>
                  </use>
                  <path fill="none" stroke="white" stroke-width="1.5" d="M0,-3.0v7 M-2.5,-0.5L0,-3.0L2.5,-0.5"/>
                </g>
                <g id="arrowLeft" xlink:href="#dirArrow" transform="rotate(270) translate(-36 17)" onmousedown="handlePan(-1,0)">
                  <use xlink:href="#rim" fill="#404040">
                        <set attributeName="fill" to="#808080" begin="arrowLeft.mouseover" end="arrowLeft.mouseout"/>
                  </use>
                  <path fill="none" stroke="white" stroke-width="1.5" d="M0,-3.0v7 M-2.5,-0.5L0,-3.0L2.5,-0.5"/>
                </g>
        </g>
        <svg viewBox="0 0 15 15" width="100%" height="30px" preserveAspectRatio="xMaxYMin meet">
         <g id="arrow_out" transform="scale(0.3 0.3)">
          <a xlink:href="classo2_1_1Header_1_1TimeStamp__coll__graph_org.svg" target="_base">
           <rect id="button" ry="5" rx="5" y="6" x="6" height="38" width="38"
                fill="#f2f5e9" fill-opacity="0.5" stroke="#606060" stroke-width="1.0"/>
           <path id="arrow"
             d="M 11.500037,31.436501 C 11.940474,20.09759 22.043105,11.32322 32.158766,21.979434 L 37.068811,17.246167 C 37.068811,17.246167 37.088388,32 37.088388,32 L 22.160133,31.978069 C 22.160133,31.978069 26.997745,27.140456 26.997745,27.140456 C 18.528582,18.264221 13.291696,25.230495 11.500037,31.436501 z"
             style="fill:#404040;"/>
          </a>
         </g>
        </svg>
</svg>
