<?xml version="1.0" encoding="UTF-8" standalone="no"?>
<!DOCTYPE svg PUBLIC "-//W3C//DTD SVG 1.1//EN"
 "http://www.w3.org/Graphics/SVG/1.1/DTD/svg11.dtd">
<!-- Generated by graphviz version 2.36.0 (20140111.2315)
 -->
<!-- Title: o2::TPC::Detector Pages: 1 -->
<!--zoomable 968 -->
<svg id="main" version="1.1" xmlns="http://www.w3.org/2000/svg" xmlns:xlink="http://www.w3.org/1999/xlink" xml:space="preserve" onload="init(evt)">
<style type="text/css"><![CDATA[
.edge:hover path { stroke: red; }
.edge:hover polygon { stroke: red; fill: red; }
]]></style>
<script type="text/javascript"><![CDATA[
var edges = document.getElementsByTagName('g');
if (edges && edges.length) {
  for (var i=0;i<edges.length;i++) {
    if (edges[i].id.substr(0,4)=='edge') {
      edges[i].setAttribute('class','edge');
    }
  }
}
]]></script>
        <defs>
                <circle id="rim" cx="0" cy="0" r="7"/>
                <circle id="rim2" cx="0" cy="0" r="3.5"/>
                <g id="zoomPlus">
                        <use xlink:href="#rim" fill="#404040">
                                <set attributeName="fill" to="#808080" begin="zoomplus.mouseover" end="zoomplus.mouseout"/>
                        </use>
                        <path d="M-4,0h8M0,-4v8" fill="none" stroke="white" stroke-width="1.5" pointer-events="none"/>
                </g>
                <g id="zoomMin">
                        <use xlink:href="#rim" fill="#404040">
                                <set attributeName="fill" to="#808080" begin="zoomminus.mouseover" end="zoomminus.mouseout"/>
                        </use>
                        <path d="M-4,0h8" fill="none" stroke="white" stroke-width="1.5" pointer-events="none"/>
                </g>
                <g id="dirArrow">
                        <path fill="none" stroke="white" stroke-width="1.5" d="M0,-3.0v7 M-2.5,-0.5L0,-3.0L2.5,-0.5"/>
                </g>
               <g id="resetDef">
                       <use xlink:href="#rim2" fill="#404040">
                               <set attributeName="fill" to="#808080" begin="reset.mouseover" end="reset.mouseout"/>
                       </use>
               </g>
        </defs>

<script type="text/javascript">
var viewWidth = 278;
var viewHeight = 968;
var sectionId = 'dynsection-1';
</script>
<script xlink:href="../../svgpan.js"/>
<svg id="graph" class="graph">
<g id="viewport">
<title>o2::TPC::Detector</title>
<!-- Node1 -->
<g id="node1" class="node"><title>Node1</title>
<polygon fill="#bfbfbf" stroke="black" points="63.5,-1 63.5,-289 198.5,-289 198.5,-1 63.5,-1"/>
<text text-anchor="middle" x="131" y="-277" font-family="Helvetica,sans-Serif" font-size="10.00">o2::TPC::Detector</text>
<polyline fill="none" stroke="black" points="63.5,-270 198.5,-270 "/>
<text text-anchor="middle" x="131" y="-258" font-family="Helvetica,sans-Serif" font-size="10.00"> </text>
<polyline fill="none" stroke="black" points="63.5,-251 198.5,-251 "/>
<text text-anchor="start" x="71.5" y="-239" font-family="Helvetica,sans-Serif" font-size="10.00">+ Detector()</text>
<text text-anchor="start" x="71.5" y="-228" font-family="Helvetica,sans-Serif" font-size="10.00">+ Detector()</text>
<text text-anchor="start" x="71.5" y="-217" font-family="Helvetica,sans-Serif" font-size="10.00">+ ~Detector()</text>
<text text-anchor="start" x="71.5" y="-206" font-family="Helvetica,sans-Serif" font-size="10.00">+ Initialize()</text>
<text text-anchor="start" x="71.5" y="-195" font-family="Helvetica,sans-Serif" font-size="10.00">+ ProcessHits()</text>
<text text-anchor="start" x="71.5" y="-184" font-family="Helvetica,sans-Serif" font-size="10.00">+ Register()</text>
<text text-anchor="start" x="71.5" y="-173" font-family="Helvetica,sans-Serif" font-size="10.00">+ getHits()</text>
<text text-anchor="start" x="71.5" y="-162" font-family="Helvetica,sans-Serif" font-size="10.00">+ Reset()</text>
<text text-anchor="start" x="71.5" y="-151" font-family="Helvetica,sans-Serif" font-size="10.00">+ ConstructGeometry()</text>
<text text-anchor="start" x="71.5" y="-140" font-family="Helvetica,sans-Serif" font-size="10.00">+ addHit()</text>
<text text-anchor="start" x="71.5" y="-129" font-family="Helvetica,sans-Serif" font-size="10.00">+ BetheBlochAleph()</text>
<text text-anchor="start" x="71.5" y="-118" font-family="Helvetica,sans-Serif" font-size="10.00">+ Gamma()</text>
<text text-anchor="start" x="71.5" y="-107" font-family="Helvetica,sans-Serif" font-size="10.00">+ SetSpecialPhysicsCuts()</text>
<text text-anchor="start" x="71.5" y="-96" font-family="Helvetica,sans-Serif" font-size="10.00">+ EndOfEvent()</text>
<text text-anchor="start" x="71.5" y="-85" font-family="Helvetica,sans-Serif" font-size="10.00">+ FinishPrimary()</text>
<text text-anchor="start" x="71.5" y="-74" font-family="Helvetica,sans-Serif" font-size="10.00">+ FinishRun()</text>
<text text-anchor="start" x="71.5" y="-63" font-family="Helvetica,sans-Serif" font-size="10.00">+ BeginPrimary()</text>
<text text-anchor="start" x="71.5" y="-52" font-family="Helvetica,sans-Serif" font-size="10.00">+ PostTrack()</text>
<text text-anchor="start" x="71.5" y="-41" font-family="Helvetica,sans-Serif" font-size="10.00">+ PreTrack()</text>
<text text-anchor="start" x="71.5" y="-30" font-family="Helvetica,sans-Serif" font-size="10.00">+ BeginEvent()</text>
<text text-anchor="start" x="71.5" y="-19" font-family="Helvetica,sans-Serif" font-size="10.00">+ SetGeoFileName()</text>
<text text-anchor="start" x="71.5" y="-8" font-family="Helvetica,sans-Serif" font-size="10.00">+ GetGeoFileName()</text>
</g>
<!-- Node2 -->
<g id="node2" class="node"><title>Node2</title>
<g id="a_node2"><a xlink:href="../../d4/d8a/classo2_1_1Base_1_1DetImpl.html" target="_top" xlink:title="{o2::Base::DetImpl\&lt;\l Detector \&gt;\n||+ updateHitTrackIndices()\l}">
<polygon fill="none" stroke="black" points="66,-329 66,-397 196,-397 196,-329 66,-329"/>
<text text-anchor="start" x="74" y="-385" font-family="Helvetica,sans-Serif" font-size="10.00">o2::Base::DetImpl&lt;</text>
<text text-anchor="middle" x="131" y="-374" font-family="Helvetica,sans-Serif" font-size="10.00"> Detector &gt;</text>
<polyline fill="none" stroke="black" points="66,-367 196,-367 "/>
<text text-anchor="middle" x="131" y="-355" font-family="Helvetica,sans-Serif" font-size="10.00"> </text>
<polyline fill="none" stroke="black" points="66,-348 196,-348 "/>
<text text-anchor="start" x="74" y="-336" font-family="Helvetica,sans-Serif" font-size="10.00">+ updateHitTrackIndices()</text>
</a>
</g>
</g>
<!-- Node2&#45;&gt;Node1 -->
<g id="edge1" class="edge"><title>Node2&#45;&gt;Node1</title>
<path fill="none" stroke="midnightblue" d="M131,-318.651C131,-309.68 131,-299.767 131,-289.361"/>
<polygon fill="none" stroke="midnightblue" points="127.5,-318.723 131,-328.723 134.5,-318.723 127.5,-318.723"/>
</g>
<!-- Node3 -->
<g id="node3" class="node"><title>Node3</title>
<g id="a_node3"><a xlink:href="../../d7/d02/classo2_1_1Base_1_1Detector.html" target="_top" xlink:title="{o2::Base::Detector\n||+ Detector()\l+ Detector()\l+ ~Detector()\l+ Material()\l+ Mixture()\l+ Medium()\l+ Matrix()\l+ defineWrapperVolume()\l+ setNumberOfWrapperVolumes()\l+ defineLayer()\l+ defineLayerTurbo()\l+ getMaterialID()\l+ getMediumID()\l+ getMediumIDMappingAsVector()\l+ addNameTo()\l+ updateHitTrackIndices()\l+ GetCollection()\l+ setDensityFactor()\l+ getDensityFactor()\l+ initFieldTrackingParams()\l# Detector()\l# operator=()\l}">
<polygon fill="none" stroke="black" points="28.5,-555 28.5,-843 195.5,-843 195.5,-555 28.5,-555"/>
<text text-anchor="middle" x="112" y="-831" font-family="Helvetica,sans-Serif" font-size="10.00">o2::Base::Detector</text>
<polyline fill="none" stroke="black" points="28.5,-824 195.5,-824 "/>
<text text-anchor="middle" x="112" y="-812" font-family="Helvetica,sans-Serif" font-size="10.00"> </text>
<polyline fill="none" stroke="black" points="28.5,-805 195.5,-805 "/>
<text text-anchor="start" x="36.5" y="-793" font-family="Helvetica,sans-Serif" font-size="10.00">+ Detector()</text>
<text text-anchor="start" x="36.5" y="-782" font-family="Helvetica,sans-Serif" font-size="10.00">+ Detector()</text>
<text text-anchor="start" x="36.5" y="-771" font-family="Helvetica,sans-Serif" font-size="10.00">+ ~Detector()</text>
<text text-anchor="start" x="36.5" y="-760" font-family="Helvetica,sans-Serif" font-size="10.00">+ Material()</text>
<text text-anchor="start" x="36.5" y="-749" font-family="Helvetica,sans-Serif" font-size="10.00">+ Mixture()</text>
<text text-anchor="start" x="36.5" y="-738" font-family="Helvetica,sans-Serif" font-size="10.00">+ Medium()</text>
<text text-anchor="start" x="36.5" y="-727" font-family="Helvetica,sans-Serif" font-size="10.00">+ Matrix()</text>
<text text-anchor="start" x="36.5" y="-716" font-family="Helvetica,sans-Serif" font-size="10.00">+ defineWrapperVolume()</text>
<text text-anchor="start" x="36.5" y="-705" font-family="Helvetica,sans-Serif" font-size="10.00">+ setNumberOfWrapperVolumes()</text>
<text text-anchor="start" x="36.5" y="-694" font-family="Helvetica,sans-Serif" font-size="10.00">+ defineLayer()</text>
<text text-anchor="start" x="36.5" y="-683" font-family="Helvetica,sans-Serif" font-size="10.00">+ defineLayerTurbo()</text>
<text text-anchor="start" x="36.5" y="-672" font-family="Helvetica,sans-Serif" font-size="10.00">+ getMaterialID()</text>
<text text-anchor="start" x="36.5" y="-661" font-family="Helvetica,sans-Serif" font-size="10.00">+ getMediumID()</text>
<text text-anchor="start" x="36.5" y="-650" font-family="Helvetica,sans-Serif" font-size="10.00">+ getMediumIDMappingAsVector()</text>
<text text-anchor="start" x="36.5" y="-639" font-family="Helvetica,sans-Serif" font-size="10.00">+ addNameTo()</text>
<text text-anchor="start" x="36.5" y="-628" font-family="Helvetica,sans-Serif" font-size="10.00">+ updateHitTrackIndices()</text>
<text text-anchor="start" x="36.5" y="-617" font-family="Helvetica,sans-Serif" font-size="10.00">+ GetCollection()</text>
<text text-anchor="start" x="36.5" y="-606" font-family="Helvetica,sans-Serif" font-size="10.00">+ setDensityFactor()</text>
<text text-anchor="start" x="36.5" y="-595" font-family="Helvetica,sans-Serif" font-size="10.00">+ getDensityFactor()</text>
<text text-anchor="start" x="36.5" y="-584" font-family="Helvetica,sans-Serif" font-size="10.00">+ initFieldTrackingParams()</text>
<text text-anchor="start" x="36.5" y="-573" font-family="Helvetica,sans-Serif" font-size="10.00"># Detector()</text>
<text text-anchor="start" x="36.5" y="-562" font-family="Helvetica,sans-Serif" font-size="10.00"># operator=()</text>
</a>
</g>
</g>
<!-- Node3&#45;&gt;Node2 -->
<g id="edge2" class="edge"><title>Node3&#45;&gt;Node2</title>
<path fill="none" stroke="midnightblue" d="M113.376,-544.824C114.474,-512.167 116.232,-477.909 119,-446 120.405,-429.803 122.908,-411.928 125.266,-397.012"/>
<polygon fill="none" stroke="midnightblue" points="109.875,-544.797 113.055,-554.903 116.871,-545.019 109.875,-544.797"/>
</g>
<!-- Node7 -->
<g id="node7" class="node"><title>Node7</title>
<g id="a_node7"><a xlink:href="../../d4/d8a/classo2_1_1Base_1_1DetImpl.html" target="_top" xlink:title="{o2::Base::DetImpl\&lt;\l Det \&gt;\n||+ updateHitTrackIndices()\l}">
<polygon fill="none" stroke="black" points="128,-447 128,-515 258,-515 258,-447 128,-447"/>
<text text-anchor="start" x="136" y="-503" font-family="Helvetica,sans-Serif" font-size="10.00">o2::Base::DetImpl&lt;</text>
<text text-anchor="middle" x="193" y="-492" font-family="Helvetica,sans-Serif" font-size="10.00"> Det &gt;</text>
<polyline fill="none" stroke="black" points="128,-485 258,-485 "/>
<text text-anchor="middle" x="193" y="-473" font-family="Helvetica,sans-Serif" font-size="10.00"> </text>
<polyline fill="none" stroke="black" points="128,-466 258,-466 "/>
<text text-anchor="start" x="136" y="-454" font-family="Helvetica,sans-Serif" font-size="10.00">+ updateHitTrackIndices()</text>
</a>
</g>
</g>
<!-- Node3&#45;&gt;Node7 -->
<g id="edge7" class="edge"><title>Node3&#45;&gt;Node7</title>
<path fill="none" stroke="midnightblue" d="M169.213,-545.433C173.334,-534.443 177.175,-524.201 180.517,-515.289"/>
<polygon fill="none" stroke="midnightblue" points="165.924,-544.234 165.69,-554.827 172.478,-546.692 165.924,-544.234"/>
</g>
<!-- Node4 -->
<g id="node4" class="node"><title>Node4</title>
<g id="a_node4"><a xlink:href="../../d6/d0c/classFairDetector.html" target="_top" xlink:title="{FairDetector\n||}">
<polygon fill="none" stroke="black" points="-0.5,-902.5 -0.5,-959.5 70.5,-959.5 70.5,-902.5 -0.5,-902.5"/>
<text text-anchor="middle" x="35" y="-947.5" font-family="Helvetica,sans-Serif" font-size="10.00">FairDetector</text>
<polyline fill="none" stroke="black" points="-0.5,-940.5 70.5,-940.5 "/>
<text text-anchor="middle" x="35" y="-928.5" font-family="Helvetica,sans-Serif" font-size="10.00"> </text>
<polyline fill="none" stroke="black" points="-0.5,-921.5 70.5,-921.5 "/>
<text text-anchor="middle" x="35" y="-909.5" font-family="Helvetica,sans-Serif" font-size="10.00"> </text>
</a>
</g>
</g>
<!-- Node4&#45;&gt;Node3 -->
<g id="edge3" class="edge"><title>Node4&#45;&gt;Node3</title>
<path fill="none" stroke="midnightblue" d="M47.5626,-892.475C52.3114,-878.291 58.0444,-861.166 64.1085,-843.053"/>
<polygon fill="none" stroke="midnightblue" points="44.1438,-891.663 44.288,-902.257 50.7817,-893.885 44.1438,-891.663"/>
</g>
<!-- Node5 -->
<g id="node5" class="node"><title>Node5</title>
<g id="a_node5"><a xlink:href="../../d9/d7d/classFloat__t.html" target="_top" xlink:title="{Float_t\n||}">
<polygon fill="none" stroke="black" points="88.5,-902.5 88.5,-959.5 135.5,-959.5 135.5,-902.5 88.5,-902.5"/>
<text text-anchor="middle" x="112" y="-947.5" font-family="Helvetica,sans-Serif" font-size="10.00">Float_t</text>
<polyline fill="none" stroke="black" points="88.5,-940.5 135.5,-940.5 "/>
<text text-anchor="middle" x="112" y="-928.5" font-family="Helvetica,sans-Serif" font-size="10.00"> </text>
<polyline fill="none" stroke="black" points="88.5,-921.5 135.5,-921.5 "/>
<text text-anchor="middle" x="112" y="-909.5" font-family="Helvetica,sans-Serif" font-size="10.00"> </text>
</a>
</g>
</g>
<!-- Node5&#45;&gt;Node3 -->
<g id="edge4" class="edge"><title>Node5&#45;&gt;Node3</title>
<path fill="none" stroke="#404040" d="M112,-902.257C112,-889.43 112,-873.089 112,-855.273"/>
<polygon fill="none" stroke="#404040" points="112,-855.053 108,-849.053 112,-843.053 116,-849.053 112,-855.053"/>
<text text-anchor="middle" x="151.5" y="-870.5" font-family="Helvetica,sans-Serif" font-size="10.00"> #mDensityFactor</text>
</g>
<!-- Node6 -->
<g id="node6" class="node"><title>Node6</title>
<polygon fill="none" stroke="#bfbfbf" points="174,-902.5 174,-959.5 254,-959.5 254,-902.5 174,-902.5"/>
<text text-anchor="middle" x="214" y="-947.5" font-family="Helvetica,sans-Serif" font-size="10.00">map&lt; int, int &gt;</text>
<polyline fill="none" stroke="#bfbfbf" points="174,-940.5 254,-940.5 "/>
<text text-anchor="middle" x="214" y="-928.5" font-family="Helvetica,sans-Serif" font-size="10.00"> </text>
<polyline fill="none" stroke="#bfbfbf" points="174,-921.5 254,-921.5 "/>
<text text-anchor="middle" x="214" y="-909.5" font-family="Helvetica,sans-Serif" font-size="10.00"> </text>
</g>
<!-- Node6&#45;&gt;Node3 -->
<g id="edge5" class="edge"><title>Node6&#45;&gt;Node3</title>
<path fill="none" stroke="#404040" d="M206.014,-902.211C202.181,-889.762 197.276,-874.991 192,-862 190.969,-859.462 189.915,-856.908 188.842,-854.343"/>
<polygon fill="none" stroke="#404040" points="188.726,-854.072 182.691,-850.124 184.014,-843.035 190.049,-846.983 188.726,-854.072"/>
<text text-anchor="middle" x="235" y="-876" font-family="Helvetica,sans-Serif" font-size="10.00"> #mMapMaterial</text>
<text text-anchor="middle" x="235" y="-865" font-family="Helvetica,sans-Serif" font-size="10.00">#mMapMedium</text>
</g>
<!-- Node7&#45;&gt;Node2 -->
<g id="edge6" class="edge"><title>Node7&#45;&gt;Node2</title>
<path fill="none" stroke="orange" d="M170.42,-437.753C163.289,-424.411 155.515,-409.866 148.769,-397.246"/>
<polygon fill="orange" stroke="orange" points="167.433,-439.59 175.233,-446.759 173.606,-436.29 167.433,-439.59"/>
<text text-anchor="middle" x="193.5" y="-419.5" font-family="Helvetica,sans-Serif" font-size="10.00"> &lt; Detector &gt;</text>
</g>
</g>
</svg>
        <g id="navigator" transform="translate(0 0)" fill="#404254">
                <rect fill="#f2f5e9" fill-opacity="0.5" stroke="#606060" stroke-width=".5" x="0" y="0" width="60" height="60"/>
                <use id="zoomplus" xlink:href="#zoomPlus" x="17" y="9" onmousedown="handleZoom(evt,'in')"/>
                <use id="zoomminus" xlink:href="#zoomMin" x="42" y="9" onmousedown="handleZoom(evt,'out')"/>
                <use id="reset" xlink:href="#resetDef" x="30" y="36" onmousedown="handleReset()"/>
                <g id="arrowUp" xlink:href="#dirArrow" transform="translate(30 24)" onmousedown="handlePan(0,-1)">
                  <use xlink:href="#rim" fill="#404040">
                        <set attributeName="fill" to="#808080" begin="arrowUp.mouseover" end="arrowUp.mouseout"/>
                  </use>
                  <path fill="none" stroke="white" stroke-width="1.5" d="M0,-3.0v7 M-2.5,-0.5L0,-3.0L2.5,-0.5"/>
                </g>
                <g id="arrowRight" xlink:href="#dirArrow" transform="rotate(90) translate(36 -43)" onmousedown="handlePan(1,0)">
                  <use xlink:href="#rim" fill="#404040">
                        <set attributeName="fill" to="#808080" begin="arrowRight.mouseover" end="arrowRight.mouseout"/>
                  </use>
                  <path fill="none" stroke="white" stroke-width="1.5" d="M0,-3.0v7 M-2.5,-0.5L0,-3.0L2.5,-0.5"/>
                </g>
                <g id="arrowDown" xlink:href="#dirArrow" transform="rotate(180) translate(-30 -48)" onmousedown="handlePan(0,1)">
                  <use xlink:href="#rim" fill="#404040">
                        <set attributeName="fill" to="#808080" begin="arrowDown.mouseover" end="arrowDown.mouseout"/>
                  </use>
                  <path fill="none" stroke="white" stroke-width="1.5" d="M0,-3.0v7 M-2.5,-0.5L0,-3.0L2.5,-0.5"/>
                </g>
                <g id="arrowLeft" xlink:href="#dirArrow" transform="rotate(270) translate(-36 17)" onmousedown="handlePan(-1,0)">
                  <use xlink:href="#rim" fill="#404040">
                        <set attributeName="fill" to="#808080" begin="arrowLeft.mouseover" end="arrowLeft.mouseout"/>
                  </use>
                  <path fill="none" stroke="white" stroke-width="1.5" d="M0,-3.0v7 M-2.5,-0.5L0,-3.0L2.5,-0.5"/>
                </g>
        </g>
        <svg viewBox="0 0 15 15" width="100%" height="30px" preserveAspectRatio="xMaxYMin meet">
         <g id="arrow_out" transform="scale(0.3 0.3)">
          <a xlink:href="classo2_1_1TPC_1_1Detector__coll__graph_org.svg" target="_base">
           <rect id="button" ry="5" rx="5" y="6" x="6" height="38" width="38"
                fill="#f2f5e9" fill-opacity="0.5" stroke="#606060" stroke-width="1.0"/>
           <path id="arrow"
             d="M 11.500037,31.436501 C 11.940474,20.09759 22.043105,11.32322 32.158766,21.979434 L 37.068811,17.246167 C 37.068811,17.246167 37.088388,32 37.088388,32 L 22.160133,31.978069 C 22.160133,31.978069 26.997745,27.140456 26.997745,27.140456 C 18.528582,18.264221 13.291696,25.230495 11.500037,31.436501 z"
             style="fill:#404040;"/>
          </a>
         </g>
        </svg>
</svg>
