<?xml version="1.0" encoding="UTF-8" standalone="no"?>
<!DOCTYPE svg PUBLIC "-//W3C//DTD SVG 1.1//EN"
 "http://www.w3.org/Graphics/SVG/1.1/DTD/svg11.dtd">
<!-- Generated by graphviz version 2.36.0 (20140111.2315)
 -->
<!-- Title: /home/travis/build/AliceO2Group/AliceO2/Detectors/Base/src/GeometryManager.cxx Pages: 1 -->
<!--zoomable 310 -->
<svg id="main" version="1.1" xmlns="http://www.w3.org/2000/svg" xmlns:xlink="http://www.w3.org/1999/xlink" xml:space="preserve" onload="init(evt)">
<style type="text/css"><![CDATA[
.edge:hover path { stroke: red; }
.edge:hover polygon { stroke: red; fill: red; }
]]></style>
<script type="text/javascript"><![CDATA[
var edges = document.getElementsByTagName('g');
if (edges && edges.length) {
  for (var i=0;i<edges.length;i++) {
    if (edges[i].id.substr(0,4)=='edge') {
      edges[i].setAttribute('class','edge');
    }
  }
}
]]></script>
        <defs>
                <circle id="rim" cx="0" cy="0" r="7"/>
                <circle id="rim2" cx="0" cy="0" r="3.5"/>
                <g id="zoomPlus">
                        <use xlink:href="#rim" fill="#404040">
                                <set attributeName="fill" to="#808080" begin="zoomplus.mouseover" end="zoomplus.mouseout"/>
                        </use>
                        <path d="M-4,0h8M0,-4v8" fill="none" stroke="white" stroke-width="1.5" pointer-events="none"/>
                </g>
                <g id="zoomMin">
                        <use xlink:href="#rim" fill="#404040">
                                <set attributeName="fill" to="#808080" begin="zoomminus.mouseover" end="zoomminus.mouseout"/>
                        </use>
                        <path d="M-4,0h8" fill="none" stroke="white" stroke-width="1.5" pointer-events="none"/>
                </g>
                <g id="dirArrow">
                        <path fill="none" stroke="white" stroke-width="1.5" d="M0,-3.0v7 M-2.5,-0.5L0,-3.0L2.5,-0.5"/>
                </g>
               <g id="resetDef">
                       <use xlink:href="#rim2" fill="#404040">
                               <set attributeName="fill" to="#808080" begin="reset.mouseover" end="reset.mouseout"/>
                       </use>
               </g>
        </defs>

<script type="text/javascript">
var viewWidth = 1945;
var viewHeight = 310;
var sectionId = 'dynsection-0';
</script>
<script xlink:href="../../svgpan.js"/>
<svg id="graph" class="graph">
<g id="viewport">
<title>/home/travis/build/AliceO2Group/AliceO2/Detectors/Base/src/GeometryManager.cxx</title>
<!-- Node1 -->
<g id="node1" class="node"><title>Node1</title>
<polygon fill="#bfbfbf" stroke="black" points="1515,-249 1515,-301 1665,-301 1665,-249 1515,-249"/>
<text text-anchor="start" x="1523" y="-289" font-family="Helvetica,sans-Serif" font-size="10.00">/home/travis/build</text>
<text text-anchor="start" x="1523" y="-278" font-family="Helvetica,sans-Serif" font-size="10.00">/AliceO2Group/AliceO2</text>
<text text-anchor="start" x="1523" y="-267" font-family="Helvetica,sans-Serif" font-size="10.00">/Detectors/Base/src/Geometry</text>
<text text-anchor="middle" x="1590" y="-256" font-family="Helvetica,sans-Serif" font-size="10.00">Manager.cxx</text>
</g>
<!-- Node2 -->
<g id="node2" class="node"><title>Node2</title>
<g id="a_node2"><a xlink:href="../../db/dcc/Detectors_2Base_2include_2DetectorsBase_2GeometryManager_8h.html" target="_top" xlink:title="DetectorsBase/GeometryManager.h">
<polygon fill="none" stroke="black" points="1068.5,-192.5 1068.5,-211.5 1241.5,-211.5 1241.5,-192.5 1068.5,-192.5"/>
<text text-anchor="middle" x="1155" y="-199.5" font-family="Helvetica,sans-Serif" font-size="10.00">DetectorsBase/GeometryManager.h</text>
</a>
</g>
</g>
<!-- Node1&#45;&gt;Node2 -->
<g id="edge1" class="edge"><title>Node1&#45;&gt;Node2</title>
<path fill="none" stroke="midnightblue" d="M1514.73,-261.714C1430.6,-247.982 1295.91,-226 1217.41,-213.187"/>
<polygon fill="midnightblue" stroke="midnightblue" points="1217.62,-209.674 1207.19,-211.518 1216.49,-216.583 1217.62,-209.674"/>
</g>
<!-- Node5 -->
<g id="node5" class="node"><title>Node5</title>
<polygon fill="none" stroke="#bfbfbf" points="599,-136.5 599,-155.5 709,-155.5 709,-136.5 599,-136.5"/>
<text text-anchor="middle" x="654" y="-143.5" font-family="Helvetica,sans-Serif" font-size="10.00">TGeoPhysicalNode.h</text>
</g>
<!-- Node1&#45;&gt;Node5 -->
<g id="edge34" class="edge"><title>Node1&#45;&gt;Node5</title>
<path fill="none" stroke="midnightblue" d="M1514.69,-266.235C1411.65,-255.377 1221.04,-234.452 1059,-212 935.63,-194.906 791.796,-170.83 713.043,-157.291"/>
<polygon fill="midnightblue" stroke="midnightblue" points="713.286,-153.781 702.837,-155.532 712.098,-160.68 713.286,-153.781"/>
</g>
<!-- Node8 -->
<g id="node8" class="node"><title>Node8</title>
<polygon fill="none" stroke="#bfbfbf" points="1507.5,-136.5 1507.5,-155.5 1566.5,-155.5 1566.5,-136.5 1507.5,-136.5"/>
<text text-anchor="middle" x="1537" y="-143.5" font-family="Helvetica,sans-Serif" font-size="10.00">TObject.h</text>
</g>
<!-- Node1&#45;&gt;Node8 -->
<g id="edge36" class="edge"><title>Node1&#45;&gt;Node8</title>
<path fill="none" stroke="midnightblue" d="M1579.53,-248.909C1569.21,-224.184 1553.7,-187.015 1544.54,-165.061"/>
<polygon fill="midnightblue" stroke="midnightblue" points="1547.68,-163.508 1540.6,-155.628 1541.22,-166.204 1547.68,-163.508"/>
</g>
<!-- Node17 -->
<g id="node17" class="node"><title>Node17</title>
<polygon fill="none" stroke="#bfbfbf" points="1581.5,-74.5 1581.5,-93.5 1630.5,-93.5 1630.5,-74.5 1581.5,-74.5"/>
<text text-anchor="middle" x="1606" y="-81.5" font-family="Helvetica,sans-Serif" font-size="10.00">cassert</text>
</g>
<!-- Node1&#45;&gt;Node17 -->
<g id="edge37" class="edge"><title>Node1&#45;&gt;Node17</title>
<path fill="none" stroke="midnightblue" d="M1592.12,-248.902C1595.38,-210.471 1601.52,-137.908 1604.42,-103.718"/>
<polygon fill="midnightblue" stroke="midnightblue" points="1607.91,-103.958 1605.26,-93.6987 1600.93,-103.368 1607.91,-103.958"/>
</g>
<!-- Node23 -->
<g id="node23" class="node"><title>Node23</title>
<polygon fill="none" stroke="#bfbfbf" points="1099,-74.5 1099,-93.5 1175,-93.5 1175,-74.5 1099,-74.5"/>
<text text-anchor="middle" x="1137" y="-81.5" font-family="Helvetica,sans-Serif" font-size="10.00">TGeoMatrix.h</text>
</g>
<!-- Node1&#45;&gt;Node23 -->
<g id="edge32" class="edge"><title>Node1&#45;&gt;Node23</title>
<path fill="none" stroke="midnightblue" d="M1541.31,-248.91C1464.24,-209.193 1322.71,-136.272 1322,-136 1262.8,-113.354 1244.88,-117.642 1184,-100 1180.22,-98.9049 1176.28,-97.7198 1172.37,-96.5122"/>
<polygon fill="midnightblue" stroke="midnightblue" points="1173.37,-93.1583 1162.78,-93.5029 1171.27,-99.837 1173.37,-93.1583"/>
</g>
<!-- Node30 -->
<g id="node30" class="node"><title>Node30</title>
<polygon fill="none" stroke="#bfbfbf" points="1618,-192.5 1618,-211.5 1692,-211.5 1692,-192.5 1618,-192.5"/>
<text text-anchor="middle" x="1655" y="-199.5" font-family="Helvetica,sans-Serif" font-size="10.00">TCollection.h</text>
</g>
<!-- Node1&#45;&gt;Node30 -->
<g id="edge31" class="edge"><title>Node1&#45;&gt;Node30</title>
<path fill="none" stroke="midnightblue" d="M1613.1,-248.768C1622.06,-238.982 1632.06,-228.056 1640.05,-219.335"/>
<polygon fill="midnightblue" stroke="midnightblue" points="1642.81,-221.496 1646.98,-211.757 1637.65,-216.77 1642.81,-221.496"/>
</g>
<!-- Node31 -->
<g id="node31" class="node"><title>Node31</title>
<polygon fill="none" stroke="#bfbfbf" points="1710,-192.5 1710,-211.5 1782,-211.5 1782,-192.5 1710,-192.5"/>
<text text-anchor="middle" x="1746" y="-199.5" font-family="Helvetica,sans-Serif" font-size="10.00">TGeoNode.h</text>
</g>
<!-- Node1&#45;&gt;Node31 -->
<g id="edge33" class="edge"><title>Node1&#45;&gt;Node31</title>
<path fill="none" stroke="midnightblue" d="M1645,-248.968C1669.58,-237.783 1697.5,-225.075 1717.74,-215.86"/>
<polygon fill="midnightblue" stroke="midnightblue" points="1719.37,-218.967 1727.02,-211.639 1716.47,-212.596 1719.37,-218.967"/>
</g>
<!-- Node32 -->
<g id="node32" class="node"><title>Node32</title>
<polygon fill="none" stroke="#bfbfbf" points="1800.5,-192.5 1800.5,-211.5 1869.5,-211.5 1869.5,-192.5 1800.5,-192.5"/>
<text text-anchor="middle" x="1835" y="-199.5" font-family="Helvetica,sans-Serif" font-size="10.00">TObjArray.h</text>
</g>
<!-- Node1&#45;&gt;Node32 -->
<g id="edge35" class="edge"><title>Node1&#45;&gt;Node32</title>
<path fill="none" stroke="midnightblue" d="M1665.17,-252.215C1708.32,-239.712 1760.72,-224.527 1795.8,-214.36"/>
<polygon fill="midnightblue" stroke="midnightblue" points="1797.03,-217.649 1805.66,-211.504 1795.08,-210.926 1797.03,-217.649"/>
</g>
<!-- Node33 -->
<g id="node33" class="node"><title>Node33</title>
<polygon fill="none" stroke="#bfbfbf" points="1887.5,-192.5 1887.5,-211.5 1936.5,-211.5 1936.5,-192.5 1887.5,-192.5"/>
<text text-anchor="middle" x="1912" y="-199.5" font-family="Helvetica,sans-Serif" font-size="10.00">cstddef</text>
</g>
<!-- Node1&#45;&gt;Node33 -->
<g id="edge38" class="edge"><title>Node1&#45;&gt;Node33</title>
<path fill="none" stroke="midnightblue" d="M1665.11,-258.833C1720.96,-247.322 1799.27,-230.699 1877.16,-212.116"/>
<polygon fill="midnightblue" stroke="midnightblue" points="1878.24,-215.456 1887.15,-209.721 1876.61,-208.649 1878.24,-215.456"/>
</g>
<!-- Node3 -->
<g id="node3" class="node"><title>Node3</title>
<polygon fill="none" stroke="#bfbfbf" points="960,-136.5 960,-155.5 1046,-155.5 1046,-136.5 960,-136.5"/>
<text text-anchor="middle" x="1003" y="-143.5" font-family="Helvetica,sans-Serif" font-size="10.00">TGeoManager.h</text>
</g>
<!-- Node2&#45;&gt;Node3 -->
<g id="edge2" class="edge"><title>Node2&#45;&gt;Node3</title>
<path fill="none" stroke="midnightblue" d="M1130.92,-192.444C1105.46,-183.399 1065.11,-169.064 1036.54,-158.916"/>
<polygon fill="midnightblue" stroke="midnightblue" points="1037.57,-155.566 1026.97,-155.516 1035.22,-162.162 1037.57,-155.566"/>
</g>
<!-- Node4 -->
<g id="node4" class="node"><title>Node4</title>
<polygon fill="none" stroke="#bfbfbf" points="1064.5,-136.5 1064.5,-155.5 1147.5,-155.5 1147.5,-136.5 1064.5,-136.5"/>
<text text-anchor="middle" x="1106" y="-143.5" font-family="Helvetica,sans-Serif" font-size="10.00">TGeoMaterial.h</text>
</g>
<!-- Node2&#45;&gt;Node4 -->
<g id="edge3" class="edge"><title>Node2&#45;&gt;Node4</title>
<path fill="none" stroke="midnightblue" d="M1146.91,-192.083C1139.84,-184.298 1129.41,-172.801 1120.85,-163.367"/>
<polygon fill="midnightblue" stroke="midnightblue" points="1123.25,-160.805 1113.94,-155.751 1118.07,-165.509 1123.25,-160.805"/>
</g>
<!-- Node2&#45;&gt;Node5 -->
<g id="edge4" class="edge"><title>Node2&#45;&gt;Node5</title>
<path fill="none" stroke="midnightblue" d="M1068.25,-193.023C982.235,-184.895 846.435,-171.475 719.077,-156.093"/>
<polygon fill="midnightblue" stroke="midnightblue" points="719.49,-152.617 709.141,-154.887 718.646,-159.566 719.49,-152.617"/>
</g>
<!-- Node6 -->
<g id="node6" class="node"><title>Node6</title>
<polygon fill="none" stroke="#bfbfbf" points="1165.5,-136.5 1165.5,-155.5 1242.5,-155.5 1242.5,-136.5 1165.5,-136.5"/>
<text text-anchor="middle" x="1204" y="-143.5" font-family="Helvetica,sans-Serif" font-size="10.00">TGeoShape.h</text>
</g>
<!-- Node2&#45;&gt;Node6 -->
<g id="edge5" class="edge"><title>Node2&#45;&gt;Node6</title>
<path fill="none" stroke="midnightblue" d="M1163.09,-192.083C1170.16,-184.298 1180.59,-172.801 1189.15,-163.367"/>
<polygon fill="midnightblue" stroke="midnightblue" points="1191.93,-165.509 1196.06,-155.751 1186.75,-160.805 1191.93,-165.509"/>
</g>
<!-- Node7 -->
<g id="node7" class="node"><title>Node7</title>
<polygon fill="none" stroke="#bfbfbf" points="1260.5,-136.5 1260.5,-155.5 1313.5,-155.5 1313.5,-136.5 1260.5,-136.5"/>
<text text-anchor="middle" x="1287" y="-143.5" font-family="Helvetica,sans-Serif" font-size="10.00">TMath.h</text>
</g>
<!-- Node2&#45;&gt;Node7 -->
<g id="edge6" class="edge"><title>Node2&#45;&gt;Node7</title>
<path fill="none" stroke="midnightblue" d="M1175.92,-192.444C1197.74,-183.517 1232.15,-169.439 1256.89,-159.317"/>
<polygon fill="midnightblue" stroke="midnightblue" points="1258.25,-162.542 1266.18,-155.516 1255.6,-156.063 1258.25,-162.542"/>
</g>
<!-- Node2&#45;&gt;Node8 -->
<g id="edge7" class="edge"><title>Node2&#45;&gt;Node8</title>
<path fill="none" stroke="midnightblue" d="M1237.12,-192.477C1304.44,-184.971 1402.38,-172.869 1497.2,-155.986"/>
<polygon fill="midnightblue" stroke="midnightblue" points="1498.03,-159.393 1507.25,-154.176 1496.79,-152.504 1498.03,-159.393"/>
</g>
<!-- Node9 -->
<g id="node9" class="node"><title>Node9</title>
<g id="a_node9"><a xlink:href="../../d6/d31/DetID_8h.html" target="_top" xlink:title="DetectorsBase/DetID.h">
<polygon fill="none" stroke="black" points="1370.5,-136.5 1370.5,-155.5 1489.5,-155.5 1489.5,-136.5 1370.5,-136.5"/>
<text text-anchor="middle" x="1430" y="-143.5" font-family="Helvetica,sans-Serif" font-size="10.00">DetectorsBase/DetID.h</text>
</a>
</g>
</g>
<!-- Node2&#45;&gt;Node9 -->
<g id="edge8" class="edge"><title>Node2&#45;&gt;Node9</title>
<path fill="none" stroke="midnightblue" d="M1198.57,-192.444C1246.85,-182.964 1324.71,-167.675 1376.61,-157.483"/>
<polygon fill="midnightblue" stroke="midnightblue" points="1377.49,-160.878 1386.63,-155.516 1376.14,-154.009 1377.49,-160.878"/>
</g>
<!-- Node18 -->
<g id="node18" class="node"><title>Node18</title>
<polygon fill="none" stroke="#bfbfbf" points="870.5,-136.5 870.5,-155.5 941.5,-155.5 941.5,-136.5 870.5,-136.5"/>
<text text-anchor="middle" x="906" y="-143.5" font-family="Helvetica,sans-Serif" font-size="10.00">FairLogger.h</text>
</g>
<!-- Node2&#45;&gt;Node18 -->
<g id="edge18" class="edge"><title>Node2&#45;&gt;Node18</title>
<path fill="none" stroke="midnightblue" d="M1115.55,-192.444C1070.96,-182.774 998.495,-167.059 951.542,-156.877"/>
<polygon fill="midnightblue" stroke="midnightblue" points="952.154,-153.428 941.639,-154.729 950.67,-160.269 952.154,-153.428"/>
</g>
<!-- Node19 -->
<g id="node19" class="node"><title>Node19</title>
<g id="a_node19"><a xlink:href="../../dd/d76/Cartesian3D_8h.html" target="_top" xlink:title="MathUtils/Cartesian3D.h">
<polygon fill="none" stroke="black" points="727.5,-136.5 727.5,-155.5 852.5,-155.5 852.5,-136.5 727.5,-136.5"/>
<text text-anchor="middle" x="790" y="-143.5" font-family="Helvetica,sans-Serif" font-size="10.00">MathUtils/Cartesian3D.h</text>
</a>
</g>
</g>
<!-- Node2&#45;&gt;Node19 -->
<g id="edge19" class="edge"><title>Node2&#45;&gt;Node19</title>
<path fill="none" stroke="midnightblue" d="M1097.16,-192.444C1032.16,-182.826 926.723,-167.228 857.869,-157.041"/>
<polygon fill="midnightblue" stroke="midnightblue" points="857.969,-153.518 847.565,-155.516 856.945,-160.442 857.969,-153.518"/>
</g>
<!-- Node10 -->
<g id="node10" class="node"><title>Node10</title>
<polygon fill="none" stroke="#bfbfbf" points="1479,-74.5 1479,-93.5 1525,-93.5 1525,-74.5 1479,-74.5"/>
<text text-anchor="middle" x="1502" y="-81.5" font-family="Helvetica,sans-Serif" font-size="10.00">cstdint</text>
</g>
<!-- Node9&#45;&gt;Node10 -->
<g id="edge9" class="edge"><title>Node9&#45;&gt;Node10</title>
<path fill="none" stroke="midnightblue" d="M1440.32,-136.403C1451.65,-126.958 1470.07,-111.606 1483.84,-100.134"/>
<polygon fill="midnightblue" stroke="midnightblue" points="1486.26,-102.671 1491.7,-93.5806 1481.78,-97.2937 1486.26,-102.671"/>
</g>
<!-- Node11 -->
<g id="node11" class="node"><title>Node11</title>
<polygon fill="none" stroke="#bfbfbf" points="1503,-6.5 1503,-25.5 1541,-25.5 1541,-6.5 1503,-6.5"/>
<text text-anchor="middle" x="1522" y="-13.5" font-family="Helvetica,sans-Serif" font-size="10.00">array</text>
</g>
<!-- Node9&#45;&gt;Node11 -->
<g id="edge10" class="edge"><title>Node9&#45;&gt;Node11</title>
<path fill="none" stroke="midnightblue" d="M1478.05,-136.458C1498.94,-130.101 1521.47,-119.074 1534,-100 1546.83,-80.469 1538.86,-52.8032 1531.12,-34.88"/>
<polygon fill="midnightblue" stroke="midnightblue" points="1534.17,-33.1492 1526.75,-25.588 1527.84,-36.127 1534.17,-33.1492"/>
</g>
<!-- Node12 -->
<g id="node12" class="node"><title>Node12</title>
<polygon fill="none" stroke="#bfbfbf" points="1399,-74.5 1399,-93.5 1461,-93.5 1461,-74.5 1399,-74.5"/>
<text text-anchor="middle" x="1430" y="-81.5" font-family="Helvetica,sans-Serif" font-size="10.00">type_traits</text>
</g>
<!-- Node9&#45;&gt;Node12 -->
<g id="edge11" class="edge"><title>Node9&#45;&gt;Node12</title>
<path fill="none" stroke="midnightblue" d="M1430,-136.403C1430,-127.938 1430,-114.728 1430,-103.82"/>
<polygon fill="midnightblue" stroke="midnightblue" points="1433.5,-103.581 1430,-93.5806 1426.5,-103.581 1433.5,-103.581"/>
</g>
<!-- Node13 -->
<g id="node13" class="node"><title>Node13</title>
<polygon fill="none" stroke="#bfbfbf" points="1193,-74.5 1193,-93.5 1249,-93.5 1249,-74.5 1193,-74.5"/>
<text text-anchor="middle" x="1221" y="-81.5" font-family="Helvetica,sans-Serif" font-size="10.00">Rtypes.h</text>
</g>
<!-- Node9&#45;&gt;Node13 -->
<g id="edge12" class="edge"><title>Node9&#45;&gt;Node13</title>
<path fill="none" stroke="midnightblue" d="M1391.67,-136.473C1356.54,-128.305 1303.26,-115.025 1258,-100 1255.44,-99.149 1252.8,-98.2095 1250.16,-97.2282"/>
<polygon fill="midnightblue" stroke="midnightblue" points="1251.38,-93.9476 1240.79,-93.5743 1248.84,-100.469 1251.38,-93.9476"/>
</g>
<!-- Node14 -->
<g id="node14" class="node"><title>Node14</title>
<g id="a_node14"><a xlink:href="../../d9/ded/Utils_8h.html" target="_top" xlink:title="DetectorsBase/Utils.h">
<polygon fill="none" stroke="black" points="1267.5,-74.5 1267.5,-93.5 1380.5,-93.5 1380.5,-74.5 1267.5,-74.5"/>
<text text-anchor="middle" x="1324" y="-81.5" font-family="Helvetica,sans-Serif" font-size="10.00">DetectorsBase/Utils.h</text>
</a>
</g>
</g>
<!-- Node9&#45;&gt;Node14 -->
<g id="edge13" class="edge"><title>Node9&#45;&gt;Node14</title>
<path fill="none" stroke="midnightblue" d="M1414.81,-136.403C1397.34,-126.512 1368.42,-110.144 1347.92,-98.5378"/>
<polygon fill="midnightblue" stroke="midnightblue" points="1349.59,-95.4607 1339.16,-93.5806 1346.14,-101.553 1349.59,-95.4607"/>
</g>
<!-- Node9&#45;&gt;Node17 -->
<g id="edge17" class="edge"><title>Node9&#45;&gt;Node17</title>
<path fill="none" stroke="midnightblue" d="M1457.43,-136.433C1485.19,-127.661 1529.27,-113.444 1567,-100 1569.54,-99.0953 1572.16,-98.1373 1574.79,-97.1604"/>
<polygon fill="midnightblue" stroke="midnightblue" points="1576.09,-100.412 1584.21,-93.6019 1573.62,-93.8639 1576.09,-100.412"/>
</g>
<!-- Node14&#45;&gt;Node11 -->
<g id="edge16" class="edge"><title>Node14&#45;&gt;Node11</title>
<path fill="none" stroke="midnightblue" d="M1349.89,-74.3717C1386.93,-62.0227 1454.84,-39.386 1493.36,-26.5481"/>
<polygon fill="midnightblue" stroke="midnightblue" points="1494.55,-29.8382 1502.93,-23.3555 1492.34,-23.1975 1494.55,-29.8382"/>
</g>
<!-- Node15 -->
<g id="node15" class="node"><title>Node15</title>
<g id="a_node15"><a xlink:href="../../d1/daa/Base_2include_2DetectorsBase_2Constants_8h.html" target="_top" xlink:title="DetectorsBase/Constants.h">
<polygon fill="none" stroke="black" points="1286,-6.5 1286,-25.5 1424,-25.5 1424,-6.5 1286,-6.5"/>
<text text-anchor="middle" x="1355" y="-13.5" font-family="Helvetica,sans-Serif" font-size="10.00">DetectorsBase/Constants.h</text>
</a>
</g>
</g>
<!-- Node14&#45;&gt;Node15 -->
<g id="edge14" class="edge"><title>Node14&#45;&gt;Node15</title>
<path fill="none" stroke="midnightblue" d="M1328.05,-74.3717C1332.71,-64.4461 1340.5,-47.8743 1346.5,-35.0864"/>
<polygon fill="midnightblue" stroke="midnightblue" points="1349.76,-36.3804 1350.85,-25.8411 1343.43,-33.4044 1349.76,-36.3804"/>
</g>
<!-- Node16 -->
<g id="node16" class="node"><title>Node16</title>
<polygon fill="none" stroke="#bfbfbf" points="1224,-6.5 1224,-25.5 1268,-25.5 1268,-6.5 1224,-6.5"/>
<text text-anchor="middle" x="1246" y="-13.5" font-family="Helvetica,sans-Serif" font-size="10.00">cmath</text>
</g>
<!-- Node14&#45;&gt;Node16 -->
<g id="edge15" class="edge"><title>Node14&#45;&gt;Node16</title>
<path fill="none" stroke="midnightblue" d="M1313.8,-74.3717C1301.26,-63.7581 1279.74,-45.5453 1264.3,-32.4855"/>
<polygon fill="midnightblue" stroke="midnightblue" points="1266.34,-29.6287 1256.45,-25.8411 1261.82,-34.9724 1266.34,-29.6287"/>
</g>
<!-- Node19&#45;&gt;Node13 -->
<g id="edge23" class="edge"><title>Node19&#45;&gt;Node13</title>
<path fill="none" stroke="midnightblue" d="M852.714,-136.998C855.514,-136.657 858.286,-136.323 861,-136 1004.43,-118.917 1043.98,-135.467 1184,-100 1186.99,-99.2416 1190.07,-98.2927 1193.1,-97.2426"/>
<polygon fill="midnightblue" stroke="midnightblue" points="1194.42,-100.487 1202.51,-93.6528 1191.92,-93.9466 1194.42,-100.487"/>
</g>
<!-- Node20 -->
<g id="node20" class="node"><title>Node20</title>
<polygon fill="none" stroke="#bfbfbf" points="757.5,-74.5 757.5,-93.5 906.5,-93.5 906.5,-74.5 757.5,-74.5"/>
<text text-anchor="middle" x="832" y="-81.5" font-family="Helvetica,sans-Serif" font-size="10.00">Math/GenVector/Rotation3D.h</text>
</g>
<!-- Node19&#45;&gt;Node20 -->
<g id="edge20" class="edge"><title>Node19&#45;&gt;Node20</title>
<path fill="none" stroke="midnightblue" d="M796.018,-136.403C802.318,-127.403 812.371,-113.041 820.252,-101.782"/>
<polygon fill="midnightblue" stroke="midnightblue" points="823.126,-103.78 825.994,-93.5806 817.392,-99.7658 823.126,-103.78"/>
</g>
<!-- Node21 -->
<g id="node21" class="node"><title>Node21</title>
<polygon fill="none" stroke="#bfbfbf" points="925,-74.5 925,-93.5 1081,-93.5 1081,-74.5 925,-74.5"/>
<text text-anchor="middle" x="1003" y="-81.5" font-family="Helvetica,sans-Serif" font-size="10.00">Math/GenVector/Transform3D.h</text>
</g>
<!-- Node19&#45;&gt;Node21 -->
<g id="edge21" class="edge"><title>Node19&#45;&gt;Node21</title>
<path fill="none" stroke="midnightblue" d="M820.518,-136.403C857.925,-125.866 921.427,-107.978 962.787,-96.3276"/>
<polygon fill="midnightblue" stroke="midnightblue" points="963.863,-99.6609 972.539,-93.5806 961.964,-92.9232 963.863,-99.6609"/>
</g>
<!-- Node22 -->
<g id="node22" class="node"><title>Node22</title>
<polygon fill="none" stroke="#bfbfbf" points="0,-74.5 0,-93.5 160,-93.5 160,-74.5 0,-74.5"/>
<text text-anchor="middle" x="80" y="-81.5" font-family="Helvetica,sans-Serif" font-size="10.00">Math/GenVector/Translation3D.h</text>
</g>
<!-- Node19&#45;&gt;Node22 -->
<g id="edge22" class="edge"><title>Node19&#45;&gt;Node22</title>
<path fill="none" stroke="midnightblue" d="M727.195,-136.928C724.088,-136.598 721.01,-136.287 718,-136 474.577,-112.825 411.874,-128.356 169,-100 158.037,-98.7201 146.37,-97.0089 135.215,-95.2007"/>
<polygon fill="midnightblue" stroke="midnightblue" points="135.589,-91.7149 125.149,-93.5224 134.438,-98.6196 135.589,-91.7149"/>
</g>
<!-- Node19&#45;&gt;Node23 -->
<g id="edge24" class="edge"><title>Node19&#45;&gt;Node23</title>
<path fill="none" stroke="midnightblue" d="M852.753,-136.791C927.023,-126.864 1046.15,-110.218 1090,-100 1094.22,-99.0161 1098.61,-97.8347 1102.94,-96.5724"/>
<polygon fill="midnightblue" stroke="midnightblue" points="1104.28,-99.8211 1112.81,-93.5352 1102.23,-93.1306 1104.28,-99.8211"/>
</g>
<!-- Node24 -->
<g id="node24" class="node"><title>Node24</title>
<polygon fill="none" stroke="#bfbfbf" points="178.5,-69 178.5,-99 329.5,-99 329.5,-69 178.5,-69"/>
<text text-anchor="start" x="186.5" y="-87" font-family="Helvetica,sans-Serif" font-size="10.00">Math/GenVector/Displacement</text>
<text text-anchor="middle" x="254" y="-76" font-family="Helvetica,sans-Serif" font-size="10.00">Vector3D.h</text>
</g>
<!-- Node19&#45;&gt;Node24 -->
<g id="edge25" class="edge"><title>Node19&#45;&gt;Node24</title>
<path fill="none" stroke="midnightblue" d="M727.184,-137.037C724.08,-136.678 721.005,-136.33 718,-136 553.014,-117.857 508.359,-122.531 339.905,-100.054"/>
<polygon fill="midnightblue" stroke="midnightblue" points="340.331,-96.5795 329.953,-98.7136 339.396,-103.517 340.331,-96.5795"/>
</g>
<!-- Node25 -->
<g id="node25" class="node"><title>Node25</title>
<polygon fill="none" stroke="#bfbfbf" points="348,-74.5 348,-93.5 524,-93.5 524,-74.5 348,-74.5"/>
<text text-anchor="middle" x="436" y="-81.5" font-family="Helvetica,sans-Serif" font-size="10.00">Math/GenVector/PositionVector3D.h</text>
</g>
<!-- Node19&#45;&gt;Node25 -->
<g id="edge26" class="edge"><title>Node19&#45;&gt;Node25</title>
<path fill="none" stroke="midnightblue" d="M739.656,-136.467C675.564,-125.604 564.944,-106.855 496.384,-95.2346"/>
<polygon fill="midnightblue" stroke="midnightblue" points="496.614,-91.7238 486.17,-93.5034 495.444,-98.6253 496.614,-91.7238"/>
</g>
<!-- Node26 -->
<g id="node26" class="node"><title>Node26</title>
<g id="a_node26"><a xlink:href="../../d2/dd0/Cartesian2D_8h.html" target="_top" xlink:title="MathUtils/Cartesian2D.h">
<polygon fill="none" stroke="black" points="614.5,-74.5 614.5,-93.5 739.5,-93.5 739.5,-74.5 614.5,-74.5"/>
<text text-anchor="middle" x="677" y="-81.5" font-family="Helvetica,sans-Serif" font-size="10.00">MathUtils/Cartesian2D.h</text>
</a>
</g>
</g>
<!-- Node19&#45;&gt;Node26 -->
<g id="edge27" class="edge"><title>Node19&#45;&gt;Node26</title>
<path fill="none" stroke="midnightblue" d="M773.81,-136.403C755.098,-126.468 724.077,-109.997 702.201,-98.3812"/>
<polygon fill="midnightblue" stroke="midnightblue" points="703.634,-95.179 693.16,-93.5806 700.351,-101.362 703.634,-95.179"/>
</g>
<!-- Node29 -->
<g id="node29" class="node"><title>Node29</title>
<polygon fill="none" stroke="#bfbfbf" points="542,-74.5 542,-93.5 596,-93.5 596,-74.5 542,-74.5"/>
<text text-anchor="middle" x="569" y="-81.5" font-family="Helvetica,sans-Serif" font-size="10.00">iostream</text>
</g>
<!-- Node19&#45;&gt;Node29 -->
<g id="edge30" class="edge"><title>Node19&#45;&gt;Node29</title>
<path fill="none" stroke="midnightblue" d="M746.476,-136.423C708.642,-128.493 652.587,-115.596 605,-100 602.434,-99.1592 599.795,-98.2164 597.166,-97.2237"/>
<polygon fill="midnightblue" stroke="midnightblue" points="598.433,-93.9608 587.848,-93.5037 595.837,-100.462 598.433,-93.9608"/>
</g>
<!-- Node27 -->
<g id="node27" class="node"><title>Node27</title>
<polygon fill="none" stroke="#bfbfbf" points="510.5,-1 510.5,-31 661.5,-31 661.5,-1 510.5,-1"/>
<text text-anchor="start" x="518.5" y="-19" font-family="Helvetica,sans-Serif" font-size="10.00">Math/GenVector/Displacement</text>
<text text-anchor="middle" x="586" y="-8" font-family="Helvetica,sans-Serif" font-size="10.00">Vector2D.h</text>
</g>
<!-- Node26&#45;&gt;Node27 -->
<g id="edge28" class="edge"><title>Node26&#45;&gt;Node27</title>
<path fill="none" stroke="midnightblue" d="M665.103,-74.3717C652.221,-65.0286 631.22,-49.7966 614.093,-37.375"/>
<polygon fill="midnightblue" stroke="midnightblue" points="615.703,-34.2194 605.553,-31.1815 611.593,-39.8859 615.703,-34.2194"/>
</g>
<!-- Node28 -->
<g id="node28" class="node"><title>Node28</title>
<polygon fill="none" stroke="#bfbfbf" points="680,-6.5 680,-25.5 856,-25.5 856,-6.5 680,-6.5"/>
<text text-anchor="middle" x="768" y="-13.5" font-family="Helvetica,sans-Serif" font-size="10.00">Math/GenVector/PositionVector2D.h</text>
</g>
<!-- Node26&#45;&gt;Node28 -->
<g id="edge29" class="edge"><title>Node26&#45;&gt;Node28</title>
<path fill="none" stroke="midnightblue" d="M688.897,-74.3717C703.884,-63.5015 729.862,-44.6602 747.942,-31.5474"/>
<polygon fill="midnightblue" stroke="midnightblue" points="750.06,-34.3349 756.1,-25.6305 745.95,-28.6684 750.06,-34.3349"/>
</g>
</g>
</svg>
        <g id="navigator" transform="translate(0 0)" fill="#404254">
                <rect fill="#f2f5e9" fill-opacity="0.5" stroke="#606060" stroke-width=".5" x="0" y="0" width="60" height="60"/>
                <use id="zoomplus" xlink:href="#zoomPlus" x="17" y="9" onmousedown="handleZoom(evt,'in')"/>
                <use id="zoomminus" xlink:href="#zoomMin" x="42" y="9" onmousedown="handleZoom(evt,'out')"/>
                <use id="reset" xlink:href="#resetDef" x="30" y="36" onmousedown="handleReset()"/>
                <g id="arrowUp" xlink:href="#dirArrow" transform="translate(30 24)" onmousedown="handlePan(0,-1)">
                  <use xlink:href="#rim" fill="#404040">
                        <set attributeName="fill" to="#808080" begin="arrowUp.mouseover" end="arrowUp.mouseout"/>
                  </use>
                  <path fill="none" stroke="white" stroke-width="1.5" d="M0,-3.0v7 M-2.5,-0.5L0,-3.0L2.5,-0.5"/>
                </g>
                <g id="arrowRight" xlink:href="#dirArrow" transform="rotate(90) translate(36 -43)" onmousedown="handlePan(1,0)">
                  <use xlink:href="#rim" fill="#404040">
                        <set attributeName="fill" to="#808080" begin="arrowRight.mouseover" end="arrowRight.mouseout"/>
                  </use>
                  <path fill="none" stroke="white" stroke-width="1.5" d="M0,-3.0v7 M-2.5,-0.5L0,-3.0L2.5,-0.5"/>
                </g>
                <g id="arrowDown" xlink:href="#dirArrow" transform="rotate(180) translate(-30 -48)" onmousedown="handlePan(0,1)">
                  <use xlink:href="#rim" fill="#404040">
                        <set attributeName="fill" to="#808080" begin="arrowDown.mouseover" end="arrowDown.mouseout"/>
                  </use>
                  <path fill="none" stroke="white" stroke-width="1.5" d="M0,-3.0v7 M-2.5,-0.5L0,-3.0L2.5,-0.5"/>
                </g>
                <g id="arrowLeft" xlink:href="#dirArrow" transform="rotate(270) translate(-36 17)" onmousedown="handlePan(-1,0)">
                  <use xlink:href="#rim" fill="#404040">
                        <set attributeName="fill" to="#808080" begin="arrowLeft.mouseover" end="arrowLeft.mouseout"/>
                  </use>
                  <path fill="none" stroke="white" stroke-width="1.5" d="M0,-3.0v7 M-2.5,-0.5L0,-3.0L2.5,-0.5"/>
                </g>
        </g>
        <svg viewBox="0 0 15 15" width="100%" height="30px" preserveAspectRatio="xMaxYMin meet">
         <g id="arrow_out" transform="scale(0.3 0.3)">
          <a xlink:href="Detectors_2Base_2src_2GeometryManager_8cxx__incl_org.svg" target="_base">
           <rect id="button" ry="5" rx="5" y="6" x="6" height="38" width="38"
                fill="#f2f5e9" fill-opacity="0.5" stroke="#606060" stroke-width="1.0"/>
           <path id="arrow"
             d="M 11.500037,31.436501 C 11.940474,20.09759 22.043105,11.32322 32.158766,21.979434 L 37.068811,17.246167 C 37.068811,17.246167 37.088388,32 37.088388,32 L 22.160133,31.978069 C 22.160133,31.978069 26.997745,27.140456 26.997745,27.140456 C 18.528582,18.264221 13.291696,25.230495 11.500037,31.436501 z"
             style="fill:#404040;"/>
          </a>
         </g>
        </svg>
</svg>
