<?xml version="1.0" encoding="UTF-8" standalone="no"?>
<!DOCTYPE svg PUBLIC "-//W3C//DTD SVG 1.1//EN"
 "http://www.w3.org/Graphics/SVG/1.1/DTD/svg11.dtd">
<!-- Generated by graphviz version 2.36.0 (20140111.2315)
 -->
<!-- Title: o2::framework::DataProcessingHeader Pages: 1 -->
<!--zoomable 996 -->
<svg id="main" version="1.1" xmlns="http://www.w3.org/2000/svg" xmlns:xlink="http://www.w3.org/1999/xlink" xml:space="preserve" onload="init(evt)">
<style type="text/css"><![CDATA[
.edge:hover path { stroke: red; }
.edge:hover polygon { stroke: red; fill: red; }
]]></style>
<script type="text/javascript"><![CDATA[
var edges = document.getElementsByTagName('g');
if (edges && edges.length) {
  for (var i=0;i<edges.length;i++) {
    if (edges[i].id.substr(0,4)=='edge') {
      edges[i].setAttribute('class','edge');
    }
  }
}
]]></script>
        <defs>
                <circle id="rim" cx="0" cy="0" r="7"/>
                <circle id="rim2" cx="0" cy="0" r="3.5"/>
                <g id="zoomPlus">
                        <use xlink:href="#rim" fill="#404040">
                                <set attributeName="fill" to="#808080" begin="zoomplus.mouseover" end="zoomplus.mouseout"/>
                        </use>
                        <path d="M-4,0h8M0,-4v8" fill="none" stroke="white" stroke-width="1.5" pointer-events="none"/>
                </g>
                <g id="zoomMin">
                        <use xlink:href="#rim" fill="#404040">
                                <set attributeName="fill" to="#808080" begin="zoomminus.mouseover" end="zoomminus.mouseout"/>
                        </use>
                        <path d="M-4,0h8" fill="none" stroke="white" stroke-width="1.5" pointer-events="none"/>
                </g>
                <g id="dirArrow">
                        <path fill="none" stroke="white" stroke-width="1.5" d="M0,-3.0v7 M-2.5,-0.5L0,-3.0L2.5,-0.5"/>
                </g>
               <g id="resetDef">
                       <use xlink:href="#rim2" fill="#404040">
                               <set attributeName="fill" to="#808080" begin="reset.mouseover" end="reset.mouseout"/>
                       </use>
               </g>
        </defs>

<script type="text/javascript">
var viewWidth = 1028;
var viewHeight = 996;
var sectionId = 'dynsection-1';
</script>
<script xlink:href="../../svgpan.js"/>
<svg id="graph" class="graph">
<g id="viewport">
<title>o2::framework::DataProcessingHeader</title>
<!-- Node1 -->
<g id="node1" class="node"><title>Node1</title>
<polygon fill="#bfbfbf" stroke="black" points="773.047,-1 773.047,-113 928.047,-113 928.047,-1 773.047,-1"/>
<text text-anchor="start" x="781.047" y="-101" font-family="Helvetica,sans-Serif" font-size="10.00">o2::framework::DataProcessing</text>
<text text-anchor="middle" x="850.547" y="-90" font-family="Helvetica,sans-Serif" font-size="10.00">Header</text>
<polyline fill="none" stroke="black" points="773.047,-83 928.047,-83 "/>
<text text-anchor="middle" x="850.547" y="-71" font-family="Helvetica,sans-Serif" font-size="10.00"> </text>
<polyline fill="none" stroke="black" points="773.047,-64 928.047,-64 "/>
<text text-anchor="start" x="781.047" y="-52" font-family="Helvetica,sans-Serif" font-size="10.00">+ DataProcessingHeader()</text>
<text text-anchor="start" x="781.047" y="-41" font-family="Helvetica,sans-Serif" font-size="10.00">+ DataProcessingHeader()</text>
<text text-anchor="start" x="781.047" y="-30" font-family="Helvetica,sans-Serif" font-size="10.00">+ DataProcessingHeader()</text>
<text text-anchor="start" x="781.047" y="-19" font-family="Helvetica,sans-Serif" font-size="10.00">+ DataProcessingHeader()</text>
<text text-anchor="start" x="781.047" y="-8" font-family="Helvetica,sans-Serif" font-size="10.00">+ Get()</text>
</g>
<!-- Node2 -->
<g id="node2" class="node"><title>Node2</title>
<g id="a_node2"><a xlink:href="../../d9/d75/structo2_1_1Header_1_1BaseHeader.html" target="_top" xlink:title="the base header struct Every header type must begin (i.e. derive) with this. Don&#39;t use this struct di...">
<polygon fill="none" stroke="black" points="638.047,-172.5 638.047,-295.5 763.047,-295.5 763.047,-172.5 638.047,-172.5"/>
<text text-anchor="middle" x="700.547" y="-283.5" font-family="Helvetica,sans-Serif" font-size="10.00">o2::Header::BaseHeader</text>
<polyline fill="none" stroke="black" points="638.047,-276.5 763.047,-276.5 "/>
<text text-anchor="middle" x="700.547" y="-264.5" font-family="Helvetica,sans-Serif" font-size="10.00"> </text>
<polyline fill="none" stroke="black" points="638.047,-257.5 763.047,-257.5 "/>
<text text-anchor="start" x="646.047" y="-245.5" font-family="Helvetica,sans-Serif" font-size="10.00">+ BaseHeader()</text>
<text text-anchor="start" x="646.047" y="-234.5" font-family="Helvetica,sans-Serif" font-size="10.00">+ BaseHeader()</text>
<text text-anchor="start" x="646.047" y="-223.5" font-family="Helvetica,sans-Serif" font-size="10.00">+ BaseHeader()</text>
<text text-anchor="start" x="646.047" y="-212.5" font-family="Helvetica,sans-Serif" font-size="10.00">+ size()</text>
<text text-anchor="start" x="646.047" y="-201.5" font-family="Helvetica,sans-Serif" font-size="10.00">+ data()</text>
<text text-anchor="start" x="646.047" y="-190.5" font-family="Helvetica,sans-Serif" font-size="10.00">+ next()</text>
<text text-anchor="start" x="646.047" y="-179.5" font-family="Helvetica,sans-Serif" font-size="10.00">+ get()</text>
</a>
</g>
</g>
<!-- Node2&#45;&gt;Node1 -->
<g id="edge1" class="edge"><title>Node2&#45;&gt;Node1</title>
<path fill="none" stroke="midnightblue" d="M759.241,-164.523C773.872,-147.454 789.373,-129.369 803.368,-113.042"/>
<polygon fill="none" stroke="midnightblue" points="756.439,-162.414 752.588,-172.285 761.754,-166.97 756.439,-162.414"/>
</g>
<!-- Node3 -->
<g id="node3" class="node"><title>Node3</title>
<g id="a_node3"><a xlink:href="../../d0/da5/structo2_1_1Header_1_1Descriptor.html" target="_top" xlink:title="{o2::Header::Descriptor\l\&lt; gSizeHeaderDescriptionString \&gt;\n||+ Descriptor()\l+ Descriptor()\l+ Descriptor()\l+ Descriptor()\l+ operator=()\l+ operator ItgType()\l+ runtimeInit()\l+ operator==()\l+ operator==()\l+ operator!=()\l+ operator!=()\l+ print()\l}">
<polygon fill="none" stroke="black" points="205.547,-420.5 205.547,-609.5 371.547,-609.5 371.547,-420.5 205.547,-420.5"/>
<text text-anchor="start" x="213.547" y="-597.5" font-family="Helvetica,sans-Serif" font-size="10.00">o2::Header::Descriptor</text>
<text text-anchor="middle" x="288.547" y="-586.5" font-family="Helvetica,sans-Serif" font-size="10.00">&lt; gSizeHeaderDescriptionString &gt;</text>
<polyline fill="none" stroke="black" points="205.547,-579.5 371.547,-579.5 "/>
<text text-anchor="middle" x="288.547" y="-567.5" font-family="Helvetica,sans-Serif" font-size="10.00"> </text>
<polyline fill="none" stroke="black" points="205.547,-560.5 371.547,-560.5 "/>
<text text-anchor="start" x="213.547" y="-548.5" font-family="Helvetica,sans-Serif" font-size="10.00">+ Descriptor()</text>
<text text-anchor="start" x="213.547" y="-537.5" font-family="Helvetica,sans-Serif" font-size="10.00">+ Descriptor()</text>
<text text-anchor="start" x="213.547" y="-526.5" font-family="Helvetica,sans-Serif" font-size="10.00">+ Descriptor()</text>
<text text-anchor="start" x="213.547" y="-515.5" font-family="Helvetica,sans-Serif" font-size="10.00">+ Descriptor()</text>
<text text-anchor="start" x="213.547" y="-504.5" font-family="Helvetica,sans-Serif" font-size="10.00">+ operator=()</text>
<text text-anchor="start" x="213.547" y="-493.5" font-family="Helvetica,sans-Serif" font-size="10.00">+ operator ItgType()</text>
<text text-anchor="start" x="213.547" y="-482.5" font-family="Helvetica,sans-Serif" font-size="10.00">+ runtimeInit()</text>
<text text-anchor="start" x="213.547" y="-471.5" font-family="Helvetica,sans-Serif" font-size="10.00">+ operator==()</text>
<text text-anchor="start" x="213.547" y="-460.5" font-family="Helvetica,sans-Serif" font-size="10.00">+ operator==()</text>
<text text-anchor="start" x="213.547" y="-449.5" font-family="Helvetica,sans-Serif" font-size="10.00">+ operator!=()</text>
<text text-anchor="start" x="213.547" y="-438.5" font-family="Helvetica,sans-Serif" font-size="10.00">+ operator!=()</text>
<text text-anchor="start" x="213.547" y="-427.5" font-family="Helvetica,sans-Serif" font-size="10.00">+ print()</text>
</a>
</g>
</g>
<!-- Node3&#45;&gt;Node2 -->
<g id="edge2" class="edge"><title>Node3&#45;&gt;Node2</title>
<path fill="none" stroke="#404040" d="M366.342,-420.261C400.77,-383.297 443.618,-342.864 488.547,-314 530.835,-286.832 583.82,-267.085 626.24,-254.128"/>
<polygon fill="none" stroke="#404040" points="626.406,-254.079 631.014,-248.533 637.907,-250.654 633.298,-256.2 626.406,-254.079"/>
<text text-anchor="middle" x="517.047" y="-355.5" font-family="Helvetica,sans-Serif" font-size="10.00"> +description</text>
</g>
<!-- Node4 -->
<g id="node4" class="node"><title>Node4</title>
<polygon fill="none" stroke="#bfbfbf" points="281.547,-929.5 281.547,-986.5 319.547,-986.5 319.547,-929.5 281.547,-929.5"/>
<text text-anchor="middle" x="300.547" y="-974.5" font-family="Helvetica,sans-Serif" font-size="10.00">Type</text>
<polyline fill="none" stroke="#bfbfbf" points="281.547,-967.5 319.547,-967.5 "/>
<text text-anchor="middle" x="300.547" y="-955.5" font-family="Helvetica,sans-Serif" font-size="10.00"> </text>
<polyline fill="none" stroke="#bfbfbf" points="281.547,-948.5 319.547,-948.5 "/>
<text text-anchor="middle" x="300.547" y="-936.5" font-family="Helvetica,sans-Serif" font-size="10.00"> </text>
</g>
<!-- Node4&#45;&gt;Node3 -->
<g id="edge3" class="edge"><title>Node4&#45;&gt;Node3</title>
<path fill="none" stroke="#404040" d="M281.508,-952.855C244.081,-943.529 161.926,-916.939 131.547,-858 92.8578,-782.94 100.756,-746.631 131.547,-668 138.786,-649.512 166.351,-620.733 196.41,-593.168"/>
<polygon fill="none" stroke="#404040" points="196.475,-593.11 198.236,-586.117 205.368,-585.052 203.607,-592.045 196.475,-593.11"/>
<text text-anchor="middle" x="141.547" y="-760.5" font-family="Helvetica,sans-Serif" font-size="10.00"> +itg</text>
</g>
<!-- Node8 -->
<g id="node8" class="node"><title>Node8</title>
<g id="a_node8"><a xlink:href="../../d0/da5/structo2_1_1Header_1_1Descriptor.html" target="_top" xlink:title="{o2::Header::Descriptor\l\&lt; N, PrinterPolicy \&gt;\n||+ Descriptor()\l+ Descriptor()\l+ Descriptor()\l+ operator=()\l+ operator ItgType()\l+ Descriptor()\l+ runtimeInit()\l+ operator==()\l+ operator!=()\l+ operator==()\l+ operator!=()\l+ print()\l}">
<polygon fill="none" stroke="black" points="242.547,-668.5 242.547,-857.5 358.547,-857.5 358.547,-668.5 242.547,-668.5"/>
<text text-anchor="start" x="250.547" y="-845.5" font-family="Helvetica,sans-Serif" font-size="10.00">o2::Header::Descriptor</text>
<text text-anchor="middle" x="300.547" y="-834.5" font-family="Helvetica,sans-Serif" font-size="10.00">&lt; N, PrinterPolicy &gt;</text>
<polyline fill="none" stroke="black" points="242.547,-827.5 358.547,-827.5 "/>
<text text-anchor="middle" x="300.547" y="-815.5" font-family="Helvetica,sans-Serif" font-size="10.00"> </text>
<polyline fill="none" stroke="black" points="242.547,-808.5 358.547,-808.5 "/>
<text text-anchor="start" x="250.547" y="-796.5" font-family="Helvetica,sans-Serif" font-size="10.00">+ Descriptor()</text>
<text text-anchor="start" x="250.547" y="-785.5" font-family="Helvetica,sans-Serif" font-size="10.00">+ Descriptor()</text>
<text text-anchor="start" x="250.547" y="-774.5" font-family="Helvetica,sans-Serif" font-size="10.00">+ Descriptor()</text>
<text text-anchor="start" x="250.547" y="-763.5" font-family="Helvetica,sans-Serif" font-size="10.00">+ operator=()</text>
<text text-anchor="start" x="250.547" y="-752.5" font-family="Helvetica,sans-Serif" font-size="10.00">+ operator ItgType()</text>
<text text-anchor="start" x="250.547" y="-741.5" font-family="Helvetica,sans-Serif" font-size="10.00">+ Descriptor()</text>
<text text-anchor="start" x="250.547" y="-730.5" font-family="Helvetica,sans-Serif" font-size="10.00">+ runtimeInit()</text>
<text text-anchor="start" x="250.547" y="-719.5" font-family="Helvetica,sans-Serif" font-size="10.00">+ operator==()</text>
<text text-anchor="start" x="250.547" y="-708.5" font-family="Helvetica,sans-Serif" font-size="10.00">+ operator!=()</text>
<text text-anchor="start" x="250.547" y="-697.5" font-family="Helvetica,sans-Serif" font-size="10.00">+ operator==()</text>
<text text-anchor="start" x="250.547" y="-686.5" font-family="Helvetica,sans-Serif" font-size="10.00">+ operator!=()</text>
<text text-anchor="start" x="250.547" y="-675.5" font-family="Helvetica,sans-Serif" font-size="10.00">+ print()</text>
</a>
</g>
</g>
<!-- Node4&#45;&gt;Node8 -->
<g id="edge8" class="edge"><title>Node4&#45;&gt;Node8</title>
<path fill="none" stroke="#404040" d="M300.547,-929.348C300.547,-913.342 300.547,-892.063 300.547,-870.114"/>
<polygon fill="none" stroke="#404040" points="300.547,-869.881 296.547,-863.881 300.547,-857.881 304.547,-863.881 300.547,-869.881"/>
<text text-anchor="middle" x="310.547" y="-890.5" font-family="Helvetica,sans-Serif" font-size="10.00"> +itg</text>
</g>
<!-- Node9 -->
<g id="node9" class="node"><title>Node9</title>
<g id="a_node9"><a xlink:href="../../d0/da5/structo2_1_1Header_1_1Descriptor.html" target="_top" xlink:title="{o2::Header::Descriptor\l\&lt; gSizeSerializationMethodString \&gt;\n||+ Descriptor()\l+ Descriptor()\l+ Descriptor()\l+ Descriptor()\l+ operator=()\l+ operator ItgType()\l+ runtimeInit()\l+ operator==()\l+ operator==()\l+ operator!=()\l+ operator!=()\l+ print()\l}">
<polygon fill="none" stroke="black" points="453.547,-420.5 453.547,-609.5 623.547,-609.5 623.547,-420.5 453.547,-420.5"/>
<text text-anchor="start" x="461.547" y="-597.5" font-family="Helvetica,sans-Serif" font-size="10.00">o2::Header::Descriptor</text>
<text text-anchor="middle" x="538.547" y="-586.5" font-family="Helvetica,sans-Serif" font-size="10.00">&lt; gSizeSerializationMethodString &gt;</text>
<polyline fill="none" stroke="black" points="453.547,-579.5 623.547,-579.5 "/>
<text text-anchor="middle" x="538.547" y="-567.5" font-family="Helvetica,sans-Serif" font-size="10.00"> </text>
<polyline fill="none" stroke="black" points="453.547,-560.5 623.547,-560.5 "/>
<text text-anchor="start" x="461.547" y="-548.5" font-family="Helvetica,sans-Serif" font-size="10.00">+ Descriptor()</text>
<text text-anchor="start" x="461.547" y="-537.5" font-family="Helvetica,sans-Serif" font-size="10.00">+ Descriptor()</text>
<text text-anchor="start" x="461.547" y="-526.5" font-family="Helvetica,sans-Serif" font-size="10.00">+ Descriptor()</text>
<text text-anchor="start" x="461.547" y="-515.5" font-family="Helvetica,sans-Serif" font-size="10.00">+ Descriptor()</text>
<text text-anchor="start" x="461.547" y="-504.5" font-family="Helvetica,sans-Serif" font-size="10.00">+ operator=()</text>
<text text-anchor="start" x="461.547" y="-493.5" font-family="Helvetica,sans-Serif" font-size="10.00">+ operator ItgType()</text>
<text text-anchor="start" x="461.547" y="-482.5" font-family="Helvetica,sans-Serif" font-size="10.00">+ runtimeInit()</text>
<text text-anchor="start" x="461.547" y="-471.5" font-family="Helvetica,sans-Serif" font-size="10.00">+ operator==()</text>
<text text-anchor="start" x="461.547" y="-460.5" font-family="Helvetica,sans-Serif" font-size="10.00">+ operator==()</text>
<text text-anchor="start" x="461.547" y="-449.5" font-family="Helvetica,sans-Serif" font-size="10.00">+ operator!=()</text>
<text text-anchor="start" x="461.547" y="-438.5" font-family="Helvetica,sans-Serif" font-size="10.00">+ operator!=()</text>
<text text-anchor="start" x="461.547" y="-427.5" font-family="Helvetica,sans-Serif" font-size="10.00">+ print()</text>
</a>
</g>
</g>
<!-- Node4&#45;&gt;Node9 -->
<g id="edge15" class="edge"><title>Node4&#45;&gt;Node9</title>
<path fill="none" stroke="#404040" d="M319.575,-957.308C352.111,-956.69 417.971,-950.215 449.547,-910 482.83,-867.61 432.728,-710.751 465.547,-668 480.695,-648.267 502.601,-669.094 518.547,-650 525.633,-641.515 530.791,-631.628 534.491,-621.141"/>
<polygon fill="none" stroke="#404040" points="534.515,-621.06 532.403,-614.166 537.955,-609.564 540.067,-616.459 534.515,-621.06"/>
<text text-anchor="middle" x="475.547" y="-760.5" font-family="Helvetica,sans-Serif" font-size="10.00"> +itg</text>
</g>
<!-- Node5 -->
<g id="node5" class="node"><title>Node5</title>
<polygon fill="none" stroke="#bfbfbf" points="611.047,-929 611.047,-987 640.047,-987 640.047,-929 611.047,-929"/>
<polyline fill="none" stroke="#bfbfbf" points="611.047,-967 640.047,-967 "/>
<text text-anchor="middle" x="625.547" y="-955" font-family="Helvetica,sans-Serif" font-size="10.00"> </text>
<polyline fill="none" stroke="#bfbfbf" points="611.047,-948 640.047,-948 "/>
<text text-anchor="middle" x="625.547" y="-936" font-family="Helvetica,sans-Serif" font-size="10.00"> </text>
</g>
<!-- Node5&#45;&gt;Node2 -->
<g id="edge13" class="edge"><title>Node5&#45;&gt;Node2</title>
<path fill="none" stroke="#404040" d="M640.122,-951.189C655.946,-944.044 680.559,-930.312 692.547,-910 751.558,-810.013 724.016,-460.462 708.55,-307.547"/>
<polygon fill="none" stroke="#404040" points="708.546,-307.502 703.955,-301.941 707.322,-295.565 711.913,-301.126 708.546,-307.502"/>
<text text-anchor="middle" x="742.047" y="-636.5" font-family="Helvetica,sans-Serif" font-size="10.00"> +@5</text>
</g>
<!-- Node5&#45;&gt;Node2 -->
<g id="edge20" class="edge"><title>Node5&#45;&gt;Node2</title>
<path fill="none" stroke="#404040" d="M640.317,-952.633C659.604,-946.23 693.288,-932.545 713.547,-910 730.206,-891.461 728.396,-882.154 734.547,-858 794.215,-623.68 778.866,-550.289 727.547,-314 727.082,-311.862 726.579,-309.702 726.043,-307.529"/>
<polygon fill="none" stroke="#404040" points="726.017,-307.435 720.594,-302.681 722.896,-295.847 728.319,-300.601 726.017,-307.435"/>
<text text-anchor="middle" x="786.047" y="-636.5" font-family="Helvetica,sans-Serif" font-size="10.00"> +@7</text>
</g>
<!-- Node5&#45;&gt;Node3 -->
<g id="edge4" class="edge"><title>Node5&#45;&gt;Node3</title>
<path fill="none" stroke="#404040" d="M611.033,-949.916C584.904,-936.271 530.531,-903.612 507.547,-858 484.504,-812.272 524.117,-669.079 493.547,-628 479.696,-609.388 465.466,-620.032 444.547,-610 423.91,-600.103 402.471,-588.288 382.334,-576.43"/>
<polygon fill="none" stroke="#404040" points="382.244,-576.377 375.042,-576.743 371.934,-570.236 379.136,-569.87 382.244,-576.377"/>
<text text-anchor="middle" x="520.047" y="-760.5" font-family="Helvetica,sans-Serif" font-size="10.00"> +@3</text>
</g>
<!-- Node5&#45;&gt;Node8 -->
<g id="edge9" class="edge"><title>Node5&#45;&gt;Node8</title>
<path fill="none" stroke="#404040" d="M610.765,-954.147C569.531,-945.613 451.128,-917.129 372.547,-858 371.058,-856.88 369.585,-855.721 368.127,-854.528"/>
<polygon fill="none" stroke="#404040" points="367.721,-854.168 360.579,-853.175 358.748,-846.2 365.89,-847.193 367.721,-854.168"/>
<text text-anchor="middle" x="476.047" y="-890.5" font-family="Helvetica,sans-Serif" font-size="10.00"> +@3</text>
</g>
<!-- Node5&#45;&gt;Node9 -->
<g id="edge16" class="edge"><title>Node5&#45;&gt;Node9</title>
<path fill="none" stroke="#404040" d="M623.18,-928.832C618.472,-876.832 606.538,-762.441 585.547,-668 582.18,-652.852 578.027,-637.032 573.596,-621.565"/>
<polygon fill="none" stroke="#404040" points="573.53,-621.34 568.007,-616.705 570.161,-609.823 575.685,-614.459 573.53,-621.34"/>
<text text-anchor="middle" x="629.047" y="-760.5" font-family="Helvetica,sans-Serif" font-size="10.00"> +@3</text>
</g>
<!-- Node6 -->
<g id="node6" class="node"><title>Node6</title>
<polygon fill="none" stroke="#bfbfbf" points="443.047,-929.5 443.047,-986.5 478.047,-986.5 478.047,-929.5 443.047,-929.5"/>
<text text-anchor="middle" x="460.547" y="-974.5" font-family="Helvetica,sans-Serif" font-size="10.00">char</text>
<polyline fill="none" stroke="#bfbfbf" points="443.047,-967.5 478.047,-967.5 "/>
<text text-anchor="middle" x="460.547" y="-955.5" font-family="Helvetica,sans-Serif" font-size="10.00"> </text>
<polyline fill="none" stroke="#bfbfbf" points="443.047,-948.5 478.047,-948.5 "/>
<text text-anchor="middle" x="460.547" y="-936.5" font-family="Helvetica,sans-Serif" font-size="10.00"> </text>
</g>
<!-- Node6&#45;&gt;Node2 -->
<g id="edge12" class="edge"><title>Node6&#45;&gt;Node2</title>
<path fill="none" stroke="#404040" d="M478.08,-953.487C516.1,-944.846 605.894,-918.685 645.547,-858 701.633,-772.164 654.741,-730.156 663.547,-628 673.184,-516.202 685.63,-386.641 693.349,-307.777"/>
<polygon fill="none" stroke="#404040" points="693.375,-307.509 689.979,-301.147 694.546,-295.566 697.941,-301.928 693.375,-307.509"/>
<text text-anchor="middle" x="694.047" y="-636.5" font-family="Helvetica,sans-Serif" font-size="10.00"> +magicString</text>
</g>
<!-- Node6&#45;&gt;Node3 -->
<g id="edge5" class="edge"><title>Node6&#45;&gt;Node3</title>
<path fill="none" stroke="#404040" d="M442.931,-947.022C430.131,-938.796 413.535,-925.914 404.547,-910 351.003,-815.203 400.271,-771.519 366.547,-668 361.445,-652.341 354.888,-636.325 347.746,-620.843"/>
<polygon fill="none" stroke="#404040" points="347.593,-620.52 341.409,-616.811 342.454,-609.676 348.638,-613.385 347.593,-620.52"/>
<text text-anchor="middle" x="394.047" y="-760.5" font-family="Helvetica,sans-Serif" font-size="10.00"> +str</text>
</g>
<!-- Node6&#45;&gt;Node8 -->
<g id="edge10" class="edge"><title>Node6&#45;&gt;Node8</title>
<path fill="none" stroke="#404040" d="M442.858,-953.506C419.772,-948.069 379.501,-935.452 355.547,-910 344.343,-898.096 335.365,-883.691 328.186,-868.625"/>
<polygon fill="none" stroke="#404040" points="328.144,-868.53 322.052,-864.671 323.271,-857.564 329.363,-861.422 328.144,-868.53"/>
<text text-anchor="middle" x="366.047" y="-890.5" font-family="Helvetica,sans-Serif" font-size="10.00"> +str</text>
</g>
<!-- Node6&#45;&gt;Node9 -->
<g id="edge17" class="edge"><title>Node6&#45;&gt;Node9</title>
<path fill="none" stroke="#404040" d="M478.199,-940.759C496.565,-922.61 524.316,-891.364 536.547,-858 564.212,-782.533 563.178,-691.247 556.061,-621.975"/>
<polygon fill="none" stroke="#404040" points="556.028,-621.672 551.397,-616.144 554.718,-609.744 559.349,-615.271 556.028,-621.672"/>
<text text-anchor="middle" x="571.047" y="-760.5" font-family="Helvetica,sans-Serif" font-size="10.00"> +str</text>
</g>
<!-- Node7 -->
<g id="node7" class="node"><title>Node7</title>
<polygon fill="none" stroke="#bfbfbf" points="159.047,-929.5 159.047,-986.5 188.047,-986.5 188.047,-929.5 159.047,-929.5"/>
<text text-anchor="middle" x="173.547" y="-974.5" font-family="Helvetica,sans-Serif" font-size="10.00">int</text>
<polyline fill="none" stroke="#bfbfbf" points="159.047,-967.5 188.047,-967.5 "/>
<text text-anchor="middle" x="173.547" y="-955.5" font-family="Helvetica,sans-Serif" font-size="10.00"> </text>
<polyline fill="none" stroke="#bfbfbf" points="159.047,-948.5 188.047,-948.5 "/>
<text text-anchor="middle" x="173.547" y="-936.5" font-family="Helvetica,sans-Serif" font-size="10.00"> </text>
</g>
<!-- Node7&#45;&gt;Node3 -->
<g id="edge6" class="edge"><title>Node7&#45;&gt;Node3</title>
<path fill="none" stroke="#404040" d="M159.017,-950.634C131.702,-937.755 73.3937,-905.717 50.5467,-858 14.0793,-781.836 5.90757,-739.681 50.5467,-668 81.4379,-618.395 119.056,-641.074 168.547,-610 177.422,-604.428 186.422,-598.33 195.297,-592.003"/>
<polygon fill="none" stroke="#404040" points="195.539,-591.828 198.044,-585.066 205.25,-584.778 202.744,-591.54 195.539,-591.828"/>
<text text-anchor="middle" x="76.0467" y="-771.5" font-family="Helvetica,sans-Serif" font-size="10.00"> +arraySize</text>
<text text-anchor="middle" x="76.0467" y="-760.5" font-family="Helvetica,sans-Serif" font-size="10.00">+size</text>
<text text-anchor="middle" x="76.0467" y="-749.5" font-family="Helvetica,sans-Serif" font-size="10.00">+bitcount</text>
</g>
<!-- Node7&#45;&gt;Node8 -->
<g id="edge11" class="edge"><title>Node7&#45;&gt;Node8</title>
<path fill="none" stroke="#404040" d="M188.115,-934.86C200.069,-916.695 217.893,-889.608 235.844,-862.327"/>
<polygon fill="none" stroke="#404040" points="235.857,-862.308 235.814,-855.097 242.453,-852.284 242.497,-859.495 235.857,-862.308"/>
<text text-anchor="middle" x="252.047" y="-901.5" font-family="Helvetica,sans-Serif" font-size="10.00"> +arraySize</text>
<text text-anchor="middle" x="252.047" y="-890.5" font-family="Helvetica,sans-Serif" font-size="10.00">+size</text>
<text text-anchor="middle" x="252.047" y="-879.5" font-family="Helvetica,sans-Serif" font-size="10.00">+bitcount</text>
</g>
<!-- Node7&#45;&gt;Node9 -->
<g id="edge18" class="edge"><title>Node7&#45;&gt;Node9</title>
<path fill="none" stroke="#404040" d="M170.141,-929.39C162.814,-864.717 148.808,-706.012 182.547,-668 200.3,-647.997 276.071,-658.144 301.547,-650 350.834,-634.244 401.307,-607.459 442.939,-581.96"/>
<polygon fill="none" stroke="#404040" points="443.131,-581.84 446.12,-575.278 453.327,-575.512 450.339,-582.075 443.131,-581.84"/>
<text text-anchor="middle" x="208.047" y="-771.5" font-family="Helvetica,sans-Serif" font-size="10.00"> +arraySize</text>
<text text-anchor="middle" x="208.047" y="-760.5" font-family="Helvetica,sans-Serif" font-size="10.00">+size</text>
<text text-anchor="middle" x="208.047" y="-749.5" font-family="Helvetica,sans-Serif" font-size="10.00">+bitcount</text>
</g>
<!-- Node8&#45;&gt;Node1 -->
<g id="edge25" class="edge"><title>Node8&#45;&gt;Node1</title>
<path fill="none" stroke="#404040" d="M242.437,-671.313C240.841,-670.151 239.211,-669.044 237.547,-668 189.263,-637.69 162.652,-673.13 110.547,-650 85.1652,-638.733 75.3407,-634.647 62.5467,-610 1.83684,-493.046 -32.2404,-420.363 45.5467,-314 131.625,-196.3 569.721,-106.984 761.001,-72.9767"/>
<polygon fill="none" stroke="#404040" points="761.144,-72.9515 766.357,-67.9693 772.961,-70.8652 767.748,-75.8475 761.144,-72.9515"/>
<text text-anchor="middle" x="79.5467" y="-355.5" font-family="Helvetica,sans-Serif" font-size="10.00"> +sHeaderType</text>
</g>
<!-- Node8&#45;&gt;Node2 -->
<g id="edge22" class="edge"><title>Node8&#45;&gt;Node2</title>
<path fill="none" stroke="#404040" d="M242.264,-671.571C240.721,-670.33 239.148,-669.138 237.547,-668 211.711,-649.643 197.857,-662.057 168.547,-650 135.765,-636.514 117.243,-640.714 99.5467,-610 57.3892,-536.832 51.3541,-489.342 99.5467,-420 160.451,-332.368 478.845,-270.688 625.926,-246.429"/>
<polygon fill="none" stroke="#404040" points="626.071,-246.406 631.349,-241.491 637.915,-244.473 632.637,-249.387 626.071,-246.406"/>
<text text-anchor="middle" x="148.047" y="-518" font-family="Helvetica,sans-Serif" font-size="10.00"> +sHeaderType</text>
<text text-anchor="middle" x="148.047" y="-507" font-family="Helvetica,sans-Serif" font-size="10.00">+sSerializationMethod</text>
</g>
<!-- Node8&#45;&gt;Node3 -->
<g id="edge7" class="edge"><title>Node8&#45;&gt;Node3</title>
<path fill="none" stroke="orange" d="M234.752,-672.86C232.716,-671.17 230.647,-669.546 228.547,-668 209.863,-654.245 192.826,-669.025 179.547,-650 160.409,-622.581 178.619,-593.627 205.274,-569.676"/>
<polygon fill="orange" stroke="orange" points="232.632,-675.659 242.433,-679.682 237.28,-670.425 232.632,-675.659"/>
<text text-anchor="start" x="179.547" y="-642" font-family="Helvetica,sans-Serif" font-size="10.00"> &lt; gSizeHeaderDescription</text>
<text text-anchor="middle" x="238.547" y="-631" font-family="Helvetica,sans-Serif" font-size="10.00">String &gt;</text>
</g>
<!-- Node8&#45;&gt;Node9 -->
<g id="edge19" class="edge"><title>Node8&#45;&gt;Node9</title>
<path fill="none" stroke="orange" d="M364.947,-664.001C374.654,-651.428 384.974,-639.09 395.547,-628 412.955,-609.741 433.448,-591.956 453.397,-576.133"/>
<polygon fill="orange" stroke="orange" points="361.917,-662.204 358.66,-672.286 367.493,-666.435 361.917,-662.204"/>
<text text-anchor="start" x="395.547" y="-642" font-family="Helvetica,sans-Serif" font-size="10.00"> &lt; gSizeSerializationMethod</text>
<text text-anchor="middle" x="457.047" y="-631" font-family="Helvetica,sans-Serif" font-size="10.00">String &gt;</text>
</g>
<!-- Node9&#45;&gt;Node2 -->
<g id="edge14" class="edge"><title>Node9&#45;&gt;Node2</title>
<path fill="none" stroke="#404040" d="M544.922,-420.309C550.955,-384.613 562.323,-345.082 583.547,-314 594.878,-297.406 610.951,-283.338 627.567,-271.88"/>
<polygon fill="none" stroke="#404040" points="627.906,-271.658 630.734,-265.025 637.945,-265.084 635.117,-271.717 627.906,-271.658"/>
<text text-anchor="middle" x="614.047" y="-355.5" font-family="Helvetica,sans-Serif" font-size="10.00"> +serialization</text>
</g>
<!-- Node10 -->
<g id="node10" class="node"><title>Node10</title>
<polygon fill="none" stroke="#bfbfbf" points="845.047,-486.5 845.047,-543.5 896.047,-543.5 896.047,-486.5 845.047,-486.5"/>
<text text-anchor="middle" x="870.547" y="-531.5" font-family="Helvetica,sans-Serif" font-size="10.00">uint32_t</text>
<polyline fill="none" stroke="#bfbfbf" points="845.047,-524.5 896.047,-524.5 "/>
<text text-anchor="middle" x="870.547" y="-512.5" font-family="Helvetica,sans-Serif" font-size="10.00"> </text>
<polyline fill="none" stroke="#bfbfbf" points="845.047,-505.5 896.047,-505.5 "/>
<text text-anchor="middle" x="870.547" y="-493.5" font-family="Helvetica,sans-Serif" font-size="10.00"> </text>
</g>
<!-- Node10&#45;&gt;Node1 -->
<g id="edge24" class="edge"><title>Node10&#45;&gt;Node1</title>
<path fill="none" stroke="#404040" d="M875.985,-486.056C880.089,-463.479 885.371,-430.829 887.547,-402 894.827,-305.52 878.297,-194.26 865.038,-125.017"/>
<polygon fill="none" stroke="#404040" points="864.993,-124.788 859.916,-119.667 862.691,-113.011 867.768,-118.132 864.993,-124.788"/>
<text text-anchor="middle" x="911.547" y="-231.5" font-family="Helvetica,sans-Serif" font-size="10.00"> +sVersion</text>
</g>
<!-- Node10&#45;&gt;Node2 -->
<g id="edge21" class="edge"><title>Node10&#45;&gt;Node2</title>
<path fill="none" stroke="#404040" d="M852.407,-486.462C838.525,-464.382 819.75,-432.2 807.547,-402 792.402,-364.519 805.187,-348.759 784.547,-314 780.723,-307.561 776.224,-301.317 771.327,-295.349"/>
<polygon fill="none" stroke="#404040" points="771.239,-295.247 764.279,-293.359 763.346,-286.208 770.306,-288.097 771.239,-295.247"/>
<text text-anchor="middle" x="847.547" y="-394" font-family="Helvetica,sans-Serif" font-size="10.00"> +headerVersion</text>
<text text-anchor="middle" x="847.547" y="-383" font-family="Helvetica,sans-Serif" font-size="10.00">+headerSize</text>
<text text-anchor="middle" x="847.547" y="-372" font-family="Helvetica,sans-Serif" font-size="10.00">+sMagicString</text>
<text text-anchor="middle" x="847.547" y="-361" font-family="Helvetica,sans-Serif" font-size="10.00">+flagsNextHeader</text>
<text text-anchor="middle" x="847.547" y="-350" font-family="Helvetica,sans-Serif" font-size="10.00">+magicStringInt</text>
<text text-anchor="middle" x="847.547" y="-339" font-family="Helvetica,sans-Serif" font-size="10.00">+flagsUnused</text>
<text text-anchor="middle" x="847.547" y="-328" font-family="Helvetica,sans-Serif" font-size="10.00">+flags</text>
<text text-anchor="middle" x="847.547" y="-317" font-family="Helvetica,sans-Serif" font-size="10.00">+sVersion</text>
</g>
<!-- Node11 -->
<g id="node11" class="node"><title>Node11</title>
<polygon fill="none" stroke="#bfbfbf" points="968.047,-205.5 968.047,-262.5 1019.05,-262.5 1019.05,-205.5 968.047,-205.5"/>
<text text-anchor="middle" x="993.547" y="-250.5" font-family="Helvetica,sans-Serif" font-size="10.00">uint64_t</text>
<polyline fill="none" stroke="#bfbfbf" points="968.047,-243.5 1019.05,-243.5 "/>
<text text-anchor="middle" x="993.547" y="-231.5" font-family="Helvetica,sans-Serif" font-size="10.00"> </text>
<polyline fill="none" stroke="#bfbfbf" points="968.047,-224.5 1019.05,-224.5 "/>
<text text-anchor="middle" x="993.547" y="-212.5" font-family="Helvetica,sans-Serif" font-size="10.00"> </text>
</g>
<!-- Node11&#45;&gt;Node1 -->
<g id="edge23" class="edge"><title>Node11&#45;&gt;Node1</title>
<path fill="none" stroke="#404040" d="M976.697,-205.353C969.863,-194.678 961.674,-182.525 953.547,-172 940.668,-155.323 925.93,-138.083 911.706,-122.216"/>
<polygon fill="none" stroke="#404040" points="911.46,-121.944 904.469,-120.179 903.409,-113.046 910.4,-114.811 911.46,-121.944"/>
<text text-anchor="middle" x="962.547" y="-146" font-family="Helvetica,sans-Serif" font-size="10.00"> +duration</text>
<text text-anchor="middle" x="962.547" y="-135" font-family="Helvetica,sans-Serif" font-size="10.00">+startTime</text>
</g>
</g>
</svg>
        <g id="navigator" transform="translate(0 0)" fill="#404254">
                <rect fill="#f2f5e9" fill-opacity="0.5" stroke="#606060" stroke-width=".5" x="0" y="0" width="60" height="60"/>
                <use id="zoomplus" xlink:href="#zoomPlus" x="17" y="9" onmousedown="handleZoom(evt,'in')"/>
                <use id="zoomminus" xlink:href="#zoomMin" x="42" y="9" onmousedown="handleZoom(evt,'out')"/>
                <use id="reset" xlink:href="#resetDef" x="30" y="36" onmousedown="handleReset()"/>
                <g id="arrowUp" xlink:href="#dirArrow" transform="translate(30 24)" onmousedown="handlePan(0,-1)">
                  <use xlink:href="#rim" fill="#404040">
                        <set attributeName="fill" to="#808080" begin="arrowUp.mouseover" end="arrowUp.mouseout"/>
                  </use>
                  <path fill="none" stroke="white" stroke-width="1.5" d="M0,-3.0v7 M-2.5,-0.5L0,-3.0L2.5,-0.5"/>
                </g>
                <g id="arrowRight" xlink:href="#dirArrow" transform="rotate(90) translate(36 -43)" onmousedown="handlePan(1,0)">
                  <use xlink:href="#rim" fill="#404040">
                        <set attributeName="fill" to="#808080" begin="arrowRight.mouseover" end="arrowRight.mouseout"/>
                  </use>
                  <path fill="none" stroke="white" stroke-width="1.5" d="M0,-3.0v7 M-2.5,-0.5L0,-3.0L2.5,-0.5"/>
                </g>
                <g id="arrowDown" xlink:href="#dirArrow" transform="rotate(180) translate(-30 -48)" onmousedown="handlePan(0,1)">
                  <use xlink:href="#rim" fill="#404040">
                        <set attributeName="fill" to="#808080" begin="arrowDown.mouseover" end="arrowDown.mouseout"/>
                  </use>
                  <path fill="none" stroke="white" stroke-width="1.5" d="M0,-3.0v7 M-2.5,-0.5L0,-3.0L2.5,-0.5"/>
                </g>
                <g id="arrowLeft" xlink:href="#dirArrow" transform="rotate(270) translate(-36 17)" onmousedown="handlePan(-1,0)">
                  <use xlink:href="#rim" fill="#404040">
                        <set attributeName="fill" to="#808080" begin="arrowLeft.mouseover" end="arrowLeft.mouseout"/>
                  </use>
                  <path fill="none" stroke="white" stroke-width="1.5" d="M0,-3.0v7 M-2.5,-0.5L0,-3.0L2.5,-0.5"/>
                </g>
        </g>
        <svg viewBox="0 0 15 15" width="100%" height="30px" preserveAspectRatio="xMaxYMin meet">
         <g id="arrow_out" transform="scale(0.3 0.3)">
          <a xlink:href="structo2_1_1framework_1_1DataProcessingHeader__coll__graph_org.svg" target="_base">
           <rect id="button" ry="5" rx="5" y="6" x="6" height="38" width="38"
                fill="#f2f5e9" fill-opacity="0.5" stroke="#606060" stroke-width="1.0"/>
           <path id="arrow"
             d="M 11.500037,31.436501 C 11.940474,20.09759 22.043105,11.32322 32.158766,21.979434 L 37.068811,17.246167 C 37.068811,17.246167 37.088388,32 37.088388,32 L 22.160133,31.978069 C 22.160133,31.978069 26.997745,27.140456 26.997745,27.140456 C 18.528582,18.264221 13.291696,25.230495 11.500037,31.436501 z"
             style="fill:#404040;"/>
          </a>
         </g>
        </svg>
</svg>
