<?xml version="1.0" encoding="UTF-8" standalone="no"?>
<!DOCTYPE svg PUBLIC "-//W3C//DTD SVG 1.1//EN"
 "http://www.w3.org/Graphics/SVG/1.1/DTD/svg11.dtd">
<!-- Generated by graphviz version 2.36.0 (20140111.2315)
 -->
<!-- Title: /home/travis/build/AliceO2Group/AliceO2/Detectors/ITSMFT/common/simulation/include/ITSMFTSimulation/Digitizer.h Pages: 1 -->
<svg width="2381pt" height="400pt"
 viewBox="0.00 0.00 2381.00 400.00" xmlns="http://www.w3.org/2000/svg" xmlns:xlink="http://www.w3.org/1999/xlink">
<g id="graph0" class="graph" transform="scale(1 1) rotate(0) translate(4 396)">
<title>/home/travis/build/AliceO2Group/AliceO2/Detectors/ITSMFT/common/simulation/include/ITSMFTSimulation/Digitizer.h</title>
<!-- Node1 -->
<g id="node1" class="node"><title>Node1</title>
<polygon fill="#bfbfbf" stroke="black" points="366,-328.5 366,-391.5 548,-391.5 548,-328.5 366,-328.5"/>
<text text-anchor="start" x="374" y="-379.5" font-family="Helvetica,sans-Serif" font-size="10.00">/home/travis/build</text>
<text text-anchor="start" x="374" y="-368.5" font-family="Helvetica,sans-Serif" font-size="10.00">/AliceO2Group/AliceO2</text>
<text text-anchor="start" x="374" y="-357.5" font-family="Helvetica,sans-Serif" font-size="10.00">/Detectors/ITSMFT/common</text>
<text text-anchor="start" x="374" y="-346.5" font-family="Helvetica,sans-Serif" font-size="10.00">/simulation/include/ITSMFTSimulation</text>
<text text-anchor="middle" x="457" y="-335.5" font-family="Helvetica,sans-Serif" font-size="10.00">/Digitizer.h</text>
</g>
<!-- Node2 -->
<g id="node2" class="node"><title>Node2</title>
<polygon fill="none" stroke="#bfbfbf" points="470,-136.5 470,-155.5 514,-155.5 514,-136.5 470,-136.5"/>
<text text-anchor="middle" x="492" y="-143.5" font-family="Helvetica,sans-Serif" font-size="10.00">vector</text>
</g>
<!-- Node1&#45;&gt;Node2 -->
<g id="edge1" class="edge"><title>Node1&#45;&gt;Node2</title>
<path fill="none" stroke="midnightblue" d="M451.208,-328.471C446.018,-294.227 441.381,-237.523 457,-192 460.719,-181.161 468.233,-170.922 475.349,-162.957"/>
<polygon fill="midnightblue" stroke="midnightblue" points="478.054,-165.192 482.444,-155.55 472.999,-160.35 478.054,-165.192"/>
</g>
<!-- Node3 -->
<g id="node3" class="node"><title>Node3</title>
<polygon fill="none" stroke="#bfbfbf" points="855,-266.5 855,-285.5 907,-285.5 907,-266.5 855,-266.5"/>
<text text-anchor="middle" x="881" y="-273.5" font-family="Helvetica,sans-Serif" font-size="10.00">memory</text>
</g>
<!-- Node1&#45;&gt;Node3 -->
<g id="edge2" class="edge"><title>Node1&#45;&gt;Node3</title>
<path fill="none" stroke="midnightblue" d="M548.069,-349.122C627.537,-339.125 745.39,-320.956 845,-292 847.651,-291.229 850.372,-290.323 853.072,-289.345"/>
<polygon fill="midnightblue" stroke="midnightblue" points="854.577,-292.514 862.601,-285.596 852.014,-286 854.577,-292.514"/>
</g>
<!-- Node4 -->
<g id="node4" class="node"><title>Node4</title>
<polygon fill="none" stroke="#bfbfbf" points="533,-6.5 533,-25.5 589,-25.5 589,-6.5 533,-6.5"/>
<text text-anchor="middle" x="561" y="-13.5" font-family="Helvetica,sans-Serif" font-size="10.00">Rtypes.h</text>
</g>
<!-- Node1&#45;&gt;Node4 -->
<g id="edge3" class="edge"><title>Node1&#45;&gt;Node4</title>
<path fill="none" stroke="midnightblue" d="M365.891,-347.888C232.572,-329.046 0,-285.25 0,-209 0,-209 0,-209 0,-145 0,-37.5088 396.432,-20.2859 522.794,-17.5265"/>
<polygon fill="midnightblue" stroke="midnightblue" points="522.868,-21.0258 532.795,-17.3263 522.727,-14.0272 522.868,-21.0258"/>
</g>
<!-- Node5 -->
<g id="node5" class="node"><title>Node5</title>
<polygon fill="none" stroke="#bfbfbf" points="28.5,-136.5 28.5,-155.5 87.5,-155.5 87.5,-136.5 28.5,-136.5"/>
<text text-anchor="middle" x="58" y="-143.5" font-family="Helvetica,sans-Serif" font-size="10.00">TObject.h</text>
</g>
<!-- Node1&#45;&gt;Node5 -->
<g id="edge4" class="edge"><title>Node1&#45;&gt;Node5</title>
<path fill="none" stroke="midnightblue" d="M365.775,-334.91C329.765,-323.903 288.579,-309.404 253,-292 204.39,-268.221 195.423,-256.292 152,-224 124.549,-203.586 94.1571,-178.137 75.5653,-162.224"/>
<polygon fill="midnightblue" stroke="midnightblue" points="77.7699,-159.503 67.9063,-155.636 73.205,-164.81 77.7699,-159.503"/>
</g>
<!-- Node6 -->
<g id="node6" class="node"><title>Node6</title>
<g id="a_node6"><a xlink:href="../../d7/d9e/SimulationAlpide_8h.html" target="_top" xlink:title="Simulation of the ALIPIDE chip response. ">
<polygon fill="none" stroke="black" points="262.5,-261 262.5,-291 409.5,-291 409.5,-261 262.5,-261"/>
<text text-anchor="start" x="270.5" y="-279" font-family="Helvetica,sans-Serif" font-size="10.00">ITSMFTSimulation/Simulation</text>
<text text-anchor="middle" x="336" y="-268" font-family="Helvetica,sans-Serif" font-size="10.00">Alpide.h</text>
</a>
</g>
</g>
<!-- Node1&#45;&gt;Node6 -->
<g id="edge5" class="edge"><title>Node1&#45;&gt;Node6</title>
<path fill="none" stroke="midnightblue" d="M411.944,-328.466C396.253,-317.832 379.076,-306.192 365.033,-296.676"/>
<polygon fill="midnightblue" stroke="midnightblue" points="366.978,-293.765 356.736,-291.053 363.051,-299.56 366.978,-293.765"/>
</g>
<!-- Node26 -->
<g id="node26" class="node"><title>Node26</title>
<g id="a_node26"><a xlink:href="../../dc/d1a/AlpideSimResponse_8h.html" target="_top" xlink:title="Definition of the ITSMFT Alpide simulated response parametrization. ">
<polygon fill="none" stroke="black" points="466,-193 466,-223 612,-223 612,-193 466,-193"/>
<text text-anchor="start" x="474" y="-211" font-family="Helvetica,sans-Serif" font-size="10.00">ITSMFTSimulation/AlpideSim</text>
<text text-anchor="middle" x="539" y="-200" font-family="Helvetica,sans-Serif" font-size="10.00">Response.h</text>
</a>
</g>
</g>
<!-- Node1&#45;&gt;Node26 -->
<g id="edge37" class="edge"><title>Node1&#45;&gt;Node26</title>
<path fill="none" stroke="midnightblue" d="M465.747,-328.298C472.224,-308.083 482.145,-281.486 495,-260 501.252,-249.551 509.697,-239.165 517.517,-230.519"/>
<polygon fill="midnightblue" stroke="midnightblue" points="520.167,-232.81 524.442,-223.116 515.055,-228.028 520.167,-232.81"/>
</g>
<!-- Node29 -->
<g id="node29" class="node"><title>Node29</title>
<g id="a_node29"><a xlink:href="../../df/d29/DigiParams_8h.html" target="_top" xlink:title="Simulation parameters for the ALIPIDE chip. ">
<polygon fill="none" stroke="black" points="504.5,-266.5 504.5,-285.5 665.5,-285.5 665.5,-266.5 504.5,-266.5"/>
<text text-anchor="middle" x="585" y="-273.5" font-family="Helvetica,sans-Serif" font-size="10.00">ITSMFTSimulation/DigiParams.h</text>
</a>
</g>
</g>
<!-- Node1&#45;&gt;Node29 -->
<g id="edge38" class="edge"><title>Node1&#45;&gt;Node29</title>
<path fill="none" stroke="midnightblue" d="M504.662,-328.466C524.627,-315.677 546.864,-301.431 562.872,-291.176"/>
<polygon fill="midnightblue" stroke="midnightblue" points="564.981,-293.981 571.514,-285.64 561.205,-288.087 564.981,-293.981"/>
</g>
<!-- Node30 -->
<g id="node30" class="node"><title>Node30</title>
<g id="a_node30"><a xlink:href="../../d0/d2d/common_2base_2include_2ITSMFTBase_2GeometryTGeo_8h.html" target="_top" xlink:title="ITSMFTBase/GeometryTGeo.h">
<polygon fill="none" stroke="black" points="683.5,-266.5 683.5,-285.5 836.5,-285.5 836.5,-266.5 683.5,-266.5"/>
<text text-anchor="middle" x="760" y="-273.5" font-family="Helvetica,sans-Serif" font-size="10.00">ITSMFTBase/GeometryTGeo.h</text>
</a>
</g>
</g>
<!-- Node1&#45;&gt;Node30 -->
<g id="edge40" class="edge"><title>Node1&#45;&gt;Node30</title>
<path fill="none" stroke="midnightblue" d="M548.321,-334.286C605.063,-318.93 675.253,-299.935 718.833,-288.141"/>
<polygon fill="midnightblue" stroke="midnightblue" points="719.775,-291.512 728.514,-285.521 717.947,-284.755 719.775,-291.512"/>
</g>
<!-- Node6&#45;&gt;Node5 -->
<g id="edge6" class="edge"><title>Node6&#45;&gt;Node5</title>
<path fill="none" stroke="midnightblue" d="M305.454,-260.936C251.125,-235.921 138.493,-184.061 86.027,-159.905"/>
<polygon fill="midnightblue" stroke="midnightblue" points="87.2117,-156.597 76.6644,-155.594 84.284,-162.955 87.2117,-156.597"/>
</g>
<!-- Node7 -->
<g id="node7" class="node"><title>Node7</title>
<g id="a_node7"><a xlink:href="../../d9/d55/Chip_8h.html" target="_top" xlink:title="ITSMFTSimulation/Chip.h">
<polygon fill="none" stroke="black" points="271,-198.5 271,-217.5 401,-217.5 401,-198.5 271,-198.5"/>
<text text-anchor="middle" x="336" y="-205.5" font-family="Helvetica,sans-Serif" font-size="10.00">ITSMFTSimulation/Chip.h</text>
</a>
</g>
</g>
<!-- Node6&#45;&gt;Node7 -->
<g id="edge7" class="edge"><title>Node6&#45;&gt;Node7</title>
<path fill="none" stroke="midnightblue" d="M336,-260.679C336,-251.101 336,-238.394 336,-227.977"/>
<polygon fill="midnightblue" stroke="midnightblue" points="339.5,-227.828 336,-217.828 332.5,-227.828 339.5,-227.828"/>
</g>
<!-- Node6&#45;&gt;Node26 -->
<g id="edge32" class="edge"><title>Node6&#45;&gt;Node26</title>
<path fill="none" stroke="midnightblue" d="M379.549,-260.841C410.828,-250.672 453.151,-236.911 486.333,-226.123"/>
<polygon fill="midnightblue" stroke="midnightblue" points="487.444,-229.442 495.872,-223.022 485.28,-222.785 487.444,-229.442"/>
</g>
<!-- Node7&#45;&gt;Node2 -->
<g id="edge10" class="edge"><title>Node7&#45;&gt;Node2</title>
<path fill="none" stroke="midnightblue" d="M358.351,-198.403C384.995,-188.156 429.714,-170.956 460.014,-159.302"/>
<polygon fill="midnightblue" stroke="midnightblue" points="461.613,-162.437 469.69,-155.581 459.101,-155.904 461.613,-162.437"/>
</g>
<!-- Node7&#45;&gt;Node5 -->
<g id="edge12" class="edge"><title>Node7&#45;&gt;Node5</title>
<path fill="none" stroke="midnightblue" d="M294.313,-198.447C248.451,-188.97 172.306,-173.035 97.8687,-156.386"/>
<polygon fill="midnightblue" stroke="midnightblue" points="98.3793,-152.914 87.8556,-154.14 96.8469,-159.744 98.3793,-152.914"/>
</g>
<!-- Node8 -->
<g id="node8" class="node"><title>Node8</title>
<polygon fill="none" stroke="#bfbfbf" points="105.5,-136.5 105.5,-155.5 164.5,-155.5 164.5,-136.5 105.5,-136.5"/>
<text text-anchor="middle" x="135" y="-143.5" font-family="Helvetica,sans-Serif" font-size="10.00">exception</text>
</g>
<!-- Node7&#45;&gt;Node8 -->
<g id="edge8" class="edge"><title>Node7&#45;&gt;Node8</title>
<path fill="none" stroke="midnightblue" d="M307.202,-198.403C272.126,-187.933 212.737,-170.205 173.693,-158.55"/>
<polygon fill="midnightblue" stroke="midnightblue" points="174.328,-155.087 163.745,-155.581 172.326,-161.795 174.328,-155.087"/>
</g>
<!-- Node9 -->
<g id="node9" class="node"><title>Node9</title>
<polygon fill="none" stroke="#bfbfbf" points="183,-136.5 183,-155.5 235,-155.5 235,-136.5 183,-136.5"/>
<text text-anchor="middle" x="209" y="-143.5" font-family="Helvetica,sans-Serif" font-size="10.00">sstream</text>
</g>
<!-- Node7&#45;&gt;Node9 -->
<g id="edge9" class="edge"><title>Node7&#45;&gt;Node9</title>
<path fill="none" stroke="midnightblue" d="M317.804,-198.403C296.491,-188.334 260.969,-171.552 236.337,-159.915"/>
<polygon fill="midnightblue" stroke="midnightblue" points="237.699,-156.688 227.162,-155.581 234.709,-163.017 237.699,-156.688"/>
</g>
<!-- Node10 -->
<g id="node10" class="node"><title>Node10</title>
<polygon fill="none" stroke="#bfbfbf" points="253.5,-136.5 253.5,-155.5 288.5,-155.5 288.5,-136.5 253.5,-136.5"/>
<text text-anchor="middle" x="271" y="-143.5" font-family="Helvetica,sans-Serif" font-size="10.00">map</text>
</g>
<!-- Node7&#45;&gt;Node10 -->
<g id="edge11" class="edge"><title>Node7&#45;&gt;Node10</title>
<path fill="none" stroke="midnightblue" d="M326.687,-198.403C316.551,-189.047 300.136,-173.895 287.748,-162.46"/>
<polygon fill="midnightblue" stroke="midnightblue" points="290.018,-159.792 280.296,-155.581 285.27,-164.935 290.018,-159.792"/>
</g>
<!-- Node11 -->
<g id="node11" class="node"><title>Node11</title>
<g id="a_node11"><a xlink:href="../../d0/d06/ITSMFT_2common_2base_2include_2ITSMFTBase_2Digit_8h.html" target="_top" xlink:title="ITSMFTBase/Digit.h">
<polygon fill="none" stroke="black" points="306.5,-136.5 306.5,-155.5 413.5,-155.5 413.5,-136.5 306.5,-136.5"/>
<text text-anchor="middle" x="360" y="-143.5" font-family="Helvetica,sans-Serif" font-size="10.00">ITSMFTBase/Digit.h</text>
</a>
</g>
</g>
<!-- Node7&#45;&gt;Node11 -->
<g id="edge13" class="edge"><title>Node7&#45;&gt;Node11</title>
<path fill="none" stroke="midnightblue" d="M339.439,-198.403C342.896,-189.76 348.332,-176.17 352.746,-165.134"/>
<polygon fill="midnightblue" stroke="midnightblue" points="356.103,-166.165 356.568,-155.581 349.604,-163.565 356.103,-166.165"/>
</g>
<!-- Node13 -->
<g id="node13" class="node"><title>Node13</title>
<g id="a_node13"><a xlink:href="../../d7/dcd/MCCompLabel_8h.html" target="_top" xlink:title="SimulationDataFormat\l/MCCompLabel.h">
<polygon fill="none" stroke="black" points="400,-69 400,-99 514,-99 514,-69 400,-69"/>
<text text-anchor="start" x="408" y="-87" font-family="Helvetica,sans-Serif" font-size="10.00">SimulationDataFormat</text>
<text text-anchor="middle" x="457" y="-76" font-family="Helvetica,sans-Serif" font-size="10.00">/MCCompLabel.h</text>
</a>
</g>
</g>
<!-- Node7&#45;&gt;Node13 -->
<g id="edge19" class="edge"><title>Node7&#45;&gt;Node13</title>
<path fill="none" stroke="midnightblue" d="M357.801,-198.341C376.765,-189.901 403.96,-175.491 422,-156 434.515,-142.479 443.52,-123.648 449.26,-108.777"/>
<polygon fill="midnightblue" stroke="midnightblue" points="452.604,-109.822 452.715,-99.2278 446.022,-107.44 452.604,-109.822"/>
</g>
<!-- Node15 -->
<g id="node15" class="node"><title>Node15</title>
<g id="a_node15"><a xlink:href="../../dd/d76/Cartesian3D_8h.html" target="_top" xlink:title="MathUtils/Cartesian3D.h">
<polygon fill="none" stroke="black" points="1076.5,-136.5 1076.5,-155.5 1201.5,-155.5 1201.5,-136.5 1076.5,-136.5"/>
<text text-anchor="middle" x="1139" y="-143.5" font-family="Helvetica,sans-Serif" font-size="10.00">MathUtils/Cartesian3D.h</text>
</a>
</g>
</g>
<!-- Node7&#45;&gt;Node15 -->
<g id="edge20" class="edge"><title>Node7&#45;&gt;Node15</title>
<path fill="none" stroke="midnightblue" d="M399.038,-198.49C417.677,-196.161 438.14,-193.79 457,-192 678.469,-170.984 941.329,-156.615 1066.18,-150.429"/>
<polygon fill="midnightblue" stroke="midnightblue" points="1066.56,-153.914 1076.37,-149.927 1066.21,-146.923 1066.56,-153.914"/>
</g>
<!-- Node11&#45;&gt;Node4 -->
<g id="edge18" class="edge"><title>Node11&#45;&gt;Node4</title>
<path fill="none" stroke="midnightblue" d="M361.012,-136.466C363.344,-120.638 370.563,-86.6516 391,-68 427.511,-34.6787 485.018,-23.0918 522.87,-19.0845"/>
<polygon fill="midnightblue" stroke="midnightblue" points="523.358,-22.5542 532.991,-18.1434 522.71,-15.5843 523.358,-22.5542"/>
</g>
<!-- Node12 -->
<g id="node12" class="node"><title>Node12</title>
<polygon fill="none" stroke="#bfbfbf" points="138.5,-69 138.5,-99 233.5,-99 233.5,-69 138.5,-69"/>
<text text-anchor="start" x="146.5" y="-87" font-family="Helvetica,sans-Serif" font-size="10.00">boost/serialization</text>
<text text-anchor="middle" x="186" y="-76" font-family="Helvetica,sans-Serif" font-size="10.00">/base_object.hpp</text>
</g>
<!-- Node11&#45;&gt;Node12 -->
<g id="edge14" class="edge"><title>Node11&#45;&gt;Node12</title>
<path fill="none" stroke="midnightblue" d="M335.07,-136.403C309.437,-127.564 268.804,-113.553 236.43,-102.39"/>
<polygon fill="midnightblue" stroke="midnightblue" points="237.268,-98.9765 226.673,-99.0253 234.986,-105.594 237.268,-98.9765"/>
</g>
<!-- Node11&#45;&gt;Node13 -->
<g id="edge15" class="edge"><title>Node11&#45;&gt;Node13</title>
<path fill="none" stroke="midnightblue" d="M373.898,-136.403C387.281,-128.125 407.998,-115.311 425.398,-104.547"/>
<polygon fill="midnightblue" stroke="midnightblue" points="427.476,-107.378 434.139,-99.1408 423.793,-101.425 427.476,-107.378"/>
</g>
<!-- Node14 -->
<g id="node14" class="node"><title>Node14</title>
<polygon fill="none" stroke="#bfbfbf" points="252,-74.5 252,-93.5 344,-93.5 344,-74.5 252,-74.5"/>
<text text-anchor="middle" x="298" y="-81.5" font-family="Helvetica,sans-Serif" font-size="10.00">FairTimeStamp.h</text>
</g>
<!-- Node11&#45;&gt;Node14 -->
<g id="edge17" class="edge"><title>Node11&#45;&gt;Node14</title>
<path fill="none" stroke="midnightblue" d="M351.117,-136.403C341.541,-127.136 326.089,-112.183 314.314,-100.788"/>
<polygon fill="midnightblue" stroke="midnightblue" points="316.487,-98.0197 306.867,-93.5806 311.619,-103.05 316.487,-98.0197"/>
</g>
<!-- Node13&#45;&gt;Node4 -->
<g id="edge16" class="edge"><title>Node13&#45;&gt;Node4</title>
<path fill="none" stroke="midnightblue" d="M479.311,-68.8413C496.896,-57.6813 521.295,-42.1977 538.841,-31.0625"/>
<polygon fill="midnightblue" stroke="midnightblue" points="540.752,-33.9953 547.319,-25.6819 537.001,-28.085 540.752,-33.9953"/>
</g>
<!-- Node15&#45;&gt;Node4 -->
<g id="edge24" class="edge"><title>Node15&#45;&gt;Node4</title>
<path fill="none" stroke="midnightblue" d="M1076.05,-144.964C958.936,-143.988 712.587,-137.393 637,-100 607.503,-85.4077 583.92,-54.0861 571.239,-34.3668"/>
<polygon fill="midnightblue" stroke="midnightblue" points="574.144,-32.4105 565.911,-25.7426 568.189,-36.0896 574.144,-32.4105"/>
</g>
<!-- Node16 -->
<g id="node16" class="node"><title>Node16</title>
<polygon fill="none" stroke="#bfbfbf" points="717.5,-74.5 717.5,-93.5 866.5,-93.5 866.5,-74.5 717.5,-74.5"/>
<text text-anchor="middle" x="792" y="-81.5" font-family="Helvetica,sans-Serif" font-size="10.00">Math/GenVector/Rotation3D.h</text>
</g>
<!-- Node15&#45;&gt;Node16 -->
<g id="edge21" class="edge"><title>Node15&#45;&gt;Node16</title>
<path fill="none" stroke="midnightblue" d="M1088.56,-136.482C1035.61,-127.512 949.922,-112.924 876,-100 867.412,-98.4985 858.333,-96.8946 849.443,-95.3148"/>
<polygon fill="midnightblue" stroke="midnightblue" points="849.981,-91.8557 839.523,-93.5481 848.754,-98.7472 849.981,-91.8557"/>
</g>
<!-- Node17 -->
<g id="node17" class="node"><title>Node17</title>
<polygon fill="none" stroke="#bfbfbf" points="885,-74.5 885,-93.5 1041,-93.5 1041,-74.5 885,-74.5"/>
<text text-anchor="middle" x="963" y="-81.5" font-family="Helvetica,sans-Serif" font-size="10.00">Math/GenVector/Transform3D.h</text>
</g>
<!-- Node15&#45;&gt;Node17 -->
<g id="edge22" class="edge"><title>Node15&#45;&gt;Node17</title>
<path fill="none" stroke="midnightblue" d="M1113.78,-136.403C1083.33,-126.022 1031.95,-108.506 997.757,-96.849"/>
<polygon fill="midnightblue" stroke="midnightblue" points="998.764,-93.4946 988.17,-93.5806 996.505,-100.12 998.764,-93.4946"/>
</g>
<!-- Node18 -->
<g id="node18" class="node"><title>Node18</title>
<polygon fill="none" stroke="#bfbfbf" points="1059,-74.5 1059,-93.5 1219,-93.5 1219,-74.5 1059,-74.5"/>
<text text-anchor="middle" x="1139" y="-81.5" font-family="Helvetica,sans-Serif" font-size="10.00">Math/GenVector/Translation3D.h</text>
</g>
<!-- Node15&#45;&gt;Node18 -->
<g id="edge23" class="edge"><title>Node15&#45;&gt;Node18</title>
<path fill="none" stroke="midnightblue" d="M1139,-136.403C1139,-127.938 1139,-114.728 1139,-103.82"/>
<polygon fill="midnightblue" stroke="midnightblue" points="1142.5,-103.581 1139,-93.5806 1135.5,-103.581 1142.5,-103.581"/>
</g>
<!-- Node19 -->
<g id="node19" class="node"><title>Node19</title>
<polygon fill="none" stroke="#bfbfbf" points="1237,-74.5 1237,-93.5 1313,-93.5 1313,-74.5 1237,-74.5"/>
<text text-anchor="middle" x="1275" y="-81.5" font-family="Helvetica,sans-Serif" font-size="10.00">TGeoMatrix.h</text>
</g>
<!-- Node15&#45;&gt;Node19 -->
<g id="edge25" class="edge"><title>Node15&#45;&gt;Node19</title>
<path fill="none" stroke="midnightblue" d="M1158.49,-136.403C1181.41,-126.29 1219.69,-109.404 1246.08,-97.761"/>
<polygon fill="midnightblue" stroke="midnightblue" points="1247.81,-100.819 1255.55,-93.5806 1244.99,-94.4148 1247.81,-100.819"/>
</g>
<!-- Node20 -->
<g id="node20" class="node"><title>Node20</title>
<polygon fill="none" stroke="#bfbfbf" points="1331.5,-69 1331.5,-99 1482.5,-99 1482.5,-69 1331.5,-69"/>
<text text-anchor="start" x="1339.5" y="-87" font-family="Helvetica,sans-Serif" font-size="10.00">Math/GenVector/Displacement</text>
<text text-anchor="middle" x="1407" y="-76" font-family="Helvetica,sans-Serif" font-size="10.00">Vector3D.h</text>
</g>
<!-- Node15&#45;&gt;Node20 -->
<g id="edge26" class="edge"><title>Node15&#45;&gt;Node20</title>
<path fill="none" stroke="midnightblue" d="M1177.11,-136.467C1217.89,-127.337 1283.55,-112.638 1334.28,-101.281"/>
<polygon fill="midnightblue" stroke="midnightblue" points="1335.22,-104.657 1344.21,-99.0565 1333.69,-97.8259 1335.22,-104.657"/>
</g>
<!-- Node21 -->
<g id="node21" class="node"><title>Node21</title>
<polygon fill="none" stroke="#bfbfbf" points="1501,-74.5 1501,-93.5 1677,-93.5 1677,-74.5 1501,-74.5"/>
<text text-anchor="middle" x="1589" y="-81.5" font-family="Helvetica,sans-Serif" font-size="10.00">Math/GenVector/PositionVector3D.h</text>
</g>
<!-- Node15&#45;&gt;Node21 -->
<g id="edge27" class="edge"><title>Node15&#45;&gt;Node21</title>
<path fill="none" stroke="midnightblue" d="M1201.69,-137.46C1272.14,-128.877 1389.88,-114.201 1491,-100 1501.9,-98.4698 1513.46,-96.7684 1524.68,-95.0768"/>
<polygon fill="midnightblue" stroke="midnightblue" points="1525.5,-98.4927 1534.86,-93.5311 1524.45,-91.5721 1525.5,-98.4927"/>
</g>
<!-- Node22 -->
<g id="node22" class="node"><title>Node22</title>
<g id="a_node22"><a xlink:href="../../d2/dd0/Cartesian2D_8h.html" target="_top" xlink:title="MathUtils/Cartesian2D.h">
<polygon fill="none" stroke="black" points="1771.5,-74.5 1771.5,-93.5 1896.5,-93.5 1896.5,-74.5 1771.5,-74.5"/>
<text text-anchor="middle" x="1834" y="-81.5" font-family="Helvetica,sans-Serif" font-size="10.00">MathUtils/Cartesian2D.h</text>
</a>
</g>
</g>
<!-- Node15&#45;&gt;Node22 -->
<g id="edge28" class="edge"><title>Node15&#45;&gt;Node22</title>
<path fill="none" stroke="midnightblue" d="M1201.68,-140.205C1303.22,-132.353 1510.01,-116.018 1685,-100 1709.81,-97.7293 1736.92,-95.0572 1761.13,-92.6021"/>
<polygon fill="midnightblue" stroke="midnightblue" points="1761.72,-96.0602 1771.31,-91.5651 1761.01,-89.0962 1761.72,-96.0602"/>
</g>
<!-- Node25 -->
<g id="node25" class="node"><title>Node25</title>
<polygon fill="none" stroke="#bfbfbf" points="646,-74.5 646,-93.5 700,-93.5 700,-74.5 646,-74.5"/>
<text text-anchor="middle" x="673" y="-81.5" font-family="Helvetica,sans-Serif" font-size="10.00">iostream</text>
</g>
<!-- Node15&#45;&gt;Node25 -->
<g id="edge31" class="edge"><title>Node15&#45;&gt;Node25</title>
<path fill="none" stroke="midnightblue" d="M1076.22,-144.318C991.364,-142.076 835.965,-133.284 708,-100 705.181,-99.2667 702.295,-98.3415 699.45,-97.3122"/>
<polygon fill="midnightblue" stroke="midnightblue" points="700.667,-94.0293 690.084,-93.5387 698.051,-100.522 700.667,-94.0293"/>
</g>
<!-- Node23 -->
<g id="node23" class="node"><title>Node23</title>
<polygon fill="none" stroke="#bfbfbf" points="1587.5,-1 1587.5,-31 1738.5,-31 1738.5,-1 1587.5,-1"/>
<text text-anchor="start" x="1595.5" y="-19" font-family="Helvetica,sans-Serif" font-size="10.00">Math/GenVector/Displacement</text>
<text text-anchor="middle" x="1663" y="-8" font-family="Helvetica,sans-Serif" font-size="10.00">Vector2D.h</text>
</g>
<!-- Node22&#45;&gt;Node23 -->
<g id="edge29" class="edge"><title>Node22&#45;&gt;Node23</title>
<path fill="none" stroke="midnightblue" d="M1811.64,-74.3717C1785.69,-64.3539 1742.19,-47.5661 1708.94,-34.7312"/>
<polygon fill="midnightblue" stroke="midnightblue" points="1710.01,-31.3918 1699.42,-31.0562 1707.49,-37.9223 1710.01,-31.3918"/>
</g>
<!-- Node24 -->
<g id="node24" class="node"><title>Node24</title>
<polygon fill="none" stroke="#bfbfbf" points="1757,-6.5 1757,-25.5 1933,-25.5 1933,-6.5 1757,-6.5"/>
<text text-anchor="middle" x="1845" y="-13.5" font-family="Helvetica,sans-Serif" font-size="10.00">Math/GenVector/PositionVector2D.h</text>
</g>
<!-- Node22&#45;&gt;Node24 -->
<g id="edge30" class="edge"><title>Node22&#45;&gt;Node24</title>
<path fill="none" stroke="midnightblue" d="M1835.44,-74.3717C1837.06,-64.6426 1839.75,-48.528 1841.86,-35.8504"/>
<polygon fill="midnightblue" stroke="midnightblue" points="1845.33,-36.2805 1843.53,-25.8411 1838.43,-35.1296 1845.33,-36.2805"/>
</g>
<!-- Node26&#45;&gt;Node2 -->
<g id="edge35" class="edge"><title>Node26&#45;&gt;Node2</title>
<path fill="none" stroke="midnightblue" d="M527.862,-192.781C521.032,-184.062 512.255,-172.857 505.094,-163.715"/>
<polygon fill="midnightblue" stroke="midnightblue" points="507.761,-161.445 498.839,-155.731 502.25,-165.761 507.761,-161.445"/>
</g>
<!-- Node26&#45;&gt;Node4 -->
<g id="edge36" class="edge"><title>Node26&#45;&gt;Node4</title>
<path fill="none" stroke="midnightblue" d="M540.654,-192.719C544.566,-158.932 554.391,-74.0746 558.8,-36.0035"/>
<polygon fill="midnightblue" stroke="midnightblue" points="562.308,-36.135 559.981,-25.7988 555.354,-35.3298 562.308,-36.135"/>
</g>
<!-- Node27 -->
<g id="node27" class="node"><title>Node27</title>
<polygon fill="none" stroke="#bfbfbf" points="1963,-6.5 1963,-25.5 2001,-25.5 2001,-6.5 1963,-6.5"/>
<text text-anchor="middle" x="1982" y="-13.5" font-family="Helvetica,sans-Serif" font-size="10.00">array</text>
</g>
<!-- Node26&#45;&gt;Node27 -->
<g id="edge33" class="edge"><title>Node26&#45;&gt;Node27</title>
<path fill="none" stroke="midnightblue" d="M612.213,-202.749C887.295,-186.587 1846.38,-128.437 1905,-100 1912.99,-96.1226 1948.1,-56.3238 1968.04,-33.2757"/>
<polygon fill="midnightblue" stroke="midnightblue" points="1970.74,-35.4998 1974.62,-25.6398 1965.44,-30.9301 1970.74,-35.4998"/>
</g>
<!-- Node28 -->
<g id="node28" class="node"><title>Node28</title>
<polygon fill="none" stroke="#bfbfbf" points="570.5,-136.5 570.5,-155.5 611.5,-155.5 611.5,-136.5 570.5,-136.5"/>
<text text-anchor="middle" x="591" y="-143.5" font-family="Helvetica,sans-Serif" font-size="10.00">string</text>
</g>
<!-- Node26&#45;&gt;Node28 -->
<g id="edge34" class="edge"><title>Node26&#45;&gt;Node28</title>
<path fill="none" stroke="midnightblue" d="M551.323,-192.781C558.957,-183.972 568.791,-172.626 576.758,-163.433"/>
<polygon fill="midnightblue" stroke="midnightblue" points="579.529,-165.58 583.434,-155.731 574.239,-160.995 579.529,-165.58"/>
</g>
<!-- Node29&#45;&gt;Node4 -->
<g id="edge39" class="edge"><title>Node29&#45;&gt;Node4</title>
<path fill="none" stroke="midnightblue" d="M593.848,-266.19C602.683,-256.713 615.689,-240.735 621,-224 624.135,-214.123 623.9,-148.073 620,-136 614.013,-117.463 604.303,-117.115 595,-100 583.409,-78.6764 573.329,-52.552 567.217,-35.3765"/>
<polygon fill="midnightblue" stroke="midnightblue" points="570.382,-33.8221 563.797,-25.5224 563.769,-36.1172 570.382,-33.8221"/>
</g>
<!-- Node30&#45;&gt;Node28 -->
<g id="edge58" class="edge"><title>Node30&#45;&gt;Node28</title>
<path fill="none" stroke="midnightblue" d="M748.649,-266.403C720.267,-244.906 645.956,-188.623 610.443,-161.726"/>
<polygon fill="midnightblue" stroke="midnightblue" points="612.386,-158.807 602.302,-155.56 608.16,-164.388 612.386,-158.807"/>
</g>
<!-- Node31 -->
<g id="node31" class="node"><title>Node31</title>
<g id="a_node31"><a xlink:href="../../d4/d20/DetMatrixCache_8h.html" target="_top" xlink:title="DetectorsBase/DetMatrixCache.h">
<polygon fill="none" stroke="black" points="1340,-198.5 1340,-217.5 1504,-217.5 1504,-198.5 1340,-198.5"/>
<text text-anchor="middle" x="1422" y="-205.5" font-family="Helvetica,sans-Serif" font-size="10.00">DetectorsBase/DetMatrixCache.h</text>
</a>
</g>
</g>
<!-- Node30&#45;&gt;Node31 -->
<g id="edge41" class="edge"><title>Node30&#45;&gt;Node31</title>
<path fill="none" stroke="midnightblue" d="M804.526,-266.497C817.831,-264.156 832.476,-261.775 846,-260 1016.05,-237.682 1215.67,-222.438 1329.65,-214.767"/>
<polygon fill="midnightblue" stroke="midnightblue" points="1329.99,-218.252 1339.73,-214.093 1329.52,-211.267 1329.99,-218.252"/>
</g>
<!-- Node40 -->
<g id="node40" class="node"><title>Node40</title>
<polygon fill="none" stroke="#bfbfbf" points="1522.5,-198.5 1522.5,-217.5 1591.5,-217.5 1591.5,-198.5 1522.5,-198.5"/>
<text text-anchor="middle" x="1557" y="-205.5" font-family="Helvetica,sans-Serif" font-size="10.00">TObjArray.h</text>
</g>
<!-- Node30&#45;&gt;Node40 -->
<g id="edge57" class="edge"><title>Node30&#45;&gt;Node40</title>
<path fill="none" stroke="midnightblue" d="M803.164,-266.439C816.816,-264.009 831.995,-261.594 846,-260 1140.97,-226.436 1221.54,-280.428 1513,-224 1517.28,-223.172 1521.71,-222.025 1526.04,-220.732"/>
<polygon fill="midnightblue" stroke="midnightblue" points="1527.42,-223.963 1535.84,-217.528 1525.24,-217.31 1527.42,-223.963"/>
</g>
<!-- Node31&#45;&gt;Node2 -->
<g id="edge42" class="edge"><title>Node31&#45;&gt;Node2</title>
<path fill="none" stroke="midnightblue" d="M1339.94,-204.068C1186.65,-198.163 846.477,-183.039 561,-156 548.937,-154.857 535.736,-153.229 524.139,-151.67"/>
<polygon fill="midnightblue" stroke="midnightblue" points="524.403,-148.174 514.018,-150.274 523.446,-155.108 524.403,-148.174"/>
</g>
<!-- Node31&#45;&gt;Node4 -->
<g id="edge55" class="edge"><title>Node31&#45;&gt;Node4</title>
<path fill="none" stroke="midnightblue" d="M1477.44,-198.46C1573.21,-181.589 1753.15,-139.313 1685,-68 1646.69,-27.9139 791.94,-18.8149 599.321,-17.2708"/>
<polygon fill="midnightblue" stroke="midnightblue" points="599.143,-13.7694 589.116,-17.1911 599.088,-20.7692 599.143,-13.7694"/>
</g>
<!-- Node31&#45;&gt;Node15 -->
<g id="edge44" class="edge"><title>Node31&#45;&gt;Node15</title>
<path fill="none" stroke="midnightblue" d="M1381.75,-198.467C1331.04,-187.716 1243.89,-169.239 1188.97,-157.595"/>
<polygon fill="midnightblue" stroke="midnightblue" points="1189.62,-154.154 1179.11,-155.503 1188.16,-161.001 1189.62,-154.154"/>
</g>
<!-- Node31&#45;&gt;Node27 -->
<g id="edge43" class="edge"><title>Node31&#45;&gt;Node27</title>
<path fill="none" stroke="midnightblue" d="M1473.04,-198.463C1551.55,-185.295 1695.4,-161.022 1719,-156 1817.69,-135.001 1859.98,-162.736 1939,-100 1959.72,-83.5512 1971.49,-54.3976 1977.3,-35.3879"/>
<polygon fill="midnightblue" stroke="midnightblue" points="1980.73,-36.1137 1980.06,-25.5402 1973.99,-34.2252 1980.73,-36.1137"/>
</g>
<!-- Node32 -->
<g id="node32" class="node"><title>Node32</title>
<g id="a_node32"><a xlink:href="../../d6/d31/DetID_8h.html" target="_top" xlink:title="DetectorsBase/DetID.h">
<polygon fill="none" stroke="black" points="2064.5,-136.5 2064.5,-155.5 2183.5,-155.5 2183.5,-136.5 2064.5,-136.5"/>
<text text-anchor="middle" x="2124" y="-143.5" font-family="Helvetica,sans-Serif" font-size="10.00">DetectorsBase/DetID.h</text>
</a>
</g>
</g>
<!-- Node31&#45;&gt;Node32 -->
<g id="edge45" class="edge"><title>Node31&#45;&gt;Node32</title>
<path fill="none" stroke="midnightblue" d="M1469.16,-198.427C1483.51,-196.055 1499.37,-193.676 1514,-192 1750.14,-164.955 1813.46,-179.193 2054.08,-156.022"/>
<polygon fill="midnightblue" stroke="midnightblue" points="2054.57,-159.491 2064.19,-155.037 2053.89,-152.524 2054.57,-159.491"/>
</g>
<!-- Node39 -->
<g id="node39" class="node"><title>Node39</title>
<polygon fill="none" stroke="#bfbfbf" points="1975.5,-136.5 1975.5,-155.5 2046.5,-155.5 2046.5,-136.5 1975.5,-136.5"/>
<text text-anchor="middle" x="2011" y="-143.5" font-family="Helvetica,sans-Serif" font-size="10.00">FairLogger.h</text>
</g>
<!-- Node31&#45;&gt;Node39 -->
<g id="edge56" class="edge"><title>Node31&#45;&gt;Node39</title>
<path fill="none" stroke="midnightblue" d="M1469.64,-198.476C1483.88,-196.134 1499.54,-193.758 1514,-192 1711.85,-167.944 1763.35,-181.685 1961,-156 1962.45,-155.812 1963.92,-155.61 1965.4,-155.398"/>
<polygon fill="midnightblue" stroke="midnightblue" points="1965.94,-158.856 1975.29,-153.866 1964.87,-151.939 1965.94,-158.856"/>
</g>
<!-- Node32&#45;&gt;Node4 -->
<g id="edge49" class="edge"><title>Node32&#45;&gt;Node4</title>
<path fill="none" stroke="midnightblue" d="M2064.16,-137.169C2061.07,-136.772 2058,-136.38 2055,-136 1925.28,-119.544 1884.64,-147.983 1763,-100 1740.51,-91.1269 1741.83,-75.9818 1719,-68 1611.45,-30.3891 787.873,-19.4098 599.356,-17.3777"/>
<polygon fill="midnightblue" stroke="midnightblue" points="599.141,-13.8754 589.105,-17.2694 599.067,-20.875 599.141,-13.8754"/>
</g>
<!-- Node32&#45;&gt;Node27 -->
<g id="edge47" class="edge"><title>Node32&#45;&gt;Node27</title>
<path fill="none" stroke="midnightblue" d="M2087.99,-136.496C2066.04,-129.738 2038.69,-118.307 2020,-100 2001.82,-82.1944 1991.49,-54.0686 1986.32,-35.5757"/>
<polygon fill="midnightblue" stroke="midnightblue" points="1989.67,-34.5377 1983.8,-25.7178 1982.89,-36.2734 1989.67,-34.5377"/>
</g>
<!-- Node33 -->
<g id="node33" class="node"><title>Node33</title>
<polygon fill="none" stroke="#bfbfbf" points="2029,-74.5 2029,-93.5 2075,-93.5 2075,-74.5 2029,-74.5"/>
<text text-anchor="middle" x="2052" y="-81.5" font-family="Helvetica,sans-Serif" font-size="10.00">cstdint</text>
</g>
<!-- Node32&#45;&gt;Node33 -->
<g id="edge46" class="edge"><title>Node32&#45;&gt;Node33</title>
<path fill="none" stroke="midnightblue" d="M2113.68,-136.403C2102.35,-126.958 2083.93,-111.606 2070.16,-100.134"/>
<polygon fill="midnightblue" stroke="midnightblue" points="2072.22,-97.2937 2062.3,-93.5806 2067.74,-102.671 2072.22,-97.2937"/>
</g>
<!-- Node34 -->
<g id="node34" class="node"><title>Node34</title>
<polygon fill="none" stroke="#bfbfbf" points="2093,-74.5 2093,-93.5 2155,-93.5 2155,-74.5 2093,-74.5"/>
<text text-anchor="middle" x="2124" y="-81.5" font-family="Helvetica,sans-Serif" font-size="10.00">type_traits</text>
</g>
<!-- Node32&#45;&gt;Node34 -->
<g id="edge48" class="edge"><title>Node32&#45;&gt;Node34</title>
<path fill="none" stroke="midnightblue" d="M2124,-136.403C2124,-127.938 2124,-114.728 2124,-103.82"/>
<polygon fill="midnightblue" stroke="midnightblue" points="2127.5,-103.581 2124,-93.5806 2120.5,-103.581 2127.5,-103.581"/>
</g>
<!-- Node35 -->
<g id="node35" class="node"><title>Node35</title>
<g id="a_node35"><a xlink:href="../../d9/ded/Utils_8h.html" target="_top" xlink:title="DetectorsBase/Utils.h">
<polygon fill="none" stroke="black" points="2240.5,-74.5 2240.5,-93.5 2353.5,-93.5 2353.5,-74.5 2240.5,-74.5"/>
<text text-anchor="middle" x="2297" y="-81.5" font-family="Helvetica,sans-Serif" font-size="10.00">DetectorsBase/Utils.h</text>
</a>
</g>
</g>
<!-- Node32&#45;&gt;Node35 -->
<g id="edge50" class="edge"><title>Node32&#45;&gt;Node35</title>
<path fill="none" stroke="midnightblue" d="M2148.79,-136.403C2178.59,-126.067 2228.79,-108.656 2262.4,-96.9994"/>
<polygon fill="midnightblue" stroke="midnightblue" points="2263.96,-100.164 2272.26,-93.5806 2261.66,-93.5506 2263.96,-100.164"/>
</g>
<!-- Node38 -->
<g id="node38" class="node"><title>Node38</title>
<polygon fill="none" stroke="#bfbfbf" points="2173.5,-74.5 2173.5,-93.5 2222.5,-93.5 2222.5,-74.5 2173.5,-74.5"/>
<text text-anchor="middle" x="2198" y="-81.5" font-family="Helvetica,sans-Serif" font-size="10.00">cassert</text>
</g>
<!-- Node32&#45;&gt;Node38 -->
<g id="edge54" class="edge"><title>Node32&#45;&gt;Node38</title>
<path fill="none" stroke="midnightblue" d="M2134.6,-136.403C2146.25,-126.958 2165.19,-111.606 2179.33,-100.134"/>
<polygon fill="midnightblue" stroke="midnightblue" points="2181.85,-102.597 2187.42,-93.5806 2177.45,-97.16 2181.85,-102.597"/>
</g>
<!-- Node35&#45;&gt;Node27 -->
<g id="edge53" class="edge"><title>Node35&#45;&gt;Node27</title>
<path fill="none" stroke="midnightblue" d="M2260.03,-74.4508C2250.57,-72.3047 2240.42,-70.0345 2231,-68 2151.57,-50.8417 2057.57,-31.9781 2011.06,-22.7416"/>
<polygon fill="midnightblue" stroke="midnightblue" points="2011.57,-19.2758 2001.08,-20.7638 2010.21,-26.1421 2011.57,-19.2758"/>
</g>
<!-- Node36 -->
<g id="node36" class="node"><title>Node36</title>
<g id="a_node36"><a xlink:href="../../d1/daa/Base_2include_2DetectorsBase_2Constants_8h.html" target="_top" xlink:title="DetectorsBase/Constants.h">
<polygon fill="none" stroke="black" points="2173,-6.5 2173,-25.5 2311,-25.5 2311,-6.5 2173,-6.5"/>
<text text-anchor="middle" x="2242" y="-13.5" font-family="Helvetica,sans-Serif" font-size="10.00">DetectorsBase/Constants.h</text>
</a>
</g>
</g>
<!-- Node35&#45;&gt;Node36 -->
<g id="edge51" class="edge"><title>Node35&#45;&gt;Node36</title>
<path fill="none" stroke="midnightblue" d="M2289.81,-74.3717C2281.21,-64.053 2266.63,-46.5513 2255.82,-33.5854"/>
<polygon fill="midnightblue" stroke="midnightblue" points="2258.46,-31.2827 2249.37,-25.8411 2253.08,-35.764 2258.46,-31.2827"/>
</g>
<!-- Node37 -->
<g id="node37" class="node"><title>Node37</title>
<polygon fill="none" stroke="#bfbfbf" points="2329,-6.5 2329,-25.5 2373,-25.5 2373,-6.5 2329,-6.5"/>
<text text-anchor="middle" x="2351" y="-13.5" font-family="Helvetica,sans-Serif" font-size="10.00">cmath</text>
</g>
<!-- Node35&#45;&gt;Node37 -->
<g id="edge52" class="edge"><title>Node35&#45;&gt;Node37</title>
<path fill="none" stroke="midnightblue" d="M2304.06,-74.3717C2312.5,-64.053 2326.82,-46.5513 2337.43,-33.5854"/>
<polygon fill="midnightblue" stroke="midnightblue" points="2340.14,-35.7971 2343.77,-25.8411 2334.73,-31.3644 2340.14,-35.7971"/>
</g>
</g>
</svg>
