<?xml version="1.0" encoding="UTF-8" standalone="no"?>
<!DOCTYPE svg PUBLIC "-//W3C//DTD SVG 1.1//EN"
 "http://www.w3.org/Graphics/SVG/1.1/DTD/svg11.dtd">
<!-- Generated by graphviz version 2.36.0 (20140111.2315)
 -->
<!-- Title: /home/travis/build/AliceO2Group/AliceO2/Detectors/ITSMFT/MFT/simulation/src/DigitizerTask.cxx Pages: 1 -->
<svg width="2653pt" height="502pt"
 viewBox="0.00 0.00 2653.00 502.00" xmlns="http://www.w3.org/2000/svg" xmlns:xlink="http://www.w3.org/1999/xlink">
<g id="graph0" class="graph" transform="scale(1 1) rotate(0) translate(4 498)">
<title>/home/travis/build/AliceO2Group/AliceO2/Detectors/ITSMFT/MFT/simulation/src/DigitizerTask.cxx</title>
<!-- Node1 -->
<g id="node1" class="node"><title>Node1</title>
<polygon fill="#bfbfbf" stroke="black" points="2255,-441 2255,-493 2415,-493 2415,-441 2255,-441"/>
<text text-anchor="start" x="2263" y="-481" font-family="Helvetica,sans-Serif" font-size="10.00">/home/travis/build</text>
<text text-anchor="start" x="2263" y="-470" font-family="Helvetica,sans-Serif" font-size="10.00">/AliceO2Group/AliceO2</text>
<text text-anchor="start" x="2263" y="-459" font-family="Helvetica,sans-Serif" font-size="10.00">/Detectors/ITSMFT/MFT</text>
<text text-anchor="middle" x="2335" y="-448" font-family="Helvetica,sans-Serif" font-size="10.00">/simulation/src/DigitizerTask.cxx</text>
</g>
<!-- Node2 -->
<g id="node2" class="node"><title>Node2</title>
<g id="a_node2"><a xlink:href="../../dd/d11/ITSMFT_2MFT_2simulation_2include_2MFTSimulation_2DigitizerTask_8h.html" target="_top" xlink:title="MFTSimulation/DigitizerTask.h">
<polygon fill="none" stroke="black" points="1572,-384.5 1572,-403.5 1724,-403.5 1724,-384.5 1572,-384.5"/>
<text text-anchor="middle" x="1648" y="-391.5" font-family="Helvetica,sans-Serif" font-size="10.00">MFTSimulation/DigitizerTask.h</text>
</a>
</g>
</g>
<!-- Node1&#45;&gt;Node2 -->
<g id="edge1" class="edge"><title>Node1&#45;&gt;Node2</title>
<path fill="none" stroke="midnightblue" d="M2254.85,-457.716C2124.71,-444.267 1868.54,-417.792 1734.46,-403.935"/>
<polygon fill="midnightblue" stroke="midnightblue" points="1734.54,-400.425 1724.23,-402.878 1733.82,-407.388 1734.54,-400.425"/>
</g>
<!-- Node39 -->
<g id="node39" class="node"><title>Node39</title>
<g id="a_node39"><a xlink:href="../../d9/ded/Utils_8h.html" target="_top" xlink:title="DetectorsBase/Utils.h">
<polygon fill="none" stroke="black" points="2261.5,-74.5 2261.5,-93.5 2374.5,-93.5 2374.5,-74.5 2261.5,-74.5"/>
<text text-anchor="middle" x="2318" y="-81.5" font-family="Helvetica,sans-Serif" font-size="10.00">DetectorsBase/Utils.h</text>
</a>
</g>
</g>
<!-- Node1&#45;&gt;Node39 -->
<g id="edge72" class="edge"><title>Node1&#45;&gt;Node39</title>
<path fill="none" stroke="midnightblue" d="M2343.37,-440.53C2350.97,-415.109 2361,-374.784 2361,-339 2361,-339 2361,-339 2361,-207 2361,-167.875 2341.09,-125.499 2328.36,-102.418"/>
<polygon fill="midnightblue" stroke="midnightblue" points="2331.27,-100.458 2323.27,-93.5118 2325.19,-103.931 2331.27,-100.458"/>
</g>
<!-- Node43 -->
<g id="node43" class="node"><title>Node43</title>
<polygon fill="none" stroke="#bfbfbf" points="2261.5,-136.5 2261.5,-155.5 2332.5,-155.5 2332.5,-136.5 2261.5,-136.5"/>
<text text-anchor="middle" x="2297" y="-143.5" font-family="Helvetica,sans-Serif" font-size="10.00">FairLogger.h</text>
</g>
<!-- Node1&#45;&gt;Node43 -->
<g id="edge74" class="edge"><title>Node1&#45;&gt;Node43</title>
<path fill="none" stroke="midnightblue" d="M2327.09,-440.985C2319.77,-415.575 2310,-374.955 2310,-339 2310,-339 2310,-339 2310,-275 2310,-236.049 2303.97,-190.77 2300.12,-165.858"/>
<polygon fill="midnightblue" stroke="midnightblue" points="2303.53,-164.982 2298.49,-155.66 2296.61,-166.088 2303.53,-164.982"/>
</g>
<!-- Node45 -->
<g id="node45" class="node"><title>Node45</title>
<g id="a_node45"><a xlink:href="../../d0/dae/ITSMFT_2common_2simulation_2include_2ITSMFTSimulation_2Hit_8h.html" target="_top" xlink:title="ITSMFTSimulation/Hit.h">
<polygon fill="none" stroke="black" points="322,-266.5 322,-285.5 444,-285.5 444,-266.5 322,-266.5"/>
<text text-anchor="middle" x="383" y="-273.5" font-family="Helvetica,sans-Serif" font-size="10.00">ITSMFTSimulation/Hit.h</text>
</a>
</g>
</g>
<!-- Node1&#45;&gt;Node45 -->
<g id="edge65" class="edge"><title>Node1&#45;&gt;Node45</title>
<path fill="none" stroke="midnightblue" d="M2254.92,-465.509C1947.61,-462.903 844.284,-446.725 510,-348 468.755,-335.819 426.2,-308.438 402.319,-291.462"/>
<polygon fill="midnightblue" stroke="midnightblue" points="404.273,-288.555 394.122,-285.518 400.163,-294.222 404.273,-288.555"/>
</g>
<!-- Node48 -->
<g id="node48" class="node"><title>Node48</title>
<polygon fill="none" stroke="#bfbfbf" points="2389.5,-384.5 2389.5,-403.5 2526.5,-403.5 2526.5,-384.5 2389.5,-384.5"/>
<text text-anchor="middle" x="2458" y="-391.5" font-family="Helvetica,sans-Serif" font-size="10.00">MFTBase/GeometryTGeo.h</text>
</g>
<!-- Node1&#45;&gt;Node48 -->
<g id="edge73" class="edge"><title>Node1&#45;&gt;Node48</title>
<path fill="none" stroke="midnightblue" d="M2378.37,-440.968C2397.04,-430.19 2418.16,-417.997 2433.96,-408.879"/>
<polygon fill="midnightblue" stroke="midnightblue" points="2436.12,-411.669 2443.03,-403.639 2432.62,-405.607 2436.12,-411.669"/>
</g>
<!-- Node49 -->
<g id="node49" class="node"><title>Node49</title>
<polygon fill="none" stroke="#bfbfbf" points="2545,-384.5 2545,-403.5 2645,-403.5 2645,-384.5 2545,-384.5"/>
<text text-anchor="middle" x="2595" y="-391.5" font-family="Helvetica,sans-Serif" font-size="10.00">FairRootManager.h</text>
</g>
<!-- Node1&#45;&gt;Node49 -->
<g id="edge75" class="edge"><title>Node1&#45;&gt;Node49</title>
<path fill="none" stroke="midnightblue" d="M2415.13,-444.118C2460.96,-431.604 2516.53,-416.43 2553.66,-406.289"/>
<polygon fill="midnightblue" stroke="midnightblue" points="2554.9,-409.579 2563.62,-403.569 2553.05,-402.827 2554.9,-409.579"/>
</g>
<!-- Node3 -->
<g id="node3" class="node"><title>Node3</title>
<polygon fill="none" stroke="#bfbfbf" points="1682.5,-328.5 1682.5,-347.5 1725.5,-347.5 1725.5,-328.5 1682.5,-328.5"/>
<text text-anchor="middle" x="1704" y="-335.5" font-family="Helvetica,sans-Serif" font-size="10.00">cstdio</text>
</g>
<!-- Node2&#45;&gt;Node3 -->
<g id="edge2" class="edge"><title>Node2&#45;&gt;Node3</title>
<path fill="none" stroke="midnightblue" d="M1657,-384.324C1665.19,-376.42 1677.51,-364.548 1687.47,-354.938"/>
<polygon fill="midnightblue" stroke="midnightblue" points="1690.07,-357.295 1694.84,-347.834 1685.21,-352.256 1690.07,-357.295"/>
</g>
<!-- Node4 -->
<g id="node4" class="node"><title>Node4</title>
<polygon fill="none" stroke="#bfbfbf" points="1743.5,-328.5 1743.5,-347.5 1806.5,-347.5 1806.5,-328.5 1743.5,-328.5"/>
<text text-anchor="middle" x="1775" y="-335.5" font-family="Helvetica,sans-Serif" font-size="10.00">FairTask.h</text>
</g>
<!-- Node2&#45;&gt;Node4 -->
<g id="edge3" class="edge"><title>Node2&#45;&gt;Node4</title>
<path fill="none" stroke="midnightblue" d="M1668.12,-384.444C1689.02,-375.557 1721.93,-361.563 1745.72,-351.451"/>
<polygon fill="midnightblue" stroke="midnightblue" points="1747.14,-354.65 1754.97,-347.516 1744.4,-348.208 1747.14,-354.65"/>
</g>
<!-- Node5 -->
<g id="node5" class="node"><title>Node5</title>
<polygon fill="none" stroke="#bfbfbf" points="1638,-6.5 1638,-25.5 1694,-25.5 1694,-6.5 1638,-6.5"/>
<text text-anchor="middle" x="1666" y="-13.5" font-family="Helvetica,sans-Serif" font-size="10.00">Rtypes.h</text>
</g>
<!-- Node2&#45;&gt;Node5 -->
<g id="edge4" class="edge"><title>Node2&#45;&gt;Node5</title>
<path fill="none" stroke="midnightblue" d="M1587.94,-384.495C1435.98,-362.536 1024.28,-300.284 686,-224 575.345,-199.047 543.415,-202.61 440,-156 390.143,-133.529 316.089,-107.413 354,-68 399.286,-20.9191 1415.72,-17.2623 1627.54,-17.012"/>
<polygon fill="midnightblue" stroke="midnightblue" points="1627.85,-20.5118 1637.85,-17.0019 1627.85,-13.5118 1627.85,-20.5118"/>
</g>
<!-- Node6 -->
<g id="node6" class="node"><title>Node6</title>
<g id="a_node6"><a xlink:href="../../df/d29/DigiParams_8h.html" target="_top" xlink:title="Simulation parameters for the ALIPIDE chip. ">
<polygon fill="none" stroke="black" points="1166.5,-266.5 1166.5,-285.5 1327.5,-285.5 1327.5,-266.5 1166.5,-266.5"/>
<text text-anchor="middle" x="1247" y="-273.5" font-family="Helvetica,sans-Serif" font-size="10.00">ITSMFTSimulation/DigiParams.h</text>
</a>
</g>
</g>
<!-- Node2&#45;&gt;Node6 -->
<g id="edge5" class="edge"><title>Node2&#45;&gt;Node6</title>
<path fill="none" stroke="midnightblue" d="M1618.51,-384.47C1547.4,-363.898 1366.42,-311.544 1286.25,-288.353"/>
<polygon fill="midnightblue" stroke="midnightblue" points="1287.11,-284.959 1276.53,-285.542 1285.16,-291.683 1287.11,-284.959"/>
</g>
<!-- Node7 -->
<g id="node7" class="node"><title>Node7</title>
<g id="a_node7"><a xlink:href="../../d7/d9c/ITSMFT_2common_2simulation_2include_2ITSMFTSimulation_2Digitizer_8h.html" target="_top" xlink:title="ITSMFTSimulation/Digitizer.h">
<polygon fill="none" stroke="black" points="1518,-328.5 1518,-347.5 1664,-347.5 1664,-328.5 1518,-328.5"/>
<text text-anchor="middle" x="1591" y="-335.5" font-family="Helvetica,sans-Serif" font-size="10.00">ITSMFTSimulation/Digitizer.h</text>
</a>
</g>
</g>
<!-- Node2&#45;&gt;Node7 -->
<g id="edge7" class="edge"><title>Node2&#45;&gt;Node7</title>
<path fill="none" stroke="midnightblue" d="M1638.84,-384.324C1630.5,-376.42 1617.97,-364.548 1607.82,-354.938"/>
<polygon fill="midnightblue" stroke="midnightblue" points="1609.99,-352.171 1600.32,-347.834 1605.18,-357.252 1609.99,-352.171"/>
</g>
<!-- Node6&#45;&gt;Node5 -->
<g id="edge6" class="edge"><title>Node6&#45;&gt;Node5</title>
<path fill="none" stroke="midnightblue" d="M1178.96,-266.488C981.207,-241.075 417.194,-163.568 365,-100 355.975,-89.0082 355.142,-78.2517 365,-68 409.875,-21.3309 1416.74,-17.3474 1627.52,-17.0252"/>
<polygon fill="midnightblue" stroke="midnightblue" points="1627.79,-20.525 1637.79,-17.0115 1627.78,-13.525 1627.79,-20.525"/>
</g>
<!-- Node7&#45;&gt;Node5 -->
<g id="edge10" class="edge"><title>Node7&#45;&gt;Node5</title>
<path fill="none" stroke="midnightblue" d="M1664.31,-328.843C1734.89,-316.438 1831,-285.5 1831,-209 1831,-209 1831,-209 1831,-145 1831,-106.837 1821,-93.9324 1793,-68 1768.19,-45.0221 1731.72,-31.8304 1704.21,-24.6456"/>
<polygon fill="midnightblue" stroke="midnightblue" points="1704.7,-21.1615 1694.15,-22.1781 1703.03,-27.9599 1704.7,-21.1615"/>
</g>
<!-- Node7&#45;&gt;Node6 -->
<g id="edge45" class="edge"><title>Node7&#45;&gt;Node6</title>
<path fill="none" stroke="midnightblue" d="M1542.08,-328.467C1479.8,-317.604 1372.3,-298.855 1305.68,-287.235"/>
<polygon fill="midnightblue" stroke="midnightblue" points="1306.21,-283.774 1295.75,-285.503 1305,-290.67 1306.21,-283.774"/>
</g>
<!-- Node8 -->
<g id="node8" class="node"><title>Node8</title>
<polygon fill="none" stroke="#bfbfbf" points="1676,-136.5 1676,-155.5 1720,-155.5 1720,-136.5 1676,-136.5"/>
<text text-anchor="middle" x="1698" y="-143.5" font-family="Helvetica,sans-Serif" font-size="10.00">vector</text>
</g>
<!-- Node7&#45;&gt;Node8 -->
<g id="edge8" class="edge"><title>Node7&#45;&gt;Node8</title>
<path fill="none" stroke="midnightblue" d="M1594.13,-328.365C1604.82,-298.979 1639.68,-204.003 1648,-192 1655.93,-180.569 1667.3,-170.033 1677.2,-162.035"/>
<polygon fill="midnightblue" stroke="midnightblue" points="1679.62,-164.585 1685.39,-155.7 1675.34,-159.047 1679.62,-164.585"/>
</g>
<!-- Node9 -->
<g id="node9" class="node"><title>Node9</title>
<polygon fill="none" stroke="#bfbfbf" points="1511,-266.5 1511,-285.5 1563,-285.5 1563,-266.5 1511,-266.5"/>
<text text-anchor="middle" x="1537" y="-273.5" font-family="Helvetica,sans-Serif" font-size="10.00">memory</text>
</g>
<!-- Node7&#45;&gt;Node9 -->
<g id="edge9" class="edge"><title>Node7&#45;&gt;Node9</title>
<path fill="none" stroke="midnightblue" d="M1583.26,-328.403C1575,-319.225 1561.72,-304.47 1551.51,-293.117"/>
<polygon fill="midnightblue" stroke="midnightblue" points="1554.01,-290.672 1544.72,-285.581 1548.81,-295.355 1554.01,-290.672"/>
</g>
<!-- Node10 -->
<g id="node10" class="node"><title>Node10</title>
<polygon fill="none" stroke="#bfbfbf" points="1566.5,-136.5 1566.5,-155.5 1625.5,-155.5 1625.5,-136.5 1566.5,-136.5"/>
<text text-anchor="middle" x="1596" y="-143.5" font-family="Helvetica,sans-Serif" font-size="10.00">TObject.h</text>
</g>
<!-- Node7&#45;&gt;Node10 -->
<g id="edge11" class="edge"><title>Node7&#45;&gt;Node10</title>
<path fill="none" stroke="midnightblue" d="M1591.23,-328.342C1591.99,-299.472 1594.45,-206.048 1595.51,-165.767"/>
<polygon fill="midnightblue" stroke="midnightblue" points="1599.01,-165.797 1595.77,-155.708 1592.01,-165.613 1599.01,-165.797"/>
</g>
<!-- Node11 -->
<g id="node11" class="node"><title>Node11</title>
<g id="a_node11"><a xlink:href="../../d7/d9e/SimulationAlpide_8h.html" target="_top" xlink:title="Simulation of the ALIPIDE chip response. ">
<polygon fill="none" stroke="black" points="1345.5,-261 1345.5,-291 1492.5,-291 1492.5,-261 1345.5,-261"/>
<text text-anchor="start" x="1353.5" y="-279" font-family="Helvetica,sans-Serif" font-size="10.00">ITSMFTSimulation/Simulation</text>
<text text-anchor="middle" x="1419" y="-268" font-family="Helvetica,sans-Serif" font-size="10.00">Alpide.h</text>
</a>
</g>
</g>
<!-- Node7&#45;&gt;Node11 -->
<g id="edge12" class="edge"><title>Node7&#45;&gt;Node11</title>
<path fill="none" stroke="midnightblue" d="M1566.36,-328.403C1541.02,-319.564 1500.85,-305.553 1468.85,-294.39"/>
<polygon fill="midnightblue" stroke="midnightblue" points="1469.8,-291.014 1459.21,-291.025 1467.5,-297.624 1469.8,-291.014"/>
</g>
<!-- Node31 -->
<g id="node31" class="node"><title>Node31</title>
<g id="a_node31"><a xlink:href="../../dc/d1a/AlpideSimResponse_8h.html" target="_top" xlink:title="Definition of the ITSMFT Alpide simulated response parametrization. ">
<polygon fill="none" stroke="black" points="1657,-193 1657,-223 1803,-223 1803,-193 1657,-193"/>
<text text-anchor="start" x="1665" y="-211" font-family="Helvetica,sans-Serif" font-size="10.00">ITSMFTSimulation/AlpideSim</text>
<text text-anchor="middle" x="1730" y="-200" font-family="Helvetica,sans-Serif" font-size="10.00">Response.h</text>
</a>
</g>
</g>
<!-- Node7&#45;&gt;Node31 -->
<g id="edge44" class="edge"><title>Node7&#45;&gt;Node31</title>
<path fill="none" stroke="midnightblue" d="M1601.49,-328.181C1612.08,-319.213 1628.86,-304.847 1643,-292 1665.64,-271.425 1690.87,-247.206 1708.31,-230.258"/>
<polygon fill="midnightblue" stroke="midnightblue" points="1711.01,-232.508 1715.73,-223.022 1706.13,-227.495 1711.01,-232.508"/>
</g>
<!-- Node34 -->
<g id="node34" class="node"><title>Node34</title>
<g id="a_node34"><a xlink:href="../../d0/d2d/common_2base_2include_2ITSMFTBase_2GeometryTGeo_8h.html" target="_top" xlink:title="ITSMFTBase/GeometryTGeo.h">
<polygon fill="none" stroke="black" points="1870.5,-266.5 1870.5,-285.5 2023.5,-285.5 2023.5,-266.5 1870.5,-266.5"/>
<text text-anchor="middle" x="1947" y="-273.5" font-family="Helvetica,sans-Serif" font-size="10.00">ITSMFTBase/GeometryTGeo.h</text>
</a>
</g>
</g>
<!-- Node7&#45;&gt;Node34 -->
<g id="edge46" class="edge"><title>Node7&#45;&gt;Node34</title>
<path fill="none" stroke="midnightblue" d="M1641.63,-328.467C1706.08,-317.604 1817.33,-298.855 1886.27,-287.235"/>
<polygon fill="midnightblue" stroke="midnightblue" points="1887.27,-290.617 1896.55,-285.503 1886.1,-283.714 1887.27,-290.617"/>
</g>
<!-- Node11&#45;&gt;Node10 -->
<g id="edge13" class="edge"><title>Node11&#45;&gt;Node10</title>
<path fill="none" stroke="midnightblue" d="M1439.88,-260.923C1454.79,-250.798 1475.26,-236.74 1493,-224 1522.52,-202.808 1556.13,-177.44 1576.71,-161.771"/>
<polygon fill="midnightblue" stroke="midnightblue" points="1578.85,-164.539 1584.67,-155.69 1574.6,-158.975 1578.85,-164.539"/>
</g>
<!-- Node12 -->
<g id="node12" class="node"><title>Node12</title>
<g id="a_node12"><a xlink:href="../../d9/d55/Chip_8h.html" target="_top" xlink:title="ITSMFTSimulation/Chip.h">
<polygon fill="none" stroke="black" points="1354,-198.5 1354,-217.5 1484,-217.5 1484,-198.5 1354,-198.5"/>
<text text-anchor="middle" x="1419" y="-205.5" font-family="Helvetica,sans-Serif" font-size="10.00">ITSMFTSimulation/Chip.h</text>
</a>
</g>
</g>
<!-- Node11&#45;&gt;Node12 -->
<g id="edge14" class="edge"><title>Node11&#45;&gt;Node12</title>
<path fill="none" stroke="midnightblue" d="M1419,-260.679C1419,-251.101 1419,-238.394 1419,-227.977"/>
<polygon fill="midnightblue" stroke="midnightblue" points="1422.5,-227.828 1419,-217.828 1415.5,-227.828 1422.5,-227.828"/>
</g>
<!-- Node11&#45;&gt;Node31 -->
<g id="edge39" class="edge"><title>Node11&#45;&gt;Node31</title>
<path fill="none" stroke="midnightblue" d="M1485.34,-260.922C1534.67,-250.452 1602.1,-236.144 1653.67,-225.198"/>
<polygon fill="midnightblue" stroke="midnightblue" points="1654.71,-228.556 1663.77,-223.056 1653.26,-221.708 1654.71,-228.556"/>
</g>
<!-- Node12&#45;&gt;Node8 -->
<g id="edge17" class="edge"><title>Node12&#45;&gt;Node8</title>
<path fill="none" stroke="midnightblue" d="M1458.68,-198.467C1514.41,-186.481 1614.79,-164.894 1666.03,-153.876"/>
<polygon fill="midnightblue" stroke="midnightblue" points="1666.85,-157.28 1675.89,-151.756 1665.37,-150.436 1666.85,-157.28"/>
</g>
<!-- Node12&#45;&gt;Node10 -->
<g id="edge19" class="edge"><title>Node12&#45;&gt;Node10</title>
<path fill="none" stroke="midnightblue" d="M1444.36,-198.403C1474.98,-188.022 1526.66,-170.506 1561.05,-158.849"/>
<polygon fill="midnightblue" stroke="midnightblue" points="1562.34,-162.106 1570.69,-155.581 1560.09,-155.476 1562.34,-162.106"/>
</g>
<!-- Node13 -->
<g id="node13" class="node"><title>Node13</title>
<polygon fill="none" stroke="#bfbfbf" points="1450.5,-136.5 1450.5,-155.5 1509.5,-155.5 1509.5,-136.5 1450.5,-136.5"/>
<text text-anchor="middle" x="1480" y="-143.5" font-family="Helvetica,sans-Serif" font-size="10.00">exception</text>
</g>
<!-- Node12&#45;&gt;Node13 -->
<g id="edge15" class="edge"><title>Node12&#45;&gt;Node13</title>
<path fill="none" stroke="midnightblue" d="M1427.74,-198.403C1437.16,-189.136 1452.36,-174.183 1463.95,-162.788"/>
<polygon fill="midnightblue" stroke="midnightblue" points="1466.6,-165.088 1471.28,-155.581 1461.69,-160.098 1466.6,-165.088"/>
</g>
<!-- Node14 -->
<g id="node14" class="node"><title>Node14</title>
<polygon fill="none" stroke="#bfbfbf" points="1327,-136.5 1327,-155.5 1379,-155.5 1379,-136.5 1327,-136.5"/>
<text text-anchor="middle" x="1353" y="-143.5" font-family="Helvetica,sans-Serif" font-size="10.00">sstream</text>
</g>
<!-- Node12&#45;&gt;Node14 -->
<g id="edge16" class="edge"><title>Node12&#45;&gt;Node14</title>
<path fill="none" stroke="midnightblue" d="M1409.54,-198.403C1399.25,-189.047 1382.58,-173.895 1370.01,-162.46"/>
<polygon fill="midnightblue" stroke="midnightblue" points="1372.19,-159.718 1362.44,-155.581 1367.48,-164.897 1372.19,-159.718"/>
</g>
<!-- Node15 -->
<g id="node15" class="node"><title>Node15</title>
<polygon fill="none" stroke="#bfbfbf" points="1397.5,-136.5 1397.5,-155.5 1432.5,-155.5 1432.5,-136.5 1397.5,-136.5"/>
<text text-anchor="middle" x="1415" y="-143.5" font-family="Helvetica,sans-Serif" font-size="10.00">map</text>
</g>
<!-- Node12&#45;&gt;Node15 -->
<g id="edge18" class="edge"><title>Node12&#45;&gt;Node15</title>
<path fill="none" stroke="midnightblue" d="M1418.43,-198.403C1417.86,-189.938 1416.98,-176.728 1416.25,-165.82"/>
<polygon fill="midnightblue" stroke="midnightblue" points="1419.73,-165.326 1415.57,-155.581 1412.75,-165.791 1419.73,-165.326"/>
</g>
<!-- Node16 -->
<g id="node16" class="node"><title>Node16</title>
<g id="a_node16"><a xlink:href="../../d0/d06/ITSMFT_2common_2base_2include_2ITSMFTBase_2Digit_8h.html" target="_top" xlink:title="ITSMFTBase/Digit.h">
<polygon fill="none" stroke="black" points="1163.5,-136.5 1163.5,-155.5 1270.5,-155.5 1270.5,-136.5 1163.5,-136.5"/>
<text text-anchor="middle" x="1217" y="-143.5" font-family="Helvetica,sans-Serif" font-size="10.00">ITSMFTBase/Digit.h</text>
</a>
</g>
</g>
<!-- Node12&#45;&gt;Node16 -->
<g id="edge20" class="edge"><title>Node12&#45;&gt;Node16</title>
<path fill="none" stroke="midnightblue" d="M1390.06,-198.403C1354.73,-187.911 1294.87,-170.129 1255.64,-158.476"/>
<polygon fill="midnightblue" stroke="midnightblue" points="1256.47,-155.073 1245.89,-155.581 1254.48,-161.783 1256.47,-155.073"/>
</g>
<!-- Node18 -->
<g id="node18" class="node"><title>Node18</title>
<g id="a_node18"><a xlink:href="../../d7/dcd/MCCompLabel_8h.html" target="_top" xlink:title="SimulationDataFormat\l/MCCompLabel.h">
<polygon fill="none" stroke="black" points="1651,-69 1651,-99 1765,-99 1765,-69 1651,-69"/>
<text text-anchor="start" x="1659" y="-87" font-family="Helvetica,sans-Serif" font-size="10.00">SimulationDataFormat</text>
<text text-anchor="middle" x="1708" y="-76" font-family="Helvetica,sans-Serif" font-size="10.00">/MCCompLabel.h</text>
</a>
</g>
</g>
<!-- Node12&#45;&gt;Node18 -->
<g id="edge26" class="edge"><title>Node12&#45;&gt;Node18</title>
<path fill="none" stroke="midnightblue" d="M1435.7,-198.388C1472.09,-179.622 1555.45,-136.656 1557,-136 1587.32,-123.167 1622.07,-111.247 1650.58,-102.163"/>
<polygon fill="midnightblue" stroke="midnightblue" points="1651.91,-105.415 1660.39,-99.0711 1649.8,-98.7391 1651.91,-105.415"/>
</g>
<!-- Node20 -->
<g id="node20" class="node"><title>Node20</title>
<g id="a_node20"><a xlink:href="../../dd/d76/Cartesian3D_8h.html" target="_top" xlink:title="MathUtils/Cartesian3D.h">
<polygon fill="none" stroke="black" points="753.5,-136.5 753.5,-155.5 878.5,-155.5 878.5,-136.5 753.5,-136.5"/>
<text text-anchor="middle" x="816" y="-143.5" font-family="Helvetica,sans-Serif" font-size="10.00">MathUtils/Cartesian3D.h</text>
</a>
</g>
</g>
<!-- Node12&#45;&gt;Node20 -->
<g id="edge27" class="edge"><title>Node12&#45;&gt;Node20</title>
<path fill="none" stroke="midnightblue" d="M1353.9,-200.522C1240.41,-189.23 1007.19,-166.024 888.636,-154.228"/>
<polygon fill="midnightblue" stroke="midnightblue" points="888.866,-150.733 878.568,-153.226 888.173,-157.699 888.866,-150.733"/>
</g>
<!-- Node16&#45;&gt;Node5 -->
<g id="edge25" class="edge"><title>Node16&#45;&gt;Node5</title>
<path fill="none" stroke="midnightblue" d="M1270.81,-137.781C1275.61,-137.167 1280.39,-136.565 1285,-136 1355.81,-127.319 1542.12,-135.496 1604,-100 1630.04,-85.0628 1648.48,-54.3218 1658.16,-34.7339"/>
<polygon fill="midnightblue" stroke="midnightblue" points="1661.34,-36.1903 1662.42,-25.6501 1655,-33.2193 1661.34,-36.1903"/>
</g>
<!-- Node17 -->
<g id="node17" class="node"><title>Node17</title>
<polygon fill="none" stroke="#bfbfbf" points="1389.5,-69 1389.5,-99 1484.5,-99 1484.5,-69 1389.5,-69"/>
<text text-anchor="start" x="1397.5" y="-87" font-family="Helvetica,sans-Serif" font-size="10.00">boost/serialization</text>
<text text-anchor="middle" x="1437" y="-76" font-family="Helvetica,sans-Serif" font-size="10.00">/base_object.hpp</text>
</g>
<!-- Node16&#45;&gt;Node17 -->
<g id="edge21" class="edge"><title>Node16&#45;&gt;Node17</title>
<path fill="none" stroke="midnightblue" d="M1248.52,-136.403C1282.62,-127.104 1337.71,-112.079 1379.55,-100.669"/>
<polygon fill="midnightblue" stroke="midnightblue" points="1380.61,-104.007 1389.34,-97.9995 1378.77,-97.254 1380.61,-104.007"/>
</g>
<!-- Node16&#45;&gt;Node18 -->
<g id="edge22" class="edge"><title>Node16&#45;&gt;Node18</title>
<path fill="none" stroke="midnightblue" d="M1270.8,-137.729C1275.6,-137.126 1280.39,-136.541 1285,-136 1441.19,-117.681 1481.63,-124.288 1637,-100 1638.26,-99.803 1639.53,-99.5981 1640.81,-99.3863"/>
<polygon fill="midnightblue" stroke="midnightblue" points="1641.5,-102.819 1650.75,-97.6416 1640.29,-95.9244 1641.5,-102.819"/>
</g>
<!-- Node19 -->
<g id="node19" class="node"><title>Node19</title>
<polygon fill="none" stroke="#bfbfbf" points="1503,-74.5 1503,-93.5 1595,-93.5 1595,-74.5 1503,-74.5"/>
<text text-anchor="middle" x="1549" y="-81.5" font-family="Helvetica,sans-Serif" font-size="10.00">FairTimeStamp.h</text>
</g>
<!-- Node16&#45;&gt;Node19 -->
<g id="edge24" class="edge"><title>Node16&#45;&gt;Node19</title>
<path fill="none" stroke="midnightblue" d="M1270.72,-137.865C1326.56,-130.071 1416.34,-116.473 1493,-100 1498.35,-98.8502 1503.95,-97.5121 1509.46,-96.1176"/>
<polygon fill="midnightblue" stroke="midnightblue" points="1510.41,-99.4882 1519.2,-93.5751 1508.64,-92.7153 1510.41,-99.4882"/>
</g>
<!-- Node18&#45;&gt;Node5 -->
<g id="edge23" class="edge"><title>Node18&#45;&gt;Node5</title>
<path fill="none" stroke="midnightblue" d="M1698.89,-68.679C1692.47,-58.5919 1683.84,-45.033 1677.03,-34.3345"/>
<polygon fill="midnightblue" stroke="midnightblue" points="1679.94,-32.3858 1671.62,-25.8283 1674.03,-36.144 1679.94,-32.3858"/>
</g>
<!-- Node20&#45;&gt;Node5 -->
<g id="edge31" class="edge"><title>Node20&#45;&gt;Node5</title>
<path fill="none" stroke="midnightblue" d="M878.693,-144.353C999.473,-142.34 1259.76,-134.059 1342,-100 1362.4,-91.5522 1360.01,-77.3682 1380,-68 1462.38,-29.4005 1570.66,-19.8758 1627.44,-17.6169"/>
<polygon fill="midnightblue" stroke="midnightblue" points="1627.88,-21.104 1637.75,-17.2649 1627.64,-14.1081 1627.88,-21.104"/>
</g>
<!-- Node21 -->
<g id="node21" class="node"><title>Node21</title>
<polygon fill="none" stroke="#bfbfbf" points="831.5,-74.5 831.5,-93.5 980.5,-93.5 980.5,-74.5 831.5,-74.5"/>
<text text-anchor="middle" x="906" y="-81.5" font-family="Helvetica,sans-Serif" font-size="10.00">Math/GenVector/Rotation3D.h</text>
</g>
<!-- Node20&#45;&gt;Node21 -->
<g id="edge28" class="edge"><title>Node20&#45;&gt;Node21</title>
<path fill="none" stroke="midnightblue" d="M828.895,-136.403C843.464,-126.691 867.402,-110.732 884.745,-99.1697"/>
<polygon fill="midnightblue" stroke="midnightblue" points="886.75,-102.04 893.129,-93.5806 882.867,-96.2155 886.75,-102.04"/>
</g>
<!-- Node22 -->
<g id="node22" class="node"><title>Node22</title>
<polygon fill="none" stroke="#bfbfbf" points="999,-74.5 999,-93.5 1155,-93.5 1155,-74.5 999,-74.5"/>
<text text-anchor="middle" x="1077" y="-81.5" font-family="Helvetica,sans-Serif" font-size="10.00">Math/GenVector/Transform3D.h</text>
</g>
<!-- Node20&#45;&gt;Node22 -->
<g id="edge29" class="edge"><title>Node20&#45;&gt;Node22</title>
<path fill="none" stroke="midnightblue" d="M853.118,-136.467C899.596,-125.783 979.261,-107.469 1029.96,-95.8129"/>
<polygon fill="midnightblue" stroke="midnightblue" points="1031.05,-99.1549 1040.01,-93.5034 1029.48,-92.3328 1031.05,-99.1549"/>
</g>
<!-- Node23 -->
<g id="node23" class="node"><title>Node23</title>
<polygon fill="none" stroke="#bfbfbf" points="1173,-74.5 1173,-93.5 1333,-93.5 1333,-74.5 1173,-74.5"/>
<text text-anchor="middle" x="1253" y="-81.5" font-family="Helvetica,sans-Serif" font-size="10.00">Math/GenVector/Translation3D.h</text>
</g>
<!-- Node20&#45;&gt;Node23 -->
<g id="edge30" class="edge"><title>Node20&#45;&gt;Node23</title>
<path fill="none" stroke="midnightblue" d="M878.651,-137.633C948.4,-129.26 1064.43,-114.823 1164,-100 1173.88,-98.5291 1184.36,-96.8606 1194.53,-95.1841"/>
<polygon fill="midnightblue" stroke="midnightblue" points="1195.27,-98.6091 1204.55,-93.512 1194.11,-91.7045 1195.27,-98.6091"/>
</g>
<!-- Node24 -->
<g id="node24" class="node"><title>Node24</title>
<polygon fill="none" stroke="#bfbfbf" points="374,-74.5 374,-93.5 450,-93.5 450,-74.5 374,-74.5"/>
<text text-anchor="middle" x="412" y="-81.5" font-family="Helvetica,sans-Serif" font-size="10.00">TGeoMatrix.h</text>
</g>
<!-- Node20&#45;&gt;Node24 -->
<g id="edge32" class="edge"><title>Node20&#45;&gt;Node24</title>
<path fill="none" stroke="midnightblue" d="M753.354,-138.505C666.383,-129.247 513.597,-112.046 459,-100 454.766,-99.0657 450.368,-97.9144 446.037,-96.6684"/>
<polygon fill="midnightblue" stroke="midnightblue" points="446.748,-93.2258 436.162,-93.6467 444.7,-99.9195 446.748,-93.2258"/>
</g>
<!-- Node25 -->
<g id="node25" class="node"><title>Node25</title>
<polygon fill="none" stroke="#bfbfbf" points="468.5,-69 468.5,-99 619.5,-99 619.5,-69 468.5,-69"/>
<text text-anchor="start" x="476.5" y="-87" font-family="Helvetica,sans-Serif" font-size="10.00">Math/GenVector/Displacement</text>
<text text-anchor="middle" x="544" y="-76" font-family="Helvetica,sans-Serif" font-size="10.00">Vector3D.h</text>
</g>
<!-- Node20&#45;&gt;Node25 -->
<g id="edge33" class="edge"><title>Node20&#45;&gt;Node25</title>
<path fill="none" stroke="midnightblue" d="M777.318,-136.467C735.93,-127.337 669.29,-112.638 617.806,-101.281"/>
<polygon fill="midnightblue" stroke="midnightblue" points="618.242,-97.7929 607.723,-99.0565 616.734,-104.629 618.242,-97.7929"/>
</g>
<!-- Node26 -->
<g id="node26" class="node"><title>Node26</title>
<polygon fill="none" stroke="#bfbfbf" points="638,-74.5 638,-93.5 814,-93.5 814,-74.5 638,-74.5"/>
<text text-anchor="middle" x="726" y="-81.5" font-family="Helvetica,sans-Serif" font-size="10.00">Math/GenVector/PositionVector3D.h</text>
</g>
<!-- Node20&#45;&gt;Node26 -->
<g id="edge34" class="edge"><title>Node20&#45;&gt;Node26</title>
<path fill="none" stroke="midnightblue" d="M803.105,-136.403C788.536,-126.691 764.598,-110.732 747.255,-99.1697"/>
<polygon fill="midnightblue" stroke="midnightblue" points="749.133,-96.2155 738.871,-93.5806 745.25,-102.04 749.133,-96.2155"/>
</g>
<!-- Node27 -->
<g id="node27" class="node"><title>Node27</title>
<g id="a_node27"><a xlink:href="../../d2/dd0/Cartesian2D_8h.html" target="_top" xlink:title="MathUtils/Cartesian2D.h">
<polygon fill="none" stroke="black" points="116.5,-74.5 116.5,-93.5 241.5,-93.5 241.5,-74.5 116.5,-74.5"/>
<text text-anchor="middle" x="179" y="-81.5" font-family="Helvetica,sans-Serif" font-size="10.00">MathUtils/Cartesian2D.h</text>
</a>
</g>
</g>
<!-- Node20&#45;&gt;Node27 -->
<g id="edge35" class="edge"><title>Node20&#45;&gt;Node27</title>
<path fill="none" stroke="midnightblue" d="M753.471,-139.11C635.018,-127.953 378.494,-103.791 252.226,-91.8972"/>
<polygon fill="midnightblue" stroke="midnightblue" points="252.175,-88.3771 241.891,-90.9238 251.519,-95.3463 252.175,-88.3771"/>
</g>
<!-- Node30 -->
<g id="node30" class="node"><title>Node30</title>
<polygon fill="none" stroke="#bfbfbf" points="44,-74.5 44,-93.5 98,-93.5 98,-74.5 44,-74.5"/>
<text text-anchor="middle" x="71" y="-81.5" font-family="Helvetica,sans-Serif" font-size="10.00">iostream</text>
</g>
<!-- Node20&#45;&gt;Node30 -->
<g id="edge38" class="edge"><title>Node20&#45;&gt;Node30</title>
<path fill="none" stroke="midnightblue" d="M753.369,-143.674C603.761,-140.082 228.992,-128.446 107,-100 103.934,-99.285 100.794,-98.3349 97.7078,-97.2586"/>
<polygon fill="midnightblue" stroke="midnightblue" points="98.7787,-93.919 88.1912,-93.5241 96.2216,-100.435 98.7787,-93.919"/>
</g>
<!-- Node28 -->
<g id="node28" class="node"><title>Node28</title>
<polygon fill="none" stroke="#bfbfbf" points="194.5,-1 194.5,-31 345.5,-31 345.5,-1 194.5,-1"/>
<text text-anchor="start" x="202.5" y="-19" font-family="Helvetica,sans-Serif" font-size="10.00">Math/GenVector/Displacement</text>
<text text-anchor="middle" x="270" y="-8" font-family="Helvetica,sans-Serif" font-size="10.00">Vector2D.h</text>
</g>
<!-- Node27&#45;&gt;Node28 -->
<g id="edge36" class="edge"><title>Node27&#45;&gt;Node28</title>
<path fill="none" stroke="midnightblue" d="M190.897,-74.3717C203.779,-65.0286 224.78,-49.7966 241.907,-37.375"/>
<polygon fill="midnightblue" stroke="midnightblue" points="244.407,-39.8859 250.447,-31.1815 240.297,-34.2194 244.407,-39.8859"/>
</g>
<!-- Node29 -->
<g id="node29" class="node"><title>Node29</title>
<polygon fill="none" stroke="#bfbfbf" points="0,-6.5 0,-25.5 176,-25.5 176,-6.5 0,-6.5"/>
<text text-anchor="middle" x="88" y="-13.5" font-family="Helvetica,sans-Serif" font-size="10.00">Math/GenVector/PositionVector2D.h</text>
</g>
<!-- Node27&#45;&gt;Node29 -->
<g id="edge37" class="edge"><title>Node27&#45;&gt;Node29</title>
<path fill="none" stroke="midnightblue" d="M167.103,-74.3717C152.116,-63.5015 126.138,-44.6602 108.058,-31.5474"/>
<polygon fill="midnightblue" stroke="midnightblue" points="110.05,-28.6684 99.8996,-25.6305 105.94,-34.3349 110.05,-28.6684"/>
</g>
<!-- Node31&#45;&gt;Node5 -->
<g id="edge43" class="edge"><title>Node31&#45;&gt;Node5</title>
<path fill="none" stroke="midnightblue" d="M1741.75,-192.978C1762.26,-166.713 1800.01,-109.051 1774,-68 1758.69,-43.8313 1728.5,-30.8998 1703.93,-24.1133"/>
<polygon fill="midnightblue" stroke="midnightblue" points="1704.7,-20.6976 1694.14,-21.6449 1702.98,-27.4849 1704.7,-20.6976"/>
</g>
<!-- Node31&#45;&gt;Node8 -->
<g id="edge42" class="edge"><title>Node31&#45;&gt;Node8</title>
<path fill="none" stroke="midnightblue" d="M1722.42,-192.781C1717.91,-184.332 1712.16,-173.548 1707.37,-164.569"/>
<polygon fill="midnightblue" stroke="midnightblue" points="1710.45,-162.907 1702.66,-155.731 1704.27,-166.201 1710.45,-162.907"/>
</g>
<!-- Node32 -->
<g id="node32" class="node"><title>Node32</title>
<polygon fill="none" stroke="#bfbfbf" points="2180,-6.5 2180,-25.5 2218,-25.5 2218,-6.5 2180,-6.5"/>
<text text-anchor="middle" x="2199" y="-13.5" font-family="Helvetica,sans-Serif" font-size="10.00">array</text>
</g>
<!-- Node31&#45;&gt;Node32 -->
<g id="edge40" class="edge"><title>Node31&#45;&gt;Node32</title>
<path fill="none" stroke="midnightblue" d="M1803.25,-197.828C1919.82,-183.225 2134.57,-156.289 2135,-156 2176.14,-128.139 2191.33,-66.795 2196.53,-35.7638"/>
<polygon fill="midnightblue" stroke="midnightblue" points="2200,-36.2297 2198.02,-25.821 2193.07,-35.1908 2200,-36.2297"/>
</g>
<!-- Node33 -->
<g id="node33" class="node"><title>Node33</title>
<polygon fill="none" stroke="#bfbfbf" points="1859.5,-136.5 1859.5,-155.5 1900.5,-155.5 1900.5,-136.5 1859.5,-136.5"/>
<text text-anchor="middle" x="1880" y="-143.5" font-family="Helvetica,sans-Serif" font-size="10.00">string</text>
</g>
<!-- Node31&#45;&gt;Node33 -->
<g id="edge41" class="edge"><title>Node31&#45;&gt;Node33</title>
<path fill="none" stroke="midnightblue" d="M1765.17,-192.933C1790.89,-182.643 1825.42,-168.831 1849.88,-159.047"/>
<polygon fill="midnightblue" stroke="midnightblue" points="1851.38,-162.216 1859.37,-155.253 1848.78,-155.717 1851.38,-162.216"/>
</g>
<!-- Node34&#45;&gt;Node33 -->
<g id="edge64" class="edge"><title>Node34&#45;&gt;Node33</title>
<path fill="none" stroke="midnightblue" d="M1948.02,-266.341C1949.45,-250.48 1950.56,-216.178 1937,-192 1929.8,-179.159 1917.3,-168.669 1905.85,-161.057"/>
<polygon fill="midnightblue" stroke="midnightblue" points="1907.35,-157.869 1897,-155.58 1903.66,-163.82 1907.35,-157.869"/>
</g>
<!-- Node35 -->
<g id="node35" class="node"><title>Node35</title>
<g id="a_node35"><a xlink:href="../../d4/d20/DetMatrixCache_8h.html" target="_top" xlink:title="DetectorsBase/DetMatrixCache.h">
<polygon fill="none" stroke="black" points="1985,-198.5 1985,-217.5 2149,-217.5 2149,-198.5 1985,-198.5"/>
<text text-anchor="middle" x="2067" y="-205.5" font-family="Helvetica,sans-Serif" font-size="10.00">DetectorsBase/DetMatrixCache.h</text>
</a>
</g>
</g>
<!-- Node34&#45;&gt;Node35 -->
<g id="edge47" class="edge"><title>Node34&#45;&gt;Node35</title>
<path fill="none" stroke="midnightblue" d="M1962.69,-266.372C1982.99,-255.205 2018.59,-235.627 2042.48,-222.488"/>
<polygon fill="midnightblue" stroke="midnightblue" points="2044.23,-225.516 2051.31,-217.63 2040.86,-219.383 2044.23,-225.516"/>
</g>
<!-- Node44 -->
<g id="node44" class="node"><title>Node44</title>
<polygon fill="none" stroke="#bfbfbf" points="1859.5,-198.5 1859.5,-217.5 1928.5,-217.5 1928.5,-198.5 1859.5,-198.5"/>
<text text-anchor="middle" x="1894" y="-205.5" font-family="Helvetica,sans-Serif" font-size="10.00">TObjArray.h</text>
</g>
<!-- Node34&#45;&gt;Node44 -->
<g id="edge63" class="edge"><title>Node34&#45;&gt;Node44</title>
<path fill="none" stroke="midnightblue" d="M1940.07,-266.372C1931.86,-256.151 1918,-238.884 1907.62,-225.957"/>
<polygon fill="midnightblue" stroke="midnightblue" points="1910.09,-223.447 1901.1,-217.841 1904.63,-227.83 1910.09,-223.447"/>
</g>
<!-- Node35&#45;&gt;Node5 -->
<g id="edge61" class="edge"><title>Node35&#45;&gt;Node5</title>
<path fill="none" stroke="midnightblue" d="M2050.17,-198.472C2017.06,-181.434 1941.62,-141.262 1883,-100 1864.94,-87.2916 1864.49,-78.3664 1845,-68 1799.62,-43.8708 1741.54,-30.0382 1704.05,-23.0216"/>
<polygon fill="midnightblue" stroke="midnightblue" points="1704.51,-19.5487 1694.05,-21.2205 1703.27,-26.4378 1704.51,-19.5487"/>
</g>
<!-- Node35&#45;&gt;Node8 -->
<g id="edge48" class="edge"><title>Node35&#45;&gt;Node8</title>
<path fill="none" stroke="midnightblue" d="M2014.52,-198.467C1936.87,-185.841 1793.69,-162.559 1730,-152.203"/>
<polygon fill="midnightblue" stroke="midnightblue" points="1730.56,-148.748 1720.13,-150.598 1729.43,-155.657 1730.56,-148.748"/>
</g>
<!-- Node35&#45;&gt;Node20 -->
<g id="edge50" class="edge"><title>Node35&#45;&gt;Node20</title>
<path fill="none" stroke="midnightblue" d="M2001.62,-198.49C1980.98,-196.063 1958.07,-193.636 1937,-192 1732.21,-176.097 1103.91,-155.852 888.987,-149.215"/>
<polygon fill="midnightblue" stroke="midnightblue" points="888.867,-145.71 878.764,-148.9 888.652,-152.707 888.867,-145.71"/>
</g>
<!-- Node35&#45;&gt;Node32 -->
<g id="edge49" class="edge"><title>Node35&#45;&gt;Node32</title>
<path fill="none" stroke="midnightblue" d="M2139.3,-198.481C2165.68,-191.477 2192.95,-178.818 2209,-156 2234.55,-119.677 2218.32,-63.9833 2207.09,-35.3694"/>
<polygon fill="midnightblue" stroke="midnightblue" points="2210.19,-33.7191 2203.13,-25.8256 2203.73,-36.4033 2210.19,-33.7191"/>
</g>
<!-- Node36 -->
<g id="node36" class="node"><title>Node36</title>
<g id="a_node36"><a xlink:href="../../d6/d31/DetID_8h.html" target="_top" xlink:title="DetectorsBase/DetID.h">
<polygon fill="none" stroke="black" points="2007.5,-136.5 2007.5,-155.5 2126.5,-155.5 2126.5,-136.5 2007.5,-136.5"/>
<text text-anchor="middle" x="2067" y="-143.5" font-family="Helvetica,sans-Serif" font-size="10.00">DetectorsBase/DetID.h</text>
</a>
</g>
</g>
<!-- Node35&#45;&gt;Node36 -->
<g id="edge51" class="edge"><title>Node35&#45;&gt;Node36</title>
<path fill="none" stroke="midnightblue" d="M2067,-198.403C2067,-189.938 2067,-176.728 2067,-165.82"/>
<polygon fill="midnightblue" stroke="midnightblue" points="2070.5,-165.581 2067,-155.581 2063.5,-165.581 2070.5,-165.581"/>
</g>
<!-- Node35&#45;&gt;Node43 -->
<g id="edge62" class="edge"><title>Node35&#45;&gt;Node43</title>
<path fill="none" stroke="midnightblue" d="M2099.95,-198.403C2140.6,-187.799 2209.79,-169.751 2254.42,-158.107"/>
<polygon fill="midnightblue" stroke="midnightblue" points="2255.32,-161.492 2264.11,-155.581 2253.55,-154.718 2255.32,-161.492"/>
</g>
<!-- Node36&#45;&gt;Node5 -->
<g id="edge55" class="edge"><title>Node36&#45;&gt;Node5</title>
<path fill="none" stroke="midnightblue" d="M2028.85,-136.478C1999.7,-129.111 1959.03,-116.96 1926,-100 1904.81,-89.1189 1904.6,-78.0455 1883,-68 1824.04,-40.5789 1748.99,-27.1828 1704.37,-21.214"/>
<polygon fill="midnightblue" stroke="midnightblue" points="1704.62,-17.7168 1694.26,-19.9183 1703.73,-24.6601 1704.62,-17.7168"/>
</g>
<!-- Node36&#45;&gt;Node32 -->
<g id="edge53" class="edge"><title>Node36&#45;&gt;Node32</title>
<path fill="none" stroke="midnightblue" d="M2083.73,-136.486C2098.7,-128.373 2120.73,-115.17 2137,-100 2158.31,-80.1327 2177.48,-52.1725 2188.68,-34.3178"/>
<polygon fill="midnightblue" stroke="midnightblue" points="2191.81,-35.9097 2194.05,-25.5538 2185.84,-32.254 2191.81,-35.9097"/>
</g>
<!-- Node37 -->
<g id="node37" class="node"><title>Node37</title>
<polygon fill="none" stroke="#bfbfbf" points="2003,-74.5 2003,-93.5 2049,-93.5 2049,-74.5 2003,-74.5"/>
<text text-anchor="middle" x="2026" y="-81.5" font-family="Helvetica,sans-Serif" font-size="10.00">cstdint</text>
</g>
<!-- Node36&#45;&gt;Node37 -->
<g id="edge52" class="edge"><title>Node36&#45;&gt;Node37</title>
<path fill="none" stroke="midnightblue" d="M2061.13,-136.403C2055.04,-127.493 2045.36,-113.325 2037.7,-102.118"/>
<polygon fill="midnightblue" stroke="midnightblue" points="2040.4,-99.8624 2031.86,-93.5806 2034.62,-103.812 2040.4,-99.8624"/>
</g>
<!-- Node38 -->
<g id="node38" class="node"><title>Node38</title>
<polygon fill="none" stroke="#bfbfbf" points="2067,-74.5 2067,-93.5 2129,-93.5 2129,-74.5 2067,-74.5"/>
<text text-anchor="middle" x="2098" y="-81.5" font-family="Helvetica,sans-Serif" font-size="10.00">type_traits</text>
</g>
<!-- Node36&#45;&gt;Node38 -->
<g id="edge54" class="edge"><title>Node36&#45;&gt;Node38</title>
<path fill="none" stroke="midnightblue" d="M2071.44,-136.403C2075.95,-127.671 2083.07,-113.889 2088.81,-102.794"/>
<polygon fill="midnightblue" stroke="midnightblue" points="2092.09,-104.071 2093.57,-93.5806 2085.87,-100.858 2092.09,-104.071"/>
</g>
<!-- Node36&#45;&gt;Node39 -->
<g id="edge56" class="edge"><title>Node36&#45;&gt;Node39</title>
<path fill="none" stroke="midnightblue" d="M2102.7,-136.467C2147.3,-125.805 2223.69,-107.545 2272.46,-95.886"/>
<polygon fill="midnightblue" stroke="midnightblue" points="2273.52,-99.2325 2282.43,-93.5034 2271.89,-92.4243 2273.52,-99.2325"/>
</g>
<!-- Node42 -->
<g id="node42" class="node"><title>Node42</title>
<polygon fill="none" stroke="#bfbfbf" points="1935.5,-74.5 1935.5,-93.5 1984.5,-93.5 1984.5,-74.5 1935.5,-74.5"/>
<text text-anchor="middle" x="1960" y="-81.5" font-family="Helvetica,sans-Serif" font-size="10.00">cassert</text>
</g>
<!-- Node36&#45;&gt;Node42 -->
<g id="edge60" class="edge"><title>Node36&#45;&gt;Node42</title>
<path fill="none" stroke="midnightblue" d="M2051.67,-136.403C2034.03,-126.512 2004.84,-110.144 1984.14,-98.5378"/>
<polygon fill="midnightblue" stroke="midnightblue" points="1985.74,-95.4188 1975.3,-93.5806 1982.31,-101.524 1985.74,-95.4188"/>
</g>
<!-- Node39&#45;&gt;Node32 -->
<g id="edge59" class="edge"><title>Node39&#45;&gt;Node32</title>
<path fill="none" stroke="midnightblue" d="M2302.44,-74.3717C2282.31,-63.2051 2247.01,-43.6266 2223.32,-30.4876"/>
<polygon fill="midnightblue" stroke="midnightblue" points="2225,-27.4199 2214.56,-25.6305 2221.61,-33.5415 2225,-27.4199"/>
</g>
<!-- Node40 -->
<g id="node40" class="node"><title>Node40</title>
<g id="a_node40"><a xlink:href="../../d1/daa/Base_2include_2DetectorsBase_2Constants_8h.html" target="_top" xlink:title="DetectorsBase/Constants.h">
<polygon fill="none" stroke="black" points="2244,-6.5 2244,-25.5 2382,-25.5 2382,-6.5 2244,-6.5"/>
<text text-anchor="middle" x="2313" y="-13.5" font-family="Helvetica,sans-Serif" font-size="10.00">DetectorsBase/Constants.h</text>
</a>
</g>
</g>
<!-- Node39&#45;&gt;Node40 -->
<g id="edge57" class="edge"><title>Node39&#45;&gt;Node40</title>
<path fill="none" stroke="midnightblue" d="M2317.35,-74.3717C2316.61,-64.6426 2315.39,-48.528 2314.43,-35.8504"/>
<polygon fill="midnightblue" stroke="midnightblue" points="2317.92,-35.5481 2313.67,-25.8411 2310.94,-36.077 2317.92,-35.5481"/>
</g>
<!-- Node41 -->
<g id="node41" class="node"><title>Node41</title>
<polygon fill="none" stroke="#bfbfbf" points="2400,-6.5 2400,-25.5 2444,-25.5 2444,-6.5 2400,-6.5"/>
<text text-anchor="middle" x="2422" y="-13.5" font-family="Helvetica,sans-Serif" font-size="10.00">cmath</text>
</g>
<!-- Node39&#45;&gt;Node41 -->
<g id="edge58" class="edge"><title>Node39&#45;&gt;Node41</title>
<path fill="none" stroke="midnightblue" d="M2331.6,-74.3717C2348.96,-63.3533 2379.23,-44.1449 2399.92,-31.0142"/>
<polygon fill="midnightblue" stroke="midnightblue" points="2401.83,-33.9439 2408.4,-25.6305 2398.08,-28.0336 2401.83,-33.9439"/>
</g>
<!-- Node45&#45;&gt;Node5 -->
<g id="edge69" class="edge"><title>Node45&#45;&gt;Node5</title>
<path fill="none" stroke="midnightblue" d="M349.382,-266.354C328.015,-258.927 302.009,-245.858 289,-224 269.058,-190.492 223.901,-137.878 294,-68 342.505,-19.647 1410.11,-17.009 1627.55,-16.9743"/>
<polygon fill="midnightblue" stroke="midnightblue" points="1627.83,-20.4742 1637.83,-16.9745 1627.83,-13.4742 1627.83,-20.4742"/>
</g>
<!-- Node45&#45;&gt;Node18 -->
<g id="edge68" class="edge"><title>Node45&#45;&gt;Node18</title>
<path fill="none" stroke="midnightblue" d="M444.03,-274.009C591.125,-270.106 975.517,-250.859 1279,-156 1297.59,-150.189 1299.35,-141.635 1318,-136 1453.73,-94.9829 1494.97,-122.292 1635,-100 1636.92,-99.6949 1638.86,-99.374 1640.82,-99.0403"/>
<polygon fill="midnightblue" stroke="midnightblue" points="1641.47,-102.479 1650.71,-97.2781 1640.25,-95.5872 1641.47,-102.479"/>
</g>
<!-- Node45&#45;&gt;Node30 -->
<g id="edge71" class="edge"><title>Node45&#45;&gt;Node30</title>
<path fill="none" stroke="midnightblue" d="M355.794,-266.403C329.418,-257.536 288.706,-242.429 256,-224 189.456,-186.506 119.713,-128.036 88.2266,-100.427"/>
<polygon fill="midnightblue" stroke="midnightblue" points="90.2044,-97.5038 80.3946,-93.5014 85.5673,-102.748 90.2044,-97.5038"/>
</g>
<!-- Node46 -->
<g id="node46" class="node"><title>Node46</title>
<g id="a_node46"><a xlink:href="../../d4/d25/BaseHits_8h.html" target="_top" xlink:title="SimulationDataFormat\l/BaseHits.h">
<polygon fill="none" stroke="black" points="382,-193 382,-223 496,-223 496,-193 382,-193"/>
<text text-anchor="start" x="390" y="-211" font-family="Helvetica,sans-Serif" font-size="10.00">SimulationDataFormat</text>
<text text-anchor="middle" x="439" y="-200" font-family="Helvetica,sans-Serif" font-size="10.00">/BaseHits.h</text>
</a>
</g>
</g>
<!-- Node45&#45;&gt;Node46 -->
<g id="edge66" class="edge"><title>Node45&#45;&gt;Node46</title>
<path fill="none" stroke="midnightblue" d="M390.321,-266.372C397.885,-257.457 409.997,-243.182 420.247,-231.101"/>
<polygon fill="midnightblue" stroke="midnightblue" points="423.166,-233.071 426.967,-223.181 417.829,-228.542 423.166,-233.071"/>
</g>
<!-- Node47 -->
<g id="node47" class="node"><title>Node47</title>
<polygon fill="none" stroke="#bfbfbf" points="298.5,-198.5 298.5,-217.5 363.5,-217.5 363.5,-198.5 298.5,-198.5"/>
<text text-anchor="middle" x="331" y="-205.5" font-family="Helvetica,sans-Serif" font-size="10.00">TVector3.h</text>
</g>
<!-- Node45&#45;&gt;Node47 -->
<g id="edge70" class="edge"><title>Node45&#45;&gt;Node47</title>
<path fill="none" stroke="midnightblue" d="M376.202,-266.372C368.149,-256.151 354.545,-238.884 344.36,-225.957"/>
<polygon fill="midnightblue" stroke="midnightblue" points="346.904,-223.53 337.966,-217.841 341.405,-227.862 346.904,-223.53"/>
</g>
<!-- Node46&#45;&gt;Node20 -->
<g id="edge67" class="edge"><title>Node46&#45;&gt;Node20</title>
<path fill="none" stroke="midnightblue" d="M496.258,-197.887C565.17,-186.92 680.539,-168.559 752.232,-157.149"/>
<polygon fill="midnightblue" stroke="midnightblue" points="753.157,-160.546 762.482,-155.517 752.056,-153.633 753.157,-160.546"/>
</g>
</g>
</svg>
