<?xml version="1.0" encoding="UTF-8" standalone="no"?>
<!DOCTYPE svg PUBLIC "-//W3C//DTD SVG 1.1//EN"
 "http://www.w3.org/Graphics/SVG/1.1/DTD/svg11.dtd">
<!-- Generated by graphviz version 2.36.0 (20140111.2315)
 -->
<!-- Title: /home/travis/build/AliceO2Group/AliceO2/macro/o2sim.C Pages: 1 -->
<svg width="1040pt" height="174pt"
 viewBox="0.00 0.00 1040.00 174.00" xmlns="http://www.w3.org/2000/svg" xmlns:xlink="http://www.w3.org/1999/xlink">
<g id="graph0" class="graph" transform="scale(1 1) rotate(0) translate(4 170)">
<title>/home/travis/build/AliceO2Group/AliceO2/macro/o2sim.C</title>
<!-- Node1 -->
<g id="node1" class="node"><title>Node1</title>
<polygon fill="#bfbfbf" stroke="black" points="429,-124.5 429,-165.5 547,-165.5 547,-124.5 429,-124.5"/>
<text text-anchor="start" x="437" y="-153.5" font-family="Helvetica,sans-Serif" font-size="10.00">/home/travis/build</text>
<text text-anchor="start" x="437" y="-142.5" font-family="Helvetica,sans-Serif" font-size="10.00">/AliceO2Group/AliceO2</text>
<text text-anchor="middle" x="488" y="-131.5" font-family="Helvetica,sans-Serif" font-size="10.00">/macro/o2sim.C</text>
</g>
<!-- Node2 -->
<g id="node2" class="node"><title>Node2</title>
<polygon fill="none" stroke="#bfbfbf" points="-0.5,-62.5 -0.5,-81.5 92.5,-81.5 92.5,-62.5 -0.5,-62.5"/>
<text text-anchor="middle" x="46" y="-69.5" font-family="Helvetica,sans-Serif" font-size="10.00">build_geometry.C</text>
</g>
<!-- Node1&#45;&gt;Node2 -->
<g id="edge1" class="edge"><title>Node1&#45;&gt;Node2</title>
<path fill="none" stroke="midnightblue" d="M428.769,-137.601C352.683,-128.881 216.745,-111.606 102,-88 96.5162,-86.8719 90.7716,-85.5258 85.1384,-84.1097"/>
<polygon fill="midnightblue" stroke="midnightblue" points="85.7591,-80.6546 75.1994,-81.5173 83.9923,-87.428 85.7591,-80.6546"/>
</g>
<!-- Node3 -->
<g id="node3" class="node"><title>Node3</title>
<polygon fill="none" stroke="#bfbfbf" points="110.5,-62.5 110.5,-81.5 211.5,-81.5 211.5,-62.5 110.5,-62.5"/>
<text text-anchor="middle" x="161" y="-69.5" font-family="Helvetica,sans-Serif" font-size="10.00">FairBoxGenerator.h</text>
</g>
<!-- Node1&#45;&gt;Node3 -->
<g id="edge2" class="edge"><title>Node1&#45;&gt;Node3</title>
<path fill="none" stroke="midnightblue" d="M428.999,-132.299C374.802,-121.392 292.317,-104.387 221,-88 215.572,-86.7526 209.879,-85.3949 204.253,-84.0227"/>
<polygon fill="midnightblue" stroke="midnightblue" points="204.816,-80.5567 194.269,-81.5578 203.139,-87.3526 204.816,-80.5567"/>
</g>
<!-- Node4 -->
<g id="node4" class="node"><title>Node4</title>
<polygon fill="none" stroke="#bfbfbf" points="230,-62.5 230,-81.5 348,-81.5 348,-62.5 230,-62.5"/>
<text text-anchor="middle" x="289" y="-69.5" font-family="Helvetica,sans-Serif" font-size="10.00">FairPrimaryGenerator.h</text>
</g>
<!-- Node1&#45;&gt;Node4 -->
<g id="edge3" class="edge"><title>Node1&#45;&gt;Node4</title>
<path fill="none" stroke="midnightblue" d="M433.096,-124.411C397.643,-111.762 352.667,-95.7152 322.474,-84.9429"/>
<polygon fill="midnightblue" stroke="midnightblue" points="323.431,-81.5684 312.836,-81.5045 321.079,-88.1614 323.431,-81.5684"/>
</g>
<!-- Node5 -->
<g id="node5" class="node"><title>Node5</title>
<polygon fill="none" stroke="#bfbfbf" points="366.5,-62.5 366.5,-81.5 443.5,-81.5 443.5,-62.5 366.5,-62.5"/>
<text text-anchor="middle" x="405" y="-69.5" font-family="Helvetica,sans-Serif" font-size="10.00">TStopwatch.h</text>
</g>
<!-- Node1&#45;&gt;Node5 -->
<g id="edge4" class="edge"><title>Node1&#45;&gt;Node5</title>
<path fill="none" stroke="midnightblue" d="M464.88,-124.223C451.629,-112.887 435.245,-98.8725 422.967,-88.3692"/>
<polygon fill="midnightblue" stroke="midnightblue" points="425.085,-85.5756 415.211,-81.7349 420.535,-90.895 425.085,-85.5756"/>
</g>
<!-- Node6 -->
<g id="node6" class="node"><title>Node6</title>
<polygon fill="none" stroke="#bfbfbf" points="462,-62.5 462,-81.5 514,-81.5 514,-62.5 462,-62.5"/>
<text text-anchor="middle" x="488" y="-69.5" font-family="Helvetica,sans-Serif" font-size="10.00">memory</text>
</g>
<!-- Node1&#45;&gt;Node6 -->
<g id="edge5" class="edge"><title>Node1&#45;&gt;Node6</title>
<path fill="none" stroke="midnightblue" d="M488,-124.223C488,-114.086 488,-101.807 488,-91.8125"/>
<polygon fill="midnightblue" stroke="midnightblue" points="491.5,-91.7349 488,-81.7349 484.5,-91.7349 491.5,-91.7349"/>
</g>
<!-- Node7 -->
<g id="node7" class="node"><title>Node7</title>
<polygon fill="none" stroke="#bfbfbf" points="532.5,-62.5 532.5,-81.5 633.5,-81.5 633.5,-62.5 532.5,-62.5"/>
<text text-anchor="middle" x="583" y="-69.5" font-family="Helvetica,sans-Serif" font-size="10.00">FairParRootFileIo.h</text>
</g>
<!-- Node1&#45;&gt;Node7 -->
<g id="edge6" class="edge"><title>Node1&#45;&gt;Node7</title>
<path fill="none" stroke="midnightblue" d="M514.211,-124.411C529.674,-112.854 548.933,-98.4603 563.137,-87.8449"/>
<polygon fill="midnightblue" stroke="midnightblue" points="565.334,-90.5729 571.248,-81.7828 561.143,-84.9658 565.334,-90.5729"/>
</g>
<!-- Node8 -->
<g id="node8" class="node"><title>Node8</title>
<polygon fill="none" stroke="#bfbfbf" points="652,-62.5 652,-81.5 744,-81.5 744,-62.5 652,-62.5"/>
<text text-anchor="middle" x="698" y="-69.5" font-family="Helvetica,sans-Serif" font-size="10.00">FairSystemInfo.h</text>
</g>
<!-- Node1&#45;&gt;Node8 -->
<g id="edge7" class="edge"><title>Node1&#45;&gt;Node8</title>
<path fill="none" stroke="midnightblue" d="M545.939,-124.411C583.514,-111.707 631.227,-95.5756 663.091,-84.8027"/>
<polygon fill="midnightblue" stroke="midnightblue" points="664.494,-88.023 672.846,-81.5045 662.252,-81.3918 664.494,-88.023"/>
</g>
<!-- Node9 -->
<g id="node9" class="node"><title>Node9</title>
<g id="a_node9"><a xlink:href="../../d4/dee/SimConfig_8h.html" target="_top" xlink:title="SimConfig/SimConfig.h">
<polygon fill="none" stroke="black" points="762.5,-62.5 762.5,-81.5 881.5,-81.5 881.5,-62.5 762.5,-62.5"/>
<text text-anchor="middle" x="822" y="-69.5" font-family="Helvetica,sans-Serif" font-size="10.00">SimConfig/SimConfig.h</text>
</a>
</g>
</g>
<!-- Node1&#45;&gt;Node9 -->
<g id="edge8" class="edge"><title>Node1&#45;&gt;Node9</title>
<path fill="none" stroke="midnightblue" d="M547.224,-131.587C600.943,-120.304 682.308,-103.153 753,-88 759.523,-86.6017 766.391,-85.12 773.163,-83.6536"/>
<polygon fill="midnightblue" stroke="midnightblue" points="773.933,-87.0681 782.963,-81.5276 772.449,-80.2272 773.933,-87.0681"/>
</g>
<!-- Node11 -->
<g id="node11" class="node"><title>Node11</title>
<g id="a_node11"><a xlink:href="../../de/daf/GeneratorFromFile_8h.html" target="_top" xlink:title="Generators/GeneratorFrom\lFile.h">
<polygon fill="none" stroke="black" points="899.5,-57 899.5,-87 1032.5,-87 1032.5,-57 899.5,-57"/>
<text text-anchor="start" x="907.5" y="-75" font-family="Helvetica,sans-Serif" font-size="10.00">Generators/GeneratorFrom</text>
<text text-anchor="middle" x="966" y="-64" font-family="Helvetica,sans-Serif" font-size="10.00">File.h</text>
</a>
</g>
</g>
<!-- Node1&#45;&gt;Node11 -->
<g id="edge10" class="edge"><title>Node1&#45;&gt;Node11</title>
<path fill="none" stroke="midnightblue" d="M547.082,-136.83C623.607,-127.307 761.349,-109.365 889.33,-88.0557"/>
<polygon fill="midnightblue" stroke="midnightblue" points="890.027,-91.4878 899.311,-86.3835 888.87,-84.584 890.027,-91.4878"/>
</g>
<!-- Node10 -->
<g id="node10" class="node"><title>Node10</title>
<polygon fill="none" stroke="#bfbfbf" points="794,-0.5 794,-19.5 850,-19.5 850,-0.5 794,-0.5"/>
<text text-anchor="middle" x="822" y="-7.5" font-family="Helvetica,sans-Serif" font-size="10.00">Rtypes.h</text>
</g>
<!-- Node9&#45;&gt;Node10 -->
<g id="edge9" class="edge"><title>Node9&#45;&gt;Node10</title>
<path fill="none" stroke="midnightblue" d="M822,-62.4035C822,-53.9381 822,-40.7283 822,-29.8199"/>
<polygon fill="midnightblue" stroke="midnightblue" points="825.5,-29.5806 822,-19.5806 818.5,-29.5806 825.5,-29.5806"/>
</g>
<!-- Node12 -->
<g id="node12" class="node"><title>Node12</title>
<polygon fill="none" stroke="#bfbfbf" points="924,-0.5 924,-19.5 1008,-19.5 1008,-0.5 924,-0.5"/>
<text text-anchor="middle" x="966" y="-7.5" font-family="Helvetica,sans-Serif" font-size="10.00">FairGenerator.h</text>
</g>
<!-- Node11&#45;&gt;Node12 -->
<g id="edge11" class="edge"><title>Node11&#45;&gt;Node12</title>
<path fill="none" stroke="midnightblue" d="M966,-56.7808C966,-48.7812 966,-38.6887 966,-30.0168"/>
<polygon fill="midnightblue" stroke="midnightblue" points="969.5,-29.7305 966,-19.7305 962.5,-29.7306 969.5,-29.7305"/>
</g>
</g>
</svg>
