<?xml version="1.0" encoding="UTF-8" standalone="no"?>
<!DOCTYPE svg PUBLIC "-//W3C//DTD SVG 1.1//EN"
 "http://www.w3.org/Graphics/SVG/1.1/DTD/svg11.dtd">
<!-- Generated by graphviz version 2.36.0 (20140111.2315)
 -->
<!-- Title: /home/travis/build/AliceO2Group/AliceO2/Framework/Core/include/Framework/InputRecord.h Pages: 1 -->
<svg width="1346pt" height="286pt"
 viewBox="0.00 0.00 1346.00 286.00" xmlns="http://www.w3.org/2000/svg" xmlns:xlink="http://www.w3.org/1999/xlink">
<g id="graph0" class="graph" transform="scale(1 1) rotate(0) translate(4 282)">
<title>/home/travis/build/AliceO2Group/AliceO2/Framework/Core/include/Framework/InputRecord.h</title>
<!-- Node1 -->
<g id="node1" class="node"><title>Node1</title>
<polygon fill="#bfbfbf" stroke="black" points="763.5,-225 763.5,-277 896.5,-277 896.5,-225 763.5,-225"/>
<text text-anchor="start" x="771.5" y="-265" font-family="Helvetica,sans-Serif" font-size="10.00">/home/travis/build</text>
<text text-anchor="start" x="771.5" y="-254" font-family="Helvetica,sans-Serif" font-size="10.00">/AliceO2Group/AliceO2</text>
<text text-anchor="start" x="771.5" y="-243" font-family="Helvetica,sans-Serif" font-size="10.00">/Framework/Core/include</text>
<text text-anchor="middle" x="830" y="-232" font-family="Helvetica,sans-Serif" font-size="10.00">/Framework/InputRecord.h</text>
</g>
<!-- Node2 -->
<g id="node2" class="node"><title>Node2</title>
<g id="a_node2"><a xlink:href="../../d5/dfb/DataRef_8h.html" target="_top" xlink:title="Framework/DataRef.h">
<polygon fill="none" stroke="black" points="-0.5,-112.5 -0.5,-131.5 112.5,-131.5 112.5,-112.5 -0.5,-112.5"/>
<text text-anchor="middle" x="56" y="-119.5" font-family="Helvetica,sans-Serif" font-size="10.00">Framework/DataRef.h</text>
</a>
</g>
</g>
<!-- Node1&#45;&gt;Node2 -->
<g id="edge1" class="edge"><title>Node1&#45;&gt;Node2</title>
<path fill="none" stroke="midnightblue" d="M763.201,-243.986C667.308,-234.83 485.288,-215.51 332,-188 247.789,-172.887 150.709,-148.335 97.0477,-134.127"/>
<polygon fill="midnightblue" stroke="midnightblue" points="97.7923,-130.703 87.2285,-131.514 95.9921,-137.468 97.7923,-130.703"/>
</g>
<!-- Node3 -->
<g id="node3" class="node"><title>Node3</title>
<g id="a_node3"><a xlink:href="../../d5/db8/DataRefUtils_8h.html" target="_top" xlink:title="Framework/DataRefUtils.h">
<polygon fill="none" stroke="black" points="415,-168.5 415,-187.5 549,-187.5 549,-168.5 415,-168.5"/>
<text text-anchor="middle" x="482" y="-175.5" font-family="Helvetica,sans-Serif" font-size="10.00">Framework/DataRefUtils.h</text>
</a>
</g>
</g>
<!-- Node1&#45;&gt;Node3 -->
<g id="edge2" class="edge"><title>Node1&#45;&gt;Node3</title>
<path fill="none" stroke="midnightblue" d="M763.314,-236.394C696.385,-222.74 594.704,-201.994 533.667,-189.541"/>
<polygon fill="midnightblue" stroke="midnightblue" points="534.363,-186.111 523.865,-187.541 532.963,-192.97 534.363,-186.111"/>
</g>
<!-- Node6 -->
<g id="node6" class="node"><title>Node6</title>
<polygon fill="none" stroke="#bfbfbf" points="747,-0.5 747,-19.5 799,-19.5 799,-0.5 747,-0.5"/>
<text text-anchor="middle" x="773" y="-7.5" font-family="Helvetica,sans-Serif" font-size="10.00">memory</text>
</g>
<!-- Node1&#45;&gt;Node6 -->
<g id="edge34" class="edge"><title>Node1&#45;&gt;Node6</title>
<path fill="none" stroke="midnightblue" d="M817.135,-224.976C805.771,-201.593 789.825,-165.375 782,-132 773.694,-96.5741 772.5,-53.8663 772.601,-29.832"/>
<polygon fill="midnightblue" stroke="midnightblue" points="776.103,-29.6906 772.729,-19.6472 769.104,-29.6022 776.103,-29.6906"/>
</g>
<!-- Node7 -->
<g id="node7" class="node"><title>Node7</title>
<polygon fill="none" stroke="#bfbfbf" points="996.5,-0.5 996.5,-19.5 1045.5,-19.5 1045.5,-0.5 996.5,-0.5"/>
<text text-anchor="middle" x="1021" y="-7.5" font-family="Helvetica,sans-Serif" font-size="10.00">cassert</text>
</g>
<!-- Node1&#45;&gt;Node7 -->
<g id="edge32" class="edge"><title>Node1&#45;&gt;Node7</title>
<path fill="none" stroke="midnightblue" d="M896.789,-238.577C933.068,-229.674 976.932,-214.245 1009,-188 1031.36,-169.703 1034.4,-159.871 1042,-132 1051.78,-96.146 1038.51,-53.0215 1029.04,-29.1488"/>
<polygon fill="midnightblue" stroke="midnightblue" points="1032.14,-27.5025 1025.05,-19.6302 1025.69,-30.2061 1032.14,-27.5025"/>
</g>
<!-- Node8 -->
<g id="node8" class="node"><title>Node8</title>
<polygon fill="none" stroke="#bfbfbf" points="1082,-0.5 1082,-19.5 1128,-19.5 1128,-0.5 1082,-0.5"/>
<text text-anchor="middle" x="1105" y="-7.5" font-family="Helvetica,sans-Serif" font-size="10.00">cstring</text>
</g>
<!-- Node1&#45;&gt;Node8 -->
<g id="edge31" class="edge"><title>Node1&#45;&gt;Node8</title>
<path fill="none" stroke="midnightblue" d="M896.914,-243.695C939.961,-236.492 994.636,-221.06 1032,-188 1080.3,-145.267 1097.32,-65.651 1102.73,-29.5955"/>
<polygon fill="midnightblue" stroke="midnightblue" points="1106.22,-29.903 1104.1,-19.5218 1099.28,-28.9571 1106.22,-29.903"/>
</g>
<!-- Node10 -->
<g id="node10" class="node"><title>Node10</title>
<g id="a_node10"><a xlink:href="../../d8/d3c/TMessageSerializer_8h.html" target="_top" xlink:title="Framework/TMessageSerializer.h">
<polygon fill="none" stroke="black" points="130.5,-112.5 130.5,-131.5 293.5,-131.5 293.5,-112.5 130.5,-112.5"/>
<text text-anchor="middle" x="212" y="-119.5" font-family="Helvetica,sans-Serif" font-size="10.00">Framework/TMessageSerializer.h</text>
</a>
</g>
</g>
<!-- Node1&#45;&gt;Node10 -->
<g id="edge26" class="edge"><title>Node1&#45;&gt;Node10</title>
<path fill="none" stroke="midnightblue" d="M763.208,-243.948C679.079,-235.479 530.463,-217.7 406,-188 347.166,-173.961 280.766,-149.839 242.896,-135.26"/>
<polygon fill="midnightblue" stroke="midnightblue" points="244.042,-131.95 233.453,-131.594 241.509,-138.476 244.042,-131.95"/>
</g>
<!-- Node11 -->
<g id="node11" class="node"><title>Node11</title>
<polygon fill="none" stroke="#bfbfbf" points="484.5,-56.5 484.5,-75.5 611.5,-75.5 611.5,-56.5 484.5,-56.5"/>
<text text-anchor="middle" x="548" y="-63.5" font-family="Helvetica,sans-Serif" font-size="10.00">fairmq/FairMQMessage.h</text>
</g>
<!-- Node1&#45;&gt;Node11 -->
<g id="edge25" class="edge"><title>Node1&#45;&gt;Node11</title>
<path fill="none" stroke="midnightblue" d="M790.691,-224.714C776.508,-214.412 761.043,-201.7 749,-188 723.231,-158.686 735.772,-136.009 705,-112 681.103,-93.355 649.789,-82.4347 621.418,-76.0391"/>
<polygon fill="midnightblue" stroke="midnightblue" points="622.029,-72.591 611.523,-73.9603 620.59,-79.4415 622.029,-72.591"/>
</g>
<!-- Node14 -->
<g id="node14" class="node"><title>Node14</title>
<polygon fill="none" stroke="#bfbfbf" points="561,-112.5 561,-131.5 617,-131.5 617,-112.5 561,-112.5"/>
<text text-anchor="middle" x="589" y="-119.5" font-family="Helvetica,sans-Serif" font-size="10.00">TClass.h</text>
</g>
<!-- Node1&#45;&gt;Node14 -->
<g id="edge27" class="edge"><title>Node1&#45;&gt;Node14</title>
<path fill="none" stroke="midnightblue" d="M767.678,-224.857C743.069,-214.297 714.804,-201.369 690,-188 661.03,-172.385 629.392,-151.318 609.386,-137.456"/>
<polygon fill="midnightblue" stroke="midnightblue" points="611.266,-134.5 601.065,-131.64 607.256,-140.237 611.266,-134.5"/>
</g>
<!-- Node17 -->
<g id="node17" class="node"><title>Node17</title>
<polygon fill="none" stroke="#bfbfbf" points="635,-112.5 635,-131.5 697,-131.5 697,-112.5 635,-112.5"/>
<text text-anchor="middle" x="666" y="-119.5" font-family="Helvetica,sans-Serif" font-size="10.00">type_traits</text>
</g>
<!-- Node1&#45;&gt;Node17 -->
<g id="edge35" class="edge"><title>Node1&#45;&gt;Node17</title>
<path fill="none" stroke="midnightblue" d="M768.307,-224.953C748.7,-215.21 727.772,-202.793 711,-188 695.759,-174.558 683.095,-154.921 675.125,-140.753"/>
<polygon fill="midnightblue" stroke="midnightblue" points="678.003,-138.715 670.182,-131.568 671.84,-142.033 678.003,-138.715"/>
</g>
<!-- Node19 -->
<g id="node19" class="node"><title>Node19</title>
<g id="a_node19"><a xlink:href="../../d5/d19/InputRoute_8h.html" target="_top" xlink:title="Framework/InputRoute.h">
<polygon fill="none" stroke="black" points="835.5,-168.5 835.5,-187.5 960.5,-187.5 960.5,-168.5 835.5,-168.5"/>
<text text-anchor="middle" x="898" y="-175.5" font-family="Helvetica,sans-Serif" font-size="10.00">Framework/InputRoute.h</text>
</a>
</g>
</g>
<!-- Node1&#45;&gt;Node19 -->
<g id="edge19" class="edge"><title>Node1&#45;&gt;Node19</title>
<path fill="none" stroke="midnightblue" d="M854.166,-224.768C863.635,-214.881 874.218,-203.831 882.613,-195.066"/>
<polygon fill="midnightblue" stroke="midnightblue" points="885.224,-197.4 889.613,-187.757 880.168,-192.558 885.224,-197.4"/>
</g>
<!-- Node21 -->
<g id="node21" class="node"><title>Node21</title>
<polygon fill="none" stroke="#bfbfbf" points="927.5,-56.5 927.5,-75.5 968.5,-75.5 968.5,-56.5 927.5,-56.5"/>
<text text-anchor="middle" x="948" y="-63.5" font-family="Helvetica,sans-Serif" font-size="10.00">string</text>
</g>
<!-- Node1&#45;&gt;Node21 -->
<g id="edge29" class="edge"><title>Node1&#45;&gt;Node21</title>
<path fill="none" stroke="midnightblue" d="M896.748,-232.523C944.624,-215.788 1004.49,-185.028 1027,-132 1038.06,-105.936 1004.71,-87.1271 977.972,-76.6447"/>
<polygon fill="midnightblue" stroke="midnightblue" points="979.107,-73.3331 968.514,-73.1615 976.688,-79.9018 979.107,-73.3331"/>
</g>
<!-- Node23 -->
<g id="node23" class="node"><title>Node23</title>
<polygon fill="none" stroke="#bfbfbf" points="1151.5,-168.5 1151.5,-187.5 1198.5,-187.5 1198.5,-168.5 1151.5,-168.5"/>
<text text-anchor="middle" x="1175" y="-175.5" font-family="Helvetica,sans-Serif" font-size="10.00">iterator</text>
</g>
<!-- Node1&#45;&gt;Node23 -->
<g id="edge28" class="edge"><title>Node1&#45;&gt;Node23</title>
<path fill="none" stroke="midnightblue" d="M896.608,-237.212C958.883,-225.098 1054.41,-206.115 1137,-188 1138.45,-187.682 1139.93,-187.353 1141.42,-187.017"/>
<polygon fill="midnightblue" stroke="midnightblue" points="1142.35,-190.394 1151.31,-184.739 1140.78,-183.572 1142.35,-190.394"/>
</g>
<!-- Node24 -->
<g id="node24" class="node"><title>Node24</title>
<polygon fill="none" stroke="#bfbfbf" points="1217,-168.5 1217,-187.5 1261,-187.5 1261,-168.5 1217,-168.5"/>
<text text-anchor="middle" x="1239" y="-175.5" font-family="Helvetica,sans-Serif" font-size="10.00">vector</text>
</g>
<!-- Node1&#45;&gt;Node24 -->
<g id="edge30" class="edge"><title>Node1&#45;&gt;Node24</title>
<path fill="none" stroke="midnightblue" d="M896.827,-241.299C970.379,-231.209 1092.21,-212.982 1206.71,-187.83"/>
<polygon fill="midnightblue" stroke="midnightblue" points="1207.7,-191.196 1216.7,-185.613 1206.18,-184.362 1207.7,-191.196"/>
</g>
<!-- Node25 -->
<g id="node25" class="node"><title>Node25</title>
<polygon fill="none" stroke="#bfbfbf" points="1279.5,-168.5 1279.5,-187.5 1338.5,-187.5 1338.5,-168.5 1279.5,-168.5"/>
<text text-anchor="middle" x="1309" y="-175.5" font-family="Helvetica,sans-Serif" font-size="10.00">exception</text>
</g>
<!-- Node1&#45;&gt;Node25 -->
<g id="edge33" class="edge"><title>Node1&#45;&gt;Node25</title>
<path fill="none" stroke="midnightblue" d="M896.835,-242.27C983.132,-231.899 1137.82,-211.98 1269,-188 1269.11,-187.981 1269.21,-187.962 1269.32,-187.942"/>
<polygon fill="midnightblue" stroke="midnightblue" points="1270.22,-191.331 1279.35,-185.953 1268.86,-184.465 1270.22,-191.331"/>
</g>
<!-- Node3&#45;&gt;Node2 -->
<g id="edge3" class="edge"><title>Node3&#45;&gt;Node2</title>
<path fill="none" stroke="midnightblue" d="M414.766,-168.896C344.435,-160.355 230.536,-146.348 122.786,-132.222"/>
<polygon fill="midnightblue" stroke="midnightblue" points="123.085,-128.731 112.714,-130.899 122.173,-135.672 123.085,-128.731"/>
</g>
<!-- Node4 -->
<g id="node4" class="node"><title>Node4</title>
<g id="a_node4"><a xlink:href="../../dc/dcd/DataHeader_8h.html" target="_top" xlink:title="Headers/DataHeader.h">
<polygon fill="none" stroke="black" points="792.5,-56.5 792.5,-75.5 909.5,-75.5 909.5,-56.5 792.5,-56.5"/>
<text text-anchor="middle" x="851" y="-63.5" font-family="Helvetica,sans-Serif" font-size="10.00">Headers/DataHeader.h</text>
</a>
</g>
</g>
<!-- Node3&#45;&gt;Node4 -->
<g id="edge4" class="edge"><title>Node3&#45;&gt;Node4</title>
<path fill="none" stroke="midnightblue" d="M488.606,-168.081C499.849,-153.634 524.209,-125.386 552,-112 591.467,-92.9899 706.56,-79.6403 781.895,-72.6505"/>
<polygon fill="midnightblue" stroke="midnightblue" points="782.609,-76.1001 792.25,-71.7065 781.973,-69.129 782.609,-76.1001"/>
</g>
<!-- Node3&#45;&gt;Node10 -->
<g id="edge10" class="edge"><title>Node3&#45;&gt;Node10</title>
<path fill="none" stroke="midnightblue" d="M439.218,-168.444C391.821,-158.964 315.374,-143.675 264.417,-133.483"/>
<polygon fill="midnightblue" stroke="midnightblue" points="265.074,-130.046 254.582,-131.516 263.702,-136.91 265.074,-130.046"/>
</g>
<!-- Node3&#45;&gt;Node14 -->
<g id="edge14" class="edge"><title>Node3&#45;&gt;Node14</title>
<path fill="none" stroke="midnightblue" d="M499.191,-168.324C516.351,-159.664 542.946,-146.242 562.747,-136.249"/>
<polygon fill="midnightblue" stroke="midnightblue" points="564.501,-139.285 571.851,-131.655 561.347,-133.035 564.501,-139.285"/>
</g>
<!-- Node15 -->
<g id="node15" class="node"><title>Node15</title>
<polygon fill="none" stroke="#bfbfbf" points="311.5,-112.5 311.5,-131.5 370.5,-131.5 370.5,-112.5 311.5,-112.5"/>
<text text-anchor="middle" x="341" y="-119.5" font-family="Helvetica,sans-Serif" font-size="10.00">stdexcept</text>
</g>
<!-- Node3&#45;&gt;Node15 -->
<g id="edge15" class="edge"><title>Node3&#45;&gt;Node15</title>
<path fill="none" stroke="midnightblue" d="M459.658,-168.444C436.247,-159.478 399.264,-145.314 372.81,-135.183"/>
<polygon fill="midnightblue" stroke="midnightblue" points="373.828,-131.824 363.237,-131.516 371.324,-138.361 373.828,-131.824"/>
</g>
<!-- Node16 -->
<g id="node16" class="node"><title>Node16</title>
<polygon fill="none" stroke="#bfbfbf" points="389,-112.5 389,-131.5 441,-131.5 441,-112.5 389,-112.5"/>
<text text-anchor="middle" x="415" y="-119.5" font-family="Helvetica,sans-Serif" font-size="10.00">sstream</text>
</g>
<!-- Node3&#45;&gt;Node16 -->
<g id="edge16" class="edge"><title>Node3&#45;&gt;Node16</title>
<path fill="none" stroke="midnightblue" d="M471.235,-168.324C461.234,-160.263 446.113,-148.077 434.07,-138.369"/>
<polygon fill="midnightblue" stroke="midnightblue" points="435.943,-135.384 425.961,-131.834 431.55,-140.834 435.943,-135.384"/>
</g>
<!-- Node3&#45;&gt;Node17 -->
<g id="edge17" class="edge"><title>Node3&#45;&gt;Node17</title>
<path fill="none" stroke="midnightblue" d="M511.155,-168.444C542.513,-159.241 592.531,-144.562 627.197,-134.388"/>
<polygon fill="midnightblue" stroke="midnightblue" points="628.371,-137.691 636.981,-131.516 626.4,-130.974 628.371,-137.691"/>
</g>
<!-- Node18 -->
<g id="node18" class="node"><title>Node18</title>
<polygon fill="none" stroke="#bfbfbf" points="459.5,-112.5 459.5,-131.5 504.5,-131.5 504.5,-112.5 459.5,-112.5"/>
<text text-anchor="middle" x="482" y="-119.5" font-family="Helvetica,sans-Serif" font-size="10.00">gsl/gsl</text>
</g>
<!-- Node3&#45;&gt;Node18 -->
<g id="edge18" class="edge"><title>Node3&#45;&gt;Node18</title>
<path fill="none" stroke="midnightblue" d="M482,-168.083C482,-161.006 482,-150.861 482,-141.986"/>
<polygon fill="midnightblue" stroke="midnightblue" points="485.5,-141.751 482,-131.751 478.5,-141.751 485.5,-141.751"/>
</g>
<!-- Node5 -->
<g id="node5" class="node"><title>Node5</title>
<polygon fill="none" stroke="#bfbfbf" points="822,-0.5 822,-19.5 868,-19.5 868,-0.5 822,-0.5"/>
<text text-anchor="middle" x="845" y="-7.5" font-family="Helvetica,sans-Serif" font-size="10.00">cstdint</text>
</g>
<!-- Node4&#45;&gt;Node5 -->
<g id="edge5" class="edge"><title>Node4&#45;&gt;Node5</title>
<path fill="none" stroke="midnightblue" d="M850.009,-56.083C849.214,-48.9272 848.071,-38.6353 847.077,-29.6911"/>
<polygon fill="midnightblue" stroke="midnightblue" points="850.555,-29.3034 845.972,-19.7511 843.598,-30.0765 850.555,-29.3034"/>
</g>
<!-- Node4&#45;&gt;Node6 -->
<g id="edge6" class="edge"><title>Node4&#45;&gt;Node6</title>
<path fill="none" stroke="midnightblue" d="M838.468,-56.324C826.414,-47.979 807.973,-35.2122 793.731,-25.3524"/>
<polygon fill="midnightblue" stroke="midnightblue" points="795.715,-22.469 785.501,-19.6545 791.731,-28.2243 795.715,-22.469"/>
</g>
<!-- Node4&#45;&gt;Node7 -->
<g id="edge7" class="edge"><title>Node4&#45;&gt;Node7</title>
<path fill="none" stroke="midnightblue" d="M877.937,-56.4435C907.336,-47.1049 954.487,-32.1276 986.556,-21.9409"/>
<polygon fill="midnightblue" stroke="midnightblue" points="987.926,-25.1783 996.397,-18.8151 985.807,-18.5068 987.926,-25.1783"/>
</g>
<!-- Node4&#45;&gt;Node8 -->
<g id="edge8" class="edge"><title>Node4&#45;&gt;Node8</title>
<path fill="none" stroke="midnightblue" d="M891.247,-56.4435C941.186,-45.8266 1025.41,-27.9216 1071.82,-18.0537"/>
<polygon fill="midnightblue" stroke="midnightblue" points="1072.62,-21.4624 1081.67,-15.9593 1071.16,-14.6154 1072.62,-21.4624"/>
</g>
<!-- Node9 -->
<g id="node9" class="node"><title>Node9</title>
<polygon fill="none" stroke="#bfbfbf" points="886,-0.5 886,-19.5 942,-19.5 942,-0.5 886,-0.5"/>
<text text-anchor="middle" x="914" y="-7.5" font-family="Helvetica,sans-Serif" font-size="10.00">algorithm</text>
</g>
<!-- Node4&#45;&gt;Node9 -->
<g id="edge9" class="edge"><title>Node4&#45;&gt;Node9</title>
<path fill="none" stroke="midnightblue" d="M861.122,-56.324C870.526,-48.2631 884.744,-36.0765 896.069,-26.3695"/>
<polygon fill="midnightblue" stroke="midnightblue" points="898.379,-28.9993 903.694,-19.8339 893.823,-23.6844 898.379,-28.9993"/>
</g>
<!-- Node10&#45;&gt;Node11 -->
<g id="edge11" class="edge"><title>Node10&#45;&gt;Node11</title>
<path fill="none" stroke="midnightblue" d="M265.24,-112.444C324.96,-102.846 421.741,-87.2916 485.132,-77.1037"/>
<polygon fill="midnightblue" stroke="midnightblue" points="485.691,-80.559 495.009,-75.5164 484.58,-73.6476 485.691,-80.559"/>
</g>
<!-- Node12 -->
<g id="node12" class="node"><title>Node12</title>
<polygon fill="none" stroke="#bfbfbf" points="224.5,-56.5 224.5,-75.5 295.5,-75.5 295.5,-56.5 224.5,-56.5"/>
<text text-anchor="middle" x="260" y="-63.5" font-family="Helvetica,sans-Serif" font-size="10.00">TMessage.h</text>
</g>
<!-- Node10&#45;&gt;Node12 -->
<g id="edge12" class="edge"><title>Node10&#45;&gt;Node12</title>
<path fill="none" stroke="midnightblue" d="M219.926,-112.083C226.846,-104.298 237.065,-92.8015 245.452,-83.3665"/>
<polygon fill="midnightblue" stroke="midnightblue" points="248.194,-85.5505 252.221,-75.7511 242.962,-80.8999 248.194,-85.5505"/>
</g>
<!-- Node13 -->
<g id="node13" class="node"><title>Node13</title>
<polygon fill="none" stroke="#bfbfbf" points="121.5,-56.5 121.5,-75.5 206.5,-75.5 206.5,-56.5 121.5,-56.5"/>
<text text-anchor="middle" x="164" y="-63.5" font-family="Helvetica,sans-Serif" font-size="10.00">TClonesArray.h</text>
</g>
<!-- Node10&#45;&gt;Node13 -->
<g id="edge13" class="edge"><title>Node10&#45;&gt;Node13</title>
<path fill="none" stroke="midnightblue" d="M204.074,-112.083C197.154,-104.298 186.935,-92.8015 178.548,-83.3665"/>
<polygon fill="midnightblue" stroke="midnightblue" points="181.038,-80.8999 171.779,-75.7511 175.806,-85.5505 181.038,-80.8999"/>
</g>
<!-- Node20 -->
<g id="node20" class="node"><title>Node20</title>
<g id="a_node20"><a xlink:href="../../d5/d3f/InputSpec_8h.html" target="_top" xlink:title="Framework/InputSpec.h">
<polygon fill="none" stroke="black" points="791.5,-112.5 791.5,-131.5 912.5,-131.5 912.5,-112.5 791.5,-112.5"/>
<text text-anchor="middle" x="852" y="-119.5" font-family="Helvetica,sans-Serif" font-size="10.00">Framework/InputSpec.h</text>
</a>
</g>
</g>
<!-- Node19&#45;&gt;Node20 -->
<g id="edge20" class="edge"><title>Node19&#45;&gt;Node20</title>
<path fill="none" stroke="midnightblue" d="M890.404,-168.083C883.773,-160.298 873.979,-148.801 865.942,-139.367"/>
<polygon fill="midnightblue" stroke="midnightblue" points="868.604,-137.094 859.455,-131.751 863.275,-141.633 868.604,-137.094"/>
</g>
<!-- Node19&#45;&gt;Node21 -->
<g id="edge24" class="edge"><title>Node19&#45;&gt;Node21</title>
<path fill="none" stroke="midnightblue" d="M902.613,-168.472C907.409,-159.495 915.035,-144.901 921,-132 928.284,-116.247 935.796,-97.9658 941.042,-84.8109"/>
<polygon fill="midnightblue" stroke="midnightblue" points="944.299,-86.0928 944.715,-75.5062 937.787,-83.5226 944.299,-86.0928"/>
</g>
<!-- Node22 -->
<g id="node22" class="node"><title>Node22</title>
<polygon fill="none" stroke="#bfbfbf" points="969.5,-112.5 969.5,-131.5 1018.5,-131.5 1018.5,-112.5 969.5,-112.5"/>
<text text-anchor="middle" x="994" y="-119.5" font-family="Helvetica,sans-Serif" font-size="10.00">cstddef</text>
</g>
<!-- Node19&#45;&gt;Node22 -->
<g id="edge23" class="edge"><title>Node19&#45;&gt;Node22</title>
<path fill="none" stroke="midnightblue" d="M913.424,-168.324C928.54,-159.822 951.815,-146.729 969.471,-136.797"/>
<polygon fill="midnightblue" stroke="midnightblue" points="971.614,-139.608 978.614,-131.655 968.183,-133.507 971.614,-139.608"/>
</g>
<!-- Node20&#45;&gt;Node4 -->
<g id="edge22" class="edge"><title>Node20&#45;&gt;Node4</title>
<path fill="none" stroke="midnightblue" d="M851.835,-112.083C851.704,-105.006 851.516,-94.8611 851.352,-85.9865"/>
<polygon fill="midnightblue" stroke="midnightblue" points="854.847,-85.6845 851.162,-75.7511 847.848,-85.8142 854.847,-85.6845"/>
</g>
<!-- Node20&#45;&gt;Node21 -->
<g id="edge21" class="edge"><title>Node20&#45;&gt;Node21</title>
<path fill="none" stroke="midnightblue" d="M867.424,-112.324C882.54,-103.822 905.815,-90.7288 923.471,-80.7975"/>
<polygon fill="midnightblue" stroke="midnightblue" points="925.614,-83.6077 932.614,-75.6545 922.183,-77.5066 925.614,-83.6077"/>
</g>
</g>
</svg>
