<?xml version="1.0" encoding="UTF-8" standalone="no"?>
<!DOCTYPE svg PUBLIC "-//W3C//DTD SVG 1.1//EN"
 "http://www.w3.org/Graphics/SVG/1.1/DTD/svg11.dtd">
<!-- Generated by graphviz version 2.36.0 (20140111.2315)
 -->
<!-- Title: o2::DataFormat::TPC::ClusterHardware Pages: 1 -->
<svg width="245pt" height="248pt"
 viewBox="0.00 0.00 245.00 248.00" xmlns="http://www.w3.org/2000/svg" xmlns:xlink="http://www.w3.org/1999/xlink">
<g id="graph0" class="graph" transform="scale(1 1) rotate(0) translate(4 244)">
<title>o2::DataFormat::TPC::ClusterHardware</title>
<!-- Node1 -->
<g id="node1" class="node"><title>Node1</title>
<polygon fill="#bfbfbf" stroke="black" points="36.5,-0.5 36.5,-101.5 147.5,-101.5 147.5,-0.5 36.5,-0.5"/>
<text text-anchor="start" x="44.5" y="-89.5" font-family="Helvetica,sans-Serif" font-size="10.00">o2::DataFormat::TPC</text>
<text text-anchor="middle" x="92" y="-78.5" font-family="Helvetica,sans-Serif" font-size="10.00">::ClusterHardware</text>
<polyline fill="none" stroke="black" points="36.5,-71.5 147.5,-71.5 "/>
<text text-anchor="middle" x="92" y="-59.5" font-family="Helvetica,sans-Serif" font-size="10.00"> </text>
<polyline fill="none" stroke="black" points="36.5,-52.5 147.5,-52.5 "/>
<text text-anchor="start" x="44.5" y="-40.5" font-family="Helvetica,sans-Serif" font-size="10.00">+ getPad()</text>
<text text-anchor="start" x="44.5" y="-29.5" font-family="Helvetica,sans-Serif" font-size="10.00">+ getTimeLocal()</text>
<text text-anchor="start" x="44.5" y="-18.5" font-family="Helvetica,sans-Serif" font-size="10.00">+ getSigmaPad2()</text>
<text text-anchor="start" x="44.5" y="-7.5" font-family="Helvetica,sans-Serif" font-size="10.00">+ getSigmaTime2()</text>
</g>
<!-- Node2 -->
<g id="node2" class="node"><title>Node2</title>
<polygon fill="none" stroke="#bfbfbf" points="-0.5,-182.5 -0.5,-239.5 50.5,-239.5 50.5,-182.5 -0.5,-182.5"/>
<text text-anchor="middle" x="25" y="-227.5" font-family="Helvetica,sans-Serif" font-size="10.00">uint16_t</text>
<polyline fill="none" stroke="#bfbfbf" points="-0.5,-220.5 50.5,-220.5 "/>
<text text-anchor="middle" x="25" y="-208.5" font-family="Helvetica,sans-Serif" font-size="10.00"> </text>
<polyline fill="none" stroke="#bfbfbf" points="-0.5,-201.5 50.5,-201.5 "/>
<text text-anchor="middle" x="25" y="-189.5" font-family="Helvetica,sans-Serif" font-size="10.00"> </text>
</g>
<!-- Node2&#45;&gt;Node1 -->
<g id="edge1" class="edge"><title>Node2&#45;&gt;Node1</title>
<path fill="none" stroke="#404040" d="M27.8861,-182.335C30.4962,-164.063 35.3158,-139.907 44,-120 45.1457,-117.374 46.4019,-114.746 47.7445,-112.134"/>
<polygon fill="none" stroke="#404040" points="47.8263,-111.988 47.2681,-104.798 53.6899,-101.518 54.248,-108.707 47.8263,-111.988"/>
<text text-anchor="middle" x="66" y="-145" font-family="Helvetica,sans-Serif" font-size="10.00"> +mQMax</text>
<text text-anchor="middle" x="66" y="-134" font-family="Helvetica,sans-Serif" font-size="10.00">+mQTot</text>
</g>
<!-- Node3 -->
<g id="node3" class="node"><title>Node3</title>
<g id="a_node3"><a xlink:href="../../d4/dc3/classfloat.html" target="_top" xlink:title="{float\n||}">
<polygon fill="none" stroke="black" points="74.5,-182.5 74.5,-239.5 109.5,-239.5 109.5,-182.5 74.5,-182.5"/>
<text text-anchor="middle" x="92" y="-227.5" font-family="Helvetica,sans-Serif" font-size="10.00">float</text>
<polyline fill="none" stroke="black" points="74.5,-220.5 109.5,-220.5 "/>
<text text-anchor="middle" x="92" y="-208.5" font-family="Helvetica,sans-Serif" font-size="10.00"> </text>
<polyline fill="none" stroke="black" points="74.5,-201.5 109.5,-201.5 "/>
<text text-anchor="middle" x="92" y="-189.5" font-family="Helvetica,sans-Serif" font-size="10.00"> </text>
</a>
</g>
</g>
<!-- Node3&#45;&gt;Node1 -->
<g id="edge2" class="edge"><title>Node3&#45;&gt;Node1</title>
<path fill="none" stroke="#404040" d="M92,-182.479C92,-163.505 92,-137.516 92,-113.724"/>
<polygon fill="none" stroke="#404040" points="92.0001,-113.532 88,-107.532 92,-101.532 96,-107.532 92.0001,-113.532"/>
<text text-anchor="middle" x="136" y="-156" font-family="Helvetica,sans-Serif" font-size="10.00"> +mSigmaTime2Pre</text>
<text text-anchor="middle" x="136" y="-145" font-family="Helvetica,sans-Serif" font-size="10.00">+mTimePre</text>
<text text-anchor="middle" x="136" y="-134" font-family="Helvetica,sans-Serif" font-size="10.00">+mSigmaPad2Pre</text>
<text text-anchor="middle" x="136" y="-123" font-family="Helvetica,sans-Serif" font-size="10.00">+mPadPre</text>
</g>
<!-- Node4 -->
<g id="node4" class="node"><title>Node4</title>
<polygon fill="none" stroke="#bfbfbf" points="180,-182.5 180,-239.5 226,-239.5 226,-182.5 180,-182.5"/>
<text text-anchor="middle" x="203" y="-227.5" font-family="Helvetica,sans-Serif" font-size="10.00">uint8_t</text>
<polyline fill="none" stroke="#bfbfbf" points="180,-220.5 226,-220.5 "/>
<text text-anchor="middle" x="203" y="-208.5" font-family="Helvetica,sans-Serif" font-size="10.00"> </text>
<polyline fill="none" stroke="#bfbfbf" points="180,-201.5 226,-201.5 "/>
<text text-anchor="middle" x="203" y="-189.5" font-family="Helvetica,sans-Serif" font-size="10.00"> </text>
</g>
<!-- Node4&#45;&gt;Node1 -->
<g id="edge3" class="edge"><title>Node4&#45;&gt;Node1</title>
<path fill="none" stroke="#404040" d="M201.029,-182.105C198.591,-163.28 193.147,-138.579 181,-120 174.536,-110.113 166.127,-101.089 157.062,-93.0752"/>
<polygon fill="none" stroke="#404040" points="157.056,-93.0706 149.885,-92.3143 147.825,-85.4037 154.996,-86.16 157.056,-93.0706"/>
<text text-anchor="middle" x="217.5" y="-145" font-family="Helvetica,sans-Serif" font-size="10.00"> +mRow</text>
<text text-anchor="middle" x="217.5" y="-134" font-family="Helvetica,sans-Serif" font-size="10.00">+mFlags</text>
</g>
</g>
</svg>
