<?xml version="1.0" encoding="UTF-8" standalone="no"?>
<!DOCTYPE svg PUBLIC "-//W3C//DTD SVG 1.1//EN"
 "http://www.w3.org/Graphics/SVG/1.1/DTD/svg11.dtd">
<!-- Generated by graphviz version 2.36.0 (20140111.2315)
 -->
<!-- Title: /home/travis/build/AliceO2Group/AliceO2/Detectors/ITSMFT/ITS/reconstruction/include/ITSReconstruction/TrivialClustererTask.h Pages: 1 -->
<svg width="1856pt" height="456pt"
 viewBox="0.00 0.00 1856.00 456.00" xmlns="http://www.w3.org/2000/svg" xmlns:xlink="http://www.w3.org/1999/xlink">
<g id="graph0" class="graph" transform="scale(1 1) rotate(0) translate(4 452)">
<title>/home/travis/build/AliceO2Group/AliceO2/Detectors/ITSMFT/ITS/reconstruction/include/ITSReconstruction/TrivialClustererTask.h</title>
<!-- Node1 -->
<g id="node1" class="node"><title>Node1</title>
<polygon fill="#bfbfbf" stroke="black" points="943,-373 943,-447 1113,-447 1113,-373 943,-373"/>
<text text-anchor="start" x="951" y="-435" font-family="Helvetica,sans-Serif" font-size="10.00">/home/travis/build</text>
<text text-anchor="start" x="951" y="-424" font-family="Helvetica,sans-Serif" font-size="10.00">/AliceO2Group/AliceO2</text>
<text text-anchor="start" x="951" y="-413" font-family="Helvetica,sans-Serif" font-size="10.00">/Detectors/ITSMFT/ITS</text>
<text text-anchor="start" x="951" y="-402" font-family="Helvetica,sans-Serif" font-size="10.00">/reconstruction/include</text>
<text text-anchor="start" x="951" y="-391" font-family="Helvetica,sans-Serif" font-size="10.00">/ITSReconstruction/TrivialClusterer</text>
<text text-anchor="middle" x="1028" y="-380" font-family="Helvetica,sans-Serif" font-size="10.00">Task.h</text>
</g>
<!-- Node2 -->
<g id="node2" class="node"><title>Node2</title>
<polygon fill="none" stroke="#bfbfbf" points="880.5,-310.5 880.5,-329.5 943.5,-329.5 943.5,-310.5 880.5,-310.5"/>
<text text-anchor="middle" x="912" y="-317.5" font-family="Helvetica,sans-Serif" font-size="10.00">FairTask.h</text>
</g>
<!-- Node1&#45;&gt;Node2 -->
<g id="edge1" class="edge"><title>Node1&#45;&gt;Node2</title>
<path fill="none" stroke="midnightblue" d="M980.484,-372.953C963.238,-359.87 944.714,-345.817 931.285,-335.63"/>
<polygon fill="midnightblue" stroke="midnightblue" points="933.343,-332.798 923.261,-329.543 929.113,-338.375 933.343,-332.798"/>
</g>
<!-- Node3 -->
<g id="node3" class="node"><title>Node3</title>
<g id="a_node3"><a xlink:href="../../df/d9a/ITS_2base_2include_2ITSBase_2GeometryTGeo_8h.html" target="_top" xlink:title="ITSBase/GeometryTGeo.h">
<polygon fill="none" stroke="black" points="961.5,-310.5 961.5,-329.5 1094.5,-329.5 1094.5,-310.5 961.5,-310.5"/>
<text text-anchor="middle" x="1028" y="-317.5" font-family="Helvetica,sans-Serif" font-size="10.00">ITSBase/GeometryTGeo.h</text>
</a>
</g>
</g>
<!-- Node1&#45;&gt;Node3 -->
<g id="edge2" class="edge"><title>Node1&#45;&gt;Node3</title>
<path fill="none" stroke="midnightblue" d="M1028,-372.953C1028,-361.49 1028,-349.282 1028,-339.583"/>
<polygon fill="midnightblue" stroke="midnightblue" points="1031.5,-339.543 1028,-329.543 1024.5,-339.543 1031.5,-339.543"/>
</g>
<!-- Node37 -->
<g id="node37" class="node"><title>Node37</title>
<g id="a_node37"><a xlink:href="../../d1/d76/TrivialClusterer_8h.html" target="_top" xlink:title="Definition of the ITS cluster finder. ">
<polygon fill="none" stroke="black" points="1510,-305 1510,-335 1638,-335 1638,-305 1510,-305"/>
<text text-anchor="start" x="1518" y="-323" font-family="Helvetica,sans-Serif" font-size="10.00">ITSReconstruction/Trivial</text>
<text text-anchor="middle" x="1574" y="-312" font-family="Helvetica,sans-Serif" font-size="10.00">Clusterer.h</text>
</a>
</g>
</g>
<!-- Node1&#45;&gt;Node37 -->
<g id="edge51" class="edge"><title>Node1&#45;&gt;Node37</title>
<path fill="none" stroke="midnightblue" d="M1113.01,-395.298C1219.07,-378.205 1398.72,-349.251 1499.58,-332.995"/>
<polygon fill="midnightblue" stroke="midnightblue" points="1500.37,-336.413 1509.68,-331.366 1499.26,-329.502 1500.37,-336.413"/>
</g>
<!-- Node4 -->
<g id="node4" class="node"><title>Node4</title>
<polygon fill="none" stroke="#bfbfbf" points="1365,-136.5 1365,-155.5 1409,-155.5 1409,-136.5 1365,-136.5"/>
<text text-anchor="middle" x="1387" y="-143.5" font-family="Helvetica,sans-Serif" font-size="10.00">vector</text>
</g>
<!-- Node3&#45;&gt;Node4 -->
<g id="edge3" class="edge"><title>Node3&#45;&gt;Node4</title>
<path fill="none" stroke="midnightblue" d="M1094.77,-316.118C1171.19,-309.204 1295.14,-286.372 1368,-212 1379.95,-199.807 1384.45,-180.537 1386.12,-166.139"/>
<polygon fill="midnightblue" stroke="midnightblue" points="1389.63,-166.11 1386.93,-155.866 1382.65,-165.559 1389.63,-166.11"/>
</g>
<!-- Node5 -->
<g id="node5" class="node"><title>Node5</title>
<polygon fill="none" stroke="#bfbfbf" points="240,-6.5 240,-25.5 278,-25.5 278,-6.5 240,-6.5"/>
<text text-anchor="middle" x="259" y="-13.5" font-family="Helvetica,sans-Serif" font-size="10.00">array</text>
</g>
<!-- Node3&#45;&gt;Node5 -->
<g id="edge4" class="edge"><title>Node3&#45;&gt;Node5</title>
<path fill="none" stroke="midnightblue" d="M987.054,-310.498C975.722,-308.26 963.403,-305.933 952,-304 794.441,-277.296 240,-362.806 240,-203 240,-203 240,-203 240,-145 240,-105.646 248.896,-60.2174 254.514,-35.4534"/>
<polygon fill="midnightblue" stroke="midnightblue" points="257.943,-36.1608 256.82,-25.6256 251.128,-34.5613 257.943,-36.1608"/>
</g>
<!-- Node6 -->
<g id="node6" class="node"><title>Node6</title>
<polygon fill="none" stroke="#bfbfbf" points="1473.5,-192.5 1473.5,-211.5 1514.5,-211.5 1514.5,-192.5 1473.5,-192.5"/>
<text text-anchor="middle" x="1494" y="-199.5" font-family="Helvetica,sans-Serif" font-size="10.00">string</text>
</g>
<!-- Node3&#45;&gt;Node6 -->
<g id="edge5" class="edge"><title>Node3&#45;&gt;Node6</title>
<path fill="none" stroke="midnightblue" d="M1094.61,-317.124C1196.88,-313.208 1386.88,-301.531 1445,-268 1463.88,-257.109 1477.79,-235.751 1485.87,-220.489"/>
<polygon fill="midnightblue" stroke="midnightblue" points="1489.02,-222.025 1490.34,-211.512 1482.75,-218.909 1489.02,-222.025"/>
</g>
<!-- Node7 -->
<g id="node7" class="node"><title>Node7</title>
<polygon fill="none" stroke="#bfbfbf" points="518,-74.5 518,-93.5 594,-93.5 594,-74.5 518,-74.5"/>
<text text-anchor="middle" x="556" y="-81.5" font-family="Helvetica,sans-Serif" font-size="10.00">TGeoMatrix.h</text>
</g>
<!-- Node3&#45;&gt;Node7 -->
<g id="edge6" class="edge"><title>Node3&#45;&gt;Node7</title>
<path fill="none" stroke="midnightblue" d="M1030.4,-310.123C1037.83,-280.482 1057.08,-184.095 1008,-136 943.467,-72.7581 691.575,-117.844 603,-100 598.437,-99.0808 593.693,-97.8759 589.051,-96.548"/>
<polygon fill="midnightblue" stroke="midnightblue" points="589.748,-93.1006 579.161,-93.5078 587.691,-99.7916 589.748,-93.1006"/>
</g>
<!-- Node8 -->
<g id="node8" class="node"><title>Node8</title>
<polygon fill="none" stroke="#bfbfbf" points="302.5,-136.5 302.5,-155.5 361.5,-155.5 361.5,-136.5 302.5,-136.5"/>
<text text-anchor="middle" x="332" y="-143.5" font-family="Helvetica,sans-Serif" font-size="10.00">TObject.h</text>
</g>
<!-- Node3&#45;&gt;Node8 -->
<g id="edge7" class="edge"><title>Node3&#45;&gt;Node8</title>
<path fill="none" stroke="midnightblue" d="M993.485,-310.47C876.496,-281.559 495.39,-187.378 371.383,-156.733"/>
<polygon fill="midnightblue" stroke="midnightblue" points="372.093,-153.303 361.546,-154.302 370.414,-160.098 372.093,-153.303"/>
</g>
<!-- Node9 -->
<g id="node9" class="node"><title>Node9</title>
<g id="a_node9"><a xlink:href="../../d6/d31/DetID_8h.html" target="_top" xlink:title="DetectorsBase/DetID.h">
<polygon fill="none" stroke="black" points="880.5,-136.5 880.5,-155.5 999.5,-155.5 999.5,-136.5 880.5,-136.5"/>
<text text-anchor="middle" x="940" y="-143.5" font-family="Helvetica,sans-Serif" font-size="10.00">DetectorsBase/DetID.h</text>
</a>
</g>
</g>
<!-- Node3&#45;&gt;Node9 -->
<g id="edge8" class="edge"><title>Node3&#45;&gt;Node9</title>
<path fill="none" stroke="midnightblue" d="M1023.52,-310.234C1009.68,-283.202 967.512,-200.773 948.94,-164.475"/>
<polygon fill="midnightblue" stroke="midnightblue" points="952.042,-162.853 944.371,-155.544 945.81,-166.041 952.042,-162.853"/>
</g>
<!-- Node12 -->
<g id="node12" class="node"><title>Node12</title>
<polygon fill="none" stroke="#bfbfbf" points="1749,-74.5 1749,-93.5 1805,-93.5 1805,-74.5 1749,-74.5"/>
<text text-anchor="middle" x="1777" y="-81.5" font-family="Helvetica,sans-Serif" font-size="10.00">Rtypes.h</text>
</g>
<!-- Node3&#45;&gt;Node12 -->
<g id="edge50" class="edge"><title>Node3&#45;&gt;Node12</title>
<path fill="none" stroke="midnightblue" d="M1094.73,-313.172C1154.66,-306.57 1244.43,-293.268 1319,-268 1388.28,-244.522 1397.66,-220.582 1465,-192 1583.64,-141.646 1619.11,-144.677 1740,-100 1742.25,-99.1688 1744.57,-98.2883 1746.89,-97.3871"/>
<polygon fill="midnightblue" stroke="midnightblue" points="1748.34,-100.578 1756.35,-93.6383 1745.76,-94.0708 1748.34,-100.578"/>
</g>
<!-- Node13 -->
<g id="node13" class="node"><title>Node13</title>
<g id="a_node13"><a xlink:href="../../d9/ded/Utils_8h.html" target="_top" xlink:title="DetectorsBase/Utils.h">
<polygon fill="none" stroke="black" points="98.5,-74.5 98.5,-93.5 211.5,-93.5 211.5,-74.5 98.5,-74.5"/>
<text text-anchor="middle" x="155" y="-81.5" font-family="Helvetica,sans-Serif" font-size="10.00">DetectorsBase/Utils.h</text>
</a>
</g>
</g>
<!-- Node3&#45;&gt;Node13 -->
<g id="edge18" class="edge"><title>Node3&#45;&gt;Node13</title>
<path fill="none" stroke="midnightblue" d="M990.29,-310.433C978.128,-307.973 964.548,-305.541 952,-304 871.837,-294.155 291.492,-315.264 226,-268 171.907,-228.963 159.025,-142.627 155.958,-104.151"/>
<polygon fill="midnightblue" stroke="midnightblue" points="159.43,-103.603 155.287,-93.8522 152.445,-104.059 159.43,-103.603"/>
</g>
<!-- Node17 -->
<g id="node17" class="node"><title>Node17</title>
<g id="a_node17"><a xlink:href="../../db/dcc/Detectors_2Base_2include_2DetectorsBase_2GeometryManager_8h.html" target="_top" xlink:title="DetectorsBase/GeometryManager.h">
<polygon fill="none" stroke="black" points="682.5,-192.5 682.5,-211.5 855.5,-211.5 855.5,-192.5 682.5,-192.5"/>
<text text-anchor="middle" x="769" y="-199.5" font-family="Helvetica,sans-Serif" font-size="10.00">DetectorsBase/GeometryManager.h</text>
</a>
</g>
</g>
<!-- Node3&#45;&gt;Node17 -->
<g id="edge19" class="edge"><title>Node3&#45;&gt;Node17</title>
<path fill="none" stroke="midnightblue" d="M1008.96,-310.47C963.865,-290.275 850.39,-239.453 797.261,-215.657"/>
<polygon fill="midnightblue" stroke="midnightblue" points="798.63,-212.436 788.073,-211.542 795.769,-218.824 798.63,-212.436"/>
</g>
<!-- Node34 -->
<g id="node34" class="node"><title>Node34</title>
<g id="a_node34"><a xlink:href="../../d0/d2d/common_2base_2include_2ITSMFTBase_2GeometryTGeo_8h.html" target="_top" xlink:title="ITSMFTBase/GeometryTGeo.h">
<polygon fill="none" stroke="black" points="1497.5,-248.5 1497.5,-267.5 1650.5,-267.5 1650.5,-248.5 1497.5,-248.5"/>
<text text-anchor="middle" x="1574" y="-255.5" font-family="Helvetica,sans-Serif" font-size="10.00">ITSMFTBase/GeometryTGeo.h</text>
</a>
</g>
</g>
<!-- Node3&#45;&gt;Node34 -->
<g id="edge40" class="edge"><title>Node3&#45;&gt;Node34</title>
<path fill="none" stroke="midnightblue" d="M1094.68,-311.673C1193.3,-300.835 1378.12,-280.525 1487.2,-268.539"/>
<polygon fill="midnightblue" stroke="midnightblue" points="1487.63,-272.013 1497.19,-267.441 1486.86,-265.055 1487.63,-272.013"/>
</g>
<!-- Node9&#45;&gt;Node5 -->
<g id="edge10" class="edge"><title>Node9&#45;&gt;Node5</title>
<path fill="none" stroke="midnightblue" d="M880.189,-136.949C877.083,-136.609 874.006,-136.29 871,-136 807.392,-129.864 349.668,-136.19 297,-100 275.499,-85.2259 265.937,-55.1346 261.85,-35.5327"/>
<polygon fill="midnightblue" stroke="midnightblue" points="265.286,-34.8609 260.065,-25.6418 258.397,-36.1046 265.286,-34.8609"/>
</g>
<!-- Node10 -->
<g id="node10" class="node"><title>Node10</title>
<polygon fill="none" stroke="#bfbfbf" points="454,-74.5 454,-93.5 500,-93.5 500,-74.5 454,-74.5"/>
<text text-anchor="middle" x="477" y="-81.5" font-family="Helvetica,sans-Serif" font-size="10.00">cstdint</text>
</g>
<!-- Node9&#45;&gt;Node10 -->
<g id="edge9" class="edge"><title>Node9&#45;&gt;Node10</title>
<path fill="none" stroke="midnightblue" d="M880.175,-137.083C877.073,-136.708 874,-136.345 871,-136 710.375,-117.542 664.88,-142.928 509,-100 506.654,-99.354 504.267,-98.5482 501.908,-97.6476"/>
<polygon fill="midnightblue" stroke="midnightblue" points="503.111,-94.3542 492.545,-93.5784 500.321,-100.774 503.111,-94.3542"/>
</g>
<!-- Node11 -->
<g id="node11" class="node"><title>Node11</title>
<polygon fill="none" stroke="#bfbfbf" points="306,-74.5 306,-93.5 368,-93.5 368,-74.5 306,-74.5"/>
<text text-anchor="middle" x="337" y="-81.5" font-family="Helvetica,sans-Serif" font-size="10.00">type_traits</text>
</g>
<!-- Node9&#45;&gt;Node11 -->
<g id="edge11" class="edge"><title>Node9&#45;&gt;Node11</title>
<path fill="none" stroke="midnightblue" d="M880.185,-136.986C877.081,-136.637 874.005,-136.305 871,-136 651.989,-113.755 592.034,-147.129 377,-100 373.489,-99.2304 369.873,-98.2145 366.318,-97.0732"/>
<polygon fill="midnightblue" stroke="midnightblue" points="367.195,-93.6704 356.6,-93.6249 364.854,-100.267 367.195,-93.6704"/>
</g>
<!-- Node9&#45;&gt;Node12 -->
<g id="edge12" class="edge"><title>Node9&#45;&gt;Node12</title>
<path fill="none" stroke="midnightblue" d="M999.681,-139.64C1015.09,-138.349 1031.66,-137.044 1047,-136 1354.7,-115.072 1438.92,-166.863 1740,-100 1743.25,-99.2787 1746.58,-98.3006 1749.85,-97.1872"/>
<polygon fill="midnightblue" stroke="midnightblue" points="1751.23,-100.406 1759.32,-93.5634 1748.73,-93.8676 1751.23,-100.406"/>
</g>
<!-- Node9&#45;&gt;Node13 -->
<g id="edge13" class="edge"><title>Node9&#45;&gt;Node13</title>
<path fill="none" stroke="midnightblue" d="M880.19,-136.937C877.084,-136.6 874.007,-136.285 871,-136 601.953,-110.507 532.955,-126.442 264,-100 250.003,-98.6239 235.041,-96.7986 220.826,-94.8962"/>
<polygon fill="midnightblue" stroke="midnightblue" points="221.015,-91.3895 210.633,-93.5027 220.067,-98.325 221.015,-91.3895"/>
</g>
<!-- Node16 -->
<g id="node16" class="node"><title>Node16</title>
<polygon fill="none" stroke="#bfbfbf" points="386.5,-74.5 386.5,-93.5 435.5,-93.5 435.5,-74.5 386.5,-74.5"/>
<text text-anchor="middle" x="411" y="-81.5" font-family="Helvetica,sans-Serif" font-size="10.00">cassert</text>
</g>
<!-- Node9&#45;&gt;Node16 -->
<g id="edge17" class="edge"><title>Node9&#45;&gt;Node16</title>
<path fill="none" stroke="midnightblue" d="M880.181,-137.029C877.077,-136.668 874.003,-136.323 871,-136 682.079,-115.707 629.106,-146.99 445,-100 442.337,-99.3204 439.619,-98.4517 436.939,-97.4756"/>
<polygon fill="midnightblue" stroke="midnightblue" points="438.134,-94.1831 427.555,-93.6162 435.472,-100.657 438.134,-94.1831"/>
</g>
<!-- Node13&#45;&gt;Node5 -->
<g id="edge16" class="edge"><title>Node13&#45;&gt;Node5</title>
<path fill="none" stroke="midnightblue" d="M168.596,-74.3717C185.958,-63.3533 216.226,-44.1449 236.917,-31.0142"/>
<polygon fill="midnightblue" stroke="midnightblue" points="238.833,-33.9439 245.4,-25.6305 235.082,-28.0336 238.833,-33.9439"/>
</g>
<!-- Node14 -->
<g id="node14" class="node"><title>Node14</title>
<g id="a_node14"><a xlink:href="../../d1/daa/Base_2include_2DetectorsBase_2Constants_8h.html" target="_top" xlink:title="DetectorsBase/Constants.h">
<polygon fill="none" stroke="black" points="0,-6.5 0,-25.5 138,-25.5 138,-6.5 0,-6.5"/>
<text text-anchor="middle" x="69" y="-13.5" font-family="Helvetica,sans-Serif" font-size="10.00">DetectorsBase/Constants.h</text>
</a>
</g>
</g>
<!-- Node13&#45;&gt;Node14 -->
<g id="edge14" class="edge"><title>Node13&#45;&gt;Node14</title>
<path fill="none" stroke="midnightblue" d="M143.757,-74.3717C129.722,-63.6004 105.488,-45.0021 88.4236,-31.9065"/>
<polygon fill="midnightblue" stroke="midnightblue" points="90.3097,-28.9421 80.2458,-25.6305 86.048,-34.4953 90.3097,-28.9421"/>
</g>
<!-- Node15 -->
<g id="node15" class="node"><title>Node15</title>
<polygon fill="none" stroke="#bfbfbf" points="156,-6.5 156,-25.5 200,-25.5 200,-6.5 156,-6.5"/>
<text text-anchor="middle" x="178" y="-13.5" font-family="Helvetica,sans-Serif" font-size="10.00">cmath</text>
</g>
<!-- Node13&#45;&gt;Node15 -->
<g id="edge15" class="edge"><title>Node13&#45;&gt;Node15</title>
<path fill="none" stroke="midnightblue" d="M158.007,-74.3717C161.432,-64.5443 167.127,-48.2018 171.564,-35.4673"/>
<polygon fill="midnightblue" stroke="midnightblue" points="174.933,-36.4359 174.919,-25.8411 168.323,-34.1324 174.933,-36.4359"/>
</g>
<!-- Node17&#45;&gt;Node8 -->
<g id="edge25" class="edge"><title>Node17&#45;&gt;Node8</title>
<path fill="none" stroke="midnightblue" d="M682.421,-194.082C603.818,-187.143 484.564,-174.975 371.6,-155.916"/>
<polygon fill="midnightblue" stroke="midnightblue" points="372.186,-152.465 361.74,-154.231 371.008,-159.365 372.186,-152.465"/>
</g>
<!-- Node17&#45;&gt;Node9 -->
<g id="edge26" class="edge"><title>Node17&#45;&gt;Node9</title>
<path fill="none" stroke="midnightblue" d="M796.095,-192.444C824.988,-183.32 870.925,-168.813 903.105,-158.651"/>
<polygon fill="midnightblue" stroke="midnightblue" points="904.549,-161.865 913.031,-155.516 902.441,-155.19 904.549,-161.865"/>
</g>
<!-- Node18 -->
<g id="node18" class="node"><title>Node18</title>
<polygon fill="none" stroke="#bfbfbf" points="675,-136.5 675,-155.5 761,-155.5 761,-136.5 675,-136.5"/>
<text text-anchor="middle" x="718" y="-143.5" font-family="Helvetica,sans-Serif" font-size="10.00">TGeoManager.h</text>
</g>
<!-- Node17&#45;&gt;Node18 -->
<g id="edge20" class="edge"><title>Node17&#45;&gt;Node18</title>
<path fill="none" stroke="midnightblue" d="M760.578,-192.083C753.152,-184.22 742.148,-172.569 733.188,-163.081"/>
<polygon fill="midnightblue" stroke="midnightblue" points="735.676,-160.618 726.265,-155.751 730.587,-165.424 735.676,-160.618"/>
</g>
<!-- Node19 -->
<g id="node19" class="node"><title>Node19</title>
<polygon fill="none" stroke="#bfbfbf" points="779.5,-136.5 779.5,-155.5 862.5,-155.5 862.5,-136.5 779.5,-136.5"/>
<text text-anchor="middle" x="821" y="-143.5" font-family="Helvetica,sans-Serif" font-size="10.00">TGeoMaterial.h</text>
</g>
<!-- Node17&#45;&gt;Node19 -->
<g id="edge21" class="edge"><title>Node17&#45;&gt;Node19</title>
<path fill="none" stroke="midnightblue" d="M777.587,-192.083C785.159,-184.22 796.378,-172.569 805.514,-163.081"/>
<polygon fill="midnightblue" stroke="midnightblue" points="808.158,-165.382 812.573,-155.751 803.115,-160.527 808.158,-165.382"/>
</g>
<!-- Node20 -->
<g id="node20" class="node"><title>Node20</title>
<polygon fill="none" stroke="#bfbfbf" points="380,-136.5 380,-155.5 490,-155.5 490,-136.5 380,-136.5"/>
<text text-anchor="middle" x="435" y="-143.5" font-family="Helvetica,sans-Serif" font-size="10.00">TGeoPhysicalNode.h</text>
</g>
<!-- Node17&#45;&gt;Node20 -->
<g id="edge22" class="edge"><title>Node17&#45;&gt;Node20</title>
<path fill="none" stroke="midnightblue" d="M716.077,-192.444C656.834,-182.865 560.903,-167.356 497.883,-157.167"/>
<polygon fill="midnightblue" stroke="midnightblue" points="498.106,-153.657 487.676,-155.516 496.989,-160.568 498.106,-153.657"/>
</g>
<!-- Node21 -->
<g id="node21" class="node"><title>Node21</title>
<polygon fill="none" stroke="#bfbfbf" points="508.5,-136.5 508.5,-155.5 585.5,-155.5 585.5,-136.5 508.5,-136.5"/>
<text text-anchor="middle" x="547" y="-143.5" font-family="Helvetica,sans-Serif" font-size="10.00">TGeoShape.h</text>
</g>
<!-- Node17&#45;&gt;Node21 -->
<g id="edge23" class="edge"><title>Node17&#45;&gt;Node21</title>
<path fill="none" stroke="midnightblue" d="M733.823,-192.444C695.421,-183.102 633.824,-168.119 591.945,-157.933"/>
<polygon fill="midnightblue" stroke="midnightblue" points="592.556,-154.479 582.012,-155.516 590.901,-161.281 592.556,-154.479"/>
</g>
<!-- Node22 -->
<g id="node22" class="node"><title>Node22</title>
<polygon fill="none" stroke="#bfbfbf" points="603.5,-136.5 603.5,-155.5 656.5,-155.5 656.5,-136.5 603.5,-136.5"/>
<text text-anchor="middle" x="630" y="-143.5" font-family="Helvetica,sans-Serif" font-size="10.00">TMath.h</text>
</g>
<!-- Node17&#45;&gt;Node22 -->
<g id="edge24" class="edge"><title>Node17&#45;&gt;Node22</title>
<path fill="none" stroke="midnightblue" d="M746.975,-192.444C723.896,-183.478 687.438,-169.314 661.359,-159.183"/>
<polygon fill="midnightblue" stroke="midnightblue" points="662.511,-155.875 651.922,-155.516 659.976,-162.4 662.511,-155.875"/>
</g>
<!-- Node23 -->
<g id="node23" class="node"><title>Node23</title>
<polygon fill="none" stroke="#bfbfbf" points="1056.5,-136.5 1056.5,-155.5 1127.5,-155.5 1127.5,-136.5 1056.5,-136.5"/>
<text text-anchor="middle" x="1092" y="-143.5" font-family="Helvetica,sans-Serif" font-size="10.00">FairLogger.h</text>
</g>
<!-- Node17&#45;&gt;Node23 -->
<g id="edge27" class="edge"><title>Node17&#45;&gt;Node23</title>
<path fill="none" stroke="midnightblue" d="M820.18,-192.444C882.398,-182.042 986.461,-164.644 1046.16,-154.663"/>
<polygon fill="midnightblue" stroke="midnightblue" points="1046.77,-158.11 1056.06,-153.008 1045.62,-151.205 1046.77,-158.11"/>
</g>
<!-- Node24 -->
<g id="node24" class="node"><title>Node24</title>
<g id="a_node24"><a xlink:href="../../dd/d76/Cartesian3D_8h.html" target="_top" xlink:title="MathUtils/Cartesian3D.h">
<polygon fill="none" stroke="black" points="1145.5,-136.5 1145.5,-155.5 1270.5,-155.5 1270.5,-136.5 1145.5,-136.5"/>
<text text-anchor="middle" x="1208" y="-143.5" font-family="Helvetica,sans-Serif" font-size="10.00">MathUtils/Cartesian3D.h</text>
</a>
</g>
</g>
<!-- Node17&#45;&gt;Node24 -->
<g id="edge28" class="edge"><title>Node17&#45;&gt;Node24</title>
<path fill="none" stroke="midnightblue" d="M839.021,-192.464C910.639,-183.722 1025.43,-169.679 1134.93,-156.13"/>
<polygon fill="midnightblue" stroke="midnightblue" points="1135.68,-159.564 1145.17,-154.862 1134.82,-152.617 1135.68,-159.564"/>
</g>
<!-- Node24&#45;&gt;Node7 -->
<g id="edge33" class="edge"><title>Node24&#45;&gt;Node7</title>
<path fill="none" stroke="midnightblue" d="M1145.19,-136.936C1142.09,-136.604 1139.01,-136.289 1136,-136 899.662,-113.266 836.237,-144.417 603,-100 598.428,-99.1292 593.678,-97.9522 589.034,-96.6382"/>
<polygon fill="midnightblue" stroke="midnightblue" points="589.728,-93.1904 579.141,-93.6085 587.678,-99.8836 589.728,-93.1904"/>
</g>
<!-- Node24&#45;&gt;Node12 -->
<g id="edge32" class="edge"><title>Node24&#45;&gt;Node12</title>
<path fill="none" stroke="midnightblue" d="M1270.58,-139.953C1408.77,-128.775 1728.7,-102.702 1740,-100 1743.07,-99.2659 1746.22,-98.3184 1749.32,-97.2566"/>
<polygon fill="midnightblue" stroke="midnightblue" points="1750.82,-100.431 1758.91,-93.5972 1748.32,-93.8901 1750.82,-100.431"/>
</g>
<!-- Node25 -->
<g id="node25" class="node"><title>Node25</title>
<polygon fill="none" stroke="#bfbfbf" points="612.5,-74.5 612.5,-93.5 761.5,-93.5 761.5,-74.5 612.5,-74.5"/>
<text text-anchor="middle" x="687" y="-81.5" font-family="Helvetica,sans-Serif" font-size="10.00">Math/GenVector/Rotation3D.h</text>
</g>
<!-- Node24&#45;&gt;Node25 -->
<g id="edge29" class="edge"><title>Node24&#45;&gt;Node25</title>
<path fill="none" stroke="midnightblue" d="M1145.18,-137.05C1142.08,-136.688 1139,-136.336 1136,-136 974,-117.889 932.471,-122.345 771,-100 761.205,-98.6445 750.807,-96.9761 740.787,-95.2501"/>
<polygon fill="midnightblue" stroke="midnightblue" points="741.384,-91.8015 730.928,-93.5144 740.17,-98.6954 741.384,-91.8015"/>
</g>
<!-- Node26 -->
<g id="node26" class="node"><title>Node26</title>
<polygon fill="none" stroke="#bfbfbf" points="780,-74.5 780,-93.5 936,-93.5 936,-74.5 780,-74.5"/>
<text text-anchor="middle" x="858" y="-81.5" font-family="Helvetica,sans-Serif" font-size="10.00">Math/GenVector/Transform3D.h</text>
</g>
<!-- Node24&#45;&gt;Node26 -->
<g id="edge30" class="edge"><title>Node24&#45;&gt;Node26</title>
<path fill="none" stroke="midnightblue" d="M1158.07,-136.476C1105.16,-127.44 1019.19,-112.743 945,-100 936.125,-98.4757 926.742,-96.861 917.551,-95.2778"/>
<polygon fill="midnightblue" stroke="midnightblue" points="918.135,-91.827 907.686,-93.5778 916.946,-98.7253 918.135,-91.827"/>
</g>
<!-- Node27 -->
<g id="node27" class="node"><title>Node27</title>
<polygon fill="none" stroke="#bfbfbf" points="954,-74.5 954,-93.5 1114,-93.5 1114,-74.5 954,-74.5"/>
<text text-anchor="middle" x="1034" y="-81.5" font-family="Helvetica,sans-Serif" font-size="10.00">Math/GenVector/Translation3D.h</text>
</g>
<!-- Node24&#45;&gt;Node27 -->
<g id="edge31" class="edge"><title>Node24&#45;&gt;Node27</title>
<path fill="none" stroke="midnightblue" d="M1183.07,-136.403C1152.96,-126.022 1102.17,-108.506 1068.36,-96.849"/>
<polygon fill="midnightblue" stroke="midnightblue" points="1069.48,-93.5318 1058.88,-93.5806 1067.2,-100.149 1069.48,-93.5318"/>
</g>
<!-- Node28 -->
<g id="node28" class="node"><title>Node28</title>
<polygon fill="none" stroke="#bfbfbf" points="1132.5,-69 1132.5,-99 1283.5,-99 1283.5,-69 1132.5,-69"/>
<text text-anchor="start" x="1140.5" y="-87" font-family="Helvetica,sans-Serif" font-size="10.00">Math/GenVector/Displacement</text>
<text text-anchor="middle" x="1208" y="-76" font-family="Helvetica,sans-Serif" font-size="10.00">Vector3D.h</text>
</g>
<!-- Node24&#45;&gt;Node28 -->
<g id="edge34" class="edge"><title>Node24&#45;&gt;Node28</title>
<path fill="none" stroke="midnightblue" d="M1208,-136.403C1208,-129.341 1208,-118.975 1208,-109.399"/>
<polygon fill="midnightblue" stroke="midnightblue" points="1211.5,-109.141 1208,-99.1408 1204.5,-109.141 1211.5,-109.141"/>
</g>
<!-- Node29 -->
<g id="node29" class="node"><title>Node29</title>
<polygon fill="none" stroke="#bfbfbf" points="1302,-74.5 1302,-93.5 1478,-93.5 1478,-74.5 1302,-74.5"/>
<text text-anchor="middle" x="1390" y="-81.5" font-family="Helvetica,sans-Serif" font-size="10.00">Math/GenVector/PositionVector3D.h</text>
</g>
<!-- Node24&#45;&gt;Node29 -->
<g id="edge35" class="edge"><title>Node24&#45;&gt;Node29</title>
<path fill="none" stroke="midnightblue" d="M1234.08,-136.403C1265.57,-126.022 1318.7,-108.506 1354.06,-96.849"/>
<polygon fill="midnightblue" stroke="midnightblue" points="1355.57,-100.036 1363.97,-93.5806 1353.38,-93.3876 1355.57,-100.036"/>
</g>
<!-- Node30 -->
<g id="node30" class="node"><title>Node30</title>
<g id="a_node30"><a xlink:href="../../d2/dd0/Cartesian2D_8h.html" target="_top" xlink:title="MathUtils/Cartesian2D.h">
<polygon fill="none" stroke="black" points="1606.5,-74.5 1606.5,-93.5 1731.5,-93.5 1731.5,-74.5 1606.5,-74.5"/>
<text text-anchor="middle" x="1669" y="-81.5" font-family="Helvetica,sans-Serif" font-size="10.00">MathUtils/Cartesian2D.h</text>
</a>
</g>
</g>
<!-- Node24&#45;&gt;Node30 -->
<g id="edge36" class="edge"><title>Node24&#45;&gt;Node30</title>
<path fill="none" stroke="midnightblue" d="M1270.79,-137.104C1341.03,-128.235 1458.2,-113.334 1559,-100 1571.29,-98.3745 1584.34,-96.6192 1597.01,-94.9017"/>
<polygon fill="midnightblue" stroke="midnightblue" points="1597.62,-98.3509 1607.05,-93.5357 1596.67,-91.4147 1597.62,-98.3509"/>
</g>
<!-- Node33 -->
<g id="node33" class="node"><title>Node33</title>
<polygon fill="none" stroke="#bfbfbf" points="1496,-74.5 1496,-93.5 1550,-93.5 1550,-74.5 1496,-74.5"/>
<text text-anchor="middle" x="1523" y="-81.5" font-family="Helvetica,sans-Serif" font-size="10.00">iostream</text>
</g>
<!-- Node24&#45;&gt;Node33 -->
<g id="edge39" class="edge"><title>Node24&#45;&gt;Node33</title>
<path fill="none" stroke="midnightblue" d="M1270.56,-136.54C1339.72,-126.893 1446.57,-111.033 1486,-100 1488.82,-99.2121 1491.71,-98.2765 1494.58,-97.2633"/>
<polygon fill="midnightblue" stroke="midnightblue" points="1496,-100.468 1504.08,-93.6214 1493.49,-93.931 1496,-100.468"/>
</g>
<!-- Node31 -->
<g id="node31" class="node"><title>Node31</title>
<polygon fill="none" stroke="#bfbfbf" points="1502.5,-1 1502.5,-31 1653.5,-31 1653.5,-1 1502.5,-1"/>
<text text-anchor="start" x="1510.5" y="-19" font-family="Helvetica,sans-Serif" font-size="10.00">Math/GenVector/Displacement</text>
<text text-anchor="middle" x="1578" y="-8" font-family="Helvetica,sans-Serif" font-size="10.00">Vector2D.h</text>
</g>
<!-- Node30&#45;&gt;Node31 -->
<g id="edge37" class="edge"><title>Node30&#45;&gt;Node31</title>
<path fill="none" stroke="midnightblue" d="M1657.1,-74.3717C1644.22,-65.0286 1623.22,-49.7966 1606.09,-37.375"/>
<polygon fill="midnightblue" stroke="midnightblue" points="1607.7,-34.2194 1597.55,-31.1815 1603.59,-39.8859 1607.7,-34.2194"/>
</g>
<!-- Node32 -->
<g id="node32" class="node"><title>Node32</title>
<polygon fill="none" stroke="#bfbfbf" points="1672,-6.5 1672,-25.5 1848,-25.5 1848,-6.5 1672,-6.5"/>
<text text-anchor="middle" x="1760" y="-13.5" font-family="Helvetica,sans-Serif" font-size="10.00">Math/GenVector/PositionVector2D.h</text>
</g>
<!-- Node30&#45;&gt;Node32 -->
<g id="edge38" class="edge"><title>Node30&#45;&gt;Node32</title>
<path fill="none" stroke="midnightblue" d="M1680.9,-74.3717C1695.88,-63.5015 1721.86,-44.6602 1739.94,-31.5474"/>
<polygon fill="midnightblue" stroke="midnightblue" points="1742.06,-34.3349 1748.1,-25.6305 1737.95,-28.6684 1742.06,-34.3349"/>
</g>
<!-- Node34&#45;&gt;Node6 -->
<g id="edge49" class="edge"><title>Node34&#45;&gt;Node6</title>
<path fill="none" stroke="midnightblue" d="M1561.15,-248.324C1548.78,-239.979 1529.87,-227.212 1515.26,-217.352"/>
<polygon fill="midnightblue" stroke="midnightblue" points="1517.07,-214.348 1506.82,-211.655 1513.15,-220.15 1517.07,-214.348"/>
</g>
<!-- Node35 -->
<g id="node35" class="node"><title>Node35</title>
<g id="a_node35"><a xlink:href="../../d4/d20/DetMatrixCache_8h.html" target="_top" xlink:title="DetectorsBase/DetMatrixCache.h">
<polygon fill="none" stroke="black" points="1195,-192.5 1195,-211.5 1359,-211.5 1359,-192.5 1195,-192.5"/>
<text text-anchor="middle" x="1277" y="-199.5" font-family="Helvetica,sans-Serif" font-size="10.00">DetectorsBase/DetMatrixCache.h</text>
</a>
</g>
</g>
<!-- Node34&#45;&gt;Node35 -->
<g id="edge41" class="edge"><title>Node34&#45;&gt;Node35</title>
<path fill="none" stroke="midnightblue" d="M1526.94,-248.444C1474.59,-238.925 1390.01,-223.547 1333.96,-213.356"/>
<polygon fill="midnightblue" stroke="midnightblue" points="1334.31,-209.862 1323.84,-211.516 1333.05,-216.749 1334.31,-209.862"/>
</g>
<!-- Node36 -->
<g id="node36" class="node"><title>Node36</title>
<polygon fill="none" stroke="#bfbfbf" points="1539.5,-192.5 1539.5,-211.5 1608.5,-211.5 1608.5,-192.5 1539.5,-192.5"/>
<text text-anchor="middle" x="1574" y="-199.5" font-family="Helvetica,sans-Serif" font-size="10.00">TObjArray.h</text>
</g>
<!-- Node34&#45;&gt;Node36 -->
<g id="edge48" class="edge"><title>Node34&#45;&gt;Node36</title>
<path fill="none" stroke="midnightblue" d="M1574,-248.083C1574,-241.006 1574,-230.861 1574,-221.986"/>
<polygon fill="midnightblue" stroke="midnightblue" points="1577.5,-221.751 1574,-211.751 1570.5,-221.751 1577.5,-221.751"/>
</g>
<!-- Node35&#45;&gt;Node4 -->
<g id="edge42" class="edge"><title>Node35&#45;&gt;Node4</title>
<path fill="none" stroke="midnightblue" d="M1294.67,-192.324C1312.39,-183.625 1339.9,-170.12 1360.29,-160.113"/>
<polygon fill="midnightblue" stroke="midnightblue" points="1361.94,-163.203 1369.37,-155.655 1358.85,-156.919 1361.94,-163.203"/>
</g>
<!-- Node35&#45;&gt;Node5 -->
<g id="edge43" class="edge"><title>Node35&#45;&gt;Node5</title>
<path fill="none" stroke="midnightblue" d="M1279.86,-192.12C1284.99,-177.73 1297.22,-149.562 1318,-136 1411.2,-75.1791 1636.14,-148.224 1559,-68 1513.48,-20.6588 477.329,-17.2429 288.419,-17.0138"/>
<polygon fill="midnightblue" stroke="midnightblue" points="288.156,-13.5137 278.153,-17.0036 288.149,-20.5137 288.156,-13.5137"/>
</g>
<!-- Node35&#45;&gt;Node9 -->
<g id="edge45" class="edge"><title>Node35&#45;&gt;Node9</title>
<path fill="none" stroke="midnightblue" d="M1223.6,-192.444C1163.7,-182.846 1066.63,-167.292 1003.05,-157.104"/>
<polygon fill="midnightblue" stroke="midnightblue" points="1003.58,-153.643 993.149,-155.516 1002.47,-160.555 1003.58,-153.643"/>
</g>
<!-- Node35&#45;&gt;Node12 -->
<g id="edge46" class="edge"><title>Node35&#45;&gt;Node12</title>
<path fill="none" stroke="midnightblue" d="M1284.23,-192.371C1296.99,-177.815 1325.13,-148.725 1356,-136 1514.48,-70.6749 1573.47,-140.632 1740,-100 1743.07,-99.2519 1746.21,-98.2954 1749.31,-97.2284"/>
<polygon fill="midnightblue" stroke="midnightblue" points="1750.81,-100.401 1758.91,-93.5626 1748.32,-93.8622 1750.81,-100.401"/>
</g>
<!-- Node35&#45;&gt;Node23 -->
<g id="edge47" class="edge"><title>Node35&#45;&gt;Node23</title>
<path fill="none" stroke="midnightblue" d="M1247.69,-192.444C1216.16,-183.241 1165.87,-168.562 1131.01,-158.388"/>
<polygon fill="midnightblue" stroke="midnightblue" points="1131.76,-154.959 1121.18,-155.516 1129.8,-161.678 1131.76,-154.959"/>
</g>
<!-- Node35&#45;&gt;Node24 -->
<g id="edge44" class="edge"><title>Node35&#45;&gt;Node24</title>
<path fill="none" stroke="midnightblue" d="M1265.91,-192.324C1255.51,-184.185 1239.74,-171.839 1227.28,-162.087"/>
<polygon fill="midnightblue" stroke="midnightblue" points="1229.32,-159.241 1219.29,-155.834 1225.01,-164.753 1229.32,-159.241"/>
</g>
<!-- Node37&#45;&gt;Node12 -->
<g id="edge52" class="edge"><title>Node37&#45;&gt;Node12</title>
<path fill="none" stroke="midnightblue" d="M1604.63,-304.992C1621.92,-296.073 1643.17,-283.323 1659,-268 1711.67,-217.003 1752.26,-138.248 1768.84,-103.06"/>
<polygon fill="midnightblue" stroke="midnightblue" points="1772.19,-104.163 1773.21,-93.6169 1765.84,-101.227 1772.19,-104.163"/>
</g>
<!-- Node37&#45;&gt;Node34 -->
<g id="edge53" class="edge"><title>Node37&#45;&gt;Node34</title>
<path fill="none" stroke="midnightblue" d="M1574,-304.781C1574,-296.781 1574,-286.689 1574,-278.017"/>
<polygon fill="midnightblue" stroke="midnightblue" points="1577.5,-277.73 1574,-267.731 1570.5,-277.731 1577.5,-277.73"/>
</g>
</g>
</svg>
