<?xml version="1.0" encoding="UTF-8" standalone="no"?>
<!DOCTYPE svg PUBLIC "-//W3C//DTD SVG 1.1//EN"
 "http://www.w3.org/Graphics/SVG/1.1/DTD/svg11.dtd">
<!-- Generated by graphviz version 2.36.0 (20140111.2315)
 -->
<!-- Title: /home/travis/build/AliceO2Group/AliceO2/Detectors/ITSMFT/MFT/base/include/MFTBase/GeometryTGeo.h Pages: 1 -->
<!--zoomable 376 -->
<svg id="main" version="1.1" xmlns="http://www.w3.org/2000/svg" xmlns:xlink="http://www.w3.org/1999/xlink" xml:space="preserve" onload="init(evt)">
<style type="text/css"><![CDATA[
.edge:hover path { stroke: red; }
.edge:hover polygon { stroke: red; fill: red; }
]]></style>
<script type="text/javascript"><![CDATA[
var edges = document.getElementsByTagName('g');
if (edges && edges.length) {
  for (var i=0;i<edges.length;i++) {
    if (edges[i].id.substr(0,4)=='edge') {
      edges[i].setAttribute('class','edge');
    }
  }
}
]]></script>
        <defs>
                <circle id="rim" cx="0" cy="0" r="7"/>
                <circle id="rim2" cx="0" cy="0" r="3.5"/>
                <g id="zoomPlus">
                        <use xlink:href="#rim" fill="#404040">
                                <set attributeName="fill" to="#808080" begin="zoomplus.mouseover" end="zoomplus.mouseout"/>
                        </use>
                        <path d="M-4,0h8M0,-4v8" fill="none" stroke="white" stroke-width="1.5" pointer-events="none"/>
                </g>
                <g id="zoomMin">
                        <use xlink:href="#rim" fill="#404040">
                                <set attributeName="fill" to="#808080" begin="zoomminus.mouseover" end="zoomminus.mouseout"/>
                        </use>
                        <path d="M-4,0h8" fill="none" stroke="white" stroke-width="1.5" pointer-events="none"/>
                </g>
                <g id="dirArrow">
                        <path fill="none" stroke="white" stroke-width="1.5" d="M0,-3.0v7 M-2.5,-0.5L0,-3.0L2.5,-0.5"/>
                </g>
               <g id="resetDef">
                       <use xlink:href="#rim2" fill="#404040">
                               <set attributeName="fill" to="#808080" begin="reset.mouseover" end="reset.mouseout"/>
                       </use>
               </g>
        </defs>

<script type="text/javascript">
var viewWidth = 1806;
var viewHeight = 376;
var sectionId = 'dynsection-0';
</script>
<script xlink:href="../../svgpan.js"/>
<svg id="graph" class="graph">
<g id="viewport">
<title>/home/travis/build/AliceO2Group/AliceO2/Detectors/ITSMFT/MFT/base/include/MFTBase/GeometryTGeo.h</title>
<!-- Node1 -->
<g id="node1" class="node"><title>Node1</title>
<polygon fill="#bfbfbf" stroke="black" points="823,-304.5 823,-367.5 989,-367.5 989,-304.5 823,-304.5"/>
<text text-anchor="start" x="831" y="-355.5" font-family="Helvetica,sans-Serif" font-size="10.00">/home/travis/build</text>
<text text-anchor="start" x="831" y="-344.5" font-family="Helvetica,sans-Serif" font-size="10.00">/AliceO2Group/AliceO2</text>
<text text-anchor="start" x="831" y="-333.5" font-family="Helvetica,sans-Serif" font-size="10.00">/Detectors/ITSMFT/MFT</text>
<text text-anchor="start" x="831" y="-322.5" font-family="Helvetica,sans-Serif" font-size="10.00">/base/include/MFTBase/Geometry</text>
<text text-anchor="middle" x="906" y="-311.5" font-family="Helvetica,sans-Serif" font-size="10.00">TGeo.h</text>
</g>
<!-- Node2 -->
<g id="node2" class="node"><title>Node2</title>
<polygon fill="none" stroke="#bfbfbf" points="1238,-136.5 1238,-155.5 1282,-155.5 1282,-136.5 1238,-136.5"/>
<text text-anchor="middle" x="1260" y="-143.5" font-family="Helvetica,sans-Serif" font-size="10.00">vector</text>
</g>
<!-- Node1&#45;&gt;Node2 -->
<g id="edge1" class="edge"><title>Node1&#45;&gt;Node2</title>
<path fill="none" stroke="midnightblue" d="M989.121,-309.119C1047.96,-288.411 1126.94,-255.622 1188,-212 1208.85,-197.107 1230.35,-176.958 1244.36,-163.061"/>
<polygon fill="midnightblue" stroke="midnightblue" points="1247.12,-165.249 1251.68,-155.688 1242.15,-160.316 1247.12,-165.249"/>
</g>
<!-- Node3 -->
<g id="node3" class="node"><title>Node3</title>
<polygon fill="none" stroke="#bfbfbf" points="225,-6.5 225,-25.5 263,-25.5 263,-6.5 225,-6.5"/>
<text text-anchor="middle" x="244" y="-13.5" font-family="Helvetica,sans-Serif" font-size="10.00">array</text>
</g>
<!-- Node1&#45;&gt;Node3 -->
<g id="edge2" class="edge"><title>Node1&#45;&gt;Node3</title>
<path fill="none" stroke="midnightblue" d="M822.907,-326.571C653.667,-307.488 278.657,-254.768 204,-156 175.717,-118.583 210.001,-61.7689 230.607,-33.7827"/>
<polygon fill="midnightblue" stroke="midnightblue" points="233.437,-35.8436 236.72,-25.7703 227.871,-31.5976 233.437,-35.8436"/>
</g>
<!-- Node4 -->
<g id="node4" class="node"><title>Node4</title>
<polygon fill="none" stroke="#bfbfbf" points="1138.5,-192.5 1138.5,-211.5 1179.5,-211.5 1179.5,-192.5 1138.5,-192.5"/>
<text text-anchor="middle" x="1159" y="-199.5" font-family="Helvetica,sans-Serif" font-size="10.00">string</text>
</g>
<!-- Node1&#45;&gt;Node4 -->
<g id="edge3" class="edge"><title>Node1&#45;&gt;Node4</title>
<path fill="none" stroke="midnightblue" d="M980.792,-304.455C1005.44,-293.694 1032.74,-281.018 1057,-268 1086.2,-252.33 1118.17,-231.276 1138.39,-217.432"/>
<polygon fill="midnightblue" stroke="midnightblue" points="1140.56,-220.186 1146.8,-211.624 1136.58,-214.426 1140.56,-220.186"/>
</g>
<!-- Node5 -->
<g id="node5" class="node"><title>Node5</title>
<polygon fill="none" stroke="#bfbfbf" points="1722,-74.5 1722,-93.5 1798,-93.5 1798,-74.5 1722,-74.5"/>
<text text-anchor="middle" x="1760" y="-81.5" font-family="Helvetica,sans-Serif" font-size="10.00">TGeoMatrix.h</text>
</g>
<!-- Node1&#45;&gt;Node5 -->
<g id="edge4" class="edge"><title>Node1&#45;&gt;Node5</title>
<path fill="none" stroke="midnightblue" d="M989.131,-314.691C1040.76,-301.843 1108.41,-284.583 1168,-268 1380.77,-208.792 1633.02,-126.853 1724.58,-96.7218"/>
<polygon fill="midnightblue" stroke="midnightblue" points="1725.79,-100.009 1734.19,-93.5555 1723.6,-93.3609 1725.79,-100.009"/>
</g>
<!-- Node6 -->
<g id="node6" class="node"><title>Node6</title>
<polygon fill="none" stroke="#bfbfbf" points="213.5,-136.5 213.5,-155.5 272.5,-155.5 272.5,-136.5 213.5,-136.5"/>
<text text-anchor="middle" x="243" y="-143.5" font-family="Helvetica,sans-Serif" font-size="10.00">TObject.h</text>
</g>
<!-- Node1&#45;&gt;Node6 -->
<g id="edge5" class="edge"><title>Node1&#45;&gt;Node6</title>
<path fill="none" stroke="midnightblue" d="M822.702,-311.38C678.645,-270.531 388.27,-188.193 282.6,-158.229"/>
<polygon fill="midnightblue" stroke="midnightblue" points="283.246,-154.774 272.671,-155.413 281.337,-161.509 283.246,-154.774"/>
</g>
<!-- Node7 -->
<g id="node7" class="node"><title>Node7</title>
<g id="a_node7"><a xlink:href="../../d6/d31/DetID_8h.html" target="_top" xlink:title="DetectorsBase/DetID.h">
<polygon fill="none" stroke="black" points="791.5,-136.5 791.5,-155.5 910.5,-155.5 910.5,-136.5 791.5,-136.5"/>
<text text-anchor="middle" x="851" y="-143.5" font-family="Helvetica,sans-Serif" font-size="10.00">DetectorsBase/DetID.h</text>
</a>
</g>
</g>
<!-- Node1&#45;&gt;Node7 -->
<g id="edge6" class="edge"><title>Node1&#45;&gt;Node7</title>
<path fill="none" stroke="midnightblue" d="M891.886,-304.327C881.209,-279.841 867.054,-244.389 859,-212 855.18,-196.639 853.149,-178.762 852.091,-165.648"/>
<polygon fill="midnightblue" stroke="midnightblue" points="855.573,-165.268 851.391,-155.534 848.59,-165.751 855.573,-165.268"/>
</g>
<!-- Node10 -->
<g id="node10" class="node"><title>Node10</title>
<polygon fill="none" stroke="#bfbfbf" points="1648,-74.5 1648,-93.5 1704,-93.5 1704,-74.5 1648,-74.5"/>
<text text-anchor="middle" x="1676" y="-81.5" font-family="Helvetica,sans-Serif" font-size="10.00">Rtypes.h</text>
</g>
<!-- Node1&#45;&gt;Node10 -->
<g id="edge48" class="edge"><title>Node1&#45;&gt;Node10</title>
<path fill="none" stroke="midnightblue" d="M989.05,-309.998C1030.03,-297.557 1080.17,-282.181 1125,-268 1354.14,-195.508 1413.28,-182.531 1639,-100 1641.39,-99.1253 1643.86,-98.1926 1646.33,-97.2366"/>
<polygon fill="midnightblue" stroke="midnightblue" points="1647.74,-100.446 1655.74,-93.5072 1645.16,-93.9382 1647.74,-100.446"/>
</g>
<!-- Node11 -->
<g id="node11" class="node"><title>Node11</title>
<g id="a_node11"><a xlink:href="../../d9/ded/Utils_8h.html" target="_top" xlink:title="DetectorsBase/Utils.h">
<polygon fill="none" stroke="black" points="66.5,-74.5 66.5,-93.5 179.5,-93.5 179.5,-74.5 66.5,-74.5"/>
<text text-anchor="middle" x="123" y="-81.5" font-family="Helvetica,sans-Serif" font-size="10.00">DetectorsBase/Utils.h</text>
</a>
</g>
</g>
<!-- Node1&#45;&gt;Node11 -->
<g id="edge16" class="edge"><title>Node1&#45;&gt;Node11</title>
<path fill="none" stroke="midnightblue" d="M822.893,-332.728C640.999,-327.006 219.894,-309.4 171,-268 121.932,-226.453 119.838,-141.446 121.571,-103.734"/>
<polygon fill="midnightblue" stroke="midnightblue" points="125.071,-103.843 122.184,-93.6493 118.084,-103.419 125.071,-103.843"/>
</g>
<!-- Node15 -->
<g id="node15" class="node"><title>Node15</title>
<g id="a_node15"><a xlink:href="../../db/dcc/Detectors_2Base_2include_2DetectorsBase_2GeometryManager_8h.html" target="_top" xlink:title="DetectorsBase/GeometryManager.h">
<polygon fill="none" stroke="black" points="596.5,-192.5 596.5,-211.5 769.5,-211.5 769.5,-192.5 596.5,-192.5"/>
<text text-anchor="middle" x="683" y="-199.5" font-family="Helvetica,sans-Serif" font-size="10.00">DetectorsBase/GeometryManager.h</text>
</a>
</g>
</g>
<!-- Node1&#45;&gt;Node15 -->
<g id="edge17" class="edge"><title>Node1&#45;&gt;Node15</title>
<path fill="none" stroke="midnightblue" d="M854.279,-304.385C807.706,-276.817 741.378,-237.556 706.505,-216.913"/>
<polygon fill="midnightblue" stroke="midnightblue" points="707.934,-213.692 697.546,-211.61 704.368,-219.716 707.934,-213.692"/>
</g>
<!-- Node32 -->
<g id="node32" class="node"><title>Node32</title>
<g id="a_node32"><a xlink:href="../../d0/d2d/common_2base_2include_2ITSMFTBase_2GeometryTGeo_8h.html" target="_top" xlink:title="ITSMFTBase/GeometryTGeo.h">
<polygon fill="none" stroke="black" points="895.5,-248.5 895.5,-267.5 1048.5,-267.5 1048.5,-248.5 895.5,-248.5"/>
<text text-anchor="middle" x="972" y="-255.5" font-family="Helvetica,sans-Serif" font-size="10.00">ITSMFTBase/GeometryTGeo.h</text>
</a>
</g>
</g>
<!-- Node1&#45;&gt;Node32 -->
<g id="edge38" class="edge"><title>Node1&#45;&gt;Node32</title>
<path fill="none" stroke="midnightblue" d="M932.845,-304.088C941.41,-294.225 950.549,-283.701 957.841,-275.304"/>
<polygon fill="midnightblue" stroke="midnightblue" points="960.515,-277.563 964.429,-267.718 955.229,-272.974 960.515,-277.563"/>
</g>
<!-- Node7&#45;&gt;Node3 -->
<g id="edge8" class="edge"><title>Node7&#45;&gt;Node3</title>
<path fill="none" stroke="midnightblue" d="M791.185,-136.988C788.08,-136.638 785.005,-136.306 782,-136 673.158,-124.92 383.438,-158.518 291,-100 267.861,-85.352 255.004,-54.9923 248.801,-35.333"/>
<polygon fill="midnightblue" stroke="midnightblue" points="252.151,-34.3179 246.016,-25.6798 245.425,-36.2582 252.151,-34.3179"/>
</g>
<!-- Node8 -->
<g id="node8" class="node"><title>Node8</title>
<polygon fill="none" stroke="#bfbfbf" points="300,-74.5 300,-93.5 346,-93.5 346,-74.5 300,-74.5"/>
<text text-anchor="middle" x="323" y="-81.5" font-family="Helvetica,sans-Serif" font-size="10.00">cstdint</text>
</g>
<!-- Node7&#45;&gt;Node8 -->
<g id="edge7" class="edge"><title>Node7&#45;&gt;Node8</title>
<path fill="none" stroke="midnightblue" d="M791.181,-137.028C788.077,-136.667 785.003,-136.322 782,-136 592.636,-115.678 538.99,-149.186 355,-100 352.649,-99.3716 350.259,-98.578 347.898,-97.6853"/>
<polygon fill="midnightblue" stroke="midnightblue" points="349.099,-94.3912 338.531,-93.6286 346.317,-100.815 349.099,-94.3912"/>
</g>
<!-- Node9 -->
<g id="node9" class="node"><title>Node9</title>
<polygon fill="none" stroke="#bfbfbf" points="364,-74.5 364,-93.5 426,-93.5 426,-74.5 364,-74.5"/>
<text text-anchor="middle" x="395" y="-81.5" font-family="Helvetica,sans-Serif" font-size="10.00">type_traits</text>
</g>
<!-- Node7&#45;&gt;Node9 -->
<g id="edge9" class="edge"><title>Node7&#45;&gt;Node9</title>
<path fill="none" stroke="midnightblue" d="M791.173,-137.099C788.072,-136.72 785,-136.351 782,-136 628.002,-117.971 585.929,-135.51 435,-100 431.575,-99.1942 428.046,-98.172 424.569,-97.0413"/>
<polygon fill="midnightblue" stroke="midnightblue" points="425.632,-93.7047 415.037,-93.6566 423.29,-100.301 425.632,-93.7047"/>
</g>
<!-- Node7&#45;&gt;Node10 -->
<g id="edge10" class="edge"><title>Node7&#45;&gt;Node10</title>
<path fill="none" stroke="midnightblue" d="M910.673,-136.822C913.486,-136.525 916.272,-136.248 919,-136 1238.08,-106.956 1326.15,-169.157 1639,-100 1642.25,-99.2819 1645.58,-98.3057 1648.85,-97.1935"/>
<polygon fill="midnightblue" stroke="midnightblue" points="1650.23,-100.412 1658.32,-93.5708 1647.73,-93.8738 1650.23,-100.412"/>
</g>
<!-- Node7&#45;&gt;Node11 -->
<g id="edge11" class="edge"><title>Node7&#45;&gt;Node11</title>
<path fill="none" stroke="midnightblue" d="M791.187,-136.965C788.082,-136.621 785.006,-136.296 782,-136 543.953,-112.519 483.132,-122.604 245,-100 227.069,-98.2979 207.699,-96.0877 189.79,-93.8893"/>
<polygon fill="midnightblue" stroke="midnightblue" points="190.079,-90.3983 179.723,-92.6365 189.214,-97.3448 190.079,-90.3983"/>
</g>
<!-- Node14 -->
<g id="node14" class="node"><title>Node14</title>
<polygon fill="none" stroke="#bfbfbf" points="444.5,-74.5 444.5,-93.5 493.5,-93.5 493.5,-74.5 444.5,-74.5"/>
<text text-anchor="middle" x="469" y="-81.5" font-family="Helvetica,sans-Serif" font-size="10.00">cassert</text>
</g>
<!-- Node7&#45;&gt;Node14 -->
<g id="edge15" class="edge"><title>Node7&#45;&gt;Node14</title>
<path fill="none" stroke="midnightblue" d="M791.226,-137.203C693.401,-124.436 509.708,-100.434 508,-100 504.766,-99.1783 501.435,-98.1675 498.146,-97.0622"/>
<polygon fill="midnightblue" stroke="midnightblue" points="499.14,-93.6991 488.546,-93.5572 496.739,-100.275 499.14,-93.6991"/>
</g>
<!-- Node11&#45;&gt;Node3 -->
<g id="edge14" class="edge"><title>Node11&#45;&gt;Node3</title>
<path fill="none" stroke="midnightblue" d="M138.819,-74.3717C159.291,-63.2051 195.185,-43.6266 219.273,-30.4876"/>
<polygon fill="midnightblue" stroke="midnightblue" points="221.075,-33.4917 228.177,-25.6305 217.723,-27.3464 221.075,-33.4917"/>
</g>
<!-- Node12 -->
<g id="node12" class="node"><title>Node12</title>
<g id="a_node12"><a xlink:href="../../d1/daa/Base_2include_2DetectorsBase_2Constants_8h.html" target="_top" xlink:title="DetectorsBase/Constants.h">
<polygon fill="none" stroke="black" points="62,-6.5 62,-25.5 200,-25.5 200,-6.5 62,-6.5"/>
<text text-anchor="middle" x="131" y="-13.5" font-family="Helvetica,sans-Serif" font-size="10.00">DetectorsBase/Constants.h</text>
</a>
</g>
</g>
<!-- Node11&#45;&gt;Node12 -->
<g id="edge12" class="edge"><title>Node11&#45;&gt;Node12</title>
<path fill="none" stroke="midnightblue" d="M124.046,-74.3717C125.225,-64.6426 127.178,-48.528 128.715,-35.8504"/>
<polygon fill="midnightblue" stroke="midnightblue" points="132.2,-36.1896 129.928,-25.8411 125.25,-35.3473 132.2,-36.1896"/>
</g>
<!-- Node13 -->
<g id="node13" class="node"><title>Node13</title>
<polygon fill="none" stroke="#bfbfbf" points="0,-6.5 0,-25.5 44,-25.5 44,-6.5 0,-6.5"/>
<text text-anchor="middle" x="22" y="-13.5" font-family="Helvetica,sans-Serif" font-size="10.00">cmath</text>
</g>
<!-- Node11&#45;&gt;Node13 -->
<g id="edge13" class="edge"><title>Node11&#45;&gt;Node13</title>
<path fill="none" stroke="midnightblue" d="M109.796,-74.3717C93.0102,-63.4027 63.8033,-44.317 43.7169,-31.1912"/>
<polygon fill="midnightblue" stroke="midnightblue" points="45.493,-28.1709 35.2072,-25.6305 41.6638,-34.0307 45.493,-28.1709"/>
</g>
<!-- Node15&#45;&gt;Node6 -->
<g id="edge23" class="edge"><title>Node15&#45;&gt;Node6</title>
<path fill="none" stroke="midnightblue" d="M596.311,-194.349C516.918,-187.559 396.021,-175.462 282.689,-156.127"/>
<polygon fill="midnightblue" stroke="midnightblue" points="283.25,-152.672 272.8,-154.418 282.058,-159.57 283.25,-152.672"/>
</g>
<!-- Node15&#45;&gt;Node7 -->
<g id="edge24" class="edge"><title>Node15&#45;&gt;Node7</title>
<path fill="none" stroke="midnightblue" d="M709.62,-192.444C738.006,-183.32 783.137,-168.813 814.753,-158.651"/>
<polygon fill="midnightblue" stroke="midnightblue" points="816.055,-161.909 824.504,-155.516 813.913,-155.244 816.055,-161.909"/>
</g>
<!-- Node16 -->
<g id="node16" class="node"><title>Node16</title>
<polygon fill="none" stroke="#bfbfbf" points="687,-136.5 687,-155.5 773,-155.5 773,-136.5 687,-136.5"/>
<text text-anchor="middle" x="730" y="-143.5" font-family="Helvetica,sans-Serif" font-size="10.00">TGeoManager.h</text>
</g>
<!-- Node15&#45;&gt;Node16 -->
<g id="edge18" class="edge"><title>Node15&#45;&gt;Node16</title>
<path fill="none" stroke="midnightblue" d="M690.761,-192.083C697.537,-184.298 707.543,-172.801 715.755,-163.367"/>
<polygon fill="midnightblue" stroke="midnightblue" points="718.458,-165.592 722.383,-155.751 713.178,-160.996 718.458,-165.592"/>
</g>
<!-- Node17 -->
<g id="node17" class="node"><title>Node17</title>
<polygon fill="none" stroke="#bfbfbf" points="290.5,-136.5 290.5,-155.5 373.5,-155.5 373.5,-136.5 290.5,-136.5"/>
<text text-anchor="middle" x="332" y="-143.5" font-family="Helvetica,sans-Serif" font-size="10.00">TGeoMaterial.h</text>
</g>
<!-- Node15&#45;&gt;Node17 -->
<g id="edge19" class="edge"><title>Node15&#45;&gt;Node17</title>
<path fill="none" stroke="midnightblue" d="M623.163,-192.488C564.751,-184.073 473.085,-170.591 383.767,-156.09"/>
<polygon fill="midnightblue" stroke="midnightblue" points="384.166,-152.609 373.734,-154.455 383.041,-159.518 384.166,-152.609"/>
</g>
<!-- Node18 -->
<g id="node18" class="node"><title>Node18</title>
<polygon fill="none" stroke="#bfbfbf" points="392,-136.5 392,-155.5 502,-155.5 502,-136.5 392,-136.5"/>
<text text-anchor="middle" x="447" y="-143.5" font-family="Helvetica,sans-Serif" font-size="10.00">TGeoPhysicalNode.h</text>
</g>
<!-- Node15&#45;&gt;Node18 -->
<g id="edge20" class="edge"><title>Node15&#45;&gt;Node18</title>
<path fill="none" stroke="midnightblue" d="M645.605,-192.444C604.608,-183.063 538.746,-167.993 494.216,-157.804"/>
<polygon fill="midnightblue" stroke="midnightblue" points="494.749,-154.335 484.22,-155.516 493.187,-161.159 494.749,-154.335"/>
</g>
<!-- Node19 -->
<g id="node19" class="node"><title>Node19</title>
<polygon fill="none" stroke="#bfbfbf" points="520.5,-136.5 520.5,-155.5 597.5,-155.5 597.5,-136.5 520.5,-136.5"/>
<text text-anchor="middle" x="559" y="-143.5" font-family="Helvetica,sans-Serif" font-size="10.00">TGeoShape.h</text>
</g>
<!-- Node15&#45;&gt;Node19 -->
<g id="edge21" class="edge"><title>Node15&#45;&gt;Node19</title>
<path fill="none" stroke="midnightblue" d="M663.352,-192.444C643.035,-183.596 611.097,-169.687 587.902,-159.586"/>
<polygon fill="midnightblue" stroke="midnightblue" points="589.122,-156.3 578.556,-155.516 586.327,-162.718 589.122,-156.3"/>
</g>
<!-- Node20 -->
<g id="node20" class="node"><title>Node20</title>
<polygon fill="none" stroke="#bfbfbf" points="615.5,-136.5 615.5,-155.5 668.5,-155.5 668.5,-136.5 615.5,-136.5"/>
<text text-anchor="middle" x="642" y="-143.5" font-family="Helvetica,sans-Serif" font-size="10.00">TMath.h</text>
</g>
<!-- Node15&#45;&gt;Node20 -->
<g id="edge22" class="edge"><title>Node15&#45;&gt;Node20</title>
<path fill="none" stroke="midnightblue" d="M676.23,-192.083C670.438,-184.455 661.942,-173.264 654.862,-163.941"/>
<polygon fill="midnightblue" stroke="midnightblue" points="657.479,-161.599 648.644,-155.751 651.904,-165.832 657.479,-161.599"/>
</g>
<!-- Node21 -->
<g id="node21" class="node"><title>Node21</title>
<polygon fill="none" stroke="#bfbfbf" points="928.5,-136.5 928.5,-155.5 999.5,-155.5 999.5,-136.5 928.5,-136.5"/>
<text text-anchor="middle" x="964" y="-143.5" font-family="Helvetica,sans-Serif" font-size="10.00">FairLogger.h</text>
</g>
<!-- Node15&#45;&gt;Node21 -->
<g id="edge25" class="edge"><title>Node15&#45;&gt;Node21</title>
<path fill="none" stroke="midnightblue" d="M728.266,-192.494C773.657,-183.936 845.834,-170.253 917.969,-156.188"/>
<polygon fill="midnightblue" stroke="midnightblue" points="919,-159.553 928.144,-154.201 917.659,-152.682 919,-159.553"/>
</g>
<!-- Node22 -->
<g id="node22" class="node"><title>Node22</title>
<g id="a_node22"><a xlink:href="../../dd/d76/Cartesian3D_8h.html" target="_top" xlink:title="MathUtils/Cartesian3D.h">
<polygon fill="none" stroke="black" points="1056.5,-136.5 1056.5,-155.5 1181.5,-155.5 1181.5,-136.5 1056.5,-136.5"/>
<text text-anchor="middle" x="1119" y="-143.5" font-family="Helvetica,sans-Serif" font-size="10.00">MathUtils/Cartesian3D.h</text>
</a>
</g>
</g>
<!-- Node15&#45;&gt;Node22 -->
<g id="edge26" class="edge"><title>Node15&#45;&gt;Node22</title>
<path fill="none" stroke="midnightblue" d="M752.085,-192.444C832.416,-182.494 964.421,-166.145 1046.28,-156.007"/>
<polygon fill="midnightblue" stroke="midnightblue" points="1046.75,-159.475 1056.25,-154.772 1045.89,-152.528 1046.75,-159.475"/>
</g>
<!-- Node22&#45;&gt;Node5 -->
<g id="edge31" class="edge"><title>Node22&#45;&gt;Node5</title>
<path fill="none" stroke="midnightblue" d="M1181.53,-139.805C1197.04,-138.538 1213.62,-137.202 1229,-136 1443.61,-119.223 1500.56,-140.367 1712,-100 1716.79,-99.0862 1721.77,-97.8579 1726.63,-96.4956"/>
<polygon fill="midnightblue" stroke="midnightblue" points="1727.78,-99.8044 1736.35,-93.5691 1725.76,-93.1018 1727.78,-99.8044"/>
</g>
<!-- Node22&#45;&gt;Node10 -->
<g id="edge30" class="edge"><title>Node22&#45;&gt;Node10</title>
<path fill="none" stroke="midnightblue" d="M1181.6,-137.497C1186.47,-136.97 1191.31,-136.464 1196,-136 1392.58,-116.531 1446.81,-145.634 1639,-100 1642.07,-99.2709 1645.22,-98.3267 1648.32,-97.2669"/>
<polygon fill="midnightblue" stroke="midnightblue" points="1649.82,-100.441 1657.92,-93.6097 1647.33,-93.9003 1649.82,-100.441"/>
</g>
<!-- Node23 -->
<g id="node23" class="node"><title>Node23</title>
<polygon fill="none" stroke="#bfbfbf" points="1163.5,-74.5 1163.5,-93.5 1312.5,-93.5 1312.5,-74.5 1163.5,-74.5"/>
<text text-anchor="middle" x="1238" y="-81.5" font-family="Helvetica,sans-Serif" font-size="10.00">Math/GenVector/Rotation3D.h</text>
</g>
<!-- Node22&#45;&gt;Node23 -->
<g id="edge27" class="edge"><title>Node22&#45;&gt;Node23</title>
<path fill="none" stroke="midnightblue" d="M1136.05,-136.403C1155.84,-126.423 1188.72,-109.849 1211.77,-98.2253"/>
<polygon fill="midnightblue" stroke="midnightblue" points="1213.63,-101.208 1220.98,-93.5806 1210.48,-94.9575 1213.63,-101.208"/>
</g>
<!-- Node24 -->
<g id="node24" class="node"><title>Node24</title>
<polygon fill="none" stroke="#bfbfbf" points="1331,-74.5 1331,-93.5 1487,-93.5 1487,-74.5 1331,-74.5"/>
<text text-anchor="middle" x="1409" y="-81.5" font-family="Helvetica,sans-Serif" font-size="10.00">Math/GenVector/Transform3D.h</text>
</g>
<!-- Node22&#45;&gt;Node24 -->
<g id="edge28" class="edge"><title>Node22&#45;&gt;Node24</title>
<path fill="none" stroke="midnightblue" d="M1160.24,-136.467C1212.21,-125.716 1301.51,-107.239 1357.79,-95.5947"/>
<polygon fill="midnightblue" stroke="midnightblue" points="1358.82,-98.9569 1367.9,-93.5034 1357.4,-92.1021 1358.82,-98.9569"/>
</g>
<!-- Node25 -->
<g id="node25" class="node"><title>Node25</title>
<polygon fill="none" stroke="#bfbfbf" points="550,-74.5 550,-93.5 710,-93.5 710,-74.5 550,-74.5"/>
<text text-anchor="middle" x="630" y="-81.5" font-family="Helvetica,sans-Serif" font-size="10.00">Math/GenVector/Translation3D.h</text>
</g>
<!-- Node22&#45;&gt;Node25 -->
<g id="edge29" class="edge"><title>Node22&#45;&gt;Node25</title>
<path fill="none" stroke="midnightblue" d="M1056.39,-137.653C1051.52,-137.091 1046.68,-136.534 1042,-136 898.488,-119.615 862.052,-120.011 719,-100 708.769,-98.5688 697.905,-96.8799 687.412,-95.161"/>
<polygon fill="midnightblue" stroke="midnightblue" points="687.937,-91.7004 677.498,-93.5111 686.788,-98.6054 687.937,-91.7004"/>
</g>
<!-- Node26 -->
<g id="node26" class="node"><title>Node26</title>
<polygon fill="none" stroke="#bfbfbf" points="728.5,-69 728.5,-99 879.5,-99 879.5,-69 728.5,-69"/>
<text text-anchor="start" x="736.5" y="-87" font-family="Helvetica,sans-Serif" font-size="10.00">Math/GenVector/Displacement</text>
<text text-anchor="middle" x="804" y="-76" font-family="Helvetica,sans-Serif" font-size="10.00">Vector3D.h</text>
</g>
<!-- Node22&#45;&gt;Node26 -->
<g id="edge32" class="edge"><title>Node22&#45;&gt;Node26</title>
<path fill="none" stroke="midnightblue" d="M1074.2,-136.467C1025.87,-127.261 947.809,-112.392 887.987,-100.997"/>
<polygon fill="midnightblue" stroke="midnightblue" points="888.275,-97.4895 877.797,-99.0565 886.965,-104.366 888.275,-97.4895"/>
</g>
<!-- Node27 -->
<g id="node27" class="node"><title>Node27</title>
<polygon fill="none" stroke="#bfbfbf" points="898,-74.5 898,-93.5 1074,-93.5 1074,-74.5 898,-74.5"/>
<text text-anchor="middle" x="986" y="-81.5" font-family="Helvetica,sans-Serif" font-size="10.00">Math/GenVector/PositionVector3D.h</text>
</g>
<!-- Node22&#45;&gt;Node27 -->
<g id="edge33" class="edge"><title>Node22&#45;&gt;Node27</title>
<path fill="none" stroke="midnightblue" d="M1099.94,-136.403C1077.53,-126.29 1040.09,-109.404 1014.29,-97.761"/>
<polygon fill="midnightblue" stroke="midnightblue" points="1015.57,-94.5025 1005.02,-93.5806 1012.7,-100.883 1015.57,-94.5025"/>
</g>
<!-- Node28 -->
<g id="node28" class="node"><title>Node28</title>
<g id="a_node28"><a xlink:href="../../d2/dd0/Cartesian2D_8h.html" target="_top" xlink:title="MathUtils/Cartesian2D.h">
<polygon fill="none" stroke="black" points="1505.5,-74.5 1505.5,-93.5 1630.5,-93.5 1630.5,-74.5 1505.5,-74.5"/>
<text text-anchor="middle" x="1568" y="-81.5" font-family="Helvetica,sans-Serif" font-size="10.00">MathUtils/Cartesian2D.h</text>
</a>
</g>
</g>
<!-- Node22&#45;&gt;Node28 -->
<g id="edge34" class="edge"><title>Node22&#45;&gt;Node28</title>
<path fill="none" stroke="midnightblue" d="M1181.84,-137.642C1285.08,-125.536 1480.73,-102.497 1496,-100 1503.8,-98.725 1512.03,-97.19 1520.04,-95.5952"/>
<polygon fill="midnightblue" stroke="midnightblue" points="1520.9,-98.99 1530,-93.5583 1519.5,-92.1318 1520.9,-98.99"/>
</g>
<!-- Node31 -->
<g id="node31" class="node"><title>Node31</title>
<polygon fill="none" stroke="#bfbfbf" points="1092,-74.5 1092,-93.5 1146,-93.5 1146,-74.5 1092,-74.5"/>
<text text-anchor="middle" x="1119" y="-81.5" font-family="Helvetica,sans-Serif" font-size="10.00">iostream</text>
</g>
<!-- Node22&#45;&gt;Node31 -->
<g id="edge37" class="edge"><title>Node22&#45;&gt;Node31</title>
<path fill="none" stroke="midnightblue" d="M1119,-136.403C1119,-127.938 1119,-114.728 1119,-103.82"/>
<polygon fill="midnightblue" stroke="midnightblue" points="1122.5,-103.581 1119,-93.5806 1115.5,-103.581 1122.5,-103.581"/>
</g>
<!-- Node29 -->
<g id="node29" class="node"><title>Node29</title>
<polygon fill="none" stroke="#bfbfbf" points="1401.5,-1 1401.5,-31 1552.5,-31 1552.5,-1 1401.5,-1"/>
<text text-anchor="start" x="1409.5" y="-19" font-family="Helvetica,sans-Serif" font-size="10.00">Math/GenVector/Displacement</text>
<text text-anchor="middle" x="1477" y="-8" font-family="Helvetica,sans-Serif" font-size="10.00">Vector2D.h</text>
</g>
<!-- Node28&#45;&gt;Node29 -->
<g id="edge35" class="edge"><title>Node28&#45;&gt;Node29</title>
<path fill="none" stroke="midnightblue" d="M1556.1,-74.3717C1543.22,-65.0286 1522.22,-49.7966 1505.09,-37.375"/>
<polygon fill="midnightblue" stroke="midnightblue" points="1506.7,-34.2194 1496.55,-31.1815 1502.59,-39.8859 1506.7,-34.2194"/>
</g>
<!-- Node30 -->
<g id="node30" class="node"><title>Node30</title>
<polygon fill="none" stroke="#bfbfbf" points="1571,-6.5 1571,-25.5 1747,-25.5 1747,-6.5 1571,-6.5"/>
<text text-anchor="middle" x="1659" y="-13.5" font-family="Helvetica,sans-Serif" font-size="10.00">Math/GenVector/PositionVector2D.h</text>
</g>
<!-- Node28&#45;&gt;Node30 -->
<g id="edge36" class="edge"><title>Node28&#45;&gt;Node30</title>
<path fill="none" stroke="midnightblue" d="M1579.9,-74.3717C1594.88,-63.5015 1620.86,-44.6602 1638.94,-31.5474"/>
<polygon fill="midnightblue" stroke="midnightblue" points="1641.06,-34.3349 1647.1,-25.6305 1636.95,-28.6684 1641.06,-34.3349"/>
</g>
<!-- Node32&#45;&gt;Node4 -->
<g id="edge47" class="edge"><title>Node32&#45;&gt;Node4</title>
<path fill="none" stroke="midnightblue" d="M1002.13,-248.483C1031.84,-240.057 1078.8,-226.674 1128.68,-212.069"/>
<polygon fill="midnightblue" stroke="midnightblue" points="1129.74,-215.403 1138.35,-209.23 1127.77,-208.686 1129.74,-215.403"/>
</g>
<!-- Node33 -->
<g id="node33" class="node"><title>Node33</title>
<g id="a_node33"><a xlink:href="../../d4/d20/DetMatrixCache_8h.html" target="_top" xlink:title="DetectorsBase/DetMatrixCache.h">
<polygon fill="none" stroke="black" points="956,-192.5 956,-211.5 1120,-211.5 1120,-192.5 956,-192.5"/>
<text text-anchor="middle" x="1038" y="-199.5" font-family="Helvetica,sans-Serif" font-size="10.00">DetectorsBase/DetMatrixCache.h</text>
</a>
</g>
</g>
<!-- Node32&#45;&gt;Node33 -->
<g id="edge39" class="edge"><title>Node32&#45;&gt;Node33</title>
<path fill="none" stroke="midnightblue" d="M982.604,-248.324C992.456,-240.263 1007.35,-228.077 1019.22,-218.369"/>
<polygon fill="midnightblue" stroke="midnightblue" points="1021.68,-220.875 1027.2,-211.834 1017.25,-215.457 1021.68,-220.875"/>
</g>
<!-- Node34 -->
<g id="node34" class="node"><title>Node34</title>
<polygon fill="none" stroke="#bfbfbf" points="868.5,-192.5 868.5,-211.5 937.5,-211.5 937.5,-192.5 868.5,-192.5"/>
<text text-anchor="middle" x="903" y="-199.5" font-family="Helvetica,sans-Serif" font-size="10.00">TObjArray.h</text>
</g>
<!-- Node32&#45;&gt;Node34 -->
<g id="edge46" class="edge"><title>Node32&#45;&gt;Node34</title>
<path fill="none" stroke="midnightblue" d="M960.914,-248.324C950.514,-240.185 934.739,-227.839 922.278,-218.087"/>
<polygon fill="midnightblue" stroke="midnightblue" points="924.32,-215.241 914.288,-211.834 920.006,-220.753 924.32,-215.241"/>
</g>
<!-- Node33&#45;&gt;Node2 -->
<g id="edge40" class="edge"><title>Node33&#45;&gt;Node2</title>
<path fill="none" stroke="midnightblue" d="M1073.68,-192.454C1111.13,-183.461 1171.74,-168.855 1224,-156 1225.27,-155.688 1226.56,-155.37 1227.86,-155.047"/>
<polygon fill="midnightblue" stroke="midnightblue" points="1229.06,-158.356 1237.92,-152.548 1227.37,-151.563 1229.06,-158.356"/>
</g>
<!-- Node33&#45;&gt;Node3 -->
<g id="edge41" class="edge"><title>Node33&#45;&gt;Node3</title>
<path fill="none" stroke="midnightblue" d="M1036.75,-192.039C1034.22,-177.531 1026.98,-149.199 1008,-136 922.547,-76.5723 637.582,-138.804 541,-100 520.195,-91.6412 522.275,-77.5733 502,-68 424.848,-31.5705 322.861,-21.1503 273.404,-18.179"/>
<polygon fill="midnightblue" stroke="midnightblue" points="273.291,-14.6679 263.118,-17.6246 272.915,-21.6578 273.291,-14.6679"/>
</g>
<!-- Node33&#45;&gt;Node7 -->
<g id="edge43" class="edge"><title>Node33&#45;&gt;Node7</title>
<path fill="none" stroke="midnightblue" d="M1008.37,-192.444C976.5,-183.241 925.667,-168.562 890.436,-158.388"/>
<polygon fill="midnightblue" stroke="midnightblue" points="891.071,-154.928 880.492,-155.516 889.128,-161.653 891.071,-154.928"/>
</g>
<!-- Node33&#45;&gt;Node10 -->
<g id="edge44" class="edge"><title>Node33&#45;&gt;Node10</title>
<path fill="none" stroke="midnightblue" d="M1073.65,-192.453C1104.86,-184.498 1151.17,-171.549 1190,-156 1208.08,-148.759 1210.28,-141.397 1229,-136 1404.76,-85.3223 1461.16,-142.836 1639,-100 1642.07,-99.261 1645.22,-98.3103 1648.32,-97.2467"/>
<polygon fill="midnightblue" stroke="midnightblue" points="1649.82,-100.42 1657.91,-93.585 1647.32,-93.8803 1649.82,-100.42"/>
</g>
<!-- Node33&#45;&gt;Node21 -->
<g id="edge45" class="edge"><title>Node33&#45;&gt;Node21</title>
<path fill="none" stroke="midnightblue" d="M1026.11,-192.324C1014.85,-184.107 997.713,-171.602 984.291,-161.807"/>
<polygon fill="midnightblue" stroke="midnightblue" points="986.247,-158.901 976.106,-155.834 982.12,-164.556 986.247,-158.901"/>
</g>
<!-- Node33&#45;&gt;Node22 -->
<g id="edge42" class="edge"><title>Node33&#45;&gt;Node22</title>
<path fill="none" stroke="midnightblue" d="M1051.01,-192.324C1063.53,-183.979 1082.68,-171.212 1097.47,-161.352"/>
<polygon fill="midnightblue" stroke="midnightblue" points="1099.64,-164.114 1106.02,-155.655 1095.76,-158.289 1099.64,-164.114"/>
</g>
</g>
</svg>
        <g id="navigator" transform="translate(0 0)" fill="#404254">
                <rect fill="#f2f5e9" fill-opacity="0.5" stroke="#606060" stroke-width=".5" x="0" y="0" width="60" height="60"/>
                <use id="zoomplus" xlink:href="#zoomPlus" x="17" y="9" onmousedown="handleZoom(evt,'in')"/>
                <use id="zoomminus" xlink:href="#zoomMin" x="42" y="9" onmousedown="handleZoom(evt,'out')"/>
                <use id="reset" xlink:href="#resetDef" x="30" y="36" onmousedown="handleReset()"/>
                <g id="arrowUp" xlink:href="#dirArrow" transform="translate(30 24)" onmousedown="handlePan(0,-1)">
                  <use xlink:href="#rim" fill="#404040">
                        <set attributeName="fill" to="#808080" begin="arrowUp.mouseover" end="arrowUp.mouseout"/>
                  </use>
                  <path fill="none" stroke="white" stroke-width="1.5" d="M0,-3.0v7 M-2.5,-0.5L0,-3.0L2.5,-0.5"/>
                </g>
                <g id="arrowRight" xlink:href="#dirArrow" transform="rotate(90) translate(36 -43)" onmousedown="handlePan(1,0)">
                  <use xlink:href="#rim" fill="#404040">
                        <set attributeName="fill" to="#808080" begin="arrowRight.mouseover" end="arrowRight.mouseout"/>
                  </use>
                  <path fill="none" stroke="white" stroke-width="1.5" d="M0,-3.0v7 M-2.5,-0.5L0,-3.0L2.5,-0.5"/>
                </g>
                <g id="arrowDown" xlink:href="#dirArrow" transform="rotate(180) translate(-30 -48)" onmousedown="handlePan(0,1)">
                  <use xlink:href="#rim" fill="#404040">
                        <set attributeName="fill" to="#808080" begin="arrowDown.mouseover" end="arrowDown.mouseout"/>
                  </use>
                  <path fill="none" stroke="white" stroke-width="1.5" d="M0,-3.0v7 M-2.5,-0.5L0,-3.0L2.5,-0.5"/>
                </g>
                <g id="arrowLeft" xlink:href="#dirArrow" transform="rotate(270) translate(-36 17)" onmousedown="handlePan(-1,0)">
                  <use xlink:href="#rim" fill="#404040">
                        <set attributeName="fill" to="#808080" begin="arrowLeft.mouseover" end="arrowLeft.mouseout"/>
                  </use>
                  <path fill="none" stroke="white" stroke-width="1.5" d="M0,-3.0v7 M-2.5,-0.5L0,-3.0L2.5,-0.5"/>
                </g>
        </g>
        <svg viewBox="0 0 15 15" width="100%" height="30px" preserveAspectRatio="xMaxYMin meet">
         <g id="arrow_out" transform="scale(0.3 0.3)">
          <a xlink:href="MFT_2base_2include_2MFTBase_2GeometryTGeo_8h__incl_org.svg" target="_base">
           <rect id="button" ry="5" rx="5" y="6" x="6" height="38" width="38"
                fill="#f2f5e9" fill-opacity="0.5" stroke="#606060" stroke-width="1.0"/>
           <path id="arrow"
             d="M 11.500037,31.436501 C 11.940474,20.09759 22.043105,11.32322 32.158766,21.979434 L 37.068811,17.246167 C 37.068811,17.246167 37.088388,32 37.088388,32 L 22.160133,31.978069 C 22.160133,31.978069 26.997745,27.140456 26.997745,27.140456 C 18.528582,18.264221 13.291696,25.230495 11.500037,31.436501 z"
             style="fill:#404040;"/>
          </a>
         </g>
        </svg>
</svg>
