<?xml version="1.0" encoding="UTF-8" standalone="no"?>
<!DOCTYPE svg PUBLIC "-//W3C//DTD SVG 1.1//EN"
 "http://www.w3.org/Graphics/SVG/1.1/DTD/svg11.dtd">
<!-- Generated by graphviz version 2.36.0 (20140111.2315)
 -->
<!-- Title: /home/travis/build/AliceO2Group/AliceO2/Detectors/ITSMFT/ITS/reconstruction/src/TrivialClusterer.cxx Pages: 1 -->
<!--zoomable 446 -->
<svg id="main" version="1.1" xmlns="http://www.w3.org/2000/svg" xmlns:xlink="http://www.w3.org/1999/xlink" xml:space="preserve" onload="init(evt)">
<style type="text/css"><![CDATA[
.edge:hover path { stroke: red; }
.edge:hover polygon { stroke: red; fill: red; }
]]></style>
<script type="text/javascript"><![CDATA[
var edges = document.getElementsByTagName('g');
if (edges && edges.length) {
  for (var i=0;i<edges.length;i++) {
    if (edges[i].id.substr(0,4)=='edge') {
      edges[i].setAttribute('class','edge');
    }
  }
}
]]></script>
        <defs>
                <circle id="rim" cx="0" cy="0" r="7"/>
                <circle id="rim2" cx="0" cy="0" r="3.5"/>
                <g id="zoomPlus">
                        <use xlink:href="#rim" fill="#404040">
                                <set attributeName="fill" to="#808080" begin="zoomplus.mouseover" end="zoomplus.mouseout"/>
                        </use>
                        <path d="M-4,0h8M0,-4v8" fill="none" stroke="white" stroke-width="1.5" pointer-events="none"/>
                </g>
                <g id="zoomMin">
                        <use xlink:href="#rim" fill="#404040">
                                <set attributeName="fill" to="#808080" begin="zoomminus.mouseover" end="zoomminus.mouseout"/>
                        </use>
                        <path d="M-4,0h8" fill="none" stroke="white" stroke-width="1.5" pointer-events="none"/>
                </g>
                <g id="dirArrow">
                        <path fill="none" stroke="white" stroke-width="1.5" d="M0,-3.0v7 M-2.5,-0.5L0,-3.0L2.5,-0.5"/>
                </g>
               <g id="resetDef">
                       <use xlink:href="#rim2" fill="#404040">
                               <set attributeName="fill" to="#808080" begin="reset.mouseover" end="reset.mouseout"/>
                       </use>
               </g>
        </defs>

<script type="text/javascript">
var viewWidth = 2204;
var viewHeight = 446;
var sectionId = 'dynsection-0';
</script>
<script xlink:href="../../svgpan.js"/>
<svg id="graph" class="graph">
<g id="viewport">
<title>/home/travis/build/AliceO2Group/AliceO2/Detectors/ITSMFT/ITS/reconstruction/src/TrivialClusterer.cxx</title>
<!-- Node1 -->
<g id="node1" class="node"><title>Node1</title>
<polygon fill="#bfbfbf" stroke="black" points="1624.5,-385 1624.5,-437 1809.5,-437 1809.5,-385 1624.5,-385"/>
<text text-anchor="start" x="1632.5" y="-425" font-family="Helvetica,sans-Serif" font-size="10.00">/home/travis/build</text>
<text text-anchor="start" x="1632.5" y="-414" font-family="Helvetica,sans-Serif" font-size="10.00">/AliceO2Group/AliceO2</text>
<text text-anchor="start" x="1632.5" y="-403" font-family="Helvetica,sans-Serif" font-size="10.00">/Detectors/ITSMFT/ITS</text>
<text text-anchor="middle" x="1717" y="-392" font-family="Helvetica,sans-Serif" font-size="10.00">/reconstruction/src/TrivialClusterer.cxx</text>
</g>
<!-- Node2 -->
<g id="node2" class="node"><title>Node2</title>
<g id="a_node2"><a xlink:href="../../dd/d76/Cartesian3D_8h.html" target="_top" xlink:title="MathUtils/Cartesian3D.h">
<polygon fill="none" stroke="black" points="784.5,-136.5 784.5,-155.5 909.5,-155.5 909.5,-136.5 784.5,-136.5"/>
<text text-anchor="middle" x="847" y="-143.5" font-family="Helvetica,sans-Serif" font-size="10.00">MathUtils/Cartesian3D.h</text>
</a>
</g>
</g>
<!-- Node1&#45;&gt;Node2 -->
<g id="edge1" class="edge"><title>Node1&#45;&gt;Node2</title>
<path fill="none" stroke="midnightblue" d="M1624.3,-405.483C1469.27,-397.221 1164.26,-377.741 1061,-348 938.702,-312.777 872.476,-322.31 809,-212 799.245,-195.047 813.876,-175.705 827.718,-162.559"/>
<polygon fill="midnightblue" stroke="midnightblue" points="830.415,-164.846 835.587,-155.6 825.778,-159.603 830.415,-164.846"/>
</g>
<!-- Node14 -->
<g id="node14" class="node"><title>Node14</title>
<g id="a_node14"><a xlink:href="../../d0/d06/ITSMFT_2common_2base_2include_2ITSMFTBase_2Digit_8h.html" target="_top" xlink:title="ITSMFTBase/Digit.h">
<polygon fill="none" stroke="black" points="1622.5,-322.5 1622.5,-341.5 1729.5,-341.5 1729.5,-322.5 1622.5,-322.5"/>
<text text-anchor="middle" x="1676" y="-329.5" font-family="Helvetica,sans-Serif" font-size="10.00">ITSMFTBase/Digit.h</text>
</a>
</g>
</g>
<!-- Node1&#45;&gt;Node14 -->
<g id="edge13" class="edge"><title>Node1&#45;&gt;Node14</title>
<path fill="none" stroke="midnightblue" d="M1703.58,-384.787C1697.62,-373.603 1690.76,-360.713 1685.37,-350.591"/>
<polygon fill="midnightblue" stroke="midnightblue" points="1688.35,-348.739 1680.56,-341.558 1682.17,-352.029 1688.35,-348.739"/>
</g>
<!-- Node16 -->
<g id="node16" class="node"><title>Node16</title>
<g id="a_node16"><a xlink:href="../../d7/dcd/MCCompLabel_8h.html" target="_top" xlink:title="SimulationDataFormat\l/MCCompLabel.h">
<polygon fill="none" stroke="black" points="1786,-249 1786,-279 1900,-279 1900,-249 1786,-249"/>
<text text-anchor="start" x="1794" y="-267" font-family="Helvetica,sans-Serif" font-size="10.00">SimulationDataFormat</text>
<text text-anchor="middle" x="1843" y="-256" font-family="Helvetica,sans-Serif" font-size="10.00">/MCCompLabel.h</text>
</a>
</g>
</g>
<!-- Node1&#45;&gt;Node16 -->
<g id="edge51" class="edge"><title>Node1&#45;&gt;Node16</title>
<path fill="none" stroke="midnightblue" d="M1739.58,-384.752C1749.56,-373.537 1761.41,-360.151 1772,-348 1789.98,-327.357 1810.26,-303.599 1824.53,-286.805"/>
<polygon fill="midnightblue" stroke="midnightblue" points="1827.21,-289.054 1831.02,-279.165 1821.88,-284.524 1827.21,-289.054"/>
</g>
<!-- Node18 -->
<g id="node18" class="node"><title>Node18</title>
<g id="a_node18"><a xlink:href="../../d3/dba/SegmentationAlpide_8h.html" target="_top" xlink:title="Definition of the SegmentationAlpide class. ">
<polygon fill="none" stroke="black" points="1833.5,-136.5 1833.5,-155.5 2006.5,-155.5 2006.5,-136.5 1833.5,-136.5"/>
<text text-anchor="middle" x="1920" y="-143.5" font-family="Helvetica,sans-Serif" font-size="10.00">ITSMFTBase/SegmentationAlpide.h</text>
</a>
</g>
</g>
<!-- Node1&#45;&gt;Node18 -->
<g id="edge19" class="edge"><title>Node1&#45;&gt;Node18</title>
<path fill="none" stroke="midnightblue" d="M1780.15,-384.979C1824.23,-363.948 1880.15,-329.347 1909,-280 1930.08,-243.948 1926.93,-192.728 1923.22,-165.574"/>
<polygon fill="midnightblue" stroke="midnightblue" points="1926.65,-164.871 1921.66,-155.523 1919.73,-165.941 1926.65,-164.871"/>
</g>
<!-- Node19 -->
<g id="node19" class="node"><title>Node19</title>
<g id="a_node19"><a xlink:href="../../d1/d76/TrivialClusterer_8h.html" target="_top" xlink:title="Definition of the ITS cluster finder. ">
<polygon fill="none" stroke="black" points="1327,-317 1327,-347 1455,-347 1455,-317 1327,-317"/>
<text text-anchor="start" x="1335" y="-335" font-family="Helvetica,sans-Serif" font-size="10.00">ITSReconstruction/Trivial</text>
<text text-anchor="middle" x="1391" y="-324" font-family="Helvetica,sans-Serif" font-size="10.00">Clusterer.h</text>
</a>
</g>
</g>
<!-- Node1&#45;&gt;Node19 -->
<g id="edge21" class="edge"><title>Node1&#45;&gt;Node19</title>
<path fill="none" stroke="midnightblue" d="M1624.45,-388.141C1572.26,-375.813 1508.13,-360.665 1460.3,-349.368"/>
<polygon fill="midnightblue" stroke="midnightblue" points="1460.89,-345.911 1450.35,-347.018 1459.28,-352.723 1460.89,-345.911"/>
</g>
<!-- Node31 -->
<g id="node31" class="node"><title>Node31</title>
<polygon fill="none" stroke="#bfbfbf" points="1506.5,-136.5 1506.5,-155.5 1577.5,-155.5 1577.5,-136.5 1506.5,-136.5"/>
<text text-anchor="middle" x="1542" y="-143.5" font-family="Helvetica,sans-Serif" font-size="10.00">FairLogger.h</text>
</g>
<!-- Node1&#45;&gt;Node31 -->
<g id="edge57" class="edge"><title>Node1&#45;&gt;Node31</title>
<path fill="none" stroke="midnightblue" d="M1729.48,-384.913C1744.31,-351.207 1763.98,-290.618 1738,-248 1705.42,-194.559 1634.5,-168.183 1587.51,-156.098"/>
<polygon fill="midnightblue" stroke="midnightblue" points="1588.13,-152.645 1577.58,-153.664 1586.46,-159.444 1588.13,-152.645"/>
</g>
<!-- Node34 -->
<g id="node34" class="node"><title>Node34</title>
<g id="a_node34"><a xlink:href="../../dc/de1/ITSMFT_2common_2reconstruction_2include_2ITSMFTReconstruction_2Cluster_8h.html" target="_top" xlink:title="ITSMFTReconstruction\l/Cluster.h">
<polygon fill="none" stroke="black" points="1069.5,-317 1069.5,-347 1188.5,-347 1188.5,-317 1069.5,-317"/>
<text text-anchor="start" x="1077.5" y="-335" font-family="Helvetica,sans-Serif" font-size="10.00">ITSMFTReconstruction</text>
<text text-anchor="middle" x="1129" y="-324" font-family="Helvetica,sans-Serif" font-size="10.00">/Cluster.h</text>
</a>
</g>
</g>
<!-- Node1&#45;&gt;Node34 -->
<g id="edge42" class="edge"><title>Node1&#45;&gt;Node34</title>
<path fill="none" stroke="midnightblue" d="M1624.48,-397.884C1506.36,-382.416 1304.64,-356.001 1198.69,-342.127"/>
<polygon fill="midnightblue" stroke="midnightblue" points="1199.12,-338.652 1188.75,-340.824 1198.21,-345.593 1199.12,-338.652"/>
</g>
<!-- Node40 -->
<g id="node40" class="node"><title>Node40</title>
<g id="a_node40"><a xlink:href="../../db/d14/MCTruthContainer_8h.html" target="_top" xlink:title="Definition of a container to keep Monte Carlo truth external to simulation objects. ">
<polygon fill="none" stroke="black" points="1989,-317 1989,-347 2103,-347 2103,-317 1989,-317"/>
<text text-anchor="start" x="1997" y="-335" font-family="Helvetica,sans-Serif" font-size="10.00">SimulationDataFormat</text>
<text text-anchor="middle" x="2046" y="-324" font-family="Helvetica,sans-Serif" font-size="10.00">/MCTruthContainer.h</text>
</a>
</g>
</g>
<!-- Node1&#45;&gt;Node40 -->
<g id="edge52" class="edge"><title>Node1&#45;&gt;Node40</title>
<path fill="none" stroke="midnightblue" d="M1809.52,-388.346C1863.4,-375.737 1930.1,-360.125 1978.92,-348.7"/>
<polygon fill="midnightblue" stroke="midnightblue" points="1979.8,-352.087 1988.74,-346.4 1978.21,-345.271 1979.8,-352.087"/>
</g>
<!-- Node3 -->
<g id="node3" class="node"><title>Node3</title>
<polygon fill="none" stroke="#bfbfbf" points="1025.5,-74.5 1025.5,-93.5 1174.5,-93.5 1174.5,-74.5 1025.5,-74.5"/>
<text text-anchor="middle" x="1100" y="-81.5" font-family="Helvetica,sans-Serif" font-size="10.00">Math/GenVector/Rotation3D.h</text>
</g>
<!-- Node2&#45;&gt;Node3 -->
<g id="edge2" class="edge"><title>Node2&#45;&gt;Node3</title>
<path fill="none" stroke="midnightblue" d="M882.98,-136.467C928.034,-125.783 1005.26,-107.469 1054.41,-95.8129"/>
<polygon fill="midnightblue" stroke="midnightblue" points="1055.22,-99.2165 1064.14,-93.5034 1053.61,-92.4055 1055.22,-99.2165"/>
</g>
<!-- Node4 -->
<g id="node4" class="node"><title>Node4</title>
<polygon fill="none" stroke="#bfbfbf" points="72,-74.5 72,-93.5 228,-93.5 228,-74.5 72,-74.5"/>
<text text-anchor="middle" x="150" y="-81.5" font-family="Helvetica,sans-Serif" font-size="10.00">Math/GenVector/Transform3D.h</text>
</g>
<!-- Node2&#45;&gt;Node4 -->
<g id="edge3" class="edge"><title>Node2&#45;&gt;Node4</title>
<path fill="none" stroke="midnightblue" d="M784.412,-137.425C779.538,-136.915 774.691,-136.432 770,-136 533.573,-114.212 472.747,-128.208 237,-100 226.39,-98.7305 215.106,-97.0399 204.303,-95.2518"/>
<polygon fill="midnightblue" stroke="midnightblue" points="204.576,-91.7479 194.13,-93.518 203.399,-98.6484 204.576,-91.7479"/>
</g>
<!-- Node5 -->
<g id="node5" class="node"><title>Node5</title>
<polygon fill="none" stroke="#bfbfbf" points="847,-74.5 847,-93.5 1007,-93.5 1007,-74.5 847,-74.5"/>
<text text-anchor="middle" x="927" y="-81.5" font-family="Helvetica,sans-Serif" font-size="10.00">Math/GenVector/Translation3D.h</text>
</g>
<!-- Node2&#45;&gt;Node5 -->
<g id="edge4" class="edge"><title>Node2&#45;&gt;Node5</title>
<path fill="none" stroke="midnightblue" d="M858.462,-136.403C871.175,-126.869 891.913,-111.315 907.253,-99.8106"/>
<polygon fill="midnightblue" stroke="midnightblue" points="909.659,-102.381 915.559,-93.5806 905.459,-96.7806 909.659,-102.381"/>
</g>
<!-- Node6 -->
<g id="node6" class="node"><title>Node6</title>
<polygon fill="none" stroke="#bfbfbf" points="1544,-74.5 1544,-93.5 1600,-93.5 1600,-74.5 1544,-74.5"/>
<text text-anchor="middle" x="1572" y="-81.5" font-family="Helvetica,sans-Serif" font-size="10.00">Rtypes.h</text>
</g>
<!-- Node2&#45;&gt;Node6 -->
<g id="edge5" class="edge"><title>Node2&#45;&gt;Node6</title>
<path fill="none" stroke="midnightblue" d="M909.541,-143.381C1055.68,-139.198 1416.06,-126.458 1534,-100 1537.43,-99.2315 1540.95,-98.1994 1544.4,-97.0343"/>
<polygon fill="midnightblue" stroke="midnightblue" points="1545.67,-100.295 1553.81,-93.5073 1543.22,-93.7399 1545.67,-100.295"/>
</g>
<!-- Node7 -->
<g id="node7" class="node"><title>Node7</title>
<polygon fill="none" stroke="#bfbfbf" points="246,-74.5 246,-93.5 322,-93.5 322,-74.5 246,-74.5"/>
<text text-anchor="middle" x="284" y="-81.5" font-family="Helvetica,sans-Serif" font-size="10.00">TGeoMatrix.h</text>
</g>
<!-- Node2&#45;&gt;Node7 -->
<g id="edge6" class="edge"><title>Node2&#45;&gt;Node7</title>
<path fill="none" stroke="midnightblue" d="M784.405,-137.501C779.533,-136.973 774.688,-136.466 770,-136 575.194,-116.634 523.042,-138.005 331,-100 326.434,-99.0964 321.688,-97.9004 317.046,-96.577"/>
<polygon fill="midnightblue" stroke="midnightblue" points="317.741,-93.1295 307.155,-93.5402 315.687,-99.8212 317.741,-93.1295"/>
</g>
<!-- Node8 -->
<g id="node8" class="node"><title>Node8</title>
<polygon fill="none" stroke="#bfbfbf" points="340.5,-69 340.5,-99 491.5,-99 491.5,-69 340.5,-69"/>
<text text-anchor="start" x="348.5" y="-87" font-family="Helvetica,sans-Serif" font-size="10.00">Math/GenVector/Displacement</text>
<text text-anchor="middle" x="416" y="-76" font-family="Helvetica,sans-Serif" font-size="10.00">Vector3D.h</text>
</g>
<!-- Node2&#45;&gt;Node8 -->
<g id="edge7" class="edge"><title>Node2&#45;&gt;Node8</title>
<path fill="none" stroke="midnightblue" d="M784.374,-137.721C717.143,-129.712 606.951,-116.023 501.684,-100.061"/>
<polygon fill="midnightblue" stroke="midnightblue" points="501.928,-96.5576 491.514,-98.5092 500.872,-103.478 501.928,-96.5576"/>
</g>
<!-- Node9 -->
<g id="node9" class="node"><title>Node9</title>
<polygon fill="none" stroke="#bfbfbf" points="510,-74.5 510,-93.5 686,-93.5 686,-74.5 510,-74.5"/>
<text text-anchor="middle" x="598" y="-81.5" font-family="Helvetica,sans-Serif" font-size="10.00">Math/GenVector/PositionVector3D.h</text>
</g>
<!-- Node2&#45;&gt;Node9 -->
<g id="edge8" class="edge"><title>Node2&#45;&gt;Node9</title>
<path fill="none" stroke="midnightblue" d="M811.589,-136.467C767.34,-125.805 691.562,-107.545 643.177,-95.886"/>
<polygon fill="midnightblue" stroke="midnightblue" points="643.831,-92.4434 633.289,-93.5034 642.191,-99.2487 643.831,-92.4434"/>
</g>
<!-- Node10 -->
<g id="node10" class="node"><title>Node10</title>
<g id="a_node10"><a xlink:href="../../d2/dd0/Cartesian2D_8h.html" target="_top" xlink:title="MathUtils/Cartesian2D.h">
<polygon fill="none" stroke="black" points="703.5,-74.5 703.5,-93.5 828.5,-93.5 828.5,-74.5 703.5,-74.5"/>
<text text-anchor="middle" x="766" y="-81.5" font-family="Helvetica,sans-Serif" font-size="10.00">MathUtils/Cartesian2D.h</text>
</a>
</g>
</g>
<!-- Node2&#45;&gt;Node10 -->
<g id="edge9" class="edge"><title>Node2&#45;&gt;Node10</title>
<path fill="none" stroke="midnightblue" d="M835.395,-136.403C822.523,-126.869 801.526,-111.315 785.994,-99.8106"/>
<polygon fill="midnightblue" stroke="midnightblue" points="787.703,-96.7204 777.584,-93.5806 783.536,-102.345 787.703,-96.7204"/>
</g>
<!-- Node13 -->
<g id="node13" class="node"><title>Node13</title>
<polygon fill="none" stroke="#bfbfbf" points="0,-74.5 0,-93.5 54,-93.5 54,-74.5 0,-74.5"/>
<text text-anchor="middle" x="27" y="-81.5" font-family="Helvetica,sans-Serif" font-size="10.00">iostream</text>
</g>
<!-- Node2&#45;&gt;Node13 -->
<g id="edge12" class="edge"><title>Node2&#45;&gt;Node13</title>
<path fill="none" stroke="midnightblue" d="M784.419,-137.338C779.544,-136.848 774.694,-136.393 770,-136 456.47,-109.723 369.85,-169.531 63,-100 59.9294,-99.3042 56.7865,-98.3663 53.699,-97.2972"/>
<polygon fill="midnightblue" stroke="midnightblue" points="54.7683,-93.9572 44.1805,-93.5706 52.2163,-100.475 54.7683,-93.9572"/>
</g>
<!-- Node11 -->
<g id="node11" class="node"><title>Node11</title>
<polygon fill="none" stroke="#bfbfbf" points="781.5,-1 781.5,-31 932.5,-31 932.5,-1 781.5,-1"/>
<text text-anchor="start" x="789.5" y="-19" font-family="Helvetica,sans-Serif" font-size="10.00">Math/GenVector/Displacement</text>
<text text-anchor="middle" x="857" y="-8" font-family="Helvetica,sans-Serif" font-size="10.00">Vector2D.h</text>
</g>
<!-- Node10&#45;&gt;Node11 -->
<g id="edge10" class="edge"><title>Node10&#45;&gt;Node11</title>
<path fill="none" stroke="midnightblue" d="M777.897,-74.3717C790.779,-65.0286 811.78,-49.7966 828.907,-37.375"/>
<polygon fill="midnightblue" stroke="midnightblue" points="831.407,-39.8859 837.447,-31.1815 827.297,-34.2194 831.407,-39.8859"/>
</g>
<!-- Node12 -->
<g id="node12" class="node"><title>Node12</title>
<polygon fill="none" stroke="#bfbfbf" points="587,-6.5 587,-25.5 763,-25.5 763,-6.5 587,-6.5"/>
<text text-anchor="middle" x="675" y="-13.5" font-family="Helvetica,sans-Serif" font-size="10.00">Math/GenVector/PositionVector2D.h</text>
</g>
<!-- Node10&#45;&gt;Node12 -->
<g id="edge11" class="edge"><title>Node10&#45;&gt;Node12</title>
<path fill="none" stroke="midnightblue" d="M754.103,-74.3717C739.116,-63.5015 713.138,-44.6602 695.058,-31.5474"/>
<polygon fill="midnightblue" stroke="midnightblue" points="697.05,-28.6684 686.9,-25.6305 692.94,-34.3349 697.05,-28.6684"/>
</g>
<!-- Node14&#45;&gt;Node6 -->
<g id="edge18" class="edge"><title>Node14&#45;&gt;Node6</title>
<path fill="none" stroke="midnightblue" d="M1664.78,-322.461C1653.39,-313.204 1636.03,-297.404 1626,-280 1625.43,-279.014 1590.36,-151.7 1577.05,-103.345"/>
<polygon fill="midnightblue" stroke="midnightblue" points="1580.39,-102.292 1574.36,-93.5791 1573.64,-104.149 1580.39,-102.292"/>
</g>
<!-- Node15 -->
<g id="node15" class="node"><title>Node15</title>
<polygon fill="none" stroke="#bfbfbf" points="1634.5,-249 1634.5,-279 1729.5,-279 1729.5,-249 1634.5,-249"/>
<text text-anchor="start" x="1642.5" y="-267" font-family="Helvetica,sans-Serif" font-size="10.00">boost/serialization</text>
<text text-anchor="middle" x="1682" y="-256" font-family="Helvetica,sans-Serif" font-size="10.00">/base_object.hpp</text>
</g>
<!-- Node14&#45;&gt;Node15 -->
<g id="edge14" class="edge"><title>Node14&#45;&gt;Node15</title>
<path fill="none" stroke="midnightblue" d="M1676.78,-322.372C1677.55,-313.971 1678.74,-300.811 1679.8,-289.213"/>
<polygon fill="midnightblue" stroke="midnightblue" points="1683.29,-289.457 1680.71,-279.181 1676.32,-288.823 1683.29,-289.457"/>
</g>
<!-- Node14&#45;&gt;Node16 -->
<g id="edge15" class="edge"><title>Node14&#45;&gt;Node16</title>
<path fill="none" stroke="midnightblue" d="M1697.83,-322.372C1723.07,-312.397 1765.29,-295.71 1797.72,-282.897"/>
<polygon fill="midnightblue" stroke="midnightblue" points="1799.42,-285.987 1807.43,-279.056 1796.85,-279.477 1799.42,-285.987"/>
</g>
<!-- Node17 -->
<g id="node17" class="node"><title>Node17</title>
<polygon fill="none" stroke="#bfbfbf" points="1486,-254.5 1486,-273.5 1578,-273.5 1578,-254.5 1486,-254.5"/>
<text text-anchor="middle" x="1532" y="-261.5" font-family="Helvetica,sans-Serif" font-size="10.00">FairTimeStamp.h</text>
</g>
<!-- Node14&#45;&gt;Node17 -->
<g id="edge17" class="edge"><title>Node14&#45;&gt;Node17</title>
<path fill="none" stroke="midnightblue" d="M1657.17,-322.372C1632.49,-311.057 1588.96,-291.105 1560.29,-277.968"/>
<polygon fill="midnightblue" stroke="midnightblue" points="1561.38,-274.615 1550.83,-273.63 1558.46,-280.979 1561.38,-274.615"/>
</g>
<!-- Node16&#45;&gt;Node6 -->
<g id="edge16" class="edge"><title>Node16&#45;&gt;Node6</title>
<path fill="none" stroke="midnightblue" d="M1831.22,-248.961C1817.92,-233.679 1795.1,-209.139 1772,-192 1716.2,-150.597 1642.3,-115.435 1601.77,-97.5809"/>
<polygon fill="midnightblue" stroke="midnightblue" points="1603.02,-94.3071 1592.45,-93.5237 1600.22,-100.725 1603.02,-94.3071"/>
</g>
<!-- Node18&#45;&gt;Node6 -->
<g id="edge20" class="edge"><title>Node18&#45;&gt;Node6</title>
<path fill="none" stroke="midnightblue" d="M1870.51,-136.467C1800.3,-124.362 1673.28,-102.462 1609.99,-91.5493"/>
<polygon fill="midnightblue" stroke="midnightblue" points="1610.48,-88.0825 1600.03,-89.8324 1609.29,-94.9807 1610.48,-88.0825"/>
</g>
<!-- Node19&#45;&gt;Node6 -->
<g id="edge22" class="edge"><title>Node19&#45;&gt;Node6</title>
<path fill="none" stroke="midnightblue" d="M1350.03,-316.879C1333.27,-308.842 1315.58,-296.922 1306,-280 1298.99,-267.624 1299.4,-260.596 1306,-248 1316.16,-228.62 1368.33,-203.419 1387,-192 1415.84,-174.361 1424.62,-172.719 1454,-156 1487.75,-136.792 1526.18,-113.374 1549.76,-98.822"/>
<polygon fill="midnightblue" stroke="midnightblue" points="1551.66,-101.764 1558.32,-93.5263 1547.98,-95.8112 1551.66,-101.764"/>
</g>
<!-- Node20 -->
<g id="node20" class="node"><title>Node20</title>
<g id="a_node20"><a xlink:href="../../d0/d2d/common_2base_2include_2ITSMFTBase_2GeometryTGeo_8h.html" target="_top" xlink:title="ITSMFTBase/GeometryTGeo.h">
<polygon fill="none" stroke="black" points="1314.5,-254.5 1314.5,-273.5 1467.5,-273.5 1467.5,-254.5 1314.5,-254.5"/>
<text text-anchor="middle" x="1391" y="-261.5" font-family="Helvetica,sans-Serif" font-size="10.00">ITSMFTBase/GeometryTGeo.h</text>
</a>
</g>
</g>
<!-- Node19&#45;&gt;Node20 -->
<g id="edge23" class="edge"><title>Node19&#45;&gt;Node20</title>
<path fill="none" stroke="midnightblue" d="M1391,-316.679C1391,-307.101 1391,-294.394 1391,-283.977"/>
<polygon fill="midnightblue" stroke="midnightblue" points="1394.5,-283.828 1391,-273.828 1387.5,-283.828 1394.5,-283.828"/>
</g>
<!-- Node21 -->
<g id="node21" class="node"><title>Node21</title>
<g id="a_node21"><a xlink:href="../../d4/d20/DetMatrixCache_8h.html" target="_top" xlink:title="DetectorsBase/DetMatrixCache.h">
<polygon fill="none" stroke="black" points="1175,-192.5 1175,-211.5 1339,-211.5 1339,-192.5 1175,-192.5"/>
<text text-anchor="middle" x="1257" y="-199.5" font-family="Helvetica,sans-Serif" font-size="10.00">DetectorsBase/DetMatrixCache.h</text>
</a>
</g>
</g>
<!-- Node20&#45;&gt;Node21 -->
<g id="edge24" class="edge"><title>Node20&#45;&gt;Node21</title>
<path fill="none" stroke="midnightblue" d="M1371.8,-254.403C1349.21,-244.29 1311.5,-227.404 1285.5,-215.761"/>
<polygon fill="midnightblue" stroke="midnightblue" points="1286.72,-212.473 1276.16,-211.581 1283.86,-218.862 1286.72,-212.473"/>
</g>
<!-- Node32 -->
<g id="node32" class="node"><title>Node32</title>
<polygon fill="none" stroke="#bfbfbf" points="1395.5,-192.5 1395.5,-211.5 1464.5,-211.5 1464.5,-192.5 1395.5,-192.5"/>
<text text-anchor="middle" x="1430" y="-199.5" font-family="Helvetica,sans-Serif" font-size="10.00">TObjArray.h</text>
</g>
<!-- Node20&#45;&gt;Node32 -->
<g id="edge40" class="edge"><title>Node20&#45;&gt;Node32</title>
<path fill="none" stroke="midnightblue" d="M1396.59,-254.403C1402.38,-245.493 1411.59,-231.325 1418.87,-220.118"/>
<polygon fill="midnightblue" stroke="midnightblue" points="1421.91,-221.873 1424.42,-211.581 1416.04,-218.058 1421.91,-221.873"/>
</g>
<!-- Node33 -->
<g id="node33" class="node"><title>Node33</title>
<polygon fill="none" stroke="#bfbfbf" points="1482.5,-192.5 1482.5,-211.5 1523.5,-211.5 1523.5,-192.5 1482.5,-192.5"/>
<text text-anchor="middle" x="1503" y="-199.5" font-family="Helvetica,sans-Serif" font-size="10.00">string</text>
</g>
<!-- Node20&#45;&gt;Node33 -->
<g id="edge41" class="edge"><title>Node20&#45;&gt;Node33</title>
<path fill="none" stroke="midnightblue" d="M1407.05,-254.403C1425.59,-244.468 1456.34,-227.997 1478.02,-216.381"/>
<polygon fill="midnightblue" stroke="midnightblue" points="1479.82,-219.388 1486.98,-211.581 1476.52,-213.218 1479.82,-219.388"/>
</g>
<!-- Node21&#45;&gt;Node2 -->
<g id="edge27" class="edge"><title>Node21&#45;&gt;Node2</title>
<path fill="none" stroke="midnightblue" d="M1192.03,-192.444C1117.91,-182.681 997.007,-166.757 919.775,-156.585"/>
<polygon fill="midnightblue" stroke="midnightblue" points="920.016,-153.087 909.645,-155.251 919.102,-160.027 920.016,-153.087"/>
</g>
<!-- Node21&#45;&gt;Node6 -->
<g id="edge38" class="edge"><title>Node21&#45;&gt;Node6</title>
<path fill="none" stroke="midnightblue" d="M1294.79,-192.474C1328.19,-184.49 1377.99,-171.485 1420,-156 1426.31,-153.675 1502.57,-117.778 1544.61,-97.9395"/>
<polygon fill="midnightblue" stroke="midnightblue" points="1546.21,-101.053 1553.76,-93.6195 1543.22,-94.7233 1546.21,-101.053"/>
</g>
<!-- Node22 -->
<g id="node22" class="node"><title>Node22</title>
<polygon fill="none" stroke="#bfbfbf" points="1368,-136.5 1368,-155.5 1412,-155.5 1412,-136.5 1368,-136.5"/>
<text text-anchor="middle" x="1390" y="-143.5" font-family="Helvetica,sans-Serif" font-size="10.00">vector</text>
</g>
<!-- Node21&#45;&gt;Node22 -->
<g id="edge25" class="edge"><title>Node21&#45;&gt;Node22</title>
<path fill="none" stroke="midnightblue" d="M1278.07,-192.444C1300.06,-183.517 1334.73,-169.439 1359.66,-159.317"/>
<polygon fill="midnightblue" stroke="midnightblue" points="1361.08,-162.521 1369.02,-155.516 1358.44,-156.035 1361.08,-162.521"/>
</g>
<!-- Node23 -->
<g id="node23" class="node"><title>Node23</title>
<polygon fill="none" stroke="#bfbfbf" points="1221,-6.5 1221,-25.5 1259,-25.5 1259,-6.5 1221,-6.5"/>
<text text-anchor="middle" x="1240" y="-13.5" font-family="Helvetica,sans-Serif" font-size="10.00">array</text>
</g>
<!-- Node21&#45;&gt;Node23 -->
<g id="edge26" class="edge"><title>Node21&#45;&gt;Node23</title>
<path fill="none" stroke="midnightblue" d="M1247.44,-192.45C1238.91,-184.12 1227.01,-170.604 1222,-156 1207.71,-114.346 1222.62,-62.1185 1232.59,-35.0844"/>
<polygon fill="midnightblue" stroke="midnightblue" points="1235.86,-36.3229 1236.21,-25.734 1229.33,-33.7908 1235.86,-36.3229"/>
</g>
<!-- Node24 -->
<g id="node24" class="node"><title>Node24</title>
<g id="a_node24"><a xlink:href="../../d6/d31/DetID_8h.html" target="_top" xlink:title="DetectorsBase/DetID.h">
<polygon fill="none" stroke="black" points="1230.5,-136.5 1230.5,-155.5 1349.5,-155.5 1349.5,-136.5 1230.5,-136.5"/>
<text text-anchor="middle" x="1290" y="-143.5" font-family="Helvetica,sans-Serif" font-size="10.00">DetectorsBase/DetID.h</text>
</a>
</g>
</g>
<!-- Node21&#45;&gt;Node24 -->
<g id="edge28" class="edge"><title>Node21&#45;&gt;Node24</title>
<path fill="none" stroke="midnightblue" d="M1262.45,-192.083C1267.01,-184.613 1273.67,-173.724 1279.29,-164.52"/>
<polygon fill="midnightblue" stroke="midnightblue" points="1282.42,-166.109 1284.65,-155.751 1276.45,-162.459 1282.42,-166.109"/>
</g>
<!-- Node21&#45;&gt;Node31 -->
<g id="edge39" class="edge"><title>Node21&#45;&gt;Node31</title>
<path fill="none" stroke="midnightblue" d="M1302.16,-192.444C1355.24,-182.386 1442.85,-165.787 1496.2,-155.677"/>
<polygon fill="midnightblue" stroke="midnightblue" points="1496.9,-159.107 1506.08,-153.807 1495.6,-152.23 1496.9,-159.107"/>
</g>
<!-- Node24&#45;&gt;Node6 -->
<g id="edge32" class="edge"><title>Node24&#45;&gt;Node6</title>
<path fill="none" stroke="midnightblue" d="M1349.66,-137.293C1399.52,-130.07 1472.2,-117.716 1534,-100 1536.97,-99.148 1540.03,-98.1512 1543.07,-97.0836"/>
<polygon fill="midnightblue" stroke="midnightblue" points="1544.4,-100.322 1552.53,-93.5229 1541.94,-93.7704 1544.4,-100.322"/>
</g>
<!-- Node24&#45;&gt;Node23 -->
<g id="edge30" class="edge"><title>Node24&#45;&gt;Node23</title>
<path fill="none" stroke="midnightblue" d="M1282.79,-136.241C1275.98,-127.548 1265.94,-113.593 1260,-100 1250.83,-79.0351 1245.45,-53.1727 1242.62,-35.9432"/>
<polygon fill="midnightblue" stroke="midnightblue" points="1246.01,-34.9267 1241.05,-25.5606 1239.08,-35.9708 1246.01,-34.9267"/>
</g>
<!-- Node25 -->
<g id="node25" class="node"><title>Node25</title>
<polygon fill="none" stroke="#bfbfbf" points="1400,-74.5 1400,-93.5 1446,-93.5 1446,-74.5 1400,-74.5"/>
<text text-anchor="middle" x="1423" y="-81.5" font-family="Helvetica,sans-Serif" font-size="10.00">cstdint</text>
</g>
<!-- Node24&#45;&gt;Node25 -->
<g id="edge29" class="edge"><title>Node24&#45;&gt;Node25</title>
<path fill="none" stroke="midnightblue" d="M1309.18,-136.395C1329.32,-127.354 1361.9,-112.709 1390,-100 1391.58,-99.2868 1393.2,-98.5538 1394.83,-97.8134"/>
<polygon fill="midnightblue" stroke="midnightblue" points="1396.5,-100.899 1404.16,-93.5792 1393.61,-94.5251 1396.5,-100.899"/>
</g>
<!-- Node26 -->
<g id="node26" class="node"><title>Node26</title>
<polygon fill="none" stroke="#bfbfbf" points="1464,-74.5 1464,-93.5 1526,-93.5 1526,-74.5 1464,-74.5"/>
<text text-anchor="middle" x="1495" y="-81.5" font-family="Helvetica,sans-Serif" font-size="10.00">type_traits</text>
</g>
<!-- Node24&#45;&gt;Node26 -->
<g id="edge31" class="edge"><title>Node24&#45;&gt;Node26</title>
<path fill="none" stroke="midnightblue" d="M1325.04,-136.446C1358.63,-128.01 1410.64,-114.332 1455,-100 1457.78,-99.1022 1460.65,-98.1256 1463.52,-97.1159"/>
<polygon fill="midnightblue" stroke="midnightblue" points="1464.92,-100.329 1473.12,-93.6209 1462.53,-93.7514 1464.92,-100.329"/>
</g>
<!-- Node27 -->
<g id="node27" class="node"><title>Node27</title>
<g id="a_node27"><a xlink:href="../../d9/ded/Utils_8h.html" target="_top" xlink:title="DetectorsBase/Utils.h">
<polygon fill="none" stroke="black" points="1268.5,-74.5 1268.5,-93.5 1381.5,-93.5 1381.5,-74.5 1268.5,-74.5"/>
<text text-anchor="middle" x="1325" y="-81.5" font-family="Helvetica,sans-Serif" font-size="10.00">DetectorsBase/Utils.h</text>
</a>
</g>
</g>
<!-- Node24&#45;&gt;Node27 -->
<g id="edge33" class="edge"><title>Node24&#45;&gt;Node27</title>
<path fill="none" stroke="midnightblue" d="M1295.01,-136.403C1300.16,-127.582 1308.31,-113.608 1314.82,-102.455"/>
<polygon fill="midnightblue" stroke="midnightblue" points="1317.98,-103.982 1319.99,-93.5806 1311.93,-100.455 1317.98,-103.982"/>
</g>
<!-- Node30 -->
<g id="node30" class="node"><title>Node30</title>
<polygon fill="none" stroke="#bfbfbf" points="1820.5,-74.5 1820.5,-93.5 1869.5,-93.5 1869.5,-74.5 1820.5,-74.5"/>
<text text-anchor="middle" x="1845" y="-81.5" font-family="Helvetica,sans-Serif" font-size="10.00">cassert</text>
</g>
<!-- Node24&#45;&gt;Node30 -->
<g id="edge37" class="edge"><title>Node24&#45;&gt;Node30</title>
<path fill="none" stroke="midnightblue" d="M1349.83,-137.103C1352.93,-136.723 1356,-136.353 1359,-136 1528.14,-116.098 1730.84,-96.0498 1810.48,-88.3214"/>
<polygon fill="midnightblue" stroke="midnightblue" points="1810.83,-91.8038 1820.45,-87.3561 1810.16,-84.8364 1810.83,-91.8038"/>
</g>
<!-- Node27&#45;&gt;Node23 -->
<g id="edge36" class="edge"><title>Node27&#45;&gt;Node23</title>
<path fill="none" stroke="midnightblue" d="M1313.89,-74.3717C1300.02,-63.6004 1276.06,-45.0021 1259.2,-31.9065"/>
<polygon fill="midnightblue" stroke="midnightblue" points="1261.16,-28.999 1251.11,-25.6305 1256.87,-34.528 1261.16,-28.999"/>
</g>
<!-- Node28 -->
<g id="node28" class="node"><title>Node28</title>
<g id="a_node28"><a xlink:href="../../d1/daa/Base_2include_2DetectorsBase_2Constants_8h.html" target="_top" xlink:title="DetectorsBase/Constants.h">
<polygon fill="none" stroke="black" points="1352,-6.5 1352,-25.5 1490,-25.5 1490,-6.5 1352,-6.5"/>
<text text-anchor="middle" x="1421" y="-13.5" font-family="Helvetica,sans-Serif" font-size="10.00">DetectorsBase/Constants.h</text>
</a>
</g>
</g>
<!-- Node27&#45;&gt;Node28 -->
<g id="edge34" class="edge"><title>Node27&#45;&gt;Node28</title>
<path fill="none" stroke="midnightblue" d="M1337.55,-74.3717C1353.43,-63.4521 1381.02,-44.4888 1400.1,-31.369"/>
<polygon fill="midnightblue" stroke="midnightblue" points="1402.19,-34.1799 1408.45,-25.6305 1398.22,-28.4116 1402.19,-34.1799"/>
</g>
<!-- Node29 -->
<g id="node29" class="node"><title>Node29</title>
<polygon fill="none" stroke="#bfbfbf" points="1290,-6.5 1290,-25.5 1334,-25.5 1334,-6.5 1290,-6.5"/>
<text text-anchor="middle" x="1312" y="-13.5" font-family="Helvetica,sans-Serif" font-size="10.00">cmath</text>
</g>
<!-- Node27&#45;&gt;Node29 -->
<g id="edge35" class="edge"><title>Node27&#45;&gt;Node29</title>
<path fill="none" stroke="midnightblue" d="M1323.3,-74.3717C1321.38,-64.6426 1318.21,-48.528 1315.71,-35.8504"/>
<polygon fill="midnightblue" stroke="midnightblue" points="1319.11,-34.9762 1313.74,-25.8411 1312.24,-36.329 1319.11,-34.9762"/>
</g>
<!-- Node35 -->
<g id="node35" class="node"><title>Node35</title>
<g id="a_node35"><a xlink:href="../../d4/de2/BaseCluster_8h.html" target="_top" xlink:title="DetectorsBase/BaseCluster.h">
<polygon fill="none" stroke="black" points="935.5,-254.5 935.5,-273.5 1082.5,-273.5 1082.5,-254.5 935.5,-254.5"/>
<text text-anchor="middle" x="1009" y="-261.5" font-family="Helvetica,sans-Serif" font-size="10.00">DetectorsBase/BaseCluster.h</text>
</a>
</g>
</g>
<!-- Node34&#45;&gt;Node35 -->
<g id="edge43" class="edge"><title>Node34&#45;&gt;Node35</title>
<path fill="none" stroke="midnightblue" d="M1103.26,-316.841C1082.69,-305.528 1054.04,-289.771 1033.74,-278.605"/>
<polygon fill="midnightblue" stroke="midnightblue" points="1035.23,-275.434 1024.79,-273.682 1031.86,-281.568 1035.23,-275.434"/>
</g>
<!-- Node35&#45;&gt;Node2 -->
<g id="edge49" class="edge"><title>Node35&#45;&gt;Node2</title>
<path fill="none" stroke="midnightblue" d="M1023.23,-254.491C1044.1,-240.957 1078.72,-213.829 1061,-192 1043.29,-170.181 974.504,-158.548 919.633,-152.618"/>
<polygon fill="midnightblue" stroke="midnightblue" points="919.872,-149.124 909.565,-151.576 919.151,-156.087 919.872,-149.124"/>
</g>
<!-- Node35&#45;&gt;Node13 -->
<g id="edge48" class="edge"><title>Node35&#45;&gt;Node13</title>
<path fill="none" stroke="midnightblue" d="M935.344,-255.991C774.472,-239.456 380.68,-192.283 63,-100 60.3484,-99.2297 57.628,-98.3242 54.9281,-97.3461"/>
<polygon fill="midnightblue" stroke="midnightblue" points="55.9857,-94.0011 45.3985,-93.5974 53.4232,-100.515 55.9857,-94.0011"/>
</g>
<!-- Node35&#45;&gt;Node21 -->
<g id="edge50" class="edge"><title>Node35&#45;&gt;Node21</title>
<path fill="none" stroke="midnightblue" d="M1044.27,-254.467C1088.34,-243.805 1163.81,-225.545 1212,-213.886"/>
<polygon fill="midnightblue" stroke="midnightblue" points="1212.96,-217.257 1221.85,-211.503 1211.31,-210.453 1212.96,-217.257"/>
</g>
<!-- Node36 -->
<g id="node36" class="node"><title>Node36</title>
<polygon fill="none" stroke="#bfbfbf" points="818.5,-192.5 818.5,-211.5 877.5,-211.5 877.5,-192.5 818.5,-192.5"/>
<text text-anchor="middle" x="848" y="-199.5" font-family="Helvetica,sans-Serif" font-size="10.00">TObject.h</text>
</g>
<!-- Node35&#45;&gt;Node36 -->
<g id="edge44" class="edge"><title>Node35&#45;&gt;Node36</title>
<path fill="none" stroke="midnightblue" d="M985.933,-254.403C958.315,-244.111 911.88,-226.806 880.604,-215.15"/>
<polygon fill="midnightblue" stroke="midnightblue" points="881.617,-211.793 871.025,-211.581 879.173,-218.352 881.617,-211.793"/>
</g>
<!-- Node37 -->
<g id="node37" class="node"><title>Node37</title>
<polygon fill="none" stroke="#bfbfbf" points="895.5,-192.5 895.5,-211.5 936.5,-211.5 936.5,-192.5 895.5,-192.5"/>
<text text-anchor="middle" x="916" y="-199.5" font-family="Helvetica,sans-Serif" font-size="10.00">bitset</text>
</g>
<!-- Node35&#45;&gt;Node37 -->
<g id="edge45" class="edge"><title>Node35&#45;&gt;Node37</title>
<path fill="none" stroke="midnightblue" d="M995.675,-254.403C980.62,-244.691 955.884,-228.732 937.963,-217.17"/>
<polygon fill="midnightblue" stroke="midnightblue" points="939.6,-214.061 929.3,-211.581 935.805,-219.943 939.6,-214.061"/>
</g>
<!-- Node38 -->
<g id="node38" class="node"><title>Node38</title>
<polygon fill="none" stroke="#bfbfbf" points="955,-192.5 955,-211.5 1005,-211.5 1005,-192.5 955,-192.5"/>
<text text-anchor="middle" x="980" y="-199.5" font-family="Helvetica,sans-Serif" font-size="10.00">iomanip</text>
</g>
<!-- Node35&#45;&gt;Node38 -->
<g id="edge46" class="edge"><title>Node35&#45;&gt;Node38</title>
<path fill="none" stroke="midnightblue" d="M1004.85,-254.403C1000.62,-245.671 993.963,-231.889 988.6,-220.794"/>
<polygon fill="midnightblue" stroke="midnightblue" points="991.65,-219.061 984.147,-211.581 985.348,-222.107 991.65,-219.061"/>
</g>
<!-- Node39 -->
<g id="node39" class="node"><title>Node39</title>
<polygon fill="none" stroke="#bfbfbf" points="1023.5,-192.5 1023.5,-211.5 1052.5,-211.5 1052.5,-192.5 1023.5,-192.5"/>
<text text-anchor="middle" x="1038" y="-199.5" font-family="Helvetica,sans-Serif" font-size="10.00">ios</text>
</g>
<!-- Node35&#45;&gt;Node39 -->
<g id="edge47" class="edge"><title>Node35&#45;&gt;Node39</title>
<path fill="none" stroke="midnightblue" d="M1013.15,-254.403C1017.38,-245.671 1024.04,-231.889 1029.4,-220.794"/>
<polygon fill="midnightblue" stroke="midnightblue" points="1032.65,-222.107 1033.85,-211.581 1026.35,-219.061 1032.65,-222.107"/>
</g>
<!-- Node40&#45;&gt;Node30 -->
<g id="edge54" class="edge"><title>Node40&#45;&gt;Node30</title>
<path fill="none" stroke="midnightblue" d="M2048.34,-316.907C2053.35,-281.667 2061.14,-188.772 2015,-136 1981.07,-97.1989 1918.9,-87.3297 1879.88,-85.1495"/>
<polygon fill="midnightblue" stroke="midnightblue" points="1879.67,-81.6378 1869.53,-84.7208 1879.38,-88.6318 1879.67,-81.6378"/>
</g>
<!-- Node41 -->
<g id="node41" class="node"><title>Node41</title>
<polygon fill="none" stroke="#bfbfbf" points="1956,-254.5 1956,-273.5 2018,-273.5 2018,-254.5 1956,-254.5"/>
<text text-anchor="middle" x="1987" y="-261.5" font-family="Helvetica,sans-Serif" font-size="10.00">TNamed.h</text>
</g>
<!-- Node40&#45;&gt;Node41 -->
<g id="edge53" class="edge"><title>Node40&#45;&gt;Node41</title>
<path fill="none" stroke="midnightblue" d="M2033.2,-316.679C2023.91,-306.286 2011.32,-292.208 2001.63,-281.37"/>
<polygon fill="midnightblue" stroke="midnightblue" points="2004.17,-278.951 1994.89,-273.828 1998.95,-283.616 2004.17,-278.951"/>
</g>
<!-- Node42 -->
<g id="node42" class="node"><title>Node42</title>
<polygon fill="none" stroke="#bfbfbf" points="2074.5,-254.5 2074.5,-273.5 2133.5,-273.5 2133.5,-254.5 2074.5,-254.5"/>
<text text-anchor="middle" x="2104" y="-261.5" font-family="Helvetica,sans-Serif" font-size="10.00">stdexcept</text>
</g>
<!-- Node40&#45;&gt;Node42 -->
<g id="edge55" class="edge"><title>Node40&#45;&gt;Node42</title>
<path fill="none" stroke="midnightblue" d="M2058.59,-316.679C2067.72,-306.286 2080.09,-292.208 2089.61,-281.37"/>
<polygon fill="midnightblue" stroke="midnightblue" points="2092.27,-283.65 2096.24,-273.828 2087.01,-279.03 2092.27,-283.65"/>
</g>
<!-- Node43 -->
<g id="node43" class="node"><title>Node43</title>
<polygon fill="none" stroke="#bfbfbf" points="2151.5,-254.5 2151.5,-273.5 2196.5,-273.5 2196.5,-254.5 2151.5,-254.5"/>
<text text-anchor="middle" x="2174" y="-261.5" font-family="Helvetica,sans-Serif" font-size="10.00">gsl/gsl</text>
</g>
<!-- Node40&#45;&gt;Node43 -->
<g id="edge56" class="edge"><title>Node40&#45;&gt;Node43</title>
<path fill="none" stroke="midnightblue" d="M2073.46,-316.841C2095.6,-305.425 2126.51,-289.485 2148.2,-278.303"/>
<polygon fill="midnightblue" stroke="midnightblue" points="2149.88,-281.376 2157.16,-273.682 2146.67,-275.154 2149.88,-281.376"/>
</g>
</g>
</svg>
        <g id="navigator" transform="translate(0 0)" fill="#404254">
                <rect fill="#f2f5e9" fill-opacity="0.5" stroke="#606060" stroke-width=".5" x="0" y="0" width="60" height="60"/>
                <use id="zoomplus" xlink:href="#zoomPlus" x="17" y="9" onmousedown="handleZoom(evt,'in')"/>
                <use id="zoomminus" xlink:href="#zoomMin" x="42" y="9" onmousedown="handleZoom(evt,'out')"/>
                <use id="reset" xlink:href="#resetDef" x="30" y="36" onmousedown="handleReset()"/>
                <g id="arrowUp" xlink:href="#dirArrow" transform="translate(30 24)" onmousedown="handlePan(0,-1)">
                  <use xlink:href="#rim" fill="#404040">
                        <set attributeName="fill" to="#808080" begin="arrowUp.mouseover" end="arrowUp.mouseout"/>
                  </use>
                  <path fill="none" stroke="white" stroke-width="1.5" d="M0,-3.0v7 M-2.5,-0.5L0,-3.0L2.5,-0.5"/>
                </g>
                <g id="arrowRight" xlink:href="#dirArrow" transform="rotate(90) translate(36 -43)" onmousedown="handlePan(1,0)">
                  <use xlink:href="#rim" fill="#404040">
                        <set attributeName="fill" to="#808080" begin="arrowRight.mouseover" end="arrowRight.mouseout"/>
                  </use>
                  <path fill="none" stroke="white" stroke-width="1.5" d="M0,-3.0v7 M-2.5,-0.5L0,-3.0L2.5,-0.5"/>
                </g>
                <g id="arrowDown" xlink:href="#dirArrow" transform="rotate(180) translate(-30 -48)" onmousedown="handlePan(0,1)">
                  <use xlink:href="#rim" fill="#404040">
                        <set attributeName="fill" to="#808080" begin="arrowDown.mouseover" end="arrowDown.mouseout"/>
                  </use>
                  <path fill="none" stroke="white" stroke-width="1.5" d="M0,-3.0v7 M-2.5,-0.5L0,-3.0L2.5,-0.5"/>
                </g>
                <g id="arrowLeft" xlink:href="#dirArrow" transform="rotate(270) translate(-36 17)" onmousedown="handlePan(-1,0)">
                  <use xlink:href="#rim" fill="#404040">
                        <set attributeName="fill" to="#808080" begin="arrowLeft.mouseover" end="arrowLeft.mouseout"/>
                  </use>
                  <path fill="none" stroke="white" stroke-width="1.5" d="M0,-3.0v7 M-2.5,-0.5L0,-3.0L2.5,-0.5"/>
                </g>
        </g>
        <svg viewBox="0 0 15 15" width="100%" height="30px" preserveAspectRatio="xMaxYMin meet">
         <g id="arrow_out" transform="scale(0.3 0.3)">
          <a xlink:href="TrivialClusterer_8cxx__incl_org.svg" target="_base">
           <rect id="button" ry="5" rx="5" y="6" x="6" height="38" width="38"
                fill="#f2f5e9" fill-opacity="0.5" stroke="#606060" stroke-width="1.0"/>
           <path id="arrow"
             d="M 11.500037,31.436501 C 11.940474,20.09759 22.043105,11.32322 32.158766,21.979434 L 37.068811,17.246167 C 37.068811,17.246167 37.088388,32 37.088388,32 L 22.160133,31.978069 C 22.160133,31.978069 26.997745,27.140456 26.997745,27.140456 C 18.528582,18.264221 13.291696,25.230495 11.500037,31.436501 z"
             style="fill:#404040;"/>
          </a>
         </g>
        </svg>
</svg>
