<?xml version="1.0" encoding="UTF-8" standalone="no"?>
<!DOCTYPE svg PUBLIC "-//W3C//DTD SVG 1.1//EN"
 "http://www.w3.org/Graphics/SVG/1.1/DTD/svg11.dtd">
<!-- Generated by graphviz version 2.36.0 (20140111.2315)
 -->
<!-- Title: /home/travis/build/AliceO2Group/AliceO2/Detectors/Base/src/Detector.cxx Pages: 1 -->
<!--zoomable 330 -->
<svg id="main" version="1.1" xmlns="http://www.w3.org/2000/svg" xmlns:xlink="http://www.w3.org/1999/xlink" xml:space="preserve" onload="init(evt)">
<style type="text/css"><![CDATA[
.edge:hover path { stroke: red; }
.edge:hover polygon { stroke: red; fill: red; }
]]></style>
<script type="text/javascript"><![CDATA[
var edges = document.getElementsByTagName('g');
if (edges && edges.length) {
  for (var i=0;i<edges.length;i++) {
    if (edges[i].id.substr(0,4)=='edge') {
      edges[i].setAttribute('class','edge');
    }
  }
}
]]></script>
        <defs>
                <circle id="rim" cx="0" cy="0" r="7"/>
                <circle id="rim2" cx="0" cy="0" r="3.5"/>
                <g id="zoomPlus">
                        <use xlink:href="#rim" fill="#404040">
                                <set attributeName="fill" to="#808080" begin="zoomplus.mouseover" end="zoomplus.mouseout"/>
                        </use>
                        <path d="M-4,0h8M0,-4v8" fill="none" stroke="white" stroke-width="1.5" pointer-events="none"/>
                </g>
                <g id="zoomMin">
                        <use xlink:href="#rim" fill="#404040">
                                <set attributeName="fill" to="#808080" begin="zoomminus.mouseover" end="zoomminus.mouseout"/>
                        </use>
                        <path d="M-4,0h8" fill="none" stroke="white" stroke-width="1.5" pointer-events="none"/>
                </g>
                <g id="dirArrow">
                        <path fill="none" stroke="white" stroke-width="1.5" d="M0,-3.0v7 M-2.5,-0.5L0,-3.0L2.5,-0.5"/>
                </g>
               <g id="resetDef">
                       <use xlink:href="#rim2" fill="#404040">
                               <set attributeName="fill" to="#808080" begin="reset.mouseover" end="reset.mouseout"/>
                       </use>
               </g>
        </defs>

<script type="text/javascript">
var viewWidth = 1841;
var viewHeight = 330;
var sectionId = 'dynsection-0';
</script>
<script xlink:href="../../svgpan.js"/>
<svg id="graph" class="graph">
<g id="viewport">
<title>/home/travis/build/AliceO2Group/AliceO2/Detectors/Base/src/Detector.cxx</title>
<!-- Node1 -->
<g id="node1" class="node"><title>Node1</title>
<polygon fill="#bfbfbf" stroke="black" points="1067.4,-280.5 1067.4,-321.5 1231.4,-321.5 1231.4,-280.5 1067.4,-280.5"/>
<text text-anchor="start" x="1075.4" y="-309.5" font-family="Helvetica,sans-Serif" font-size="10.00">/home/travis/build</text>
<text text-anchor="start" x="1075.4" y="-298.5" font-family="Helvetica,sans-Serif" font-size="10.00">/AliceO2Group/AliceO2</text>
<text text-anchor="middle" x="1149.4" y="-287.5" font-family="Helvetica,sans-Serif" font-size="10.00">/Detectors/Base/src/Detector.cxx</text>
</g>
<!-- Node2 -->
<g id="node2" class="node"><title>Node2</title>
<g id="a_node2"><a xlink:href="../../d1/d3a/Base_2include_2DetectorsBase_2Detector_8h.html" target="_top" xlink:title="DetectorsBase/Detector.h">
<polygon fill="none" stroke="black" points="288.899,-224.5 288.899,-243.5 419.899,-243.5 419.899,-224.5 288.899,-224.5"/>
<text text-anchor="middle" x="354.399" y="-231.5" font-family="Helvetica,sans-Serif" font-size="10.00">DetectorsBase/Detector.h</text>
</a>
</g>
</g>
<!-- Node1&#45;&gt;Node2 -->
<g id="edge1" class="edge"><title>Node1&#45;&gt;Node2</title>
<path fill="none" stroke="midnightblue" d="M1067.31,-293.289C912.578,-280.637 579.87,-253.435 430.144,-241.193"/>
<polygon fill="midnightblue" stroke="midnightblue" points="430.369,-237.7 420.117,-240.373 429.799,-244.677 430.369,-237.7"/>
</g>
<!-- Node13 -->
<g id="node13" class="node"><title>Node13</title>
<g id="a_node13"><a xlink:href="../../d6/d31/DetID_8h.html" target="_top" xlink:title="DetectorsBase/DetID.h">
<polygon fill="none" stroke="black" points="742.899,-224.5 742.899,-243.5 861.899,-243.5 861.899,-224.5 742.899,-224.5"/>
<text text-anchor="middle" x="802.399" y="-231.5" font-family="Helvetica,sans-Serif" font-size="10.00">DetectorsBase/DetID.h</text>
</a>
</g>
</g>
<!-- Node1&#45;&gt;Node13 -->
<g id="edge12" class="edge"><title>Node1&#45;&gt;Node13</title>
<path fill="none" stroke="midnightblue" d="M1067.16,-284.596C1002.64,-272.509 914.569,-256.012 858.081,-245.43"/>
<polygon fill="midnightblue" stroke="midnightblue" points="858.387,-241.927 847.913,-243.526 857.098,-248.807 858.387,-241.927"/>
</g>
<!-- Node20 -->
<g id="node20" class="node"><title>Node20</title>
<g id="a_node20"><a xlink:href="../../db/d4b/MagneticField_8h.html" target="_top" xlink:title="Definition of the MagF class. ">
<polygon fill="none" stroke="black" points="1198.4,-224.5 1198.4,-243.5 1308.4,-243.5 1308.4,-224.5 1198.4,-224.5"/>
<text text-anchor="middle" x="1253.4" y="-231.5" font-family="Helvetica,sans-Serif" font-size="10.00">Field/MagneticField.h</text>
</a>
</g>
</g>
<!-- Node1&#45;&gt;Node20 -->
<g id="edge22" class="edge"><title>Node1&#45;&gt;Node20</title>
<path fill="none" stroke="midnightblue" d="M1180.6,-280.498C1196.7,-270.436 1215.98,-258.385 1230.66,-249.214"/>
<polygon fill="midnightblue" stroke="midnightblue" points="1232.93,-251.921 1239.55,-243.652 1229.22,-245.985 1232.93,-251.921"/>
</g>
<!-- Node24 -->
<g id="node24" class="node"><title>Node24</title>
<polygon fill="none" stroke="#bfbfbf" points="1321.4,-56.5 1321.4,-75.5 1377.4,-75.5 1377.4,-56.5 1321.4,-56.5"/>
<text text-anchor="middle" x="1349.4" y="-63.5" font-family="Helvetica,sans-Serif" font-size="10.00">TString.h</text>
</g>
<!-- Node1&#45;&gt;Node24 -->
<g id="edge51" class="edge"><title>Node1&#45;&gt;Node24</title>
<path fill="none" stroke="midnightblue" d="M1149.76,-280.243C1151.53,-242.316 1160.84,-158.913 1207.4,-112 1234.81,-84.3759 1279.07,-73.6789 1310.89,-69.5538"/>
<polygon fill="midnightblue" stroke="midnightblue" points="1311.62,-72.9937 1321.16,-68.3919 1310.83,-66.0381 1311.62,-72.9937"/>
</g>
<!-- Node34 -->
<g id="node34" class="node"><title>Node34</title>
<polygon fill="none" stroke="#bfbfbf" points="1326.4,-224.5 1326.4,-243.5 1400.4,-243.5 1400.4,-224.5 1326.4,-224.5"/>
<text text-anchor="middle" x="1363.4" y="-231.5" font-family="Helvetica,sans-Serif" font-size="10.00">TVirtualMC.h</text>
</g>
<!-- Node1&#45;&gt;Node34 -->
<g id="edge50" class="edge"><title>Node1&#45;&gt;Node34</title>
<path fill="none" stroke="midnightblue" d="M1213.61,-280.498C1250,-269.444 1294.29,-255.99 1325.24,-246.59"/>
<polygon fill="midnightblue" stroke="midnightblue" points="1326.64,-249.822 1335.19,-243.567 1324.61,-243.124 1326.64,-249.822"/>
</g>
<!-- Node3 -->
<g id="node3" class="node"><title>Node3</title>
<polygon fill="none" stroke="#bfbfbf" points="13.8988,-168.5 13.8988,-187.5 48.8988,-187.5 48.8988,-168.5 13.8988,-168.5"/>
<text text-anchor="middle" x="31.3988" y="-175.5" font-family="Helvetica,sans-Serif" font-size="10.00">map</text>
</g>
<!-- Node2&#45;&gt;Node3 -->
<g id="edge2" class="edge"><title>Node2&#45;&gt;Node3</title>
<path fill="none" stroke="midnightblue" d="M288.817,-226.288C230.661,-219.598 143.373,-207.753 58.761,-187.7"/>
<polygon fill="midnightblue" stroke="midnightblue" points="59.5338,-184.286 48.992,-185.344 57.8931,-191.091 59.5338,-184.286"/>
</g>
<!-- Node4 -->
<g id="node4" class="node"><title>Node4</title>
<polygon fill="none" stroke="#bfbfbf" points="67.3988,-168.5 67.3988,-187.5 111.399,-187.5 111.399,-168.5 67.3988,-168.5"/>
<text text-anchor="middle" x="89.3988" y="-175.5" font-family="Helvetica,sans-Serif" font-size="10.00">vector</text>
</g>
<!-- Node2&#45;&gt;Node4 -->
<g id="edge3" class="edge"><title>Node2&#45;&gt;Node4</title>
<path fill="none" stroke="midnightblue" d="M301.332,-224.434C255.725,-216.712 188.041,-204.399 121.427,-188.336"/>
<polygon fill="midnightblue" stroke="midnightblue" points="122.154,-184.911 111.61,-185.939 120.494,-191.711 122.154,-184.911"/>
</g>
<!-- Node5 -->
<g id="node5" class="node"><title>Node5</title>
<polygon fill="none" stroke="#bfbfbf" points="709.399,-168.5 709.399,-187.5 761.399,-187.5 761.399,-168.5 709.399,-168.5"/>
<text text-anchor="middle" x="735.399" y="-175.5" font-family="Helvetica,sans-Serif" font-size="10.00">memory</text>
</g>
<!-- Node2&#45;&gt;Node5 -->
<g id="edge4" class="edge"><title>Node2&#45;&gt;Node5</title>
<path fill="none" stroke="midnightblue" d="M414.769,-224.444C494.672,-213.119 633.081,-193.502 698.768,-184.192"/>
<polygon fill="midnightblue" stroke="midnightblue" points="699.63,-187.605 709.04,-182.736 698.647,-180.674 699.63,-187.605"/>
</g>
<!-- Node6 -->
<g id="node6" class="node"><title>Node6</title>
<polygon fill="none" stroke="#bfbfbf" points="128.899,-168.5 128.899,-187.5 207.899,-187.5 207.899,-168.5 128.899,-168.5"/>
<text text-anchor="middle" x="168.399" y="-175.5" font-family="Helvetica,sans-Serif" font-size="10.00">FairDetector.h</text>
</g>
<!-- Node2&#45;&gt;Node6 -->
<g id="edge5" class="edge"><title>Node2&#45;&gt;Node6</title>
<path fill="none" stroke="midnightblue" d="M324.927,-224.444C293.228,-215.241 242.667,-200.562 207.624,-190.388"/>
<polygon fill="midnightblue" stroke="midnightblue" points="208.312,-186.943 197.733,-187.516 206.361,-193.666 208.312,-186.943"/>
</g>
<!-- Node7 -->
<g id="node7" class="node"><title>Node7</title>
<polygon fill="none" stroke="#bfbfbf" points="226.399,-168.5 226.399,-187.5 326.399,-187.5 326.399,-168.5 226.399,-168.5"/>
<text text-anchor="middle" x="276.399" y="-175.5" font-family="Helvetica,sans-Serif" font-size="10.00">FairRootManager.h</text>
</g>
<!-- Node2&#45;&gt;Node7 -->
<g id="edge6" class="edge"><title>Node2&#45;&gt;Node7</title>
<path fill="none" stroke="midnightblue" d="M341.867,-224.324C329.813,-215.979 311.372,-203.212 297.13,-193.352"/>
<polygon fill="midnightblue" stroke="midnightblue" points="299.114,-190.469 288.9,-187.655 295.129,-196.224 299.114,-190.469"/>
</g>
<!-- Node8 -->
<g id="node8" class="node"><title>Node8</title>
<polygon fill="none" stroke="#bfbfbf" points="1159.4,-0.5 1159.4,-19.5 1215.4,-19.5 1215.4,-0.5 1159.4,-0.5"/>
<text text-anchor="middle" x="1187.4" y="-7.5" font-family="Helvetica,sans-Serif" font-size="10.00">Rtypes.h</text>
</g>
<!-- Node2&#45;&gt;Node8 -->
<g id="edge7" class="edge"><title>Node2&#45;&gt;Node8</title>
<path fill="none" stroke="midnightblue" d="M288.582,-229.166C192.409,-222.883 22.8352,-208.959 4.39879,-188 -1.47218,-181.326 -1.45444,-174.69 4.39879,-168 81.9297,-79.3895 954.534,-24.3539 1149.1,-13.1339"/>
<polygon fill="midnightblue" stroke="midnightblue" points="1149.35,-16.6249 1159.14,-12.5591 1148.95,-9.63638 1149.35,-16.6249"/>
</g>
<!-- Node9 -->
<g id="node9" class="node"><title>Node9</title>
<polygon fill="none" stroke="#bfbfbf" points="382.899,-168.5 382.899,-187.5 435.899,-187.5 435.899,-168.5 382.899,-168.5"/>
<text text-anchor="middle" x="409.399" y="-175.5" font-family="Helvetica,sans-Serif" font-size="10.00">cxxabi.h</text>
</g>
<!-- Node2&#45;&gt;Node9 -->
<g id="edge8" class="edge"><title>Node2&#45;&gt;Node9</title>
<path fill="none" stroke="midnightblue" d="M363.481,-224.083C371.57,-216.141 383.594,-204.335 393.309,-194.797"/>
<polygon fill="midnightblue" stroke="midnightblue" points="395.802,-197.254 400.486,-187.751 390.898,-192.26 395.802,-197.254"/>
</g>
<!-- Node10 -->
<g id="node10" class="node"><title>Node10</title>
<polygon fill="none" stroke="#bfbfbf" points="453.899,-168.5 453.899,-187.5 504.899,-187.5 504.899,-168.5 453.899,-168.5"/>
<text text-anchor="middle" x="479.399" y="-175.5" font-family="Helvetica,sans-Serif" font-size="10.00">typeinfo</text>
</g>
<!-- Node2&#45;&gt;Node10 -->
<g id="edge9" class="edge"><title>Node2&#45;&gt;Node10</title>
<path fill="none" stroke="midnightblue" d="M374.205,-224.444C394.686,-215.596 426.881,-201.687 450.263,-191.586"/>
<polygon fill="midnightblue" stroke="midnightblue" points="451.893,-194.695 459.685,-187.516 449.117,-188.269 451.893,-194.695"/>
</g>
<!-- Node11 -->
<g id="node11" class="node"><title>Node11</title>
<polygon fill="none" stroke="#bfbfbf" points="523.399,-168.5 523.399,-187.5 585.399,-187.5 585.399,-168.5 523.399,-168.5"/>
<text text-anchor="middle" x="554.399" y="-175.5" font-family="Helvetica,sans-Serif" font-size="10.00">type_traits</text>
</g>
<!-- Node2&#45;&gt;Node11 -->
<g id="edge10" class="edge"><title>Node2&#45;&gt;Node11</title>
<path fill="none" stroke="midnightblue" d="M386.089,-224.444C420.568,-215.134 475.799,-200.222 513.52,-190.037"/>
<polygon fill="midnightblue" stroke="midnightblue" points="514.444,-193.413 523.186,-187.428 512.619,-186.655 514.444,-193.413"/>
</g>
<!-- Node12 -->
<g id="node12" class="node"><title>Node12</title>
<polygon fill="none" stroke="#bfbfbf" points="979.899,-112.5 979.899,-131.5 1020.9,-131.5 1020.9,-112.5 979.899,-112.5"/>
<text text-anchor="middle" x="1000.4" y="-119.5" font-family="Helvetica,sans-Serif" font-size="10.00">string</text>
</g>
<!-- Node2&#45;&gt;Node12 -->
<g id="edge11" class="edge"><title>Node2&#45;&gt;Node12</title>
<path fill="none" stroke="midnightblue" d="M354.049,-224.137C354.02,-209.771 356.303,-181.637 373.399,-168 423.422,-128.098 869.962,-142.439 969.923,-131.246"/>
<polygon fill="midnightblue" stroke="midnightblue" points="970.483,-134.701 979.893,-129.833 969.501,-127.771 970.483,-134.701"/>
</g>
<!-- Node13&#45;&gt;Node8 -->
<g id="edge16" class="edge"><title>Node13&#45;&gt;Node8</title>
<path fill="none" stroke="midnightblue" d="M756.042,-224.467C735.324,-218.095 712.817,-207.052 700.399,-188 674.542,-148.331 737.894,-123.19 758.399,-112 889.743,-40.3253 1070.75,-19.2176 1148.91,-13.2457"/>
<polygon fill="midnightblue" stroke="midnightblue" points="1149.52,-16.711 1159.24,-12.4998 1149.01,-9.72921 1149.52,-16.711"/>
</g>
<!-- Node13&#45;&gt;Node11 -->
<g id="edge15" class="edge"><title>Node13&#45;&gt;Node11</title>
<path fill="none" stroke="midnightblue" d="M762.502,-224.471C722.66,-215.93 659.402,-202.309 595.281,-188.181"/>
<polygon fill="midnightblue" stroke="midnightblue" points="595.921,-184.739 585.402,-186.002 594.413,-191.574 595.921,-184.739"/>
</g>
<!-- Node14 -->
<g id="node14" class="node"><title>Node14</title>
<polygon fill="none" stroke="#bfbfbf" points="779.399,-168.5 779.399,-187.5 825.399,-187.5 825.399,-168.5 779.399,-168.5"/>
<text text-anchor="middle" x="802.399" y="-175.5" font-family="Helvetica,sans-Serif" font-size="10.00">cstdint</text>
</g>
<!-- Node13&#45;&gt;Node14 -->
<g id="edge13" class="edge"><title>Node13&#45;&gt;Node14</title>
<path fill="none" stroke="midnightblue" d="M802.399,-224.083C802.399,-217.006 802.399,-206.861 802.399,-197.986"/>
<polygon fill="midnightblue" stroke="midnightblue" points="805.899,-197.751 802.399,-187.751 798.899,-197.751 805.899,-197.751"/>
</g>
<!-- Node15 -->
<g id="node15" class="node"><title>Node15</title>
<polygon fill="none" stroke="#bfbfbf" points="767.399,-112.5 767.399,-131.5 805.399,-131.5 805.399,-112.5 767.399,-112.5"/>
<text text-anchor="middle" x="786.399" y="-119.5" font-family="Helvetica,sans-Serif" font-size="10.00">array</text>
</g>
<!-- Node13&#45;&gt;Node15 -->
<g id="edge14" class="edge"><title>Node13&#45;&gt;Node15</title>
<path fill="none" stroke="midnightblue" d="M811.979,-224.296C824.352,-211.944 843.299,-188.544 834.399,-168 829.131,-155.84 818.779,-145.459 809.034,-137.743"/>
<polygon fill="midnightblue" stroke="midnightblue" points="810.9,-134.771 800.769,-131.67 806.755,-140.412 810.9,-134.771"/>
</g>
<!-- Node16 -->
<g id="node16" class="node"><title>Node16</title>
<g id="a_node16"><a xlink:href="../../d9/ded/Utils_8h.html" target="_top" xlink:title="DetectorsBase/Utils.h">
<polygon fill="none" stroke="black" points="881.899,-168.5 881.899,-187.5 994.899,-187.5 994.899,-168.5 881.899,-168.5"/>
<text text-anchor="middle" x="938.399" y="-175.5" font-family="Helvetica,sans-Serif" font-size="10.00">DetectorsBase/Utils.h</text>
</a>
</g>
</g>
<!-- Node13&#45;&gt;Node16 -->
<g id="edge17" class="edge"><title>Node13&#45;&gt;Node16</title>
<path fill="none" stroke="midnightblue" d="M823.948,-224.444C846.43,-215.517 881.886,-201.439 907.379,-191.317"/>
<polygon fill="midnightblue" stroke="midnightblue" points="908.947,-194.46 916.95,-187.516 906.364,-187.954 908.947,-194.46"/>
</g>
<!-- Node19 -->
<g id="node19" class="node"><title>Node19</title>
<polygon fill="none" stroke="#bfbfbf" points="603.899,-168.5 603.899,-187.5 652.899,-187.5 652.899,-168.5 603.899,-168.5"/>
<text text-anchor="middle" x="628.399" y="-175.5" font-family="Helvetica,sans-Serif" font-size="10.00">cassert</text>
</g>
<!-- Node13&#45;&gt;Node19 -->
<g id="edge21" class="edge"><title>Node13&#45;&gt;Node19</title>
<path fill="none" stroke="midnightblue" d="M774.828,-224.444C744.433,-215.011 695.5,-199.824 662.663,-189.634"/>
<polygon fill="midnightblue" stroke="midnightblue" points="663.615,-186.265 653.027,-186.643 661.541,-192.95 663.615,-186.265"/>
</g>
<!-- Node16&#45;&gt;Node15 -->
<g id="edge20" class="edge"><title>Node16&#45;&gt;Node15</title>
<path fill="none" stroke="midnightblue" d="M914.314,-168.444C887.356,-158.867 843.707,-143.359 815.027,-133.17"/>
<polygon fill="midnightblue" stroke="midnightblue" points="816.153,-129.856 805.558,-129.807 813.81,-136.452 816.153,-129.856"/>
</g>
<!-- Node17 -->
<g id="node17" class="node"><title>Node17</title>
<g id="a_node17"><a xlink:href="../../d1/daa/Base_2include_2DetectorsBase_2Constants_8h.html" target="_top" xlink:title="DetectorsBase/Constants.h">
<polygon fill="none" stroke="black" points="823.399,-112.5 823.399,-131.5 961.399,-131.5 961.399,-112.5 823.399,-112.5"/>
<text text-anchor="middle" x="892.399" y="-119.5" font-family="Helvetica,sans-Serif" font-size="10.00">DetectorsBase/Constants.h</text>
</a>
</g>
</g>
<!-- Node16&#45;&gt;Node17 -->
<g id="edge18" class="edge"><title>Node16&#45;&gt;Node17</title>
<path fill="none" stroke="midnightblue" d="M930.803,-168.083C924.171,-160.298 914.378,-148.801 906.341,-139.367"/>
<polygon fill="midnightblue" stroke="midnightblue" points="909.002,-137.094 899.853,-131.751 903.674,-141.633 909.002,-137.094"/>
</g>
<!-- Node18 -->
<g id="node18" class="node"><title>Node18</title>
<polygon fill="none" stroke="#bfbfbf" points="1039.4,-112.5 1039.4,-131.5 1083.4,-131.5 1083.4,-112.5 1039.4,-112.5"/>
<text text-anchor="middle" x="1061.4" y="-119.5" font-family="Helvetica,sans-Serif" font-size="10.00">cmath</text>
</g>
<!-- Node16&#45;&gt;Node18 -->
<g id="edge19" class="edge"><title>Node16&#45;&gt;Node18</title>
<path fill="none" stroke="midnightblue" d="M957.889,-168.444C978.041,-159.596 1009.72,-145.687 1032.73,-135.586"/>
<polygon fill="midnightblue" stroke="midnightblue" points="1034.25,-138.741 1042,-131.516 1031.44,-132.332 1034.25,-138.741"/>
</g>
<!-- Node20&#45;&gt;Node5 -->
<g id="edge49" class="edge"><title>Node20&#45;&gt;Node5</title>
<path fill="none" stroke="midnightblue" d="M1198.34,-230.717C1110.12,-226.438 931.616,-215.22 771.694,-187.967"/>
<polygon fill="midnightblue" stroke="midnightblue" points="772.125,-184.489 761.675,-186.234 770.932,-191.387 772.125,-184.489"/>
</g>
<!-- Node20&#45;&gt;Node8 -->
<g id="edge47" class="edge"><title>Node20&#45;&gt;Node8</title>
<path fill="none" stroke="midnightblue" d="M1240.48,-224.308C1229.67,-216.261 1214.85,-203.258 1207.4,-188 1181.66,-135.307 1183.08,-63.5514 1185.54,-29.8918"/>
<polygon fill="midnightblue" stroke="midnightblue" points="1189.05,-29.9301 1186.42,-19.6685 1182.08,-29.3342 1189.05,-29.9301"/>
</g>
<!-- Node21 -->
<g id="node21" class="node"><title>Node21</title>
<polygon fill="none" stroke="#bfbfbf" points="1627.4,-168.5 1627.4,-187.5 1689.4,-187.5 1689.4,-168.5 1627.4,-168.5"/>
<text text-anchor="middle" x="1658.4" y="-175.5" font-family="Helvetica,sans-Serif" font-size="10.00">FairField.h</text>
</g>
<!-- Node20&#45;&gt;Node21 -->
<g id="edge23" class="edge"><title>Node20&#45;&gt;Node21</title>
<path fill="none" stroke="midnightblue" d="M1308.55,-225.172C1311.54,-224.77 1314.51,-224.377 1317.4,-224 1447.31,-207.072 1483.25,-210.251 1616.9,-187.918"/>
<polygon fill="midnightblue" stroke="midnightblue" points="1617.84,-191.308 1627.12,-186.192 1616.68,-184.406 1617.84,-191.308"/>
</g>
<!-- Node22 -->
<g id="node22" class="node"><title>Node22</title>
<g id="a_node22"><a xlink:href="../../d3/d91/MagFieldParam_8h.html" target="_top" xlink:title="Definition of the MagFieldParam: container for ALICE mag. field parameters. ">
<polygon fill="none" stroke="black" points="1215.9,-168.5 1215.9,-187.5 1332.9,-187.5 1332.9,-168.5 1215.9,-168.5"/>
<text text-anchor="middle" x="1274.4" y="-175.5" font-family="Helvetica,sans-Serif" font-size="10.00">Field/MagFieldParam.h</text>
</a>
</g>
</g>
<!-- Node20&#45;&gt;Node22 -->
<g id="edge24" class="edge"><title>Node20&#45;&gt;Node22</title>
<path fill="none" stroke="midnightblue" d="M1256.87,-224.083C1259.71,-216.77 1263.83,-206.181 1267.36,-197.103"/>
<polygon fill="midnightblue" stroke="midnightblue" points="1270.63,-198.34 1271,-187.751 1264.11,-195.803 1270.63,-198.34"/>
</g>
<!-- Node25 -->
<g id="node25" class="node"><title>Node25</title>
<g id="a_node25"><a xlink:href="../../dd/dfb/MagneticWrapperChebyshev_8h.html" target="_top" xlink:title="Field/MagneticWrapperChebyshev.h">
<polygon fill="none" stroke="black" points="1433.9,-168.5 1433.9,-187.5 1608.9,-187.5 1608.9,-168.5 1433.9,-168.5"/>
<text text-anchor="middle" x="1521.4" y="-175.5" font-family="Helvetica,sans-Serif" font-size="10.00">Field/MagneticWrapperChebyshev.h</text>
</a>
</g>
</g>
<!-- Node20&#45;&gt;Node25 -->
<g id="edge27" class="edge"><title>Node20&#45;&gt;Node25</title>
<path fill="none" stroke="midnightblue" d="M1295.86,-224.444C1342.81,-214.984 1418.47,-199.738 1469.05,-189.547"/>
<polygon fill="midnightblue" stroke="midnightblue" points="1470.02,-192.923 1479.13,-187.516 1468.64,-186.061 1470.02,-192.923"/>
</g>
<!-- Node27 -->
<g id="node27" class="node"><title>Node27</title>
<polygon fill="none" stroke="#bfbfbf" points="1771.4,-0.5 1771.4,-19.5 1833.4,-19.5 1833.4,-0.5 1771.4,-0.5"/>
<text text-anchor="middle" x="1802.4" y="-7.5" font-family="Helvetica,sans-Serif" font-size="10.00">TNamed.h</text>
</g>
<!-- Node20&#45;&gt;Node27 -->
<g id="edge48" class="edge"><title>Node20&#45;&gt;Node27</title>
<path fill="none" stroke="midnightblue" d="M1308.54,-225.085C1311.53,-224.705 1314.5,-224.341 1317.4,-224 1401.64,-214.091 1621.07,-224.997 1697.4,-188 1759.35,-157.973 1778.78,-139.899 1804.4,-76 1810.31,-61.2635 1809.12,-43.1033 1806.85,-29.7276"/>
<polygon fill="midnightblue" stroke="midnightblue" points="1810.25,-28.8944 1804.82,-19.7974 1803.4,-30.2957 1810.25,-28.8944"/>
</g>
<!-- Node32 -->
<g id="node32" class="node"><title>Node32</title>
<g id="a_node32"><a xlink:href="../../da/df4/MagFieldFast_8h.html" target="_top" xlink:title="Definition of the fast magnetic field parametrization MagFieldFast. ">
<polygon fill="none" stroke="black" points="1013.4,-168.5 1013.4,-187.5 1121.4,-187.5 1121.4,-168.5 1013.4,-168.5"/>
<text text-anchor="middle" x="1067.4" y="-175.5" font-family="Helvetica,sans-Serif" font-size="10.00">Field/MagFieldFast.h</text>
</a>
</g>
</g>
<!-- Node20&#45;&gt;Node32 -->
<g id="edge43" class="edge"><title>Node20&#45;&gt;Node32</title>
<path fill="none" stroke="midnightblue" d="M1223.93,-224.444C1192.23,-215.241 1141.67,-200.562 1106.62,-190.388"/>
<polygon fill="midnightblue" stroke="midnightblue" points="1107.31,-186.943 1096.73,-187.516 1105.36,-193.666 1107.31,-186.943"/>
</g>
<!-- Node33 -->
<g id="node33" class="node"><title>Node33</title>
<polygon fill="none" stroke="#bfbfbf" points="1350.9,-168.5 1350.9,-187.5 1415.9,-187.5 1415.9,-168.5 1350.9,-168.5"/>
<text text-anchor="middle" x="1383.4" y="-175.5" font-family="Helvetica,sans-Serif" font-size="10.00">TSystem.h</text>
</g>
<!-- Node20&#45;&gt;Node33 -->
<g id="edge46" class="edge"><title>Node20&#45;&gt;Node33</title>
<path fill="none" stroke="midnightblue" d="M1274,-224.444C1295.39,-215.557 1329.08,-201.563 1353.42,-191.451"/>
<polygon fill="midnightblue" stroke="midnightblue" points="1355,-194.585 1362.9,-187.516 1352.32,-188.12 1355,-194.585"/>
</g>
<!-- Node23 -->
<g id="node23" class="node"><title>Node23</title>
<polygon fill="none" stroke="#bfbfbf" points="1215.9,-112.5 1215.9,-131.5 1320.9,-131.5 1320.9,-112.5 1215.9,-112.5"/>
<text text-anchor="middle" x="1268.4" y="-119.5" font-family="Helvetica,sans-Serif" font-size="10.00">FairParGenericSet.h</text>
</g>
<!-- Node22&#45;&gt;Node23 -->
<g id="edge25" class="edge"><title>Node22&#45;&gt;Node23</title>
<path fill="none" stroke="midnightblue" d="M1273.41,-168.083C1272.61,-160.927 1271.47,-150.635 1270.48,-141.691"/>
<polygon fill="midnightblue" stroke="midnightblue" points="1273.95,-141.303 1269.37,-131.751 1267,-142.076 1273.95,-141.303"/>
</g>
<!-- Node22&#45;&gt;Node24 -->
<g id="edge26" class="edge"><title>Node22&#45;&gt;Node24</title>
<path fill="none" stroke="midnightblue" d="M1289.08,-168.46C1301.51,-160.51 1318.94,-147.564 1329.4,-132 1338.76,-118.067 1343.9,-99.5594 1346.61,-85.857"/>
<polygon fill="midnightblue" stroke="midnightblue" points="1350.11,-86.1316 1348.36,-75.6832 1343.21,-84.9457 1350.11,-86.1316"/>
</g>
<!-- Node25&#45;&gt;Node8 -->
<g id="edge42" class="edge"><title>Node25&#45;&gt;Node8</title>
<path fill="none" stroke="midnightblue" d="M1517,-168.135C1510.02,-154.744 1495.35,-129.109 1477.4,-112 1406.07,-44.0325 1286.59,-21.5613 1225.66,-14.3194"/>
<polygon fill="midnightblue" stroke="midnightblue" points="1226.02,-10.8379 1215.69,-13.2096 1225.24,-17.7949 1226.02,-10.8379"/>
</g>
<!-- Node26 -->
<g id="node26" class="node"><title>Node26</title>
<polygon fill="none" stroke="#bfbfbf" points="1415.9,-112.5 1415.9,-131.5 1468.9,-131.5 1468.9,-112.5 1415.9,-112.5"/>
<text text-anchor="middle" x="1442.4" y="-119.5" font-family="Helvetica,sans-Serif" font-size="10.00">TMath.h</text>
</g>
<!-- Node25&#45;&gt;Node26 -->
<g id="edge28" class="edge"><title>Node25&#45;&gt;Node26</title>
<path fill="none" stroke="midnightblue" d="M1508.71,-168.324C1496.5,-159.979 1477.82,-147.212 1463.4,-137.352"/>
<polygon fill="midnightblue" stroke="midnightblue" points="1465.29,-134.408 1455.06,-131.655 1461.34,-140.187 1465.29,-134.408"/>
</g>
<!-- Node25&#45;&gt;Node27 -->
<g id="edge29" class="edge"><title>Node25&#45;&gt;Node27</title>
<path fill="none" stroke="midnightblue" d="M1603.2,-168.484C1663.77,-157.577 1743.03,-132.706 1786.4,-76 1796.55,-62.7305 1800.34,-43.8682 1801.72,-29.8781"/>
<polygon fill="midnightblue" stroke="midnightblue" points="1805.24,-29.7081 1802.4,-19.502 1798.26,-29.2538 1805.24,-29.7081"/>
</g>
<!-- Node28 -->
<g id="node28" class="node"><title>Node28</title>
<polygon fill="none" stroke="#bfbfbf" points="1439.9,-56.5 1439.9,-75.5 1508.9,-75.5 1508.9,-56.5 1439.9,-56.5"/>
<text text-anchor="middle" x="1474.4" y="-63.5" font-family="Helvetica,sans-Serif" font-size="10.00">TObjArray.h</text>
</g>
<!-- Node25&#45;&gt;Node28 -->
<g id="edge30" class="edge"><title>Node25&#45;&gt;Node28</title>
<path fill="none" stroke="midnightblue" d="M1464.71,-168.495C1443.05,-162.18 1420.44,-151.176 1407.4,-132 1393.4,-111.417 1420.32,-92.1326 1444.1,-79.9987"/>
<polygon fill="midnightblue" stroke="midnightblue" points="1445.81,-83.0573 1453.3,-75.5584 1442.77,-76.7532 1445.81,-83.0573"/>
</g>
<!-- Node29 -->
<g id="node29" class="node"><title>Node29</title>
<g id="a_node29"><a xlink:href="../../d8/d64/Chebyshev3D_8h.html" target="_top" xlink:title="MathUtils/Chebyshev3D.h">
<polygon fill="none" stroke="black" points="1525.4,-112.5 1525.4,-131.5 1657.4,-131.5 1657.4,-112.5 1525.4,-112.5"/>
<text text-anchor="middle" x="1591.4" y="-119.5" font-family="Helvetica,sans-Serif" font-size="10.00">MathUtils/Chebyshev3D.h</text>
</a>
</g>
</g>
<!-- Node25&#45;&gt;Node29 -->
<g id="edge31" class="edge"><title>Node25&#45;&gt;Node29</title>
<path fill="none" stroke="midnightblue" d="M1532.65,-168.324C1543.2,-160.185 1559.2,-147.839 1571.84,-138.087"/>
<polygon fill="midnightblue" stroke="midnightblue" points="1574.17,-140.713 1579.95,-131.834 1569.89,-135.171 1574.17,-140.713"/>
</g>
<!-- Node31 -->
<g id="node31" class="node"><title>Node31</title>
<g id="a_node31"><a xlink:href="../../d4/d08/Chebyshev3DCalc_8h.html" target="_top" xlink:title="MathUtils/Chebyshev3DCalc.h">
<polygon fill="none" stroke="black" points="1603.4,-56.5 1603.4,-75.5 1755.4,-75.5 1755.4,-56.5 1603.4,-56.5"/>
<text text-anchor="middle" x="1679.4" y="-63.5" font-family="Helvetica,sans-Serif" font-size="10.00">MathUtils/Chebyshev3DCalc.h</text>
</a>
</g>
</g>
<!-- Node25&#45;&gt;Node31 -->
<g id="edge41" class="edge"><title>Node25&#45;&gt;Node31</title>
<path fill="none" stroke="midnightblue" d="M1599.91,-168.463C1624.32,-162.05 1649.28,-150.99 1666.4,-132 1677.59,-119.59 1680.27,-100.349 1680.49,-86.0175"/>
<polygon fill="midnightblue" stroke="midnightblue" points="1683.98,-85.7184 1680.26,-75.8004 1676.98,-85.8773 1683.98,-85.7184"/>
</g>
<!-- Node29&#45;&gt;Node8 -->
<g id="edge39" class="edge"><title>Node29&#45;&gt;Node8</title>
<path fill="none" stroke="midnightblue" d="M1584.32,-112.04C1572.29,-97.5344 1546.33,-69.2047 1517.4,-56 1466.03,-32.5564 1300.96,-18.6914 1225.58,-13.4352"/>
<polygon fill="midnightblue" stroke="midnightblue" points="1225.78,-9.94051 1215.56,-12.7506 1225.3,-16.9242 1225.78,-9.94051"/>
</g>
<!-- Node29&#45;&gt;Node24 -->
<g id="edge40" class="edge"><title>Node29&#45;&gt;Node24</title>
<path fill="none" stroke="midnightblue" d="M1553.05,-112.444C1507.8,-102.346 1433,-85.6545 1387.74,-75.5565"/>
<polygon fill="midnightblue" stroke="midnightblue" points="1388.26,-72.0849 1377.74,-73.323 1386.73,-78.9169 1388.26,-72.0849"/>
</g>
<!-- Node29&#45;&gt;Node27 -->
<g id="edge32" class="edge"><title>Node29&#45;&gt;Node27</title>
<path fill="none" stroke="midnightblue" d="M1657.48,-115.975C1692.17,-110.515 1733.72,-99.2314 1764.4,-76 1780,-64.1891 1790.34,-43.9703 1796.25,-29.2124"/>
<polygon fill="midnightblue" stroke="midnightblue" points="1799.61,-30.2232 1799.78,-19.6297 1793.04,-27.8056 1799.61,-30.2232"/>
</g>
<!-- Node29&#45;&gt;Node28 -->
<g id="edge33" class="edge"><title>Node29&#45;&gt;Node28</title>
<path fill="none" stroke="midnightblue" d="M1572.86,-112.444C1553.78,-103.636 1523.82,-89.8116 1501.96,-79.722"/>
<polygon fill="midnightblue" stroke="midnightblue" points="1503.4,-76.5292 1492.85,-75.5164 1500.46,-82.8849 1503.4,-76.5292"/>
</g>
<!-- Node30 -->
<g id="node30" class="node"><title>Node30</title>
<polygon fill="none" stroke="#bfbfbf" points="1605.9,-0.5 1605.9,-19.5 1648.9,-19.5 1648.9,-0.5 1605.9,-0.5"/>
<text text-anchor="middle" x="1627.4" y="-7.5" font-family="Helvetica,sans-Serif" font-size="10.00">cstdio</text>
</g>
<!-- Node29&#45;&gt;Node30 -->
<g id="edge34" class="edge"><title>Node29&#45;&gt;Node30</title>
<path fill="none" stroke="midnightblue" d="M1590.24,-112.285C1588.9,-99.5195 1587.63,-75.1739 1594.4,-56 1598.09,-45.5344 1605.09,-35.4238 1611.69,-27.4463"/>
<polygon fill="midnightblue" stroke="midnightblue" points="1614.53,-29.5223 1618.53,-19.7113 1609.29,-24.8867 1614.53,-29.5223"/>
</g>
<!-- Node29&#45;&gt;Node31 -->
<g id="edge35" class="edge"><title>Node29&#45;&gt;Node31</title>
<path fill="none" stroke="midnightblue" d="M1605.54,-112.324C1619.27,-103.9 1640.34,-90.9709 1656.46,-81.0741"/>
<polygon fill="midnightblue" stroke="midnightblue" points="1658.6,-83.8678 1665.3,-75.6545 1654.94,-77.9016 1658.6,-83.8678"/>
</g>
<!-- Node31&#45;&gt;Node8 -->
<g id="edge38" class="edge"><title>Node31&#45;&gt;Node8</title>
<path fill="none" stroke="midnightblue" d="M1603.33,-56.6513C1496.72,-44.95 1306.84,-24.109 1225.78,-15.2131"/>
<polygon fill="midnightblue" stroke="midnightblue" points="1225.86,-11.701 1215.54,-14.089 1225.1,-18.6592 1225.86,-11.701"/>
</g>
<!-- Node31&#45;&gt;Node27 -->
<g id="edge36" class="edge"><title>Node31&#45;&gt;Node27</title>
<path fill="none" stroke="midnightblue" d="M1698.89,-56.4435C1719.04,-47.5961 1750.72,-33.6875 1773.73,-23.5865"/>
<polygon fill="midnightblue" stroke="midnightblue" points="1775.25,-26.7411 1783,-19.5164 1772.44,-20.3316 1775.25,-26.7411"/>
</g>
<!-- Node31&#45;&gt;Node30 -->
<g id="edge37" class="edge"><title>Node31&#45;&gt;Node30</title>
<path fill="none" stroke="midnightblue" d="M1670.81,-56.083C1663.24,-48.2195 1652.02,-36.5688 1642.88,-27.0813"/>
<polygon fill="midnightblue" stroke="midnightblue" points="1645.28,-24.5266 1635.83,-19.7511 1640.24,-29.3821 1645.28,-24.5266"/>
</g>
<!-- Node32&#45;&gt;Node8 -->
<g id="edge44" class="edge"><title>Node32&#45;&gt;Node8</title>
<path fill="none" stroke="midnightblue" d="M1073.85,-168.075C1093.07,-141.493 1150.14,-62.5379 1175.28,-27.7633"/>
<polygon fill="midnightblue" stroke="midnightblue" points="1178.18,-29.7228 1181.2,-19.5681 1172.51,-25.6219 1178.18,-29.7228"/>
</g>
<!-- Node32&#45;&gt;Node12 -->
<g id="edge45" class="edge"><title>Node32&#45;&gt;Node12</title>
<path fill="none" stroke="midnightblue" d="M1056.63,-168.324C1046.63,-160.263 1031.51,-148.077 1019.47,-138.369"/>
<polygon fill="midnightblue" stroke="midnightblue" points="1021.34,-135.384 1011.36,-131.834 1016.95,-140.834 1021.34,-135.384"/>
</g>
</g>
</svg>
        <g id="navigator" transform="translate(0 0)" fill="#404254">
                <rect fill="#f2f5e9" fill-opacity="0.5" stroke="#606060" stroke-width=".5" x="0" y="0" width="60" height="60"/>
                <use id="zoomplus" xlink:href="#zoomPlus" x="17" y="9" onmousedown="handleZoom(evt,'in')"/>
                <use id="zoomminus" xlink:href="#zoomMin" x="42" y="9" onmousedown="handleZoom(evt,'out')"/>
                <use id="reset" xlink:href="#resetDef" x="30" y="36" onmousedown="handleReset()"/>
                <g id="arrowUp" xlink:href="#dirArrow" transform="translate(30 24)" onmousedown="handlePan(0,-1)">
                  <use xlink:href="#rim" fill="#404040">
                        <set attributeName="fill" to="#808080" begin="arrowUp.mouseover" end="arrowUp.mouseout"/>
                  </use>
                  <path fill="none" stroke="white" stroke-width="1.5" d="M0,-3.0v7 M-2.5,-0.5L0,-3.0L2.5,-0.5"/>
                </g>
                <g id="arrowRight" xlink:href="#dirArrow" transform="rotate(90) translate(36 -43)" onmousedown="handlePan(1,0)">
                  <use xlink:href="#rim" fill="#404040">
                        <set attributeName="fill" to="#808080" begin="arrowRight.mouseover" end="arrowRight.mouseout"/>
                  </use>
                  <path fill="none" stroke="white" stroke-width="1.5" d="M0,-3.0v7 M-2.5,-0.5L0,-3.0L2.5,-0.5"/>
                </g>
                <g id="arrowDown" xlink:href="#dirArrow" transform="rotate(180) translate(-30 -48)" onmousedown="handlePan(0,1)">
                  <use xlink:href="#rim" fill="#404040">
                        <set attributeName="fill" to="#808080" begin="arrowDown.mouseover" end="arrowDown.mouseout"/>
                  </use>
                  <path fill="none" stroke="white" stroke-width="1.5" d="M0,-3.0v7 M-2.5,-0.5L0,-3.0L2.5,-0.5"/>
                </g>
                <g id="arrowLeft" xlink:href="#dirArrow" transform="rotate(270) translate(-36 17)" onmousedown="handlePan(-1,0)">
                  <use xlink:href="#rim" fill="#404040">
                        <set attributeName="fill" to="#808080" begin="arrowLeft.mouseover" end="arrowLeft.mouseout"/>
                  </use>
                  <path fill="none" stroke="white" stroke-width="1.5" d="M0,-3.0v7 M-2.5,-0.5L0,-3.0L2.5,-0.5"/>
                </g>
        </g>
        <svg viewBox="0 0 15 15" width="100%" height="30px" preserveAspectRatio="xMaxYMin meet">
         <g id="arrow_out" transform="scale(0.3 0.3)">
          <a xlink:href="Base_2src_2Detector_8cxx__incl_org.svg" target="_base">
           <rect id="button" ry="5" rx="5" y="6" x="6" height="38" width="38"
                fill="#f2f5e9" fill-opacity="0.5" stroke="#606060" stroke-width="1.0"/>
           <path id="arrow"
             d="M 11.500037,31.436501 C 11.940474,20.09759 22.043105,11.32322 32.158766,21.979434 L 37.068811,17.246167 C 37.068811,17.246167 37.088388,32 37.088388,32 L 22.160133,31.978069 C 22.160133,31.978069 26.997745,27.140456 26.997745,27.140456 C 18.528582,18.264221 13.291696,25.230495 11.500037,31.436501 z"
             style="fill:#404040;"/>
          </a>
         </g>
        </svg>
</svg>
