<?xml version="1.0" encoding="UTF-8" standalone="no"?>
<!DOCTYPE svg PUBLIC "-//W3C//DTD SVG 1.1//EN"
 "http://www.w3.org/Graphics/SVG/1.1/DTD/svg11.dtd">
<!-- Generated by graphviz version 2.36.0 (20140111.2315)
 -->
<!-- Title: /home/travis/build/AliceO2Group/AliceO2/Detectors/ITSMFT/ITS/reconstruction/include/ITSReconstruction/CAaux.h Pages: 1 -->
<svg width="1915pt" height="432pt"
 viewBox="0.00 0.00 1915.00 432.00" xmlns="http://www.w3.org/2000/svg" xmlns:xlink="http://www.w3.org/1999/xlink">
<g id="graph0" class="graph" transform="scale(1 1) rotate(0) translate(4 428)">
<title>/home/travis/build/AliceO2Group/AliceO2/Detectors/ITSMFT/ITS/reconstruction/include/ITSReconstruction/CAaux.h</title>
<!-- Node1 -->
<g id="node1" class="node"><title>Node1</title>
<polygon fill="#bfbfbf" stroke="black" points="249.5,-360.5 249.5,-423.5 392.5,-423.5 392.5,-360.5 249.5,-360.5"/>
<text text-anchor="start" x="257.5" y="-411.5" font-family="Helvetica,sans-Serif" font-size="10.00">/home/travis/build</text>
<text text-anchor="start" x="257.5" y="-400.5" font-family="Helvetica,sans-Serif" font-size="10.00">/AliceO2Group/AliceO2</text>
<text text-anchor="start" x="257.5" y="-389.5" font-family="Helvetica,sans-Serif" font-size="10.00">/Detectors/ITSMFT/ITS</text>
<text text-anchor="start" x="257.5" y="-378.5" font-family="Helvetica,sans-Serif" font-size="10.00">/reconstruction/include</text>
<text text-anchor="middle" x="321" y="-367.5" font-family="Helvetica,sans-Serif" font-size="10.00">/ITSReconstruction/CAaux.h</text>
</g>
<!-- Node2 -->
<g id="node2" class="node"><title>Node2</title>
<polygon fill="none" stroke="#bfbfbf" points="104,-136.5 104,-155.5 148,-155.5 148,-136.5 104,-136.5"/>
<text text-anchor="middle" x="126" y="-143.5" font-family="Helvetica,sans-Serif" font-size="10.00">vector</text>
</g>
<!-- Node1&#45;&gt;Node2 -->
<g id="edge1" class="edge"><title>Node1&#45;&gt;Node2</title>
<path fill="none" stroke="midnightblue" d="M296.303,-360.097C254.571,-307.879 171.498,-203.93 139.239,-163.565"/>
<polygon fill="midnightblue" stroke="midnightblue" points="141.808,-161.174 132.831,-155.548 136.34,-165.545 141.808,-161.174"/>
</g>
<!-- Node3 -->
<g id="node3" class="node"><title>Node3</title>
<polygon fill="none" stroke="#bfbfbf" points="95,-6.5 95,-25.5 133,-25.5 133,-6.5 95,-6.5"/>
<text text-anchor="middle" x="114" y="-13.5" font-family="Helvetica,sans-Serif" font-size="10.00">array</text>
</g>
<!-- Node1&#45;&gt;Node3 -->
<g id="edge2" class="edge"><title>Node1&#45;&gt;Node3</title>
<path fill="none" stroke="midnightblue" d="M249.361,-376.552C154.755,-355.376 0,-312.553 0,-259 0,-259 0,-259 0,-145 0,-92.2307 54.6991,-51.1502 88.3185,-30.8847"/>
<polygon fill="midnightblue" stroke="midnightblue" points="90.2964,-33.7832 97.1789,-25.7283 86.7755,-27.7332 90.2964,-33.7832"/>
</g>
<!-- Node4 -->
<g id="node4" class="node"><title>Node4</title>
<polygon fill="none" stroke="#bfbfbf" points="427,-6.5 427,-25.5 471,-25.5 471,-6.5 427,-6.5"/>
<text text-anchor="middle" x="449" y="-13.5" font-family="Helvetica,sans-Serif" font-size="10.00">cmath</text>
</g>
<!-- Node1&#45;&gt;Node4 -->
<g id="edge3" class="edge"><title>Node1&#45;&gt;Node4</title>
<path fill="none" stroke="midnightblue" d="M392.683,-367.32C459.367,-341.018 554.743,-291.455 598,-212 616.055,-178.836 686.257,-197.303 588,-68 562.849,-34.9021 514.005,-23.2688 481.439,-19.1893"/>
<polygon fill="midnightblue" stroke="midnightblue" points="481.393,-15.6643 471.077,-18.0753 480.645,-22.6242 481.393,-15.6643"/>
</g>
<!-- Node5 -->
<g id="node5" class="node"><title>Node5</title>
<g id="a_node5"><a xlink:href="../../d7/d65/Detectors_2Base_2include_2DetectorsBase_2Track_8h.html" target="_top" xlink:title="DetectorsBase/Track.h">
<polygon fill="none" stroke="black" points="685,-304.5 685,-323.5 803,-323.5 803,-304.5 685,-304.5"/>
<text text-anchor="middle" x="744" y="-311.5" font-family="Helvetica,sans-Serif" font-size="10.00">DetectorsBase/Track.h</text>
</a>
</g>
</g>
<!-- Node1&#45;&gt;Node5 -->
<g id="edge4" class="edge"><title>Node1&#45;&gt;Node5</title>
<path fill="none" stroke="midnightblue" d="M392.756,-378.108C475.658,-363.213 610.407,-339.003 686.653,-325.303"/>
<polygon fill="midnightblue" stroke="midnightblue" points="687.336,-328.737 696.559,-323.524 686.098,-321.847 687.336,-328.737"/>
</g>
<!-- Node33 -->
<g id="node33" class="node"><title>Node33</title>
<g id="a_node33"><a xlink:href="../../d1/daa/Base_2include_2DetectorsBase_2Constants_8h.html" target="_top" xlink:title="DetectorsBase/Constants.h">
<polygon fill="none" stroke="black" points="1769,-6.5 1769,-25.5 1907,-25.5 1907,-6.5 1769,-6.5"/>
<text text-anchor="middle" x="1838" y="-13.5" font-family="Helvetica,sans-Serif" font-size="10.00">DetectorsBase/Constants.h</text>
</a>
</g>
</g>
<!-- Node1&#45;&gt;Node33 -->
<g id="edge51" class="edge"><title>Node1&#45;&gt;Node33</title>
<path fill="none" stroke="midnightblue" d="M392.625,-388.725C698.043,-378.559 1876,-334.46 1876,-259 1876,-259 1876,-259 1876,-145 1876,-104.231 1858.06,-59.0653 1846.84,-34.7866"/>
<polygon fill="midnightblue" stroke="midnightblue" points="1849.98,-33.2455 1842.51,-25.734 1843.67,-36.2655 1849.98,-33.2455"/>
</g>
<!-- Node5&#45;&gt;Node3 -->
<g id="edge7" class="edge"><title>Node5&#45;&gt;Node3</title>
<path fill="none" stroke="midnightblue" d="M684.893,-311.667C598.019,-308.685 431.191,-299.052 293,-268 220.719,-251.758 198.43,-251.885 136,-212 106.602,-193.218 94.2047,-188.29 81,-156 75.7554,-143.175 68.0886,-118.376 83,-68 86.655,-55.6521 94.0674,-43.2735 100.728,-33.8041"/>
<polygon fill="midnightblue" stroke="midnightblue" points="103.584,-35.828 106.735,-25.7127 97.9639,-31.6551 103.584,-35.828"/>
</g>
<!-- Node5&#45;&gt;Node4 -->
<g id="edge9" class="edge"><title>Node5&#45;&gt;Node4</title>
<path fill="none" stroke="midnightblue" d="M684.994,-308.242C538.397,-295.031 164.434,-252.334 95,-156 12.4099,-41.4124 315.063,-21.2698 416.769,-17.7441"/>
<polygon fill="midnightblue" stroke="midnightblue" points="416.901,-21.2417 426.786,-17.4287 416.681,-14.2452 416.901,-21.2417"/>
</g>
<!-- Node6 -->
<g id="node6" class="node"><title>Node6</title>
<polygon fill="none" stroke="#bfbfbf" points="524,-74.5 524,-93.5 580,-93.5 580,-74.5 524,-74.5"/>
<text text-anchor="middle" x="552" y="-81.5" font-family="Helvetica,sans-Serif" font-size="10.00">Rtypes.h</text>
</g>
<!-- Node5&#45;&gt;Node6 -->
<g id="edge5" class="edge"><title>Node5&#45;&gt;Node6</title>
<path fill="none" stroke="midnightblue" d="M691.223,-304.474C607.15,-289.695 448.916,-256.577 416,-212 398.765,-188.66 429.287,-149.555 443,-136 449.101,-129.97 492.231,-110.688 522.371,-97.6387"/>
<polygon fill="midnightblue" stroke="midnightblue" points="523.839,-100.817 531.637,-93.6455 521.068,-94.389 523.839,-100.817"/>
</g>
<!-- Node7 -->
<g id="node7" class="node"><title>Node7</title>
<polygon fill="none" stroke="#bfbfbf" points="683,-248.5 683,-267.5 739,-267.5 739,-248.5 683,-248.5"/>
<text text-anchor="middle" x="711" y="-255.5" font-family="Helvetica,sans-Serif" font-size="10.00">algorithm</text>
</g>
<!-- Node5&#45;&gt;Node7 -->
<g id="edge6" class="edge"><title>Node5&#45;&gt;Node7</title>
<path fill="none" stroke="midnightblue" d="M738.551,-304.083C733.986,-296.613 727.332,-285.724 721.707,-276.52"/>
<polygon fill="midnightblue" stroke="midnightblue" points="724.549,-274.459 716.348,-267.751 718.576,-278.109 724.549,-274.459"/>
</g>
<!-- Node8 -->
<g id="node8" class="node"><title>Node8</title>
<polygon fill="none" stroke="#bfbfbf" points="757.5,-248.5 757.5,-267.5 798.5,-267.5 798.5,-248.5 757.5,-248.5"/>
<text text-anchor="middle" x="778" y="-255.5" font-family="Helvetica,sans-Serif" font-size="10.00">cfloat</text>
</g>
<!-- Node5&#45;&gt;Node8 -->
<g id="edge8" class="edge"><title>Node5&#45;&gt;Node8</title>
<path fill="none" stroke="midnightblue" d="M749.614,-304.083C754.367,-296.534 761.318,-285.495 767.152,-276.23"/>
<polygon fill="midnightblue" stroke="midnightblue" points="770.124,-278.078 772.49,-267.751 764.2,-274.349 770.124,-278.078"/>
</g>
<!-- Node9 -->
<g id="node9" class="node"><title>Node9</title>
<polygon fill="none" stroke="#bfbfbf" points="817,-248.5 817,-267.5 863,-267.5 863,-248.5 817,-248.5"/>
<text text-anchor="middle" x="840" y="-255.5" font-family="Helvetica,sans-Serif" font-size="10.00">cstring</text>
</g>
<!-- Node5&#45;&gt;Node9 -->
<g id="edge10" class="edge"><title>Node5&#45;&gt;Node9</title>
<path fill="none" stroke="midnightblue" d="M759.424,-304.324C774.54,-295.822 797.815,-282.729 815.471,-272.797"/>
<polygon fill="midnightblue" stroke="midnightblue" points="817.614,-275.608 824.614,-267.655 814.183,-269.507 817.614,-275.608"/>
</g>
<!-- Node10 -->
<g id="node10" class="node"><title>Node10</title>
<polygon fill="none" stroke="#bfbfbf" points="1756,-74.5 1756,-93.5 1810,-93.5 1810,-74.5 1756,-74.5"/>
<text text-anchor="middle" x="1783" y="-81.5" font-family="Helvetica,sans-Serif" font-size="10.00">iostream</text>
</g>
<!-- Node5&#45;&gt;Node10 -->
<g id="edge11" class="edge"><title>Node5&#45;&gt;Node10</title>
<path fill="none" stroke="midnightblue" d="M803.067,-311.679C897.194,-308.683 1086.66,-298.998 1244,-268 1409.65,-235.365 1447.89,-212.485 1607,-156 1659.42,-137.39 1719.25,-112.445 1753.91,-97.6159"/>
<polygon fill="midnightblue" stroke="midnightblue" points="1755.61,-100.699 1763.41,-93.536 1752.84,-94.2669 1755.61,-100.699"/>
</g>
<!-- Node11 -->
<g id="node11" class="node"><title>Node11</title>
<polygon fill="none" stroke="#bfbfbf" points="881.5,-248.5 881.5,-267.5 964.5,-267.5 964.5,-248.5 881.5,-248.5"/>
<text text-anchor="middle" x="923" y="-255.5" font-family="Helvetica,sans-Serif" font-size="10.00">Math/SMatrix.h</text>
</g>
<!-- Node5&#45;&gt;Node11 -->
<g id="edge12" class="edge"><title>Node5&#45;&gt;Node11</title>
<path fill="none" stroke="midnightblue" d="M772.363,-304.444C802.738,-295.28 851.11,-280.688 884.816,-270.519"/>
<polygon fill="midnightblue" stroke="midnightblue" points="886.207,-273.756 894.77,-267.516 884.185,-267.054 886.207,-273.756"/>
</g>
<!-- Node12 -->
<g id="node12" class="node"><title>Node12</title>
<polygon fill="none" stroke="#bfbfbf" points="982.5,-248.5 982.5,-267.5 1067.5,-267.5 1067.5,-248.5 982.5,-248.5"/>
<text text-anchor="middle" x="1025" y="-255.5" font-family="Helvetica,sans-Serif" font-size="10.00">Math/SVector.h</text>
</g>
<!-- Node5&#45;&gt;Node12 -->
<g id="edge13" class="edge"><title>Node5&#45;&gt;Node12</title>
<path fill="none" stroke="midnightblue" d="M788.525,-304.444C838.392,-294.861 919.157,-279.34 972.176,-269.151"/>
<polygon fill="midnightblue" stroke="midnightblue" points="972.906,-272.575 982.065,-267.251 971.584,-265.701 972.906,-272.575"/>
</g>
<!-- Node13 -->
<g id="node13" class="node"><title>Node13</title>
<g id="a_node13"><a xlink:href="../../d4/de2/BaseCluster_8h.html" target="_top" xlink:title="DetectorsBase/BaseCluster.h">
<polygon fill="none" stroke="black" points="1088.5,-248.5 1088.5,-267.5 1235.5,-267.5 1235.5,-248.5 1088.5,-248.5"/>
<text text-anchor="middle" x="1162" y="-255.5" font-family="Helvetica,sans-Serif" font-size="10.00">DetectorsBase/BaseCluster.h</text>
</a>
</g>
</g>
<!-- Node5&#45;&gt;Node13 -->
<g id="edge14" class="edge"><title>Node5&#45;&gt;Node13</title>
<path fill="none" stroke="midnightblue" d="M803.003,-305.378C877.134,-295.801 1004.48,-279.35 1085.88,-268.834"/>
<polygon fill="midnightblue" stroke="midnightblue" points="1086.59,-272.271 1096.06,-267.518 1085.7,-265.328 1086.59,-272.271"/>
</g>
<!-- Node18 -->
<g id="node18" class="node"><title>Node18</title>
<g id="a_node18"><a xlink:href="../../dd/d76/Cartesian3D_8h.html" target="_top" xlink:title="MathUtils/Cartesian3D.h">
<polygon fill="none" stroke="black" points="982.5,-136.5 982.5,-155.5 1107.5,-155.5 1107.5,-136.5 982.5,-136.5"/>
<text text-anchor="middle" x="1045" y="-143.5" font-family="Helvetica,sans-Serif" font-size="10.00">MathUtils/Cartesian3D.h</text>
</a>
</g>
</g>
<!-- Node5&#45;&gt;Node18 -->
<g id="edge50" class="edge"><title>Node5&#45;&gt;Node18</title>
<path fill="none" stroke="midnightblue" d="M721.662,-304.323C695.114,-292.717 656.479,-270.928 674,-248 710.014,-200.871 874.809,-170.503 972.235,-156.337"/>
<polygon fill="midnightblue" stroke="midnightblue" points="972.913,-159.776 982.316,-154.894 971.921,-152.846 972.913,-159.776"/>
</g>
<!-- Node32 -->
<g id="node32" class="node"><title>Node32</title>
<g id="a_node32"><a xlink:href="../../d9/ded/Utils_8h.html" target="_top" xlink:title="DetectorsBase/Utils.h">
<polygon fill="none" stroke="black" points="392.5,-74.5 392.5,-93.5 505.5,-93.5 505.5,-74.5 392.5,-74.5"/>
<text text-anchor="middle" x="449" y="-81.5" font-family="Helvetica,sans-Serif" font-size="10.00">DetectorsBase/Utils.h</text>
</a>
</g>
</g>
<!-- Node5&#45;&gt;Node32 -->
<g id="edge49" class="edge"><title>Node5&#45;&gt;Node32</title>
<path fill="none" stroke="midnightblue" d="M684.782,-312.34C627.779,-309.645 540.392,-299.994 472,-268 437.461,-251.843 422.89,-246.663 407,-212 389.504,-173.833 417.669,-126.232 435.727,-101.559"/>
<polygon fill="midnightblue" stroke="midnightblue" points="438.54,-103.641 441.819,-93.566 432.973,-99.3974 438.54,-103.641"/>
</g>
<!-- Node5&#45;&gt;Node33 -->
<g id="edge48" class="edge"><title>Node5&#45;&gt;Node33</title>
<path fill="none" stroke="midnightblue" d="M803.206,-313.315C1030.97,-313.759 1838,-307.929 1838,-203 1838,-203 1838,-203 1838,-145 1838,-106.248 1838,-60.8973 1838,-35.9188"/>
<polygon fill="midnightblue" stroke="midnightblue" points="1841.5,-35.6912 1838,-25.6913 1834.5,-35.6913 1841.5,-35.6912"/>
</g>
<!-- Node13&#45;&gt;Node10 -->
<g id="edge19" class="edge"><title>Node13&#45;&gt;Node10</title>
<path fill="none" stroke="midnightblue" d="M1200.05,-248.479C1293.9,-227.098 1543.46,-167.997 1746,-100 1748.56,-99.1404 1751.2,-98.1949 1753.83,-97.2096"/>
<polygon fill="midnightblue" stroke="midnightblue" points="1755.16,-100.449 1763.2,-93.5491 1752.61,-93.9297 1755.16,-100.449"/>
</g>
<!-- Node14 -->
<g id="node14" class="node"><title>Node14</title>
<polygon fill="none" stroke="#bfbfbf" points="1067.5,-192.5 1067.5,-211.5 1126.5,-211.5 1126.5,-192.5 1067.5,-192.5"/>
<text text-anchor="middle" x="1097" y="-199.5" font-family="Helvetica,sans-Serif" font-size="10.00">TObject.h</text>
</g>
<!-- Node13&#45;&gt;Node14 -->
<g id="edge15" class="edge"><title>Node13&#45;&gt;Node14</title>
<path fill="none" stroke="midnightblue" d="M1151.56,-248.324C1141.85,-240.263 1127.18,-228.077 1115.5,-218.369"/>
<polygon fill="midnightblue" stroke="midnightblue" points="1117.56,-215.532 1107.63,-211.834 1113.09,-220.916 1117.56,-215.532"/>
</g>
<!-- Node15 -->
<g id="node15" class="node"><title>Node15</title>
<polygon fill="none" stroke="#bfbfbf" points="1144.5,-192.5 1144.5,-211.5 1185.5,-211.5 1185.5,-192.5 1144.5,-192.5"/>
<text text-anchor="middle" x="1165" y="-199.5" font-family="Helvetica,sans-Serif" font-size="10.00">bitset</text>
</g>
<!-- Node13&#45;&gt;Node15 -->
<g id="edge16" class="edge"><title>Node13&#45;&gt;Node15</title>
<path fill="none" stroke="midnightblue" d="M1162.5,-248.083C1162.89,-241.006 1163.45,-230.861 1163.95,-221.986"/>
<polygon fill="midnightblue" stroke="midnightblue" points="1167.45,-221.93 1164.51,-211.751 1160.46,-221.542 1167.45,-221.93"/>
</g>
<!-- Node16 -->
<g id="node16" class="node"><title>Node16</title>
<polygon fill="none" stroke="#bfbfbf" points="1204,-192.5 1204,-211.5 1254,-211.5 1254,-192.5 1204,-192.5"/>
<text text-anchor="middle" x="1229" y="-199.5" font-family="Helvetica,sans-Serif" font-size="10.00">iomanip</text>
</g>
<!-- Node13&#45;&gt;Node16 -->
<g id="edge17" class="edge"><title>Node13&#45;&gt;Node16</title>
<path fill="none" stroke="midnightblue" d="M1172.76,-248.324C1182.77,-240.263 1197.89,-228.077 1209.93,-218.369"/>
<polygon fill="midnightblue" stroke="midnightblue" points="1212.45,-220.834 1218.04,-211.834 1208.06,-215.384 1212.45,-220.834"/>
</g>
<!-- Node17 -->
<g id="node17" class="node"><title>Node17</title>
<polygon fill="none" stroke="#bfbfbf" points="1272.5,-192.5 1272.5,-211.5 1301.5,-211.5 1301.5,-192.5 1272.5,-192.5"/>
<text text-anchor="middle" x="1287" y="-199.5" font-family="Helvetica,sans-Serif" font-size="10.00">ios</text>
</g>
<!-- Node13&#45;&gt;Node17 -->
<g id="edge18" class="edge"><title>Node13&#45;&gt;Node17</title>
<path fill="none" stroke="midnightblue" d="M1181.81,-248.444C1203.85,-238.92 1239.48,-223.531 1263.06,-213.34"/>
<polygon fill="midnightblue" stroke="midnightblue" points="1264.57,-216.502 1272.36,-209.323 1261.8,-210.076 1264.57,-216.502"/>
</g>
<!-- Node13&#45;&gt;Node18 -->
<g id="edge20" class="edge"><title>Node13&#45;&gt;Node18</title>
<path fill="none" stroke="midnightblue" d="M1120.56,-248.464C1099.16,-241.964 1074.38,-230.807 1059,-212 1048.39,-199.026 1045.31,-179.862 1044.63,-165.701"/>
<polygon fill="midnightblue" stroke="midnightblue" points="1048.13,-165.586 1044.51,-155.631 1041.13,-165.674 1048.13,-165.586"/>
</g>
<!-- Node28 -->
<g id="node28" class="node"><title>Node28</title>
<g id="a_node28"><a xlink:href="../../d4/d20/DetMatrixCache_8h.html" target="_top" xlink:title="DetectorsBase/DetMatrixCache.h">
<polygon fill="none" stroke="black" points="425,-192.5 425,-211.5 589,-211.5 589,-192.5 425,-192.5"/>
<text text-anchor="middle" x="507" y="-199.5" font-family="Helvetica,sans-Serif" font-size="10.00">DetectorsBase/DetMatrixCache.h</text>
</a>
</g>
</g>
<!-- Node13&#45;&gt;Node28 -->
<g id="edge32" class="edge"><title>Node13&#45;&gt;Node28</title>
<path fill="none" stroke="midnightblue" d="M1088.36,-249.169C1084.18,-248.763 1080.04,-248.371 1076,-248 908.063,-232.574 711.943,-217.771 599.332,-209.579"/>
<polygon fill="midnightblue" stroke="midnightblue" points="599.26,-206.065 589.033,-208.832 598.753,-213.047 599.26,-206.065"/>
</g>
<!-- Node18&#45;&gt;Node6 -->
<g id="edge24" class="edge"><title>Node18&#45;&gt;Node6</title>
<path fill="none" stroke="midnightblue" d="M982.294,-140.097C900.161,-133.257 751.804,-119.463 626,-100 614.177,-98.1709 601.379,-95.7395 589.803,-93.3678"/>
<polygon fill="midnightblue" stroke="midnightblue" points="590.506,-89.9391 580.001,-91.3155 589.072,-96.7905 590.506,-89.9391"/>
</g>
<!-- Node18&#45;&gt;Node10 -->
<g id="edge31" class="edge"><title>Node18&#45;&gt;Node10</title>
<path fill="none" stroke="midnightblue" d="M1107.73,-143.543C1256.16,-139.683 1625.48,-127.538 1746,-100 1749.24,-99.2589 1752.57,-98.2684 1755.84,-97.148"/>
<polygon fill="midnightblue" stroke="midnightblue" points="1757.22,-100.365 1765.31,-93.517 1754.72,-93.8288 1757.22,-100.365"/>
</g>
<!-- Node19 -->
<g id="node19" class="node"><title>Node19</title>
<polygon fill="none" stroke="#bfbfbf" points="635.5,-74.5 635.5,-93.5 784.5,-93.5 784.5,-74.5 635.5,-74.5"/>
<text text-anchor="middle" x="710" y="-81.5" font-family="Helvetica,sans-Serif" font-size="10.00">Math/GenVector/Rotation3D.h</text>
</g>
<!-- Node18&#45;&gt;Node19 -->
<g id="edge21" class="edge"><title>Node18&#45;&gt;Node19</title>
<path fill="none" stroke="midnightblue" d="M997.358,-136.467C936.831,-125.626 832.453,-106.932 767.543,-95.3062"/>
<polygon fill="midnightblue" stroke="midnightblue" points="767.938,-91.8213 757.477,-93.5034 766.704,-98.7116 767.938,-91.8213"/>
</g>
<!-- Node20 -->
<g id="node20" class="node"><title>Node20</title>
<polygon fill="none" stroke="#bfbfbf" points="803,-74.5 803,-93.5 959,-93.5 959,-74.5 803,-74.5"/>
<text text-anchor="middle" x="881" y="-81.5" font-family="Helvetica,sans-Serif" font-size="10.00">Math/GenVector/Transform3D.h</text>
</g>
<!-- Node18&#45;&gt;Node20 -->
<g id="edge22" class="edge"><title>Node18&#45;&gt;Node20</title>
<path fill="none" stroke="midnightblue" d="M1021.5,-136.403C993.371,-126.111 946.071,-108.806 914.211,-97.1504"/>
<polygon fill="midnightblue" stroke="midnightblue" points="915.047,-93.7295 904.454,-93.5806 912.642,-100.303 915.047,-93.7295"/>
</g>
<!-- Node21 -->
<g id="node21" class="node"><title>Node21</title>
<polygon fill="none" stroke="#bfbfbf" points="977,-74.5 977,-93.5 1137,-93.5 1137,-74.5 977,-74.5"/>
<text text-anchor="middle" x="1057" y="-81.5" font-family="Helvetica,sans-Serif" font-size="10.00">Math/GenVector/Translation3D.h</text>
</g>
<!-- Node18&#45;&gt;Node21 -->
<g id="edge23" class="edge"><title>Node18&#45;&gt;Node21</title>
<path fill="none" stroke="midnightblue" d="M1046.72,-136.403C1048.43,-127.849 1051.11,-114.45 1053.3,-103.476"/>
<polygon fill="midnightblue" stroke="midnightblue" points="1056.75,-104.073 1055.28,-93.5806 1049.89,-102.7 1056.75,-104.073"/>
</g>
<!-- Node22 -->
<g id="node22" class="node"><title>Node22</title>
<polygon fill="none" stroke="#bfbfbf" points="1155,-74.5 1155,-93.5 1231,-93.5 1231,-74.5 1155,-74.5"/>
<text text-anchor="middle" x="1193" y="-81.5" font-family="Helvetica,sans-Serif" font-size="10.00">TGeoMatrix.h</text>
</g>
<!-- Node18&#45;&gt;Node22 -->
<g id="edge25" class="edge"><title>Node18&#45;&gt;Node22</title>
<path fill="none" stroke="midnightblue" d="M1066.2,-136.403C1091.37,-126.2 1133.54,-109.105 1162.28,-97.4544"/>
<polygon fill="midnightblue" stroke="midnightblue" points="1163.88,-100.581 1171.83,-93.5806 1161.25,-94.0941 1163.88,-100.581"/>
</g>
<!-- Node23 -->
<g id="node23" class="node"><title>Node23</title>
<polygon fill="none" stroke="#bfbfbf" points="1249.5,-69 1249.5,-99 1400.5,-99 1400.5,-69 1249.5,-69"/>
<text text-anchor="start" x="1257.5" y="-87" font-family="Helvetica,sans-Serif" font-size="10.00">Math/GenVector/Displacement</text>
<text text-anchor="middle" x="1325" y="-76" font-family="Helvetica,sans-Serif" font-size="10.00">Vector3D.h</text>
</g>
<!-- Node18&#45;&gt;Node23 -->
<g id="edge26" class="edge"><title>Node18&#45;&gt;Node23</title>
<path fill="none" stroke="midnightblue" d="M1084.82,-136.467C1127.51,-127.318 1196.31,-112.576 1249.35,-101.21"/>
<polygon fill="midnightblue" stroke="midnightblue" points="1250.36,-104.574 1259.4,-99.0565 1248.89,-97.7296 1250.36,-104.574"/>
</g>
<!-- Node24 -->
<g id="node24" class="node"><title>Node24</title>
<polygon fill="none" stroke="#bfbfbf" points="1419,-74.5 1419,-93.5 1595,-93.5 1595,-74.5 1419,-74.5"/>
<text text-anchor="middle" x="1507" y="-81.5" font-family="Helvetica,sans-Serif" font-size="10.00">Math/GenVector/PositionVector3D.h</text>
</g>
<!-- Node18&#45;&gt;Node24 -->
<g id="edge27" class="edge"><title>Node18&#45;&gt;Node24</title>
<path fill="none" stroke="midnightblue" d="M1107.55,-137.824C1180.12,-129.368 1303.35,-114.613 1409,-100 1420.08,-98.4679 1431.84,-96.7473 1443.24,-95.0327"/>
<polygon fill="midnightblue" stroke="midnightblue" points="1443.76,-98.4929 1453.12,-93.5322 1442.71,-91.5721 1443.76,-98.4929"/>
</g>
<!-- Node25 -->
<g id="node25" class="node"><title>Node25</title>
<g id="a_node25"><a xlink:href="../../d2/dd0/Cartesian2D_8h.html" target="_top" xlink:title="MathUtils/Cartesian2D.h">
<polygon fill="none" stroke="black" points="1612.5,-74.5 1612.5,-93.5 1737.5,-93.5 1737.5,-74.5 1612.5,-74.5"/>
<text text-anchor="middle" x="1675" y="-81.5" font-family="Helvetica,sans-Serif" font-size="10.00">MathUtils/Cartesian2D.h</text>
</a>
</g>
</g>
<!-- Node18&#45;&gt;Node25 -->
<g id="edge28" class="edge"><title>Node18&#45;&gt;Node25</title>
<path fill="none" stroke="midnightblue" d="M1107.63,-142.503C1211.16,-137.805 1424.31,-125.716 1603,-100 1611.36,-98.7973 1620.2,-97.2151 1628.72,-95.5298"/>
<polygon fill="midnightblue" stroke="midnightblue" points="1629.43,-98.9566 1638.53,-93.5205 1628.03,-92.099 1629.43,-98.9566"/>
</g>
<!-- Node26 -->
<g id="node26" class="node"><title>Node26</title>
<polygon fill="none" stroke="#bfbfbf" points="1599.5,-1 1599.5,-31 1750.5,-31 1750.5,-1 1599.5,-1"/>
<text text-anchor="start" x="1607.5" y="-19" font-family="Helvetica,sans-Serif" font-size="10.00">Math/GenVector/Displacement</text>
<text text-anchor="middle" x="1675" y="-8" font-family="Helvetica,sans-Serif" font-size="10.00">Vector2D.h</text>
</g>
<!-- Node25&#45;&gt;Node26 -->
<g id="edge29" class="edge"><title>Node25&#45;&gt;Node26</title>
<path fill="none" stroke="midnightblue" d="M1675,-74.3717C1675,-65.9715 1675,-52.811 1675,-41.2126"/>
<polygon fill="midnightblue" stroke="midnightblue" points="1678.5,-41.1814 1675,-31.1815 1671.5,-41.1815 1678.5,-41.1814"/>
</g>
<!-- Node27 -->
<g id="node27" class="node"><title>Node27</title>
<polygon fill="none" stroke="#bfbfbf" points="1405,-6.5 1405,-25.5 1581,-25.5 1581,-6.5 1405,-6.5"/>
<text text-anchor="middle" x="1493" y="-13.5" font-family="Helvetica,sans-Serif" font-size="10.00">Math/GenVector/PositionVector2D.h</text>
</g>
<!-- Node25&#45;&gt;Node27 -->
<g id="edge30" class="edge"><title>Node25&#45;&gt;Node27</title>
<path fill="none" stroke="midnightblue" d="M1651.21,-74.3717C1619.24,-62.7779 1562.26,-42.1162 1526.11,-29.0087"/>
<polygon fill="midnightblue" stroke="midnightblue" points="1527.1,-25.6447 1516.51,-25.5259 1524.72,-32.2254 1527.1,-25.6447"/>
</g>
<!-- Node28&#45;&gt;Node2 -->
<g id="edge33" class="edge"><title>Node28&#45;&gt;Node2</title>
<path fill="none" stroke="midnightblue" d="M424.672,-192.961C354.509,-185.466 251.168,-172.903 162,-156 160.754,-155.764 159.486,-155.511 158.208,-155.245"/>
<polygon fill="midnightblue" stroke="midnightblue" points="158.906,-151.814 148.38,-153.019 157.36,-158.641 158.906,-151.814"/>
</g>
<!-- Node28&#45;&gt;Node3 -->
<g id="edge34" class="edge"><title>Node28&#45;&gt;Node3</title>
<path fill="none" stroke="midnightblue" d="M424.672,-194.261C348.143,-187.028 240.368,-174.088 202,-156 168.414,-140.166 160.034,-131.264 140,-100 127.174,-79.9852 120.291,-53.1994 116.891,-35.5389"/>
<polygon fill="midnightblue" stroke="midnightblue" points="120.331,-34.8904 115.168,-25.6389 113.435,-36.091 120.331,-34.8904"/>
</g>
<!-- Node28&#45;&gt;Node6 -->
<g id="edge46" class="edge"><title>Node28&#45;&gt;Node6</title>
<path fill="none" stroke="midnightblue" d="M512.612,-192.339C518.149,-183.494 526.552,-169.221 532,-156 539.153,-138.639 544.673,-117.874 548.084,-103.299"/>
<polygon fill="midnightblue" stroke="midnightblue" points="551.505,-104.043 550.274,-93.5195 544.674,-102.513 551.505,-104.043"/>
</g>
<!-- Node28&#45;&gt;Node18 -->
<g id="edge35" class="edge"><title>Node28&#45;&gt;Node18</title>
<path fill="none" stroke="midnightblue" d="M589.003,-192.769C693.516,-182.279 872.564,-164.308 972.373,-154.29"/>
<polygon fill="midnightblue" stroke="midnightblue" points="972.77,-157.768 982.37,-153.286 972.071,-150.803 972.77,-157.768"/>
</g>
<!-- Node29 -->
<g id="node29" class="node"><title>Node29</title>
<g id="a_node29"><a xlink:href="../../d6/d31/DetID_8h.html" target="_top" xlink:title="DetectorsBase/DetID.h">
<polygon fill="none" stroke="black" points="211.5,-136.5 211.5,-155.5 330.5,-155.5 330.5,-136.5 211.5,-136.5"/>
<text text-anchor="middle" x="271" y="-143.5" font-family="Helvetica,sans-Serif" font-size="10.00">DetectorsBase/DetID.h</text>
</a>
</g>
</g>
<!-- Node28&#45;&gt;Node29 -->
<g id="edge36" class="edge"><title>Node28&#45;&gt;Node29</title>
<path fill="none" stroke="midnightblue" d="M469.605,-192.444C428.608,-183.063 362.746,-167.993 318.216,-157.804"/>
<polygon fill="midnightblue" stroke="midnightblue" points="318.749,-154.335 308.22,-155.516 317.187,-161.159 318.749,-154.335"/>
</g>
<!-- Node35 -->
<g id="node35" class="node"><title>Node35</title>
<polygon fill="none" stroke="#bfbfbf" points="452.5,-136.5 452.5,-155.5 523.5,-155.5 523.5,-136.5 452.5,-136.5"/>
<text text-anchor="middle" x="488" y="-143.5" font-family="Helvetica,sans-Serif" font-size="10.00">FairLogger.h</text>
</g>
<!-- Node28&#45;&gt;Node35 -->
<g id="edge47" class="edge"><title>Node28&#45;&gt;Node35</title>
<path fill="none" stroke="midnightblue" d="M503.863,-192.083C501.317,-184.849 497.644,-174.409 494.473,-165.397"/>
<polygon fill="midnightblue" stroke="midnightblue" points="497.7,-164.023 491.079,-155.751 491.097,-166.346 497.7,-164.023"/>
</g>
<!-- Node29&#45;&gt;Node3 -->
<g id="edge38" class="edge"><title>Node29&#45;&gt;Node3</title>
<path fill="none" stroke="midnightblue" d="M241.513,-136.487C220.246,-129.281 191.747,-117.332 171,-100 149.154,-81.7504 132.037,-53.1336 122.472,-34.7234"/>
<polygon fill="midnightblue" stroke="midnightblue" points="125.552,-33.0584 117.953,-25.6762 119.29,-36.1863 125.552,-33.0584"/>
</g>
<!-- Node29&#45;&gt;Node6 -->
<g id="edge40" class="edge"><title>Node29&#45;&gt;Node6</title>
<path fill="none" stroke="midnightblue" d="M330.664,-137.232C380.316,-129.989 452.553,-117.638 514,-100 516.972,-99.1469 520.034,-98.1494 523.068,-97.0814"/>
<polygon fill="midnightblue" stroke="midnightblue" points="524.402,-100.319 532.527,-93.5201 521.935,-93.7682 524.402,-100.319"/>
</g>
<!-- Node30 -->
<g id="node30" class="node"><title>Node30</title>
<polygon fill="none" stroke="#bfbfbf" points="248,-74.5 248,-93.5 294,-93.5 294,-74.5 248,-74.5"/>
<text text-anchor="middle" x="271" y="-81.5" font-family="Helvetica,sans-Serif" font-size="10.00">cstdint</text>
</g>
<!-- Node29&#45;&gt;Node30 -->
<g id="edge37" class="edge"><title>Node29&#45;&gt;Node30</title>
<path fill="none" stroke="midnightblue" d="M271,-136.403C271,-127.938 271,-114.728 271,-103.82"/>
<polygon fill="midnightblue" stroke="midnightblue" points="274.5,-103.581 271,-93.5806 267.5,-103.581 274.5,-103.581"/>
</g>
<!-- Node31 -->
<g id="node31" class="node"><title>Node31</title>
<polygon fill="none" stroke="#bfbfbf" points="312,-74.5 312,-93.5 374,-93.5 374,-74.5 312,-74.5"/>
<text text-anchor="middle" x="343" y="-81.5" font-family="Helvetica,sans-Serif" font-size="10.00">type_traits</text>
</g>
<!-- Node29&#45;&gt;Node31 -->
<g id="edge39" class="edge"><title>Node29&#45;&gt;Node31</title>
<path fill="none" stroke="midnightblue" d="M281.316,-136.403C292.651,-126.958 311.073,-111.606 324.839,-100.134"/>
<polygon fill="midnightblue" stroke="midnightblue" points="327.262,-102.671 332.703,-93.5806 322.78,-97.2937 327.262,-102.671"/>
</g>
<!-- Node29&#45;&gt;Node32 -->
<g id="edge41" class="edge"><title>Node29&#45;&gt;Node32</title>
<path fill="none" stroke="midnightblue" d="M296.503,-136.403C327.301,-126.022 379.265,-108.506 413.848,-96.849"/>
<polygon fill="midnightblue" stroke="midnightblue" points="415.186,-100.092 423.544,-93.5806 412.95,-93.4582 415.186,-100.092"/>
</g>
<!-- Node34 -->
<g id="node34" class="node"><title>Node34</title>
<polygon fill="none" stroke="#bfbfbf" points="180.5,-74.5 180.5,-93.5 229.5,-93.5 229.5,-74.5 180.5,-74.5"/>
<text text-anchor="middle" x="205" y="-81.5" font-family="Helvetica,sans-Serif" font-size="10.00">cassert</text>
</g>
<!-- Node29&#45;&gt;Node34 -->
<g id="edge45" class="edge"><title>Node29&#45;&gt;Node34</title>
<path fill="none" stroke="midnightblue" d="M261.544,-136.403C251.252,-127.047 234.584,-111.895 222.006,-100.46"/>
<polygon fill="midnightblue" stroke="midnightblue" points="224.192,-97.7176 214.439,-93.5806 219.484,-102.897 224.192,-97.7176"/>
</g>
<!-- Node32&#45;&gt;Node3 -->
<g id="edge44" class="edge"><title>Node32&#45;&gt;Node3</title>
<path fill="none" stroke="midnightblue" d="M411.835,-74.4558C402.137,-72.2877 391.688,-70.0058 382,-68 295.366,-50.0639 192.474,-31.1496 143.174,-22.2339"/>
<polygon fill="midnightblue" stroke="midnightblue" points="143.678,-18.7684 133.215,-20.4372 142.435,-25.6571 143.678,-18.7684"/>
</g>
<!-- Node32&#45;&gt;Node4 -->
<g id="edge43" class="edge"><title>Node32&#45;&gt;Node4</title>
<path fill="none" stroke="midnightblue" d="M449,-74.3717C449,-64.6426 449,-48.528 449,-35.8504"/>
<polygon fill="midnightblue" stroke="midnightblue" points="452.5,-35.8411 449,-25.8411 445.5,-35.8412 452.5,-35.8411"/>
</g>
<!-- Node32&#45;&gt;Node33 -->
<g id="edge42" class="edge"><title>Node32&#45;&gt;Node33</title>
<path fill="none" stroke="midnightblue" d="M480.668,-74.4889C491.479,-71.9357 503.693,-69.4347 515,-68 1063.72,1.62069 1209.12,-91.7778 1759,-32 1768.99,-30.9137 1779.61,-29.2519 1789.72,-27.4243"/>
<polygon fill="midnightblue" stroke="midnightblue" points="1790.43,-30.8514 1799.61,-25.5566 1789.13,-23.973 1790.43,-30.8514"/>
</g>
</g>
</svg>
