<?xml version="1.0" encoding="UTF-8" standalone="no"?>
<!DOCTYPE svg PUBLIC "-//W3C//DTD SVG 1.1//EN"
 "http://www.w3.org/Graphics/SVG/1.1/DTD/svg11.dtd">
<!-- Generated by graphviz version 2.36.0 (20140111.2315)
 -->
<!-- Title: o2::field::MagFieldFast Pages: 1 -->
<svg width="240pt" height="500pt"
 viewBox="0.00 0.00 240.00 500.00" xmlns="http://www.w3.org/2000/svg" xmlns:xlink="http://www.w3.org/1999/xlink">
<g id="graph0" class="graph" transform="scale(1 1) rotate(0) translate(4 496)">
<title>o2::field::MagFieldFast</title>
<!-- Node1 -->
<g id="node1" class="node"><title>Node1</title>
<polygon fill="#bfbfbf" stroke="black" points="-1,-1 -1,-267 115,-267 115,-1 -1,-1"/>
<text text-anchor="middle" x="57" y="-255" font-family="Helvetica,sans-Serif" font-size="10.00">o2::field::MagFieldFast</text>
<polyline fill="none" stroke="black" points="-1,-248 115,-248 "/>
<text text-anchor="middle" x="57" y="-236" font-family="Helvetica,sans-Serif" font-size="10.00"> </text>
<polyline fill="none" stroke="black" points="-1,-229 115,-229 "/>
<text text-anchor="start" x="7" y="-217" font-family="Helvetica,sans-Serif" font-size="10.00">+ MagFieldFast()</text>
<text text-anchor="start" x="7" y="-206" font-family="Helvetica,sans-Serif" font-size="10.00">+ MagFieldFast()</text>
<text text-anchor="start" x="7" y="-195" font-family="Helvetica,sans-Serif" font-size="10.00">+ MagFieldFast()</text>
<text text-anchor="start" x="7" y="-184" font-family="Helvetica,sans-Serif" font-size="10.00">+ ~MagFieldFast()</text>
<text text-anchor="start" x="7" y="-173" font-family="Helvetica,sans-Serif" font-size="10.00">+ LoadData()</text>
<text text-anchor="start" x="7" y="-162" font-family="Helvetica,sans-Serif" font-size="10.00">+ Field()</text>
<text text-anchor="start" x="7" y="-151" font-family="Helvetica,sans-Serif" font-size="10.00">+ Field()</text>
<text text-anchor="start" x="7" y="-140" font-family="Helvetica,sans-Serif" font-size="10.00">+ GetBcomp()</text>
<text text-anchor="start" x="7" y="-129" font-family="Helvetica,sans-Serif" font-size="10.00">+ GetBcomp()</text>
<text text-anchor="start" x="7" y="-118" font-family="Helvetica,sans-Serif" font-size="10.00">+ GetBx()</text>
<text text-anchor="start" x="7" y="-107" font-family="Helvetica,sans-Serif" font-size="10.00">+ GetBx()</text>
<text text-anchor="start" x="7" y="-96" font-family="Helvetica,sans-Serif" font-size="10.00">+ GetBy()</text>
<text text-anchor="start" x="7" y="-85" font-family="Helvetica,sans-Serif" font-size="10.00">+ GetBy()</text>
<text text-anchor="start" x="7" y="-74" font-family="Helvetica,sans-Serif" font-size="10.00">+ GetBz()</text>
<text text-anchor="start" x="7" y="-63" font-family="Helvetica,sans-Serif" font-size="10.00">+ GetBz()</text>
<text text-anchor="start" x="7" y="-52" font-family="Helvetica,sans-Serif" font-size="10.00">+ setFactorSol()</text>
<text text-anchor="start" x="7" y="-41" font-family="Helvetica,sans-Serif" font-size="10.00">+ getFactorSol()</text>
<text text-anchor="start" x="7" y="-30" font-family="Helvetica,sans-Serif" font-size="10.00"># GetSegment()</text>
<text text-anchor="start" x="7" y="-19" font-family="Helvetica,sans-Serif" font-size="10.00"># GetQuadrant()</text>
<text text-anchor="start" x="7" y="-8" font-family="Helvetica,sans-Serif" font-size="10.00"># CalcPol()</text>
</g>
<!-- Node2 -->
<g id="node2" class="node"><title>Node2</title>
<g id="a_node2"><a xlink:href="../../d4/dc3/classfloat.html" target="_top" xlink:title="{float\n||}">
<polygon fill="none" stroke="black" points="64.5,-434.5 64.5,-491.5 99.5,-491.5 99.5,-434.5 64.5,-434.5"/>
<text text-anchor="middle" x="82" y="-479.5" font-family="Helvetica,sans-Serif" font-size="10.00">float</text>
<polyline fill="none" stroke="black" points="64.5,-472.5 99.5,-472.5 "/>
<text text-anchor="middle" x="82" y="-460.5" font-family="Helvetica,sans-Serif" font-size="10.00"> </text>
<polyline fill="none" stroke="black" points="64.5,-453.5 99.5,-453.5 "/>
<text text-anchor="middle" x="82" y="-441.5" font-family="Helvetica,sans-Serif" font-size="10.00"> </text>
</a>
</g>
</g>
<!-- Node2&#45;&gt;Node1 -->
<g id="edge1" class="edge"><title>Node2&#45;&gt;Node1</title>
<path fill="none" stroke="#404040" d="M67.2127,-434.346C60.5239,-420.296 53.3723,-402.699 50,-386 43.1108,-351.885 41.1994,-314.637 41.831,-279.527"/>
<polygon fill="none" stroke="#404040" points="41.8395,-279.202 37.9994,-273.099 42.1565,-267.206 45.9966,-273.31 41.8395,-279.202"/>
<text text-anchor="middle" x="78.5" y="-359.5" font-family="Helvetica,sans-Serif" font-size="10.00"> #kSolZMax</text>
<text text-anchor="middle" x="78.5" y="-348.5" font-family="Helvetica,sans-Serif" font-size="10.00">#mFactorSol</text>
<text text-anchor="middle" x="78.5" y="-337.5" font-family="Helvetica,sans-Serif" font-size="10.00">#kSolR2Max</text>
</g>
<!-- Node3 -->
<g id="node3" class="node"><title>Node3</title>
<g id="a_node3"><a xlink:href="../../dd/df3/structo2_1_1field_1_1MagFieldFast_1_1SolParam.html" target="_top" xlink:title="{o2::field::MagFieldFast\l::SolParam\n||}">
<polygon fill="none" stroke="black" points="116,-317 116,-385 232,-385 232,-317 116,-317"/>
<text text-anchor="start" x="124" y="-373" font-family="Helvetica,sans-Serif" font-size="10.00">o2::field::MagFieldFast</text>
<text text-anchor="middle" x="174" y="-362" font-family="Helvetica,sans-Serif" font-size="10.00">::SolParam</text>
<polyline fill="none" stroke="black" points="116,-355 232,-355 "/>
<text text-anchor="middle" x="174" y="-343" font-family="Helvetica,sans-Serif" font-size="10.00"> </text>
<polyline fill="none" stroke="black" points="116,-336 232,-336 "/>
<text text-anchor="middle" x="174" y="-324" font-family="Helvetica,sans-Serif" font-size="10.00"> </text>
</a>
</g>
</g>
<!-- Node2&#45;&gt;Node3 -->
<g id="edge3" class="edge"><title>Node2&#45;&gt;Node3</title>
<path fill="none" stroke="#404040" d="M99.521,-441.051C110.401,-428.042 124.785,-410.844 138.009,-395.032"/>
<polygon fill="none" stroke="#404040" points="138.353,-394.622 139.134,-387.453 146.052,-385.417 145.271,-392.585 138.353,-394.622"/>
<text text-anchor="middle" x="151" y="-407.5" font-family="Helvetica,sans-Serif" font-size="10.00"> +parBxyz</text>
</g>
<!-- Node3&#45;&gt;Node1 -->
<g id="edge2" class="edge"><title>Node3&#45;&gt;Node1</title>
<path fill="none" stroke="#404040" d="M155.975,-316.877C146.315,-299.126 133.767,-276.068 120.868,-252.365"/>
<polygon fill="none" stroke="#404040" points="120.863,-252.355 114.482,-248.997 115.127,-241.815 121.509,-245.173 120.863,-252.355"/>
<text text-anchor="middle" x="165" y="-289.5" font-family="Helvetica,sans-Serif" font-size="10.00"> #mSolPar</text>
</g>
</g>
</svg>
