<?xml version="1.0" encoding="UTF-8" standalone="no"?>
<!DOCTYPE svg PUBLIC "-//W3C//DTD SVG 1.1//EN"
 "http://www.w3.org/Graphics/SVG/1.1/DTD/svg11.dtd">
<!-- Generated by graphviz version 2.36.0 (20140111.2315)
 -->
<!-- Title: o2::Header::HeartbeatFrameSequence&lt; SlotDataT &gt;::FrameIndex Pages: 1 -->
<svg width="392pt" height="356pt"
 viewBox="0.00 0.00 392.00 356.00" xmlns="http://www.w3.org/2000/svg" xmlns:xlink="http://www.w3.org/1999/xlink">
<g id="graph0" class="graph" transform="scale(1 1) rotate(0) translate(4 352)">
<title>o2::Header::HeartbeatFrameSequence&lt; SlotDataT &gt;::FrameIndex</title>
<!-- Node1 -->
<g id="node1" class="node"><title>Node1</title>
<polygon fill="#bfbfbf" stroke="black" points="169.5,-0.5 169.5,-79.5 310.5,-79.5 310.5,-0.5 169.5,-0.5"/>
<text text-anchor="start" x="177.5" y="-67.5" font-family="Helvetica,sans-Serif" font-size="10.00">o2::Header::HeartbeatFrame</text>
<text text-anchor="start" x="177.5" y="-56.5" font-family="Helvetica,sans-Serif" font-size="10.00">Sequence&lt; SlotDataT &gt;::</text>
<text text-anchor="middle" x="240" y="-45.5" font-family="Helvetica,sans-Serif" font-size="10.00">FrameIndex</text>
<polyline fill="none" stroke="black" points="169.5,-38.5 310.5,-38.5 "/>
<text text-anchor="middle" x="240" y="-26.5" font-family="Helvetica,sans-Serif" font-size="10.00"> </text>
<polyline fill="none" stroke="black" points="169.5,-19.5 310.5,-19.5 "/>
<text text-anchor="start" x="177.5" y="-7.5" font-family="Helvetica,sans-Serif" font-size="10.00">+ operator&lt;()</text>
</g>
<!-- Node2 -->
<g id="node2" class="node"><title>Node2</title>
<g id="a_node2"><a xlink:href="../../df/d31/structo2_1_1Header_1_1HeartbeatHeader.html" target="_top" xlink:title="{o2::Header::HeartbeatHeader\n||+ operator bool()\l+ operator\&lt;()\l+ operator uint64_t()\l}">
<polygon fill="none" stroke="black" points="93.5,-128.5 93.5,-207.5 238.5,-207.5 238.5,-128.5 93.5,-128.5"/>
<text text-anchor="middle" x="166" y="-195.5" font-family="Helvetica,sans-Serif" font-size="10.00">o2::Header::HeartbeatHeader</text>
<polyline fill="none" stroke="black" points="93.5,-188.5 238.5,-188.5 "/>
<text text-anchor="middle" x="166" y="-176.5" font-family="Helvetica,sans-Serif" font-size="10.00"> </text>
<polyline fill="none" stroke="black" points="93.5,-169.5 238.5,-169.5 "/>
<text text-anchor="start" x="101.5" y="-157.5" font-family="Helvetica,sans-Serif" font-size="10.00">+ operator bool()</text>
<text text-anchor="start" x="101.5" y="-146.5" font-family="Helvetica,sans-Serif" font-size="10.00">+ operator&lt;()</text>
<text text-anchor="start" x="101.5" y="-135.5" font-family="Helvetica,sans-Serif" font-size="10.00">+ operator uint64_t()</text>
</a>
</g>
</g>
<!-- Node2&#45;&gt;Node1 -->
<g id="edge1" class="edge"><title>Node2&#45;&gt;Node1</title>
<path fill="none" stroke="#404040" d="M178.632,-128.388C182.623,-118.201 187.461,-107.427 193,-98 194.649,-95.194 196.433,-92.3842 198.308,-89.599"/>
<polygon fill="none" stroke="#404040" points="198.434,-89.424 198.679,-82.2171 205.426,-79.6717 205.181,-86.8786 198.434,-89.424"/>
<text text-anchor="middle" x="225.5" y="-101.5" font-family="Helvetica,sans-Serif" font-size="10.00"> +columnIndex</text>
</g>
<!-- Node3 -->
<g id="node3" class="node"><title>Node3</title>
<polygon fill="none" stroke="#bfbfbf" points="-0.5,-289.5 -0.5,-346.5 50.5,-346.5 50.5,-289.5 -0.5,-289.5"/>
<text text-anchor="middle" x="25" y="-334.5" font-family="Helvetica,sans-Serif" font-size="10.00">uint64_t</text>
<polyline fill="none" stroke="#bfbfbf" points="-0.5,-327.5 50.5,-327.5 "/>
<text text-anchor="middle" x="25" y="-315.5" font-family="Helvetica,sans-Serif" font-size="10.00"> </text>
<polyline fill="none" stroke="#bfbfbf" points="-0.5,-308.5 50.5,-308.5 "/>
<text text-anchor="middle" x="25" y="-296.5" font-family="Helvetica,sans-Serif" font-size="10.00"> </text>
</g>
<!-- Node3&#45;&gt;Node2 -->
<g id="edge2" class="edge"><title>Node3&#45;&gt;Node2</title>
<path fill="none" stroke="#404040" d="M27.4121,-289.187C30.3959,-269.602 37.0704,-243.805 52,-226 60.4906,-215.874 71.2235,-207.371 82.6906,-200.284"/>
<polygon fill="none" stroke="#404040" points="82.9679,-200.125 86.1904,-193.674 93.3846,-194.168 90.1621,-200.619 82.9679,-200.125"/>
<text text-anchor="middle" x="83" y="-245.5" font-family="Helvetica,sans-Serif" font-size="10.00"> +headerWord</text>
</g>
<!-- Node4 -->
<g id="node4" class="node"><title>Node4</title>
<polygon fill="none" stroke="#bfbfbf" points="93.5,-289 93.5,-347 122.5,-347 122.5,-289 93.5,-289"/>
<polyline fill="none" stroke="#bfbfbf" points="93.5,-327 122.5,-327 "/>
<text text-anchor="middle" x="108" y="-315" font-family="Helvetica,sans-Serif" font-size="10.00"> </text>
<polyline fill="none" stroke="#bfbfbf" points="93.5,-308 122.5,-308 "/>
<text text-anchor="middle" x="108" y="-296" font-family="Helvetica,sans-Serif" font-size="10.00"> </text>
</g>
<!-- Node4&#45;&gt;Node2 -->
<g id="edge3" class="edge"><title>Node4&#45;&gt;Node2</title>
<path fill="none" stroke="#404040" d="M112.828,-288.814C116.523,-270.468 122.451,-246.27 131,-226 132.045,-223.522 133.187,-221.027 134.401,-218.536"/>
<polygon fill="none" stroke="#404040" points="134.503,-218.342 133.76,-211.169 140.096,-207.725 140.838,-214.898 134.503,-218.342"/>
<text text-anchor="middle" x="146.5" y="-245.5" font-family="Helvetica,sans-Serif" font-size="10.00"> +@11</text>
</g>
<!-- Node5 -->
<g id="node5" class="node"><title>Node5</title>
<polygon fill="none" stroke="#bfbfbf" points="140.5,-289.5 140.5,-346.5 191.5,-346.5 191.5,-289.5 140.5,-289.5"/>
<text text-anchor="middle" x="166" y="-334.5" font-family="Helvetica,sans-Serif" font-size="10.00">uint16_t</text>
<polyline fill="none" stroke="#bfbfbf" points="140.5,-327.5 191.5,-327.5 "/>
<text text-anchor="middle" x="166" y="-315.5" font-family="Helvetica,sans-Serif" font-size="10.00"> </text>
<polyline fill="none" stroke="#bfbfbf" points="140.5,-308.5 191.5,-308.5 "/>
<text text-anchor="middle" x="166" y="-296.5" font-family="Helvetica,sans-Serif" font-size="10.00"> </text>
</g>
<!-- Node5&#45;&gt;Node2 -->
<g id="edge4" class="edge"><title>Node5&#45;&gt;Node2</title>
<path fill="none" stroke="#404040" d="M166,-289.162C166,-269.643 166,-242.99 166,-219.745"/>
<polygon fill="none" stroke="#404040" points="166,-219.603 162,-213.603 166,-207.603 170,-213.603 166,-219.603"/>
<text text-anchor="middle" x="189.5" y="-251" font-family="Helvetica,sans-Serif" font-size="10.00"> +reserved</text>
<text text-anchor="middle" x="189.5" y="-240" font-family="Helvetica,sans-Serif" font-size="10.00">+bcid</text>
</g>
<!-- Node6 -->
<g id="node6" class="node"><title>Node6</title>
<polygon fill="none" stroke="#bfbfbf" points="210.5,-289.5 210.5,-346.5 261.5,-346.5 261.5,-289.5 210.5,-289.5"/>
<text text-anchor="middle" x="236" y="-334.5" font-family="Helvetica,sans-Serif" font-size="10.00">uint32_t</text>
<polyline fill="none" stroke="#bfbfbf" points="210.5,-327.5 261.5,-327.5 "/>
<text text-anchor="middle" x="236" y="-315.5" font-family="Helvetica,sans-Serif" font-size="10.00"> </text>
<polyline fill="none" stroke="#bfbfbf" points="210.5,-308.5 261.5,-308.5 "/>
<text text-anchor="middle" x="236" y="-296.5" font-family="Helvetica,sans-Serif" font-size="10.00"> </text>
</g>
<!-- Node6&#45;&gt;Node2 -->
<g id="edge5" class="edge"><title>Node6&#45;&gt;Node2</title>
<path fill="none" stroke="#404040" d="M232.677,-289.17C229.649,-270.532 224.056,-245.868 214,-226 212.62,-223.273 211.085,-220.564 209.437,-217.893"/>
<polygon fill="none" stroke="#404040" points="209.339,-217.748 202.66,-215.03 202.601,-207.819 209.28,-210.537 209.339,-217.748"/>
<text text-anchor="middle" x="243" y="-245.5" font-family="Helvetica,sans-Serif" font-size="10.00"> +orbit</text>
</g>
<!-- Node7 -->
<g id="node7" class="node"><title>Node7</title>
<polygon fill="none" stroke="#bfbfbf" points="280,-289.5 280,-346.5 326,-346.5 326,-289.5 280,-289.5"/>
<text text-anchor="middle" x="303" y="-334.5" font-family="Helvetica,sans-Serif" font-size="10.00">uint8_t</text>
<polyline fill="none" stroke="#bfbfbf" points="280,-327.5 326,-327.5 "/>
<text text-anchor="middle" x="303" y="-315.5" font-family="Helvetica,sans-Serif" font-size="10.00"> </text>
<polyline fill="none" stroke="#bfbfbf" points="280,-308.5 326,-308.5 "/>
<text text-anchor="middle" x="303" y="-296.5" font-family="Helvetica,sans-Serif" font-size="10.00"> </text>
</g>
<!-- Node7&#45;&gt;Node2 -->
<g id="edge6" class="edge"><title>Node7&#45;&gt;Node2</title>
<path fill="none" stroke="#404040" d="M295.109,-289.462C288.463,-270.011 277.387,-244.259 261,-226 257.11,-221.665 252.811,-217.559 248.254,-213.686"/>
<polygon fill="none" stroke="#404040" points="248.013,-213.497 240.825,-212.925 238.587,-206.07 245.776,-206.641 248.013,-213.497"/>
<text text-anchor="middle" x="336" y="-262" font-family="Helvetica,sans-Serif" font-size="10.00"> +triggerType</text>
<text text-anchor="middle" x="336" y="-251" font-family="Helvetica,sans-Serif" font-size="10.00">+headerLength</text>
<text text-anchor="middle" x="336" y="-240" font-family="Helvetica,sans-Serif" font-size="10.00">+blockType</text>
<text text-anchor="middle" x="336" y="-229" font-family="Helvetica,sans-Serif" font-size="10.00">+reservedTriggerType</text>
</g>
<!-- Node8 -->
<g id="node8" class="node"><title>Node8</title>
<polygon fill="none" stroke="#bfbfbf" points="257,-139.5 257,-196.5 313,-196.5 313,-139.5 257,-139.5"/>
<text text-anchor="middle" x="285" y="-184.5" font-family="Helvetica,sans-Serif" font-size="10.00">unsigned</text>
<polyline fill="none" stroke="#bfbfbf" points="257,-177.5 313,-177.5 "/>
<text text-anchor="middle" x="285" y="-165.5" font-family="Helvetica,sans-Serif" font-size="10.00"> </text>
<polyline fill="none" stroke="#bfbfbf" points="257,-158.5 313,-158.5 "/>
<text text-anchor="middle" x="285" y="-146.5" font-family="Helvetica,sans-Serif" font-size="10.00"> </text>
</g>
<!-- Node8&#45;&gt;Node1 -->
<g id="edge7" class="edge"><title>Node8&#45;&gt;Node1</title>
<path fill="none" stroke="#404040" d="M275.125,-139.349C270.086,-125.242 263.8,-107.639 257.943,-91.2397"/>
<polygon fill="none" stroke="#404040" points="257.814,-90.8795 252.029,-86.5744 253.778,-79.5786 259.563,-83.8837 257.814,-90.8795"/>
<text text-anchor="middle" x="276.5" y="-101.5" font-family="Helvetica,sans-Serif" font-size="10.00"> +slot</text>
</g>
</g>
</svg>
