<?xml version="1.0" encoding="UTF-8" standalone="no"?>
<!DOCTYPE svg PUBLIC "-//W3C//DTD SVG 1.1//EN"
 "http://www.w3.org/Graphics/SVG/1.1/DTD/svg11.dtd">
<!-- Generated by graphviz version 2.36.0 (20140111.2315)
 -->
<!-- Title: /home/travis/build/AliceO2Group/AliceO2/Detectors/ITSMFT/common/base/include/ITSMFTBase/GeometryTGeo.h Pages: 1 -->
<!--zoomable 320 -->
<svg id="main" version="1.1" xmlns="http://www.w3.org/2000/svg" xmlns:xlink="http://www.w3.org/1999/xlink" xml:space="preserve" onload="init(evt)">
<style type="text/css"><![CDATA[
.edge:hover path { stroke: red; }
.edge:hover polygon { stroke: red; fill: red; }
]]></style>
<script type="text/javascript"><![CDATA[
var edges = document.getElementsByTagName('g');
if (edges && edges.length) {
  for (var i=0;i<edges.length;i++) {
    if (edges[i].id.substr(0,4)=='edge') {
      edges[i].setAttribute('class','edge');
    }
  }
}
]]></script>
        <defs>
                <circle id="rim" cx="0" cy="0" r="7"/>
                <circle id="rim2" cx="0" cy="0" r="3.5"/>
                <g id="zoomPlus">
                        <use xlink:href="#rim" fill="#404040">
                                <set attributeName="fill" to="#808080" begin="zoomplus.mouseover" end="zoomplus.mouseout"/>
                        </use>
                        <path d="M-4,0h8M0,-4v8" fill="none" stroke="white" stroke-width="1.5" pointer-events="none"/>
                </g>
                <g id="zoomMin">
                        <use xlink:href="#rim" fill="#404040">
                                <set attributeName="fill" to="#808080" begin="zoomminus.mouseover" end="zoomminus.mouseout"/>
                        </use>
                        <path d="M-4,0h8" fill="none" stroke="white" stroke-width="1.5" pointer-events="none"/>
                </g>
                <g id="dirArrow">
                        <path fill="none" stroke="white" stroke-width="1.5" d="M0,-3.0v7 M-2.5,-0.5L0,-3.0L2.5,-0.5"/>
                </g>
               <g id="resetDef">
                       <use xlink:href="#rim2" fill="#404040">
                               <set attributeName="fill" to="#808080" begin="reset.mouseover" end="reset.mouseout"/>
                       </use>
               </g>
        </defs>

<script type="text/javascript">
var viewWidth = 1673;
var viewHeight = 320;
var sectionId = 'dynsection-0';
</script>
<script xlink:href="../../svgpan.js"/>
<svg id="graph" class="graph">
<g id="viewport">
<title>/home/travis/build/AliceO2Group/AliceO2/Detectors/ITSMFT/common/base/include/ITSMFTBase/GeometryTGeo.h</title>
<!-- Node1 -->
<g id="node1" class="node"><title>Node1</title>
<polygon fill="#bfbfbf" stroke="black" points="1315,-248.5 1315,-311.5 1457,-311.5 1457,-248.5 1315,-248.5"/>
<text text-anchor="start" x="1323" y="-299.5" font-family="Helvetica,sans-Serif" font-size="10.00">/home/travis/build</text>
<text text-anchor="start" x="1323" y="-288.5" font-family="Helvetica,sans-Serif" font-size="10.00">/AliceO2Group/AliceO2</text>
<text text-anchor="start" x="1323" y="-277.5" font-family="Helvetica,sans-Serif" font-size="10.00">/Detectors/ITSMFT/common</text>
<text text-anchor="start" x="1323" y="-266.5" font-family="Helvetica,sans-Serif" font-size="10.00">/base/include/ITSMFTBase</text>
<text text-anchor="middle" x="1386" y="-255.5" font-family="Helvetica,sans-Serif" font-size="10.00">/GeometryTGeo.h</text>
</g>
<!-- Node2 -->
<g id="node2" class="node"><title>Node2</title>
<g id="a_node2"><a xlink:href="../../d4/d20/DetMatrixCache_8h.html" target="_top" xlink:title="DetectorsBase/DetMatrixCache.h">
<polygon fill="none" stroke="black" points="1169,-192.5 1169,-211.5 1333,-211.5 1333,-192.5 1169,-192.5"/>
<text text-anchor="middle" x="1251" y="-199.5" font-family="Helvetica,sans-Serif" font-size="10.00">DetectorsBase/DetMatrixCache.h</text>
</a>
</g>
</g>
<!-- Node1&#45;&gt;Node2 -->
<g id="edge1" class="edge"><title>Node1&#45;&gt;Node2</title>
<path fill="none" stroke="midnightblue" d="M1331.48,-248.307C1311.97,-237.322 1290.95,-225.489 1275.29,-216.672"/>
<polygon fill="midnightblue" stroke="midnightblue" points="1276.72,-213.463 1266.29,-211.607 1273.29,-219.562 1276.72,-213.463"/>
</g>
<!-- Node25 -->
<g id="node25" class="node"><title>Node25</title>
<polygon fill="none" stroke="#bfbfbf" points="1351.5,-192.5 1351.5,-211.5 1420.5,-211.5 1420.5,-192.5 1351.5,-192.5"/>
<text text-anchor="middle" x="1386" y="-199.5" font-family="Helvetica,sans-Serif" font-size="10.00">TObjArray.h</text>
</g>
<!-- Node1&#45;&gt;Node25 -->
<g id="edge28" class="edge"><title>Node1&#45;&gt;Node25</title>
<path fill="none" stroke="midnightblue" d="M1386,-248.088C1386,-239.15 1386,-229.669 1386,-221.719"/>
<polygon fill="midnightblue" stroke="midnightblue" points="1389.5,-221.718 1386,-211.718 1382.5,-221.718 1389.5,-221.718"/>
</g>
<!-- Node26 -->
<g id="node26" class="node"><title>Node26</title>
<polygon fill="none" stroke="#bfbfbf" points="1438.5,-192.5 1438.5,-211.5 1479.5,-211.5 1479.5,-192.5 1438.5,-192.5"/>
<text text-anchor="middle" x="1459" y="-199.5" font-family="Helvetica,sans-Serif" font-size="10.00">string</text>
</g>
<!-- Node1&#45;&gt;Node26 -->
<g id="edge29" class="edge"><title>Node1&#45;&gt;Node26</title>
<path fill="none" stroke="midnightblue" d="M1415.69,-248.088C1425.26,-238.122 1435.48,-227.482 1443.59,-219.042"/>
<polygon fill="midnightblue" stroke="midnightblue" points="1446.22,-221.355 1450.63,-211.718 1441.17,-216.506 1446.22,-221.355"/>
</g>
<!-- Node3 -->
<g id="node3" class="node"><title>Node3</title>
<polygon fill="none" stroke="#bfbfbf" points="622,-136.5 622,-155.5 666,-155.5 666,-136.5 622,-136.5"/>
<text text-anchor="middle" x="644" y="-143.5" font-family="Helvetica,sans-Serif" font-size="10.00">vector</text>
</g>
<!-- Node2&#45;&gt;Node3 -->
<g id="edge2" class="edge"><title>Node2&#45;&gt;Node3</title>
<path fill="none" stroke="midnightblue" d="M1168.58,-200.086C1057.99,-197.633 855.562,-188.839 676.035,-156.054"/>
<polygon fill="midnightblue" stroke="midnightblue" points="676.621,-152.603 666.15,-154.22 675.344,-159.486 676.621,-152.603"/>
</g>
<!-- Node4 -->
<g id="node4" class="node"><title>Node4</title>
<polygon fill="none" stroke="#bfbfbf" points="1294,-6.5 1294,-25.5 1332,-25.5 1332,-6.5 1294,-6.5"/>
<text text-anchor="middle" x="1313" y="-13.5" font-family="Helvetica,sans-Serif" font-size="10.00">array</text>
</g>
<!-- Node2&#45;&gt;Node4 -->
<g id="edge3" class="edge"><title>Node2&#45;&gt;Node4</title>
<path fill="none" stroke="midnightblue" d="M1253.99,-192.125C1263.59,-163.647 1293.74,-74.1662 1306.83,-35.3099"/>
<polygon fill="midnightblue" stroke="midnightblue" points="1310.16,-36.3798 1310.04,-25.7857 1303.53,-34.1445 1310.16,-36.3798"/>
</g>
<!-- Node5 -->
<g id="node5" class="node"><title>Node5</title>
<g id="a_node5"><a xlink:href="../../dd/d76/Cartesian3D_8h.html" target="_top" xlink:title="MathUtils/Cartesian3D.h">
<polygon fill="none" stroke="black" points="683.5,-136.5 683.5,-155.5 808.5,-155.5 808.5,-136.5 683.5,-136.5"/>
<text text-anchor="middle" x="746" y="-143.5" font-family="Helvetica,sans-Serif" font-size="10.00">MathUtils/Cartesian3D.h</text>
</a>
</g>
</g>
<!-- Node2&#45;&gt;Node5 -->
<g id="edge4" class="edge"><title>Node2&#45;&gt;Node5</title>
<path fill="none" stroke="midnightblue" d="M1171.26,-192.473C1074.32,-182.107 912.101,-164.761 818.534,-154.756"/>
<polygon fill="midnightblue" stroke="midnightblue" points="818.902,-151.276 808.586,-153.692 818.157,-158.236 818.902,-151.276"/>
</g>
<!-- Node9 -->
<g id="node9" class="node"><title>Node9</title>
<polygon fill="none" stroke="#bfbfbf" points="1191,-74.5 1191,-93.5 1247,-93.5 1247,-74.5 1191,-74.5"/>
<text text-anchor="middle" x="1219" y="-81.5" font-family="Helvetica,sans-Serif" font-size="10.00">Rtypes.h</text>
</g>
<!-- Node2&#45;&gt;Node9 -->
<g id="edge26" class="edge"><title>Node2&#45;&gt;Node9</title>
<path fill="none" stroke="midnightblue" d="M1248.59,-192.281C1243.4,-173.463 1231.05,-128.697 1224.06,-103.34"/>
<polygon fill="midnightblue" stroke="midnightblue" points="1227.38,-102.214 1221.35,-93.5048 1220.63,-104.075 1227.38,-102.214"/>
</g>
<!-- Node17 -->
<g id="node17" class="node"><title>Node17</title>
<g id="a_node17"><a xlink:href="../../d6/d31/DetID_8h.html" target="_top" xlink:title="DetectorsBase/DetID.h">
<polygon fill="none" stroke="black" points="1303.5,-136.5 1303.5,-155.5 1422.5,-155.5 1422.5,-136.5 1303.5,-136.5"/>
<text text-anchor="middle" x="1363" y="-143.5" font-family="Helvetica,sans-Serif" font-size="10.00">DetectorsBase/DetID.h</text>
</a>
</g>
</g>
<!-- Node2&#45;&gt;Node17 -->
<g id="edge16" class="edge"><title>Node2&#45;&gt;Node17</title>
<path fill="none" stroke="midnightblue" d="M1268.99,-192.324C1287.04,-183.625 1315.05,-170.12 1335.8,-160.113"/>
<polygon fill="midnightblue" stroke="midnightblue" points="1337.56,-163.15 1345.05,-155.655 1334.52,-156.845 1337.56,-163.15"/>
</g>
<!-- Node24 -->
<g id="node24" class="node"><title>Node24</title>
<polygon fill="none" stroke="#bfbfbf" points="1440.5,-136.5 1440.5,-155.5 1511.5,-155.5 1511.5,-136.5 1440.5,-136.5"/>
<text text-anchor="middle" x="1476" y="-143.5" font-family="Helvetica,sans-Serif" font-size="10.00">FairLogger.h</text>
</g>
<!-- Node2&#45;&gt;Node24 -->
<g id="edge27" class="edge"><title>Node2&#45;&gt;Node24</title>
<path fill="none" stroke="midnightblue" d="M1286.65,-192.444C1325.66,-183.083 1388.27,-168.056 1430.72,-157.868"/>
<polygon fill="midnightblue" stroke="midnightblue" points="1431.61,-161.254 1440.51,-155.516 1429.97,-154.447 1431.61,-161.254"/>
</g>
<!-- Node6 -->
<g id="node6" class="node"><title>Node6</title>
<polygon fill="none" stroke="#bfbfbf" points="671.5,-74.5 671.5,-93.5 820.5,-93.5 820.5,-74.5 671.5,-74.5"/>
<text text-anchor="middle" x="746" y="-81.5" font-family="Helvetica,sans-Serif" font-size="10.00">Math/GenVector/Rotation3D.h</text>
</g>
<!-- Node5&#45;&gt;Node6 -->
<g id="edge5" class="edge"><title>Node5&#45;&gt;Node6</title>
<path fill="none" stroke="midnightblue" d="M746,-136.403C746,-127.938 746,-114.728 746,-103.82"/>
<polygon fill="midnightblue" stroke="midnightblue" points="749.5,-103.581 746,-93.5806 742.5,-103.581 749.5,-103.581"/>
</g>
<!-- Node7 -->
<g id="node7" class="node"><title>Node7</title>
<polygon fill="none" stroke="#bfbfbf" points="839,-74.5 839,-93.5 995,-93.5 995,-74.5 839,-74.5"/>
<text text-anchor="middle" x="917" y="-81.5" font-family="Helvetica,sans-Serif" font-size="10.00">Math/GenVector/Transform3D.h</text>
</g>
<!-- Node5&#45;&gt;Node7 -->
<g id="edge6" class="edge"><title>Node5&#45;&gt;Node7</title>
<path fill="none" stroke="midnightblue" d="M770.5,-136.403C799.96,-126.067 849.579,-108.656 882.802,-96.9994"/>
<polygon fill="midnightblue" stroke="midnightblue" points="884.268,-100.194 892.545,-93.5806 881.95,-93.5889 884.268,-100.194"/>
</g>
<!-- Node8 -->
<g id="node8" class="node"><title>Node8</title>
<polygon fill="none" stroke="#bfbfbf" points="1013,-74.5 1013,-93.5 1173,-93.5 1173,-74.5 1013,-74.5"/>
<text text-anchor="middle" x="1093" y="-81.5" font-family="Helvetica,sans-Serif" font-size="10.00">Math/GenVector/Translation3D.h</text>
</g>
<!-- Node5&#45;&gt;Node8 -->
<g id="edge7" class="edge"><title>Node5&#45;&gt;Node8</title>
<path fill="none" stroke="midnightblue" d="M795.348,-136.467C858.173,-125.604 966.606,-106.855 1033.81,-95.2346"/>
<polygon fill="midnightblue" stroke="midnightblue" points="1034.56,-98.6561 1043.82,-93.5034 1033.37,-91.7585 1034.56,-98.6561"/>
</g>
<!-- Node5&#45;&gt;Node9 -->
<g id="edge8" class="edge"><title>Node5&#45;&gt;Node9</title>
<path fill="none" stroke="midnightblue" d="M808.683,-144.053C894.248,-141.518 1051.85,-132.402 1182,-100 1185.06,-99.2376 1188.21,-98.2718 1191.3,-97.1993"/>
<polygon fill="midnightblue" stroke="midnightblue" points="1192.81,-100.371 1200.9,-93.527 1190.31,-93.8334 1192.81,-100.371"/>
</g>
<!-- Node10 -->
<g id="node10" class="node"><title>Node10</title>
<polygon fill="none" stroke="#bfbfbf" points="0,-74.5 0,-93.5 76,-93.5 76,-74.5 0,-74.5"/>
<text text-anchor="middle" x="38" y="-81.5" font-family="Helvetica,sans-Serif" font-size="10.00">TGeoMatrix.h</text>
</g>
<!-- Node5&#45;&gt;Node10 -->
<g id="edge9" class="edge"><title>Node5&#45;&gt;Node10</title>
<path fill="none" stroke="midnightblue" d="M683.197,-136.912C680.089,-136.586 677.01,-136.28 674,-136 412.86,-111.723 342.792,-148.24 85,-100 80.4248,-99.1438 75.674,-97.9752 71.0285,-96.6654"/>
<polygon fill="midnightblue" stroke="midnightblue" points="71.7221,-93.2175 61.1356,-93.6389 69.6742,-99.9113 71.7221,-93.2175"/>
</g>
<!-- Node11 -->
<g id="node11" class="node"><title>Node11</title>
<polygon fill="none" stroke="#bfbfbf" points="94.5,-69 94.5,-99 245.5,-99 245.5,-69 94.5,-69"/>
<text text-anchor="start" x="102.5" y="-87" font-family="Helvetica,sans-Serif" font-size="10.00">Math/GenVector/Displacement</text>
<text text-anchor="middle" x="170" y="-76" font-family="Helvetica,sans-Serif" font-size="10.00">Vector3D.h</text>
</g>
<!-- Node5&#45;&gt;Node11 -->
<g id="edge10" class="edge"><title>Node5&#45;&gt;Node11</title>
<path fill="none" stroke="midnightblue" d="M683.188,-137.003C680.082,-136.653 677.007,-136.317 674,-136 490.954,-116.722 441.471,-124.216 255.615,-100.141"/>
<polygon fill="midnightblue" stroke="midnightblue" points="255.875,-96.6456 245.506,-98.8183 254.967,-103.586 255.875,-96.6456"/>
</g>
<!-- Node12 -->
<g id="node12" class="node"><title>Node12</title>
<polygon fill="none" stroke="#bfbfbf" points="406,-74.5 406,-93.5 582,-93.5 582,-74.5 406,-74.5"/>
<text text-anchor="middle" x="494" y="-81.5" font-family="Helvetica,sans-Serif" font-size="10.00">Math/GenVector/PositionVector3D.h</text>
</g>
<!-- Node5&#45;&gt;Node12 -->
<g id="edge11" class="edge"><title>Node5&#45;&gt;Node12</title>
<path fill="none" stroke="midnightblue" d="M710.162,-136.467C665.38,-125.805 588.69,-107.545 539.721,-95.886"/>
<polygon fill="midnightblue" stroke="midnightblue" points="540.253,-92.4148 529.714,-93.5034 538.632,-99.2245 540.253,-92.4148"/>
</g>
<!-- Node13 -->
<g id="node13" class="node"><title>Node13</title>
<g id="a_node13"><a xlink:href="../../d2/dd0/Cartesian2D_8h.html" target="_top" xlink:title="MathUtils/Cartesian2D.h">
<polygon fill="none" stroke="black" points="263.5,-74.5 263.5,-93.5 388.5,-93.5 388.5,-74.5 263.5,-74.5"/>
<text text-anchor="middle" x="326" y="-81.5" font-family="Helvetica,sans-Serif" font-size="10.00">MathUtils/Cartesian2D.h</text>
</a>
</g>
</g>
<!-- Node5&#45;&gt;Node13 -->
<g id="edge12" class="edge"><title>Node5&#45;&gt;Node13</title>
<path fill="none" stroke="midnightblue" d="M683.178,-137.032C586.509,-124.752 410.909,-102.362 397,-100 389.315,-98.6949 381.197,-97.1443 373.304,-95.5433"/>
<polygon fill="midnightblue" stroke="midnightblue" points="373.98,-92.109 363.477,-93.503 372.557,-98.9629 373.98,-92.109"/>
</g>
<!-- Node16 -->
<g id="node16" class="node"><title>Node16</title>
<polygon fill="none" stroke="#bfbfbf" points="600,-74.5 600,-93.5 654,-93.5 654,-74.5 600,-74.5"/>
<text text-anchor="middle" x="627" y="-81.5" font-family="Helvetica,sans-Serif" font-size="10.00">iostream</text>
</g>
<!-- Node5&#45;&gt;Node16 -->
<g id="edge15" class="edge"><title>Node5&#45;&gt;Node16</title>
<path fill="none" stroke="midnightblue" d="M728.95,-136.403C709.156,-126.423 676.283,-109.849 653.23,-98.2253"/>
<polygon fill="midnightblue" stroke="midnightblue" points="654.523,-94.9575 644.018,-93.5806 651.372,-101.208 654.523,-94.9575"/>
</g>
<!-- Node14 -->
<g id="node14" class="node"><title>Node14</title>
<polygon fill="none" stroke="#bfbfbf" points="341.5,-1 341.5,-31 492.5,-31 492.5,-1 341.5,-1"/>
<text text-anchor="start" x="349.5" y="-19" font-family="Helvetica,sans-Serif" font-size="10.00">Math/GenVector/Displacement</text>
<text text-anchor="middle" x="417" y="-8" font-family="Helvetica,sans-Serif" font-size="10.00">Vector2D.h</text>
</g>
<!-- Node13&#45;&gt;Node14 -->
<g id="edge13" class="edge"><title>Node13&#45;&gt;Node14</title>
<path fill="none" stroke="midnightblue" d="M337.897,-74.3717C350.779,-65.0286 371.78,-49.7966 388.907,-37.375"/>
<polygon fill="midnightblue" stroke="midnightblue" points="391.407,-39.8859 397.447,-31.1815 387.297,-34.2194 391.407,-39.8859"/>
</g>
<!-- Node15 -->
<g id="node15" class="node"><title>Node15</title>
<polygon fill="none" stroke="#bfbfbf" points="147,-6.5 147,-25.5 323,-25.5 323,-6.5 147,-6.5"/>
<text text-anchor="middle" x="235" y="-13.5" font-family="Helvetica,sans-Serif" font-size="10.00">Math/GenVector/PositionVector2D.h</text>
</g>
<!-- Node13&#45;&gt;Node15 -->
<g id="edge14" class="edge"><title>Node13&#45;&gt;Node15</title>
<path fill="none" stroke="midnightblue" d="M314.103,-74.3717C299.116,-63.5015 273.138,-44.6602 255.058,-31.5474"/>
<polygon fill="midnightblue" stroke="midnightblue" points="257.05,-28.6684 246.9,-25.6305 252.94,-34.3349 257.05,-28.6684"/>
</g>
<!-- Node17&#45;&gt;Node4 -->
<g id="edge18" class="edge"><title>Node17&#45;&gt;Node4</title>
<path fill="none" stroke="midnightblue" d="M1355.5,-136.298C1348.43,-127.647 1338.03,-113.722 1332,-100 1322.82,-79.1087 1317.8,-53.2312 1315.26,-35.978"/>
<polygon fill="midnightblue" stroke="midnightblue" points="1318.67,-35.0313 1313.88,-25.5787 1311.73,-35.9522 1318.67,-35.0313"/>
</g>
<!-- Node17&#45;&gt;Node9 -->
<g id="edge20" class="edge"><title>Node17&#45;&gt;Node9</title>
<path fill="none" stroke="midnightblue" d="M1342.37,-136.403C1317.88,-126.2 1276.85,-109.105 1248.89,-97.4544"/>
<polygon fill="midnightblue" stroke="midnightblue" points="1250.17,-94.196 1239.59,-93.5806 1247.48,-100.658 1250.17,-94.196"/>
</g>
<!-- Node18 -->
<g id="node18" class="node"><title>Node18</title>
<polygon fill="none" stroke="#bfbfbf" points="1341,-74.5 1341,-93.5 1387,-93.5 1387,-74.5 1341,-74.5"/>
<text text-anchor="middle" x="1364" y="-81.5" font-family="Helvetica,sans-Serif" font-size="10.00">cstdint</text>
</g>
<!-- Node17&#45;&gt;Node18 -->
<g id="edge17" class="edge"><title>Node17&#45;&gt;Node18</title>
<path fill="none" stroke="midnightblue" d="M1363.14,-136.403C1363.28,-127.938 1363.5,-114.728 1363.69,-103.82"/>
<polygon fill="midnightblue" stroke="midnightblue" points="1367.19,-103.638 1363.86,-93.5806 1360.19,-103.521 1367.19,-103.638"/>
</g>
<!-- Node19 -->
<g id="node19" class="node"><title>Node19</title>
<polygon fill="none" stroke="#bfbfbf" points="1405,-74.5 1405,-93.5 1467,-93.5 1467,-74.5 1405,-74.5"/>
<text text-anchor="middle" x="1436" y="-81.5" font-family="Helvetica,sans-Serif" font-size="10.00">type_traits</text>
</g>
<!-- Node17&#45;&gt;Node19 -->
<g id="edge19" class="edge"><title>Node17&#45;&gt;Node19</title>
<path fill="none" stroke="midnightblue" d="M1373.46,-136.403C1384.95,-126.958 1403.63,-111.606 1417.59,-100.134"/>
<polygon fill="midnightblue" stroke="midnightblue" points="1420.06,-102.634 1425.56,-93.5806 1415.61,-97.2264 1420.06,-102.634"/>
</g>
<!-- Node20 -->
<g id="node20" class="node"><title>Node20</title>
<g id="a_node20"><a xlink:href="../../d9/ded/Utils_8h.html" target="_top" xlink:title="DetectorsBase/Utils.h">
<polygon fill="none" stroke="black" points="1485.5,-74.5 1485.5,-93.5 1598.5,-93.5 1598.5,-74.5 1485.5,-74.5"/>
<text text-anchor="middle" x="1542" y="-81.5" font-family="Helvetica,sans-Serif" font-size="10.00">DetectorsBase/Utils.h</text>
</a>
</g>
</g>
<!-- Node17&#45;&gt;Node20 -->
<g id="edge21" class="edge"><title>Node17&#45;&gt;Node20</title>
<path fill="none" stroke="midnightblue" d="M1388.65,-136.403C1419.62,-126.022 1471.87,-108.506 1506.65,-96.849"/>
<polygon fill="midnightblue" stroke="midnightblue" points="1508.03,-100.077 1516.4,-93.5806 1505.81,-93.4403 1508.03,-100.077"/>
</g>
<!-- Node23 -->
<g id="node23" class="node"><title>Node23</title>
<polygon fill="none" stroke="#bfbfbf" points="1616.5,-74.5 1616.5,-93.5 1665.5,-93.5 1665.5,-74.5 1616.5,-74.5"/>
<text text-anchor="middle" x="1641" y="-81.5" font-family="Helvetica,sans-Serif" font-size="10.00">cassert</text>
</g>
<!-- Node17&#45;&gt;Node23 -->
<g id="edge25" class="edge"><title>Node17&#45;&gt;Node23</title>
<path fill="none" stroke="midnightblue" d="M1417.42,-136.481C1478.15,-126.706 1572.42,-110.656 1607,-100 1609.43,-99.2519 1611.91,-98.379 1614.38,-97.4375"/>
<polygon fill="midnightblue" stroke="midnightblue" points="1615.76,-100.654 1623.65,-93.5847 1613.07,-94.1902 1615.76,-100.654"/>
</g>
<!-- Node20&#45;&gt;Node4 -->
<g id="edge24" class="edge"><title>Node20&#45;&gt;Node4</title>
<path fill="none" stroke="midnightblue" d="M1512.06,-74.3717C1467.84,-61.6264 1385.6,-37.9227 1341.95,-25.3432"/>
<polygon fill="midnightblue" stroke="midnightblue" points="1342.81,-21.95 1332.23,-22.5437 1340.87,-28.6762 1342.81,-21.95"/>
</g>
<!-- Node21 -->
<g id="node21" class="node"><title>Node21</title>
<g id="a_node21"><a xlink:href="../../d1/daa/Base_2include_2DetectorsBase_2Constants_8h.html" target="_top" xlink:title="DetectorsBase/Constants.h">
<polygon fill="none" stroke="black" points="1527,-6.5 1527,-25.5 1665,-25.5 1665,-6.5 1527,-6.5"/>
<text text-anchor="middle" x="1596" y="-13.5" font-family="Helvetica,sans-Serif" font-size="10.00">DetectorsBase/Constants.h</text>
</a>
</g>
</g>
<!-- Node20&#45;&gt;Node21 -->
<g id="edge22" class="edge"><title>Node20&#45;&gt;Node21</title>
<path fill="none" stroke="midnightblue" d="M1549.06,-74.3717C1557.5,-64.053 1571.82,-46.5513 1582.43,-33.5854"/>
<polygon fill="midnightblue" stroke="midnightblue" points="1585.14,-35.7971 1588.77,-25.8411 1579.73,-31.3644 1585.14,-35.7971"/>
</g>
<!-- Node22 -->
<g id="node22" class="node"><title>Node22</title>
<polygon fill="none" stroke="#bfbfbf" points="1465,-6.5 1465,-25.5 1509,-25.5 1509,-6.5 1465,-6.5"/>
<text text-anchor="middle" x="1487" y="-13.5" font-family="Helvetica,sans-Serif" font-size="10.00">cmath</text>
</g>
<!-- Node20&#45;&gt;Node22 -->
<g id="edge23" class="edge"><title>Node20&#45;&gt;Node22</title>
<path fill="none" stroke="midnightblue" d="M1534.81,-74.3717C1526.21,-64.053 1511.63,-46.5513 1500.82,-33.5854"/>
<polygon fill="midnightblue" stroke="midnightblue" points="1503.46,-31.2827 1494.37,-25.8411 1498.08,-35.764 1503.46,-31.2827"/>
</g>
</g>
</svg>
        <g id="navigator" transform="translate(0 0)" fill="#404254">
                <rect fill="#f2f5e9" fill-opacity="0.5" stroke="#606060" stroke-width=".5" x="0" y="0" width="60" height="60"/>
                <use id="zoomplus" xlink:href="#zoomPlus" x="17" y="9" onmousedown="handleZoom(evt,'in')"/>
                <use id="zoomminus" xlink:href="#zoomMin" x="42" y="9" onmousedown="handleZoom(evt,'out')"/>
                <use id="reset" xlink:href="#resetDef" x="30" y="36" onmousedown="handleReset()"/>
                <g id="arrowUp" xlink:href="#dirArrow" transform="translate(30 24)" onmousedown="handlePan(0,-1)">
                  <use xlink:href="#rim" fill="#404040">
                        <set attributeName="fill" to="#808080" begin="arrowUp.mouseover" end="arrowUp.mouseout"/>
                  </use>
                  <path fill="none" stroke="white" stroke-width="1.5" d="M0,-3.0v7 M-2.5,-0.5L0,-3.0L2.5,-0.5"/>
                </g>
                <g id="arrowRight" xlink:href="#dirArrow" transform="rotate(90) translate(36 -43)" onmousedown="handlePan(1,0)">
                  <use xlink:href="#rim" fill="#404040">
                        <set attributeName="fill" to="#808080" begin="arrowRight.mouseover" end="arrowRight.mouseout"/>
                  </use>
                  <path fill="none" stroke="white" stroke-width="1.5" d="M0,-3.0v7 M-2.5,-0.5L0,-3.0L2.5,-0.5"/>
                </g>
                <g id="arrowDown" xlink:href="#dirArrow" transform="rotate(180) translate(-30 -48)" onmousedown="handlePan(0,1)">
                  <use xlink:href="#rim" fill="#404040">
                        <set attributeName="fill" to="#808080" begin="arrowDown.mouseover" end="arrowDown.mouseout"/>
                  </use>
                  <path fill="none" stroke="white" stroke-width="1.5" d="M0,-3.0v7 M-2.5,-0.5L0,-3.0L2.5,-0.5"/>
                </g>
                <g id="arrowLeft" xlink:href="#dirArrow" transform="rotate(270) translate(-36 17)" onmousedown="handlePan(-1,0)">
                  <use xlink:href="#rim" fill="#404040">
                        <set attributeName="fill" to="#808080" begin="arrowLeft.mouseover" end="arrowLeft.mouseout"/>
                  </use>
                  <path fill="none" stroke="white" stroke-width="1.5" d="M0,-3.0v7 M-2.5,-0.5L0,-3.0L2.5,-0.5"/>
                </g>
        </g>
        <svg viewBox="0 0 15 15" width="100%" height="30px" preserveAspectRatio="xMaxYMin meet">
         <g id="arrow_out" transform="scale(0.3 0.3)">
          <a xlink:href="common_2base_2include_2ITSMFTBase_2GeometryTGeo_8h__incl_org.svg" target="_base">
           <rect id="button" ry="5" rx="5" y="6" x="6" height="38" width="38"
                fill="#f2f5e9" fill-opacity="0.5" stroke="#606060" stroke-width="1.0"/>
           <path id="arrow"
             d="M 11.500037,31.436501 C 11.940474,20.09759 22.043105,11.32322 32.158766,21.979434 L 37.068811,17.246167 C 37.068811,17.246167 37.088388,32 37.088388,32 L 22.160133,31.978069 C 22.160133,31.978069 26.997745,27.140456 26.997745,27.140456 C 18.528582,18.264221 13.291696,25.230495 11.500037,31.436501 z"
             style="fill:#404040;"/>
          </a>
         </g>
        </svg>
</svg>
