<?xml version="1.0" encoding="UTF-8" standalone="no"?>
<!DOCTYPE svg PUBLIC "-//W3C//DTD SVG 1.1//EN"
 "http://www.w3.org/Graphics/SVG/1.1/DTD/svg11.dtd">
<!-- Generated by graphviz version 2.36.0 (20140111.2315)
 -->
<!-- Title: /home/travis/build/AliceO2Group/AliceO2/DataFormats/simulation/include/SimulationDataFormat/Stack.h Pages: 1 -->
<!--zoomable 308 -->
<svg id="main" version="1.1" xmlns="http://www.w3.org/2000/svg" xmlns:xlink="http://www.w3.org/1999/xlink" xml:space="preserve" onload="init(evt)">
<style type="text/css"><![CDATA[
.edge:hover path { stroke: red; }
.edge:hover polygon { stroke: red; fill: red; }
]]></style>
<script type="text/javascript"><![CDATA[
var edges = document.getElementsByTagName('g');
if (edges && edges.length) {
  for (var i=0;i<edges.length;i++) {
    if (edges[i].id.substr(0,4)=='edge') {
      edges[i].setAttribute('class','edge');
    }
  }
}
]]></script>
        <defs>
                <circle id="rim" cx="0" cy="0" r="7"/>
                <circle id="rim2" cx="0" cy="0" r="3.5"/>
                <g id="zoomPlus">
                        <use xlink:href="#rim" fill="#404040">
                                <set attributeName="fill" to="#808080" begin="zoomplus.mouseover" end="zoomplus.mouseout"/>
                        </use>
                        <path d="M-4,0h8M0,-4v8" fill="none" stroke="white" stroke-width="1.5" pointer-events="none"/>
                </g>
                <g id="zoomMin">
                        <use xlink:href="#rim" fill="#404040">
                                <set attributeName="fill" to="#808080" begin="zoomminus.mouseover" end="zoomminus.mouseout"/>
                        </use>
                        <path d="M-4,0h8" fill="none" stroke="white" stroke-width="1.5" pointer-events="none"/>
                </g>
                <g id="dirArrow">
                        <path fill="none" stroke="white" stroke-width="1.5" d="M0,-3.0v7 M-2.5,-0.5L0,-3.0L2.5,-0.5"/>
                </g>
               <g id="resetDef">
                       <use xlink:href="#rim2" fill="#404040">
                               <set attributeName="fill" to="#808080" begin="reset.mouseover" end="reset.mouseout"/>
                       </use>
               </g>
        </defs>

<script type="text/javascript">
var viewWidth = 990;
var viewHeight = 308;
var sectionId = 'dynsection-0';
</script>
<script xlink:href="../../svgpan.js"/>
<svg id="graph" class="graph">
<g id="viewport">
<title>/home/travis/build/AliceO2Group/AliceO2/DataFormats/simulation/include/SimulationDataFormat/Stack.h</title>
<!-- Node1 -->
<g id="node1" class="node"><title>Node1</title>
<polygon fill="#bfbfbf" stroke="black" points="554.5,-236.5 554.5,-299.5 705.5,-299.5 705.5,-236.5 554.5,-236.5"/>
<text text-anchor="start" x="562.5" y="-287.5" font-family="Helvetica,sans-Serif" font-size="10.00">/home/travis/build</text>
<text text-anchor="start" x="562.5" y="-276.5" font-family="Helvetica,sans-Serif" font-size="10.00">/AliceO2Group/AliceO2</text>
<text text-anchor="start" x="562.5" y="-265.5" font-family="Helvetica,sans-Serif" font-size="10.00">/DataFormats/simulation</text>
<text text-anchor="start" x="562.5" y="-254.5" font-family="Helvetica,sans-Serif" font-size="10.00">/include/SimulationDataFormat</text>
<text text-anchor="middle" x="630" y="-243.5" font-family="Helvetica,sans-Serif" font-size="10.00">/Stack.h</text>
</g>
<!-- Node2 -->
<g id="node2" class="node"><title>Node2</title>
<polygon fill="none" stroke="#bfbfbf" points="-0.5,-174.5 -0.5,-193.5 100.5,-193.5 100.5,-174.5 -0.5,-174.5"/>
<text text-anchor="middle" x="50" y="-181.5" font-family="Helvetica,sans-Serif" font-size="10.00">FairGenericStack.h</text>
</g>
<!-- Node1&#45;&gt;Node2 -->
<g id="edge1" class="edge"><title>Node1&#45;&gt;Node2</title>
<path fill="none" stroke="midnightblue" d="M554.16,-259.472C453.405,-248.937 270.068,-227.911 115,-200 108.261,-198.787 101.167,-197.334 94.2429,-195.817"/>
<polygon fill="midnightblue" stroke="midnightblue" points="94.8045,-192.356 84.2793,-193.569 93.2635,-199.184 94.8045,-192.356"/>
</g>
<!-- Node3 -->
<g id="node3" class="node"><title>Node3</title>
<g id="a_node3"><a xlink:href="../../d2/de2/MCTrack_8h.html" target="_top" xlink:title="Definition of the MCTrack class. ">
<polygon fill="none" stroke="black" points="450,-169 450,-199 564,-199 564,-169 450,-169"/>
<text text-anchor="start" x="458" y="-187" font-family="Helvetica,sans-Serif" font-size="10.00">SimulationDataFormat</text>
<text text-anchor="middle" x="507" y="-176" font-family="Helvetica,sans-Serif" font-size="10.00">/MCTrack.h</text>
</a>
</g>
</g>
<!-- Node1&#45;&gt;Node3 -->
<g id="edge2" class="edge"><title>Node1&#45;&gt;Node3</title>
<path fill="none" stroke="midnightblue" d="M584.199,-236.466C568.249,-225.832 550.788,-214.192 536.513,-204.676"/>
<polygon fill="midnightblue" stroke="midnightblue" points="538.341,-201.687 528.079,-199.053 534.458,-207.512 538.341,-201.687"/>
</g>
<!-- Node4 -->
<g id="node4" class="node"><title>Node4</title>
<polygon fill="none" stroke="#bfbfbf" points="211,-56.5 211,-75.5 267,-75.5 267,-56.5 211,-56.5"/>
<text text-anchor="middle" x="239" y="-63.5" font-family="Helvetica,sans-Serif" font-size="10.00">Rtypes.h</text>
</g>
<!-- Node1&#45;&gt;Node4 -->
<g id="edge22" class="edge"><title>Node1&#45;&gt;Node4</title>
<path fill="none" stroke="midnightblue" d="M554.035,-256.902C431.028,-238.82 197.033,-196.653 148,-132 129.447,-107.537 168.541,-88.4932 201.141,-77.5087"/>
<polygon fill="midnightblue" stroke="midnightblue" points="202.521,-80.7421 210.978,-74.3614 200.387,-74.075 202.521,-80.7421"/>
</g>
<!-- Node8 -->
<g id="node8" class="node"><title>Node8</title>
<g id="a_node8"><a xlink:href="../../d6/d31/DetID_8h.html" target="_top" xlink:title="DetectorsBase/DetID.h">
<polygon fill="none" stroke="black" points="780.5,-112.5 780.5,-131.5 899.5,-131.5 899.5,-112.5 780.5,-112.5"/>
<text text-anchor="middle" x="840" y="-119.5" font-family="Helvetica,sans-Serif" font-size="10.00">DetectorsBase/DetID.h</text>
</a>
</g>
</g>
<!-- Node1&#45;&gt;Node8 -->
<g id="edge21" class="edge"><title>Node1&#45;&gt;Node8</title>
<path fill="none" stroke="midnightblue" d="M614.674,-236.478C606.313,-215.044 600.491,-186.935 616,-168 625.881,-155.937 708.137,-141.715 770.129,-132.538"/>
<polygon fill="midnightblue" stroke="midnightblue" points="770.889,-135.964 780.277,-131.053 769.876,-129.037 770.889,-135.964"/>
</g>
<!-- Node17 -->
<g id="node17" class="node"><title>Node17</title>
<polygon fill="none" stroke="#bfbfbf" points="918,-112.5 918,-131.5 982,-131.5 982,-112.5 918,-112.5"/>
<text text-anchor="middle" x="950" y="-119.5" font-family="Helvetica,sans-Serif" font-size="10.00">TParticle.h</text>
</g>
<!-- Node1&#45;&gt;Node17 -->
<g id="edge23" class="edge"><title>Node1&#45;&gt;Node17</title>
<path fill="none" stroke="midnightblue" d="M627.577,-236.206C627.639,-214.061 631.74,-185.184 650,-168 692.157,-128.327 850.994,-142.071 908,-132 908.101,-131.982 908.202,-131.964 908.303,-131.946"/>
<polygon fill="midnightblue" stroke="midnightblue" points="908.77,-135.42 917.943,-130.119 907.466,-128.543 908.77,-135.42"/>
</g>
<!-- Node20 -->
<g id="node20" class="node"><title>Node20</title>
<polygon fill="none" stroke="#bfbfbf" points="658.5,-174.5 658.5,-193.5 693.5,-193.5 693.5,-174.5 658.5,-174.5"/>
<text text-anchor="middle" x="676" y="-181.5" font-family="Helvetica,sans-Serif" font-size="10.00">map</text>
</g>
<!-- Node1&#45;&gt;Node20 -->
<g id="edge24" class="edge"><title>Node1&#45;&gt;Node20</title>
<path fill="none" stroke="midnightblue" d="M647.129,-236.466C653.566,-224.991 660.66,-212.345 666.206,-202.459"/>
<polygon fill="midnightblue" stroke="midnightblue" points="669.313,-204.074 671.153,-193.64 663.208,-200.649 669.313,-204.074"/>
</g>
<!-- Node21 -->
<g id="node21" class="node"><title>Node21</title>
<polygon fill="none" stroke="#bfbfbf" points="711.5,-174.5 711.5,-193.5 752.5,-193.5 752.5,-174.5 711.5,-174.5"/>
<text text-anchor="middle" x="732" y="-181.5" font-family="Helvetica,sans-Serif" font-size="10.00">stack</text>
</g>
<!-- Node1&#45;&gt;Node21 -->
<g id="edge25" class="edge"><title>Node1&#45;&gt;Node21</title>
<path fill="none" stroke="midnightblue" d="M667.981,-236.466C683.444,-224.035 700.618,-210.229 713.282,-200.048"/>
<polygon fill="midnightblue" stroke="midnightblue" points="715.652,-202.633 721.253,-193.64 711.266,-197.178 715.652,-202.633"/>
</g>
<!-- Node22 -->
<g id="node22" class="node"><title>Node22</title>
<polygon fill="none" stroke="#bfbfbf" points="771,-174.5 771,-193.5 811,-193.5 811,-174.5 771,-174.5"/>
<text text-anchor="middle" x="791" y="-181.5" font-family="Helvetica,sans-Serif" font-size="10.00">utility</text>
</g>
<!-- Node1&#45;&gt;Node22 -->
<g id="edge26" class="edge"><title>Node1&#45;&gt;Node22</title>
<path fill="none" stroke="midnightblue" d="M689.95,-236.466C715.883,-223.258 744.865,-208.497 765.118,-198.182"/>
<polygon fill="midnightblue" stroke="midnightblue" points="766.714,-201.297 774.037,-193.64 763.537,-195.059 766.714,-201.297"/>
</g>
<!-- Node23 -->
<g id="node23" class="node"><title>Node23</title>
<polygon fill="none" stroke="#bfbfbf" points="829,-174.5 829,-193.5 881,-193.5 881,-174.5 829,-174.5"/>
<text text-anchor="middle" x="855" y="-181.5" font-family="Helvetica,sans-Serif" font-size="10.00">memory</text>
</g>
<!-- Node1&#45;&gt;Node23 -->
<g id="edge27" class="edge"><title>Node1&#45;&gt;Node23</title>
<path fill="none" stroke="midnightblue" d="M705.777,-241.56C740.746,-229.493 782.69,-214.555 820,-200 821.894,-199.261 823.838,-198.483 825.792,-197.687"/>
<polygon fill="midnightblue" stroke="midnightblue" points="827.597,-200.726 835.472,-193.638 824.896,-194.268 827.597,-200.726"/>
</g>
<!-- Node3&#45;&gt;Node4 -->
<g id="edge3" class="edge"><title>Node3&#45;&gt;Node4</title>
<path fill="none" stroke="midnightblue" d="M449.776,-178.084C385.159,-171.394 285.429,-157.258 258,-132 245.181,-120.196 240.837,-100.271 239.451,-85.5863"/>
<polygon fill="midnightblue" stroke="midnightblue" points="242.945,-85.3818 238.877,-75.5993 235.957,-85.7838 242.945,-85.3818"/>
</g>
<!-- Node5 -->
<g id="node5" class="node"><title>Node5</title>
<polygon fill="none" stroke="#bfbfbf" points="670,-112.5 670,-131.5 762,-131.5 762,-112.5 670,-112.5"/>
<text text-anchor="middle" x="716" y="-119.5" font-family="Helvetica,sans-Serif" font-size="10.00">TLorentzVector.h</text>
</g>
<!-- Node3&#45;&gt;Node5 -->
<g id="edge4" class="edge"><title>Node3&#45;&gt;Node5</title>
<path fill="none" stroke="midnightblue" d="M556.001,-168.933C592.788,-158.372 642.502,-144.1 676.701,-134.282"/>
<polygon fill="midnightblue" stroke="midnightblue" points="677.701,-137.636 686.347,-131.513 675.77,-130.908 677.701,-137.636"/>
</g>
<!-- Node6 -->
<g id="node6" class="node"><title>Node6</title>
<polygon fill="none" stroke="#bfbfbf" points="157.5,-112.5 157.5,-131.5 210.5,-131.5 210.5,-112.5 157.5,-112.5"/>
<text text-anchor="middle" x="184" y="-119.5" font-family="Helvetica,sans-Serif" font-size="10.00">TMath.h</text>
</g>
<!-- Node3&#45;&gt;Node6 -->
<g id="edge5" class="edge"><title>Node3&#45;&gt;Node6</title>
<path fill="none" stroke="midnightblue" d="M449.9,-173.314C392.849,-163.487 302.691,-147.547 225,-132 223.714,-131.743 222.406,-131.477 221.085,-131.205"/>
<polygon fill="midnightblue" stroke="midnightblue" points="221.384,-127.691 210.876,-129.049 219.937,-134.54 221.384,-127.691"/>
</g>
<!-- Node7 -->
<g id="node7" class="node"><title>Node7</title>
<polygon fill="none" stroke="#bfbfbf" points="267.5,-112.5 267.5,-131.5 332.5,-131.5 332.5,-112.5 267.5,-112.5"/>
<text text-anchor="middle" x="300" y="-119.5" font-family="Helvetica,sans-Serif" font-size="10.00">TVector3.h</text>
</g>
<!-- Node3&#45;&gt;Node7 -->
<g id="edge6" class="edge"><title>Node3&#45;&gt;Node7</title>
<path fill="none" stroke="midnightblue" d="M458.468,-168.933C422.189,-158.417 373.217,-144.222 339.36,-134.409"/>
<polygon fill="midnightblue" stroke="midnightblue" points="339.948,-130.935 329.369,-131.513 337.999,-137.658 339.948,-130.935"/>
</g>
<!-- Node3&#45;&gt;Node8 -->
<g id="edge7" class="edge"><title>Node3&#45;&gt;Node8</title>
<path fill="none" stroke="midnightblue" d="M564.313,-170.696C568.94,-169.762 573.545,-168.853 578,-168 645.709,-155.038 723.604,-141.882 776.745,-133.171"/>
<polygon fill="midnightblue" stroke="midnightblue" points="777.398,-136.611 786.702,-131.543 776.268,-129.702 777.398,-136.611"/>
</g>
<!-- Node16 -->
<g id="node16" class="node"><title>Node16</title>
<polygon fill="none" stroke="#bfbfbf" points="350.5,-112.5 350.5,-131.5 445.5,-131.5 445.5,-112.5 350.5,-112.5"/>
<text text-anchor="middle" x="398" y="-119.5" font-family="Helvetica,sans-Serif" font-size="10.00">TDatabasePDG.h</text>
</g>
<!-- Node3&#45;&gt;Node16 -->
<g id="edge17" class="edge"><title>Node3&#45;&gt;Node16</title>
<path fill="none" stroke="midnightblue" d="M481.444,-168.933C463.712,-159.171 440.22,-146.24 422.68,-136.586"/>
<polygon fill="midnightblue" stroke="midnightblue" points="424.072,-133.356 413.623,-131.6 420.696,-139.489 424.072,-133.356"/>
</g>
<!-- Node3&#45;&gt;Node17 -->
<g id="edge18" class="edge"><title>Node3&#45;&gt;Node17</title>
<path fill="none" stroke="midnightblue" d="M564.116,-174.986C580.831,-172.682 599.142,-170.199 616,-168 745.662,-151.086 779.056,-153.72 908,-132 908.101,-131.983 908.202,-131.966 908.304,-131.949"/>
<polygon fill="midnightblue" stroke="midnightblue" points="908.751,-135.425 917.952,-130.172 907.484,-128.541 908.751,-135.425"/>
</g>
<!-- Node18 -->
<g id="node18" class="node"><title>Node18</title>
<polygon fill="none" stroke="#bfbfbf" points="464,-112.5 464,-131.5 550,-131.5 550,-112.5 464,-112.5"/>
<text text-anchor="middle" x="507" y="-119.5" font-family="Helvetica,sans-Serif" font-size="10.00">TParticlePDG.h</text>
</g>
<!-- Node3&#45;&gt;Node18 -->
<g id="edge19" class="edge"><title>Node3&#45;&gt;Node18</title>
<path fill="none" stroke="midnightblue" d="M507,-168.781C507,-160.781 507,-150.689 507,-142.017"/>
<polygon fill="midnightblue" stroke="midnightblue" points="510.5,-141.73 507,-131.731 503.5,-141.731 510.5,-141.73"/>
</g>
<!-- Node19 -->
<g id="node19" class="node"><title>Node19</title>
<polygon fill="none" stroke="#bfbfbf" points="568.5,-112.5 568.5,-131.5 651.5,-131.5 651.5,-112.5 568.5,-112.5"/>
<text text-anchor="middle" x="610" y="-119.5" font-family="Helvetica,sans-Serif" font-size="10.00">TMCProcess.h</text>
</g>
<!-- Node3&#45;&gt;Node19 -->
<g id="edge20" class="edge"><title>Node3&#45;&gt;Node19</title>
<path fill="none" stroke="midnightblue" d="M531.149,-168.933C547.75,-159.262 569.694,-146.479 586.216,-136.855"/>
<polygon fill="midnightblue" stroke="midnightblue" points="588.358,-139.658 595.237,-131.6 584.834,-133.609 588.358,-139.658"/>
</g>
<!-- Node8&#45;&gt;Node4 -->
<g id="edge11" class="edge"><title>Node8&#45;&gt;Node4</title>
<path fill="none" stroke="midnightblue" d="M780.181,-113.029C777.077,-112.668 774.003,-112.323 771,-112 586.318,-92.155 364.786,-75.805 277.259,-69.6383"/>
<polygon fill="midnightblue" stroke="midnightblue" points="277.239,-66.1284 267.018,-68.9203 276.749,-73.1113 277.239,-66.1284"/>
</g>
<!-- Node9 -->
<g id="node9" class="node"><title>Node9</title>
<polygon fill="none" stroke="#bfbfbf" points="883,-56.5 883,-75.5 929,-75.5 929,-56.5 883,-56.5"/>
<text text-anchor="middle" x="906" y="-63.5" font-family="Helvetica,sans-Serif" font-size="10.00">cstdint</text>
</g>
<!-- Node8&#45;&gt;Node9 -->
<g id="edge8" class="edge"><title>Node8&#45;&gt;Node9</title>
<path fill="none" stroke="midnightblue" d="M850.604,-112.324C860.456,-104.263 875.351,-92.0765 887.215,-82.3695"/>
<polygon fill="midnightblue" stroke="midnightblue" points="889.68,-84.8752 895.203,-75.8339 885.247,-79.4575 889.68,-84.8752"/>
</g>
<!-- Node10 -->
<g id="node10" class="node"><title>Node10</title>
<polygon fill="none" stroke="#bfbfbf" points="846,-0.5 846,-19.5 884,-19.5 884,-0.5 846,-0.5"/>
<text text-anchor="middle" x="865" y="-7.5" font-family="Helvetica,sans-Serif" font-size="10.00">array</text>
</g>
<!-- Node8&#45;&gt;Node10 -->
<g id="edge9" class="edge"><title>Node8&#45;&gt;Node10</title>
<path fill="none" stroke="midnightblue" d="M883.067,-112.486C903.396,-106.074 925.823,-94.9911 938,-76 952.766,-52.9719 919.989,-33.1715 893.691,-21.6649"/>
<polygon fill="midnightblue" stroke="midnightblue" points="894.973,-18.4076 884.395,-17.8103 892.291,-24.8738 894.973,-18.4076"/>
</g>
<!-- Node11 -->
<g id="node11" class="node"><title>Node11</title>
<polygon fill="none" stroke="#bfbfbf" points="735,-56.5 735,-75.5 797,-75.5 797,-56.5 735,-56.5"/>
<text text-anchor="middle" x="766" y="-63.5" font-family="Helvetica,sans-Serif" font-size="10.00">type_traits</text>
</g>
<!-- Node8&#45;&gt;Node11 -->
<g id="edge10" class="edge"><title>Node8&#45;&gt;Node11</title>
<path fill="none" stroke="midnightblue" d="M828.111,-112.324C816.85,-104.107 799.713,-91.6017 786.291,-81.8069"/>
<polygon fill="midnightblue" stroke="midnightblue" points="788.247,-78.9014 778.106,-75.8339 784.12,-84.5559 788.247,-78.9014"/>
</g>
<!-- Node12 -->
<g id="node12" class="node"><title>Node12</title>
<g id="a_node12"><a xlink:href="../../d9/ded/Utils_8h.html" target="_top" xlink:title="DetectorsBase/Utils.h">
<polygon fill="none" stroke="black" points="603.5,-56.5 603.5,-75.5 716.5,-75.5 716.5,-56.5 603.5,-56.5"/>
<text text-anchor="middle" x="660" y="-63.5" font-family="Helvetica,sans-Serif" font-size="10.00">DetectorsBase/Utils.h</text>
</a>
</g>
</g>
<!-- Node8&#45;&gt;Node12 -->
<g id="edge12" class="edge"><title>Node8&#45;&gt;Node12</title>
<path fill="none" stroke="midnightblue" d="M811.478,-112.444C780.934,-103.28 732.292,-88.6876 698.397,-78.5192"/>
<polygon fill="midnightblue" stroke="midnightblue" points="698.972,-75.0376 688.388,-75.5164 696.961,-81.7424 698.972,-75.0376"/>
</g>
<!-- Node15 -->
<g id="node15" class="node"><title>Node15</title>
<polygon fill="none" stroke="#bfbfbf" points="815.5,-56.5 815.5,-75.5 864.5,-75.5 864.5,-56.5 815.5,-56.5"/>
<text text-anchor="middle" x="840" y="-63.5" font-family="Helvetica,sans-Serif" font-size="10.00">cassert</text>
</g>
<!-- Node8&#45;&gt;Node15 -->
<g id="edge16" class="edge"><title>Node8&#45;&gt;Node15</title>
<path fill="none" stroke="midnightblue" d="M840,-112.083C840,-105.006 840,-94.8611 840,-85.9865"/>
<polygon fill="midnightblue" stroke="midnightblue" points="843.5,-85.751 840,-75.7511 836.5,-85.7511 843.5,-85.751"/>
</g>
<!-- Node12&#45;&gt;Node10 -->
<g id="edge15" class="edge"><title>Node12&#45;&gt;Node10</title>
<path fill="none" stroke="midnightblue" d="M692.483,-56.4435C732.007,-46.0322 798.138,-28.6124 836.012,-18.636"/>
<polygon fill="midnightblue" stroke="midnightblue" points="837.12,-21.9634 845.899,-16.0315 835.337,-15.1943 837.12,-21.9634"/>
</g>
<!-- Node13 -->
<g id="node13" class="node"><title>Node13</title>
<g id="a_node13"><a xlink:href="../../d1/daa/Base_2include_2DetectorsBase_2Constants_8h.html" target="_top" xlink:title="DetectorsBase/Constants.h">
<polygon fill="none" stroke="black" points="537,-0.5 537,-19.5 675,-19.5 675,-0.5 537,-0.5"/>
<text text-anchor="middle" x="606" y="-7.5" font-family="Helvetica,sans-Serif" font-size="10.00">DetectorsBase/Constants.h</text>
</a>
</g>
</g>
<!-- Node12&#45;&gt;Node13 -->
<g id="edge13" class="edge"><title>Node12&#45;&gt;Node13</title>
<path fill="none" stroke="midnightblue" d="M651.083,-56.083C643.22,-48.2195 631.569,-36.5688 622.081,-27.0813"/>
<polygon fill="midnightblue" stroke="midnightblue" points="624.297,-24.3473 614.751,-19.7511 619.347,-29.2971 624.297,-24.3473"/>
</g>
<!-- Node14 -->
<g id="node14" class="node"><title>Node14</title>
<polygon fill="none" stroke="#bfbfbf" points="693,-0.5 693,-19.5 737,-19.5 737,-0.5 693,-0.5"/>
<text text-anchor="middle" x="715" y="-7.5" font-family="Helvetica,sans-Serif" font-size="10.00">cmath</text>
</g>
<!-- Node12&#45;&gt;Node14 -->
<g id="edge14" class="edge"><title>Node12&#45;&gt;Node14</title>
<path fill="none" stroke="midnightblue" d="M669.082,-56.083C677.171,-48.1409 689.195,-36.3354 698.91,-26.7973"/>
<polygon fill="midnightblue" stroke="midnightblue" points="701.403,-29.2545 706.087,-19.7511 696.499,-24.2595 701.403,-29.2545"/>
</g>
</g>
</svg>
        <g id="navigator" transform="translate(0 0)" fill="#404254">
                <rect fill="#f2f5e9" fill-opacity="0.5" stroke="#606060" stroke-width=".5" x="0" y="0" width="60" height="60"/>
                <use id="zoomplus" xlink:href="#zoomPlus" x="17" y="9" onmousedown="handleZoom(evt,'in')"/>
                <use id="zoomminus" xlink:href="#zoomMin" x="42" y="9" onmousedown="handleZoom(evt,'out')"/>
                <use id="reset" xlink:href="#resetDef" x="30" y="36" onmousedown="handleReset()"/>
                <g id="arrowUp" xlink:href="#dirArrow" transform="translate(30 24)" onmousedown="handlePan(0,-1)">
                  <use xlink:href="#rim" fill="#404040">
                        <set attributeName="fill" to="#808080" begin="arrowUp.mouseover" end="arrowUp.mouseout"/>
                  </use>
                  <path fill="none" stroke="white" stroke-width="1.5" d="M0,-3.0v7 M-2.5,-0.5L0,-3.0L2.5,-0.5"/>
                </g>
                <g id="arrowRight" xlink:href="#dirArrow" transform="rotate(90) translate(36 -43)" onmousedown="handlePan(1,0)">
                  <use xlink:href="#rim" fill="#404040">
                        <set attributeName="fill" to="#808080" begin="arrowRight.mouseover" end="arrowRight.mouseout"/>
                  </use>
                  <path fill="none" stroke="white" stroke-width="1.5" d="M0,-3.0v7 M-2.5,-0.5L0,-3.0L2.5,-0.5"/>
                </g>
                <g id="arrowDown" xlink:href="#dirArrow" transform="rotate(180) translate(-30 -48)" onmousedown="handlePan(0,1)">
                  <use xlink:href="#rim" fill="#404040">
                        <set attributeName="fill" to="#808080" begin="arrowDown.mouseover" end="arrowDown.mouseout"/>
                  </use>
                  <path fill="none" stroke="white" stroke-width="1.5" d="M0,-3.0v7 M-2.5,-0.5L0,-3.0L2.5,-0.5"/>
                </g>
                <g id="arrowLeft" xlink:href="#dirArrow" transform="rotate(270) translate(-36 17)" onmousedown="handlePan(-1,0)">
                  <use xlink:href="#rim" fill="#404040">
                        <set attributeName="fill" to="#808080" begin="arrowLeft.mouseover" end="arrowLeft.mouseout"/>
                  </use>
                  <path fill="none" stroke="white" stroke-width="1.5" d="M0,-3.0v7 M-2.5,-0.5L0,-3.0L2.5,-0.5"/>
                </g>
        </g>
        <svg viewBox="0 0 15 15" width="100%" height="30px" preserveAspectRatio="xMaxYMin meet">
         <g id="arrow_out" transform="scale(0.3 0.3)">
          <a xlink:href="Stack_8h__incl_org.svg" target="_base">
           <rect id="button" ry="5" rx="5" y="6" x="6" height="38" width="38"
                fill="#f2f5e9" fill-opacity="0.5" stroke="#606060" stroke-width="1.0"/>
           <path id="arrow"
             d="M 11.500037,31.436501 C 11.940474,20.09759 22.043105,11.32322 32.158766,21.979434 L 37.068811,17.246167 C 37.068811,17.246167 37.088388,32 37.088388,32 L 22.160133,31.978069 C 22.160133,31.978069 26.997745,27.140456 26.997745,27.140456 C 18.528582,18.264221 13.291696,25.230495 11.500037,31.436501 z"
             style="fill:#404040;"/>
          </a>
         </g>
        </svg>
</svg>
