<?xml version="1.0" encoding="UTF-8" standalone="no"?>
<!DOCTYPE svg PUBLIC "-//W3C//DTD SVG 1.1//EN"
 "http://www.w3.org/Graphics/SVG/1.1/DTD/svg11.dtd">
<!-- Generated by graphviz version 2.36.0 (20140111.2315)
 -->
<!-- Title: /home/travis/build/AliceO2Group/AliceO2/Detectors/ITSMFT/common/reconstruction/include/ITSMFTReconstruction/Clusterer.h Pages: 1 -->
<svg width="2013pt" height="468pt"
 viewBox="0.00 0.00 2013.00 468.00" xmlns="http://www.w3.org/2000/svg" xmlns:xlink="http://www.w3.org/1999/xlink">
<g id="graph0" class="graph" transform="scale(1 1) rotate(0) translate(4 464)">
<title>/home/travis/build/AliceO2Group/AliceO2/Detectors/ITSMFT/common/reconstruction/include/ITSMFTReconstruction/Clusterer.h</title>
<!-- Node1 -->
<g id="node1" class="node"><title>Node1</title>
<polygon fill="#bfbfbf" stroke="black" points="1331.5,-396.5 1331.5,-459.5 1504.5,-459.5 1504.5,-396.5 1331.5,-396.5"/>
<text text-anchor="start" x="1339.5" y="-447.5" font-family="Helvetica,sans-Serif" font-size="10.00">/home/travis/build</text>
<text text-anchor="start" x="1339.5" y="-436.5" font-family="Helvetica,sans-Serif" font-size="10.00">/AliceO2Group/AliceO2</text>
<text text-anchor="start" x="1339.5" y="-425.5" font-family="Helvetica,sans-Serif" font-size="10.00">/Detectors/ITSMFT/common</text>
<text text-anchor="start" x="1339.5" y="-414.5" font-family="Helvetica,sans-Serif" font-size="10.00">/reconstruction/include</text>
<text text-anchor="middle" x="1418" y="-403.5" font-family="Helvetica,sans-Serif" font-size="10.00">/ITSMFTReconstruction/Clusterer.h</text>
</g>
<!-- Node2 -->
<g id="node2" class="node"><title>Node2</title>
<g id="a_node2"><a xlink:href="../../dc/de1/ITSMFT_2common_2reconstruction_2include_2ITSMFTReconstruction_2Cluster_8h.html" target="_top" xlink:title="ITSMFTReconstruction\l/Cluster.h">
<polygon fill="none" stroke="black" points="790.5,-329 790.5,-359 909.5,-359 909.5,-329 790.5,-329"/>
<text text-anchor="start" x="798.5" y="-347" font-family="Helvetica,sans-Serif" font-size="10.00">ITSMFTReconstruction</text>
<text text-anchor="middle" x="850" y="-336" font-family="Helvetica,sans-Serif" font-size="10.00">/Cluster.h</text>
</a>
</g>
</g>
<!-- Node1&#45;&gt;Node2 -->
<g id="edge1" class="edge"><title>Node1&#45;&gt;Node2</title>
<path fill="none" stroke="midnightblue" d="M1331.42,-414.501C1218.57,-398.209 1023.39,-370.032 919.601,-355.048"/>
<polygon fill="midnightblue" stroke="midnightblue" points="919.941,-351.561 909.543,-353.596 918.94,-358.489 919.941,-351.561"/>
</g>
<!-- Node13 -->
<g id="node13" class="node"><title>Node13</title>
<polygon fill="none" stroke="#bfbfbf" points="1612,-74.5 1612,-93.5 1668,-93.5 1668,-74.5 1612,-74.5"/>
<text text-anchor="middle" x="1640" y="-81.5" font-family="Helvetica,sans-Serif" font-size="10.00">Rtypes.h</text>
</g>
<!-- Node1&#45;&gt;Node13 -->
<g id="edge51" class="edge"><title>Node1&#45;&gt;Node13</title>
<path fill="none" stroke="midnightblue" d="M1504.58,-419.912C1652.24,-405.414 1937,-365.926 1937,-277 1937,-277 1937,-277 1937,-213 1937,-174.436 1927.84,-159.148 1897,-136 1862.95,-110.448 1741.31,-94.9972 1678.36,-88.5362"/>
<polygon fill="midnightblue" stroke="midnightblue" points="1678.35,-85.0179 1668.05,-87.5049 1677.65,-91.9832 1678.35,-85.0179"/>
</g>
<!-- Node21 -->
<g id="node21" class="node"><title>Node21</title>
<polygon fill="none" stroke="#bfbfbf" points="1130,-142.5 1130,-161.5 1174,-161.5 1174,-142.5 1130,-142.5"/>
<text text-anchor="middle" x="1152" y="-149.5" font-family="Helvetica,sans-Serif" font-size="10.00">vector</text>
</g>
<!-- Node1&#45;&gt;Node21 -->
<g id="edge50" class="edge"><title>Node1&#45;&gt;Node21</title>
<path fill="none" stroke="midnightblue" d="M1331.32,-400.276C1308.26,-390.257 1284.61,-377.039 1266,-360 1205.98,-305.051 1170.53,-210.983 1157.61,-171.404"/>
<polygon fill="midnightblue" stroke="midnightblue" points="1160.91,-170.243 1154.56,-161.763 1154.24,-172.353 1160.91,-170.243"/>
</g>
<!-- Node31 -->
<g id="node31" class="node"><title>Node31</title>
<g id="a_node31"><a xlink:href="../../d0/d2d/common_2base_2include_2ITSMFTBase_2GeometryTGeo_8h.html" target="_top" xlink:title="ITSMFTBase/GeometryTGeo.h">
<polygon fill="none" stroke="black" points="1275.5,-334.5 1275.5,-353.5 1428.5,-353.5 1428.5,-334.5 1275.5,-334.5"/>
<text text-anchor="middle" x="1352" y="-341.5" font-family="Helvetica,sans-Serif" font-size="10.00">ITSMFTBase/GeometryTGeo.h</text>
</a>
</g>
</g>
<!-- Node1&#45;&gt;Node31 -->
<g id="edge36" class="edge"><title>Node1&#45;&gt;Node31</title>
<path fill="none" stroke="midnightblue" d="M1393.42,-396.466C1383.9,-384.633 1373.37,-371.553 1365.31,-361.541"/>
<polygon fill="midnightblue" stroke="midnightblue" points="1367.95,-359.235 1358.95,-353.64 1362.5,-363.624 1367.95,-359.235"/>
</g>
<!-- Node34 -->
<g id="node34" class="node"><title>Node34</title>
<g id="a_node34"><a xlink:href="../../df/d2e/PixelReader_8h.html" target="_top" xlink:title="Definition of the ITS pixel reader. ">
<polygon fill="none" stroke="black" points="1474.5,-261 1474.5,-291 1593.5,-291 1593.5,-261 1474.5,-261"/>
<text text-anchor="start" x="1482.5" y="-279" font-family="Helvetica,sans-Serif" font-size="10.00">ITSMFTReconstruction</text>
<text text-anchor="middle" x="1534" y="-268" font-family="Helvetica,sans-Serif" font-size="10.00">/PixelReader.h</text>
</a>
</g>
</g>
<!-- Node1&#45;&gt;Node34 -->
<g id="edge40" class="edge"><title>Node1&#45;&gt;Node34</title>
<path fill="none" stroke="midnightblue" d="M1441.75,-396.283C1464.03,-367.483 1496.8,-325.109 1516.69,-299.382"/>
<polygon fill="midnightblue" stroke="midnightblue" points="1519.56,-301.391 1522.91,-291.339 1514.02,-297.109 1519.56,-301.391"/>
</g>
<!-- Node39 -->
<g id="node39" class="node"><title>Node39</title>
<polygon fill="none" stroke="#bfbfbf" points="1965,-334.5 1965,-353.5 2005,-353.5 2005,-334.5 1965,-334.5"/>
<text text-anchor="middle" x="1985" y="-341.5" font-family="Helvetica,sans-Serif" font-size="10.00">utility</text>
</g>
<!-- Node1&#45;&gt;Node39 -->
<g id="edge49" class="edge"><title>Node1&#45;&gt;Node39</title>
<path fill="none" stroke="midnightblue" d="M1504.9,-423.804C1611.67,-418.124 1797.53,-402.517 1951,-360 1953.5,-359.307 1956.06,-358.461 1958.59,-357.527"/>
<polygon fill="midnightblue" stroke="midnightblue" points="1960.14,-360.672 1968.06,-353.629 1957.48,-354.199 1960.14,-360.672"/>
</g>
<!-- Node3 -->
<g id="node3" class="node"><title>Node3</title>
<g id="a_node3"><a xlink:href="../../d4/de2/BaseCluster_8h.html" target="_top" xlink:title="DetectorsBase/BaseCluster.h">
<polygon fill="none" stroke="black" points="561.5,-266.5 561.5,-285.5 708.5,-285.5 708.5,-266.5 561.5,-266.5"/>
<text text-anchor="middle" x="635" y="-273.5" font-family="Helvetica,sans-Serif" font-size="10.00">DetectorsBase/BaseCluster.h</text>
</a>
</g>
</g>
<!-- Node2&#45;&gt;Node3 -->
<g id="edge2" class="edge"><title>Node2&#45;&gt;Node3</title>
<path fill="none" stroke="midnightblue" d="M804.141,-328.922C764.911,-316.88 709.141,-299.76 672.524,-288.519"/>
<polygon fill="midnightblue" stroke="midnightblue" points="673.321,-285.103 662.734,-285.514 671.267,-291.794 673.321,-285.103"/>
</g>
<!-- Node4 -->
<g id="node4" class="node"><title>Node4</title>
<polygon fill="none" stroke="#bfbfbf" points="393.5,-204.5 393.5,-223.5 452.5,-223.5 452.5,-204.5 393.5,-204.5"/>
<text text-anchor="middle" x="423" y="-211.5" font-family="Helvetica,sans-Serif" font-size="10.00">TObject.h</text>
</g>
<!-- Node3&#45;&gt;Node4 -->
<g id="edge3" class="edge"><title>Node3&#45;&gt;Node4</title>
<path fill="none" stroke="midnightblue" d="M604.626,-266.403C567.183,-255.806 503.471,-237.775 462.325,-226.13"/>
<polygon fill="midnightblue" stroke="midnightblue" points="463.21,-222.743 452.635,-223.387 461.303,-229.478 463.21,-222.743"/>
</g>
<!-- Node5 -->
<g id="node5" class="node"><title>Node5</title>
<polygon fill="none" stroke="#bfbfbf" points="470.5,-204.5 470.5,-223.5 511.5,-223.5 511.5,-204.5 470.5,-204.5"/>
<text text-anchor="middle" x="491" y="-211.5" font-family="Helvetica,sans-Serif" font-size="10.00">bitset</text>
</g>
<!-- Node3&#45;&gt;Node5 -->
<g id="edge4" class="edge"><title>Node3&#45;&gt;Node5</title>
<path fill="none" stroke="midnightblue" d="M614.368,-266.403C589.881,-256.2 548.853,-239.105 520.891,-227.454"/>
<polygon fill="midnightblue" stroke="midnightblue" points="522.17,-224.196 511.593,-223.581 519.478,-230.658 522.17,-224.196"/>
</g>
<!-- Node6 -->
<g id="node6" class="node"><title>Node6</title>
<polygon fill="none" stroke="#bfbfbf" points="530,-204.5 530,-223.5 580,-223.5 580,-204.5 530,-204.5"/>
<text text-anchor="middle" x="555" y="-211.5" font-family="Helvetica,sans-Serif" font-size="10.00">iomanip</text>
</g>
<!-- Node3&#45;&gt;Node6 -->
<g id="edge5" class="edge"><title>Node3&#45;&gt;Node6</title>
<path fill="none" stroke="midnightblue" d="M623.538,-266.403C610.825,-256.869 590.087,-241.315 574.747,-229.811"/>
<polygon fill="midnightblue" stroke="midnightblue" points="576.541,-226.781 566.441,-223.581 572.341,-232.381 576.541,-226.781"/>
</g>
<!-- Node7 -->
<g id="node7" class="node"><title>Node7</title>
<polygon fill="none" stroke="#bfbfbf" points="598.5,-204.5 598.5,-223.5 627.5,-223.5 627.5,-204.5 598.5,-204.5"/>
<text text-anchor="middle" x="613" y="-211.5" font-family="Helvetica,sans-Serif" font-size="10.00">ios</text>
</g>
<!-- Node3&#45;&gt;Node7 -->
<g id="edge6" class="edge"><title>Node3&#45;&gt;Node7</title>
<path fill="none" stroke="midnightblue" d="M631.848,-266.403C628.679,-257.76 623.696,-244.17 619.649,-233.134"/>
<polygon fill="midnightblue" stroke="midnightblue" points="622.875,-231.764 616.146,-223.581 616.303,-234.174 622.875,-231.764"/>
</g>
<!-- Node8 -->
<g id="node8" class="node"><title>Node8</title>
<polygon fill="none" stroke="#bfbfbf" points="0,-74.5 0,-93.5 54,-93.5 54,-74.5 0,-74.5"/>
<text text-anchor="middle" x="27" y="-81.5" font-family="Helvetica,sans-Serif" font-size="10.00">iostream</text>
</g>
<!-- Node3&#45;&gt;Node8 -->
<g id="edge7" class="edge"><title>Node3&#45;&gt;Node8</title>
<path fill="none" stroke="midnightblue" d="M638.318,-266.399C643.351,-251.742 650.853,-221.791 636,-204 470.127,-5.31032 311.228,-173.31 63,-100 60.3518,-99.2179 57.6338,-98.3043 54.9354,-97.321"/>
<polygon fill="midnightblue" stroke="midnightblue" points="55.995,-93.9766 45.4082,-93.5645 53.4273,-100.489 55.995,-93.9766"/>
</g>
<!-- Node9 -->
<g id="node9" class="node"><title>Node9</title>
<g id="a_node9"><a xlink:href="../../dd/d76/Cartesian3D_8h.html" target="_top" xlink:title="MathUtils/Cartesian3D.h">
<polygon fill="none" stroke="black" points="684.5,-142.5 684.5,-161.5 809.5,-161.5 809.5,-142.5 684.5,-142.5"/>
<text text-anchor="middle" x="747" y="-149.5" font-family="Helvetica,sans-Serif" font-size="10.00">MathUtils/Cartesian3D.h</text>
</a>
</g>
</g>
<!-- Node3&#45;&gt;Node9 -->
<g id="edge8" class="edge"><title>Node3&#45;&gt;Node9</title>
<path fill="none" stroke="midnightblue" d="M643.055,-266.226C661.702,-245.914 708.072,-195.404 732.075,-169.258"/>
<polygon fill="midnightblue" stroke="midnightblue" points="734.834,-171.428 739.018,-161.694 729.677,-166.694 734.834,-171.428"/>
</g>
<!-- Node20 -->
<g id="node20" class="node"><title>Node20</title>
<g id="a_node20"><a xlink:href="../../d4/d20/DetMatrixCache_8h.html" target="_top" xlink:title="DetectorsBase/DetMatrixCache.h">
<polygon fill="none" stroke="black" points="1201,-204.5 1201,-223.5 1365,-223.5 1365,-204.5 1201,-204.5"/>
<text text-anchor="middle" x="1283" y="-211.5" font-family="Helvetica,sans-Serif" font-size="10.00">DetectorsBase/DetMatrixCache.h</text>
</a>
</g>
</g>
<!-- Node3&#45;&gt;Node20 -->
<g id="edge20" class="edge"><title>Node3&#45;&gt;Node20</title>
<path fill="none" stroke="midnightblue" d="M708.703,-268.176C827.476,-257.178 1060.99,-235.557 1190.68,-223.549"/>
<polygon fill="midnightblue" stroke="midnightblue" points="1191.34,-227.002 1200.98,-222.595 1190.7,-220.032 1191.34,-227.002"/>
</g>
<!-- Node9&#45;&gt;Node8 -->
<g id="edge19" class="edge"><title>Node9&#45;&gt;Node8</title>
<path fill="none" stroke="midnightblue" d="M708.386,-142.434C696.164,-140.004 682.566,-137.589 670,-136 401.884,-102.087 326.318,-160.826 63,-100 59.9323,-99.2914 56.7913,-98.3453 53.7049,-97.2714"/>
<polygon fill="midnightblue" stroke="midnightblue" points="54.7752,-93.9317 44.1876,-93.5395 52.2198,-100.449 54.7752,-93.9317"/>
</g>
<!-- Node10 -->
<g id="node10" class="node"><title>Node10</title>
<polygon fill="none" stroke="#bfbfbf" points="672.5,-74.5 672.5,-93.5 821.5,-93.5 821.5,-74.5 672.5,-74.5"/>
<text text-anchor="middle" x="747" y="-81.5" font-family="Helvetica,sans-Serif" font-size="10.00">Math/GenVector/Rotation3D.h</text>
</g>
<!-- Node9&#45;&gt;Node10 -->
<g id="edge9" class="edge"><title>Node9&#45;&gt;Node10</title>
<path fill="none" stroke="midnightblue" d="M747,-142.372C747,-132.643 747,-116.528 747,-103.85"/>
<polygon fill="midnightblue" stroke="midnightblue" points="750.5,-103.841 747,-93.8411 743.5,-103.841 750.5,-103.841"/>
</g>
<!-- Node11 -->
<g id="node11" class="node"><title>Node11</title>
<polygon fill="none" stroke="#bfbfbf" points="840,-74.5 840,-93.5 996,-93.5 996,-74.5 840,-74.5"/>
<text text-anchor="middle" x="918" y="-81.5" font-family="Helvetica,sans-Serif" font-size="10.00">Math/GenVector/Transform3D.h</text>
</g>
<!-- Node9&#45;&gt;Node11 -->
<g id="edge10" class="edge"><title>Node9&#45;&gt;Node11</title>
<path fill="none" stroke="midnightblue" d="M769.355,-142.372C799.265,-130.827 852.469,-110.293 886.45,-97.1772"/>
<polygon fill="midnightblue" stroke="midnightblue" points="887.841,-100.392 895.91,-93.5259 885.321,-93.8615 887.841,-100.392"/>
</g>
<!-- Node12 -->
<g id="node12" class="node"><title>Node12</title>
<polygon fill="none" stroke="#bfbfbf" points="1014,-74.5 1014,-93.5 1174,-93.5 1174,-74.5 1014,-74.5"/>
<text text-anchor="middle" x="1094" y="-81.5" font-family="Helvetica,sans-Serif" font-size="10.00">Math/GenVector/Translation3D.h</text>
</g>
<!-- Node9&#45;&gt;Node12 -->
<g id="edge11" class="edge"><title>Node9&#45;&gt;Node12</title>
<path fill="none" stroke="midnightblue" d="M792.008,-142.439C855.324,-130.396 970.581,-108.475 1038.93,-95.4745"/>
<polygon fill="midnightblue" stroke="midnightblue" points="1039.9,-98.8525 1049.07,-93.5455 1038.59,-91.9758 1039.9,-98.8525"/>
</g>
<!-- Node9&#45;&gt;Node13 -->
<g id="edge12" class="edge"><title>Node9&#45;&gt;Node13</title>
<path fill="none" stroke="midnightblue" d="M809.541,-148.411C993.613,-140.632 1525.37,-116.957 1602,-100 1605.43,-99.2415 1608.95,-98.2155 1612.4,-97.0538"/>
<polygon fill="midnightblue" stroke="midnightblue" points="1613.68,-100.315 1621.81,-93.53 1611.22,-93.7592 1613.68,-100.315"/>
</g>
<!-- Node14 -->
<g id="node14" class="node"><title>Node14</title>
<polygon fill="none" stroke="#bfbfbf" points="72,-74.5 72,-93.5 148,-93.5 148,-74.5 72,-74.5"/>
<text text-anchor="middle" x="110" y="-81.5" font-family="Helvetica,sans-Serif" font-size="10.00">TGeoMatrix.h</text>
</g>
<!-- Node9&#45;&gt;Node14 -->
<g id="edge13" class="edge"><title>Node9&#45;&gt;Node14</title>
<path fill="none" stroke="midnightblue" d="M707.98,-142.438C695.86,-140.038 682.422,-137.64 670,-136 443.404,-106.092 381.469,-143.053 157,-100 152.429,-99.1232 147.68,-97.9428 143.036,-96.627"/>
<polygon fill="midnightblue" stroke="midnightblue" points="143.73,-93.1793 133.144,-93.5961 141.68,-99.8722 143.73,-93.1793"/>
</g>
<!-- Node15 -->
<g id="node15" class="node"><title>Node15</title>
<polygon fill="none" stroke="#bfbfbf" points="166.5,-69 166.5,-99 317.5,-99 317.5,-69 166.5,-69"/>
<text text-anchor="start" x="174.5" y="-87" font-family="Helvetica,sans-Serif" font-size="10.00">Math/GenVector/Displacement</text>
<text text-anchor="middle" x="242" y="-76" font-family="Helvetica,sans-Serif" font-size="10.00">Vector3D.h</text>
</g>
<!-- Node9&#45;&gt;Node15 -->
<g id="edge14" class="edge"><title>Node9&#45;&gt;Node15</title>
<path fill="none" stroke="midnightblue" d="M706.753,-142.468C694.947,-140.153 681.988,-137.793 670,-136 521.662,-113.811 480.544,-121.002 327.73,-100.029"/>
<polygon fill="midnightblue" stroke="midnightblue" points="327.887,-96.5177 317.5,-98.6066 326.923,-103.451 327.887,-96.5177"/>
</g>
<!-- Node16 -->
<g id="node16" class="node"><title>Node16</title>
<polygon fill="none" stroke="#bfbfbf" points="336,-74.5 336,-93.5 512,-93.5 512,-74.5 336,-74.5"/>
<text text-anchor="middle" x="424" y="-81.5" font-family="Helvetica,sans-Serif" font-size="10.00">Math/GenVector/PositionVector3D.h</text>
</g>
<!-- Node9&#45;&gt;Node16 -->
<g id="edge15" class="edge"><title>Node9&#45;&gt;Node16</title>
<path fill="none" stroke="midnightblue" d="M705.105,-142.439C646.289,-130.421 539.323,-108.565 475.654,-95.5547"/>
<polygon fill="midnightblue" stroke="midnightblue" points="476.32,-92.1184 465.821,-93.5455 474.918,-98.9767 476.32,-92.1184"/>
</g>
<!-- Node17 -->
<g id="node17" class="node"><title>Node17</title>
<g id="a_node17"><a xlink:href="../../d2/dd0/Cartesian2D_8h.html" target="_top" xlink:title="MathUtils/Cartesian2D.h">
<polygon fill="none" stroke="black" points="529.5,-74.5 529.5,-93.5 654.5,-93.5 654.5,-74.5 529.5,-74.5"/>
<text text-anchor="middle" x="592" y="-81.5" font-family="Helvetica,sans-Serif" font-size="10.00">MathUtils/Cartesian2D.h</text>
</a>
</g>
</g>
<!-- Node9&#45;&gt;Node17 -->
<g id="edge16" class="edge"><title>Node9&#45;&gt;Node17</title>
<path fill="none" stroke="midnightblue" d="M726.736,-142.372C699.932,-130.958 652.488,-110.756 621.65,-97.6252"/>
<polygon fill="midnightblue" stroke="midnightblue" points="622.84,-94.328 612.269,-93.6305 620.098,-100.768 622.84,-94.328"/>
</g>
<!-- Node18 -->
<g id="node18" class="node"><title>Node18</title>
<polygon fill="none" stroke="#bfbfbf" points="607.5,-1 607.5,-31 758.5,-31 758.5,-1 607.5,-1"/>
<text text-anchor="start" x="615.5" y="-19" font-family="Helvetica,sans-Serif" font-size="10.00">Math/GenVector/Displacement</text>
<text text-anchor="middle" x="683" y="-8" font-family="Helvetica,sans-Serif" font-size="10.00">Vector2D.h</text>
</g>
<!-- Node17&#45;&gt;Node18 -->
<g id="edge17" class="edge"><title>Node17&#45;&gt;Node18</title>
<path fill="none" stroke="midnightblue" d="M603.897,-74.3717C616.779,-65.0286 637.78,-49.7966 654.907,-37.375"/>
<polygon fill="midnightblue" stroke="midnightblue" points="657.407,-39.8859 663.447,-31.1815 653.297,-34.2194 657.407,-39.8859"/>
</g>
<!-- Node19 -->
<g id="node19" class="node"><title>Node19</title>
<polygon fill="none" stroke="#bfbfbf" points="413,-6.5 413,-25.5 589,-25.5 589,-6.5 413,-6.5"/>
<text text-anchor="middle" x="501" y="-13.5" font-family="Helvetica,sans-Serif" font-size="10.00">Math/GenVector/PositionVector2D.h</text>
</g>
<!-- Node17&#45;&gt;Node19 -->
<g id="edge18" class="edge"><title>Node17&#45;&gt;Node19</title>
<path fill="none" stroke="midnightblue" d="M580.103,-74.3717C565.116,-63.5015 539.138,-44.6602 521.058,-31.5474"/>
<polygon fill="midnightblue" stroke="midnightblue" points="523.05,-28.6684 512.9,-25.6305 518.94,-34.3349 523.05,-28.6684"/>
</g>
<!-- Node20&#45;&gt;Node9 -->
<g id="edge23" class="edge"><title>Node20&#45;&gt;Node9</title>
<path fill="none" stroke="midnightblue" d="M1207.06,-204.499C1104.03,-192.966 921.221,-172.502 819.829,-161.153"/>
<polygon fill="midnightblue" stroke="midnightblue" points="820.005,-157.65 809.677,-160.016 819.226,-164.607 820.005,-157.65"/>
</g>
<!-- Node20&#45;&gt;Node13 -->
<g id="edge34" class="edge"><title>Node20&#45;&gt;Node13</title>
<path fill="none" stroke="midnightblue" d="M1331.64,-204.464C1365.17,-197.441 1410.15,-185.724 1447,-168 1468.79,-157.519 1469.45,-146.977 1491,-136 1537.21,-112.456 1553.19,-117.53 1602,-100 1604.39,-99.14 1606.86,-98.2264 1609.34,-97.2912"/>
<polygon fill="midnightblue" stroke="midnightblue" points="1610.72,-100.512 1618.78,-93.6445 1608.2,-93.9819 1610.72,-100.512"/>
</g>
<!-- Node20&#45;&gt;Node21 -->
<g id="edge21" class="edge"><title>Node20&#45;&gt;Node21</title>
<path fill="none" stroke="midnightblue" d="M1264.23,-204.403C1242.15,-194.29 1205.28,-177.404 1179.86,-165.761"/>
<polygon fill="midnightblue" stroke="midnightblue" points="1181.28,-162.563 1170.73,-161.581 1178.37,-168.927 1181.28,-162.563"/>
</g>
<!-- Node22 -->
<g id="node22" class="node"><title>Node22</title>
<polygon fill="none" stroke="#bfbfbf" points="1221,-6.5 1221,-25.5 1259,-25.5 1259,-6.5 1221,-6.5"/>
<text text-anchor="middle" x="1240" y="-13.5" font-family="Helvetica,sans-Serif" font-size="10.00">array</text>
</g>
<!-- Node20&#45;&gt;Node22 -->
<g id="edge22" class="edge"><title>Node20&#45;&gt;Node22</title>
<path fill="none" stroke="midnightblue" d="M1262.78,-204.495C1248.23,-197.168 1229.7,-185.063 1221,-168 1198.77,-124.393 1218.66,-64.8269 1231.35,-35.233"/>
<polygon fill="midnightblue" stroke="midnightblue" points="1234.7,-36.3265 1235.61,-25.7711 1228.32,-33.453 1234.7,-36.3265"/>
</g>
<!-- Node23 -->
<g id="node23" class="node"><title>Node23</title>
<g id="a_node23"><a xlink:href="../../d6/d31/DetID_8h.html" target="_top" xlink:title="DetectorsBase/DetID.h">
<polygon fill="none" stroke="black" points="1230.5,-142.5 1230.5,-161.5 1349.5,-161.5 1349.5,-142.5 1230.5,-142.5"/>
<text text-anchor="middle" x="1290" y="-149.5" font-family="Helvetica,sans-Serif" font-size="10.00">DetectorsBase/DetID.h</text>
</a>
</g>
</g>
<!-- Node20&#45;&gt;Node23 -->
<g id="edge24" class="edge"><title>Node20&#45;&gt;Node23</title>
<path fill="none" stroke="midnightblue" d="M1284,-204.403C1284.99,-195.938 1286.53,-182.728 1287.8,-171.82"/>
<polygon fill="midnightblue" stroke="midnightblue" points="1291.32,-171.919 1289,-161.581 1284.36,-171.108 1291.32,-171.919"/>
</g>
<!-- Node30 -->
<g id="node30" class="node"><title>Node30</title>
<polygon fill="none" stroke="#bfbfbf" points="1367.5,-142.5 1367.5,-161.5 1438.5,-161.5 1438.5,-142.5 1367.5,-142.5"/>
<text text-anchor="middle" x="1403" y="-149.5" font-family="Helvetica,sans-Serif" font-size="10.00">FairLogger.h</text>
</g>
<!-- Node20&#45;&gt;Node30 -->
<g id="edge35" class="edge"><title>Node20&#45;&gt;Node30</title>
<path fill="none" stroke="midnightblue" d="M1300.19,-204.403C1320.24,-194.379 1353.6,-177.701 1376.86,-166.07"/>
<polygon fill="midnightblue" stroke="midnightblue" points="1378.46,-169.183 1385.84,-161.581 1375.33,-162.922 1378.46,-169.183"/>
</g>
<!-- Node23&#45;&gt;Node13 -->
<g id="edge28" class="edge"><title>Node23&#45;&gt;Node13</title>
<path fill="none" stroke="midnightblue" d="M1326.61,-142.428C1336.75,-140.189 1347.77,-137.88 1358,-136 1465.81,-116.181 1496.1,-128.31 1602,-100 1605.05,-99.1837 1608.2,-98.1971 1611.3,-97.1242"/>
<polygon fill="midnightblue" stroke="midnightblue" points="1612.82,-100.293 1620.96,-93.5058 1610.36,-93.7379 1612.82,-100.293"/>
</g>
<!-- Node23&#45;&gt;Node22 -->
<g id="edge26" class="edge"><title>Node23&#45;&gt;Node22</title>
<path fill="none" stroke="midnightblue" d="M1283.6,-142.431C1276.58,-132.65 1265.47,-115.937 1259,-100 1250.42,-78.8552 1245.28,-53.0299 1242.55,-35.8582"/>
<polygon fill="midnightblue" stroke="midnightblue" points="1245.94,-34.9028 1241.03,-25.5165 1239.02,-35.9185 1245.94,-34.9028"/>
</g>
<!-- Node24 -->
<g id="node24" class="node"><title>Node24</title>
<polygon fill="none" stroke="#bfbfbf" points="1336,-74.5 1336,-93.5 1382,-93.5 1382,-74.5 1336,-74.5"/>
<text text-anchor="middle" x="1359" y="-81.5" font-family="Helvetica,sans-Serif" font-size="10.00">cstdint</text>
</g>
<!-- Node23&#45;&gt;Node24 -->
<g id="edge25" class="edge"><title>Node23&#45;&gt;Node24</title>
<path fill="none" stroke="midnightblue" d="M1299.02,-142.372C1310.01,-131.856 1328.81,-113.882 1342.43,-100.85"/>
<polygon fill="midnightblue" stroke="midnightblue" points="1344.95,-103.283 1349.76,-93.8411 1340.11,-98.2241 1344.95,-103.283"/>
</g>
<!-- Node25 -->
<g id="node25" class="node"><title>Node25</title>
<polygon fill="none" stroke="#bfbfbf" points="1400,-74.5 1400,-93.5 1462,-93.5 1462,-74.5 1400,-74.5"/>
<text text-anchor="middle" x="1431" y="-81.5" font-family="Helvetica,sans-Serif" font-size="10.00">type_traits</text>
</g>
<!-- Node23&#45;&gt;Node25 -->
<g id="edge27" class="edge"><title>Node23&#45;&gt;Node25</title>
<path fill="none" stroke="midnightblue" d="M1308.43,-142.372C1332.61,-131.057 1375.23,-111.105 1403.3,-97.9678"/>
<polygon fill="midnightblue" stroke="midnightblue" points="1404.99,-101.04 1412.56,-93.6305 1402.02,-94.7 1404.99,-101.04"/>
</g>
<!-- Node26 -->
<g id="node26" class="node"><title>Node26</title>
<g id="a_node26"><a xlink:href="../../d9/ded/Utils_8h.html" target="_top" xlink:title="DetectorsBase/Utils.h">
<polygon fill="none" stroke="black" points="1480.5,-74.5 1480.5,-93.5 1593.5,-93.5 1593.5,-74.5 1480.5,-74.5"/>
<text text-anchor="middle" x="1537" y="-81.5" font-family="Helvetica,sans-Serif" font-size="10.00">DetectorsBase/Utils.h</text>
</a>
</g>
</g>
<!-- Node23&#45;&gt;Node26 -->
<g id="edge29" class="edge"><title>Node23&#45;&gt;Node26</title>
<path fill="none" stroke="midnightblue" d="M1322.04,-142.439C1366.27,-130.619 1446.13,-109.281 1495.07,-96.2043"/>
<polygon fill="midnightblue" stroke="midnightblue" points="1496.26,-99.5085 1505.02,-93.5455 1494.45,-92.7457 1496.26,-99.5085"/>
</g>
<!-- Node29 -->
<g id="node29" class="node"><title>Node29</title>
<polygon fill="none" stroke="#bfbfbf" points="1268.5,-74.5 1268.5,-93.5 1317.5,-93.5 1317.5,-74.5 1268.5,-74.5"/>
<text text-anchor="middle" x="1293" y="-81.5" font-family="Helvetica,sans-Serif" font-size="10.00">cassert</text>
</g>
<!-- Node23&#45;&gt;Node29 -->
<g id="edge33" class="edge"><title>Node23&#45;&gt;Node29</title>
<path fill="none" stroke="midnightblue" d="M1290.39,-142.372C1290.83,-132.643 1291.57,-116.528 1292.14,-103.85"/>
<polygon fill="midnightblue" stroke="midnightblue" points="1295.64,-103.99 1292.6,-93.8411 1288.65,-103.672 1295.64,-103.99"/>
</g>
<!-- Node26&#45;&gt;Node22 -->
<g id="edge32" class="edge"><title>Node26&#45;&gt;Node22</title>
<path fill="none" stroke="midnightblue" d="M1499.09,-74.4985C1489.59,-72.3725 1479.42,-70.0998 1470,-68 1397.71,-51.894 1312.62,-33.0574 1269,-23.4104"/>
<polygon fill="midnightblue" stroke="midnightblue" points="1269.61,-19.96 1259.09,-21.2183 1268.09,-26.7949 1269.61,-19.96"/>
</g>
<!-- Node27 -->
<g id="node27" class="node"><title>Node27</title>
<g id="a_node27"><a xlink:href="../../d1/daa/Base_2include_2DetectorsBase_2Constants_8h.html" target="_top" xlink:title="DetectorsBase/Constants.h">
<polygon fill="none" stroke="black" points="1522,-6.5 1522,-25.5 1660,-25.5 1660,-6.5 1522,-6.5"/>
<text text-anchor="middle" x="1591" y="-13.5" font-family="Helvetica,sans-Serif" font-size="10.00">DetectorsBase/Constants.h</text>
</a>
</g>
</g>
<!-- Node26&#45;&gt;Node27 -->
<g id="edge30" class="edge"><title>Node26&#45;&gt;Node27</title>
<path fill="none" stroke="midnightblue" d="M1544.06,-74.3717C1552.5,-64.053 1566.82,-46.5513 1577.43,-33.5854"/>
<polygon fill="midnightblue" stroke="midnightblue" points="1580.14,-35.7971 1583.77,-25.8411 1574.73,-31.3644 1580.14,-35.7971"/>
</g>
<!-- Node28 -->
<g id="node28" class="node"><title>Node28</title>
<polygon fill="none" stroke="#bfbfbf" points="1460,-6.5 1460,-25.5 1504,-25.5 1504,-6.5 1460,-6.5"/>
<text text-anchor="middle" x="1482" y="-13.5" font-family="Helvetica,sans-Serif" font-size="10.00">cmath</text>
</g>
<!-- Node26&#45;&gt;Node28 -->
<g id="edge31" class="edge"><title>Node26&#45;&gt;Node28</title>
<path fill="none" stroke="midnightblue" d="M1529.81,-74.3717C1521.21,-64.053 1506.63,-46.5513 1495.82,-33.5854"/>
<polygon fill="midnightblue" stroke="midnightblue" points="1498.46,-31.2827 1489.37,-25.8411 1493.08,-35.764 1498.46,-31.2827"/>
</g>
<!-- Node31&#45;&gt;Node20 -->
<g id="edge37" class="edge"><title>Node31&#45;&gt;Node20</title>
<path fill="none" stroke="midnightblue" d="M1347.26,-334.202C1335.98,-313.275 1307.37,-260.216 1292.43,-232.486"/>
<polygon fill="midnightblue" stroke="midnightblue" points="1295.42,-230.664 1287.59,-223.522 1289.26,-233.986 1295.42,-230.664"/>
</g>
<!-- Node32 -->
<g id="node32" class="node"><title>Node32</title>
<polygon fill="none" stroke="#bfbfbf" points="1352.5,-266.5 1352.5,-285.5 1421.5,-285.5 1421.5,-266.5 1352.5,-266.5"/>
<text text-anchor="middle" x="1387" y="-273.5" font-family="Helvetica,sans-Serif" font-size="10.00">TObjArray.h</text>
</g>
<!-- Node31&#45;&gt;Node32 -->
<g id="edge38" class="edge"><title>Node31&#45;&gt;Node32</title>
<path fill="none" stroke="midnightblue" d="M1356.58,-334.372C1361.89,-324.348 1370.8,-307.546 1377.61,-294.708"/>
<polygon fill="midnightblue" stroke="midnightblue" points="1380.72,-296.316 1382.31,-285.841 1374.53,-293.036 1380.72,-296.316"/>
</g>
<!-- Node33 -->
<g id="node33" class="node"><title>Node33</title>
<polygon fill="none" stroke="#bfbfbf" points="1254.5,-266.5 1254.5,-285.5 1295.5,-285.5 1295.5,-266.5 1254.5,-266.5"/>
<text text-anchor="middle" x="1275" y="-273.5" font-family="Helvetica,sans-Serif" font-size="10.00">string</text>
</g>
<!-- Node31&#45;&gt;Node33 -->
<g id="edge39" class="edge"><title>Node31&#45;&gt;Node33</title>
<path fill="none" stroke="midnightblue" d="M1341.93,-334.372C1329.55,-323.758 1308.3,-305.545 1293.07,-292.485"/>
<polygon fill="midnightblue" stroke="midnightblue" points="1295.19,-289.692 1285.31,-285.841 1290.63,-295.006 1295.19,-289.692"/>
</g>
<!-- Node34&#45;&gt;Node13 -->
<g id="edge41" class="edge"><title>Node34&#45;&gt;Node13</title>
<path fill="none" stroke="midnightblue" d="M1527.84,-260.993C1517.12,-234.25 1498.48,-175.102 1524,-136 1526.54,-132.112 1576.18,-111.17 1609.7,-97.3594"/>
<polygon fill="midnightblue" stroke="midnightblue" points="1611.17,-100.539 1619.09,-93.5013 1608.51,-94.0636 1611.17,-100.539"/>
</g>
<!-- Node35 -->
<g id="node35" class="node"><title>Node35</title>
<g id="a_node35"><a xlink:href="../../d0/d06/ITSMFT_2common_2base_2include_2ITSMFTBase_2Digit_8h.html" target="_top" xlink:title="ITSMFTBase/Digit.h">
<polygon fill="none" stroke="black" points="1659.5,-204.5 1659.5,-223.5 1766.5,-223.5 1766.5,-204.5 1659.5,-204.5"/>
<text text-anchor="middle" x="1713" y="-211.5" font-family="Helvetica,sans-Serif" font-size="10.00">ITSMFTBase/Digit.h</text>
</a>
</g>
</g>
<!-- Node34&#45;&gt;Node35 -->
<g id="edge42" class="edge"><title>Node34&#45;&gt;Node35</title>
<path fill="none" stroke="midnightblue" d="M1575.97,-260.933C1606.93,-250.553 1648.59,-236.589 1677.82,-226.792"/>
<polygon fill="midnightblue" stroke="midnightblue" points="1679.23,-230.009 1687.6,-223.513 1677.01,-223.372 1679.23,-230.009"/>
</g>
<!-- Node37 -->
<g id="node37" class="node"><title>Node37</title>
<g id="a_node37"><a xlink:href="../../d7/dcd/MCCompLabel_8h.html" target="_top" xlink:title="SimulationDataFormat\l/MCCompLabel.h">
<polygon fill="none" stroke="black" points="1533,-137 1533,-167 1647,-167 1647,-137 1533,-137"/>
<text text-anchor="start" x="1541" y="-155" font-family="Helvetica,sans-Serif" font-size="10.00">SimulationDataFormat</text>
<text text-anchor="middle" x="1590" y="-144" font-family="Helvetica,sans-Serif" font-size="10.00">/MCCompLabel.h</text>
</a>
</g>
</g>
<!-- Node34&#45;&gt;Node37 -->
<g id="edge48" class="edge"><title>Node34&#45;&gt;Node37</title>
<path fill="none" stroke="midnightblue" d="M1540.64,-260.526C1550.17,-239.778 1567.81,-201.351 1579.21,-176.497"/>
<polygon fill="midnightblue" stroke="midnightblue" points="1582.55,-177.627 1583.54,-167.079 1576.19,-174.707 1582.55,-177.627"/>
</g>
<!-- Node35&#45;&gt;Node13 -->
<g id="edge47" class="edge"><title>Node35&#45;&gt;Node13</title>
<path fill="none" stroke="midnightblue" d="M1766.57,-207.316C1827.55,-198.706 1914.51,-178.613 1880,-136 1855.04,-105.176 1739.39,-92.2097 1678.2,-87.4312"/>
<polygon fill="midnightblue" stroke="midnightblue" points="1678.39,-83.9357 1668.16,-86.6823 1677.87,-90.9163 1678.39,-83.9357"/>
</g>
<!-- Node36 -->
<g id="node36" class="node"><title>Node36</title>
<polygon fill="none" stroke="#bfbfbf" points="1665.5,-137 1665.5,-167 1760.5,-167 1760.5,-137 1665.5,-137"/>
<text text-anchor="start" x="1673.5" y="-155" font-family="Helvetica,sans-Serif" font-size="10.00">boost/serialization</text>
<text text-anchor="middle" x="1713" y="-144" font-family="Helvetica,sans-Serif" font-size="10.00">/base_object.hpp</text>
</g>
<!-- Node35&#45;&gt;Node36 -->
<g id="edge43" class="edge"><title>Node35&#45;&gt;Node36</title>
<path fill="none" stroke="midnightblue" d="M1713,-204.403C1713,-197.341 1713,-186.975 1713,-177.399"/>
<polygon fill="midnightblue" stroke="midnightblue" points="1716.5,-177.141 1713,-167.141 1709.5,-177.141 1716.5,-177.141"/>
</g>
<!-- Node35&#45;&gt;Node37 -->
<g id="edge44" class="edge"><title>Node35&#45;&gt;Node37</title>
<path fill="none" stroke="midnightblue" d="M1695.38,-204.403C1677.94,-195.898 1650.68,-182.602 1628.26,-171.663"/>
<polygon fill="midnightblue" stroke="midnightblue" points="1629.51,-168.379 1618.99,-167.141 1626.44,-174.671 1629.51,-168.379"/>
</g>
<!-- Node38 -->
<g id="node38" class="node"><title>Node38</title>
<polygon fill="none" stroke="#bfbfbf" points="1779,-142.5 1779,-161.5 1871,-161.5 1871,-142.5 1779,-142.5"/>
<text text-anchor="middle" x="1825" y="-149.5" font-family="Helvetica,sans-Serif" font-size="10.00">FairTimeStamp.h</text>
</g>
<!-- Node35&#45;&gt;Node38 -->
<g id="edge46" class="edge"><title>Node35&#45;&gt;Node38</title>
<path fill="none" stroke="midnightblue" d="M1729.05,-204.403C1747.59,-194.468 1778.34,-177.997 1800.02,-166.381"/>
<polygon fill="midnightblue" stroke="midnightblue" points="1801.82,-169.388 1808.98,-161.581 1798.52,-163.218 1801.82,-169.388"/>
</g>
<!-- Node37&#45;&gt;Node13 -->
<g id="edge45" class="edge"><title>Node37&#45;&gt;Node13</title>
<path fill="none" stroke="midnightblue" d="M1600.85,-136.679C1608.57,-126.49 1618.97,-112.759 1627.11,-102.011"/>
<polygon fill="midnightblue" stroke="midnightblue" points="1630.06,-103.913 1633.31,-93.8283 1624.48,-99.6857 1630.06,-103.913"/>
</g>
</g>
</svg>
