<?xml version="1.0" encoding="UTF-8" standalone="no"?>
<!DOCTYPE svg PUBLIC "-//W3C//DTD SVG 1.1//EN"
 "http://www.w3.org/Graphics/SVG/1.1/DTD/svg11.dtd">
<!-- Generated by graphviz version 2.36.0 (20140111.2315)
 -->
<!-- Title: o2::fit::Detector Pages: 1 -->
<!--zoomable 912 -->
<svg id="main" version="1.1" xmlns="http://www.w3.org/2000/svg" xmlns:xlink="http://www.w3.org/1999/xlink" xml:space="preserve" onload="init(evt)">
<style type="text/css"><![CDATA[
.edge:hover path { stroke: red; }
.edge:hover polygon { stroke: red; fill: red; }
]]></style>
<script type="text/javascript"><![CDATA[
var edges = document.getElementsByTagName('g');
if (edges && edges.length) {
  for (var i=0;i<edges.length;i++) {
    if (edges[i].id.substr(0,4)=='edge') {
      edges[i].setAttribute('class','edge');
    }
  }
}
]]></script>
        <defs>
                <circle id="rim" cx="0" cy="0" r="7"/>
                <circle id="rim2" cx="0" cy="0" r="3.5"/>
                <g id="zoomPlus">
                        <use xlink:href="#rim" fill="#404040">
                                <set attributeName="fill" to="#808080" begin="zoomplus.mouseover" end="zoomplus.mouseout"/>
                        </use>
                        <path d="M-4,0h8M0,-4v8" fill="none" stroke="white" stroke-width="1.5" pointer-events="none"/>
                </g>
                <g id="zoomMin">
                        <use xlink:href="#rim" fill="#404040">
                                <set attributeName="fill" to="#808080" begin="zoomminus.mouseover" end="zoomminus.mouseout"/>
                        </use>
                        <path d="M-4,0h8" fill="none" stroke="white" stroke-width="1.5" pointer-events="none"/>
                </g>
                <g id="dirArrow">
                        <path fill="none" stroke="white" stroke-width="1.5" d="M0,-3.0v7 M-2.5,-0.5L0,-3.0L2.5,-0.5"/>
                </g>
               <g id="resetDef">
                       <use xlink:href="#rim2" fill="#404040">
                               <set attributeName="fill" to="#808080" begin="reset.mouseover" end="reset.mouseout"/>
                       </use>
               </g>
        </defs>

<script type="text/javascript">
var viewWidth = 278;
var viewHeight = 912;
var sectionId = 'dynsection-1';
</script>
<script xlink:href="../../svgpan.js"/>
<svg id="graph" class="graph">
<g id="viewport">
<title>o2::fit::Detector</title>
<!-- Node1 -->
<g id="node1" class="node"><title>Node1</title>
<polygon fill="#bfbfbf" stroke="black" points="63.5,-0.5 63.5,-233.5 198.5,-233.5 198.5,-0.5 63.5,-0.5"/>
<text text-anchor="middle" x="131" y="-221.5" font-family="Helvetica,sans-Serif" font-size="10.00">o2::fit::Detector</text>
<polyline fill="none" stroke="black" points="63.5,-214.5 198.5,-214.5 "/>
<text text-anchor="middle" x="131" y="-202.5" font-family="Helvetica,sans-Serif" font-size="10.00"> </text>
<polyline fill="none" stroke="black" points="63.5,-195.5 198.5,-195.5 "/>
<text text-anchor="start" x="71.5" y="-183.5" font-family="Helvetica,sans-Serif" font-size="10.00">+ Detector()</text>
<text text-anchor="start" x="71.5" y="-172.5" font-family="Helvetica,sans-Serif" font-size="10.00">+ Detector()</text>
<text text-anchor="start" x="71.5" y="-161.5" font-family="Helvetica,sans-Serif" font-size="10.00">+ Initialize()</text>
<text text-anchor="start" x="71.5" y="-150.5" font-family="Helvetica,sans-Serif" font-size="10.00">+ ProcessHits()</text>
<text text-anchor="start" x="71.5" y="-139.5" font-family="Helvetica,sans-Serif" font-size="10.00">+ AddHit()</text>
<text text-anchor="start" x="71.5" y="-128.5" font-family="Helvetica,sans-Serif" font-size="10.00">+ Register()</text>
<text text-anchor="start" x="71.5" y="-117.5" font-family="Helvetica,sans-Serif" font-size="10.00">+ getHits()</text>
<text text-anchor="start" x="71.5" y="-106.5" font-family="Helvetica,sans-Serif" font-size="10.00">+ Reset()</text>
<text text-anchor="start" x="71.5" y="-95.5" font-family="Helvetica,sans-Serif" font-size="10.00">+ CreateMaterials()</text>
<text text-anchor="start" x="71.5" y="-84.5" font-family="Helvetica,sans-Serif" font-size="10.00">+ ConstructGeometry()</text>
<text text-anchor="start" x="71.5" y="-73.5" font-family="Helvetica,sans-Serif" font-size="10.00">+ SetOneMCP()</text>
<text text-anchor="start" x="71.5" y="-62.5" font-family="Helvetica,sans-Serif" font-size="10.00">+ DefineOpticalProperties()</text>
<text text-anchor="start" x="71.5" y="-51.5" font-family="Helvetica,sans-Serif" font-size="10.00">+ ReadOptProperties()</text>
<text text-anchor="start" x="71.5" y="-40.5" font-family="Helvetica,sans-Serif" font-size="10.00">+ FillOtherOptProperties()</text>
<text text-anchor="start" x="71.5" y="-29.5" font-family="Helvetica,sans-Serif" font-size="10.00">+ RegisterPhotoE()</text>
<text text-anchor="start" x="71.5" y="-18.5" font-family="Helvetica,sans-Serif" font-size="10.00">+ Print()</text>
<text text-anchor="start" x="71.5" y="-7.5" font-family="Helvetica,sans-Serif" font-size="10.00">+ Read()</text>
</g>
<!-- Node2 -->
<g id="node2" class="node"><title>Node2</title>
<g id="a_node2"><a xlink:href="../../d4/d8a/classo2_1_1Base_1_1DetImpl.html" target="_top" xlink:title="{o2::Base::DetImpl\&lt;\l Detector \&gt;\n||+ updateHitTrackIndices()\l}">
<polygon fill="none" stroke="black" points="66,-273 66,-341 196,-341 196,-273 66,-273"/>
<text text-anchor="start" x="74" y="-329" font-family="Helvetica,sans-Serif" font-size="10.00">o2::Base::DetImpl&lt;</text>
<text text-anchor="middle" x="131" y="-318" font-family="Helvetica,sans-Serif" font-size="10.00"> Detector &gt;</text>
<polyline fill="none" stroke="black" points="66,-311 196,-311 "/>
<text text-anchor="middle" x="131" y="-299" font-family="Helvetica,sans-Serif" font-size="10.00"> </text>
<polyline fill="none" stroke="black" points="66,-292 196,-292 "/>
<text text-anchor="start" x="74" y="-280" font-family="Helvetica,sans-Serif" font-size="10.00">+ updateHitTrackIndices()</text>
</a>
</g>
</g>
<!-- Node2&#45;&gt;Node1 -->
<g id="edge1" class="edge"><title>Node2&#45;&gt;Node1</title>
<path fill="none" stroke="midnightblue" d="M131,-262.752C131,-253.805 131,-243.982 131,-233.797"/>
<polygon fill="none" stroke="midnightblue" points="127.5,-262.822 131,-272.822 134.5,-262.822 127.5,-262.822"/>
</g>
<!-- Node3 -->
<g id="node3" class="node"><title>Node3</title>
<g id="a_node3"><a xlink:href="../../d7/d02/classo2_1_1Base_1_1Detector.html" target="_top" xlink:title="{o2::Base::Detector\n||+ Detector()\l+ Detector()\l+ ~Detector()\l+ Material()\l+ Mixture()\l+ Medium()\l+ Matrix()\l+ defineWrapperVolume()\l+ setNumberOfWrapperVolumes()\l+ defineLayer()\l+ defineLayerTurbo()\l+ getMaterialID()\l+ getMediumID()\l+ getMediumIDMappingAsVector()\l+ addNameTo()\l+ updateHitTrackIndices()\l+ GetCollection()\l+ setDensityFactor()\l+ getDensityFactor()\l+ initFieldTrackingParams()\l# Detector()\l# operator=()\l}">
<polygon fill="none" stroke="black" points="28.5,-499 28.5,-787 195.5,-787 195.5,-499 28.5,-499"/>
<text text-anchor="middle" x="112" y="-775" font-family="Helvetica,sans-Serif" font-size="10.00">o2::Base::Detector</text>
<polyline fill="none" stroke="black" points="28.5,-768 195.5,-768 "/>
<text text-anchor="middle" x="112" y="-756" font-family="Helvetica,sans-Serif" font-size="10.00"> </text>
<polyline fill="none" stroke="black" points="28.5,-749 195.5,-749 "/>
<text text-anchor="start" x="36.5" y="-737" font-family="Helvetica,sans-Serif" font-size="10.00">+ Detector()</text>
<text text-anchor="start" x="36.5" y="-726" font-family="Helvetica,sans-Serif" font-size="10.00">+ Detector()</text>
<text text-anchor="start" x="36.5" y="-715" font-family="Helvetica,sans-Serif" font-size="10.00">+ ~Detector()</text>
<text text-anchor="start" x="36.5" y="-704" font-family="Helvetica,sans-Serif" font-size="10.00">+ Material()</text>
<text text-anchor="start" x="36.5" y="-693" font-family="Helvetica,sans-Serif" font-size="10.00">+ Mixture()</text>
<text text-anchor="start" x="36.5" y="-682" font-family="Helvetica,sans-Serif" font-size="10.00">+ Medium()</text>
<text text-anchor="start" x="36.5" y="-671" font-family="Helvetica,sans-Serif" font-size="10.00">+ Matrix()</text>
<text text-anchor="start" x="36.5" y="-660" font-family="Helvetica,sans-Serif" font-size="10.00">+ defineWrapperVolume()</text>
<text text-anchor="start" x="36.5" y="-649" font-family="Helvetica,sans-Serif" font-size="10.00">+ setNumberOfWrapperVolumes()</text>
<text text-anchor="start" x="36.5" y="-638" font-family="Helvetica,sans-Serif" font-size="10.00">+ defineLayer()</text>
<text text-anchor="start" x="36.5" y="-627" font-family="Helvetica,sans-Serif" font-size="10.00">+ defineLayerTurbo()</text>
<text text-anchor="start" x="36.5" y="-616" font-family="Helvetica,sans-Serif" font-size="10.00">+ getMaterialID()</text>
<text text-anchor="start" x="36.5" y="-605" font-family="Helvetica,sans-Serif" font-size="10.00">+ getMediumID()</text>
<text text-anchor="start" x="36.5" y="-594" font-family="Helvetica,sans-Serif" font-size="10.00">+ getMediumIDMappingAsVector()</text>
<text text-anchor="start" x="36.5" y="-583" font-family="Helvetica,sans-Serif" font-size="10.00">+ addNameTo()</text>
<text text-anchor="start" x="36.5" y="-572" font-family="Helvetica,sans-Serif" font-size="10.00">+ updateHitTrackIndices()</text>
<text text-anchor="start" x="36.5" y="-561" font-family="Helvetica,sans-Serif" font-size="10.00">+ GetCollection()</text>
<text text-anchor="start" x="36.5" y="-550" font-family="Helvetica,sans-Serif" font-size="10.00">+ setDensityFactor()</text>
<text text-anchor="start" x="36.5" y="-539" font-family="Helvetica,sans-Serif" font-size="10.00">+ getDensityFactor()</text>
<text text-anchor="start" x="36.5" y="-528" font-family="Helvetica,sans-Serif" font-size="10.00">+ initFieldTrackingParams()</text>
<text text-anchor="start" x="36.5" y="-517" font-family="Helvetica,sans-Serif" font-size="10.00"># Detector()</text>
<text text-anchor="start" x="36.5" y="-506" font-family="Helvetica,sans-Serif" font-size="10.00"># operator=()</text>
</a>
</g>
</g>
<!-- Node3&#45;&gt;Node2 -->
<g id="edge2" class="edge"><title>Node3&#45;&gt;Node2</title>
<path fill="none" stroke="midnightblue" d="M113.376,-488.824C114.474,-456.167 116.232,-421.909 119,-390 120.405,-373.803 122.908,-355.928 125.266,-341.012"/>
<polygon fill="none" stroke="midnightblue" points="109.875,-488.797 113.055,-498.903 116.871,-489.019 109.875,-488.797"/>
</g>
<!-- Node7 -->
<g id="node7" class="node"><title>Node7</title>
<g id="a_node7"><a xlink:href="../../d4/d8a/classo2_1_1Base_1_1DetImpl.html" target="_top" xlink:title="{o2::Base::DetImpl\&lt;\l Det \&gt;\n||+ updateHitTrackIndices()\l}">
<polygon fill="none" stroke="black" points="128,-391 128,-459 258,-459 258,-391 128,-391"/>
<text text-anchor="start" x="136" y="-447" font-family="Helvetica,sans-Serif" font-size="10.00">o2::Base::DetImpl&lt;</text>
<text text-anchor="middle" x="193" y="-436" font-family="Helvetica,sans-Serif" font-size="10.00"> Det &gt;</text>
<polyline fill="none" stroke="black" points="128,-429 258,-429 "/>
<text text-anchor="middle" x="193" y="-417" font-family="Helvetica,sans-Serif" font-size="10.00"> </text>
<polyline fill="none" stroke="black" points="128,-410 258,-410 "/>
<text text-anchor="start" x="136" y="-398" font-family="Helvetica,sans-Serif" font-size="10.00">+ updateHitTrackIndices()</text>
</a>
</g>
</g>
<!-- Node3&#45;&gt;Node7 -->
<g id="edge7" class="edge"><title>Node3&#45;&gt;Node7</title>
<path fill="none" stroke="midnightblue" d="M169.213,-489.433C173.334,-478.443 177.175,-468.201 180.517,-459.289"/>
<polygon fill="none" stroke="midnightblue" points="165.924,-488.234 165.69,-498.827 172.478,-490.692 165.924,-488.234"/>
</g>
<!-- Node4 -->
<g id="node4" class="node"><title>Node4</title>
<g id="a_node4"><a xlink:href="../../d6/d0c/classFairDetector.html" target="_top" xlink:title="{FairDetector\n||}">
<polygon fill="none" stroke="black" points="-0.5,-846.5 -0.5,-903.5 70.5,-903.5 70.5,-846.5 -0.5,-846.5"/>
<text text-anchor="middle" x="35" y="-891.5" font-family="Helvetica,sans-Serif" font-size="10.00">FairDetector</text>
<polyline fill="none" stroke="black" points="-0.5,-884.5 70.5,-884.5 "/>
<text text-anchor="middle" x="35" y="-872.5" font-family="Helvetica,sans-Serif" font-size="10.00"> </text>
<polyline fill="none" stroke="black" points="-0.5,-865.5 70.5,-865.5 "/>
<text text-anchor="middle" x="35" y="-853.5" font-family="Helvetica,sans-Serif" font-size="10.00"> </text>
</a>
</g>
</g>
<!-- Node4&#45;&gt;Node3 -->
<g id="edge3" class="edge"><title>Node4&#45;&gt;Node3</title>
<path fill="none" stroke="midnightblue" d="M47.5626,-836.475C52.3114,-822.291 58.0444,-805.166 64.1085,-787.053"/>
<polygon fill="none" stroke="midnightblue" points="44.1438,-835.663 44.288,-846.257 50.7817,-837.885 44.1438,-835.663"/>
</g>
<!-- Node5 -->
<g id="node5" class="node"><title>Node5</title>
<g id="a_node5"><a xlink:href="../../d9/d7d/classFloat__t.html" target="_top" xlink:title="{Float_t\n||}">
<polygon fill="none" stroke="black" points="88.5,-846.5 88.5,-903.5 135.5,-903.5 135.5,-846.5 88.5,-846.5"/>
<text text-anchor="middle" x="112" y="-891.5" font-family="Helvetica,sans-Serif" font-size="10.00">Float_t</text>
<polyline fill="none" stroke="black" points="88.5,-884.5 135.5,-884.5 "/>
<text text-anchor="middle" x="112" y="-872.5" font-family="Helvetica,sans-Serif" font-size="10.00"> </text>
<polyline fill="none" stroke="black" points="88.5,-865.5 135.5,-865.5 "/>
<text text-anchor="middle" x="112" y="-853.5" font-family="Helvetica,sans-Serif" font-size="10.00"> </text>
</a>
</g>
</g>
<!-- Node5&#45;&gt;Node3 -->
<g id="edge4" class="edge"><title>Node5&#45;&gt;Node3</title>
<path fill="none" stroke="#404040" d="M112,-846.257C112,-833.43 112,-817.089 112,-799.273"/>
<polygon fill="none" stroke="#404040" points="112,-799.053 108,-793.053 112,-787.053 116,-793.053 112,-799.053"/>
<text text-anchor="middle" x="151.5" y="-814.5" font-family="Helvetica,sans-Serif" font-size="10.00"> #mDensityFactor</text>
</g>
<!-- Node6 -->
<g id="node6" class="node"><title>Node6</title>
<polygon fill="none" stroke="#bfbfbf" points="174,-846.5 174,-903.5 254,-903.5 254,-846.5 174,-846.5"/>
<text text-anchor="middle" x="214" y="-891.5" font-family="Helvetica,sans-Serif" font-size="10.00">map&lt; int, int &gt;</text>
<polyline fill="none" stroke="#bfbfbf" points="174,-884.5 254,-884.5 "/>
<text text-anchor="middle" x="214" y="-872.5" font-family="Helvetica,sans-Serif" font-size="10.00"> </text>
<polyline fill="none" stroke="#bfbfbf" points="174,-865.5 254,-865.5 "/>
<text text-anchor="middle" x="214" y="-853.5" font-family="Helvetica,sans-Serif" font-size="10.00"> </text>
</g>
<!-- Node6&#45;&gt;Node3 -->
<g id="edge5" class="edge"><title>Node6&#45;&gt;Node3</title>
<path fill="none" stroke="#404040" d="M206.014,-846.211C202.181,-833.762 197.276,-818.991 192,-806 190.969,-803.462 189.915,-800.908 188.842,-798.343"/>
<polygon fill="none" stroke="#404040" points="188.726,-798.072 182.691,-794.124 184.014,-787.035 190.049,-790.983 188.726,-798.072"/>
<text text-anchor="middle" x="235" y="-820" font-family="Helvetica,sans-Serif" font-size="10.00"> #mMapMaterial</text>
<text text-anchor="middle" x="235" y="-809" font-family="Helvetica,sans-Serif" font-size="10.00">#mMapMedium</text>
</g>
<!-- Node7&#45;&gt;Node2 -->
<g id="edge6" class="edge"><title>Node7&#45;&gt;Node2</title>
<path fill="none" stroke="orange" d="M170.42,-381.753C163.289,-368.411 155.515,-353.866 148.769,-341.246"/>
<polygon fill="orange" stroke="orange" points="167.433,-383.59 175.233,-390.759 173.606,-380.29 167.433,-383.59"/>
<text text-anchor="middle" x="193.5" y="-363.5" font-family="Helvetica,sans-Serif" font-size="10.00"> &lt; Detector &gt;</text>
</g>
</g>
</svg>
        <g id="navigator" transform="translate(0 0)" fill="#404254">
                <rect fill="#f2f5e9" fill-opacity="0.5" stroke="#606060" stroke-width=".5" x="0" y="0" width="60" height="60"/>
                <use id="zoomplus" xlink:href="#zoomPlus" x="17" y="9" onmousedown="handleZoom(evt,'in')"/>
                <use id="zoomminus" xlink:href="#zoomMin" x="42" y="9" onmousedown="handleZoom(evt,'out')"/>
                <use id="reset" xlink:href="#resetDef" x="30" y="36" onmousedown="handleReset()"/>
                <g id="arrowUp" xlink:href="#dirArrow" transform="translate(30 24)" onmousedown="handlePan(0,-1)">
                  <use xlink:href="#rim" fill="#404040">
                        <set attributeName="fill" to="#808080" begin="arrowUp.mouseover" end="arrowUp.mouseout"/>
                  </use>
                  <path fill="none" stroke="white" stroke-width="1.5" d="M0,-3.0v7 M-2.5,-0.5L0,-3.0L2.5,-0.5"/>
                </g>
                <g id="arrowRight" xlink:href="#dirArrow" transform="rotate(90) translate(36 -43)" onmousedown="handlePan(1,0)">
                  <use xlink:href="#rim" fill="#404040">
                        <set attributeName="fill" to="#808080" begin="arrowRight.mouseover" end="arrowRight.mouseout"/>
                  </use>
                  <path fill="none" stroke="white" stroke-width="1.5" d="M0,-3.0v7 M-2.5,-0.5L0,-3.0L2.5,-0.5"/>
                </g>
                <g id="arrowDown" xlink:href="#dirArrow" transform="rotate(180) translate(-30 -48)" onmousedown="handlePan(0,1)">
                  <use xlink:href="#rim" fill="#404040">
                        <set attributeName="fill" to="#808080" begin="arrowDown.mouseover" end="arrowDown.mouseout"/>
                  </use>
                  <path fill="none" stroke="white" stroke-width="1.5" d="M0,-3.0v7 M-2.5,-0.5L0,-3.0L2.5,-0.5"/>
                </g>
                <g id="arrowLeft" xlink:href="#dirArrow" transform="rotate(270) translate(-36 17)" onmousedown="handlePan(-1,0)">
                  <use xlink:href="#rim" fill="#404040">
                        <set attributeName="fill" to="#808080" begin="arrowLeft.mouseover" end="arrowLeft.mouseout"/>
                  </use>
                  <path fill="none" stroke="white" stroke-width="1.5" d="M0,-3.0v7 M-2.5,-0.5L0,-3.0L2.5,-0.5"/>
                </g>
        </g>
        <svg viewBox="0 0 15 15" width="100%" height="30px" preserveAspectRatio="xMaxYMin meet">
         <g id="arrow_out" transform="scale(0.3 0.3)">
          <a xlink:href="classo2_1_1fit_1_1Detector__coll__graph_org.svg" target="_base">
           <rect id="button" ry="5" rx="5" y="6" x="6" height="38" width="38"
                fill="#f2f5e9" fill-opacity="0.5" stroke="#606060" stroke-width="1.0"/>
           <path id="arrow"
             d="M 11.500037,31.436501 C 11.940474,20.09759 22.043105,11.32322 32.158766,21.979434 L 37.068811,17.246167 C 37.068811,17.246167 37.088388,32 37.088388,32 L 22.160133,31.978069 C 22.160133,31.978069 26.997745,27.140456 26.997745,27.140456 C 18.528582,18.264221 13.291696,25.230495 11.500037,31.436501 z"
             style="fill:#404040;"/>
          </a>
         </g>
        </svg>
</svg>
