<?xml version="1.0" encoding="UTF-8" standalone="no"?>
<!DOCTYPE svg PUBLIC "-//W3C//DTD SVG 1.1//EN"
 "http://www.w3.org/Graphics/SVG/1.1/DTD/svg11.dtd">
<!-- Generated by graphviz version 2.36.0 (20140111.2315)
 -->
<!-- Title: /home/travis/build/AliceO2Group/AliceO2/Detectors/ITSMFT/MFT/macros/CheckClusters.C Pages: 1 -->
<!--zoomable 446 -->
<svg id="main" version="1.1" xmlns="http://www.w3.org/2000/svg" xmlns:xlink="http://www.w3.org/1999/xlink" xml:space="preserve" onload="init(evt)">
<style type="text/css"><![CDATA[
.edge:hover path { stroke: red; }
.edge:hover polygon { stroke: red; fill: red; }
]]></style>
<script type="text/javascript"><![CDATA[
var edges = document.getElementsByTagName('g');
if (edges && edges.length) {
  for (var i=0;i<edges.length;i++) {
    if (edges[i].id.substr(0,4)=='edge') {
      edges[i].setAttribute('class','edge');
    }
  }
}
]]></script>
        <defs>
                <circle id="rim" cx="0" cy="0" r="7"/>
                <circle id="rim2" cx="0" cy="0" r="3.5"/>
                <g id="zoomPlus">
                        <use xlink:href="#rim" fill="#404040">
                                <set attributeName="fill" to="#808080" begin="zoomplus.mouseover" end="zoomplus.mouseout"/>
                        </use>
                        <path d="M-4,0h8M0,-4v8" fill="none" stroke="white" stroke-width="1.5" pointer-events="none"/>
                </g>
                <g id="zoomMin">
                        <use xlink:href="#rim" fill="#404040">
                                <set attributeName="fill" to="#808080" begin="zoomminus.mouseover" end="zoomminus.mouseout"/>
                        </use>
                        <path d="M-4,0h8" fill="none" stroke="white" stroke-width="1.5" pointer-events="none"/>
                </g>
                <g id="dirArrow">
                        <path fill="none" stroke="white" stroke-width="1.5" d="M0,-3.0v7 M-2.5,-0.5L0,-3.0L2.5,-0.5"/>
                </g>
               <g id="resetDef">
                       <use xlink:href="#rim2" fill="#404040">
                               <set attributeName="fill" to="#808080" begin="reset.mouseover" end="reset.mouseout"/>
                       </use>
               </g>
        </defs>

<script type="text/javascript">
var viewWidth = 1897;
var viewHeight = 446;
var sectionId = 'dynsection-0';
</script>
<script xlink:href="../../svgpan.js"/>
<svg id="graph" class="graph">
<g id="viewport">
<title>/home/travis/build/AliceO2Group/AliceO2/Detectors/ITSMFT/MFT/macros/CheckClusters.C</title>
<!-- Node1 -->
<g id="node1" class="node"><title>Node1</title>
<polygon fill="#bfbfbf" stroke="black" points="795.5,-385 795.5,-437 926.5,-437 926.5,-385 795.5,-385"/>
<text text-anchor="start" x="803.5" y="-425" font-family="Helvetica,sans-Serif" font-size="10.00">/home/travis/build</text>
<text text-anchor="start" x="803.5" y="-414" font-family="Helvetica,sans-Serif" font-size="10.00">/AliceO2Group/AliceO2</text>
<text text-anchor="start" x="803.5" y="-403" font-family="Helvetica,sans-Serif" font-size="10.00">/Detectors/ITSMFT/MFT</text>
<text text-anchor="middle" x="861" y="-392" font-family="Helvetica,sans-Serif" font-size="10.00">/macros/CheckClusters.C</text>
</g>
<!-- Node2 -->
<g id="node2" class="node"><title>Node2</title>
<polygon fill="none" stroke="#bfbfbf" points="338.5,-322.5 338.5,-341.5 385.5,-341.5 385.5,-322.5 338.5,-322.5"/>
<text text-anchor="middle" x="362" y="-329.5" font-family="Helvetica,sans-Serif" font-size="10.00">TFile.h</text>
</g>
<!-- Node1&#45;&gt;Node2 -->
<g id="edge1" class="edge"><title>Node1&#45;&gt;Node2</title>
<path fill="none" stroke="midnightblue" d="M795.314,-407.336C703.947,-402.272 534.052,-387.902 395,-348 392.652,-347.326 390.258,-346.512 387.885,-345.615"/>
<polygon fill="midnightblue" stroke="midnightblue" points="388.999,-342.287 378.426,-341.614 386.272,-348.734 388.999,-342.287"/>
</g>
<!-- Node3 -->
<g id="node3" class="node"><title>Node3</title>
<polygon fill="none" stroke="#bfbfbf" points="404,-322.5 404,-341.5 454,-341.5 454,-322.5 404,-322.5"/>
<text text-anchor="middle" x="429" y="-329.5" font-family="Helvetica,sans-Serif" font-size="10.00">TTree.h</text>
</g>
<!-- Node1&#45;&gt;Node3 -->
<g id="edge2" class="edge"><title>Node1&#45;&gt;Node3</title>
<path fill="none" stroke="midnightblue" d="M795.281,-404.802C715.646,-397.353 577.975,-380.762 464,-348 461.351,-347.239 458.637,-346.327 455.949,-345.335"/>
<polygon fill="midnightblue" stroke="midnightblue" points="457.074,-342.015 446.491,-341.512 454.451,-348.505 457.074,-342.015"/>
</g>
<!-- Node4 -->
<g id="node4" class="node"><title>Node4</title>
<polygon fill="none" stroke="#bfbfbf" points="472.5,-322.5 472.5,-341.5 557.5,-341.5 557.5,-322.5 472.5,-322.5"/>
<text text-anchor="middle" x="515" y="-329.5" font-family="Helvetica,sans-Serif" font-size="10.00">TClonesArray.h</text>
</g>
<!-- Node1&#45;&gt;Node4 -->
<g id="edge3" class="edge"><title>Node1&#45;&gt;Node4</title>
<path fill="none" stroke="midnightblue" d="M795.296,-397.571C735.506,-385.923 644.947,-367.434 567,-348 562.52,-346.883 557.844,-345.642 553.212,-344.366"/>
<polygon fill="midnightblue" stroke="midnightblue" points="553.811,-340.898 543.236,-341.551 551.909,-347.635 553.811,-340.898"/>
</g>
<!-- Node5 -->
<g id="node5" class="node"><title>Node5</title>
<polygon fill="none" stroke="#bfbfbf" points="576,-322.5 576,-341.5 626,-341.5 626,-322.5 576,-322.5"/>
<text text-anchor="middle" x="601" y="-329.5" font-family="Helvetica,sans-Serif" font-size="10.00">TH2F.h</text>
</g>
<!-- Node1&#45;&gt;Node5 -->
<g id="edge4" class="edge"><title>Node1&#45;&gt;Node5</title>
<path fill="none" stroke="midnightblue" d="M795.293,-394.406C750.032,-383.055 688.772,-366.483 636,-348 633.736,-347.207 631.411,-346.338 629.088,-345.429"/>
<polygon fill="midnightblue" stroke="midnightblue" points="630.285,-342.138 619.706,-341.573 627.624,-348.612 630.285,-342.138"/>
</g>
<!-- Node6 -->
<g id="node6" class="node"><title>Node6</title>
<polygon fill="none" stroke="#bfbfbf" points="644.5,-322.5 644.5,-341.5 703.5,-341.5 703.5,-322.5 644.5,-322.5"/>
<text text-anchor="middle" x="674" y="-329.5" font-family="Helvetica,sans-Serif" font-size="10.00">TNtuple.h</text>
</g>
<!-- Node1&#45;&gt;Node6 -->
<g id="edge5" class="edge"><title>Node1&#45;&gt;Node6</title>
<path fill="none" stroke="midnightblue" d="M800.028,-384.894C767.895,-371.663 729.907,-356.02 704.1,-345.394"/>
<polygon fill="midnightblue" stroke="midnightblue" points="705.423,-342.154 694.844,-341.583 702.758,-348.627 705.423,-342.154"/>
</g>
<!-- Node7 -->
<g id="node7" class="node"><title>Node7</title>
<polygon fill="none" stroke="#bfbfbf" points="721.5,-322.5 721.5,-341.5 786.5,-341.5 786.5,-322.5 721.5,-322.5"/>
<text text-anchor="middle" x="754" y="-329.5" font-family="Helvetica,sans-Serif" font-size="10.00">TCanvas.h</text>
</g>
<!-- Node1&#45;&gt;Node7 -->
<g id="edge6" class="edge"><title>Node1&#45;&gt;Node7</title>
<path fill="none" stroke="midnightblue" d="M825.964,-384.787C808.803,-372.438 788.754,-358.01 774.182,-347.523"/>
<polygon fill="midnightblue" stroke="midnightblue" points="776.053,-344.558 765.892,-341.558 771.964,-350.24 776.053,-344.558"/>
</g>
<!-- Node8 -->
<g id="node8" class="node"><title>Node8</title>
<polygon fill="none" stroke="#bfbfbf" points="805,-322.5 805,-341.5 861,-341.5 861,-322.5 805,-322.5"/>
<text text-anchor="middle" x="833" y="-329.5" font-family="Helvetica,sans-Serif" font-size="10.00">TString.h</text>
</g>
<!-- Node1&#45;&gt;Node8 -->
<g id="edge7" class="edge"><title>Node1&#45;&gt;Node8</title>
<path fill="none" stroke="midnightblue" d="M851.832,-384.787C847.849,-373.836 843.273,-361.25 839.628,-351.228"/>
<polygon fill="midnightblue" stroke="midnightblue" points="842.819,-349.76 836.112,-341.558 836.24,-352.152 842.819,-349.76"/>
</g>
<!-- Node9 -->
<g id="node9" class="node"><title>Node9</title>
<g id="a_node9"><a xlink:href="../../d0/dae/ITSMFT_2common_2simulation_2include_2ITSMFTSimulation_2Hit_8h.html" target="_top" xlink:title="ITSMFTSimulation/Hit.h">
<polygon fill="none" stroke="black" points="840,-260.5 840,-279.5 962,-279.5 962,-260.5 840,-260.5"/>
<text text-anchor="middle" x="901" y="-267.5" font-family="Helvetica,sans-Serif" font-size="10.00">ITSMFTSimulation/Hit.h</text>
</a>
</g>
</g>
<!-- Node1&#45;&gt;Node9 -->
<g id="edge8" class="edge"><title>Node1&#45;&gt;Node9</title>
<path fill="none" stroke="midnightblue" d="M882.975,-384.955C890.913,-374.312 898.919,-361.299 903,-348 908.871,-328.865 907.193,-305.785 904.787,-289.913"/>
<polygon fill="midnightblue" stroke="midnightblue" points="908.185,-289.03 903.003,-279.789 901.292,-290.245 908.185,-289.03"/>
</g>
<!-- Node11 -->
<g id="node11" class="node"><title>Node11</title>
<g id="a_node11"><a xlink:href="../../dd/d76/Cartesian3D_8h.html" target="_top" xlink:title="MathUtils/Cartesian3D.h">
<polygon fill="none" stroke="black" points="747.5,-136.5 747.5,-155.5 872.5,-155.5 872.5,-136.5 747.5,-136.5"/>
<text text-anchor="middle" x="810" y="-143.5" font-family="Helvetica,sans-Serif" font-size="10.00">MathUtils/Cartesian3D.h</text>
</a>
</g>
</g>
<!-- Node1&#45;&gt;Node11 -->
<g id="edge31" class="edge"><title>Node1&#45;&gt;Node11</title>
<path fill="none" stroke="midnightblue" d="M871.073,-384.81C877.392,-364.618 882.116,-336.385 869,-316 815.623,-233.037 720.377,-306.963 667,-224 659.305,-212.039 658.587,-203.467 667,-192 683.382,-169.671 710.851,-158.13 737.36,-152.266"/>
<polygon fill="midnightblue" stroke="midnightblue" points="738.309,-155.646 747.448,-150.286 736.961,-148.777 738.309,-155.646"/>
</g>
<!-- Node23 -->
<g id="node23" class="node"><title>Node23</title>
<g id="a_node23"><a xlink:href="../../d7/dcd/MCCompLabel_8h.html" target="_top" xlink:title="SimulationDataFormat\l/MCCompLabel.h">
<polygon fill="none" stroke="black" points="967,-193 967,-223 1081,-223 1081,-193 967,-193"/>
<text text-anchor="start" x="975" y="-211" font-family="Helvetica,sans-Serif" font-size="10.00">SimulationDataFormat</text>
<text text-anchor="middle" x="1024" y="-200" font-family="Helvetica,sans-Serif" font-size="10.00">/MCCompLabel.h</text>
</a>
</g>
</g>
<!-- Node1&#45;&gt;Node23 -->
<g id="edge54" class="edge"><title>Node1&#45;&gt;Node23</title>
<path fill="none" stroke="midnightblue" d="M885.049,-384.78C895.401,-373.686 907.511,-360.385 918,-348 951.628,-308.297 987.756,-259.43 1007.95,-231.481"/>
<polygon fill="midnightblue" stroke="midnightblue" points="1010.93,-233.34 1013.93,-223.179 1005.25,-229.251 1010.93,-233.34"/>
</g>
<!-- Node25 -->
<g id="node25" class="node"><title>Node25</title>
<g id="a_node25"><a xlink:href="../../d9/ded/Utils_8h.html" target="_top" xlink:title="DetectorsBase/Utils.h">
<polygon fill="none" stroke="black" points="1643.5,-74.5 1643.5,-93.5 1756.5,-93.5 1756.5,-74.5 1643.5,-74.5"/>
<text text-anchor="middle" x="1700" y="-81.5" font-family="Helvetica,sans-Serif" font-size="10.00">DetectorsBase/Utils.h</text>
</a>
</g>
</g>
<!-- Node1&#45;&gt;Node25 -->
<g id="edge27" class="edge"><title>Node1&#45;&gt;Node25</title>
<path fill="none" stroke="midnightblue" d="M926.698,-404.88C1111.08,-389.637 1620,-341.205 1620,-271 1620,-271 1620,-271 1620,-207 1620,-162.366 1657.91,-121.371 1681.53,-100.156"/>
<polygon fill="midnightblue" stroke="midnightblue" points="1683.95,-102.697 1689.21,-93.5026 1679.36,-97.4074 1683.95,-102.697"/>
</g>
<!-- Node29 -->
<g id="node29" class="node"><title>Node29</title>
<polygon fill="none" stroke="#bfbfbf" points="1155.5,-322.5 1155.5,-341.5 1292.5,-341.5 1292.5,-322.5 1155.5,-322.5"/>
<text text-anchor="middle" x="1224" y="-329.5" font-family="Helvetica,sans-Serif" font-size="10.00">MFTBase/GeometryTGeo.h</text>
</g>
<!-- Node1&#45;&gt;Node29 -->
<g id="edge32" class="edge"><title>Node1&#45;&gt;Node29</title>
<path fill="none" stroke="midnightblue" d="M926.737,-396.056C997.814,-380.979 1109.54,-357.279 1173.86,-343.635"/>
<polygon fill="midnightblue" stroke="midnightblue" points="1174.71,-347.033 1183.77,-341.534 1173.26,-340.186 1174.71,-347.033"/>
</g>
<!-- Node30 -->
<g id="node30" class="node"><title>Node30</title>
<g id="a_node30"><a xlink:href="../../dc/de1/ITSMFT_2common_2reconstruction_2include_2ITSMFTReconstruction_2Cluster_8h.html" target="_top" xlink:title="ITSMFTReconstruction\l/Cluster.h">
<polygon fill="none" stroke="black" points="1018.5,-317 1018.5,-347 1137.5,-347 1137.5,-317 1018.5,-317"/>
<text text-anchor="start" x="1026.5" y="-335" font-family="Helvetica,sans-Serif" font-size="10.00">ITSMFTReconstruction</text>
<text text-anchor="middle" x="1078" y="-324" font-family="Helvetica,sans-Serif" font-size="10.00">/Cluster.h</text>
</a>
</g>
</g>
<!-- Node1&#45;&gt;Node30 -->
<g id="edge33" class="edge"><title>Node1&#45;&gt;Node30</title>
<path fill="none" stroke="midnightblue" d="M926.696,-386.689C959.564,-375.026 998.673,-361.148 1028.9,-350.424"/>
<polygon fill="midnightblue" stroke="midnightblue" points="1030.12,-353.703 1038.38,-347.06 1027.78,-347.106 1030.12,-353.703"/>
</g>
<!-- Node43 -->
<g id="node43" class="node"><title>Node43</title>
<g id="a_node43"><a xlink:href="../../db/d14/MCTruthContainer_8h.html" target="_top" xlink:title="Definition of a container to keep Monte Carlo truth external to simulation objects. ">
<polygon fill="none" stroke="black" points="1691,-317 1691,-347 1805,-347 1805,-317 1691,-317"/>
<text text-anchor="start" x="1699" y="-335" font-family="Helvetica,sans-Serif" font-size="10.00">SimulationDataFormat</text>
<text text-anchor="middle" x="1748" y="-324" font-family="Helvetica,sans-Serif" font-size="10.00">/MCTruthContainer.h</text>
</a>
</g>
</g>
<!-- Node1&#45;&gt;Node43 -->
<g id="edge55" class="edge"><title>Node1&#45;&gt;Node43</title>
<path fill="none" stroke="midnightblue" d="M926.512,-405.873C1059.88,-397.223 1372.42,-375.681 1634,-348 1649.23,-346.389 1665.56,-344.397 1680.97,-342.396"/>
<polygon fill="midnightblue" stroke="midnightblue" points="1681.49,-345.859 1690.95,-341.085 1680.58,-338.918 1681.49,-345.859"/>
</g>
<!-- Node10 -->
<g id="node10" class="node"><title>Node10</title>
<g id="a_node10"><a xlink:href="../../d4/d25/BaseHits_8h.html" target="_top" xlink:title="SimulationDataFormat\l/BaseHits.h">
<polygon fill="none" stroke="black" points="759,-193 759,-223 873,-223 873,-193 759,-193"/>
<text text-anchor="start" x="767" y="-211" font-family="Helvetica,sans-Serif" font-size="10.00">SimulationDataFormat</text>
<text text-anchor="middle" x="816" y="-200" font-family="Helvetica,sans-Serif" font-size="10.00">/BaseHits.h</text>
</a>
</g>
</g>
<!-- Node9&#45;&gt;Node10 -->
<g id="edge9" class="edge"><title>Node9&#45;&gt;Node10</title>
<path fill="none" stroke="midnightblue" d="M888.822,-260.403C877.31,-252.277 859.604,-239.779 844.534,-229.142"/>
<polygon fill="midnightblue" stroke="midnightblue" points="846.221,-226.048 836.033,-223.141 842.184,-231.767 846.221,-226.048"/>
</g>
<!-- Node15 -->
<g id="node15" class="node"><title>Node15</title>
<polygon fill="none" stroke="#bfbfbf" points="1192,-74.5 1192,-93.5 1248,-93.5 1248,-74.5 1192,-74.5"/>
<text text-anchor="middle" x="1220" y="-81.5" font-family="Helvetica,sans-Serif" font-size="10.00">Rtypes.h</text>
</g>
<!-- Node9&#45;&gt;Node15 -->
<g id="edge24" class="edge"><title>Node9&#45;&gt;Node15</title>
<path fill="none" stroke="midnightblue" d="M905.307,-260.399C913.533,-244.761 932.916,-211.493 958,-192 959.219,-191.053 1120.21,-125.56 1189.2,-97.5176"/>
<polygon fill="midnightblue" stroke="midnightblue" points="1190.73,-100.672 1198.68,-93.6641 1188.1,-94.1873 1190.73,-100.672"/>
</g>
<!-- Node22 -->
<g id="node22" class="node"><title>Node22</title>
<polygon fill="none" stroke="#bfbfbf" points="1120,-74.5 1120,-93.5 1174,-93.5 1174,-74.5 1120,-74.5"/>
<text text-anchor="middle" x="1147" y="-81.5" font-family="Helvetica,sans-Serif" font-size="10.00">iostream</text>
</g>
<!-- Node9&#45;&gt;Node22 -->
<g id="edge26" class="edge"><title>Node9&#45;&gt;Node22</title>
<path fill="none" stroke="midnightblue" d="M899.6,-260.391C896.304,-236.83 890.727,-170.744 925,-136 983.824,-76.3663 1029.7,-123.846 1110,-100 1112.8,-99.1675 1115.69,-98.2021 1118.55,-97.1701"/>
<polygon fill="midnightblue" stroke="midnightblue" points="1119.98,-100.37 1128.05,-93.5015 1117.46,-93.8398 1119.98,-100.37"/>
</g>
<!-- Node9&#45;&gt;Node23 -->
<g id="edge22" class="edge"><title>Node9&#45;&gt;Node23</title>
<path fill="none" stroke="midnightblue" d="M918.623,-260.403C936.06,-251.898 963.316,-238.602 985.74,-227.663"/>
<polygon fill="midnightblue" stroke="midnightblue" points="987.558,-230.671 995.011,-223.141 984.489,-224.379 987.558,-230.671"/>
</g>
<!-- Node24 -->
<g id="node24" class="node"><title>Node24</title>
<polygon fill="none" stroke="#bfbfbf" points="675.5,-198.5 675.5,-217.5 740.5,-217.5 740.5,-198.5 675.5,-198.5"/>
<text text-anchor="middle" x="708" y="-205.5" font-family="Helvetica,sans-Serif" font-size="10.00">TVector3.h</text>
</g>
<!-- Node9&#45;&gt;Node24 -->
<g id="edge25" class="edge"><title>Node9&#45;&gt;Node24</title>
<path fill="none" stroke="midnightblue" d="M870.484,-260.424C839.878,-251.701 791.466,-237.573 750,-224 747.077,-223.043 744.05,-222.022 741.022,-220.98"/>
<polygon fill="midnightblue" stroke="midnightblue" points="742.065,-217.637 731.47,-217.632 739.749,-224.243 742.065,-217.637"/>
</g>
<!-- Node10&#45;&gt;Node11 -->
<g id="edge10" class="edge"><title>Node10&#45;&gt;Node11</title>
<path fill="none" stroke="midnightblue" d="M814.578,-192.781C813.769,-184.691 812.746,-174.462 811.873,-165.725"/>
<polygon fill="midnightblue" stroke="midnightblue" points="815.351,-165.333 810.873,-155.731 808.386,-166.029 815.351,-165.333"/>
</g>
<!-- Node12 -->
<g id="node12" class="node"><title>Node12</title>
<polygon fill="none" stroke="#bfbfbf" points="336.5,-74.5 336.5,-93.5 485.5,-93.5 485.5,-74.5 336.5,-74.5"/>
<text text-anchor="middle" x="411" y="-81.5" font-family="Helvetica,sans-Serif" font-size="10.00">Math/GenVector/Rotation3D.h</text>
</g>
<!-- Node11&#45;&gt;Node12 -->
<g id="edge11" class="edge"><title>Node11&#45;&gt;Node12</title>
<path fill="none" stroke="midnightblue" d="M747.447,-136.717C683.815,-128.138 582.406,-114.043 495,-100 485.977,-98.5504 476.425,-96.9284 467.123,-95.3013"/>
<polygon fill="midnightblue" stroke="midnightblue" points="467.621,-91.8351 457.165,-93.5416 466.403,-98.7283 467.621,-91.8351"/>
</g>
<!-- Node13 -->
<g id="node13" class="node"><title>Node13</title>
<polygon fill="none" stroke="#bfbfbf" points="504,-74.5 504,-93.5 660,-93.5 660,-74.5 504,-74.5"/>
<text text-anchor="middle" x="582" y="-81.5" font-family="Helvetica,sans-Serif" font-size="10.00">Math/GenVector/Transform3D.h</text>
</g>
<!-- Node11&#45;&gt;Node13 -->
<g id="edge12" class="edge"><title>Node11&#45;&gt;Node13</title>
<path fill="none" stroke="midnightblue" d="M777.333,-136.403C737.123,-125.822 668.742,-107.827 624.485,-96.1802"/>
<polygon fill="midnightblue" stroke="midnightblue" points="625.168,-92.7408 614.606,-93.5806 623.386,-99.5104 625.168,-92.7408"/>
</g>
<!-- Node14 -->
<g id="node14" class="node"><title>Node14</title>
<polygon fill="none" stroke="#bfbfbf" points="678,-74.5 678,-93.5 838,-93.5 838,-74.5 678,-74.5"/>
<text text-anchor="middle" x="758" y="-81.5" font-family="Helvetica,sans-Serif" font-size="10.00">Math/GenVector/Translation3D.h</text>
</g>
<!-- Node11&#45;&gt;Node14 -->
<g id="edge13" class="edge"><title>Node11&#45;&gt;Node14</title>
<path fill="none" stroke="midnightblue" d="M802.55,-136.403C794.672,-127.314 782.055,-112.756 772.256,-101.449"/>
<polygon fill="midnightblue" stroke="midnightblue" points="774.631,-98.8452 765.437,-93.5806 769.341,-103.43 774.631,-98.8452"/>
</g>
<!-- Node11&#45;&gt;Node15 -->
<g id="edge14" class="edge"><title>Node11&#45;&gt;Node15</title>
<path fill="none" stroke="midnightblue" d="M872.568,-139.475C963.05,-131.14 1125.84,-114.754 1183,-100 1185.99,-99.228 1189.06,-98.2703 1192.09,-97.2148"/>
<polygon fill="midnightblue" stroke="midnightblue" points="1193.41,-100.458 1201.5,-93.6184 1190.91,-93.9193 1193.41,-100.458"/>
</g>
<!-- Node16 -->
<g id="node16" class="node"><title>Node16</title>
<polygon fill="none" stroke="#bfbfbf" points="856,-74.5 856,-93.5 932,-93.5 932,-74.5 856,-74.5"/>
<text text-anchor="middle" x="894" y="-81.5" font-family="Helvetica,sans-Serif" font-size="10.00">TGeoMatrix.h</text>
</g>
<!-- Node11&#45;&gt;Node16 -->
<g id="edge15" class="edge"><title>Node11&#45;&gt;Node16</title>
<path fill="none" stroke="midnightblue" d="M822.035,-136.403C835.508,-126.78 857.566,-111.024 873.715,-99.4891"/>
<polygon fill="midnightblue" stroke="midnightblue" points="875.884,-102.241 881.987,-93.5806 871.815,-96.5449 875.884,-102.241"/>
</g>
<!-- Node17 -->
<g id="node17" class="node"><title>Node17</title>
<polygon fill="none" stroke="#bfbfbf" points="950.5,-69 950.5,-99 1101.5,-99 1101.5,-69 950.5,-69"/>
<text text-anchor="start" x="958.5" y="-87" font-family="Helvetica,sans-Serif" font-size="10.00">Math/GenVector/Displacement</text>
<text text-anchor="middle" x="1026" y="-76" font-family="Helvetica,sans-Serif" font-size="10.00">Vector3D.h</text>
</g>
<!-- Node11&#45;&gt;Node17 -->
<g id="edge16" class="edge"><title>Node11&#45;&gt;Node17</title>
<path fill="none" stroke="midnightblue" d="M840.948,-136.403C873.385,-127.393 925.173,-113.007 965.724,-101.743"/>
<polygon fill="midnightblue" stroke="midnightblue" points="966.81,-105.074 975.509,-99.0253 964.937,-98.3295 966.81,-105.074"/>
</g>
<!-- Node18 -->
<g id="node18" class="node"><title>Node18</title>
<polygon fill="none" stroke="#bfbfbf" points="0,-74.5 0,-93.5 176,-93.5 176,-74.5 0,-74.5"/>
<text text-anchor="middle" x="88" y="-81.5" font-family="Helvetica,sans-Serif" font-size="10.00">Math/GenVector/PositionVector3D.h</text>
</g>
<!-- Node11&#45;&gt;Node18 -->
<g id="edge17" class="edge"><title>Node11&#45;&gt;Node18</title>
<path fill="none" stroke="midnightblue" d="M747.199,-142.218C634.244,-136.83 389.426,-123.391 184,-100 172.215,-98.6581 159.662,-96.9218 147.652,-95.1089"/>
<polygon fill="midnightblue" stroke="midnightblue" points="148.136,-91.6423 137.719,-93.5751 147.068,-98.5603 148.136,-91.6423"/>
</g>
<!-- Node19 -->
<g id="node19" class="node"><title>Node19</title>
<g id="a_node19"><a xlink:href="../../d2/dd0/Cartesian2D_8h.html" target="_top" xlink:title="MathUtils/Cartesian2D.h">
<polygon fill="none" stroke="black" points="193.5,-74.5 193.5,-93.5 318.5,-93.5 318.5,-74.5 193.5,-74.5"/>
<text text-anchor="middle" x="256" y="-81.5" font-family="Helvetica,sans-Serif" font-size="10.00">MathUtils/Cartesian2D.h</text>
</a>
</g>
</g>
<!-- Node11&#45;&gt;Node19 -->
<g id="edge18" class="edge"><title>Node11&#45;&gt;Node19</title>
<path fill="none" stroke="midnightblue" d="M747.335,-141.404C655.117,-135.603 477.598,-122.494 328,-100 319.831,-98.7717 311.193,-97.2063 302.844,-95.5525"/>
<polygon fill="midnightblue" stroke="midnightblue" points="303.354,-92.0844 292.855,-93.5083 301.95,-98.9422 303.354,-92.0844"/>
</g>
<!-- Node11&#45;&gt;Node22 -->
<g id="edge21" class="edge"><title>Node11&#45;&gt;Node22</title>
<path fill="none" stroke="midnightblue" d="M872.566,-137.382C946.954,-128.015 1066.5,-111.899 1110,-100 1112.98,-99.185 1116.04,-98.1992 1119.07,-97.1268"/>
<polygon fill="midnightblue" stroke="midnightblue" points="1120.4,-100.366 1128.47,-93.509 1117.88,-93.833 1120.4,-100.366"/>
</g>
<!-- Node20 -->
<g id="node20" class="node"><title>Node20</title>
<polygon fill="none" stroke="#bfbfbf" points="89.5,-1 89.5,-31 240.5,-31 240.5,-1 89.5,-1"/>
<text text-anchor="start" x="97.5" y="-19" font-family="Helvetica,sans-Serif" font-size="10.00">Math/GenVector/Displacement</text>
<text text-anchor="middle" x="165" y="-8" font-family="Helvetica,sans-Serif" font-size="10.00">Vector2D.h</text>
</g>
<!-- Node19&#45;&gt;Node20 -->
<g id="edge19" class="edge"><title>Node19&#45;&gt;Node20</title>
<path fill="none" stroke="midnightblue" d="M244.103,-74.3717C231.221,-65.0286 210.22,-49.7966 193.093,-37.375"/>
<polygon fill="midnightblue" stroke="midnightblue" points="194.703,-34.2194 184.553,-31.1815 190.593,-39.8859 194.703,-34.2194"/>
</g>
<!-- Node21 -->
<g id="node21" class="node"><title>Node21</title>
<polygon fill="none" stroke="#bfbfbf" points="259,-6.5 259,-25.5 435,-25.5 435,-6.5 259,-6.5"/>
<text text-anchor="middle" x="347" y="-13.5" font-family="Helvetica,sans-Serif" font-size="10.00">Math/GenVector/PositionVector2D.h</text>
</g>
<!-- Node19&#45;&gt;Node21 -->
<g id="edge20" class="edge"><title>Node19&#45;&gt;Node21</title>
<path fill="none" stroke="midnightblue" d="M267.897,-74.3717C282.884,-63.5015 308.862,-44.6602 326.942,-31.5474"/>
<polygon fill="midnightblue" stroke="midnightblue" points="329.06,-34.3349 335.1,-25.6305 324.95,-28.6684 329.06,-34.3349"/>
</g>
<!-- Node23&#45;&gt;Node15 -->
<g id="edge23" class="edge"><title>Node23&#45;&gt;Node15</title>
<path fill="none" stroke="midnightblue" d="M1046.87,-192.766C1084.66,-169.24 1159.72,-122.521 1197.36,-99.0902"/>
<polygon fill="midnightblue" stroke="midnightblue" points="1199.44,-101.919 1206.08,-93.6632 1195.74,-95.9762 1199.44,-101.919"/>
</g>
<!-- Node26 -->
<g id="node26" class="node"><title>Node26</title>
<g id="a_node26"><a xlink:href="../../d1/daa/Base_2include_2DetectorsBase_2Constants_8h.html" target="_top" xlink:title="DetectorsBase/Constants.h">
<polygon fill="none" stroke="black" points="1576,-6.5 1576,-25.5 1714,-25.5 1714,-6.5 1576,-6.5"/>
<text text-anchor="middle" x="1645" y="-13.5" font-family="Helvetica,sans-Serif" font-size="10.00">DetectorsBase/Constants.h</text>
</a>
</g>
</g>
<!-- Node25&#45;&gt;Node26 -->
<g id="edge28" class="edge"><title>Node25&#45;&gt;Node26</title>
<path fill="none" stroke="midnightblue" d="M1692.81,-74.3717C1684.21,-64.053 1669.63,-46.5513 1658.82,-33.5854"/>
<polygon fill="midnightblue" stroke="midnightblue" points="1661.46,-31.2827 1652.37,-25.8411 1656.08,-35.764 1661.46,-31.2827"/>
</g>
<!-- Node27 -->
<g id="node27" class="node"><title>Node27</title>
<polygon fill="none" stroke="#bfbfbf" points="1732,-6.5 1732,-25.5 1776,-25.5 1776,-6.5 1732,-6.5"/>
<text text-anchor="middle" x="1754" y="-13.5" font-family="Helvetica,sans-Serif" font-size="10.00">cmath</text>
</g>
<!-- Node25&#45;&gt;Node27 -->
<g id="edge29" class="edge"><title>Node25&#45;&gt;Node27</title>
<path fill="none" stroke="midnightblue" d="M1707.06,-74.3717C1715.5,-64.053 1729.82,-46.5513 1740.43,-33.5854"/>
<polygon fill="midnightblue" stroke="midnightblue" points="1743.14,-35.7971 1746.77,-25.8411 1737.73,-31.3644 1743.14,-35.7971"/>
</g>
<!-- Node28 -->
<g id="node28" class="node"><title>Node28</title>
<polygon fill="none" stroke="#bfbfbf" points="1452,-6.5 1452,-25.5 1490,-25.5 1490,-6.5 1452,-6.5"/>
<text text-anchor="middle" x="1471" y="-13.5" font-family="Helvetica,sans-Serif" font-size="10.00">array</text>
</g>
<!-- Node25&#45;&gt;Node28 -->
<g id="edge30" class="edge"><title>Node25&#45;&gt;Node28</title>
<path fill="none" stroke="midnightblue" d="M1670.06,-74.3717C1625.84,-61.6264 1543.6,-37.9227 1499.95,-25.3432"/>
<polygon fill="midnightblue" stroke="midnightblue" points="1500.81,-21.95 1490.23,-22.5437 1498.87,-28.6762 1500.81,-21.95"/>
</g>
<!-- Node31 -->
<g id="node31" class="node"><title>Node31</title>
<g id="a_node31"><a xlink:href="../../d4/de2/BaseCluster_8h.html" target="_top" xlink:title="DetectorsBase/BaseCluster.h">
<polygon fill="none" stroke="black" points="1165.5,-260.5 1165.5,-279.5 1312.5,-279.5 1312.5,-260.5 1165.5,-260.5"/>
<text text-anchor="middle" x="1239" y="-267.5" font-family="Helvetica,sans-Serif" font-size="10.00">DetectorsBase/BaseCluster.h</text>
</a>
</g>
</g>
<!-- Node30&#45;&gt;Node31 -->
<g id="edge34" class="edge"><title>Node30&#45;&gt;Node31</title>
<path fill="none" stroke="midnightblue" d="M1115.75,-316.933C1143.27,-306.674 1180.2,-292.915 1206.43,-283.137"/>
<polygon fill="midnightblue" stroke="midnightblue" points="1207.78,-286.372 1215.92,-279.6 1205.33,-279.813 1207.78,-286.372"/>
</g>
<!-- Node31&#45;&gt;Node11 -->
<g id="edge40" class="edge"><title>Node31&#45;&gt;Node11</title>
<path fill="none" stroke="midnightblue" d="M1214.22,-260.397C1192.22,-252.317 1159.54,-239.215 1133,-224 1112.33,-212.15 1111.95,-201.267 1090,-192 1023.36,-163.859 940.979,-153.197 882.88,-149.22"/>
<polygon fill="midnightblue" stroke="midnightblue" points="882.888,-145.714 872.686,-148.574 882.445,-152.7 882.888,-145.714"/>
</g>
<!-- Node31&#45;&gt;Node22 -->
<g id="edge39" class="edge"><title>Node31&#45;&gt;Node22</title>
<path fill="none" stroke="midnightblue" d="M1215.34,-260.458C1199.04,-253.296 1178.35,-241.413 1167,-224 1142.78,-186.838 1142.89,-132.293 1144.97,-103.841"/>
<polygon fill="midnightblue" stroke="midnightblue" points="1148.48,-103.955 1145.89,-93.6807 1141.5,-103.326 1148.48,-103.955"/>
</g>
<!-- Node32 -->
<g id="node32" class="node"><title>Node32</title>
<polygon fill="none" stroke="#bfbfbf" points="1175.5,-198.5 1175.5,-217.5 1234.5,-217.5 1234.5,-198.5 1175.5,-198.5"/>
<text text-anchor="middle" x="1205" y="-205.5" font-family="Helvetica,sans-Serif" font-size="10.00">TObject.h</text>
</g>
<!-- Node31&#45;&gt;Node32 -->
<g id="edge35" class="edge"><title>Node31&#45;&gt;Node32</title>
<path fill="none" stroke="midnightblue" d="M1234.13,-260.403C1229.13,-251.582 1221.21,-237.608 1214.89,-226.455"/>
<polygon fill="midnightblue" stroke="midnightblue" points="1217.84,-224.555 1209.86,-217.581 1211.75,-228.006 1217.84,-224.555"/>
</g>
<!-- Node33 -->
<g id="node33" class="node"><title>Node33</title>
<polygon fill="none" stroke="#bfbfbf" points="1252.5,-198.5 1252.5,-217.5 1293.5,-217.5 1293.5,-198.5 1252.5,-198.5"/>
<text text-anchor="middle" x="1273" y="-205.5" font-family="Helvetica,sans-Serif" font-size="10.00">bitset</text>
</g>
<!-- Node31&#45;&gt;Node33 -->
<g id="edge36" class="edge"><title>Node31&#45;&gt;Node33</title>
<path fill="none" stroke="midnightblue" d="M1243.87,-260.403C1248.87,-251.582 1256.79,-237.608 1263.11,-226.455"/>
<polygon fill="midnightblue" stroke="midnightblue" points="1266.25,-228.006 1268.14,-217.581 1260.16,-224.555 1266.25,-228.006"/>
</g>
<!-- Node34 -->
<g id="node34" class="node"><title>Node34</title>
<polygon fill="none" stroke="#bfbfbf" points="1312,-198.5 1312,-217.5 1362,-217.5 1362,-198.5 1312,-198.5"/>
<text text-anchor="middle" x="1337" y="-205.5" font-family="Helvetica,sans-Serif" font-size="10.00">iomanip</text>
</g>
<!-- Node31&#45;&gt;Node34 -->
<g id="edge37" class="edge"><title>Node31&#45;&gt;Node34</title>
<path fill="none" stroke="midnightblue" d="M1253.04,-260.403C1269.05,-250.601 1295.45,-234.439 1314.37,-222.853"/>
<polygon fill="midnightblue" stroke="midnightblue" points="1316.28,-225.787 1322.99,-217.581 1312.63,-219.817 1316.28,-225.787"/>
</g>
<!-- Node35 -->
<g id="node35" class="node"><title>Node35</title>
<polygon fill="none" stroke="#bfbfbf" points="1380.5,-198.5 1380.5,-217.5 1409.5,-217.5 1409.5,-198.5 1380.5,-198.5"/>
<text text-anchor="middle" x="1395" y="-205.5" font-family="Helvetica,sans-Serif" font-size="10.00">ios</text>
</g>
<!-- Node31&#45;&gt;Node35 -->
<g id="edge38" class="edge"><title>Node31&#45;&gt;Node35</title>
<path fill="none" stroke="midnightblue" d="M1270.47,-260.496C1297.72,-252.612 1337.87,-239.742 1371,-224 1371.98,-223.536 1372.96,-223.041 1373.95,-222.524"/>
<polygon fill="midnightblue" stroke="midnightblue" points="1375.71,-225.549 1382.6,-217.504 1372.2,-219.493 1375.71,-225.549"/>
</g>
<!-- Node36 -->
<g id="node36" class="node"><title>Node36</title>
<g id="a_node36"><a xlink:href="../../d4/d20/DetMatrixCache_8h.html" target="_top" xlink:title="DetectorsBase/DetMatrixCache.h">
<polygon fill="none" stroke="black" points="1428,-198.5 1428,-217.5 1592,-217.5 1592,-198.5 1428,-198.5"/>
<text text-anchor="middle" x="1510" y="-205.5" font-family="Helvetica,sans-Serif" font-size="10.00">DetectorsBase/DetMatrixCache.h</text>
</a>
</g>
</g>
<!-- Node31&#45;&gt;Node36 -->
<g id="edge41" class="edge"><title>Node31&#45;&gt;Node36</title>
<path fill="none" stroke="midnightblue" d="M1277.54,-260.467C1326,-249.738 1409.21,-231.316 1461.82,-219.667"/>
<polygon fill="midnightblue" stroke="midnightblue" points="1462.59,-223.082 1471.59,-217.503 1461.07,-216.248 1462.59,-223.082"/>
</g>
<!-- Node36&#45;&gt;Node11 -->
<g id="edge44" class="edge"><title>Node36&#45;&gt;Node11</title>
<path fill="none" stroke="midnightblue" d="M1462.84,-198.495C1448.48,-196.126 1432.62,-193.73 1418,-192 1225.41,-169.218 997.06,-155.996 882.785,-150.319"/>
<polygon fill="midnightblue" stroke="midnightblue" points="882.914,-146.821 872.755,-149.826 882.57,-153.813 882.914,-146.821"/>
</g>
<!-- Node36&#45;&gt;Node15 -->
<g id="edge52" class="edge"><title>Node36&#45;&gt;Node15</title>
<path fill="none" stroke="midnightblue" d="M1495.41,-198.29C1471.06,-183.995 1420.35,-155.227 1375,-136 1336.05,-119.485 1289.8,-104.883 1258.02,-95.5821"/>
<polygon fill="midnightblue" stroke="midnightblue" points="1258.81,-92.169 1248.23,-92.7528 1256.87,-98.8934 1258.81,-92.169"/>
</g>
<!-- Node36&#45;&gt;Node28 -->
<g id="edge43" class="edge"><title>Node36&#45;&gt;Node28</title>
<path fill="none" stroke="midnightblue" d="M1497.84,-198.493C1486.13,-189.485 1469.17,-174.084 1462,-156 1445.86,-115.3 1457.05,-62.6427 1464.99,-35.2994"/>
<polygon fill="midnightblue" stroke="midnightblue" points="1468.4,-36.1241 1468,-25.5366 1461.71,-34.0586 1468.4,-36.1241"/>
</g>
<!-- Node37 -->
<g id="node37" class="node"><title>Node37</title>
<polygon fill="none" stroke="#bfbfbf" points="1233,-136.5 1233,-155.5 1277,-155.5 1277,-136.5 1233,-136.5"/>
<text text-anchor="middle" x="1255" y="-143.5" font-family="Helvetica,sans-Serif" font-size="10.00">vector</text>
</g>
<!-- Node36&#45;&gt;Node37 -->
<g id="edge42" class="edge"><title>Node36&#45;&gt;Node37</title>
<path fill="none" stroke="midnightblue" d="M1469.98,-198.47C1427.24,-189.225 1357.33,-173.704 1287.23,-155.954"/>
<polygon fill="midnightblue" stroke="midnightblue" points="1287.9,-152.512 1277.34,-153.435 1286.17,-159.295 1287.9,-152.512"/>
</g>
<!-- Node38 -->
<g id="node38" class="node"><title>Node38</title>
<g id="a_node38"><a xlink:href="../../d6/d31/DetID_8h.html" target="_top" xlink:title="DetectorsBase/DetID.h">
<polygon fill="none" stroke="black" points="1470.5,-136.5 1470.5,-155.5 1589.5,-155.5 1589.5,-136.5 1470.5,-136.5"/>
<text text-anchor="middle" x="1530" y="-143.5" font-family="Helvetica,sans-Serif" font-size="10.00">DetectorsBase/DetID.h</text>
</a>
</g>
</g>
<!-- Node36&#45;&gt;Node38 -->
<g id="edge45" class="edge"><title>Node36&#45;&gt;Node38</title>
<path fill="none" stroke="midnightblue" d="M1512.87,-198.403C1515.75,-189.76 1520.28,-176.17 1523.96,-165.134"/>
<polygon fill="midnightblue" stroke="midnightblue" points="1527.3,-166.174 1527.14,-155.581 1520.66,-163.961 1527.3,-166.174"/>
</g>
<!-- Node42 -->
<g id="node42" class="node"><title>Node42</title>
<polygon fill="none" stroke="#bfbfbf" points="1295.5,-136.5 1295.5,-155.5 1366.5,-155.5 1366.5,-136.5 1295.5,-136.5"/>
<text text-anchor="middle" x="1331" y="-143.5" font-family="Helvetica,sans-Serif" font-size="10.00">FairLogger.h</text>
</g>
<!-- Node36&#45;&gt;Node42 -->
<g id="edge53" class="edge"><title>Node36&#45;&gt;Node42</title>
<path fill="none" stroke="midnightblue" d="M1484.35,-198.403C1453.38,-188.022 1401.13,-170.506 1366.35,-158.849"/>
<polygon fill="midnightblue" stroke="midnightblue" points="1367.19,-155.44 1356.6,-155.581 1364.97,-162.077 1367.19,-155.44"/>
</g>
<!-- Node38&#45;&gt;Node15 -->
<g id="edge49" class="edge"><title>Node38&#45;&gt;Node15</title>
<path fill="none" stroke="midnightblue" d="M1485.91,-136.467C1425.01,-124.68 1316.14,-103.608 1258.41,-92.4332"/>
<polygon fill="midnightblue" stroke="midnightblue" points="1258.73,-88.9303 1248.24,-90.4663 1257.4,-95.8028 1258.73,-88.9303"/>
</g>
<!-- Node38&#45;&gt;Node25 -->
<g id="edge50" class="edge"><title>Node38&#45;&gt;Node25</title>
<path fill="none" stroke="midnightblue" d="M1554.36,-136.403C1583.64,-126.067 1632.97,-108.656 1666,-96.9994"/>
<polygon fill="midnightblue" stroke="midnightblue" points="1667.42,-100.209 1675.69,-93.5806 1665.09,-93.6084 1667.42,-100.209"/>
</g>
<!-- Node38&#45;&gt;Node28 -->
<g id="edge47" class="edge"><title>Node38&#45;&gt;Node28</title>
<path fill="none" stroke="midnightblue" d="M1519.88,-136.4C1510.69,-128.034 1497.47,-114.495 1490,-100 1479.45,-79.5197 1474.7,-53.2118 1472.6,-35.7636"/>
<polygon fill="midnightblue" stroke="midnightblue" points="1476.08,-35.3175 1471.57,-25.7274 1469.11,-36.0326 1476.08,-35.3175"/>
</g>
<!-- Node39 -->
<g id="node39" class="node"><title>Node39</title>
<polygon fill="none" stroke="#bfbfbf" points="1579,-74.5 1579,-93.5 1625,-93.5 1625,-74.5 1579,-74.5"/>
<text text-anchor="middle" x="1602" y="-81.5" font-family="Helvetica,sans-Serif" font-size="10.00">cstdint</text>
</g>
<!-- Node38&#45;&gt;Node39 -->
<g id="edge46" class="edge"><title>Node38&#45;&gt;Node39</title>
<path fill="none" stroke="midnightblue" d="M1540.32,-136.403C1551.65,-126.958 1570.07,-111.606 1583.84,-100.134"/>
<polygon fill="midnightblue" stroke="midnightblue" points="1586.26,-102.671 1591.7,-93.5806 1581.78,-97.2937 1586.26,-102.671"/>
</g>
<!-- Node40 -->
<g id="node40" class="node"><title>Node40</title>
<polygon fill="none" stroke="#bfbfbf" points="1499,-74.5 1499,-93.5 1561,-93.5 1561,-74.5 1499,-74.5"/>
<text text-anchor="middle" x="1530" y="-81.5" font-family="Helvetica,sans-Serif" font-size="10.00">type_traits</text>
</g>
<!-- Node38&#45;&gt;Node40 -->
<g id="edge48" class="edge"><title>Node38&#45;&gt;Node40</title>
<path fill="none" stroke="midnightblue" d="M1530,-136.403C1530,-127.938 1530,-114.728 1530,-103.82"/>
<polygon fill="midnightblue" stroke="midnightblue" points="1533.5,-103.581 1530,-93.5806 1526.5,-103.581 1533.5,-103.581"/>
</g>
<!-- Node41 -->
<g id="node41" class="node"><title>Node41</title>
<polygon fill="none" stroke="#bfbfbf" points="1774.5,-74.5 1774.5,-93.5 1823.5,-93.5 1823.5,-74.5 1774.5,-74.5"/>
<text text-anchor="middle" x="1799" y="-81.5" font-family="Helvetica,sans-Serif" font-size="10.00">cassert</text>
</g>
<!-- Node38&#45;&gt;Node41 -->
<g id="edge51" class="edge"><title>Node38&#45;&gt;Node41</title>
<path fill="none" stroke="midnightblue" d="M1589.83,-137.362C1637.87,-130.321 1706.71,-118.182 1765,-100 1767.43,-99.2436 1769.91,-98.365 1772.38,-97.4197"/>
<polygon fill="midnightblue" stroke="midnightblue" points="1773.76,-100.635 1781.64,-93.5608 1771.07,-94.1731 1773.76,-100.635"/>
</g>
<!-- Node43&#45;&gt;Node41 -->
<g id="edge57" class="edge"><title>Node43&#45;&gt;Node41</title>
<path fill="none" stroke="midnightblue" d="M1759.09,-316.693C1766.04,-306.916 1774.51,-293.358 1779,-280 1799.74,-218.267 1800.65,-139.863 1799.79,-104.208"/>
<polygon fill="midnightblue" stroke="midnightblue" points="1803.27,-103.723 1799.45,-93.8409 1796.28,-103.949 1803.27,-103.723"/>
</g>
<!-- Node44 -->
<g id="node44" class="node"><title>Node44</title>
<polygon fill="none" stroke="#bfbfbf" points="1827,-260.5 1827,-279.5 1889,-279.5 1889,-260.5 1827,-260.5"/>
<text text-anchor="middle" x="1858" y="-267.5" font-family="Helvetica,sans-Serif" font-size="10.00">TNamed.h</text>
</g>
<!-- Node43&#45;&gt;Node44 -->
<g id="edge56" class="edge"><title>Node43&#45;&gt;Node44</title>
<path fill="none" stroke="midnightblue" d="M1773.79,-316.933C1791.69,-307.171 1815.39,-294.24 1833.09,-284.586"/>
<polygon fill="midnightblue" stroke="midnightblue" points="1835.13,-287.461 1842.23,-279.6 1831.78,-281.316 1835.13,-287.461"/>
</g>
<!-- Node45 -->
<g id="node45" class="node"><title>Node45</title>
<polygon fill="none" stroke="#bfbfbf" points="1648.5,-260.5 1648.5,-279.5 1707.5,-279.5 1707.5,-260.5 1648.5,-260.5"/>
<text text-anchor="middle" x="1678" y="-267.5" font-family="Helvetica,sans-Serif" font-size="10.00">stdexcept</text>
</g>
<!-- Node43&#45;&gt;Node45 -->
<g id="edge58" class="edge"><title>Node43&#45;&gt;Node45</title>
<path fill="none" stroke="midnightblue" d="M1731.41,-316.781C1720.71,-307.613 1706.81,-295.696 1695.87,-286.319"/>
<polygon fill="midnightblue" stroke="midnightblue" points="1698.06,-283.581 1688.19,-279.731 1693.5,-288.896 1698.06,-283.581"/>
</g>
<!-- Node46 -->
<g id="node46" class="node"><title>Node46</title>
<polygon fill="none" stroke="#bfbfbf" points="1725.5,-260.5 1725.5,-279.5 1770.5,-279.5 1770.5,-260.5 1725.5,-260.5"/>
<text text-anchor="middle" x="1748" y="-267.5" font-family="Helvetica,sans-Serif" font-size="10.00">gsl/gsl</text>
</g>
<!-- Node43&#45;&gt;Node46 -->
<g id="edge59" class="edge"><title>Node43&#45;&gt;Node46</title>
<path fill="none" stroke="midnightblue" d="M1748,-316.781C1748,-308.781 1748,-298.689 1748,-290.017"/>
<polygon fill="midnightblue" stroke="midnightblue" points="1751.5,-289.73 1748,-279.731 1744.5,-289.731 1751.5,-289.73"/>
</g>
</g>
</svg>
        <g id="navigator" transform="translate(0 0)" fill="#404254">
                <rect fill="#f2f5e9" fill-opacity="0.5" stroke="#606060" stroke-width=".5" x="0" y="0" width="60" height="60"/>
                <use id="zoomplus" xlink:href="#zoomPlus" x="17" y="9" onmousedown="handleZoom(evt,'in')"/>
                <use id="zoomminus" xlink:href="#zoomMin" x="42" y="9" onmousedown="handleZoom(evt,'out')"/>
                <use id="reset" xlink:href="#resetDef" x="30" y="36" onmousedown="handleReset()"/>
                <g id="arrowUp" xlink:href="#dirArrow" transform="translate(30 24)" onmousedown="handlePan(0,-1)">
                  <use xlink:href="#rim" fill="#404040">
                        <set attributeName="fill" to="#808080" begin="arrowUp.mouseover" end="arrowUp.mouseout"/>
                  </use>
                  <path fill="none" stroke="white" stroke-width="1.5" d="M0,-3.0v7 M-2.5,-0.5L0,-3.0L2.5,-0.5"/>
                </g>
                <g id="arrowRight" xlink:href="#dirArrow" transform="rotate(90) translate(36 -43)" onmousedown="handlePan(1,0)">
                  <use xlink:href="#rim" fill="#404040">
                        <set attributeName="fill" to="#808080" begin="arrowRight.mouseover" end="arrowRight.mouseout"/>
                  </use>
                  <path fill="none" stroke="white" stroke-width="1.5" d="M0,-3.0v7 M-2.5,-0.5L0,-3.0L2.5,-0.5"/>
                </g>
                <g id="arrowDown" xlink:href="#dirArrow" transform="rotate(180) translate(-30 -48)" onmousedown="handlePan(0,1)">
                  <use xlink:href="#rim" fill="#404040">
                        <set attributeName="fill" to="#808080" begin="arrowDown.mouseover" end="arrowDown.mouseout"/>
                  </use>
                  <path fill="none" stroke="white" stroke-width="1.5" d="M0,-3.0v7 M-2.5,-0.5L0,-3.0L2.5,-0.5"/>
                </g>
                <g id="arrowLeft" xlink:href="#dirArrow" transform="rotate(270) translate(-36 17)" onmousedown="handlePan(-1,0)">
                  <use xlink:href="#rim" fill="#404040">
                        <set attributeName="fill" to="#808080" begin="arrowLeft.mouseover" end="arrowLeft.mouseout"/>
                  </use>
                  <path fill="none" stroke="white" stroke-width="1.5" d="M0,-3.0v7 M-2.5,-0.5L0,-3.0L2.5,-0.5"/>
                </g>
        </g>
        <svg viewBox="0 0 15 15" width="100%" height="30px" preserveAspectRatio="xMaxYMin meet">
         <g id="arrow_out" transform="scale(0.3 0.3)">
          <a xlink:href="MFT_2macros_2CheckClusters_8C__incl_org.svg" target="_base">
           <rect id="button" ry="5" rx="5" y="6" x="6" height="38" width="38"
                fill="#f2f5e9" fill-opacity="0.5" stroke="#606060" stroke-width="1.0"/>
           <path id="arrow"
             d="M 11.500037,31.436501 C 11.940474,20.09759 22.043105,11.32322 32.158766,21.979434 L 37.068811,17.246167 C 37.068811,17.246167 37.088388,32 37.088388,32 L 22.160133,31.978069 C 22.160133,31.978069 26.997745,27.140456 26.997745,27.140456 C 18.528582,18.264221 13.291696,25.230495 11.500037,31.436501 z"
             style="fill:#404040;"/>
          </a>
         </g>
        </svg>
</svg>
