<?xml version="1.0" encoding="UTF-8" standalone="no"?>
<!DOCTYPE svg PUBLIC "-//W3C//DTD SVG 1.1//EN"
 "http://www.w3.org/Graphics/SVG/1.1/DTD/svg11.dtd">
<!-- Generated by graphviz version 2.36.0 (20140111.2315)
 -->
<!-- Title: /home/travis/build/AliceO2Group/AliceO2/Detectors/ITSMFT/MFT/base/src/GeometryTGeo.cxx Pages: 1 -->
<!--zoomable 310 -->
<svg id="main" version="1.1" xmlns="http://www.w3.org/2000/svg" xmlns:xlink="http://www.w3.org/1999/xlink" xml:space="preserve" onload="init(evt)">
<style type="text/css"><![CDATA[
.edge:hover path { stroke: red; }
.edge:hover polygon { stroke: red; fill: red; }
]]></style>
<script type="text/javascript"><![CDATA[
var edges = document.getElementsByTagName('g');
if (edges && edges.length) {
  for (var i=0;i<edges.length;i++) {
    if (edges[i].id.substr(0,4)=='edge') {
      edges[i].setAttribute('class','edge');
    }
  }
}
]]></script>
        <defs>
                <circle id="rim" cx="0" cy="0" r="7"/>
                <circle id="rim2" cx="0" cy="0" r="3.5"/>
                <g id="zoomPlus">
                        <use xlink:href="#rim" fill="#404040">
                                <set attributeName="fill" to="#808080" begin="zoomplus.mouseover" end="zoomplus.mouseout"/>
                        </use>
                        <path d="M-4,0h8M0,-4v8" fill="none" stroke="white" stroke-width="1.5" pointer-events="none"/>
                </g>
                <g id="zoomMin">
                        <use xlink:href="#rim" fill="#404040">
                                <set attributeName="fill" to="#808080" begin="zoomminus.mouseover" end="zoomminus.mouseout"/>
                        </use>
                        <path d="M-4,0h8" fill="none" stroke="white" stroke-width="1.5" pointer-events="none"/>
                </g>
                <g id="dirArrow">
                        <path fill="none" stroke="white" stroke-width="1.5" d="M0,-3.0v7 M-2.5,-0.5L0,-3.0L2.5,-0.5"/>
                </g>
               <g id="resetDef">
                       <use xlink:href="#rim2" fill="#404040">
                               <set attributeName="fill" to="#808080" begin="reset.mouseover" end="reset.mouseout"/>
                       </use>
               </g>
        </defs>

<script type="text/javascript">
var viewWidth = 1892;
var viewHeight = 310;
var sectionId = 'dynsection-0';
</script>
<script xlink:href="../../svgpan.js"/>
<svg id="graph" class="graph">
<g id="viewport">
<title>/home/travis/build/AliceO2Group/AliceO2/Detectors/ITSMFT/MFT/base/src/GeometryTGeo.cxx</title>
<!-- Node1 -->
<g id="node1" class="node"><title>Node1</title>
<polygon fill="#bfbfbf" stroke="black" points="828,-249 828,-301 974,-301 974,-249 828,-249"/>
<text text-anchor="start" x="836" y="-289" font-family="Helvetica,sans-Serif" font-size="10.00">/home/travis/build</text>
<text text-anchor="start" x="836" y="-278" font-family="Helvetica,sans-Serif" font-size="10.00">/AliceO2Group/AliceO2</text>
<text text-anchor="start" x="836" y="-267" font-family="Helvetica,sans-Serif" font-size="10.00">/Detectors/ITSMFT/MFT</text>
<text text-anchor="middle" x="901" y="-256" font-family="Helvetica,sans-Serif" font-size="10.00">/base/src/GeometryTGeo.cxx</text>
</g>
<!-- Node2 -->
<g id="node2" class="node"><title>Node2</title>
<g id="a_node2"><a xlink:href="../../d3/dba/SegmentationAlpide_8h.html" target="_top" xlink:title="Definition of the SegmentationAlpide class. ">
<polygon fill="none" stroke="black" points="882.5,-136.5 882.5,-155.5 1055.5,-155.5 1055.5,-136.5 882.5,-136.5"/>
<text text-anchor="middle" x="969" y="-143.5" font-family="Helvetica,sans-Serif" font-size="10.00">ITSMFTBase/SegmentationAlpide.h</text>
</a>
</g>
</g>
<!-- Node1&#45;&gt;Node2 -->
<g id="edge1" class="edge"><title>Node1&#45;&gt;Node2</title>
<path fill="none" stroke="midnightblue" d="M878.816,-248.748C866.808,-231.878 856.552,-209.633 868,-192 878.407,-175.97 895.996,-165.602 913.607,-158.916"/>
<polygon fill="midnightblue" stroke="midnightblue" points="915.028,-162.129 923.347,-155.569 912.752,-155.509 915.028,-162.129"/>
</g>
<!-- Node4 -->
<g id="node4" class="node"><title>Node4</title>
<polygon fill="none" stroke="#bfbfbf" points="258.5,-192.5 258.5,-211.5 395.5,-211.5 395.5,-192.5 258.5,-192.5"/>
<text text-anchor="middle" x="327" y="-199.5" font-family="Helvetica,sans-Serif" font-size="10.00">MFTBase/GeometryTGeo.h</text>
</g>
<!-- Node1&#45;&gt;Node4 -->
<g id="edge3" class="edge"><title>Node1&#45;&gt;Node4</title>
<path fill="none" stroke="midnightblue" d="M827.719,-264.936C719.425,-251.54 517.472,-226.56 405.989,-212.77"/>
<polygon fill="midnightblue" stroke="midnightblue" points="406.172,-209.267 395.818,-211.512 405.313,-216.214 406.172,-209.267"/>
</g>
<!-- Node5 -->
<g id="node5" class="node"><title>Node5</title>
<g id="a_node5"><a xlink:href="../../d6/d2e/ITSMFT_2MFT_2base_2include_2MFTBase_2Geometry_8h.html" target="_top" xlink:title="MFTBase/Geometry.h">
<polygon fill="none" stroke="black" points="62.5,-192.5 62.5,-211.5 175.5,-211.5 175.5,-192.5 62.5,-192.5"/>
<text text-anchor="middle" x="119" y="-199.5" font-family="Helvetica,sans-Serif" font-size="10.00">MFTBase/Geometry.h</text>
</a>
</g>
</g>
<!-- Node1&#45;&gt;Node5 -->
<g id="edge4" class="edge"><title>Node1&#45;&gt;Node5</title>
<path fill="none" stroke="midnightblue" d="M827.783,-267.352C676.501,-253.617 331.44,-222.288 185.812,-209.066"/>
<polygon fill="midnightblue" stroke="midnightblue" points="185.953,-205.565 175.677,-208.146 185.32,-212.536 185.953,-205.565"/>
</g>
<!-- Node7 -->
<g id="node7" class="node"><title>Node7</title>
<g id="a_node7"><a xlink:href="../../db/dcc/Detectors_2Base_2include_2DetectorsBase_2GeometryManager_8h.html" target="_top" xlink:title="DetectorsBase/GeometryManager.h">
<polygon fill="none" stroke="black" points="528.5,-192.5 528.5,-211.5 701.5,-211.5 701.5,-192.5 528.5,-192.5"/>
<text text-anchor="middle" x="615" y="-199.5" font-family="Helvetica,sans-Serif" font-size="10.00">DetectorsBase/GeometryManager.h</text>
</a>
</g>
</g>
<!-- Node1&#45;&gt;Node7 -->
<g id="edge6" class="edge"><title>Node1&#45;&gt;Node7</title>
<path fill="none" stroke="midnightblue" d="M827.719,-255.808C774.481,-242.592 704.175,-225.138 659.26,-213.988"/>
<polygon fill="midnightblue" stroke="midnightblue" points="660.073,-210.583 649.524,-211.571 658.386,-217.377 660.073,-210.583"/>
</g>
<!-- Node8 -->
<g id="node8" class="node"><title>Node8</title>
<polygon fill="none" stroke="#bfbfbf" points="80,-136.5 80,-155.5 166,-155.5 166,-136.5 80,-136.5"/>
<text text-anchor="middle" x="123" y="-143.5" font-family="Helvetica,sans-Serif" font-size="10.00">TGeoManager.h</text>
</g>
<!-- Node1&#45;&gt;Node8 -->
<g id="edge39" class="edge"><title>Node1&#45;&gt;Node8</title>
<path fill="none" stroke="midnightblue" d="M827.97,-273.099C734.963,-269.968 570.43,-257.719 438,-212 421.428,-206.279 420.506,-197.91 404,-192 310.033,-158.355 278.613,-171.865 176.253,-156.132"/>
<polygon fill="midnightblue" stroke="midnightblue" points="176.548,-152.635 166.122,-154.516 175.445,-159.548 176.548,-152.635"/>
</g>
<!-- Node10 -->
<g id="node10" class="node"><title>Node10</title>
<polygon fill="none" stroke="#bfbfbf" points="184,-136.5 184,-155.5 294,-155.5 294,-136.5 184,-136.5"/>
<text text-anchor="middle" x="239" y="-143.5" font-family="Helvetica,sans-Serif" font-size="10.00">TGeoPhysicalNode.h</text>
</g>
<!-- Node1&#45;&gt;Node10 -->
<g id="edge40" class="edge"><title>Node1&#45;&gt;Node10</title>
<path fill="none" stroke="midnightblue" d="M827.862,-270.851C741.795,-265.443 595.474,-250.887 476,-212 457.852,-206.093 455.906,-198.606 438,-192 394.59,-175.985 343.667,-164.597 304.201,-157.284"/>
<polygon fill="midnightblue" stroke="midnightblue" points="304.632,-153.805 294.168,-155.466 303.384,-160.693 304.632,-153.805"/>
</g>
<!-- Node11 -->
<g id="node11" class="node"><title>Node11</title>
<polygon fill="none" stroke="#bfbfbf" points="312.5,-136.5 312.5,-155.5 389.5,-155.5 389.5,-136.5 312.5,-136.5"/>
<text text-anchor="middle" x="351" y="-143.5" font-family="Helvetica,sans-Serif" font-size="10.00">TGeoShape.h</text>
</g>
<!-- Node1&#45;&gt;Node11 -->
<g id="edge41" class="edge"><title>Node1&#45;&gt;Node11</title>
<path fill="none" stroke="midnightblue" d="M827.834,-268.134C749.927,-260.507 623.684,-244.168 519,-212 498.853,-205.809 495.491,-200.022 476,-192 446.25,-179.755 411.81,-167.494 386.623,-158.87"/>
<polygon fill="midnightblue" stroke="midnightblue" points="387.709,-155.543 377.114,-155.637 385.455,-162.17 387.709,-155.543"/>
</g>
<!-- Node12 -->
<g id="node12" class="node"><title>Node12</title>
<polygon fill="none" stroke="#bfbfbf" points="645.5,-136.5 645.5,-155.5 698.5,-155.5 698.5,-136.5 645.5,-136.5"/>
<text text-anchor="middle" x="672" y="-143.5" font-family="Helvetica,sans-Serif" font-size="10.00">TMath.h</text>
</g>
<!-- Node1&#45;&gt;Node12 -->
<g id="edge42" class="edge"><title>Node1&#45;&gt;Node12</title>
<path fill="none" stroke="midnightblue" d="M855.757,-248.909C807.932,-222.386 734.285,-181.543 696.385,-160.524"/>
<polygon fill="midnightblue" stroke="midnightblue" points="698,-157.417 687.557,-155.628 694.605,-163.539 698,-157.417"/>
</g>
<!-- Node13 -->
<g id="node13" class="node"><title>Node13</title>
<polygon fill="none" stroke="#bfbfbf" points="716.5,-136.5 716.5,-155.5 775.5,-155.5 775.5,-136.5 716.5,-136.5"/>
<text text-anchor="middle" x="746" y="-143.5" font-family="Helvetica,sans-Serif" font-size="10.00">TObject.h</text>
</g>
<!-- Node1&#45;&gt;Node13 -->
<g id="edge50" class="edge"><title>Node1&#45;&gt;Node13</title>
<path fill="none" stroke="midnightblue" d="M870.377,-248.909C838.829,-223.06 790.682,-183.61 764.508,-162.165"/>
<polygon fill="midnightblue" stroke="midnightblue" points="766.483,-159.258 756.53,-155.628 762.047,-164.673 766.483,-159.258"/>
</g>
<!-- Node22 -->
<g id="node22" class="node"><title>Node22</title>
<polygon fill="none" stroke="#bfbfbf" points="793.5,-136.5 793.5,-155.5 864.5,-155.5 864.5,-136.5 793.5,-136.5"/>
<text text-anchor="middle" x="829" y="-143.5" font-family="Helvetica,sans-Serif" font-size="10.00">FairLogger.h</text>
</g>
<!-- Node1&#45;&gt;Node22 -->
<g id="edge37" class="edge"><title>Node1&#45;&gt;Node22</title>
<path fill="none" stroke="midnightblue" d="M883.226,-248.861C875.695,-237.781 867.051,-224.469 860,-212 851.259,-196.543 842.675,-178.229 836.765,-164.987"/>
<polygon fill="midnightblue" stroke="midnightblue" points="839.87,-163.355 832.645,-155.605 833.461,-166.169 839.87,-163.355"/>
</g>
<!-- Node23 -->
<g id="node23" class="node"><title>Node23</title>
<g id="a_node23"><a xlink:href="../../dd/d76/Cartesian3D_8h.html" target="_top" xlink:title="MathUtils/Cartesian3D.h">
<polygon fill="none" stroke="black" points="1073.5,-136.5 1073.5,-155.5 1198.5,-155.5 1198.5,-136.5 1073.5,-136.5"/>
<text text-anchor="middle" x="1136" y="-143.5" font-family="Helvetica,sans-Serif" font-size="10.00">MathUtils/Cartesian3D.h</text>
</a>
</g>
</g>
<!-- Node1&#45;&gt;Node23 -->
<g id="edge36" class="edge"><title>Node1&#45;&gt;Node23</title>
<path fill="none" stroke="midnightblue" d="M895.154,-248.764C892.578,-230.799 892.657,-207.236 906,-192 916.48,-180.033 999.984,-165.894 1063.39,-156.703"/>
<polygon fill="midnightblue" stroke="midnightblue" points="1063.97,-160.154 1073.37,-155.271 1062.98,-153.225 1063.97,-160.154"/>
</g>
<!-- Node27 -->
<g id="node27" class="node"><title>Node27</title>
<polygon fill="none" stroke="#bfbfbf" points="1808,-74.5 1808,-93.5 1884,-93.5 1884,-74.5 1808,-74.5"/>
<text text-anchor="middle" x="1846" y="-81.5" font-family="Helvetica,sans-Serif" font-size="10.00">TGeoMatrix.h</text>
</g>
<!-- Node1&#45;&gt;Node27 -->
<g id="edge45" class="edge"><title>Node1&#45;&gt;Node27</title>
<path fill="none" stroke="midnightblue" d="M905.704,-248.982C910.637,-230.137 920.378,-205.342 939,-192 958.53,-178.007 1775.49,-104.955 1799,-100 1803.46,-99.0604 1808.09,-97.8637 1812.64,-96.5573"/>
<polygon fill="midnightblue" stroke="midnightblue" points="1813.81,-99.8593 1822.34,-93.5795 1811.75,-93.1673 1813.81,-99.8593"/>
</g>
<!-- Node34 -->
<g id="node34" class="node"><title>Node34</title>
<polygon fill="none" stroke="#bfbfbf" points="948.5,-192.5 948.5,-211.5 1021.5,-211.5 1021.5,-192.5 948.5,-192.5"/>
<text text-anchor="middle" x="985" y="-199.5" font-family="Helvetica,sans-Serif" font-size="10.00">TGeoBBox.h</text>
</g>
<!-- Node1&#45;&gt;Node34 -->
<g id="edge38" class="edge"><title>Node1&#45;&gt;Node34</title>
<path fill="none" stroke="midnightblue" d="M930.852,-248.768C942.908,-238.578 956.424,-227.153 966.938,-218.267"/>
<polygon fill="midnightblue" stroke="midnightblue" points="969.261,-220.886 974.639,-211.757 964.743,-215.539 969.261,-220.886"/>
</g>
<!-- Node35 -->
<g id="node35" class="node"><title>Node35</title>
<polygon fill="none" stroke="#bfbfbf" points="1040,-192.5 1040,-211.5 1096,-211.5 1096,-192.5 1040,-192.5"/>
<text text-anchor="middle" x="1068" y="-199.5" font-family="Helvetica,sans-Serif" font-size="10.00">TString.h</text>
</g>
<!-- Node1&#45;&gt;Node35 -->
<g id="edge43" class="edge"><title>Node1&#45;&gt;Node35</title>
<path fill="none" stroke="midnightblue" d="M959.878,-248.968C986.426,-237.681 1016.62,-224.844 1038.34,-215.61"/>
<polygon fill="midnightblue" stroke="midnightblue" points="1039.85,-218.773 1047.68,-211.639 1037.11,-212.331 1039.85,-218.773"/>
</g>
<!-- Node36 -->
<g id="node36" class="node"><title>Node36</title>
<polygon fill="none" stroke="#bfbfbf" points="1114,-192.5 1114,-211.5 1170,-211.5 1170,-192.5 1114,-192.5"/>
<text text-anchor="middle" x="1142" y="-199.5" font-family="Helvetica,sans-Serif" font-size="10.00">TClass.h</text>
</g>
<!-- Node1&#45;&gt;Node36 -->
<g id="edge44" class="edge"><title>Node1&#45;&gt;Node36</title>
<path fill="none" stroke="midnightblue" d="M974.29,-252.408C1017.14,-239.783 1069.46,-224.371 1104.15,-214.152"/>
<polygon fill="midnightblue" stroke="midnightblue" points="1105.27,-217.469 1113.88,-211.285 1103.3,-210.754 1105.27,-217.469"/>
</g>
<!-- Node37 -->
<g id="node37" class="node"><title>Node37</title>
<polygon fill="none" stroke="#bfbfbf" points="1188,-192.5 1188,-211.5 1260,-211.5 1260,-192.5 1188,-192.5"/>
<text text-anchor="middle" x="1224" y="-199.5" font-family="Helvetica,sans-Serif" font-size="10.00">TGeoNode.h</text>
</g>
<!-- Node1&#45;&gt;Node37 -->
<g id="edge46" class="edge"><title>Node1&#45;&gt;Node37</title>
<path fill="none" stroke="midnightblue" d="M974.294,-257.889C1036.89,-244.129 1125,-224.762 1178.09,-213.092"/>
<polygon fill="midnightblue" stroke="midnightblue" points="1178.89,-216.5 1187.9,-210.935 1177.38,-209.663 1178.89,-216.5"/>
</g>
<!-- Node38 -->
<g id="node38" class="node"><title>Node38</title>
<polygon fill="none" stroke="#bfbfbf" points="1278,-192.5 1278,-211.5 1360,-211.5 1360,-192.5 1278,-192.5"/>
<text text-anchor="middle" x="1319" y="-199.5" font-family="Helvetica,sans-Serif" font-size="10.00">TGeoVolume.h</text>
</g>
<!-- Node1&#45;&gt;Node38 -->
<g id="edge47" class="edge"><title>Node1&#45;&gt;Node38</title>
<path fill="none" stroke="midnightblue" d="M974.006,-261.947C1046.04,-249.999 1159.59,-231.014 1267.7,-212.213"/>
<polygon fill="midnightblue" stroke="midnightblue" points="1268.55,-215.616 1277.81,-210.453 1267.35,-208.72 1268.55,-215.616"/>
</g>
<!-- Node39 -->
<g id="node39" class="node"><title>Node39</title>
<polygon fill="none" stroke="#bfbfbf" points="1378.5,-192.5 1378.5,-211.5 1453.5,-211.5 1453.5,-192.5 1378.5,-192.5"/>
<text text-anchor="middle" x="1416" y="-199.5" font-family="Helvetica,sans-Serif" font-size="10.00">TMathBase.h</text>
</g>
<!-- Node1&#45;&gt;Node39 -->
<g id="edge48" class="edge"><title>Node1&#45;&gt;Node39</title>
<path fill="none" stroke="midnightblue" d="M974.148,-265.63C1064.34,-255.012 1222.53,-235.427 1368.3,-212.031"/>
<polygon fill="midnightblue" stroke="midnightblue" points="1369.01,-215.461 1378.32,-210.412 1367.89,-208.551 1369.01,-215.461"/>
</g>
<!-- Node40 -->
<g id="node40" class="node"><title>Node40</title>
<polygon fill="none" stroke="#bfbfbf" points="1471.5,-192.5 1471.5,-211.5 1540.5,-211.5 1540.5,-192.5 1471.5,-192.5"/>
<text text-anchor="middle" x="1506" y="-199.5" font-family="Helvetica,sans-Serif" font-size="10.00">TObjArray.h</text>
</g>
<!-- Node1&#45;&gt;Node40 -->
<g id="edge49" class="edge"><title>Node1&#45;&gt;Node40</title>
<path fill="none" stroke="midnightblue" d="M974.351,-268.055C1079.83,-259.026 1280.58,-240.053 1461.5,-211.936"/>
<polygon fill="midnightblue" stroke="midnightblue" points="1462.13,-215.381 1471.47,-210.375 1461.05,-208.465 1462.13,-215.381"/>
</g>
<!-- Node41 -->
<g id="node41" class="node"><title>Node41</title>
<polygon fill="none" stroke="#bfbfbf" points="1559,-192.5 1559,-211.5 1605,-211.5 1605,-192.5 1559,-192.5"/>
<text text-anchor="middle" x="1582" y="-199.5" font-family="Helvetica,sans-Serif" font-size="10.00">cctype</text>
</g>
<!-- Node1&#45;&gt;Node41 -->
<g id="edge51" class="edge"><title>Node1&#45;&gt;Node41</title>
<path fill="none" stroke="midnightblue" d="M974.445,-271.061C1093.29,-265.408 1335.07,-250.187 1548.53,-211.739"/>
<polygon fill="midnightblue" stroke="midnightblue" points="1549.47,-215.127 1558.68,-209.89 1548.21,-208.24 1549.47,-215.127"/>
</g>
<!-- Node42 -->
<g id="node42" class="node"><title>Node42</title>
<polygon fill="none" stroke="#bfbfbf" points="1623.5,-192.5 1623.5,-211.5 1666.5,-211.5 1666.5,-192.5 1623.5,-192.5"/>
<text text-anchor="middle" x="1645" y="-199.5" font-family="Helvetica,sans-Serif" font-size="10.00">cstdio</text>
</g>
<!-- Node1&#45;&gt;Node42 -->
<g id="edge52" class="edge"><title>Node1&#45;&gt;Node42</title>
<path fill="none" stroke="midnightblue" d="M974.257,-272.35C1102.4,-268.434 1375.41,-255.504 1613.57,-211.682"/>
<polygon fill="midnightblue" stroke="midnightblue" points="1614.26,-215.113 1623.45,-209.841 1612.98,-208.231 1614.26,-215.113"/>
</g>
<!-- Node43 -->
<g id="node43" class="node"><title>Node43</title>
<polygon fill="none" stroke="#bfbfbf" points="1685,-192.5 1685,-211.5 1731,-211.5 1731,-192.5 1685,-192.5"/>
<text text-anchor="middle" x="1708" y="-199.5" font-family="Helvetica,sans-Serif" font-size="10.00">cstring</text>
</g>
<!-- Node1&#45;&gt;Node43 -->
<g id="edge53" class="edge"><title>Node1&#45;&gt;Node43</title>
<path fill="none" stroke="midnightblue" d="M974.133,-272.671C1110.39,-269.208 1412.25,-256.896 1674.59,-211.696"/>
<polygon fill="midnightblue" stroke="midnightblue" points="1675.44,-215.101 1684.69,-209.936 1674.23,-208.205 1675.44,-215.101"/>
</g>
<!-- Node3 -->
<g id="node3" class="node"><title>Node3</title>
<polygon fill="none" stroke="#bfbfbf" points="636,-74.5 636,-93.5 692,-93.5 692,-74.5 636,-74.5"/>
<text text-anchor="middle" x="664" y="-81.5" font-family="Helvetica,sans-Serif" font-size="10.00">Rtypes.h</text>
</g>
<!-- Node2&#45;&gt;Node3 -->
<g id="edge2" class="edge"><title>Node2&#45;&gt;Node3</title>
<path fill="none" stroke="midnightblue" d="M890.895,-136.469C836.895,-129.461 763.761,-117.759 701,-100 698.186,-99.2038 695.295,-98.2627 692.428,-97.246"/>
<polygon fill="midnightblue" stroke="midnightblue" points="693.515,-93.914 682.925,-93.5992 691.007,-100.449 693.515,-93.914"/>
</g>
<!-- Node6 -->
<g id="node6" class="node"><title>Node6</title>
<polygon fill="none" stroke="#bfbfbf" points="0,-136.5 0,-155.5 62,-155.5 62,-136.5 0,-136.5"/>
<text text-anchor="middle" x="31" y="-143.5" font-family="Helvetica,sans-Serif" font-size="10.00">TNamed.h</text>
</g>
<!-- Node5&#45;&gt;Node6 -->
<g id="edge5" class="edge"><title>Node5&#45;&gt;Node6</title>
<path fill="none" stroke="midnightblue" d="M104.861,-192.324C91.1337,-183.9 70.0637,-170.971 53.9357,-161.074"/>
<polygon fill="midnightblue" stroke="midnightblue" points="55.4574,-157.902 45.1036,-155.655 51.7963,-163.868 55.4574,-157.902"/>
</g>
<!-- Node7&#45;&gt;Node8 -->
<g id="edge7" class="edge"><title>Node7&#45;&gt;Node8</title>
<path fill="none" stroke="midnightblue" d="M528.377,-193.93C441.744,-186.451 304.472,-173.494 176.108,-156.067"/>
<polygon fill="midnightblue" stroke="midnightblue" points="176.477,-152.585 166.094,-154.696 175.527,-159.52 176.477,-152.585"/>
</g>
<!-- Node9 -->
<g id="node9" class="node"><title>Node9</title>
<polygon fill="none" stroke="#bfbfbf" points="544.5,-136.5 544.5,-155.5 627.5,-155.5 627.5,-136.5 544.5,-136.5"/>
<text text-anchor="middle" x="586" y="-143.5" font-family="Helvetica,sans-Serif" font-size="10.00">TGeoMaterial.h</text>
</g>
<!-- Node7&#45;&gt;Node9 -->
<g id="edge8" class="edge"><title>Node7&#45;&gt;Node9</title>
<path fill="none" stroke="midnightblue" d="M610.211,-192.083C606.242,-184.691 600.475,-173.953 595.565,-164.811"/>
<polygon fill="midnightblue" stroke="midnightblue" points="598.514,-162.905 590.7,-155.751 592.347,-166.217 598.514,-162.905"/>
</g>
<!-- Node7&#45;&gt;Node10 -->
<g id="edge9" class="edge"><title>Node7&#45;&gt;Node10</title>
<path fill="none" stroke="midnightblue" d="M555.422,-192.444C486.935,-182.608 374.895,-166.517 304.147,-156.356"/>
<polygon fill="midnightblue" stroke="midnightblue" points="304.414,-152.859 294.018,-154.902 303.419,-159.788 304.414,-152.859"/>
</g>
<!-- Node7&#45;&gt;Node11 -->
<g id="edge10" class="edge"><title>Node7&#45;&gt;Node11</title>
<path fill="none" stroke="midnightblue" d="M573.168,-192.444C525.969,-182.789 449.307,-167.108 399.519,-156.924"/>
<polygon fill="midnightblue" stroke="midnightblue" points="400.128,-153.477 389.63,-154.902 398.725,-160.335 400.128,-153.477"/>
</g>
<!-- Node7&#45;&gt;Node12 -->
<g id="edge11" class="edge"><title>Node7&#45;&gt;Node12</title>
<path fill="none" stroke="midnightblue" d="M624.158,-192.324C632.501,-184.42 645.032,-172.548 655.177,-162.938"/>
<polygon fill="midnightblue" stroke="midnightblue" points="657.823,-165.252 662.675,-155.834 653.009,-160.171 657.823,-165.252"/>
</g>
<!-- Node7&#45;&gt;Node13 -->
<g id="edge12" class="edge"><title>Node7&#45;&gt;Node13</title>
<path fill="none" stroke="midnightblue" d="M635.757,-192.444C657.316,-183.557 691.263,-169.563 715.794,-159.451"/>
<polygon fill="midnightblue" stroke="midnightblue" points="717.428,-162.563 725.34,-155.516 714.761,-156.092 717.428,-162.563"/>
</g>
<!-- Node14 -->
<g id="node14" class="node"><title>Node14</title>
<g id="a_node14"><a xlink:href="../../d6/d31/DetID_8h.html" target="_top" xlink:title="DetectorsBase/DetID.h">
<polygon fill="none" stroke="black" points="407.5,-136.5 407.5,-155.5 526.5,-155.5 526.5,-136.5 407.5,-136.5"/>
<text text-anchor="middle" x="467" y="-143.5" font-family="Helvetica,sans-Serif" font-size="10.00">DetectorsBase/DetID.h</text>
</a>
</g>
</g>
<!-- Node7&#45;&gt;Node14 -->
<g id="edge13" class="edge"><title>Node7&#45;&gt;Node14</title>
<path fill="none" stroke="midnightblue" d="M591.549,-192.444C566.867,-183.438 527.815,-169.189 500.023,-159.049"/>
<polygon fill="midnightblue" stroke="midnightblue" points="500.935,-155.656 490.341,-155.516 498.536,-162.232 500.935,-155.656"/>
</g>
<!-- Node7&#45;&gt;Node22 -->
<g id="edge23" class="edge"><title>Node7&#45;&gt;Node22</title>
<path fill="none" stroke="midnightblue" d="M648.909,-192.444C685.849,-183.122 745.054,-168.183 785.418,-157.997"/>
<polygon fill="midnightblue" stroke="midnightblue" points="786.41,-161.357 795.25,-155.516 784.697,-154.57 786.41,-161.357"/>
</g>
<!-- Node7&#45;&gt;Node23 -->
<g id="edge24" class="edge"><title>Node7&#45;&gt;Node23</title>
<path fill="none" stroke="midnightblue" d="M701.562,-192.958C789.734,-184.622 930.697,-170.897 1062.87,-156.102"/>
<polygon fill="midnightblue" stroke="midnightblue" points="1063.64,-159.539 1073.18,-154.944 1062.85,-152.582 1063.64,-159.539"/>
</g>
<!-- Node14&#45;&gt;Node3 -->
<g id="edge17" class="edge"><title>Node14&#45;&gt;Node3</title>
<path fill="none" stroke="midnightblue" d="M500.801,-136.485C533.195,-128.078 583.33,-114.42 626,-100 628.558,-99.1357 631.195,-98.1969 633.831,-97.2247"/>
<polygon fill="midnightblue" stroke="midnightblue" points="635.141,-100.471 643.233,-93.6318 632.642,-93.9322 635.141,-100.471"/>
</g>
<!-- Node15 -->
<g id="node15" class="node"><title>Node15</title>
<polygon fill="none" stroke="#bfbfbf" points="322,-74.5 322,-93.5 368,-93.5 368,-74.5 322,-74.5"/>
<text text-anchor="middle" x="345" y="-81.5" font-family="Helvetica,sans-Serif" font-size="10.00">cstdint</text>
</g>
<!-- Node14&#45;&gt;Node15 -->
<g id="edge14" class="edge"><title>Node14&#45;&gt;Node15</title>
<path fill="none" stroke="midnightblue" d="M449.52,-136.403C429.137,-126.379 395.225,-109.701 371.575,-98.0699"/>
<polygon fill="midnightblue" stroke="midnightblue" points="372.965,-94.8531 362.447,-93.5806 369.876,-101.135 372.965,-94.8531"/>
</g>
<!-- Node16 -->
<g id="node16" class="node"><title>Node16</title>
<polygon fill="none" stroke="#bfbfbf" points="404,-6.5 404,-25.5 442,-25.5 442,-6.5 404,-6.5"/>
<text text-anchor="middle" x="423" y="-13.5" font-family="Helvetica,sans-Serif" font-size="10.00">array</text>
</g>
<!-- Node14&#45;&gt;Node16 -->
<g id="edge15" class="edge"><title>Node14&#45;&gt;Node16</title>
<path fill="none" stroke="midnightblue" d="M451.217,-136.467C438.797,-128.769 422.395,-116.179 415,-100 405.531,-79.2835 410.724,-52.6785 416.133,-35.2492"/>
<polygon fill="midnightblue" stroke="midnightblue" points="419.468,-36.3121 419.399,-25.7175 412.846,-34.0428 419.468,-36.3121"/>
</g>
<!-- Node17 -->
<g id="node17" class="node"><title>Node17</title>
<polygon fill="none" stroke="#bfbfbf" points="424,-74.5 424,-93.5 486,-93.5 486,-74.5 424,-74.5"/>
<text text-anchor="middle" x="455" y="-81.5" font-family="Helvetica,sans-Serif" font-size="10.00">type_traits</text>
</g>
<!-- Node14&#45;&gt;Node17 -->
<g id="edge16" class="edge"><title>Node14&#45;&gt;Node17</title>
<path fill="none" stroke="midnightblue" d="M465.281,-136.403C463.57,-127.849 460.89,-114.45 458.695,-103.476"/>
<polygon fill="midnightblue" stroke="midnightblue" points="462.109,-102.7 456.716,-93.5806 455.245,-104.073 462.109,-102.7"/>
</g>
<!-- Node18 -->
<g id="node18" class="node"><title>Node18</title>
<g id="a_node18"><a xlink:href="../../d9/ded/Utils_8h.html" target="_top" xlink:title="DetectorsBase/Utils.h">
<polygon fill="none" stroke="black" points="504.5,-74.5 504.5,-93.5 617.5,-93.5 617.5,-74.5 504.5,-74.5"/>
<text text-anchor="middle" x="561" y="-81.5" font-family="Helvetica,sans-Serif" font-size="10.00">DetectorsBase/Utils.h</text>
</a>
</g>
</g>
<!-- Node14&#45;&gt;Node18 -->
<g id="edge18" class="edge"><title>Node14&#45;&gt;Node18</title>
<path fill="none" stroke="midnightblue" d="M480.468,-136.403C495.685,-126.691 520.687,-110.732 538.801,-99.1697"/>
<polygon fill="midnightblue" stroke="midnightblue" points="541.011,-101.911 547.557,-93.5806 537.245,-96.0108 541.011,-101.911"/>
</g>
<!-- Node21 -->
<g id="node21" class="node"><title>Node21</title>
<polygon fill="none" stroke="#bfbfbf" points="254.5,-74.5 254.5,-93.5 303.5,-93.5 303.5,-74.5 254.5,-74.5"/>
<text text-anchor="middle" x="279" y="-81.5" font-family="Helvetica,sans-Serif" font-size="10.00">cassert</text>
</g>
<!-- Node14&#45;&gt;Node21 -->
<g id="edge22" class="edge"><title>Node14&#45;&gt;Node21</title>
<path fill="none" stroke="midnightblue" d="M432.941,-136.425C401.458,-128.175 353.558,-114.8 313,-100 310.883,-99.2273 308.71,-98.3862 306.536,-97.5096"/>
<polygon fill="midnightblue" stroke="midnightblue" points="307.745,-94.2204 297.171,-93.5427 305.014,-100.666 307.745,-94.2204"/>
</g>
<!-- Node18&#45;&gt;Node16 -->
<g id="edge21" class="edge"><title>Node18&#45;&gt;Node16</title>
<path fill="none" stroke="midnightblue" d="M542.959,-74.3717C519.301,-63.0569 477.584,-43.1053 450.115,-29.9678"/>
<polygon fill="midnightblue" stroke="midnightblue" points="451.577,-26.7876 441.046,-25.6305 448.557,-33.1025 451.577,-26.7876"/>
</g>
<!-- Node19 -->
<g id="node19" class="node"><title>Node19</title>
<g id="a_node19"><a xlink:href="../../d1/daa/Base_2include_2DetectorsBase_2Constants_8h.html" target="_top" xlink:title="DetectorsBase/Constants.h">
<polygon fill="none" stroke="black" points="548,-6.5 548,-25.5 686,-25.5 686,-6.5 548,-6.5"/>
<text text-anchor="middle" x="617" y="-13.5" font-family="Helvetica,sans-Serif" font-size="10.00">DetectorsBase/Constants.h</text>
</a>
</g>
</g>
<!-- Node18&#45;&gt;Node19 -->
<g id="edge19" class="edge"><title>Node18&#45;&gt;Node19</title>
<path fill="none" stroke="midnightblue" d="M568.321,-74.3717C577.076,-64.053 591.926,-46.5513 602.928,-33.5854"/>
<polygon fill="midnightblue" stroke="midnightblue" points="605.697,-35.7307 609.498,-25.8411 600.36,-31.2018 605.697,-35.7307"/>
</g>
<!-- Node20 -->
<g id="node20" class="node"><title>Node20</title>
<polygon fill="none" stroke="#bfbfbf" points="486,-6.5 486,-25.5 530,-25.5 530,-6.5 486,-6.5"/>
<text text-anchor="middle" x="508" y="-13.5" font-family="Helvetica,sans-Serif" font-size="10.00">cmath</text>
</g>
<!-- Node18&#45;&gt;Node20 -->
<g id="edge20" class="edge"><title>Node18&#45;&gt;Node20</title>
<path fill="none" stroke="midnightblue" d="M554.071,-74.3717C545.864,-64.1512 531.998,-46.884 521.617,-33.9571"/>
<polygon fill="midnightblue" stroke="midnightblue" points="524.09,-31.4468 515.1,-25.8411 518.632,-35.8298 524.09,-31.4468"/>
</g>
<!-- Node23&#45;&gt;Node3 -->
<g id="edge28" class="edge"><title>Node23&#45;&gt;Node3</title>
<path fill="none" stroke="midnightblue" d="M1073.18,-137.052C1070.08,-136.689 1067,-136.337 1064,-136 902.884,-117.944 858.4,-138.853 701,-100 697.936,-99.2437 694.791,-98.2819 691.692,-97.2117"/>
<polygon fill="midnightblue" stroke="midnightblue" points="692.689,-93.8457 682.098,-93.5422 690.188,-100.384 692.689,-93.8457"/>
</g>
<!-- Node24 -->
<g id="node24" class="node"><title>Node24</title>
<polygon fill="none" stroke="#bfbfbf" points="1288.5,-74.5 1288.5,-93.5 1437.5,-93.5 1437.5,-74.5 1288.5,-74.5"/>
<text text-anchor="middle" x="1363" y="-81.5" font-family="Helvetica,sans-Serif" font-size="10.00">Math/GenVector/Rotation3D.h</text>
</g>
<!-- Node23&#45;&gt;Node24 -->
<g id="edge25" class="edge"><title>Node23&#45;&gt;Node24</title>
<path fill="none" stroke="midnightblue" d="M1168.52,-136.403C1208.56,-125.822 1276.64,-107.827 1320.7,-96.1802"/>
<polygon fill="midnightblue" stroke="midnightblue" points="1321.76,-99.5199 1330.54,-93.5806 1319.97,-92.7523 1321.76,-99.5199"/>
</g>
<!-- Node25 -->
<g id="node25" class="node"><title>Node25</title>
<polygon fill="none" stroke="#bfbfbf" points="1456,-74.5 1456,-93.5 1612,-93.5 1612,-74.5 1456,-74.5"/>
<text text-anchor="middle" x="1534" y="-81.5" font-family="Helvetica,sans-Serif" font-size="10.00">Math/GenVector/Transform3D.h</text>
</g>
<!-- Node23&#45;&gt;Node25 -->
<g id="edge26" class="edge"><title>Node23&#45;&gt;Node25</title>
<path fill="none" stroke="midnightblue" d="M1197.83,-136.483C1260.44,-127.749 1360.05,-113.562 1446,-100 1455.43,-98.512 1465.42,-96.8716 1475.15,-95.2383"/>
<polygon fill="midnightblue" stroke="midnightblue" points="1475.88,-98.6636 1485.16,-93.5454 1474.72,-91.7615 1475.88,-98.6636"/>
</g>
<!-- Node26 -->
<g id="node26" class="node"><title>Node26</title>
<polygon fill="none" stroke="#bfbfbf" points="1630,-74.5 1630,-93.5 1790,-93.5 1790,-74.5 1630,-74.5"/>
<text text-anchor="middle" x="1710" y="-81.5" font-family="Helvetica,sans-Serif" font-size="10.00">Math/GenVector/Translation3D.h</text>
</g>
<!-- Node23&#45;&gt;Node26 -->
<g id="edge27" class="edge"><title>Node23&#45;&gt;Node26</title>
<path fill="none" stroke="midnightblue" d="M1198.6,-137.533C1203.47,-136.998 1208.31,-136.481 1213,-136 1394.09,-117.431 1440.44,-123.145 1621,-100 1631.48,-98.6563 1642.62,-96.9795 1653.34,-95.2383"/>
<polygon fill="midnightblue" stroke="midnightblue" points="1654.16,-98.6498 1663.45,-93.558 1653.01,-91.7444 1654.16,-98.6498"/>
</g>
<!-- Node23&#45;&gt;Node27 -->
<g id="edge29" class="edge"><title>Node23&#45;&gt;Node27</title>
<path fill="none" stroke="midnightblue" d="M1198.59,-137.393C1203.46,-136.89 1208.31,-136.418 1213,-136 1472.91,-112.845 1542.52,-148.035 1799,-100 1803.58,-99.1431 1808.33,-97.9741 1812.97,-96.6641"/>
<polygon fill="midnightblue" stroke="midnightblue" points="1814.33,-99.91 1822.86,-93.6374 1812.28,-93.2162 1814.33,-99.91"/>
</g>
<!-- Node28 -->
<g id="node28" class="node"><title>Node28</title>
<polygon fill="none" stroke="#bfbfbf" points="710.5,-69 710.5,-99 861.5,-99 861.5,-69 710.5,-69"/>
<text text-anchor="start" x="718.5" y="-87" font-family="Helvetica,sans-Serif" font-size="10.00">Math/GenVector/Displacement</text>
<text text-anchor="middle" x="786" y="-76" font-family="Helvetica,sans-Serif" font-size="10.00">Vector3D.h</text>
</g>
<!-- Node23&#45;&gt;Node28 -->
<g id="edge30" class="edge"><title>Node23&#45;&gt;Node28</title>
<path fill="none" stroke="midnightblue" d="M1085.18,-136.471C1034.01,-127.86 952.517,-114.085 871.879,-100.146"/>
<polygon fill="midnightblue" stroke="midnightblue" points="871.99,-96.6129 861.539,-98.3566 870.796,-103.51 871.99,-96.6129"/>
</g>
<!-- Node29 -->
<g id="node29" class="node"><title>Node29</title>
<polygon fill="none" stroke="#bfbfbf" points="880,-74.5 880,-93.5 1056,-93.5 1056,-74.5 880,-74.5"/>
<text text-anchor="middle" x="968" y="-81.5" font-family="Helvetica,sans-Serif" font-size="10.00">Math/GenVector/PositionVector3D.h</text>
</g>
<!-- Node23&#45;&gt;Node29 -->
<g id="edge31" class="edge"><title>Node23&#45;&gt;Node29</title>
<path fill="none" stroke="midnightblue" d="M1111.93,-136.403C1082.99,-126.067 1034.24,-108.656 1001.6,-96.9994"/>
<polygon fill="midnightblue" stroke="midnightblue" points="1002.62,-93.6479 992.026,-93.5806 1000.27,-100.24 1002.62,-93.6479"/>
</g>
<!-- Node30 -->
<g id="node30" class="node"><title>Node30</title>
<g id="a_node30"><a xlink:href="../../d2/dd0/Cartesian2D_8h.html" target="_top" xlink:title="MathUtils/Cartesian2D.h">
<polygon fill="none" stroke="black" points="1073.5,-74.5 1073.5,-93.5 1198.5,-93.5 1198.5,-74.5 1073.5,-74.5"/>
<text text-anchor="middle" x="1136" y="-81.5" font-family="Helvetica,sans-Serif" font-size="10.00">MathUtils/Cartesian2D.h</text>
</a>
</g>
</g>
<!-- Node23&#45;&gt;Node30 -->
<g id="edge32" class="edge"><title>Node23&#45;&gt;Node30</title>
<path fill="none" stroke="midnightblue" d="M1136,-136.403C1136,-127.938 1136,-114.728 1136,-103.82"/>
<polygon fill="midnightblue" stroke="midnightblue" points="1139.5,-103.581 1136,-93.5806 1132.5,-103.581 1139.5,-103.581"/>
</g>
<!-- Node33 -->
<g id="node33" class="node"><title>Node33</title>
<polygon fill="none" stroke="#bfbfbf" points="1217,-74.5 1217,-93.5 1271,-93.5 1271,-74.5 1217,-74.5"/>
<text text-anchor="middle" x="1244" y="-81.5" font-family="Helvetica,sans-Serif" font-size="10.00">iostream</text>
</g>
<!-- Node23&#45;&gt;Node33 -->
<g id="edge35" class="edge"><title>Node23&#45;&gt;Node33</title>
<path fill="none" stroke="midnightblue" d="M1151.47,-136.403C1169.28,-126.512 1198.74,-110.144 1219.63,-98.5378"/>
<polygon fill="midnightblue" stroke="midnightblue" points="1221.51,-101.497 1228.55,-93.5806 1218.11,-95.3775 1221.51,-101.497"/>
</g>
<!-- Node31 -->
<g id="node31" class="node"><title>Node31</title>
<polygon fill="none" stroke="#bfbfbf" points="1151.5,-1 1151.5,-31 1302.5,-31 1302.5,-1 1151.5,-1"/>
<text text-anchor="start" x="1159.5" y="-19" font-family="Helvetica,sans-Serif" font-size="10.00">Math/GenVector/Displacement</text>
<text text-anchor="middle" x="1227" y="-8" font-family="Helvetica,sans-Serif" font-size="10.00">Vector2D.h</text>
</g>
<!-- Node30&#45;&gt;Node31 -->
<g id="edge33" class="edge"><title>Node30&#45;&gt;Node31</title>
<path fill="none" stroke="midnightblue" d="M1147.9,-74.3717C1160.78,-65.0286 1181.78,-49.7966 1198.91,-37.375"/>
<polygon fill="midnightblue" stroke="midnightblue" points="1201.41,-39.8859 1207.45,-31.1815 1197.3,-34.2194 1201.41,-39.8859"/>
</g>
<!-- Node32 -->
<g id="node32" class="node"><title>Node32</title>
<polygon fill="none" stroke="#bfbfbf" points="957,-6.5 957,-25.5 1133,-25.5 1133,-6.5 957,-6.5"/>
<text text-anchor="middle" x="1045" y="-13.5" font-family="Helvetica,sans-Serif" font-size="10.00">Math/GenVector/PositionVector2D.h</text>
</g>
<!-- Node30&#45;&gt;Node32 -->
<g id="edge34" class="edge"><title>Node30&#45;&gt;Node32</title>
<path fill="none" stroke="midnightblue" d="M1124.1,-74.3717C1109.12,-63.5015 1083.14,-44.6602 1065.06,-31.5474"/>
<polygon fill="midnightblue" stroke="midnightblue" points="1067.05,-28.6684 1056.9,-25.6305 1062.94,-34.3349 1067.05,-28.6684"/>
</g>
</g>
</svg>
        <g id="navigator" transform="translate(0 0)" fill="#404254">
                <rect fill="#f2f5e9" fill-opacity="0.5" stroke="#606060" stroke-width=".5" x="0" y="0" width="60" height="60"/>
                <use id="zoomplus" xlink:href="#zoomPlus" x="17" y="9" onmousedown="handleZoom(evt,'in')"/>
                <use id="zoomminus" xlink:href="#zoomMin" x="42" y="9" onmousedown="handleZoom(evt,'out')"/>
                <use id="reset" xlink:href="#resetDef" x="30" y="36" onmousedown="handleReset()"/>
                <g id="arrowUp" xlink:href="#dirArrow" transform="translate(30 24)" onmousedown="handlePan(0,-1)">
                  <use xlink:href="#rim" fill="#404040">
                        <set attributeName="fill" to="#808080" begin="arrowUp.mouseover" end="arrowUp.mouseout"/>
                  </use>
                  <path fill="none" stroke="white" stroke-width="1.5" d="M0,-3.0v7 M-2.5,-0.5L0,-3.0L2.5,-0.5"/>
                </g>
                <g id="arrowRight" xlink:href="#dirArrow" transform="rotate(90) translate(36 -43)" onmousedown="handlePan(1,0)">
                  <use xlink:href="#rim" fill="#404040">
                        <set attributeName="fill" to="#808080" begin="arrowRight.mouseover" end="arrowRight.mouseout"/>
                  </use>
                  <path fill="none" stroke="white" stroke-width="1.5" d="M0,-3.0v7 M-2.5,-0.5L0,-3.0L2.5,-0.5"/>
                </g>
                <g id="arrowDown" xlink:href="#dirArrow" transform="rotate(180) translate(-30 -48)" onmousedown="handlePan(0,1)">
                  <use xlink:href="#rim" fill="#404040">
                        <set attributeName="fill" to="#808080" begin="arrowDown.mouseover" end="arrowDown.mouseout"/>
                  </use>
                  <path fill="none" stroke="white" stroke-width="1.5" d="M0,-3.0v7 M-2.5,-0.5L0,-3.0L2.5,-0.5"/>
                </g>
                <g id="arrowLeft" xlink:href="#dirArrow" transform="rotate(270) translate(-36 17)" onmousedown="handlePan(-1,0)">
                  <use xlink:href="#rim" fill="#404040">
                        <set attributeName="fill" to="#808080" begin="arrowLeft.mouseover" end="arrowLeft.mouseout"/>
                  </use>
                  <path fill="none" stroke="white" stroke-width="1.5" d="M0,-3.0v7 M-2.5,-0.5L0,-3.0L2.5,-0.5"/>
                </g>
        </g>
        <svg viewBox="0 0 15 15" width="100%" height="30px" preserveAspectRatio="xMaxYMin meet">
         <g id="arrow_out" transform="scale(0.3 0.3)">
          <a xlink:href="MFT_2base_2src_2GeometryTGeo_8cxx__incl_org.svg" target="_base">
           <rect id="button" ry="5" rx="5" y="6" x="6" height="38" width="38"
                fill="#f2f5e9" fill-opacity="0.5" stroke="#606060" stroke-width="1.0"/>
           <path id="arrow"
             d="M 11.500037,31.436501 C 11.940474,20.09759 22.043105,11.32322 32.158766,21.979434 L 37.068811,17.246167 C 37.068811,17.246167 37.088388,32 37.088388,32 L 22.160133,31.978069 C 22.160133,31.978069 26.997745,27.140456 26.997745,27.140456 C 18.528582,18.264221 13.291696,25.230495 11.500037,31.436501 z"
             style="fill:#404040;"/>
          </a>
         </g>
        </svg>
</svg>
