<?xml version="1.0" encoding="UTF-8" standalone="no"?>
<!DOCTYPE svg PUBLIC "-//W3C//DTD SVG 1.1//EN"
 "http://www.w3.org/Graphics/SVG/1.1/DTD/svg11.dtd">
<!-- Generated by graphviz version 2.36.0 (20140111.2315)
 -->
<!-- Title: /home/travis/build/AliceO2Group/AliceO2/DataFormats/simulation/src/Stack.cxx Pages: 1 -->
<svg width="2897pt" height="390pt"
 viewBox="0.00 0.00 2897.00 390.00" xmlns="http://www.w3.org/2000/svg" xmlns:xlink="http://www.w3.org/1999/xlink">
<g id="graph0" class="graph" transform="scale(1 1) rotate(0) translate(4 386)">
<title>/home/travis/build/AliceO2Group/AliceO2/DataFormats/simulation/src/Stack.cxx</title>
<!-- Node1 -->
<g id="node1" class="node"><title>Node1</title>
<polygon fill="#bfbfbf" stroke="black" points="1096,-329 1096,-381 1220,-381 1220,-329 1096,-329"/>
<text text-anchor="start" x="1104" y="-369" font-family="Helvetica,sans-Serif" font-size="10.00">/home/travis/build</text>
<text text-anchor="start" x="1104" y="-358" font-family="Helvetica,sans-Serif" font-size="10.00">/AliceO2Group/AliceO2</text>
<text text-anchor="start" x="1104" y="-347" font-family="Helvetica,sans-Serif" font-size="10.00">/DataFormats/simulation</text>
<text text-anchor="middle" x="1158" y="-336" font-family="Helvetica,sans-Serif" font-size="10.00">/src/Stack.cxx</text>
</g>
<!-- Node2 -->
<g id="node2" class="node"><title>Node2</title>
<g id="a_node2"><a xlink:href="../../d6/d31/DetID_8h.html" target="_top" xlink:title="DetectorsBase/DetID.h">
<polygon fill="none" stroke="black" points="492.5,-130.5 492.5,-149.5 611.5,-149.5 611.5,-130.5 492.5,-130.5"/>
<text text-anchor="middle" x="552" y="-137.5" font-family="Helvetica,sans-Serif" font-size="10.00">DetectorsBase/DetID.h</text>
</a>
</g>
</g>
<!-- Node1&#45;&gt;Node2 -->
<g id="edge1" class="edge"><title>Node1&#45;&gt;Node2</title>
<path fill="none" stroke="midnightblue" d="M1095.94,-349.778C995.885,-340.518 795.707,-311.668 653,-224 634.187,-212.443 632.026,-206.058 615,-192 600.188,-179.77 583.26,-166.083 570.684,-155.969"/>
<polygon fill="midnightblue" stroke="midnightblue" points="572.741,-153.132 562.753,-149.6 568.359,-158.59 572.741,-153.132"/>
</g>
<!-- Node11 -->
<g id="node11" class="node"><title>Node11</title>
<g id="a_node11"><a xlink:href="../../d1/d3a/Base_2include_2DetectorsBase_2Detector_8h.html" target="_top" xlink:title="DetectorsBase/Detector.h">
<polygon fill="none" stroke="black" points="336.5,-266.5 336.5,-285.5 467.5,-285.5 467.5,-266.5 336.5,-266.5"/>
<text text-anchor="middle" x="402" y="-273.5" font-family="Helvetica,sans-Serif" font-size="10.00">DetectorsBase/Detector.h</text>
</a>
</g>
</g>
<!-- Node1&#45;&gt;Node11 -->
<g id="edge11" class="edge"><title>Node1&#45;&gt;Node11</title>
<path fill="none" stroke="midnightblue" d="M1095.81,-347.666C957.962,-333.626 627.126,-299.929 477.618,-284.702"/>
<polygon fill="midnightblue" stroke="midnightblue" points="477.907,-281.213 467.604,-283.682 477.198,-288.177 477.907,-281.213"/>
</g>
<!-- Node15 -->
<g id="node15" class="node"><title>Node15</title>
<polygon fill="none" stroke="#bfbfbf" points="-0.5,-198.5 -0.5,-217.5 78.5,-217.5 78.5,-198.5 -0.5,-198.5"/>
<text text-anchor="middle" x="39" y="-205.5" font-family="Helvetica,sans-Serif" font-size="10.00">FairDetector.h</text>
</g>
<!-- Node1&#45;&gt;Node15 -->
<g id="edge42" class="edge"><title>Node1&#45;&gt;Node15</title>
<path fill="none" stroke="midnightblue" d="M1095.69,-352.376C916.979,-347.307 405.035,-329.805 242,-292 175.095,-276.486 101.689,-241.627 64.1603,-222.387"/>
<polygon fill="midnightblue" stroke="midnightblue" points="65.4773,-219.127 54.9891,-217.628 62.2532,-225.34 65.4773,-219.127"/>
</g>
<!-- Node16 -->
<g id="node16" class="node"><title>Node16</title>
<polygon fill="none" stroke="#bfbfbf" points="97,-198.5 97,-217.5 197,-217.5 197,-198.5 97,-198.5"/>
<text text-anchor="middle" x="147" y="-205.5" font-family="Helvetica,sans-Serif" font-size="10.00">FairRootManager.h</text>
</g>
<!-- Node1&#45;&gt;Node16 -->
<g id="edge58" class="edge"><title>Node1&#45;&gt;Node16</title>
<path fill="none" stroke="midnightblue" d="M1095.77,-352.226C928.563,-347.004 472.396,-329.632 327,-292 267.57,-276.618 203.561,-242.37 170.213,-223.019"/>
<polygon fill="midnightblue" stroke="midnightblue" points="171.662,-219.81 161.268,-217.756 168.112,-225.843 171.662,-219.81"/>
</g>
<!-- Node20 -->
<g id="node20" class="node"><title>Node20</title>
<g id="a_node20"><a xlink:href="../../dc/db6/Stack_8h.html" target="_top" xlink:title="Definition of the Stack class. ">
<polygon fill="none" stroke="black" points="822,-261 822,-291 936,-291 936,-261 822,-261"/>
<text text-anchor="start" x="830" y="-279" font-family="Helvetica,sans-Serif" font-size="10.00">SimulationDataFormat</text>
<text text-anchor="middle" x="879" y="-268" font-family="Helvetica,sans-Serif" font-size="10.00">/Stack.h</text>
</a>
</g>
</g>
<!-- Node1&#45;&gt;Node20 -->
<g id="edge22" class="edge"><title>Node1&#45;&gt;Node20</title>
<path fill="none" stroke="midnightblue" d="M1095.73,-336.816C1049.2,-323.973 985.927,-306.51 939.761,-293.769"/>
<polygon fill="midnightblue" stroke="midnightblue" points="940.459,-290.331 929.888,-291.044 938.597,-297.079 940.459,-290.331"/>
</g>
<!-- Node22 -->
<g id="node22" class="node"><title>Node22</title>
<g id="a_node22"><a xlink:href="../../d2/de2/MCTrack_8h.html" target="_top" xlink:title="Definition of the MCTrack class. ">
<polygon fill="none" stroke="black" points="1106,-193 1106,-223 1220,-223 1220,-193 1106,-193"/>
<text text-anchor="start" x="1114" y="-211" font-family="Helvetica,sans-Serif" font-size="10.00">SimulationDataFormat</text>
<text text-anchor="middle" x="1163" y="-200" font-family="Helvetica,sans-Serif" font-size="10.00">/MCTrack.h</text>
</a>
</g>
</g>
<!-- Node1&#45;&gt;Node22 -->
<g id="edge41" class="edge"><title>Node1&#45;&gt;Node22</title>
<path fill="none" stroke="midnightblue" d="M1158.87,-328.743C1159.8,-301.906 1161.25,-259.772 1162.16,-233.304"/>
<polygon fill="midnightblue" stroke="midnightblue" points="1165.67,-233.125 1162.52,-223.01 1158.67,-232.884 1165.67,-233.125"/>
</g>
<!-- Node23 -->
<g id="node23" class="node"><title>Node23</title>
<polygon fill="none" stroke="#bfbfbf" points="1567,-130.5 1567,-149.5 1659,-149.5 1659,-130.5 1567,-130.5"/>
<text text-anchor="middle" x="1613" y="-137.5" font-family="Helvetica,sans-Serif" font-size="10.00">TLorentzVector.h</text>
</g>
<!-- Node1&#45;&gt;Node23 -->
<g id="edge59" class="edge"><title>Node1&#45;&gt;Node23</title>
<path fill="none" stroke="midnightblue" d="M1161.87,-328.921C1166.44,-307.673 1176.1,-277.889 1196,-260 1203.2,-253.53 1467.94,-180.66 1571.79,-152.247"/>
<polygon fill="midnightblue" stroke="midnightblue" points="1572.89,-155.575 1581.62,-149.561 1571.05,-148.823 1572.89,-155.575"/>
</g>
<!-- Node27 -->
<g id="node27" class="node"><title>Node27</title>
<polygon fill="none" stroke="#bfbfbf" points="973,-130.5 973,-149.5 1037,-149.5 1037,-130.5 973,-130.5"/>
<text text-anchor="middle" x="1005" y="-137.5" font-family="Helvetica,sans-Serif" font-size="10.00">TParticle.h</text>
</g>
<!-- Node1&#45;&gt;Node27 -->
<g id="edge60" class="edge"><title>Node1&#45;&gt;Node27</title>
<path fill="none" stroke="midnightblue" d="M1139.85,-328.73C1108.32,-284.843 1044.25,-195.649 1017.34,-158.182"/>
<polygon fill="midnightblue" stroke="midnightblue" points="1020.02,-155.911 1011.34,-149.831 1014.33,-159.995 1020.02,-155.911"/>
</g>
<!-- Node32 -->
<g id="node32" class="node"><title>Node32</title>
<polygon fill="none" stroke="#bfbfbf" points="1205.5,-266.5 1205.5,-285.5 1276.5,-285.5 1276.5,-266.5 1205.5,-266.5"/>
<text text-anchor="middle" x="1241" y="-273.5" font-family="Helvetica,sans-Serif" font-size="10.00">FairLogger.h</text>
</g>
<!-- Node1&#45;&gt;Node32 -->
<g id="edge43" class="edge"><title>Node1&#45;&gt;Node32</title>
<path fill="none" stroke="midnightblue" d="M1185.18,-328.787C1198.11,-316.787 1213.16,-302.825 1224.38,-292.423"/>
<polygon fill="midnightblue" stroke="midnightblue" points="1226.82,-294.925 1231.78,-285.558 1222.06,-289.793 1226.82,-294.925"/>
</g>
<!-- Node33 -->
<g id="node33" class="node"><title>Node33</title>
<g id="a_node33"><a xlink:href="../../d4/d25/BaseHits_8h.html" target="_top" xlink:title="SimulationDataFormat\l/BaseHits.h">
<polygon fill="none" stroke="black" points="1295,-261 1295,-291 1409,-291 1409,-261 1295,-261"/>
<text text-anchor="start" x="1303" y="-279" font-family="Helvetica,sans-Serif" font-size="10.00">SimulationDataFormat</text>
<text text-anchor="middle" x="1352" y="-268" font-family="Helvetica,sans-Serif" font-size="10.00">/BaseHits.h</text>
</a>
</g>
</g>
<!-- Node1&#45;&gt;Node33 -->
<g id="edge44" class="edge"><title>Node1&#45;&gt;Node33</title>
<path fill="none" stroke="midnightblue" d="M1220.18,-329.319C1248.49,-318.085 1281.35,-305.042 1307.18,-294.789"/>
<polygon fill="midnightblue" stroke="midnightblue" points="1308.71,-297.948 1316.71,-291.006 1306.13,-291.442 1308.71,-297.948"/>
</g>
<!-- Node45 -->
<g id="node45" class="node"><title>Node45</title>
<polygon fill="none" stroke="#bfbfbf" points="1427,-266.5 1427,-285.5 1561,-285.5 1561,-266.5 1427,-266.5"/>
<text text-anchor="middle" x="1494" y="-273.5" font-family="Helvetica,sans-Serif" font-size="10.00">FairGenericRootManager.h</text>
</g>
<!-- Node1&#45;&gt;Node45 -->
<g id="edge57" class="edge"><title>Node1&#45;&gt;Node45</title>
<path fill="none" stroke="midnightblue" d="M1220.02,-339.787C1285.62,-324.753 1387.67,-301.366 1446.96,-287.781"/>
<polygon fill="midnightblue" stroke="midnightblue" points="1447.83,-291.17 1456.8,-285.525 1446.27,-284.347 1447.83,-291.17"/>
</g>
<!-- Node46 -->
<g id="node46" class="node"><title>Node46</title>
<polygon fill="none" stroke="#bfbfbf" points="1579,-266.5 1579,-285.5 1649,-285.5 1649,-266.5 1579,-266.5"/>
<text text-anchor="middle" x="1614" y="-273.5" font-family="Helvetica,sans-Serif" font-size="10.00">TRefArray.h</text>
</g>
<!-- Node1&#45;&gt;Node46 -->
<g id="edge61" class="edge"><title>Node1&#45;&gt;Node46</title>
<path fill="none" stroke="midnightblue" d="M1220.09,-348.161C1301.33,-339.727 1447.72,-321.79 1570,-292 1573.86,-291.06 1577.86,-289.927 1581.81,-288.71"/>
<polygon fill="midnightblue" stroke="midnightblue" points="1582.98,-292.01 1591.39,-285.573 1580.8,-285.357 1582.98,-292.01"/>
</g>
<!-- Node47 -->
<g id="node47" class="node"><title>Node47</title>
<polygon fill="none" stroke="#bfbfbf" points="1667,-266.5 1667,-285.5 1741,-285.5 1741,-266.5 1667,-266.5"/>
<text text-anchor="middle" x="1704" y="-273.5" font-family="Helvetica,sans-Serif" font-size="10.00">TVirtualMC.h</text>
</g>
<!-- Node1&#45;&gt;Node47 -->
<g id="edge62" class="edge"><title>Node1&#45;&gt;Node47</title>
<path fill="none" stroke="midnightblue" d="M1220.23,-350.134C1315.45,-343.358 1502.62,-326.631 1658,-292 1662.24,-291.054 1666.65,-289.878 1670.98,-288.603"/>
<polygon fill="midnightblue" stroke="midnightblue" points="1672.35,-291.844 1680.84,-285.511 1670.25,-285.164 1672.35,-291.844"/>
</g>
<!-- Node48 -->
<g id="node48" class="node"><title>Node48</title>
<polygon fill="none" stroke="#bfbfbf" points="1759.5,-266.5 1759.5,-285.5 1808.5,-285.5 1808.5,-266.5 1759.5,-266.5"/>
<text text-anchor="middle" x="1784" y="-273.5" font-family="Helvetica,sans-Serif" font-size="10.00">cstddef</text>
</g>
<!-- Node1&#45;&gt;Node48 -->
<g id="edge63" class="edge"><title>Node1&#45;&gt;Node48</title>
<path fill="none" stroke="midnightblue" d="M1220.07,-353.79C1329.14,-352.042 1561.5,-342.13 1750,-292 1752.66,-291.294 1755.37,-290.407 1758.05,-289.42"/>
<polygon fill="midnightblue" stroke="midnightblue" points="1759.52,-292.598 1767.43,-285.546 1756.85,-286.129 1759.52,-292.598"/>
</g>
<!-- Node3 -->
<g id="node3" class="node"><title>Node3</title>
<polygon fill="none" stroke="#bfbfbf" points="437,-62.5 437,-81.5 483,-81.5 483,-62.5 437,-62.5"/>
<text text-anchor="middle" x="460" y="-69.5" font-family="Helvetica,sans-Serif" font-size="10.00">cstdint</text>
</g>
<!-- Node2&#45;&gt;Node3 -->
<g id="edge2" class="edge"><title>Node2&#45;&gt;Node3</title>
<path fill="none" stroke="midnightblue" d="M539.973,-130.372C524.82,-119.502 498.557,-100.66 480.278,-87.5474"/>
<polygon fill="midnightblue" stroke="midnightblue" points="482.196,-84.6157 472.03,-81.6305 478.116,-90.3035 482.196,-84.6157"/>
</g>
<!-- Node4 -->
<g id="node4" class="node"><title>Node4</title>
<polygon fill="none" stroke="#bfbfbf" points="482,-0.5 482,-19.5 520,-19.5 520,-0.5 482,-0.5"/>
<text text-anchor="middle" x="501" y="-7.5" font-family="Helvetica,sans-Serif" font-size="10.00">array</text>
</g>
<!-- Node2&#45;&gt;Node4 -->
<g id="edge3" class="edge"><title>Node2&#45;&gt;Node4</title>
<path fill="none" stroke="midnightblue" d="M548.138,-130.389C543.644,-120.291 536.065,-103.022 530,-88 521.918,-67.9821 513.272,-44.7648 507.544,-29.1015"/>
<polygon fill="midnightblue" stroke="midnightblue" points="510.795,-27.7985 504.088,-19.5967 504.216,-30.1908 510.795,-27.7985"/>
</g>
<!-- Node5 -->
<g id="node5" class="node"><title>Node5</title>
<polygon fill="none" stroke="#bfbfbf" points="337,-62.5 337,-81.5 399,-81.5 399,-62.5 337,-62.5"/>
<text text-anchor="middle" x="368" y="-69.5" font-family="Helvetica,sans-Serif" font-size="10.00">type_traits</text>
</g>
<!-- Node2&#45;&gt;Node5 -->
<g id="edge4" class="edge"><title>Node2&#45;&gt;Node5</title>
<path fill="none" stroke="midnightblue" d="M527.945,-130.372C495.623,-118.778 438.021,-98.1162 401.479,-85.0087"/>
<polygon fill="midnightblue" stroke="midnightblue" points="402.364,-81.6078 391.769,-81.5259 400,-88.1967 402.364,-81.6078"/>
</g>
<!-- Node6 -->
<g id="node6" class="node"><title>Node6</title>
<polygon fill="none" stroke="#bfbfbf" points="917,-62.5 917,-81.5 973,-81.5 973,-62.5 917,-62.5"/>
<text text-anchor="middle" x="945" y="-69.5" font-family="Helvetica,sans-Serif" font-size="10.00">Rtypes.h</text>
</g>
<!-- Node2&#45;&gt;Node6 -->
<g id="edge5" class="edge"><title>Node2&#45;&gt;Node6</title>
<path fill="none" stroke="midnightblue" d="M592.654,-130.444C603.474,-128.253 615.165,-125.963 626,-124 726.998,-105.698 846.621,-87.4996 906.623,-78.61"/>
<polygon fill="midnightblue" stroke="midnightblue" points="907.388,-82.0351 916.77,-77.1114 906.365,-75.1102 907.388,-82.0351"/>
</g>
<!-- Node7 -->
<g id="node7" class="node"><title>Node7</title>
<g id="a_node7"><a xlink:href="../../d9/ded/Utils_8h.html" target="_top" xlink:title="DetectorsBase/Utils.h">
<polygon fill="none" stroke="black" points="539.5,-62.5 539.5,-81.5 652.5,-81.5 652.5,-62.5 539.5,-62.5"/>
<text text-anchor="middle" x="596" y="-69.5" font-family="Helvetica,sans-Serif" font-size="10.00">DetectorsBase/Utils.h</text>
</a>
</g>
</g>
<!-- Node2&#45;&gt;Node7 -->
<g id="edge6" class="edge"><title>Node2&#45;&gt;Node7</title>
<path fill="none" stroke="midnightblue" d="M557.752,-130.372C564.5,-120.25 575.856,-103.215 584.446,-90.3312"/>
<polygon fill="midnightblue" stroke="midnightblue" points="587.471,-92.1031 590.106,-81.8411 581.647,-88.2202 587.471,-92.1031"/>
</g>
<!-- Node10 -->
<g id="node10" class="node"><title>Node10</title>
<polygon fill="none" stroke="#bfbfbf" points="670.5,-62.5 670.5,-81.5 719.5,-81.5 719.5,-62.5 670.5,-62.5"/>
<text text-anchor="middle" x="695" y="-69.5" font-family="Helvetica,sans-Serif" font-size="10.00">cassert</text>
</g>
<!-- Node2&#45;&gt;Node10 -->
<g id="edge10" class="edge"><title>Node2&#45;&gt;Node10</title>
<path fill="none" stroke="midnightblue" d="M570.695,-130.372C595.21,-119.057 638.438,-99.1053 666.903,-85.9678"/>
<polygon fill="midnightblue" stroke="midnightblue" points="668.688,-88.999 676.301,-81.6305 665.754,-82.6432 668.688,-88.999"/>
</g>
<!-- Node7&#45;&gt;Node4 -->
<g id="edge9" class="edge"><title>Node7&#45;&gt;Node4</title>
<path fill="none" stroke="midnightblue" d="M582.389,-62.4035C566.939,-52.646 541.51,-36.5854 523.184,-25.0109"/>
<polygon fill="midnightblue" stroke="midnightblue" points="524.91,-21.9613 514.586,-19.5806 521.172,-27.8798 524.91,-21.9613"/>
</g>
<!-- Node8 -->
<g id="node8" class="node"><title>Node8</title>
<g id="a_node8"><a xlink:href="../../d1/daa/Base_2include_2DetectorsBase_2Constants_8h.html" target="_top" xlink:title="DetectorsBase/Constants.h">
<polygon fill="none" stroke="black" points="538,-0.5 538,-19.5 676,-19.5 676,-0.5 538,-0.5"/>
<text text-anchor="middle" x="607" y="-7.5" font-family="Helvetica,sans-Serif" font-size="10.00">DetectorsBase/Constants.h</text>
</a>
</g>
</g>
<!-- Node7&#45;&gt;Node8 -->
<g id="edge7" class="edge"><title>Node7&#45;&gt;Node8</title>
<path fill="none" stroke="midnightblue" d="M597.576,-62.4035C599.144,-53.849 601.601,-40.4497 603.613,-29.4762"/>
<polygon fill="midnightblue" stroke="midnightblue" points="607.066,-30.0478 605.427,-19.5806 600.181,-28.7855 607.066,-30.0478"/>
</g>
<!-- Node9 -->
<g id="node9" class="node"><title>Node9</title>
<polygon fill="none" stroke="#bfbfbf" points="694,-0.5 694,-19.5 738,-19.5 738,-0.5 694,-0.5"/>
<text text-anchor="middle" x="716" y="-7.5" font-family="Helvetica,sans-Serif" font-size="10.00">cmath</text>
</g>
<!-- Node7&#45;&gt;Node9 -->
<g id="edge8" class="edge"><title>Node7&#45;&gt;Node9</title>
<path fill="none" stroke="midnightblue" d="M613.193,-62.4035C633.243,-52.3787 666.599,-35.7006 689.86,-24.0699"/>
<polygon fill="midnightblue" stroke="midnightblue" points="691.46,-27.1833 698.839,-19.5806 688.329,-20.9223 691.46,-27.1833"/>
</g>
<!-- Node11&#45;&gt;Node5 -->
<g id="edge20" class="edge"><title>Node11&#45;&gt;Node5</title>
<path fill="none" stroke="midnightblue" d="M393.152,-266.19C384.317,-256.713 371.311,-240.735 366,-224 351.506,-178.334 358.724,-120.92 364.042,-91.8003"/>
<polygon fill="midnightblue" stroke="midnightblue" points="367.514,-92.2798 366.004,-81.7932 360.645,-90.9329 367.514,-92.2798"/>
</g>
<!-- Node11&#45;&gt;Node6 -->
<g id="edge17" class="edge"><title>Node11&#45;&gt;Node6</title>
<path fill="none" stroke="midnightblue" d="M423.086,-266.378C444.655,-257.17 478.769,-241.513 506,-224 524.858,-211.872 525.197,-202.515 545,-192 668.506,-126.417 833.149,-92.083 906.696,-79.157"/>
<polygon fill="midnightblue" stroke="midnightblue" points="907.61,-82.5512 916.871,-77.404 906.421,-75.6528 907.61,-82.5512"/>
</g>
<!-- Node12 -->
<g id="node12" class="node"><title>Node12</title>
<polygon fill="none" stroke="#bfbfbf" points="662.5,-198.5 662.5,-217.5 697.5,-217.5 697.5,-198.5 662.5,-198.5"/>
<text text-anchor="middle" x="680" y="-205.5" font-family="Helvetica,sans-Serif" font-size="10.00">map</text>
</g>
<!-- Node11&#45;&gt;Node12 -->
<g id="edge12" class="edge"><title>Node11&#45;&gt;Node12</title>
<path fill="none" stroke="midnightblue" d="M438.059,-266.439C494.293,-253.089 601.669,-227.596 652.29,-215.579"/>
<polygon fill="midnightblue" stroke="midnightblue" points="653.27,-218.943 662.191,-213.228 651.653,-212.133 653.27,-218.943"/>
</g>
<!-- Node13 -->
<g id="node13" class="node"><title>Node13</title>
<polygon fill="none" stroke="#bfbfbf" points="275,-198.5 275,-217.5 319,-217.5 319,-198.5 275,-198.5"/>
<text text-anchor="middle" x="297" y="-205.5" font-family="Helvetica,sans-Serif" font-size="10.00">vector</text>
</g>
<!-- Node11&#45;&gt;Node13 -->
<g id="edge13" class="edge"><title>Node11&#45;&gt;Node13</title>
<path fill="none" stroke="midnightblue" d="M388.273,-266.372C370.744,-255.353 340.185,-236.145 319.295,-223.014"/>
<polygon fill="midnightblue" stroke="midnightblue" points="321.059,-219.989 310.73,-217.63 317.334,-225.915 321.059,-219.989"/>
</g>
<!-- Node14 -->
<g id="node14" class="node"><title>Node14</title>
<polygon fill="none" stroke="#bfbfbf" points="554,-198.5 554,-217.5 606,-217.5 606,-198.5 554,-198.5"/>
<text text-anchor="middle" x="580" y="-205.5" font-family="Helvetica,sans-Serif" font-size="10.00">memory</text>
</g>
<!-- Node11&#45;&gt;Node14 -->
<g id="edge14" class="edge"><title>Node11&#45;&gt;Node14</title>
<path fill="none" stroke="midnightblue" d="M425.453,-266.371C452.921,-256.256 499.786,-238.971 540,-224 542.52,-223.062 545.128,-222.089 547.749,-221.109"/>
<polygon fill="midnightblue" stroke="midnightblue" points="549.024,-224.369 557.162,-217.586 546.57,-217.814 549.024,-224.369"/>
</g>
<!-- Node11&#45;&gt;Node15 -->
<g id="edge15" class="edge"><title>Node11&#45;&gt;Node15</title>
<path fill="none" stroke="midnightblue" d="M336.242,-266.971C272.358,-258.549 172.847,-243.78 88,-224 83.542,-222.961 78.8965,-221.733 74.3191,-220.435"/>
<polygon fill="midnightblue" stroke="midnightblue" points="75.0886,-217.013 64.5062,-217.527 73.0992,-223.724 75.0886,-217.013"/>
</g>
<!-- Node11&#45;&gt;Node16 -->
<g id="edge16" class="edge"><title>Node11&#45;&gt;Node16</title>
<path fill="none" stroke="midnightblue" d="M368.925,-266.439C323.16,-254.594 240.47,-233.192 189.973,-220.122"/>
<polygon fill="midnightblue" stroke="midnightblue" points="190.575,-216.663 180.017,-217.546 188.821,-223.44 190.575,-216.663"/>
</g>
<!-- Node17 -->
<g id="node17" class="node"><title>Node17</title>
<polygon fill="none" stroke="#bfbfbf" points="375.5,-198.5 375.5,-217.5 428.5,-217.5 428.5,-198.5 375.5,-198.5"/>
<text text-anchor="middle" x="402" y="-205.5" font-family="Helvetica,sans-Serif" font-size="10.00">cxxabi.h</text>
</g>
<!-- Node11&#45;&gt;Node17 -->
<g id="edge18" class="edge"><title>Node11&#45;&gt;Node17</title>
<path fill="none" stroke="midnightblue" d="M402,-266.372C402,-256.643 402,-240.528 402,-227.85"/>
<polygon fill="midnightblue" stroke="midnightblue" points="405.5,-227.841 402,-217.841 398.5,-227.841 405.5,-227.841"/>
</g>
<!-- Node18 -->
<g id="node18" class="node"><title>Node18</title>
<polygon fill="none" stroke="#bfbfbf" points="446.5,-198.5 446.5,-217.5 497.5,-217.5 497.5,-198.5 446.5,-198.5"/>
<text text-anchor="middle" x="472" y="-205.5" font-family="Helvetica,sans-Serif" font-size="10.00">typeinfo</text>
</g>
<!-- Node11&#45;&gt;Node18 -->
<g id="edge19" class="edge"><title>Node11&#45;&gt;Node18</title>
<path fill="none" stroke="midnightblue" d="M411.151,-266.372C422.304,-255.856 441.368,-237.882 455.19,-224.85"/>
<polygon fill="midnightblue" stroke="midnightblue" points="457.748,-227.248 462.623,-217.841 452.946,-222.155 457.748,-227.248"/>
</g>
<!-- Node19 -->
<g id="node19" class="node"><title>Node19</title>
<polygon fill="none" stroke="#bfbfbf" points="215.5,-198.5 215.5,-217.5 256.5,-217.5 256.5,-198.5 215.5,-198.5"/>
<text text-anchor="middle" x="236" y="-205.5" font-family="Helvetica,sans-Serif" font-size="10.00">string</text>
</g>
<!-- Node11&#45;&gt;Node19 -->
<g id="edge21" class="edge"><title>Node11&#45;&gt;Node19</title>
<path fill="none" stroke="midnightblue" d="M376.619,-266.379C349.061,-256.812 303.908,-240.53 266,-224 264.599,-223.389 263.17,-222.746 261.733,-222.083"/>
<polygon fill="midnightblue" stroke="midnightblue" points="262.886,-218.753 252.358,-217.567 259.848,-225.06 262.886,-218.753"/>
</g>
<!-- Node20&#45;&gt;Node2 -->
<g id="edge34" class="edge"><title>Node20&#45;&gt;Node2</title>
<path fill="none" stroke="midnightblue" d="M831.106,-260.968C804.758,-252.231 772.026,-239.668 745,-224 725.603,-212.754 725.639,-202.817 706,-192 672.61,-173.608 631.478,-160.408 600.125,-152.051"/>
<polygon fill="midnightblue" stroke="midnightblue" points="600.869,-148.628 590.311,-149.507 599.113,-155.404 600.869,-148.628"/>
</g>
<!-- Node20&#45;&gt;Node6 -->
<g id="edge35" class="edge"><title>Node20&#45;&gt;Node6</title>
<path fill="none" stroke="midnightblue" d="M933.51,-260.948C952.188,-253.242 971.108,-241.547 982,-224 989.501,-211.916 985.268,-205.842 982,-192 977.89,-174.59 970.039,-172.838 964,-156 956.377,-134.745 951.087,-109.305 948.059,-92.2411"/>
<polygon fill="midnightblue" stroke="midnightblue" points="951.434,-91.2015 946.324,-81.9203 944.53,-92.3623 951.434,-91.2015"/>
</g>
<!-- Node20&#45;&gt;Node12 -->
<g id="edge37" class="edge"><title>Node20&#45;&gt;Node12</title>
<path fill="none" stroke="midnightblue" d="M826.075,-260.917C792.906,-251.581 749.487,-238.426 712,-224 710.153,-223.289 708.264,-222.52 706.372,-221.717"/>
<polygon fill="midnightblue" stroke="midnightblue" points="707.634,-218.447 697.077,-217.552 704.772,-224.835 707.634,-218.447"/>
</g>
<!-- Node20&#45;&gt;Node14 -->
<g id="edge40" class="edge"><title>Node20&#45;&gt;Node14</title>
<path fill="none" stroke="midnightblue" d="M821.704,-262.353C761.103,-248.976 667.341,-228.279 616.236,-216.999"/>
<polygon fill="midnightblue" stroke="midnightblue" points="616.825,-213.544 606.306,-214.807 615.316,-220.38 616.825,-213.544"/>
</g>
<!-- Node21 -->
<g id="node21" class="node"><title>Node21</title>
<polygon fill="none" stroke="#bfbfbf" points="872.5,-198.5 872.5,-217.5 973.5,-217.5 973.5,-198.5 872.5,-198.5"/>
<text text-anchor="middle" x="923" y="-205.5" font-family="Helvetica,sans-Serif" font-size="10.00">FairGenericStack.h</text>
</g>
<!-- Node20&#45;&gt;Node21 -->
<g id="edge23" class="edge"><title>Node20&#45;&gt;Node21</title>
<path fill="none" stroke="midnightblue" d="M888.547,-260.679C895.272,-250.592 904.311,-237.033 911.444,-226.335"/>
<polygon fill="midnightblue" stroke="midnightblue" points="914.48,-228.09 917.114,-217.828 908.655,-224.207 914.48,-228.09"/>
</g>
<!-- Node20&#45;&gt;Node22 -->
<g id="edge24" class="edge"><title>Node20&#45;&gt;Node22</title>
<path fill="none" stroke="midnightblue" d="M936.13,-261.723C982.349,-250.982 1047.52,-235.838 1096.16,-224.534"/>
<polygon fill="midnightblue" stroke="midnightblue" points="1097.01,-227.928 1105.96,-222.255 1095.43,-221.11 1097.01,-227.928"/>
</g>
<!-- Node20&#45;&gt;Node27 -->
<g id="edge36" class="edge"><title>Node20&#45;&gt;Node27</title>
<path fill="none" stroke="midnightblue" d="M936.038,-268.995C965.076,-262.721 997.971,-249.949 1016,-224 1029.37,-204.751 1021.54,-176.821 1013.9,-158.783"/>
<polygon fill="midnightblue" stroke="midnightblue" points="1017.07,-157.29 1009.7,-149.671 1010.71,-160.218 1017.07,-157.29"/>
</g>
<!-- Node30 -->
<g id="node30" class="node"><title>Node30</title>
<polygon fill="none" stroke="#bfbfbf" points="754.5,-198.5 754.5,-217.5 795.5,-217.5 795.5,-198.5 754.5,-198.5"/>
<text text-anchor="middle" x="775" y="-205.5" font-family="Helvetica,sans-Serif" font-size="10.00">stack</text>
</g>
<!-- Node20&#45;&gt;Node30 -->
<g id="edge38" class="edge"><title>Node20&#45;&gt;Node30</title>
<path fill="none" stroke="midnightblue" d="M856.689,-260.841C839.104,-249.681 814.705,-234.198 797.159,-223.063"/>
<polygon fill="midnightblue" stroke="midnightblue" points="798.999,-220.085 788.681,-217.682 795.248,-225.995 798.999,-220.085"/>
</g>
<!-- Node31 -->
<g id="node31" class="node"><title>Node31</title>
<polygon fill="none" stroke="#bfbfbf" points="814,-198.5 814,-217.5 854,-217.5 854,-198.5 814,-198.5"/>
<text text-anchor="middle" x="834" y="-205.5" font-family="Helvetica,sans-Serif" font-size="10.00">utility</text>
</g>
<!-- Node20&#45;&gt;Node31 -->
<g id="edge39" class="edge"><title>Node20&#45;&gt;Node31</title>
<path fill="none" stroke="midnightblue" d="M869.236,-260.679C862.358,-250.592 853.113,-237.033 845.819,-226.335"/>
<polygon fill="midnightblue" stroke="midnightblue" points="848.545,-224.119 840.019,-217.828 842.761,-228.062 848.545,-224.119"/>
</g>
<!-- Node22&#45;&gt;Node2 -->
<g id="edge29" class="edge"><title>Node22&#45;&gt;Node2</title>
<path fill="none" stroke="midnightblue" d="M1105.79,-200.821C993.259,-188.665 743.488,-161.684 621.608,-148.519"/>
<polygon fill="midnightblue" stroke="midnightblue" points="621.956,-145.036 611.638,-147.442 621.204,-151.996 621.956,-145.036"/>
</g>
<!-- Node22&#45;&gt;Node6 -->
<g id="edge25" class="edge"><title>Node22&#45;&gt;Node6</title>
<path fill="none" stroke="midnightblue" d="M1139.32,-192.803C1123.35,-182.966 1101.98,-169.295 1084,-156 1066.25,-142.875 1064.42,-136.169 1046,-124 1023.22,-108.952 995.403,-95.2111 974.735,-85.7932"/>
<polygon fill="midnightblue" stroke="midnightblue" points="976.058,-82.5509 965.501,-81.656 973.196,-88.939 976.058,-82.5509"/>
</g>
<!-- Node22&#45;&gt;Node23 -->
<g id="edge26" class="edge"><title>Node22&#45;&gt;Node23</title>
<path fill="none" stroke="midnightblue" d="M1220.26,-194.403C1224.9,-193.535 1229.52,-192.721 1234,-192 1376.61,-169.044 1415.06,-182.762 1557,-156 1562.77,-154.913 1568.81,-153.543 1574.71,-152.076"/>
<polygon fill="midnightblue" stroke="midnightblue" points="1575.62,-155.454 1584.41,-149.546 1573.86,-148.68 1575.62,-155.454"/>
</g>
<!-- Node24 -->
<g id="node24" class="node"><title>Node24</title>
<polygon fill="none" stroke="#bfbfbf" points="1093.5,-130.5 1093.5,-149.5 1146.5,-149.5 1146.5,-130.5 1093.5,-130.5"/>
<text text-anchor="middle" x="1120" y="-137.5" font-family="Helvetica,sans-Serif" font-size="10.00">TMath.h</text>
</g>
<!-- Node22&#45;&gt;Node24 -->
<g id="edge27" class="edge"><title>Node22&#45;&gt;Node24</title>
<path fill="none" stroke="midnightblue" d="M1153.67,-192.679C1147.1,-182.592 1138.26,-169.033 1131.29,-158.335"/>
<polygon fill="midnightblue" stroke="midnightblue" points="1134.14,-156.296 1125.75,-149.828 1128.28,-160.118 1134.14,-156.296"/>
</g>
<!-- Node25 -->
<g id="node25" class="node"><title>Node25</title>
<polygon fill="none" stroke="#bfbfbf" points="1164.5,-130.5 1164.5,-149.5 1229.5,-149.5 1229.5,-130.5 1164.5,-130.5"/>
<text text-anchor="middle" x="1197" y="-137.5" font-family="Helvetica,sans-Serif" font-size="10.00">TVector3.h</text>
</g>
<!-- Node22&#45;&gt;Node25 -->
<g id="edge28" class="edge"><title>Node22&#45;&gt;Node25</title>
<path fill="none" stroke="midnightblue" d="M1170.38,-192.679C1175.47,-182.796 1182.28,-169.579 1187.73,-158.986"/>
<polygon fill="midnightblue" stroke="midnightblue" points="1190.98,-160.321 1192.45,-149.828 1184.76,-157.115 1190.98,-160.321"/>
</g>
<!-- Node26 -->
<g id="node26" class="node"><title>Node26</title>
<polygon fill="none" stroke="#bfbfbf" points="1247.5,-130.5 1247.5,-149.5 1342.5,-149.5 1342.5,-130.5 1247.5,-130.5"/>
<text text-anchor="middle" x="1295" y="-137.5" font-family="Helvetica,sans-Serif" font-size="10.00">TDatabasePDG.h</text>
</g>
<!-- Node22&#45;&gt;Node26 -->
<g id="edge30" class="edge"><title>Node22&#45;&gt;Node26</title>
<path fill="none" stroke="midnightblue" d="M1191.32,-192.841C1214.15,-181.425 1246.03,-165.485 1268.39,-154.303"/>
<polygon fill="midnightblue" stroke="midnightblue" points="1270.26,-157.285 1277.64,-149.682 1267.13,-151.024 1270.26,-157.285"/>
</g>
<!-- Node22&#45;&gt;Node27 -->
<g id="edge31" class="edge"><title>Node22&#45;&gt;Node27</title>
<path fill="none" stroke="midnightblue" d="M1129.11,-192.841C1101.16,-181.169 1061.9,-164.768 1035.06,-153.558"/>
<polygon fill="midnightblue" stroke="midnightblue" points="1036.36,-150.307 1025.78,-149.682 1033.66,-156.766 1036.36,-150.307"/>
</g>
<!-- Node28 -->
<g id="node28" class="node"><title>Node28</title>
<polygon fill="none" stroke="#bfbfbf" points="1361,-130.5 1361,-149.5 1447,-149.5 1447,-130.5 1361,-130.5"/>
<text text-anchor="middle" x="1404" y="-137.5" font-family="Helvetica,sans-Serif" font-size="10.00">TParticlePDG.h</text>
</g>
<!-- Node22&#45;&gt;Node28 -->
<g id="edge32" class="edge"><title>Node22&#45;&gt;Node28</title>
<path fill="none" stroke="midnightblue" d="M1215.31,-192.973C1253.05,-182.813 1305.21,-168.69 1351,-156 1355.32,-154.804 1359.83,-153.544 1364.31,-152.283"/>
<polygon fill="midnightblue" stroke="midnightblue" points="1365.35,-155.627 1374.02,-149.545 1363.45,-148.89 1365.35,-155.627"/>
</g>
<!-- Node29 -->
<g id="node29" class="node"><title>Node29</title>
<polygon fill="none" stroke="#bfbfbf" points="1465.5,-130.5 1465.5,-149.5 1548.5,-149.5 1548.5,-130.5 1465.5,-130.5"/>
<text text-anchor="middle" x="1507" y="-137.5" font-family="Helvetica,sans-Serif" font-size="10.00">TMCProcess.h</text>
</g>
<!-- Node22&#45;&gt;Node29 -->
<g id="edge33" class="edge"><title>Node22&#45;&gt;Node29</title>
<path fill="none" stroke="midnightblue" d="M1220.3,-194.65C1224.93,-193.727 1229.54,-192.832 1234,-192 1332.26,-173.664 1358.53,-178.145 1456,-156 1460.7,-154.932 1465.61,-153.674 1470.44,-152.35"/>
<polygon fill="midnightblue" stroke="midnightblue" points="1471.51,-155.685 1480.17,-149.576 1469.59,-148.953 1471.51,-155.685"/>
</g>
<!-- Node34 -->
<g id="node34" class="node"><title>Node34</title>
<g id="a_node34"><a xlink:href="../../dd/d76/Cartesian3D_8h.html" target="_top" xlink:title="MathUtils/Cartesian3D.h">
<polygon fill="none" stroke="black" points="2058.5,-198.5 2058.5,-217.5 2183.5,-217.5 2183.5,-198.5 2058.5,-198.5"/>
<text text-anchor="middle" x="2121" y="-205.5" font-family="Helvetica,sans-Serif" font-size="10.00">MathUtils/Cartesian3D.h</text>
</a>
</g>
</g>
<!-- Node33&#45;&gt;Node34 -->
<g id="edge45" class="edge"><title>Node33&#45;&gt;Node34</title>
<path fill="none" stroke="midnightblue" d="M1409.14,-261.459C1412.13,-260.925 1415.09,-260.433 1418,-260 1646.32,-225.972 1919.87,-214.401 2048.02,-210.667"/>
<polygon fill="midnightblue" stroke="midnightblue" points="2048.21,-214.163 2058.11,-210.381 2048.01,-207.166 2048.21,-214.163"/>
</g>
<!-- Node34&#45;&gt;Node6 -->
<g id="edge49" class="edge"><title>Node34&#45;&gt;Node6</title>
<path fill="none" stroke="midnightblue" d="M2058.36,-203.673C1958.41,-197.636 1767.8,-182.941 1706,-156 1685.76,-147.177 1688.46,-132.295 1668,-124 1542.1,-72.9585 1114.21,-71.7375 983.341,-72.6058"/>
<polygon fill="midnightblue" stroke="midnightblue" points="982.996,-69.1082 973.022,-72.6829 983.048,-76.108 982.996,-69.1082"/>
</g>
<!-- Node35 -->
<g id="node35" class="node"><title>Node35</title>
<polygon fill="none" stroke="#bfbfbf" points="2124.5,-130.5 2124.5,-149.5 2273.5,-149.5 2273.5,-130.5 2124.5,-130.5"/>
<text text-anchor="middle" x="2199" y="-137.5" font-family="Helvetica,sans-Serif" font-size="10.00">Math/GenVector/Rotation3D.h</text>
</g>
<!-- Node34&#45;&gt;Node35 -->
<g id="edge46" class="edge"><title>Node34&#45;&gt;Node35</title>
<path fill="none" stroke="midnightblue" d="M2131.2,-198.372C2143.74,-187.758 2165.26,-169.545 2180.7,-156.485"/>
<polygon fill="midnightblue" stroke="midnightblue" points="2183.18,-158.972 2188.55,-149.841 2178.66,-153.629 2183.18,-158.972"/>
</g>
<!-- Node36 -->
<g id="node36" class="node"><title>Node36</title>
<polygon fill="none" stroke="#bfbfbf" points="2292,-130.5 2292,-149.5 2448,-149.5 2448,-130.5 2292,-130.5"/>
<text text-anchor="middle" x="2370" y="-137.5" font-family="Helvetica,sans-Serif" font-size="10.00">Math/GenVector/Transform3D.h</text>
</g>
<!-- Node34&#45;&gt;Node36 -->
<g id="edge47" class="edge"><title>Node34&#45;&gt;Node36</title>
<path fill="none" stroke="midnightblue" d="M2153.3,-198.439C2197.99,-186.594 2278.73,-165.192 2328.04,-152.122"/>
<polygon fill="midnightblue" stroke="midnightblue" points="2328.99,-155.491 2337.76,-149.546 2327.2,-148.725 2328.99,-155.491"/>
</g>
<!-- Node37 -->
<g id="node37" class="node"><title>Node37</title>
<polygon fill="none" stroke="#bfbfbf" points="2466,-130.5 2466,-149.5 2626,-149.5 2626,-130.5 2466,-130.5"/>
<text text-anchor="middle" x="2546" y="-137.5" font-family="Helvetica,sans-Serif" font-size="10.00">Math/GenVector/Translation3D.h</text>
</g>
<!-- Node34&#45;&gt;Node37 -->
<g id="edge48" class="edge"><title>Node34&#45;&gt;Node37</title>
<path fill="none" stroke="midnightblue" d="M2179.02,-198.488C2246.03,-188.588 2359.56,-171.605 2457,-156 2466.42,-154.492 2476.39,-152.853 2486.11,-151.231"/>
<polygon fill="midnightblue" stroke="midnightblue" points="2486.84,-154.657 2496.13,-149.553 2485.69,-147.754 2486.84,-154.657"/>
</g>
<!-- Node38 -->
<g id="node38" class="node"><title>Node38</title>
<polygon fill="none" stroke="#bfbfbf" points="2644,-130.5 2644,-149.5 2720,-149.5 2720,-130.5 2644,-130.5"/>
<text text-anchor="middle" x="2682" y="-137.5" font-family="Helvetica,sans-Serif" font-size="10.00">TGeoMatrix.h</text>
</g>
<!-- Node34&#45;&gt;Node38 -->
<g id="edge50" class="edge"><title>Node34&#45;&gt;Node38</title>
<path fill="none" stroke="midnightblue" d="M2183.75,-205.014C2281.22,-200.981 2474.52,-189.186 2635,-156 2639.46,-155.077 2644.1,-153.891 2648.64,-152.59"/>
<polygon fill="midnightblue" stroke="midnightblue" points="2649.81,-155.892 2658.35,-149.616 2647.76,-149.199 2649.81,-155.892"/>
</g>
<!-- Node39 -->
<g id="node39" class="node"><title>Node39</title>
<polygon fill="none" stroke="#bfbfbf" points="2738.5,-125 2738.5,-155 2889.5,-155 2889.5,-125 2738.5,-125"/>
<text text-anchor="start" x="2746.5" y="-143" font-family="Helvetica,sans-Serif" font-size="10.00">Math/GenVector/Displacement</text>
<text text-anchor="middle" x="2814" y="-132" font-family="Helvetica,sans-Serif" font-size="10.00">Vector3D.h</text>
</g>
<!-- Node34&#45;&gt;Node39 -->
<g id="edge51" class="edge"><title>Node34&#45;&gt;Node39</title>
<path fill="none" stroke="midnightblue" d="M2183.78,-203.623C2292.53,-197.359 2523.14,-182.253 2728.01,-156.052"/>
<polygon fill="midnightblue" stroke="midnightblue" points="2728.58,-159.507 2738.05,-154.755 2727.69,-152.564 2728.58,-159.507"/>
</g>
<!-- Node40 -->
<g id="node40" class="node"><title>Node40</title>
<polygon fill="none" stroke="#bfbfbf" points="1715,-130.5 1715,-149.5 1891,-149.5 1891,-130.5 1715,-130.5"/>
<text text-anchor="middle" x="1803" y="-137.5" font-family="Helvetica,sans-Serif" font-size="10.00">Math/GenVector/PositionVector3D.h</text>
</g>
<!-- Node34&#45;&gt;Node40 -->
<g id="edge52" class="edge"><title>Node34&#45;&gt;Node40</title>
<path fill="none" stroke="midnightblue" d="M2079.75,-198.439C2021.97,-186.446 1916.97,-164.654 1854.24,-151.635"/>
<polygon fill="midnightblue" stroke="midnightblue" points="1854.68,-148.151 1844.17,-149.546 1853.25,-155.005 1854.68,-148.151"/>
</g>
<!-- Node41 -->
<g id="node41" class="node"><title>Node41</title>
<g id="a_node41"><a xlink:href="../../d2/dd0/Cartesian2D_8h.html" target="_top" xlink:title="MathUtils/Cartesian2D.h">
<polygon fill="none" stroke="black" points="1981.5,-130.5 1981.5,-149.5 2106.5,-149.5 2106.5,-130.5 1981.5,-130.5"/>
<text text-anchor="middle" x="2044" y="-137.5" font-family="Helvetica,sans-Serif" font-size="10.00">MathUtils/Cartesian2D.h</text>
</a>
</g>
</g>
<!-- Node34&#45;&gt;Node41 -->
<g id="edge53" class="edge"><title>Node34&#45;&gt;Node41</title>
<path fill="none" stroke="midnightblue" d="M2110.93,-198.372C2098.55,-187.758 2077.3,-169.545 2062.07,-156.485"/>
<polygon fill="midnightblue" stroke="midnightblue" points="2064.19,-153.692 2054.31,-149.841 2059.63,-159.006 2064.19,-153.692"/>
</g>
<!-- Node44 -->
<g id="node44" class="node"><title>Node44</title>
<polygon fill="none" stroke="#bfbfbf" points="1909,-130.5 1909,-149.5 1963,-149.5 1963,-130.5 1909,-130.5"/>
<text text-anchor="middle" x="1936" y="-137.5" font-family="Helvetica,sans-Serif" font-size="10.00">iostream</text>
</g>
<!-- Node34&#45;&gt;Node44 -->
<g id="edge56" class="edge"><title>Node34&#45;&gt;Node44</title>
<path fill="none" stroke="midnightblue" d="M2094.92,-198.48C2065.23,-188.675 2015.37,-171.877 1973,-156 1970.75,-155.159 1968.44,-154.271 1966.12,-153.364"/>
<polygon fill="midnightblue" stroke="midnightblue" points="1967.25,-150.049 1956.67,-149.605 1964.66,-156.554 1967.25,-150.049"/>
</g>
<!-- Node42 -->
<g id="node42" class="node"><title>Node42</title>
<polygon fill="none" stroke="#bfbfbf" points="1877.5,-57 1877.5,-87 2028.5,-87 2028.5,-57 1877.5,-57"/>
<text text-anchor="start" x="1885.5" y="-75" font-family="Helvetica,sans-Serif" font-size="10.00">Math/GenVector/Displacement</text>
<text text-anchor="middle" x="1953" y="-64" font-family="Helvetica,sans-Serif" font-size="10.00">Vector2D.h</text>
</g>
<!-- Node41&#45;&gt;Node42 -->
<g id="edge54" class="edge"><title>Node41&#45;&gt;Node42</title>
<path fill="none" stroke="midnightblue" d="M2032.1,-130.372C2019.22,-121.029 1998.22,-105.797 1981.09,-93.375"/>
<polygon fill="midnightblue" stroke="midnightblue" points="1982.7,-90.2194 1972.55,-87.1815 1978.59,-95.8859 1982.7,-90.2194"/>
</g>
<!-- Node43 -->
<g id="node43" class="node"><title>Node43</title>
<polygon fill="none" stroke="#bfbfbf" points="2047,-62.5 2047,-81.5 2223,-81.5 2223,-62.5 2047,-62.5"/>
<text text-anchor="middle" x="2135" y="-69.5" font-family="Helvetica,sans-Serif" font-size="10.00">Math/GenVector/PositionVector2D.h</text>
</g>
<!-- Node41&#45;&gt;Node43 -->
<g id="edge55" class="edge"><title>Node41&#45;&gt;Node43</title>
<path fill="none" stroke="midnightblue" d="M2055.9,-130.372C2070.88,-119.502 2096.86,-100.66 2114.94,-87.5474"/>
<polygon fill="midnightblue" stroke="midnightblue" points="2117.06,-90.3349 2123.1,-81.6305 2112.95,-84.6684 2117.06,-90.3349"/>
</g>
</g>
</svg>
