<?xml version="1.0" encoding="UTF-8" standalone="no"?>
<!DOCTYPE svg PUBLIC "-//W3C//DTD SVG 1.1//EN"
 "http://www.w3.org/Graphics/SVG/1.1/DTD/svg11.dtd">
<!-- Generated by graphviz version 2.36.0 (20140111.2315)
 -->
<!-- Title: /home/travis/build/AliceO2Group/AliceO2/Detectors/TPC/reconstruction/include/TPCReconstruction/TPCCATracking.h Pages: 1 -->
<svg width="315pt" height="196pt"
 viewBox="0.00 0.00 315.00 196.00" xmlns="http://www.w3.org/2000/svg" xmlns:xlink="http://www.w3.org/1999/xlink">
<g id="graph0" class="graph" transform="scale(1 1) rotate(0) translate(4 192)">
<title>/home/travis/build/AliceO2Group/AliceO2/Detectors/TPC/reconstruction/include/TPCReconstruction/TPCCATracking.h</title>
<!-- Node1 -->
<g id="node1" class="node"><title>Node1</title>
<polygon fill="#bfbfbf" stroke="black" points="17,-124.5 17,-187.5 167,-187.5 167,-124.5 17,-124.5"/>
<text text-anchor="start" x="25" y="-175.5" font-family="Helvetica,sans-Serif" font-size="10.00">/home/travis/build</text>
<text text-anchor="start" x="25" y="-164.5" font-family="Helvetica,sans-Serif" font-size="10.00">/AliceO2Group/AliceO2</text>
<text text-anchor="start" x="25" y="-153.5" font-family="Helvetica,sans-Serif" font-size="10.00">/Detectors/TPC/reconstruction</text>
<text text-anchor="start" x="25" y="-142.5" font-family="Helvetica,sans-Serif" font-size="10.00">/include/TPCReconstruction</text>
<text text-anchor="middle" x="92" y="-131.5" font-family="Helvetica,sans-Serif" font-size="10.00">/TPCCATracking.h</text>
</g>
<!-- Node2 -->
<g id="node2" class="node"><title>Node2</title>
<polygon fill="none" stroke="#bfbfbf" points="0,-68.5 0,-87.5 52,-87.5 52,-68.5 0,-68.5"/>
<text text-anchor="middle" x="26" y="-75.5" font-family="Helvetica,sans-Serif" font-size="10.00">memory</text>
</g>
<!-- Node1&#45;&gt;Node2 -->
<g id="edge1" class="edge"><title>Node1&#45;&gt;Node2</title>
<path fill="none" stroke="midnightblue" d="M65.1553,-124.088C56.5901,-114.225 47.4513,-103.701 40.1587,-95.3039"/>
<polygon fill="midnightblue" stroke="midnightblue" points="42.7706,-92.9736 33.571,-87.7182 37.4853,-97.5634 42.7706,-92.9736"/>
</g>
<!-- Node3 -->
<g id="node3" class="node"><title>Node3</title>
<polygon fill="none" stroke="#bfbfbf" points="70,-68.5 70,-87.5 114,-87.5 114,-68.5 70,-68.5"/>
<text text-anchor="middle" x="92" y="-75.5" font-family="Helvetica,sans-Serif" font-size="10.00">vector</text>
</g>
<!-- Node1&#45;&gt;Node3 -->
<g id="edge2" class="edge"><title>Node1&#45;&gt;Node3</title>
<path fill="none" stroke="midnightblue" d="M92,-124.088C92,-115.15 92,-105.669 92,-97.7195"/>
<polygon fill="midnightblue" stroke="midnightblue" points="95.5001,-97.7181 92,-87.7182 88.5001,-97.7182 95.5001,-97.7181"/>
</g>
<!-- Node4 -->
<g id="node4" class="node"><title>Node4</title>
<g id="a_node4"><a xlink:href="../../d6/d6f/TPC_2reconstruction_2include_2TPCReconstruction_2Cluster_8h.html" target="_top" xlink:title="TPCReconstruction/Cluster.h">
<polygon fill="none" stroke="black" points="132,-68.5 132,-87.5 278,-87.5 278,-68.5 132,-68.5"/>
<text text-anchor="middle" x="205" y="-75.5" font-family="Helvetica,sans-Serif" font-size="10.00">TPCReconstruction/Cluster.h</text>
</a>
</g>
</g>
<!-- Node1&#45;&gt;Node4 -->
<g id="edge3" class="edge"><title>Node1&#45;&gt;Node4</title>
<path fill="none" stroke="midnightblue" d="M137.636,-124.307C153.408,-113.699 170.355,-102.301 183.305,-93.5912"/>
<polygon fill="midnightblue" stroke="midnightblue" points="185.61,-96.259 191.955,-87.7738 181.704,-90.4505 185.61,-96.259"/>
</g>
<!-- Node5 -->
<g id="node5" class="node"><title>Node5</title>
<polygon fill="none" stroke="#bfbfbf" points="101.5,-1 101.5,-31 196.5,-31 196.5,-1 101.5,-1"/>
<text text-anchor="start" x="109.5" y="-19" font-family="Helvetica,sans-Serif" font-size="10.00">boost/serialization</text>
<text text-anchor="middle" x="149" y="-8" font-family="Helvetica,sans-Serif" font-size="10.00">/base_object.hpp</text>
</g>
<!-- Node4&#45;&gt;Node5 -->
<g id="edge4" class="edge"><title>Node4&#45;&gt;Node5</title>
<path fill="none" stroke="midnightblue" d="M196.977,-68.4035C189.747,-60.657 178.809,-48.9379 169.202,-38.6447"/>
<polygon fill="midnightblue" stroke="midnightblue" points="171.58,-36.0633 162.198,-31.1408 166.463,-40.8395 171.58,-36.0633"/>
</g>
<!-- Node6 -->
<g id="node6" class="node"><title>Node6</title>
<polygon fill="none" stroke="#bfbfbf" points="215,-6.5 215,-25.5 307,-25.5 307,-6.5 215,-6.5"/>
<text text-anchor="middle" x="261" y="-13.5" font-family="Helvetica,sans-Serif" font-size="10.00">FairTimeStamp.h</text>
</g>
<!-- Node4&#45;&gt;Node6 -->
<g id="edge5" class="edge"><title>Node4&#45;&gt;Node6</title>
<path fill="none" stroke="midnightblue" d="M213.023,-68.4035C221.59,-59.2252 235.361,-44.4699 245.957,-33.1173"/>
<polygon fill="midnightblue" stroke="midnightblue" points="248.727,-35.2793 252.991,-25.5806 243.61,-30.503 248.727,-35.2793"/>
</g>
</g>
</svg>
