<?xml version="1.0" encoding="UTF-8" standalone="no"?>
<!DOCTYPE svg PUBLIC "-//W3C//DTD SVG 1.1//EN"
 "http://www.w3.org/Graphics/SVG/1.1/DTD/svg11.dtd">
<!-- Generated by graphviz version 2.36.0 (20140111.2315)
 -->
<!-- Title: /home/travis/build/AliceO2Group/AliceO2/DataFormats/TPC/include/DataFormatsTPC/ClusterNative.h Pages: 1 -->
<svg width="440pt" height="352pt"
 viewBox="0.00 0.00 440.25 352.00" xmlns="http://www.w3.org/2000/svg" xmlns:xlink="http://www.w3.org/1999/xlink">
<g id="graph0" class="graph" transform="scale(1 1) rotate(0) translate(4 348)">
<title>/home/travis/build/AliceO2Group/AliceO2/DataFormats/TPC/include/DataFormatsTPC/ClusterNative.h</title>
<!-- Node1 -->
<g id="node1" class="node"><title>Node1</title>
<polygon fill="#bfbfbf" stroke="black" points="118.251,-291 118.251,-343 286.251,-343 286.251,-291 118.251,-291"/>
<text text-anchor="start" x="126.251" y="-331" font-family="Helvetica,sans-Serif" font-size="10.00">/home/travis/build</text>
<text text-anchor="start" x="126.251" y="-320" font-family="Helvetica,sans-Serif" font-size="10.00">/AliceO2Group/AliceO2</text>
<text text-anchor="start" x="126.251" y="-309" font-family="Helvetica,sans-Serif" font-size="10.00">/DataFormats/TPC/include</text>
<text text-anchor="middle" x="202.251" y="-298" font-family="Helvetica,sans-Serif" font-size="10.00">/DataFormatsTPC/ClusterNative.h</text>
</g>
<!-- Node2 -->
<g id="node2" class="node"><title>Node2</title>
<g id="a_node2"><a xlink:href="../../db/d19/DigitalCurrentClusterIntegrator_8h.html" target="_top" xlink:title="/home/travis/build\l/AliceO2Group/AliceO2\l/Detectors/TPC/reconstruction\l/include/TPCReconstruction\l/DigitalCurrentClusterIntegrator.h">
<polygon fill="none" stroke="black" points="121.751,-190.5 121.751,-253.5 282.751,-253.5 282.751,-190.5 121.751,-190.5"/>
<text text-anchor="start" x="129.751" y="-241.5" font-family="Helvetica,sans-Serif" font-size="10.00">/home/travis/build</text>
<text text-anchor="start" x="129.751" y="-230.5" font-family="Helvetica,sans-Serif" font-size="10.00">/AliceO2Group/AliceO2</text>
<text text-anchor="start" x="129.751" y="-219.5" font-family="Helvetica,sans-Serif" font-size="10.00">/Detectors/TPC/reconstruction</text>
<text text-anchor="start" x="129.751" y="-208.5" font-family="Helvetica,sans-Serif" font-size="10.00">/include/TPCReconstruction</text>
<text text-anchor="middle" x="202.251" y="-197.5" font-family="Helvetica,sans-Serif" font-size="10.00">/DigitalCurrentClusterIntegrator.h</text>
</a>
</g>
</g>
<!-- Node1&#45;&gt;Node2 -->
<g id="edge1" class="edge"><title>Node1&#45;&gt;Node2</title>
<path fill="none" stroke="midnightblue" d="M202.251,-280.541C202.251,-271.691 202.251,-262.274 202.251,-253.677"/>
<polygon fill="midnightblue" stroke="midnightblue" points="198.751,-280.587 202.251,-290.587 205.751,-280.587 198.751,-280.587"/>
</g>
<!-- Node4 -->
<g id="node4" class="node"><title>Node4</title>
<g id="a_node4"><a xlink:href="../../dc/d80/runHardwareClusterDecoder_8C.html" target="_top" xlink:title="/home/travis/build\l/AliceO2Group/AliceO2\l/Detectors/TPC/reconstruction\l/macro/runHardwareClusterDecoder.C">
<polygon fill="none" stroke="black" points="7.25052,-1 7.25052,-53 191.251,-53 191.251,-1 7.25052,-1"/>
<text text-anchor="start" x="15.2505" y="-41" font-family="Helvetica,sans-Serif" font-size="10.00">/home/travis/build</text>
<text text-anchor="start" x="15.2505" y="-30" font-family="Helvetica,sans-Serif" font-size="10.00">/AliceO2Group/AliceO2</text>
<text text-anchor="start" x="15.2505" y="-19" font-family="Helvetica,sans-Serif" font-size="10.00">/Detectors/TPC/reconstruction</text>
<text text-anchor="middle" x="99.2505" y="-8" font-family="Helvetica,sans-Serif" font-size="10.00">/macro/runHardwareClusterDecoder.C</text>
</a>
</g>
</g>
<!-- Node1&#45;&gt;Node4 -->
<g id="edge6" class="edge"><title>Node1&#45;&gt;Node4</title>
<path fill="none" stroke="midnightblue" d="M142.058,-285.908C95.3894,-258.721 34.5423,-213.806 9.25052,-154 -1.82857,-127.802 -3.97989,-115.18 9.25052,-90 17.2815,-74.7153 30.9752,-62.4629 45.291,-53.0184"/>
<polygon fill="midnightblue" stroke="midnightblue" points="140.47,-289.031 150.891,-290.943 143.936,-282.95 140.47,-289.031"/>
</g>
<!-- Node5 -->
<g id="node5" class="node"><title>Node5</title>
<g id="a_node5"><a xlink:href="../../d4/d7c/HardwareClusterDecoder_8cxx.html" target="_top" xlink:title="/home/travis/build\l/AliceO2Group/AliceO2\l/Detectors/TPC/reconstruction\l/src/HardwareClusterDecoder.cxx">
<polygon fill="none" stroke="black" points="267.751,-1 267.751,-53 432.751,-53 432.751,-1 267.751,-1"/>
<text text-anchor="start" x="275.751" y="-41" font-family="Helvetica,sans-Serif" font-size="10.00">/home/travis/build</text>
<text text-anchor="start" x="275.751" y="-30" font-family="Helvetica,sans-Serif" font-size="10.00">/AliceO2Group/AliceO2</text>
<text text-anchor="start" x="275.751" y="-19" font-family="Helvetica,sans-Serif" font-size="10.00">/Detectors/TPC/reconstruction</text>
<text text-anchor="middle" x="350.251" y="-8" font-family="Helvetica,sans-Serif" font-size="10.00">/src/HardwareClusterDecoder.cxx</text>
</a>
</g>
</g>
<!-- Node1&#45;&gt;Node5 -->
<g id="edge7" class="edge"><title>Node1&#45;&gt;Node5</title>
<path fill="none" stroke="midnightblue" d="M257.985,-285.669C301.97,-258.04 359.566,-212.632 382.251,-154 392.514,-127.472 388.963,-117.641 382.251,-90 379.135,-77.1697 372.871,-64.0252 366.705,-53.1602"/>
<polygon fill="midnightblue" stroke="midnightblue" points="256.07,-282.738 249.384,-290.957 259.736,-288.701 256.07,-282.738"/>
</g>
<!-- Node3 -->
<g id="node3" class="node"><title>Node3</title>
<g id="a_node3"><a xlink:href="../../d2/d41/HardwareClusterDecoder_8h.html" target="_top" xlink:title="/home/travis/build\l/AliceO2Group/AliceO2\l/Detectors/TPC/reconstruction\l/include/TPCReconstruction\l/HardwareClusterDecoder.h">
<polygon fill="none" stroke="black" points="224.251,-90.5 224.251,-153.5 374.251,-153.5 374.251,-90.5 224.251,-90.5"/>
<text text-anchor="start" x="232.251" y="-141.5" font-family="Helvetica,sans-Serif" font-size="10.00">/home/travis/build</text>
<text text-anchor="start" x="232.251" y="-130.5" font-family="Helvetica,sans-Serif" font-size="10.00">/AliceO2Group/AliceO2</text>
<text text-anchor="start" x="232.251" y="-119.5" font-family="Helvetica,sans-Serif" font-size="10.00">/Detectors/TPC/reconstruction</text>
<text text-anchor="start" x="232.251" y="-108.5" font-family="Helvetica,sans-Serif" font-size="10.00">/include/TPCReconstruction</text>
<text text-anchor="middle" x="299.251" y="-97.5" font-family="Helvetica,sans-Serif" font-size="10.00">/HardwareClusterDecoder.h</text>
</a>
</g>
</g>
<!-- Node2&#45;&gt;Node3 -->
<g id="edge2" class="edge"><title>Node2&#45;&gt;Node3</title>
<path fill="none" stroke="midnightblue" d="M239.889,-182.974C249.51,-173.253 259.732,-162.926 268.933,-153.63"/>
<polygon fill="midnightblue" stroke="midnightblue" points="237.223,-180.692 232.676,-190.261 242.198,-185.616 237.223,-180.692"/>
</g>
<!-- Node6 -->
<g id="node6" class="node"><title>Node6</title>
<g id="a_node6"><a xlink:href="../../d1/d81/DigitalCurrentClusterIntegrator_8cxx.html" target="_top" xlink:title="/home/travis/build\l/AliceO2Group/AliceO2\l/Detectors/TPC/reconstruction\l/src/DigitalCurrentClusterIntegrator.cxx">
<polygon fill="none" stroke="black" points="18.2505,-96 18.2505,-148 206.251,-148 206.251,-96 18.2505,-96"/>
<text text-anchor="start" x="26.2505" y="-136" font-family="Helvetica,sans-Serif" font-size="10.00">/home/travis/build</text>
<text text-anchor="start" x="26.2505" y="-125" font-family="Helvetica,sans-Serif" font-size="10.00">/AliceO2Group/AliceO2</text>
<text text-anchor="start" x="26.2505" y="-114" font-family="Helvetica,sans-Serif" font-size="10.00">/Detectors/TPC/reconstruction</text>
<text text-anchor="middle" x="112.251" y="-103" font-family="Helvetica,sans-Serif" font-size="10.00">/src/DigitalCurrentClusterIntegrator.cxx</text>
</a>
</g>
</g>
<!-- Node2&#45;&gt;Node6 -->
<g id="edge5" class="edge"><title>Node2&#45;&gt;Node6</title>
<path fill="none" stroke="midnightblue" d="M167.129,-182.756C156.428,-171.104 144.942,-158.598 135.259,-148.054"/>
<polygon fill="midnightblue" stroke="midnightblue" points="164.679,-185.263 174.021,-190.261 169.835,-180.528 164.679,-185.263"/>
</g>
<!-- Node3&#45;&gt;Node4 -->
<g id="edge3" class="edge"><title>Node3&#45;&gt;Node4</title>
<path fill="none" stroke="midnightblue" d="M224.188,-86.0959C200.542,-75.1006 174.909,-63.1813 153.051,-53.0171"/>
<polygon fill="midnightblue" stroke="midnightblue" points="222.943,-89.3767 233.486,-90.4195 225.894,-83.0293 222.943,-89.3767"/>
</g>
<!-- Node3&#45;&gt;Node5 -->
<g id="edge4" class="edge"><title>Node3&#45;&gt;Node5</title>
<path fill="none" stroke="midnightblue" d="M321.023,-81.2973C326.267,-71.7353 331.725,-61.7814 336.486,-53.1001"/>
<polygon fill="midnightblue" stroke="midnightblue" points="317.831,-79.8395 316.091,-90.2906 323.968,-83.2054 317.831,-79.8395"/>
</g>
</g>
</svg>
