<?xml version="1.0" encoding="UTF-8" standalone="no"?>
<!DOCTYPE svg PUBLIC "-//W3C//DTD SVG 1.1//EN"
 "http://www.w3.org/Graphics/SVG/1.1/DTD/svg11.dtd">
<!-- Generated by graphviz version 2.36.0 (20140111.2315)
 -->
<!-- Title: /home/travis/build/AliceO2Group/AliceO2/Common/Field/include/Field/MagneticWrapperChebyshev.h Pages: 1 -->
<!--zoomable 320 -->
<svg id="main" version="1.1" xmlns="http://www.w3.org/2000/svg" xmlns:xlink="http://www.w3.org/1999/xlink" xml:space="preserve" onload="init(evt)">
<style type="text/css"><![CDATA[
.edge:hover path { stroke: red; }
.edge:hover polygon { stroke: red; fill: red; }
]]></style>
<script type="text/javascript"><![CDATA[
var edges = document.getElementsByTagName('g');
if (edges && edges.length) {
  for (var i=0;i<edges.length;i++) {
    if (edges[i].id.substr(0,4)=='edge') {
      edges[i].setAttribute('class','edge');
    }
  }
}
]]></script>
        <defs>
                <circle id="rim" cx="0" cy="0" r="7"/>
                <circle id="rim2" cx="0" cy="0" r="3.5"/>
                <g id="zoomPlus">
                        <use xlink:href="#rim" fill="#404040">
                                <set attributeName="fill" to="#808080" begin="zoomplus.mouseover" end="zoomplus.mouseout"/>
                        </use>
                        <path d="M-4,0h8M0,-4v8" fill="none" stroke="white" stroke-width="1.5" pointer-events="none"/>
                </g>
                <g id="zoomMin">
                        <use xlink:href="#rim" fill="#404040">
                                <set attributeName="fill" to="#808080" begin="zoomminus.mouseover" end="zoomminus.mouseout"/>
                        </use>
                        <path d="M-4,0h8" fill="none" stroke="white" stroke-width="1.5" pointer-events="none"/>
                </g>
                <g id="dirArrow">
                        <path fill="none" stroke="white" stroke-width="1.5" d="M0,-3.0v7 M-2.5,-0.5L0,-3.0L2.5,-0.5"/>
                </g>
               <g id="resetDef">
                       <use xlink:href="#rim2" fill="#404040">
                               <set attributeName="fill" to="#808080" begin="reset.mouseover" end="reset.mouseout"/>
                       </use>
               </g>
        </defs>

<script type="text/javascript">
var viewWidth = 3050;
var viewHeight = 320;
var sectionId = 'dynsection-1';
</script>
<script xlink:href="../../svgpan.js"/>
<svg id="graph" class="graph">
<g id="viewport">
<title>/home/travis/build/AliceO2Group/AliceO2/Common/Field/include/Field/MagneticWrapperChebyshev.h</title>
<!-- Node1 -->
<g id="node1" class="node"><title>Node1</title>
<polygon fill="#bfbfbf" stroke="black" points="1610,-259 1610,-311 1788,-311 1788,-259 1610,-259"/>
<text text-anchor="start" x="1618" y="-299" font-family="Helvetica,sans-Serif" font-size="10.00">/home/travis/build</text>
<text text-anchor="start" x="1618" y="-288" font-family="Helvetica,sans-Serif" font-size="10.00">/AliceO2Group/AliceO2</text>
<text text-anchor="start" x="1618" y="-277" font-family="Helvetica,sans-Serif" font-size="10.00">/Common/Field/include</text>
<text text-anchor="middle" x="1699" y="-266" font-family="Helvetica,sans-Serif" font-size="10.00">/Field/MagneticWrapperChebyshev.h</text>
</g>
<!-- Node2 -->
<g id="node2" class="node"><title>Node2</title>
<g id="a_node2"><a xlink:href="../../db/d4b/MagneticField_8h.html" target="_top" xlink:title="Definition of the MagF class. ">
<polygon fill="none" stroke="black" points="1557,-169 1557,-221 1675,-221 1675,-169 1557,-169"/>
<text text-anchor="start" x="1565" y="-209" font-family="Helvetica,sans-Serif" font-size="10.00">/home/travis/build</text>
<text text-anchor="start" x="1565" y="-198" font-family="Helvetica,sans-Serif" font-size="10.00">/AliceO2Group/AliceO2</text>
<text text-anchor="start" x="1565" y="-187" font-family="Helvetica,sans-Serif" font-size="10.00">/Common/Field/include</text>
<text text-anchor="middle" x="1616" y="-176" font-family="Helvetica,sans-Serif" font-size="10.00">/Field/MagneticField.h</text>
</a>
</g>
</g>
<!-- Node1&#45;&gt;Node2 -->
<g id="edge1" class="edge"><title>Node1&#45;&gt;Node2</title>
<path fill="none" stroke="midnightblue" d="M1668.01,-251.139C1658.63,-241.196 1648.48,-230.441 1639.67,-221.092"/>
<polygon fill="midnightblue" stroke="midnightblue" points="1665.59,-253.674 1674.99,-258.547 1670.68,-248.871 1665.59,-253.674"/>
</g>
<!-- Node24 -->
<g id="node24" class="node"><title>Node24</title>
<g id="a_node24"><a xlink:href="../../de/d97/MagneticWrapperChebyshev_8cxx.html" target="_top" xlink:title="/home/travis/build\l/AliceO2Group/AliceO2\l/Common/Field/src/MagneticWrapper\lChebyshev.cxx">
<polygon fill="none" stroke="black" points="1693.5,-169 1693.5,-221 1872.5,-221 1872.5,-169 1693.5,-169"/>
<text text-anchor="start" x="1701.5" y="-209" font-family="Helvetica,sans-Serif" font-size="10.00">/home/travis/build</text>
<text text-anchor="start" x="1701.5" y="-198" font-family="Helvetica,sans-Serif" font-size="10.00">/AliceO2Group/AliceO2</text>
<text text-anchor="start" x="1701.5" y="-187" font-family="Helvetica,sans-Serif" font-size="10.00">/Common/Field/src/MagneticWrapper</text>
<text text-anchor="middle" x="1783" y="-176" font-family="Helvetica,sans-Serif" font-size="10.00">Chebyshev.cxx</text>
</a>
</g>
</g>
<!-- Node1&#45;&gt;Node24 -->
<g id="edge25" class="edge"><title>Node1&#45;&gt;Node24</title>
<path fill="none" stroke="midnightblue" d="M1730.37,-251.139C1739.86,-241.196 1750.12,-230.441 1759.05,-221.092"/>
<polygon fill="midnightblue" stroke="midnightblue" points="1727.67,-248.896 1723.3,-258.547 1732.73,-253.73 1727.67,-248.896"/>
</g>
<!-- Node3 -->
<g id="node3" class="node"><title>Node3</title>
<g id="a_node3"><a xlink:href="../../da/d34/MagFieldFact_8h.html" target="_top" xlink:title="Definition of the MagFieldFact: factory for ALIDE mag. field from MagFieldParam. ">
<polygon fill="none" stroke="black" points="0,-79 0,-131 118,-131 118,-79 0,-79"/>
<text text-anchor="start" x="8" y="-119" font-family="Helvetica,sans-Serif" font-size="10.00">/home/travis/build</text>
<text text-anchor="start" x="8" y="-108" font-family="Helvetica,sans-Serif" font-size="10.00">/AliceO2Group/AliceO2</text>
<text text-anchor="start" x="8" y="-97" font-family="Helvetica,sans-Serif" font-size="10.00">/Common/Field/include</text>
<text text-anchor="middle" x="59" y="-86" font-family="Helvetica,sans-Serif" font-size="10.00">/Field/MagFieldFact.h</text>
</a>
</g>
</g>
<!-- Node2&#45;&gt;Node3 -->
<g id="edge2" class="edge"><title>Node2&#45;&gt;Node3</title>
<path fill="none" stroke="midnightblue" d="M1546.64,-193.855C1291.87,-192.894 408.194,-185.678 132,-132 127.51,-131.127 122.925,-130.028 118.349,-128.777"/>
<polygon fill="midnightblue" stroke="midnightblue" points="1546.86,-197.355 1556.87,-193.891 1546.88,-190.356 1546.86,-197.355"/>
</g>
<!-- Node4 -->
<g id="node4" class="node"><title>Node4</title>
<g id="a_node4"><a xlink:href="../../d0/dec/MagFieldFact_8cxx.html" target="_top" xlink:title="/home/travis/build\l/AliceO2Group/AliceO2\l/Common/Field/src/MagFieldFact.cxx">
<polygon fill="none" stroke="black" points="11.5,-0.5 11.5,-41.5 192.5,-41.5 192.5,-0.5 11.5,-0.5"/>
<text text-anchor="start" x="19.5" y="-29.5" font-family="Helvetica,sans-Serif" font-size="10.00">/home/travis/build</text>
<text text-anchor="start" x="19.5" y="-18.5" font-family="Helvetica,sans-Serif" font-size="10.00">/AliceO2Group/AliceO2</text>
<text text-anchor="middle" x="102" y="-7.5" font-family="Helvetica,sans-Serif" font-size="10.00">/Common/Field/src/MagFieldFact.cxx</text>
</a>
</g>
</g>
<!-- Node2&#45;&gt;Node4 -->
<g id="edge4" class="edge"><title>Node2&#45;&gt;Node4</title>
<path fill="none" stroke="midnightblue" d="M1546.87,-192.896C1266.29,-188.177 224.606,-168.274 165,-132 147.892,-121.589 123.267,-70.3835 110.461,-41.6504"/>
<polygon fill="midnightblue" stroke="midnightblue" points="1546.87,-196.396 1556.92,-193.064 1546.98,-189.397 1546.87,-196.396"/>
</g>
<!-- Node5 -->
<g id="node5" class="node"><title>Node5</title>
<g id="a_node5"><a xlink:href="../../df/d54/MagFieldParam_8cxx.html" target="_top" xlink:title="Implementation of the MagFieldParam class. ">
<polygon fill="none" stroke="black" points="174,-84.5 174,-125.5 364,-125.5 364,-84.5 174,-84.5"/>
<text text-anchor="start" x="182" y="-113.5" font-family="Helvetica,sans-Serif" font-size="10.00">/home/travis/build</text>
<text text-anchor="start" x="182" y="-102.5" font-family="Helvetica,sans-Serif" font-size="10.00">/AliceO2Group/AliceO2</text>
<text text-anchor="middle" x="269" y="-91.5" font-family="Helvetica,sans-Serif" font-size="10.00">/Common/Field/src/MagFieldParam.cxx</text>
</a>
</g>
</g>
<!-- Node2&#45;&gt;Node5 -->
<g id="edge5" class="edge"><title>Node2&#45;&gt;Node5</title>
<path fill="none" stroke="midnightblue" d="M1546.91,-192.33C1320.49,-186.578 602.301,-166.048 373,-132 361.954,-130.36 350.373,-128.06 339.115,-125.501"/>
<polygon fill="midnightblue" stroke="midnightblue" points="1546.91,-195.831 1557,-192.585 1547.09,-188.833 1546.91,-195.831"/>
</g>
<!-- Node6 -->
<g id="node6" class="node"><title>Node6</title>
<g id="a_node6"><a xlink:href="../../d2/d78/MagneticField_8cxx.html" target="_top" xlink:title="/home/travis/build\l/AliceO2Group/AliceO2\l/Common/Field/src/MagneticField.cxx">
<polygon fill="none" stroke="black" points="382,-84.5 382,-125.5 564,-125.5 564,-84.5 382,-84.5"/>
<text text-anchor="start" x="390" y="-113.5" font-family="Helvetica,sans-Serif" font-size="10.00">/home/travis/build</text>
<text text-anchor="start" x="390" y="-102.5" font-family="Helvetica,sans-Serif" font-size="10.00">/AliceO2Group/AliceO2</text>
<text text-anchor="middle" x="473" y="-91.5" font-family="Helvetica,sans-Serif" font-size="10.00">/Common/Field/src/MagneticField.cxx</text>
</a>
</g>
</g>
<!-- Node2&#45;&gt;Node6 -->
<g id="edge6" class="edge"><title>Node2&#45;&gt;Node6</title>
<path fill="none" stroke="midnightblue" d="M1546.56,-194.526C1378.37,-194.793 936.273,-189.459 573,-132 562.546,-130.347 551.6,-128.074 540.942,-125.556"/>
<polygon fill="midnightblue" stroke="midnightblue" points="1546.76,-198.026 1556.76,-194.503 1546.75,-191.026 1546.76,-198.026"/>
</g>
<!-- Node7 -->
<g id="node7" class="node"><title>Node7</title>
<g id="a_node7"><a xlink:href="../../d6/dda/testMagneticField_8cxx.html" target="_top" xlink:title="/home/travis/build\l/AliceO2Group/AliceO2\l/Common/Field/test/testMagnetic\lField.cxx">
<polygon fill="none" stroke="black" points="582,-79 582,-131 744,-131 744,-79 582,-79"/>
<text text-anchor="start" x="590" y="-119" font-family="Helvetica,sans-Serif" font-size="10.00">/home/travis/build</text>
<text text-anchor="start" x="590" y="-108" font-family="Helvetica,sans-Serif" font-size="10.00">/AliceO2Group/AliceO2</text>
<text text-anchor="start" x="590" y="-97" font-family="Helvetica,sans-Serif" font-size="10.00">/Common/Field/test/testMagnetic</text>
<text text-anchor="middle" x="663" y="-86" font-family="Helvetica,sans-Serif" font-size="10.00">Field.cxx</text>
</a>
</g>
</g>
<!-- Node2&#45;&gt;Node7 -->
<g id="edge7" class="edge"><title>Node2&#45;&gt;Node7</title>
<path fill="none" stroke="midnightblue" d="M1546.63,-193.922C1399.29,-192.685 1044.72,-184.022 753,-132 750.118,-131.486 747.196,-130.916 744.255,-130.3"/>
<polygon fill="midnightblue" stroke="midnightblue" points="1546.85,-197.423 1556.88,-193.999 1546.9,-190.424 1546.85,-197.423"/>
</g>
<!-- Node8 -->
<g id="node8" class="node"><title>Node8</title>
<g id="a_node8"><a xlink:href="../../d3/dee/Base_2src_2Detector_8cxx.html" target="_top" xlink:title="/home/travis/build\l/AliceO2Group/AliceO2\l/Detectors/Base/src/Detector.cxx">
<polygon fill="none" stroke="black" points="762,-84.5 762,-125.5 926,-125.5 926,-84.5 762,-84.5"/>
<text text-anchor="start" x="770" y="-113.5" font-family="Helvetica,sans-Serif" font-size="10.00">/home/travis/build</text>
<text text-anchor="start" x="770" y="-102.5" font-family="Helvetica,sans-Serif" font-size="10.00">/AliceO2Group/AliceO2</text>
<text text-anchor="middle" x="844" y="-91.5" font-family="Helvetica,sans-Serif" font-size="10.00">/Detectors/Base/src/Detector.cxx</text>
</a>
</g>
</g>
<!-- Node2&#45;&gt;Node8 -->
<g id="edge8" class="edge"><title>Node2&#45;&gt;Node8</title>
<path fill="none" stroke="midnightblue" d="M1546.64,-191.974C1422.83,-187.409 1156.06,-173.266 935,-132 925.793,-130.281 916.175,-128.039 906.785,-125.592"/>
<polygon fill="midnightblue" stroke="midnightblue" points="1546.62,-195.476 1556.74,-192.337 1546.87,-188.48 1546.62,-195.476"/>
</g>
<!-- Node9 -->
<g id="node9" class="node"><title>Node9</title>
<g id="a_node9"><a xlink:href="../../d3/d85/Detectors_2EMCAL_2testsimulation_2run__sim__emcal_8C.html" target="_top" xlink:title="/home/travis/build\l/AliceO2Group/AliceO2\l/Detectors/EMCAL/testsimulation\l/run_sim_emcal.C">
<polygon fill="none" stroke="black" points="944,-79 944,-131 1108,-131 1108,-79 944,-79"/>
<text text-anchor="start" x="952" y="-119" font-family="Helvetica,sans-Serif" font-size="10.00">/home/travis/build</text>
<text text-anchor="start" x="952" y="-108" font-family="Helvetica,sans-Serif" font-size="10.00">/AliceO2Group/AliceO2</text>
<text text-anchor="start" x="952" y="-97" font-family="Helvetica,sans-Serif" font-size="10.00">/Detectors/EMCAL/testsimulation</text>
<text text-anchor="middle" x="1026" y="-86" font-family="Helvetica,sans-Serif" font-size="10.00">/run_sim_emcal.C</text>
</a>
</g>
</g>
<!-- Node2&#45;&gt;Node9 -->
<g id="edge9" class="edge"><title>Node2&#45;&gt;Node9</title>
<path fill="none" stroke="midnightblue" d="M1546.5,-188.782C1449.58,-180.733 1268.66,-162.893 1117,-132 1114.1,-131.41 1111.16,-130.774 1108.2,-130.102"/>
<polygon fill="midnightblue" stroke="midnightblue" points="1546.5,-192.294 1556.76,-189.623 1547.08,-185.318 1546.5,-192.294"/>
</g>
<!-- Node10 -->
<g id="node10" class="node"><title>Node10</title>
<g id="a_node10"><a xlink:href="../../d7/dca/CookedTracker_8cxx.html" target="_top" xlink:title="Implementation of the &quot;Cooked Matrix&quot; ITS tracker. ">
<polygon fill="none" stroke="black" points="1126,-79 1126,-131 1312,-131 1312,-79 1126,-79"/>
<text text-anchor="start" x="1134" y="-119" font-family="Helvetica,sans-Serif" font-size="10.00">/home/travis/build</text>
<text text-anchor="start" x="1134" y="-108" font-family="Helvetica,sans-Serif" font-size="10.00">/AliceO2Group/AliceO2</text>
<text text-anchor="start" x="1134" y="-97" font-family="Helvetica,sans-Serif" font-size="10.00">/Detectors/ITSMFT/ITS</text>
<text text-anchor="middle" x="1219" y="-86" font-family="Helvetica,sans-Serif" font-size="10.00">/reconstruction/src/CookedTracker.cxx</text>
</a>
</g>
</g>
<!-- Node2&#45;&gt;Node10 -->
<g id="edge10" class="edge"><title>Node2&#45;&gt;Node10</title>
<path fill="none" stroke="midnightblue" d="M1546.73,-180.416C1486.61,-168.408 1397.34,-150.044 1320,-132 1317.44,-131.403 1314.85,-130.791 1312.24,-130.167"/>
<polygon fill="midnightblue" stroke="midnightblue" points="1546.37,-183.914 1556.86,-182.435 1547.73,-177.049 1546.37,-183.914"/>
</g>
<!-- Node11 -->
<g id="node11" class="node"><title>Node11</title>
<g id="a_node11"><a xlink:href="../../dd/d56/run__simu_8C.html" target="_top" xlink:title="/home/travis/build\l/AliceO2Group/AliceO2\l/Detectors/ITSMFT/MFT\l/macros/run_simu.C">
<polygon fill="none" stroke="black" points="1329.5,-79 1329.5,-131 1454.5,-131 1454.5,-79 1329.5,-79"/>
<text text-anchor="start" x="1337.5" y="-119" font-family="Helvetica,sans-Serif" font-size="10.00">/home/travis/build</text>
<text text-anchor="start" x="1337.5" y="-108" font-family="Helvetica,sans-Serif" font-size="10.00">/AliceO2Group/AliceO2</text>
<text text-anchor="start" x="1337.5" y="-97" font-family="Helvetica,sans-Serif" font-size="10.00">/Detectors/ITSMFT/MFT</text>
<text text-anchor="middle" x="1392" y="-86" font-family="Helvetica,sans-Serif" font-size="10.00">/macros/run_simu.C</text>
</a>
</g>
</g>
<!-- Node2&#45;&gt;Node11 -->
<g id="edge11" class="edge"><title>Node2&#45;&gt;Node11</title>
<path fill="none" stroke="midnightblue" d="M1547.43,-167.063C1517.86,-155.443 1483.5,-141.945 1454.62,-130.6"/>
<polygon fill="midnightblue" stroke="midnightblue" points="1546.27,-170.365 1556.85,-170.764 1548.83,-163.85 1546.27,-170.365"/>
</g>
<!-- Node12 -->
<g id="node12" class="node"><title>Node12</title>
<g id="a_node12"><a xlink:href="../../d0/d6b/ITSMFT_2MFT_2simulation_2src_2Detector_8cxx.html" target="_top" xlink:title="/home/travis/build\l/AliceO2Group/AliceO2\l/Detectors/ITSMFT/MFT\l/simulation/src/Detector.cxx">
<polygon fill="none" stroke="black" points="1473,-79 1473,-131 1613,-131 1613,-79 1473,-79"/>
<text text-anchor="start" x="1481" y="-119" font-family="Helvetica,sans-Serif" font-size="10.00">/home/travis/build</text>
<text text-anchor="start" x="1481" y="-108" font-family="Helvetica,sans-Serif" font-size="10.00">/AliceO2Group/AliceO2</text>
<text text-anchor="start" x="1481" y="-97" font-family="Helvetica,sans-Serif" font-size="10.00">/Detectors/ITSMFT/MFT</text>
<text text-anchor="middle" x="1543" y="-86" font-family="Helvetica,sans-Serif" font-size="10.00">/simulation/src/Detector.cxx</text>
</a>
</g>
</g>
<!-- Node2&#45;&gt;Node12 -->
<g id="edge12" class="edge"><title>Node2&#45;&gt;Node12</title>
<path fill="none" stroke="midnightblue" d="M1588.5,-160.846C1580.32,-150.985 1571.49,-140.349 1563.82,-131.092"/>
<polygon fill="midnightblue" stroke="midnightblue" points="1585.81,-163.085 1594.89,-168.547 1591.19,-158.616 1585.81,-163.085"/>
</g>
<!-- Node13 -->
<g id="node13" class="node"><title>Node13</title>
<g id="a_node13"><a xlink:href="../../de/da5/FrameStructure_8cxx.html" target="_top" xlink:title="/home/travis/build\l/AliceO2Group/AliceO2\l/Detectors/Passive/src\l/FrameStructure.cxx">
<polygon fill="none" stroke="black" points="1631,-79 1631,-131 1749,-131 1749,-79 1631,-79"/>
<text text-anchor="start" x="1639" y="-119" font-family="Helvetica,sans-Serif" font-size="10.00">/home/travis/build</text>
<text text-anchor="start" x="1639" y="-108" font-family="Helvetica,sans-Serif" font-size="10.00">/AliceO2Group/AliceO2</text>
<text text-anchor="start" x="1639" y="-97" font-family="Helvetica,sans-Serif" font-size="10.00">/Detectors/Passive/src</text>
<text text-anchor="middle" x="1690" y="-86" font-family="Helvetica,sans-Serif" font-size="10.00">/FrameStructure.cxx</text>
</a>
</g>
</g>
<!-- Node2&#45;&gt;Node13 -->
<g id="edge13" class="edge"><title>Node2&#45;&gt;Node13</title>
<path fill="none" stroke="midnightblue" d="M1643.88,-160.846C1652.17,-150.985 1661.12,-140.349 1668.9,-131.092"/>
<polygon fill="midnightblue" stroke="midnightblue" points="1641.16,-158.64 1637.4,-168.547 1646.52,-163.146 1641.16,-158.64"/>
</g>
<!-- Node14 -->
<g id="node14" class="node"><title>Node14</title>
<g id="a_node14"><a xlink:href="../../dd/d2b/o2__sim__its__ALP3_8cxx.html" target="_top" xlink:title="/home/travis/build\l/AliceO2Group/AliceO2\l/Framework/TestWorkflows\l/src/o2_sim_its_ALP3.cxx">
<polygon fill="none" stroke="black" points="1767.5,-79 1767.5,-131 1904.5,-131 1904.5,-79 1767.5,-79"/>
<text text-anchor="start" x="1775.5" y="-119" font-family="Helvetica,sans-Serif" font-size="10.00">/home/travis/build</text>
<text text-anchor="start" x="1775.5" y="-108" font-family="Helvetica,sans-Serif" font-size="10.00">/AliceO2Group/AliceO2</text>
<text text-anchor="start" x="1775.5" y="-97" font-family="Helvetica,sans-Serif" font-size="10.00">/Framework/TestWorkflows</text>
<text text-anchor="middle" x="1836" y="-86" font-family="Helvetica,sans-Serif" font-size="10.00">/src/o2_sim_its_ALP3.cxx</text>
</a>
</g>
</g>
<!-- Node2&#45;&gt;Node14 -->
<g id="edge14" class="edge"><title>Node2&#45;&gt;Node14</title>
<path fill="none" stroke="midnightblue" d="M1684.66,-166.534C1712.96,-155.216 1745.53,-142.189 1773.18,-131.127"/>
<polygon fill="midnightblue" stroke="midnightblue" points="1683.23,-163.338 1675.25,-170.302 1685.83,-169.838 1683.23,-163.338"/>
</g>
<!-- Node15 -->
<g id="node15" class="node"><title>Node15</title>
<g id="a_node15"><a xlink:href="../../d7/d11/o2__sim__tpc_8cxx.html" target="_top" xlink:title="/home/travis/build\l/AliceO2Group/AliceO2\l/Framework/TestWorkflows\l/src/o2_sim_tpc.cxx">
<polygon fill="none" stroke="black" points="1922.5,-79 1922.5,-131 2059.5,-131 2059.5,-79 1922.5,-79"/>
<text text-anchor="start" x="1930.5" y="-119" font-family="Helvetica,sans-Serif" font-size="10.00">/home/travis/build</text>
<text text-anchor="start" x="1930.5" y="-108" font-family="Helvetica,sans-Serif" font-size="10.00">/AliceO2Group/AliceO2</text>
<text text-anchor="start" x="1930.5" y="-97" font-family="Helvetica,sans-Serif" font-size="10.00">/Framework/TestWorkflows</text>
<text text-anchor="middle" x="1991" y="-86" font-family="Helvetica,sans-Serif" font-size="10.00">/src/o2_sim_tpc.cxx</text>
</a>
</g>
</g>
<!-- Node2&#45;&gt;Node15 -->
<g id="edge15" class="edge"><title>Node2&#45;&gt;Node15</title>
<path fill="none" stroke="midnightblue" d="M1685.04,-167.965C1785.45,-142.351 1816.03,-155.612 1913,-132 1916.05,-131.257 1919.15,-130.45 1922.28,-129.595"/>
<polygon fill="midnightblue" stroke="midnightblue" points="1683.88,-164.649 1675.1,-170.568 1685.66,-171.421 1683.88,-164.649"/>
</g>
<!-- Node16 -->
<g id="node16" class="node"><title>Node16</title>
<g id="a_node16"><a xlink:href="../../d3/db7/run__digi__tpc_8C.html" target="_top" xlink:title="/home/travis/build\l/AliceO2Group/AliceO2\l/macro/run_digi_tpc.C">
<polygon fill="none" stroke="black" points="2078,-84.5 2078,-125.5 2196,-125.5 2196,-84.5 2078,-84.5"/>
<text text-anchor="start" x="2086" y="-113.5" font-family="Helvetica,sans-Serif" font-size="10.00">/home/travis/build</text>
<text text-anchor="start" x="2086" y="-102.5" font-family="Helvetica,sans-Serif" font-size="10.00">/AliceO2Group/AliceO2</text>
<text text-anchor="middle" x="2137" y="-91.5" font-family="Helvetica,sans-Serif" font-size="10.00">/macro/run_digi_tpc.C</text>
</a>
</g>
</g>
<!-- Node2&#45;&gt;Node16 -->
<g id="edge16" class="edge"><title>Node2&#45;&gt;Node16</title>
<path fill="none" stroke="midnightblue" d="M1684.95,-168.071C1852.88,-130.584 1904.16,-169.83 2068,-132 2075.23,-130.33 2082.73,-128.082 2090,-125.603"/>
<polygon fill="midnightblue" stroke="midnightblue" points="1684.01,-164.697 1675.04,-170.342 1685.57,-171.52 1684.01,-164.697"/>
</g>
<!-- Node18 -->
<g id="node18" class="node"><title>Node18</title>
<g id="a_node18"><a xlink:href="../../d9/d71/run__sim_8C.html" target="_top" xlink:title="/home/travis/build\l/AliceO2Group/AliceO2\l/macro/run_sim.C">
<polygon fill="none" stroke="black" points="2214,-84.5 2214,-125.5 2332,-125.5 2332,-84.5 2214,-84.5"/>
<text text-anchor="start" x="2222" y="-113.5" font-family="Helvetica,sans-Serif" font-size="10.00">/home/travis/build</text>
<text text-anchor="start" x="2222" y="-102.5" font-family="Helvetica,sans-Serif" font-size="10.00">/AliceO2Group/AliceO2</text>
<text text-anchor="middle" x="2273" y="-91.5" font-family="Helvetica,sans-Serif" font-size="10.00">/macro/run_sim.C</text>
</a>
</g>
</g>
<!-- Node2&#45;&gt;Node18 -->
<g id="edge18" class="edge"><title>Node2&#45;&gt;Node18</title>
<path fill="none" stroke="midnightblue" d="M1684.93,-168.102C1912.61,-119.795 1981.55,-181.287 2205,-132 2212.41,-130.367 2220.07,-128.071 2227.48,-125.512"/>
<polygon fill="midnightblue" stroke="midnightblue" points="1684.05,-164.712 1675.02,-170.253 1685.54,-171.552 1684.05,-164.712"/>
</g>
<!-- Node19 -->
<g id="node19" class="node"><title>Node19</title>
<g id="a_node19"><a xlink:href="../../db/df3/macro_2run__sim__emcal_8C.html" target="_top" xlink:title="/home/travis/build\l/AliceO2Group/AliceO2\l/macro/run_sim_emcal.C">
<polygon fill="none" stroke="black" points="2350,-84.5 2350,-125.5 2476,-125.5 2476,-84.5 2350,-84.5"/>
<text text-anchor="start" x="2358" y="-113.5" font-family="Helvetica,sans-Serif" font-size="10.00">/home/travis/build</text>
<text text-anchor="start" x="2358" y="-102.5" font-family="Helvetica,sans-Serif" font-size="10.00">/AliceO2Group/AliceO2</text>
<text text-anchor="middle" x="2413" y="-91.5" font-family="Helvetica,sans-Serif" font-size="10.00">/macro/run_sim_emcal.C</text>
</a>
</g>
</g>
<!-- Node2&#45;&gt;Node19 -->
<g id="edge19" class="edge"><title>Node2&#45;&gt;Node19</title>
<path fill="none" stroke="midnightblue" d="M1684.87,-168.128C1971.94,-108.898 2057.65,-189.627 2341,-132 2348.81,-130.411 2356.92,-128.138 2364.75,-125.59"/>
<polygon fill="midnightblue" stroke="midnightblue" points="1684.08,-164.718 1675.01,-170.2 1685.52,-171.568 1684.08,-164.718"/>
</g>
<!-- Node20 -->
<g id="node20" class="node"><title>Node20</title>
<g id="a_node20"><a xlink:href="../../d5/dd2/run__sim__its__ALP3_8C.html" target="_top" xlink:title="/home/travis/build\l/AliceO2Group/AliceO2\l/macro/run_sim_its_ALP3.C">
<polygon fill="none" stroke="black" points="2494,-84.5 2494,-125.5 2634,-125.5 2634,-84.5 2494,-84.5"/>
<text text-anchor="start" x="2502" y="-113.5" font-family="Helvetica,sans-Serif" font-size="10.00">/home/travis/build</text>
<text text-anchor="start" x="2502" y="-102.5" font-family="Helvetica,sans-Serif" font-size="10.00">/AliceO2Group/AliceO2</text>
<text text-anchor="middle" x="2564" y="-91.5" font-family="Helvetica,sans-Serif" font-size="10.00">/macro/run_sim_its_ALP3.C</text>
</a>
</g>
</g>
<!-- Node2&#45;&gt;Node20 -->
<g id="edge20" class="edge"><title>Node2&#45;&gt;Node20</title>
<path fill="none" stroke="midnightblue" d="M1684.9,-168.13C2034.8,-97.2941 2137.74,-195.704 2485,-132 2493.66,-130.411 2502.68,-128.103 2511.4,-125.509"/>
<polygon fill="midnightblue" stroke="midnightblue" points="1684.09,-164.722 1675,-170.165 1685.5,-171.579 1684.09,-164.722"/>
</g>
<!-- Node21 -->
<g id="node21" class="node"><title>Node21</title>
<g id="a_node21"><a xlink:href="../../d4/d5f/run__sim__mft_8C.html" target="_top" xlink:title="/home/travis/build\l/AliceO2Group/AliceO2\l/macro/run_sim_mft.C">
<polygon fill="none" stroke="black" points="2652,-84.5 2652,-125.5 2770,-125.5 2770,-84.5 2652,-84.5"/>
<text text-anchor="start" x="2660" y="-113.5" font-family="Helvetica,sans-Serif" font-size="10.00">/home/travis/build</text>
<text text-anchor="start" x="2660" y="-102.5" font-family="Helvetica,sans-Serif" font-size="10.00">/AliceO2Group/AliceO2</text>
<text text-anchor="middle" x="2711" y="-91.5" font-family="Helvetica,sans-Serif" font-size="10.00">/macro/run_sim_mft.C</text>
</a>
</g>
</g>
<!-- Node2&#45;&gt;Node21 -->
<g id="edge21" class="edge"><title>Node2&#45;&gt;Node21</title>
<path fill="none" stroke="midnightblue" d="M1685.32,-168.03C2103.85,-84.7839 2228.36,-216.64 2643,-132 2650.55,-130.458 2658.37,-128.175 2665.89,-125.591"/>
<polygon fill="midnightblue" stroke="midnightblue" points="1684.48,-164.627 1675.37,-170.037 1685.87,-171.489 1684.48,-164.627"/>
</g>
<!-- Node22 -->
<g id="node22" class="node"><title>Node22</title>
<g id="a_node22"><a xlink:href="../../d7/d08/run__sim__tpc_8C.html" target="_top" xlink:title="/home/travis/build\l/AliceO2Group/AliceO2\l/macro/run_sim_tpc.C">
<polygon fill="none" stroke="black" points="2788,-84.5 2788,-125.5 2906,-125.5 2906,-84.5 2788,-84.5"/>
<text text-anchor="start" x="2796" y="-113.5" font-family="Helvetica,sans-Serif" font-size="10.00">/home/travis/build</text>
<text text-anchor="start" x="2796" y="-102.5" font-family="Helvetica,sans-Serif" font-size="10.00">/AliceO2Group/AliceO2</text>
<text text-anchor="middle" x="2847" y="-91.5" font-family="Helvetica,sans-Serif" font-size="10.00">/macro/run_sim_tpc.C</text>
</a>
</g>
</g>
<!-- Node2&#45;&gt;Node22 -->
<g id="edge22" class="edge"><title>Node2&#45;&gt;Node22</title>
<path fill="none" stroke="midnightblue" d="M1685.29,-168.04C2163.25,-73.852 2304.95,-227.618 2779,-132 2786.56,-130.476 2794.37,-128.201 2801.9,-125.621"/>
<polygon fill="midnightblue" stroke="midnightblue" points="1684.49,-164.63 1675.37,-170.02 1685.86,-171.494 1684.49,-164.63"/>
</g>
<!-- Node23 -->
<g id="node23" class="node"><title>Node23</title>
<g id="a_node23"><a xlink:href="../../dd/d4e/run__trac__its_8C.html" target="_top" xlink:title="/home/travis/build\l/AliceO2Group/AliceO2\l/macro/run_trac_its.C">
<polygon fill="none" stroke="black" points="2924,-84.5 2924,-125.5 3042,-125.5 3042,-84.5 2924,-84.5"/>
<text text-anchor="start" x="2932" y="-113.5" font-family="Helvetica,sans-Serif" font-size="10.00">/home/travis/build</text>
<text text-anchor="start" x="2932" y="-102.5" font-family="Helvetica,sans-Serif" font-size="10.00">/AliceO2Group/AliceO2</text>
<text text-anchor="middle" x="2983" y="-91.5" font-family="Helvetica,sans-Serif" font-size="10.00">/macro/run_trac_its.C</text>
</a>
</g>
</g>
<!-- Node2&#45;&gt;Node23 -->
<g id="edge24" class="edge"><title>Node2&#45;&gt;Node23</title>
<path fill="none" stroke="midnightblue" d="M1685.31,-168.039C2222.67,-62.9199 2381.54,-238.594 2915,-132 2922.68,-130.465 2930.64,-128.148 2938.27,-125.518"/>
<polygon fill="midnightblue" stroke="midnightblue" points="1684.5,-164.632 1675.37,-170.007 1685.86,-171.499 1684.5,-164.632"/>
</g>
<!-- Node3&#45;&gt;Node4 -->
<g id="edge3" class="edge"><title>Node3&#45;&gt;Node4</title>
<path fill="none" stroke="midnightblue" d="M76.8533,-69.9541C81.9023,-60.3259 87.2276,-50.1706 91.6714,-41.6965"/>
<polygon fill="midnightblue" stroke="midnightblue" points="73.6795,-68.4701 72.1351,-78.9517 79.8789,-71.721 73.6795,-68.4701"/>
</g>
<!-- Node17 -->
<g id="node17" class="node"><title>Node17</title>
<g id="a_node17"><a xlink:href="../../d3/d56/runTPC_8cxx.html" target="_top" xlink:title="/home/travis/build\l/AliceO2Group/AliceO2\l/run/runTPC.cxx">
<polygon fill="none" stroke="black" points="2433,-0.5 2433,-41.5 2551,-41.5 2551,-0.5 2433,-0.5"/>
<text text-anchor="start" x="2441" y="-29.5" font-family="Helvetica,sans-Serif" font-size="10.00">/home/travis/build</text>
<text text-anchor="start" x="2441" y="-18.5" font-family="Helvetica,sans-Serif" font-size="10.00">/AliceO2Group/AliceO2</text>
<text text-anchor="middle" x="2492" y="-7.5" font-family="Helvetica,sans-Serif" font-size="10.00">/run/runTPC.cxx</text>
</a>
</g>
</g>
<!-- Node16&#45;&gt;Node17 -->
<g id="edge17" class="edge"><title>Node16&#45;&gt;Node17</title>
<path fill="none" stroke="midnightblue" d="M2194.7,-81.1648C2198.17,-80.0348 2201.62,-78.969 2205,-78 2282.48,-55.8095 2374.23,-39.6058 2432.76,-30.4972"/>
<polygon fill="midnightblue" stroke="midnightblue" points="2193.28,-77.9516 2184.94,-84.4928 2195.54,-84.5768 2193.28,-77.9516"/>
</g>
<!-- Node22&#45;&gt;Node17 -->
<g id="edge23" class="edge"><title>Node22&#45;&gt;Node17</title>
<path fill="none" stroke="midnightblue" d="M2789.3,-81.1648C2785.83,-80.0348 2782.38,-78.969 2779,-78 2701.52,-55.8095 2609.77,-39.6058 2551.24,-30.4972"/>
<polygon fill="midnightblue" stroke="midnightblue" points="2788.46,-84.5768 2799.06,-84.4928 2790.72,-77.9516 2788.46,-84.5768"/>
</g>
</g>
</svg>
        <g id="navigator" transform="translate(0 0)" fill="#404254">
                <rect fill="#f2f5e9" fill-opacity="0.5" stroke="#606060" stroke-width=".5" x="0" y="0" width="60" height="60"/>
                <use id="zoomplus" xlink:href="#zoomPlus" x="17" y="9" onmousedown="handleZoom(evt,'in')"/>
                <use id="zoomminus" xlink:href="#zoomMin" x="42" y="9" onmousedown="handleZoom(evt,'out')"/>
                <use id="reset" xlink:href="#resetDef" x="30" y="36" onmousedown="handleReset()"/>
                <g id="arrowUp" xlink:href="#dirArrow" transform="translate(30 24)" onmousedown="handlePan(0,-1)">
                  <use xlink:href="#rim" fill="#404040">
                        <set attributeName="fill" to="#808080" begin="arrowUp.mouseover" end="arrowUp.mouseout"/>
                  </use>
                  <path fill="none" stroke="white" stroke-width="1.5" d="M0,-3.0v7 M-2.5,-0.5L0,-3.0L2.5,-0.5"/>
                </g>
                <g id="arrowRight" xlink:href="#dirArrow" transform="rotate(90) translate(36 -43)" onmousedown="handlePan(1,0)">
                  <use xlink:href="#rim" fill="#404040">
                        <set attributeName="fill" to="#808080" begin="arrowRight.mouseover" end="arrowRight.mouseout"/>
                  </use>
                  <path fill="none" stroke="white" stroke-width="1.5" d="M0,-3.0v7 M-2.5,-0.5L0,-3.0L2.5,-0.5"/>
                </g>
                <g id="arrowDown" xlink:href="#dirArrow" transform="rotate(180) translate(-30 -48)" onmousedown="handlePan(0,1)">
                  <use xlink:href="#rim" fill="#404040">
                        <set attributeName="fill" to="#808080" begin="arrowDown.mouseover" end="arrowDown.mouseout"/>
                  </use>
                  <path fill="none" stroke="white" stroke-width="1.5" d="M0,-3.0v7 M-2.5,-0.5L0,-3.0L2.5,-0.5"/>
                </g>
                <g id="arrowLeft" xlink:href="#dirArrow" transform="rotate(270) translate(-36 17)" onmousedown="handlePan(-1,0)">
                  <use xlink:href="#rim" fill="#404040">
                        <set attributeName="fill" to="#808080" begin="arrowLeft.mouseover" end="arrowLeft.mouseout"/>
                  </use>
                  <path fill="none" stroke="white" stroke-width="1.5" d="M0,-3.0v7 M-2.5,-0.5L0,-3.0L2.5,-0.5"/>
                </g>
        </g>
        <svg viewBox="0 0 15 15" width="100%" height="30px" preserveAspectRatio="xMaxYMin meet">
         <g id="arrow_out" transform="scale(0.3 0.3)">
          <a xlink:href="MagneticWrapperChebyshev_8h__dep__incl_org.svg" target="_base">
           <rect id="button" ry="5" rx="5" y="6" x="6" height="38" width="38"
                fill="#f2f5e9" fill-opacity="0.5" stroke="#606060" stroke-width="1.0"/>
           <path id="arrow"
             d="M 11.500037,31.436501 C 11.940474,20.09759 22.043105,11.32322 32.158766,21.979434 L 37.068811,17.246167 C 37.068811,17.246167 37.088388,32 37.088388,32 L 22.160133,31.978069 C 22.160133,31.978069 26.997745,27.140456 26.997745,27.140456 C 18.528582,18.264221 13.291696,25.230495 11.500037,31.436501 z"
             style="fill:#404040;"/>
          </a>
         </g>
        </svg>
</svg>
