<?xml version="1.0" encoding="UTF-8" standalone="no"?>
<!DOCTYPE svg PUBLIC "-//W3C//DTD SVG 1.1//EN"
 "http://www.w3.org/Graphics/SVG/1.1/DTD/svg11.dtd">
<!-- Generated by graphviz version 2.36.0 (20140111.2315)
 -->
<!-- Title: /home/travis/build/AliceO2Group/AliceO2/Detectors/TPC/reconstruction/macro/runCATracking.C Pages: 1 -->
<!--zoomable 490 -->
<svg id="main" version="1.1" xmlns="http://www.w3.org/2000/svg" xmlns:xlink="http://www.w3.org/1999/xlink" xml:space="preserve" onload="init(evt)">
<style type="text/css"><![CDATA[
.edge:hover path { stroke: red; }
.edge:hover polygon { stroke: red; fill: red; }
]]></style>
<script type="text/javascript"><![CDATA[
var edges = document.getElementsByTagName('g');
if (edges && edges.length) {
  for (var i=0;i<edges.length;i++) {
    if (edges[i].id.substr(0,4)=='edge') {
      edges[i].setAttribute('class','edge');
    }
  }
}
]]></script>
        <defs>
                <circle id="rim" cx="0" cy="0" r="7"/>
                <circle id="rim2" cx="0" cy="0" r="3.5"/>
                <g id="zoomPlus">
                        <use xlink:href="#rim" fill="#404040">
                                <set attributeName="fill" to="#808080" begin="zoomplus.mouseover" end="zoomplus.mouseout"/>
                        </use>
                        <path d="M-4,0h8M0,-4v8" fill="none" stroke="white" stroke-width="1.5" pointer-events="none"/>
                </g>
                <g id="zoomMin">
                        <use xlink:href="#rim" fill="#404040">
                                <set attributeName="fill" to="#808080" begin="zoomminus.mouseover" end="zoomminus.mouseout"/>
                        </use>
                        <path d="M-4,0h8" fill="none" stroke="white" stroke-width="1.5" pointer-events="none"/>
                </g>
                <g id="dirArrow">
                        <path fill="none" stroke="white" stroke-width="1.5" d="M0,-3.0v7 M-2.5,-0.5L0,-3.0L2.5,-0.5"/>
                </g>
               <g id="resetDef">
                       <use xlink:href="#rim2" fill="#404040">
                               <set attributeName="fill" to="#808080" begin="reset.mouseover" end="reset.mouseout"/>
                       </use>
               </g>
        </defs>

<script type="text/javascript">
var viewWidth = 2008;
var viewHeight = 490;
var sectionId = 'dynsection-0';
</script>
<script xlink:href="../../svgpan.js"/>
<svg id="graph" class="graph">
<g id="viewport">
<title>/home/travis/build/AliceO2Group/AliceO2/Detectors/TPC/reconstruction/macro/runCATracking.C</title>
<!-- Node1 -->
<g id="node1" class="node"><title>Node1</title>
<polygon fill="#bfbfbf" stroke="black" points="1429,-429 1429,-481 1579,-481 1579,-429 1429,-429"/>
<text text-anchor="start" x="1437" y="-469" font-family="Helvetica,sans-Serif" font-size="10.00">/home/travis/build</text>
<text text-anchor="start" x="1437" y="-458" font-family="Helvetica,sans-Serif" font-size="10.00">/AliceO2Group/AliceO2</text>
<text text-anchor="start" x="1437" y="-447" font-family="Helvetica,sans-Serif" font-size="10.00">/Detectors/TPC/reconstruction</text>
<text text-anchor="middle" x="1504" y="-436" font-family="Helvetica,sans-Serif" font-size="10.00">/macro/runCATracking.C</text>
</g>
<!-- Node2 -->
<g id="node2" class="node"><title>Node2</title>
<polygon fill="none" stroke="#bfbfbf" points="109,-136.5 109,-155.5 153,-155.5 153,-136.5 109,-136.5"/>
<text text-anchor="middle" x="131" y="-143.5" font-family="Helvetica,sans-Serif" font-size="10.00">vector</text>
</g>
<!-- Node1&#45;&gt;Node2 -->
<g id="edge1" class="edge"><title>Node1&#45;&gt;Node2</title>
<path fill="none" stroke="midnightblue" d="M1428.99,-453.655C1167.57,-452.016 306.444,-442.776 194,-392 157.334,-375.443 131,-367.231 131,-327 131,-327 131,-327 131,-263 131,-228.716 131,-188.732 131,-165.79"/>
<polygon fill="midnightblue" stroke="midnightblue" points="134.5,-165.731 131,-155.731 127.5,-165.731 134.5,-165.731"/>
</g>
<!-- Node3 -->
<g id="node3" class="node"><title>Node3</title>
<polygon fill="none" stroke="#bfbfbf" points="1479,-372.5 1479,-391.5 1529,-391.5 1529,-372.5 1479,-372.5"/>
<text text-anchor="middle" x="1504" y="-379.5" font-family="Helvetica,sans-Serif" font-size="10.00">fstream</text>
</g>
<!-- Node1&#45;&gt;Node3 -->
<g id="edge2" class="edge"><title>Node1&#45;&gt;Node3</title>
<path fill="none" stroke="midnightblue" d="M1504,-428.768C1504,-419.89 1504,-410.074 1504,-401.816"/>
<polygon fill="midnightblue" stroke="midnightblue" points="1507.5,-401.757 1504,-391.757 1500.5,-401.757 1507.5,-401.757"/>
</g>
<!-- Node4 -->
<g id="node4" class="node"><title>Node4</title>
<polygon fill="none" stroke="#bfbfbf" points="1756,-74.5 1756,-93.5 1810,-93.5 1810,-74.5 1756,-74.5"/>
<text text-anchor="middle" x="1783" y="-81.5" font-family="Helvetica,sans-Serif" font-size="10.00">iostream</text>
</g>
<!-- Node1&#45;&gt;Node4 -->
<g id="edge3" class="edge"><title>Node1&#45;&gt;Node4</title>
<path fill="none" stroke="midnightblue" d="M1480.88,-428.655C1468.15,-411.536 1457.27,-389.038 1470,-372 1556.27,-256.52 1694.14,-395.036 1781,-280 1821.11,-226.882 1800.79,-140.348 1789.21,-103.047"/>
<polygon fill="midnightblue" stroke="midnightblue" points="1792.53,-101.94 1786.1,-93.52 1785.87,-104.112 1792.53,-101.94"/>
</g>
<!-- Node5 -->
<g id="node5" class="node"><title>Node5</title>
<polygon fill="none" stroke="#bfbfbf" points="1547.5,-372.5 1547.5,-391.5 1612.5,-391.5 1612.5,-372.5 1547.5,-372.5"/>
<text text-anchor="middle" x="1580" y="-379.5" font-family="Helvetica,sans-Serif" font-size="10.00">TSystem.h</text>
</g>
<!-- Node1&#45;&gt;Node5 -->
<g id="edge4" class="edge"><title>Node1&#45;&gt;Node5</title>
<path fill="none" stroke="midnightblue" d="M1531.01,-428.768C1541.7,-418.78 1553.66,-407.605 1563.09,-398.798"/>
<polygon fill="midnightblue" stroke="midnightblue" points="1565.71,-401.141 1570.63,-391.757 1560.93,-396.026 1565.71,-401.141"/>
</g>
<!-- Node6 -->
<g id="node6" class="node"><title>Node6</title>
<polygon fill="none" stroke="#bfbfbf" points="1630.5,-372.5 1630.5,-391.5 1689.5,-391.5 1689.5,-372.5 1630.5,-372.5"/>
<text text-anchor="middle" x="1660" y="-379.5" font-family="Helvetica,sans-Serif" font-size="10.00">TROOT.h</text>
</g>
<!-- Node1&#45;&gt;Node6 -->
<g id="edge5" class="edge"><title>Node1&#45;&gt;Node6</title>
<path fill="none" stroke="midnightblue" d="M1559,-428.968C1583.58,-417.783 1611.5,-405.075 1631.74,-395.86"/>
<polygon fill="midnightblue" stroke="midnightblue" points="1633.37,-398.967 1641.02,-391.639 1630.47,-392.596 1633.37,-398.967"/>
</g>
<!-- Node7 -->
<g id="node7" class="node"><title>Node7</title>
<polygon fill="none" stroke="#bfbfbf" points="1707.5,-372.5 1707.5,-391.5 1754.5,-391.5 1754.5,-372.5 1707.5,-372.5"/>
<text text-anchor="middle" x="1731" y="-379.5" font-family="Helvetica,sans-Serif" font-size="10.00">TFile.h</text>
</g>
<!-- Node1&#45;&gt;Node7 -->
<g id="edge6" class="edge"><title>Node1&#45;&gt;Node7</title>
<path fill="none" stroke="midnightblue" d="M1579.27,-430.457C1619.28,-417.945 1666.45,-403.189 1697.45,-393.492"/>
<polygon fill="midnightblue" stroke="midnightblue" points="1698.82,-396.734 1707.31,-390.408 1696.73,-390.053 1698.82,-396.734"/>
</g>
<!-- Node8 -->
<g id="node8" class="node"><title>Node8</title>
<polygon fill="none" stroke="#bfbfbf" points="1773,-372.5 1773,-391.5 1823,-391.5 1823,-372.5 1773,-372.5"/>
<text text-anchor="middle" x="1798" y="-379.5" font-family="Helvetica,sans-Serif" font-size="10.00">TTree.h</text>
</g>
<!-- Node1&#45;&gt;Node8 -->
<g id="edge7" class="edge"><title>Node1&#45;&gt;Node8</title>
<path fill="none" stroke="midnightblue" d="M1579.17,-436.357C1630.91,-424.127 1701.19,-407.345 1763,-392 1763.1,-391.975 1763.2,-391.951 1763.3,-391.926"/>
<polygon fill="midnightblue" stroke="midnightblue" points="1763.93,-395.375 1772.78,-389.539 1762.23,-388.587 1763.93,-395.375"/>
</g>
<!-- Node9 -->
<g id="node9" class="node"><title>Node9</title>
<polygon fill="none" stroke="#bfbfbf" points="1841,-372.5 1841,-391.5 1897,-391.5 1897,-372.5 1841,-372.5"/>
<text text-anchor="middle" x="1869" y="-379.5" font-family="Helvetica,sans-Serif" font-size="10.00">TChain.h</text>
</g>
<!-- Node1&#45;&gt;Node9 -->
<g id="edge8" class="edge"><title>Node1&#45;&gt;Node9</title>
<path fill="none" stroke="midnightblue" d="M1579.13,-440.941C1643.41,-429.505 1738.63,-411.946 1830.7,-392.198"/>
<polygon fill="midnightblue" stroke="midnightblue" points="1831.72,-395.56 1840.75,-390.03 1830.24,-388.717 1831.72,-395.56"/>
</g>
<!-- Node10 -->
<g id="node10" class="node"><title>Node10</title>
<polygon fill="none" stroke="#bfbfbf" points="1915.5,-372.5 1915.5,-391.5 2000.5,-391.5 2000.5,-372.5 1915.5,-372.5"/>
<text text-anchor="middle" x="1958" y="-379.5" font-family="Helvetica,sans-Serif" font-size="10.00">TClonesArray.h</text>
</g>
<!-- Node1&#45;&gt;Node10 -->
<g id="edge9" class="edge"><title>Node1&#45;&gt;Node10</title>
<path fill="none" stroke="midnightblue" d="M1579.07,-442.733C1659.67,-430.555 1791.48,-410.413 1905,-392 1905.11,-391.983 1905.21,-391.965 1905.32,-391.948"/>
<polygon fill="midnightblue" stroke="midnightblue" points="1906.19,-395.353 1915.49,-390.276 1905.05,-388.446 1906.19,-395.353"/>
</g>
<!-- Node11 -->
<g id="node11" class="node"><title>Node11</title>
<g id="a_node11"><a xlink:href="../../d6/d6f/TPC_2reconstruction_2include_2TPCReconstruction_2Cluster_8h.html" target="_top" xlink:title="TPCReconstruction/Cluster.h">
<polygon fill="none" stroke="black" points="267,-316.5 267,-335.5 413,-335.5 413,-316.5 267,-316.5"/>
<text text-anchor="middle" x="340" y="-323.5" font-family="Helvetica,sans-Serif" font-size="10.00">TPCReconstruction/Cluster.h</text>
</a>
</g>
</g>
<!-- Node1&#45;&gt;Node11 -->
<g id="edge10" class="edge"><title>Node1&#45;&gt;Node11</title>
<path fill="none" stroke="midnightblue" d="M1428.97,-445.814C1221.35,-423.161 640.264,-359.761 423.194,-336.077"/>
<polygon fill="midnightblue" stroke="midnightblue" points="423.456,-332.585 413.135,-334.98 422.696,-339.544 423.456,-332.585"/>
</g>
<!-- Node14 -->
<g id="node14" class="node"><title>Node14</title>
<g id="a_node14"><a xlink:href="../../df/d30/TPCCATracking_8h.html" target="_top" xlink:title="Decoder to convert TPC ClusterHardware to ClusterNative. ">
<polygon fill="none" stroke="black" points="203,-372.5 203,-391.5 389,-391.5 389,-372.5 203,-372.5"/>
<text text-anchor="middle" x="296" y="-379.5" font-family="Helvetica,sans-Serif" font-size="10.00">TPCReconstruction/TPCCATracking.h</text>
</a>
</g>
</g>
<!-- Node1&#45;&gt;Node14 -->
<g id="edge13" class="edge"><title>Node1&#45;&gt;Node14</title>
<path fill="none" stroke="midnightblue" d="M1428.89,-449.585C1220.92,-437.362 637.254,-403.057 399.123,-389.061"/>
<polygon fill="midnightblue" stroke="midnightblue" points="399.265,-385.563 389.077,-388.471 398.855,-392.551 399.265,-385.563"/>
</g>
<!-- Node16 -->
<g id="node16" class="node"><title>Node16</title>
<g id="a_node16"><a xlink:href="../../d5/dc9/TrackTPC_8h.html" target="_top" xlink:title="TPCReconstruction/TrackTPC.h">
<polygon fill="none" stroke="black" points="1056.5,-372.5 1056.5,-391.5 1215.5,-391.5 1215.5,-372.5 1056.5,-372.5"/>
<text text-anchor="middle" x="1136" y="-379.5" font-family="Helvetica,sans-Serif" font-size="10.00">TPCReconstruction/TrackTPC.h</text>
</a>
</g>
</g>
<!-- Node1&#45;&gt;Node16 -->
<g id="edge17" class="edge"><title>Node1&#45;&gt;Node16</title>
<path fill="none" stroke="midnightblue" d="M1428.64,-439.461C1357.73,-425.779 1253.28,-405.627 1190.23,-393.463"/>
<polygon fill="midnightblue" stroke="midnightblue" points="1190.58,-389.966 1180.1,-391.508 1189.25,-396.839 1190.58,-389.966"/>
</g>
<!-- Node17 -->
<g id="node17" class="node"><title>Node17</title>
<g id="a_node17"><a xlink:href="../../d7/d65/Detectors_2Base_2include_2DetectorsBase_2Track_8h.html" target="_top" xlink:title="DetectorsBase/Track.h">
<polygon fill="none" stroke="black" points="1354,-316.5 1354,-335.5 1472,-335.5 1472,-316.5 1354,-316.5"/>
<text text-anchor="middle" x="1413" y="-323.5" font-family="Helvetica,sans-Serif" font-size="10.00">DetectorsBase/Track.h</text>
</a>
</g>
</g>
<!-- Node1&#45;&gt;Node17 -->
<g id="edge70" class="edge"><title>Node1&#45;&gt;Node17</title>
<path fill="none" stroke="midnightblue" d="M1470.87,-428.879C1458.93,-418.508 1446.16,-405.706 1437,-392 1427.5,-377.777 1421.15,-359.302 1417.38,-345.685"/>
<polygon fill="midnightblue" stroke="midnightblue" points="1420.67,-344.417 1414.81,-335.59 1413.88,-346.145 1420.67,-344.417"/>
</g>
<!-- Node12 -->
<g id="node12" class="node"><title>Node12</title>
<polygon fill="none" stroke="#bfbfbf" points="200.5,-249 200.5,-279 295.5,-279 295.5,-249 200.5,-249"/>
<text text-anchor="start" x="208.5" y="-267" font-family="Helvetica,sans-Serif" font-size="10.00">boost/serialization</text>
<text text-anchor="middle" x="248" y="-256" font-family="Helvetica,sans-Serif" font-size="10.00">/base_object.hpp</text>
</g>
<!-- Node11&#45;&gt;Node12 -->
<g id="edge11" class="edge"><title>Node11&#45;&gt;Node12</title>
<path fill="none" stroke="midnightblue" d="M326.819,-316.403C314.242,-308.201 294.836,-295.545 278.428,-284.844"/>
<polygon fill="midnightblue" stroke="midnightblue" points="279.971,-281.672 269.683,-279.141 276.147,-287.535 279.971,-281.672"/>
</g>
<!-- Node13 -->
<g id="node13" class="node"><title>Node13</title>
<polygon fill="none" stroke="#bfbfbf" points="314,-254.5 314,-273.5 406,-273.5 406,-254.5 314,-254.5"/>
<text text-anchor="middle" x="360" y="-261.5" font-family="Helvetica,sans-Serif" font-size="10.00">FairTimeStamp.h</text>
</g>
<!-- Node11&#45;&gt;Node13 -->
<g id="edge12" class="edge"><title>Node11&#45;&gt;Node13</title>
<path fill="none" stroke="midnightblue" d="M342.866,-316.403C345.747,-307.76 350.277,-294.17 353.955,-283.134"/>
<polygon fill="midnightblue" stroke="midnightblue" points="357.298,-284.174 357.14,-273.581 350.657,-281.961 357.298,-284.174"/>
</g>
<!-- Node14&#45;&gt;Node2 -->
<g id="edge15" class="edge"><title>Node14&#45;&gt;Node2</title>
<path fill="none" stroke="midnightblue" d="M253.181,-372.453C230.929,-365.95 204.923,-354.792 188,-336 143.304,-286.366 164.477,-255.89 145,-192 142.313,-183.184 139.28,-173.415 136.726,-165.237"/>
<polygon fill="midnightblue" stroke="midnightblue" points="140.042,-164.115 133.713,-155.618 133.362,-166.207 140.042,-164.115"/>
</g>
<!-- Node14&#45;&gt;Node11 -->
<g id="edge16" class="edge"><title>Node14&#45;&gt;Node11</title>
<path fill="none" stroke="midnightblue" d="M303.266,-372.083C309.545,-364.377 318.788,-353.033 326.431,-343.653"/>
<polygon fill="midnightblue" stroke="midnightblue" points="329.266,-345.714 332.869,-335.751 323.839,-341.293 329.266,-345.714"/>
</g>
<!-- Node15 -->
<g id="node15" class="node"><title>Node15</title>
<polygon fill="none" stroke="#bfbfbf" points="197,-316.5 197,-335.5 249,-335.5 249,-316.5 197,-316.5"/>
<text text-anchor="middle" x="223" y="-323.5" font-family="Helvetica,sans-Serif" font-size="10.00">memory</text>
</g>
<!-- Node14&#45;&gt;Node15 -->
<g id="edge14" class="edge"><title>Node14&#45;&gt;Node15</title>
<path fill="none" stroke="midnightblue" d="M284.271,-372.324C273.163,-364.107 256.258,-351.602 243.017,-341.807"/>
<polygon fill="midnightblue" stroke="midnightblue" points="245.063,-338.967 234.942,-335.834 240.9,-344.595 245.063,-338.967"/>
</g>
<!-- Node16&#45;&gt;Node11 -->
<g id="edge69" class="edge"><title>Node16&#45;&gt;Node11</title>
<path fill="none" stroke="midnightblue" d="M1056.44,-376.983C925.208,-370.124 655.153,-355.034 427,-336 425.723,-335.893 424.436,-335.784 423.141,-335.672"/>
<polygon fill="midnightblue" stroke="midnightblue" points="423.354,-332.178 413.082,-334.773 422.73,-339.15 423.354,-332.178"/>
</g>
<!-- Node16&#45;&gt;Node17 -->
<g id="edge18" class="edge"><title>Node16&#45;&gt;Node17</title>
<path fill="none" stroke="midnightblue" d="M1179.89,-372.444C1228.52,-362.964 1306.95,-347.675 1359.22,-337.483"/>
<polygon fill="midnightblue" stroke="midnightblue" points="1360.17,-340.865 1369.31,-335.516 1358.83,-333.995 1360.17,-340.865"/>
</g>
<!-- Node49 -->
<g id="node49" class="node"><title>Node49</title>
<g id="a_node49"><a xlink:href="../../d1/d73/Defs_8h.html" target="_top" xlink:title="Common definitions for 2D coordinates. ">
<polygon fill="none" stroke="black" points="351,-192.5 351,-211.5 443,-211.5 443,-192.5 351,-192.5"/>
<text text-anchor="middle" x="397" y="-199.5" font-family="Helvetica,sans-Serif" font-size="10.00">TPCBase/Defs.h</text>
</a>
</g>
</g>
<!-- Node16&#45;&gt;Node49 -->
<g id="edge65" class="edge"><title>Node16&#45;&gt;Node49</title>
<path fill="none" stroke="midnightblue" d="M1100.36,-372.415C978.545,-343.074 578.834,-246.798 442.803,-214.032"/>
<polygon fill="midnightblue" stroke="midnightblue" points="443.259,-210.542 432.718,-211.603 441.62,-217.348 443.259,-210.542"/>
</g>
<!-- Node17&#45;&gt;Node4 -->
<g id="edge25" class="edge"><title>Node17&#45;&gt;Node4</title>
<path fill="none" stroke="midnightblue" d="M1432.87,-316.418C1451.84,-307.961 1481.01,-294.269 1505,-280 1526.09,-267.456 1529.95,-262.145 1550,-248 1628.01,-192.977 1721.11,-128.074 1762,-99.6126"/>
<polygon fill="midnightblue" stroke="midnightblue" points="1764.14,-102.386 1770.35,-93.8003 1760.14,-96.6404 1764.14,-102.386"/>
</g>
<!-- Node18 -->
<g id="node18" class="node"><title>Node18</title>
<polygon fill="none" stroke="#bfbfbf" points="1262,-74.5 1262,-93.5 1318,-93.5 1318,-74.5 1262,-74.5"/>
<text text-anchor="middle" x="1290" y="-81.5" font-family="Helvetica,sans-Serif" font-size="10.00">Rtypes.h</text>
</g>
<!-- Node17&#45;&gt;Node18 -->
<g id="edge19" class="edge"><title>Node17&#45;&gt;Node18</title>
<path fill="none" stroke="midnightblue" d="M1373.03,-316.437C1340.73,-308.836 1294.48,-296.395 1256,-280 1228.33,-268.212 1154,-238.065 1139,-212 1134.57,-204.296 1134.92,-199.896 1139,-192 1152.71,-165.491 1226.03,-121.115 1265.23,-98.759"/>
<polygon fill="midnightblue" stroke="midnightblue" points="1267.42,-101.541 1274.4,-93.5739 1263.98,-95.4469 1267.42,-101.541"/>
</g>
<!-- Node19 -->
<g id="node19" class="node"><title>Node19</title>
<polygon fill="none" stroke="#bfbfbf" points="1592,-254.5 1592,-273.5 1648,-273.5 1648,-254.5 1592,-254.5"/>
<text text-anchor="middle" x="1620" y="-261.5" font-family="Helvetica,sans-Serif" font-size="10.00">algorithm</text>
</g>
<!-- Node17&#45;&gt;Node19 -->
<g id="edge20" class="edge"><title>Node17&#45;&gt;Node19</title>
<path fill="none" stroke="midnightblue" d="M1447.35,-316.452C1480.88,-307.915 1533.25,-294.072 1578,-280 1581.1,-279.025 1584.32,-277.965 1587.52,-276.876"/>
<polygon fill="midnightblue" stroke="midnightblue" points="1588.71,-280.17 1597,-273.573 1586.41,-273.56 1588.71,-280.17"/>
</g>
<!-- Node20 -->
<g id="node20" class="node"><title>Node20</title>
<polygon fill="none" stroke="#bfbfbf" points="1346,-6.5 1346,-25.5 1384,-25.5 1384,-6.5 1346,-6.5"/>
<text text-anchor="middle" x="1365" y="-13.5" font-family="Helvetica,sans-Serif" font-size="10.00">array</text>
</g>
<!-- Node17&#45;&gt;Node20 -->
<g id="edge21" class="edge"><title>Node17&#45;&gt;Node20</title>
<path fill="none" stroke="midnightblue" d="M1353.82,-325.035C1190.04,-323.8 718.03,-311.207 342,-212 327.383,-208.144 102.058,-112.791 94,-100 86.4189,-87.9668 84.147,-78.2563 94,-68 138.439,-21.7421 1149.4,-17.4409 1335.65,-17.041"/>
<polygon fill="midnightblue" stroke="midnightblue" points="1335.79,-20.5408 1345.78,-17.0214 1335.78,-13.5408 1335.79,-20.5408"/>
</g>
<!-- Node21 -->
<g id="node21" class="node"><title>Node21</title>
<polygon fill="none" stroke="#bfbfbf" points="1666.5,-254.5 1666.5,-273.5 1707.5,-273.5 1707.5,-254.5 1666.5,-254.5"/>
<text text-anchor="middle" x="1687" y="-261.5" font-family="Helvetica,sans-Serif" font-size="10.00">cfloat</text>
</g>
<!-- Node17&#45;&gt;Node21 -->
<g id="edge22" class="edge"><title>Node17&#45;&gt;Node21</title>
<path fill="none" stroke="midnightblue" d="M1472.03,-318.558C1521.93,-312.057 1594.85,-300.054 1656,-280 1657.92,-279.371 1659.87,-278.648 1661.81,-277.865"/>
<polygon fill="midnightblue" stroke="midnightblue" points="1663.56,-280.915 1671.25,-273.627 1660.69,-274.529 1663.56,-280.915"/>
</g>
<!-- Node22 -->
<g id="node22" class="node"><title>Node22</title>
<polygon fill="none" stroke="#bfbfbf" points="1659,-6.5 1659,-25.5 1703,-25.5 1703,-6.5 1659,-6.5"/>
<text text-anchor="middle" x="1681" y="-13.5" font-family="Helvetica,sans-Serif" font-size="10.00">cmath</text>
</g>
<!-- Node17&#45;&gt;Node22 -->
<g id="edge23" class="edge"><title>Node17&#45;&gt;Node22</title>
<path fill="none" stroke="midnightblue" d="M1446.87,-316.474C1473.65,-308.967 1511.49,-296.635 1542,-280 1562.29,-268.934 1564.07,-261.269 1583,-248 1684.38,-176.93 1759.06,-208.333 1819,-100 1825.89,-87.5554 1827.13,-79.6702 1819,-68 1806.59,-50.1833 1749.8,-33.5375 1713.05,-24.3656"/>
<polygon fill="midnightblue" stroke="midnightblue" points="1713.81,-20.9494 1703.27,-21.9821 1712.15,-27.7504 1713.81,-20.9494"/>
</g>
<!-- Node23 -->
<g id="node23" class="node"><title>Node23</title>
<polygon fill="none" stroke="#bfbfbf" points="1726,-254.5 1726,-273.5 1772,-273.5 1772,-254.5 1726,-254.5"/>
<text text-anchor="middle" x="1749" y="-261.5" font-family="Helvetica,sans-Serif" font-size="10.00">cstring</text>
</g>
<!-- Node17&#45;&gt;Node23 -->
<g id="edge24" class="edge"><title>Node17&#45;&gt;Node23</title>
<path fill="none" stroke="midnightblue" d="M1472.13,-321.12C1533.98,-315.932 1633.37,-304.391 1716,-280 1718.34,-279.308 1720.73,-278.482 1723.1,-277.577"/>
<polygon fill="midnightblue" stroke="midnightblue" points="1724.72,-280.692 1732.56,-273.563 1721.99,-274.249 1724.72,-280.692"/>
</g>
<!-- Node24 -->
<g id="node24" class="node"><title>Node24</title>
<polygon fill="none" stroke="#bfbfbf" points="978.5,-254.5 978.5,-273.5 1061.5,-273.5 1061.5,-254.5 978.5,-254.5"/>
<text text-anchor="middle" x="1020" y="-261.5" font-family="Helvetica,sans-Serif" font-size="10.00">Math/SMatrix.h</text>
</g>
<!-- Node17&#45;&gt;Node24 -->
<g id="edge26" class="edge"><title>Node17&#45;&gt;Node24</title>
<path fill="none" stroke="midnightblue" d="M1353.94,-320.165C1285.2,-313.867 1168.52,-301.096 1070,-280 1065.21,-278.975 1060.22,-277.714 1055.32,-276.363"/>
<polygon fill="midnightblue" stroke="midnightblue" points="1056.07,-272.936 1045.49,-273.509 1054.12,-279.659 1056.07,-272.936"/>
</g>
<!-- Node25 -->
<g id="node25" class="node"><title>Node25</title>
<polygon fill="none" stroke="#bfbfbf" points="1079.5,-254.5 1079.5,-273.5 1164.5,-273.5 1164.5,-254.5 1079.5,-254.5"/>
<text text-anchor="middle" x="1122" y="-261.5" font-family="Helvetica,sans-Serif" font-size="10.00">Math/SVector.h</text>
</g>
<!-- Node17&#45;&gt;Node25 -->
<g id="edge27" class="edge"><title>Node17&#45;&gt;Node25</title>
<path fill="none" stroke="midnightblue" d="M1363.5,-316.479C1315.99,-308.067 1242.33,-294.406 1179,-280 1173.7,-278.794 1168.14,-277.443 1162.67,-276.059"/>
<polygon fill="midnightblue" stroke="midnightblue" points="1163.53,-272.665 1152.97,-273.555 1161.78,-279.443 1163.53,-272.665"/>
</g>
<!-- Node26 -->
<g id="node26" class="node"><title>Node26</title>
<g id="a_node26"><a xlink:href="../../d4/de2/BaseCluster_8h.html" target="_top" xlink:title="DetectorsBase/BaseCluster.h">
<polygon fill="none" stroke="black" points="1265.5,-254.5 1265.5,-273.5 1412.5,-273.5 1412.5,-254.5 1265.5,-254.5"/>
<text text-anchor="middle" x="1339" y="-261.5" font-family="Helvetica,sans-Serif" font-size="10.00">DetectorsBase/BaseCluster.h</text>
</a>
</g>
</g>
<!-- Node17&#45;&gt;Node26 -->
<g id="edge28" class="edge"><title>Node17&#45;&gt;Node26</title>
<path fill="none" stroke="midnightblue" d="M1402.4,-316.403C1390.75,-306.958 1371.81,-291.606 1357.67,-280.134"/>
<polygon fill="midnightblue" stroke="midnightblue" points="1359.55,-277.16 1349.58,-273.581 1355.15,-282.597 1359.55,-277.16"/>
</g>
<!-- Node31 -->
<g id="node31" class="node"><title>Node31</title>
<g id="a_node31"><a xlink:href="../../dd/d76/Cartesian3D_8h.html" target="_top" xlink:title="MathUtils/Cartesian3D.h">
<polygon fill="none" stroke="black" points="887.5,-136.5 887.5,-155.5 1012.5,-155.5 1012.5,-136.5 887.5,-136.5"/>
<text text-anchor="middle" x="950" y="-143.5" font-family="Helvetica,sans-Serif" font-size="10.00">MathUtils/Cartesian3D.h</text>
</a>
</g>
</g>
<!-- Node17&#45;&gt;Node31 -->
<g id="edge64" class="edge"><title>Node17&#45;&gt;Node31</title>
<path fill="none" stroke="midnightblue" d="M1353.59,-322.991C1238.98,-318.543 996.213,-306.123 969,-280 938.102,-250.34 941.754,-194.801 946.288,-165.768"/>
<polygon fill="midnightblue" stroke="midnightblue" points="949.769,-166.187 948.062,-155.73 942.875,-164.969 949.769,-166.187"/>
</g>
<!-- Node45 -->
<g id="node45" class="node"><title>Node45</title>
<g id="a_node45"><a xlink:href="../../d9/ded/Utils_8h.html" target="_top" xlink:title="DetectorsBase/Utils.h">
<polygon fill="none" stroke="black" points="1624.5,-74.5 1624.5,-93.5 1737.5,-93.5 1737.5,-74.5 1624.5,-74.5"/>
<text text-anchor="middle" x="1681" y="-81.5" font-family="Helvetica,sans-Serif" font-size="10.00">DetectorsBase/Utils.h</text>
</a>
</g>
</g>
<!-- Node17&#45;&gt;Node45 -->
<g id="edge63" class="edge"><title>Node17&#45;&gt;Node45</title>
<path fill="none" stroke="midnightblue" d="M1423.06,-316.434C1440.58,-301.69 1478.07,-270.896 1512,-248 1538.41,-230.178 1549.6,-232.487 1574,-212 1614.32,-178.155 1651.55,-127.988 1669.59,-101.996"/>
<polygon fill="midnightblue" stroke="midnightblue" points="1672.59,-103.819 1675.34,-93.5883 1666.81,-99.8674 1672.59,-103.819"/>
</g>
<!-- Node46 -->
<g id="node46" class="node"><title>Node46</title>
<g id="a_node46"><a xlink:href="../../d1/daa/Base_2include_2DetectorsBase_2Constants_8h.html" target="_top" xlink:title="DetectorsBase/Constants.h">
<polygon fill="none" stroke="black" points="1764,-6.5 1764,-25.5 1902,-25.5 1902,-6.5 1764,-6.5"/>
<text text-anchor="middle" x="1833" y="-13.5" font-family="Helvetica,sans-Serif" font-size="10.00">DetectorsBase/Constants.h</text>
</a>
</g>
</g>
<!-- Node17&#45;&gt;Node46 -->
<g id="edge62" class="edge"><title>Node17&#45;&gt;Node46</title>
<path fill="none" stroke="midnightblue" d="M1472.11,-321.746C1561.58,-316.154 1726.71,-303.042 1781,-280 1831.03,-258.765 1876,-257.35 1876,-203 1876,-203 1876,-203 1876,-145 1876,-103.77 1855.7,-58.7771 1843,-34.6513"/>
<polygon fill="midnightblue" stroke="midnightblue" points="1845.96,-32.7675 1838.1,-25.6611 1839.81,-36.1168 1845.96,-32.7675"/>
</g>
<!-- Node26&#45;&gt;Node4 -->
<g id="edge33" class="edge"><title>Node26&#45;&gt;Node4</title>
<path fill="none" stroke="midnightblue" d="M1412.63,-257.257C1460.78,-251.098 1523.83,-238.353 1574,-212 1617.7,-189.045 1613.31,-162.437 1655,-136 1691.73,-112.707 1705.62,-116.171 1746,-100 1748.09,-99.1625 1750.25,-98.2958 1752.42,-97.421"/>
<polygon fill="midnightblue" stroke="midnightblue" points="1753.92,-100.589 1761.88,-93.5977 1751.3,-94.0993 1753.92,-100.589"/>
</g>
<!-- Node27 -->
<g id="node27" class="node"><title>Node27</title>
<polygon fill="none" stroke="#bfbfbf" points="1148.5,-192.5 1148.5,-211.5 1207.5,-211.5 1207.5,-192.5 1148.5,-192.5"/>
<text text-anchor="middle" x="1178" y="-199.5" font-family="Helvetica,sans-Serif" font-size="10.00">TObject.h</text>
</g>
<!-- Node26&#45;&gt;Node27 -->
<g id="edge29" class="edge"><title>Node26&#45;&gt;Node27</title>
<path fill="none" stroke="midnightblue" d="M1315.93,-254.403C1288.32,-244.111 1241.88,-226.806 1210.6,-215.15"/>
<polygon fill="midnightblue" stroke="midnightblue" points="1211.62,-211.793 1201.02,-211.581 1209.17,-218.352 1211.62,-211.793"/>
</g>
<!-- Node28 -->
<g id="node28" class="node"><title>Node28</title>
<polygon fill="none" stroke="#bfbfbf" points="1225.5,-192.5 1225.5,-211.5 1266.5,-211.5 1266.5,-192.5 1225.5,-192.5"/>
<text text-anchor="middle" x="1246" y="-199.5" font-family="Helvetica,sans-Serif" font-size="10.00">bitset</text>
</g>
<!-- Node26&#45;&gt;Node28 -->
<g id="edge30" class="edge"><title>Node26&#45;&gt;Node28</title>
<path fill="none" stroke="midnightblue" d="M1325.68,-254.403C1310.62,-244.691 1285.88,-228.732 1267.96,-217.17"/>
<polygon fill="midnightblue" stroke="midnightblue" points="1269.6,-214.061 1259.3,-211.581 1265.81,-219.943 1269.6,-214.061"/>
</g>
<!-- Node29 -->
<g id="node29" class="node"><title>Node29</title>
<polygon fill="none" stroke="#bfbfbf" points="1285,-192.5 1285,-211.5 1335,-211.5 1335,-192.5 1285,-192.5"/>
<text text-anchor="middle" x="1310" y="-199.5" font-family="Helvetica,sans-Serif" font-size="10.00">iomanip</text>
</g>
<!-- Node26&#45;&gt;Node29 -->
<g id="edge31" class="edge"><title>Node26&#45;&gt;Node29</title>
<path fill="none" stroke="midnightblue" d="M1334.85,-254.403C1330.62,-245.671 1323.96,-231.889 1318.6,-220.794"/>
<polygon fill="midnightblue" stroke="midnightblue" points="1321.65,-219.061 1314.15,-211.581 1315.35,-222.107 1321.65,-219.061"/>
</g>
<!-- Node30 -->
<g id="node30" class="node"><title>Node30</title>
<polygon fill="none" stroke="#bfbfbf" points="1353.5,-192.5 1353.5,-211.5 1382.5,-211.5 1382.5,-192.5 1353.5,-192.5"/>
<text text-anchor="middle" x="1368" y="-199.5" font-family="Helvetica,sans-Serif" font-size="10.00">ios</text>
</g>
<!-- Node26&#45;&gt;Node30 -->
<g id="edge32" class="edge"><title>Node26&#45;&gt;Node30</title>
<path fill="none" stroke="midnightblue" d="M1343.15,-254.403C1347.38,-245.671 1354.04,-231.889 1359.4,-220.794"/>
<polygon fill="midnightblue" stroke="midnightblue" points="1362.65,-222.107 1363.85,-211.581 1356.35,-219.061 1362.65,-222.107"/>
</g>
<!-- Node26&#45;&gt;Node31 -->
<g id="edge34" class="edge"><title>Node26&#45;&gt;Node31</title>
<path fill="none" stroke="midnightblue" d="M1301.89,-254.495C1261.55,-245.027 1195.31,-228.83 1139,-212 1083.54,-195.423 1020.11,-172.85 982.64,-159.134"/>
<polygon fill="midnightblue" stroke="midnightblue" points="983.382,-155.678 972.789,-155.513 980.967,-162.248 983.382,-155.678"/>
</g>
<!-- Node41 -->
<g id="node41" class="node"><title>Node41</title>
<g id="a_node41"><a xlink:href="../../d4/d20/DetMatrixCache_8h.html" target="_top" xlink:title="DetectorsBase/DetMatrixCache.h">
<polygon fill="none" stroke="black" points="1401,-192.5 1401,-211.5 1565,-211.5 1565,-192.5 1401,-192.5"/>
<text text-anchor="middle" x="1483" y="-199.5" font-family="Helvetica,sans-Serif" font-size="10.00">DetectorsBase/DetMatrixCache.h</text>
</a>
</g>
</g>
<!-- Node26&#45;&gt;Node41 -->
<g id="edge46" class="edge"><title>Node26&#45;&gt;Node41</title>
<path fill="none" stroke="midnightblue" d="M1359.63,-254.403C1384.12,-244.2 1425.15,-227.105 1453.11,-215.454"/>
<polygon fill="midnightblue" stroke="midnightblue" points="1454.52,-218.658 1462.41,-211.581 1451.83,-212.196 1454.52,-218.658"/>
</g>
<!-- Node31&#45;&gt;Node4 -->
<g id="edge45" class="edge"><title>Node31&#45;&gt;Node4</title>
<path fill="none" stroke="midnightblue" d="M1012.72,-144.104C1175.19,-141.361 1606.73,-131.264 1746,-100 1749.25,-99.2713 1752.58,-98.2885 1755.84,-97.1725"/>
<polygon fill="midnightblue" stroke="midnightblue" points="1757.23,-100.39 1765.32,-93.546 1754.73,-93.8531 1757.23,-100.39"/>
</g>
<!-- Node31&#45;&gt;Node18 -->
<g id="edge38" class="edge"><title>Node31&#45;&gt;Node18</title>
<path fill="none" stroke="midnightblue" d="M1012.69,-140.071C1074.6,-134.185 1171.55,-122.217 1253,-100 1255.98,-99.1871 1259.04,-98.2028 1262.07,-97.1312"/>
<polygon fill="midnightblue" stroke="midnightblue" points="1263.4,-100.371 1271.48,-93.5145 1260.89,-93.8374 1263.4,-100.371"/>
</g>
<!-- Node32 -->
<g id="node32" class="node"><title>Node32</title>
<polygon fill="none" stroke="#bfbfbf" points="920.5,-74.5 920.5,-93.5 1069.5,-93.5 1069.5,-74.5 920.5,-74.5"/>
<text text-anchor="middle" x="995" y="-81.5" font-family="Helvetica,sans-Serif" font-size="10.00">Math/GenVector/Rotation3D.h</text>
</g>
<!-- Node31&#45;&gt;Node32 -->
<g id="edge35" class="edge"><title>Node31&#45;&gt;Node32</title>
<path fill="none" stroke="midnightblue" d="M956.447,-136.403C963.197,-127.403 973.969,-113.041 982.413,-101.782"/>
<polygon fill="midnightblue" stroke="midnightblue" points="985.365,-103.681 988.565,-93.5806 979.765,-99.4806 985.365,-103.681"/>
</g>
<!-- Node33 -->
<g id="node33" class="node"><title>Node33</title>
<polygon fill="none" stroke="#bfbfbf" points="1088,-74.5 1088,-93.5 1244,-93.5 1244,-74.5 1088,-74.5"/>
<text text-anchor="middle" x="1166" y="-81.5" font-family="Helvetica,sans-Serif" font-size="10.00">Math/GenVector/Transform3D.h</text>
</g>
<!-- Node31&#45;&gt;Node33 -->
<g id="edge36" class="edge"><title>Node31&#45;&gt;Node33</title>
<path fill="none" stroke="midnightblue" d="M980.948,-136.403C1018.88,-125.866 1083.28,-107.978 1125.22,-96.3276"/>
<polygon fill="midnightblue" stroke="midnightblue" points="1126.41,-99.6294 1135.11,-93.5806 1124.54,-92.8848 1126.41,-99.6294"/>
</g>
<!-- Node34 -->
<g id="node34" class="node"><title>Node34</title>
<polygon fill="none" stroke="#bfbfbf" points="455,-74.5 455,-93.5 615,-93.5 615,-74.5 455,-74.5"/>
<text text-anchor="middle" x="535" y="-81.5" font-family="Helvetica,sans-Serif" font-size="10.00">Math/GenVector/Translation3D.h</text>
</g>
<!-- Node31&#45;&gt;Node34 -->
<g id="edge37" class="edge"><title>Node31&#45;&gt;Node34</title>
<path fill="none" stroke="midnightblue" d="M887.423,-136.925C821.734,-128.317 715.489,-114.021 624,-100 614.242,-98.5046 603.897,-96.8368 593.845,-95.172"/>
<polygon fill="midnightblue" stroke="midnightblue" points="594.362,-91.71 583.922,-93.5147 593.209,-98.6144 594.362,-91.71"/>
</g>
<!-- Node35 -->
<g id="node35" class="node"><title>Node35</title>
<polygon fill="none" stroke="#bfbfbf" points="633,-74.5 633,-93.5 709,-93.5 709,-74.5 633,-74.5"/>
<text text-anchor="middle" x="671" y="-81.5" font-family="Helvetica,sans-Serif" font-size="10.00">TGeoMatrix.h</text>
</g>
<!-- Node31&#45;&gt;Node35 -->
<g id="edge39" class="edge"><title>Node31&#45;&gt;Node35</title>
<path fill="none" stroke="midnightblue" d="M896.624,-136.479C849.344,-128.498 778.619,-115.495 718,-100 714.097,-99.0024 710.042,-97.865 706.022,-96.673"/>
<polygon fill="midnightblue" stroke="midnightblue" points="706.797,-93.2494 696.21,-93.6456 704.734,-99.9383 706.797,-93.2494"/>
</g>
<!-- Node36 -->
<g id="node36" class="node"><title>Node36</title>
<polygon fill="none" stroke="#bfbfbf" points="285.5,-69 285.5,-99 436.5,-99 436.5,-69 285.5,-69"/>
<text text-anchor="start" x="293.5" y="-87" font-family="Helvetica,sans-Serif" font-size="10.00">Math/GenVector/Displacement</text>
<text text-anchor="middle" x="361" y="-76" font-family="Helvetica,sans-Serif" font-size="10.00">Vector3D.h</text>
</g>
<!-- Node31&#45;&gt;Node36 -->
<g id="edge40" class="edge"><title>Node31&#45;&gt;Node36</title>
<path fill="none" stroke="midnightblue" d="M887.345,-141.137C793.81,-134.988 611.933,-121.558 447.269,-100.094"/>
<polygon fill="midnightblue" stroke="midnightblue" points="447.321,-96.5705 436.95,-98.735 446.407,-103.511 447.321,-96.5705"/>
</g>
<!-- Node37 -->
<g id="node37" class="node"><title>Node37</title>
<polygon fill="none" stroke="#bfbfbf" points="727,-74.5 727,-93.5 903,-93.5 903,-74.5 727,-74.5"/>
<text text-anchor="middle" x="815" y="-81.5" font-family="Helvetica,sans-Serif" font-size="10.00">Math/GenVector/PositionVector3D.h</text>
</g>
<!-- Node31&#45;&gt;Node37 -->
<g id="edge41" class="edge"><title>Node31&#45;&gt;Node37</title>
<path fill="none" stroke="midnightblue" d="M930.658,-136.403C907.901,-126.29 869.908,-109.404 843.712,-97.761"/>
<polygon fill="midnightblue" stroke="midnightblue" points="844.866,-94.4437 834.306,-93.5806 842.023,-100.84 844.866,-94.4437"/>
</g>
<!-- Node38 -->
<g id="node38" class="node"><title>Node38</title>
<g id="a_node38"><a xlink:href="../../d2/dd0/Cartesian2D_8h.html" target="_top" xlink:title="MathUtils/Cartesian2D.h">
<polygon fill="none" stroke="black" points="103.5,-74.5 103.5,-93.5 228.5,-93.5 228.5,-74.5 103.5,-74.5"/>
<text text-anchor="middle" x="166" y="-81.5" font-family="Helvetica,sans-Serif" font-size="10.00">MathUtils/Cartesian2D.h</text>
</a>
</g>
</g>
<!-- Node31&#45;&gt;Node38 -->
<g id="edge42" class="edge"><title>Node31&#45;&gt;Node38</title>
<path fill="none" stroke="midnightblue" d="M887.157,-142.251C767.829,-136.711 500.309,-122.755 276,-100 262.113,-98.5912 247.279,-96.7791 233.147,-94.9045"/>
<polygon fill="midnightblue" stroke="midnightblue" points="233.382,-91.4046 223.003,-93.5334 232.444,-98.3415 233.382,-91.4046"/>
</g>
<!-- Node39 -->
<g id="node39" class="node"><title>Node39</title>
<polygon fill="none" stroke="#bfbfbf" points="-0.5,-1 -0.5,-31 150.5,-31 150.5,-1 -0.5,-1"/>
<text text-anchor="start" x="7.5" y="-19" font-family="Helvetica,sans-Serif" font-size="10.00">Math/GenVector/Displacement</text>
<text text-anchor="middle" x="75" y="-8" font-family="Helvetica,sans-Serif" font-size="10.00">Vector2D.h</text>
</g>
<!-- Node38&#45;&gt;Node39 -->
<g id="edge43" class="edge"><title>Node38&#45;&gt;Node39</title>
<path fill="none" stroke="midnightblue" d="M154.103,-74.3717C141.221,-65.0286 120.22,-49.7966 103.093,-37.375"/>
<polygon fill="midnightblue" stroke="midnightblue" points="104.703,-34.2194 94.5532,-31.1815 100.593,-39.8859 104.703,-34.2194"/>
</g>
<!-- Node40 -->
<g id="node40" class="node"><title>Node40</title>
<polygon fill="none" stroke="#bfbfbf" points="169,-6.5 169,-25.5 345,-25.5 345,-6.5 169,-6.5"/>
<text text-anchor="middle" x="257" y="-13.5" font-family="Helvetica,sans-Serif" font-size="10.00">Math/GenVector/PositionVector2D.h</text>
</g>
<!-- Node38&#45;&gt;Node40 -->
<g id="edge44" class="edge"><title>Node38&#45;&gt;Node40</title>
<path fill="none" stroke="midnightblue" d="M177.897,-74.3717C192.884,-63.5015 218.862,-44.6602 236.942,-31.5474"/>
<polygon fill="midnightblue" stroke="midnightblue" points="239.06,-34.3349 245.1,-25.6305 234.95,-28.6684 239.06,-34.3349"/>
</g>
<!-- Node41&#45;&gt;Node2 -->
<g id="edge47" class="edge"><title>Node41&#45;&gt;Node2</title>
<path fill="none" stroke="midnightblue" d="M1400.76,-192.701C1397.47,-192.449 1394.2,-192.214 1391,-192 903.554,-159.484 308.352,-149.461 163.773,-147.426"/>
<polygon fill="midnightblue" stroke="midnightblue" points="163.448,-143.921 153.401,-147.283 163.351,-150.92 163.448,-143.921"/>
</g>
<!-- Node41&#45;&gt;Node18 -->
<g id="edge60" class="edge"><title>Node41&#45;&gt;Node18</title>
<path fill="none" stroke="midnightblue" d="M1429.9,-192.485C1386.89,-184.594 1330.79,-171.72 1314,-156 1299.63,-142.546 1293.86,-120.199 1291.55,-104.168"/>
<polygon fill="midnightblue" stroke="midnightblue" points="1294.98,-103.381 1290.4,-93.8283 1288.03,-104.154 1294.98,-103.381"/>
</g>
<!-- Node41&#45;&gt;Node20 -->
<g id="edge48" class="edge"><title>Node41&#45;&gt;Node20</title>
<path fill="none" stroke="midnightblue" d="M1404.63,-192.408C1382.43,-185.932 1360.62,-174.849 1347,-156 1320.6,-119.46 1341.83,-63.0166 1355.59,-34.6092"/>
<polygon fill="midnightblue" stroke="midnightblue" points="1358.81,-36.0015 1360.21,-25.5006 1352.56,-32.8317 1358.81,-36.0015"/>
</g>
<!-- Node41&#45;&gt;Node31 -->
<g id="edge49" class="edge"><title>Node41&#45;&gt;Node31</title>
<path fill="none" stroke="midnightblue" d="M1400.89,-192.681C1297.52,-182.209 1121.57,-164.382 1022.8,-154.376"/>
<polygon fill="midnightblue" stroke="midnightblue" points="1022.92,-150.87 1012.61,-153.344 1022.21,-157.834 1022.92,-150.87"/>
</g>
<!-- Node42 -->
<g id="node42" class="node"><title>Node42</title>
<g id="a_node42"><a xlink:href="../../d6/d31/DetID_8h.html" target="_top" xlink:title="DetectorsBase/DetID.h">
<polygon fill="none" stroke="black" points="1445.5,-136.5 1445.5,-155.5 1564.5,-155.5 1564.5,-136.5 1445.5,-136.5"/>
<text text-anchor="middle" x="1505" y="-143.5" font-family="Helvetica,sans-Serif" font-size="10.00">DetectorsBase/DetID.h</text>
</a>
</g>
</g>
<!-- Node41&#45;&gt;Node42 -->
<g id="edge50" class="edge"><title>Node41&#45;&gt;Node42</title>
<path fill="none" stroke="midnightblue" d="M1486.63,-192.083C1489.61,-184.77 1493.93,-174.181 1497.62,-165.103"/>
<polygon fill="midnightblue" stroke="midnightblue" points="1500.9,-166.333 1501.43,-155.751 1494.42,-163.691 1500.9,-166.333"/>
</g>
<!-- Node48 -->
<g id="node48" class="node"><title>Node48</title>
<polygon fill="none" stroke="#bfbfbf" points="1356.5,-136.5 1356.5,-155.5 1427.5,-155.5 1427.5,-136.5 1356.5,-136.5"/>
<text text-anchor="middle" x="1392" y="-143.5" font-family="Helvetica,sans-Serif" font-size="10.00">FairLogger.h</text>
</g>
<!-- Node41&#45;&gt;Node48 -->
<g id="edge61" class="edge"><title>Node41&#45;&gt;Node48</title>
<path fill="none" stroke="midnightblue" d="M1468.38,-192.324C1454.05,-183.822 1431.99,-170.729 1415.25,-160.797"/>
<polygon fill="midnightblue" stroke="midnightblue" points="1416.97,-157.748 1406.58,-155.655 1413.4,-163.768 1416.97,-157.748"/>
</g>
<!-- Node42&#45;&gt;Node18 -->
<g id="edge54" class="edge"><title>Node42&#45;&gt;Node18</title>
<path fill="none" stroke="midnightblue" d="M1474.2,-136.403C1435.58,-125.627 1369.41,-107.161 1327.78,-95.5431"/>
<polygon fill="midnightblue" stroke="midnightblue" points="1328.58,-92.1339 1318.01,-92.817 1326.7,-98.8763 1328.58,-92.1339"/>
</g>
<!-- Node42&#45;&gt;Node20 -->
<g id="edge52" class="edge"><title>Node42&#45;&gt;Node20</title>
<path fill="none" stroke="midnightblue" d="M1470.16,-136.489C1448.55,-129.688 1421.47,-118.212 1403,-100 1384.88,-82.1298 1374.54,-54.0204 1369.35,-35.5488"/>
<polygon fill="midnightblue" stroke="midnightblue" points="1372.7,-34.5147 1366.81,-25.7037 1365.92,-36.2606 1372.7,-34.5147"/>
</g>
<!-- Node43 -->
<g id="node43" class="node"><title>Node43</title>
<polygon fill="none" stroke="#bfbfbf" points="1480,-74.5 1480,-93.5 1526,-93.5 1526,-74.5 1480,-74.5"/>
<text text-anchor="middle" x="1503" y="-81.5" font-family="Helvetica,sans-Serif" font-size="10.00">cstdint</text>
</g>
<!-- Node42&#45;&gt;Node43 -->
<g id="edge51" class="edge"><title>Node42&#45;&gt;Node43</title>
<path fill="none" stroke="midnightblue" d="M1504.71,-136.403C1504.43,-127.938 1503.99,-114.728 1503.63,-103.82"/>
<polygon fill="midnightblue" stroke="midnightblue" points="1507.12,-103.458 1503.29,-93.5806 1500.12,-103.692 1507.12,-103.458"/>
</g>
<!-- Node44 -->
<g id="node44" class="node"><title>Node44</title>
<polygon fill="none" stroke="#bfbfbf" points="1544,-74.5 1544,-93.5 1606,-93.5 1606,-74.5 1544,-74.5"/>
<text text-anchor="middle" x="1575" y="-81.5" font-family="Helvetica,sans-Serif" font-size="10.00">type_traits</text>
</g>
<!-- Node42&#45;&gt;Node44 -->
<g id="edge53" class="edge"><title>Node42&#45;&gt;Node44</title>
<path fill="none" stroke="midnightblue" d="M1515.03,-136.403C1526.05,-126.958 1543.96,-111.606 1557.34,-100.134"/>
<polygon fill="midnightblue" stroke="midnightblue" points="1559.67,-102.746 1564.99,-93.5806 1555.12,-97.4311 1559.67,-102.746"/>
</g>
<!-- Node42&#45;&gt;Node45 -->
<g id="edge55" class="edge"><title>Node42&#45;&gt;Node45</title>
<path fill="none" stroke="midnightblue" d="M1530.22,-136.403C1560.67,-126.022 1612.05,-108.506 1646.24,-96.849"/>
<polygon fill="midnightblue" stroke="midnightblue" points="1647.49,-100.12 1655.83,-93.5806 1645.24,-93.4946 1647.49,-100.12"/>
</g>
<!-- Node47 -->
<g id="node47" class="node"><title>Node47</title>
<polygon fill="none" stroke="#bfbfbf" points="1412.5,-74.5 1412.5,-93.5 1461.5,-93.5 1461.5,-74.5 1412.5,-74.5"/>
<text text-anchor="middle" x="1437" y="-81.5" font-family="Helvetica,sans-Serif" font-size="10.00">cassert</text>
</g>
<!-- Node42&#45;&gt;Node47 -->
<g id="edge59" class="edge"><title>Node42&#45;&gt;Node47</title>
<path fill="none" stroke="midnightblue" d="M1495.26,-136.403C1484.65,-127.047 1467.48,-111.895 1454.52,-100.46"/>
<polygon fill="midnightblue" stroke="midnightblue" points="1456.54,-97.5724 1446.72,-93.5806 1451.91,-102.821 1456.54,-97.5724"/>
</g>
<!-- Node45&#45;&gt;Node20 -->
<g id="edge58" class="edge"><title>Node45&#45;&gt;Node20</title>
<path fill="none" stroke="midnightblue" d="M1643.46,-74.47C1633.87,-72.3236 1623.56,-70.0484 1614,-68 1534.54,-50.9699 1440.55,-32.0501 1394.05,-22.7719"/>
<polygon fill="midnightblue" stroke="midnightblue" points="1394.57,-19.3066 1384.08,-20.7847 1393.2,-26.1716 1394.57,-19.3066"/>
</g>
<!-- Node45&#45;&gt;Node22 -->
<g id="edge57" class="edge"><title>Node45&#45;&gt;Node22</title>
<path fill="none" stroke="midnightblue" d="M1681,-74.3717C1681,-64.6426 1681,-48.528 1681,-35.8504"/>
<polygon fill="midnightblue" stroke="midnightblue" points="1684.5,-35.8411 1681,-25.8411 1677.5,-35.8412 1684.5,-35.8411"/>
</g>
<!-- Node45&#45;&gt;Node46 -->
<g id="edge56" class="edge"><title>Node45&#45;&gt;Node46</title>
<path fill="none" stroke="midnightblue" d="M1700.87,-74.3717C1727.16,-62.958 1773.68,-42.7562 1803.92,-29.6252"/>
<polygon fill="midnightblue" stroke="midnightblue" points="1805.35,-32.8238 1813.12,-25.6305 1802.56,-26.403 1805.35,-32.8238"/>
</g>
<!-- Node49&#45;&gt;Node22 -->
<g id="edge66" class="edge"><title>Node49&#45;&gt;Node22</title>
<path fill="none" stroke="midnightblue" d="M378.568,-192.429C334.84,-171.042 231.702,-113.749 276,-68 319.19,-23.3958 1330.97,-34.6148 1393,-32 1485.9,-28.0842 1595.57,-21.9562 1648.79,-18.8861"/>
<polygon fill="midnightblue" stroke="midnightblue" points="1649.19,-22.3693 1658.97,-18.2968 1648.78,-15.381 1649.19,-22.3693"/>
</g>
<!-- Node49&#45;&gt;Node31 -->
<g id="edge68" class="edge"><title>Node49&#45;&gt;Node31</title>
<path fill="none" stroke="midnightblue" d="M443.197,-196.489C539.328,-187.102 761.53,-165.404 877.141,-154.115"/>
<polygon fill="midnightblue" stroke="midnightblue" points="877.699,-157.577 887.311,-153.122 877.018,-150.61 877.699,-157.577"/>
</g>
<!-- Node49&#45;&gt;Node38 -->
<g id="edge67" class="edge"><title>Node49&#45;&gt;Node38</title>
<path fill="none" stroke="midnightblue" d="M350.677,-193.262C318.903,-186.601 276.582,-174.987 243,-156 217.659,-141.672 193.899,-117.498 179.654,-101.396"/>
<polygon fill="midnightblue" stroke="midnightblue" points="182.293,-99.0965 173.113,-93.8059 176.99,-103.666 182.293,-99.0965"/>
</g>
</g>
</svg>
        <g id="navigator" transform="translate(0 0)" fill="#404254">
                <rect fill="#f2f5e9" fill-opacity="0.5" stroke="#606060" stroke-width=".5" x="0" y="0" width="60" height="60"/>
                <use id="zoomplus" xlink:href="#zoomPlus" x="17" y="9" onmousedown="handleZoom(evt,'in')"/>
                <use id="zoomminus" xlink:href="#zoomMin" x="42" y="9" onmousedown="handleZoom(evt,'out')"/>
                <use id="reset" xlink:href="#resetDef" x="30" y="36" onmousedown="handleReset()"/>
                <g id="arrowUp" xlink:href="#dirArrow" transform="translate(30 24)" onmousedown="handlePan(0,-1)">
                  <use xlink:href="#rim" fill="#404040">
                        <set attributeName="fill" to="#808080" begin="arrowUp.mouseover" end="arrowUp.mouseout"/>
                  </use>
                  <path fill="none" stroke="white" stroke-width="1.5" d="M0,-3.0v7 M-2.5,-0.5L0,-3.0L2.5,-0.5"/>
                </g>
                <g id="arrowRight" xlink:href="#dirArrow" transform="rotate(90) translate(36 -43)" onmousedown="handlePan(1,0)">
                  <use xlink:href="#rim" fill="#404040">
                        <set attributeName="fill" to="#808080" begin="arrowRight.mouseover" end="arrowRight.mouseout"/>
                  </use>
                  <path fill="none" stroke="white" stroke-width="1.5" d="M0,-3.0v7 M-2.5,-0.5L0,-3.0L2.5,-0.5"/>
                </g>
                <g id="arrowDown" xlink:href="#dirArrow" transform="rotate(180) translate(-30 -48)" onmousedown="handlePan(0,1)">
                  <use xlink:href="#rim" fill="#404040">
                        <set attributeName="fill" to="#808080" begin="arrowDown.mouseover" end="arrowDown.mouseout"/>
                  </use>
                  <path fill="none" stroke="white" stroke-width="1.5" d="M0,-3.0v7 M-2.5,-0.5L0,-3.0L2.5,-0.5"/>
                </g>
                <g id="arrowLeft" xlink:href="#dirArrow" transform="rotate(270) translate(-36 17)" onmousedown="handlePan(-1,0)">
                  <use xlink:href="#rim" fill="#404040">
                        <set attributeName="fill" to="#808080" begin="arrowLeft.mouseover" end="arrowLeft.mouseout"/>
                  </use>
                  <path fill="none" stroke="white" stroke-width="1.5" d="M0,-3.0v7 M-2.5,-0.5L0,-3.0L2.5,-0.5"/>
                </g>
        </g>
        <svg viewBox="0 0 15 15" width="100%" height="30px" preserveAspectRatio="xMaxYMin meet">
         <g id="arrow_out" transform="scale(0.3 0.3)">
          <a xlink:href="runCATracking_8C__incl_org.svg" target="_base">
           <rect id="button" ry="5" rx="5" y="6" x="6" height="38" width="38"
                fill="#f2f5e9" fill-opacity="0.5" stroke="#606060" stroke-width="1.0"/>
           <path id="arrow"
             d="M 11.500037,31.436501 C 11.940474,20.09759 22.043105,11.32322 32.158766,21.979434 L 37.068811,17.246167 C 37.068811,17.246167 37.088388,32 37.088388,32 L 22.160133,31.978069 C 22.160133,31.978069 26.997745,27.140456 26.997745,27.140456 C 18.528582,18.264221 13.291696,25.230495 11.500037,31.436501 z"
             style="fill:#404040;"/>
          </a>
         </g>
        </svg>
</svg>
