<?xml version="1.0" encoding="UTF-8" standalone="no"?>
<!DOCTYPE svg PUBLIC "-//W3C//DTD SVG 1.1//EN"
 "http://www.w3.org/Graphics/SVG/1.1/DTD/svg11.dtd">
<!-- Generated by graphviz version 2.36.0 (20140111.2315)
 -->
<!-- Title: /home/travis/build/AliceO2Group/AliceO2/Generators/include/Generators/GeneratorFromFile.h Pages: 1 -->
<svg width="770pt" height="230pt"
 viewBox="0.00 0.00 770.00 230.00" xmlns="http://www.w3.org/2000/svg" xmlns:xlink="http://www.w3.org/1999/xlink">
<g id="graph0" class="graph" transform="scale(1 1) rotate(0) translate(4 226)">
<title>/home/travis/build/AliceO2Group/AliceO2/Generators/include/Generators/GeneratorFromFile.h</title>
<!-- Node1 -->
<g id="node1" class="node"><title>Node1</title>
<polygon fill="#bfbfbf" stroke="black" points="338,-169 338,-221 490,-221 490,-169 338,-169"/>
<text text-anchor="start" x="346" y="-209" font-family="Helvetica,sans-Serif" font-size="10.00">/home/travis/build</text>
<text text-anchor="start" x="346" y="-198" font-family="Helvetica,sans-Serif" font-size="10.00">/AliceO2Group/AliceO2</text>
<text text-anchor="start" x="346" y="-187" font-family="Helvetica,sans-Serif" font-size="10.00">/Generators/include/Generators</text>
<text text-anchor="middle" x="414" y="-176" font-family="Helvetica,sans-Serif" font-size="10.00">/GeneratorFromFile.h</text>
</g>
<!-- Node2 -->
<g id="node2" class="node"><title>Node2</title>
<g id="a_node2"><a xlink:href="../../d3/d85/Detectors_2EMCAL_2testsimulation_2run__sim__emcal_8C.html" target="_top" xlink:title="/home/travis/build\l/AliceO2Group/AliceO2\l/Detectors/EMCAL/testsimulation\l/run_sim_emcal.C">
<polygon fill="none" stroke="black" points="0,-79 0,-131 164,-131 164,-79 0,-79"/>
<text text-anchor="start" x="8" y="-119" font-family="Helvetica,sans-Serif" font-size="10.00">/home/travis/build</text>
<text text-anchor="start" x="8" y="-108" font-family="Helvetica,sans-Serif" font-size="10.00">/AliceO2Group/AliceO2</text>
<text text-anchor="start" x="8" y="-97" font-family="Helvetica,sans-Serif" font-size="10.00">/Detectors/EMCAL/testsimulation</text>
<text text-anchor="middle" x="82" y="-86" font-family="Helvetica,sans-Serif" font-size="10.00">/run_sim_emcal.C</text>
</a>
</g>
</g>
<!-- Node1&#45;&gt;Node2 -->
<g id="edge1" class="edge"><title>Node1&#45;&gt;Node2</title>
<path fill="none" stroke="midnightblue" d="M328.061,-172.301C282.258,-160.609 224.99,-145.79 174,-132 170.796,-131.133 167.53,-130.244 164.233,-129.339"/>
<polygon fill="midnightblue" stroke="midnightblue" points="327.396,-175.743 337.951,-174.822 329.126,-168.96 327.396,-175.743"/>
</g>
<!-- Node3 -->
<g id="node3" class="node"><title>Node3</title>
<g id="a_node3"><a xlink:href="../../d7/d11/o2__sim__tpc_8cxx.html" target="_top" xlink:title="/home/travis/build\l/AliceO2Group/AliceO2\l/Framework/TestWorkflows\l/src/o2_sim_tpc.cxx">
<polygon fill="none" stroke="black" points="182.5,-79 182.5,-131 319.5,-131 319.5,-79 182.5,-79"/>
<text text-anchor="start" x="190.5" y="-119" font-family="Helvetica,sans-Serif" font-size="10.00">/home/travis/build</text>
<text text-anchor="start" x="190.5" y="-108" font-family="Helvetica,sans-Serif" font-size="10.00">/AliceO2Group/AliceO2</text>
<text text-anchor="start" x="190.5" y="-97" font-family="Helvetica,sans-Serif" font-size="10.00">/Framework/TestWorkflows</text>
<text text-anchor="middle" x="251" y="-86" font-family="Helvetica,sans-Serif" font-size="10.00">/src/o2_sim_tpc.cxx</text>
</a>
</g>
</g>
<!-- Node1&#45;&gt;Node3 -->
<g id="edge2" class="edge"><title>Node1&#45;&gt;Node3</title>
<path fill="none" stroke="midnightblue" d="M358.358,-163.96C338.525,-153.253 316.412,-141.315 297.434,-131.069"/>
<polygon fill="midnightblue" stroke="midnightblue" points="356.828,-167.112 367.291,-168.783 360.154,-160.952 356.828,-167.112"/>
</g>
<!-- Node4 -->
<g id="node4" class="node"><title>Node4</title>
<g id="a_node4"><a xlink:href="../../d2/d60/GeneratorFromFile_8cxx.html" target="_top" xlink:title="/home/travis/build\l/AliceO2Group/AliceO2\l/Generators/src/GeneratorFrom\lFile.cxx">
<polygon fill="none" stroke="black" points="338,-79 338,-131 490,-131 490,-79 338,-79"/>
<text text-anchor="start" x="346" y="-119" font-family="Helvetica,sans-Serif" font-size="10.00">/home/travis/build</text>
<text text-anchor="start" x="346" y="-108" font-family="Helvetica,sans-Serif" font-size="10.00">/AliceO2Group/AliceO2</text>
<text text-anchor="start" x="346" y="-97" font-family="Helvetica,sans-Serif" font-size="10.00">/Generators/src/GeneratorFrom</text>
<text text-anchor="middle" x="414" y="-86" font-family="Helvetica,sans-Serif" font-size="10.00">File.cxx</text>
</a>
</g>
</g>
<!-- Node1&#45;&gt;Node4 -->
<g id="edge3" class="edge"><title>Node1&#45;&gt;Node4</title>
<path fill="none" stroke="midnightblue" d="M414,-158.489C414,-149.309 414,-139.616 414,-131.092"/>
<polygon fill="midnightblue" stroke="midnightblue" points="410.5,-158.547 414,-168.547 417.5,-158.547 410.5,-158.547"/>
</g>
<!-- Node5 -->
<g id="node5" class="node"><title>Node5</title>
<g id="a_node5"><a xlink:href="../../dc/d6b/o2sim_8C.html" target="_top" xlink:title="/home/travis/build\l/AliceO2Group/AliceO2\l/macro/o2sim.C">
<polygon fill="none" stroke="black" points="508,-84.5 508,-125.5 626,-125.5 626,-84.5 508,-84.5"/>
<text text-anchor="start" x="516" y="-113.5" font-family="Helvetica,sans-Serif" font-size="10.00">/home/travis/build</text>
<text text-anchor="start" x="516" y="-102.5" font-family="Helvetica,sans-Serif" font-size="10.00">/AliceO2Group/AliceO2</text>
<text text-anchor="middle" x="567" y="-91.5" font-family="Helvetica,sans-Serif" font-size="10.00">/macro/o2sim.C</text>
</a>
</g>
</g>
<!-- Node1&#45;&gt;Node5 -->
<g id="edge4" class="edge"><title>Node1&#45;&gt;Node5</title>
<path fill="none" stroke="midnightblue" d="M466.713,-163.682C488.62,-151.081 513.418,-136.819 532.874,-125.628"/>
<polygon fill="midnightblue" stroke="midnightblue" points="464.767,-160.763 457.844,-168.783 468.257,-166.831 464.767,-160.763"/>
</g>
<!-- Node7 -->
<g id="node7" class="node"><title>Node7</title>
<g id="a_node7"><a xlink:href="../../d7/d08/run__sim__tpc_8C.html" target="_top" xlink:title="/home/travis/build\l/AliceO2Group/AliceO2\l/macro/run_sim_tpc.C">
<polygon fill="none" stroke="black" points="644,-84.5 644,-125.5 762,-125.5 762,-84.5 644,-84.5"/>
<text text-anchor="start" x="652" y="-113.5" font-family="Helvetica,sans-Serif" font-size="10.00">/home/travis/build</text>
<text text-anchor="start" x="652" y="-102.5" font-family="Helvetica,sans-Serif" font-size="10.00">/AliceO2Group/AliceO2</text>
<text text-anchor="middle" x="703" y="-91.5" font-family="Helvetica,sans-Serif" font-size="10.00">/macro/run_sim_tpc.C</text>
</a>
</g>
</g>
<!-- Node1&#45;&gt;Node7 -->
<g id="edge6" class="edge"><title>Node1&#45;&gt;Node7</title>
<path fill="none" stroke="midnightblue" d="M499.93,-171.86C541.068,-160.761 590.867,-146.594 635,-132 641,-130.016 647.25,-127.815 653.424,-125.558"/>
<polygon fill="midnightblue" stroke="midnightblue" points="498.961,-168.496 490.21,-174.469 500.776,-175.257 498.961,-168.496"/>
</g>
<!-- Node6 -->
<g id="node6" class="node"><title>Node6</title>
<g id="a_node6"><a xlink:href="../../d8/d07/o2sim_8cxx.html" target="_top" xlink:title="/home/travis/build\l/AliceO2Group/AliceO2\l/run/o2sim.cxx">
<polygon fill="none" stroke="black" points="508,-0.5 508,-41.5 626,-41.5 626,-0.5 508,-0.5"/>
<text text-anchor="start" x="516" y="-29.5" font-family="Helvetica,sans-Serif" font-size="10.00">/home/travis/build</text>
<text text-anchor="start" x="516" y="-18.5" font-family="Helvetica,sans-Serif" font-size="10.00">/AliceO2Group/AliceO2</text>
<text text-anchor="middle" x="567" y="-7.5" font-family="Helvetica,sans-Serif" font-size="10.00">/run/o2sim.cxx</text>
</a>
</g>
</g>
<!-- Node5&#45;&gt;Node6 -->
<g id="edge5" class="edge"><title>Node5&#45;&gt;Node6</title>
<path fill="none" stroke="midnightblue" d="M567,-73.881C567,-63.1328 567,-51.309 567,-41.6671"/>
<polygon fill="midnightblue" stroke="midnightblue" points="563.5,-74.1501 567,-84.1501 570.5,-74.1501 563.5,-74.1501"/>
</g>
<!-- Node8 -->
<g id="node8" class="node"><title>Node8</title>
<g id="a_node8"><a xlink:href="../../d3/d56/runTPC_8cxx.html" target="_top" xlink:title="/home/travis/build\l/AliceO2Group/AliceO2\l/run/runTPC.cxx">
<polygon fill="none" stroke="black" points="644,-0.5 644,-41.5 762,-41.5 762,-0.5 644,-0.5"/>
<text text-anchor="start" x="652" y="-29.5" font-family="Helvetica,sans-Serif" font-size="10.00">/home/travis/build</text>
<text text-anchor="start" x="652" y="-18.5" font-family="Helvetica,sans-Serif" font-size="10.00">/AliceO2Group/AliceO2</text>
<text text-anchor="middle" x="703" y="-7.5" font-family="Helvetica,sans-Serif" font-size="10.00">/run/runTPC.cxx</text>
</a>
</g>
</g>
<!-- Node7&#45;&gt;Node8 -->
<g id="edge7" class="edge"><title>Node7&#45;&gt;Node8</title>
<path fill="none" stroke="midnightblue" d="M703,-73.881C703,-63.1328 703,-51.309 703,-41.6671"/>
<polygon fill="midnightblue" stroke="midnightblue" points="699.5,-74.1501 703,-84.1501 706.5,-74.1501 699.5,-74.1501"/>
</g>
</g>
</svg>
