<?xml version="1.0" encoding="UTF-8" standalone="no"?>
<!DOCTYPE svg PUBLIC "-//W3C//DTD SVG 1.1//EN"
 "http://www.w3.org/Graphics/SVG/1.1/DTD/svg11.dtd">
<!-- Generated by graphviz version 2.36.0 (20140111.2315)
 -->
<!-- Title: /home/travis/build/AliceO2Group/AliceO2/Detectors/TRD/simulation/src/Detector.cxx Pages: 1 -->
<!--zoomable 390 -->
<svg id="main" version="1.1" xmlns="http://www.w3.org/2000/svg" xmlns:xlink="http://www.w3.org/1999/xlink" xml:space="preserve" onload="init(evt)">
<style type="text/css"><![CDATA[
.edge:hover path { stroke: red; }
.edge:hover polygon { stroke: red; fill: red; }
]]></style>
<script type="text/javascript"><![CDATA[
var edges = document.getElementsByTagName('g');
if (edges && edges.length) {
  for (var i=0;i<edges.length;i++) {
    if (edges[i].id.substr(0,4)=='edge') {
      edges[i].setAttribute('class','edge');
    }
  }
}
]]></script>
        <defs>
                <circle id="rim" cx="0" cy="0" r="7"/>
                <circle id="rim2" cx="0" cy="0" r="3.5"/>
                <g id="zoomPlus">
                        <use xlink:href="#rim" fill="#404040">
                                <set attributeName="fill" to="#808080" begin="zoomplus.mouseover" end="zoomplus.mouseout"/>
                        </use>
                        <path d="M-4,0h8M0,-4v8" fill="none" stroke="white" stroke-width="1.5" pointer-events="none"/>
                </g>
                <g id="zoomMin">
                        <use xlink:href="#rim" fill="#404040">
                                <set attributeName="fill" to="#808080" begin="zoomminus.mouseover" end="zoomminus.mouseout"/>
                        </use>
                        <path d="M-4,0h8" fill="none" stroke="white" stroke-width="1.5" pointer-events="none"/>
                </g>
                <g id="dirArrow">
                        <path fill="none" stroke="white" stroke-width="1.5" d="M0,-3.0v7 M-2.5,-0.5L0,-3.0L2.5,-0.5"/>
                </g>
               <g id="resetDef">
                       <use xlink:href="#rim2" fill="#404040">
                               <set attributeName="fill" to="#808080" begin="reset.mouseover" end="reset.mouseout"/>
                       </use>
               </g>
        </defs>

<script type="text/javascript">
var viewWidth = 2433;
var viewHeight = 390;
var sectionId = 'dynsection-0';
</script>
<script xlink:href="../../svgpan.js"/>
<svg id="graph" class="graph">
<g id="viewport">
<title>/home/travis/build/AliceO2Group/AliceO2/Detectors/TRD/simulation/src/Detector.cxx</title>
<!-- Node1 -->
<g id="node1" class="node"><title>Node1</title>
<polygon fill="#bfbfbf" stroke="black" points="969,-329 969,-381 1103,-381 1103,-329 969,-329"/>
<text text-anchor="start" x="977" y="-369" font-family="Helvetica,sans-Serif" font-size="10.00">/home/travis/build</text>
<text text-anchor="start" x="977" y="-358" font-family="Helvetica,sans-Serif" font-size="10.00">/AliceO2Group/AliceO2</text>
<text text-anchor="start" x="977" y="-347" font-family="Helvetica,sans-Serif" font-size="10.00">/Detectors/TRD/simulation</text>
<text text-anchor="middle" x="1036" y="-336" font-family="Helvetica,sans-Serif" font-size="10.00">/src/Detector.cxx</text>
</g>
<!-- Node2 -->
<g id="node2" class="node"><title>Node2</title>
<g id="a_node2"><a xlink:href="../../df/df0/TRD_2simulation_2include_2TRDSimulation_2Detector_8h.html" target="_top" xlink:title="TRDSimulation/Detector.h">
<polygon fill="none" stroke="black" points="1137,-266.5 1137,-285.5 1269,-285.5 1269,-266.5 1137,-266.5"/>
<text text-anchor="middle" x="1203" y="-273.5" font-family="Helvetica,sans-Serif" font-size="10.00">TRDSimulation/Detector.h</text>
</a>
</g>
</g>
<!-- Node1&#45;&gt;Node2 -->
<g id="edge1" class="edge"><title>Node1&#45;&gt;Node2</title>
<path fill="none" stroke="midnightblue" d="M1090.68,-328.787C1118.98,-315.739 1152.32,-300.369 1175.28,-289.782"/>
<polygon fill="midnightblue" stroke="midnightblue" points="1176.82,-292.923 1184.44,-285.558 1173.89,-286.566 1176.82,-292.923"/>
</g>
<!-- Node3 -->
<g id="node3" class="node"><title>Node3</title>
<polygon fill="none" stroke="#bfbfbf" points="851,-136.5 851,-155.5 895,-155.5 895,-136.5 851,-136.5"/>
<text text-anchor="middle" x="873" y="-143.5" font-family="Helvetica,sans-Serif" font-size="10.00">vector</text>
</g>
<!-- Node1&#45;&gt;Node3 -->
<g id="edge29" class="edge"><title>Node1&#45;&gt;Node3</title>
<path fill="none" stroke="midnightblue" d="M968.972,-352.064C924.58,-346.86 869.315,-332.02 840,-292 811.49,-253.079 842.188,-193.715 860.845,-164.493"/>
<polygon fill="midnightblue" stroke="midnightblue" points="863.993,-166.08 866.608,-155.812 858.161,-162.208 863.993,-166.08"/>
</g>
<!-- Node8 -->
<g id="node8" class="node"><title>Node8</title>
<polygon fill="none" stroke="#bfbfbf" points="733,-136.5 733,-155.5 833,-155.5 833,-136.5 733,-136.5"/>
<text text-anchor="middle" x="783" y="-143.5" font-family="Helvetica,sans-Serif" font-size="10.00">FairRootManager.h</text>
</g>
<!-- Node1&#45;&gt;Node8 -->
<g id="edge30" class="edge"><title>Node1&#45;&gt;Node8</title>
<path fill="none" stroke="midnightblue" d="M968.529,-350.673C922.292,-344.862 862.724,-329.87 825,-292 790.558,-257.425 783.999,-196.43 782.983,-165.744"/>
<polygon fill="midnightblue" stroke="midnightblue" points="786.48,-165.528 782.819,-155.586 779.481,-165.641 786.48,-165.528"/>
</g>
<!-- Node26 -->
<g id="node26" class="node"><title>Node26</title>
<polygon fill="none" stroke="#bfbfbf" points="849,-266.5 849,-285.5 935,-285.5 935,-266.5 849,-266.5"/>
<text text-anchor="middle" x="892" y="-273.5" font-family="Helvetica,sans-Serif" font-size="10.00">TGeoManager.h</text>
</g>
<!-- Node1&#45;&gt;Node26 -->
<g id="edge27" class="edge"><title>Node1&#45;&gt;Node26</title>
<path fill="none" stroke="midnightblue" d="M988.849,-328.787C964.883,-315.972 936.729,-300.918 916.973,-290.354"/>
<polygon fill="midnightblue" stroke="midnightblue" points="918.473,-287.187 908.004,-285.558 915.172,-293.36 918.473,-287.187"/>
</g>
<!-- Node27 -->
<g id="node27" class="node"><title>Node27</title>
<polygon fill="none" stroke="#bfbfbf" points="953,-266.5 953,-285.5 1027,-285.5 1027,-266.5 953,-266.5"/>
<text text-anchor="middle" x="990" y="-273.5" font-family="Helvetica,sans-Serif" font-size="10.00">TVirtualMC.h</text>
</g>
<!-- Node1&#45;&gt;Node27 -->
<g id="edge28" class="edge"><title>Node1&#45;&gt;Node27</title>
<path fill="none" stroke="midnightblue" d="M1020.94,-328.787C1014.19,-317.486 1006.4,-304.445 1000.32,-294.276"/>
<polygon fill="midnightblue" stroke="midnightblue" points="1003.25,-292.347 995.112,-285.558 997.236,-295.937 1003.25,-292.347"/>
</g>
<!-- Node28 -->
<g id="node28" class="node"><title>Node28</title>
<polygon fill="none" stroke="#bfbfbf" points="1045,-266.5 1045,-285.5 1119,-285.5 1119,-266.5 1045,-266.5"/>
<text text-anchor="middle" x="1082" y="-273.5" font-family="Helvetica,sans-Serif" font-size="10.00">FairVolume.h</text>
</g>
<!-- Node1&#45;&gt;Node28 -->
<g id="edge31" class="edge"><title>Node1&#45;&gt;Node28</title>
<path fill="none" stroke="midnightblue" d="M1051.06,-328.787C1057.81,-317.486 1065.6,-304.445 1071.68,-294.276"/>
<polygon fill="midnightblue" stroke="midnightblue" points="1074.76,-295.937 1076.89,-285.558 1068.75,-292.347 1074.76,-295.937"/>
</g>
<!-- Node29 -->
<g id="node29" class="node"><title>Node29</title>
<g id="a_node29"><a xlink:href="../../da/d32/TRDCommonParam_8h.html" target="_top" xlink:title="TRDBase/TRDCommonParam.h">
<polygon fill="none" stroke="black" points="533.5,-266.5 533.5,-285.5 694.5,-285.5 694.5,-266.5 533.5,-266.5"/>
<text text-anchor="middle" x="614" y="-273.5" font-family="Helvetica,sans-Serif" font-size="10.00">TRDBase/TRDCommonParam.h</text>
</a>
</g>
</g>
<!-- Node1&#45;&gt;Node29 -->
<g id="edge32" class="edge"><title>Node1&#45;&gt;Node29</title>
<path fill="none" stroke="midnightblue" d="M968.666,-341.714C886.267,-326.679 748.2,-301.487 670.879,-287.378"/>
<polygon fill="midnightblue" stroke="midnightblue" points="671.308,-283.899 660.842,-285.547 670.051,-290.785 671.308,-283.899"/>
</g>
<!-- Node31 -->
<g id="node31" class="node"><title>Node31</title>
<g id="a_node31"><a xlink:href="../../dd/d07/TRDGeometry_8h.html" target="_top" xlink:title="TRDBase/TRDGeometry.h">
<polygon fill="none" stroke="black" points="901.5,-198.5 901.5,-217.5 1036.5,-217.5 1036.5,-198.5 901.5,-198.5"/>
<text text-anchor="middle" x="969" y="-205.5" font-family="Helvetica,sans-Serif" font-size="10.00">TRDBase/TRDGeometry.h</text>
</a>
</g>
</g>
<!-- Node1&#45;&gt;Node31 -->
<g id="edge35" class="edge"><title>Node1&#45;&gt;Node31</title>
<path fill="none" stroke="midnightblue" d="M1103.05,-350.269C1191.47,-342.905 1330.12,-321.433 1278,-260 1274.09,-255.39 1126.4,-232.56 1036.65,-219.058"/>
<polygon fill="midnightblue" stroke="midnightblue" points="1036.95,-215.564 1026.54,-217.54 1035.91,-222.487 1036.95,-215.564"/>
</g>
<!-- Node32 -->
<g id="node32" class="node"><title>Node32</title>
<g id="a_node32"><a xlink:href="../../dc/db6/Stack_8h.html" target="_top" xlink:title="Definition of the Stack class. ">
<polygon fill="none" stroke="black" points="1413,-261 1413,-291 1527,-291 1527,-261 1413,-261"/>
<text text-anchor="start" x="1421" y="-279" font-family="Helvetica,sans-Serif" font-size="10.00">SimulationDataFormat</text>
<text text-anchor="middle" x="1470" y="-268" font-family="Helvetica,sans-Serif" font-size="10.00">/Stack.h</text>
</a>
</g>
</g>
<!-- Node1&#45;&gt;Node32 -->
<g id="edge38" class="edge"><title>Node1&#45;&gt;Node32</title>
<path fill="none" stroke="midnightblue" d="M1103.34,-342.053C1184.85,-327.591 1321.29,-303.384 1402.76,-288.929"/>
<polygon fill="midnightblue" stroke="midnightblue" points="1403.67,-292.323 1412.9,-287.13 1402.45,-285.431 1403.67,-292.323"/>
</g>
<!-- Node51 -->
<g id="node51" class="node"><title>Node51</title>
<polygon fill="none" stroke="#bfbfbf" points="1545.5,-266.5 1545.5,-285.5 1604.5,-285.5 1604.5,-266.5 1545.5,-266.5"/>
<text text-anchor="middle" x="1575" y="-273.5" font-family="Helvetica,sans-Serif" font-size="10.00">stdexcept</text>
</g>
<!-- Node1&#45;&gt;Node51 -->
<g id="edge66" class="edge"><title>Node1&#45;&gt;Node51</title>
<path fill="none" stroke="midnightblue" d="M1103.27,-350.866C1200.18,-345.183 1384.11,-330.019 1536,-292 1539.24,-291.19 1542.57,-290.186 1545.86,-289.085"/>
<polygon fill="midnightblue" stroke="midnightblue" points="1547.26,-292.299 1555.46,-285.585 1544.87,-285.722 1547.26,-292.299"/>
</g>
<!-- Node2&#45;&gt;Node3 -->
<g id="edge2" class="edge"><title>Node2&#45;&gt;Node3</title>
<path fill="none" stroke="midnightblue" d="M1162.19,-266.484C1151.12,-264.27 1139.12,-261.958 1128,-260 1075.75,-250.795 931.172,-259.777 892,-224 875.987,-209.375 872.486,-183.6 872.162,-165.931"/>
<polygon fill="midnightblue" stroke="midnightblue" points="875.665,-165.738 872.309,-155.688 868.666,-165.637 875.665,-165.738"/>
</g>
<!-- Node4 -->
<g id="node4" class="node"><title>Node4</title>
<g id="a_node4"><a xlink:href="../../d1/d3a/Base_2include_2DetectorsBase_2Detector_8h.html" target="_top" xlink:title="DetectorsBase/Detector.h">
<polygon fill="none" stroke="black" points="1083.5,-198.5 1083.5,-217.5 1214.5,-217.5 1214.5,-198.5 1083.5,-198.5"/>
<text text-anchor="middle" x="1149" y="-205.5" font-family="Helvetica,sans-Serif" font-size="10.00">DetectorsBase/Detector.h</text>
</a>
</g>
</g>
<!-- Node2&#45;&gt;Node4 -->
<g id="edge3" class="edge"><title>Node2&#45;&gt;Node4</title>
<path fill="none" stroke="midnightblue" d="M1195.94,-266.372C1187.5,-256.053 1173.18,-238.551 1162.57,-225.585"/>
<polygon fill="midnightblue" stroke="midnightblue" points="1165.27,-223.364 1156.23,-217.841 1159.86,-227.797 1165.27,-223.364"/>
</g>
<!-- Node14 -->
<g id="node14" class="node"><title>Node14</title>
<g id="a_node14"><a xlink:href="../../d4/d25/BaseHits_8h.html" target="_top" xlink:title="SimulationDataFormat\l/BaseHits.h">
<polygon fill="none" stroke="black" points="641,-193 641,-223 755,-223 755,-193 641,-193"/>
<text text-anchor="start" x="649" y="-211" font-family="Helvetica,sans-Serif" font-size="10.00">SimulationDataFormat</text>
<text text-anchor="middle" x="698" y="-200" font-family="Helvetica,sans-Serif" font-size="10.00">/BaseHits.h</text>
</a>
</g>
</g>
<!-- Node2&#45;&gt;Node14 -->
<g id="edge14" class="edge"><title>Node2&#45;&gt;Node14</title>
<path fill="none" stroke="midnightblue" d="M1163.4,-266.47C1152.01,-264.181 1139.54,-261.835 1128,-260 1000.3,-239.689 850.076,-223.648 765.249,-215.308"/>
<polygon fill="midnightblue" stroke="midnightblue" points="765.528,-211.819 755.235,-214.33 764.847,-218.786 765.528,-211.819"/>
</g>
<!-- Node4&#45;&gt;Node3 -->
<g id="edge5" class="edge"><title>Node4&#45;&gt;Node3</title>
<path fill="none" stroke="midnightblue" d="M1102.7,-198.469C1055.38,-189.504 979.585,-174.464 905.29,-156.179"/>
<polygon fill="midnightblue" stroke="midnightblue" points="905.844,-152.71 895.295,-153.696 904.157,-159.503 905.844,-152.71"/>
</g>
<!-- Node5 -->
<g id="node5" class="node"><title>Node5</title>
<polygon fill="none" stroke="#bfbfbf" points="1287.5,-136.5 1287.5,-155.5 1322.5,-155.5 1322.5,-136.5 1287.5,-136.5"/>
<text text-anchor="middle" x="1305" y="-143.5" font-family="Helvetica,sans-Serif" font-size="10.00">map</text>
</g>
<!-- Node4&#45;&gt;Node5 -->
<g id="edge4" class="edge"><title>Node4&#45;&gt;Node5</title>
<path fill="none" stroke="midnightblue" d="M1171.35,-198.403C1199.36,-187.632 1247.34,-169.179 1277.55,-157.559"/>
<polygon fill="midnightblue" stroke="midnightblue" points="1278.98,-160.759 1287.05,-153.902 1276.46,-154.225 1278.98,-160.759"/>
</g>
<!-- Node6 -->
<g id="node6" class="node"><title>Node6</title>
<polygon fill="none" stroke="#bfbfbf" points="1341,-136.5 1341,-155.5 1393,-155.5 1393,-136.5 1341,-136.5"/>
<text text-anchor="middle" x="1367" y="-143.5" font-family="Helvetica,sans-Serif" font-size="10.00">memory</text>
</g>
<!-- Node4&#45;&gt;Node6 -->
<g id="edge6" class="edge"><title>Node4&#45;&gt;Node6</title>
<path fill="none" stroke="midnightblue" d="M1180.23,-198.403C1220.15,-187.417 1289.1,-168.44 1331.13,-156.873"/>
<polygon fill="midnightblue" stroke="midnightblue" points="1332.23,-160.2 1340.94,-154.172 1330.37,-153.451 1332.23,-160.2"/>
</g>
<!-- Node7 -->
<g id="node7" class="node"><title>Node7</title>
<polygon fill="none" stroke="#bfbfbf" points="1041.5,-136.5 1041.5,-155.5 1120.5,-155.5 1120.5,-136.5 1041.5,-136.5"/>
<text text-anchor="middle" x="1081" y="-143.5" font-family="Helvetica,sans-Serif" font-size="10.00">FairDetector.h</text>
</g>
<!-- Node4&#45;&gt;Node7 -->
<g id="edge7" class="edge"><title>Node4&#45;&gt;Node7</title>
<path fill="none" stroke="midnightblue" d="M1139.26,-198.403C1128.65,-189.047 1111.48,-173.895 1098.52,-162.46"/>
<polygon fill="midnightblue" stroke="midnightblue" points="1100.54,-159.572 1090.72,-155.581 1095.91,-164.821 1100.54,-159.572"/>
</g>
<!-- Node4&#45;&gt;Node8 -->
<g id="edge8" class="edge"><title>Node4&#45;&gt;Node8</title>
<path fill="none" stroke="midnightblue" d="M1096.95,-198.467C1029.98,-187.489 913.892,-168.458 843.198,-156.869"/>
<polygon fill="midnightblue" stroke="midnightblue" points="843.543,-153.378 833.108,-155.214 842.41,-160.286 843.543,-153.378"/>
</g>
<!-- Node9 -->
<g id="node9" class="node"><title>Node9</title>
<polygon fill="none" stroke="#bfbfbf" points="1250,-74.5 1250,-93.5 1306,-93.5 1306,-74.5 1250,-74.5"/>
<text text-anchor="middle" x="1278" y="-81.5" font-family="Helvetica,sans-Serif" font-size="10.00">Rtypes.h</text>
</g>
<!-- Node4&#45;&gt;Node9 -->
<g id="edge9" class="edge"><title>Node4&#45;&gt;Node9</title>
<path fill="none" stroke="midnightblue" d="M1149.06,-198.052C1149.62,-183.415 1152.73,-154.167 1168,-136 1186.37,-114.147 1216.15,-101.135 1240.09,-93.7292"/>
<polygon fill="midnightblue" stroke="midnightblue" points="1241.31,-97.0217 1249.95,-90.8892 1239.37,-90.2955 1241.31,-97.0217"/>
</g>
<!-- Node10 -->
<g id="node10" class="node"><title>Node10</title>
<polygon fill="none" stroke="#bfbfbf" points="1177.5,-136.5 1177.5,-155.5 1230.5,-155.5 1230.5,-136.5 1177.5,-136.5"/>
<text text-anchor="middle" x="1204" y="-143.5" font-family="Helvetica,sans-Serif" font-size="10.00">cxxabi.h</text>
</g>
<!-- Node4&#45;&gt;Node10 -->
<g id="edge10" class="edge"><title>Node4&#45;&gt;Node10</title>
<path fill="none" stroke="midnightblue" d="M1156.88,-198.403C1165.29,-189.225 1178.82,-174.47 1189.23,-163.117"/>
<polygon fill="midnightblue" stroke="midnightblue" points="1191.96,-165.317 1196.13,-155.581 1186.8,-160.587 1191.96,-165.317"/>
</g>
<!-- Node11 -->
<g id="node11" class="node"><title>Node11</title>
<polygon fill="none" stroke="#bfbfbf" points="972.5,-136.5 972.5,-155.5 1023.5,-155.5 1023.5,-136.5 972.5,-136.5"/>
<text text-anchor="middle" x="998" y="-143.5" font-family="Helvetica,sans-Serif" font-size="10.00">typeinfo</text>
</g>
<!-- Node4&#45;&gt;Node11 -->
<g id="edge11" class="edge"><title>Node4&#45;&gt;Node11</title>
<path fill="none" stroke="midnightblue" d="M1127.37,-198.403C1101.58,-188.156 1058.29,-170.956 1028.96,-159.302"/>
<polygon fill="midnightblue" stroke="midnightblue" points="1030.18,-156.021 1019.59,-155.581 1027.6,-162.526 1030.18,-156.021"/>
</g>
<!-- Node12 -->
<g id="node12" class="node"><title>Node12</title>
<polygon fill="none" stroke="#bfbfbf" points="1733,-74.5 1733,-93.5 1795,-93.5 1795,-74.5 1733,-74.5"/>
<text text-anchor="middle" x="1764" y="-81.5" font-family="Helvetica,sans-Serif" font-size="10.00">type_traits</text>
</g>
<!-- Node4&#45;&gt;Node12 -->
<g id="edge12" class="edge"><title>Node4&#45;&gt;Node12</title>
<path fill="none" stroke="midnightblue" d="M1164.44,-198.291C1197.35,-179.75 1271.93,-137.903 1278,-136 1360.68,-110.075 1620.85,-93.0512 1722.62,-87.2299"/>
<polygon fill="midnightblue" stroke="midnightblue" points="1723.02,-90.7126 1732.81,-86.6541 1722.63,-83.7237 1723.02,-90.7126"/>
</g>
<!-- Node13 -->
<g id="node13" class="node"><title>Node13</title>
<polygon fill="none" stroke="#bfbfbf" points="913.5,-136.5 913.5,-155.5 954.5,-155.5 954.5,-136.5 913.5,-136.5"/>
<text text-anchor="middle" x="934" y="-143.5" font-family="Helvetica,sans-Serif" font-size="10.00">string</text>
</g>
<!-- Node4&#45;&gt;Node13 -->
<g id="edge13" class="edge"><title>Node4&#45;&gt;Node13</title>
<path fill="none" stroke="midnightblue" d="M1116.65,-198.48C1081.43,-189.128 1023.23,-173.448 964.397,-156.345"/>
<polygon fill="midnightblue" stroke="midnightblue" points="965.15,-152.919 954.57,-153.476 963.188,-159.638 965.15,-152.919"/>
</g>
<!-- Node15 -->
<g id="node15" class="node"><title>Node15</title>
<g id="a_node15"><a xlink:href="../../dd/d76/Cartesian3D_8h.html" target="_top" xlink:title="MathUtils/Cartesian3D.h">
<polygon fill="none" stroke="black" points="551.5,-136.5 551.5,-155.5 676.5,-155.5 676.5,-136.5 551.5,-136.5"/>
<text text-anchor="middle" x="614" y="-143.5" font-family="Helvetica,sans-Serif" font-size="10.00">MathUtils/Cartesian3D.h</text>
</a>
</g>
</g>
<!-- Node14&#45;&gt;Node15 -->
<g id="edge15" class="edge"><title>Node14&#45;&gt;Node15</title>
<path fill="none" stroke="midnightblue" d="M678.093,-192.781C665.006,-183.433 647.918,-171.227 634.678,-161.77"/>
<polygon fill="midnightblue" stroke="midnightblue" points="636.394,-158.695 626.223,-155.731 632.326,-164.391 636.394,-158.695"/>
</g>
<!-- Node15&#45;&gt;Node9 -->
<g id="edge19" class="edge"><title>Node15&#45;&gt;Node9</title>
<path fill="none" stroke="midnightblue" d="M676.591,-137.455C681.464,-136.937 686.31,-136.445 691,-136 909.269,-115.268 965.192,-125.119 1183,-100 1201.68,-97.8455 1222.31,-94.6835 1239.56,-91.8174"/>
<polygon fill="midnightblue" stroke="midnightblue" points="1240.54,-95.2016 1249.82,-90.0828 1239.37,-88.2996 1240.54,-95.2016"/>
</g>
<!-- Node16 -->
<g id="node16" class="node"><title>Node16</title>
<polygon fill="none" stroke="#bfbfbf" points="850.5,-74.5 850.5,-93.5 999.5,-93.5 999.5,-74.5 850.5,-74.5"/>
<text text-anchor="middle" x="925" y="-81.5" font-family="Helvetica,sans-Serif" font-size="10.00">Math/GenVector/Rotation3D.h</text>
</g>
<!-- Node15&#45;&gt;Node16 -->
<g id="edge16" class="edge"><title>Node15&#45;&gt;Node16</title>
<path fill="none" stroke="midnightblue" d="M658.228,-136.467C714.189,-125.671 810.523,-107.086 870.834,-95.4501"/>
<polygon fill="midnightblue" stroke="midnightblue" points="871.768,-98.8344 880.924,-93.5034 870.442,-91.9612 871.768,-98.8344"/>
</g>
<!-- Node17 -->
<g id="node17" class="node"><title>Node17</title>
<polygon fill="none" stroke="#bfbfbf" points="1018,-74.5 1018,-93.5 1174,-93.5 1174,-74.5 1018,-74.5"/>
<text text-anchor="middle" x="1096" y="-81.5" font-family="Helvetica,sans-Serif" font-size="10.00">Math/GenVector/Transform3D.h</text>
</g>
<!-- Node15&#45;&gt;Node17 -->
<g id="edge17" class="edge"><title>Node15&#45;&gt;Node17</title>
<path fill="none" stroke="midnightblue" d="M676.613,-137.664C681.481,-137.099 686.32,-136.539 691,-136 831.863,-119.769 867.612,-119.921 1008,-100 1018.01,-98.5793 1028.64,-96.9083 1038.91,-95.207"/>
<polygon fill="midnightblue" stroke="midnightblue" points="1039.76,-98.6145 1049.04,-93.5037 1038.59,-91.7116 1039.76,-98.6145"/>
</g>
<!-- Node18 -->
<g id="node18" class="node"><title>Node18</title>
<polygon fill="none" stroke="#bfbfbf" points="0,-74.5 0,-93.5 160,-93.5 160,-74.5 0,-74.5"/>
<text text-anchor="middle" x="80" y="-81.5" font-family="Helvetica,sans-Serif" font-size="10.00">Math/GenVector/Translation3D.h</text>
</g>
<!-- Node15&#45;&gt;Node18 -->
<g id="edge18" class="edge"><title>Node15&#45;&gt;Node18</title>
<path fill="none" stroke="midnightblue" d="M551.205,-139.969C464.89,-132.752 304.828,-118.293 169,-100 158.644,-98.6052 147.644,-96.9193 137.038,-95.1884"/>
<polygon fill="midnightblue" stroke="midnightblue" points="137.463,-91.7111 127.025,-93.5233 136.315,-98.6163 137.463,-91.7111"/>
</g>
<!-- Node19 -->
<g id="node19" class="node"><title>Node19</title>
<polygon fill="none" stroke="#bfbfbf" points="178,-74.5 178,-93.5 254,-93.5 254,-74.5 178,-74.5"/>
<text text-anchor="middle" x="216" y="-81.5" font-family="Helvetica,sans-Serif" font-size="10.00">TGeoMatrix.h</text>
</g>
<!-- Node15&#45;&gt;Node19 -->
<g id="edge20" class="edge"><title>Node15&#45;&gt;Node19</title>
<path fill="none" stroke="midnightblue" d="M551.274,-140.412C480.592,-134.445 362.566,-122.079 263,-100 258.767,-99.0613 254.37,-97.9072 250.039,-96.6597"/>
<polygon fill="midnightblue" stroke="midnightblue" points="250.751,-93.2172 240.164,-93.6366 248.702,-99.9106 250.751,-93.2172"/>
</g>
<!-- Node20 -->
<g id="node20" class="node"><title>Node20</title>
<polygon fill="none" stroke="#bfbfbf" points="272.5,-69 272.5,-99 423.5,-99 423.5,-69 272.5,-69"/>
<text text-anchor="start" x="280.5" y="-87" font-family="Helvetica,sans-Serif" font-size="10.00">Math/GenVector/Displacement</text>
<text text-anchor="middle" x="348" y="-76" font-family="Helvetica,sans-Serif" font-size="10.00">Vector3D.h</text>
</g>
<!-- Node15&#45;&gt;Node20 -->
<g id="edge21" class="edge"><title>Node15&#45;&gt;Node20</title>
<path fill="none" stroke="midnightblue" d="M576.171,-136.467C535.696,-127.337 470.526,-112.638 420.178,-101.281"/>
<polygon fill="midnightblue" stroke="midnightblue" points="420.842,-97.8427 410.317,-99.0565 419.302,-104.671 420.842,-97.8427"/>
</g>
<!-- Node21 -->
<g id="node21" class="node"><title>Node21</title>
<polygon fill="none" stroke="#bfbfbf" points="442,-74.5 442,-93.5 618,-93.5 618,-74.5 442,-74.5"/>
<text text-anchor="middle" x="530" y="-81.5" font-family="Helvetica,sans-Serif" font-size="10.00">Math/GenVector/PositionVector3D.h</text>
</g>
<!-- Node15&#45;&gt;Node21 -->
<g id="edge22" class="edge"><title>Node15&#45;&gt;Node21</title>
<path fill="none" stroke="midnightblue" d="M601.965,-136.403C588.492,-126.78 566.434,-111.024 550.285,-99.4891"/>
<polygon fill="midnightblue" stroke="midnightblue" points="552.185,-96.5449 542.013,-93.5806 548.116,-102.241 552.185,-96.5449"/>
</g>
<!-- Node22 -->
<g id="node22" class="node"><title>Node22</title>
<g id="a_node22"><a xlink:href="../../d2/dd0/Cartesian2D_8h.html" target="_top" xlink:title="MathUtils/Cartesian2D.h">
<polygon fill="none" stroke="black" points="635.5,-74.5 635.5,-93.5 760.5,-93.5 760.5,-74.5 635.5,-74.5"/>
<text text-anchor="middle" x="698" y="-81.5" font-family="Helvetica,sans-Serif" font-size="10.00">MathUtils/Cartesian2D.h</text>
</a>
</g>
</g>
<!-- Node15&#45;&gt;Node22 -->
<g id="edge23" class="edge"><title>Node15&#45;&gt;Node22</title>
<path fill="none" stroke="midnightblue" d="M626.035,-136.403C639.508,-126.78 661.566,-111.024 677.715,-99.4891"/>
<polygon fill="midnightblue" stroke="midnightblue" points="679.884,-102.241 685.987,-93.5806 675.815,-96.5449 679.884,-102.241"/>
</g>
<!-- Node25 -->
<g id="node25" class="node"><title>Node25</title>
<polygon fill="none" stroke="#bfbfbf" points="779,-74.5 779,-93.5 833,-93.5 833,-74.5 779,-74.5"/>
<text text-anchor="middle" x="806" y="-81.5" font-family="Helvetica,sans-Serif" font-size="10.00">iostream</text>
</g>
<!-- Node15&#45;&gt;Node25 -->
<g id="edge26" class="edge"><title>Node15&#45;&gt;Node25</title>
<path fill="none" stroke="midnightblue" d="M646.965,-136.483C678.555,-128.075 727.436,-114.416 769,-100 771.407,-99.1653 773.885,-98.2611 776.364,-97.3246"/>
<polygon fill="midnightblue" stroke="midnightblue" points="777.754,-100.539 785.786,-93.6311 775.199,-94.0223 777.754,-100.539"/>
</g>
<!-- Node23 -->
<g id="node23" class="node"><title>Node23</title>
<polygon fill="none" stroke="#bfbfbf" points="531.5,-1 531.5,-31 682.5,-31 682.5,-1 531.5,-1"/>
<text text-anchor="start" x="539.5" y="-19" font-family="Helvetica,sans-Serif" font-size="10.00">Math/GenVector/Displacement</text>
<text text-anchor="middle" x="607" y="-8" font-family="Helvetica,sans-Serif" font-size="10.00">Vector2D.h</text>
</g>
<!-- Node22&#45;&gt;Node23 -->
<g id="edge24" class="edge"><title>Node22&#45;&gt;Node23</title>
<path fill="none" stroke="midnightblue" d="M686.103,-74.3717C673.221,-65.0286 652.22,-49.7966 635.093,-37.375"/>
<polygon fill="midnightblue" stroke="midnightblue" points="636.703,-34.2194 626.553,-31.1815 632.593,-39.8859 636.703,-34.2194"/>
</g>
<!-- Node24 -->
<g id="node24" class="node"><title>Node24</title>
<polygon fill="none" stroke="#bfbfbf" points="701,-6.5 701,-25.5 877,-25.5 877,-6.5 701,-6.5"/>
<text text-anchor="middle" x="789" y="-13.5" font-family="Helvetica,sans-Serif" font-size="10.00">Math/GenVector/PositionVector2D.h</text>
</g>
<!-- Node22&#45;&gt;Node24 -->
<g id="edge25" class="edge"><title>Node22&#45;&gt;Node24</title>
<path fill="none" stroke="midnightblue" d="M709.897,-74.3717C724.884,-63.5015 750.862,-44.6602 768.942,-31.5474"/>
<polygon fill="midnightblue" stroke="midnightblue" points="771.06,-34.3349 777.1,-25.6305 766.95,-28.6684 771.06,-34.3349"/>
</g>
<!-- Node30 -->
<g id="node30" class="node"><title>Node30</title>
<g id="a_node30"><a xlink:href="../../d9/df4/TRDSimParam_8h.html" target="_top" xlink:title="TRDBase/TRDSimParam.h">
<polygon fill="none" stroke="black" points="485,-198.5 485,-217.5 623,-217.5 623,-198.5 485,-198.5"/>
<text text-anchor="middle" x="554" y="-205.5" font-family="Helvetica,sans-Serif" font-size="10.00">TRDBase/TRDSimParam.h</text>
</a>
</g>
</g>
<!-- Node29&#45;&gt;Node30 -->
<g id="edge33" class="edge"><title>Node29&#45;&gt;Node30</title>
<path fill="none" stroke="midnightblue" d="M606.156,-266.372C596.775,-256.053 580.865,-238.551 569.078,-225.585"/>
<polygon fill="midnightblue" stroke="midnightblue" points="571.354,-222.886 562.037,-217.841 566.174,-227.595 571.354,-222.886"/>
</g>
<!-- Node30&#45;&gt;Node9 -->
<g id="edge34" class="edge"><title>Node30&#45;&gt;Node9</title>
<path fill="none" stroke="midnightblue" d="M578.452,-198.334C605,-188.728 648.495,-172.414 685,-156 702.766,-148.012 705.258,-141.31 724,-136 920.879,-80.2253 979.783,-123.975 1183,-100 1201.68,-97.7966 1222.31,-94.6287 1239.56,-91.7715"/>
<polygon fill="midnightblue" stroke="midnightblue" points="1240.53,-95.1563 1249.81,-90.0439 1239.37,-88.2536 1240.53,-95.1563"/>
</g>
<!-- Node31&#45;&gt;Node3 -->
<g id="edge37" class="edge"><title>Node31&#45;&gt;Node3</title>
<path fill="none" stroke="midnightblue" d="M955.246,-198.403C939.634,-188.646 913.937,-172.585 895.417,-161.011"/>
<polygon fill="midnightblue" stroke="midnightblue" points="897.064,-157.913 886.729,-155.581 893.354,-163.849 897.064,-157.913"/>
</g>
<!-- Node31&#45;&gt;Node13 -->
<g id="edge36" class="edge"><title>Node31&#45;&gt;Node13</title>
<path fill="none" stroke="midnightblue" d="M963.985,-198.403C958.839,-189.582 950.688,-175.608 944.182,-164.455"/>
<polygon fill="midnightblue" stroke="midnightblue" points="947.067,-162.455 939.005,-155.581 941.021,-165.982 947.067,-162.455"/>
</g>
<!-- Node32&#45;&gt;Node5 -->
<g id="edge62" class="edge"><title>Node32&#45;&gt;Node5</title>
<path fill="none" stroke="midnightblue" d="M1441.84,-260.812C1424.23,-251.389 1401.47,-238.177 1383,-224 1358.83,-205.453 1334.39,-179.99 1319.46,-163.514"/>
<polygon fill="midnightblue" stroke="midnightblue" points="1321.85,-160.931 1312.58,-155.802 1316.63,-165.593 1321.85,-160.931"/>
</g>
<!-- Node32&#45;&gt;Node6 -->
<g id="edge65" class="edge"><title>Node32&#45;&gt;Node6</title>
<path fill="none" stroke="midnightblue" d="M1448.24,-260.822C1435.13,-251.498 1418.75,-238.389 1407,-224 1392.31,-206.004 1380.8,-181.747 1373.97,-165.302"/>
<polygon fill="midnightblue" stroke="midnightblue" points="1377.13,-163.764 1370.18,-155.769 1370.62,-166.354 1377.13,-163.764"/>
</g>
<!-- Node32&#45;&gt;Node9 -->
<g id="edge60" class="edge"><title>Node32&#45;&gt;Node9</title>
<path fill="none" stroke="midnightblue" d="M1461.11,-260.975C1454.87,-250.875 1446.51,-236.824 1440,-224 1420.72,-186.011 1432.39,-165.86 1402,-136 1378.45,-112.852 1342.91,-99.6974 1315.91,-92.569"/>
<polygon fill="midnightblue" stroke="midnightblue" points="1316.58,-89.127 1306.03,-90.1237 1314.89,-95.9223 1316.58,-89.127"/>
</g>
<!-- Node33 -->
<g id="node33" class="node"><title>Node33</title>
<polygon fill="none" stroke="#bfbfbf" points="1781.5,-198.5 1781.5,-217.5 1882.5,-217.5 1882.5,-198.5 1781.5,-198.5"/>
<text text-anchor="middle" x="1832" y="-205.5" font-family="Helvetica,sans-Serif" font-size="10.00">FairGenericStack.h</text>
</g>
<!-- Node32&#45;&gt;Node33 -->
<g id="edge39" class="edge"><title>Node32&#45;&gt;Node33</title>
<path fill="none" stroke="midnightblue" d="M1527.18,-261.738C1530.16,-261.131 1533.11,-260.547 1536,-260 1640.24,-240.23 1667.97,-244.89 1772,-224 1777.87,-222.822 1784.02,-221.446 1790.07,-220.014"/>
<polygon fill="midnightblue" stroke="midnightblue" points="1791.17,-223.347 1800.05,-217.576 1789.51,-216.547 1791.17,-223.347"/>
</g>
<!-- Node34 -->
<g id="node34" class="node"><title>Node34</title>
<g id="a_node34"><a xlink:href="../../d2/de2/MCTrack_8h.html" target="_top" xlink:title="Definition of the MCTrack class. ">
<polygon fill="none" stroke="black" points="1649,-193 1649,-223 1763,-223 1763,-193 1649,-193"/>
<text text-anchor="start" x="1657" y="-211" font-family="Helvetica,sans-Serif" font-size="10.00">SimulationDataFormat</text>
<text text-anchor="middle" x="1706" y="-200" font-family="Helvetica,sans-Serif" font-size="10.00">/MCTrack.h</text>
</a>
</g>
</g>
<!-- Node32&#45;&gt;Node34 -->
<g id="edge40" class="edge"><title>Node32&#45;&gt;Node34</title>
<path fill="none" stroke="midnightblue" d="M1520.34,-260.922C1557,-250.67 1606.82,-236.738 1645.62,-225.887"/>
<polygon fill="midnightblue" stroke="midnightblue" points="1647.05,-229.12 1655.74,-223.056 1645.17,-222.379 1647.05,-229.12"/>
</g>
<!-- Node38 -->
<g id="node38" class="node"><title>Node38</title>
<g id="a_node38"><a xlink:href="../../d6/d31/DetID_8h.html" target="_top" xlink:title="DetectorsBase/DetID.h">
<polygon fill="none" stroke="black" points="2152.5,-136.5 2152.5,-155.5 2271.5,-155.5 2271.5,-136.5 2152.5,-136.5"/>
<text text-anchor="middle" x="2212" y="-143.5" font-family="Helvetica,sans-Serif" font-size="10.00">DetectorsBase/DetID.h</text>
</a>
</g>
</g>
<!-- Node32&#45;&gt;Node38 -->
<g id="edge59" class="edge"><title>Node32&#45;&gt;Node38</title>
<path fill="none" stroke="midnightblue" d="M1527.15,-261.561C1530.14,-261 1533.1,-260.475 1536,-260 1692.5,-234.379 1734.65,-250.556 1891,-224 1993.55,-206.582 2112.04,-175.157 2172.32,-158.343"/>
<polygon fill="midnightblue" stroke="midnightblue" points="2173.5,-161.647 2182.18,-155.576 2171.61,-154.907 2173.5,-161.647"/>
</g>
<!-- Node46 -->
<g id="node46" class="node"><title>Node46</title>
<polygon fill="none" stroke="#bfbfbf" points="1449,-136.5 1449,-155.5 1513,-155.5 1513,-136.5 1449,-136.5"/>
<text text-anchor="middle" x="1481" y="-143.5" font-family="Helvetica,sans-Serif" font-size="10.00">TParticle.h</text>
</g>
<!-- Node32&#45;&gt;Node46 -->
<g id="edge61" class="edge"><title>Node32&#45;&gt;Node46</title>
<path fill="none" stroke="midnightblue" d="M1513.3,-260.795C1530.37,-252.826 1548.21,-240.983 1558,-224 1565.1,-211.677 1565.08,-204.336 1558,-192 1549.38,-176.986 1533.61,-166.504 1518.57,-159.458"/>
<polygon fill="midnightblue" stroke="midnightblue" points="1519.94,-156.238 1509.37,-155.505 1517.18,-162.669 1519.94,-156.238"/>
</g>
<!-- Node49 -->
<g id="node49" class="node"><title>Node49</title>
<polygon fill="none" stroke="#bfbfbf" points="1449.5,-198.5 1449.5,-217.5 1490.5,-217.5 1490.5,-198.5 1449.5,-198.5"/>
<text text-anchor="middle" x="1470" y="-205.5" font-family="Helvetica,sans-Serif" font-size="10.00">stack</text>
</g>
<!-- Node32&#45;&gt;Node49 -->
<g id="edge63" class="edge"><title>Node32&#45;&gt;Node49</title>
<path fill="none" stroke="midnightblue" d="M1470,-260.679C1470,-251.101 1470,-238.394 1470,-227.977"/>
<polygon fill="midnightblue" stroke="midnightblue" points="1473.5,-227.828 1470,-217.828 1466.5,-227.828 1473.5,-227.828"/>
</g>
<!-- Node50 -->
<g id="node50" class="node"><title>Node50</title>
<polygon fill="none" stroke="#bfbfbf" points="1509,-198.5 1509,-217.5 1549,-217.5 1549,-198.5 1509,-198.5"/>
<text text-anchor="middle" x="1529" y="-205.5" font-family="Helvetica,sans-Serif" font-size="10.00">utility</text>
</g>
<!-- Node32&#45;&gt;Node50 -->
<g id="edge64" class="edge"><title>Node32&#45;&gt;Node50</title>
<path fill="none" stroke="midnightblue" d="M1482.8,-260.679C1492.09,-250.286 1504.68,-236.208 1514.37,-225.37"/>
<polygon fill="midnightblue" stroke="midnightblue" points="1517.05,-227.616 1521.11,-217.828 1511.83,-222.951 1517.05,-227.616"/>
</g>
<!-- Node34&#45;&gt;Node9 -->
<g id="edge41" class="edge"><title>Node34&#45;&gt;Node9</title>
<path fill="none" stroke="midnightblue" d="M1660.28,-192.963C1631.16,-183.551 1592.87,-170.297 1560,-156 1542.5,-148.388 1539.96,-142.459 1522,-136 1451.62,-110.688 1365.07,-96.3087 1316.25,-89.637"/>
<polygon fill="midnightblue" stroke="midnightblue" points="1316.51,-86.1407 1306.14,-88.2915 1315.59,-93.0795 1316.51,-86.1407"/>
</g>
<!-- Node35 -->
<g id="node35" class="node"><title>Node35</title>
<polygon fill="none" stroke="#bfbfbf" points="1569,-136.5 1569,-155.5 1661,-155.5 1661,-136.5 1569,-136.5"/>
<text text-anchor="middle" x="1615" y="-143.5" font-family="Helvetica,sans-Serif" font-size="10.00">TLorentzVector.h</text>
</g>
<!-- Node34&#45;&gt;Node35 -->
<g id="edge42" class="edge"><title>Node34&#45;&gt;Node35</title>
<path fill="none" stroke="midnightblue" d="M1684.43,-192.781C1670.03,-183.286 1651.16,-170.843 1636.73,-161.327"/>
<polygon fill="midnightblue" stroke="midnightblue" points="1638.25,-158.138 1627.98,-155.556 1634.4,-163.982 1638.25,-158.138"/>
</g>
<!-- Node36 -->
<g id="node36" class="node"><title>Node36</title>
<polygon fill="none" stroke="#bfbfbf" points="1679.5,-136.5 1679.5,-155.5 1732.5,-155.5 1732.5,-136.5 1679.5,-136.5"/>
<text text-anchor="middle" x="1706" y="-143.5" font-family="Helvetica,sans-Serif" font-size="10.00">TMath.h</text>
</g>
<!-- Node34&#45;&gt;Node36 -->
<g id="edge43" class="edge"><title>Node34&#45;&gt;Node36</title>
<path fill="none" stroke="midnightblue" d="M1706,-192.781C1706,-184.781 1706,-174.689 1706,-166.017"/>
<polygon fill="midnightblue" stroke="midnightblue" points="1709.5,-165.73 1706,-155.731 1702.5,-165.731 1709.5,-165.73"/>
</g>
<!-- Node37 -->
<g id="node37" class="node"><title>Node37</title>
<polygon fill="none" stroke="#bfbfbf" points="1750.5,-136.5 1750.5,-155.5 1815.5,-155.5 1815.5,-136.5 1750.5,-136.5"/>
<text text-anchor="middle" x="1783" y="-143.5" font-family="Helvetica,sans-Serif" font-size="10.00">TVector3.h</text>
</g>
<!-- Node34&#45;&gt;Node37 -->
<g id="edge44" class="edge"><title>Node34&#45;&gt;Node37</title>
<path fill="none" stroke="midnightblue" d="M1724.25,-192.781C1736.13,-183.523 1751.61,-171.462 1763.69,-162.044"/>
<polygon fill="midnightblue" stroke="midnightblue" points="1766.06,-164.638 1771.8,-155.731 1761.76,-159.116 1766.06,-164.638"/>
</g>
<!-- Node34&#45;&gt;Node38 -->
<g id="edge45" class="edge"><title>Node34&#45;&gt;Node38</title>
<path fill="none" stroke="midnightblue" d="M1763.15,-193.545C1766.14,-192.988 1769.1,-192.468 1772,-192 1932.35,-166.106 1976.68,-174.373 2142.14,-156.053"/>
<polygon fill="midnightblue" stroke="midnightblue" points="2142.63,-159.52 2152.18,-154.926 2141.85,-152.564 2142.63,-159.52"/>
</g>
<!-- Node45 -->
<g id="node45" class="node"><title>Node45</title>
<polygon fill="none" stroke="#bfbfbf" points="1833.5,-136.5 1833.5,-155.5 1928.5,-155.5 1928.5,-136.5 1833.5,-136.5"/>
<text text-anchor="middle" x="1881" y="-143.5" font-family="Helvetica,sans-Serif" font-size="10.00">TDatabasePDG.h</text>
</g>
<!-- Node34&#45;&gt;Node45 -->
<g id="edge55" class="edge"><title>Node34&#45;&gt;Node45</title>
<path fill="none" stroke="midnightblue" d="M1747.03,-192.933C1777.3,-182.553 1818.03,-168.589 1846.61,-158.792"/>
<polygon fill="midnightblue" stroke="midnightblue" points="1847.85,-162.067 1856.17,-155.513 1845.58,-155.445 1847.85,-162.067"/>
</g>
<!-- Node34&#45;&gt;Node46 -->
<g id="edge56" class="edge"><title>Node34&#45;&gt;Node46</title>
<path fill="none" stroke="midnightblue" d="M1653.25,-192.933C1613.47,-182.326 1559.66,-167.977 1522.83,-158.156"/>
<polygon fill="midnightblue" stroke="midnightblue" points="1523.49,-154.708 1512.92,-155.513 1521.68,-161.471 1523.49,-154.708"/>
</g>
<!-- Node47 -->
<g id="node47" class="node"><title>Node47</title>
<polygon fill="none" stroke="#bfbfbf" points="1947,-136.5 1947,-155.5 2033,-155.5 2033,-136.5 1947,-136.5"/>
<text text-anchor="middle" x="1990" y="-143.5" font-family="Helvetica,sans-Serif" font-size="10.00">TParticlePDG.h</text>
</g>
<!-- Node34&#45;&gt;Node47 -->
<g id="edge57" class="edge"><title>Node34&#45;&gt;Node47</title>
<path fill="none" stroke="midnightblue" d="M1763.22,-193.922C1766.19,-193.266 1769.13,-192.622 1772,-192 1828.41,-179.769 1893.21,-166.491 1937.4,-157.552"/>
<polygon fill="midnightblue" stroke="midnightblue" points="1938.23,-160.955 1947.34,-155.545 1936.84,-154.094 1938.23,-160.955"/>
</g>
<!-- Node48 -->
<g id="node48" class="node"><title>Node48</title>
<polygon fill="none" stroke="#bfbfbf" points="2051.5,-136.5 2051.5,-155.5 2134.5,-155.5 2134.5,-136.5 2051.5,-136.5"/>
<text text-anchor="middle" x="2093" y="-143.5" font-family="Helvetica,sans-Serif" font-size="10.00">TMCProcess.h</text>
</g>
<!-- Node34&#45;&gt;Node48 -->
<g id="edge58" class="edge"><title>Node34&#45;&gt;Node48</title>
<path fill="none" stroke="midnightblue" d="M1763.17,-193.672C1766.15,-193.082 1769.11,-192.52 1772,-192 1888.01,-171.128 1920.66,-174.332 2041.28,-156.045"/>
<polygon fill="midnightblue" stroke="midnightblue" points="2041.92,-159.487 2051.28,-154.511 2040.86,-152.568 2041.92,-159.487"/>
</g>
<!-- Node38&#45;&gt;Node9 -->
<g id="edge49" class="edge"><title>Node38&#45;&gt;Node9</title>
<path fill="none" stroke="midnightblue" d="M2152.19,-136.935C2149.08,-136.599 2146.01,-136.284 2143,-136 1824.26,-105.854 1437.65,-90.5834 1316.31,-86.2901"/>
<polygon fill="midnightblue" stroke="midnightblue" points="1316.18,-82.7833 1306.06,-85.9313 1315.93,-89.779 1316.18,-82.7833"/>
</g>
<!-- Node38&#45;&gt;Node12 -->
<g id="edge48" class="edge"><title>Node38&#45;&gt;Node12</title>
<path fill="none" stroke="midnightblue" d="M2152.05,-136.97C2059.63,-124.593 1884.75,-101.172 1805.23,-90.5214"/>
<polygon fill="midnightblue" stroke="midnightblue" points="1805.48,-87.0246 1795.11,-89.1662 1804.55,-93.9627 1805.48,-87.0246"/>
</g>
<!-- Node39 -->
<g id="node39" class="node"><title>Node39</title>
<polygon fill="none" stroke="#bfbfbf" points="2095,-74.5 2095,-93.5 2141,-93.5 2141,-74.5 2095,-74.5"/>
<text text-anchor="middle" x="2118" y="-81.5" font-family="Helvetica,sans-Serif" font-size="10.00">cstdint</text>
</g>
<!-- Node38&#45;&gt;Node39 -->
<g id="edge46" class="edge"><title>Node38&#45;&gt;Node39</title>
<path fill="none" stroke="midnightblue" d="M2198.53,-136.403C2183.32,-126.691 2158.31,-110.732 2140.2,-99.1697"/>
<polygon fill="midnightblue" stroke="midnightblue" points="2141.76,-96.0108 2131.44,-93.5806 2137.99,-101.911 2141.76,-96.0108"/>
</g>
<!-- Node40 -->
<g id="node40" class="node"><title>Node40</title>
<polygon fill="none" stroke="#bfbfbf" points="2156,-6.5 2156,-25.5 2194,-25.5 2194,-6.5 2156,-6.5"/>
<text text-anchor="middle" x="2175" y="-13.5" font-family="Helvetica,sans-Serif" font-size="10.00">array</text>
</g>
<!-- Node38&#45;&gt;Node40 -->
<g id="edge47" class="edge"><title>Node38&#45;&gt;Node40</title>
<path fill="none" stroke="midnightblue" d="M2206.58,-136.384C2201.29,-127.573 2193.41,-113.326 2189,-100 2181.98,-78.81 2178.36,-53.3571 2176.57,-36.2726"/>
<polygon fill="midnightblue" stroke="midnightblue" points="2180.02,-35.5705 2175.61,-25.9371 2173.05,-36.218 2180.02,-35.5705"/>
</g>
<!-- Node41 -->
<g id="node41" class="node"><title>Node41</title>
<g id="a_node41"><a xlink:href="../../d9/ded/Utils_8h.html" target="_top" xlink:title="DetectorsBase/Utils.h">
<polygon fill="none" stroke="black" points="2197.5,-74.5 2197.5,-93.5 2310.5,-93.5 2310.5,-74.5 2197.5,-74.5"/>
<text text-anchor="middle" x="2254" y="-81.5" font-family="Helvetica,sans-Serif" font-size="10.00">DetectorsBase/Utils.h</text>
</a>
</g>
</g>
<!-- Node38&#45;&gt;Node41 -->
<g id="edge50" class="edge"><title>Node38&#45;&gt;Node41</title>
<path fill="none" stroke="midnightblue" d="M2218.02,-136.403C2224.32,-127.403 2234.37,-113.041 2242.25,-101.782"/>
<polygon fill="midnightblue" stroke="midnightblue" points="2245.13,-103.78 2247.99,-93.5806 2239.39,-99.7658 2245.13,-103.78"/>
</g>
<!-- Node44 -->
<g id="node44" class="node"><title>Node44</title>
<polygon fill="none" stroke="#bfbfbf" points="2328.5,-74.5 2328.5,-93.5 2377.5,-93.5 2377.5,-74.5 2328.5,-74.5"/>
<text text-anchor="middle" x="2353" y="-81.5" font-family="Helvetica,sans-Serif" font-size="10.00">cassert</text>
</g>
<!-- Node38&#45;&gt;Node44 -->
<g id="edge54" class="edge"><title>Node38&#45;&gt;Node44</title>
<path fill="none" stroke="midnightblue" d="M2232.56,-136.479C2254.13,-127.507 2289.02,-112.917 2319,-100 2320.78,-99.2342 2322.61,-98.4418 2324.45,-97.6397"/>
<polygon fill="midnightblue" stroke="midnightblue" points="2325.85,-100.845 2333.61,-93.6252 2323.04,-94.4338 2325.85,-100.845"/>
</g>
<!-- Node41&#45;&gt;Node40 -->
<g id="edge53" class="edge"><title>Node41&#45;&gt;Node40</title>
<path fill="none" stroke="midnightblue" d="M2243.67,-74.3717C2230.9,-63.6992 2208.93,-45.3427 2193.28,-32.2683"/>
<polygon fill="midnightblue" stroke="midnightblue" points="2195.25,-29.3559 2185.33,-25.6305 2190.76,-34.7279 2195.25,-29.3559"/>
</g>
<!-- Node42 -->
<g id="node42" class="node"><title>Node42</title>
<g id="a_node42"><a xlink:href="../../d1/daa/Base_2include_2DetectorsBase_2Constants_8h.html" target="_top" xlink:title="DetectorsBase/Constants.h">
<polygon fill="none" stroke="black" points="2287,-6.5 2287,-25.5 2425,-25.5 2425,-6.5 2287,-6.5"/>
<text text-anchor="middle" x="2356" y="-13.5" font-family="Helvetica,sans-Serif" font-size="10.00">DetectorsBase/Constants.h</text>
</a>
</g>
</g>
<!-- Node41&#45;&gt;Node42 -->
<g id="edge51" class="edge"><title>Node41&#45;&gt;Node42</title>
<path fill="none" stroke="midnightblue" d="M2267.33,-74.3717C2284.29,-63.4027 2313.78,-44.317 2334.07,-31.1912"/>
<polygon fill="midnightblue" stroke="midnightblue" points="2336.17,-34.0015 2342.66,-25.6305 2332.36,-28.1245 2336.17,-34.0015"/>
</g>
<!-- Node43 -->
<g id="node43" class="node"><title>Node43</title>
<polygon fill="none" stroke="#bfbfbf" points="2225,-6.5 2225,-25.5 2269,-25.5 2269,-6.5 2225,-6.5"/>
<text text-anchor="middle" x="2247" y="-13.5" font-family="Helvetica,sans-Serif" font-size="10.00">cmath</text>
</g>
<!-- Node41&#45;&gt;Node43 -->
<g id="edge52" class="edge"><title>Node41&#45;&gt;Node43</title>
<path fill="none" stroke="midnightblue" d="M2253.08,-74.3717C2252.05,-64.6426 2250.34,-48.528 2249,-35.8504"/>
<polygon fill="midnightblue" stroke="midnightblue" points="2252.47,-35.4162 2247.94,-25.8411 2245.51,-36.1545 2252.47,-35.4162"/>
</g>
</g>
</svg>
        <g id="navigator" transform="translate(0 0)" fill="#404254">
                <rect fill="#f2f5e9" fill-opacity="0.5" stroke="#606060" stroke-width=".5" x="0" y="0" width="60" height="60"/>
                <use id="zoomplus" xlink:href="#zoomPlus" x="17" y="9" onmousedown="handleZoom(evt,'in')"/>
                <use id="zoomminus" xlink:href="#zoomMin" x="42" y="9" onmousedown="handleZoom(evt,'out')"/>
                <use id="reset" xlink:href="#resetDef" x="30" y="36" onmousedown="handleReset()"/>
                <g id="arrowUp" xlink:href="#dirArrow" transform="translate(30 24)" onmousedown="handlePan(0,-1)">
                  <use xlink:href="#rim" fill="#404040">
                        <set attributeName="fill" to="#808080" begin="arrowUp.mouseover" end="arrowUp.mouseout"/>
                  </use>
                  <path fill="none" stroke="white" stroke-width="1.5" d="M0,-3.0v7 M-2.5,-0.5L0,-3.0L2.5,-0.5"/>
                </g>
                <g id="arrowRight" xlink:href="#dirArrow" transform="rotate(90) translate(36 -43)" onmousedown="handlePan(1,0)">
                  <use xlink:href="#rim" fill="#404040">
                        <set attributeName="fill" to="#808080" begin="arrowRight.mouseover" end="arrowRight.mouseout"/>
                  </use>
                  <path fill="none" stroke="white" stroke-width="1.5" d="M0,-3.0v7 M-2.5,-0.5L0,-3.0L2.5,-0.5"/>
                </g>
                <g id="arrowDown" xlink:href="#dirArrow" transform="rotate(180) translate(-30 -48)" onmousedown="handlePan(0,1)">
                  <use xlink:href="#rim" fill="#404040">
                        <set attributeName="fill" to="#808080" begin="arrowDown.mouseover" end="arrowDown.mouseout"/>
                  </use>
                  <path fill="none" stroke="white" stroke-width="1.5" d="M0,-3.0v7 M-2.5,-0.5L0,-3.0L2.5,-0.5"/>
                </g>
                <g id="arrowLeft" xlink:href="#dirArrow" transform="rotate(270) translate(-36 17)" onmousedown="handlePan(-1,0)">
                  <use xlink:href="#rim" fill="#404040">
                        <set attributeName="fill" to="#808080" begin="arrowLeft.mouseover" end="arrowLeft.mouseout"/>
                  </use>
                  <path fill="none" stroke="white" stroke-width="1.5" d="M0,-3.0v7 M-2.5,-0.5L0,-3.0L2.5,-0.5"/>
                </g>
        </g>
        <svg viewBox="0 0 15 15" width="100%" height="30px" preserveAspectRatio="xMaxYMin meet">
         <g id="arrow_out" transform="scale(0.3 0.3)">
          <a xlink:href="TRD_2simulation_2src_2Detector_8cxx__incl_org.svg" target="_base">
           <rect id="button" ry="5" rx="5" y="6" x="6" height="38" width="38"
                fill="#f2f5e9" fill-opacity="0.5" stroke="#606060" stroke-width="1.0"/>
           <path id="arrow"
             d="M 11.500037,31.436501 C 11.940474,20.09759 22.043105,11.32322 32.158766,21.979434 L 37.068811,17.246167 C 37.068811,17.246167 37.088388,32 37.088388,32 L 22.160133,31.978069 C 22.160133,31.978069 26.997745,27.140456 26.997745,27.140456 C 18.528582,18.264221 13.291696,25.230495 11.500037,31.436501 z"
             style="fill:#404040;"/>
          </a>
         </g>
        </svg>
</svg>
