<?xml version="1.0" encoding="UTF-8" standalone="no"?>
<!DOCTYPE svg PUBLIC "-//W3C//DTD SVG 1.1//EN"
 "http://www.w3.org/Graphics/SVG/1.1/DTD/svg11.dtd">
<!-- Generated by graphviz version 2.36.0 (20140111.2315)
 -->
<!-- Title: o2::Base::Detector Pages: 1 -->
<svg width="278pt" height="414pt"
 viewBox="0.00 0.00 278.00 414.00" xmlns="http://www.w3.org/2000/svg" xmlns:xlink="http://www.w3.org/1999/xlink">
<g id="graph0" class="graph" transform="scale(1 1) rotate(0) translate(4 410)">
<title>o2::Base::Detector</title>
<!-- Node1 -->
<g id="node1" class="node"><title>Node1</title>
<polygon fill="#bfbfbf" stroke="black" points="28.5,-1 28.5,-289 195.5,-289 195.5,-1 28.5,-1"/>
<text text-anchor="middle" x="112" y="-277" font-family="Helvetica,sans-Serif" font-size="10.00">o2::Base::Detector</text>
<polyline fill="none" stroke="black" points="28.5,-270 195.5,-270 "/>
<text text-anchor="middle" x="112" y="-258" font-family="Helvetica,sans-Serif" font-size="10.00"> </text>
<polyline fill="none" stroke="black" points="28.5,-251 195.5,-251 "/>
<text text-anchor="start" x="36.5" y="-239" font-family="Helvetica,sans-Serif" font-size="10.00">+ Detector()</text>
<text text-anchor="start" x="36.5" y="-228" font-family="Helvetica,sans-Serif" font-size="10.00">+ Detector()</text>
<text text-anchor="start" x="36.5" y="-217" font-family="Helvetica,sans-Serif" font-size="10.00">+ ~Detector()</text>
<text text-anchor="start" x="36.5" y="-206" font-family="Helvetica,sans-Serif" font-size="10.00">+ Material()</text>
<text text-anchor="start" x="36.5" y="-195" font-family="Helvetica,sans-Serif" font-size="10.00">+ Mixture()</text>
<text text-anchor="start" x="36.5" y="-184" font-family="Helvetica,sans-Serif" font-size="10.00">+ Medium()</text>
<text text-anchor="start" x="36.5" y="-173" font-family="Helvetica,sans-Serif" font-size="10.00">+ Matrix()</text>
<text text-anchor="start" x="36.5" y="-162" font-family="Helvetica,sans-Serif" font-size="10.00">+ defineWrapperVolume()</text>
<text text-anchor="start" x="36.5" y="-151" font-family="Helvetica,sans-Serif" font-size="10.00">+ setNumberOfWrapperVolumes()</text>
<text text-anchor="start" x="36.5" y="-140" font-family="Helvetica,sans-Serif" font-size="10.00">+ defineLayer()</text>
<text text-anchor="start" x="36.5" y="-129" font-family="Helvetica,sans-Serif" font-size="10.00">+ defineLayerTurbo()</text>
<text text-anchor="start" x="36.5" y="-118" font-family="Helvetica,sans-Serif" font-size="10.00">+ getMaterialID()</text>
<text text-anchor="start" x="36.5" y="-107" font-family="Helvetica,sans-Serif" font-size="10.00">+ getMediumID()</text>
<text text-anchor="start" x="36.5" y="-96" font-family="Helvetica,sans-Serif" font-size="10.00">+ getMediumIDMappingAsVector()</text>
<text text-anchor="start" x="36.5" y="-85" font-family="Helvetica,sans-Serif" font-size="10.00">+ addNameTo()</text>
<text text-anchor="start" x="36.5" y="-74" font-family="Helvetica,sans-Serif" font-size="10.00">+ updateHitTrackIndices()</text>
<text text-anchor="start" x="36.5" y="-63" font-family="Helvetica,sans-Serif" font-size="10.00">+ GetCollection()</text>
<text text-anchor="start" x="36.5" y="-52" font-family="Helvetica,sans-Serif" font-size="10.00">+ setDensityFactor()</text>
<text text-anchor="start" x="36.5" y="-41" font-family="Helvetica,sans-Serif" font-size="10.00">+ getDensityFactor()</text>
<text text-anchor="start" x="36.5" y="-30" font-family="Helvetica,sans-Serif" font-size="10.00">+ initFieldTrackingParams()</text>
<text text-anchor="start" x="36.5" y="-19" font-family="Helvetica,sans-Serif" font-size="10.00"># Detector()</text>
<text text-anchor="start" x="36.5" y="-8" font-family="Helvetica,sans-Serif" font-size="10.00"># operator=()</text>
</g>
<!-- Node2 -->
<g id="node2" class="node"><title>Node2</title>
<g id="a_node2"><a xlink:href="../../d6/d0c/classFairDetector.html" target="_top" xlink:title="{FairDetector\n||}">
<polygon fill="none" stroke="black" points="-0.5,-348.5 -0.5,-405.5 70.5,-405.5 70.5,-348.5 -0.5,-348.5"/>
<text text-anchor="middle" x="35" y="-393.5" font-family="Helvetica,sans-Serif" font-size="10.00">FairDetector</text>
<polyline fill="none" stroke="black" points="-0.5,-386.5 70.5,-386.5 "/>
<text text-anchor="middle" x="35" y="-374.5" font-family="Helvetica,sans-Serif" font-size="10.00"> </text>
<polyline fill="none" stroke="black" points="-0.5,-367.5 70.5,-367.5 "/>
<text text-anchor="middle" x="35" y="-355.5" font-family="Helvetica,sans-Serif" font-size="10.00"> </text>
</a>
</g>
</g>
<!-- Node2&#45;&gt;Node1 -->
<g id="edge1" class="edge"><title>Node2&#45;&gt;Node1</title>
<path fill="none" stroke="midnightblue" d="M47.5626,-338.475C52.3114,-324.291 58.0444,-307.166 64.1085,-289.053"/>
<polygon fill="none" stroke="midnightblue" points="44.1438,-337.663 44.288,-348.257 50.7817,-339.885 44.1438,-337.663"/>
</g>
<!-- Node3 -->
<g id="node3" class="node"><title>Node3</title>
<g id="a_node3"><a xlink:href="../../d9/d7d/classFloat__t.html" target="_top" xlink:title="{Float_t\n||}">
<polygon fill="none" stroke="black" points="88.5,-348.5 88.5,-405.5 135.5,-405.5 135.5,-348.5 88.5,-348.5"/>
<text text-anchor="middle" x="112" y="-393.5" font-family="Helvetica,sans-Serif" font-size="10.00">Float_t</text>
<polyline fill="none" stroke="black" points="88.5,-386.5 135.5,-386.5 "/>
<text text-anchor="middle" x="112" y="-374.5" font-family="Helvetica,sans-Serif" font-size="10.00"> </text>
<polyline fill="none" stroke="black" points="88.5,-367.5 135.5,-367.5 "/>
<text text-anchor="middle" x="112" y="-355.5" font-family="Helvetica,sans-Serif" font-size="10.00"> </text>
</a>
</g>
</g>
<!-- Node3&#45;&gt;Node1 -->
<g id="edge2" class="edge"><title>Node3&#45;&gt;Node1</title>
<path fill="none" stroke="#404040" d="M112,-348.257C112,-335.43 112,-319.089 112,-301.273"/>
<polygon fill="none" stroke="#404040" points="112,-301.053 108,-295.053 112,-289.053 116,-295.053 112,-301.053"/>
<text text-anchor="middle" x="151.5" y="-316.5" font-family="Helvetica,sans-Serif" font-size="10.00"> #mDensityFactor</text>
</g>
<!-- Node4 -->
<g id="node4" class="node"><title>Node4</title>
<polygon fill="none" stroke="#bfbfbf" points="174,-348.5 174,-405.5 254,-405.5 254,-348.5 174,-348.5"/>
<text text-anchor="middle" x="214" y="-393.5" font-family="Helvetica,sans-Serif" font-size="10.00">map&lt; int, int &gt;</text>
<polyline fill="none" stroke="#bfbfbf" points="174,-386.5 254,-386.5 "/>
<text text-anchor="middle" x="214" y="-374.5" font-family="Helvetica,sans-Serif" font-size="10.00"> </text>
<polyline fill="none" stroke="#bfbfbf" points="174,-367.5 254,-367.5 "/>
<text text-anchor="middle" x="214" y="-355.5" font-family="Helvetica,sans-Serif" font-size="10.00"> </text>
</g>
<!-- Node4&#45;&gt;Node1 -->
<g id="edge3" class="edge"><title>Node4&#45;&gt;Node1</title>
<path fill="none" stroke="#404040" d="M206.014,-348.211C202.181,-335.762 197.276,-320.991 192,-308 190.969,-305.462 189.915,-302.908 188.842,-300.343"/>
<polygon fill="none" stroke="#404040" points="188.726,-300.072 182.691,-296.124 184.014,-289.035 190.049,-292.983 188.726,-300.072"/>
<text text-anchor="middle" x="235" y="-322" font-family="Helvetica,sans-Serif" font-size="10.00"> #mMapMaterial</text>
<text text-anchor="middle" x="235" y="-311" font-family="Helvetica,sans-Serif" font-size="10.00">#mMapMedium</text>
</g>
</g>
</svg>
