<?xml version="1.0" encoding="UTF-8" standalone="no"?>
<!DOCTYPE svg PUBLIC "-//W3C//DTD SVG 1.1//EN"
 "http://www.w3.org/Graphics/SVG/1.1/DTD/svg11.dtd">
<!-- Generated by graphviz version 2.36.0 (20140111.2315)
 -->
<!-- Title: /home/travis/build/AliceO2Group/AliceO2/Detectors/ITSMFT/ITS/simulation/include/ITSSimulation/V1Layer.h Pages: 1 -->
<!--zoomable 456 -->
<svg id="main" version="1.1" xmlns="http://www.w3.org/2000/svg" xmlns:xlink="http://www.w3.org/1999/xlink" xml:space="preserve" onload="init(evt)">
<style type="text/css"><![CDATA[
.edge:hover path { stroke: red; }
.edge:hover polygon { stroke: red; fill: red; }
]]></style>
<script type="text/javascript"><![CDATA[
var edges = document.getElementsByTagName('g');
if (edges && edges.length) {
  for (var i=0;i<edges.length;i++) {
    if (edges[i].id.substr(0,4)=='edge') {
      edges[i].setAttribute('class','edge');
    }
  }
}
]]></script>
        <defs>
                <circle id="rim" cx="0" cy="0" r="7"/>
                <circle id="rim2" cx="0" cy="0" r="3.5"/>
                <g id="zoomPlus">
                        <use xlink:href="#rim" fill="#404040">
                                <set attributeName="fill" to="#808080" begin="zoomplus.mouseover" end="zoomplus.mouseout"/>
                        </use>
                        <path d="M-4,0h8M0,-4v8" fill="none" stroke="white" stroke-width="1.5" pointer-events="none"/>
                </g>
                <g id="zoomMin">
                        <use xlink:href="#rim" fill="#404040">
                                <set attributeName="fill" to="#808080" begin="zoomminus.mouseover" end="zoomminus.mouseout"/>
                        </use>
                        <path d="M-4,0h8" fill="none" stroke="white" stroke-width="1.5" pointer-events="none"/>
                </g>
                <g id="dirArrow">
                        <path fill="none" stroke="white" stroke-width="1.5" d="M0,-3.0v7 M-2.5,-0.5L0,-3.0L2.5,-0.5"/>
                </g>
               <g id="resetDef">
                       <use xlink:href="#rim2" fill="#404040">
                               <set attributeName="fill" to="#808080" begin="reset.mouseover" end="reset.mouseout"/>
                       </use>
               </g>
        </defs>

<script type="text/javascript">
var viewWidth = 2063;
var viewHeight = 456;
var sectionId = 'dynsection-0';
</script>
<script xlink:href="../../svgpan.js"/>
<svg id="graph" class="graph">
<g id="viewport">
<title>/home/travis/build/AliceO2Group/AliceO2/Detectors/ITSMFT/ITS/simulation/include/ITSSimulation/V1Layer.h</title>
<!-- Node1 -->
<g id="node1" class="node"><title>Node1</title>
<polygon fill="#bfbfbf" stroke="black" points="110,-384.5 110,-447.5 272,-447.5 272,-384.5 110,-384.5"/>
<text text-anchor="start" x="118" y="-435.5" font-family="Helvetica,sans-Serif" font-size="10.00">/home/travis/build</text>
<text text-anchor="start" x="118" y="-424.5" font-family="Helvetica,sans-Serif" font-size="10.00">/AliceO2Group/AliceO2</text>
<text text-anchor="start" x="118" y="-413.5" font-family="Helvetica,sans-Serif" font-size="10.00">/Detectors/ITSMFT/ITS</text>
<text text-anchor="start" x="118" y="-402.5" font-family="Helvetica,sans-Serif" font-size="10.00">/simulation/include/ITSSimulation</text>
<text text-anchor="middle" x="191" y="-391.5" font-family="Helvetica,sans-Serif" font-size="10.00">/V1Layer.h</text>
</g>
<!-- Node2 -->
<g id="node2" class="node"><title>Node2</title>
<polygon fill="none" stroke="#bfbfbf" points="248,-272.5 248,-291.5 334,-291.5 334,-272.5 248,-272.5"/>
<text text-anchor="middle" x="291" y="-279.5" font-family="Helvetica,sans-Serif" font-size="10.00">TGeoManager.h</text>
</g>
<!-- Node1&#45;&gt;Node2 -->
<g id="edge1" class="edge"><title>Node1&#45;&gt;Node2</title>
<path fill="none" stroke="midnightblue" d="M214.193,-384.385C234.185,-357.995 262.295,-320.89 278.379,-299.659"/>
<polygon fill="midnightblue" stroke="midnightblue" points="281.229,-301.694 284.477,-291.61 275.649,-297.467 281.229,-301.694"/>
</g>
<!-- Node3 -->
<g id="node3" class="node"><title>Node3</title>
<polygon fill="none" stroke="#bfbfbf" points="807,-74.5 807,-93.5 863,-93.5 863,-74.5 807,-74.5"/>
<text text-anchor="middle" x="835" y="-81.5" font-family="Helvetica,sans-Serif" font-size="10.00">Rtypes.h</text>
</g>
<!-- Node1&#45;&gt;Node3 -->
<g id="edge2" class="edge"><title>Node1&#45;&gt;Node3</title>
<path fill="none" stroke="midnightblue" d="M109.999,-393.427C57.9418,-374.106 0,-339.834 0,-283 0,-283 0,-283 0,-219 0,-132.114 92.9876,-158.162 177,-136 295.416,-104.763 674.884,-90.1324 796.857,-86.1555"/>
<polygon fill="midnightblue" stroke="midnightblue" points="796.97,-89.6538 806.853,-85.8348 796.746,-82.6574 796.97,-89.6538"/>
</g>
<!-- Node4 -->
<g id="node4" class="node"><title>Node4</title>
<g id="a_node4"><a xlink:href="../../d1/d2f/V11Geometry_8h.html" target="_top" xlink:title="Definition of the V11Geometry class. ">
<polygon fill="none" stroke="black" points="55.5,-328.5 55.5,-347.5 204.5,-347.5 204.5,-328.5 55.5,-328.5"/>
<text text-anchor="middle" x="130" y="-335.5" font-family="Helvetica,sans-Serif" font-size="10.00">ITSSimulation/V11Geometry.h</text>
</a>
</g>
</g>
<!-- Node1&#45;&gt;Node4 -->
<g id="edge3" class="edge"><title>Node1&#45;&gt;Node4</title>
<path fill="none" stroke="midnightblue" d="M166.189,-384.088C158.355,-374.328 150.002,-363.921 143.297,-355.567"/>
<polygon fill="midnightblue" stroke="midnightblue" points="145.987,-353.326 136.997,-347.718 140.527,-357.708 145.987,-353.326"/>
</g>
<!-- Node7 -->
<g id="node7" class="node"><title>Node7</title>
<g id="a_node7"><a xlink:href="../../d6/d8d/ITSMFT_2ITS_2simulation_2include_2ITSSimulation_2Detector_8h.html" target="_top" xlink:title="ITSSimulation/Detector.h">
<polygon fill="none" stroke="black" points="624.5,-328.5 624.5,-347.5 751.5,-347.5 751.5,-328.5 624.5,-328.5"/>
<text text-anchor="middle" x="688" y="-335.5" font-family="Helvetica,sans-Serif" font-size="10.00">ITSSimulation/Detector.h</text>
</a>
</g>
</g>
<!-- Node1&#45;&gt;Node7 -->
<g id="edge7" class="edge"><title>Node1&#45;&gt;Node7</title>
<path fill="none" stroke="midnightblue" d="M272.235,-402.578C369.891,-387.644 531.874,-362.874 622.122,-349.074"/>
<polygon fill="midnightblue" stroke="midnightblue" points="622.873,-352.5 632.229,-347.528 621.815,-345.58 622.873,-352.5"/>
</g>
<!-- Node4&#45;&gt;Node3 -->
<g id="edge6" class="edge"><title>Node4&#45;&gt;Node3</title>
<path fill="none" stroke="midnightblue" d="M126.512,-328.259C117.839,-304.931 98.1379,-240.499 129,-204 216.029,-101.075 662.3,-87.1339 796.671,-85.2768"/>
<polygon fill="midnightblue" stroke="midnightblue" points="796.932,-88.774 806.888,-85.151 796.845,-81.7745 796.932,-88.774"/>
</g>
<!-- Node5 -->
<g id="node5" class="node"><title>Node5</title>
<polygon fill="none" stroke="#bfbfbf" points="28.5,-272.5 28.5,-291.5 81.5,-291.5 81.5,-272.5 28.5,-272.5"/>
<text text-anchor="middle" x="55" y="-279.5" font-family="Helvetica,sans-Serif" font-size="10.00">TMath.h</text>
</g>
<!-- Node4&#45;&gt;Node5 -->
<g id="edge4" class="edge"><title>Node4&#45;&gt;Node5</title>
<path fill="none" stroke="midnightblue" d="M117.95,-328.324C106.537,-320.107 89.169,-307.602 75.5651,-297.807"/>
<polygon fill="midnightblue" stroke="midnightblue" points="77.4297,-294.837 67.2693,-291.834 73.3396,-300.517 77.4297,-294.837"/>
</g>
<!-- Node6 -->
<g id="node6" class="node"><title>Node6</title>
<polygon fill="none" stroke="#bfbfbf" points="138.5,-272.5 138.5,-291.5 197.5,-291.5 197.5,-272.5 138.5,-272.5"/>
<text text-anchor="middle" x="168" y="-279.5" font-family="Helvetica,sans-Serif" font-size="10.00">TObject.h</text>
</g>
<!-- Node4&#45;&gt;Node6 -->
<g id="edge5" class="edge"><title>Node4&#45;&gt;Node6</title>
<path fill="none" stroke="midnightblue" d="M136.275,-328.083C141.642,-320.455 149.518,-309.264 156.079,-299.941"/>
<polygon fill="midnightblue" stroke="midnightblue" points="158.949,-301.943 161.842,-291.751 153.225,-297.915 158.949,-301.943"/>
</g>
<!-- Node7&#45;&gt;Node2 -->
<g id="edge50" class="edge"><title>Node7&#45;&gt;Node2</title>
<path fill="none" stroke="midnightblue" d="M625.094,-328.444C547.573,-317.899 417.2,-300.166 344.352,-290.257"/>
<polygon fill="midnightblue" stroke="midnightblue" points="344.415,-286.733 334.035,-288.854 343.472,-293.67 344.415,-286.733"/>
</g>
<!-- Node7&#45;&gt;Node3 -->
<g id="edge48" class="edge"><title>Node7&#45;&gt;Node3</title>
<path fill="none" stroke="midnightblue" d="M716.436,-328.464C754.156,-315.429 819.204,-286.586 847,-236 870.573,-193.099 853.521,-132.753 842.459,-103.013"/>
<polygon fill="midnightblue" stroke="midnightblue" points="845.65,-101.562 838.741,-93.5293 839.133,-104.117 845.65,-101.562"/>
</g>
<!-- Node8 -->
<g id="node8" class="node"><title>Node8</title>
<g id="a_node8"><a xlink:href="../../d1/d3a/Base_2include_2DetectorsBase_2Detector_8h.html" target="_top" xlink:title="DetectorsBase/Detector.h">
<polygon fill="none" stroke="black" points="575.5,-272.5 575.5,-291.5 706.5,-291.5 706.5,-272.5 575.5,-272.5"/>
<text text-anchor="middle" x="641" y="-279.5" font-family="Helvetica,sans-Serif" font-size="10.00">DetectorsBase/Detector.h</text>
</a>
</g>
</g>
<!-- Node7&#45;&gt;Node8 -->
<g id="edge8" class="edge"><title>Node7&#45;&gt;Node8</title>
<path fill="none" stroke="midnightblue" d="M680.239,-328.083C673.463,-320.298 663.457,-308.801 655.245,-299.367"/>
<polygon fill="midnightblue" stroke="midnightblue" points="657.822,-296.996 648.617,-291.751 652.542,-301.592 657.822,-296.996"/>
</g>
<!-- Node10 -->
<g id="node10" class="node"><title>Node10</title>
<polygon fill="none" stroke="#bfbfbf" points="715,-210.5 715,-229.5 759,-229.5 759,-210.5 715,-210.5"/>
<text text-anchor="middle" x="737" y="-217.5" font-family="Helvetica,sans-Serif" font-size="10.00">vector</text>
</g>
<!-- Node7&#45;&gt;Node10 -->
<g id="edge53" class="edge"><title>Node7&#45;&gt;Node10</title>
<path fill="none" stroke="midnightblue" d="M694.033,-328.376C699.991,-319.559 709.05,-305.308 715,-292 722.723,-274.727 728.816,-253.949 732.613,-239.347"/>
<polygon fill="midnightblue" stroke="midnightblue" points="736.034,-240.095 735.058,-229.546 729.242,-238.401 736.034,-240.095"/>
</g>
<!-- Node18 -->
<g id="node18" class="node"><title>Node18</title>
<g id="a_node18"><a xlink:href="../../d6/d31/DetID_8h.html" target="_top" xlink:title="DetectorsBase/DetID.h">
<polygon fill="none" stroke="black" points="991.5,-272.5 991.5,-291.5 1110.5,-291.5 1110.5,-272.5 991.5,-272.5"/>
<text text-anchor="middle" x="1051" y="-279.5" font-family="Helvetica,sans-Serif" font-size="10.00">DetectorsBase/DetID.h</text>
</a>
</g>
</g>
<!-- Node7&#45;&gt;Node18 -->
<g id="edge19" class="edge"><title>Node7&#45;&gt;Node18</title>
<path fill="none" stroke="midnightblue" d="M745.518,-328.444C810.17,-318.826 915.026,-303.228 983.503,-293.041"/>
<polygon fill="midnightblue" stroke="midnightblue" points="984.375,-296.45 993.751,-291.516 983.344,-289.526 984.375,-296.45"/>
</g>
<!-- Node25 -->
<g id="node25" class="node"><title>Node25</title>
<g id="a_node25"><a xlink:href="../../d0/dae/ITSMFT_2common_2simulation_2include_2ITSMFTSimulation_2Hit_8h.html" target="_top" xlink:title="ITSMFTSimulation/Hit.h">
<polygon fill="none" stroke="black" points="1349,-272.5 1349,-291.5 1471,-291.5 1471,-272.5 1349,-272.5"/>
<text text-anchor="middle" x="1410" y="-279.5" font-family="Helvetica,sans-Serif" font-size="10.00">ITSMFTSimulation/Hit.h</text>
</a>
</g>
</g>
<!-- Node7&#45;&gt;Node25 -->
<g id="edge29" class="edge"><title>Node7&#45;&gt;Node25</title>
<path fill="none" stroke="midnightblue" d="M751.756,-332.232C886.151,-322.18 1197.71,-298.877 1338.57,-288.342"/>
<polygon fill="midnightblue" stroke="midnightblue" points="1339.11,-291.812 1348.82,-287.576 1338.59,-284.831 1339.11,-291.812"/>
</g>
<!-- Node39 -->
<g id="node39" class="node"><title>Node39</title>
<polygon fill="none" stroke="#bfbfbf" points="1582.5,-210.5 1582.5,-229.5 1647.5,-229.5 1647.5,-210.5 1582.5,-210.5"/>
<text text-anchor="middle" x="1615" y="-217.5" font-family="Helvetica,sans-Serif" font-size="10.00">TVector3.h</text>
</g>
<!-- Node7&#45;&gt;Node39 -->
<g id="edge52" class="edge"><title>Node7&#45;&gt;Node39</title>
<path fill="none" stroke="midnightblue" d="M751.785,-336.855C914.808,-335.929 1343.47,-329.854 1480,-292 1523.64,-279.901 1569.21,-252.287 1594.67,-235.283"/>
<polygon fill="midnightblue" stroke="midnightblue" points="1596.8,-238.067 1603.09,-229.547 1592.86,-232.281 1596.8,-238.067"/>
</g>
<!-- Node40 -->
<g id="node40" class="node"><title>Node40</title>
<polygon fill="none" stroke="#bfbfbf" points="385,-272.5 385,-291.5 447,-291.5 447,-272.5 385,-272.5"/>
<text text-anchor="middle" x="416" y="-279.5" font-family="Helvetica,sans-Serif" font-size="10.00">TArrayD.h</text>
</g>
<!-- Node7&#45;&gt;Node40 -->
<g id="edge49" class="edge"><title>Node7&#45;&gt;Node40</title>
<path fill="none" stroke="midnightblue" d="M641.7,-328.439C596.92,-320.064 526.895,-306.723 457.246,-292.217"/>
<polygon fill="midnightblue" stroke="midnightblue" points="457.928,-288.784 447.424,-290.163 456.495,-295.636 457.928,-288.784"/>
</g>
<!-- Node41 -->
<g id="node41" class="node"><title>Node41</title>
<polygon fill="none" stroke="#bfbfbf" points="465,-272.5 465,-291.5 557,-291.5 557,-272.5 465,-272.5"/>
<text text-anchor="middle" x="511" y="-279.5" font-family="Helvetica,sans-Serif" font-size="10.00">TLorentzVector.h</text>
</g>
<!-- Node7&#45;&gt;Node41 -->
<g id="edge51" class="edge"><title>Node7&#45;&gt;Node41</title>
<path fill="none" stroke="midnightblue" d="M659.954,-328.444C629.918,-319.28 582.087,-304.688 548.757,-294.519"/>
<polygon fill="midnightblue" stroke="midnightblue" points="549.501,-291.087 538.915,-291.516 547.458,-297.782 549.501,-291.087"/>
</g>
<!-- Node8&#45;&gt;Node3 -->
<g id="edge14" class="edge"><title>Node8&#45;&gt;Node3</title>
<path fill="none" stroke="midnightblue" d="M647.876,-272.15C659.384,-257.504 683.503,-227.509 706,-204 743.664,-164.641 791.64,-122.216 817.153,-100.204"/>
<polygon fill="midnightblue" stroke="midnightblue" points="819.589,-102.726 824.897,-93.556 815.03,-97.4143 819.589,-102.726"/>
</g>
<!-- Node9 -->
<g id="node9" class="node"><title>Node9</title>
<polygon fill="none" stroke="#bfbfbf" points="623.5,-210.5 623.5,-229.5 658.5,-229.5 658.5,-210.5 623.5,-210.5"/>
<text text-anchor="middle" x="641" y="-217.5" font-family="Helvetica,sans-Serif" font-size="10.00">map</text>
</g>
<!-- Node8&#45;&gt;Node9 -->
<g id="edge9" class="edge"><title>Node8&#45;&gt;Node9</title>
<path fill="none" stroke="midnightblue" d="M641,-272.403C641,-263.938 641,-250.728 641,-239.82"/>
<polygon fill="midnightblue" stroke="midnightblue" points="644.5,-239.581 641,-229.581 637.5,-239.581 644.5,-239.581"/>
</g>
<!-- Node8&#45;&gt;Node10 -->
<g id="edge10" class="edge"><title>Node8&#45;&gt;Node10</title>
<path fill="none" stroke="midnightblue" d="M654.754,-272.403C670.366,-262.646 696.063,-246.585 714.583,-235.011"/>
<polygon fill="midnightblue" stroke="midnightblue" points="716.646,-237.849 723.271,-229.581 712.936,-231.913 716.646,-237.849"/>
</g>
<!-- Node11 -->
<g id="node11" class="node"><title>Node11</title>
<polygon fill="none" stroke="#bfbfbf" points="138,-210.5 138,-229.5 190,-229.5 190,-210.5 138,-210.5"/>
<text text-anchor="middle" x="164" y="-217.5" font-family="Helvetica,sans-Serif" font-size="10.00">memory</text>
</g>
<!-- Node8&#45;&gt;Node11 -->
<g id="edge11" class="edge"><title>Node8&#45;&gt;Node11</title>
<path fill="none" stroke="midnightblue" d="M575.159,-273.017C572.064,-272.668 568.999,-272.327 566,-272 403.072,-254.235 357.745,-276.76 199,-236 196.179,-235.276 193.292,-234.356 190.445,-233.33"/>
<polygon fill="midnightblue" stroke="midnightblue" points="191.661,-230.047 181.078,-229.561 189.048,-236.541 191.661,-230.047"/>
</g>
<!-- Node12 -->
<g id="node12" class="node"><title>Node12</title>
<polygon fill="none" stroke="#bfbfbf" points="208.5,-210.5 208.5,-229.5 287.5,-229.5 287.5,-210.5 208.5,-210.5"/>
<text text-anchor="middle" x="248" y="-217.5" font-family="Helvetica,sans-Serif" font-size="10.00">FairDetector.h</text>
</g>
<!-- Node8&#45;&gt;Node12 -->
<g id="edge12" class="edge"><title>Node8&#45;&gt;Node12</title>
<path fill="none" stroke="midnightblue" d="M575.434,-273.023C483.238,-261.714 323.525,-241.753 297,-236 292.302,-234.981 287.405,-233.724 282.601,-232.375"/>
<polygon fill="midnightblue" stroke="midnightblue" points="283.549,-229.006 272.967,-229.523 281.562,-235.718 283.549,-229.006"/>
</g>
<!-- Node13 -->
<g id="node13" class="node"><title>Node13</title>
<polygon fill="none" stroke="#bfbfbf" points="306,-210.5 306,-229.5 406,-229.5 406,-210.5 306,-210.5"/>
<text text-anchor="middle" x="356" y="-217.5" font-family="Helvetica,sans-Serif" font-size="10.00">FairRootManager.h</text>
</g>
<!-- Node8&#45;&gt;Node13 -->
<g id="edge13" class="edge"><title>Node8&#45;&gt;Node13</title>
<path fill="none" stroke="midnightblue" d="M594.536,-272.486C548.741,-263.92 476.843,-250.008 415,-236 409.588,-234.774 403.915,-233.42 398.315,-232.042"/>
<polygon fill="midnightblue" stroke="midnightblue" points="398.936,-228.59 388.386,-229.559 397.238,-235.381 398.936,-228.59"/>
</g>
<!-- Node14 -->
<g id="node14" class="node"><title>Node14</title>
<polygon fill="none" stroke="#bfbfbf" points="424.5,-210.5 424.5,-229.5 477.5,-229.5 477.5,-210.5 424.5,-210.5"/>
<text text-anchor="middle" x="451" y="-217.5" font-family="Helvetica,sans-Serif" font-size="10.00">cxxabi.h</text>
</g>
<!-- Node8&#45;&gt;Node14 -->
<g id="edge15" class="edge"><title>Node8&#45;&gt;Node14</title>
<path fill="none" stroke="midnightblue" d="M607.059,-272.428C575.399,-264.132 527.024,-250.684 486,-236 483.742,-235.192 481.421,-234.311 479.1,-233.395"/>
<polygon fill="midnightblue" stroke="midnightblue" points="480.302,-230.105 469.723,-229.524 477.63,-236.575 480.302,-230.105"/>
</g>
<!-- Node15 -->
<g id="node15" class="node"><title>Node15</title>
<polygon fill="none" stroke="#bfbfbf" points="495.5,-210.5 495.5,-229.5 546.5,-229.5 546.5,-210.5 495.5,-210.5"/>
<text text-anchor="middle" x="521" y="-217.5" font-family="Helvetica,sans-Serif" font-size="10.00">typeinfo</text>
</g>
<!-- Node8&#45;&gt;Node15 -->
<g id="edge16" class="edge"><title>Node8&#45;&gt;Node15</title>
<path fill="none" stroke="midnightblue" d="M623.807,-272.403C603.757,-262.379 570.401,-245.701 547.14,-234.07"/>
<polygon fill="midnightblue" stroke="midnightblue" points="548.671,-230.922 538.161,-229.581 545.54,-237.183 548.671,-230.922"/>
</g>
<!-- Node16 -->
<g id="node16" class="node"><title>Node16</title>
<polygon fill="none" stroke="#bfbfbf" points="777,-210.5 777,-229.5 839,-229.5 839,-210.5 777,-210.5"/>
<text text-anchor="middle" x="808" y="-217.5" font-family="Helvetica,sans-Serif" font-size="10.00">type_traits</text>
</g>
<!-- Node8&#45;&gt;Node16 -->
<g id="edge17" class="edge"><title>Node8&#45;&gt;Node16</title>
<path fill="none" stroke="midnightblue" d="M665.175,-272.428C690.555,-263.415 731.612,-248.793 767,-236 769.584,-235.066 772.258,-234.096 774.945,-233.118"/>
<polygon fill="midnightblue" stroke="midnightblue" points="776.4,-236.313 784.595,-229.598 774.001,-229.737 776.4,-236.313"/>
</g>
<!-- Node17 -->
<g id="node17" class="node"><title>Node17</title>
<polygon fill="none" stroke="#bfbfbf" points="564.5,-210.5 564.5,-229.5 605.5,-229.5 605.5,-210.5 564.5,-210.5"/>
<text text-anchor="middle" x="585" y="-217.5" font-family="Helvetica,sans-Serif" font-size="10.00">string</text>
</g>
<!-- Node8&#45;&gt;Node17 -->
<g id="edge18" class="edge"><title>Node8&#45;&gt;Node17</title>
<path fill="none" stroke="midnightblue" d="M632.977,-272.403C624.41,-263.225 610.639,-248.47 600.043,-237.117"/>
<polygon fill="midnightblue" stroke="midnightblue" points="602.39,-234.503 593.009,-229.581 597.273,-239.279 602.39,-234.503"/>
</g>
<!-- Node18&#45;&gt;Node3 -->
<g id="edge23" class="edge"><title>Node18&#45;&gt;Node3</title>
<path fill="none" stroke="midnightblue" d="M1104.5,-272.498C1127.3,-266.166 1152.22,-255.148 1168,-236 1196.46,-201.452 1209.76,-169.439 1180,-136 1134.19,-84.5222 938.755,-117.099 872,-100 869.008,-99.2336 865.936,-98.2794 862.903,-97.2262"/>
<polygon fill="midnightblue" stroke="midnightblue" points="864.084,-93.9305 853.493,-93.6325 861.586,-100.47 864.084,-93.9305"/>
</g>
<!-- Node18&#45;&gt;Node16 -->
<g id="edge22" class="edge"><title>Node18&#45;&gt;Node16</title>
<path fill="none" stroke="midnightblue" d="M1016.44,-272.467C972.373,-261.586 896.26,-242.792 849.215,-231.177"/>
<polygon fill="midnightblue" stroke="midnightblue" points="849.901,-227.741 839.353,-228.742 848.223,-234.537 849.901,-227.741"/>
</g>
<!-- Node19 -->
<g id="node19" class="node"><title>Node19</title>
<polygon fill="none" stroke="#bfbfbf" points="1094,-210.5 1094,-229.5 1140,-229.5 1140,-210.5 1094,-210.5"/>
<text text-anchor="middle" x="1117" y="-217.5" font-family="Helvetica,sans-Serif" font-size="10.00">cstdint</text>
</g>
<!-- Node18&#45;&gt;Node19 -->
<g id="edge20" class="edge"><title>Node18&#45;&gt;Node19</title>
<path fill="none" stroke="midnightblue" d="M1060.46,-272.403C1070.75,-263.047 1087.42,-247.895 1099.99,-236.46"/>
<polygon fill="midnightblue" stroke="midnightblue" points="1102.52,-238.897 1107.56,-229.581 1097.81,-233.718 1102.52,-238.897"/>
</g>
<!-- Node20 -->
<g id="node20" class="node"><title>Node20</title>
<polygon fill="none" stroke="#bfbfbf" points="1133,-142.5 1133,-161.5 1171,-161.5 1171,-142.5 1133,-142.5"/>
<text text-anchor="middle" x="1152" y="-149.5" font-family="Helvetica,sans-Serif" font-size="10.00">array</text>
</g>
<!-- Node18&#45;&gt;Node20 -->
<g id="edge21" class="edge"><title>Node18&#45;&gt;Node20</title>
<path fill="none" stroke="midnightblue" d="M1093.28,-272.459C1113.66,-266.021 1136.38,-254.924 1149,-236 1161.72,-216.927 1159.8,-189.528 1156.51,-171.504"/>
<polygon fill="midnightblue" stroke="midnightblue" points="1159.92,-170.7 1154.41,-161.65 1153.08,-172.161 1159.92,-170.7"/>
</g>
<!-- Node21 -->
<g id="node21" class="node"><title>Node21</title>
<g id="a_node21"><a xlink:href="../../d9/ded/Utils_8h.html" target="_top" xlink:title="DetectorsBase/Utils.h">
<polygon fill="none" stroke="black" points="895.5,-210.5 895.5,-229.5 1008.5,-229.5 1008.5,-210.5 895.5,-210.5"/>
<text text-anchor="middle" x="952" y="-217.5" font-family="Helvetica,sans-Serif" font-size="10.00">DetectorsBase/Utils.h</text>
</a>
</g>
</g>
<!-- Node18&#45;&gt;Node21 -->
<g id="edge24" class="edge"><title>Node18&#45;&gt;Node21</title>
<path fill="none" stroke="midnightblue" d="M1036.82,-272.403C1020.64,-262.601 993.974,-246.439 974.857,-234.853"/>
<polygon fill="midnightblue" stroke="midnightblue" points="976.524,-231.77 966.158,-229.581 972.896,-237.757 976.524,-231.77"/>
</g>
<!-- Node24 -->
<g id="node24" class="node"><title>Node24</title>
<polygon fill="none" stroke="#bfbfbf" points="1026.5,-210.5 1026.5,-229.5 1075.5,-229.5 1075.5,-210.5 1026.5,-210.5"/>
<text text-anchor="middle" x="1051" y="-217.5" font-family="Helvetica,sans-Serif" font-size="10.00">cassert</text>
</g>
<!-- Node18&#45;&gt;Node24 -->
<g id="edge28" class="edge"><title>Node18&#45;&gt;Node24</title>
<path fill="none" stroke="midnightblue" d="M1051,-272.403C1051,-263.938 1051,-250.728 1051,-239.82"/>
<polygon fill="midnightblue" stroke="midnightblue" points="1054.5,-239.581 1051,-229.581 1047.5,-239.581 1054.5,-239.581"/>
</g>
<!-- Node21&#45;&gt;Node20 -->
<g id="edge27" class="edge"><title>Node21&#45;&gt;Node20</title>
<path fill="none" stroke="midnightblue" d="M983.037,-210.462C1016.45,-201.028 1070.99,-184.917 1117,-168 1119.12,-167.221 1121.29,-166.384 1123.47,-165.517"/>
<polygon fill="midnightblue" stroke="midnightblue" points="1124.99,-168.677 1132.89,-161.62 1122.31,-162.209 1124.99,-168.677"/>
</g>
<!-- Node22 -->
<g id="node22" class="node"><title>Node22</title>
<g id="a_node22"><a xlink:href="../../d1/daa/Base_2include_2DetectorsBase_2Constants_8h.html" target="_top" xlink:title="DetectorsBase/Constants.h">
<polygon fill="none" stroke="black" points="970,-142.5 970,-161.5 1108,-161.5 1108,-142.5 970,-142.5"/>
<text text-anchor="middle" x="1039" y="-149.5" font-family="Helvetica,sans-Serif" font-size="10.00">DetectorsBase/Constants.h</text>
</a>
</g>
</g>
<!-- Node21&#45;&gt;Node22 -->
<g id="edge25" class="edge"><title>Node21&#45;&gt;Node22</title>
<path fill="none" stroke="midnightblue" d="M963.374,-210.372C977.572,-199.6 1002.09,-181.002 1019.35,-167.906"/>
<polygon fill="midnightblue" stroke="midnightblue" points="1021.77,-170.463 1027.62,-161.63 1017.54,-164.886 1021.77,-170.463"/>
</g>
<!-- Node23 -->
<g id="node23" class="node"><title>Node23</title>
<polygon fill="none" stroke="#bfbfbf" points="908,-142.5 908,-161.5 952,-161.5 952,-142.5 908,-142.5"/>
<text text-anchor="middle" x="930" y="-149.5" font-family="Helvetica,sans-Serif" font-size="10.00">cmath</text>
</g>
<!-- Node21&#45;&gt;Node23 -->
<g id="edge26" class="edge"><title>Node21&#45;&gt;Node23</title>
<path fill="none" stroke="midnightblue" d="M949.124,-210.372C945.848,-200.544 940.401,-184.202 936.156,-171.467"/>
<polygon fill="midnightblue" stroke="midnightblue" points="939.43,-170.221 932.947,-161.841 932.789,-172.435 939.43,-170.221"/>
</g>
<!-- Node25&#45;&gt;Node3 -->
<g id="edge45" class="edge"><title>Node25&#45;&gt;Node3</title>
<path fill="none" stroke="midnightblue" d="M1406.85,-272.233C1395.75,-241.512 1358.9,-140.355 1353,-136 1266.74,-72.3774 976.367,-124.429 872,-100 868.927,-99.2807 865.777,-98.3428 862.674,-97.2868"/>
<polygon fill="midnightblue" stroke="midnightblue" points="863.667,-93.92 853.076,-93.634 861.177,-100.462 863.667,-93.92"/>
</g>
<!-- Node26 -->
<g id="node26" class="node"><title>Node26</title>
<g id="a_node26"><a xlink:href="../../d4/d25/BaseHits_8h.html" target="_top" xlink:title="SimulationDataFormat\l/BaseHits.h">
<polygon fill="none" stroke="black" points="1403,-205 1403,-235 1517,-235 1517,-205 1403,-205"/>
<text text-anchor="start" x="1411" y="-223" font-family="Helvetica,sans-Serif" font-size="10.00">SimulationDataFormat</text>
<text text-anchor="middle" x="1460" y="-212" font-family="Helvetica,sans-Serif" font-size="10.00">/BaseHits.h</text>
</a>
</g>
</g>
<!-- Node25&#45;&gt;Node26 -->
<g id="edge30" class="edge"><title>Node25&#45;&gt;Node26</title>
<path fill="none" stroke="midnightblue" d="M1417.16,-272.403C1423.56,-264.733 1433.19,-253.167 1441.71,-242.948"/>
<polygon fill="midnightblue" stroke="midnightblue" points="1444.5,-245.064 1448.22,-235.141 1439.13,-240.582 1444.5,-245.064"/>
</g>
<!-- Node37 -->
<g id="node37" class="node"><title>Node37</title>
<polygon fill="none" stroke="#bfbfbf" points="2001,-74.5 2001,-93.5 2055,-93.5 2055,-74.5 2001,-74.5"/>
<text text-anchor="middle" x="2028" y="-81.5" font-family="Helvetica,sans-Serif" font-size="10.00">iostream</text>
</g>
<!-- Node25&#45;&gt;Node37 -->
<g id="edge47" class="edge"><title>Node25&#45;&gt;Node37</title>
<path fill="none" stroke="midnightblue" d="M1437.02,-272.475C1461.02,-264.447 1496.74,-251.376 1526,-236 1548.37,-224.243 1549.93,-214.323 1573,-204 1747.74,-125.797 1808.95,-159.222 1991,-100 1993.57,-99.1644 1996.21,-98.2357 1998.85,-97.2615"/>
<polygon fill="midnightblue" stroke="midnightblue" points="2000.17,-100.504 2008.22,-93.6194 1997.63,-93.9797 2000.17,-100.504"/>
</g>
<!-- Node38 -->
<g id="node38" class="node"><title>Node38</title>
<g id="a_node38"><a xlink:href="../../d7/dcd/MCCompLabel_8h.html" target="_top" xlink:title="SimulationDataFormat\l/MCCompLabel.h">
<polygon fill="none" stroke="black" points="1230,-137 1230,-167 1344,-167 1344,-137 1230,-137"/>
<text text-anchor="start" x="1238" y="-155" font-family="Helvetica,sans-Serif" font-size="10.00">SimulationDataFormat</text>
<text text-anchor="middle" x="1287" y="-144" font-family="Helvetica,sans-Serif" font-size="10.00">/MCCompLabel.h</text>
</a>
</g>
</g>
<!-- Node25&#45;&gt;Node38 -->
<g id="edge43" class="edge"><title>Node25&#45;&gt;Node38</title>
<path fill="none" stroke="midnightblue" d="M1399.23,-272.476C1388.41,-263.738 1371.47,-249.546 1358,-236 1338.47,-216.355 1318.11,-192.101 1304.22,-174.896"/>
<polygon fill="midnightblue" stroke="midnightblue" points="1306.94,-172.69 1297.96,-167.068 1301.47,-177.063 1306.94,-172.69"/>
</g>
<!-- Node25&#45;&gt;Node39 -->
<g id="edge46" class="edge"><title>Node25&#45;&gt;Node39</title>
<path fill="none" stroke="midnightblue" d="M1440.96,-272.491C1472.88,-263.648 1524.04,-249.271 1568,-236 1571.57,-234.922 1575.29,-233.776 1579,-232.617"/>
<polygon fill="midnightblue" stroke="midnightblue" points="1580.21,-235.904 1588.7,-229.556 1578.11,-229.229 1580.21,-235.904"/>
</g>
<!-- Node27 -->
<g id="node27" class="node"><title>Node27</title>
<g id="a_node27"><a xlink:href="../../dd/d76/Cartesian3D_8h.html" target="_top" xlink:title="MathUtils/Cartesian3D.h">
<polygon fill="none" stroke="black" points="1400.5,-142.5 1400.5,-161.5 1525.5,-161.5 1525.5,-142.5 1400.5,-142.5"/>
<text text-anchor="middle" x="1463" y="-149.5" font-family="Helvetica,sans-Serif" font-size="10.00">MathUtils/Cartesian3D.h</text>
</a>
</g>
</g>
<!-- Node26&#45;&gt;Node27 -->
<g id="edge31" class="edge"><title>Node26&#45;&gt;Node27</title>
<path fill="none" stroke="midnightblue" d="M1460.65,-204.679C1461.09,-195.101 1461.66,-182.394 1462.14,-171.977"/>
<polygon fill="midnightblue" stroke="midnightblue" points="1465.64,-171.977 1462.6,-161.828 1458.65,-171.659 1465.64,-171.977"/>
</g>
<!-- Node27&#45;&gt;Node3 -->
<g id="edge35" class="edge"><title>Node27&#45;&gt;Node3</title>
<path fill="none" stroke="midnightblue" d="M1423.98,-142.437C1411.86,-140.037 1398.42,-137.639 1386,-136 1158.96,-106.05 1095.1,-151.659 872,-100 868.925,-99.2881 865.774,-98.3549 862.671,-97.3017"/>
<polygon fill="midnightblue" stroke="midnightblue" points="863.663,-93.9347 853.072,-93.6523 861.175,-100.478 863.663,-93.9347"/>
</g>
<!-- Node28 -->
<g id="node28" class="node"><title>Node28</title>
<polygon fill="none" stroke="#bfbfbf" points="1217.5,-74.5 1217.5,-93.5 1366.5,-93.5 1366.5,-74.5 1217.5,-74.5"/>
<text text-anchor="middle" x="1292" y="-81.5" font-family="Helvetica,sans-Serif" font-size="10.00">Math/GenVector/Rotation3D.h</text>
</g>
<!-- Node27&#45;&gt;Node28 -->
<g id="edge32" class="edge"><title>Node27&#45;&gt;Node28</title>
<path fill="none" stroke="midnightblue" d="M1440.64,-142.372C1410.73,-130.827 1357.53,-110.293 1323.55,-97.1772"/>
<polygon fill="midnightblue" stroke="midnightblue" points="1324.68,-93.8615 1314.09,-93.5259 1322.16,-100.392 1324.68,-93.8615"/>
</g>
<!-- Node29 -->
<g id="node29" class="node"><title>Node29</title>
<polygon fill="none" stroke="#bfbfbf" points="1385,-74.5 1385,-93.5 1541,-93.5 1541,-74.5 1385,-74.5"/>
<text text-anchor="middle" x="1463" y="-81.5" font-family="Helvetica,sans-Serif" font-size="10.00">Math/GenVector/Transform3D.h</text>
</g>
<!-- Node27&#45;&gt;Node29 -->
<g id="edge33" class="edge"><title>Node27&#45;&gt;Node29</title>
<path fill="none" stroke="midnightblue" d="M1463,-142.372C1463,-132.643 1463,-116.528 1463,-103.85"/>
<polygon fill="midnightblue" stroke="midnightblue" points="1466.5,-103.841 1463,-93.8411 1459.5,-103.841 1466.5,-103.841"/>
</g>
<!-- Node30 -->
<g id="node30" class="node"><title>Node30</title>
<polygon fill="none" stroke="#bfbfbf" points="1559,-74.5 1559,-93.5 1719,-93.5 1719,-74.5 1559,-74.5"/>
<text text-anchor="middle" x="1639" y="-81.5" font-family="Helvetica,sans-Serif" font-size="10.00">Math/GenVector/Translation3D.h</text>
</g>
<!-- Node27&#45;&gt;Node30 -->
<g id="edge34" class="edge"><title>Node27&#45;&gt;Node30</title>
<path fill="none" stroke="midnightblue" d="M1486.01,-142.372C1516.79,-130.827 1571.55,-110.293 1606.53,-97.1772"/>
<polygon fill="midnightblue" stroke="midnightblue" points="1608.13,-100.314 1616.26,-93.5259 1605.67,-93.76 1608.13,-100.314"/>
</g>
<!-- Node31 -->
<g id="node31" class="node"><title>Node31</title>
<polygon fill="none" stroke="#bfbfbf" points="1737,-74.5 1737,-93.5 1813,-93.5 1813,-74.5 1737,-74.5"/>
<text text-anchor="middle" x="1775" y="-81.5" font-family="Helvetica,sans-Serif" font-size="10.00">TGeoMatrix.h</text>
</g>
<!-- Node27&#45;&gt;Node31 -->
<g id="edge36" class="edge"><title>Node27&#45;&gt;Node31</title>
<path fill="none" stroke="midnightblue" d="M1506.57,-142.488C1517.48,-140.362 1529.17,-138.092 1540,-136 1623.53,-119.866 1645.55,-120.97 1728,-100 1732.11,-98.9549 1736.39,-97.7531 1740.61,-96.4944"/>
<polygon fill="midnightblue" stroke="midnightblue" points="1741.76,-99.8021 1750.28,-93.5007 1739.69,-93.1154 1741.76,-99.8021"/>
</g>
<!-- Node32 -->
<g id="node32" class="node"><title>Node32</title>
<polygon fill="none" stroke="#bfbfbf" points="1831.5,-69 1831.5,-99 1982.5,-99 1982.5,-69 1831.5,-69"/>
<text text-anchor="start" x="1839.5" y="-87" font-family="Helvetica,sans-Serif" font-size="10.00">Math/GenVector/Displacement</text>
<text text-anchor="middle" x="1907" y="-76" font-family="Helvetica,sans-Serif" font-size="10.00">Vector3D.h</text>
</g>
<!-- Node27&#45;&gt;Node32 -->
<g id="edge37" class="edge"><title>Node27&#45;&gt;Node32</title>
<path fill="none" stroke="midnightblue" d="M1504.07,-142.483C1515.66,-140.22 1528.3,-137.884 1540,-136 1661.58,-116.42 1695.38,-118.843 1821.44,-100.033"/>
<polygon fill="midnightblue" stroke="midnightblue" points="1822.12,-103.47 1831.49,-98.5185 1821.08,-96.5484 1822.12,-103.47"/>
</g>
<!-- Node33 -->
<g id="node33" class="node"><title>Node33</title>
<polygon fill="none" stroke="#bfbfbf" points="881,-74.5 881,-93.5 1057,-93.5 1057,-74.5 881,-74.5"/>
<text text-anchor="middle" x="969" y="-81.5" font-family="Helvetica,sans-Serif" font-size="10.00">Math/GenVector/PositionVector3D.h</text>
</g>
<!-- Node27&#45;&gt;Node33 -->
<g id="edge38" class="edge"><title>Node27&#45;&gt;Node33</title>
<path fill="none" stroke="midnightblue" d="M1422.35,-142.444C1410.65,-140.155 1397.85,-137.815 1386,-136 1244.1,-114.257 1207.29,-119.086 1065,-100 1053.88,-98.5083 1042.06,-96.7791 1030.65,-95.0366"/>
<polygon fill="midnightblue" stroke="midnightblue" points="1031.17,-91.5763 1020.76,-93.5074 1030.1,-98.4941 1031.17,-91.5763"/>
</g>
<!-- Node34 -->
<g id="node34" class="node"><title>Node34</title>
<g id="a_node34"><a xlink:href="../../d2/dd0/Cartesian2D_8h.html" target="_top" xlink:title="MathUtils/Cartesian2D.h">
<polygon fill="none" stroke="black" points="1074.5,-74.5 1074.5,-93.5 1199.5,-93.5 1199.5,-74.5 1074.5,-74.5"/>
<text text-anchor="middle" x="1137" y="-81.5" font-family="Helvetica,sans-Serif" font-size="10.00">MathUtils/Cartesian2D.h</text>
</a>
</g>
</g>
<!-- Node27&#45;&gt;Node34 -->
<g id="edge39" class="edge"><title>Node27&#45;&gt;Node34</title>
<path fill="none" stroke="midnightblue" d="M1419.66,-142.48C1368.9,-132.467 1282.29,-115.277 1208,-100 1201.28,-98.619 1194.22,-97.1473 1187.25,-95.6859"/>
<polygon fill="midnightblue" stroke="midnightblue" points="1187.67,-92.1979 1177.16,-93.5638 1186.23,-99.0479 1187.67,-92.1979"/>
</g>
<!-- Node27&#45;&gt;Node37 -->
<g id="edge42" class="edge"><title>Node27&#45;&gt;Node37</title>
<path fill="none" stroke="midnightblue" d="M1502.43,-142.433C1514.44,-140.062 1527.72,-137.681 1540,-136 1739.22,-108.732 1795.32,-146.313 1991,-100 1994.07,-99.2731 1997.22,-98.3303 2000.32,-97.2714"/>
<polygon fill="midnightblue" stroke="midnightblue" points="2001.82,-100.446 2009.92,-93.6152 1999.33,-93.9047 2001.82,-100.446"/>
</g>
<!-- Node35 -->
<g id="node35" class="node"><title>Node35</title>
<polygon fill="none" stroke="#bfbfbf" points="970.5,-1 970.5,-31 1121.5,-31 1121.5,-1 970.5,-1"/>
<text text-anchor="start" x="978.5" y="-19" font-family="Helvetica,sans-Serif" font-size="10.00">Math/GenVector/Displacement</text>
<text text-anchor="middle" x="1046" y="-8" font-family="Helvetica,sans-Serif" font-size="10.00">Vector2D.h</text>
</g>
<!-- Node34&#45;&gt;Node35 -->
<g id="edge40" class="edge"><title>Node34&#45;&gt;Node35</title>
<path fill="none" stroke="midnightblue" d="M1125.1,-74.3717C1112.22,-65.0286 1091.22,-49.7966 1074.09,-37.375"/>
<polygon fill="midnightblue" stroke="midnightblue" points="1075.7,-34.2194 1065.55,-31.1815 1071.59,-39.8859 1075.7,-34.2194"/>
</g>
<!-- Node36 -->
<g id="node36" class="node"><title>Node36</title>
<polygon fill="none" stroke="#bfbfbf" points="1140,-6.5 1140,-25.5 1316,-25.5 1316,-6.5 1140,-6.5"/>
<text text-anchor="middle" x="1228" y="-13.5" font-family="Helvetica,sans-Serif" font-size="10.00">Math/GenVector/PositionVector2D.h</text>
</g>
<!-- Node34&#45;&gt;Node36 -->
<g id="edge41" class="edge"><title>Node34&#45;&gt;Node36</title>
<path fill="none" stroke="midnightblue" d="M1148.9,-74.3717C1163.88,-63.5015 1189.86,-44.6602 1207.94,-31.5474"/>
<polygon fill="midnightblue" stroke="midnightblue" points="1210.06,-34.3349 1216.1,-25.6305 1205.95,-28.6684 1210.06,-34.3349"/>
</g>
<!-- Node38&#45;&gt;Node3 -->
<g id="edge44" class="edge"><title>Node38&#45;&gt;Node3</title>
<path fill="none" stroke="midnightblue" d="M1229.74,-138.37C1225.1,-137.51 1220.48,-136.706 1216,-136 1064.15,-112.08 1021.14,-137.244 872,-100 868.938,-99.2354 865.795,-98.2682 862.696,-97.1948"/>
<polygon fill="midnightblue" stroke="midnightblue" points="863.694,-93.8291 853.103,-93.5216 861.191,-100.366 863.694,-93.8291"/>
</g>
</g>
</svg>
        <g id="navigator" transform="translate(0 0)" fill="#404254">
                <rect fill="#f2f5e9" fill-opacity="0.5" stroke="#606060" stroke-width=".5" x="0" y="0" width="60" height="60"/>
                <use id="zoomplus" xlink:href="#zoomPlus" x="17" y="9" onmousedown="handleZoom(evt,'in')"/>
                <use id="zoomminus" xlink:href="#zoomMin" x="42" y="9" onmousedown="handleZoom(evt,'out')"/>
                <use id="reset" xlink:href="#resetDef" x="30" y="36" onmousedown="handleReset()"/>
                <g id="arrowUp" xlink:href="#dirArrow" transform="translate(30 24)" onmousedown="handlePan(0,-1)">
                  <use xlink:href="#rim" fill="#404040">
                        <set attributeName="fill" to="#808080" begin="arrowUp.mouseover" end="arrowUp.mouseout"/>
                  </use>
                  <path fill="none" stroke="white" stroke-width="1.5" d="M0,-3.0v7 M-2.5,-0.5L0,-3.0L2.5,-0.5"/>
                </g>
                <g id="arrowRight" xlink:href="#dirArrow" transform="rotate(90) translate(36 -43)" onmousedown="handlePan(1,0)">
                  <use xlink:href="#rim" fill="#404040">
                        <set attributeName="fill" to="#808080" begin="arrowRight.mouseover" end="arrowRight.mouseout"/>
                  </use>
                  <path fill="none" stroke="white" stroke-width="1.5" d="M0,-3.0v7 M-2.5,-0.5L0,-3.0L2.5,-0.5"/>
                </g>
                <g id="arrowDown" xlink:href="#dirArrow" transform="rotate(180) translate(-30 -48)" onmousedown="handlePan(0,1)">
                  <use xlink:href="#rim" fill="#404040">
                        <set attributeName="fill" to="#808080" begin="arrowDown.mouseover" end="arrowDown.mouseout"/>
                  </use>
                  <path fill="none" stroke="white" stroke-width="1.5" d="M0,-3.0v7 M-2.5,-0.5L0,-3.0L2.5,-0.5"/>
                </g>
                <g id="arrowLeft" xlink:href="#dirArrow" transform="rotate(270) translate(-36 17)" onmousedown="handlePan(-1,0)">
                  <use xlink:href="#rim" fill="#404040">
                        <set attributeName="fill" to="#808080" begin="arrowLeft.mouseover" end="arrowLeft.mouseout"/>
                  </use>
                  <path fill="none" stroke="white" stroke-width="1.5" d="M0,-3.0v7 M-2.5,-0.5L0,-3.0L2.5,-0.5"/>
                </g>
        </g>
        <svg viewBox="0 0 15 15" width="100%" height="30px" preserveAspectRatio="xMaxYMin meet">
         <g id="arrow_out" transform="scale(0.3 0.3)">
          <a xlink:href="V1Layer_8h__incl_org.svg" target="_base">
           <rect id="button" ry="5" rx="5" y="6" x="6" height="38" width="38"
                fill="#f2f5e9" fill-opacity="0.5" stroke="#606060" stroke-width="1.0"/>
           <path id="arrow"
             d="M 11.500037,31.436501 C 11.940474,20.09759 22.043105,11.32322 32.158766,21.979434 L 37.068811,17.246167 C 37.068811,17.246167 37.088388,32 37.088388,32 L 22.160133,31.978069 C 22.160133,31.978069 26.997745,27.140456 26.997745,27.140456 C 18.528582,18.264221 13.291696,25.230495 11.500037,31.436501 z"
             style="fill:#404040;"/>
          </a>
         </g>
        </svg>
</svg>
