<?xml version="1.0" encoding="UTF-8" standalone="no"?>
<!DOCTYPE svg PUBLIC "-//W3C//DTD SVG 1.1//EN"
 "http://www.w3.org/Graphics/SVG/1.1/DTD/svg11.dtd">
<!-- Generated by graphviz version 2.36.0 (20140111.2315)
 -->
<!-- Title: o2::Header::HeartbeatFrameEnvelope Pages: 1 -->
<!--zoomable 952 -->
<svg id="main" version="1.1" xmlns="http://www.w3.org/2000/svg" xmlns:xlink="http://www.w3.org/1999/xlink" xml:space="preserve" onload="init(evt)">
<style type="text/css"><![CDATA[
.edge:hover path { stroke: red; }
.edge:hover polygon { stroke: red; fill: red; }
]]></style>
<script type="text/javascript"><![CDATA[
var edges = document.getElementsByTagName('g');
if (edges && edges.length) {
  for (var i=0;i<edges.length;i++) {
    if (edges[i].id.substr(0,4)=='edge') {
      edges[i].setAttribute('class','edge');
    }
  }
}
]]></script>
        <defs>
                <circle id="rim" cx="0" cy="0" r="7"/>
                <circle id="rim2" cx="0" cy="0" r="3.5"/>
                <g id="zoomPlus">
                        <use xlink:href="#rim" fill="#404040">
                                <set attributeName="fill" to="#808080" begin="zoomplus.mouseover" end="zoomplus.mouseout"/>
                        </use>
                        <path d="M-4,0h8M0,-4v8" fill="none" stroke="white" stroke-width="1.5" pointer-events="none"/>
                </g>
                <g id="zoomMin">
                        <use xlink:href="#rim" fill="#404040">
                                <set attributeName="fill" to="#808080" begin="zoomminus.mouseover" end="zoomminus.mouseout"/>
                        </use>
                        <path d="M-4,0h8" fill="none" stroke="white" stroke-width="1.5" pointer-events="none"/>
                </g>
                <g id="dirArrow">
                        <path fill="none" stroke="white" stroke-width="1.5" d="M0,-3.0v7 M-2.5,-0.5L0,-3.0L2.5,-0.5"/>
                </g>
               <g id="resetDef">
                       <use xlink:href="#rim2" fill="#404040">
                               <set attributeName="fill" to="#808080" begin="reset.mouseover" end="reset.mouseout"/>
                       </use>
               </g>
        </defs>

<script type="text/javascript">
var viewWidth = 1605;
var viewHeight = 952;
var sectionId = 'dynsection-1';
</script>
<script xlink:href="../../svgpan.js"/>
<svg id="graph" class="graph">
<g id="viewport">
<title>o2::Header::HeartbeatFrameEnvelope</title>
<!-- Node1 -->
<g id="node1" class="node"><title>Node1</title>
<polygon fill="#bfbfbf" stroke="black" points="814.179,-0.5 814.179,-79.5 957.179,-79.5 957.179,-0.5 814.179,-0.5"/>
<text text-anchor="start" x="822.179" y="-67.5" font-family="Helvetica,sans-Serif" font-size="10.00">o2::Header::HeartbeatFrame</text>
<text text-anchor="middle" x="885.679" y="-56.5" font-family="Helvetica,sans-Serif" font-size="10.00">Envelope</text>
<polyline fill="none" stroke="black" points="814.179,-49.5 957.179,-49.5 "/>
<text text-anchor="middle" x="885.679" y="-37.5" font-family="Helvetica,sans-Serif" font-size="10.00"> </text>
<polyline fill="none" stroke="black" points="814.179,-30.5 957.179,-30.5 "/>
<text text-anchor="start" x="822.179" y="-18.5" font-family="Helvetica,sans-Serif" font-size="10.00">+ HeartbeatFrameEnvelope()</text>
<text text-anchor="start" x="822.179" y="-7.5" font-family="Helvetica,sans-Serif" font-size="10.00">+ HeartbeatFrameEnvelope()</text>
</g>
<!-- Node2 -->
<g id="node2" class="node"><title>Node2</title>
<g id="a_node2"><a xlink:href="../../d9/d75/structo2_1_1Header_1_1BaseHeader.html" target="_top" xlink:title="the base header struct Every header type must begin (i.e. derive) with this. Don&#39;t use this struct di...">
<polygon fill="none" stroke="black" points="628.179,-128.5 628.179,-251.5 753.179,-251.5 753.179,-128.5 628.179,-128.5"/>
<text text-anchor="middle" x="690.679" y="-239.5" font-family="Helvetica,sans-Serif" font-size="10.00">o2::Header::BaseHeader</text>
<polyline fill="none" stroke="black" points="628.179,-232.5 753.179,-232.5 "/>
<text text-anchor="middle" x="690.679" y="-220.5" font-family="Helvetica,sans-Serif" font-size="10.00"> </text>
<polyline fill="none" stroke="black" points="628.179,-213.5 753.179,-213.5 "/>
<text text-anchor="start" x="636.179" y="-201.5" font-family="Helvetica,sans-Serif" font-size="10.00">+ BaseHeader()</text>
<text text-anchor="start" x="636.179" y="-190.5" font-family="Helvetica,sans-Serif" font-size="10.00">+ BaseHeader()</text>
<text text-anchor="start" x="636.179" y="-179.5" font-family="Helvetica,sans-Serif" font-size="10.00">+ BaseHeader()</text>
<text text-anchor="start" x="636.179" y="-168.5" font-family="Helvetica,sans-Serif" font-size="10.00">+ size()</text>
<text text-anchor="start" x="636.179" y="-157.5" font-family="Helvetica,sans-Serif" font-size="10.00">+ data()</text>
<text text-anchor="start" x="636.179" y="-146.5" font-family="Helvetica,sans-Serif" font-size="10.00">+ next()</text>
<text text-anchor="start" x="636.179" y="-135.5" font-family="Helvetica,sans-Serif" font-size="10.00">+ get()</text>
</a>
</g>
</g>
<!-- Node2&#45;&gt;Node1 -->
<g id="edge1" class="edge"><title>Node2&#45;&gt;Node1</title>
<path fill="none" stroke="midnightblue" d="M761.339,-135.37C785.694,-116.886 812.471,-96.5628 834.919,-79.5257"/>
<polygon fill="none" stroke="midnightblue" points="759.032,-132.728 753.183,-141.561 763.264,-138.303 759.032,-132.728"/>
</g>
<!-- Node3 -->
<g id="node3" class="node"><title>Node3</title>
<g id="a_node3"><a xlink:href="../../d0/da5/structo2_1_1Header_1_1Descriptor.html" target="_top" xlink:title="{o2::Header::Descriptor\l\&lt; gSizeHeaderDescriptionString \&gt;\n||+ Descriptor()\l+ Descriptor()\l+ Descriptor()\l+ Descriptor()\l+ operator=()\l+ operator ItgType()\l+ runtimeInit()\l+ operator==()\l+ operator==()\l+ operator!=()\l+ operator!=()\l+ print()\l}">
<polygon fill="none" stroke="black" points="432.679,-376.5 432.679,-565.5 598.679,-565.5 598.679,-376.5 432.679,-376.5"/>
<text text-anchor="start" x="440.679" y="-553.5" font-family="Helvetica,sans-Serif" font-size="10.00">o2::Header::Descriptor</text>
<text text-anchor="middle" x="515.679" y="-542.5" font-family="Helvetica,sans-Serif" font-size="10.00">&lt; gSizeHeaderDescriptionString &gt;</text>
<polyline fill="none" stroke="black" points="432.679,-535.5 598.679,-535.5 "/>
<text text-anchor="middle" x="515.679" y="-523.5" font-family="Helvetica,sans-Serif" font-size="10.00"> </text>
<polyline fill="none" stroke="black" points="432.679,-516.5 598.679,-516.5 "/>
<text text-anchor="start" x="440.679" y="-504.5" font-family="Helvetica,sans-Serif" font-size="10.00">+ Descriptor()</text>
<text text-anchor="start" x="440.679" y="-493.5" font-family="Helvetica,sans-Serif" font-size="10.00">+ Descriptor()</text>
<text text-anchor="start" x="440.679" y="-482.5" font-family="Helvetica,sans-Serif" font-size="10.00">+ Descriptor()</text>
<text text-anchor="start" x="440.679" y="-471.5" font-family="Helvetica,sans-Serif" font-size="10.00">+ Descriptor()</text>
<text text-anchor="start" x="440.679" y="-460.5" font-family="Helvetica,sans-Serif" font-size="10.00">+ operator=()</text>
<text text-anchor="start" x="440.679" y="-449.5" font-family="Helvetica,sans-Serif" font-size="10.00">+ operator ItgType()</text>
<text text-anchor="start" x="440.679" y="-438.5" font-family="Helvetica,sans-Serif" font-size="10.00">+ runtimeInit()</text>
<text text-anchor="start" x="440.679" y="-427.5" font-family="Helvetica,sans-Serif" font-size="10.00">+ operator==()</text>
<text text-anchor="start" x="440.679" y="-416.5" font-family="Helvetica,sans-Serif" font-size="10.00">+ operator==()</text>
<text text-anchor="start" x="440.679" y="-405.5" font-family="Helvetica,sans-Serif" font-size="10.00">+ operator!=()</text>
<text text-anchor="start" x="440.679" y="-394.5" font-family="Helvetica,sans-Serif" font-size="10.00">+ operator!=()</text>
<text text-anchor="start" x="440.679" y="-383.5" font-family="Helvetica,sans-Serif" font-size="10.00">+ print()</text>
</a>
</g>
</g>
<!-- Node3&#45;&gt;Node2 -->
<g id="edge2" class="edge"><title>Node3&#45;&gt;Node2</title>
<path fill="none" stroke="#404040" d="M531.255,-376.274C540.491,-340.573 555.011,-301.048 577.679,-270 588.563,-255.093 603.142,-241.998 618.203,-230.977"/>
<polygon fill="none" stroke="#404040" points="618.3,-230.91 620.927,-224.194 628.136,-224.036 625.509,-230.752 618.3,-230.91"/>
<text text-anchor="middle" x="606.179" y="-311.5" font-family="Helvetica,sans-Serif" font-size="10.00"> +description</text>
</g>
<!-- Node4 -->
<g id="node4" class="node"><title>Node4</title>
<polygon fill="none" stroke="#bfbfbf" points="275.679,-885.5 275.679,-942.5 313.679,-942.5 313.679,-885.5 275.679,-885.5"/>
<text text-anchor="middle" x="294.679" y="-930.5" font-family="Helvetica,sans-Serif" font-size="10.00">Type</text>
<polyline fill="none" stroke="#bfbfbf" points="275.679,-923.5 313.679,-923.5 "/>
<text text-anchor="middle" x="294.679" y="-911.5" font-family="Helvetica,sans-Serif" font-size="10.00"> </text>
<polyline fill="none" stroke="#bfbfbf" points="275.679,-904.5 313.679,-904.5 "/>
<text text-anchor="middle" x="294.679" y="-892.5" font-family="Helvetica,sans-Serif" font-size="10.00"> </text>
</g>
<!-- Node4&#45;&gt;Node3 -->
<g id="edge3" class="edge"><title>Node4&#45;&gt;Node3</title>
<path fill="none" stroke="#404040" d="M313.874,-889.091C328.523,-869.811 348.24,-841.474 360.679,-814 396.739,-734.349 356.768,-692.04 411.679,-624 422.664,-610.388 434.307,-618.366 446.679,-606 455.515,-597.169 463.455,-586.971 470.526,-576.223"/>
<polygon fill="none" stroke="#404040" points="470.69,-575.96 470.471,-568.752 477.04,-565.777 477.259,-572.985 470.69,-575.96"/>
<text text-anchor="middle" x="421.679" y="-716.5" font-family="Helvetica,sans-Serif" font-size="10.00"> +itg</text>
</g>
<!-- Node8 -->
<g id="node8" class="node"><title>Node8</title>
<g id="a_node8"><a xlink:href="../../d0/da5/structo2_1_1Header_1_1Descriptor.html" target="_top" xlink:title="{o2::Header::Descriptor\l\&lt; N, PrinterPolicy \&gt;\n||+ Descriptor()\l+ Descriptor()\l+ Descriptor()\l+ operator=()\l+ operator ItgType()\l+ Descriptor()\l+ runtimeInit()\l+ operator==()\l+ operator!=()\l+ operator==()\l+ operator!=()\l+ print()\l}">
<polygon fill="none" stroke="black" points="236.679,-624.5 236.679,-813.5 352.679,-813.5 352.679,-624.5 236.679,-624.5"/>
<text text-anchor="start" x="244.679" y="-801.5" font-family="Helvetica,sans-Serif" font-size="10.00">o2::Header::Descriptor</text>
<text text-anchor="middle" x="294.679" y="-790.5" font-family="Helvetica,sans-Serif" font-size="10.00">&lt; N, PrinterPolicy &gt;</text>
<polyline fill="none" stroke="black" points="236.679,-783.5 352.679,-783.5 "/>
<text text-anchor="middle" x="294.679" y="-771.5" font-family="Helvetica,sans-Serif" font-size="10.00"> </text>
<polyline fill="none" stroke="black" points="236.679,-764.5 352.679,-764.5 "/>
<text text-anchor="start" x="244.679" y="-752.5" font-family="Helvetica,sans-Serif" font-size="10.00">+ Descriptor()</text>
<text text-anchor="start" x="244.679" y="-741.5" font-family="Helvetica,sans-Serif" font-size="10.00">+ Descriptor()</text>
<text text-anchor="start" x="244.679" y="-730.5" font-family="Helvetica,sans-Serif" font-size="10.00">+ Descriptor()</text>
<text text-anchor="start" x="244.679" y="-719.5" font-family="Helvetica,sans-Serif" font-size="10.00">+ operator=()</text>
<text text-anchor="start" x="244.679" y="-708.5" font-family="Helvetica,sans-Serif" font-size="10.00">+ operator ItgType()</text>
<text text-anchor="start" x="244.679" y="-697.5" font-family="Helvetica,sans-Serif" font-size="10.00">+ Descriptor()</text>
<text text-anchor="start" x="244.679" y="-686.5" font-family="Helvetica,sans-Serif" font-size="10.00">+ runtimeInit()</text>
<text text-anchor="start" x="244.679" y="-675.5" font-family="Helvetica,sans-Serif" font-size="10.00">+ operator==()</text>
<text text-anchor="start" x="244.679" y="-664.5" font-family="Helvetica,sans-Serif" font-size="10.00">+ operator!=()</text>
<text text-anchor="start" x="244.679" y="-653.5" font-family="Helvetica,sans-Serif" font-size="10.00">+ operator==()</text>
<text text-anchor="start" x="244.679" y="-642.5" font-family="Helvetica,sans-Serif" font-size="10.00">+ operator!=()</text>
<text text-anchor="start" x="244.679" y="-631.5" font-family="Helvetica,sans-Serif" font-size="10.00">+ print()</text>
</a>
</g>
</g>
<!-- Node4&#45;&gt;Node8 -->
<g id="edge8" class="edge"><title>Node4&#45;&gt;Node8</title>
<path fill="none" stroke="#404040" d="M294.679,-885.348C294.679,-869.342 294.679,-848.063 294.679,-826.114"/>
<polygon fill="none" stroke="#404040" points="294.679,-825.881 290.679,-819.881 294.679,-813.881 298.679,-819.881 294.679,-825.881"/>
<text text-anchor="middle" x="304.679" y="-846.5" font-family="Helvetica,sans-Serif" font-size="10.00"> +itg</text>
</g>
<!-- Node9 -->
<g id="node9" class="node"><title>Node9</title>
<g id="a_node9"><a xlink:href="../../d0/da5/structo2_1_1Header_1_1Descriptor.html" target="_top" xlink:title="{o2::Header::Descriptor\l\&lt; gSizeSerializationMethodString \&gt;\n||+ Descriptor()\l+ Descriptor()\l+ Descriptor()\l+ Descriptor()\l+ operator=()\l+ operator ItgType()\l+ runtimeInit()\l+ operator==()\l+ operator==()\l+ operator!=()\l+ operator!=()\l+ print()\l}">
<polygon fill="none" stroke="black" points="79.6789,-376.5 79.6789,-565.5 249.679,-565.5 249.679,-376.5 79.6789,-376.5"/>
<text text-anchor="start" x="87.6789" y="-553.5" font-family="Helvetica,sans-Serif" font-size="10.00">o2::Header::Descriptor</text>
<text text-anchor="middle" x="164.679" y="-542.5" font-family="Helvetica,sans-Serif" font-size="10.00">&lt; gSizeSerializationMethodString &gt;</text>
<polyline fill="none" stroke="black" points="79.6789,-535.5 249.679,-535.5 "/>
<text text-anchor="middle" x="164.679" y="-523.5" font-family="Helvetica,sans-Serif" font-size="10.00"> </text>
<polyline fill="none" stroke="black" points="79.6789,-516.5 249.679,-516.5 "/>
<text text-anchor="start" x="87.6789" y="-504.5" font-family="Helvetica,sans-Serif" font-size="10.00">+ Descriptor()</text>
<text text-anchor="start" x="87.6789" y="-493.5" font-family="Helvetica,sans-Serif" font-size="10.00">+ Descriptor()</text>
<text text-anchor="start" x="87.6789" y="-482.5" font-family="Helvetica,sans-Serif" font-size="10.00">+ Descriptor()</text>
<text text-anchor="start" x="87.6789" y="-471.5" font-family="Helvetica,sans-Serif" font-size="10.00">+ Descriptor()</text>
<text text-anchor="start" x="87.6789" y="-460.5" font-family="Helvetica,sans-Serif" font-size="10.00">+ operator=()</text>
<text text-anchor="start" x="87.6789" y="-449.5" font-family="Helvetica,sans-Serif" font-size="10.00">+ operator ItgType()</text>
<text text-anchor="start" x="87.6789" y="-438.5" font-family="Helvetica,sans-Serif" font-size="10.00">+ runtimeInit()</text>
<text text-anchor="start" x="87.6789" y="-427.5" font-family="Helvetica,sans-Serif" font-size="10.00">+ operator==()</text>
<text text-anchor="start" x="87.6789" y="-416.5" font-family="Helvetica,sans-Serif" font-size="10.00">+ operator==()</text>
<text text-anchor="start" x="87.6789" y="-405.5" font-family="Helvetica,sans-Serif" font-size="10.00">+ operator!=()</text>
<text text-anchor="start" x="87.6789" y="-394.5" font-family="Helvetica,sans-Serif" font-size="10.00">+ operator!=()</text>
<text text-anchor="start" x="87.6789" y="-383.5" font-family="Helvetica,sans-Serif" font-size="10.00">+ print()</text>
</a>
</g>
</g>
<!-- Node4&#45;&gt;Node9 -->
<g id="edge15" class="edge"><title>Node4&#45;&gt;Node9</title>
<path fill="none" stroke="#404040" d="M283.082,-885.147C274.011,-866.979 259.584,-844.411 239.679,-832 191.304,-801.837 150.055,-857.047 112.679,-814 56.7816,-749.622 78.8698,-651.474 109.64,-576.807"/>
<polygon fill="none" stroke="#404040" points="109.75,-576.548 108.412,-569.462 114.439,-565.501 115.777,-572.587 109.75,-576.548"/>
<text text-anchor="middle" x="122.679" y="-716.5" font-family="Helvetica,sans-Serif" font-size="10.00"> +itg</text>
</g>
<!-- Node5 -->
<g id="node5" class="node"><title>Node5</title>
<polygon fill="none" stroke="#bfbfbf" points="718.179,-885 718.179,-943 747.179,-943 747.179,-885 718.179,-885"/>
<polyline fill="none" stroke="#bfbfbf" points="718.179,-923 747.179,-923 "/>
<text text-anchor="middle" x="732.679" y="-911" font-family="Helvetica,sans-Serif" font-size="10.00"> </text>
<polyline fill="none" stroke="#bfbfbf" points="718.179,-904 747.179,-904 "/>
<text text-anchor="middle" x="732.679" y="-892" font-family="Helvetica,sans-Serif" font-size="10.00"> </text>
</g>
<!-- Node5&#45;&gt;Node2 -->
<g id="edge13" class="edge"><title>Node5&#45;&gt;Node2</title>
<path fill="none" stroke="#404040" d="M742.25,-884.93C744.013,-878.76 745.627,-872.212 746.679,-866 790.923,-604.829 826.836,-521.501 743.679,-270 742.889,-267.611 742.006,-265.227 741.042,-262.855"/>
<polygon fill="none" stroke="#404040" points="741.009,-262.783 734.871,-258.997 736.005,-251.876 742.143,-255.661 741.009,-262.783"/>
<text text-anchor="middle" x="805.179" y="-592.5" font-family="Helvetica,sans-Serif" font-size="10.00"> +@5</text>
</g>
<!-- Node5&#45;&gt;Node2 -->
<g id="edge20" class="edge"><title>Node5&#45;&gt;Node2</title>
<path fill="none" stroke="#404040" d="M731.032,-884.697C725,-781.002 703.989,-419.805 694.911,-263.743"/>
<polygon fill="none" stroke="#404040" points="694.897,-263.504 690.555,-257.747 694.2,-251.525 698.542,-257.282 694.897,-263.504"/>
<text text-anchor="middle" x="727.179" y="-592.5" font-family="Helvetica,sans-Serif" font-size="10.00"> +@7</text>
</g>
<!-- Node5&#45;&gt;Node3 -->
<g id="edge4" class="edge"><title>Node5&#45;&gt;Node3</title>
<path fill="none" stroke="#404040" d="M718.775,-884.743C688.81,-823.847 616.843,-677.59 567.159,-576.62"/>
<polygon fill="none" stroke="#404040" points="567.118,-576.536 560.879,-572.919 561.819,-565.769 568.057,-569.387 567.118,-576.536"/>
<text text-anchor="middle" x="696.179" y="-716.5" font-family="Helvetica,sans-Serif" font-size="10.00"> +@3</text>
</g>
<!-- Node5&#45;&gt;Node8 -->
<g id="edge9" class="edge"><title>Node5&#45;&gt;Node8</title>
<path fill="none" stroke="#404040" d="M718.151,-910.272C685.261,-903.936 602.749,-887.141 535.679,-866 496.479,-853.644 488.907,-844.266 449.679,-832 416.136,-821.511 402.569,-832.486 372.679,-814 369.252,-811.881 365.904,-809.558 362.643,-807.074"/>
<polygon fill="none" stroke="#404040" points="362.361,-806.84 355.189,-806.089 353.124,-799.18 360.296,-799.931 362.361,-806.84"/>
<text text-anchor="middle" x="548.179" y="-846.5" font-family="Helvetica,sans-Serif" font-size="10.00"> +@3</text>
</g>
<!-- Node5&#45;&gt;Node9 -->
<g id="edge16" class="edge"><title>Node5&#45;&gt;Node9</title>
<path fill="none" stroke="#404040" d="M718.164,-905.592C688.813,-890.739 620.139,-856.639 560.679,-832 538.86,-822.959 525.35,-832.509 510.679,-814 446.13,-732.568 554.192,-643.037 468.679,-584 436.143,-561.538 328.55,-580.27 291.679,-566 281.046,-561.885 270.519,-556.629 260.342,-550.71"/>
<polygon fill="none" stroke="#404040" points="260.118,-550.573 252.913,-550.862 249.875,-544.322 257.08,-544.033 260.118,-550.573"/>
<text text-anchor="middle" x="523.179" y="-716.5" font-family="Helvetica,sans-Serif" font-size="10.00"> +@3</text>
</g>
<!-- Node11 -->
<g id="node11" class="node"><title>Node11</title>
<g id="a_node11"><a xlink:href="../../df/d31/structo2_1_1Header_1_1HeartbeatHeader.html" target="_top" xlink:title="{o2::Header::HeartbeatHeader\n||+ operator bool()\l+ operator\&lt;()\l+ operator uint64_t()\l}">
<polygon fill="none" stroke="black" points="952.179,-150.5 952.179,-229.5 1097.18,-229.5 1097.18,-150.5 952.179,-150.5"/>
<text text-anchor="middle" x="1024.68" y="-217.5" font-family="Helvetica,sans-Serif" font-size="10.00">o2::Header::HeartbeatHeader</text>
<polyline fill="none" stroke="black" points="952.179,-210.5 1097.18,-210.5 "/>
<text text-anchor="middle" x="1024.68" y="-198.5" font-family="Helvetica,sans-Serif" font-size="10.00"> </text>
<polyline fill="none" stroke="black" points="952.179,-191.5 1097.18,-191.5 "/>
<text text-anchor="start" x="960.179" y="-179.5" font-family="Helvetica,sans-Serif" font-size="10.00">+ operator bool()</text>
<text text-anchor="start" x="960.179" y="-168.5" font-family="Helvetica,sans-Serif" font-size="10.00">+ operator&lt;()</text>
<text text-anchor="start" x="960.179" y="-157.5" font-family="Helvetica,sans-Serif" font-size="10.00">+ operator uint64_t()</text>
</a>
</g>
</g>
<!-- Node5&#45;&gt;Node11 -->
<g id="edge25" class="edge"><title>Node5&#45;&gt;Node11</title>
<path fill="none" stroke="#404040" d="M747.216,-893.509C784.376,-842.63 883.241,-700.41 930.679,-566 975.107,-440.116 937.848,-396.093 981.679,-270 985.143,-260.034 989.775,-249.825 994.715,-240.196"/>
<polygon fill="none" stroke="#404040" points="994.716,-240.194 994.021,-233.016 1000.38,-229.614 1001.07,-236.792 994.716,-240.194"/>
<text text-anchor="middle" x="939.179" y="-592.5" font-family="Helvetica,sans-Serif" font-size="10.00"> +@11</text>
</g>
<!-- Node15 -->
<g id="node15" class="node"><title>Node15</title>
<g id="a_node15"><a xlink:href="../../d7/dd1/structo2_1_1Header_1_1HeartbeatTrailer.html" target="_top" xlink:title="{o2::Header::HeartbeatTrailer\n||+ operator bool()\l+ operator uint64_t()\l}">
<polygon fill="none" stroke="black" points="1281.68,-156 1281.68,-224 1421.68,-224 1421.68,-156 1281.68,-156"/>
<text text-anchor="middle" x="1351.68" y="-212" font-family="Helvetica,sans-Serif" font-size="10.00">o2::Header::HeartbeatTrailer</text>
<polyline fill="none" stroke="black" points="1281.68,-205 1421.68,-205 "/>
<text text-anchor="middle" x="1351.68" y="-193" font-family="Helvetica,sans-Serif" font-size="10.00"> </text>
<polyline fill="none" stroke="black" points="1281.68,-186 1421.68,-186 "/>
<text text-anchor="start" x="1289.68" y="-174" font-family="Helvetica,sans-Serif" font-size="10.00">+ operator bool()</text>
<text text-anchor="start" x="1289.68" y="-163" font-family="Helvetica,sans-Serif" font-size="10.00">+ operator uint64_t()</text>
</a>
</g>
</g>
<!-- Node5&#45;&gt;Node15 -->
<g id="edge32" class="edge"><title>Node5&#45;&gt;Node15</title>
<path fill="none" stroke="#404040" d="M747.229,-909.932C829.002,-892 1235.82,-793.605 1464.68,-566 1563.14,-468.08 1643.98,-383.99 1564.68,-270 1535.26,-227.707 1480.4,-208.006 1433.73,-198.853"/>
<polygon fill="none" stroke="#404040" points="1433.56,-198.822 1426.94,-201.695 1421.75,-196.694 1428.36,-193.822 1433.56,-198.822"/>
<text text-anchor="middle" x="1455.18" y="-592.5" font-family="Helvetica,sans-Serif" font-size="10.00"> +@15</text>
</g>
<!-- Node6 -->
<g id="node6" class="node"><title>Node6</title>
<polygon fill="none" stroke="#bfbfbf" points="487.179,-885.5 487.179,-942.5 522.179,-942.5 522.179,-885.5 487.179,-885.5"/>
<text text-anchor="middle" x="504.679" y="-930.5" font-family="Helvetica,sans-Serif" font-size="10.00">char</text>
<polyline fill="none" stroke="#bfbfbf" points="487.179,-923.5 522.179,-923.5 "/>
<text text-anchor="middle" x="504.679" y="-911.5" font-family="Helvetica,sans-Serif" font-size="10.00"> </text>
<polyline fill="none" stroke="#bfbfbf" points="487.179,-904.5 522.179,-904.5 "/>
<text text-anchor="middle" x="504.679" y="-892.5" font-family="Helvetica,sans-Serif" font-size="10.00"> </text>
</g>
<!-- Node6&#45;&gt;Node2 -->
<g id="edge12" class="edge"><title>Node6&#45;&gt;Node2</title>
<path fill="none" stroke="#404040" d="M522.369,-908.478C557.616,-898.4 635.939,-870.413 667.679,-814 709.086,-740.404 701.045,-701.573 667.679,-624 663.083,-613.314 653.275,-616.686 648.679,-606 600.258,-493.427 634.204,-348.346 662.781,-262.923"/>
<polygon fill="none" stroke="#404040" points="662.794,-262.884 660.952,-255.913 666.679,-251.531 668.521,-258.503 662.794,-262.884"/>
<text text-anchor="middle" x="679.179" y="-592.5" font-family="Helvetica,sans-Serif" font-size="10.00"> +magicString</text>
</g>
<!-- Node6&#45;&gt;Node3 -->
<g id="edge5" class="edge"><title>Node6&#45;&gt;Node3</title>
<path fill="none" stroke="#404040" d="M522.308,-891.275C527.519,-883.706 532.639,-874.878 535.679,-866 543.188,-844.071 538.789,-837.162 539.679,-814 542.92,-729.618 546.284,-708.186 539.679,-624 538.508,-609.079 536.7,-593.409 534.591,-578.032"/>
<polygon fill="none" stroke="#404040" points="534.538,-577.663 529.729,-572.289 532.84,-565.784 537.649,-571.157 534.538,-577.663"/>
<text text-anchor="middle" x="554.179" y="-716.5" font-family="Helvetica,sans-Serif" font-size="10.00"> +str</text>
</g>
<!-- Node6&#45;&gt;Node8 -->
<g id="edge10" class="edge"><title>Node6&#45;&gt;Node8</title>
<path fill="none" stroke="#404040" d="M487.016,-904.291C470.241,-895.644 444.685,-881.472 424.679,-866 401.892,-848.378 379.926,-826.392 360.74,-804.873"/>
<polygon fill="none" stroke="#404040" points="360.603,-804.718 353.64,-802.842 352.693,-795.694 359.656,-797.569 360.603,-804.718"/>
<text text-anchor="middle" x="435.179" y="-846.5" font-family="Helvetica,sans-Serif" font-size="10.00"> +str</text>
</g>
<!-- Node6&#45;&gt;Node9 -->
<g id="edge17" class="edge"><title>Node6&#45;&gt;Node9</title>
<path fill="none" stroke="#404040" d="M486.923,-890.73C481.835,-883.265 476.821,-874.634 473.679,-866 465.724,-844.138 469.87,-837.161 467.679,-814 465.265,-788.489 468.552,-602.363 450.679,-584 422.948,-555.51 309.165,-581.793 272.679,-566 268.559,-564.217 264.482,-562.217 260.463,-560.04"/>
<polygon fill="none" stroke="#404040" points="260.325,-559.959 253.126,-560.377 249.972,-553.892 257.171,-553.475 260.325,-559.959"/>
<text text-anchor="middle" x="478.179" y="-716.5" font-family="Helvetica,sans-Serif" font-size="10.00"> +str</text>
</g>
<!-- Node7 -->
<g id="node7" class="node"><title>Node7</title>
<polygon fill="none" stroke="#bfbfbf" points="140.179,-885.5 140.179,-942.5 169.179,-942.5 169.179,-885.5 140.179,-885.5"/>
<text text-anchor="middle" x="154.679" y="-930.5" font-family="Helvetica,sans-Serif" font-size="10.00">int</text>
<polyline fill="none" stroke="#bfbfbf" points="140.179,-923.5 169.179,-923.5 "/>
<text text-anchor="middle" x="154.679" y="-911.5" font-family="Helvetica,sans-Serif" font-size="10.00"> </text>
<polyline fill="none" stroke="#bfbfbf" points="140.179,-904.5 169.179,-904.5 "/>
<text text-anchor="middle" x="154.679" y="-892.5" font-family="Helvetica,sans-Serif" font-size="10.00"> </text>
</g>
<!-- Node7&#45;&gt;Node3 -->
<g id="edge6" class="edge"><title>Node7&#45;&gt;Node3</title>
<path fill="none" stroke="#404040" d="M151.678,-885.475C143.781,-810.328 124.384,-605.803 144.679,-584 163.73,-563.534 369.591,-576.06 395.679,-566 404.719,-562.514 413.629,-558.102 422.259,-553.101"/>
<polygon fill="none" stroke="#404040" points="422.411,-553.008 425.432,-546.46 432.638,-546.731 429.617,-553.278 422.411,-553.008"/>
<text text-anchor="middle" x="170.179" y="-727.5" font-family="Helvetica,sans-Serif" font-size="10.00"> +arraySize</text>
<text text-anchor="middle" x="170.179" y="-716.5" font-family="Helvetica,sans-Serif" font-size="10.00">+size</text>
<text text-anchor="middle" x="170.179" y="-705.5" font-family="Helvetica,sans-Serif" font-size="10.00">+bitcount</text>
</g>
<!-- Node7&#45;&gt;Node8 -->
<g id="edge11" class="edge"><title>Node7&#45;&gt;Node8</title>
<path fill="none" stroke="#404040" d="M169.397,-892.71C183.84,-872.799 206.905,-841.003 229.33,-810.089"/>
<polygon fill="none" stroke="#404040" points="229.53,-809.812 229.815,-802.607 236.576,-800.099 236.291,-807.304 229.53,-809.812"/>
<text text-anchor="middle" x="238.179" y="-857.5" font-family="Helvetica,sans-Serif" font-size="10.00"> +arraySize</text>
<text text-anchor="middle" x="238.179" y="-846.5" font-family="Helvetica,sans-Serif" font-size="10.00">+size</text>
<text text-anchor="middle" x="238.179" y="-835.5" font-family="Helvetica,sans-Serif" font-size="10.00">+bitcount</text>
</g>
<!-- Node7&#45;&gt;Node9 -->
<g id="edge18" class="edge"><title>Node7&#45;&gt;Node9</title>
<path fill="none" stroke="#404040" d="M139.907,-907.036C111.493,-894.647 49.9004,-863.121 25.6789,-814 -11.6671,-738.263 -4.88716,-702.718 25.6789,-624 35.8155,-597.895 52.7579,-573.537 71.3937,-552.301"/>
<polygon fill="none" stroke="#404040" points="71.4086,-552.284 72.4757,-545.153 79.4692,-543.395 78.4022,-550.526 71.4086,-552.284"/>
<text text-anchor="middle" x="51.1789" y="-727.5" font-family="Helvetica,sans-Serif" font-size="10.00"> +arraySize</text>
<text text-anchor="middle" x="51.1789" y="-716.5" font-family="Helvetica,sans-Serif" font-size="10.00">+size</text>
<text text-anchor="middle" x="51.1789" y="-705.5" font-family="Helvetica,sans-Serif" font-size="10.00">+bitcount</text>
</g>
<!-- Node8&#45;&gt;Node1 -->
<g id="edge36" class="edge"><title>Node8&#45;&gt;Node1</title>
<path fill="none" stroke="#404040" d="M236.437,-652.228C225.01,-641.788 212.55,-631.86 199.679,-624 177.728,-610.596 168.309,-616.156 144.679,-606 110.331,-591.238 89.8242,-598.112 70.6789,-566 3.30844,-453.001 -7.7271,-374.127 72.6789,-270 162.788,-153.308 612.952,-78.6451 801.937,-51.9828"/>
<polygon fill="none" stroke="#404040" points="802.116,-51.9578 807.504,-47.1654 814,-50.296 808.612,-55.0884 802.116,-51.9578"/>
<text text-anchor="middle" x="121.179" y="-317" font-family="Helvetica,sans-Serif" font-size="10.00"> +sHeaderType</text>
<text text-anchor="middle" x="121.179" y="-306" font-family="Helvetica,sans-Serif" font-size="10.00">+sSerializationMethod</text>
</g>
<!-- Node8&#45;&gt;Node2 -->
<g id="edge22" class="edge"><title>Node8&#45;&gt;Node2</title>
<path fill="none" stroke="#404040" d="M293.548,-624.412C294.233,-537.309 300.17,-415.215 326.679,-376 393.791,-276.72 530.994,-227.888 616.454,-206.169"/>
<polygon fill="none" stroke="#404040" points="616.506,-206.156 621.373,-200.836 628.157,-203.282 623.29,-208.603 616.506,-206.156"/>
<text text-anchor="middle" x="375.179" y="-474" font-family="Helvetica,sans-Serif" font-size="10.00"> +sHeaderType</text>
<text text-anchor="middle" x="375.179" y="-463" font-family="Helvetica,sans-Serif" font-size="10.00">+sSerializationMethod</text>
</g>
<!-- Node8&#45;&gt;Node3 -->
<g id="edge7" class="edge"><title>Node8&#45;&gt;Node3</title>
<path fill="none" stroke="orange" d="M308.437,-615.058C313.39,-603.56 319.969,-592.832 328.679,-584 350.329,-562.046 368.098,-579.785 395.679,-566 408.225,-559.73 420.72,-552.026 432.647,-543.753"/>
<polygon fill="orange" stroke="orange" points="305.158,-613.834 304.803,-624.423 311.684,-616.366 305.158,-613.834"/>
<text text-anchor="start" x="328.679" y="-598" font-family="Helvetica,sans-Serif" font-size="10.00"> &lt; gSizeHeaderDescription</text>
<text text-anchor="middle" x="387.679" y="-587" font-family="Helvetica,sans-Serif" font-size="10.00">String &gt;</text>
</g>
<!-- Node8&#45;&gt;Node9 -->
<g id="edge19" class="edge"><title>Node8&#45;&gt;Node9</title>
<path fill="none" stroke="orange" d="M228.813,-638.673C222.664,-633.331 216.259,-628.353 209.679,-624 189.282,-610.507 171.865,-625.922 157.679,-606 149.234,-594.14 145.329,-580.084 144.252,-565.611"/>
<polygon fill="orange" stroke="orange" points="226.703,-641.485 236.459,-645.616 231.408,-636.302 226.703,-641.485"/>
<text text-anchor="start" x="157.679" y="-598" font-family="Helvetica,sans-Serif" font-size="10.00"> &lt; gSizeSerializationMethod</text>
<text text-anchor="middle" x="219.179" y="-587" font-family="Helvetica,sans-Serif" font-size="10.00">String &gt;</text>
</g>
<!-- Node9&#45;&gt;Node2 -->
<g id="edge14" class="edge"><title>Node9&#45;&gt;Node2</title>
<path fill="none" stroke="#404040" d="M168.979,-376.488C175.598,-338.314 189.874,-296.905 219.679,-270 276.744,-218.488 498.273,-200.151 616.06,-193.956"/>
<polygon fill="none" stroke="#404040" points="616.179,-193.95 621.969,-189.652 628.163,-193.343 622.374,-197.642 616.179,-193.95"/>
<text text-anchor="middle" x="250.179" y="-311.5" font-family="Helvetica,sans-Serif" font-size="10.00"> +serialization</text>
</g>
<!-- Node10 -->
<g id="node10" class="node"><title>Node10</title>
<polygon fill="none" stroke="#bfbfbf" points="871.179,-442.5 871.179,-499.5 922.179,-499.5 922.179,-442.5 871.179,-442.5"/>
<text text-anchor="middle" x="896.679" y="-487.5" font-family="Helvetica,sans-Serif" font-size="10.00">uint32_t</text>
<polyline fill="none" stroke="#bfbfbf" points="871.179,-480.5 922.179,-480.5 "/>
<text text-anchor="middle" x="896.679" y="-468.5" font-family="Helvetica,sans-Serif" font-size="10.00"> </text>
<polyline fill="none" stroke="#bfbfbf" points="871.179,-461.5 922.179,-461.5 "/>
<text text-anchor="middle" x="896.679" y="-449.5" font-family="Helvetica,sans-Serif" font-size="10.00"> </text>
</g>
<!-- Node10&#45;&gt;Node1 -->
<g id="edge29" class="edge"><title>Node10&#45;&gt;Node1</title>
<path fill="none" stroke="#404040" d="M895.966,-442.183C894.147,-371.25 889.315,-182.814 886.979,-91.717"/>
<polygon fill="none" stroke="#404040" points="886.975,-91.5273 882.822,-85.6318 886.667,-79.5312 890.819,-85.4267 886.975,-91.5273"/>
<text text-anchor="middle" x="915.679" y="-187.5" font-family="Helvetica,sans-Serif" font-size="10.00"> +sVersion</text>
</g>
<!-- Node10&#45;&gt;Node2 -->
<g id="edge21" class="edge"><title>Node10&#45;&gt;Node2</title>
<path fill="none" stroke="#404040" d="M870.789,-449.142C846.812,-428.459 811.902,-394.634 791.679,-358 772.142,-322.609 788.672,-305.135 768.679,-270 766.333,-265.877 763.717,-261.818 760.906,-257.846"/>
<polygon fill="none" stroke="#404040" points="760.814,-257.726 753.999,-255.369 753.554,-248.172 760.369,-250.529 760.814,-257.726"/>
<text text-anchor="middle" x="831.679" y="-350" font-family="Helvetica,sans-Serif" font-size="10.00"> +headerVersion</text>
<text text-anchor="middle" x="831.679" y="-339" font-family="Helvetica,sans-Serif" font-size="10.00">+headerSize</text>
<text text-anchor="middle" x="831.679" y="-328" font-family="Helvetica,sans-Serif" font-size="10.00">+sMagicString</text>
<text text-anchor="middle" x="831.679" y="-317" font-family="Helvetica,sans-Serif" font-size="10.00">+flagsNextHeader</text>
<text text-anchor="middle" x="831.679" y="-306" font-family="Helvetica,sans-Serif" font-size="10.00">+magicStringInt</text>
<text text-anchor="middle" x="831.679" y="-295" font-family="Helvetica,sans-Serif" font-size="10.00">+flagsUnused</text>
<text text-anchor="middle" x="831.679" y="-284" font-family="Helvetica,sans-Serif" font-size="10.00">+flags</text>
<text text-anchor="middle" x="831.679" y="-273" font-family="Helvetica,sans-Serif" font-size="10.00">+sVersion</text>
</g>
<!-- Node10&#45;&gt;Node11 -->
<g id="edge27" class="edge"><title>Node10&#45;&gt;Node11</title>
<path fill="none" stroke="#404040" d="M897.197,-442.342C898.525,-394.519 903.22,-298.737 919.679,-270 922.578,-264.939 939.916,-251.315 959.696,-236.776"/>
<polygon fill="none" stroke="#404040" points="959.849,-236.664 962.344,-229.899 969.549,-229.599 967.054,-236.365 959.849,-236.664"/>
<text text-anchor="middle" x="933.679" y="-311.5" font-family="Helvetica,sans-Serif" font-size="10.00"> +orbit</text>
</g>
<!-- Node10&#45;&gt;Node15 -->
<g id="edge34" class="edge"><title>Node10&#45;&gt;Node15</title>
<path fill="none" stroke="#404040" d="M922.44,-459.463C958.633,-443.268 1023.88,-408.718 1057.68,-358 1079.87,-324.704 1049.35,-299.226 1076.68,-270 1090.2,-255.535 1193.59,-228.436 1269.63,-210.057"/>
<polygon fill="none" stroke="#404040" points="1269.92,-209.989 1274.82,-204.697 1281.59,-207.185 1276.69,-212.476 1269.92,-209.989"/>
<text text-anchor="middle" x="1104.18" y="-317" font-family="Helvetica,sans-Serif" font-size="10.00"> +status</text>
<text text-anchor="middle" x="1104.18" y="-306" font-family="Helvetica,sans-Serif" font-size="10.00">+dataLength</text>
</g>
<!-- Node11&#45;&gt;Node1 -->
<g id="edge23" class="edge"><title>Node11&#45;&gt;Node1</title>
<path fill="none" stroke="#404040" d="M988.158,-150.115C970.441,-131.25 949.001,-108.422 930.321,-88.5326"/>
<polygon fill="none" stroke="#404040" points="930.171,-88.3727 923.148,-86.7375 921.956,-79.6256 928.979,-81.2607 930.171,-88.3727"/>
<text text-anchor="middle" x="967.179" y="-101.5" font-family="Helvetica,sans-Serif" font-size="10.00"> +header</text>
</g>
<!-- Node12 -->
<g id="node12" class="node"><title>Node12</title>
<polygon fill="none" stroke="#bfbfbf" points="1131.18,-442.5 1131.18,-499.5 1182.18,-499.5 1182.18,-442.5 1131.18,-442.5"/>
<text text-anchor="middle" x="1156.68" y="-487.5" font-family="Helvetica,sans-Serif" font-size="10.00">uint64_t</text>
<polyline fill="none" stroke="#bfbfbf" points="1131.18,-480.5 1182.18,-480.5 "/>
<text text-anchor="middle" x="1156.68" y="-468.5" font-family="Helvetica,sans-Serif" font-size="10.00"> </text>
<polyline fill="none" stroke="#bfbfbf" points="1131.18,-461.5 1182.18,-461.5 "/>
<text text-anchor="middle" x="1156.68" y="-449.5" font-family="Helvetica,sans-Serif" font-size="10.00"> </text>
</g>
<!-- Node12&#45;&gt;Node11 -->
<g id="edge24" class="edge"><title>Node12&#45;&gt;Node11</title>
<path fill="none" stroke="#404040" d="M1130.98,-460.981C1093.26,-446.178 1024.3,-412.773 995.679,-358 976.701,-321.68 986.952,-275.457 1000.25,-240.853"/>
<polygon fill="none" stroke="#404040" points="1000.31,-240.707 998.867,-233.641 1004.84,-229.594 1006.28,-236.66 1000.31,-240.707"/>
<text text-anchor="middle" x="1026.68" y="-311.5" font-family="Helvetica,sans-Serif" font-size="10.00"> +headerWord</text>
</g>
<!-- Node12&#45;&gt;Node15 -->
<g id="edge31" class="edge"><title>Node12&#45;&gt;Node15</title>
<path fill="none" stroke="#404040" d="M1174.51,-442.241C1187.99,-422.482 1207.7,-395.997 1228.68,-376 1238.85,-366.304 1246.62,-369.516 1254.68,-358 1277.85,-324.876 1258.15,-305.395 1277.68,-270 1284.91,-256.888 1294.81,-244.284 1305.02,-233.143"/>
<polygon fill="none" stroke="#404040" points="1305.32,-232.826 1306.58,-225.724 1313.61,-224.149 1312.36,-231.251 1305.32,-232.826"/>
<text text-anchor="middle" x="1306.18" y="-311.5" font-family="Helvetica,sans-Serif" font-size="10.00"> +trailerWord</text>
</g>
<!-- Node13 -->
<g id="node13" class="node"><title>Node13</title>
<polygon fill="none" stroke="#bfbfbf" points="1405.18,-442.5 1405.18,-499.5 1456.18,-499.5 1456.18,-442.5 1405.18,-442.5"/>
<text text-anchor="middle" x="1430.68" y="-487.5" font-family="Helvetica,sans-Serif" font-size="10.00">uint16_t</text>
<polyline fill="none" stroke="#bfbfbf" points="1405.18,-480.5 1456.18,-480.5 "/>
<text text-anchor="middle" x="1430.68" y="-468.5" font-family="Helvetica,sans-Serif" font-size="10.00"> </text>
<polyline fill="none" stroke="#bfbfbf" points="1405.18,-461.5 1456.18,-461.5 "/>
<text text-anchor="middle" x="1430.68" y="-449.5" font-family="Helvetica,sans-Serif" font-size="10.00"> </text>
</g>
<!-- Node13&#45;&gt;Node11 -->
<g id="edge26" class="edge"><title>Node13&#45;&gt;Node11</title>
<path fill="none" stroke="#404040" d="M1407.09,-442.359C1389.82,-420.735 1367.14,-389.197 1353.68,-358 1337.82,-321.264 1362.45,-298.81 1334.68,-270 1330.65,-265.82 1199.58,-233.386 1109.18,-211.397"/>
<polygon fill="none" stroke="#404040" points="1108.93,-211.335 1102.15,-213.806 1097.27,-208.502 1104.04,-206.032 1108.93,-211.335"/>
<text text-anchor="middle" x="1377.18" y="-317" font-family="Helvetica,sans-Serif" font-size="10.00"> +reserved</text>
<text text-anchor="middle" x="1377.18" y="-306" font-family="Helvetica,sans-Serif" font-size="10.00">+bcid</text>
</g>
<!-- Node13&#45;&gt;Node15 -->
<g id="edge33" class="edge"><title>Node13&#45;&gt;Node15</title>
<path fill="none" stroke="#404040" d="M1450.1,-442.453C1475.83,-402.264 1514.43,-326.231 1482.68,-270 1471.22,-249.716 1452.24,-234.058 1432.23,-222.237"/>
<polygon fill="none" stroke="#404040" points="1432.2,-222.221 1425.02,-222.809 1421.71,-216.4 1428.9,-215.813 1432.2,-222.221"/>
<text text-anchor="middle" x="1527.18" y="-328" font-family="Helvetica,sans-Serif" font-size="10.00"> +hbfTruncated</text>
<text text-anchor="middle" x="1527.18" y="-317" font-family="Helvetica,sans-Serif" font-size="10.00">+hbfStatus</text>
<text text-anchor="middle" x="1527.18" y="-306" font-family="Helvetica,sans-Serif" font-size="10.00">+trailerLength</text>
<text text-anchor="middle" x="1527.18" y="-295" font-family="Helvetica,sans-Serif" font-size="10.00">+hbAccept</text>
</g>
<!-- Node14 -->
<g id="node14" class="node"><title>Node14</title>
<polygon fill="none" stroke="#bfbfbf" points="1237.68,-442.5 1237.68,-499.5 1283.68,-499.5 1283.68,-442.5 1237.68,-442.5"/>
<text text-anchor="middle" x="1260.68" y="-487.5" font-family="Helvetica,sans-Serif" font-size="10.00">uint8_t</text>
<polyline fill="none" stroke="#bfbfbf" points="1237.68,-480.5 1283.68,-480.5 "/>
<text text-anchor="middle" x="1260.68" y="-468.5" font-family="Helvetica,sans-Serif" font-size="10.00"> </text>
<polyline fill="none" stroke="#bfbfbf" points="1237.68,-461.5 1283.68,-461.5 "/>
<text text-anchor="middle" x="1260.68" y="-449.5" font-family="Helvetica,sans-Serif" font-size="10.00"> </text>
</g>
<!-- Node14&#45;&gt;Node11 -->
<g id="edge28" class="edge"><title>Node14&#45;&gt;Node11</title>
<path fill="none" stroke="#404040" d="M1244.84,-442.144C1232.21,-421.823 1212.99,-394.682 1190.68,-376 1176.96,-364.515 1165.65,-372.133 1154.68,-358 1130.15,-326.388 1157.69,-303.415 1135.68,-270 1127.57,-257.687 1116.83,-246.686 1105.22,-237.088"/>
<polygon fill="none" stroke="#404040" points="1105.21,-237.082 1098.02,-236.54 1095.75,-229.694 1102.94,-230.236 1105.21,-237.082"/>
<text text-anchor="middle" x="1202.68" y="-328" font-family="Helvetica,sans-Serif" font-size="10.00"> +triggerType</text>
<text text-anchor="middle" x="1202.68" y="-317" font-family="Helvetica,sans-Serif" font-size="10.00">+headerLength</text>
<text text-anchor="middle" x="1202.68" y="-306" font-family="Helvetica,sans-Serif" font-size="10.00">+blockType</text>
<text text-anchor="middle" x="1202.68" y="-295" font-family="Helvetica,sans-Serif" font-size="10.00">+reservedTriggerType</text>
</g>
<!-- Node14&#45;&gt;Node15 -->
<g id="edge35" class="edge"><title>Node14&#45;&gt;Node15</title>
<path fill="none" stroke="#404040" d="M1283.75,-460.185C1317.6,-444.353 1379.42,-409.639 1404.68,-358 1421.86,-322.866 1416.07,-307.416 1404.68,-270 1400.89,-257.547 1394.41,-245.275 1387.25,-234.251"/>
<polygon fill="none" stroke="#404040" points="1387.07,-233.979 1380.37,-231.31 1380.26,-224.1 1386.95,-226.769 1387.07,-233.979"/>
<text text-anchor="middle" x="1442.18" y="-311.5" font-family="Helvetica,sans-Serif" font-size="10.00"> +blockType</text>
</g>
<!-- Node15&#45;&gt;Node1 -->
<g id="edge30" class="edge"><title>Node15&#45;&gt;Node1</title>
<path fill="none" stroke="#404040" d="M1281.66,-166.763C1198.01,-140.196 1058.22,-95.7972 969.063,-67.4825"/>
<polygon fill="none" stroke="#404040" points="968.808,-67.4015 961.878,-69.3976 957.371,-63.7691 964.3,-61.7729 968.808,-67.4015"/>
<text text-anchor="middle" x="1108.68" y="-101.5" font-family="Helvetica,sans-Serif" font-size="10.00"> +trailer</text>
</g>
</g>
</svg>
        <g id="navigator" transform="translate(0 0)" fill="#404254">
                <rect fill="#f2f5e9" fill-opacity="0.5" stroke="#606060" stroke-width=".5" x="0" y="0" width="60" height="60"/>
                <use id="zoomplus" xlink:href="#zoomPlus" x="17" y="9" onmousedown="handleZoom(evt,'in')"/>
                <use id="zoomminus" xlink:href="#zoomMin" x="42" y="9" onmousedown="handleZoom(evt,'out')"/>
                <use id="reset" xlink:href="#resetDef" x="30" y="36" onmousedown="handleReset()"/>
                <g id="arrowUp" xlink:href="#dirArrow" transform="translate(30 24)" onmousedown="handlePan(0,-1)">
                  <use xlink:href="#rim" fill="#404040">
                        <set attributeName="fill" to="#808080" begin="arrowUp.mouseover" end="arrowUp.mouseout"/>
                  </use>
                  <path fill="none" stroke="white" stroke-width="1.5" d="M0,-3.0v7 M-2.5,-0.5L0,-3.0L2.5,-0.5"/>
                </g>
                <g id="arrowRight" xlink:href="#dirArrow" transform="rotate(90) translate(36 -43)" onmousedown="handlePan(1,0)">
                  <use xlink:href="#rim" fill="#404040">
                        <set attributeName="fill" to="#808080" begin="arrowRight.mouseover" end="arrowRight.mouseout"/>
                  </use>
                  <path fill="none" stroke="white" stroke-width="1.5" d="M0,-3.0v7 M-2.5,-0.5L0,-3.0L2.5,-0.5"/>
                </g>
                <g id="arrowDown" xlink:href="#dirArrow" transform="rotate(180) translate(-30 -48)" onmousedown="handlePan(0,1)">
                  <use xlink:href="#rim" fill="#404040">
                        <set attributeName="fill" to="#808080" begin="arrowDown.mouseover" end="arrowDown.mouseout"/>
                  </use>
                  <path fill="none" stroke="white" stroke-width="1.5" d="M0,-3.0v7 M-2.5,-0.5L0,-3.0L2.5,-0.5"/>
                </g>
                <g id="arrowLeft" xlink:href="#dirArrow" transform="rotate(270) translate(-36 17)" onmousedown="handlePan(-1,0)">
                  <use xlink:href="#rim" fill="#404040">
                        <set attributeName="fill" to="#808080" begin="arrowLeft.mouseover" end="arrowLeft.mouseout"/>
                  </use>
                  <path fill="none" stroke="white" stroke-width="1.5" d="M0,-3.0v7 M-2.5,-0.5L0,-3.0L2.5,-0.5"/>
                </g>
        </g>
        <svg viewBox="0 0 15 15" width="100%" height="30px" preserveAspectRatio="xMaxYMin meet">
         <g id="arrow_out" transform="scale(0.3 0.3)">
          <a xlink:href="structo2_1_1Header_1_1HeartbeatFrameEnvelope__coll__graph_org.svg" target="_base">
           <rect id="button" ry="5" rx="5" y="6" x="6" height="38" width="38"
                fill="#f2f5e9" fill-opacity="0.5" stroke="#606060" stroke-width="1.0"/>
           <path id="arrow"
             d="M 11.500037,31.436501 C 11.940474,20.09759 22.043105,11.32322 32.158766,21.979434 L 37.068811,17.246167 C 37.068811,17.246167 37.088388,32 37.088388,32 L 22.160133,31.978069 C 22.160133,31.978069 26.997745,27.140456 26.997745,27.140456 C 18.528582,18.264221 13.291696,25.230495 11.500037,31.436501 z"
             style="fill:#404040;"/>
          </a>
         </g>
        </svg>
</svg>
