<?xml version="1.0" encoding="UTF-8" standalone="no"?>
<!DOCTYPE svg PUBLIC "-//W3C//DTD SVG 1.1//EN"
 "http://www.w3.org/Graphics/SVG/1.1/DTD/svg11.dtd">
<!-- Generated by graphviz version 2.36.0 (20140111.2315)
 -->
<!-- Title: /home/travis/build/AliceO2Group/AliceO2/Framework/Core/include/Framework/DataRefUtils.h Pages: 1 -->
<svg width="859pt" height="174pt"
 viewBox="0.00 0.00 859.00 174.00" xmlns="http://www.w3.org/2000/svg" xmlns:xlink="http://www.w3.org/1999/xlink">
<g id="graph0" class="graph" transform="scale(1 1) rotate(0) translate(4 170)">
<title>/home/travis/build/AliceO2Group/AliceO2/Framework/Core/include/Framework/DataRefUtils.h</title>
<!-- Node1 -->
<g id="node1" class="node"><title>Node1</title>
<polygon fill="#bfbfbf" stroke="black" points="501.5,-113 501.5,-165 638.5,-165 638.5,-113 501.5,-113"/>
<text text-anchor="start" x="509.5" y="-153" font-family="Helvetica,sans-Serif" font-size="10.00">/home/travis/build</text>
<text text-anchor="start" x="509.5" y="-142" font-family="Helvetica,sans-Serif" font-size="10.00">/AliceO2Group/AliceO2</text>
<text text-anchor="start" x="509.5" y="-131" font-family="Helvetica,sans-Serif" font-size="10.00">/Framework/Core/include</text>
<text text-anchor="middle" x="570" y="-120" font-family="Helvetica,sans-Serif" font-size="10.00">/Framework/DataRefUtils.h</text>
</g>
<!-- Node2 -->
<g id="node2" class="node"><title>Node2</title>
<g id="a_node2"><a xlink:href="../../d5/dfb/DataRef_8h.html" target="_top" xlink:title="Framework/DataRef.h">
<polygon fill="none" stroke="black" points="35.5,-56.5 35.5,-75.5 148.5,-75.5 148.5,-56.5 35.5,-56.5"/>
<text text-anchor="middle" x="92" y="-63.5" font-family="Helvetica,sans-Serif" font-size="10.00">Framework/DataRef.h</text>
</a>
</g>
</g>
<!-- Node1&#45;&gt;Node2 -->
<g id="edge1" class="edge"><title>Node1&#45;&gt;Node2</title>
<path fill="none" stroke="midnightblue" d="M501.26,-127.79C409.842,-114.211 249.297,-90.3642 158.845,-76.9289"/>
<polygon fill="midnightblue" stroke="midnightblue" points="159.114,-73.4304 148.708,-75.4231 158.085,-80.3545 159.114,-73.4304"/>
</g>
<!-- Node3 -->
<g id="node3" class="node"><title>Node3</title>
<g id="a_node3"><a xlink:href="../../dc/dcd/DataHeader_8h.html" target="_top" xlink:title="Headers/DataHeader.h">
<polygon fill="none" stroke="black" points="166.5,-56.5 166.5,-75.5 283.5,-75.5 283.5,-56.5 166.5,-56.5"/>
<text text-anchor="middle" x="225" y="-63.5" font-family="Helvetica,sans-Serif" font-size="10.00">Headers/DataHeader.h</text>
</a>
</g>
</g>
<!-- Node1&#45;&gt;Node3 -->
<g id="edge2" class="edge"><title>Node1&#45;&gt;Node3</title>
<path fill="none" stroke="midnightblue" d="M501.427,-123.888C435.11,-110.24 336.121,-89.8683 276.342,-77.566"/>
<polygon fill="midnightblue" stroke="midnightblue" points="276.875,-74.1024 266.375,-75.5148 275.464,-80.9588 276.875,-74.1024"/>
</g>
<!-- Node9 -->
<g id="node9" class="node"><title>Node9</title>
<g id="a_node9"><a xlink:href="../../d8/d3c/TMessageSerializer_8h.html" target="_top" xlink:title="Framework/TMessageSerializer.h">
<polygon fill="none" stroke="black" points="322.5,-56.5 322.5,-75.5 485.5,-75.5 485.5,-56.5 322.5,-56.5"/>
<text text-anchor="middle" x="404" y="-63.5" font-family="Helvetica,sans-Serif" font-size="10.00">Framework/TMessageSerializer.h</text>
</a>
</g>
</g>
<!-- Node1&#45;&gt;Node9 -->
<g id="edge8" class="edge"><title>Node1&#45;&gt;Node9</title>
<path fill="none" stroke="midnightblue" d="M511.475,-112.968C485.086,-101.681 455.072,-88.8441 433.482,-79.6097"/>
<polygon fill="midnightblue" stroke="midnightblue" points="434.769,-76.3534 424.198,-75.6389 432.016,-82.7895 434.769,-76.3534"/>
</g>
<!-- Node13 -->
<g id="node13" class="node"><title>Node13</title>
<polygon fill="none" stroke="#bfbfbf" points="504,-56.5 504,-75.5 560,-75.5 560,-56.5 504,-56.5"/>
<text text-anchor="middle" x="532" y="-63.5" font-family="Helvetica,sans-Serif" font-size="10.00">TClass.h</text>
</g>
<!-- Node1&#45;&gt;Node13 -->
<g id="edge12" class="edge"><title>Node1&#45;&gt;Node13</title>
<path fill="none" stroke="midnightblue" d="M556.496,-112.768C551.528,-103.486 546.012,-93.1794 541.473,-84.7004"/>
<polygon fill="midnightblue" stroke="midnightblue" points="544.492,-82.9222 536.687,-75.7572 538.32,-86.2254 544.492,-82.9222"/>
</g>
<!-- Node14 -->
<g id="node14" class="node"><title>Node14</title>
<polygon fill="none" stroke="#bfbfbf" points="578.5,-56.5 578.5,-75.5 637.5,-75.5 637.5,-56.5 578.5,-56.5"/>
<text text-anchor="middle" x="608" y="-63.5" font-family="Helvetica,sans-Serif" font-size="10.00">stdexcept</text>
</g>
<!-- Node1&#45;&gt;Node14 -->
<g id="edge13" class="edge"><title>Node1&#45;&gt;Node14</title>
<path fill="none" stroke="midnightblue" d="M583.504,-112.768C588.472,-103.486 593.988,-93.1794 598.527,-84.7004"/>
<polygon fill="midnightblue" stroke="midnightblue" points="601.68,-86.2254 603.313,-75.7572 595.508,-82.9222 601.68,-86.2254"/>
</g>
<!-- Node15 -->
<g id="node15" class="node"><title>Node15</title>
<polygon fill="none" stroke="#bfbfbf" points="656,-56.5 656,-75.5 708,-75.5 708,-56.5 656,-56.5"/>
<text text-anchor="middle" x="682" y="-63.5" font-family="Helvetica,sans-Serif" font-size="10.00">sstream</text>
</g>
<!-- Node1&#45;&gt;Node15 -->
<g id="edge14" class="edge"><title>Node1&#45;&gt;Node15</title>
<path fill="none" stroke="midnightblue" d="M609.487,-112.968C626.329,-102.291 645.36,-90.2274 659.698,-81.1379"/>
<polygon fill="midnightblue" stroke="midnightblue" points="661.8,-83.9491 668.372,-75.6389 658.053,-78.037 661.8,-83.9491"/>
</g>
<!-- Node16 -->
<g id="node16" class="node"><title>Node16</title>
<polygon fill="none" stroke="#bfbfbf" points="726,-56.5 726,-75.5 788,-75.5 788,-56.5 726,-56.5"/>
<text text-anchor="middle" x="757" y="-63.5" font-family="Helvetica,sans-Serif" font-size="10.00">type_traits</text>
</g>
<!-- Node1&#45;&gt;Node16 -->
<g id="edge15" class="edge"><title>Node1&#45;&gt;Node16</title>
<path fill="none" stroke="midnightblue" d="M635.929,-112.968C666.058,-101.529 700.381,-88.4969 724.769,-79.2373"/>
<polygon fill="midnightblue" stroke="midnightblue" points="726.14,-82.4606 734.247,-75.6389 723.656,-75.9164 726.14,-82.4606"/>
</g>
<!-- Node17 -->
<g id="node17" class="node"><title>Node17</title>
<polygon fill="none" stroke="#bfbfbf" points="806.5,-56.5 806.5,-75.5 851.5,-75.5 851.5,-56.5 806.5,-56.5"/>
<text text-anchor="middle" x="829" y="-63.5" font-family="Helvetica,sans-Serif" font-size="10.00">gsl/gsl</text>
</g>
<!-- Node1&#45;&gt;Node17 -->
<g id="edge16" class="edge"><title>Node1&#45;&gt;Node17</title>
<path fill="none" stroke="midnightblue" d="M638.727,-119.16C689.766,-105.168 757.092,-86.7123 796.456,-75.9214"/>
<polygon fill="midnightblue" stroke="midnightblue" points="797.588,-79.2402 806.307,-73.2209 795.737,-72.4892 797.588,-79.2402"/>
</g>
<!-- Node4 -->
<g id="node4" class="node"><title>Node4</title>
<polygon fill="none" stroke="#bfbfbf" points="0,-0.5 0,-19.5 46,-19.5 46,-0.5 0,-0.5"/>
<text text-anchor="middle" x="23" y="-7.5" font-family="Helvetica,sans-Serif" font-size="10.00">cstdint</text>
</g>
<!-- Node3&#45;&gt;Node4 -->
<g id="edge3" class="edge"><title>Node3&#45;&gt;Node4</title>
<path fill="none" stroke="midnightblue" d="M192.052,-56.439C159.783,-48.019 108.964,-34.6652 55.9757,-20.237"/>
<polygon fill="midnightblue" stroke="midnightblue" points="56.6289,-16.7874 46.0603,-17.5314 54.7862,-23.5405 56.6289,-16.7874"/>
</g>
<!-- Node5 -->
<g id="node5" class="node"><title>Node5</title>
<polygon fill="none" stroke="#bfbfbf" points="64,-0.5 64,-19.5 116,-19.5 116,-0.5 64,-0.5"/>
<text text-anchor="middle" x="90" y="-7.5" font-family="Helvetica,sans-Serif" font-size="10.00">memory</text>
</g>
<!-- Node3&#45;&gt;Node5 -->
<g id="edge4" class="edge"><title>Node3&#45;&gt;Node5</title>
<path fill="none" stroke="midnightblue" d="M203.609,-56.4435C181.293,-47.5171 146.097,-33.4387 120.792,-23.3168"/>
<polygon fill="midnightblue" stroke="midnightblue" points="121.876,-19.9807 111.291,-19.5164 119.276,-26.4801 121.876,-19.9807"/>
</g>
<!-- Node6 -->
<g id="node6" class="node"><title>Node6</title>
<polygon fill="none" stroke="#bfbfbf" points="134.5,-0.5 134.5,-19.5 183.5,-19.5 183.5,-0.5 134.5,-0.5"/>
<text text-anchor="middle" x="159" y="-7.5" font-family="Helvetica,sans-Serif" font-size="10.00">cassert</text>
</g>
<!-- Node3&#45;&gt;Node6 -->
<g id="edge5" class="edge"><title>Node3&#45;&gt;Node6</title>
<path fill="none" stroke="midnightblue" d="M214.396,-56.324C204.544,-48.2631 189.649,-36.0765 177.785,-26.3695"/>
<polygon fill="midnightblue" stroke="midnightblue" points="179.753,-23.4575 169.797,-19.8339 175.32,-28.8752 179.753,-23.4575"/>
</g>
<!-- Node7 -->
<g id="node7" class="node"><title>Node7</title>
<polygon fill="none" stroke="#bfbfbf" points="202,-0.5 202,-19.5 248,-19.5 248,-0.5 202,-0.5"/>
<text text-anchor="middle" x="225" y="-7.5" font-family="Helvetica,sans-Serif" font-size="10.00">cstring</text>
</g>
<!-- Node3&#45;&gt;Node7 -->
<g id="edge6" class="edge"><title>Node3&#45;&gt;Node7</title>
<path fill="none" stroke="midnightblue" d="M225,-56.083C225,-49.0059 225,-38.8611 225,-29.9865"/>
<polygon fill="midnightblue" stroke="midnightblue" points="228.5,-29.751 225,-19.7511 221.5,-29.7511 228.5,-29.751"/>
</g>
<!-- Node8 -->
<g id="node8" class="node"><title>Node8</title>
<polygon fill="none" stroke="#bfbfbf" points="266,-0.5 266,-19.5 322,-19.5 322,-0.5 266,-0.5"/>
<text text-anchor="middle" x="294" y="-7.5" font-family="Helvetica,sans-Serif" font-size="10.00">algorithm</text>
</g>
<!-- Node3&#45;&gt;Node8 -->
<g id="edge7" class="edge"><title>Node3&#45;&gt;Node8</title>
<path fill="none" stroke="midnightblue" d="M236.086,-56.324C246.486,-48.1849 262.261,-35.8395 274.722,-26.0874"/>
<polygon fill="midnightblue" stroke="midnightblue" points="276.994,-28.7533 282.712,-19.8339 272.68,-23.2407 276.994,-28.7533"/>
</g>
<!-- Node10 -->
<g id="node10" class="node"><title>Node10</title>
<polygon fill="none" stroke="#bfbfbf" points="340.5,-0.5 340.5,-19.5 467.5,-19.5 467.5,-0.5 340.5,-0.5"/>
<text text-anchor="middle" x="404" y="-7.5" font-family="Helvetica,sans-Serif" font-size="10.00">fairmq/FairMQMessage.h</text>
</g>
<!-- Node9&#45;&gt;Node10 -->
<g id="edge9" class="edge"><title>Node9&#45;&gt;Node10</title>
<path fill="none" stroke="midnightblue" d="M404,-56.083C404,-49.0059 404,-38.8611 404,-29.9865"/>
<polygon fill="midnightblue" stroke="midnightblue" points="407.5,-29.751 404,-19.7511 400.5,-29.7511 407.5,-29.751"/>
</g>
<!-- Node11 -->
<g id="node11" class="node"><title>Node11</title>
<polygon fill="none" stroke="#bfbfbf" points="485.5,-0.5 485.5,-19.5 556.5,-19.5 556.5,-0.5 485.5,-0.5"/>
<text text-anchor="middle" x="521" y="-7.5" font-family="Helvetica,sans-Serif" font-size="10.00">TMessage.h</text>
</g>
<!-- Node9&#45;&gt;Node11 -->
<g id="edge10" class="edge"><title>Node9&#45;&gt;Node11</title>
<path fill="none" stroke="midnightblue" d="M422.539,-56.4435C441.623,-47.6356 471.575,-33.8116 493.436,-23.722"/>
<polygon fill="midnightblue" stroke="midnightblue" points="494.935,-26.8849 502.548,-19.5164 492.001,-20.5292 494.935,-26.8849"/>
</g>
<!-- Node12 -->
<g id="node12" class="node"><title>Node12</title>
<polygon fill="none" stroke="#bfbfbf" points="574.5,-0.5 574.5,-19.5 659.5,-19.5 659.5,-0.5 574.5,-0.5"/>
<text text-anchor="middle" x="617" y="-7.5" font-family="Helvetica,sans-Serif" font-size="10.00">TClonesArray.h</text>
</g>
<!-- Node9&#45;&gt;Node12 -->
<g id="edge11" class="edge"><title>Node9&#45;&gt;Node12</title>
<path fill="none" stroke="midnightblue" d="M437.75,-56.4435C474.518,-47.1221 533.446,-32.1828 573.622,-21.9972"/>
<polygon fill="midnightblue" stroke="midnightblue" points="574.574,-25.3666 583.407,-19.5164 572.854,-18.5813 574.574,-25.3666"/>
</g>
</g>
</svg>
