<?xml version="1.0" encoding="UTF-8" standalone="no"?>
<!DOCTYPE svg PUBLIC "-//W3C//DTD SVG 1.1//EN"
 "http://www.w3.org/Graphics/SVG/1.1/DTD/svg11.dtd">
<!-- Generated by graphviz version 2.36.0 (20140111.2315)
 -->
<!-- Title: /home/travis/build/AliceO2Group/AliceO2/Detectors/ITSMFT/ITS/simulation/include/ITSSimulation/Detector.h Pages: 1 -->
<!--zoomable 400 -->
<svg id="main" version="1.1" xmlns="http://www.w3.org/2000/svg" xmlns:xlink="http://www.w3.org/1999/xlink" xml:space="preserve" onload="init(evt)">
<style type="text/css"><![CDATA[
.edge:hover path { stroke: red; }
.edge:hover polygon { stroke: red; fill: red; }
]]></style>
<script type="text/javascript"><![CDATA[
var edges = document.getElementsByTagName('g');
if (edges && edges.length) {
  for (var i=0;i<edges.length;i++) {
    if (edges[i].id.substr(0,4)=='edge') {
      edges[i].setAttribute('class','edge');
    }
  }
}
]]></script>
        <defs>
                <circle id="rim" cx="0" cy="0" r="7"/>
                <circle id="rim2" cx="0" cy="0" r="3.5"/>
                <g id="zoomPlus">
                        <use xlink:href="#rim" fill="#404040">
                                <set attributeName="fill" to="#808080" begin="zoomplus.mouseover" end="zoomplus.mouseout"/>
                        </use>
                        <path d="M-4,0h8M0,-4v8" fill="none" stroke="white" stroke-width="1.5" pointer-events="none"/>
                </g>
                <g id="zoomMin">
                        <use xlink:href="#rim" fill="#404040">
                                <set attributeName="fill" to="#808080" begin="zoomminus.mouseover" end="zoomminus.mouseout"/>
                        </use>
                        <path d="M-4,0h8" fill="none" stroke="white" stroke-width="1.5" pointer-events="none"/>
                </g>
                <g id="dirArrow">
                        <path fill="none" stroke="white" stroke-width="1.5" d="M0,-3.0v7 M-2.5,-0.5L0,-3.0L2.5,-0.5"/>
                </g>
               <g id="resetDef">
                       <use xlink:href="#rim2" fill="#404040">
                               <set attributeName="fill" to="#808080" begin="reset.mouseover" end="reset.mouseout"/>
                       </use>
               </g>
        </defs>

<script type="text/javascript">
var viewWidth = 2163;
var viewHeight = 400;
var sectionId = 'dynsection-0';
</script>
<script xlink:href="../../svgpan.js"/>
<svg id="graph" class="graph">
<g id="viewport">
<title>/home/travis/build/AliceO2Group/AliceO2/Detectors/ITSMFT/ITS/simulation/include/ITSSimulation/Detector.h</title>
<!-- Node1 -->
<g id="node1" class="node"><title>Node1</title>
<polygon fill="#bfbfbf" stroke="black" points="1097,-328.5 1097,-391.5 1259,-391.5 1259,-328.5 1097,-328.5"/>
<text text-anchor="start" x="1105" y="-379.5" font-family="Helvetica,sans-Serif" font-size="10.00">/home/travis/build</text>
<text text-anchor="start" x="1105" y="-368.5" font-family="Helvetica,sans-Serif" font-size="10.00">/AliceO2Group/AliceO2</text>
<text text-anchor="start" x="1105" y="-357.5" font-family="Helvetica,sans-Serif" font-size="10.00">/Detectors/ITSMFT/ITS</text>
<text text-anchor="start" x="1105" y="-346.5" font-family="Helvetica,sans-Serif" font-size="10.00">/simulation/include/ITSSimulation</text>
<text text-anchor="middle" x="1178" y="-335.5" font-family="Helvetica,sans-Serif" font-size="10.00">/Detector.h</text>
</g>
<!-- Node2 -->
<g id="node2" class="node"><title>Node2</title>
<g id="a_node2"><a xlink:href="../../d1/d3a/Base_2include_2DetectorsBase_2Detector_8h.html" target="_top" xlink:title="DetectorsBase/Detector.h">
<polygon fill="none" stroke="black" points="275.5,-272.5 275.5,-291.5 406.5,-291.5 406.5,-272.5 275.5,-272.5"/>
<text text-anchor="middle" x="341" y="-279.5" font-family="Helvetica,sans-Serif" font-size="10.00">DetectorsBase/Detector.h</text>
</a>
</g>
</g>
<!-- Node1&#45;&gt;Node2 -->
<g id="edge1" class="edge"><title>Node1&#45;&gt;Node2</title>
<path fill="none" stroke="midnightblue" d="M1096.98,-351.644C935.2,-336.954 574.173,-304.172 416.788,-289.882"/>
<polygon fill="midnightblue" stroke="midnightblue" points="416.996,-286.386 406.72,-288.967 416.363,-293.357 416.996,-286.386"/>
</g>
<!-- Node4 -->
<g id="node4" class="node"><title>Node4</title>
<polygon fill="none" stroke="#bfbfbf" points="0,-210.5 0,-229.5 44,-229.5 44,-210.5 0,-210.5"/>
<text text-anchor="middle" x="22" y="-217.5" font-family="Helvetica,sans-Serif" font-size="10.00">vector</text>
</g>
<!-- Node1&#45;&gt;Node4 -->
<g id="edge46" class="edge"><title>Node1&#45;&gt;Node4</title>
<path fill="none" stroke="midnightblue" d="M1096.89,-358.027C936.897,-355.012 569.801,-342.653 266,-292 169.449,-275.902 144.819,-269.92 53,-236 51.1492,-235.316 49.2605,-234.56 47.3743,-233.76"/>
<polygon fill="midnightblue" stroke="midnightblue" points="48.7026,-230.519 38.1526,-229.546 45.7929,-236.886 48.7026,-230.519"/>
</g>
<!-- Node8 -->
<g id="node8" class="node"><title>Node8</title>
<polygon fill="none" stroke="#bfbfbf" points="907,-74.5 907,-93.5 963,-93.5 963,-74.5 907,-74.5"/>
<text text-anchor="middle" x="935" y="-81.5" font-family="Helvetica,sans-Serif" font-size="10.00">Rtypes.h</text>
</g>
<!-- Node1&#45;&gt;Node8 -->
<g id="edge41" class="edge"><title>Node1&#45;&gt;Node8</title>
<path fill="none" stroke="midnightblue" d="M1141.3,-328.488C1129.74,-317.73 1117.52,-305.046 1108,-292 1062.54,-229.696 1085.69,-191.366 1032,-136 1021.83,-125.51 988.938,-109.246 964.257,-97.9149"/>
<polygon fill="midnightblue" stroke="midnightblue" points="965.487,-94.6298 954.934,-93.6881 962.596,-101.005 965.487,-94.6298"/>
</g>
<!-- Node13 -->
<g id="node13" class="node"><title>Node13</title>
<g id="a_node13"><a xlink:href="../../d6/d31/DetID_8h.html" target="_top" xlink:title="DetectorsBase/DetID.h">
<polygon fill="none" stroke="black" points="818.5,-272.5 818.5,-291.5 937.5,-291.5 937.5,-272.5 818.5,-272.5"/>
<text text-anchor="middle" x="878" y="-279.5" font-family="Helvetica,sans-Serif" font-size="10.00">DetectorsBase/DetID.h</text>
</a>
</g>
</g>
<!-- Node1&#45;&gt;Node13 -->
<g id="edge12" class="edge"><title>Node1&#45;&gt;Node13</title>
<path fill="none" stroke="midnightblue" d="M1096.82,-338.433C1040.35,-324.129 967.277,-305.617 921.512,-294.023"/>
<polygon fill="midnightblue" stroke="midnightblue" points="922.169,-290.579 911.615,-291.516 920.449,-297.365 922.169,-290.579"/>
</g>
<!-- Node20 -->
<g id="node20" class="node"><title>Node20</title>
<g id="a_node20"><a xlink:href="../../d0/dae/ITSMFT_2common_2simulation_2include_2ITSMFTSimulation_2Hit_8h.html" target="_top" xlink:title="ITSMFTSimulation/Hit.h">
<polygon fill="none" stroke="black" points="1117,-272.5 1117,-291.5 1239,-291.5 1239,-272.5 1117,-272.5"/>
<text text-anchor="middle" x="1178" y="-279.5" font-family="Helvetica,sans-Serif" font-size="10.00">ITSMFTSimulation/Hit.h</text>
</a>
</g>
</g>
<!-- Node1&#45;&gt;Node20 -->
<g id="edge22" class="edge"><title>Node1&#45;&gt;Node20</title>
<path fill="none" stroke="midnightblue" d="M1178,-328.088C1178,-319.15 1178,-309.669 1178,-301.719"/>
<polygon fill="midnightblue" stroke="midnightblue" points="1181.5,-301.718 1178,-291.718 1174.5,-301.718 1181.5,-301.718"/>
</g>
<!-- Node34 -->
<g id="node34" class="node"><title>Node34</title>
<polygon fill="none" stroke="#bfbfbf" points="1448.5,-210.5 1448.5,-229.5 1513.5,-229.5 1513.5,-210.5 1448.5,-210.5"/>
<text text-anchor="middle" x="1481" y="-217.5" font-family="Helvetica,sans-Serif" font-size="10.00">TVector3.h</text>
</g>
<!-- Node1&#45;&gt;Node34 -->
<g id="edge45" class="edge"><title>Node1&#45;&gt;Node34</title>
<path fill="none" stroke="midnightblue" d="M1208.49,-328.283C1228.83,-309.444 1257.07,-286.276 1286,-272 1346.71,-242.046 1368.83,-254.302 1434,-236 1437.79,-234.936 1441.73,-233.771 1445.65,-232.576"/>
<polygon fill="midnightblue" stroke="midnightblue" points="1446.74,-235.902 1455.24,-229.581 1444.65,-229.22 1446.74,-235.902"/>
</g>
<!-- Node35 -->
<g id="node35" class="node"><title>Node35</title>
<polygon fill="none" stroke="#bfbfbf" points="1295,-272.5 1295,-291.5 1357,-291.5 1357,-272.5 1295,-272.5"/>
<text text-anchor="middle" x="1326" y="-279.5" font-family="Helvetica,sans-Serif" font-size="10.00">TArrayD.h</text>
</g>
<!-- Node1&#45;&gt;Node35 -->
<g id="edge42" class="edge"><title>Node1&#45;&gt;Node35</title>
<path fill="none" stroke="midnightblue" d="M1237.77,-328.307C1259.57,-317.114 1283.07,-305.043 1300.34,-296.177"/>
<polygon fill="midnightblue" stroke="midnightblue" points="1301.94,-299.288 1309.24,-291.607 1298.75,-293.061 1301.94,-299.288"/>
</g>
<!-- Node36 -->
<g id="node36" class="node"><title>Node36</title>
<polygon fill="none" stroke="#bfbfbf" points="1375,-272.5 1375,-291.5 1461,-291.5 1461,-272.5 1375,-272.5"/>
<text text-anchor="middle" x="1418" y="-279.5" font-family="Helvetica,sans-Serif" font-size="10.00">TGeoManager.h</text>
</g>
<!-- Node1&#45;&gt;Node36 -->
<g id="edge43" class="edge"><title>Node1&#45;&gt;Node36</title>
<path fill="none" stroke="midnightblue" d="M1259.25,-333.27C1300.61,-320.175 1348.84,-304.902 1381.19,-294.658"/>
<polygon fill="midnightblue" stroke="midnightblue" points="1382.63,-297.873 1391.1,-291.518 1380.51,-291.2 1382.63,-297.873"/>
</g>
<!-- Node37 -->
<g id="node37" class="node"><title>Node37</title>
<polygon fill="none" stroke="#bfbfbf" points="1479,-272.5 1479,-291.5 1571,-291.5 1571,-272.5 1479,-272.5"/>
<text text-anchor="middle" x="1525" y="-279.5" font-family="Helvetica,sans-Serif" font-size="10.00">TLorentzVector.h</text>
</g>
<!-- Node1&#45;&gt;Node37 -->
<g id="edge44" class="edge"><title>Node1&#45;&gt;Node37</title>
<path fill="none" stroke="midnightblue" d="M1259.36,-341.181C1326.49,-326.478 1419.56,-306.095 1475.84,-293.767"/>
<polygon fill="midnightblue" stroke="midnightblue" points="1476.89,-297.121 1485.91,-291.562 1475.39,-290.283 1476.89,-297.121"/>
</g>
<!-- Node3 -->
<g id="node3" class="node"><title>Node3</title>
<polygon fill="none" stroke="#bfbfbf" points="261.5,-210.5 261.5,-229.5 296.5,-229.5 296.5,-210.5 261.5,-210.5"/>
<text text-anchor="middle" x="279" y="-217.5" font-family="Helvetica,sans-Serif" font-size="10.00">map</text>
</g>
<!-- Node2&#45;&gt;Node3 -->
<g id="edge2" class="edge"><title>Node2&#45;&gt;Node3</title>
<path fill="none" stroke="midnightblue" d="M332.117,-272.403C322.541,-263.136 307.089,-248.183 295.314,-236.788"/>
<polygon fill="midnightblue" stroke="midnightblue" points="297.487,-234.02 287.867,-229.581 292.619,-239.05 297.487,-234.02"/>
</g>
<!-- Node2&#45;&gt;Node4 -->
<g id="edge3" class="edge"><title>Node2&#45;&gt;Node4</title>
<path fill="none" stroke="midnightblue" d="M275.411,-276.303C216.209,-270.768 127.267,-259.204 53,-236 50.8671,-235.334 48.6962,-234.542 46.5439,-233.676"/>
<polygon fill="midnightblue" stroke="midnightblue" points="47.9579,-230.474 37.4025,-229.561 45.0844,-236.857 47.9579,-230.474"/>
</g>
<!-- Node5 -->
<g id="node5" class="node"><title>Node5</title>
<polygon fill="none" stroke="#bfbfbf" points="315,-210.5 315,-229.5 367,-229.5 367,-210.5 315,-210.5"/>
<text text-anchor="middle" x="341" y="-217.5" font-family="Helvetica,sans-Serif" font-size="10.00">memory</text>
</g>
<!-- Node2&#45;&gt;Node5 -->
<g id="edge4" class="edge"><title>Node2&#45;&gt;Node5</title>
<path fill="none" stroke="midnightblue" d="M341,-272.403C341,-263.938 341,-250.728 341,-239.82"/>
<polygon fill="midnightblue" stroke="midnightblue" points="344.5,-239.581 341,-229.581 337.5,-239.581 344.5,-239.581"/>
</g>
<!-- Node6 -->
<g id="node6" class="node"><title>Node6</title>
<polygon fill="none" stroke="#bfbfbf" points="385.5,-210.5 385.5,-229.5 464.5,-229.5 464.5,-210.5 385.5,-210.5"/>
<text text-anchor="middle" x="425" y="-217.5" font-family="Helvetica,sans-Serif" font-size="10.00">FairDetector.h</text>
</g>
<!-- Node2&#45;&gt;Node6 -->
<g id="edge5" class="edge"><title>Node2&#45;&gt;Node6</title>
<path fill="none" stroke="midnightblue" d="M353.035,-272.403C366.508,-262.78 388.566,-247.024 404.715,-235.489"/>
<polygon fill="midnightblue" stroke="midnightblue" points="406.884,-238.241 412.987,-229.581 402.815,-232.545 406.884,-238.241"/>
</g>
<!-- Node7 -->
<g id="node7" class="node"><title>Node7</title>
<polygon fill="none" stroke="#bfbfbf" points="483,-210.5 483,-229.5 583,-229.5 583,-210.5 483,-210.5"/>
<text text-anchor="middle" x="533" y="-217.5" font-family="Helvetica,sans-Serif" font-size="10.00">FairRootManager.h</text>
</g>
<!-- Node2&#45;&gt;Node7 -->
<g id="edge6" class="edge"><title>Node2&#45;&gt;Node7</title>
<path fill="none" stroke="midnightblue" d="M368.509,-272.403C401.871,-261.978 458.262,-244.356 495.563,-232.699"/>
<polygon fill="midnightblue" stroke="midnightblue" points="497.041,-235.904 505.542,-229.581 494.953,-229.223 497.041,-235.904"/>
</g>
<!-- Node2&#45;&gt;Node8 -->
<g id="edge7" class="edge"><title>Node2&#45;&gt;Node8</title>
<path fill="none" stroke="midnightblue" d="M406.718,-278.505C459.067,-274.375 533.083,-263.64 592,-236 611.989,-226.623 612.198,-217.062 630,-204 675.429,-170.667 685.304,-158.414 737,-136 790.178,-112.943 856.072,-98.5508 896.825,-91.1501"/>
<polygon fill="midnightblue" stroke="midnightblue" points="897.633,-94.5617 906.872,-89.3753 896.415,-87.6684 897.633,-94.5617"/>
</g>
<!-- Node9 -->
<g id="node9" class="node"><title>Node9</title>
<polygon fill="none" stroke="#bfbfbf" points="62.5,-210.5 62.5,-229.5 115.5,-229.5 115.5,-210.5 62.5,-210.5"/>
<text text-anchor="middle" x="89" y="-217.5" font-family="Helvetica,sans-Serif" font-size="10.00">cxxabi.h</text>
</g>
<!-- Node2&#45;&gt;Node9 -->
<g id="edge8" class="edge"><title>Node2&#45;&gt;Node9</title>
<path fill="none" stroke="midnightblue" d="M284.461,-272.472C240.2,-265.034 177.403,-252.794 124,-236 121.572,-235.236 119.083,-234.363 116.605,-233.431"/>
<polygon fill="midnightblue" stroke="midnightblue" points="117.848,-230.158 107.266,-229.646 115.22,-236.646 117.848,-230.158"/>
</g>
<!-- Node10 -->
<g id="node10" class="node"><title>Node10</title>
<polygon fill="none" stroke="#bfbfbf" points="133.5,-210.5 133.5,-229.5 184.5,-229.5 184.5,-210.5 133.5,-210.5"/>
<text text-anchor="middle" x="159" y="-217.5" font-family="Helvetica,sans-Serif" font-size="10.00">typeinfo</text>
</g>
<!-- Node2&#45;&gt;Node10 -->
<g id="edge9" class="edge"><title>Node2&#45;&gt;Node10</title>
<path fill="none" stroke="midnightblue" d="M308.874,-272.437C278.644,-264.097 232.278,-250.575 193,-236 190.887,-235.216 188.717,-234.366 186.546,-233.484"/>
<polygon fill="midnightblue" stroke="midnightblue" points="187.757,-230.196 177.185,-229.505 185.019,-236.638 187.757,-230.196"/>
</g>
<!-- Node11 -->
<g id="node11" class="node"><title>Node11</title>
<polygon fill="none" stroke="#bfbfbf" points="639,-210.5 639,-229.5 701,-229.5 701,-210.5 639,-210.5"/>
<text text-anchor="middle" x="670" y="-217.5" font-family="Helvetica,sans-Serif" font-size="10.00">type_traits</text>
</g>
<!-- Node2&#45;&gt;Node11 -->
<g id="edge10" class="edge"><title>Node2&#45;&gt;Node11</title>
<path fill="none" stroke="midnightblue" d="M406.747,-273.699C464.702,-266.527 551.164,-254.026 625,-236 628.938,-235.039 633.024,-233.893 637.058,-232.668"/>
<polygon fill="midnightblue" stroke="midnightblue" points="638.404,-235.912 646.857,-229.524 636.266,-229.247 638.404,-235.912"/>
</g>
<!-- Node12 -->
<g id="node12" class="node"><title>Node12</title>
<polygon fill="none" stroke="#bfbfbf" points="202.5,-210.5 202.5,-229.5 243.5,-229.5 243.5,-210.5 202.5,-210.5"/>
<text text-anchor="middle" x="223" y="-217.5" font-family="Helvetica,sans-Serif" font-size="10.00">string</text>
</g>
<!-- Node2&#45;&gt;Node12 -->
<g id="edge11" class="edge"><title>Node2&#45;&gt;Node12</title>
<path fill="none" stroke="midnightblue" d="M323.914,-272.42C305.98,-263.399 276.973,-248.771 252,-236 250.865,-235.419 249.705,-234.825 248.533,-234.223"/>
<polygon fill="midnightblue" stroke="midnightblue" points="250.041,-231.063 239.549,-229.593 246.835,-237.286 250.041,-231.063"/>
</g>
<!-- Node13&#45;&gt;Node8 -->
<g id="edge16" class="edge"><title>Node13&#45;&gt;Node8</title>
<path fill="none" stroke="midnightblue" d="M937.757,-275.874C964.343,-270.284 993.346,-258.915 1010,-236 1036.13,-200.046 1031.91,-175.219 1011,-136 1001.81,-118.77 983.934,-106.331 967.825,-98.0524"/>
<polygon fill="midnightblue" stroke="midnightblue" points="969.156,-94.8091 958.624,-93.6543 966.137,-101.125 969.156,-94.8091"/>
</g>
<!-- Node13&#45;&gt;Node11 -->
<g id="edge15" class="edge"><title>Node13&#45;&gt;Node11</title>
<path fill="none" stroke="midnightblue" d="M841.985,-272.428C807.765,-264.032 754.999,-250.426 710,-236 707.219,-235.108 704.347,-234.136 701.479,-233.129"/>
<polygon fill="midnightblue" stroke="midnightblue" points="702.466,-229.765 691.872,-229.639 700.076,-236.344 702.466,-229.765"/>
</g>
<!-- Node14 -->
<g id="node14" class="node"><title>Node14</title>
<polygon fill="none" stroke="#bfbfbf" points="719,-210.5 719,-229.5 765,-229.5 765,-210.5 719,-210.5"/>
<text text-anchor="middle" x="742" y="-217.5" font-family="Helvetica,sans-Serif" font-size="10.00">cstdint</text>
</g>
<!-- Node13&#45;&gt;Node14 -->
<g id="edge13" class="edge"><title>Node13&#45;&gt;Node14</title>
<path fill="none" stroke="midnightblue" d="M858.515,-272.403C835.59,-262.29 797.315,-245.404 770.925,-233.761"/>
<polygon fill="midnightblue" stroke="midnightblue" points="772.011,-230.415 761.449,-229.581 769.186,-236.819 772.011,-230.415"/>
</g>
<!-- Node15 -->
<g id="node15" class="node"><title>Node15</title>
<polygon fill="none" stroke="#bfbfbf" points="746,-142.5 746,-161.5 784,-161.5 784,-142.5 746,-142.5"/>
<text text-anchor="middle" x="765" y="-149.5" font-family="Helvetica,sans-Serif" font-size="10.00">array</text>
</g>
<!-- Node13&#45;&gt;Node15 -->
<g id="edge14" class="edge"><title>Node13&#45;&gt;Node15</title>
<path fill="none" stroke="midnightblue" d="M861.239,-272.434C846.864,-264.468 826.273,-251.512 812,-236 794.004,-216.441 780.099,-188.783 772.229,-170.868"/>
<polygon fill="midnightblue" stroke="midnightblue" points="775.422,-169.432 768.307,-161.582 768.973,-172.156 775.422,-169.432"/>
</g>
<!-- Node16 -->
<g id="node16" class="node"><title>Node16</title>
<g id="a_node16"><a xlink:href="../../d9/ded/Utils_8h.html" target="_top" xlink:title="DetectorsBase/Utils.h">
<polygon fill="none" stroke="black" points="821.5,-210.5 821.5,-229.5 934.5,-229.5 934.5,-210.5 821.5,-210.5"/>
<text text-anchor="middle" x="878" y="-217.5" font-family="Helvetica,sans-Serif" font-size="10.00">DetectorsBase/Utils.h</text>
</a>
</g>
</g>
<!-- Node13&#45;&gt;Node16 -->
<g id="edge17" class="edge"><title>Node13&#45;&gt;Node16</title>
<path fill="none" stroke="midnightblue" d="M878,-272.403C878,-263.938 878,-250.728 878,-239.82"/>
<polygon fill="midnightblue" stroke="midnightblue" points="881.5,-239.581 878,-229.581 874.5,-239.581 881.5,-239.581"/>
</g>
<!-- Node19 -->
<g id="node19" class="node"><title>Node19</title>
<polygon fill="none" stroke="#bfbfbf" points="952.5,-210.5 952.5,-229.5 1001.5,-229.5 1001.5,-210.5 952.5,-210.5"/>
<text text-anchor="middle" x="977" y="-217.5" font-family="Helvetica,sans-Serif" font-size="10.00">cassert</text>
</g>
<!-- Node13&#45;&gt;Node19 -->
<g id="edge21" class="edge"><title>Node13&#45;&gt;Node19</title>
<path fill="none" stroke="midnightblue" d="M892.184,-272.403C908.358,-262.601 935.026,-246.439 954.143,-234.853"/>
<polygon fill="midnightblue" stroke="midnightblue" points="956.104,-237.757 962.842,-229.581 952.476,-231.77 956.104,-237.757"/>
</g>
<!-- Node16&#45;&gt;Node15 -->
<g id="edge20" class="edge"><title>Node16&#45;&gt;Node15</title>
<path fill="none" stroke="midnightblue" d="M863.227,-210.372C844.278,-199.304 811.18,-179.972 788.692,-166.838"/>
<polygon fill="midnightblue" stroke="midnightblue" points="790.177,-163.652 779.776,-161.63 786.646,-169.696 790.177,-163.652"/>
</g>
<!-- Node17 -->
<g id="node17" class="node"><title>Node17</title>
<g id="a_node17"><a xlink:href="../../d1/daa/Base_2include_2DetectorsBase_2Constants_8h.html" target="_top" xlink:title="DetectorsBase/Constants.h">
<polygon fill="none" stroke="black" points="864,-142.5 864,-161.5 1002,-161.5 1002,-142.5 864,-142.5"/>
<text text-anchor="middle" x="933" y="-149.5" font-family="Helvetica,sans-Serif" font-size="10.00">DetectorsBase/Constants.h</text>
</a>
</g>
</g>
<!-- Node16&#45;&gt;Node17 -->
<g id="edge18" class="edge"><title>Node16&#45;&gt;Node17</title>
<path fill="none" stroke="midnightblue" d="M885.19,-210.372C893.789,-200.053 908.374,-182.551 919.179,-169.585"/>
<polygon fill="midnightblue" stroke="midnightblue" points="921.919,-171.764 925.632,-161.841 916.542,-167.283 921.919,-171.764"/>
</g>
<!-- Node18 -->
<g id="node18" class="node"><title>Node18</title>
<polygon fill="none" stroke="#bfbfbf" points="802,-142.5 802,-161.5 846,-161.5 846,-142.5 802,-142.5"/>
<text text-anchor="middle" x="824" y="-149.5" font-family="Helvetica,sans-Serif" font-size="10.00">cmath</text>
</g>
<!-- Node16&#45;&gt;Node18 -->
<g id="edge19" class="edge"><title>Node16&#45;&gt;Node18</title>
<path fill="none" stroke="midnightblue" d="M870.94,-210.372C862.498,-200.053 848.178,-182.551 837.57,-169.585"/>
<polygon fill="midnightblue" stroke="midnightblue" points="840.275,-167.364 831.234,-161.841 834.857,-171.797 840.275,-167.364"/>
</g>
<!-- Node20&#45;&gt;Node8 -->
<g id="edge38" class="edge"><title>Node20&#45;&gt;Node8</title>
<path fill="none" stroke="midnightblue" d="M1185.26,-272.314C1204.81,-247.831 1254.77,-177.356 1219,-136 1182.72,-94.0444 1025.53,-114.525 972,-100 969.019,-99.1912 965.955,-98.2094 962.926,-97.1395"/>
<polygon fill="midnightblue" stroke="midnightblue" points="964.112,-93.8455 953.522,-93.5247 961.6,-100.379 964.112,-93.8455"/>
</g>
<!-- Node21 -->
<g id="node21" class="node"><title>Node21</title>
<g id="a_node21"><a xlink:href="../../d4/d25/BaseHits_8h.html" target="_top" xlink:title="SimulationDataFormat\l/BaseHits.h">
<polygon fill="none" stroke="black" points="1269,-205 1269,-235 1383,-235 1383,-205 1269,-205"/>
<text text-anchor="start" x="1277" y="-223" font-family="Helvetica,sans-Serif" font-size="10.00">SimulationDataFormat</text>
<text text-anchor="middle" x="1326" y="-212" font-family="Helvetica,sans-Serif" font-size="10.00">/BaseHits.h</text>
</a>
</g>
</g>
<!-- Node20&#45;&gt;Node21 -->
<g id="edge23" class="edge"><title>Node20&#45;&gt;Node21</title>
<path fill="none" stroke="midnightblue" d="M1199.2,-272.403C1220.73,-263.679 1254.68,-249.914 1282.03,-238.824"/>
<polygon fill="midnightblue" stroke="midnightblue" points="1283.45,-242.026 1291.4,-235.025 1280.82,-235.539 1283.45,-242.026"/>
</g>
<!-- Node32 -->
<g id="node32" class="node"><title>Node32</title>
<polygon fill="none" stroke="#bfbfbf" points="2101,-74.5 2101,-93.5 2155,-93.5 2155,-74.5 2101,-74.5"/>
<text text-anchor="middle" x="2128" y="-81.5" font-family="Helvetica,sans-Serif" font-size="10.00">iostream</text>
</g>
<!-- Node20&#45;&gt;Node32 -->
<g id="edge40" class="edge"><title>Node20&#45;&gt;Node32</title>
<path fill="none" stroke="midnightblue" d="M1229.44,-272.497C1283.06,-263.225 1363.21,-248.092 1392,-236 1415.64,-226.071 1416.12,-213.345 1440,-204 1713.25,-97.0424 1809.7,-180.102 2092,-100 2094.66,-99.2463 2097.38,-98.352 2100.08,-97.3811"/>
<polygon fill="midnightblue" stroke="midnightblue" points="2101.58,-100.552 2109.61,-93.6434 2099.03,-94.0354 2101.58,-100.552"/>
</g>
<!-- Node33 -->
<g id="node33" class="node"><title>Node33</title>
<g id="a_node33"><a xlink:href="../../d7/dcd/MCCompLabel_8h.html" target="_top" xlink:title="SimulationDataFormat\l/MCCompLabel.h">
<polygon fill="none" stroke="black" points="1096,-137 1096,-167 1210,-167 1210,-137 1096,-137"/>
<text text-anchor="start" x="1104" y="-155" font-family="Helvetica,sans-Serif" font-size="10.00">SimulationDataFormat</text>
<text text-anchor="middle" x="1153" y="-144" font-family="Helvetica,sans-Serif" font-size="10.00">/MCCompLabel.h</text>
</a>
</g>
</g>
<!-- Node20&#45;&gt;Node33 -->
<g id="edge36" class="edge"><title>Node20&#45;&gt;Node33</title>
<path fill="none" stroke="midnightblue" d="M1176.28,-272.202C1172.51,-252.87 1163.37,-206.114 1157.73,-177.239"/>
<polygon fill="midnightblue" stroke="midnightblue" points="1161.11,-176.287 1155.76,-167.143 1154.24,-177.629 1161.11,-176.287"/>
</g>
<!-- Node20&#45;&gt;Node34 -->
<g id="edge39" class="edge"><title>Node20&#45;&gt;Node34</title>
<path fill="none" stroke="midnightblue" d="M1239.26,-272.607C1291.43,-264.896 1368.17,-252.213 1434,-236 1438.12,-234.986 1442.4,-233.804 1446.63,-232.555"/>
<polygon fill="midnightblue" stroke="midnightblue" points="1447.77,-235.865 1456.3,-229.573 1445.71,-229.176 1447.77,-235.865"/>
</g>
<!-- Node22 -->
<g id="node22" class="node"><title>Node22</title>
<g id="a_node22"><a xlink:href="../../dd/d76/Cartesian3D_8h.html" target="_top" xlink:title="MathUtils/Cartesian3D.h">
<polygon fill="none" stroke="black" points="1266.5,-142.5 1266.5,-161.5 1391.5,-161.5 1391.5,-142.5 1266.5,-142.5"/>
<text text-anchor="middle" x="1329" y="-149.5" font-family="Helvetica,sans-Serif" font-size="10.00">MathUtils/Cartesian3D.h</text>
</a>
</g>
</g>
<!-- Node21&#45;&gt;Node22 -->
<g id="edge24" class="edge"><title>Node21&#45;&gt;Node22</title>
<path fill="none" stroke="midnightblue" d="M1326.65,-204.679C1327.09,-195.101 1327.66,-182.394 1328.14,-171.977"/>
<polygon fill="midnightblue" stroke="midnightblue" points="1331.64,-171.977 1328.6,-161.828 1324.65,-171.659 1331.64,-171.977"/>
</g>
<!-- Node22&#45;&gt;Node8 -->
<g id="edge28" class="edge"><title>Node22&#45;&gt;Node8</title>
<path fill="none" stroke="midnightblue" d="M1287.93,-142.49C1276.34,-140.227 1263.7,-137.889 1252,-136 1128.14,-115.994 1093.36,-131.833 972,-100 969.012,-99.2163 965.944,-98.251 962.913,-97.1909"/>
<polygon fill="midnightblue" stroke="midnightblue" points="964.095,-93.8959 953.505,-93.5887 961.592,-100.433 964.095,-93.8959"/>
</g>
<!-- Node23 -->
<g id="node23" class="node"><title>Node23</title>
<polygon fill="none" stroke="#bfbfbf" points="1759.5,-74.5 1759.5,-93.5 1908.5,-93.5 1908.5,-74.5 1759.5,-74.5"/>
<text text-anchor="middle" x="1834" y="-81.5" font-family="Helvetica,sans-Serif" font-size="10.00">Math/GenVector/Rotation3D.h</text>
</g>
<!-- Node22&#45;&gt;Node23 -->
<g id="edge25" class="edge"><title>Node22&#45;&gt;Node23</title>
<path fill="none" stroke="midnightblue" d="M1369.25,-142.465C1381.05,-140.15 1394.01,-137.791 1406,-136 1558.04,-113.281 1597.79,-121.526 1750,-100 1759.58,-98.6452 1769.74,-97.0053 1779.56,-95.314"/>
<polygon fill="midnightblue" stroke="midnightblue" points="1780.39,-98.7221 1789.63,-93.5427 1779.18,-91.8279 1780.39,-98.7221"/>
</g>
<!-- Node24 -->
<g id="node24" class="node"><title>Node24</title>
<polygon fill="none" stroke="#bfbfbf" points="1927,-74.5 1927,-93.5 2083,-93.5 2083,-74.5 1927,-74.5"/>
<text text-anchor="middle" x="2005" y="-81.5" font-family="Helvetica,sans-Serif" font-size="10.00">Math/GenVector/Transform3D.h</text>
</g>
<!-- Node22&#45;&gt;Node24 -->
<g id="edge26" class="edge"><title>Node22&#45;&gt;Node24</title>
<path fill="none" stroke="midnightblue" d="M1368.02,-142.44C1380.14,-140.04 1393.58,-137.641 1406,-136 1631.71,-106.178 1690.95,-127.161 1917,-100 1927.61,-98.725 1938.89,-97.0484 1949.71,-95.2792"/>
<polygon fill="midnightblue" stroke="midnightblue" points="1950.62,-98.6748 1959.9,-93.5645 1949.46,-91.7718 1950.62,-98.6748"/>
</g>
<!-- Node25 -->
<g id="node25" class="node"><title>Node25</title>
<polygon fill="none" stroke="#bfbfbf" points="981,-74.5 981,-93.5 1141,-93.5 1141,-74.5 981,-74.5"/>
<text text-anchor="middle" x="1061" y="-81.5" font-family="Helvetica,sans-Serif" font-size="10.00">Math/GenVector/Translation3D.h</text>
</g>
<!-- Node22&#45;&gt;Node25 -->
<g id="edge27" class="edge"><title>Node22&#45;&gt;Node25</title>
<path fill="none" stroke="midnightblue" d="M1294.24,-142.439C1245.94,-130.545 1158.51,-109.013 1105.5,-95.959"/>
<polygon fill="midnightblue" stroke="midnightblue" points="1106.25,-92.5384 1095.7,-93.5455 1104.57,-99.3353 1106.25,-92.5384"/>
</g>
<!-- Node26 -->
<g id="node26" class="node"><title>Node26</title>
<polygon fill="none" stroke="#bfbfbf" points="1159,-74.5 1159,-93.5 1235,-93.5 1235,-74.5 1159,-74.5"/>
<text text-anchor="middle" x="1197" y="-81.5" font-family="Helvetica,sans-Serif" font-size="10.00">TGeoMatrix.h</text>
</g>
<!-- Node22&#45;&gt;Node26 -->
<g id="edge29" class="edge"><title>Node22&#45;&gt;Node26</title>
<path fill="none" stroke="midnightblue" d="M1311.74,-142.372C1289.21,-131.106 1249.56,-111.279 1223.28,-98.1403"/>
<polygon fill="midnightblue" stroke="midnightblue" points="1224.77,-94.9722 1214.26,-93.6305 1221.64,-101.233 1224.77,-94.9722"/>
</g>
<!-- Node27 -->
<g id="node27" class="node"><title>Node27</title>
<polygon fill="none" stroke="#bfbfbf" points="1253.5,-69 1253.5,-99 1404.5,-99 1404.5,-69 1253.5,-69"/>
<text text-anchor="start" x="1261.5" y="-87" font-family="Helvetica,sans-Serif" font-size="10.00">Math/GenVector/Displacement</text>
<text text-anchor="middle" x="1329" y="-76" font-family="Helvetica,sans-Serif" font-size="10.00">Vector3D.h</text>
</g>
<!-- Node22&#45;&gt;Node27 -->
<g id="edge30" class="edge"><title>Node22&#45;&gt;Node27</title>
<path fill="none" stroke="midnightblue" d="M1329,-142.372C1329,-133.971 1329,-120.811 1329,-109.213"/>
<polygon fill="midnightblue" stroke="midnightblue" points="1332.5,-109.181 1329,-99.1815 1325.5,-109.181 1332.5,-109.181"/>
</g>
<!-- Node28 -->
<g id="node28" class="node"><title>Node28</title>
<polygon fill="none" stroke="#bfbfbf" points="1423,-74.5 1423,-93.5 1599,-93.5 1599,-74.5 1423,-74.5"/>
<text text-anchor="middle" x="1511" y="-81.5" font-family="Helvetica,sans-Serif" font-size="10.00">Math/GenVector/PositionVector3D.h</text>
</g>
<!-- Node22&#45;&gt;Node28 -->
<g id="edge31" class="edge"><title>Node22&#45;&gt;Node28</title>
<path fill="none" stroke="midnightblue" d="M1352.79,-142.372C1384.76,-130.778 1441.74,-110.116 1477.89,-97.0087"/>
<polygon fill="midnightblue" stroke="midnightblue" points="1479.28,-100.225 1487.49,-93.5259 1476.9,-93.6447 1479.28,-100.225"/>
</g>
<!-- Node29 -->
<g id="node29" class="node"><title>Node29</title>
<g id="a_node29"><a xlink:href="../../d2/dd0/Cartesian2D_8h.html" target="_top" xlink:title="MathUtils/Cartesian2D.h">
<polygon fill="none" stroke="black" points="1616.5,-74.5 1616.5,-93.5 1741.5,-93.5 1741.5,-74.5 1616.5,-74.5"/>
<text text-anchor="middle" x="1679" y="-81.5" font-family="Helvetica,sans-Serif" font-size="10.00">MathUtils/Cartesian2D.h</text>
</a>
</g>
</g>
<!-- Node22&#45;&gt;Node29 -->
<g id="edge32" class="edge"><title>Node22&#45;&gt;Node29</title>
<path fill="none" stroke="midnightblue" d="M1372.15,-142.475C1383.18,-140.329 1395.02,-138.052 1406,-136 1495.21,-119.323 1517.9,-117.257 1607,-100 1614.15,-98.6146 1621.69,-97.1016 1629.1,-95.5866"/>
<polygon fill="midnightblue" stroke="midnightblue" points="1629.97,-98.9808 1639.05,-93.5313 1628.55,-92.1253 1629.97,-98.9808"/>
</g>
<!-- Node22&#45;&gt;Node32 -->
<g id="edge35" class="edge"><title>Node22&#45;&gt;Node32</title>
<path fill="none" stroke="midnightblue" d="M1367.21,-142.46C1379.54,-140.001 1393.29,-137.563 1406,-136 1709.02,-98.7196 1794.29,-167.703 2092,-100 2095.07,-99.3018 2098.21,-98.3624 2101.3,-97.2924"/>
<polygon fill="midnightblue" stroke="midnightblue" points="2102.78,-100.47 2110.82,-93.5648 2100.23,-93.9524 2102.78,-100.47"/>
</g>
<!-- Node30 -->
<g id="node30" class="node"><title>Node30</title>
<polygon fill="none" stroke="#bfbfbf" points="1512.5,-1 1512.5,-31 1663.5,-31 1663.5,-1 1512.5,-1"/>
<text text-anchor="start" x="1520.5" y="-19" font-family="Helvetica,sans-Serif" font-size="10.00">Math/GenVector/Displacement</text>
<text text-anchor="middle" x="1588" y="-8" font-family="Helvetica,sans-Serif" font-size="10.00">Vector2D.h</text>
</g>
<!-- Node29&#45;&gt;Node30 -->
<g id="edge33" class="edge"><title>Node29&#45;&gt;Node30</title>
<path fill="none" stroke="midnightblue" d="M1667.1,-74.3717C1654.22,-65.0286 1633.22,-49.7966 1616.09,-37.375"/>
<polygon fill="midnightblue" stroke="midnightblue" points="1617.7,-34.2194 1607.55,-31.1815 1613.59,-39.8859 1617.7,-34.2194"/>
</g>
<!-- Node31 -->
<g id="node31" class="node"><title>Node31</title>
<polygon fill="none" stroke="#bfbfbf" points="1682,-6.5 1682,-25.5 1858,-25.5 1858,-6.5 1682,-6.5"/>
<text text-anchor="middle" x="1770" y="-13.5" font-family="Helvetica,sans-Serif" font-size="10.00">Math/GenVector/PositionVector2D.h</text>
</g>
<!-- Node29&#45;&gt;Node31 -->
<g id="edge34" class="edge"><title>Node29&#45;&gt;Node31</title>
<path fill="none" stroke="midnightblue" d="M1690.9,-74.3717C1705.88,-63.5015 1731.86,-44.6602 1749.94,-31.5474"/>
<polygon fill="midnightblue" stroke="midnightblue" points="1752.06,-34.3349 1758.1,-25.6305 1747.95,-28.6684 1752.06,-34.3349"/>
</g>
<!-- Node33&#45;&gt;Node8 -->
<g id="edge37" class="edge"><title>Node33&#45;&gt;Node8</title>
<path fill="none" stroke="midnightblue" d="M1097.06,-136.948C1061.04,-127.481 1013.39,-114.172 972,-100 969.445,-99.125 966.81,-98.1688 964.179,-97.1764"/>
<polygon fill="midnightblue" stroke="midnightblue" points="965.405,-93.8979 954.818,-93.5042 962.849,-100.414 965.405,-93.8979"/>
</g>
</g>
</svg>
        <g id="navigator" transform="translate(0 0)" fill="#404254">
                <rect fill="#f2f5e9" fill-opacity="0.5" stroke="#606060" stroke-width=".5" x="0" y="0" width="60" height="60"/>
                <use id="zoomplus" xlink:href="#zoomPlus" x="17" y="9" onmousedown="handleZoom(evt,'in')"/>
                <use id="zoomminus" xlink:href="#zoomMin" x="42" y="9" onmousedown="handleZoom(evt,'out')"/>
                <use id="reset" xlink:href="#resetDef" x="30" y="36" onmousedown="handleReset()"/>
                <g id="arrowUp" xlink:href="#dirArrow" transform="translate(30 24)" onmousedown="handlePan(0,-1)">
                  <use xlink:href="#rim" fill="#404040">
                        <set attributeName="fill" to="#808080" begin="arrowUp.mouseover" end="arrowUp.mouseout"/>
                  </use>
                  <path fill="none" stroke="white" stroke-width="1.5" d="M0,-3.0v7 M-2.5,-0.5L0,-3.0L2.5,-0.5"/>
                </g>
                <g id="arrowRight" xlink:href="#dirArrow" transform="rotate(90) translate(36 -43)" onmousedown="handlePan(1,0)">
                  <use xlink:href="#rim" fill="#404040">
                        <set attributeName="fill" to="#808080" begin="arrowRight.mouseover" end="arrowRight.mouseout"/>
                  </use>
                  <path fill="none" stroke="white" stroke-width="1.5" d="M0,-3.0v7 M-2.5,-0.5L0,-3.0L2.5,-0.5"/>
                </g>
                <g id="arrowDown" xlink:href="#dirArrow" transform="rotate(180) translate(-30 -48)" onmousedown="handlePan(0,1)">
                  <use xlink:href="#rim" fill="#404040">
                        <set attributeName="fill" to="#808080" begin="arrowDown.mouseover" end="arrowDown.mouseout"/>
                  </use>
                  <path fill="none" stroke="white" stroke-width="1.5" d="M0,-3.0v7 M-2.5,-0.5L0,-3.0L2.5,-0.5"/>
                </g>
                <g id="arrowLeft" xlink:href="#dirArrow" transform="rotate(270) translate(-36 17)" onmousedown="handlePan(-1,0)">
                  <use xlink:href="#rim" fill="#404040">
                        <set attributeName="fill" to="#808080" begin="arrowLeft.mouseover" end="arrowLeft.mouseout"/>
                  </use>
                  <path fill="none" stroke="white" stroke-width="1.5" d="M0,-3.0v7 M-2.5,-0.5L0,-3.0L2.5,-0.5"/>
                </g>
        </g>
        <svg viewBox="0 0 15 15" width="100%" height="30px" preserveAspectRatio="xMaxYMin meet">
         <g id="arrow_out" transform="scale(0.3 0.3)">
          <a xlink:href="ITSMFT_2ITS_2simulation_2include_2ITSSimulation_2Detector_8h__incl_org.svg" target="_base">
           <rect id="button" ry="5" rx="5" y="6" x="6" height="38" width="38"
                fill="#f2f5e9" fill-opacity="0.5" stroke="#606060" stroke-width="1.0"/>
           <path id="arrow"
             d="M 11.500037,31.436501 C 11.940474,20.09759 22.043105,11.32322 32.158766,21.979434 L 37.068811,17.246167 C 37.068811,17.246167 37.088388,32 37.088388,32 L 22.160133,31.978069 C 22.160133,31.978069 26.997745,27.140456 26.997745,27.140456 C 18.528582,18.264221 13.291696,25.230495 11.500037,31.436501 z"
             style="fill:#404040;"/>
          </a>
         </g>
        </svg>
</svg>
