<?xml version="1.0" encoding="UTF-8" standalone="no"?>
<!DOCTYPE svg PUBLIC "-//W3C//DTD SVG 1.1//EN"
 "http://www.w3.org/Graphics/SVG/1.1/DTD/svg11.dtd">
<!-- Generated by graphviz version 2.36.0 (20140111.2315)
 -->
<!-- Title: /home/travis/build/AliceO2Group/AliceO2/Framework/Core/src/DataAllocator.cxx Pages: 1 -->
<!--zoomable 342 -->
<svg id="main" version="1.1" xmlns="http://www.w3.org/2000/svg" xmlns:xlink="http://www.w3.org/1999/xlink" xml:space="preserve" onload="init(evt)">
<style type="text/css"><![CDATA[
.edge:hover path { stroke: red; }
.edge:hover polygon { stroke: red; fill: red; }
]]></style>
<script type="text/javascript"><![CDATA[
var edges = document.getElementsByTagName('g');
if (edges && edges.length) {
  for (var i=0;i<edges.length;i++) {
    if (edges[i].id.substr(0,4)=='edge') {
      edges[i].setAttribute('class','edge');
    }
  }
}
]]></script>
        <defs>
                <circle id="rim" cx="0" cy="0" r="7"/>
                <circle id="rim2" cx="0" cy="0" r="3.5"/>
                <g id="zoomPlus">
                        <use xlink:href="#rim" fill="#404040">
                                <set attributeName="fill" to="#808080" begin="zoomplus.mouseover" end="zoomplus.mouseout"/>
                        </use>
                        <path d="M-4,0h8M0,-4v8" fill="none" stroke="white" stroke-width="1.5" pointer-events="none"/>
                </g>
                <g id="zoomMin">
                        <use xlink:href="#rim" fill="#404040">
                                <set attributeName="fill" to="#808080" begin="zoomminus.mouseover" end="zoomminus.mouseout"/>
                        </use>
                        <path d="M-4,0h8" fill="none" stroke="white" stroke-width="1.5" pointer-events="none"/>
                </g>
                <g id="dirArrow">
                        <path fill="none" stroke="white" stroke-width="1.5" d="M0,-3.0v7 M-2.5,-0.5L0,-3.0L2.5,-0.5"/>
                </g>
               <g id="resetDef">
                       <use xlink:href="#rim2" fill="#404040">
                               <set attributeName="fill" to="#808080" begin="reset.mouseover" end="reset.mouseout"/>
                       </use>
               </g>
        </defs>

<script type="text/javascript">
var viewWidth = 1957;
var viewHeight = 342;
var sectionId = 'dynsection-0';
</script>
<script xlink:href="../../svgpan.js"/>
<svg id="graph" class="graph">
<g id="viewport">
<title>/home/travis/build/AliceO2Group/AliceO2/Framework/Core/src/DataAllocator.cxx</title>
<!-- Node1 -->
<g id="node1" class="node"><title>Node1</title>
<polygon fill="#bfbfbf" stroke="black" points="821,-292.5 821,-333.5 1011,-333.5 1011,-292.5 821,-292.5"/>
<text text-anchor="start" x="829" y="-321.5" font-family="Helvetica,sans-Serif" font-size="10.00">/home/travis/build</text>
<text text-anchor="start" x="829" y="-310.5" font-family="Helvetica,sans-Serif" font-size="10.00">/AliceO2Group/AliceO2</text>
<text text-anchor="middle" x="916" y="-299.5" font-family="Helvetica,sans-Serif" font-size="10.00">/Framework/Core/src/DataAllocator.cxx</text>
</g>
<!-- Node2 -->
<g id="node2" class="node"><title>Node2</title>
<g id="a_node2"><a xlink:href="../../d1/d28/DataAllocator_8h.html" target="_top" xlink:title="Framework/DataAllocator.h">
<polygon fill="none" stroke="black" points="1031,-236.5 1031,-255.5 1167,-255.5 1167,-236.5 1031,-236.5"/>
<text text-anchor="middle" x="1099" y="-243.5" font-family="Helvetica,sans-Serif" font-size="10.00">Framework/DataAllocator.h</text>
</a>
</g>
</g>
<!-- Node1&#45;&gt;Node2 -->
<g id="edge1" class="edge"><title>Node1&#45;&gt;Node2</title>
<path fill="none" stroke="midnightblue" d="M970.906,-292.498C1001.53,-281.622 1038.69,-268.421 1065.09,-259.045"/>
<polygon fill="midnightblue" stroke="midnightblue" points="1066.39,-262.298 1074.64,-255.652 1064.05,-255.701 1066.39,-262.298"/>
</g>
<!-- Node15 -->
<g id="node15" class="node"><title>Node15</title>
<g id="a_node15"><a xlink:href="../../dc/dc4/MessageContext_8h.html" target="_top" xlink:title="Framework/MessageContext.h">
<polygon fill="none" stroke="black" points="387.5,-180.5 387.5,-199.5 538.5,-199.5 538.5,-180.5 387.5,-180.5"/>
<text text-anchor="middle" x="463" y="-187.5" font-family="Helvetica,sans-Serif" font-size="10.00">Framework/MessageContext.h</text>
</a>
</g>
</g>
<!-- Node1&#45;&gt;Node15 -->
<g id="edge40" class="edge"><title>Node1&#45;&gt;Node15</title>
<path fill="none" stroke="midnightblue" d="M842.966,-292.492C747.045,-266.871 581.798,-222.732 504.778,-202.159"/>
<polygon fill="midnightblue" stroke="midnightblue" points="505.516,-198.734 494.951,-199.535 503.71,-205.497 505.516,-198.734"/>
</g>
<!-- Node18 -->
<g id="node18" class="node"><title>Node18</title>
<g id="a_node18"><a xlink:href="../../d2/d80/RootObjectContext_8h.html" target="_top" xlink:title="Framework/RootObjectContext.h">
<polygon fill="none" stroke="black" points="1501.5,-180.5 1501.5,-199.5 1662.5,-199.5 1662.5,-180.5 1501.5,-180.5"/>
<text text-anchor="middle" x="1582" y="-187.5" font-family="Helvetica,sans-Serif" font-size="10.00">Framework/RootObjectContext.h</text>
</a>
</g>
</g>
<!-- Node1&#45;&gt;Node18 -->
<g id="edge41" class="edge"><title>Node1&#45;&gt;Node18</title>
<path fill="none" stroke="midnightblue" d="M1011.07,-294.728C1151.66,-269.184 1410.71,-222.12 1525.13,-201.333"/>
<polygon fill="midnightblue" stroke="midnightblue" points="1525.87,-204.755 1535.08,-199.524 1524.62,-197.868 1525.87,-204.755"/>
</g>
<!-- Node23 -->
<g id="node23" class="node"><title>Node23</title>
<polygon fill="none" stroke="#bfbfbf" points="1864.5,-118.5 1864.5,-137.5 1949.5,-137.5 1949.5,-118.5 1864.5,-118.5"/>
<text text-anchor="middle" x="1907" y="-125.5" font-family="Helvetica,sans-Serif" font-size="10.00">TClonesArray.h</text>
</g>
<!-- Node1&#45;&gt;Node23 -->
<g id="edge55" class="edge"><title>Node1&#45;&gt;Node23</title>
<path fill="none" stroke="midnightblue" d="M1011.06,-307.27C1243.46,-294.843 1826.23,-258.169 1891,-200 1905.51,-186.966 1908.34,-163.834 1908.3,-147.521"/>
<polygon fill="midnightblue" stroke="midnightblue" points="1911.8,-147.386 1907.92,-137.526 1904.8,-147.651 1911.8,-147.386"/>
</g>
<!-- Node30 -->
<g id="node30" class="node"><title>Node30</title>
<g id="a_node30"><a xlink:href="../../d6/d68/DataSpecUtils_8h.html" target="_top" xlink:title="Framework/DataSpecUtils.h">
<polygon fill="none" stroke="black" points="207,-236.5 207,-255.5 347,-255.5 347,-236.5 207,-236.5"/>
<text text-anchor="middle" x="277" y="-243.5" font-family="Helvetica,sans-Serif" font-size="10.00">Framework/DataSpecUtils.h</text>
</a>
</g>
</g>
<!-- Node1&#45;&gt;Node30 -->
<g id="edge42" class="edge"><title>Node1&#45;&gt;Node30</title>
<path fill="none" stroke="midnightblue" d="M820.68,-302.304C694.752,-289.494 475.162,-267.157 357.269,-255.165"/>
<polygon fill="midnightblue" stroke="midnightblue" points="357.528,-251.673 347.225,-254.143 356.819,-258.637 357.528,-251.673"/>
</g>
<!-- Node32 -->
<g id="node32" class="node"><title>Node32</title>
<g id="a_node32"><a xlink:href="../../d6/dc9/DataProcessingHeader_8h.html" target="_top" xlink:title="Framework/DataProcessing\lHeader.h">
<polygon fill="none" stroke="black" points="0,-113 0,-143 138,-143 138,-113 0,-113"/>
<text text-anchor="start" x="8" y="-131" font-family="Helvetica,sans-Serif" font-size="10.00">Framework/DataProcessing</text>
<text text-anchor="middle" x="69" y="-120" font-family="Helvetica,sans-Serif" font-size="10.00">Header.h</text>
</a>
</g>
</g>
<!-- Node1&#45;&gt;Node32 -->
<g id="edge48" class="edge"><title>Node1&#45;&gt;Node32</title>
<path fill="none" stroke="midnightblue" d="M820.99,-312.581C651.946,-312.306 306.506,-305.463 198,-256 147.723,-233.081 105.661,-181.743 84.2427,-151.83"/>
<polygon fill="midnightblue" stroke="midnightblue" points="86.8704,-149.48 78.2723,-143.289 81.1333,-153.49 86.8704,-149.48"/>
</g>
<!-- Node3 -->
<g id="node3" class="node"><title>Node3</title>
<polygon fill="none" stroke="#bfbfbf" points="739,-180.5 739,-199.5 857,-199.5 857,-180.5 739,-180.5"/>
<text text-anchor="middle" x="798" y="-187.5" font-family="Helvetica,sans-Serif" font-size="10.00">fairmq/FairMQDevice.h</text>
</g>
<!-- Node2&#45;&gt;Node3 -->
<g id="edge2" class="edge"><title>Node2&#45;&gt;Node3</title>
<path fill="none" stroke="midnightblue" d="M1051.31,-236.444C998.136,-226.905 912.176,-211.483 855.374,-201.293"/>
<polygon fill="midnightblue" stroke="midnightblue" points="855.932,-197.837 845.471,-199.516 854.696,-204.727 855.932,-197.837"/>
</g>
<!-- Node4 -->
<g id="node4" class="node"><title>Node4</title>
<g id="a_node4"><a xlink:href="../../dc/dcd/DataHeader_8h.html" target="_top" xlink:title="Headers/DataHeader.h">
<polygon fill="none" stroke="black" points="208.5,-56.5 208.5,-75.5 325.5,-75.5 325.5,-56.5 208.5,-56.5"/>
<text text-anchor="middle" x="267" y="-63.5" font-family="Helvetica,sans-Serif" font-size="10.00">Headers/DataHeader.h</text>
</a>
</g>
</g>
<!-- Node2&#45;&gt;Node4 -->
<g id="edge3" class="edge"><title>Node2&#45;&gt;Node4</title>
<path fill="none" stroke="midnightblue" d="M1030.77,-243.799C862.145,-240.4 435.271,-229.007 378,-200 327.599,-174.472 291.398,-114.794 275.695,-84.8301"/>
<polygon fill="midnightblue" stroke="midnightblue" points="278.648,-82.9139 271.006,-75.5753 272.404,-86.0776 278.648,-82.9139"/>
</g>
<!-- Node10 -->
<g id="node10" class="node"><title>Node10</title>
<g id="a_node10"><a xlink:href="../../d6/df4/OutputRoute_8h.html" target="_top" xlink:title="Framework/OutputRoute.h">
<polygon fill="none" stroke="black" points="875,-180.5 875,-199.5 1007,-199.5 1007,-180.5 875,-180.5"/>
<text text-anchor="middle" x="941" y="-187.5" font-family="Helvetica,sans-Serif" font-size="10.00">Framework/OutputRoute.h</text>
</a>
</g>
</g>
<!-- Node2&#45;&gt;Node10 -->
<g id="edge9" class="edge"><title>Node2&#45;&gt;Node10</title>
<path fill="none" stroke="midnightblue" d="M1073.96,-236.444C1047.38,-227.359 1005.19,-212.939 975.477,-202.783"/>
<polygon fill="midnightblue" stroke="midnightblue" points="976.513,-199.439 965.918,-199.516 974.249,-206.062 976.513,-199.439"/>
</g>
<!-- Node13 -->
<g id="node13" class="node"><title>Node13</title>
<polygon fill="none" stroke="#bfbfbf" points="679.5,-118.5 679.5,-137.5 720.5,-137.5 720.5,-118.5 679.5,-118.5"/>
<text text-anchor="middle" x="700" y="-125.5" font-family="Helvetica,sans-Serif" font-size="10.00">string</text>
</g>
<!-- Node2&#45;&gt;Node13 -->
<g id="edge35" class="edge"><title>Node2&#45;&gt;Node13</title>
<path fill="none" stroke="midnightblue" d="M1030.77,-244.032C898.043,-241.437 615.461,-232.158 586,-200 579.996,-193.446 581.165,-187.459 586,-180 587.258,-178.059 637.498,-156.043 670.856,-141.578"/>
<polygon fill="midnightblue" stroke="midnightblue" points="672.392,-144.728 680.178,-137.542 669.611,-138.304 672.392,-144.728"/>
</g>
<!-- Node14 -->
<g id="node14" class="node"><title>Node14</title>
<g id="a_node14"><a xlink:href="../../d7/d31/DataChunk_8h.html" target="_top" xlink:title="Framework/DataChunk.h">
<polygon fill="none" stroke="black" points="595,-180.5 595,-199.5 721,-199.5 721,-180.5 595,-180.5"/>
<text text-anchor="middle" x="658" y="-187.5" font-family="Helvetica,sans-Serif" font-size="10.00">Framework/DataChunk.h</text>
</a>
</g>
</g>
<!-- Node2&#45;&gt;Node14 -->
<g id="edge14" class="edge"><title>Node2&#45;&gt;Node14</title>
<path fill="none" stroke="midnightblue" d="M1030.98,-236.767C959.107,-228.053 842.144,-213.834 731.239,-200.15"/>
<polygon fill="midnightblue" stroke="midnightblue" points="731.568,-196.664 721.215,-198.913 730.711,-203.612 731.568,-196.664"/>
</g>
<!-- Node2&#45;&gt;Node15 -->
<g id="edge15" class="edge"><title>Node2&#45;&gt;Node15</title>
<path fill="none" stroke="midnightblue" d="M1030.87,-239.769C927.513,-231.745 724.917,-215.679 553,-200 551.681,-199.88 550.35,-199.757 549.011,-199.634"/>
<polygon fill="midnightblue" stroke="midnightblue" points="548.896,-196.108 538.613,-198.658 548.242,-203.077 548.896,-196.108"/>
</g>
<!-- Node17 -->
<g id="node17" class="node"><title>Node17</title>
<polygon fill="none" stroke="#bfbfbf" points="1271,-118.5 1271,-137.5 1315,-137.5 1315,-118.5 1271,-118.5"/>
<text text-anchor="middle" x="1293" y="-125.5" font-family="Helvetica,sans-Serif" font-size="10.00">vector</text>
</g>
<!-- Node2&#45;&gt;Node17 -->
<g id="edge33" class="edge"><title>Node2&#45;&gt;Node17</title>
<path fill="none" stroke="midnightblue" d="M1167.16,-243.14C1202.99,-238.649 1245.13,-227.281 1273,-200 1286.85,-186.449 1291.31,-164.12 1292.65,-148.119"/>
<polygon fill="midnightblue" stroke="midnightblue" points="1296.16,-147.963 1293.16,-137.803 1289.17,-147.618 1296.16,-147.963"/>
</g>
<!-- Node2&#45;&gt;Node18 -->
<g id="edge20" class="edge"><title>Node2&#45;&gt;Node18</title>
<path fill="none" stroke="midnightblue" d="M1167.18,-237.378C1253.36,-227.742 1401.78,-211.148 1495.76,-200.642"/>
<polygon fill="midnightblue" stroke="midnightblue" points="1496.26,-204.108 1505.81,-199.518 1495.48,-197.151 1496.26,-204.108"/>
</g>
<!-- Node19 -->
<g id="node19" class="node"><title>Node19</title>
<polygon fill="none" stroke="#bfbfbf" points="1623.5,-118.5 1623.5,-137.5 1750.5,-137.5 1750.5,-118.5 1623.5,-118.5"/>
<text text-anchor="middle" x="1687" y="-125.5" font-family="Helvetica,sans-Serif" font-size="10.00">fairmq/FairMQMessage.h</text>
</g>
<!-- Node2&#45;&gt;Node19 -->
<g id="edge32" class="edge"><title>Node2&#45;&gt;Node19</title>
<path fill="none" stroke="midnightblue" d="M1167.22,-244.103C1310.72,-241.583 1633.66,-232.345 1671,-200 1685.74,-187.229 1688.52,-164.042 1688.41,-147.645"/>
<polygon fill="midnightblue" stroke="midnightblue" points="1691.9,-147.431 1687.98,-137.59 1684.91,-147.731 1691.9,-147.431"/>
</g>
<!-- Node21 -->
<g id="node21" class="node"><title>Node21</title>
<g id="a_node21"><a xlink:href="../../d8/d3c/TMessageSerializer_8h.html" target="_top" xlink:title="Framework/TMessageSerializer.h">
<polygon fill="none" stroke="black" points="1719.5,-180.5 1719.5,-199.5 1882.5,-199.5 1882.5,-180.5 1719.5,-180.5"/>
<text text-anchor="middle" x="1801" y="-187.5" font-family="Helvetica,sans-Serif" font-size="10.00">Framework/TMessageSerializer.h</text>
</a>
</g>
</g>
<!-- Node2&#45;&gt;Node21 -->
<g id="edge26" class="edge"><title>Node2&#45;&gt;Node21</title>
<path fill="none" stroke="midnightblue" d="M1167.19,-240.368C1279.41,-232.65 1509.99,-216.38 1705,-200 1706.31,-199.89 1707.64,-199.778 1708.97,-199.664"/>
<polygon fill="midnightblue" stroke="midnightblue" points="1709.65,-203.118 1719.31,-198.767 1709.04,-196.144 1709.65,-203.118"/>
</g>
<!-- Node24 -->
<g id="node24" class="node"><title>Node24</title>
<g id="a_node24"><a xlink:href="../../d0/d95/TypeTraits_8h.html" target="_top" xlink:title="Framework/TypeTraits.h">
<polygon fill="none" stroke="black" points="1321.5,-180.5 1321.5,-199.5 1444.5,-199.5 1444.5,-180.5 1321.5,-180.5"/>
<text text-anchor="middle" x="1383" y="-187.5" font-family="Helvetica,sans-Serif" font-size="10.00">Framework/TypeTraits.h</text>
</a>
</g>
</g>
<!-- Node2&#45;&gt;Node24 -->
<g id="edge30" class="edge"><title>Node2&#45;&gt;Node24</title>
<path fill="none" stroke="midnightblue" d="M1144,-236.444C1193.96,-226.944 1274.6,-211.611 1328.2,-201.42"/>
<polygon fill="midnightblue" stroke="midnightblue" points="1329.04,-204.823 1338.21,-199.516 1327.73,-197.946 1329.04,-204.823"/>
</g>
<!-- Node25 -->
<g id="node25" class="node"><title>Node25</title>
<polygon fill="none" stroke="#bfbfbf" points="1383,-118.5 1383,-137.5 1445,-137.5 1445,-118.5 1383,-118.5"/>
<text text-anchor="middle" x="1414" y="-125.5" font-family="Helvetica,sans-Serif" font-size="10.00">type_traits</text>
</g>
<!-- Node2&#45;&gt;Node25 -->
<g id="edge37" class="edge"><title>Node2&#45;&gt;Node25</title>
<path fill="none" stroke="midnightblue" d="M1167.17,-241.118C1264.71,-234.859 1434.44,-221.065 1453,-200 1467.86,-183.132 1448.96,-159.648 1432.66,-144.386"/>
<polygon fill="midnightblue" stroke="midnightblue" points="1434.84,-141.636 1425.03,-137.62 1430.19,-146.873 1434.84,-141.636"/>
</g>
<!-- Node26 -->
<g id="node26" class="node"><title>Node26</title>
<polygon fill="none" stroke="#bfbfbf" points="1025.5,-180.5 1025.5,-199.5 1060.5,-199.5 1060.5,-180.5 1025.5,-180.5"/>
<text text-anchor="middle" x="1043" y="-187.5" font-family="Helvetica,sans-Serif" font-size="10.00">map</text>
</g>
<!-- Node2&#45;&gt;Node26 -->
<g id="edge34" class="edge"><title>Node2&#45;&gt;Node26</title>
<path fill="none" stroke="midnightblue" d="M1090,-236.324C1081.81,-228.42 1069.49,-216.548 1059.53,-206.938"/>
<polygon fill="midnightblue" stroke="midnightblue" points="1061.79,-204.256 1052.16,-199.834 1056.93,-209.295 1061.79,-204.256"/>
</g>
<!-- Node27 -->
<g id="node27" class="node"><title>Node27</title>
<polygon fill="none" stroke="#bfbfbf" points="1079,-180.5 1079,-199.5 1119,-199.5 1119,-180.5 1079,-180.5"/>
<text text-anchor="middle" x="1099" y="-187.5" font-family="Helvetica,sans-Serif" font-size="10.00">utility</text>
</g>
<!-- Node2&#45;&gt;Node27 -->
<g id="edge36" class="edge"><title>Node2&#45;&gt;Node27</title>
<path fill="none" stroke="midnightblue" d="M1099,-236.083C1099,-229.006 1099,-218.861 1099,-209.986"/>
<polygon fill="midnightblue" stroke="midnightblue" points="1102.5,-209.751 1099,-199.751 1095.5,-209.751 1102.5,-209.751"/>
</g>
<!-- Node28 -->
<g id="node28" class="node"><title>Node28</title>
<polygon fill="none" stroke="#bfbfbf" points="1137.5,-180.5 1137.5,-199.5 1190.5,-199.5 1190.5,-180.5 1137.5,-180.5"/>
<text text-anchor="middle" x="1164" y="-187.5" font-family="Helvetica,sans-Serif" font-size="10.00">gsl/span</text>
</g>
<!-- Node2&#45;&gt;Node28 -->
<g id="edge38" class="edge"><title>Node2&#45;&gt;Node28</title>
<path fill="none" stroke="midnightblue" d="M1109.44,-236.324C1119.15,-228.263 1133.82,-216.077 1145.5,-206.369"/>
<polygon fill="midnightblue" stroke="midnightblue" points="1147.91,-208.916 1153.37,-199.834 1143.44,-203.532 1147.91,-208.916"/>
</g>
<!-- Node29 -->
<g id="node29" class="node"><title>Node29</title>
<polygon fill="none" stroke="#bfbfbf" points="1209,-180.5 1209,-199.5 1265,-199.5 1265,-180.5 1209,-180.5"/>
<text text-anchor="middle" x="1237" y="-187.5" font-family="Helvetica,sans-Serif" font-size="10.00">TClass.h</text>
</g>
<!-- Node2&#45;&gt;Node29 -->
<g id="edge39" class="edge"><title>Node2&#45;&gt;Node29</title>
<path fill="none" stroke="midnightblue" d="M1120.87,-236.444C1143.78,-227.478 1179.98,-213.314 1205.87,-203.183"/>
<polygon fill="midnightblue" stroke="midnightblue" points="1207.2,-206.42 1215.24,-199.516 1204.65,-199.901 1207.2,-206.42"/>
</g>
<!-- Node5 -->
<g id="node5" class="node"><title>Node5</title>
<polygon fill="none" stroke="#bfbfbf" points="127,-0.5 127,-19.5 173,-19.5 173,-0.5 127,-0.5"/>
<text text-anchor="middle" x="150" y="-7.5" font-family="Helvetica,sans-Serif" font-size="10.00">cstdint</text>
</g>
<!-- Node4&#45;&gt;Node5 -->
<g id="edge4" class="edge"><title>Node4&#45;&gt;Node5</title>
<path fill="none" stroke="midnightblue" d="M248.461,-56.4435C229.377,-47.6356 199.425,-33.8116 177.564,-23.722"/>
<polygon fill="midnightblue" stroke="midnightblue" points="178.999,-20.5292 168.452,-19.5164 176.065,-26.8849 178.999,-20.5292"/>
</g>
<!-- Node6 -->
<g id="node6" class="node"><title>Node6</title>
<polygon fill="none" stroke="#bfbfbf" points="30,-0.5 30,-19.5 82,-19.5 82,-0.5 30,-0.5"/>
<text text-anchor="middle" x="56" y="-7.5" font-family="Helvetica,sans-Serif" font-size="10.00">memory</text>
</g>
<!-- Node4&#45;&gt;Node6 -->
<g id="edge5" class="edge"><title>Node4&#45;&gt;Node6</title>
<path fill="none" stroke="midnightblue" d="M233.566,-56.4435C194.976,-46.5674 131.744,-30.3846 92.0707,-20.2314"/>
<polygon fill="midnightblue" stroke="midnightblue" points="92.8331,-16.8138 82.2776,-17.7251 91.0975,-23.5952 92.8331,-16.8138"/>
</g>
<!-- Node7 -->
<g id="node7" class="node"><title>Node7</title>
<polygon fill="none" stroke="#bfbfbf" points="530.5,-0.5 530.5,-19.5 579.5,-19.5 579.5,-0.5 530.5,-0.5"/>
<text text-anchor="middle" x="555" y="-7.5" font-family="Helvetica,sans-Serif" font-size="10.00">cassert</text>
</g>
<!-- Node4&#45;&gt;Node7 -->
<g id="edge6" class="edge"><title>Node4&#45;&gt;Node7</title>
<path fill="none" stroke="midnightblue" d="M312.634,-56.4435C370.357,-45.6206 468.472,-27.224 520.395,-17.4884"/>
<polygon fill="midnightblue" stroke="midnightblue" points="521.257,-20.8879 530.44,-15.6049 519.967,-14.0078 521.257,-20.8879"/>
</g>
<!-- Node8 -->
<g id="node8" class="node"><title>Node8</title>
<polygon fill="none" stroke="#bfbfbf" points="278,-0.5 278,-19.5 324,-19.5 324,-0.5 278,-0.5"/>
<text text-anchor="middle" x="301" y="-7.5" font-family="Helvetica,sans-Serif" font-size="10.00">cstring</text>
</g>
<!-- Node4&#45;&gt;Node8 -->
<g id="edge7" class="edge"><title>Node4&#45;&gt;Node8</title>
<path fill="none" stroke="midnightblue" d="M272.614,-56.083C277.367,-48.5341 284.318,-37.4948 290.152,-28.2298"/>
<polygon fill="midnightblue" stroke="midnightblue" points="293.124,-30.0783 295.49,-19.7511 287.2,-26.3486 293.124,-30.0783"/>
</g>
<!-- Node9 -->
<g id="node9" class="node"><title>Node9</title>
<polygon fill="none" stroke="#bfbfbf" points="204,-0.5 204,-19.5 260,-19.5 260,-0.5 204,-0.5"/>
<text text-anchor="middle" x="232" y="-7.5" font-family="Helvetica,sans-Serif" font-size="10.00">algorithm</text>
</g>
<!-- Node4&#45;&gt;Node9 -->
<g id="edge8" class="edge"><title>Node4&#45;&gt;Node9</title>
<path fill="none" stroke="midnightblue" d="M261.22,-56.083C256.328,-48.5341 249.173,-37.4948 243.167,-28.2298"/>
<polygon fill="midnightblue" stroke="midnightblue" points="246.048,-26.239 237.672,-19.7511 240.174,-30.0463 246.048,-26.239"/>
</g>
<!-- Node11 -->
<g id="node11" class="node"><title>Node11</title>
<g id="a_node11"><a xlink:href="../../db/d2d/OutputSpec_8h.html" target="_top" xlink:title="Framework/OutputSpec.h">
<polygon fill="none" stroke="black" points="495,-118.5 495,-137.5 623,-137.5 623,-118.5 495,-118.5"/>
<text text-anchor="middle" x="559" y="-125.5" font-family="Helvetica,sans-Serif" font-size="10.00">Framework/OutputSpec.h</text>
</a>
</g>
</g>
<!-- Node10&#45;&gt;Node11 -->
<g id="edge10" class="edge"><title>Node10&#45;&gt;Node11</title>
<path fill="none" stroke="midnightblue" d="M886.674,-180.467C817.229,-169.559 697.161,-150.701 623.251,-139.092"/>
<polygon fill="midnightblue" stroke="midnightblue" points="623.56,-135.598 613.138,-137.503 622.474,-142.513 623.56,-135.598"/>
</g>
<!-- Node12 -->
<g id="node12" class="node"><title>Node12</title>
<polygon fill="none" stroke="#bfbfbf" points="916.5,-118.5 916.5,-137.5 965.5,-137.5 965.5,-118.5 916.5,-118.5"/>
<text text-anchor="middle" x="941" y="-125.5" font-family="Helvetica,sans-Serif" font-size="10.00">cstddef</text>
</g>
<!-- Node10&#45;&gt;Node12 -->
<g id="edge12" class="edge"><title>Node10&#45;&gt;Node12</title>
<path fill="none" stroke="midnightblue" d="M941,-180.403C941,-171.938 941,-158.728 941,-147.82"/>
<polygon fill="midnightblue" stroke="midnightblue" points="944.5,-147.581 941,-137.581 937.5,-147.581 944.5,-147.581"/>
</g>
<!-- Node10&#45;&gt;Node13 -->
<g id="edge13" class="edge"><title>Node10&#45;&gt;Node13</title>
<path fill="none" stroke="midnightblue" d="M906.727,-180.467C859.587,-168.731 775.476,-147.791 730.443,-136.579"/>
<polygon fill="midnightblue" stroke="midnightblue" points="731.216,-133.165 720.667,-134.145 729.525,-139.958 731.216,-133.165"/>
</g>
<!-- Node11&#45;&gt;Node4 -->
<g id="edge11" class="edge"><title>Node11&#45;&gt;Node4</title>
<path fill="none" stroke="midnightblue" d="M517.474,-118.467C465.041,-107.693 374.857,-89.1623 318.209,-77.5223"/>
<polygon fill="midnightblue" stroke="midnightblue" points="318.883,-74.0878 308.383,-75.5034 317.474,-80.9446 318.883,-74.0878"/>
</g>
<!-- Node15&#45;&gt;Node7 -->
<g id="edge18" class="edge"><title>Node15&#45;&gt;Node7</title>
<path fill="none" stroke="midnightblue" d="M524.982,-180.498C567.589,-173.237 618.771,-161.213 632,-144 662.466,-104.36 607.078,-51.4925 575.197,-25.9996"/>
<polygon fill="midnightblue" stroke="midnightblue" points="576.963,-22.9398 566.919,-19.5689 572.669,-28.4678 576.963,-22.9398"/>
</g>
<!-- Node15&#45;&gt;Node13 -->
<g id="edge19" class="edge"><title>Node15&#45;&gt;Node13</title>
<path fill="none" stroke="midnightblue" d="M513.5,-180.447C554.786,-172.814 614.393,-160.325 665,-144 667.422,-143.219 669.908,-142.333 672.382,-141.392"/>
<polygon fill="midnightblue" stroke="midnightblue" points="673.774,-144.605 681.717,-137.594 671.136,-138.121 673.774,-144.605"/>
</g>
<!-- Node16 -->
<g id="node16" class="node"><title>Node16</title>
<polygon fill="none" stroke="#bfbfbf" points="367,-118.5 367,-137.5 477,-137.5 477,-118.5 367,-118.5"/>
<text text-anchor="middle" x="422" y="-125.5" font-family="Helvetica,sans-Serif" font-size="10.00">fairmq/FairMQParts.h</text>
</g>
<!-- Node15&#45;&gt;Node16 -->
<g id="edge16" class="edge"><title>Node15&#45;&gt;Node16</title>
<path fill="none" stroke="midnightblue" d="M457.126,-180.403C451.037,-171.493 441.355,-157.325 433.697,-146.118"/>
<polygon fill="midnightblue" stroke="midnightblue" points="436.395,-143.862 427.863,-137.581 430.616,-147.812 436.395,-143.862"/>
</g>
<!-- Node15&#45;&gt;Node17 -->
<g id="edge17" class="edge"><title>Node15&#45;&gt;Node17</title>
<path fill="none" stroke="midnightblue" d="M538.783,-183.443C554.397,-182.301 570.731,-181.109 586,-180 846.236,-161.093 1160.37,-138.521 1260.62,-131.324"/>
<polygon fill="midnightblue" stroke="midnightblue" points="1260.99,-134.807 1270.71,-130.599 1260.49,-127.825 1260.99,-134.807"/>
</g>
<!-- Node18&#45;&gt;Node7 -->
<g id="edge24" class="edge"><title>Node18&#45;&gt;Node7</title>
<path fill="none" stroke="midnightblue" d="M1582.65,-180.203C1583.32,-163.938 1582.14,-129.252 1562,-112 1486.56,-47.3747 758.551,-18.1095 589.804,-12.1634"/>
<polygon fill="midnightblue" stroke="midnightblue" points="589.846,-8.66287 579.73,-11.8129 589.602,-15.6586 589.846,-8.66287"/>
</g>
<!-- Node18&#45;&gt;Node13 -->
<g id="edge25" class="edge"><title>Node18&#45;&gt;Node13</title>
<path fill="none" stroke="midnightblue" d="M1501.49,-183.336C1485.43,-182.219 1468.68,-181.064 1453,-180 1210.36,-163.537 1149.61,-160.788 907,-144 844.306,-139.662 770.955,-134.272 730.569,-131.278"/>
<polygon fill="midnightblue" stroke="midnightblue" points="730.795,-127.785 720.563,-130.535 730.277,-134.766 730.795,-127.785"/>
</g>
<!-- Node18&#45;&gt;Node17 -->
<g id="edge23" class="edge"><title>Node18&#45;&gt;Node17</title>
<path fill="none" stroke="midnightblue" d="M1540.9,-180.467C1482.75,-168.395 1377.7,-146.585 1324.99,-135.641"/>
<polygon fill="midnightblue" stroke="midnightblue" points="1325.68,-132.209 1315.17,-133.603 1324.25,-139.063 1325.68,-132.209"/>
</g>
<!-- Node18&#45;&gt;Node19 -->
<g id="edge21" class="edge"><title>Node18&#45;&gt;Node19</title>
<path fill="none" stroke="midnightblue" d="M1597.04,-180.403C1614.28,-170.557 1642.74,-154.291 1663.03,-142.695"/>
<polygon fill="midnightblue" stroke="midnightblue" points="1665.04,-145.581 1671.98,-137.581 1661.57,-139.503 1665.04,-145.581"/>
</g>
<!-- Node20 -->
<g id="node20" class="node"><title>Node20</title>
<polygon fill="none" stroke="#bfbfbf" points="1494.5,-118.5 1494.5,-137.5 1553.5,-137.5 1553.5,-118.5 1494.5,-118.5"/>
<text text-anchor="middle" x="1524" y="-125.5" font-family="Helvetica,sans-Serif" font-size="10.00">TObject.h</text>
</g>
<!-- Node18&#45;&gt;Node20 -->
<g id="edge22" class="edge"><title>Node18&#45;&gt;Node20</title>
<path fill="none" stroke="midnightblue" d="M1573.69,-180.403C1564.73,-171.136 1550.28,-156.183 1539.26,-144.788"/>
<polygon fill="midnightblue" stroke="midnightblue" points="1541.76,-142.338 1532.29,-137.581 1536.73,-147.203 1541.76,-142.338"/>
</g>
<!-- Node21&#45;&gt;Node19 -->
<g id="edge27" class="edge"><title>Node21&#45;&gt;Node19</title>
<path fill="none" stroke="midnightblue" d="M1784.67,-180.403C1765.79,-170.468 1734.49,-153.997 1712.42,-142.381"/>
<polygon fill="midnightblue" stroke="midnightblue" points="1713.78,-139.141 1703.3,-137.581 1710.52,-145.335 1713.78,-139.141"/>
</g>
<!-- Node22 -->
<g id="node22" class="node"><title>Node22</title>
<polygon fill="none" stroke="#bfbfbf" points="1768.5,-118.5 1768.5,-137.5 1839.5,-137.5 1839.5,-118.5 1768.5,-118.5"/>
<text text-anchor="middle" x="1804" y="-125.5" font-family="Helvetica,sans-Serif" font-size="10.00">TMessage.h</text>
</g>
<!-- Node21&#45;&gt;Node22 -->
<g id="edge28" class="edge"><title>Node21&#45;&gt;Node22</title>
<path fill="none" stroke="midnightblue" d="M1801.43,-180.403C1801.85,-171.938 1802.51,-158.728 1803.06,-147.82"/>
<polygon fill="midnightblue" stroke="midnightblue" points="1806.57,-147.743 1803.57,-137.581 1799.58,-147.393 1806.57,-147.743"/>
</g>
<!-- Node21&#45;&gt;Node23 -->
<g id="edge29" class="edge"><title>Node21&#45;&gt;Node23</title>
<path fill="none" stroke="midnightblue" d="M1816.19,-180.403C1833.66,-170.512 1862.58,-154.144 1883.08,-142.538"/>
<polygon fill="midnightblue" stroke="midnightblue" points="1884.86,-145.553 1891.84,-137.581 1881.41,-139.461 1884.86,-145.553"/>
</g>
<!-- Node24&#45;&gt;Node25 -->
<g id="edge31" class="edge"><title>Node24&#45;&gt;Node25</title>
<path fill="none" stroke="midnightblue" d="M1387.44,-180.403C1391.95,-171.671 1399.07,-157.889 1404.81,-146.794"/>
<polygon fill="midnightblue" stroke="midnightblue" points="1408.09,-148.071 1409.57,-137.581 1401.87,-144.858 1408.09,-148.071"/>
</g>
<!-- Node30&#45;&gt;Node4 -->
<g id="edge47" class="edge"><title>Node30&#45;&gt;Node4</title>
<path fill="none" stroke="midnightblue" d="M219.221,-236.445C197.56,-230.122 175.053,-219.125 162,-200 130.843,-154.351 201.962,-104.076 242.025,-80.5477"/>
<polygon fill="midnightblue" stroke="midnightblue" points="243.817,-83.555 250.759,-75.5513 240.341,-77.479 243.817,-83.555"/>
</g>
<!-- Node30&#45;&gt;Node11 -->
<g id="edge43" class="edge"><title>Node30&#45;&gt;Node11</title>
<path fill="none" stroke="midnightblue" d="M287.881,-236.43C305.745,-222.734 342.827,-195.844 378,-180 418.949,-161.554 468.155,-148.206 504.919,-139.803"/>
<polygon fill="midnightblue" stroke="midnightblue" points="505.945,-143.16 514.941,-137.564 504.419,-136.328 505.945,-143.16"/>
</g>
<!-- Node31 -->
<g id="node31" class="node"><title>Node31</title>
<g id="a_node31"><a xlink:href="../../d5/d3f/InputSpec_8h.html" target="_top" xlink:title="Framework/InputSpec.h">
<polygon fill="none" stroke="black" points="171.5,-180.5 171.5,-199.5 292.5,-199.5 292.5,-180.5 171.5,-180.5"/>
<text text-anchor="middle" x="232" y="-187.5" font-family="Helvetica,sans-Serif" font-size="10.00">Framework/InputSpec.h</text>
</a>
</g>
</g>
<!-- Node30&#45;&gt;Node31 -->
<g id="edge44" class="edge"><title>Node30&#45;&gt;Node31</title>
<path fill="none" stroke="midnightblue" d="M269.569,-236.083C263.147,-228.377 253.694,-217.033 245.878,-207.653"/>
<polygon fill="midnightblue" stroke="midnightblue" points="248.383,-205.193 239.293,-199.751 243.006,-209.674 248.383,-205.193"/>
</g>
<!-- Node31&#45;&gt;Node4 -->
<g id="edge46" class="edge"><title>Node31&#45;&gt;Node4</title>
<path fill="none" stroke="midnightblue" d="M234.517,-180.226C240.193,-160.442 254.088,-112.007 261.737,-85.3436"/>
<polygon fill="midnightblue" stroke="midnightblue" points="265.112,-86.2719 264.506,-75.6944 258.384,-84.3415 265.112,-86.2719"/>
</g>
<!-- Node31&#45;&gt;Node13 -->
<g id="edge45" class="edge"><title>Node31&#45;&gt;Node13</title>
<path fill="none" stroke="midnightblue" d="M292.585,-184.181C371.179,-177.472 512.392,-163.864 632,-144 644.235,-141.968 657.585,-139.156 669.191,-136.515"/>
<polygon fill="midnightblue" stroke="midnightblue" points="670.332,-139.843 679.277,-134.165 668.744,-133.025 670.332,-139.843"/>
</g>
<!-- Node32&#45;&gt;Node4 -->
<g id="edge49" class="edge"><title>Node32&#45;&gt;Node4</title>
<path fill="none" stroke="midnightblue" d="M115.422,-112.933C149.974,-102.462 196.563,-88.3445 228.932,-78.5358"/>
<polygon fill="midnightblue" stroke="midnightblue" points="230.353,-81.7624 238.908,-75.5127 228.323,-75.0632 230.353,-81.7624"/>
</g>
<!-- Node32&#45;&gt;Node5 -->
<g id="edge50" class="edge"><title>Node32&#45;&gt;Node5</title>
<path fill="none" stroke="midnightblue" d="M63.7751,-112.802C59.1352,-97.6059 54.5563,-73.346 65,-56 76.3158,-37.2055 98.4058,-25.8496 117.23,-19.2474"/>
<polygon fill="midnightblue" stroke="midnightblue" points="118.521,-22.5095 126.982,-16.1327 116.391,-15.8413 118.521,-22.5095"/>
</g>
<!-- Node32&#45;&gt;Node6 -->
<g id="edge53" class="edge"><title>Node32&#45;&gt;Node6</title>
<path fill="none" stroke="midnightblue" d="M54.8827,-112.791C46.4502,-103.262 36.5248,-89.9422 32,-76 26.6812,-59.6113 34.8275,-41.2135 43.0362,-28.1854"/>
<polygon fill="midnightblue" stroke="midnightblue" points="46.0519,-29.9768 48.8328,-19.7534 40.2835,-26.0113 46.0519,-29.9768"/>
</g>
<!-- Node32&#45;&gt;Node7 -->
<g id="edge54" class="edge"><title>Node32&#45;&gt;Node7</title>
<path fill="none" stroke="midnightblue" d="M138.024,-115.587C191.734,-106.256 267.982,-92.0221 334,-76 400.744,-59.8018 477.393,-36.0852 520.622,-22.2268"/>
<polygon fill="midnightblue" stroke="midnightblue" points="521.907,-25.4901 530.352,-19.0928 519.761,-18.8272 521.907,-25.4901"/>
</g>
<!-- Node33 -->
<g id="node33" class="node"><title>Node33</title>
<polygon fill="none" stroke="#bfbfbf" points="74.5,-56.5 74.5,-75.5 117.5,-75.5 117.5,-56.5 74.5,-56.5"/>
<text text-anchor="middle" x="96" y="-63.5" font-family="Helvetica,sans-Serif" font-size="10.00">cstdio</text>
</g>
<!-- Node32&#45;&gt;Node33 -->
<g id="edge51" class="edge"><title>Node32&#45;&gt;Node33</title>
<path fill="none" stroke="midnightblue" d="M75.3986,-112.781C79.1603,-104.422 83.9502,-93.7773 87.9646,-84.8565"/>
<polygon fill="midnightblue" stroke="midnightblue" points="91.1593,-86.2861 92.0713,-75.7305 84.7758,-83.4135 91.1593,-86.2861"/>
</g>
<!-- Node34 -->
<g id="node34" class="node"><title>Node34</title>
<polygon fill="none" stroke="#bfbfbf" points="136,-56.5 136,-75.5 190,-75.5 190,-56.5 136,-56.5"/>
<text text-anchor="middle" x="163" y="-63.5" font-family="Helvetica,sans-Serif" font-size="10.00">iostream</text>
</g>
<!-- Node32&#45;&gt;Node34 -->
<g id="edge52" class="edge"><title>Node32&#45;&gt;Node34</title>
<path fill="none" stroke="midnightblue" d="M91.2767,-112.781C106.293,-103.196 126.017,-90.6062 140.98,-81.0555"/>
<polygon fill="midnightblue" stroke="midnightblue" points="143.05,-83.8863 149.596,-75.5557 139.284,-77.9859 143.05,-83.8863"/>
</g>
</g>
</svg>
        <g id="navigator" transform="translate(0 0)" fill="#404254">
                <rect fill="#f2f5e9" fill-opacity="0.5" stroke="#606060" stroke-width=".5" x="0" y="0" width="60" height="60"/>
                <use id="zoomplus" xlink:href="#zoomPlus" x="17" y="9" onmousedown="handleZoom(evt,'in')"/>
                <use id="zoomminus" xlink:href="#zoomMin" x="42" y="9" onmousedown="handleZoom(evt,'out')"/>
                <use id="reset" xlink:href="#resetDef" x="30" y="36" onmousedown="handleReset()"/>
                <g id="arrowUp" xlink:href="#dirArrow" transform="translate(30 24)" onmousedown="handlePan(0,-1)">
                  <use xlink:href="#rim" fill="#404040">
                        <set attributeName="fill" to="#808080" begin="arrowUp.mouseover" end="arrowUp.mouseout"/>
                  </use>
                  <path fill="none" stroke="white" stroke-width="1.5" d="M0,-3.0v7 M-2.5,-0.5L0,-3.0L2.5,-0.5"/>
                </g>
                <g id="arrowRight" xlink:href="#dirArrow" transform="rotate(90) translate(36 -43)" onmousedown="handlePan(1,0)">
                  <use xlink:href="#rim" fill="#404040">
                        <set attributeName="fill" to="#808080" begin="arrowRight.mouseover" end="arrowRight.mouseout"/>
                  </use>
                  <path fill="none" stroke="white" stroke-width="1.5" d="M0,-3.0v7 M-2.5,-0.5L0,-3.0L2.5,-0.5"/>
                </g>
                <g id="arrowDown" xlink:href="#dirArrow" transform="rotate(180) translate(-30 -48)" onmousedown="handlePan(0,1)">
                  <use xlink:href="#rim" fill="#404040">
                        <set attributeName="fill" to="#808080" begin="arrowDown.mouseover" end="arrowDown.mouseout"/>
                  </use>
                  <path fill="none" stroke="white" stroke-width="1.5" d="M0,-3.0v7 M-2.5,-0.5L0,-3.0L2.5,-0.5"/>
                </g>
                <g id="arrowLeft" xlink:href="#dirArrow" transform="rotate(270) translate(-36 17)" onmousedown="handlePan(-1,0)">
                  <use xlink:href="#rim" fill="#404040">
                        <set attributeName="fill" to="#808080" begin="arrowLeft.mouseover" end="arrowLeft.mouseout"/>
                  </use>
                  <path fill="none" stroke="white" stroke-width="1.5" d="M0,-3.0v7 M-2.5,-0.5L0,-3.0L2.5,-0.5"/>
                </g>
        </g>
        <svg viewBox="0 0 15 15" width="100%" height="30px" preserveAspectRatio="xMaxYMin meet">
         <g id="arrow_out" transform="scale(0.3 0.3)">
          <a xlink:href="DataAllocator_8cxx__incl_org.svg" target="_base">
           <rect id="button" ry="5" rx="5" y="6" x="6" height="38" width="38"
                fill="#f2f5e9" fill-opacity="0.5" stroke="#606060" stroke-width="1.0"/>
           <path id="arrow"
             d="M 11.500037,31.436501 C 11.940474,20.09759 22.043105,11.32322 32.158766,21.979434 L 37.068811,17.246167 C 37.068811,17.246167 37.088388,32 37.088388,32 L 22.160133,31.978069 C 22.160133,31.978069 26.997745,27.140456 26.997745,27.140456 C 18.528582,18.264221 13.291696,25.230495 11.500037,31.436501 z"
             style="fill:#404040;"/>
          </a>
         </g>
        </svg>
</svg>
