<?xml version="1.0" encoding="UTF-8" standalone="no"?>
<!DOCTYPE svg PUBLIC "-//W3C//DTD SVG 1.1//EN"
 "http://www.w3.org/Graphics/SVG/1.1/DTD/svg11.dtd">
<!-- Generated by graphviz version 2.36.0 (20140111.2315)
 -->
<!-- Title: /home/travis/build/AliceO2Group/AliceO2/Detectors/ITSMFT/ITS/reconstruction/include/ITSReconstruction/TrivialClusterer.h Pages: 1 -->
<svg width="1799pt" height="376pt"
 viewBox="0.00 0.00 1799.00 376.00" xmlns="http://www.w3.org/2000/svg" xmlns:xlink="http://www.w3.org/1999/xlink">
<g id="graph0" class="graph" transform="scale(1 1) rotate(0) translate(4 372)">
<title>/home/travis/build/AliceO2Group/AliceO2/Detectors/ITSMFT/ITS/reconstruction/include/ITSReconstruction/TrivialClusterer.h</title>
<!-- Node1 -->
<g id="node1" class="node"><title>Node1</title>
<polygon fill="#bfbfbf" stroke="black" points="1106.5,-304.5 1106.5,-367.5 1285.5,-367.5 1285.5,-304.5 1106.5,-304.5"/>
<text text-anchor="start" x="1114.5" y="-355.5" font-family="Helvetica,sans-Serif" font-size="10.00">/home/travis/build</text>
<text text-anchor="start" x="1114.5" y="-344.5" font-family="Helvetica,sans-Serif" font-size="10.00">/AliceO2Group/AliceO2</text>
<text text-anchor="start" x="1114.5" y="-333.5" font-family="Helvetica,sans-Serif" font-size="10.00">/Detectors/ITSMFT/ITS</text>
<text text-anchor="start" x="1114.5" y="-322.5" font-family="Helvetica,sans-Serif" font-size="10.00">/reconstruction/include</text>
<text text-anchor="middle" x="1196" y="-311.5" font-family="Helvetica,sans-Serif" font-size="10.00">/ITSReconstruction/TrivialClusterer.h</text>
</g>
<!-- Node2 -->
<g id="node2" class="node"><title>Node2</title>
<polygon fill="none" stroke="#bfbfbf" points="1309,-74.5 1309,-93.5 1365,-93.5 1365,-74.5 1309,-74.5"/>
<text text-anchor="middle" x="1337" y="-81.5" font-family="Helvetica,sans-Serif" font-size="10.00">Rtypes.h</text>
</g>
<!-- Node1&#45;&gt;Node2 -->
<g id="edge1" class="edge"><title>Node1&#45;&gt;Node2</title>
<path fill="none" stroke="midnightblue" d="M1174.02,-304.319C1155.36,-274.174 1134.61,-227.643 1155,-192 1171.99,-162.298 1261.02,-119.002 1307.96,-97.7423"/>
<polygon fill="midnightblue" stroke="midnightblue" points="1309.61,-100.84 1317.3,-93.5531 1306.74,-94.4534 1309.61,-100.84"/>
</g>
<!-- Node3 -->
<g id="node3" class="node"><title>Node3</title>
<g id="a_node3"><a xlink:href="../../d0/d2d/common_2base_2include_2ITSMFTBase_2GeometryTGeo_8h.html" target="_top" xlink:title="ITSMFTBase/GeometryTGeo.h">
<polygon fill="none" stroke="black" points="1179.5,-248.5 1179.5,-267.5 1332.5,-267.5 1332.5,-248.5 1179.5,-248.5"/>
<text text-anchor="middle" x="1256" y="-255.5" font-family="Helvetica,sans-Serif" font-size="10.00">ITSMFTBase/GeometryTGeo.h</text>
</a>
</g>
</g>
<!-- Node1&#45;&gt;Node3 -->
<g id="edge2" class="edge"><title>Node1&#45;&gt;Node3</title>
<path fill="none" stroke="midnightblue" d="M1220.4,-304.088C1228.11,-294.328 1236.33,-283.921 1242.92,-275.567"/>
<polygon fill="midnightblue" stroke="midnightblue" points="1245.67,-277.736 1249.12,-267.718 1240.17,-273.398 1245.67,-277.736"/>
</g>
<!-- Node4 -->
<g id="node4" class="node"><title>Node4</title>
<g id="a_node4"><a xlink:href="../../d4/d20/DetMatrixCache_8h.html" target="_top" xlink:title="DetectorsBase/DetMatrixCache.h">
<polygon fill="none" stroke="black" points="1311,-192.5 1311,-211.5 1475,-211.5 1475,-192.5 1311,-192.5"/>
<text text-anchor="middle" x="1393" y="-199.5" font-family="Helvetica,sans-Serif" font-size="10.00">DetectorsBase/DetMatrixCache.h</text>
</a>
</g>
</g>
<!-- Node3&#45;&gt;Node4 -->
<g id="edge3" class="edge"><title>Node3&#45;&gt;Node4</title>
<path fill="none" stroke="midnightblue" d="M1277.71,-248.444C1300.35,-239.517 1336.07,-225.439 1361.75,-215.317"/>
<polygon fill="midnightblue" stroke="midnightblue" points="1363.37,-218.44 1371.39,-211.516 1360.81,-211.927 1363.37,-218.44"/>
</g>
<!-- Node26 -->
<g id="node26" class="node"><title>Node26</title>
<polygon fill="none" stroke="#bfbfbf" points="1164.5,-192.5 1164.5,-211.5 1233.5,-211.5 1233.5,-192.5 1164.5,-192.5"/>
<text text-anchor="middle" x="1199" y="-199.5" font-family="Helvetica,sans-Serif" font-size="10.00">TObjArray.h</text>
</g>
<!-- Node3&#45;&gt;Node26 -->
<g id="edge30" class="edge"><title>Node3&#45;&gt;Node26</title>
<path fill="none" stroke="midnightblue" d="M1246.84,-248.324C1238.5,-240.42 1225.97,-228.548 1215.82,-218.938"/>
<polygon fill="midnightblue" stroke="midnightblue" points="1217.99,-216.171 1208.32,-211.834 1213.18,-221.252 1217.99,-216.171"/>
</g>
<!-- Node27 -->
<g id="node27" class="node"><title>Node27</title>
<polygon fill="none" stroke="#bfbfbf" points="1251.5,-192.5 1251.5,-211.5 1292.5,-211.5 1292.5,-192.5 1251.5,-192.5"/>
<text text-anchor="middle" x="1272" y="-199.5" font-family="Helvetica,sans-Serif" font-size="10.00">string</text>
</g>
<!-- Node3&#45;&gt;Node27 -->
<g id="edge31" class="edge"><title>Node3&#45;&gt;Node27</title>
<path fill="none" stroke="midnightblue" d="M1258.64,-248.083C1260.79,-240.849 1263.88,-230.409 1266.55,-221.397"/>
<polygon fill="midnightblue" stroke="midnightblue" points="1269.92,-222.333 1269.41,-211.751 1263.21,-220.345 1269.92,-222.333"/>
</g>
<!-- Node4&#45;&gt;Node2 -->
<g id="edge28" class="edge"><title>Node4&#45;&gt;Node2</title>
<path fill="none" stroke="midnightblue" d="M1388.79,-192.281C1379.62,-173.294 1357.71,-127.892 1345.53,-102.662"/>
<polygon fill="midnightblue" stroke="midnightblue" points="1348.61,-100.989 1341.11,-93.5048 1342.3,-104.032 1348.61,-100.989"/>
</g>
<!-- Node5 -->
<g id="node5" class="node"><title>Node5</title>
<polygon fill="none" stroke="#bfbfbf" points="1283,-136.5 1283,-155.5 1327,-155.5 1327,-136.5 1283,-136.5"/>
<text text-anchor="middle" x="1305" y="-143.5" font-family="Helvetica,sans-Serif" font-size="10.00">vector</text>
</g>
<!-- Node4&#45;&gt;Node5 -->
<g id="edge4" class="edge"><title>Node4&#45;&gt;Node5</title>
<path fill="none" stroke="midnightblue" d="M1378.86,-192.324C1365.13,-183.9 1344.06,-170.971 1327.94,-161.074"/>
<polygon fill="midnightblue" stroke="midnightblue" points="1329.46,-157.902 1319.1,-155.655 1325.8,-163.868 1329.46,-157.902"/>
</g>
<!-- Node6 -->
<g id="node6" class="node"><title>Node6</title>
<polygon fill="none" stroke="#bfbfbf" points="1420,-6.5 1420,-25.5 1458,-25.5 1458,-6.5 1420,-6.5"/>
<text text-anchor="middle" x="1439" y="-13.5" font-family="Helvetica,sans-Serif" font-size="10.00">array</text>
</g>
<!-- Node4&#45;&gt;Node6 -->
<g id="edge5" class="edge"><title>Node4&#45;&gt;Node6</title>
<path fill="none" stroke="midnightblue" d="M1395.22,-192.125C1402.32,-163.708 1424.61,-74.5483 1434.36,-35.5597"/>
<polygon fill="midnightblue" stroke="midnightblue" points="1437.77,-36.336 1436.8,-25.7857 1430.98,-34.6382 1437.77,-36.336"/>
</g>
<!-- Node7 -->
<g id="node7" class="node"><title>Node7</title>
<g id="a_node7"><a xlink:href="../../dd/d76/Cartesian3D_8h.html" target="_top" xlink:title="MathUtils/Cartesian3D.h">
<polygon fill="none" stroke="black" points="758.5,-136.5 758.5,-155.5 883.5,-155.5 883.5,-136.5 758.5,-136.5"/>
<text text-anchor="middle" x="821" y="-143.5" font-family="Helvetica,sans-Serif" font-size="10.00">MathUtils/Cartesian3D.h</text>
</a>
</g>
</g>
<!-- Node4&#45;&gt;Node7 -->
<g id="edge6" class="edge"><title>Node4&#45;&gt;Node7</title>
<path fill="none" stroke="midnightblue" d="M1310.74,-192.937C1307.45,-192.619 1304.2,-192.306 1301,-192 1156.5,-178.159 987.489,-162.418 893.495,-153.705"/>
<polygon fill="midnightblue" stroke="midnightblue" points="893.805,-150.218 883.524,-152.78 893.159,-157.188 893.805,-150.218"/>
</g>
<!-- Node18 -->
<g id="node18" class="node"><title>Node18</title>
<g id="a_node18"><a xlink:href="../../d6/d31/DetID_8h.html" target="_top" xlink:title="DetectorsBase/DetID.h">
<polygon fill="none" stroke="black" points="1510.5,-136.5 1510.5,-155.5 1629.5,-155.5 1629.5,-136.5 1510.5,-136.5"/>
<text text-anchor="middle" x="1570" y="-143.5" font-family="Helvetica,sans-Serif" font-size="10.00">DetectorsBase/DetID.h</text>
</a>
</g>
</g>
<!-- Node4&#45;&gt;Node18 -->
<g id="edge18" class="edge"><title>Node4&#45;&gt;Node18</title>
<path fill="none" stroke="midnightblue" d="M1421.05,-192.444C1451.08,-183.28 1498.91,-168.688 1532.24,-158.519"/>
<polygon fill="midnightblue" stroke="midnightblue" points="1533.54,-161.782 1542.09,-155.516 1531.5,-155.087 1533.54,-161.782"/>
</g>
<!-- Node25 -->
<g id="node25" class="node"><title>Node25</title>
<polygon fill="none" stroke="#bfbfbf" points="1421.5,-136.5 1421.5,-155.5 1492.5,-155.5 1492.5,-136.5 1421.5,-136.5"/>
<text text-anchor="middle" x="1457" y="-143.5" font-family="Helvetica,sans-Serif" font-size="10.00">FairLogger.h</text>
</g>
<!-- Node4&#45;&gt;Node25 -->
<g id="edge29" class="edge"><title>Node4&#45;&gt;Node25</title>
<path fill="none" stroke="midnightblue" d="M1403.28,-192.324C1412.84,-184.263 1427.28,-172.077 1438.78,-162.369"/>
<polygon fill="midnightblue" stroke="midnightblue" points="1441.14,-164.958 1446.53,-155.834 1436.63,-159.608 1441.14,-164.958"/>
</g>
<!-- Node7&#45;&gt;Node2 -->
<g id="edge10" class="edge"><title>Node7&#45;&gt;Node2</title>
<path fill="none" stroke="midnightblue" d="M883.791,-144.69C976.047,-142.982 1153.09,-134.922 1299,-100 1302.24,-99.2241 1305.57,-98.2275 1308.85,-97.1174"/>
<polygon fill="midnightblue" stroke="midnightblue" points="1310.25,-100.331 1318.4,-93.5537 1307.8,-93.7735 1310.25,-100.331"/>
</g>
<!-- Node8 -->
<g id="node8" class="node"><title>Node8</title>
<polygon fill="none" stroke="#bfbfbf" points="331.5,-74.5 331.5,-93.5 480.5,-93.5 480.5,-74.5 331.5,-74.5"/>
<text text-anchor="middle" x="406" y="-81.5" font-family="Helvetica,sans-Serif" font-size="10.00">Math/GenVector/Rotation3D.h</text>
</g>
<!-- Node7&#45;&gt;Node8 -->
<g id="edge7" class="edge"><title>Node7&#45;&gt;Node8</title>
<path fill="none" stroke="midnightblue" d="M758.355,-137.272C691.707,-128.865 583.24,-114.657 490,-100 480.865,-98.564 471.191,-96.9365 461.783,-95.2962"/>
<polygon fill="midnightblue" stroke="midnightblue" points="462.174,-91.8112 451.717,-93.5198 460.957,-98.7047 462.174,-91.8112"/>
</g>
<!-- Node9 -->
<g id="node9" class="node"><title>Node9</title>
<polygon fill="none" stroke="#bfbfbf" points="499,-74.5 499,-93.5 655,-93.5 655,-74.5 499,-74.5"/>
<text text-anchor="middle" x="577" y="-81.5" font-family="Helvetica,sans-Serif" font-size="10.00">Math/GenVector/Transform3D.h</text>
</g>
<!-- Node7&#45;&gt;Node9 -->
<g id="edge8" class="edge"><title>Node7&#45;&gt;Node9</title>
<path fill="none" stroke="midnightblue" d="M786.3,-136.467C743.03,-125.827 668.994,-107.622 621.568,-95.9593"/>
<polygon fill="midnightblue" stroke="midnightblue" points="622.127,-92.4926 611.58,-93.5034 620.455,-99.2901 622.127,-92.4926"/>
</g>
<!-- Node10 -->
<g id="node10" class="node"><title>Node10</title>
<polygon fill="none" stroke="#bfbfbf" points="673,-74.5 673,-93.5 833,-93.5 833,-74.5 673,-74.5"/>
<text text-anchor="middle" x="753" y="-81.5" font-family="Helvetica,sans-Serif" font-size="10.00">Math/GenVector/Translation3D.h</text>
</g>
<!-- Node7&#45;&gt;Node10 -->
<g id="edge9" class="edge"><title>Node7&#45;&gt;Node10</title>
<path fill="none" stroke="midnightblue" d="M811.257,-136.403C800.653,-127.047 783.481,-111.895 770.521,-100.46"/>
<polygon fill="midnightblue" stroke="midnightblue" points="772.539,-97.5724 762.725,-93.5806 767.907,-102.821 772.539,-97.5724"/>
</g>
<!-- Node11 -->
<g id="node11" class="node"><title>Node11</title>
<polygon fill="none" stroke="#bfbfbf" points="851,-74.5 851,-93.5 927,-93.5 927,-74.5 851,-74.5"/>
<text text-anchor="middle" x="889" y="-81.5" font-family="Helvetica,sans-Serif" font-size="10.00">TGeoMatrix.h</text>
</g>
<!-- Node7&#45;&gt;Node11 -->
<g id="edge11" class="edge"><title>Node7&#45;&gt;Node11</title>
<path fill="none" stroke="midnightblue" d="M830.743,-136.403C841.347,-127.047 858.519,-111.895 871.479,-100.46"/>
<polygon fill="midnightblue" stroke="midnightblue" points="874.093,-102.821 879.275,-93.5806 869.461,-97.5724 874.093,-102.821"/>
</g>
<!-- Node12 -->
<g id="node12" class="node"><title>Node12</title>
<polygon fill="none" stroke="#bfbfbf" points="945.5,-69 945.5,-99 1096.5,-99 1096.5,-69 945.5,-69"/>
<text text-anchor="start" x="953.5" y="-87" font-family="Helvetica,sans-Serif" font-size="10.00">Math/GenVector/Displacement</text>
<text text-anchor="middle" x="1021" y="-76" font-family="Helvetica,sans-Serif" font-size="10.00">Vector3D.h</text>
</g>
<!-- Node7&#45;&gt;Node12 -->
<g id="edge12" class="edge"><title>Node7&#45;&gt;Node12</title>
<path fill="none" stroke="midnightblue" d="M849.655,-136.403C879.5,-127.45 927.034,-113.19 964.474,-101.958"/>
<polygon fill="midnightblue" stroke="midnightblue" points="965.676,-105.251 974.249,-99.0253 963.665,-98.5465 965.676,-105.251"/>
</g>
<!-- Node13 -->
<g id="node13" class="node"><title>Node13</title>
<polygon fill="none" stroke="#bfbfbf" points="1115,-74.5 1115,-93.5 1291,-93.5 1291,-74.5 1115,-74.5"/>
<text text-anchor="middle" x="1203" y="-81.5" font-family="Helvetica,sans-Serif" font-size="10.00">Math/GenVector/PositionVector3D.h</text>
</g>
<!-- Node7&#45;&gt;Node13 -->
<g id="edge13" class="edge"><title>Node7&#45;&gt;Node13</title>
<path fill="none" stroke="midnightblue" d="M875.326,-136.467C944.771,-125.559 1064.84,-106.701 1138.75,-95.0918"/>
<polygon fill="midnightblue" stroke="midnightblue" points="1139.53,-98.5127 1148.86,-93.5034 1138.44,-91.5975 1139.53,-98.5127"/>
</g>
<!-- Node14 -->
<g id="node14" class="node"><title>Node14</title>
<g id="a_node14"><a xlink:href="../../d2/dd0/Cartesian2D_8h.html" target="_top" xlink:title="MathUtils/Cartesian2D.h">
<polygon fill="none" stroke="black" points="116.5,-74.5 116.5,-93.5 241.5,-93.5 241.5,-74.5 116.5,-74.5"/>
<text text-anchor="middle" x="179" y="-81.5" font-family="Helvetica,sans-Serif" font-size="10.00">MathUtils/Cartesian2D.h</text>
</a>
</g>
</g>
<!-- Node7&#45;&gt;Node14 -->
<g id="edge14" class="edge"><title>Node7&#45;&gt;Node14</title>
<path fill="none" stroke="midnightblue" d="M758.299,-142.648C653.027,-138.118 434.266,-126.217 251,-100 242.642,-98.8044 233.798,-97.2256 225.277,-95.5414"/>
<polygon fill="midnightblue" stroke="midnightblue" points="225.969,-92.1106 215.47,-93.5325 224.564,-98.9682 225.969,-92.1106"/>
</g>
<!-- Node17 -->
<g id="node17" class="node"><title>Node17</title>
<polygon fill="none" stroke="#bfbfbf" points="260,-74.5 260,-93.5 314,-93.5 314,-74.5 260,-74.5"/>
<text text-anchor="middle" x="287" y="-81.5" font-family="Helvetica,sans-Serif" font-size="10.00">iostream</text>
</g>
<!-- Node7&#45;&gt;Node17 -->
<g id="edge17" class="edge"><title>Node7&#45;&gt;Node17</title>
<path fill="none" stroke="midnightblue" d="M758.495,-145.612C662.947,-145.158 475.489,-138.77 322,-100 319.176,-99.2866 316.287,-98.3745 313.439,-97.353"/>
<polygon fill="midnightblue" stroke="midnightblue" points="314.654,-94.0694 304.07,-93.5897 312.045,-100.565 314.654,-94.0694"/>
</g>
<!-- Node15 -->
<g id="node15" class="node"><title>Node15</title>
<polygon fill="none" stroke="#bfbfbf" points="194.5,-1 194.5,-31 345.5,-31 345.5,-1 194.5,-1"/>
<text text-anchor="start" x="202.5" y="-19" font-family="Helvetica,sans-Serif" font-size="10.00">Math/GenVector/Displacement</text>
<text text-anchor="middle" x="270" y="-8" font-family="Helvetica,sans-Serif" font-size="10.00">Vector2D.h</text>
</g>
<!-- Node14&#45;&gt;Node15 -->
<g id="edge15" class="edge"><title>Node14&#45;&gt;Node15</title>
<path fill="none" stroke="midnightblue" d="M190.897,-74.3717C203.779,-65.0286 224.78,-49.7966 241.907,-37.375"/>
<polygon fill="midnightblue" stroke="midnightblue" points="244.407,-39.8859 250.447,-31.1815 240.297,-34.2194 244.407,-39.8859"/>
</g>
<!-- Node16 -->
<g id="node16" class="node"><title>Node16</title>
<polygon fill="none" stroke="#bfbfbf" points="0,-6.5 0,-25.5 176,-25.5 176,-6.5 0,-6.5"/>
<text text-anchor="middle" x="88" y="-13.5" font-family="Helvetica,sans-Serif" font-size="10.00">Math/GenVector/PositionVector2D.h</text>
</g>
<!-- Node14&#45;&gt;Node16 -->
<g id="edge16" class="edge"><title>Node14&#45;&gt;Node16</title>
<path fill="none" stroke="midnightblue" d="M167.103,-74.3717C152.116,-63.5015 126.138,-44.6602 108.058,-31.5474"/>
<polygon fill="midnightblue" stroke="midnightblue" points="110.05,-28.6684 99.8996,-25.6305 105.94,-34.3349 110.05,-28.6684"/>
</g>
<!-- Node18&#45;&gt;Node2 -->
<g id="edge22" class="edge"><title>Node18&#45;&gt;Node2</title>
<path fill="none" stroke="midnightblue" d="M1536.62,-136.403C1493.89,-125.401 1420.04,-106.384 1375.14,-94.8215"/>
<polygon fill="midnightblue" stroke="midnightblue" points="1375.76,-91.367 1365.2,-92.2626 1374.01,-98.1459 1375.76,-91.367"/>
</g>
<!-- Node18&#45;&gt;Node6 -->
<g id="edge20" class="edge"><title>Node18&#45;&gt;Node6</title>
<path fill="none" stroke="midnightblue" d="M1522.02,-136.422C1499.54,-130.018 1474.2,-118.961 1458,-100 1442.73,-82.1279 1439.1,-54.4384 1438.54,-36.0209"/>
<polygon fill="midnightblue" stroke="midnightblue" points="1442.04,-35.9121 1438.51,-25.9222 1435.04,-35.9323 1442.04,-35.9121"/>
</g>
<!-- Node19 -->
<g id="node19" class="node"><title>Node19</title>
<polygon fill="none" stroke="#bfbfbf" points="1467,-74.5 1467,-93.5 1513,-93.5 1513,-74.5 1467,-74.5"/>
<text text-anchor="middle" x="1490" y="-81.5" font-family="Helvetica,sans-Serif" font-size="10.00">cstdint</text>
</g>
<!-- Node18&#45;&gt;Node19 -->
<g id="edge19" class="edge"><title>Node18&#45;&gt;Node19</title>
<path fill="none" stroke="midnightblue" d="M1558.54,-136.403C1545.83,-126.869 1525.09,-111.315 1509.75,-99.8106"/>
<polygon fill="midnightblue" stroke="midnightblue" points="1511.54,-96.7806 1501.44,-93.5806 1507.34,-102.381 1511.54,-96.7806"/>
</g>
<!-- Node20 -->
<g id="node20" class="node"><title>Node20</title>
<polygon fill="none" stroke="#bfbfbf" points="1531,-74.5 1531,-93.5 1593,-93.5 1593,-74.5 1531,-74.5"/>
<text text-anchor="middle" x="1562" y="-81.5" font-family="Helvetica,sans-Serif" font-size="10.00">type_traits</text>
</g>
<!-- Node18&#45;&gt;Node20 -->
<g id="edge21" class="edge"><title>Node18&#45;&gt;Node20</title>
<path fill="none" stroke="midnightblue" d="M1568.85,-136.403C1567.73,-127.938 1565.96,-114.728 1564.51,-103.82"/>
<polygon fill="midnightblue" stroke="midnightblue" points="1567.94,-103.03 1563.14,-93.5806 1561,-103.955 1567.94,-103.03"/>
</g>
<!-- Node21 -->
<g id="node21" class="node"><title>Node21</title>
<g id="a_node21"><a xlink:href="../../d9/ded/Utils_8h.html" target="_top" xlink:title="DetectorsBase/Utils.h">
<polygon fill="none" stroke="black" points="1611.5,-74.5 1611.5,-93.5 1724.5,-93.5 1724.5,-74.5 1611.5,-74.5"/>
<text text-anchor="middle" x="1668" y="-81.5" font-family="Helvetica,sans-Serif" font-size="10.00">DetectorsBase/Utils.h</text>
</a>
</g>
</g>
<!-- Node18&#45;&gt;Node21 -->
<g id="edge23" class="edge"><title>Node18&#45;&gt;Node21</title>
<path fill="none" stroke="midnightblue" d="M1584.04,-136.403C1600.05,-126.601 1626.45,-110.439 1645.37,-98.8526"/>
<polygon fill="midnightblue" stroke="midnightblue" points="1647.28,-101.787 1653.99,-93.5806 1643.63,-95.8172 1647.28,-101.787"/>
</g>
<!-- Node24 -->
<g id="node24" class="node"><title>Node24</title>
<polygon fill="none" stroke="#bfbfbf" points="1742.5,-74.5 1742.5,-93.5 1791.5,-93.5 1791.5,-74.5 1742.5,-74.5"/>
<text text-anchor="middle" x="1767" y="-81.5" font-family="Helvetica,sans-Serif" font-size="10.00">cassert</text>
</g>
<!-- Node18&#45;&gt;Node24 -->
<g id="edge27" class="edge"><title>Node18&#45;&gt;Node24</title>
<path fill="none" stroke="midnightblue" d="M1606.73,-136.491C1640.08,-128.381 1690.41,-115.18 1733,-100 1735.12,-99.2431 1737.3,-98.4135 1739.48,-97.545"/>
<polygon fill="midnightblue" stroke="midnightblue" points="1740.99,-100.704 1748.85,-93.5942 1738.27,-94.2542 1740.99,-100.704"/>
</g>
<!-- Node21&#45;&gt;Node6 -->
<g id="edge26" class="edge"><title>Node21&#45;&gt;Node6</title>
<path fill="none" stroke="midnightblue" d="M1638.06,-74.3717C1593.84,-61.6264 1511.6,-37.9227 1467.95,-25.3432"/>
<polygon fill="midnightblue" stroke="midnightblue" points="1468.81,-21.95 1458.23,-22.5437 1466.87,-28.6762 1468.81,-21.95"/>
</g>
<!-- Node22 -->
<g id="node22" class="node"><title>Node22</title>
<g id="a_node22"><a xlink:href="../../d1/daa/Base_2include_2DetectorsBase_2Constants_8h.html" target="_top" xlink:title="DetectorsBase/Constants.h">
<polygon fill="none" stroke="black" points="1653,-6.5 1653,-25.5 1791,-25.5 1791,-6.5 1653,-6.5"/>
<text text-anchor="middle" x="1722" y="-13.5" font-family="Helvetica,sans-Serif" font-size="10.00">DetectorsBase/Constants.h</text>
</a>
</g>
</g>
<!-- Node21&#45;&gt;Node22 -->
<g id="edge24" class="edge"><title>Node21&#45;&gt;Node22</title>
<path fill="none" stroke="midnightblue" d="M1675.06,-74.3717C1683.5,-64.053 1697.82,-46.5513 1708.43,-33.5854"/>
<polygon fill="midnightblue" stroke="midnightblue" points="1711.14,-35.7971 1714.77,-25.8411 1705.73,-31.3644 1711.14,-35.7971"/>
</g>
<!-- Node23 -->
<g id="node23" class="node"><title>Node23</title>
<polygon fill="none" stroke="#bfbfbf" points="1591,-6.5 1591,-25.5 1635,-25.5 1635,-6.5 1591,-6.5"/>
<text text-anchor="middle" x="1613" y="-13.5" font-family="Helvetica,sans-Serif" font-size="10.00">cmath</text>
</g>
<!-- Node21&#45;&gt;Node23 -->
<g id="edge25" class="edge"><title>Node21&#45;&gt;Node23</title>
<path fill="none" stroke="midnightblue" d="M1660.81,-74.3717C1652.21,-64.053 1637.63,-46.5513 1626.82,-33.5854"/>
<polygon fill="midnightblue" stroke="midnightblue" points="1629.46,-31.2827 1620.37,-25.8411 1624.08,-35.764 1629.46,-31.2827"/>
</g>
</g>
</svg>
