<?xml version="1.0" encoding="UTF-8" standalone="no"?>
<!DOCTYPE svg PUBLIC "-//W3C//DTD SVG 1.1//EN"
 "http://www.w3.org/Graphics/SVG/1.1/DTD/svg11.dtd">
<!-- Generated by graphviz version 2.36.0 (20140111.2315)
 -->
<!-- Title: o2::ITSMFT::Cluster Pages: 1 -->
<svg width="765pt" height="1628pt"
 viewBox="0.00 0.00 765.00 1628.00" xmlns="http://www.w3.org/2000/svg" xmlns:xlink="http://www.w3.org/1999/xlink">
<g id="graph0" class="graph" transform="scale(1 1) rotate(0) translate(4 1624)">
<title>o2::ITSMFT::Cluster</title>
<!-- Node1 -->
<g id="node1" class="node"><title>Node1</title>
<polygon fill="#bfbfbf" stroke="black" points="463,-1 463,-421 603,-421 603,-1 463,-1"/>
<text text-anchor="middle" x="533" y="-409" font-family="Helvetica,sans-Serif" font-size="10.00">o2::ITSMFT::Cluster</text>
<polyline fill="none" stroke="black" points="463,-402 603,-402 "/>
<text text-anchor="middle" x="533" y="-390" font-family="Helvetica,sans-Serif" font-size="10.00"> </text>
<polyline fill="none" stroke="black" points="463,-383 603,-383 "/>
<text text-anchor="start" x="471" y="-371" font-family="Helvetica,sans-Serif" font-size="10.00">+ ~Cluster()</text>
<text text-anchor="start" x="471" y="-360" font-family="Helvetica,sans-Serif" font-size="10.00">+ operator=()</text>
<text text-anchor="start" x="471" y="-349" font-family="Helvetica,sans-Serif" font-size="10.00">+ setUsed()</text>
<text text-anchor="start" x="471" y="-338" font-family="Helvetica,sans-Serif" font-size="10.00">+ setShared()</text>
<text text-anchor="start" x="471" y="-327" font-family="Helvetica,sans-Serif" font-size="10.00">+ increaseClusterUsage()</text>
<text text-anchor="start" x="471" y="-316" font-family="Helvetica,sans-Serif" font-size="10.00">+ isUsed()</text>
<text text-anchor="start" x="471" y="-305" font-family="Helvetica,sans-Serif" font-size="10.00">+ isShared()</text>
<text text-anchor="start" x="471" y="-294" font-family="Helvetica,sans-Serif" font-size="10.00">+ setNxNzN()</text>
<text text-anchor="start" x="471" y="-283" font-family="Helvetica,sans-Serif" font-size="10.00">+ setClusterUsage()</text>
<text text-anchor="start" x="471" y="-272" font-family="Helvetica,sans-Serif" font-size="10.00">+ modifyClusterUsage()</text>
<text text-anchor="start" x="471" y="-261" font-family="Helvetica,sans-Serif" font-size="10.00">+ incClusterUsage()</text>
<text text-anchor="start" x="471" y="-250" font-family="Helvetica,sans-Serif" font-size="10.00">+ decreaseClusterUsage()</text>
<text text-anchor="start" x="471" y="-239" font-family="Helvetica,sans-Serif" font-size="10.00">+ getNx()</text>
<text text-anchor="start" x="471" y="-228" font-family="Helvetica,sans-Serif" font-size="10.00">+ getNz()</text>
<text text-anchor="start" x="471" y="-217" font-family="Helvetica,sans-Serif" font-size="10.00">+ getNPix()</text>
<text text-anchor="start" x="471" y="-206" font-family="Helvetica,sans-Serif" font-size="10.00">+ getClusterUsage()</text>
<text text-anchor="start" x="471" y="-195" font-family="Helvetica,sans-Serif" font-size="10.00">+ getROFrame()</text>
<text text-anchor="start" x="471" y="-184" font-family="Helvetica,sans-Serif" font-size="10.00">+ setROFrame()</text>
<text text-anchor="start" x="471" y="-173" font-family="Helvetica,sans-Serif" font-size="10.00">+ print()</text>
<text text-anchor="start" x="471" y="-162" font-family="Helvetica,sans-Serif" font-size="10.00">+ getPatternRowSpan()</text>
<text text-anchor="start" x="471" y="-151" font-family="Helvetica,sans-Serif" font-size="10.00">+ getPatternColSpan()</text>
<text text-anchor="start" x="471" y="-140" font-family="Helvetica,sans-Serif" font-size="10.00">+ isPatternRowsTruncated()</text>
<text text-anchor="start" x="471" y="-129" font-family="Helvetica,sans-Serif" font-size="10.00">+ isPatternColsTruncated()</text>
<text text-anchor="start" x="471" y="-118" font-family="Helvetica,sans-Serif" font-size="10.00">+ isPatternTruncated()</text>
<text text-anchor="start" x="471" y="-107" font-family="Helvetica,sans-Serif" font-size="10.00">+ setPatternRowSpan()</text>
<text text-anchor="start" x="471" y="-96" font-family="Helvetica,sans-Serif" font-size="10.00">+ setPatternColSpan()</text>
<text text-anchor="start" x="471" y="-85" font-family="Helvetica,sans-Serif" font-size="10.00">+ setPatternRowMin()</text>
<text text-anchor="start" x="471" y="-74" font-family="Helvetica,sans-Serif" font-size="10.00">+ setPatternColMin()</text>
<text text-anchor="start" x="471" y="-63" font-family="Helvetica,sans-Serif" font-size="10.00">+ resetPattern()</text>
<text text-anchor="start" x="471" y="-52" font-family="Helvetica,sans-Serif" font-size="10.00">+ testPixel()</text>
<text text-anchor="start" x="471" y="-41" font-family="Helvetica,sans-Serif" font-size="10.00">+ setPixel()</text>
<text text-anchor="start" x="471" y="-30" font-family="Helvetica,sans-Serif" font-size="10.00">+ getPattern()</text>
<text text-anchor="start" x="471" y="-19" font-family="Helvetica,sans-Serif" font-size="10.00">+ getPatternRowMin()</text>
<text text-anchor="start" x="471" y="-8" font-family="Helvetica,sans-Serif" font-size="10.00">+ getPatternColMin()</text>
</g>
<!-- Node2 -->
<g id="node2" class="node"><title>Node2</title>
<g id="a_node2"><a xlink:href="../../d4/d17/classo2_1_1Base_1_1BaseCluster.html" target="_top" xlink:title="{o2::Base::BaseCluster\l\&lt; float \&gt;\n||+ BaseCluster()\l+ BaseCluster()\l+ BaseCluster()\l+ BaseCluster()\l+ BaseCluster()\l+ getX()\l+ getY()\l+ getZ()\l+ getSigmaY2()\l+ getSigmaZ2()\l+ getSigmaYZ()\l+ getXYZ()\l+ getXYZ()\l+ getXYZLoc()\l+ getXYZGlo()\l+ getXYZGloRot()\l+ getSensorID()\l+ getCount()\l+ getBits()\l+ isBitSet()\l+ operator Point3D\&lt; float \&gt; &amp;()\l+ setSensorID()\l+ setCount()\l+ setBits()\l+ setBit()\l+ resetBit()\l+ setX()\l+ setY()\l+ setZ()\l+ setXYZ()\l+ setPos()\l+ setSigmaY2()\l+ setSigmaZ2()\l+ setSigmaYZ()\l+ setErrors()\l# ~BaseCluster()\l# ClassDefOverride()\l}">
<polygon fill="none" stroke="black" points="216,-503 216,-967 368,-967 368,-503 216,-503"/>
<text text-anchor="start" x="224" y="-955" font-family="Helvetica,sans-Serif" font-size="10.00">o2::Base::BaseCluster</text>
<text text-anchor="middle" x="292" y="-944" font-family="Helvetica,sans-Serif" font-size="10.00">&lt; float &gt;</text>
<polyline fill="none" stroke="black" points="216,-937 368,-937 "/>
<text text-anchor="middle" x="292" y="-925" font-family="Helvetica,sans-Serif" font-size="10.00"> </text>
<polyline fill="none" stroke="black" points="216,-918 368,-918 "/>
<text text-anchor="start" x="224" y="-906" font-family="Helvetica,sans-Serif" font-size="10.00">+ BaseCluster()</text>
<text text-anchor="start" x="224" y="-895" font-family="Helvetica,sans-Serif" font-size="10.00">+ BaseCluster()</text>
<text text-anchor="start" x="224" y="-884" font-family="Helvetica,sans-Serif" font-size="10.00">+ BaseCluster()</text>
<text text-anchor="start" x="224" y="-873" font-family="Helvetica,sans-Serif" font-size="10.00">+ BaseCluster()</text>
<text text-anchor="start" x="224" y="-862" font-family="Helvetica,sans-Serif" font-size="10.00">+ BaseCluster()</text>
<text text-anchor="start" x="224" y="-851" font-family="Helvetica,sans-Serif" font-size="10.00">+ getX()</text>
<text text-anchor="start" x="224" y="-840" font-family="Helvetica,sans-Serif" font-size="10.00">+ getY()</text>
<text text-anchor="start" x="224" y="-829" font-family="Helvetica,sans-Serif" font-size="10.00">+ getZ()</text>
<text text-anchor="start" x="224" y="-818" font-family="Helvetica,sans-Serif" font-size="10.00">+ getSigmaY2()</text>
<text text-anchor="start" x="224" y="-807" font-family="Helvetica,sans-Serif" font-size="10.00">+ getSigmaZ2()</text>
<text text-anchor="start" x="224" y="-796" font-family="Helvetica,sans-Serif" font-size="10.00">+ getSigmaYZ()</text>
<text text-anchor="start" x="224" y="-785" font-family="Helvetica,sans-Serif" font-size="10.00">+ getXYZ()</text>
<text text-anchor="start" x="224" y="-774" font-family="Helvetica,sans-Serif" font-size="10.00">+ getXYZ()</text>
<text text-anchor="start" x="224" y="-763" font-family="Helvetica,sans-Serif" font-size="10.00">+ getXYZLoc()</text>
<text text-anchor="start" x="224" y="-752" font-family="Helvetica,sans-Serif" font-size="10.00">+ getXYZGlo()</text>
<text text-anchor="start" x="224" y="-741" font-family="Helvetica,sans-Serif" font-size="10.00">+ getXYZGloRot()</text>
<text text-anchor="start" x="224" y="-730" font-family="Helvetica,sans-Serif" font-size="10.00">+ getSensorID()</text>
<text text-anchor="start" x="224" y="-719" font-family="Helvetica,sans-Serif" font-size="10.00">+ getCount()</text>
<text text-anchor="start" x="224" y="-708" font-family="Helvetica,sans-Serif" font-size="10.00">+ getBits()</text>
<text text-anchor="start" x="224" y="-697" font-family="Helvetica,sans-Serif" font-size="10.00">+ isBitSet()</text>
<text text-anchor="start" x="224" y="-686" font-family="Helvetica,sans-Serif" font-size="10.00">+ operator Point3D&lt; float &gt; &amp;()</text>
<text text-anchor="start" x="224" y="-675" font-family="Helvetica,sans-Serif" font-size="10.00">+ setSensorID()</text>
<text text-anchor="start" x="224" y="-664" font-family="Helvetica,sans-Serif" font-size="10.00">+ setCount()</text>
<text text-anchor="start" x="224" y="-653" font-family="Helvetica,sans-Serif" font-size="10.00">+ setBits()</text>
<text text-anchor="start" x="224" y="-642" font-family="Helvetica,sans-Serif" font-size="10.00">+ setBit()</text>
<text text-anchor="start" x="224" y="-631" font-family="Helvetica,sans-Serif" font-size="10.00">+ resetBit()</text>
<text text-anchor="start" x="224" y="-620" font-family="Helvetica,sans-Serif" font-size="10.00">+ setX()</text>
<text text-anchor="start" x="224" y="-609" font-family="Helvetica,sans-Serif" font-size="10.00">+ setY()</text>
<text text-anchor="start" x="224" y="-598" font-family="Helvetica,sans-Serif" font-size="10.00">+ setZ()</text>
<text text-anchor="start" x="224" y="-587" font-family="Helvetica,sans-Serif" font-size="10.00">+ setXYZ()</text>
<text text-anchor="start" x="224" y="-576" font-family="Helvetica,sans-Serif" font-size="10.00">+ setPos()</text>
<text text-anchor="start" x="224" y="-565" font-family="Helvetica,sans-Serif" font-size="10.00">+ setSigmaY2()</text>
<text text-anchor="start" x="224" y="-554" font-family="Helvetica,sans-Serif" font-size="10.00">+ setSigmaZ2()</text>
<text text-anchor="start" x="224" y="-543" font-family="Helvetica,sans-Serif" font-size="10.00">+ setSigmaYZ()</text>
<text text-anchor="start" x="224" y="-532" font-family="Helvetica,sans-Serif" font-size="10.00">+ setErrors()</text>
<text text-anchor="start" x="224" y="-521" font-family="Helvetica,sans-Serif" font-size="10.00"># ~BaseCluster()</text>
<text text-anchor="start" x="224" y="-510" font-family="Helvetica,sans-Serif" font-size="10.00"># ClassDefOverride()</text>
</a>
</g>
</g>
<!-- Node2&#45;&gt;Node1 -->
<g id="edge1" class="edge"><title>Node2&#45;&gt;Node1</title>
<path fill="none" stroke="midnightblue" d="M371.994,-514.157C373.662,-510.065 375.331,-506.01 377,-502 401.326,-443.544 433.801,-381.391 462.821,-329.679"/>
<polygon fill="none" stroke="midnightblue" points="368.613,-513.181 368.106,-523.764 375.102,-515.807 368.613,-513.181"/>
</g>
<!-- Node3 -->
<g id="node3" class="node"><title>Node3</title>
<polygon fill="none" stroke="#bfbfbf" points="-0.5,-1562.5 -0.5,-1619.5 50.5,-1619.5 50.5,-1562.5 -0.5,-1562.5"/>
<text text-anchor="middle" x="25" y="-1607.5" font-family="Helvetica,sans-Serif" font-size="10.00">TObject</text>
<polyline fill="none" stroke="#bfbfbf" points="-0.5,-1600.5 50.5,-1600.5 "/>
<text text-anchor="middle" x="25" y="-1588.5" font-family="Helvetica,sans-Serif" font-size="10.00"> </text>
<polyline fill="none" stroke="#bfbfbf" points="-0.5,-1581.5 50.5,-1581.5 "/>
<text text-anchor="middle" x="25" y="-1569.5" font-family="Helvetica,sans-Serif" font-size="10.00"> </text>
</g>
<!-- Node3&#45;&gt;Node2 -->
<g id="edge2" class="edge"><title>Node3&#45;&gt;Node2</title>
<path fill="none" stroke="midnightblue" d="M19.8343,-1552.1C8.85635,-1460.63 -10.8724,-1221.74 53,-1038 85.1631,-945.477 158.784,-859.948 215.88,-803.708"/>
<polygon fill="none" stroke="midnightblue" points="16.3898,-1552.77 21.0914,-1562.26 23.3368,-1551.91 16.3898,-1552.77"/>
</g>
<!-- Node9 -->
<g id="node9" class="node"><title>Node9</title>
<g id="a_node9"><a xlink:href="../../d4/d17/classo2_1_1Base_1_1BaseCluster.html" target="_top" xlink:title="{o2::Base::BaseCluster\&lt; T \&gt;\n||+ BaseCluster()\l+ BaseCluster()\l+ BaseCluster()\l+ BaseCluster()\l+ BaseCluster()\l+ getX()\l+ getY()\l+ getZ()\l+ getSigmaY2()\l+ getSigmaZ2()\l+ getSigmaYZ()\l+ getXYZ()\l+ getXYZ()\l+ getXYZLoc()\l+ getXYZGlo()\l+ getXYZGloRot()\l+ getSensorID()\l+ getCount()\l+ getBits()\l+ isBitSet()\l+ operator Point3D\&lt; T \&gt; &amp;()\l+ setSensorID()\l+ setCount()\l+ setBits()\l+ setBit()\l+ resetBit()\l+ setX()\l+ setY()\l+ setZ()\l+ setXYZ()\l+ setPos()\l+ setSigmaY2()\l+ setSigmaZ2()\l+ setSigmaYZ()\l+ setErrors()\l# ~BaseCluster()\l# ClassDefOverride()\l}">
<polygon fill="none" stroke="black" points="222,-1038.5 222,-1491.5 362,-1491.5 362,-1038.5 222,-1038.5"/>
<text text-anchor="middle" x="292" y="-1479.5" font-family="Helvetica,sans-Serif" font-size="10.00">o2::Base::BaseCluster&lt; T &gt;</text>
<polyline fill="none" stroke="black" points="222,-1472.5 362,-1472.5 "/>
<text text-anchor="middle" x="292" y="-1460.5" font-family="Helvetica,sans-Serif" font-size="10.00"> </text>
<polyline fill="none" stroke="black" points="222,-1453.5 362,-1453.5 "/>
<text text-anchor="start" x="230" y="-1441.5" font-family="Helvetica,sans-Serif" font-size="10.00">+ BaseCluster()</text>
<text text-anchor="start" x="230" y="-1430.5" font-family="Helvetica,sans-Serif" font-size="10.00">+ BaseCluster()</text>
<text text-anchor="start" x="230" y="-1419.5" font-family="Helvetica,sans-Serif" font-size="10.00">+ BaseCluster()</text>
<text text-anchor="start" x="230" y="-1408.5" font-family="Helvetica,sans-Serif" font-size="10.00">+ BaseCluster()</text>
<text text-anchor="start" x="230" y="-1397.5" font-family="Helvetica,sans-Serif" font-size="10.00">+ BaseCluster()</text>
<text text-anchor="start" x="230" y="-1386.5" font-family="Helvetica,sans-Serif" font-size="10.00">+ getX()</text>
<text text-anchor="start" x="230" y="-1375.5" font-family="Helvetica,sans-Serif" font-size="10.00">+ getY()</text>
<text text-anchor="start" x="230" y="-1364.5" font-family="Helvetica,sans-Serif" font-size="10.00">+ getZ()</text>
<text text-anchor="start" x="230" y="-1353.5" font-family="Helvetica,sans-Serif" font-size="10.00">+ getSigmaY2()</text>
<text text-anchor="start" x="230" y="-1342.5" font-family="Helvetica,sans-Serif" font-size="10.00">+ getSigmaZ2()</text>
<text text-anchor="start" x="230" y="-1331.5" font-family="Helvetica,sans-Serif" font-size="10.00">+ getSigmaYZ()</text>
<text text-anchor="start" x="230" y="-1320.5" font-family="Helvetica,sans-Serif" font-size="10.00">+ getXYZ()</text>
<text text-anchor="start" x="230" y="-1309.5" font-family="Helvetica,sans-Serif" font-size="10.00">+ getXYZ()</text>
<text text-anchor="start" x="230" y="-1298.5" font-family="Helvetica,sans-Serif" font-size="10.00">+ getXYZLoc()</text>
<text text-anchor="start" x="230" y="-1287.5" font-family="Helvetica,sans-Serif" font-size="10.00">+ getXYZGlo()</text>
<text text-anchor="start" x="230" y="-1276.5" font-family="Helvetica,sans-Serif" font-size="10.00">+ getXYZGloRot()</text>
<text text-anchor="start" x="230" y="-1265.5" font-family="Helvetica,sans-Serif" font-size="10.00">+ getSensorID()</text>
<text text-anchor="start" x="230" y="-1254.5" font-family="Helvetica,sans-Serif" font-size="10.00">+ getCount()</text>
<text text-anchor="start" x="230" y="-1243.5" font-family="Helvetica,sans-Serif" font-size="10.00">+ getBits()</text>
<text text-anchor="start" x="230" y="-1232.5" font-family="Helvetica,sans-Serif" font-size="10.00">+ isBitSet()</text>
<text text-anchor="start" x="230" y="-1221.5" font-family="Helvetica,sans-Serif" font-size="10.00">+ operator Point3D&lt; T &gt; &amp;()</text>
<text text-anchor="start" x="230" y="-1210.5" font-family="Helvetica,sans-Serif" font-size="10.00">+ setSensorID()</text>
<text text-anchor="start" x="230" y="-1199.5" font-family="Helvetica,sans-Serif" font-size="10.00">+ setCount()</text>
<text text-anchor="start" x="230" y="-1188.5" font-family="Helvetica,sans-Serif" font-size="10.00">+ setBits()</text>
<text text-anchor="start" x="230" y="-1177.5" font-family="Helvetica,sans-Serif" font-size="10.00">+ setBit()</text>
<text text-anchor="start" x="230" y="-1166.5" font-family="Helvetica,sans-Serif" font-size="10.00">+ resetBit()</text>
<text text-anchor="start" x="230" y="-1155.5" font-family="Helvetica,sans-Serif" font-size="10.00">+ setX()</text>
<text text-anchor="start" x="230" y="-1144.5" font-family="Helvetica,sans-Serif" font-size="10.00">+ setY()</text>
<text text-anchor="start" x="230" y="-1133.5" font-family="Helvetica,sans-Serif" font-size="10.00">+ setZ()</text>
<text text-anchor="start" x="230" y="-1122.5" font-family="Helvetica,sans-Serif" font-size="10.00">+ setXYZ()</text>
<text text-anchor="start" x="230" y="-1111.5" font-family="Helvetica,sans-Serif" font-size="10.00">+ setPos()</text>
<text text-anchor="start" x="230" y="-1100.5" font-family="Helvetica,sans-Serif" font-size="10.00">+ setSigmaY2()</text>
<text text-anchor="start" x="230" y="-1089.5" font-family="Helvetica,sans-Serif" font-size="10.00">+ setSigmaZ2()</text>
<text text-anchor="start" x="230" y="-1078.5" font-family="Helvetica,sans-Serif" font-size="10.00">+ setSigmaYZ()</text>
<text text-anchor="start" x="230" y="-1067.5" font-family="Helvetica,sans-Serif" font-size="10.00">+ setErrors()</text>
<text text-anchor="start" x="230" y="-1056.5" font-family="Helvetica,sans-Serif" font-size="10.00"># ~BaseCluster()</text>
<text text-anchor="start" x="230" y="-1045.5" font-family="Helvetica,sans-Serif" font-size="10.00"># ClassDefOverride()</text>
</a>
</g>
</g>
<!-- Node3&#45;&gt;Node9 -->
<g id="edge9" class="edge"><title>Node3&#45;&gt;Node9</title>
<path fill="none" stroke="midnightblue" d="M53.5462,-1554.6C68.4035,-1538.53 87.8652,-1520.75 109,-1510 148.863,-1489.73 173.72,-1520.72 208,-1492 212.813,-1487.97 217.35,-1483.63 221.627,-1479.04"/>
<polygon fill="none" stroke="midnightblue" points="50.7005,-1552.53 46.6353,-1562.32 55.9146,-1557.21 50.7005,-1552.53"/>
</g>
<!-- Node4 -->
<g id="node4" class="node"><title>Node4</title>
<polygon fill="none" stroke="#bfbfbf" points="74.5,-1562.5 74.5,-1619.5 115.5,-1619.5 115.5,-1562.5 74.5,-1562.5"/>
<text text-anchor="middle" x="95" y="-1607.5" font-family="Helvetica,sans-Serif" font-size="10.00">int8_t</text>
<polyline fill="none" stroke="#bfbfbf" points="74.5,-1600.5 115.5,-1600.5 "/>
<text text-anchor="middle" x="95" y="-1588.5" font-family="Helvetica,sans-Serif" font-size="10.00"> </text>
<polyline fill="none" stroke="#bfbfbf" points="74.5,-1581.5 115.5,-1581.5 "/>
<text text-anchor="middle" x="95" y="-1569.5" font-family="Helvetica,sans-Serif" font-size="10.00"> </text>
</g>
<!-- Node4&#45;&gt;Node2 -->
<g id="edge3" class="edge"><title>Node4&#45;&gt;Node2</title>
<path fill="none" stroke="#404040" d="M88.7765,-1562.45C71.4439,-1480.36 27.6591,-1231.08 87,-1038 110.934,-960.126 162.53,-884.303 207.969,-828.112"/>
<polygon fill="none" stroke="#404040" points="208.186,-827.846 208.891,-820.669 215.786,-818.56 215.082,-825.736 208.186,-827.846"/>
<text text-anchor="middle" x="108.5" y="-1262.5" font-family="Helvetica,sans-Serif" font-size="10.00"> #mCount</text>
</g>
<!-- Node4&#45;&gt;Node9 -->
<g id="edge10" class="edge"><title>Node4&#45;&gt;Node9</title>
<path fill="none" stroke="#404040" d="M103.36,-1562.46C110.039,-1544.98 121.12,-1523.23 138,-1510 163.285,-1490.19 184.134,-1513.5 208,-1492 209.808,-1490.37 211.577,-1488.7 213.307,-1486.99"/>
<polygon fill="none" stroke="#404040" points="213.43,-1486.86 214.625,-1479.75 221.65,-1478.12 220.454,-1485.23 213.43,-1486.86"/>
<text text-anchor="middle" x="159.5" y="-1524.5" font-family="Helvetica,sans-Serif" font-size="10.00"> #mCount</text>
</g>
<!-- Node5 -->
<g id="node5" class="node"><title>Node5</title>
<polygon fill="none" stroke="#bfbfbf" points="136.5,-1562.5 136.5,-1619.5 187.5,-1619.5 187.5,-1562.5 136.5,-1562.5"/>
<text text-anchor="middle" x="162" y="-1607.5" font-family="Helvetica,sans-Serif" font-size="10.00">uint16_t</text>
<polyline fill="none" stroke="#bfbfbf" points="136.5,-1600.5 187.5,-1600.5 "/>
<text text-anchor="middle" x="162" y="-1588.5" font-family="Helvetica,sans-Serif" font-size="10.00"> </text>
<polyline fill="none" stroke="#bfbfbf" points="136.5,-1581.5 187.5,-1581.5 "/>
<text text-anchor="middle" x="162" y="-1569.5" font-family="Helvetica,sans-Serif" font-size="10.00"> </text>
</g>
<!-- Node5&#45;&gt;Node2 -->
<g id="edge4" class="edge"><title>Node5&#45;&gt;Node2</title>
<path fill="none" stroke="#404040" d="M157.329,-1562.28C144.501,-1480.73 112.415,-1234.95 155,-1038 166.429,-985.141 187.916,-930.413 210.541,-882.304"/>
<polygon fill="none" stroke="#404040" points="210.678,-882.017 209.651,-874.88 215.844,-871.187 216.871,-878.324 210.678,-882.017"/>
<text text-anchor="middle" x="184" y="-1262.5" font-family="Helvetica,sans-Serif" font-size="10.00"> #mSensorID</text>
</g>
<!-- Node5&#45;&gt;Node9 -->
<g id="edge12" class="edge"><title>Node5&#45;&gt;Node9</title>
<path fill="none" stroke="#404040" d="M175.707,-1562.4C185.197,-1542.91 197.89,-1516.09 208,-1492 211.129,-1484.54 214.264,-1476.93 217.386,-1469.22"/>
<polygon fill="none" stroke="#404040" points="217.476,-1468.99 216.001,-1461.93 221.95,-1457.86 223.425,-1464.91 217.476,-1468.99"/>
<text text-anchor="middle" x="229" y="-1524.5" font-family="Helvetica,sans-Serif" font-size="10.00"> #mSensorID</text>
</g>
<!-- Node6 -->
<g id="node6" class="node"><title>Node6</title>
<polygon fill="none" stroke="#bfbfbf" points="453,-1562.5 453,-1619.5 499,-1619.5 499,-1562.5 453,-1562.5"/>
<text text-anchor="middle" x="476" y="-1607.5" font-family="Helvetica,sans-Serif" font-size="10.00">uint8_t</text>
<polyline fill="none" stroke="#bfbfbf" points="453,-1600.5 499,-1600.5 "/>
<text text-anchor="middle" x="476" y="-1588.5" font-family="Helvetica,sans-Serif" font-size="10.00"> </text>
<polyline fill="none" stroke="#bfbfbf" points="453,-1581.5 499,-1581.5 "/>
<text text-anchor="middle" x="476" y="-1569.5" font-family="Helvetica,sans-Serif" font-size="10.00"> </text>
</g>
<!-- Node6&#45;&gt;Node2 -->
<g id="edge5" class="edge"><title>Node6&#45;&gt;Node2</title>
<path fill="none" stroke="#404040" d="M496.781,-1562.09C509.407,-1543.34 524.338,-1517.48 531,-1492 582.036,-1296.78 598.235,-1228.25 531,-1038 521.101,-1009.99 514.702,-1000.9 489,-986 448.449,-962.492 420.116,-994.857 378.142,-967.567"/>
<polygon fill="none" stroke="#404040" points="378.002,-967.463 370.8,-967.092 368.373,-960.301 375.575,-960.672 378.002,-967.463"/>
<text text-anchor="middle" x="593" y="-1262.5" font-family="Helvetica,sans-Serif" font-size="10.00"> #mBits</text>
</g>
<!-- Node6&#45;&gt;Node9 -->
<g id="edge13" class="edge"><title>Node6&#45;&gt;Node9</title>
<path fill="none" stroke="#404040" d="M452.68,-1567.79C435.675,-1551.65 412.024,-1529.35 391,-1510 382.201,-1501.9 377.625,-1501.96 371,-1492 370.142,-1490.71 369.292,-1489.41 368.45,-1488.1"/>
<polygon fill="none" stroke="#404040" points="368.448,-1488.1 361.897,-1485.08 362.157,-1477.88 368.709,-1480.89 368.448,-1488.1"/>
<text text-anchor="middle" x="444" y="-1524.5" font-family="Helvetica,sans-Serif" font-size="10.00"> #mBits</text>
</g>
<!-- Node7 -->
<g id="node7" class="node"><title>Node7</title>
<g id="a_node7"><a xlink:href="../../d4/dc3/classfloat.html" target="_top" xlink:title="{float\n||}">
<polygon fill="none" stroke="black" points="380.5,-1236.5 380.5,-1293.5 415.5,-1293.5 415.5,-1236.5 380.5,-1236.5"/>
<text text-anchor="middle" x="398" y="-1281.5" font-family="Helvetica,sans-Serif" font-size="10.00">float</text>
<polyline fill="none" stroke="black" points="380.5,-1274.5 415.5,-1274.5 "/>
<text text-anchor="middle" x="398" y="-1262.5" font-family="Helvetica,sans-Serif" font-size="10.00"> </text>
<polyline fill="none" stroke="black" points="380.5,-1255.5 415.5,-1255.5 "/>
<text text-anchor="middle" x="398" y="-1243.5" font-family="Helvetica,sans-Serif" font-size="10.00"> </text>
</a>
</g>
</g>
<!-- Node7&#45;&gt;Node2 -->
<g id="edge6" class="edge"><title>Node7&#45;&gt;Node2</title>
<path fill="none" stroke="#404040" d="M395.923,-1236.33C392.436,-1193.54 384.434,-1108.85 371,-1038 367.35,-1018.75 363.155,-998.912 358.642,-979.039"/>
<polygon fill="none" stroke="#404040" points="358.641,-979.033 353.397,-974.082 355.95,-967.338 361.194,-972.288 358.641,-979.033"/>
<text text-anchor="middle" x="396" y="-1011.5" font-family="Helvetica,sans-Serif" font-size="10.00"> #mSigmaYZ</text>
<text text-anchor="middle" x="396" y="-1000.5" font-family="Helvetica,sans-Serif" font-size="10.00">#mSigmaZ2</text>
<text text-anchor="middle" x="396" y="-989.5" font-family="Helvetica,sans-Serif" font-size="10.00">#mSigmaY2</text>
</g>
<!-- Node8 -->
<g id="node8" class="node"><title>Node8</title>
<g id="a_node8"><a xlink:href="../../d1/dd1/classPoint3D_3_01float_01_4.html" target="_top" xlink:title="{Point3D\&lt; float \&gt;\n||}">
<polygon fill="none" stroke="black" points="433.5,-1236.5 433.5,-1293.5 522.5,-1293.5 522.5,-1236.5 433.5,-1236.5"/>
<text text-anchor="middle" x="478" y="-1281.5" font-family="Helvetica,sans-Serif" font-size="10.00">Point3D&lt; float &gt;</text>
<polyline fill="none" stroke="black" points="433.5,-1274.5 522.5,-1274.5 "/>
<text text-anchor="middle" x="478" y="-1262.5" font-family="Helvetica,sans-Serif" font-size="10.00"> </text>
<polyline fill="none" stroke="black" points="433.5,-1255.5 522.5,-1255.5 "/>
<text text-anchor="middle" x="478" y="-1243.5" font-family="Helvetica,sans-Serif" font-size="10.00"> </text>
</a>
</g>
</g>
<!-- Node8&#45;&gt;Node2 -->
<g id="edge7" class="edge"><title>Node8&#45;&gt;Node2</title>
<path fill="none" stroke="#404040" d="M481.583,-1236.13C486.999,-1181.32 490.844,-1058.53 429,-986 413.133,-967.39 394.448,-985.138 377,-968 376.809,-967.812 376.618,-967.624 376.427,-967.435"/>
<polygon fill="none" stroke="#404040" points="376.371,-967.375 369.345,-965.749 368.143,-958.639 375.169,-960.264 376.371,-967.375"/>
<text text-anchor="middle" x="468" y="-1000.5" font-family="Helvetica,sans-Serif" font-size="10.00"> #mPos</text>
</g>
<!-- Node9&#45;&gt;Node2 -->
<g id="edge8" class="edge"><title>Node9&#45;&gt;Node2</title>
<path fill="none" stroke="orange" d="M292,-1027.94C292,-1007.72 292,-987.288 292,-967.111"/>
<polygon fill="orange" stroke="orange" points="288.5,-1028.17 292,-1038.17 295.5,-1028.17 288.5,-1028.17"/>
<text text-anchor="middle" x="312" y="-1000.5" font-family="Helvetica,sans-Serif" font-size="10.00"> &lt; float &gt;</text>
</g>
<!-- Node10 -->
<g id="node10" class="node"><title>Node10</title>
<polygon fill="none" stroke="#bfbfbf" points="325,-1562.5 325,-1619.5 401,-1619.5 401,-1562.5 325,-1562.5"/>
<text text-anchor="middle" x="363" y="-1607.5" font-family="Helvetica,sans-Serif" font-size="10.00">Point3D&lt; T &gt;</text>
<polyline fill="none" stroke="#bfbfbf" points="325,-1600.5 401,-1600.5 "/>
<text text-anchor="middle" x="363" y="-1588.5" font-family="Helvetica,sans-Serif" font-size="10.00"> </text>
<polyline fill="none" stroke="#bfbfbf" points="325,-1581.5 401,-1581.5 "/>
<text text-anchor="middle" x="363" y="-1569.5" font-family="Helvetica,sans-Serif" font-size="10.00"> </text>
</g>
<!-- Node10&#45;&gt;Node9 -->
<g id="edge11" class="edge"><title>Node10&#45;&gt;Node9</title>
<path fill="none" stroke="#404040" d="M356.947,-1562.38C353.619,-1547.19 349.141,-1526.76 344.085,-1503.68"/>
<polygon fill="none" stroke="#404040" points="344.044,-1503.49 338.852,-1498.49 341.475,-1491.77 346.667,-1496.78 344.044,-1503.49"/>
<text text-anchor="middle" x="370" y="-1524.5" font-family="Helvetica,sans-Serif" font-size="10.00"> #mPos</text>
</g>
<!-- Node11 -->
<g id="node11" class="node"><title>Node11</title>
<polygon fill="none" stroke="#bfbfbf" points="267.5,-1562.5 267.5,-1619.5 296.5,-1619.5 296.5,-1562.5 267.5,-1562.5"/>
<text text-anchor="middle" x="282" y="-1607.5" font-family="Helvetica,sans-Serif" font-size="10.00">T</text>
<polyline fill="none" stroke="#bfbfbf" points="267.5,-1600.5 296.5,-1600.5 "/>
<text text-anchor="middle" x="282" y="-1588.5" font-family="Helvetica,sans-Serif" font-size="10.00"> </text>
<polyline fill="none" stroke="#bfbfbf" points="267.5,-1581.5 296.5,-1581.5 "/>
<text text-anchor="middle" x="282" y="-1569.5" font-family="Helvetica,sans-Serif" font-size="10.00"> </text>
</g>
<!-- Node11&#45;&gt;Node9 -->
<g id="edge14" class="edge"><title>Node11&#45;&gt;Node9</title>
<path fill="none" stroke="#404040" d="M282.181,-1562.23C282.323,-1546.84 282.571,-1527.36 283,-1510 283.051,-1507.92 283.104,-1505.84 283.158,-1503.74"/>
<polygon fill="none" stroke="#404040" points="283.16,-1503.66 279.321,-1497.55 283.479,-1491.66 287.318,-1497.76 283.16,-1503.66"/>
<text text-anchor="middle" x="312" y="-1535.5" font-family="Helvetica,sans-Serif" font-size="10.00"> #mSigmaYZ</text>
<text text-anchor="middle" x="312" y="-1524.5" font-family="Helvetica,sans-Serif" font-size="10.00">#mSigmaZ2</text>
<text text-anchor="middle" x="312" y="-1513.5" font-family="Helvetica,sans-Serif" font-size="10.00">#mSigmaY2</text>
</g>
<!-- Node12 -->
<g id="node12" class="node"><title>Node12</title>
<polygon fill="none" stroke="#bfbfbf" points="386.5,-706.5 386.5,-763.5 415.5,-763.5 415.5,-706.5 386.5,-706.5"/>
<text text-anchor="middle" x="401" y="-751.5" font-family="Helvetica,sans-Serif" font-size="10.00">int</text>
<polyline fill="none" stroke="#bfbfbf" points="386.5,-744.5 415.5,-744.5 "/>
<text text-anchor="middle" x="401" y="-732.5" font-family="Helvetica,sans-Serif" font-size="10.00"> </text>
<polyline fill="none" stroke="#bfbfbf" points="386.5,-725.5 415.5,-725.5 "/>
<text text-anchor="middle" x="401" y="-713.5" font-family="Helvetica,sans-Serif" font-size="10.00"> </text>
</g>
<!-- Node12&#45;&gt;Node1 -->
<g id="edge15" class="edge"><title>Node12&#45;&gt;Node1</title>
<path fill="none" stroke="#404040" d="M398.906,-706.251C395.72,-653.391 392.465,-535.049 418,-440 427.172,-405.861 441.786,-370.869 457.564,-338.868"/>
<polygon fill="none" stroke="#404040" points="457.568,-338.86 456.686,-331.703 462.953,-328.136 463.835,-335.293 457.568,-338.86"/>
<text text-anchor="middle" x="446.5" y="-459.5" font-family="Helvetica,sans-Serif" font-size="10.00"> +maxLabels</text>
</g>
<!-- Node13 -->
<g id="node13" class="node"><title>Node13</title>
<polygon fill="none" stroke="#bfbfbf" points="453,-706.5 453,-763.5 509,-763.5 509,-706.5 453,-706.5"/>
<text text-anchor="middle" x="481" y="-751.5" font-family="Helvetica,sans-Serif" font-size="10.00">UShort_t</text>
<polyline fill="none" stroke="#bfbfbf" points="453,-744.5 509,-744.5 "/>
<text text-anchor="middle" x="481" y="-732.5" font-family="Helvetica,sans-Serif" font-size="10.00"> </text>
<polyline fill="none" stroke="#bfbfbf" points="453,-725.5 509,-725.5 "/>
<text text-anchor="middle" x="481" y="-713.5" font-family="Helvetica,sans-Serif" font-size="10.00"> </text>
</g>
<!-- Node13&#45;&gt;Node1 -->
<g id="edge16" class="edge"><title>Node13&#45;&gt;Node1</title>
<path fill="none" stroke="#404040" d="M479.107,-706.323C475.974,-654.07 471.073,-537.389 482,-440 482.252,-437.755 482.517,-435.499 482.795,-433.235"/>
<polygon fill="none" stroke="#404040" points="482.832,-432.949 479.647,-426.479 484.394,-421.051 487.579,-427.521 482.832,-432.949"/>
<text text-anchor="middle" x="523" y="-476" font-family="Helvetica,sans-Serif" font-size="10.00"> #mPatternNRows</text>
<text text-anchor="middle" x="523" y="-465" font-family="Helvetica,sans-Serif" font-size="10.00">#mPatternColMin</text>
<text text-anchor="middle" x="523" y="-454" font-family="Helvetica,sans-Serif" font-size="10.00">#mPatternNCols</text>
<text text-anchor="middle" x="523" y="-443" font-family="Helvetica,sans-Serif" font-size="10.00">#mPatternRowMin</text>
</g>
<!-- Node14 -->
<g id="node14" class="node"><title>Node14</title>
<polygon fill="none" stroke="#bfbfbf" points="559.5,-706.5 559.5,-763.5 612.5,-763.5 612.5,-706.5 559.5,-706.5"/>
<text text-anchor="middle" x="586" y="-751.5" font-family="Helvetica,sans-Serif" font-size="10.00">UChar_t</text>
<polyline fill="none" stroke="#bfbfbf" points="559.5,-744.5 612.5,-744.5 "/>
<text text-anchor="middle" x="586" y="-732.5" font-family="Helvetica,sans-Serif" font-size="10.00"> </text>
<polyline fill="none" stroke="#bfbfbf" points="559.5,-725.5 612.5,-725.5 "/>
<text text-anchor="middle" x="586" y="-713.5" font-family="Helvetica,sans-Serif" font-size="10.00"> </text>
</g>
<!-- Node14&#45;&gt;Node1 -->
<g id="edge17" class="edge"><title>Node14&#45;&gt;Node1</title>
<path fill="none" stroke="#404040" d="M584.492,-706.388C581.521,-654.242 574.291,-537.734 564,-440 563.767,-437.787 563.529,-435.562 563.288,-433.328"/>
<polygon fill="none" stroke="#404040" points="563.275,-433.217 558.64,-427.693 561.956,-421.29 566.591,-426.813 563.275,-433.217"/>
<text text-anchor="middle" x="592.5" y="-459.5" font-family="Helvetica,sans-Serif" font-size="10.00"> #mPattern</text>
</g>
<!-- Node15 -->
<g id="node15" class="node"><title>Node15</title>
<polygon fill="none" stroke="#bfbfbf" points="640,-706.5 640,-763.5 676,-763.5 676,-706.5 640,-706.5"/>
<text text-anchor="middle" x="658" y="-751.5" font-family="Helvetica,sans-Serif" font-size="10.00">Int_t</text>
<polyline fill="none" stroke="#bfbfbf" points="640,-744.5 676,-744.5 "/>
<text text-anchor="middle" x="658" y="-732.5" font-family="Helvetica,sans-Serif" font-size="10.00"> </text>
<polyline fill="none" stroke="#bfbfbf" points="640,-725.5 676,-725.5 "/>
<text text-anchor="middle" x="658" y="-713.5" font-family="Helvetica,sans-Serif" font-size="10.00"> </text>
</g>
<!-- Node15&#45;&gt;Node1 -->
<g id="edge18" class="edge"><title>Node15&#45;&gt;Node1</title>
<path fill="none" stroke="#404040" d="M656.765,-706.432C653.922,-653.877 645.19,-536.03 621,-440 616.997,-424.108 612.198,-407.821 606.936,-391.621"/>
<polygon fill="none" stroke="#404040" points="606.808,-391.235 601.121,-386.801 603.026,-379.846 608.713,-384.28 606.808,-391.235"/>
<text text-anchor="middle" x="655" y="-459.5" font-family="Helvetica,sans-Serif" font-size="10.00"> #mNxNzN</text>
</g>
<!-- Node16 -->
<g id="node16" class="node"><title>Node16</title>
<polygon fill="none" stroke="#bfbfbf" points="709,-706.5 709,-763.5 753,-763.5 753,-706.5 709,-706.5"/>
<text text-anchor="middle" x="731" y="-751.5" font-family="Helvetica,sans-Serif" font-size="10.00">UInt_t</text>
<polyline fill="none" stroke="#bfbfbf" points="709,-744.5 753,-744.5 "/>
<text text-anchor="middle" x="731" y="-732.5" font-family="Helvetica,sans-Serif" font-size="10.00"> </text>
<polyline fill="none" stroke="#bfbfbf" points="709,-725.5 753,-725.5 "/>
<text text-anchor="middle" x="731" y="-713.5" font-family="Helvetica,sans-Serif" font-size="10.00"> </text>
</g>
<!-- Node16&#45;&gt;Node1 -->
<g id="edge19" class="edge"><title>Node16&#45;&gt;Node1</title>
<path fill="none" stroke="#404040" d="M730.446,-706.235C728.549,-652.85 720.237,-532.947 684,-440 666.032,-393.913 637.678,-347.573 610.368,-308.821"/>
<polygon fill="none" stroke="#404040" points="610.055,-308.384 603.313,-305.827 603.08,-298.619 609.822,-301.176 610.055,-308.384"/>
<text text-anchor="middle" x="727" y="-459.5" font-family="Helvetica,sans-Serif" font-size="10.00"> #mROFrame</text>
</g>
</g>
</svg>
