<?xml version="1.0" encoding="UTF-8" standalone="no"?>
<!DOCTYPE svg PUBLIC "-//W3C//DTD SVG 1.1//EN"
 "http://www.w3.org/Graphics/SVG/1.1/DTD/svg11.dtd">
<!-- Generated by graphviz version 2.36.0 (20140111.2315)
 -->
<!-- Title: o2::mathUtils::Chebyshev3D Pages: 1 -->
<!--zoomable 634 -->
<svg id="main" version="1.1" xmlns="http://www.w3.org/2000/svg" xmlns:xlink="http://www.w3.org/1999/xlink" xml:space="preserve" onload="init(evt)">
<style type="text/css"><![CDATA[
.edge:hover path { stroke: red; }
.edge:hover polygon { stroke: red; fill: red; }
]]></style>
<script type="text/javascript"><![CDATA[
var edges = document.getElementsByTagName('g');
if (edges && edges.length) {
  for (var i=0;i<edges.length;i++) {
    if (edges[i].id.substr(0,4)=='edge') {
      edges[i].setAttribute('class','edge');
    }
  }
}
]]></script>
        <defs>
                <circle id="rim" cx="0" cy="0" r="7"/>
                <circle id="rim2" cx="0" cy="0" r="3.5"/>
                <g id="zoomPlus">
                        <use xlink:href="#rim" fill="#404040">
                                <set attributeName="fill" to="#808080" begin="zoomplus.mouseover" end="zoomplus.mouseout"/>
                        </use>
                        <path d="M-4,0h8M0,-4v8" fill="none" stroke="white" stroke-width="1.5" pointer-events="none"/>
                </g>
                <g id="zoomMin">
                        <use xlink:href="#rim" fill="#404040">
                                <set attributeName="fill" to="#808080" begin="zoomminus.mouseover" end="zoomminus.mouseout"/>
                        </use>
                        <path d="M-4,0h8" fill="none" stroke="white" stroke-width="1.5" pointer-events="none"/>
                </g>
                <g id="dirArrow">
                        <path fill="none" stroke="white" stroke-width="1.5" d="M0,-3.0v7 M-2.5,-0.5L0,-3.0L2.5,-0.5"/>
                </g>
               <g id="resetDef">
                       <use xlink:href="#rim2" fill="#404040">
                               <set attributeName="fill" to="#808080" begin="reset.mouseover" end="reset.mouseout"/>
                       </use>
               </g>
        </defs>

<script type="text/javascript">
var viewWidth = 824;
var viewHeight = 634;
var sectionId = 'dynsection-1';
</script>
<script xlink:href="../../svgpan.js"/>
<svg id="graph" class="graph">
<g id="viewport">
<title>o2::mathUtils::Chebyshev3D</title>
<!-- Node1 -->
<g id="node1" class="node"><title>Node1</title>
<polygon fill="#bfbfbf" stroke="black" points="263.5,-0.5 263.5,-431.5 406.5,-431.5 406.5,-0.5 263.5,-0.5"/>
<text text-anchor="middle" x="335" y="-419.5" font-family="Helvetica,sans-Serif" font-size="10.00">o2::mathUtils::Chebyshev3D</text>
<polyline fill="none" stroke="black" points="263.5,-412.5 406.5,-412.5 "/>
<text text-anchor="middle" x="335" y="-400.5" font-family="Helvetica,sans-Serif" font-size="10.00"> </text>
<polyline fill="none" stroke="black" points="263.5,-393.5 406.5,-393.5 "/>
<text text-anchor="start" x="271.5" y="-381.5" font-family="Helvetica,sans-Serif" font-size="10.00">+ Chebyshev3D()</text>
<text text-anchor="start" x="271.5" y="-370.5" font-family="Helvetica,sans-Serif" font-size="10.00">+ Chebyshev3D()</text>
<text text-anchor="start" x="271.5" y="-359.5" font-family="Helvetica,sans-Serif" font-size="10.00">+ Chebyshev3D()</text>
<text text-anchor="start" x="271.5" y="-348.5" font-family="Helvetica,sans-Serif" font-size="10.00">+ Chebyshev3D()</text>
<text text-anchor="start" x="271.5" y="-337.5" font-family="Helvetica,sans-Serif" font-size="10.00">+ ~Chebyshev3D()</text>
<text text-anchor="start" x="271.5" y="-326.5" font-family="Helvetica,sans-Serif" font-size="10.00">+ operator=()</text>
<text text-anchor="start" x="271.5" y="-315.5" font-family="Helvetica,sans-Serif" font-size="10.00">+ Eval()</text>
<text text-anchor="start" x="271.5" y="-304.5" font-family="Helvetica,sans-Serif" font-size="10.00">+ Eval()</text>
<text text-anchor="start" x="271.5" y="-293.5" font-family="Helvetica,sans-Serif" font-size="10.00">+ Eval()</text>
<text text-anchor="start" x="271.5" y="-282.5" font-family="Helvetica,sans-Serif" font-size="10.00">+ Eval()</text>
<text text-anchor="start" x="271.5" y="-271.5" font-family="Helvetica,sans-Serif" font-size="10.00">+ evaluateDerivative()</text>
<text text-anchor="start" x="271.5" y="-260.5" font-family="Helvetica,sans-Serif" font-size="10.00">+ evaluateDerivative2()</text>
<text text-anchor="start" x="271.5" y="-249.5" font-family="Helvetica,sans-Serif" font-size="10.00">+ evaluateDerivative()</text>
<text text-anchor="start" x="271.5" y="-238.5" font-family="Helvetica,sans-Serif" font-size="10.00">+ evaluateDerivative2()</text>
<text text-anchor="start" x="271.5" y="-227.5" font-family="Helvetica,sans-Serif" font-size="10.00">+ evaluateDerivative3D()</text>
<text text-anchor="start" x="271.5" y="-216.5" font-family="Helvetica,sans-Serif" font-size="10.00">+ evaluateDerivative3D2()</text>
<text text-anchor="start" x="271.5" y="-205.5" font-family="Helvetica,sans-Serif" font-size="10.00">+ Print()</text>
<text text-anchor="start" x="271.5" y="-194.5" font-family="Helvetica,sans-Serif" font-size="10.00">+ isInside()</text>
<text text-anchor="start" x="271.5" y="-183.5" font-family="Helvetica,sans-Serif" font-size="10.00">+ isInside()</text>
<text text-anchor="start" x="271.5" y="-172.5" font-family="Helvetica,sans-Serif" font-size="10.00">+ getChebyshevCalc()</text>
<text text-anchor="start" x="271.5" y="-161.5" font-family="Helvetica,sans-Serif" font-size="10.00">+ getBoundMin()</text>
<text text-anchor="start" x="271.5" y="-150.5" font-family="Helvetica,sans-Serif" font-size="10.00">+ getBoundMax()</text>
<text text-anchor="start" x="271.5" y="-139.5" font-family="Helvetica,sans-Serif" font-size="10.00">+ getBoundMin()</text>
<text text-anchor="start" x="271.5" y="-128.5" font-family="Helvetica,sans-Serif" font-size="10.00">+ getBoundMax()</text>
<text text-anchor="start" x="271.5" y="-117.5" font-family="Helvetica,sans-Serif" font-size="10.00">+ getPrecision()</text>
<text text-anchor="start" x="271.5" y="-106.5" font-family="Helvetica,sans-Serif" font-size="10.00">+ shiftBound()</text>
<text text-anchor="start" x="271.5" y="-95.5" font-family="Helvetica,sans-Serif" font-size="10.00">+ loadData()</text>
<text text-anchor="start" x="271.5" y="-84.5" font-family="Helvetica,sans-Serif" font-size="10.00">+ loadData()</text>
<text text-anchor="start" x="271.5" y="-73.5" font-family="Helvetica,sans-Serif" font-size="10.00"># Clear()</text>
<text text-anchor="start" x="271.5" y="-62.5" font-family="Helvetica,sans-Serif" font-size="10.00"># setDimOut()</text>
<text text-anchor="start" x="271.5" y="-51.5" font-family="Helvetica,sans-Serif" font-size="10.00"># prepareBoundaries()</text>
<text text-anchor="start" x="271.5" y="-40.5" font-family="Helvetica,sans-Serif" font-size="10.00"># mapToInternal()</text>
<text text-anchor="start" x="271.5" y="-29.5" font-family="Helvetica,sans-Serif" font-size="10.00"># mapToExternal()</text>
<text text-anchor="start" x="271.5" y="-18.5" font-family="Helvetica,sans-Serif" font-size="10.00"># mapToInternal()</text>
<text text-anchor="start" x="271.5" y="-7.5" font-family="Helvetica,sans-Serif" font-size="10.00"># mapToExternal()</text>
</g>
<!-- Node2 -->
<g id="node2" class="node"><title>Node2</title>
<polygon fill="none" stroke="#bfbfbf" points="0,-568.5 0,-625.5 54,-625.5 54,-568.5 0,-568.5"/>
<text text-anchor="middle" x="27" y="-613.5" font-family="Helvetica,sans-Serif" font-size="10.00">TNamed</text>
<polyline fill="none" stroke="#bfbfbf" points="0,-606.5 54,-606.5 "/>
<text text-anchor="middle" x="27" y="-594.5" font-family="Helvetica,sans-Serif" font-size="10.00"> </text>
<polyline fill="none" stroke="#bfbfbf" points="0,-587.5 54,-587.5 "/>
<text text-anchor="middle" x="27" y="-575.5" font-family="Helvetica,sans-Serif" font-size="10.00"> </text>
</g>
<!-- Node2&#45;&gt;Node1 -->
<g id="edge1" class="edge"><title>Node2&#45;&gt;Node1</title>
<path fill="none" stroke="midnightblue" d="M39.3524,-558.762C50.5838,-527.968 69.0511,-483.943 93,-450 141.081,-381.854 210.957,-317.138 263.277,-273.283"/>
<polygon fill="none" stroke="midnightblue" points="36.0256,-557.671 35.9623,-568.265 42.6187,-560.023 36.0256,-557.671"/>
</g>
<!-- Node3 -->
<g id="node3" class="node"><title>Node3</title>
<g id="a_node3"><a xlink:href="../../d9/d7d/classFloat__t.html" target="_top" xlink:title="{Float_t\n||}">
<polygon fill="none" stroke="black" points="72.5,-568.5 72.5,-625.5 119.5,-625.5 119.5,-568.5 72.5,-568.5"/>
<text text-anchor="middle" x="96" y="-613.5" font-family="Helvetica,sans-Serif" font-size="10.00">Float_t</text>
<polyline fill="none" stroke="black" points="72.5,-606.5 119.5,-606.5 "/>
<text text-anchor="middle" x="96" y="-594.5" font-family="Helvetica,sans-Serif" font-size="10.00"> </text>
<polyline fill="none" stroke="black" points="72.5,-587.5 119.5,-587.5 "/>
<text text-anchor="middle" x="96" y="-575.5" font-family="Helvetica,sans-Serif" font-size="10.00"> </text>
</a>
</g>
</g>
<!-- Node3&#45;&gt;Node1 -->
<g id="edge2" class="edge"><title>Node3&#45;&gt;Node1</title>
<path fill="none" stroke="#404040" d="M95.886,-568.486C96.7849,-538.031 101.352,-488.205 120,-450 151.754,-384.943 207.63,-325.233 254.46,-282.548"/>
<polygon fill="none" stroke="#404040" points="254.473,-282.537 256.257,-275.55 263.393,-274.51 261.608,-281.497 254.473,-282.537"/>
<text text-anchor="middle" x="184" y="-541.5" font-family="Helvetica,sans-Serif" font-size="10.00"> #sMinimumPrecision</text>
<text text-anchor="middle" x="184" y="-530.5" font-family="Helvetica,sans-Serif" font-size="10.00">#mTemporaryCoefficient</text>
<text text-anchor="middle" x="184" y="-519.5" font-family="Helvetica,sans-Serif" font-size="10.00">#mBoundaryMappingScale</text>
<text text-anchor="middle" x="184" y="-508.5" font-family="Helvetica,sans-Serif" font-size="10.00">#mTemporaryUserResults</text>
<text text-anchor="middle" x="184" y="-497.5" font-family="Helvetica,sans-Serif" font-size="10.00">#mMaxBoundaries</text>
<text text-anchor="middle" x="184" y="-486.5" font-family="Helvetica,sans-Serif" font-size="10.00">#mPrecision</text>
<text text-anchor="middle" x="184" y="-475.5" font-family="Helvetica,sans-Serif" font-size="10.00">#mBoundaryMappingOffset</text>
<text text-anchor="middle" x="184" y="-464.5" font-family="Helvetica,sans-Serif" font-size="10.00">#mMinBoundaries</text>
<text text-anchor="middle" x="184" y="-453.5" font-family="Helvetica,sans-Serif" font-size="10.00">#mTemporaryChebyshevGrid</text>
</g>
<!-- Node4 -->
<g id="node4" class="node"><title>Node4</title>
<polygon fill="none" stroke="#bfbfbf" points="207.5,-568.5 207.5,-625.5 286.5,-625.5 286.5,-568.5 207.5,-568.5"/>
<text text-anchor="middle" x="247" y="-613.5" font-family="Helvetica,sans-Serif" font-size="10.00">TMethodCall *</text>
<polyline fill="none" stroke="#bfbfbf" points="207.5,-606.5 286.5,-606.5 "/>
<text text-anchor="middle" x="247" y="-594.5" font-family="Helvetica,sans-Serif" font-size="10.00"> </text>
<polyline fill="none" stroke="#bfbfbf" points="207.5,-587.5 286.5,-587.5 "/>
<text text-anchor="middle" x="247" y="-575.5" font-family="Helvetica,sans-Serif" font-size="10.00"> </text>
</g>
<!-- Node4&#45;&gt;Node1 -->
<g id="edge3" class="edge"><title>Node4&#45;&gt;Node1</title>
<path fill="none" stroke="#404040" d="M249.284,-568.333C252.026,-538.805 257.369,-490.761 266,-450 266.463,-447.812 266.937,-445.615 267.42,-443.41"/>
<polygon fill="none" stroke="#404040" points="267.455,-443.255 264.873,-436.522 270.095,-431.549 272.677,-438.282 267.455,-443.255"/>
<text text-anchor="middle" x="298.5" y="-497.5" font-family="Helvetica,sans-Serif" font-size="10.00"> #mUserMacro</text>
</g>
<!-- Node5 -->
<g id="node5" class="node"><title>Node5</title>
<polygon fill="none" stroke="#bfbfbf" points="304.5,-568.5 304.5,-625.5 365.5,-625.5 365.5,-568.5 304.5,-568.5"/>
<text text-anchor="middle" x="335" y="-613.5" font-family="Helvetica,sans-Serif" font-size="10.00">TObjArray</text>
<polyline fill="none" stroke="#bfbfbf" points="304.5,-606.5 365.5,-606.5 "/>
<text text-anchor="middle" x="335" y="-594.5" font-family="Helvetica,sans-Serif" font-size="10.00"> </text>
<polyline fill="none" stroke="#bfbfbf" points="304.5,-587.5 365.5,-587.5 "/>
<text text-anchor="middle" x="335" y="-575.5" font-family="Helvetica,sans-Serif" font-size="10.00"> </text>
</g>
<!-- Node5&#45;&gt;Node1 -->
<g id="edge4" class="edge"><title>Node5&#45;&gt;Node1</title>
<path fill="none" stroke="#404040" d="M335,-568.438C335,-540.368 335,-493.961 335,-443.929"/>
<polygon fill="none" stroke="#404040" points="335,-443.834 331,-437.834 335,-431.834 339,-437.834 335,-443.834"/>
<text text-anchor="middle" x="391" y="-497.5" font-family="Helvetica,sans-Serif" font-size="10.00"> #mChebyshevParameter</text>
</g>
<!-- Node6 -->
<g id="node6" class="node"><title>Node6</title>
<polygon fill="none" stroke="#bfbfbf" points="433.5,-568.5 433.5,-625.5 502.5,-625.5 502.5,-568.5 433.5,-568.5"/>
<text text-anchor="middle" x="468" y="-613.5" font-family="Helvetica,sans-Serif" font-size="10.00">FairLogger *</text>
<polyline fill="none" stroke="#bfbfbf" points="433.5,-606.5 502.5,-606.5 "/>
<text text-anchor="middle" x="468" y="-594.5" font-family="Helvetica,sans-Serif" font-size="10.00"> </text>
<polyline fill="none" stroke="#bfbfbf" points="433.5,-587.5 502.5,-587.5 "/>
<text text-anchor="middle" x="468" y="-575.5" font-family="Helvetica,sans-Serif" font-size="10.00"> </text>
</g>
<!-- Node6&#45;&gt;Node1 -->
<g id="edge5" class="edge"><title>Node6&#45;&gt;Node1</title>
<path fill="none" stroke="#404040" d="M466.799,-568.272C464.913,-538.486 460.115,-490.037 448,-450 438.635,-419.053 425.614,-387.106 411.73,-357.162"/>
<polygon fill="none" stroke="#404040" points="411.693,-357.083 405.518,-353.358 406.581,-346.226 412.756,-349.95 411.693,-357.083"/>
<text text-anchor="middle" x="489" y="-497.5" font-family="Helvetica,sans-Serif" font-size="10.00"> #mLogger</text>
</g>
<!-- Node7 -->
<g id="node7" class="node"><title>Node7</title>
<polygon fill="none" stroke="#bfbfbf" points="521,-568.5 521,-625.5 569,-625.5 569,-568.5 521,-568.5"/>
<text text-anchor="middle" x="545" y="-613.5" font-family="Helvetica,sans-Serif" font-size="10.00">TString</text>
<polyline fill="none" stroke="#bfbfbf" points="521,-606.5 569,-606.5 "/>
<text text-anchor="middle" x="545" y="-594.5" font-family="Helvetica,sans-Serif" font-size="10.00"> </text>
<polyline fill="none" stroke="#bfbfbf" points="521,-587.5 569,-587.5 "/>
<text text-anchor="middle" x="545" y="-575.5" font-family="Helvetica,sans-Serif" font-size="10.00"> </text>
</g>
<!-- Node7&#45;&gt;Node1 -->
<g id="edge6" class="edge"><title>Node7&#45;&gt;Node1</title>
<path fill="none" stroke="#404040" d="M543.325,-568.475C540.636,-538.228 533.708,-488.789 516,-450 490.98,-395.193 450.742,-341.563 414.552,-299.598"/>
<polygon fill="none" stroke="#404040" points="414.549,-299.595 407.59,-297.704 406.659,-290.553 413.618,-292.444 414.549,-299.595"/>
<text text-anchor="middle" x="593" y="-497.5" font-family="Helvetica,sans-Serif" font-size="10.00"> #mUserFunctionName</text>
</g>
<!-- Node8 -->
<g id="node8" class="node"><title>Node8</title>
<polygon fill="none" stroke="#bfbfbf" points="650,-568.5 650,-625.5 686,-625.5 686,-568.5 650,-568.5"/>
<text text-anchor="middle" x="668" y="-613.5" font-family="Helvetica,sans-Serif" font-size="10.00">Int_t</text>
<polyline fill="none" stroke="#bfbfbf" points="650,-606.5 686,-606.5 "/>
<text text-anchor="middle" x="668" y="-594.5" font-family="Helvetica,sans-Serif" font-size="10.00"> </text>
<polyline fill="none" stroke="#bfbfbf" points="650,-587.5 686,-587.5 "/>
<text text-anchor="middle" x="668" y="-575.5" font-family="Helvetica,sans-Serif" font-size="10.00"> </text>
</g>
<!-- Node8&#45;&gt;Node1 -->
<g id="edge7" class="edge"><title>Node8&#45;&gt;Node1</title>
<path fill="none" stroke="#404040" d="M669.842,-568.376C670.616,-537.375 667.895,-486.635 646,-450 592.505,-360.489 490.235,-294.129 417.59,-255.594"/>
<polygon fill="none" stroke="#404040" points="417.284,-255.434 410.114,-256.203 406.647,-249.88 413.817,-249.111 417.284,-255.434"/>
<text text-anchor="middle" x="742.5" y="-514" font-family="Helvetica,sans-Serif" font-size="10.00"> #mOutputArrayDimension</text>
<text text-anchor="middle" x="742.5" y="-503" font-family="Helvetica,sans-Serif" font-size="10.00">#mTemporaryChebyshevGridOffs</text>
<text text-anchor="middle" x="742.5" y="-492" font-family="Helvetica,sans-Serif" font-size="10.00">#mMaxCoefficients</text>
<text text-anchor="middle" x="742.5" y="-481" font-family="Helvetica,sans-Serif" font-size="10.00">#mNumberOfPoints</text>
</g>
</g>
</svg>
        <g id="navigator" transform="translate(0 0)" fill="#404254">
                <rect fill="#f2f5e9" fill-opacity="0.5" stroke="#606060" stroke-width=".5" x="0" y="0" width="60" height="60"/>
                <use id="zoomplus" xlink:href="#zoomPlus" x="17" y="9" onmousedown="handleZoom(evt,'in')"/>
                <use id="zoomminus" xlink:href="#zoomMin" x="42" y="9" onmousedown="handleZoom(evt,'out')"/>
                <use id="reset" xlink:href="#resetDef" x="30" y="36" onmousedown="handleReset()"/>
                <g id="arrowUp" xlink:href="#dirArrow" transform="translate(30 24)" onmousedown="handlePan(0,-1)">
                  <use xlink:href="#rim" fill="#404040">
                        <set attributeName="fill" to="#808080" begin="arrowUp.mouseover" end="arrowUp.mouseout"/>
                  </use>
                  <path fill="none" stroke="white" stroke-width="1.5" d="M0,-3.0v7 M-2.5,-0.5L0,-3.0L2.5,-0.5"/>
                </g>
                <g id="arrowRight" xlink:href="#dirArrow" transform="rotate(90) translate(36 -43)" onmousedown="handlePan(1,0)">
                  <use xlink:href="#rim" fill="#404040">
                        <set attributeName="fill" to="#808080" begin="arrowRight.mouseover" end="arrowRight.mouseout"/>
                  </use>
                  <path fill="none" stroke="white" stroke-width="1.5" d="M0,-3.0v7 M-2.5,-0.5L0,-3.0L2.5,-0.5"/>
                </g>
                <g id="arrowDown" xlink:href="#dirArrow" transform="rotate(180) translate(-30 -48)" onmousedown="handlePan(0,1)">
                  <use xlink:href="#rim" fill="#404040">
                        <set attributeName="fill" to="#808080" begin="arrowDown.mouseover" end="arrowDown.mouseout"/>
                  </use>
                  <path fill="none" stroke="white" stroke-width="1.5" d="M0,-3.0v7 M-2.5,-0.5L0,-3.0L2.5,-0.5"/>
                </g>
                <g id="arrowLeft" xlink:href="#dirArrow" transform="rotate(270) translate(-36 17)" onmousedown="handlePan(-1,0)">
                  <use xlink:href="#rim" fill="#404040">
                        <set attributeName="fill" to="#808080" begin="arrowLeft.mouseover" end="arrowLeft.mouseout"/>
                  </use>
                  <path fill="none" stroke="white" stroke-width="1.5" d="M0,-3.0v7 M-2.5,-0.5L0,-3.0L2.5,-0.5"/>
                </g>
        </g>
        <svg viewBox="0 0 15 15" width="100%" height="30px" preserveAspectRatio="xMaxYMin meet">
         <g id="arrow_out" transform="scale(0.3 0.3)">
          <a xlink:href="classo2_1_1mathUtils_1_1Chebyshev3D__coll__graph_org.svg" target="_base">
           <rect id="button" ry="5" rx="5" y="6" x="6" height="38" width="38"
                fill="#f2f5e9" fill-opacity="0.5" stroke="#606060" stroke-width="1.0"/>
           <path id="arrow"
             d="M 11.500037,31.436501 C 11.940474,20.09759 22.043105,11.32322 32.158766,21.979434 L 37.068811,17.246167 C 37.068811,17.246167 37.088388,32 37.088388,32 L 22.160133,31.978069 C 22.160133,31.978069 26.997745,27.140456 26.997745,27.140456 C 18.528582,18.264221 13.291696,25.230495 11.500037,31.436501 z"
             style="fill:#404040;"/>
          </a>
         </g>
        </svg>
</svg>
