<?xml version="1.0" encoding="UTF-8" standalone="no"?>
<!DOCTYPE svg PUBLIC "-//W3C//DTD SVG 1.1//EN"
 "http://www.w3.org/Graphics/SVG/1.1/DTD/svg11.dtd">
<!-- Generated by graphviz version 2.36.0 (20140111.2315)
 -->
<!-- Title: /home/travis/build/AliceO2Group/AliceO2/Detectors/ITSMFT/ITS/reconstruction/include/ITSReconstruction/CookedTrack.h Pages: 1 -->
<svg width="1986pt" height="432pt"
 viewBox="0.00 0.00 1986.00 432.00" xmlns="http://www.w3.org/2000/svg" xmlns:xlink="http://www.w3.org/1999/xlink">
<g id="graph0" class="graph" transform="scale(1 1) rotate(0) translate(4 428)">
<title>/home/travis/build/AliceO2Group/AliceO2/Detectors/ITSMFT/ITS/reconstruction/include/ITSReconstruction/CookedTrack.h</title>
<!-- Node1 -->
<g id="node1" class="node"><title>Node1</title>
<polygon fill="#bfbfbf" stroke="black" points="1022.5,-360.5 1022.5,-423.5 1193.5,-423.5 1193.5,-360.5 1022.5,-360.5"/>
<text text-anchor="start" x="1030.5" y="-411.5" font-family="Helvetica,sans-Serif" font-size="10.00">/home/travis/build</text>
<text text-anchor="start" x="1030.5" y="-400.5" font-family="Helvetica,sans-Serif" font-size="10.00">/AliceO2Group/AliceO2</text>
<text text-anchor="start" x="1030.5" y="-389.5" font-family="Helvetica,sans-Serif" font-size="10.00">/Detectors/ITSMFT/ITS</text>
<text text-anchor="start" x="1030.5" y="-378.5" font-family="Helvetica,sans-Serif" font-size="10.00">/reconstruction/include</text>
<text text-anchor="middle" x="1108" y="-367.5" font-family="Helvetica,sans-Serif" font-size="10.00">/ITSReconstruction/CookedTrack.h</text>
</g>
<!-- Node2 -->
<g id="node2" class="node"><title>Node2</title>
<polygon fill="none" stroke="#bfbfbf" points="644,-136.5 644,-155.5 688,-155.5 688,-136.5 644,-136.5"/>
<text text-anchor="middle" x="666" y="-143.5" font-family="Helvetica,sans-Serif" font-size="10.00">vector</text>
</g>
<!-- Node1&#45;&gt;Node2 -->
<g id="edge1" class="edge"><title>Node1&#45;&gt;Node2</title>
<path fill="none" stroke="midnightblue" d="M1022.23,-388.007C930.727,-380.18 787.455,-353.882 702,-268 674.394,-240.256 667.785,-192.342 666.312,-165.896"/>
<polygon fill="midnightblue" stroke="midnightblue" points="669.802,-165.569 665.944,-155.701 662.807,-165.821 669.802,-165.569"/>
</g>
<!-- Node3 -->
<g id="node3" class="node"><title>Node3</title>
<g id="a_node3"><a xlink:href="../../d7/d65/Detectors_2Base_2include_2DetectorsBase_2Track_8h.html" target="_top" xlink:title="DetectorsBase/Track.h">
<polygon fill="none" stroke="black" points="1494,-304.5 1494,-323.5 1612,-323.5 1612,-304.5 1494,-304.5"/>
<text text-anchor="middle" x="1553" y="-311.5" font-family="Helvetica,sans-Serif" font-size="10.00">DetectorsBase/Track.h</text>
</a>
</g>
</g>
<!-- Node1&#45;&gt;Node3 -->
<g id="edge2" class="edge"><title>Node1&#45;&gt;Node3</title>
<path fill="none" stroke="midnightblue" d="M1193.54,-376.391C1281.37,-361.392 1415.79,-338.433 1492.95,-325.256"/>
<polygon fill="midnightblue" stroke="midnightblue" points="1493.72,-328.676 1502.98,-323.542 1492.54,-321.776 1493.72,-328.676"/>
</g>
<!-- Node4 -->
<g id="node4" class="node"><title>Node4</title>
<polygon fill="none" stroke="#bfbfbf" points="1230,-74.5 1230,-93.5 1286,-93.5 1286,-74.5 1230,-74.5"/>
<text text-anchor="middle" x="1258" y="-81.5" font-family="Helvetica,sans-Serif" font-size="10.00">Rtypes.h</text>
</g>
<!-- Node3&#45;&gt;Node4 -->
<g id="edge3" class="edge"><title>Node3&#45;&gt;Node4</title>
<path fill="none" stroke="midnightblue" d="M1539.46,-304.486C1503.96,-281.944 1405.78,-218.164 1331,-156 1309.89,-138.454 1287.54,-116.077 1273.21,-101.182"/>
<polygon fill="midnightblue" stroke="midnightblue" points="1275.57,-98.5821 1266.14,-93.7548 1270.5,-103.41 1275.57,-98.5821"/>
</g>
<!-- Node5 -->
<g id="node5" class="node"><title>Node5</title>
<polygon fill="none" stroke="#bfbfbf" points="1018,-248.5 1018,-267.5 1074,-267.5 1074,-248.5 1018,-248.5"/>
<text text-anchor="middle" x="1046" y="-255.5" font-family="Helvetica,sans-Serif" font-size="10.00">algorithm</text>
</g>
<!-- Node3&#45;&gt;Node5 -->
<g id="edge4" class="edge"><title>Node3&#45;&gt;Node5</title>
<path fill="none" stroke="midnightblue" d="M1493.64,-309.442C1404.98,-303.635 1232.87,-290.456 1088,-268 1086.76,-267.807 1085.49,-267.601 1084.22,-267.383"/>
<polygon fill="midnightblue" stroke="midnightblue" points="1084.86,-263.942 1074.38,-265.543 1083.57,-270.822 1084.86,-263.942"/>
</g>
<!-- Node6 -->
<g id="node6" class="node"><title>Node6</title>
<polygon fill="none" stroke="#bfbfbf" points="1526,-6.5 1526,-25.5 1564,-25.5 1564,-6.5 1526,-6.5"/>
<text text-anchor="middle" x="1545" y="-13.5" font-family="Helvetica,sans-Serif" font-size="10.00">array</text>
</g>
<!-- Node3&#45;&gt;Node6 -->
<g id="edge5" class="edge"><title>Node3&#45;&gt;Node6</title>
<path fill="none" stroke="midnightblue" d="M1552.77,-304.461C1551.68,-264.2 1547.05,-92.912 1545.51,-35.6953"/>
<polygon fill="midnightblue" stroke="midnightblue" points="1549,-35.4759 1545.23,-25.5741 1542,-35.6651 1549,-35.4759"/>
</g>
<!-- Node7 -->
<g id="node7" class="node"><title>Node7</title>
<polygon fill="none" stroke="#bfbfbf" points="1600.5,-248.5 1600.5,-267.5 1641.5,-267.5 1641.5,-248.5 1600.5,-248.5"/>
<text text-anchor="middle" x="1621" y="-255.5" font-family="Helvetica,sans-Serif" font-size="10.00">cfloat</text>
</g>
<!-- Node3&#45;&gt;Node7 -->
<g id="edge6" class="edge"><title>Node3&#45;&gt;Node7</title>
<path fill="none" stroke="midnightblue" d="M1563.93,-304.324C1574.17,-296.185 1589.72,-283.839 1602,-274.087"/>
<polygon fill="midnightblue" stroke="midnightblue" points="1604.22,-276.794 1609.88,-267.834 1599.87,-271.312 1604.22,-276.794"/>
</g>
<!-- Node8 -->
<g id="node8" class="node"><title>Node8</title>
<polygon fill="none" stroke="#bfbfbf" points="1669,-6.5 1669,-25.5 1713,-25.5 1713,-6.5 1669,-6.5"/>
<text text-anchor="middle" x="1691" y="-13.5" font-family="Helvetica,sans-Serif" font-size="10.00">cmath</text>
</g>
<!-- Node3&#45;&gt;Node8 -->
<g id="edge7" class="edge"><title>Node3&#45;&gt;Node8</title>
<path fill="none" stroke="midnightblue" d="M1612.08,-310.449C1646.32,-305.925 1687.88,-294.754 1715,-268 1736.42,-246.861 1734,-233.098 1734,-203 1734,-203 1734,-203 1734,-145 1734,-103.77 1713.7,-58.7771 1701,-34.6513"/>
<polygon fill="midnightblue" stroke="midnightblue" points="1703.96,-32.7675 1696.1,-25.6611 1697.81,-36.1168 1703.96,-32.7675"/>
</g>
<!-- Node9 -->
<g id="node9" class="node"><title>Node9</title>
<polygon fill="none" stroke="#bfbfbf" points="1660,-248.5 1660,-267.5 1706,-267.5 1706,-248.5 1660,-248.5"/>
<text text-anchor="middle" x="1683" y="-255.5" font-family="Helvetica,sans-Serif" font-size="10.00">cstring</text>
</g>
<!-- Node3&#45;&gt;Node9 -->
<g id="edge8" class="edge"><title>Node3&#45;&gt;Node9</title>
<path fill="none" stroke="midnightblue" d="M1573.6,-304.444C1594.99,-295.557 1628.68,-281.563 1653.02,-271.451"/>
<polygon fill="midnightblue" stroke="midnightblue" points="1654.61,-274.585 1662.5,-267.516 1651.92,-268.12 1654.61,-274.585"/>
</g>
<!-- Node10 -->
<g id="node10" class="node"><title>Node10</title>
<polygon fill="none" stroke="#bfbfbf" points="0,-74.5 0,-93.5 54,-93.5 54,-74.5 0,-74.5"/>
<text text-anchor="middle" x="27" y="-81.5" font-family="Helvetica,sans-Serif" font-size="10.00">iostream</text>
</g>
<!-- Node3&#45;&gt;Node10 -->
<g id="edge9" class="edge"><title>Node3&#45;&gt;Node10</title>
<path fill="none" stroke="midnightblue" d="M1493.76,-312.986C1345.82,-312.355 963.396,-306.893 843,-268 798.529,-253.634 788.503,-243.522 754,-212 722.63,-183.341 733.534,-155.915 696,-136 571.345,-69.8583 199.374,-132.282 62,-100 59.104,-99.3195 56.1446,-98.4147 53.2337,-97.3855"/>
<polygon fill="midnightblue" stroke="midnightblue" points="54.2698,-94.03 43.6857,-93.5525 51.6619,-100.526 54.2698,-94.03"/>
</g>
<!-- Node11 -->
<g id="node11" class="node"><title>Node11</title>
<polygon fill="none" stroke="#bfbfbf" points="1762.5,-248.5 1762.5,-267.5 1845.5,-267.5 1845.5,-248.5 1762.5,-248.5"/>
<text text-anchor="middle" x="1804" y="-255.5" font-family="Helvetica,sans-Serif" font-size="10.00">Math/SMatrix.h</text>
</g>
<!-- Node3&#45;&gt;Node11 -->
<g id="edge10" class="edge"><title>Node3&#45;&gt;Node11</title>
<path fill="none" stroke="midnightblue" d="M1592.77,-304.444C1636.56,-295.023 1707.01,-279.866 1754.38,-269.675"/>
<polygon fill="midnightblue" stroke="midnightblue" points="1755.37,-273.041 1764.41,-267.516 1753.9,-266.198 1755.37,-273.041"/>
</g>
<!-- Node12 -->
<g id="node12" class="node"><title>Node12</title>
<polygon fill="none" stroke="#bfbfbf" points="1863.5,-248.5 1863.5,-267.5 1948.5,-267.5 1948.5,-248.5 1863.5,-248.5"/>
<text text-anchor="middle" x="1906" y="-255.5" font-family="Helvetica,sans-Serif" font-size="10.00">Math/SVector.h</text>
</g>
<!-- Node3&#45;&gt;Node12 -->
<g id="edge11" class="edge"><title>Node3&#45;&gt;Node12</title>
<path fill="none" stroke="midnightblue" d="M1612.18,-304.563C1670.72,-296.123 1763.17,-282.548 1853.32,-268.078"/>
<polygon fill="midnightblue" stroke="midnightblue" points="1854.13,-271.493 1863.45,-266.447 1853.02,-264.582 1854.13,-271.493"/>
</g>
<!-- Node13 -->
<g id="node13" class="node"><title>Node13</title>
<g id="a_node13"><a xlink:href="../../d4/de2/BaseCluster_8h.html" target="_top" xlink:title="DetectorsBase/BaseCluster.h">
<polygon fill="none" stroke="black" points="852.5,-248.5 852.5,-267.5 999.5,-267.5 999.5,-248.5 852.5,-248.5"/>
<text text-anchor="middle" x="926" y="-255.5" font-family="Helvetica,sans-Serif" font-size="10.00">DetectorsBase/BaseCluster.h</text>
</a>
</g>
</g>
<!-- Node3&#45;&gt;Node13 -->
<g id="edge12" class="edge"><title>Node3&#45;&gt;Node13</title>
<path fill="none" stroke="midnightblue" d="M1493.79,-308.599C1395.61,-301.192 1192.68,-285.419 1009.83,-268.056"/>
<polygon fill="midnightblue" stroke="midnightblue" points="1010.04,-264.561 999.756,-267.096 1009.38,-271.529 1010.04,-264.561"/>
</g>
<!-- Node18 -->
<g id="node18" class="node"><title>Node18</title>
<g id="a_node18"><a xlink:href="../../dd/d76/Cartesian3D_8h.html" target="_top" xlink:title="MathUtils/Cartesian3D.h">
<polygon fill="none" stroke="black" points="831.5,-136.5 831.5,-155.5 956.5,-155.5 956.5,-136.5 831.5,-136.5"/>
<text text-anchor="middle" x="894" y="-143.5" font-family="Helvetica,sans-Serif" font-size="10.00">MathUtils/Cartesian3D.h</text>
</a>
</g>
</g>
<!-- Node3&#45;&gt;Node18 -->
<g id="edge48" class="edge"><title>Node3&#45;&gt;Node18</title>
<path fill="none" stroke="midnightblue" d="M1493.86,-304.56C1441.92,-296.674 1364.49,-283.766 1298,-268 1213.58,-247.983 1194.11,-236.892 1111,-212 1048.39,-193.249 975.629,-171.453 932.275,-158.466"/>
<polygon fill="midnightblue" stroke="midnightblue" points="933.019,-155.035 922.436,-155.518 931.011,-161.741 933.019,-155.035"/>
</g>
<!-- Node32 -->
<g id="node32" class="node"><title>Node32</title>
<g id="a_node32"><a xlink:href="../../d9/ded/Utils_8h.html" target="_top" xlink:title="DetectorsBase/Utils.h">
<polygon fill="none" stroke="black" points="1592.5,-74.5 1592.5,-93.5 1705.5,-93.5 1705.5,-74.5 1592.5,-74.5"/>
<text text-anchor="middle" x="1649" y="-81.5" font-family="Helvetica,sans-Serif" font-size="10.00">DetectorsBase/Utils.h</text>
</a>
</g>
</g>
<!-- Node3&#45;&gt;Node32 -->
<g id="edge47" class="edge"><title>Node3&#45;&gt;Node32</title>
<path fill="none" stroke="midnightblue" d="M1556.65,-304.341C1570.75,-270.835 1621.94,-149.273 1641.41,-103.027"/>
<polygon fill="midnightblue" stroke="midnightblue" points="1644.7,-104.243 1645.35,-93.6681 1638.24,-101.526 1644.7,-104.243"/>
</g>
<!-- Node33 -->
<g id="node33" class="node"><title>Node33</title>
<g id="a_node33"><a xlink:href="../../d1/daa/Base_2include_2DetectorsBase_2Constants_8h.html" target="_top" xlink:title="DetectorsBase/Constants.h">
<polygon fill="none" stroke="black" points="1840,-6.5 1840,-25.5 1978,-25.5 1978,-6.5 1840,-6.5"/>
<text text-anchor="middle" x="1909" y="-13.5" font-family="Helvetica,sans-Serif" font-size="10.00">DetectorsBase/Constants.h</text>
</a>
</g>
</g>
<!-- Node3&#45;&gt;Node33 -->
<g id="edge46" class="edge"><title>Node3&#45;&gt;Node33</title>
<path fill="none" stroke="midnightblue" d="M1612.06,-309.973C1717.82,-304.039 1930.98,-289.548 1957,-268 1980.28,-248.723 1977,-233.225 1977,-203 1977,-203 1977,-203 1977,-145 1977,-100.402 1944.41,-56.2046 1924.35,-33.2295"/>
<polygon fill="midnightblue" stroke="midnightblue" points="1926.91,-30.8421 1917.61,-25.7637 1921.71,-35.5323 1926.91,-30.8421"/>
</g>
<!-- Node13&#45;&gt;Node10 -->
<g id="edge17" class="edge"><title>Node13&#45;&gt;Node10</title>
<path fill="none" stroke="midnightblue" d="M857.516,-248.435C829.032,-242.107 797.071,-231.109 773,-212 742.604,-187.87 762.987,-156.446 730,-136 666.822,-96.8402 134.383,-116.9 62,-100 59.103,-99.3236 56.143,-98.4216 53.2317,-97.394"/>
<polygon fill="midnightblue" stroke="midnightblue" points="54.2674,-94.0384 43.6833,-93.563 51.6608,-100.535 54.2674,-94.0384"/>
</g>
<!-- Node14 -->
<g id="node14" class="node"><title>Node14</title>
<polygon fill="none" stroke="#bfbfbf" points="782.5,-192.5 782.5,-211.5 841.5,-211.5 841.5,-192.5 782.5,-192.5"/>
<text text-anchor="middle" x="812" y="-199.5" font-family="Helvetica,sans-Serif" font-size="10.00">TObject.h</text>
</g>
<!-- Node13&#45;&gt;Node14 -->
<g id="edge13" class="edge"><title>Node13&#45;&gt;Node14</title>
<path fill="none" stroke="midnightblue" d="M907.936,-248.444C889.425,-239.675 860.419,-225.935 839.145,-215.858"/>
<polygon fill="midnightblue" stroke="midnightblue" points="840.515,-212.634 829.979,-211.516 837.518,-218.96 840.515,-212.634"/>
</g>
<!-- Node15 -->
<g id="node15" class="node"><title>Node15</title>
<polygon fill="none" stroke="#bfbfbf" points="859.5,-192.5 859.5,-211.5 900.5,-211.5 900.5,-192.5 859.5,-192.5"/>
<text text-anchor="middle" x="880" y="-199.5" font-family="Helvetica,sans-Serif" font-size="10.00">bitset</text>
</g>
<!-- Node13&#45;&gt;Node15 -->
<g id="edge14" class="edge"><title>Node13&#45;&gt;Node15</title>
<path fill="none" stroke="midnightblue" d="M918.404,-248.083C911.773,-240.298 901.979,-228.801 893.942,-219.367"/>
<polygon fill="midnightblue" stroke="midnightblue" points="896.604,-217.094 887.455,-211.751 891.275,-221.633 896.604,-217.094"/>
</g>
<!-- Node16 -->
<g id="node16" class="node"><title>Node16</title>
<polygon fill="none" stroke="#bfbfbf" points="919,-192.5 919,-211.5 969,-211.5 969,-192.5 919,-192.5"/>
<text text-anchor="middle" x="944" y="-199.5" font-family="Helvetica,sans-Serif" font-size="10.00">iomanip</text>
</g>
<!-- Node13&#45;&gt;Node16 -->
<g id="edge15" class="edge"><title>Node13&#45;&gt;Node16</title>
<path fill="none" stroke="midnightblue" d="M928.972,-248.083C931.384,-240.849 934.864,-230.409 937.868,-221.397"/>
<polygon fill="midnightblue" stroke="midnightblue" points="941.241,-222.345 941.083,-211.751 934.6,-220.131 941.241,-222.345"/>
</g>
<!-- Node17 -->
<g id="node17" class="node"><title>Node17</title>
<polygon fill="none" stroke="#bfbfbf" points="987.5,-192.5 987.5,-211.5 1016.5,-211.5 1016.5,-192.5 987.5,-192.5"/>
<text text-anchor="middle" x="1002" y="-199.5" font-family="Helvetica,sans-Serif" font-size="10.00">ios</text>
</g>
<!-- Node13&#45;&gt;Node17 -->
<g id="edge16" class="edge"><title>Node13&#45;&gt;Node17</title>
<path fill="none" stroke="midnightblue" d="M938.211,-248.324C949.776,-240.107 967.375,-227.602 981.161,-217.807"/>
<polygon fill="midnightblue" stroke="midnightblue" points="983.443,-220.479 989.567,-211.834 979.388,-214.773 983.443,-220.479"/>
</g>
<!-- Node13&#45;&gt;Node18 -->
<g id="edge18" class="edge"><title>Node13&#45;&gt;Node18</title>
<path fill="none" stroke="midnightblue" d="M962.759,-248.483C998.452,-238.402 1044.59,-219.445 1025,-192 1011.31,-172.819 988.902,-161.729 966.46,-155.347"/>
<polygon fill="midnightblue" stroke="midnightblue" points="967.078,-151.892 956.523,-152.811 965.347,-158.675 967.078,-151.892"/>
</g>
<!-- Node28 -->
<g id="node28" class="node"><title>Node28</title>
<g id="a_node28"><a xlink:href="../../d4/d20/DetMatrixCache_8h.html" target="_top" xlink:title="DetectorsBase/DetMatrixCache.h">
<polygon fill="none" stroke="black" points="1120,-192.5 1120,-211.5 1284,-211.5 1284,-192.5 1120,-192.5"/>
<text text-anchor="middle" x="1202" y="-199.5" font-family="Helvetica,sans-Serif" font-size="10.00">DetectorsBase/DetMatrixCache.h</text>
</a>
</g>
</g>
<!-- Node13&#45;&gt;Node28 -->
<g id="edge30" class="edge"><title>Node13&#45;&gt;Node28</title>
<path fill="none" stroke="midnightblue" d="M969.733,-248.444C1018.18,-238.964 1096.33,-223.675 1148.42,-213.483"/>
<polygon fill="midnightblue" stroke="midnightblue" points="1149.33,-216.871 1158.47,-211.516 1147.99,-210.002 1149.33,-216.871"/>
</g>
<!-- Node18&#45;&gt;Node4 -->
<g id="edge22" class="edge"><title>Node18&#45;&gt;Node4</title>
<path fill="none" stroke="midnightblue" d="M953.133,-136.465C1011.43,-127.884 1103.01,-113.96 1182,-100 1194.42,-97.8056 1207.93,-95.2068 1220.07,-92.7941"/>
<polygon fill="midnightblue" stroke="midnightblue" points="1220.78,-96.222 1229.9,-90.8241 1219.4,-89.3586 1220.78,-96.222"/>
</g>
<!-- Node18&#45;&gt;Node10 -->
<g id="edge29" class="edge"><title>Node18&#45;&gt;Node10</title>
<path fill="none" stroke="midnightblue" d="M831.208,-140.262C811.03,-138.807 788.576,-137.259 768,-136 611.201,-126.403 215.03,-135.495 62,-100 59.102,-99.3278 56.1414,-98.4285 53.2297,-97.4026"/>
<polygon fill="midnightblue" stroke="midnightblue" points="54.2651,-94.0469 43.6808,-93.5734 51.6597,-100.544 54.2651,-94.0469"/>
</g>
<!-- Node19 -->
<g id="node19" class="node"><title>Node19</title>
<polygon fill="none" stroke="#bfbfbf" points="71.5,-74.5 71.5,-93.5 220.5,-93.5 220.5,-74.5 71.5,-74.5"/>
<text text-anchor="middle" x="146" y="-81.5" font-family="Helvetica,sans-Serif" font-size="10.00">Math/GenVector/Rotation3D.h</text>
</g>
<!-- Node18&#45;&gt;Node19 -->
<g id="edge19" class="edge"><title>Node18&#45;&gt;Node19</title>
<path fill="none" stroke="midnightblue" d="M831.196,-140.458C811.017,-139.014 788.566,-137.423 768,-136 528.925,-119.463 467.872,-129.108 230,-100 219.854,-98.7585 209.075,-97.0965 198.741,-95.3309"/>
<polygon fill="midnightblue" stroke="midnightblue" points="199.052,-91.8317 188.596,-93.5425 197.836,-98.7255 199.052,-91.8317"/>
</g>
<!-- Node20 -->
<g id="node20" class="node"><title>Node20</title>
<polygon fill="none" stroke="#bfbfbf" points="239,-74.5 239,-93.5 395,-93.5 395,-74.5 239,-74.5"/>
<text text-anchor="middle" x="317" y="-81.5" font-family="Helvetica,sans-Serif" font-size="10.00">Math/GenVector/Transform3D.h</text>
</g>
<!-- Node18&#45;&gt;Node20 -->
<g id="edge20" class="edge"><title>Node18&#45;&gt;Node20</title>
<path fill="none" stroke="midnightblue" d="M831.36,-139.87C718.445,-130.52 484.988,-110.684 404,-100 393.751,-98.6481 382.864,-96.9673 372.386,-95.2249"/>
<polygon fill="midnightblue" stroke="midnightblue" points="372.945,-91.7698 362.5,-93.5441 371.772,-98.6708 372.945,-91.7698"/>
</g>
<!-- Node21 -->
<g id="node21" class="node"><title>Node21</title>
<polygon fill="none" stroke="#bfbfbf" points="413,-74.5 413,-93.5 573,-93.5 573,-74.5 413,-74.5"/>
<text text-anchor="middle" x="493" y="-81.5" font-family="Helvetica,sans-Serif" font-size="10.00">Math/GenVector/Translation3D.h</text>
</g>
<!-- Node18&#45;&gt;Node21 -->
<g id="edge21" class="edge"><title>Node18&#45;&gt;Node21</title>
<path fill="none" stroke="midnightblue" d="M831.779,-136.469C768.759,-127.724 668.512,-113.527 582,-100 572.463,-98.5088 562.363,-96.8667 552.522,-95.2327"/>
<polygon fill="midnightblue" stroke="midnightblue" points="552.836,-91.7367 542.396,-93.5395 551.682,-98.6408 552.836,-91.7367"/>
</g>
<!-- Node22 -->
<g id="node22" class="node"><title>Node22</title>
<polygon fill="none" stroke="#bfbfbf" points="591,-74.5 591,-93.5 667,-93.5 667,-74.5 591,-74.5"/>
<text text-anchor="middle" x="629" y="-81.5" font-family="Helvetica,sans-Serif" font-size="10.00">TGeoMatrix.h</text>
</g>
<!-- Node18&#45;&gt;Node22 -->
<g id="edge23" class="edge"><title>Node18&#45;&gt;Node22</title>
<path fill="none" stroke="midnightblue" d="M845.172,-136.445C800.766,-128.304 733.57,-115.084 676,-100 672.103,-98.979 668.052,-97.8269 664.034,-96.6263"/>
<polygon fill="midnightblue" stroke="midnightblue" points="664.812,-93.2033 654.225,-93.5891 662.742,-99.8902 664.812,-93.2033"/>
</g>
<!-- Node23 -->
<g id="node23" class="node"><title>Node23</title>
<polygon fill="none" stroke="#bfbfbf" points="685.5,-69 685.5,-99 836.5,-99 836.5,-69 685.5,-69"/>
<text text-anchor="start" x="693.5" y="-87" font-family="Helvetica,sans-Serif" font-size="10.00">Math/GenVector/Displacement</text>
<text text-anchor="middle" x="761" y="-76" font-family="Helvetica,sans-Serif" font-size="10.00">Vector3D.h</text>
</g>
<!-- Node18&#45;&gt;Node23 -->
<g id="edge24" class="edge"><title>Node18&#45;&gt;Node23</title>
<path fill="none" stroke="midnightblue" d="M874.944,-136.403C855.858,-127.793 825.891,-114.274 801.479,-103.261"/>
<polygon fill="midnightblue" stroke="midnightblue" points="802.644,-99.9472 792.089,-99.0253 799.766,-106.328 802.644,-99.9472"/>
</g>
<!-- Node24 -->
<g id="node24" class="node"><title>Node24</title>
<polygon fill="none" stroke="#bfbfbf" points="855,-74.5 855,-93.5 1031,-93.5 1031,-74.5 855,-74.5"/>
<text text-anchor="middle" x="943" y="-81.5" font-family="Helvetica,sans-Serif" font-size="10.00">Math/GenVector/PositionVector3D.h</text>
</g>
<!-- Node18&#45;&gt;Node24 -->
<g id="edge25" class="edge"><title>Node18&#45;&gt;Node24</title>
<path fill="none" stroke="midnightblue" d="M901.021,-136.403C908.443,-127.314 920.333,-112.756 929.567,-101.449"/>
<polygon fill="midnightblue" stroke="midnightblue" points="932.378,-103.54 935.993,-93.5806 926.956,-99.1121 932.378,-103.54"/>
</g>
<!-- Node25 -->
<g id="node25" class="node"><title>Node25</title>
<g id="a_node25"><a xlink:href="../../d2/dd0/Cartesian2D_8h.html" target="_top" xlink:title="MathUtils/Cartesian2D.h">
<polygon fill="none" stroke="black" points="1048.5,-74.5 1048.5,-93.5 1173.5,-93.5 1173.5,-74.5 1048.5,-74.5"/>
<text text-anchor="middle" x="1111" y="-81.5" font-family="Helvetica,sans-Serif" font-size="10.00">MathUtils/Cartesian2D.h</text>
</a>
</g>
</g>
<!-- Node18&#45;&gt;Node25 -->
<g id="edge26" class="edge"><title>Node18&#45;&gt;Node25</title>
<path fill="none" stroke="midnightblue" d="M925.091,-136.403C963.281,-125.844 1028.17,-107.903 1070.3,-96.2538"/>
<polygon fill="midnightblue" stroke="midnightblue" points="1071.26,-99.6191 1079.97,-93.5806 1069.4,-92.8722 1071.26,-99.6191"/>
</g>
<!-- Node26 -->
<g id="node26" class="node"><title>Node26</title>
<polygon fill="none" stroke="#bfbfbf" points="944.5,-1 944.5,-31 1095.5,-31 1095.5,-1 944.5,-1"/>
<text text-anchor="start" x="952.5" y="-19" font-family="Helvetica,sans-Serif" font-size="10.00">Math/GenVector/Displacement</text>
<text text-anchor="middle" x="1020" y="-8" font-family="Helvetica,sans-Serif" font-size="10.00">Vector2D.h</text>
</g>
<!-- Node25&#45;&gt;Node26 -->
<g id="edge27" class="edge"><title>Node25&#45;&gt;Node26</title>
<path fill="none" stroke="midnightblue" d="M1099.1,-74.3717C1086.22,-65.0286 1065.22,-49.7966 1048.09,-37.375"/>
<polygon fill="midnightblue" stroke="midnightblue" points="1049.7,-34.2194 1039.55,-31.1815 1045.59,-39.8859 1049.7,-34.2194"/>
</g>
<!-- Node27 -->
<g id="node27" class="node"><title>Node27</title>
<polygon fill="none" stroke="#bfbfbf" points="1114,-6.5 1114,-25.5 1290,-25.5 1290,-6.5 1114,-6.5"/>
<text text-anchor="middle" x="1202" y="-13.5" font-family="Helvetica,sans-Serif" font-size="10.00">Math/GenVector/PositionVector2D.h</text>
</g>
<!-- Node25&#45;&gt;Node27 -->
<g id="edge28" class="edge"><title>Node25&#45;&gt;Node27</title>
<path fill="none" stroke="midnightblue" d="M1122.9,-74.3717C1137.88,-63.5015 1163.86,-44.6602 1181.94,-31.5474"/>
<polygon fill="midnightblue" stroke="midnightblue" points="1184.06,-34.3349 1190.1,-25.6305 1179.95,-28.6684 1184.06,-34.3349"/>
</g>
<!-- Node28&#45;&gt;Node2 -->
<g id="edge31" class="edge"><title>Node28&#45;&gt;Node2</title>
<path fill="none" stroke="midnightblue" d="M1119.72,-192.71C999.25,-180.574 780.291,-158.514 698.217,-150.246"/>
<polygon fill="midnightblue" stroke="midnightblue" points="698.533,-146.76 688.233,-149.24 697.832,-153.725 698.533,-146.76"/>
</g>
<!-- Node28&#45;&gt;Node4 -->
<g id="edge44" class="edge"><title>Node28&#45;&gt;Node4</title>
<path fill="none" stroke="midnightblue" d="M1206.21,-192.281C1215.38,-173.294 1237.29,-127.892 1249.47,-102.662"/>
<polygon fill="midnightblue" stroke="midnightblue" points="1252.7,-104.032 1253.89,-93.5048 1246.39,-100.989 1252.7,-104.032"/>
</g>
<!-- Node28&#45;&gt;Node6 -->
<g id="edge32" class="edge"><title>Node28&#45;&gt;Node6</title>
<path fill="none" stroke="midnightblue" d="M1200.16,-192.37C1195.68,-168.757 1186.94,-102.549 1221,-68 1261.78,-26.6337 1443.36,-18.8096 1515.4,-17.3377"/>
<polygon fill="midnightblue" stroke="midnightblue" points="1515.66,-20.8338 1525.6,-17.1576 1515.54,-13.8349 1515.66,-20.8338"/>
</g>
<!-- Node28&#45;&gt;Node18 -->
<g id="edge33" class="edge"><title>Node28&#45;&gt;Node18</title>
<path fill="none" stroke="midnightblue" d="M1153.2,-192.444C1098.79,-182.905 1010.83,-167.483 952.708,-157.293"/>
<polygon fill="midnightblue" stroke="midnightblue" points="953.029,-153.796 942.575,-155.516 951.821,-160.691 953.029,-153.796"/>
</g>
<!-- Node29 -->
<g id="node29" class="node"><title>Node29</title>
<g id="a_node29"><a xlink:href="../../d6/d31/DetID_8h.html" target="_top" xlink:title="DetectorsBase/DetID.h">
<polygon fill="none" stroke="black" points="1340.5,-136.5 1340.5,-155.5 1459.5,-155.5 1459.5,-136.5 1340.5,-136.5"/>
<text text-anchor="middle" x="1400" y="-143.5" font-family="Helvetica,sans-Serif" font-size="10.00">DetectorsBase/DetID.h</text>
</a>
</g>
</g>
<!-- Node28&#45;&gt;Node29 -->
<g id="edge34" class="edge"><title>Node28&#45;&gt;Node29</title>
<path fill="none" stroke="midnightblue" d="M1233.37,-192.444C1267.26,-183.201 1321.4,-168.436 1358.72,-158.257"/>
<polygon fill="midnightblue" stroke="midnightblue" points="1360.05,-161.524 1368.77,-155.516 1358.2,-154.771 1360.05,-161.524"/>
</g>
<!-- Node35 -->
<g id="node35" class="node"><title>Node35</title>
<polygon fill="none" stroke="#bfbfbf" points="1102.5,-136.5 1102.5,-155.5 1173.5,-155.5 1173.5,-136.5 1102.5,-136.5"/>
<text text-anchor="middle" x="1138" y="-143.5" font-family="Helvetica,sans-Serif" font-size="10.00">FairLogger.h</text>
</g>
<!-- Node28&#45;&gt;Node35 -->
<g id="edge45" class="edge"><title>Node28&#45;&gt;Node35</title>
<path fill="none" stroke="midnightblue" d="M1191.72,-192.324C1182.16,-184.263 1167.72,-172.077 1156.22,-162.369"/>
<polygon fill="midnightblue" stroke="midnightblue" points="1158.37,-159.608 1148.47,-155.834 1153.86,-164.958 1158.37,-159.608"/>
</g>
<!-- Node29&#45;&gt;Node4 -->
<g id="edge38" class="edge"><title>Node29&#45;&gt;Node4</title>
<path fill="none" stroke="midnightblue" d="M1379.65,-136.403C1355.61,-126.245 1315.4,-109.255 1287.84,-97.6074"/>
<polygon fill="midnightblue" stroke="midnightblue" points="1288.88,-94.2488 1278.31,-93.5806 1286.16,-100.697 1288.88,-94.2488"/>
</g>
<!-- Node29&#45;&gt;Node6 -->
<g id="edge36" class="edge"><title>Node29&#45;&gt;Node6</title>
<path fill="none" stroke="midnightblue" d="M1437.14,-136.438C1459.4,-129.697 1486.99,-118.305 1506,-100 1524.42,-82.2665 1535.07,-54.1223 1540.46,-35.6058"/>
<polygon fill="midnightblue" stroke="midnightblue" points="1543.9,-36.2981 1543.1,-25.7335 1537.14,-34.491 1543.9,-36.2981"/>
</g>
<!-- Node30 -->
<g id="node30" class="node"><title>Node30</title>
<polygon fill="none" stroke="#bfbfbf" points="1304,-74.5 1304,-93.5 1350,-93.5 1350,-74.5 1304,-74.5"/>
<text text-anchor="middle" x="1327" y="-81.5" font-family="Helvetica,sans-Serif" font-size="10.00">cstdint</text>
</g>
<!-- Node29&#45;&gt;Node30 -->
<g id="edge35" class="edge"><title>Node29&#45;&gt;Node30</title>
<path fill="none" stroke="midnightblue" d="M1389.54,-136.403C1378.05,-126.958 1359.37,-111.606 1345.41,-100.134"/>
<polygon fill="midnightblue" stroke="midnightblue" points="1347.39,-97.2264 1337.44,-93.5806 1342.94,-102.634 1347.39,-97.2264"/>
</g>
<!-- Node31 -->
<g id="node31" class="node"><title>Node31</title>
<polygon fill="none" stroke="#bfbfbf" points="1368,-74.5 1368,-93.5 1430,-93.5 1430,-74.5 1368,-74.5"/>
<text text-anchor="middle" x="1399" y="-81.5" font-family="Helvetica,sans-Serif" font-size="10.00">type_traits</text>
</g>
<!-- Node29&#45;&gt;Node31 -->
<g id="edge37" class="edge"><title>Node29&#45;&gt;Node31</title>
<path fill="none" stroke="midnightblue" d="M1399.86,-136.403C1399.72,-127.938 1399.5,-114.728 1399.31,-103.82"/>
<polygon fill="midnightblue" stroke="midnightblue" points="1402.81,-103.521 1399.14,-93.5806 1395.81,-103.638 1402.81,-103.521"/>
</g>
<!-- Node29&#45;&gt;Node32 -->
<g id="edge39" class="edge"><title>Node29&#45;&gt;Node32</title>
<path fill="none" stroke="midnightblue" d="M1435.41,-136.467C1479.66,-125.805 1555.44,-107.545 1603.82,-95.886"/>
<polygon fill="midnightblue" stroke="midnightblue" points="1604.81,-99.2487 1613.71,-93.5034 1603.17,-92.4434 1604.81,-99.2487"/>
</g>
<!-- Node34 -->
<g id="node34" class="node"><title>Node34</title>
<polygon fill="none" stroke="#bfbfbf" points="1448.5,-74.5 1448.5,-93.5 1497.5,-93.5 1497.5,-74.5 1448.5,-74.5"/>
<text text-anchor="middle" x="1473" y="-81.5" font-family="Helvetica,sans-Serif" font-size="10.00">cassert</text>
</g>
<!-- Node29&#45;&gt;Node34 -->
<g id="edge43" class="edge"><title>Node29&#45;&gt;Node34</title>
<path fill="none" stroke="midnightblue" d="M1410.46,-136.403C1421.95,-126.958 1440.63,-111.606 1454.59,-100.134"/>
<polygon fill="midnightblue" stroke="midnightblue" points="1457.06,-102.634 1462.56,-93.5806 1452.61,-97.2264 1457.06,-102.634"/>
</g>
<!-- Node32&#45;&gt;Node6 -->
<g id="edge42" class="edge"><title>Node32&#45;&gt;Node6</title>
<path fill="none" stroke="midnightblue" d="M1635.4,-74.3717C1618.04,-63.3533 1587.77,-44.1449 1567.08,-31.0142"/>
<polygon fill="midnightblue" stroke="midnightblue" points="1568.92,-28.0336 1558.6,-25.6305 1565.17,-33.9439 1568.92,-28.0336"/>
</g>
<!-- Node32&#45;&gt;Node8 -->
<g id="edge41" class="edge"><title>Node32&#45;&gt;Node8</title>
<path fill="none" stroke="midnightblue" d="M1654.49,-74.3717C1660.93,-64.2495 1671.77,-47.2154 1679.97,-34.3312"/>
<polygon fill="midnightblue" stroke="midnightblue" points="1682.96,-36.1568 1685.37,-25.8411 1677.05,-32.3987 1682.96,-36.1568"/>
</g>
<!-- Node32&#45;&gt;Node33 -->
<g id="edge40" class="edge"><title>Node32&#45;&gt;Node33</title>
<path fill="none" stroke="midnightblue" d="M1682.72,-74.4393C1729.48,-62.5696 1814.05,-41.1027 1865.51,-28.0406"/>
<polygon fill="midnightblue" stroke="midnightblue" points="1866.5,-31.3984 1875.34,-25.5455 1864.78,-24.6136 1866.5,-31.3984"/>
</g>
</g>
</svg>
