<?xml version="1.0" encoding="UTF-8" standalone="no"?>
<!DOCTYPE svg PUBLIC "-//W3C//DTD SVG 1.1//EN"
 "http://www.w3.org/Graphics/SVG/1.1/DTD/svg11.dtd">
<!-- Generated by graphviz version 2.36.0 (20140111.2315)
 -->
<!-- Title: /home/travis/build/AliceO2Group/AliceO2/Detectors/ITSMFT/common/simulation/src/Digitizer.cxx Pages: 1 -->
<svg width="2567pt" height="446pt"
 viewBox="0.00 0.00 2567.00 446.00" xmlns="http://www.w3.org/2000/svg" xmlns:xlink="http://www.w3.org/1999/xlink">
<g id="graph0" class="graph" transform="scale(1 1) rotate(0) translate(4 442)">
<title>/home/travis/build/AliceO2Group/AliceO2/Detectors/ITSMFT/common/simulation/src/Digitizer.cxx</title>
<!-- Node1 -->
<g id="node1" class="node"><title>Node1</title>
<polygon fill="#bfbfbf" stroke="black" points="1525,-385 1525,-437 1667,-437 1667,-385 1525,-385"/>
<text text-anchor="start" x="1533" y="-425" font-family="Helvetica,sans-Serif" font-size="10.00">/home/travis/build</text>
<text text-anchor="start" x="1533" y="-414" font-family="Helvetica,sans-Serif" font-size="10.00">/AliceO2Group/AliceO2</text>
<text text-anchor="start" x="1533" y="-403" font-family="Helvetica,sans-Serif" font-size="10.00">/Detectors/ITSMFT/common</text>
<text text-anchor="middle" x="1596" y="-392" font-family="Helvetica,sans-Serif" font-size="10.00">/simulation/src/Digitizer.cxx</text>
</g>
<!-- Node2 -->
<g id="node2" class="node"><title>Node2</title>
<g id="a_node2"><a xlink:href="../../d7/dcd/MCCompLabel_8h.html" target="_top" xlink:title="SimulationDataFormat\l/MCCompLabel.h">
<polygon fill="none" stroke="black" points="1299,-69 1299,-99 1413,-99 1413,-69 1299,-69"/>
<text text-anchor="start" x="1307" y="-87" font-family="Helvetica,sans-Serif" font-size="10.00">SimulationDataFormat</text>
<text text-anchor="middle" x="1356" y="-76" font-family="Helvetica,sans-Serif" font-size="10.00">/MCCompLabel.h</text>
</a>
</g>
</g>
<!-- Node1&#45;&gt;Node2 -->
<g id="edge1" class="edge"><title>Node1&#45;&gt;Node2</title>
<path fill="none" stroke="midnightblue" d="M1524.81,-410.212C1430.79,-406.321 1277,-383.655 1277,-277 1277,-277 1277,-277 1277,-207 1277,-166.42 1308.18,-128.679 1331.36,-106.224"/>
<polygon fill="midnightblue" stroke="midnightblue" points="1333.94,-108.599 1338.86,-99.2133 1329.16,-103.486 1333.94,-108.599"/>
</g>
<!-- Node4 -->
<g id="node4" class="node"><title>Node4</title>
<g id="a_node4"><a xlink:href="../../d0/d06/ITSMFT_2common_2base_2include_2ITSMFTBase_2Digit_8h.html" target="_top" xlink:title="ITSMFTBase/Digit.h">
<polygon fill="none" stroke="black" points="1343.5,-136.5 1343.5,-155.5 1450.5,-155.5 1450.5,-136.5 1343.5,-136.5"/>
<text text-anchor="middle" x="1397" y="-143.5" font-family="Helvetica,sans-Serif" font-size="10.00">ITSMFTBase/Digit.h</text>
</a>
</g>
</g>
<!-- Node1&#45;&gt;Node4 -->
<g id="edge3" class="edge"><title>Node1&#45;&gt;Node4</title>
<path fill="none" stroke="midnightblue" d="M1561.65,-384.858C1520.02,-352.464 1450.87,-292.148 1414,-224 1404.15,-205.784 1400,-182.208 1398.26,-165.968"/>
<polygon fill="midnightblue" stroke="midnightblue" points="1401.71,-165.284 1397.37,-155.621 1394.74,-165.884 1401.71,-165.284"/>
</g>
<!-- Node7 -->
<g id="node7" class="node"><title>Node7</title>
<g id="a_node7"><a xlink:href="../../d0/dae/ITSMFT_2common_2simulation_2include_2ITSMFTSimulation_2Hit_8h.html" target="_top" xlink:title="ITSMFTSimulation/Hit.h">
<polygon fill="none" stroke="black" points="1087,-266.5 1087,-285.5 1209,-285.5 1209,-266.5 1087,-266.5"/>
<text text-anchor="middle" x="1148" y="-273.5" font-family="Helvetica,sans-Serif" font-size="10.00">ITSMFTSimulation/Hit.h</text>
</a>
</g>
</g>
<!-- Node1&#45;&gt;Node7 -->
<g id="edge8" class="edge"><title>Node1&#45;&gt;Node7</title>
<path fill="none" stroke="midnightblue" d="M1524.74,-404.383C1455.87,-397.198 1349.54,-381.424 1263,-348 1226.45,-333.882 1188.65,-307.972 1166.78,-291.66"/>
<polygon fill="midnightblue" stroke="midnightblue" points="1168.78,-288.781 1158.7,-285.521 1164.55,-294.356 1168.78,-288.781"/>
</g>
<!-- Node9 -->
<g id="node9" class="node"><title>Node9</title>
<g id="a_node9"><a xlink:href="../../dd/d76/Cartesian3D_8h.html" target="_top" xlink:title="MathUtils/Cartesian3D.h">
<polygon fill="none" stroke="black" points="894.5,-136.5 894.5,-155.5 1019.5,-155.5 1019.5,-136.5 894.5,-136.5"/>
<text text-anchor="middle" x="957" y="-143.5" font-family="Helvetica,sans-Serif" font-size="10.00">MathUtils/Cartesian3D.h</text>
</a>
</g>
</g>
<!-- Node1&#45;&gt;Node9 -->
<g id="edge69" class="edge"><title>Node1&#45;&gt;Node9</title>
<path fill="none" stroke="midnightblue" d="M1524.69,-402.807C1448.34,-394.052 1324.11,-376.76 1220,-348 1154.61,-329.935 1139.65,-320.304 1078,-292 1019.1,-264.96 982.48,-279.494 949,-224 938.293,-206.253 943.389,-181.944 949.134,-165.42"/>
<polygon fill="midnightblue" stroke="midnightblue" points="952.5,-166.422 952.844,-155.833 945.971,-163.896 952.5,-166.422"/>
</g>
<!-- Node21 -->
<g id="node21" class="node"><title>Node21</title>
<g id="a_node21"><a xlink:href="../../d7/d9c/ITSMFT_2common_2simulation_2include_2ITSMFTSimulation_2Digitizer_8h.html" target="_top" xlink:title="ITSMFTSimulation/Digitizer.h">
<polygon fill="none" stroke="black" points="1722,-328.5 1722,-347.5 1868,-347.5 1868,-328.5 1722,-328.5"/>
<text text-anchor="middle" x="1795" y="-335.5" font-family="Helvetica,sans-Serif" font-size="10.00">ITSMFTSimulation/Digitizer.h</text>
</a>
</g>
</g>
<!-- Node1&#45;&gt;Node21 -->
<g id="edge26" class="edge"><title>Node1&#45;&gt;Node21</title>
<path fill="none" stroke="midnightblue" d="M1666.16,-384.968C1698.36,-373.478 1735.07,-360.381 1761.05,-351.114"/>
<polygon fill="midnightblue" stroke="midnightblue" points="1762.54,-354.296 1770.79,-347.639 1760.19,-347.703 1762.54,-354.296"/>
</g>
<!-- Node43 -->
<g id="node43" class="node"><title>Node43</title>
<polygon fill="none" stroke="#bfbfbf" points="2487.5,-136.5 2487.5,-155.5 2558.5,-155.5 2558.5,-136.5 2487.5,-136.5"/>
<text text-anchor="middle" x="2523" y="-143.5" font-family="Helvetica,sans-Serif" font-size="10.00">FairLogger.h</text>
</g>
<!-- Node1&#45;&gt;Node43 -->
<g id="edge70" class="edge"><title>Node1&#45;&gt;Node43</title>
<path fill="none" stroke="midnightblue" d="M1667.3,-405.831C1793.08,-396.686 2061.11,-369.124 2273,-292 2365.49,-258.336 2463.03,-191.124 2503.57,-161.544"/>
<polygon fill="midnightblue" stroke="midnightblue" points="2505.79,-164.258 2511.76,-155.509 2501.64,-158.622 2505.79,-164.258"/>
</g>
<!-- Node45 -->
<g id="node45" class="node"><title>Node45</title>
<polygon fill="none" stroke="#bfbfbf" points="2371,-328.5 2371,-347.5 2439,-347.5 2439,-328.5 2371,-328.5"/>
<text text-anchor="middle" x="2405" y="-335.5" font-family="Helvetica,sans-Serif" font-size="10.00">TRandom.h</text>
</g>
<!-- Node1&#45;&gt;Node45 -->
<g id="edge71" class="edge"><title>Node1&#45;&gt;Node45</title>
<path fill="none" stroke="midnightblue" d="M1667.08,-406.682C1802.03,-399.837 2104.42,-381.875 2357,-348 2358.28,-347.829 2359.57,-347.646 2360.87,-347.454"/>
<polygon fill="midnightblue" stroke="midnightblue" points="2361.66,-350.873 2370.98,-345.831 2360.55,-343.961 2361.66,-350.873"/>
</g>
<!-- Node46 -->
<g id="node46" class="node"><title>Node46</title>
<polygon fill="none" stroke="#bfbfbf" points="2457.5,-328.5 2457.5,-347.5 2502.5,-347.5 2502.5,-328.5 2457.5,-328.5"/>
<text text-anchor="middle" x="2480" y="-335.5" font-family="Helvetica,sans-Serif" font-size="10.00">climits</text>
</g>
<!-- Node1&#45;&gt;Node46 -->
<g id="edge72" class="edge"><title>Node1&#45;&gt;Node46</title>
<path fill="none" stroke="midnightblue" d="M1667,-409.648C1812.27,-407.885 2153.71,-398.402 2447.42,-347.707"/>
<polygon fill="midnightblue" stroke="midnightblue" points="2448.16,-351.131 2457.4,-345.963 2446.95,-344.235 2448.16,-351.131"/>
</g>
<!-- Node3 -->
<g id="node3" class="node"><title>Node3</title>
<polygon fill="none" stroke="#bfbfbf" points="1729,-6.5 1729,-25.5 1785,-25.5 1785,-6.5 1729,-6.5"/>
<text text-anchor="middle" x="1757" y="-13.5" font-family="Helvetica,sans-Serif" font-size="10.00">Rtypes.h</text>
</g>
<!-- Node2&#45;&gt;Node3 -->
<g id="edge2" class="edge"><title>Node2&#45;&gt;Node3</title>
<path fill="none" stroke="midnightblue" d="M1413.18,-69.7372C1416.16,-69.1301 1419.11,-68.5469 1422,-68 1528.82,-47.7575 1656,-30.1627 1718.47,-21.9423"/>
<polygon fill="midnightblue" stroke="midnightblue" points="1719.19,-25.3787 1728.65,-20.611 1718.28,-18.4378 1719.19,-25.3787"/>
</g>
<!-- Node4&#45;&gt;Node2 -->
<g id="edge5" class="edge"><title>Node4&#45;&gt;Node2</title>
<path fill="none" stroke="midnightblue" d="M1391.13,-136.403C1385.99,-128.885 1378.29,-117.624 1371.41,-107.556"/>
<polygon fill="midnightblue" stroke="midnightblue" points="1374.19,-105.423 1365.66,-99.1408 1368.42,-109.372 1374.19,-105.423"/>
</g>
<!-- Node4&#45;&gt;Node3 -->
<g id="edge7" class="edge"><title>Node4&#45;&gt;Node3</title>
<path fill="none" stroke="midnightblue" d="M1450.79,-136.574C1518.3,-125.79 1627.46,-107.596 1645,-100 1683.06,-83.5183 1720.36,-51.9041 1740.86,-32.8063"/>
<polygon fill="midnightblue" stroke="midnightblue" points="1743.5,-35.1258 1748.33,-25.6977 1738.67,-30.0539 1743.5,-35.1258"/>
</g>
<!-- Node5 -->
<g id="node5" class="node"><title>Node5</title>
<polygon fill="none" stroke="#bfbfbf" points="1541.5,-69 1541.5,-99 1636.5,-99 1636.5,-69 1541.5,-69"/>
<text text-anchor="start" x="1549.5" y="-87" font-family="Helvetica,sans-Serif" font-size="10.00">boost/serialization</text>
<text text-anchor="middle" x="1589" y="-76" font-family="Helvetica,sans-Serif" font-size="10.00">/base_object.hpp</text>
</g>
<!-- Node4&#45;&gt;Node5 -->
<g id="edge4" class="edge"><title>Node4&#45;&gt;Node5</title>
<path fill="none" stroke="midnightblue" d="M1424.51,-136.403C1453.04,-127.488 1498.4,-113.311 1534.28,-102.101"/>
<polygon fill="midnightblue" stroke="midnightblue" points="1535.62,-105.349 1544.12,-99.0253 1533.53,-98.6675 1535.62,-105.349"/>
</g>
<!-- Node6 -->
<g id="node6" class="node"><title>Node6</title>
<polygon fill="none" stroke="#bfbfbf" points="1431,-74.5 1431,-93.5 1523,-93.5 1523,-74.5 1431,-74.5"/>
<text text-anchor="middle" x="1477" y="-81.5" font-family="Helvetica,sans-Serif" font-size="10.00">FairTimeStamp.h</text>
</g>
<!-- Node4&#45;&gt;Node6 -->
<g id="edge6" class="edge"><title>Node4&#45;&gt;Node6</title>
<path fill="none" stroke="midnightblue" d="M1408.46,-136.403C1421.17,-126.869 1441.91,-111.315 1457.25,-99.8106"/>
<polygon fill="midnightblue" stroke="midnightblue" points="1459.66,-102.381 1465.56,-93.5806 1455.46,-96.7806 1459.66,-102.381"/>
</g>
<!-- Node7&#45;&gt;Node2 -->
<g id="edge22" class="edge"><title>Node7&#45;&gt;Node2</title>
<path fill="none" stroke="midnightblue" d="M1164.11,-266.493C1179.75,-257.592 1203.35,-242.367 1219,-224 1247.36,-190.718 1232.67,-167.501 1263,-136 1275.92,-122.582 1293.15,-111.806 1309.26,-103.678"/>
<polygon fill="midnightblue" stroke="midnightblue" points="1311.09,-106.685 1318.58,-99.1985 1308.05,-100.376 1311.09,-106.685"/>
</g>
<!-- Node7&#45;&gt;Node3 -->
<g id="edge23" class="edge"><title>Node7&#45;&gt;Node3</title>
<path fill="none" stroke="midnightblue" d="M1143.62,-266.261C1136.4,-250.563 1123.96,-216.908 1136,-192 1164.63,-132.753 1201.05,-141.642 1252,-100 1269.1,-86.0273 1269.7,-76.6863 1290,-68 1367.06,-35.0248 1621.43,-22.124 1718.71,-18.3196"/>
<polygon fill="midnightblue" stroke="midnightblue" points="1719.11,-21.807 1728.97,-17.9295 1718.84,-14.8121 1719.11,-21.807"/>
</g>
<!-- Node8 -->
<g id="node8" class="node"><title>Node8</title>
<g id="a_node8"><a xlink:href="../../d4/d25/BaseHits_8h.html" target="_top" xlink:title="SimulationDataFormat\l/BaseHits.h">
<polygon fill="none" stroke="black" points="958,-193 958,-223 1072,-223 1072,-193 958,-193"/>
<text text-anchor="start" x="966" y="-211" font-family="Helvetica,sans-Serif" font-size="10.00">SimulationDataFormat</text>
<text text-anchor="middle" x="1015" y="-200" font-family="Helvetica,sans-Serif" font-size="10.00">/BaseHits.h</text>
</a>
</g>
</g>
<!-- Node7&#45;&gt;Node8 -->
<g id="edge9" class="edge"><title>Node7&#45;&gt;Node8</title>
<path fill="none" stroke="midnightblue" d="M1130.61,-266.372C1110.86,-256.569 1078.04,-240.283 1052.41,-227.563"/>
<polygon fill="midnightblue" stroke="midnightblue" points="1053.84,-224.366 1043.33,-223.056 1050.73,-230.637 1053.84,-224.366"/>
</g>
<!-- Node19 -->
<g id="node19" class="node"><title>Node19</title>
<polygon fill="none" stroke="#bfbfbf" points="31,-74.5 31,-93.5 85,-93.5 85,-74.5 31,-74.5"/>
<text text-anchor="middle" x="58" y="-81.5" font-family="Helvetica,sans-Serif" font-size="10.00">iostream</text>
</g>
<!-- Node7&#45;&gt;Node19 -->
<g id="edge25" class="edge"><title>Node7&#45;&gt;Node19</title>
<path fill="none" stroke="midnightblue" d="M1086.91,-269.815C923.293,-254.874 462.603,-205.859 94,-100 91.346,-99.2378 88.6241,-98.3378 85.9231,-97.3632"/>
<polygon fill="midnightblue" stroke="midnightblue" points="86.9794,-94.0179 76.392,-93.6199 84.4204,-100.533 86.9794,-94.0179"/>
</g>
<!-- Node20 -->
<g id="node20" class="node"><title>Node20</title>
<polygon fill="none" stroke="#bfbfbf" points="1145.5,-198.5 1145.5,-217.5 1210.5,-217.5 1210.5,-198.5 1145.5,-198.5"/>
<text text-anchor="middle" x="1178" y="-205.5" font-family="Helvetica,sans-Serif" font-size="10.00">TVector3.h</text>
</g>
<!-- Node7&#45;&gt;Node20 -->
<g id="edge24" class="edge"><title>Node7&#45;&gt;Node20</title>
<path fill="none" stroke="midnightblue" d="M1151.92,-266.372C1156.43,-256.446 1163.97,-239.874 1169.78,-227.086"/>
<polygon fill="midnightblue" stroke="midnightblue" points="1173.03,-228.393 1173.98,-217.841 1166.66,-225.496 1173.03,-228.393"/>
</g>
<!-- Node8&#45;&gt;Node9 -->
<g id="edge10" class="edge"><title>Node8&#45;&gt;Node9</title>
<path fill="none" stroke="midnightblue" d="M1001.25,-192.781C992.653,-183.882 981.548,-172.394 972.614,-163.152"/>
<polygon fill="midnightblue" stroke="midnightblue" points="974.906,-160.488 965.44,-155.731 969.873,-165.353 974.906,-160.488"/>
</g>
<!-- Node9&#45;&gt;Node3 -->
<g id="edge14" class="edge"><title>Node9&#45;&gt;Node3</title>
<path fill="none" stroke="midnightblue" d="M975.428,-136.358C992.673,-127.963 1018.87,-114.403 1040,-100 1058.24,-87.563 1057.56,-76.3419 1078,-68 1195.39,-20.0998 1592.75,-16.6647 1718.51,-16.8098"/>
<polygon fill="midnightblue" stroke="midnightblue" points="1718.79,-20.3103 1728.8,-16.8306 1718.8,-13.3103 1718.79,-20.3103"/>
</g>
<!-- Node10 -->
<g id="node10" class="node"><title>Node10</title>
<polygon fill="none" stroke="#bfbfbf" points="882.5,-74.5 882.5,-93.5 1031.5,-93.5 1031.5,-74.5 882.5,-74.5"/>
<text text-anchor="middle" x="957" y="-81.5" font-family="Helvetica,sans-Serif" font-size="10.00">Math/GenVector/Rotation3D.h</text>
</g>
<!-- Node9&#45;&gt;Node10 -->
<g id="edge11" class="edge"><title>Node9&#45;&gt;Node10</title>
<path fill="none" stroke="midnightblue" d="M957,-136.403C957,-127.938 957,-114.728 957,-103.82"/>
<polygon fill="midnightblue" stroke="midnightblue" points="960.5,-103.581 957,-93.5806 953.5,-103.581 960.5,-103.581"/>
</g>
<!-- Node11 -->
<g id="node11" class="node"><title>Node11</title>
<polygon fill="none" stroke="#bfbfbf" points="1087,-74.5 1087,-93.5 1243,-93.5 1243,-74.5 1087,-74.5"/>
<text text-anchor="middle" x="1165" y="-81.5" font-family="Helvetica,sans-Serif" font-size="10.00">Math/GenVector/Transform3D.h</text>
</g>
<!-- Node9&#45;&gt;Node11 -->
<g id="edge12" class="edge"><title>Node9&#45;&gt;Node11</title>
<path fill="none" stroke="midnightblue" d="M986.801,-136.403C1023.25,-125.889 1085.08,-108.054 1125.47,-96.4016"/>
<polygon fill="midnightblue" stroke="midnightblue" points="1126.62,-99.7152 1135.25,-93.5806 1124.68,-92.9894 1126.62,-99.7152"/>
</g>
<!-- Node12 -->
<g id="node12" class="node"><title>Node12</title>
<polygon fill="none" stroke="#bfbfbf" points="247,-74.5 247,-93.5 407,-93.5 407,-74.5 247,-74.5"/>
<text text-anchor="middle" x="327" y="-81.5" font-family="Helvetica,sans-Serif" font-size="10.00">Math/GenVector/Translation3D.h</text>
</g>
<!-- Node9&#45;&gt;Node12 -->
<g id="edge13" class="edge"><title>Node9&#45;&gt;Node12</title>
<path fill="none" stroke="midnightblue" d="M894.407,-137.478C889.534,-136.955 884.689,-136.456 880,-136 674.128,-115.99 621.3,-125.213 416,-100 405.283,-98.6839 393.888,-96.9895 382.955,-95.2159"/>
<polygon fill="midnightblue" stroke="midnightblue" points="383.517,-91.7613 373.078,-93.5733 382.368,-98.6664 383.517,-91.7613"/>
</g>
<!-- Node13 -->
<g id="node13" class="node"><title>Node13</title>
<polygon fill="none" stroke="#bfbfbf" points="425,-74.5 425,-93.5 501,-93.5 501,-74.5 425,-74.5"/>
<text text-anchor="middle" x="463" y="-81.5" font-family="Helvetica,sans-Serif" font-size="10.00">TGeoMatrix.h</text>
</g>
<!-- Node9&#45;&gt;Node13 -->
<g id="edge15" class="edge"><title>Node9&#45;&gt;Node13</title>
<path fill="none" stroke="midnightblue" d="M894.396,-137.58C889.526,-137.034 884.684,-136.502 880,-136 715.718,-118.409 671.83,-133.304 510,-100 505.538,-99.0817 500.901,-97.8975 496.355,-96.5975"/>
<polygon fill="midnightblue" stroke="midnightblue" points="497.237,-93.2072 486.65,-93.625 495.186,-99.9002 497.237,-93.2072"/>
</g>
<!-- Node14 -->
<g id="node14" class="node"><title>Node14</title>
<polygon fill="none" stroke="#bfbfbf" points="519.5,-69 519.5,-99 670.5,-99 670.5,-69 519.5,-69"/>
<text text-anchor="start" x="527.5" y="-87" font-family="Helvetica,sans-Serif" font-size="10.00">Math/GenVector/Displacement</text>
<text text-anchor="middle" x="595" y="-76" font-family="Helvetica,sans-Serif" font-size="10.00">Vector3D.h</text>
</g>
<!-- Node9&#45;&gt;Node14 -->
<g id="edge16" class="edge"><title>Node9&#45;&gt;Node14</title>
<path fill="none" stroke="midnightblue" d="M903.085,-136.464C849.364,-127.909 764.247,-114.218 680.477,-100.067"/>
<polygon fill="midnightblue" stroke="midnightblue" points="680.978,-96.6026 670.535,-98.3846 679.81,-103.504 680.978,-96.6026"/>
</g>
<!-- Node15 -->
<g id="node15" class="node"><title>Node15</title>
<polygon fill="none" stroke="#bfbfbf" points="689,-74.5 689,-93.5 865,-93.5 865,-74.5 689,-74.5"/>
<text text-anchor="middle" x="777" y="-81.5" font-family="Helvetica,sans-Serif" font-size="10.00">Math/GenVector/PositionVector3D.h</text>
</g>
<!-- Node9&#45;&gt;Node15 -->
<g id="edge17" class="edge"><title>Node9&#45;&gt;Node15</title>
<path fill="none" stroke="midnightblue" d="M931.21,-136.403C900.067,-126.022 847.519,-108.506 812.547,-96.849"/>
<polygon fill="midnightblue" stroke="midnightblue" points="813.335,-93.4225 802.742,-93.5806 811.122,-100.063 813.335,-93.4225"/>
</g>
<!-- Node16 -->
<g id="node16" class="node"><title>Node16</title>
<g id="a_node16"><a xlink:href="../../d2/dd0/Cartesian2D_8h.html" target="_top" xlink:title="MathUtils/Cartesian2D.h">
<polygon fill="none" stroke="black" points="103.5,-74.5 103.5,-93.5 228.5,-93.5 228.5,-74.5 103.5,-74.5"/>
<text text-anchor="middle" x="166" y="-81.5" font-family="Helvetica,sans-Serif" font-size="10.00">MathUtils/Cartesian2D.h</text>
</a>
</g>
</g>
<!-- Node9&#45;&gt;Node16 -->
<g id="edge18" class="edge"><title>Node9&#45;&gt;Node16</title>
<path fill="none" stroke="midnightblue" d="M894.417,-137.365C889.542,-136.868 884.693,-136.405 880,-136 595.279,-111.4 521.344,-137.247 238,-100 229.447,-98.8757 220.394,-97.3 211.7,-95.5896"/>
<polygon fill="midnightblue" stroke="midnightblue" points="212.21,-92.1214 201.71,-93.5387 210.802,-98.9784 212.21,-92.1214"/>
</g>
<!-- Node9&#45;&gt;Node19 -->
<g id="edge21" class="edge"><title>Node9&#45;&gt;Node19</title>
<path fill="none" stroke="midnightblue" d="M894.422,-137.311C889.546,-136.827 884.695,-136.381 880,-136 705.724,-121.842 264.625,-138.205 94,-100 90.9276,-99.3121 87.7837,-98.3791 84.6954,-97.3129"/>
<polygon fill="midnightblue" stroke="midnightblue" points="85.7642,-93.9728 75.1762,-93.5895 83.2142,-100.492 85.7642,-93.9728"/>
</g>
<!-- Node17 -->
<g id="node17" class="node"><title>Node17</title>
<polygon fill="none" stroke="#bfbfbf" points="-0.5,-1 -0.5,-31 150.5,-31 150.5,-1 -0.5,-1"/>
<text text-anchor="start" x="7.5" y="-19" font-family="Helvetica,sans-Serif" font-size="10.00">Math/GenVector/Displacement</text>
<text text-anchor="middle" x="75" y="-8" font-family="Helvetica,sans-Serif" font-size="10.00">Vector2D.h</text>
</g>
<!-- Node16&#45;&gt;Node17 -->
<g id="edge19" class="edge"><title>Node16&#45;&gt;Node17</title>
<path fill="none" stroke="midnightblue" d="M154.103,-74.3717C141.221,-65.0286 120.22,-49.7966 103.093,-37.375"/>
<polygon fill="midnightblue" stroke="midnightblue" points="104.703,-34.2194 94.5532,-31.1815 100.593,-39.8859 104.703,-34.2194"/>
</g>
<!-- Node18 -->
<g id="node18" class="node"><title>Node18</title>
<polygon fill="none" stroke="#bfbfbf" points="169,-6.5 169,-25.5 345,-25.5 345,-6.5 169,-6.5"/>
<text text-anchor="middle" x="257" y="-13.5" font-family="Helvetica,sans-Serif" font-size="10.00">Math/GenVector/PositionVector2D.h</text>
</g>
<!-- Node16&#45;&gt;Node18 -->
<g id="edge20" class="edge"><title>Node16&#45;&gt;Node18</title>
<path fill="none" stroke="midnightblue" d="M177.897,-74.3717C192.884,-63.5015 218.862,-44.6602 236.942,-31.5474"/>
<polygon fill="midnightblue" stroke="midnightblue" points="239.06,-34.3349 245.1,-25.6305 234.95,-28.6684 239.06,-34.3349"/>
</g>
<!-- Node21&#45;&gt;Node3 -->
<g id="edge29" class="edge"><title>Node21&#45;&gt;Node3</title>
<path fill="none" stroke="midnightblue" d="M1790.49,-328.266C1780.43,-307.929 1757,-255.593 1757,-209 1757,-209 1757,-209 1757,-145 1757,-106.248 1757,-60.8973 1757,-35.9188"/>
<polygon fill="midnightblue" stroke="midnightblue" points="1760.5,-35.6912 1757,-25.6913 1753.5,-35.6913 1760.5,-35.6912"/>
</g>
<!-- Node22 -->
<g id="node22" class="node"><title>Node22</title>
<polygon fill="none" stroke="#bfbfbf" points="1785,-136.5 1785,-155.5 1829,-155.5 1829,-136.5 1785,-136.5"/>
<text text-anchor="middle" x="1807" y="-143.5" font-family="Helvetica,sans-Serif" font-size="10.00">vector</text>
</g>
<!-- Node21&#45;&gt;Node22 -->
<g id="edge27" class="edge"><title>Node21&#45;&gt;Node22</title>
<path fill="none" stroke="midnightblue" d="M1795.55,-328.342C1797.37,-299.472 1803.27,-206.048 1805.81,-165.767"/>
<polygon fill="midnightblue" stroke="midnightblue" points="1809.31,-165.909 1806.45,-155.708 1802.33,-165.468 1809.31,-165.909"/>
</g>
<!-- Node23 -->
<g id="node23" class="node"><title>Node23</title>
<polygon fill="none" stroke="#bfbfbf" points="2041,-266.5 2041,-285.5 2093,-285.5 2093,-266.5 2041,-266.5"/>
<text text-anchor="middle" x="2067" y="-273.5" font-family="Helvetica,sans-Serif" font-size="10.00">memory</text>
</g>
<!-- Node21&#45;&gt;Node23 -->
<g id="edge28" class="edge"><title>Node21&#45;&gt;Node23</title>
<path fill="none" stroke="midnightblue" d="M1858.71,-328.498C1906.69,-321.221 1973.77,-309.177 2031,-292 2033.64,-291.206 2036.36,-290.285 2039.06,-289.296"/>
<polygon fill="midnightblue" stroke="midnightblue" points="2040.57,-292.462 2048.58,-285.532 2038,-285.952 2040.57,-292.462"/>
</g>
<!-- Node24 -->
<g id="node24" class="node"><title>Node24</title>
<polygon fill="none" stroke="#bfbfbf" points="1669.5,-136.5 1669.5,-155.5 1728.5,-155.5 1728.5,-136.5 1669.5,-136.5"/>
<text text-anchor="middle" x="1699" y="-143.5" font-family="Helvetica,sans-Serif" font-size="10.00">TObject.h</text>
</g>
<!-- Node21&#45;&gt;Node24 -->
<g id="edge30" class="edge"><title>Node21&#45;&gt;Node24</title>
<path fill="none" stroke="midnightblue" d="M1721.9,-332.062C1664.34,-326.472 1590.79,-314.962 1572,-292 1531.27,-242.228 1623.27,-185.465 1671.67,-160.259"/>
<polygon fill="midnightblue" stroke="midnightblue" points="1673.39,-163.309 1680.71,-155.65 1670.22,-157.072 1673.39,-163.309"/>
</g>
<!-- Node25 -->
<g id="node25" class="node"><title>Node25</title>
<g id="a_node25"><a xlink:href="../../d7/d9e/SimulationAlpide_8h.html" target="_top" xlink:title="Simulation of the ALIPIDE chip response. ">
<polygon fill="none" stroke="black" points="1581.5,-261 1581.5,-291 1728.5,-291 1728.5,-261 1581.5,-261"/>
<text text-anchor="start" x="1589.5" y="-279" font-family="Helvetica,sans-Serif" font-size="10.00">ITSMFTSimulation/Simulation</text>
<text text-anchor="middle" x="1655" y="-268" font-family="Helvetica,sans-Serif" font-size="10.00">Alpide.h</text>
</a>
</g>
</g>
<!-- Node21&#45;&gt;Node25 -->
<g id="edge31" class="edge"><title>Node21&#45;&gt;Node25</title>
<path fill="none" stroke="midnightblue" d="M1774.94,-328.403C1754.67,-319.717 1722.75,-306.035 1696.93,-294.969"/>
<polygon fill="midnightblue" stroke="midnightblue" points="1698.3,-291.748 1687.73,-291.025 1695.54,-298.182 1698.3,-291.748"/>
</g>
<!-- Node30 -->
<g id="node30" class="node"><title>Node30</title>
<g id="a_node30"><a xlink:href="../../dc/d1a/AlpideSimResponse_8h.html" target="_top" xlink:title="Definition of the ITSMFT Alpide simulated response parametrization. ">
<polygon fill="none" stroke="black" points="1823,-193 1823,-223 1969,-223 1969,-193 1823,-193"/>
<text text-anchor="start" x="1831" y="-211" font-family="Helvetica,sans-Serif" font-size="10.00">ITSMFTSimulation/AlpideSim</text>
<text text-anchor="middle" x="1896" y="-200" font-family="Helvetica,sans-Serif" font-size="10.00">Response.h</text>
</a>
</g>
</g>
<!-- Node21&#45;&gt;Node30 -->
<g id="edge47" class="edge"><title>Node21&#45;&gt;Node30</title>
<path fill="none" stroke="midnightblue" d="M1801.12,-328.296C1811.34,-313.861 1832.68,-284.161 1852,-260 1859.83,-250.211 1868.81,-239.678 1876.62,-230.741"/>
<polygon fill="midnightblue" stroke="midnightblue" points="1879.41,-232.869 1883.38,-223.049 1874.15,-228.246 1879.41,-232.869"/>
</g>
<!-- Node33 -->
<g id="node33" class="node"><title>Node33</title>
<g id="a_node33"><a xlink:href="../../df/d29/DigiParams_8h.html" target="_top" xlink:title="Simulation parameters for the ALIPIDE chip. ">
<polygon fill="none" stroke="black" points="1861.5,-266.5 1861.5,-285.5 2022.5,-285.5 2022.5,-266.5 1861.5,-266.5"/>
<text text-anchor="middle" x="1942" y="-273.5" font-family="Helvetica,sans-Serif" font-size="10.00">ITSMFTSimulation/DigiParams.h</text>
</a>
</g>
</g>
<!-- Node21&#45;&gt;Node33 -->
<g id="edge48" class="edge"><title>Node21&#45;&gt;Node33</title>
<path fill="none" stroke="midnightblue" d="M1816.06,-328.403C1841.06,-318.2 1882.94,-301.105 1911.49,-289.454"/>
<polygon fill="midnightblue" stroke="midnightblue" points="1913.04,-292.6 1920.98,-285.581 1910.4,-286.119 1913.04,-292.6"/>
</g>
<!-- Node34 -->
<g id="node34" class="node"><title>Node34</title>
<g id="a_node34"><a xlink:href="../../d0/d2d/common_2base_2include_2ITSMFTBase_2GeometryTGeo_8h.html" target="_top" xlink:title="ITSMFTBase/GeometryTGeo.h">
<polygon fill="none" stroke="black" points="2111.5,-266.5 2111.5,-285.5 2264.5,-285.5 2264.5,-266.5 2111.5,-266.5"/>
<text text-anchor="middle" x="2188" y="-273.5" font-family="Helvetica,sans-Serif" font-size="10.00">ITSMFTBase/GeometryTGeo.h</text>
</a>
</g>
</g>
<!-- Node21&#45;&gt;Node34 -->
<g id="edge50" class="edge"><title>Node21&#45;&gt;Node34</title>
<path fill="none" stroke="midnightblue" d="M1856.53,-328.482C1918.56,-319.776 2017.03,-305.635 2102,-292 2111.12,-290.536 2120.77,-288.919 2130.19,-287.305"/>
<polygon fill="midnightblue" stroke="midnightblue" points="2131.02,-290.714 2140.28,-285.561 2129.83,-283.816 2131.02,-290.714"/>
</g>
<!-- Node25&#45;&gt;Node24 -->
<g id="edge32" class="edge"><title>Node25&#45;&gt;Node24</title>
<path fill="none" stroke="midnightblue" d="M1659.88,-260.813C1667.9,-237.461 1683.89,-190.957 1692.74,-165.209"/>
<polygon fill="midnightblue" stroke="midnightblue" points="1696.11,-166.168 1696.05,-155.574 1689.49,-163.893 1696.11,-166.168"/>
</g>
<!-- Node26 -->
<g id="node26" class="node"><title>Node26</title>
<g id="a_node26"><a xlink:href="../../d9/d55/Chip_8h.html" target="_top" xlink:title="ITSMFTSimulation/Chip.h">
<polygon fill="none" stroke="black" points="1423,-198.5 1423,-217.5 1553,-217.5 1553,-198.5 1423,-198.5"/>
<text text-anchor="middle" x="1488" y="-205.5" font-family="Helvetica,sans-Serif" font-size="10.00">ITSMFTSimulation/Chip.h</text>
</a>
</g>
</g>
<!-- Node25&#45;&gt;Node26 -->
<g id="edge33" class="edge"><title>Node25&#45;&gt;Node26</title>
<path fill="none" stroke="midnightblue" d="M1619.17,-260.841C1589.51,-249.118 1547.78,-232.624 1519.4,-221.411"/>
<polygon fill="midnightblue" stroke="midnightblue" points="1520.55,-218.102 1509.97,-217.682 1517.98,-224.612 1520.55,-218.102"/>
</g>
<!-- Node25&#45;&gt;Node30 -->
<g id="edge42" class="edge"><title>Node25&#45;&gt;Node30</title>
<path fill="none" stroke="midnightblue" d="M1706.4,-260.922C1744,-250.627 1795.15,-236.619 1834.84,-225.748"/>
<polygon fill="midnightblue" stroke="midnightblue" points="1835.95,-229.073 1844.67,-223.056 1834.1,-222.322 1835.95,-229.073"/>
</g>
<!-- Node26&#45;&gt;Node2 -->
<g id="edge40" class="edge"><title>Node26&#45;&gt;Node2</title>
<path fill="none" stroke="midnightblue" d="M1422.91,-202.747C1390.63,-196.954 1354.28,-184.083 1334,-156 1323.74,-141.792 1330.56,-122.676 1339.22,-107.859"/>
<polygon fill="midnightblue" stroke="midnightblue" points="1342.27,-109.58 1344.72,-99.271 1336.38,-105.807 1342.27,-109.58"/>
</g>
<!-- Node26&#45;&gt;Node4 -->
<g id="edge39" class="edge"><title>Node26&#45;&gt;Node4</title>
<path fill="none" stroke="midnightblue" d="M1474.96,-198.403C1460.23,-188.691 1436.03,-172.732 1418.49,-161.17"/>
<polygon fill="midnightblue" stroke="midnightblue" points="1420.29,-158.163 1410.01,-155.581 1416.44,-164.007 1420.29,-158.163"/>
</g>
<!-- Node26&#45;&gt;Node9 -->
<g id="edge41" class="edge"><title>Node26&#45;&gt;Node9</title>
<path fill="none" stroke="midnightblue" d="M1422.89,-199.643C1323.32,-188.392 1133.86,-166.985 1029.85,-155.232"/>
<polygon fill="midnightblue" stroke="midnightblue" points="1030.08,-151.736 1019.75,-154.091 1029.3,-158.691 1030.08,-151.736"/>
</g>
<!-- Node26&#45;&gt;Node22 -->
<g id="edge36" class="edge"><title>Node26&#45;&gt;Node22</title>
<path fill="none" stroke="midnightblue" d="M1533.37,-198.467C1598.79,-186.162 1718,-163.739 1775,-153.019"/>
<polygon fill="midnightblue" stroke="midnightblue" points="1775.71,-156.447 1784.89,-151.159 1774.41,-149.568 1775.71,-156.447"/>
</g>
<!-- Node26&#45;&gt;Node24 -->
<g id="edge38" class="edge"><title>Node26&#45;&gt;Node24</title>
<path fill="none" stroke="midnightblue" d="M1518.23,-198.403C1555.39,-187.836 1618.55,-169.877 1659.51,-158.229"/>
<polygon fill="midnightblue" stroke="midnightblue" points="1660.5,-161.585 1669.17,-155.484 1658.59,-154.852 1660.5,-161.585"/>
</g>
<!-- Node27 -->
<g id="node27" class="node"><title>Node27</title>
<polygon fill="none" stroke="#bfbfbf" points="1521.5,-136.5 1521.5,-155.5 1580.5,-155.5 1580.5,-136.5 1521.5,-136.5"/>
<text text-anchor="middle" x="1551" y="-143.5" font-family="Helvetica,sans-Serif" font-size="10.00">exception</text>
</g>
<!-- Node26&#45;&gt;Node27 -->
<g id="edge34" class="edge"><title>Node26&#45;&gt;Node27</title>
<path fill="none" stroke="midnightblue" d="M1497.03,-198.403C1506.76,-189.136 1522.46,-174.183 1534.42,-162.788"/>
<polygon fill="midnightblue" stroke="midnightblue" points="1537.16,-165.012 1541.99,-155.581 1532.34,-159.943 1537.16,-165.012"/>
</g>
<!-- Node28 -->
<g id="node28" class="node"><title>Node28</title>
<polygon fill="none" stroke="#bfbfbf" points="1599,-136.5 1599,-155.5 1651,-155.5 1651,-136.5 1599,-136.5"/>
<text text-anchor="middle" x="1625" y="-143.5" font-family="Helvetica,sans-Serif" font-size="10.00">sstream</text>
</g>
<!-- Node26&#45;&gt;Node28 -->
<g id="edge35" class="edge"><title>Node26&#45;&gt;Node28</title>
<path fill="none" stroke="midnightblue" d="M1507.63,-198.403C1530.82,-188.245 1569.62,-171.255 1596.21,-159.607"/>
<polygon fill="midnightblue" stroke="midnightblue" points="1597.65,-162.798 1605.41,-155.581 1594.84,-156.386 1597.65,-162.798"/>
</g>
<!-- Node29 -->
<g id="node29" class="node"><title>Node29</title>
<polygon fill="none" stroke="#bfbfbf" points="1468.5,-136.5 1468.5,-155.5 1503.5,-155.5 1503.5,-136.5 1468.5,-136.5"/>
<text text-anchor="middle" x="1486" y="-143.5" font-family="Helvetica,sans-Serif" font-size="10.00">map</text>
</g>
<!-- Node26&#45;&gt;Node29 -->
<g id="edge37" class="edge"><title>Node26&#45;&gt;Node29</title>
<path fill="none" stroke="midnightblue" d="M1487.71,-198.403C1487.43,-189.938 1486.99,-176.728 1486.63,-165.82"/>
<polygon fill="midnightblue" stroke="midnightblue" points="1490.12,-165.458 1486.29,-155.581 1483.12,-165.692 1490.12,-165.458"/>
</g>
<!-- Node30&#45;&gt;Node3 -->
<g id="edge46" class="edge"><title>Node30&#45;&gt;Node3</title>
<path fill="none" stroke="midnightblue" d="M1885.55,-192.719C1860.41,-158.349 1796.6,-71.1333 1769.49,-34.0766"/>
<polygon fill="midnightblue" stroke="midnightblue" points="1772.17,-31.803 1763.44,-25.7988 1766.52,-35.9361 1772.17,-31.803"/>
</g>
<!-- Node30&#45;&gt;Node22 -->
<g id="edge45" class="edge"><title>Node30&#45;&gt;Node22</title>
<path fill="none" stroke="midnightblue" d="M1874.91,-192.781C1860.82,-183.286 1842.37,-170.843 1828.25,-161.327"/>
<polygon fill="midnightblue" stroke="midnightblue" points="1829.94,-158.244 1819.69,-155.556 1826.03,-164.048 1829.94,-158.244"/>
</g>
<!-- Node31 -->
<g id="node31" class="node"><title>Node31</title>
<polygon fill="none" stroke="#bfbfbf" points="2383,-6.5 2383,-25.5 2421,-25.5 2421,-6.5 2383,-6.5"/>
<text text-anchor="middle" x="2402" y="-13.5" font-family="Helvetica,sans-Serif" font-size="10.00">array</text>
</g>
<!-- Node30&#45;&gt;Node31 -->
<g id="edge43" class="edge"><title>Node30&#45;&gt;Node31</title>
<path fill="none" stroke="midnightblue" d="M1969.1,-198.676C2057.29,-188.257 2200.18,-170.072 2252,-156 2315.48,-138.761 2348.2,-151.597 2389,-100 2403.38,-81.8091 2404.92,-54.1968 2404.01,-35.8836"/>
<polygon fill="midnightblue" stroke="midnightblue" points="2407.49,-35.5466 2403.23,-25.85 2400.52,-36.0926 2407.49,-35.5466"/>
</g>
<!-- Node32 -->
<g id="node32" class="node"><title>Node32</title>
<polygon fill="none" stroke="#bfbfbf" points="1885.5,-136.5 1885.5,-155.5 1926.5,-155.5 1926.5,-136.5 1885.5,-136.5"/>
<text text-anchor="middle" x="1906" y="-143.5" font-family="Helvetica,sans-Serif" font-size="10.00">string</text>
</g>
<!-- Node30&#45;&gt;Node32 -->
<g id="edge44" class="edge"><title>Node30&#45;&gt;Node32</title>
<path fill="none" stroke="midnightblue" d="M1898.37,-192.781C1899.72,-184.691 1901.42,-174.462 1902.88,-165.725"/>
<polygon fill="midnightblue" stroke="midnightblue" points="1906.35,-166.17 1904.54,-155.731 1899.45,-165.019 1906.35,-166.17"/>
</g>
<!-- Node33&#45;&gt;Node3 -->
<g id="edge49" class="edge"><title>Node33&#45;&gt;Node3</title>
<path fill="none" stroke="midnightblue" d="M1950.85,-266.19C1959.68,-256.713 1972.69,-240.735 1978,-224 1982.3,-210.444 1982.57,-205.467 1978,-192 1948.59,-105.404 1844.36,-51.984 1790.21,-29.4477"/>
<polygon fill="midnightblue" stroke="midnightblue" points="1791.29,-26.1105 1780.71,-25.598 1788.66,-32.5979 1791.29,-26.1105"/>
</g>
<!-- Node34&#45;&gt;Node32 -->
<g id="edge68" class="edge"><title>Node34&#45;&gt;Node32</title>
<path fill="none" stroke="midnightblue" d="M2162.95,-266.448C2135.76,-256.94 2091.25,-240.709 2054,-224 2009.36,-203.976 1959.2,-176.855 1930.24,-160.72"/>
<polygon fill="midnightblue" stroke="midnightblue" points="1931.7,-157.528 1921.26,-155.695 1928.28,-163.635 1931.7,-157.528"/>
</g>
<!-- Node35 -->
<g id="node35" class="node"><title>Node35</title>
<g id="a_node35"><a xlink:href="../../d4/d20/DetMatrixCache_8h.html" target="_top" xlink:title="DetectorsBase/DetMatrixCache.h">
<polygon fill="none" stroke="black" points="2063,-198.5 2063,-217.5 2227,-217.5 2227,-198.5 2063,-198.5"/>
<text text-anchor="middle" x="2145" y="-205.5" font-family="Helvetica,sans-Serif" font-size="10.00">DetectorsBase/DetMatrixCache.h</text>
</a>
</g>
</g>
<!-- Node34&#45;&gt;Node35 -->
<g id="edge51" class="edge"><title>Node34&#45;&gt;Node35</title>
<path fill="none" stroke="midnightblue" d="M2182.38,-266.372C2175.78,-256.25 2164.69,-239.215 2156.29,-226.331"/>
<polygon fill="midnightblue" stroke="midnightblue" points="2159.15,-224.309 2150.76,-217.841 2153.29,-228.13 2159.15,-224.309"/>
</g>
<!-- Node44 -->
<g id="node44" class="node"><title>Node44</title>
<polygon fill="none" stroke="#bfbfbf" points="2245.5,-198.5 2245.5,-217.5 2314.5,-217.5 2314.5,-198.5 2245.5,-198.5"/>
<text text-anchor="middle" x="2280" y="-205.5" font-family="Helvetica,sans-Serif" font-size="10.00">TObjArray.h</text>
</g>
<!-- Node34&#45;&gt;Node44 -->
<g id="edge67" class="edge"><title>Node34&#45;&gt;Node44</title>
<path fill="none" stroke="midnightblue" d="M2200.03,-266.372C2215.18,-255.502 2241.44,-236.66 2259.72,-223.547"/>
<polygon fill="midnightblue" stroke="midnightblue" points="2261.88,-226.303 2267.97,-217.63 2257.8,-220.616 2261.88,-226.303"/>
</g>
<!-- Node35&#45;&gt;Node3 -->
<g id="edge65" class="edge"><title>Node35&#45;&gt;Node3</title>
<path fill="none" stroke="midnightblue" d="M2130.19,-198.469C2100.38,-181.106 2031.35,-139.917 1977,-100 1959.2,-86.9295 1958.52,-78.324 1939,-68 1892.73,-43.5267 1833.47,-29.7517 1795.36,-22.8442"/>
<polygon fill="midnightblue" stroke="midnightblue" points="1795.66,-19.3428 1785.2,-21.0749 1794.45,-26.239 1795.66,-19.3428"/>
</g>
<!-- Node35&#45;&gt;Node9 -->
<g id="edge54" class="edge"><title>Node35&#45;&gt;Node9</title>
<path fill="none" stroke="midnightblue" d="M2062.66,-198.855C2035.7,-196.388 2005.59,-193.846 1978,-192 1622.74,-168.229 1197.07,-154.074 1029.67,-149.066"/>
<polygon fill="midnightblue" stroke="midnightblue" points="1029.6,-145.563 1019.5,-148.764 1029.39,-152.559 1029.6,-145.563"/>
</g>
<!-- Node35&#45;&gt;Node22 -->
<g id="edge52" class="edge"><title>Node35&#45;&gt;Node22</title>
<path fill="none" stroke="midnightblue" d="M2096.93,-198.467C2026.95,-186.045 1898.89,-163.311 1839.2,-152.717"/>
<polygon fill="midnightblue" stroke="midnightblue" points="1839.68,-149.246 1829.22,-150.944 1838.45,-156.138 1839.68,-149.246"/>
</g>
<!-- Node35&#45;&gt;Node31 -->
<g id="edge53" class="edge"><title>Node35&#45;&gt;Node31</title>
<path fill="none" stroke="midnightblue" d="M2195.76,-198.492C2278.4,-184.586 2433.07,-158.294 2435,-156 2460.15,-126.045 2446.08,-105.51 2435,-68 2431.29,-55.4299 2423.4,-43.0448 2416.27,-33.6276"/>
<polygon fill="midnightblue" stroke="midnightblue" points="2418.81,-31.2056 2409.82,-25.599 2413.36,-35.588 2418.81,-31.2056"/>
</g>
<!-- Node36 -->
<g id="node36" class="node"><title>Node36</title>
<g id="a_node36"><a xlink:href="../../d6/d31/DetID_8h.html" target="_top" xlink:title="DetectorsBase/DetID.h">
<polygon fill="none" stroke="black" points="2124.5,-136.5 2124.5,-155.5 2243.5,-155.5 2243.5,-136.5 2124.5,-136.5"/>
<text text-anchor="middle" x="2184" y="-143.5" font-family="Helvetica,sans-Serif" font-size="10.00">DetectorsBase/DetID.h</text>
</a>
</g>
</g>
<!-- Node35&#45;&gt;Node36 -->
<g id="edge55" class="edge"><title>Node35&#45;&gt;Node36</title>
<path fill="none" stroke="midnightblue" d="M2150.59,-198.403C2156.38,-189.493 2165.59,-175.325 2172.87,-164.118"/>
<polygon fill="midnightblue" stroke="midnightblue" points="2175.91,-165.873 2178.42,-155.581 2170.04,-162.058 2175.91,-165.873"/>
</g>
<!-- Node35&#45;&gt;Node43 -->
<g id="edge66" class="edge"><title>Node35&#45;&gt;Node43</title>
<path fill="none" stroke="midnightblue" d="M2196,-198.477C2209.03,-196.331 2223.03,-194.054 2236,-192 2341.23,-175.336 2367.9,-173.439 2473,-156 2474.44,-155.761 2475.91,-155.515 2477.38,-155.264"/>
<polygon fill="midnightblue" stroke="midnightblue" points="2477.98,-158.712 2487.24,-153.559 2476.79,-151.815 2477.98,-158.712"/>
</g>
<!-- Node36&#45;&gt;Node3 -->
<g id="edge59" class="edge"><title>Node36&#45;&gt;Node3</title>
<path fill="none" stroke="midnightblue" d="M2134.57,-136.44C2101.09,-129.457 2056.49,-117.796 2020,-100 1998.59,-89.557 1998.62,-78.0127 1977,-68 1916.93,-40.1755 1840.4,-26.8689 1795.25,-21.0335"/>
<polygon fill="midnightblue" stroke="midnightblue" points="1795.64,-17.556 1785.29,-19.8025 1794.78,-24.5031 1795.64,-17.556"/>
</g>
<!-- Node36&#45;&gt;Node31 -->
<g id="edge57" class="edge"><title>Node36&#45;&gt;Node31</title>
<path fill="none" stroke="midnightblue" d="M2243.79,-142.774C2281.65,-138.51 2329.61,-127.499 2363,-100 2383.03,-83.5018 2393.37,-54.3617 2398.23,-35.3684"/>
<polygon fill="midnightblue" stroke="midnightblue" points="2401.66,-36.0603 2400.49,-25.5301 2394.84,-34.4907 2401.66,-36.0603"/>
</g>
<!-- Node37 -->
<g id="node37" class="node"><title>Node37</title>
<polygon fill="none" stroke="#bfbfbf" points="2161,-74.5 2161,-93.5 2207,-93.5 2207,-74.5 2161,-74.5"/>
<text text-anchor="middle" x="2184" y="-81.5" font-family="Helvetica,sans-Serif" font-size="10.00">cstdint</text>
</g>
<!-- Node36&#45;&gt;Node37 -->
<g id="edge56" class="edge"><title>Node36&#45;&gt;Node37</title>
<path fill="none" stroke="midnightblue" d="M2184,-136.403C2184,-127.938 2184,-114.728 2184,-103.82"/>
<polygon fill="midnightblue" stroke="midnightblue" points="2187.5,-103.581 2184,-93.5806 2180.5,-103.581 2187.5,-103.581"/>
</g>
<!-- Node38 -->
<g id="node38" class="node"><title>Node38</title>
<polygon fill="none" stroke="#bfbfbf" points="2225,-74.5 2225,-93.5 2287,-93.5 2287,-74.5 2225,-74.5"/>
<text text-anchor="middle" x="2256" y="-81.5" font-family="Helvetica,sans-Serif" font-size="10.00">type_traits</text>
</g>
<!-- Node36&#45;&gt;Node38 -->
<g id="edge58" class="edge"><title>Node36&#45;&gt;Node38</title>
<path fill="none" stroke="midnightblue" d="M2194.32,-136.403C2205.65,-126.958 2224.07,-111.606 2237.84,-100.134"/>
<polygon fill="midnightblue" stroke="midnightblue" points="2240.26,-102.671 2245.7,-93.5806 2235.78,-97.2937 2240.26,-102.671"/>
</g>
<!-- Node39 -->
<g id="node39" class="node"><title>Node39</title>
<g id="a_node39"><a xlink:href="../../d9/ded/Utils_8h.html" target="_top" xlink:title="DetectorsBase/Utils.h">
<polygon fill="none" stroke="black" points="2029.5,-74.5 2029.5,-93.5 2142.5,-93.5 2142.5,-74.5 2029.5,-74.5"/>
<text text-anchor="middle" x="2086" y="-81.5" font-family="Helvetica,sans-Serif" font-size="10.00">DetectorsBase/Utils.h</text>
</a>
</g>
</g>
<!-- Node36&#45;&gt;Node39 -->
<g id="edge60" class="edge"><title>Node36&#45;&gt;Node39</title>
<path fill="none" stroke="midnightblue" d="M2169.96,-136.403C2153.95,-126.601 2127.55,-110.439 2108.63,-98.8526"/>
<polygon fill="midnightblue" stroke="midnightblue" points="2110.37,-95.8172 2100.01,-93.5806 2106.72,-101.787 2110.37,-95.8172"/>
</g>
<!-- Node42 -->
<g id="node42" class="node"><title>Node42</title>
<polygon fill="none" stroke="#bfbfbf" points="2305.5,-74.5 2305.5,-93.5 2354.5,-93.5 2354.5,-74.5 2305.5,-74.5"/>
<text text-anchor="middle" x="2330" y="-81.5" font-family="Helvetica,sans-Serif" font-size="10.00">cassert</text>
</g>
<!-- Node36&#45;&gt;Node42 -->
<g id="edge64" class="edge"><title>Node36&#45;&gt;Node42</title>
<path fill="none" stroke="midnightblue" d="M2205.33,-136.498C2227.72,-127.541 2263.91,-112.964 2295,-100 2296.83,-99.2368 2298.71,-98.4464 2300.61,-97.6458"/>
<polygon fill="midnightblue" stroke="midnightblue" points="2302.21,-100.77 2310.04,-93.6351 2299.47,-94.3282 2302.21,-100.77"/>
</g>
<!-- Node39&#45;&gt;Node31 -->
<g id="edge63" class="edge"><title>Node39&#45;&gt;Node31</title>
<path fill="none" stroke="midnightblue" d="M2122.97,-74.4456C2132.42,-72.2996 2142.58,-70.0308 2152,-68 2231.74,-50.8069 2326.13,-31.9586 2372.82,-22.7334"/>
<polygon fill="midnightblue" stroke="midnightblue" points="2373.7,-26.1271 2382.84,-20.7581 2372.35,-19.2595 2373.7,-26.1271"/>
</g>
<!-- Node40 -->
<g id="node40" class="node"><title>Node40</title>
<g id="a_node40"><a xlink:href="../../d1/daa/Base_2include_2DetectorsBase_2Constants_8h.html" target="_top" xlink:title="DetectorsBase/Constants.h">
<polygon fill="none" stroke="black" points="1962,-6.5 1962,-25.5 2100,-25.5 2100,-6.5 1962,-6.5"/>
<text text-anchor="middle" x="2031" y="-13.5" font-family="Helvetica,sans-Serif" font-size="10.00">DetectorsBase/Constants.h</text>
</a>
</g>
</g>
<!-- Node39&#45;&gt;Node40 -->
<g id="edge61" class="edge"><title>Node39&#45;&gt;Node40</title>
<path fill="none" stroke="midnightblue" d="M2078.81,-74.3717C2070.21,-64.053 2055.63,-46.5513 2044.82,-33.5854"/>
<polygon fill="midnightblue" stroke="midnightblue" points="2047.46,-31.2827 2038.37,-25.8411 2042.08,-35.764 2047.46,-31.2827"/>
</g>
<!-- Node41 -->
<g id="node41" class="node"><title>Node41</title>
<polygon fill="none" stroke="#bfbfbf" points="2118,-6.5 2118,-25.5 2162,-25.5 2162,-6.5 2118,-6.5"/>
<text text-anchor="middle" x="2140" y="-13.5" font-family="Helvetica,sans-Serif" font-size="10.00">cmath</text>
</g>
<!-- Node39&#45;&gt;Node41 -->
<g id="edge62" class="edge"><title>Node39&#45;&gt;Node41</title>
<path fill="none" stroke="midnightblue" d="M2093.06,-74.3717C2101.5,-64.053 2115.82,-46.5513 2126.43,-33.5854"/>
<polygon fill="midnightblue" stroke="midnightblue" points="2129.14,-35.7971 2132.77,-25.8411 2123.73,-31.3644 2129.14,-35.7971"/>
</g>
</g>
</svg>
