<?xml version="1.0" encoding="UTF-8" standalone="no"?>
<!DOCTYPE svg PUBLIC "-//W3C//DTD SVG 1.1//EN"
 "http://www.w3.org/Graphics/SVG/1.1/DTD/svg11.dtd">
<!-- Generated by graphviz version 2.36.0 (20140111.2315)
 -->
<!-- Title: o2::Header::RAWDataHeaderV2 Pages: 1 -->
<svg width="402pt" height="372pt"
 viewBox="0.00 0.00 401.75 372.00" xmlns="http://www.w3.org/2000/svg" xmlns:xlink="http://www.w3.org/1999/xlink">
<g id="graph0" class="graph" transform="scale(1 1) rotate(0) translate(4 368)">
<title>o2::Header::RAWDataHeaderV2</title>
<!-- Node1 -->
<g id="node1" class="node"><title>Node1</title>
<polygon fill="#bfbfbf" stroke="black" points="74.2529,-0.5 74.2529,-145.5 233.253,-145.5 233.253,-0.5 74.2529,-0.5"/>
<text text-anchor="middle" x="153.753" y="-133.5" font-family="Helvetica,sans-Serif" font-size="10.00">o2::Header::RAWDataHeaderV2</text>
<polyline fill="none" stroke="black" points="74.2529,-126.5 233.253,-126.5 "/>
<text text-anchor="start" x="82.2529" y="-114.5" font-family="Helvetica,sans-Serif" font-size="10.00">+ zero0</text>
<text text-anchor="start" x="82.2529" y="-103.5" font-family="Helvetica,sans-Serif" font-size="10.00">+ word1</text>
<text text-anchor="start" x="82.2529" y="-92.5" font-family="Helvetica,sans-Serif" font-size="10.00">+ word2</text>
<text text-anchor="start" x="82.2529" y="-81.5" font-family="Helvetica,sans-Serif" font-size="10.00">+ zero2</text>
<text text-anchor="start" x="82.2529" y="-70.5" font-family="Helvetica,sans-Serif" font-size="10.00">+ word3</text>
<text text-anchor="start" x="82.2529" y="-59.5" font-family="Helvetica,sans-Serif" font-size="10.00">+ pageCnt</text>
<text text-anchor="start" x="82.2529" y="-48.5" font-family="Helvetica,sans-Serif" font-size="10.00">+ stop</text>
<text text-anchor="start" x="82.2529" y="-37.5" font-family="Helvetica,sans-Serif" font-size="10.00">+ detectorField</text>
<text text-anchor="start" x="82.2529" y="-26.5" font-family="Helvetica,sans-Serif" font-size="10.00">+ zero3</text>
<polyline fill="none" stroke="black" points="74.2529,-19.5 233.253,-19.5 "/>
<text text-anchor="middle" x="153.753" y="-7.5" font-family="Helvetica,sans-Serif" font-size="10.00"> </text>
</g>
<!-- Node2 -->
<g id="node2" class="node"><title>Node2</title>
<polygon fill="none" stroke="#bfbfbf" points="85.2529,-305 85.2529,-363 114.253,-363 114.253,-305 85.2529,-305"/>
<polyline fill="none" stroke="#bfbfbf" points="85.2529,-343 114.253,-343 "/>
<text text-anchor="middle" x="99.7529" y="-331" font-family="Helvetica,sans-Serif" font-size="10.00"> </text>
<polyline fill="none" stroke="#bfbfbf" points="85.2529,-324 114.253,-324 "/>
<text text-anchor="middle" x="99.7529" y="-312" font-family="Helvetica,sans-Serif" font-size="10.00"> </text>
</g>
<!-- Node2&#45;&gt;Node1 -->
<g id="edge1" class="edge"><title>Node2&#45;&gt;Node1</title>
<path fill="none" stroke="#404040" d="M84.9994,-329.21C65.9977,-323.446 33.7552,-310.466 19.7529,-286 -7.18011,-238.94 -5.75014,-211.85 19.7529,-164 29.9845,-144.803 46.3318,-128.973 64.145,-116.233"/>
<polygon fill="none" stroke="#404040" points="64.2163,-116.185 66.9516,-109.512 74.1626,-109.471 71.4273,-116.143 64.2163,-116.185"/>
<text text-anchor="middle" x="35.2529" y="-222.5" font-family="Helvetica,sans-Serif" font-size="10.00"> +@21</text>
</g>
<!-- Node2&#45;&gt;Node1 -->
<g id="edge2" class="edge"><title>Node2&#45;&gt;Node1</title>
<path fill="none" stroke="#404040" d="M85.152,-311.97C80.561,-304.176 76.0838,-295.029 73.7529,-286 60.1992,-233.499 54.4833,-214.683 73.7529,-164 74.7187,-161.46 75.7927,-158.945 76.9615,-156.461"/>
<polygon fill="none" stroke="#404040" points="77.0132,-156.363 76.301,-149.188 82.651,-145.77 83.3632,-152.946 77.0132,-156.363"/>
<text text-anchor="middle" x="89.2529" y="-222.5" font-family="Helvetica,sans-Serif" font-size="10.00"> +@23</text>
</g>
<!-- Node2&#45;&gt;Node1 -->
<g id="edge4" class="edge"><title>Node2&#45;&gt;Node1</title>
<path fill="none" stroke="#404040" d="M103.369,-304.994C107.954,-271.312 116.619,-213.165 127.753,-164 128.243,-161.834 128.756,-159.643 129.286,-157.435"/>
<polygon fill="none" stroke="#404040" points="129.353,-157.166 126.932,-150.374 132.271,-145.527 134.692,-152.319 129.353,-157.166"/>
<text text-anchor="middle" x="143.253" y="-222.5" font-family="Helvetica,sans-Serif" font-size="10.00"> +@25</text>
</g>
<!-- Node2&#45;&gt;Node1 -->
<g id="edge5" class="edge"><title>Node2&#45;&gt;Node1</title>
<path fill="none" stroke="#404040" d="M114.316,-326.234C128.624,-318.687 149.6,-304.994 158.753,-286 177.695,-246.692 178.027,-198.34 172.919,-157.744"/>
<polygon fill="none" stroke="#404040" points="172.895,-157.572 168.095,-152.19 171.217,-145.69 176.017,-151.072 172.895,-157.572"/>
<text text-anchor="middle" x="191.253" y="-222.5" font-family="Helvetica,sans-Serif" font-size="10.00"> +@19</text>
</g>
<!-- Node3 -->
<g id="node3" class="node"><title>Node3</title>
<polygon fill="none" stroke="#bfbfbf" points="209.253,-305.5 209.253,-362.5 260.253,-362.5 260.253,-305.5 209.253,-305.5"/>
<text text-anchor="middle" x="234.753" y="-350.5" font-family="Helvetica,sans-Serif" font-size="10.00">uint64_t</text>
<polyline fill="none" stroke="#bfbfbf" points="209.253,-343.5 260.253,-343.5 "/>
<text text-anchor="middle" x="234.753" y="-331.5" font-family="Helvetica,sans-Serif" font-size="10.00"> </text>
<polyline fill="none" stroke="#bfbfbf" points="209.253,-324.5 260.253,-324.5 "/>
<text text-anchor="middle" x="234.753" y="-312.5" font-family="Helvetica,sans-Serif" font-size="10.00"> </text>
</g>
<!-- Node3&#45;&gt;Node1 -->
<g id="edge3" class="edge"><title>Node3&#45;&gt;Node1</title>
<path fill="none" stroke="#404040" d="M234.364,-305.206C233.089,-270.983 228.263,-211.554 210.753,-164 209.831,-161.497 208.832,-158.99 207.768,-156.488"/>
<polygon fill="none" stroke="#404040" points="207.758,-156.466 201.608,-152.7 202.719,-145.575 208.869,-149.341 207.758,-156.466"/>
<text text-anchor="middle" x="264.253" y="-277.5" font-family="Helvetica,sans-Serif" font-size="10.00"> +triggerType</text>
<text text-anchor="middle" x="264.253" y="-266.5" font-family="Helvetica,sans-Serif" font-size="10.00">+par</text>
<text text-anchor="middle" x="264.253" y="-255.5" font-family="Helvetica,sans-Serif" font-size="10.00">+feeId</text>
<text text-anchor="middle" x="264.253" y="-244.5" font-family="Helvetica,sans-Serif" font-size="10.00">+linkId</text>
<text text-anchor="middle" x="264.253" y="-233.5" font-family="Helvetica,sans-Serif" font-size="10.00">+headerSize</text>
<text text-anchor="middle" x="264.253" y="-222.5" font-family="Helvetica,sans-Serif" font-size="10.00">+version</text>
<text text-anchor="middle" x="264.253" y="-211.5" font-family="Helvetica,sans-Serif" font-size="10.00">+triggerBC</text>
<text text-anchor="middle" x="264.253" y="-200.5" font-family="Helvetica,sans-Serif" font-size="10.00">+blockLength</text>
<text text-anchor="middle" x="264.253" y="-189.5" font-family="Helvetica,sans-Serif" font-size="10.00">+heartbeatBC</text>
<text text-anchor="middle" x="264.253" y="-178.5" font-family="Helvetica,sans-Serif" font-size="10.00">+word0</text>
<text text-anchor="middle" x="264.253" y="-167.5" font-family="Helvetica,sans-Serif" font-size="10.00">...</text>
</g>
<!-- Node4 -->
<g id="node4" class="node"><title>Node4</title>
<polygon fill="none" stroke="#bfbfbf" points="293.253,-305.5 293.253,-362.5 344.253,-362.5 344.253,-305.5 293.253,-305.5"/>
<text text-anchor="middle" x="318.753" y="-350.5" font-family="Helvetica,sans-Serif" font-size="10.00">uint32_t</text>
<polyline fill="none" stroke="#bfbfbf" points="293.253,-343.5 344.253,-343.5 "/>
<text text-anchor="middle" x="318.753" y="-331.5" font-family="Helvetica,sans-Serif" font-size="10.00"> </text>
<polyline fill="none" stroke="#bfbfbf" points="293.253,-324.5 344.253,-324.5 "/>
<text text-anchor="middle" x="318.753" y="-312.5" font-family="Helvetica,sans-Serif" font-size="10.00"> </text>
</g>
<!-- Node4&#45;&gt;Node1 -->
<g id="edge6" class="edge"><title>Node4&#45;&gt;Node1</title>
<path fill="none" stroke="#404040" d="M321.969,-305.437C324.693,-269.854 324.502,-207.364 296.753,-164 283.7,-143.603 264.196,-127.002 243.757,-113.869"/>
<polygon fill="none" stroke="#404040" points="243.585,-113.764 236.38,-114.05 233.345,-107.509 240.55,-107.223 243.585,-113.764"/>
<text text-anchor="middle" x="358.253" y="-228" font-family="Helvetica,sans-Serif" font-size="10.00"> +heartbeatOrbit</text>
<text text-anchor="middle" x="358.253" y="-217" font-family="Helvetica,sans-Serif" font-size="10.00">+triggerOrbit</text>
</g>
</g>
</svg>
