<?xml version="1.0" encoding="UTF-8" standalone="no"?>
<!DOCTYPE svg PUBLIC "-//W3C//DTD SVG 1.1//EN"
 "http://www.w3.org/Graphics/SVG/1.1/DTD/svg11.dtd">
<!-- Generated by graphviz version 2.36.0 (20140111.2315)
 -->
<!-- Title: /home/travis/build/AliceO2Group/AliceO2/Detectors/ITSMFT/MFT/reconstruction/src/devices/FileSink.cxx Pages: 1 -->
<!--zoomable 456 -->
<svg id="main" version="1.1" xmlns="http://www.w3.org/2000/svg" xmlns:xlink="http://www.w3.org/1999/xlink" xml:space="preserve" onload="init(evt)">
<style type="text/css"><![CDATA[
.edge:hover path { stroke: red; }
.edge:hover polygon { stroke: red; fill: red; }
]]></style>
<script type="text/javascript"><![CDATA[
var edges = document.getElementsByTagName('g');
if (edges && edges.length) {
  for (var i=0;i<edges.length;i++) {
    if (edges[i].id.substr(0,4)=='edge') {
      edges[i].setAttribute('class','edge');
    }
  }
}
]]></script>
        <defs>
                <circle id="rim" cx="0" cy="0" r="7"/>
                <circle id="rim2" cx="0" cy="0" r="3.5"/>
                <g id="zoomPlus">
                        <use xlink:href="#rim" fill="#404040">
                                <set attributeName="fill" to="#808080" begin="zoomplus.mouseover" end="zoomplus.mouseout"/>
                        </use>
                        <path d="M-4,0h8M0,-4v8" fill="none" stroke="white" stroke-width="1.5" pointer-events="none"/>
                </g>
                <g id="zoomMin">
                        <use xlink:href="#rim" fill="#404040">
                                <set attributeName="fill" to="#808080" begin="zoomminus.mouseover" end="zoomminus.mouseout"/>
                        </use>
                        <path d="M-4,0h8" fill="none" stroke="white" stroke-width="1.5" pointer-events="none"/>
                </g>
                <g id="dirArrow">
                        <path fill="none" stroke="white" stroke-width="1.5" d="M0,-3.0v7 M-2.5,-0.5L0,-3.0L2.5,-0.5"/>
                </g>
               <g id="resetDef">
                       <use xlink:href="#rim2" fill="#404040">
                               <set attributeName="fill" to="#808080" begin="reset.mouseover" end="reset.mouseout"/>
                       </use>
               </g>
        </defs>

<script type="text/javascript">
var viewWidth = 2000;
var viewHeight = 456;
var sectionId = 'dynsection-0';
</script>
<script xlink:href="../../svgpan.js"/>
<svg id="graph" class="graph">
<g id="viewport">
<title>/home/travis/build/AliceO2Group/AliceO2/Detectors/ITSMFT/MFT/reconstruction/src/devices/FileSink.cxx</title>
<!-- Node1 -->
<g id="node1" class="node"><title>Node1</title>
<polygon fill="#bfbfbf" stroke="black" points="1204,-384.5 1204,-447.5 1338,-447.5 1338,-384.5 1204,-384.5"/>
<text text-anchor="start" x="1212" y="-435.5" font-family="Helvetica,sans-Serif" font-size="10.00">/home/travis/build</text>
<text text-anchor="start" x="1212" y="-424.5" font-family="Helvetica,sans-Serif" font-size="10.00">/AliceO2Group/AliceO2</text>
<text text-anchor="start" x="1212" y="-413.5" font-family="Helvetica,sans-Serif" font-size="10.00">/Detectors/ITSMFT/MFT</text>
<text text-anchor="start" x="1212" y="-402.5" font-family="Helvetica,sans-Serif" font-size="10.00">/reconstruction/src/devices</text>
<text text-anchor="middle" x="1271" y="-391.5" font-family="Helvetica,sans-Serif" font-size="10.00">/FileSink.cxx</text>
</g>
<!-- Node2 -->
<g id="node2" class="node"><title>Node2</title>
<polygon fill="none" stroke="#bfbfbf" points="799,-322.5 799,-341.5 851,-341.5 851,-322.5 799,-322.5"/>
<text text-anchor="middle" x="825" y="-329.5" font-family="Helvetica,sans-Serif" font-size="10.00">memory</text>
</g>
<!-- Node1&#45;&gt;Node2 -->
<g id="edge1" class="edge"><title>Node1&#45;&gt;Node2</title>
<path fill="none" stroke="midnightblue" d="M1203.69,-409.099C1121.37,-400.73 978.353,-382.449 860,-348 857.501,-347.273 854.942,-346.414 852.402,-345.482"/>
<polygon fill="midnightblue" stroke="midnightblue" points="853.442,-342.128 842.858,-341.644 850.83,-348.622 853.442,-342.128"/>
</g>
<!-- Node3 -->
<g id="node3" class="node"><title>Node3</title>
<polygon fill="none" stroke="#bfbfbf" points="869.5,-322.5 869.5,-341.5 940.5,-341.5 940.5,-322.5 869.5,-322.5"/>
<text text-anchor="middle" x="905" y="-329.5" font-family="Helvetica,sans-Serif" font-size="10.00">TMessage.h</text>
</g>
<!-- Node1&#45;&gt;Node3 -->
<g id="edge2" class="edge"><title>Node1&#45;&gt;Node3</title>
<path fill="none" stroke="midnightblue" d="M1203.76,-403.315C1138.44,-391.413 1036.7,-371.414 950,-348 946.368,-347.019 942.599,-345.911 938.857,-344.751"/>
<polygon fill="midnightblue" stroke="midnightblue" points="939.723,-341.353 929.132,-341.616 937.576,-348.015 939.723,-341.353"/>
</g>
<!-- Node4 -->
<g id="node4" class="node"><title>Node4</title>
<polygon fill="none" stroke="#bfbfbf" points="958.5,-322.5 958.5,-341.5 1005.5,-341.5 1005.5,-322.5 958.5,-322.5"/>
<text text-anchor="middle" x="982" y="-329.5" font-family="Helvetica,sans-Serif" font-size="10.00">TFile.h</text>
</g>
<!-- Node1&#45;&gt;Node4 -->
<g id="edge3" class="edge"><title>Node1&#45;&gt;Node4</title>
<path fill="none" stroke="midnightblue" d="M1203.75,-400.71C1151.56,-388.83 1077.77,-370.297 1015,-348 1012.88,-347.247 1010.71,-346.412 1008.54,-345.532"/>
<polygon fill="midnightblue" stroke="midnightblue" points="1009.81,-342.266 999.24,-341.506 1007.03,-348.69 1009.81,-342.266"/>
</g>
<!-- Node5 -->
<g id="node5" class="node"><title>Node5</title>
<polygon fill="none" stroke="#bfbfbf" points="1024,-322.5 1024,-341.5 1074,-341.5 1074,-322.5 1024,-322.5"/>
<text text-anchor="middle" x="1049" y="-329.5" font-family="Helvetica,sans-Serif" font-size="10.00">TTree.h</text>
</g>
<!-- Node1&#45;&gt;Node5 -->
<g id="edge4" class="edge"><title>Node1&#45;&gt;Node5</title>
<path fill="none" stroke="midnightblue" d="M1204,-392.456C1167.91,-379.979 1122.76,-363.83 1083,-348 1081.16,-347.266 1079.27,-346.492 1077.37,-345.698"/>
<polygon fill="midnightblue" stroke="midnightblue" points="1078.53,-342.388 1067.96,-341.657 1075.76,-348.82 1078.53,-342.388"/>
</g>
<!-- Node6 -->
<g id="node6" class="node"><title>Node6</title>
<polygon fill="none" stroke="#bfbfbf" points="1092,-322.5 1092,-341.5 1150,-341.5 1150,-322.5 1092,-322.5"/>
<text text-anchor="middle" x="1121" y="-329.5" font-family="Helvetica,sans-Serif" font-size="10.00">TFolder.h</text>
</g>
<!-- Node1&#45;&gt;Node6 -->
<g id="edge5" class="edge"><title>Node1&#45;&gt;Node6</title>
<path fill="none" stroke="midnightblue" d="M1215.15,-384.466C1191.2,-371.378 1164.47,-356.764 1145.63,-346.463"/>
<polygon fill="midnightblue" stroke="midnightblue" points="1147.26,-343.365 1136.8,-341.64 1143.9,-349.508 1147.26,-343.365"/>
</g>
<!-- Node7 -->
<g id="node7" class="node"><title>Node7</title>
<polygon fill="none" stroke="#bfbfbf" points="1168.5,-322.5 1168.5,-341.5 1253.5,-341.5 1253.5,-322.5 1168.5,-322.5"/>
<text text-anchor="middle" x="1211" y="-329.5" font-family="Helvetica,sans-Serif" font-size="10.00">TClonesArray.h</text>
</g>
<!-- Node1&#45;&gt;Node7 -->
<g id="edge6" class="edge"><title>Node1&#45;&gt;Node7</title>
<path fill="none" stroke="midnightblue" d="M1248.66,-384.466C1240.09,-372.752 1230.62,-359.817 1223.33,-349.845"/>
<polygon fill="midnightblue" stroke="midnightblue" points="1226.05,-347.643 1217.32,-341.64 1220.4,-351.777 1226.05,-347.643"/>
</g>
<!-- Node8 -->
<g id="node8" class="node"><title>Node8</title>
<polygon fill="none" stroke="#bfbfbf" points="1404.5,-136.5 1404.5,-155.5 1475.5,-155.5 1475.5,-136.5 1404.5,-136.5"/>
<text text-anchor="middle" x="1440" y="-143.5" font-family="Helvetica,sans-Serif" font-size="10.00">FairLogger.h</text>
</g>
<!-- Node1&#45;&gt;Node8 -->
<g id="edge7" class="edge"><title>Node1&#45;&gt;Node8</title>
<path fill="none" stroke="midnightblue" d="M1338.2,-393.323C1360.64,-382.945 1383.77,-368.245 1399,-348 1440.91,-292.286 1442.7,-204.253 1441.22,-165.902"/>
<polygon fill="midnightblue" stroke="midnightblue" points="1444.7,-165.493 1440.7,-155.685 1437.71,-165.851 1444.7,-165.493"/>
</g>
<!-- Node9 -->
<g id="node9" class="node"><title>Node9</title>
<polygon fill="none" stroke="#bfbfbf" points="1561,-254.5 1561,-273.5 1659,-273.5 1659,-254.5 1561,-254.5"/>
<text text-anchor="middle" x="1610" y="-261.5" font-family="Helvetica,sans-Serif" font-size="10.00">FairEventHeader.h</text>
</g>
<!-- Node1&#45;&gt;Node9 -->
<g id="edge8" class="edge"><title>Node1&#45;&gt;Node9</title>
<path fill="none" stroke="midnightblue" d="M1338.02,-410.658C1424.37,-403.571 1567.5,-386.269 1602,-348 1617.65,-330.643 1616.74,-302.177 1613.94,-283.511"/>
<polygon fill="midnightblue" stroke="midnightblue" points="1617.36,-282.787 1612.13,-273.576 1610.48,-284.042 1617.36,-282.787"/>
</g>
<!-- Node10 -->
<g id="node10" class="node"><title>Node10</title>
<polygon fill="none" stroke="#bfbfbf" points="1447,-322.5 1447,-341.5 1593,-341.5 1593,-322.5 1447,-322.5"/>
<text text-anchor="middle" x="1520" y="-329.5" font-family="Helvetica,sans-Serif" font-size="10.00">options/FairMQProgOptions.h</text>
</g>
<!-- Node1&#45;&gt;Node10 -->
<g id="edge9" class="edge"><title>Node1&#45;&gt;Node10</title>
<path fill="none" stroke="midnightblue" d="M1338.05,-392.918C1385.13,-377.416 1446.23,-357.293 1484.28,-344.763"/>
<polygon fill="midnightblue" stroke="midnightblue" points="1485.5,-348.047 1493.9,-341.595 1483.31,-341.398 1485.5,-348.047"/>
</g>
<!-- Node11 -->
<g id="node11" class="node"><title>Node11</title>
<g id="a_node11"><a xlink:href="../../dc/de1/ITSMFT_2common_2reconstruction_2include_2ITSMFTReconstruction_2Cluster_8h.html" target="_top" xlink:title="ITSMFTReconstruction\l/Cluster.h">
<polygon fill="none" stroke="black" points="1271.5,-317 1271.5,-347 1390.5,-347 1390.5,-317 1271.5,-317"/>
<text text-anchor="start" x="1279.5" y="-335" font-family="Helvetica,sans-Serif" font-size="10.00">ITSMFTReconstruction</text>
<text text-anchor="middle" x="1331" y="-324" font-family="Helvetica,sans-Serif" font-size="10.00">/Cluster.h</text>
</a>
</g>
</g>
<!-- Node1&#45;&gt;Node11 -->
<g id="edge10" class="edge"><title>Node1&#45;&gt;Node11</title>
<path fill="none" stroke="midnightblue" d="M1293.34,-384.466C1300.34,-374.904 1307.93,-364.528 1314.45,-355.614"/>
<polygon fill="midnightblue" stroke="midnightblue" points="1317.48,-357.409 1320.56,-347.272 1311.83,-353.275 1317.48,-357.409"/>
</g>
<!-- Node39 -->
<g id="node39" class="node"><title>Node39</title>
<g id="a_node39"><a xlink:href="../../d5/d61/EventHeader_8h.html" target="_top" xlink:title="MFTSimulation/EventHeader.h">
<polygon fill="none" stroke="black" points="1649.5,-322.5 1649.5,-341.5 1800.5,-341.5 1800.5,-322.5 1649.5,-322.5"/>
<text text-anchor="middle" x="1725" y="-329.5" font-family="Helvetica,sans-Serif" font-size="10.00">MFTSimulation/EventHeader.h</text>
</a>
</g>
</g>
<!-- Node1&#45;&gt;Node39 -->
<g id="edge45" class="edge"><title>Node1&#45;&gt;Node39</title>
<path fill="none" stroke="midnightblue" d="M1338.48,-402.812C1427.85,-386.671 1583.91,-358.483 1667.79,-343.333"/>
<polygon fill="midnightblue" stroke="midnightblue" points="1668.44,-346.773 1677.66,-341.551 1667.19,-339.884 1668.44,-346.773"/>
</g>
<!-- Node42 -->
<g id="node42" class="node"><title>Node42</title>
<g id="a_node42"><a xlink:href="../../d9/d19/FileSink_8h.html" target="_top" xlink:title="MFTReconstruction/devices\l/FileSink.h">
<polygon fill="none" stroke="black" points="1848,-317 1848,-347 1988,-347 1988,-317 1848,-317"/>
<text text-anchor="start" x="1856" y="-335" font-family="Helvetica,sans-Serif" font-size="10.00">MFTReconstruction/devices</text>
<text text-anchor="middle" x="1918" y="-324" font-family="Helvetica,sans-Serif" font-size="10.00">/FileSink.h</text>
</a>
</g>
</g>
<!-- Node1&#45;&gt;Node42 -->
<g id="edge49" class="edge"><title>Node1&#45;&gt;Node42</title>
<path fill="none" stroke="midnightblue" d="M1338.13,-406.921C1439.98,-394.6 1639.61,-370.201 1809,-348 1818.35,-346.775 1828.14,-345.464 1837.87,-344.147"/>
<polygon fill="midnightblue" stroke="midnightblue" points="1838.51,-347.592 1847.95,-342.776 1837.57,-340.656 1838.51,-347.592"/>
</g>
<!-- Node12 -->
<g id="node12" class="node"><title>Node12</title>
<g id="a_node12"><a xlink:href="../../d4/de2/BaseCluster_8h.html" target="_top" xlink:title="DetectorsBase/BaseCluster.h">
<polygon fill="none" stroke="black" points="1008.5,-254.5 1008.5,-273.5 1155.5,-273.5 1155.5,-254.5 1008.5,-254.5"/>
<text text-anchor="middle" x="1082" y="-261.5" font-family="Helvetica,sans-Serif" font-size="10.00">DetectorsBase/BaseCluster.h</text>
</a>
</g>
</g>
<!-- Node11&#45;&gt;Node12 -->
<g id="edge11" class="edge"><title>Node11&#45;&gt;Node12</title>
<path fill="none" stroke="midnightblue" d="M1277.89,-316.922C1231.87,-304.725 1166.21,-287.32 1123.84,-276.09"/>
<polygon fill="midnightblue" stroke="midnightblue" points="1124.68,-272.693 1114.12,-273.514 1122.89,-279.459 1124.68,-272.693"/>
</g>
<!-- Node13 -->
<g id="node13" class="node"><title>Node13</title>
<polygon fill="none" stroke="#bfbfbf" points="1311.5,-192.5 1311.5,-211.5 1370.5,-211.5 1370.5,-192.5 1311.5,-192.5"/>
<text text-anchor="middle" x="1341" y="-199.5" font-family="Helvetica,sans-Serif" font-size="10.00">TObject.h</text>
</g>
<!-- Node12&#45;&gt;Node13 -->
<g id="edge12" class="edge"><title>Node12&#45;&gt;Node13</title>
<path fill="none" stroke="midnightblue" d="M1118.83,-254.467C1167.18,-243.268 1251.7,-223.687 1301.39,-212.177"/>
<polygon fill="midnightblue" stroke="midnightblue" points="1302.18,-215.585 1311.14,-209.918 1300.6,-208.765 1302.18,-215.585"/>
</g>
<!-- Node14 -->
<g id="node14" class="node"><title>Node14</title>
<polygon fill="none" stroke="#bfbfbf" points="877.5,-192.5 877.5,-211.5 918.5,-211.5 918.5,-192.5 877.5,-192.5"/>
<text text-anchor="middle" x="898" y="-199.5" font-family="Helvetica,sans-Serif" font-size="10.00">bitset</text>
</g>
<!-- Node12&#45;&gt;Node14 -->
<g id="edge13" class="edge"><title>Node12&#45;&gt;Node14</title>
<path fill="none" stroke="midnightblue" d="M1055.64,-254.403C1021.99,-243.432 963.911,-224.493 928.425,-212.921"/>
<polygon fill="midnightblue" stroke="midnightblue" points="929.214,-209.497 918.622,-209.724 927.044,-216.152 929.214,-209.497"/>
</g>
<!-- Node15 -->
<g id="node15" class="node"><title>Node15</title>
<polygon fill="none" stroke="#bfbfbf" points="937,-192.5 937,-211.5 987,-211.5 987,-192.5 937,-192.5"/>
<text text-anchor="middle" x="962" y="-199.5" font-family="Helvetica,sans-Serif" font-size="10.00">iomanip</text>
</g>
<!-- Node12&#45;&gt;Node15 -->
<g id="edge14" class="edge"><title>Node12&#45;&gt;Node15</title>
<path fill="none" stroke="midnightblue" d="M1064.81,-254.403C1044.76,-244.379 1011.4,-227.701 988.14,-216.07"/>
<polygon fill="midnightblue" stroke="midnightblue" points="989.671,-212.922 979.161,-211.581 986.54,-219.183 989.671,-212.922"/>
</g>
<!-- Node16 -->
<g id="node16" class="node"><title>Node16</title>
<polygon fill="none" stroke="#bfbfbf" points="1005.5,-192.5 1005.5,-211.5 1034.5,-211.5 1034.5,-192.5 1005.5,-192.5"/>
<text text-anchor="middle" x="1020" y="-199.5" font-family="Helvetica,sans-Serif" font-size="10.00">ios</text>
</g>
<!-- Node12&#45;&gt;Node16 -->
<g id="edge15" class="edge"><title>Node12&#45;&gt;Node16</title>
<path fill="none" stroke="midnightblue" d="M1073.12,-254.403C1063.54,-245.136 1048.09,-230.183 1036.31,-218.788"/>
<polygon fill="midnightblue" stroke="midnightblue" points="1038.49,-216.02 1028.87,-211.581 1033.62,-221.05 1038.49,-216.02"/>
</g>
<!-- Node17 -->
<g id="node17" class="node"><title>Node17</title>
<polygon fill="none" stroke="#bfbfbf" points="1119,-74.5 1119,-93.5 1173,-93.5 1173,-74.5 1119,-74.5"/>
<text text-anchor="middle" x="1146" y="-81.5" font-family="Helvetica,sans-Serif" font-size="10.00">iostream</text>
</g>
<!-- Node12&#45;&gt;Node17 -->
<g id="edge16" class="edge"><title>Node12&#45;&gt;Node17</title>
<path fill="none" stroke="midnightblue" d="M1083.98,-254.5C1088.91,-233.814 1102.62,-179.368 1120,-136 1124.55,-124.634 1130.75,-112.396 1135.95,-102.757"/>
<polygon fill="midnightblue" stroke="midnightblue" points="1139.12,-104.245 1140.89,-93.7998 1133,-100.861 1139.12,-104.245"/>
</g>
<!-- Node18 -->
<g id="node18" class="node"><title>Node18</title>
<g id="a_node18"><a xlink:href="../../dd/d76/Cartesian3D_8h.html" target="_top" xlink:title="MathUtils/Cartesian3D.h">
<polygon fill="none" stroke="black" points="809.5,-136.5 809.5,-155.5 934.5,-155.5 934.5,-136.5 809.5,-136.5"/>
<text text-anchor="middle" x="872" y="-143.5" font-family="Helvetica,sans-Serif" font-size="10.00">MathUtils/Cartesian3D.h</text>
</a>
</g>
</g>
<!-- Node12&#45;&gt;Node18 -->
<g id="edge17" class="edge"><title>Node12&#45;&gt;Node18</title>
<path fill="none" stroke="midnightblue" d="M1079.62,-254.077C1075.1,-238.935 1063.84,-208.271 1043,-192 1015.04,-170.171 977.485,-158.88 944.691,-153.061"/>
<polygon fill="midnightblue" stroke="midnightblue" points="945.116,-149.584 934.682,-151.425 943.986,-156.492 945.116,-149.584"/>
</g>
<!-- Node29 -->
<g id="node29" class="node"><title>Node29</title>
<g id="a_node29"><a xlink:href="../../d4/d20/DetMatrixCache_8h.html" target="_top" xlink:title="DetectorsBase/DetMatrixCache.h">
<polygon fill="none" stroke="black" points="1129,-192.5 1129,-211.5 1293,-211.5 1293,-192.5 1129,-192.5"/>
<text text-anchor="middle" x="1211" y="-199.5" font-family="Helvetica,sans-Serif" font-size="10.00">DetectorsBase/DetMatrixCache.h</text>
</a>
</g>
</g>
<!-- Node12&#45;&gt;Node29 -->
<g id="edge29" class="edge"><title>Node12&#45;&gt;Node29</title>
<path fill="none" stroke="midnightblue" d="M1100.48,-254.403C1122.13,-244.334 1158.21,-227.552 1183.23,-215.915"/>
<polygon fill="midnightblue" stroke="midnightblue" points="1184.96,-218.971 1192.55,-211.581 1182.01,-212.624 1184.96,-218.971"/>
</g>
<!-- Node18&#45;&gt;Node17 -->
<g id="edge28" class="edge"><title>Node18&#45;&gt;Node17</title>
<path fill="none" stroke="midnightblue" d="M934.737,-136.78C983.226,-129.557 1051.69,-117.454 1110,-100 1112.65,-99.2082 1115.36,-98.2881 1118.06,-97.3005"/>
<polygon fill="midnightblue" stroke="midnightblue" points="1119.57,-100.467 1127.58,-93.5376 1117,-93.9566 1119.57,-100.467"/>
</g>
<!-- Node19 -->
<g id="node19" class="node"><title>Node19</title>
<polygon fill="none" stroke="#bfbfbf" points="952.5,-74.5 952.5,-93.5 1101.5,-93.5 1101.5,-74.5 952.5,-74.5"/>
<text text-anchor="middle" x="1027" y="-81.5" font-family="Helvetica,sans-Serif" font-size="10.00">Math/GenVector/Rotation3D.h</text>
</g>
<!-- Node18&#45;&gt;Node19 -->
<g id="edge18" class="edge"><title>Node18&#45;&gt;Node19</title>
<path fill="none" stroke="midnightblue" d="M894.208,-136.403C920.681,-126.156 965.114,-108.956 995.22,-97.3021"/>
<polygon fill="midnightblue" stroke="midnightblue" points="996.771,-100.455 1004.83,-93.5806 994.244,-93.9266 996.771,-100.455"/>
</g>
<!-- Node20 -->
<g id="node20" class="node"><title>Node20</title>
<polygon fill="none" stroke="#bfbfbf" points="0,-74.5 0,-93.5 156,-93.5 156,-74.5 0,-74.5"/>
<text text-anchor="middle" x="78" y="-81.5" font-family="Helvetica,sans-Serif" font-size="10.00">Math/GenVector/Transform3D.h</text>
</g>
<!-- Node18&#45;&gt;Node20 -->
<g id="edge19" class="edge"><title>Node18&#45;&gt;Node20</title>
<path fill="none" stroke="midnightblue" d="M809.378,-143.267C685.797,-139.351 401.968,-127.888 165,-100 154.387,-98.751 143.103,-97.0698 132.299,-95.2844"/>
<polygon fill="midnightblue" stroke="midnightblue" points="132.571,-91.7805 122.126,-93.5515 131.396,-98.6811 132.571,-91.7805"/>
</g>
<!-- Node21 -->
<g id="node21" class="node"><title>Node21</title>
<polygon fill="none" stroke="#bfbfbf" points="174,-74.5 174,-93.5 334,-93.5 334,-74.5 174,-74.5"/>
<text text-anchor="middle" x="254" y="-81.5" font-family="Helvetica,sans-Serif" font-size="10.00">Math/GenVector/Translation3D.h</text>
</g>
<!-- Node18&#45;&gt;Node21 -->
<g id="edge20" class="edge"><title>Node18&#45;&gt;Node21</title>
<path fill="none" stroke="midnightblue" d="M809.122,-141.327C709.84,-135.152 510.797,-121.241 343,-100 332.288,-98.6441 320.895,-96.9313 309.963,-95.1521"/>
<polygon fill="midnightblue" stroke="midnightblue" points="310.525,-91.6976 300.086,-93.5077 309.376,-98.6025 310.525,-91.6976"/>
</g>
<!-- Node22 -->
<g id="node22" class="node"><title>Node22</title>
<polygon fill="none" stroke="#bfbfbf" points="1229,-74.5 1229,-93.5 1285,-93.5 1285,-74.5 1229,-74.5"/>
<text text-anchor="middle" x="1257" y="-81.5" font-family="Helvetica,sans-Serif" font-size="10.00">Rtypes.h</text>
</g>
<!-- Node18&#45;&gt;Node22 -->
<g id="edge21" class="edge"><title>Node18&#45;&gt;Node22</title>
<path fill="none" stroke="midnightblue" d="M934.795,-136.883C997.529,-128.539 1096.65,-114.718 1182,-100 1194.04,-97.923 1207.12,-95.4006 1218.93,-93.0215"/>
<polygon fill="midnightblue" stroke="midnightblue" points="1219.83,-96.4105 1228.93,-90.9825 1218.43,-89.5517 1219.83,-96.4105"/>
</g>
<!-- Node23 -->
<g id="node23" class="node"><title>Node23</title>
<polygon fill="none" stroke="#bfbfbf" points="352,-74.5 352,-93.5 428,-93.5 428,-74.5 352,-74.5"/>
<text text-anchor="middle" x="390" y="-81.5" font-family="Helvetica,sans-Serif" font-size="10.00">TGeoMatrix.h</text>
</g>
<!-- Node18&#45;&gt;Node23 -->
<g id="edge22" class="edge"><title>Node18&#45;&gt;Node23</title>
<path fill="none" stroke="midnightblue" d="M809.429,-142.571C724.356,-138.353 567.801,-127.333 437,-100 432.541,-99.0681 427.906,-97.876 423.36,-96.572"/>
<polygon fill="midnightblue" stroke="midnightblue" points="424.243,-93.1818 413.656,-93.5961 422.19,-99.8742 424.243,-93.1818"/>
</g>
<!-- Node24 -->
<g id="node24" class="node"><title>Node24</title>
<polygon fill="none" stroke="#bfbfbf" points="446.5,-69 446.5,-99 597.5,-99 597.5,-69 446.5,-69"/>
<text text-anchor="start" x="454.5" y="-87" font-family="Helvetica,sans-Serif" font-size="10.00">Math/GenVector/Displacement</text>
<text text-anchor="middle" x="522" y="-76" font-family="Helvetica,sans-Serif" font-size="10.00">Vector3D.h</text>
</g>
<!-- Node18&#45;&gt;Node24 -->
<g id="edge23" class="edge"><title>Node18&#45;&gt;Node24</title>
<path fill="none" stroke="midnightblue" d="M821.181,-136.471C770.012,-127.86 688.517,-114.085 607.879,-100.146"/>
<polygon fill="midnightblue" stroke="midnightblue" points="607.99,-96.6129 597.539,-98.3566 606.796,-103.51 607.99,-96.6129"/>
</g>
<!-- Node25 -->
<g id="node25" class="node"><title>Node25</title>
<polygon fill="none" stroke="#bfbfbf" points="616,-74.5 616,-93.5 792,-93.5 792,-74.5 616,-74.5"/>
<text text-anchor="middle" x="704" y="-81.5" font-family="Helvetica,sans-Serif" font-size="10.00">Math/GenVector/PositionVector3D.h</text>
</g>
<!-- Node18&#45;&gt;Node25 -->
<g id="edge24" class="edge"><title>Node18&#45;&gt;Node25</title>
<path fill="none" stroke="midnightblue" d="M847.93,-136.403C818.987,-126.067 770.238,-108.656 737.598,-96.9994"/>
<polygon fill="midnightblue" stroke="midnightblue" points="738.62,-93.6479 728.026,-93.5806 736.266,-100.24 738.62,-93.6479"/>
</g>
<!-- Node26 -->
<g id="node26" class="node"><title>Node26</title>
<g id="a_node26"><a xlink:href="../../d2/dd0/Cartesian2D_8h.html" target="_top" xlink:title="MathUtils/Cartesian2D.h">
<polygon fill="none" stroke="black" points="809.5,-74.5 809.5,-93.5 934.5,-93.5 934.5,-74.5 809.5,-74.5"/>
<text text-anchor="middle" x="872" y="-81.5" font-family="Helvetica,sans-Serif" font-size="10.00">MathUtils/Cartesian2D.h</text>
</a>
</g>
</g>
<!-- Node18&#45;&gt;Node26 -->
<g id="edge25" class="edge"><title>Node18&#45;&gt;Node26</title>
<path fill="none" stroke="midnightblue" d="M872,-136.403C872,-127.938 872,-114.728 872,-103.82"/>
<polygon fill="midnightblue" stroke="midnightblue" points="875.5,-103.581 872,-93.5806 868.5,-103.581 875.5,-103.581"/>
</g>
<!-- Node27 -->
<g id="node27" class="node"><title>Node27</title>
<polygon fill="none" stroke="#bfbfbf" points="705.5,-1 705.5,-31 856.5,-31 856.5,-1 705.5,-1"/>
<text text-anchor="start" x="713.5" y="-19" font-family="Helvetica,sans-Serif" font-size="10.00">Math/GenVector/Displacement</text>
<text text-anchor="middle" x="781" y="-8" font-family="Helvetica,sans-Serif" font-size="10.00">Vector2D.h</text>
</g>
<!-- Node26&#45;&gt;Node27 -->
<g id="edge26" class="edge"><title>Node26&#45;&gt;Node27</title>
<path fill="none" stroke="midnightblue" d="M860.103,-74.3717C847.221,-65.0286 826.22,-49.7966 809.093,-37.375"/>
<polygon fill="midnightblue" stroke="midnightblue" points="810.703,-34.2194 800.553,-31.1815 806.593,-39.8859 810.703,-34.2194"/>
</g>
<!-- Node28 -->
<g id="node28" class="node"><title>Node28</title>
<polygon fill="none" stroke="#bfbfbf" points="875,-6.5 875,-25.5 1051,-25.5 1051,-6.5 875,-6.5"/>
<text text-anchor="middle" x="963" y="-13.5" font-family="Helvetica,sans-Serif" font-size="10.00">Math/GenVector/PositionVector2D.h</text>
</g>
<!-- Node26&#45;&gt;Node28 -->
<g id="edge27" class="edge"><title>Node26&#45;&gt;Node28</title>
<path fill="none" stroke="midnightblue" d="M883.897,-74.3717C898.884,-63.5015 924.862,-44.6602 942.942,-31.5474"/>
<polygon fill="midnightblue" stroke="midnightblue" points="945.06,-34.3349 951.1,-25.6305 940.95,-28.6684 945.06,-34.3349"/>
</g>
<!-- Node29&#45;&gt;Node8 -->
<g id="edge44" class="edge"><title>Node29&#45;&gt;Node8</title>
<path fill="none" stroke="midnightblue" d="M1247.29,-192.444C1287.1,-183.055 1351.08,-167.968 1394.29,-157.778"/>
<polygon fill="midnightblue" stroke="midnightblue" points="1395.33,-161.129 1404.26,-155.428 1393.72,-154.316 1395.33,-161.129"/>
</g>
<!-- Node29&#45;&gt;Node18 -->
<g id="edge32" class="edge"><title>Node29&#45;&gt;Node18</title>
<path fill="none" stroke="midnightblue" d="M1157.28,-192.444C1097.03,-182.846 999.386,-167.292 935.429,-157.104"/>
<polygon fill="midnightblue" stroke="midnightblue" points="935.89,-153.633 925.464,-155.516 934.789,-160.546 935.89,-153.633"/>
</g>
<!-- Node29&#45;&gt;Node22 -->
<g id="edge43" class="edge"><title>Node29&#45;&gt;Node22</title>
<path fill="none" stroke="midnightblue" d="M1214.46,-192.281C1221.95,-173.379 1239.83,-128.295 1249.86,-103"/>
<polygon fill="midnightblue" stroke="midnightblue" points="1253.19,-104.091 1253.63,-93.5048 1246.69,-101.51 1253.19,-104.091"/>
</g>
<!-- Node30 -->
<g id="node30" class="node"><title>Node30</title>
<polygon fill="none" stroke="#bfbfbf" points="1129,-136.5 1129,-155.5 1173,-155.5 1173,-136.5 1129,-136.5"/>
<text text-anchor="middle" x="1151" y="-143.5" font-family="Helvetica,sans-Serif" font-size="10.00">vector</text>
</g>
<!-- Node29&#45;&gt;Node30 -->
<g id="edge30" class="edge"><title>Node29&#45;&gt;Node30</title>
<path fill="none" stroke="midnightblue" d="M1201.36,-192.324C1192.49,-184.341 1179.13,-172.313 1168.39,-162.653"/>
<polygon fill="midnightblue" stroke="midnightblue" points="1170.59,-159.922 1160.82,-155.834 1165.91,-165.125 1170.59,-159.922"/>
</g>
<!-- Node31 -->
<g id="node31" class="node"><title>Node31</title>
<polygon fill="none" stroke="#bfbfbf" points="1438,-6.5 1438,-25.5 1476,-25.5 1476,-6.5 1438,-6.5"/>
<text text-anchor="middle" x="1457" y="-13.5" font-family="Helvetica,sans-Serif" font-size="10.00">array</text>
</g>
<!-- Node29&#45;&gt;Node31 -->
<g id="edge31" class="edge"><title>Node29&#45;&gt;Node31</title>
<path fill="none" stroke="midnightblue" d="M1208.42,-192.229C1202.12,-168.828 1188.66,-104.23 1220,-68 1246.84,-36.9761 1370.23,-23.6281 1427.56,-19.0254"/>
<polygon fill="midnightblue" stroke="midnightblue" points="1428.08,-22.4962 1437.78,-18.2421 1427.54,-15.5167 1428.08,-22.4962"/>
</g>
<!-- Node32 -->
<g id="node32" class="node"><title>Node32</title>
<g id="a_node32"><a xlink:href="../../d6/d31/DetID_8h.html" target="_top" xlink:title="DetectorsBase/DetID.h">
<polygon fill="none" stroke="black" points="1267.5,-136.5 1267.5,-155.5 1386.5,-155.5 1386.5,-136.5 1267.5,-136.5"/>
<text text-anchor="middle" x="1327" y="-143.5" font-family="Helvetica,sans-Serif" font-size="10.00">DetectorsBase/DetID.h</text>
</a>
</g>
</g>
<!-- Node29&#45;&gt;Node32 -->
<g id="edge33" class="edge"><title>Node29&#45;&gt;Node32</title>
<path fill="none" stroke="midnightblue" d="M1229.38,-192.444C1248.22,-183.675 1277.73,-169.935 1299.38,-159.858"/>
<polygon fill="midnightblue" stroke="midnightblue" points="1301.12,-162.91 1308.71,-155.516 1298.16,-156.564 1301.12,-162.91"/>
</g>
<!-- Node32&#45;&gt;Node22 -->
<g id="edge37" class="edge"><title>Node32&#45;&gt;Node22</title>
<path fill="none" stroke="midnightblue" d="M1316.97,-136.403C1305.95,-126.958 1288.04,-111.606 1274.66,-100.134"/>
<polygon fill="midnightblue" stroke="midnightblue" points="1276.88,-97.4311 1267.01,-93.5806 1272.33,-102.746 1276.88,-97.4311"/>
</g>
<!-- Node32&#45;&gt;Node31 -->
<g id="edge35" class="edge"><title>Node32&#45;&gt;Node31</title>
<path fill="none" stroke="midnightblue" d="M1372.94,-136.459C1395.27,-130.031 1420.74,-118.942 1437,-100 1452.35,-82.1193 1456.35,-54.4319 1457.17,-36.0172"/>
<polygon fill="midnightblue" stroke="midnightblue" points="1460.68,-35.9801 1457.35,-25.9203 1453.68,-35.8575 1460.68,-35.9801"/>
</g>
<!-- Node33 -->
<g id="node33" class="node"><title>Node33</title>
<polygon fill="none" stroke="#bfbfbf" points="1303,-74.5 1303,-93.5 1349,-93.5 1349,-74.5 1303,-74.5"/>
<text text-anchor="middle" x="1326" y="-81.5" font-family="Helvetica,sans-Serif" font-size="10.00">cstdint</text>
</g>
<!-- Node32&#45;&gt;Node33 -->
<g id="edge34" class="edge"><title>Node32&#45;&gt;Node33</title>
<path fill="none" stroke="midnightblue" d="M1326.86,-136.403C1326.72,-127.938 1326.5,-114.728 1326.31,-103.82"/>
<polygon fill="midnightblue" stroke="midnightblue" points="1329.81,-103.521 1326.14,-93.5806 1322.81,-103.638 1329.81,-103.521"/>
</g>
<!-- Node34 -->
<g id="node34" class="node"><title>Node34</title>
<polygon fill="none" stroke="#bfbfbf" points="1367,-74.5 1367,-93.5 1429,-93.5 1429,-74.5 1367,-74.5"/>
<text text-anchor="middle" x="1398" y="-81.5" font-family="Helvetica,sans-Serif" font-size="10.00">type_traits</text>
</g>
<!-- Node32&#45;&gt;Node34 -->
<g id="edge36" class="edge"><title>Node32&#45;&gt;Node34</title>
<path fill="none" stroke="midnightblue" d="M1337.17,-136.403C1348.35,-126.958 1366.52,-111.606 1380.09,-100.134"/>
<polygon fill="midnightblue" stroke="midnightblue" points="1382.47,-102.709 1387.85,-93.5806 1377.95,-97.3619 1382.47,-102.709"/>
</g>
<!-- Node35 -->
<g id="node35" class="node"><title>Node35</title>
<g id="a_node35"><a xlink:href="../../d9/ded/Utils_8h.html" target="_top" xlink:title="DetectorsBase/Utils.h">
<polygon fill="none" stroke="black" points="1552.5,-74.5 1552.5,-93.5 1665.5,-93.5 1665.5,-74.5 1552.5,-74.5"/>
<text text-anchor="middle" x="1609" y="-81.5" font-family="Helvetica,sans-Serif" font-size="10.00">DetectorsBase/Utils.h</text>
</a>
</g>
</g>
<!-- Node32&#45;&gt;Node35 -->
<g id="edge38" class="edge"><title>Node32&#45;&gt;Node35</title>
<path fill="none" stroke="midnightblue" d="M1369.26,-136.43C1412.84,-127.539 1482.74,-113.123 1543,-100 1549.18,-98.6544 1555.68,-97.2118 1562.08,-95.7723"/>
<polygon fill="midnightblue" stroke="midnightblue" points="1563.04,-99.1444 1572.02,-93.5272 1561.5,-92.3164 1563.04,-99.1444"/>
</g>
<!-- Node38 -->
<g id="node38" class="node"><title>Node38</title>
<polygon fill="none" stroke="#bfbfbf" points="1485.5,-74.5 1485.5,-93.5 1534.5,-93.5 1534.5,-74.5 1485.5,-74.5"/>
<text text-anchor="middle" x="1510" y="-81.5" font-family="Helvetica,sans-Serif" font-size="10.00">cassert</text>
</g>
<!-- Node32&#45;&gt;Node38 -->
<g id="edge42" class="edge"><title>Node32&#45;&gt;Node38</title>
<path fill="none" stroke="midnightblue" d="M1356.14,-136.493C1385.36,-127.824 1431.55,-113.736 1471,-100 1473.61,-99.0921 1476.3,-98.1226 1479,-97.1299"/>
<polygon fill="midnightblue" stroke="midnightblue" points="1480.51,-100.301 1488.63,-93.5015 1478.04,-93.7503 1480.51,-100.301"/>
</g>
<!-- Node35&#45;&gt;Node31 -->
<g id="edge41" class="edge"><title>Node35&#45;&gt;Node31</title>
<path fill="none" stroke="midnightblue" d="M1589.13,-74.3717C1562.7,-62.895 1515.8,-42.5327 1485.58,-29.4082"/>
<polygon fill="midnightblue" stroke="midnightblue" points="1486.96,-26.1943 1476.4,-25.4218 1484.17,-32.6151 1486.96,-26.1943"/>
</g>
<!-- Node36 -->
<g id="node36" class="node"><title>Node36</title>
<g id="a_node36"><a xlink:href="../../d1/daa/Base_2include_2DetectorsBase_2Constants_8h.html" target="_top" xlink:title="DetectorsBase/Constants.h">
<polygon fill="none" stroke="black" points="1517,-6.5 1517,-25.5 1655,-25.5 1655,-6.5 1517,-6.5"/>
<text text-anchor="middle" x="1586" y="-13.5" font-family="Helvetica,sans-Serif" font-size="10.00">DetectorsBase/Constants.h</text>
</a>
</g>
</g>
<!-- Node35&#45;&gt;Node36 -->
<g id="edge39" class="edge"><title>Node35&#45;&gt;Node36</title>
<path fill="none" stroke="midnightblue" d="M1605.99,-74.3717C1602.57,-64.5443 1596.87,-48.2018 1592.44,-35.4673"/>
<polygon fill="midnightblue" stroke="midnightblue" points="1595.68,-34.1324 1589.08,-25.8411 1589.07,-36.4359 1595.68,-34.1324"/>
</g>
<!-- Node37 -->
<g id="node37" class="node"><title>Node37</title>
<polygon fill="none" stroke="#bfbfbf" points="1673,-6.5 1673,-25.5 1717,-25.5 1717,-6.5 1673,-6.5"/>
<text text-anchor="middle" x="1695" y="-13.5" font-family="Helvetica,sans-Serif" font-size="10.00">cmath</text>
</g>
<!-- Node35&#45;&gt;Node37 -->
<g id="edge40" class="edge"><title>Node35&#45;&gt;Node37</title>
<path fill="none" stroke="midnightblue" d="M1620.24,-74.3717C1634.28,-63.6004 1658.51,-45.0021 1675.58,-31.9065"/>
<polygon fill="midnightblue" stroke="midnightblue" points="1677.95,-34.4953 1683.75,-25.6305 1673.69,-28.9421 1677.95,-34.4953"/>
</g>
<!-- Node39&#45;&gt;Node9 -->
<g id="edge46" class="edge"><title>Node39&#45;&gt;Node9</title>
<path fill="none" stroke="midnightblue" d="M1709.97,-322.372C1690.59,-311.254 1656.7,-291.8 1633.81,-278.662"/>
<polygon fill="midnightblue" stroke="midnightblue" points="1635.45,-275.573 1625.04,-273.63 1631.97,-281.644 1635.45,-275.573"/>
</g>
<!-- Node40 -->
<g id="node40" class="node"><title>Node40</title>
<polygon fill="none" stroke="#bfbfbf" points="1677.5,-249 1677.5,-279 1772.5,-279 1772.5,-249 1677.5,-249"/>
<text text-anchor="start" x="1685.5" y="-267" font-family="Helvetica,sans-Serif" font-size="10.00">boost/serialization</text>
<text text-anchor="middle" x="1725" y="-256" font-family="Helvetica,sans-Serif" font-size="10.00">/access.hpp</text>
</g>
<!-- Node39&#45;&gt;Node40 -->
<g id="edge47" class="edge"><title>Node39&#45;&gt;Node40</title>
<path fill="none" stroke="midnightblue" d="M1725,-322.372C1725,-313.971 1725,-300.811 1725,-289.213"/>
<polygon fill="midnightblue" stroke="midnightblue" points="1728.5,-289.181 1725,-279.181 1721.5,-289.181 1728.5,-289.181"/>
</g>
<!-- Node41 -->
<g id="node41" class="node"><title>Node41</title>
<polygon fill="none" stroke="#bfbfbf" points="1790.5,-249 1790.5,-279 1885.5,-279 1885.5,-249 1790.5,-249"/>
<text text-anchor="start" x="1798.5" y="-267" font-family="Helvetica,sans-Serif" font-size="10.00">boost/serialization</text>
<text text-anchor="middle" x="1838" y="-256" font-family="Helvetica,sans-Serif" font-size="10.00">/base_object.hpp</text>
</g>
<!-- Node39&#45;&gt;Node41 -->
<g id="edge48" class="edge"><title>Node39&#45;&gt;Node41</title>
<path fill="none" stroke="midnightblue" d="M1739.77,-322.372C1756.21,-312.771 1783.29,-296.954 1804.86,-284.356"/>
<polygon fill="midnightblue" stroke="midnightblue" points="1806.85,-287.247 1813.72,-279.181 1803.32,-281.203 1806.85,-287.247"/>
</g>
<!-- Node43 -->
<g id="node43" class="node"><title>Node43</title>
<polygon fill="none" stroke="#bfbfbf" points="1904,-254.5 1904,-273.5 1992,-273.5 1992,-254.5 1904,-254.5"/>
<text text-anchor="middle" x="1948" y="-261.5" font-family="Helvetica,sans-Serif" font-size="10.00">FairMQDevice.h</text>
</g>
<!-- Node42&#45;&gt;Node43 -->
<g id="edge50" class="edge"><title>Node42&#45;&gt;Node43</title>
<path fill="none" stroke="midnightblue" d="M1924.51,-316.679C1929,-306.796 1935.01,-293.579 1939.82,-282.986"/>
<polygon fill="midnightblue" stroke="midnightblue" points="1943.04,-284.38 1943.99,-273.828 1936.66,-281.484 1943.04,-284.38"/>
</g>
</g>
</svg>
        <g id="navigator" transform="translate(0 0)" fill="#404254">
                <rect fill="#f2f5e9" fill-opacity="0.5" stroke="#606060" stroke-width=".5" x="0" y="0" width="60" height="60"/>
                <use id="zoomplus" xlink:href="#zoomPlus" x="17" y="9" onmousedown="handleZoom(evt,'in')"/>
                <use id="zoomminus" xlink:href="#zoomMin" x="42" y="9" onmousedown="handleZoom(evt,'out')"/>
                <use id="reset" xlink:href="#resetDef" x="30" y="36" onmousedown="handleReset()"/>
                <g id="arrowUp" xlink:href="#dirArrow" transform="translate(30 24)" onmousedown="handlePan(0,-1)">
                  <use xlink:href="#rim" fill="#404040">
                        <set attributeName="fill" to="#808080" begin="arrowUp.mouseover" end="arrowUp.mouseout"/>
                  </use>
                  <path fill="none" stroke="white" stroke-width="1.5" d="M0,-3.0v7 M-2.5,-0.5L0,-3.0L2.5,-0.5"/>
                </g>
                <g id="arrowRight" xlink:href="#dirArrow" transform="rotate(90) translate(36 -43)" onmousedown="handlePan(1,0)">
                  <use xlink:href="#rim" fill="#404040">
                        <set attributeName="fill" to="#808080" begin="arrowRight.mouseover" end="arrowRight.mouseout"/>
                  </use>
                  <path fill="none" stroke="white" stroke-width="1.5" d="M0,-3.0v7 M-2.5,-0.5L0,-3.0L2.5,-0.5"/>
                </g>
                <g id="arrowDown" xlink:href="#dirArrow" transform="rotate(180) translate(-30 -48)" onmousedown="handlePan(0,1)">
                  <use xlink:href="#rim" fill="#404040">
                        <set attributeName="fill" to="#808080" begin="arrowDown.mouseover" end="arrowDown.mouseout"/>
                  </use>
                  <path fill="none" stroke="white" stroke-width="1.5" d="M0,-3.0v7 M-2.5,-0.5L0,-3.0L2.5,-0.5"/>
                </g>
                <g id="arrowLeft" xlink:href="#dirArrow" transform="rotate(270) translate(-36 17)" onmousedown="handlePan(-1,0)">
                  <use xlink:href="#rim" fill="#404040">
                        <set attributeName="fill" to="#808080" begin="arrowLeft.mouseover" end="arrowLeft.mouseout"/>
                  </use>
                  <path fill="none" stroke="white" stroke-width="1.5" d="M0,-3.0v7 M-2.5,-0.5L0,-3.0L2.5,-0.5"/>
                </g>
        </g>
        <svg viewBox="0 0 15 15" width="100%" height="30px" preserveAspectRatio="xMaxYMin meet">
         <g id="arrow_out" transform="scale(0.3 0.3)">
          <a xlink:href="FileSink_8cxx__incl_org.svg" target="_base">
           <rect id="button" ry="5" rx="5" y="6" x="6" height="38" width="38"
                fill="#f2f5e9" fill-opacity="0.5" stroke="#606060" stroke-width="1.0"/>
           <path id="arrow"
             d="M 11.500037,31.436501 C 11.940474,20.09759 22.043105,11.32322 32.158766,21.979434 L 37.068811,17.246167 C 37.068811,17.246167 37.088388,32 37.088388,32 L 22.160133,31.978069 C 22.160133,31.978069 26.997745,27.140456 26.997745,27.140456 C 18.528582,18.264221 13.291696,25.230495 11.500037,31.436501 z"
             style="fill:#404040;"/>
          </a>
         </g>
        </svg>
</svg>
