<?xml version="1.0" encoding="UTF-8" standalone="no"?>
<!DOCTYPE svg PUBLIC "-//W3C//DTD SVG 1.1//EN"
 "http://www.w3.org/Graphics/SVG/1.1/DTD/svg11.dtd">
<!-- Generated by graphviz version 2.36.0 (20140111.2315)
 -->
<!-- Title: o2::DataFormat::TPC::ClusterNativeContainer Pages: 1 -->
<svg width="237pt" height="206pt"
 viewBox="0.00 0.00 237.00 206.00" xmlns="http://www.w3.org/2000/svg" xmlns:xlink="http://www.w3.org/1999/xlink">
<g id="graph0" class="graph" transform="scale(1 1) rotate(0) translate(4 202)">
<title>o2::DataFormat::TPC::ClusterNativeContainer</title>
<!-- Node1 -->
<g id="node1" class="node"><title>Node1</title>
<polygon fill="#bfbfbf" stroke="black" points="48.5,-1 48.5,-69 173.5,-69 173.5,-1 48.5,-1"/>
<text text-anchor="start" x="56.5" y="-57" font-family="Helvetica,sans-Serif" font-size="10.00">o2::DataFormat::TPC</text>
<text text-anchor="middle" x="111" y="-46" font-family="Helvetica,sans-Serif" font-size="10.00">::ClusterNativeContainer</text>
<polyline fill="none" stroke="black" points="48.5,-39 173.5,-39 "/>
<text text-anchor="middle" x="111" y="-27" font-family="Helvetica,sans-Serif" font-size="10.00"> </text>
<polyline fill="none" stroke="black" points="48.5,-20 173.5,-20 "/>
<text text-anchor="middle" x="111" y="-8" font-family="Helvetica,sans-Serif" font-size="10.00"> </text>
</g>
<!-- Node2 -->
<g id="node2" class="node"><title>Node2</title>
<polygon fill="none" stroke="#bfbfbf" points="-0.5,-129 -0.5,-197 120.5,-197 120.5,-129 -0.5,-129"/>
<text text-anchor="start" x="7.5" y="-185" font-family="Helvetica,sans-Serif" font-size="10.00">vector&lt; o2::DataFormat</text>
<text text-anchor="middle" x="60" y="-174" font-family="Helvetica,sans-Serif" font-size="10.00">::TPC::ClusterNative &gt;</text>
<polyline fill="none" stroke="#bfbfbf" points="-0.5,-167 120.5,-167 "/>
<text text-anchor="middle" x="60" y="-155" font-family="Helvetica,sans-Serif" font-size="10.00"> </text>
<polyline fill="none" stroke="#bfbfbf" points="-0.5,-148 120.5,-148 "/>
<text text-anchor="middle" x="60" y="-136" font-family="Helvetica,sans-Serif" font-size="10.00"> </text>
</g>
<!-- Node2&#45;&gt;Node1 -->
<g id="edge1" class="edge"><title>Node2&#45;&gt;Node1</title>
<path fill="none" stroke="#404040" d="M70.1178,-128.853C74.3349,-115.954 79.5245,-101.144 85,-88 86.0407,-85.5018 87.1486,-82.9565 88.2983,-80.4014"/>
<polygon fill="none" stroke="#404040" points="88.432,-80.1161 87.3577,-72.9854 93.5267,-69.2513 94.601,-76.3819 88.432,-80.1161"/>
<text text-anchor="middle" x="112.5" y="-96.5" font-family="Helvetica,sans-Serif" font-size="10.00"> +mClusters</text>
</g>
<!-- Node3 -->
<g id="node3" class="node"><title>Node3</title>
<polygon fill="none" stroke="#bfbfbf" points="139,-134.5 139,-191.5 185,-191.5 185,-134.5 139,-134.5"/>
<text text-anchor="middle" x="162" y="-179.5" font-family="Helvetica,sans-Serif" font-size="10.00">uint8_t</text>
<polyline fill="none" stroke="#bfbfbf" points="139,-172.5 185,-172.5 "/>
<text text-anchor="middle" x="162" y="-160.5" font-family="Helvetica,sans-Serif" font-size="10.00"> </text>
<polyline fill="none" stroke="#bfbfbf" points="139,-153.5 185,-153.5 "/>
<text text-anchor="middle" x="162" y="-141.5" font-family="Helvetica,sans-Serif" font-size="10.00"> </text>
</g>
<!-- Node3&#45;&gt;Node1 -->
<g id="edge2" class="edge"><title>Node3&#45;&gt;Node1</title>
<path fill="none" stroke="#404040" d="M155.353,-134.436C151.558,-120.294 146.298,-102.945 140,-88 138.882,-85.3478 137.665,-82.6573 136.382,-79.9684"/>
<polygon fill="none" stroke="#404040" points="136.26,-79.727 129.979,-76.1845 130.833,-69.0242 137.114,-72.5667 136.26,-79.727"/>
<text text-anchor="middle" x="189" y="-102" font-family="Helvetica,sans-Serif" font-size="10.00"> +mSector</text>
<text text-anchor="middle" x="189" y="-91" font-family="Helvetica,sans-Serif" font-size="10.00">+mGlobalPadRow</text>
</g>
</g>
</svg>
