<?xml version="1.0" encoding="UTF-8" standalone="no"?>
<!DOCTYPE svg PUBLIC "-//W3C//DTD SVG 1.1//EN"
 "http://www.w3.org/Graphics/SVG/1.1/DTD/svg11.dtd">
<!-- Generated by graphviz version 2.36.0 (20140111.2315)
 -->
<!-- Title: /home/travis/build/AliceO2Group/AliceO2/Detectors/ITSMFT/ITS/reconstruction/include/ITSReconstruction/CookedTracker.h Pages: 1 -->
<svg width="2404pt" height="500pt"
 viewBox="0.00 0.00 2403.77 500.00" xmlns="http://www.w3.org/2000/svg" xmlns:xlink="http://www.w3.org/1999/xlink">
<g id="graph0" class="graph" transform="scale(1 1) rotate(0) translate(4 496)">
<title>/home/travis/build/AliceO2Group/AliceO2/Detectors/ITSMFT/ITS/reconstruction/include/ITSReconstruction/CookedTracker.h</title>
<!-- Node1 -->
<g id="node1" class="node"><title>Node1</title>
<polygon fill="#bfbfbf" stroke="black" points="920.272,-428.5 920.272,-491.5 1099.27,-491.5 1099.27,-428.5 920.272,-428.5"/>
<text text-anchor="start" x="928.272" y="-479.5" font-family="Helvetica,sans-Serif" font-size="10.00">/home/travis/build</text>
<text text-anchor="start" x="928.272" y="-468.5" font-family="Helvetica,sans-Serif" font-size="10.00">/AliceO2Group/AliceO2</text>
<text text-anchor="start" x="928.272" y="-457.5" font-family="Helvetica,sans-Serif" font-size="10.00">/Detectors/ITSMFT/ITS</text>
<text text-anchor="start" x="928.272" y="-446.5" font-family="Helvetica,sans-Serif" font-size="10.00">/reconstruction/include</text>
<text text-anchor="middle" x="1009.77" y="-435.5" font-family="Helvetica,sans-Serif" font-size="10.00">/ITSReconstruction/CookedTracker.h</text>
</g>
<!-- Node2 -->
<g id="node2" class="node"><title>Node2</title>
<polygon fill="none" stroke="#bfbfbf" points="89.7716,-136.5 89.7716,-155.5 133.772,-155.5 133.772,-136.5 89.7716,-136.5"/>
<text text-anchor="middle" x="111.772" y="-143.5" font-family="Helvetica,sans-Serif" font-size="10.00">vector</text>
</g>
<!-- Node1&#45;&gt;Node2 -->
<g id="edge1" class="edge"><title>Node1&#45;&gt;Node2</title>
<path fill="none" stroke="midnightblue" d="M919.912,-457.7C692.427,-452.13 105.03,-422.752 9.77163,-268 2.58594,-256.326 -7.85947,-220.144 10.7716,-192 26.0941,-168.854 56.3313,-157.498 79.7455,-151.999"/>
<polygon fill="midnightblue" stroke="midnightblue" points="80.5553,-155.405 89.6214,-149.922 79.1152,-148.555 80.5553,-155.405"/>
</g>
<!-- Node3 -->
<g id="node3" class="node"><title>Node3</title>
<g id="a_node3"><a xlink:href="../../df/d9a/ITS_2base_2include_2ITSBase_2GeometryTGeo_8h.html" target="_top" xlink:title="ITSBase/GeometryTGeo.h">
<polygon fill="none" stroke="black" points="130.272,-304.5 130.272,-323.5 263.272,-323.5 263.272,-304.5 130.272,-304.5"/>
<text text-anchor="middle" x="196.772" y="-311.5" font-family="Helvetica,sans-Serif" font-size="10.00">ITSBase/GeometryTGeo.h</text>
</a>
</g>
</g>
<!-- Node1&#45;&gt;Node3 -->
<g id="edge2" class="edge"><title>Node1&#45;&gt;Node3</title>
<path fill="none" stroke="midnightblue" d="M920.051,-443.108C752.252,-413.388 395.248,-350.155 255.036,-325.32"/>
<polygon fill="midnightblue" stroke="midnightblue" points="255.381,-321.827 244.923,-323.529 254.16,-328.719 255.381,-321.827"/>
</g>
<!-- Node23 -->
<g id="node23" class="node"><title>Node23</title>
<g id="a_node23"><a xlink:href="../../dd/d76/Cartesian3D_8h.html" target="_top" xlink:title="MathUtils/Cartesian3D.h">
<polygon fill="none" stroke="black" points="1386.27,-136.5 1386.27,-155.5 1511.27,-155.5 1511.27,-136.5 1386.27,-136.5"/>
<text text-anchor="middle" x="1448.77" y="-143.5" font-family="Helvetica,sans-Serif" font-size="10.00">MathUtils/Cartesian3D.h</text>
</a>
</g>
</g>
<!-- Node1&#45;&gt;Node23 -->
<g id="edge51" class="edge"><title>Node1&#45;&gt;Node23</title>
<path fill="none" stroke="midnightblue" d="M1099.58,-449.974C1181.15,-436.228 1288.77,-401.669 1288.77,-315 1288.77,-315 1288.77,-315 1288.77,-257 1288.77,-202.241 1353.2,-172.685 1400.28,-158.395"/>
<polygon fill="midnightblue" stroke="midnightblue" points="1401.41,-161.714 1410.04,-155.574 1399.46,-154.99 1401.41,-161.714"/>
</g>
<!-- Node36 -->
<g id="node36" class="node"><title>Node36</title>
<g id="a_node36"><a xlink:href="../../d8/ddd/CookedTrack_8h.html" target="_top" xlink:title="Definition of the ITS cooked track. ">
<polygon fill="none" stroke="black" points="1317.27,-361 1317.27,-391 1452.27,-391 1452.27,-361 1317.27,-361"/>
<text text-anchor="start" x="1325.27" y="-379" font-family="Helvetica,sans-Serif" font-size="10.00">ITSReconstruction/Cooked</text>
<text text-anchor="middle" x="1384.77" y="-368" font-family="Helvetica,sans-Serif" font-size="10.00">Track.h</text>
</a>
</g>
</g>
<!-- Node1&#45;&gt;Node36 -->
<g id="edge52" class="edge"><title>Node1&#45;&gt;Node36</title>
<path fill="none" stroke="midnightblue" d="M1099.59,-439.359C1164.15,-425.244 1250.13,-406.442 1310.75,-393.187"/>
<polygon fill="midnightblue" stroke="midnightblue" points="1311.61,-396.582 1320.63,-391.026 1310.11,-389.743 1311.61,-396.582"/>
</g>
<!-- Node3&#45;&gt;Node2 -->
<g id="edge3" class="edge"><title>Node3&#45;&gt;Node2</title>
<path fill="none" stroke="midnightblue" d="M132.792,-304.496C89.6198,-297.295 38.1639,-285.347 24.7716,-268 4.12997,-241.263 7.21081,-220.854 24.7716,-192 36.6666,-172.455 60.0901,-161.025 79.6381,-154.578"/>
<polygon fill="midnightblue" stroke="midnightblue" points="80.8515,-157.868 89.4256,-151.644 78.8417,-151.163 80.8515,-157.868"/>
</g>
<!-- Node4 -->
<g id="node4" class="node"><title>Node4</title>
<polygon fill="none" stroke="#bfbfbf" points="751.772,-6.5 751.772,-25.5 789.772,-25.5 789.772,-6.5 751.772,-6.5"/>
<text text-anchor="middle" x="770.772" y="-13.5" font-family="Helvetica,sans-Serif" font-size="10.00">array</text>
</g>
<!-- Node3&#45;&gt;Node4 -->
<g id="edge4" class="edge"><title>Node3&#45;&gt;Node4</title>
<path fill="none" stroke="midnightblue" d="M130.239,-305.681C82.7571,-298.927 24.7544,-287.016 9.77163,-268 2.86687,-259.237 -7.07275,-228.294 10.7716,-192 77.739,-55.7941 610.311,-23.938 741.599,-18.1251"/>
<polygon fill="midnightblue" stroke="midnightblue" points="741.859,-21.6173 751.701,-17.6949 741.561,-14.6236 741.859,-21.6173"/>
</g>
<!-- Node5 -->
<g id="node5" class="node"><title>Node5</title>
<polygon fill="none" stroke="#bfbfbf" points="67.2716,-192.5 67.2716,-211.5 108.272,-211.5 108.272,-192.5 67.2716,-192.5"/>
<text text-anchor="middle" x="87.7716" y="-199.5" font-family="Helvetica,sans-Serif" font-size="10.00">string</text>
</g>
<!-- Node3&#45;&gt;Node5 -->
<g id="edge5" class="edge"><title>Node3&#45;&gt;Node5</title>
<path fill="none" stroke="midnightblue" d="M159.674,-304.406C139.309,-297.791 115.309,-286.541 100.772,-268 90.4625,-254.851 87.6654,-235.71 87.1754,-221.602"/>
<polygon fill="midnightblue" stroke="midnightblue" points="90.6754,-221.579 87.1778,-211.578 83.6754,-221.577 90.6754,-221.579"/>
</g>
<!-- Node6 -->
<g id="node6" class="node"><title>Node6</title>
<polygon fill="none" stroke="#bfbfbf" points="1042.77,-74.5 1042.77,-93.5 1118.77,-93.5 1118.77,-74.5 1042.77,-74.5"/>
<text text-anchor="middle" x="1080.77" y="-81.5" font-family="Helvetica,sans-Serif" font-size="10.00">TGeoMatrix.h</text>
</g>
<!-- Node3&#45;&gt;Node6 -->
<g id="edge6" class="edge"><title>Node3&#45;&gt;Node6</title>
<path fill="none" stroke="midnightblue" d="M263.376,-312.901C431.39,-312.076 869.006,-306.209 1008.77,-268 1060.93,-253.742 1088.68,-258.202 1116.77,-212 1138.4,-176.421 1111.2,-127.374 1093.58,-101.898"/>
<polygon fill="midnightblue" stroke="midnightblue" points="1096.32,-99.7114 1087.63,-93.6464 1090.64,-103.805 1096.32,-99.7114"/>
</g>
<!-- Node7 -->
<g id="node7" class="node"><title>Node7</title>
<polygon fill="none" stroke="#bfbfbf" points="1011.27,-192.5 1011.27,-211.5 1070.27,-211.5 1070.27,-192.5 1011.27,-192.5"/>
<text text-anchor="middle" x="1040.77" y="-199.5" font-family="Helvetica,sans-Serif" font-size="10.00">TObject.h</text>
</g>
<!-- Node3&#45;&gt;Node7 -->
<g id="edge7" class="edge"><title>Node3&#45;&gt;Node7</title>
<path fill="none" stroke="midnightblue" d="M263.64,-308.553C356.892,-301.942 531.166,-288.106 678.772,-268 796.48,-251.967 934.294,-224.907 1000.82,-211.316"/>
<polygon fill="midnightblue" stroke="midnightblue" points="1001.78,-214.693 1010.87,-209.254 1000.37,-207.835 1001.78,-214.693"/>
</g>
<!-- Node8 -->
<g id="node8" class="node"><title>Node8</title>
<g id="a_node8"><a xlink:href="../../d6/d31/DetID_8h.html" target="_top" xlink:title="DetectorsBase/DetID.h">
<polygon fill="none" stroke="black" points="580.272,-136.5 580.272,-155.5 699.272,-155.5 699.272,-136.5 580.272,-136.5"/>
<text text-anchor="middle" x="639.772" y="-143.5" font-family="Helvetica,sans-Serif" font-size="10.00">DetectorsBase/DetID.h</text>
</a>
</g>
</g>
<!-- Node3&#45;&gt;Node8 -->
<g id="edge8" class="edge"><title>Node3&#45;&gt;Node8</title>
<path fill="none" stroke="midnightblue" d="M159.449,-304.467C136.598,-297.697 107.966,-286.265 87.7716,-268 60.839,-243.641 33.1033,-218.649 57.7716,-192 91.9116,-155.118 422.582,-148.375 569.745,-147.207"/>
<polygon fill="midnightblue" stroke="midnightblue" points="570.043,-150.705 580.018,-147.133 569.992,-143.706 570.043,-150.705"/>
</g>
<!-- Node11 -->
<g id="node11" class="node"><title>Node11</title>
<polygon fill="none" stroke="#bfbfbf" points="968.772,-74.5 968.772,-93.5 1024.77,-93.5 1024.77,-74.5 968.772,-74.5"/>
<text text-anchor="middle" x="996.772" y="-81.5" font-family="Helvetica,sans-Serif" font-size="10.00">Rtypes.h</text>
</g>
<!-- Node3&#45;&gt;Node11 -->
<g id="edge50" class="edge"><title>Node3&#45;&gt;Node11</title>
<path fill="none" stroke="midnightblue" d="M263.494,-311.131C419.413,-306.406 804.025,-292.572 930.772,-268 1008.04,-253.021 1052.75,-275.849 1098.77,-212 1129.62,-169.204 1061.35,-121.342 1022.03,-98.5218"/>
<polygon fill="midnightblue" stroke="midnightblue" points="1023.63,-95.4041 1013.2,-93.5317 1020.19,-101.498 1023.63,-95.4041"/>
</g>
<!-- Node12 -->
<g id="node12" class="node"><title>Node12</title>
<g id="a_node12"><a xlink:href="../../d9/ded/Utils_8h.html" target="_top" xlink:title="DetectorsBase/Utils.h">
<polygon fill="none" stroke="black" points="837.272,-74.5 837.272,-93.5 950.272,-93.5 950.272,-74.5 837.272,-74.5"/>
<text text-anchor="middle" x="893.772" y="-81.5" font-family="Helvetica,sans-Serif" font-size="10.00">DetectorsBase/Utils.h</text>
</a>
</g>
</g>
<!-- Node3&#45;&gt;Node12 -->
<g id="edge18" class="edge"><title>Node3&#45;&gt;Node12</title>
<path fill="none" stroke="midnightblue" d="M263.393,-310.526C459.836,-302.535 1026.31,-274.239 1078.77,-212 1125.26,-156.849 1007.74,-115.044 939.126,-96.1268"/>
<polygon fill="midnightblue" stroke="midnightblue" points="939.949,-92.7238 929.383,-93.503 938.129,-99.483 939.949,-92.7238"/>
</g>
<!-- Node16 -->
<g id="node16" class="node"><title>Node16</title>
<g id="a_node16"><a xlink:href="../../db/dcc/Detectors_2Base_2include_2DetectorsBase_2GeometryManager_8h.html" target="_top" xlink:title="DetectorsBase/GeometryManager.h">
<polygon fill="none" stroke="black" points="497.272,-248.5 497.272,-267.5 670.272,-267.5 670.272,-248.5 497.272,-248.5"/>
<text text-anchor="middle" x="583.772" y="-255.5" font-family="Helvetica,sans-Serif" font-size="10.00">DetectorsBase/GeometryManager.h</text>
</a>
</g>
</g>
<!-- Node3&#45;&gt;Node16 -->
<g id="edge19" class="edge"><title>Node3&#45;&gt;Node16</title>
<path fill="none" stroke="midnightblue" d="M258.093,-304.444C327.303,-294.786 439.726,-279.099 512.709,-268.916"/>
<polygon fill="midnightblue" stroke="midnightblue" points="513.317,-272.365 522.737,-267.516 512.349,-265.432 513.317,-272.365"/>
</g>
<!-- Node33 -->
<g id="node33" class="node"><title>Node33</title>
<g id="a_node33"><a xlink:href="../../d0/d2d/common_2base_2include_2ITSMFTBase_2GeometryTGeo_8h.html" target="_top" xlink:title="ITSMFTBase/GeometryTGeo.h">
<polygon fill="none" stroke="black" points="110.272,-248.5 110.272,-267.5 263.272,-267.5 263.272,-248.5 110.272,-248.5"/>
<text text-anchor="middle" x="186.772" y="-255.5" font-family="Helvetica,sans-Serif" font-size="10.00">ITSMFTBase/GeometryTGeo.h</text>
</a>
</g>
</g>
<!-- Node3&#45;&gt;Node33 -->
<g id="edge40" class="edge"><title>Node3&#45;&gt;Node33</title>
<path fill="none" stroke="midnightblue" d="M195.12,-304.083C193.795,-296.927 191.889,-286.635 190.233,-277.691"/>
<polygon fill="midnightblue" stroke="midnightblue" points="193.655,-276.947 188.392,-267.751 186.772,-278.221 193.655,-276.947"/>
</g>
<!-- Node8&#45;&gt;Node4 -->
<g id="edge10" class="edge"><title>Node8&#45;&gt;Node4</title>
<path fill="none" stroke="midnightblue" d="M630.786,-136.23C616.467,-121.177 591.655,-89.9304 607.772,-68 638.457,-26.2471 703.202,-17.7324 741.209,-16.5334"/>
<polygon fill="midnightblue" stroke="midnightblue" points="741.681,-20.0264 751.624,-16.3673 741.57,-13.0273 741.681,-20.0264"/>
</g>
<!-- Node9 -->
<g id="node9" class="node"><title>Node9</title>
<polygon fill="none" stroke="#bfbfbf" points="616.772,-74.5 616.772,-93.5 662.772,-93.5 662.772,-74.5 616.772,-74.5"/>
<text text-anchor="middle" x="639.772" y="-81.5" font-family="Helvetica,sans-Serif" font-size="10.00">cstdint</text>
</g>
<!-- Node8&#45;&gt;Node9 -->
<g id="edge9" class="edge"><title>Node8&#45;&gt;Node9</title>
<path fill="none" stroke="midnightblue" d="M639.772,-136.403C639.772,-127.938 639.772,-114.728 639.772,-103.82"/>
<polygon fill="midnightblue" stroke="midnightblue" points="643.272,-103.581 639.772,-93.5806 636.272,-103.581 643.272,-103.581"/>
</g>
<!-- Node10 -->
<g id="node10" class="node"><title>Node10</title>
<polygon fill="none" stroke="#bfbfbf" points="680.772,-74.5 680.772,-93.5 742.772,-93.5 742.772,-74.5 680.772,-74.5"/>
<text text-anchor="middle" x="711.772" y="-81.5" font-family="Helvetica,sans-Serif" font-size="10.00">type_traits</text>
</g>
<!-- Node8&#45;&gt;Node10 -->
<g id="edge11" class="edge"><title>Node8&#45;&gt;Node10</title>
<path fill="none" stroke="midnightblue" d="M650.087,-136.403C661.422,-126.958 679.845,-111.606 693.611,-100.134"/>
<polygon fill="midnightblue" stroke="midnightblue" points="696.033,-102.671 701.475,-93.5806 691.552,-97.2937 696.033,-102.671"/>
</g>
<!-- Node8&#45;&gt;Node11 -->
<g id="edge12" class="edge"><title>Node8&#45;&gt;Node11</title>
<path fill="none" stroke="midnightblue" d="M699.394,-140.811C764.109,-135.293 870.083,-123.408 958.772,-100 961.828,-99.1934 964.971,-98.2131 968.079,-97.144"/>
<polygon fill="midnightblue" stroke="midnightblue" points="969.596,-100.313 977.735,-93.5304 967.143,-93.7574 969.596,-100.313"/>
</g>
<!-- Node8&#45;&gt;Node12 -->
<g id="edge13" class="edge"><title>Node8&#45;&gt;Node12</title>
<path fill="none" stroke="midnightblue" d="M675.894,-136.467C721.126,-125.783 798.654,-107.469 847.997,-95.8129"/>
<polygon fill="midnightblue" stroke="midnightblue" points="848.846,-99.2087 857.774,-93.5034 847.237,-92.3961 848.846,-99.2087"/>
</g>
<!-- Node15 -->
<g id="node15" class="node"><title>Node15</title>
<polygon fill="none" stroke="#bfbfbf" points="511.272,-74.5 511.272,-93.5 560.272,-93.5 560.272,-74.5 511.272,-74.5"/>
<text text-anchor="middle" x="535.772" y="-81.5" font-family="Helvetica,sans-Serif" font-size="10.00">cassert</text>
</g>
<!-- Node8&#45;&gt;Node15 -->
<g id="edge17" class="edge"><title>Node8&#45;&gt;Node15</title>
<path fill="none" stroke="midnightblue" d="M624.871,-136.403C607.804,-126.557 579.61,-110.291 559.509,-98.6949"/>
<polygon fill="midnightblue" stroke="midnightblue" points="561.056,-95.5462 550.645,-93.5806 557.557,-101.61 561.056,-95.5462"/>
</g>
<!-- Node12&#45;&gt;Node4 -->
<g id="edge16" class="edge"><title>Node12&#45;&gt;Node4</title>
<path fill="none" stroke="midnightblue" d="M877.692,-74.3717C856.881,-63.2051 820.394,-43.6266 795.908,-30.4876"/>
<polygon fill="midnightblue" stroke="midnightblue" points="797.322,-27.2746 786.856,-25.6305 794.012,-33.4428 797.322,-27.2746"/>
</g>
<!-- Node13 -->
<g id="node13" class="node"><title>Node13</title>
<g id="a_node13"><a xlink:href="../../d1/daa/Base_2include_2DetectorsBase_2Constants_8h.html" target="_top" xlink:title="DetectorsBase/Constants.h">
<polygon fill="none" stroke="black" points="1099.77,-6.5 1099.77,-25.5 1237.77,-25.5 1237.77,-6.5 1099.77,-6.5"/>
<text text-anchor="middle" x="1168.77" y="-13.5" font-family="Helvetica,sans-Serif" font-size="10.00">DetectorsBase/Constants.h</text>
</a>
</g>
</g>
<!-- Node12&#45;&gt;Node13 -->
<g id="edge14" class="edge"><title>Node12&#45;&gt;Node13</title>
<path fill="none" stroke="midnightblue" d="M929.441,-74.4393C979.001,-62.5449 1068.72,-41.0132 1123.11,-27.959"/>
<polygon fill="midnightblue" stroke="midnightblue" points="1124.26,-31.2827 1133.17,-25.5455 1122.62,-24.476 1124.26,-31.2827"/>
</g>
<!-- Node14 -->
<g id="node14" class="node"><title>Node14</title>
<polygon fill="none" stroke="#bfbfbf" points="1530.77,-6.5 1530.77,-25.5 1574.77,-25.5 1574.77,-6.5 1530.77,-6.5"/>
<text text-anchor="middle" x="1552.77" y="-13.5" font-family="Helvetica,sans-Serif" font-size="10.00">cmath</text>
</g>
<!-- Node12&#45;&gt;Node14 -->
<g id="edge15" class="edge"><title>Node12&#45;&gt;Node14</title>
<path fill="none" stroke="midnightblue" d="M927.175,-74.4693C937.562,-72.0706 949.09,-69.665 959.772,-68 1172.18,-34.89 1430.99,-21.913 1520.5,-18.2129"/>
<polygon fill="midnightblue" stroke="midnightblue" points="1520.71,-21.7073 1530.56,-17.8069 1520.43,-14.713 1520.71,-21.7073"/>
</g>
<!-- Node16&#45;&gt;Node7 -->
<g id="edge25" class="edge"><title>Node16&#45;&gt;Node7</title>
<path fill="none" stroke="midnightblue" d="M670.301,-249.937C754.078,-242.541 884.538,-229.554 996.772,-212 998.216,-211.774 999.685,-211.533 1001.17,-211.28"/>
<polygon fill="midnightblue" stroke="midnightblue" points="1001.81,-214.72 1011.02,-209.477 1000.55,-207.835 1001.81,-214.72"/>
</g>
<!-- Node16&#45;&gt;Node8 -->
<g id="edge26" class="edge"><title>Node16&#45;&gt;Node8</title>
<path fill="none" stroke="midnightblue" d="M496.998,-256.265C417.544,-253.53 308.254,-243.865 280.772,-212 274.966,-205.269 274.89,-198.665 280.772,-192 299.563,-170.706 470.968,-157.04 569.983,-150.852"/>
<polygon fill="midnightblue" stroke="midnightblue" points="570.447,-154.33 580.213,-150.223 570.017,-147.343 570.447,-154.33"/>
</g>
<!-- Node17 -->
<g id="node17" class="node"><title>Node17</title>
<polygon fill="none" stroke="#bfbfbf" points="584.772,-192.5 584.772,-211.5 670.772,-211.5 670.772,-192.5 584.772,-192.5"/>
<text text-anchor="middle" x="627.772" y="-199.5" font-family="Helvetica,sans-Serif" font-size="10.00">TGeoManager.h</text>
</g>
<!-- Node16&#45;&gt;Node17 -->
<g id="edge20" class="edge"><title>Node16&#45;&gt;Node17</title>
<path fill="none" stroke="midnightblue" d="M591.037,-248.083C597.316,-240.377 606.559,-229.033 614.202,-219.653"/>
<polygon fill="midnightblue" stroke="midnightblue" points="617.038,-221.714 620.641,-211.751 611.611,-217.293 617.038,-221.714"/>
</g>
<!-- Node18 -->
<g id="node18" class="node"><title>Node18</title>
<polygon fill="none" stroke="#bfbfbf" points="871.272,-192.5 871.272,-211.5 954.272,-211.5 954.272,-192.5 871.272,-192.5"/>
<text text-anchor="middle" x="912.772" y="-199.5" font-family="Helvetica,sans-Serif" font-size="10.00">TGeoMaterial.h</text>
</g>
<!-- Node16&#45;&gt;Node18 -->
<g id="edge21" class="edge"><title>Node16&#45;&gt;Node18</title>
<path fill="none" stroke="midnightblue" d="M637.883,-248.474C691.798,-239.926 777.223,-226.241 861.08,-212.098"/>
<polygon fill="midnightblue" stroke="midnightblue" points="861.755,-215.533 871.031,-210.416 860.588,-208.631 861.755,-215.533"/>
</g>
<!-- Node19 -->
<g id="node19" class="node"><title>Node19</title>
<polygon fill="none" stroke="#bfbfbf" points="289.772,-192.5 289.772,-211.5 399.772,-211.5 399.772,-192.5 289.772,-192.5"/>
<text text-anchor="middle" x="344.772" y="-199.5" font-family="Helvetica,sans-Serif" font-size="10.00">TGeoPhysicalNode.h</text>
</g>
<!-- Node16&#45;&gt;Node19 -->
<g id="edge22" class="edge"><title>Node16&#45;&gt;Node19</title>
<path fill="none" stroke="midnightblue" d="M545.901,-248.444C504.296,-239.043 437.402,-223.929 392.303,-213.739"/>
<polygon fill="midnightblue" stroke="midnightblue" points="392.99,-210.306 382.465,-211.516 391.447,-217.134 392.99,-210.306"/>
</g>
<!-- Node20 -->
<g id="node20" class="node"><title>Node20</title>
<polygon fill="none" stroke="#bfbfbf" points="418.272,-192.5 418.272,-211.5 495.272,-211.5 495.272,-192.5 418.272,-192.5"/>
<text text-anchor="middle" x="456.772" y="-199.5" font-family="Helvetica,sans-Serif" font-size="10.00">TGeoShape.h</text>
</g>
<!-- Node16&#45;&gt;Node20 -->
<g id="edge23" class="edge"><title>Node16&#45;&gt;Node20</title>
<path fill="none" stroke="midnightblue" d="M563.648,-248.444C542.747,-239.557 509.837,-225.563 486.056,-215.451"/>
<polygon fill="midnightblue" stroke="midnightblue" points="487.373,-212.208 476.801,-211.516 484.634,-218.65 487.373,-212.208"/>
</g>
<!-- Node21 -->
<g id="node21" class="node"><title>Node21</title>
<polygon fill="none" stroke="#bfbfbf" points="513.272,-192.5 513.272,-211.5 566.272,-211.5 566.272,-192.5 513.272,-192.5"/>
<text text-anchor="middle" x="539.772" y="-199.5" font-family="Helvetica,sans-Serif" font-size="10.00">TMath.h</text>
</g>
<!-- Node16&#45;&gt;Node21 -->
<g id="edge24" class="edge"><title>Node16&#45;&gt;Node21</title>
<path fill="none" stroke="midnightblue" d="M576.506,-248.083C570.227,-240.377 560.984,-229.033 553.341,-219.653"/>
<polygon fill="midnightblue" stroke="midnightblue" points="555.932,-217.293 546.902,-211.751 550.506,-221.714 555.932,-217.293"/>
</g>
<!-- Node22 -->
<g id="node22" class="node"><title>Node22</title>
<polygon fill="none" stroke="#bfbfbf" points="919.272,-136.5 919.272,-155.5 990.272,-155.5 990.272,-136.5 919.272,-136.5"/>
<text text-anchor="middle" x="954.772" y="-143.5" font-family="Helvetica,sans-Serif" font-size="10.00">FairLogger.h</text>
</g>
<!-- Node16&#45;&gt;Node22 -->
<g id="edge27" class="edge"><title>Node16&#45;&gt;Node22</title>
<path fill="none" stroke="midnightblue" d="M670.539,-252.686C776.386,-246.519 943.685,-233.487 962.772,-212 973.952,-199.414 969.523,-179.643 963.801,-165.209"/>
<polygon fill="midnightblue" stroke="midnightblue" points="966.883,-163.526 959.611,-155.821 960.491,-166.379 966.883,-163.526"/>
</g>
<!-- Node16&#45;&gt;Node23 -->
<g id="edge28" class="edge"><title>Node16&#45;&gt;Node23</title>
<path fill="none" stroke="midnightblue" d="M670.305,-251.325C769.299,-244.326 936.137,-230.979 1078.77,-212 1192.77,-196.832 1325.26,-171.722 1396.69,-157.561"/>
<polygon fill="midnightblue" stroke="midnightblue" points="1397.65,-160.938 1406.78,-155.554 1396.29,-154.073 1397.65,-160.938"/>
</g>
<!-- Node23&#45;&gt;Node6 -->
<g id="edge33" class="edge"><title>Node23&#45;&gt;Node6</title>
<path fill="none" stroke="midnightblue" d="M1386.07,-139.388C1320.94,-132.82 1216.38,-120.197 1127.77,-100 1123.54,-99.0364 1119.15,-97.8673 1114.82,-96.6116"/>
<polygon fill="midnightblue" stroke="midnightblue" points="1115.54,-93.1695 1104.95,-93.5808 1113.48,-99.8613 1115.54,-93.1695"/>
</g>
<!-- Node23&#45;&gt;Node11 -->
<g id="edge32" class="edge"><title>Node23&#45;&gt;Node11</title>
<path fill="none" stroke="midnightblue" d="M1386.12,-140.343C1287.06,-132.621 1098.87,-116.385 1033.77,-100 1030.71,-99.2297 1027.57,-98.2588 1024.47,-97.1832"/>
<polygon fill="midnightblue" stroke="midnightblue" points="1025.47,-93.8176 1014.88,-93.5074 1022.96,-100.354 1025.47,-93.8176"/>
</g>
<!-- Node24 -->
<g id="node24" class="node"><title>Node24</title>
<polygon fill="none" stroke="#bfbfbf" points="1852.27,-74.5 1852.27,-93.5 2001.27,-93.5 2001.27,-74.5 1852.27,-74.5"/>
<text text-anchor="middle" x="1926.77" y="-81.5" font-family="Helvetica,sans-Serif" font-size="10.00">Math/GenVector/Rotation3D.h</text>
</g>
<!-- Node23&#45;&gt;Node24 -->
<g id="edge29" class="edge"><title>Node23&#45;&gt;Node24</title>
<path fill="none" stroke="midnightblue" d="M1511.37,-139.079C1589.22,-131.433 1726.11,-117.061 1842.77,-100 1852.24,-98.6158 1862.27,-96.9756 1871.98,-95.2966"/>
<polygon fill="midnightblue" stroke="midnightblue" points="1872.71,-98.7223 1881.96,-93.542 1871.5,-91.8283 1872.71,-98.7223"/>
</g>
<!-- Node25 -->
<g id="node25" class="node"><title>Node25</title>
<polygon fill="none" stroke="#bfbfbf" points="1136.77,-74.5 1136.77,-93.5 1292.77,-93.5 1292.77,-74.5 1136.77,-74.5"/>
<text text-anchor="middle" x="1214.77" y="-81.5" font-family="Helvetica,sans-Serif" font-size="10.00">Math/GenVector/Transform3D.h</text>
</g>
<!-- Node23&#45;&gt;Node25 -->
<g id="edge30" class="edge"><title>Node23&#45;&gt;Node25</title>
<path fill="none" stroke="midnightblue" d="M1415.25,-136.403C1373.89,-125.799 1303.5,-107.751 1258.09,-96.1067"/>
<polygon fill="midnightblue" stroke="midnightblue" points="1258.79,-92.6741 1248.24,-93.5806 1257.05,-99.4547 1258.79,-92.6741"/>
</g>
<!-- Node26 -->
<g id="node26" class="node"><title>Node26</title>
<polygon fill="none" stroke="#bfbfbf" points="1310.77,-74.5 1310.77,-93.5 1470.77,-93.5 1470.77,-74.5 1310.77,-74.5"/>
<text text-anchor="middle" x="1390.77" y="-81.5" font-family="Helvetica,sans-Serif" font-size="10.00">Math/GenVector/Translation3D.h</text>
</g>
<!-- Node23&#45;&gt;Node26 -->
<g id="edge31" class="edge"><title>Node23&#45;&gt;Node26</title>
<path fill="none" stroke="midnightblue" d="M1440.46,-136.403C1431.5,-127.136 1417.05,-112.183 1406.03,-100.788"/>
<polygon fill="midnightblue" stroke="midnightblue" points="1408.53,-98.3379 1399.07,-93.5806 1403.5,-103.203 1408.53,-98.3379"/>
</g>
<!-- Node27 -->
<g id="node27" class="node"><title>Node27</title>
<polygon fill="none" stroke="#bfbfbf" points="1489.27,-69 1489.27,-99 1640.27,-99 1640.27,-69 1489.27,-69"/>
<text text-anchor="start" x="1497.27" y="-87" font-family="Helvetica,sans-Serif" font-size="10.00">Math/GenVector/Displacement</text>
<text text-anchor="middle" x="1564.77" y="-76" font-family="Helvetica,sans-Serif" font-size="10.00">Vector3D.h</text>
</g>
<!-- Node23&#45;&gt;Node27 -->
<g id="edge34" class="edge"><title>Node23&#45;&gt;Node27</title>
<path fill="none" stroke="midnightblue" d="M1465.39,-136.403C1481.76,-127.936 1507.31,-114.72 1528.41,-103.81"/>
<polygon fill="midnightblue" stroke="midnightblue" points="1530.16,-106.844 1537.43,-99.1408 1526.94,-100.626 1530.16,-106.844"/>
</g>
<!-- Node28 -->
<g id="node28" class="node"><title>Node28</title>
<polygon fill="none" stroke="#bfbfbf" points="1658.77,-74.5 1658.77,-93.5 1834.77,-93.5 1834.77,-74.5 1658.77,-74.5"/>
<text text-anchor="middle" x="1746.77" y="-81.5" font-family="Helvetica,sans-Serif" font-size="10.00">Math/GenVector/PositionVector3D.h</text>
</g>
<!-- Node23&#45;&gt;Node28 -->
<g id="edge35" class="edge"><title>Node23&#45;&gt;Node28</title>
<path fill="none" stroke="midnightblue" d="M1491.15,-136.467C1544.66,-125.693 1636.7,-107.162 1694.51,-95.5223"/>
<polygon fill="midnightblue" stroke="midnightblue" points="1695.43,-98.9084 1704.54,-93.5034 1694.04,-92.0461 1695.43,-98.9084"/>
</g>
<!-- Node29 -->
<g id="node29" class="node"><title>Node29</title>
<g id="a_node29"><a xlink:href="../../d2/dd0/Cartesian2D_8h.html" target="_top" xlink:title="MathUtils/Cartesian2D.h">
<polygon fill="none" stroke="black" points="2167.27,-74.5 2167.27,-93.5 2292.27,-93.5 2292.27,-74.5 2167.27,-74.5"/>
<text text-anchor="middle" x="2229.77" y="-81.5" font-family="Helvetica,sans-Serif" font-size="10.00">MathUtils/Cartesian2D.h</text>
</a>
</g>
</g>
<!-- Node23&#45;&gt;Node29 -->
<g id="edge36" class="edge"><title>Node23&#45;&gt;Node29</title>
<path fill="none" stroke="midnightblue" d="M1511.71,-141.154C1625.55,-134.058 1873.22,-117.978 2081.77,-100 2106.31,-97.8846 2133.11,-95.2634 2157.08,-92.8069"/>
<polygon fill="midnightblue" stroke="midnightblue" points="2157.57,-96.2745 2167.16,-91.7662 2156.85,-89.3115 2157.57,-96.2745"/>
</g>
<!-- Node32 -->
<g id="node32" class="node"><title>Node32</title>
<polygon fill="none" stroke="#bfbfbf" points="2018.77,-74.5 2018.77,-93.5 2072.77,-93.5 2072.77,-74.5 2018.77,-74.5"/>
<text text-anchor="middle" x="2045.77" y="-81.5" font-family="Helvetica,sans-Serif" font-size="10.00">iostream</text>
</g>
<!-- Node23&#45;&gt;Node32 -->
<g id="edge39" class="edge"><title>Node23&#45;&gt;Node32</title>
<path fill="none" stroke="midnightblue" d="M1511.44,-142.454C1637.3,-136.935 1916.7,-122.521 2009.77,-100 2012.77,-99.2749 2015.84,-98.3333 2018.86,-97.275"/>
<polygon fill="midnightblue" stroke="midnightblue" points="2020.16,-100.523 2028.2,-93.6197 2017.61,-94.0045 2020.16,-100.523"/>
</g>
<!-- Node30 -->
<g id="node30" class="node"><title>Node30</title>
<polygon fill="none" stroke="#bfbfbf" points="2245.27,-1 2245.27,-31 2396.27,-31 2396.27,-1 2245.27,-1"/>
<text text-anchor="start" x="2253.27" y="-19" font-family="Helvetica,sans-Serif" font-size="10.00">Math/GenVector/Displacement</text>
<text text-anchor="middle" x="2320.77" y="-8" font-family="Helvetica,sans-Serif" font-size="10.00">Vector2D.h</text>
</g>
<!-- Node29&#45;&gt;Node30 -->
<g id="edge37" class="edge"><title>Node29&#45;&gt;Node30</title>
<path fill="none" stroke="midnightblue" d="M2241.67,-74.3717C2254.55,-65.0286 2275.55,-49.7966 2292.68,-37.375"/>
<polygon fill="midnightblue" stroke="midnightblue" points="2295.18,-39.8859 2301.22,-31.1815 2291.07,-34.2194 2295.18,-39.8859"/>
</g>
<!-- Node31 -->
<g id="node31" class="node"><title>Node31</title>
<polygon fill="none" stroke="#bfbfbf" points="2050.77,-6.5 2050.77,-25.5 2226.77,-25.5 2226.77,-6.5 2050.77,-6.5"/>
<text text-anchor="middle" x="2138.77" y="-13.5" font-family="Helvetica,sans-Serif" font-size="10.00">Math/GenVector/PositionVector2D.h</text>
</g>
<!-- Node29&#45;&gt;Node31 -->
<g id="edge38" class="edge"><title>Node29&#45;&gt;Node31</title>
<path fill="none" stroke="midnightblue" d="M2217.87,-74.3717C2202.89,-63.5015 2176.91,-44.6602 2158.83,-31.5474"/>
<polygon fill="midnightblue" stroke="midnightblue" points="2160.82,-28.6684 2150.67,-25.6305 2156.71,-34.3349 2160.82,-28.6684"/>
</g>
<!-- Node33&#45;&gt;Node5 -->
<g id="edge49" class="edge"><title>Node33&#45;&gt;Node5</title>
<path fill="none" stroke="midnightblue" d="M170.866,-248.324C155.133,-239.743 130.829,-226.486 112.563,-216.522"/>
<polygon fill="midnightblue" stroke="midnightblue" points="114.093,-213.37 103.638,-211.655 110.741,-219.516 114.093,-213.37"/>
</g>
<!-- Node34 -->
<g id="node34" class="node"><title>Node34</title>
<g id="a_node34"><a xlink:href="../../d4/d20/DetMatrixCache_8h.html" target="_top" xlink:title="DetectorsBase/DetMatrixCache.h">
<polygon fill="none" stroke="black" points="688.772,-192.5 688.772,-211.5 852.772,-211.5 852.772,-192.5 688.772,-192.5"/>
<text text-anchor="middle" x="770.772" y="-199.5" font-family="Helvetica,sans-Serif" font-size="10.00">DetectorsBase/DetMatrixCache.h</text>
</a>
</g>
</g>
<!-- Node33&#45;&gt;Node34 -->
<g id="edge41" class="edge"><title>Node33&#45;&gt;Node34</title>
<path fill="none" stroke="midnightblue" d="M263.643,-250.164C358.563,-241.683 525.254,-226.657 678.37,-212.128"/>
<polygon fill="midnightblue" stroke="midnightblue" points="678.81,-215.602 688.434,-211.171 678.148,-208.633 678.81,-215.602"/>
</g>
<!-- Node35 -->
<g id="node35" class="node"><title>Node35</title>
<polygon fill="none" stroke="#bfbfbf" points="126.272,-192.5 126.272,-211.5 195.272,-211.5 195.272,-192.5 126.272,-192.5"/>
<text text-anchor="middle" x="160.772" y="-199.5" font-family="Helvetica,sans-Serif" font-size="10.00">TObjArray.h</text>
</g>
<!-- Node33&#45;&gt;Node35 -->
<g id="edge48" class="edge"><title>Node33&#45;&gt;Node35</title>
<path fill="none" stroke="midnightblue" d="M182.478,-248.083C178.919,-240.691 173.749,-229.953 169.347,-220.811"/>
<polygon fill="midnightblue" stroke="midnightblue" points="172.477,-219.243 164.985,-211.751 166.17,-222.279 172.477,-219.243"/>
</g>
<!-- Node34&#45;&gt;Node2 -->
<g id="edge42" class="edge"><title>Node34&#45;&gt;Node2</title>
<path fill="none" stroke="midnightblue" d="M688.439,-192.784C685.514,-192.516 682.618,-192.253 679.772,-192 475.941,-173.848 230.627,-155.647 143.978,-149.33"/>
<polygon fill="midnightblue" stroke="midnightblue" points="144.206,-145.838 133.979,-148.603 143.698,-152.819 144.206,-145.838"/>
</g>
<!-- Node34&#45;&gt;Node4 -->
<g id="edge43" class="edge"><title>Node34&#45;&gt;Node4</title>
<path fill="none" stroke="midnightblue" d="M770.772,-192.125C770.772,-163.769 770.772,-74.9299 770.772,-35.8108"/>
<polygon fill="midnightblue" stroke="midnightblue" points="774.272,-35.7856 770.772,-25.7857 767.272,-35.7857 774.272,-35.7856"/>
</g>
<!-- Node34&#45;&gt;Node8 -->
<g id="edge45" class="edge"><title>Node34&#45;&gt;Node8</title>
<path fill="none" stroke="midnightblue" d="M750.014,-192.444C728.455,-183.557 694.508,-169.563 669.978,-159.451"/>
<polygon fill="midnightblue" stroke="midnightblue" points="671.011,-156.092 660.432,-155.516 668.343,-162.563 671.011,-156.092"/>
</g>
<!-- Node34&#45;&gt;Node11 -->
<g id="edge46" class="edge"><title>Node34&#45;&gt;Node11</title>
<path fill="none" stroke="midnightblue" d="M787.39,-192.47C826.409,-172.443 924.112,-122.294 970.947,-98.2553"/>
<polygon fill="midnightblue" stroke="midnightblue" points="972.831,-101.222 980.129,-93.5423 969.634,-94.9949 972.831,-101.222"/>
</g>
<!-- Node34&#45;&gt;Node22 -->
<g id="edge47" class="edge"><title>Node34&#45;&gt;Node22</title>
<path fill="none" stroke="midnightblue" d="M799.927,-192.444C831.285,-183.241 881.302,-168.562 915.968,-158.388"/>
<polygon fill="midnightblue" stroke="midnightblue" points="917.143,-161.691 925.753,-155.516 915.172,-154.974 917.143,-161.691"/>
</g>
<!-- Node34&#45;&gt;Node23 -->
<g id="edge44" class="edge"><title>Node34&#45;&gt;Node23</title>
<path fill="none" stroke="midnightblue" d="M853.104,-192.775C856.029,-192.509 858.925,-192.25 861.772,-192 1046.9,-175.751 1265.17,-159.883 1376.11,-152.052"/>
<polygon fill="midnightblue" stroke="midnightblue" points="1376.46,-155.537 1386.18,-151.342 1375.96,-148.554 1376.46,-155.537"/>
</g>
<!-- Node36&#45;&gt;Node2 -->
<g id="edge53" class="edge"><title>Node36&#45;&gt;Node2</title>
<path fill="none" stroke="midnightblue" d="M1317.06,-370.089C1166.83,-358.503 794.635,-325.987 487.772,-268 390.745,-249.665 366.526,-242.992 272.772,-212 225.307,-196.31 171.772,-173.669 139.951,-159.669"/>
<polygon fill="midnightblue" stroke="midnightblue" points="141.364,-156.467 130.804,-155.618 138.53,-162.868 141.364,-156.467"/>
</g>
<!-- Node37 -->
<g id="node37" class="node"><title>Node37</title>
<g id="a_node37"><a xlink:href="../../d7/d65/Detectors_2Base_2include_2DetectorsBase_2Track_8h.html" target="_top" xlink:title="DetectorsBase/Track.h">
<polygon fill="none" stroke="black" points="1600.77,-304.5 1600.77,-323.5 1718.77,-323.5 1718.77,-304.5 1600.77,-304.5"/>
<text text-anchor="middle" x="1659.77" y="-311.5" font-family="Helvetica,sans-Serif" font-size="10.00">DetectorsBase/Track.h</text>
</a>
</g>
</g>
<!-- Node36&#45;&gt;Node37 -->
<g id="edge54" class="edge"><title>Node36&#45;&gt;Node37</title>
<path fill="none" stroke="midnightblue" d="M1449.25,-360.933C1498.69,-350.145 1565.88,-335.486 1610.93,-325.656"/>
<polygon fill="midnightblue" stroke="midnightblue" points="1611.73,-329.064 1620.76,-323.513 1610.24,-322.225 1611.73,-329.064"/>
</g>
<!-- Node37&#45;&gt;Node4 -->
<g id="edge57" class="edge"><title>Node37&#45;&gt;Node4</title>
<path fill="none" stroke="midnightblue" d="M1600.7,-311.338C1526.74,-308.009 1396.78,-298.012 1289.77,-268 1153.03,-229.649 1133.73,-180.225 998.772,-136 924.967,-111.814 892.383,-143.098 827.772,-100 803.734,-83.9663 786.975,-54.0353 778.115,-34.8377"/>
<polygon fill="midnightblue" stroke="midnightblue" points="781.32,-33.431 774.108,-25.67 774.906,-36.2347 781.32,-33.431"/>
</g>
<!-- Node37&#45;&gt;Node11 -->
<g id="edge55" class="edge"><title>Node37&#45;&gt;Node11</title>
<path fill="none" stroke="midnightblue" d="M1623.12,-304.444C1590.72,-296.44 1542.44,-283.424 1501.77,-268 1375.01,-219.925 1355.63,-178.127 1226.77,-136 1143.83,-108.886 1117.51,-124.515 1033.77,-100 1030.97,-99.1785 1028.08,-98.2203 1025.22,-97.1929"/>
<polygon fill="midnightblue" stroke="midnightblue" points="1026.31,-93.8621 1015.72,-93.5309 1023.79,-100.394 1026.31,-93.8621"/>
</g>
<!-- Node37&#45;&gt;Node12 -->
<g id="edge73" class="edge"><title>Node37&#45;&gt;Node12</title>
<path fill="none" stroke="midnightblue" d="M1600.73,-309.961C1536.72,-305.426 1432.15,-294.376 1345.77,-268 1216.87,-228.641 1198.72,-183.977 1072.77,-136 1028.89,-119.282 977.137,-105.109 940.598,-95.9791"/>
<polygon fill="midnightblue" stroke="midnightblue" points="941.262,-92.538 930.714,-93.5399 939.584,-99.3341 941.262,-92.538"/>
</g>
<!-- Node37&#45;&gt;Node13 -->
<g id="edge72" class="edge"><title>Node37&#45;&gt;Node13</title>
<path fill="none" stroke="midnightblue" d="M1667.18,-304.394C1679.19,-290.888 1704.13,-264.549 1729.77,-248 1877.4,-152.708 2202.5,-195.665 2081.77,-68 2074.64,-60.4557 1468.87,-31.1566 1248.11,-20.7187"/>
<polygon fill="midnightblue" stroke="midnightblue" points="1248.05,-17.2119 1237.9,-20.2361 1247.72,-24.2041 1248.05,-17.2119"/>
</g>
<!-- Node37&#45;&gt;Node14 -->
<g id="edge59" class="edge"><title>Node37&#45;&gt;Node14</title>
<path fill="none" stroke="midnightblue" d="M1718.99,-311.744C1847.14,-307.42 2138.77,-288.218 2138.77,-203 2138.77,-203 2138.77,-203 2138.77,-145 2138.77,-109.154 2142.65,-90.5279 2114.77,-68 2073.43,-34.5979 1698.37,-21.1782 1585.05,-17.8646"/>
<polygon fill="midnightblue" stroke="midnightblue" points="1585.02,-14.3623 1574.92,-17.5752 1584.82,-21.3595 1585.02,-14.3623"/>
</g>
<!-- Node37&#45;&gt;Node23 -->
<g id="edge74" class="edge"><title>Node37&#45;&gt;Node23</title>
<path fill="none" stroke="midnightblue" d="M1609.07,-304.483C1582.18,-297.988 1549.83,-286.83 1525.77,-268 1490.44,-240.351 1466.7,-191.684 1455.74,-165.28"/>
<polygon fill="midnightblue" stroke="midnightblue" points="1458.89,-163.74 1451.94,-155.748 1452.39,-166.333 1458.89,-163.74"/>
</g>
<!-- Node37&#45;&gt;Node32 -->
<g id="edge61" class="edge"><title>Node37&#45;&gt;Node32</title>
<path fill="none" stroke="midnightblue" d="M1718.78,-309.814C1817.53,-303.9 2007.58,-289.812 2028.77,-268 2072.1,-223.412 2059.32,-140.687 2050.74,-103.707"/>
<polygon fill="midnightblue" stroke="midnightblue" points="2054.09,-102.655 2048.28,-93.7924 2047.29,-104.341 2054.09,-102.655"/>
</g>
<!-- Node38 -->
<g id="node38" class="node"><title>Node38</title>
<polygon fill="none" stroke="#bfbfbf" points="1738.77,-248.5 1738.77,-267.5 1794.77,-267.5 1794.77,-248.5 1738.77,-248.5"/>
<text text-anchor="middle" x="1766.77" y="-255.5" font-family="Helvetica,sans-Serif" font-size="10.00">algorithm</text>
</g>
<!-- Node37&#45;&gt;Node38 -->
<g id="edge56" class="edge"><title>Node37&#45;&gt;Node38</title>
<path fill="none" stroke="midnightblue" d="M1676.96,-304.324C1694.12,-295.664 1720.72,-282.242 1740.52,-272.249"/>
<polygon fill="midnightblue" stroke="midnightblue" points="1742.27,-275.285 1749.62,-267.655 1739.12,-269.035 1742.27,-275.285"/>
</g>
<!-- Node39 -->
<g id="node39" class="node"><title>Node39</title>
<polygon fill="none" stroke="#bfbfbf" points="1813.27,-248.5 1813.27,-267.5 1854.27,-267.5 1854.27,-248.5 1813.27,-248.5"/>
<text text-anchor="middle" x="1833.77" y="-255.5" font-family="Helvetica,sans-Serif" font-size="10.00">cfloat</text>
</g>
<!-- Node37&#45;&gt;Node39 -->
<g id="edge58" class="edge"><title>Node37&#45;&gt;Node39</title>
<path fill="none" stroke="midnightblue" d="M1687.34,-304.444C1718.9,-294.649 1770.45,-278.651 1803.21,-268.484"/>
<polygon fill="midnightblue" stroke="midnightblue" points="1804.63,-271.709 1813.14,-265.403 1802.55,-265.024 1804.63,-271.709"/>
</g>
<!-- Node40 -->
<g id="node40" class="node"><title>Node40</title>
<polygon fill="none" stroke="#bfbfbf" points="1872.77,-248.5 1872.77,-267.5 1918.77,-267.5 1918.77,-248.5 1872.77,-248.5"/>
<text text-anchor="middle" x="1895.77" y="-255.5" font-family="Helvetica,sans-Serif" font-size="10.00">cstring</text>
</g>
<!-- Node37&#45;&gt;Node40 -->
<g id="edge60" class="edge"><title>Node37&#45;&gt;Node40</title>
<path fill="none" stroke="midnightblue" d="M1701.12,-304.443C1742.24,-295.791 1807.05,-281.766 1862.77,-268 1862.87,-267.975 1862.97,-267.95 1863.07,-267.925"/>
<polygon fill="midnightblue" stroke="midnightblue" points="1863.92,-271.322 1872.73,-265.436 1862.17,-264.543 1863.92,-271.322"/>
</g>
<!-- Node41 -->
<g id="node41" class="node"><title>Node41</title>
<polygon fill="none" stroke="#bfbfbf" points="1937.27,-248.5 1937.27,-267.5 2020.27,-267.5 2020.27,-248.5 1937.27,-248.5"/>
<text text-anchor="middle" x="1978.77" y="-255.5" font-family="Helvetica,sans-Serif" font-size="10.00">Math/SMatrix.h</text>
</g>
<!-- Node37&#45;&gt;Node41 -->
<g id="edge62" class="edge"><title>Node37&#45;&gt;Node41</title>
<path fill="none" stroke="midnightblue" d="M1711.17,-304.5C1763.03,-295.895 1845.68,-282.1 1927.11,-268.103"/>
<polygon fill="midnightblue" stroke="midnightblue" points="1927.77,-271.541 1937.03,-266.396 1926.58,-264.642 1927.77,-271.541"/>
</g>
<!-- Node42 -->
<g id="node42" class="node"><title>Node42</title>
<polygon fill="none" stroke="#bfbfbf" points="1355.27,-248.5 1355.27,-267.5 1440.27,-267.5 1440.27,-248.5 1355.27,-248.5"/>
<text text-anchor="middle" x="1397.77" y="-255.5" font-family="Helvetica,sans-Serif" font-size="10.00">Math/SVector.h</text>
</g>
<!-- Node37&#45;&gt;Node42 -->
<g id="edge63" class="edge"><title>Node37&#45;&gt;Node42</title>
<path fill="none" stroke="midnightblue" d="M1618.26,-304.444C1572.36,-294.984 1498.39,-279.738 1448.95,-269.547"/>
<polygon fill="midnightblue" stroke="midnightblue" points="1449.59,-266.107 1439.09,-267.516 1448.18,-272.963 1449.59,-266.107"/>
</g>
<!-- Node43 -->
<g id="node43" class="node"><title>Node43</title>
<g id="a_node43"><a xlink:href="../../d4/de2/BaseCluster_8h.html" target="_top" xlink:title="DetectorsBase/BaseCluster.h">
<polygon fill="none" stroke="black" points="1535.27,-248.5 1535.27,-267.5 1682.27,-267.5 1682.27,-248.5 1535.27,-248.5"/>
<text text-anchor="middle" x="1608.77" y="-255.5" font-family="Helvetica,sans-Serif" font-size="10.00">DetectorsBase/BaseCluster.h</text>
</a>
</g>
</g>
<!-- Node37&#45;&gt;Node43 -->
<g id="edge64" class="edge"><title>Node37&#45;&gt;Node43</title>
<path fill="none" stroke="midnightblue" d="M1651.35,-304.083C1643.92,-296.22 1632.92,-284.569 1623.96,-275.081"/>
<polygon fill="midnightblue" stroke="midnightblue" points="1626.45,-272.618 1617.04,-267.751 1621.36,-277.424 1626.45,-272.618"/>
</g>
<!-- Node43&#45;&gt;Node7 -->
<g id="edge65" class="edge"><title>Node43&#45;&gt;Node7</title>
<path fill="none" stroke="midnightblue" d="M1535.1,-249.996C1413.44,-238.429 1174.62,-215.725 1080.37,-206.765"/>
<polygon fill="midnightblue" stroke="midnightblue" points="1080.68,-203.279 1070.4,-205.817 1080.02,-210.247 1080.68,-203.279"/>
</g>
<!-- Node43&#45;&gt;Node23 -->
<g id="edge70" class="edge"><title>Node43&#45;&gt;Node23</title>
<path fill="none" stroke="midnightblue" d="M1597.58,-248.3C1581.06,-235.553 1549.04,-211.231 1520.77,-192 1504.78,-181.117 1486.26,-169.565 1472.01,-160.891"/>
<polygon fill="midnightblue" stroke="midnightblue" points="1473.69,-157.822 1463.33,-155.642 1470.07,-163.812 1473.69,-157.822"/>
</g>
<!-- Node43&#45;&gt;Node32 -->
<g id="edge69" class="edge"><title>Node43&#45;&gt;Node32</title>
<path fill="none" stroke="midnightblue" d="M1634.83,-248.48C1661.19,-239.743 1703.04,-225.554 1738.77,-212 1842.09,-172.808 1962.7,-121.152 2016.86,-97.6346"/>
<polygon fill="midnightblue" stroke="midnightblue" points="2018.41,-100.779 2026.18,-93.5803 2015.61,-94.3596 2018.41,-100.779"/>
</g>
<!-- Node43&#45;&gt;Node34 -->
<g id="edge71" class="edge"><title>Node43&#45;&gt;Node34</title>
<path fill="none" stroke="midnightblue" d="M1535.08,-252.722C1366.44,-242.911 960.128,-219.139 863.132,-212.047"/>
<polygon fill="midnightblue" stroke="midnightblue" points="863.335,-208.553 853.099,-211.285 862.805,-215.533 863.335,-208.553"/>
</g>
<!-- Node44 -->
<g id="node44" class="node"><title>Node44</title>
<polygon fill="none" stroke="#bfbfbf" points="1573.27,-192.5 1573.27,-211.5 1614.27,-211.5 1614.27,-192.5 1573.27,-192.5"/>
<text text-anchor="middle" x="1593.77" y="-199.5" font-family="Helvetica,sans-Serif" font-size="10.00">bitset</text>
</g>
<!-- Node43&#45;&gt;Node44 -->
<g id="edge66" class="edge"><title>Node43&#45;&gt;Node44</title>
<path fill="none" stroke="midnightblue" d="M1606.29,-248.083C1604.29,-240.849 1601.39,-230.409 1598.88,-221.397"/>
<polygon fill="midnightblue" stroke="midnightblue" points="1602.25,-220.449 1596.2,-211.751 1595.51,-222.323 1602.25,-220.449"/>
</g>
<!-- Node45 -->
<g id="node45" class="node"><title>Node45</title>
<polygon fill="none" stroke="#bfbfbf" points="1632.77,-192.5 1632.77,-211.5 1682.77,-211.5 1682.77,-192.5 1632.77,-192.5"/>
<text text-anchor="middle" x="1657.77" y="-199.5" font-family="Helvetica,sans-Serif" font-size="10.00">iomanip</text>
</g>
<!-- Node43&#45;&gt;Node45 -->
<g id="edge67" class="edge"><title>Node43&#45;&gt;Node45</title>
<path fill="none" stroke="midnightblue" d="M1616.86,-248.083C1623.93,-240.298 1634.36,-228.801 1642.92,-219.367"/>
<polygon fill="midnightblue" stroke="midnightblue" points="1645.7,-221.509 1649.83,-211.751 1640.52,-216.805 1645.7,-221.509"/>
</g>
<!-- Node46 -->
<g id="node46" class="node"><title>Node46</title>
<polygon fill="none" stroke="#bfbfbf" points="1701.27,-192.5 1701.27,-211.5 1730.27,-211.5 1730.27,-192.5 1701.27,-192.5"/>
<text text-anchor="middle" x="1715.77" y="-199.5" font-family="Helvetica,sans-Serif" font-size="10.00">ios</text>
</g>
<!-- Node43&#45;&gt;Node46 -->
<g id="edge68" class="edge"><title>Node43&#45;&gt;Node46</title>
<path fill="none" stroke="midnightblue" d="M1625.96,-248.324C1643.83,-239.305 1671.94,-225.122 1691.94,-215.025"/>
<polygon fill="midnightblue" stroke="midnightblue" points="1693.68,-218.068 1701.03,-210.438 1690.53,-211.819 1693.68,-218.068"/>
</g>
</g>
</svg>
