<?xml version="1.0" encoding="UTF-8" standalone="no"?>
<!DOCTYPE svg PUBLIC "-//W3C//DTD SVG 1.1//EN"
 "http://www.w3.org/Graphics/SVG/1.1/DTD/svg11.dtd">
<!-- Generated by graphviz version 2.36.0 (20140111.2315)
 -->
<!-- Title: TMessage Pages: 1 -->
<svg width="848pt" height="172pt"
 viewBox="0.00 0.00 848.00 172.00" xmlns="http://www.w3.org/2000/svg" xmlns:xlink="http://www.w3.org/1999/xlink">
<g id="graph0" class="graph" transform="scale(1 1) rotate(0) translate(4 168)">
<title>TMessage</title>
<!-- Node1 -->
<g id="node1" class="node"><title>Node1</title>
<polygon fill="#bfbfbf" stroke="black" points="417,-106.5 417,-163.5 479,-163.5 479,-106.5 417,-106.5"/>
<text text-anchor="middle" x="448" y="-151.5" font-family="Helvetica,sans-Serif" font-size="10.00">TMessage</text>
<polyline fill="none" stroke="black" points="417,-144.5 479,-144.5 "/>
<text text-anchor="middle" x="448" y="-132.5" font-family="Helvetica,sans-Serif" font-size="10.00"> </text>
<polyline fill="none" stroke="black" points="417,-125.5 479,-125.5 "/>
<text text-anchor="middle" x="448" y="-113.5" font-family="Helvetica,sans-Serif" font-size="10.00"> </text>
</g>
<!-- Node2 -->
<g id="node2" class="node"><title>Node2</title>
<g id="a_node2"><a xlink:href="../../d0/d4b/classo2_1_1framework_1_1FairTMessage.html" target="_top" xlink:title="{o2::framework::FairTMessage\n||+ FairTMessage()\l}">
<polygon fill="none" stroke="black" points="-0.5,-6.5 -0.5,-63.5 146.5,-63.5 146.5,-6.5 -0.5,-6.5"/>
<text text-anchor="middle" x="73" y="-51.5" font-family="Helvetica,sans-Serif" font-size="10.00">o2::framework::FairTMessage</text>
<polyline fill="none" stroke="black" points="-0.5,-44.5 146.5,-44.5 "/>
<text text-anchor="middle" x="73" y="-32.5" font-family="Helvetica,sans-Serif" font-size="10.00"> </text>
<polyline fill="none" stroke="black" points="-0.5,-25.5 146.5,-25.5 "/>
<text text-anchor="start" x="7.5" y="-13.5" font-family="Helvetica,sans-Serif" font-size="10.00">+ FairTMessage()</text>
</a>
</g>
</g>
<!-- Node1&#45;&gt;Node2 -->
<g id="edge1" class="edge"><title>Node1&#45;&gt;Node2</title>
<path fill="none" stroke="midnightblue" d="M406.62,-127.358C349.318,-117.62 242.924,-97.5893 155,-70 148.971,-68.1082 142.77,-65.9503 136.607,-63.6601"/>
<polygon fill="none" stroke="midnightblue" points="406.291,-130.851 416.733,-129.055 407.45,-123.948 406.291,-130.851"/>
</g>
<!-- Node3 -->
<g id="node3" class="node"><title>Node3</title>
<g id="a_node3"><a xlink:href="../../da/d50/classo2_1_1MFT_1_1MergerTMessage.html" target="_top" xlink:title="{o2::MFT::MergerTMessage\n||+ MergerTMessage()\l}">
<polygon fill="none" stroke="black" points="164.5,-6.5 164.5,-63.5 299.5,-63.5 299.5,-6.5 164.5,-6.5"/>
<text text-anchor="middle" x="232" y="-51.5" font-family="Helvetica,sans-Serif" font-size="10.00">o2::MFT::MergerTMessage</text>
<polyline fill="none" stroke="black" points="164.5,-44.5 299.5,-44.5 "/>
<text text-anchor="middle" x="232" y="-32.5" font-family="Helvetica,sans-Serif" font-size="10.00"> </text>
<polyline fill="none" stroke="black" points="164.5,-25.5 299.5,-25.5 "/>
<text text-anchor="start" x="172.5" y="-13.5" font-family="Helvetica,sans-Serif" font-size="10.00">+ MergerTMessage()</text>
</a>
</g>
</g>
<!-- Node1&#45;&gt;Node3 -->
<g id="edge2" class="edge"><title>Node1&#45;&gt;Node3</title>
<path fill="none" stroke="midnightblue" d="M407.453,-115.604C375.201,-100.971 329.563,-80.2649 292.918,-63.6389"/>
<polygon fill="none" stroke="midnightblue" points="406.039,-118.806 416.592,-119.75 408.931,-112.431 406.039,-118.806"/>
</g>
<!-- Node4 -->
<g id="node4" class="node"><title>Node4</title>
<g id="a_node4"><a xlink:href="../../d0/dcf/classo2_1_1MFT_1_1SinkTMessage.html" target="_top" xlink:title="{o2::MFT::SinkTMessage\n||+ SinkTMessage()\l}">
<polygon fill="none" stroke="black" points="317.5,-6.5 317.5,-63.5 442.5,-63.5 442.5,-6.5 317.5,-6.5"/>
<text text-anchor="middle" x="380" y="-51.5" font-family="Helvetica,sans-Serif" font-size="10.00">o2::MFT::SinkTMessage</text>
<polyline fill="none" stroke="black" points="317.5,-44.5 442.5,-44.5 "/>
<text text-anchor="middle" x="380" y="-32.5" font-family="Helvetica,sans-Serif" font-size="10.00"> </text>
<polyline fill="none" stroke="black" points="317.5,-25.5 442.5,-25.5 "/>
<text text-anchor="start" x="325.5" y="-13.5" font-family="Helvetica,sans-Serif" font-size="10.00">+ SinkTMessage()</text>
</a>
</g>
</g>
<!-- Node1&#45;&gt;Node4 -->
<g id="edge3" class="edge"><title>Node1&#45;&gt;Node4</title>
<path fill="none" stroke="midnightblue" d="M423.031,-98.0154C415.169,-86.6846 406.612,-74.3527 399.215,-63.692"/>
<polygon fill="none" stroke="midnightblue" points="420.301,-100.22 428.877,-106.441 426.052,-96.2295 420.301,-100.22"/>
</g>
<!-- Node5 -->
<g id="node5" class="node"><title>Node5</title>
<g id="a_node5"><a xlink:href="../../d9/db2/classo2_1_1MFT_1_1TMessage2.html" target="_top" xlink:title="{o2::MFT::TMessage2\n||+ TMessage2()\l}">
<polygon fill="none" stroke="black" points="461,-6.5 461,-63.5 571,-63.5 571,-6.5 461,-6.5"/>
<text text-anchor="middle" x="516" y="-51.5" font-family="Helvetica,sans-Serif" font-size="10.00">o2::MFT::TMessage2</text>
<polyline fill="none" stroke="black" points="461,-44.5 571,-44.5 "/>
<text text-anchor="middle" x="516" y="-32.5" font-family="Helvetica,sans-Serif" font-size="10.00"> </text>
<polyline fill="none" stroke="black" points="461,-25.5 571,-25.5 "/>
<text text-anchor="start" x="469" y="-13.5" font-family="Helvetica,sans-Serif" font-size="10.00">+ TMessage2()</text>
</a>
</g>
</g>
<!-- Node1&#45;&gt;Node5 -->
<g id="edge4" class="edge"><title>Node1&#45;&gt;Node5</title>
<path fill="none" stroke="midnightblue" d="M472.969,-98.0154C480.831,-86.6846 489.388,-74.3527 496.785,-63.692"/>
<polygon fill="none" stroke="midnightblue" points="469.948,-96.2295 467.123,-106.441 475.699,-100.22 469.948,-96.2295"/>
</g>
<!-- Node6 -->
<g id="node6" class="node"><title>Node6</title>
<g id="a_node6"><a xlink:href="../../d3/d37/classo2_1_1qc_1_1TMessageWrapper.html" target="_top" xlink:title="{o2::qc::TMessageWrapper\n||+ TMessageWrapper()\l+ ~TMessageWrapper()\l}">
<polygon fill="none" stroke="black" points="589,-1 589,-69 721,-69 721,-1 589,-1"/>
<text text-anchor="middle" x="655" y="-57" font-family="Helvetica,sans-Serif" font-size="10.00">o2::qc::TMessageWrapper</text>
<polyline fill="none" stroke="black" points="589,-50 721,-50 "/>
<text text-anchor="middle" x="655" y="-38" font-family="Helvetica,sans-Serif" font-size="10.00"> </text>
<polyline fill="none" stroke="black" points="589,-31 721,-31 "/>
<text text-anchor="start" x="597" y="-19" font-family="Helvetica,sans-Serif" font-size="10.00">+ TMessageWrapper()</text>
<text text-anchor="start" x="597" y="-8" font-family="Helvetica,sans-Serif" font-size="10.00">+ ~TMessageWrapper()</text>
</a>
</g>
</g>
<!-- Node1&#45;&gt;Node6 -->
<g id="edge5" class="edge"><title>Node1&#45;&gt;Node6</title>
<path fill="none" stroke="midnightblue" d="M488.7,-114.732C517.233,-101.223 556.005,-82.867 588.935,-67.2773"/>
<polygon fill="none" stroke="midnightblue" points="486.979,-111.673 479.439,-119.116 489.975,-118 486.979,-111.673"/>
</g>
<!-- Node7 -->
<g id="node7" class="node"><title>Node7</title>
<g id="a_node7"><a xlink:href="../../de/dd8/classWrapTMessage.html" target="_top" xlink:title="{WrapTMessage\n||+ WrapTMessage()\l}">
<polygon fill="none" stroke="black" points="739.5,-6.5 739.5,-63.5 840.5,-63.5 840.5,-6.5 739.5,-6.5"/>
<text text-anchor="middle" x="790" y="-51.5" font-family="Helvetica,sans-Serif" font-size="10.00">WrapTMessage</text>
<polyline fill="none" stroke="black" points="739.5,-44.5 840.5,-44.5 "/>
<text text-anchor="middle" x="790" y="-32.5" font-family="Helvetica,sans-Serif" font-size="10.00"> </text>
<polyline fill="none" stroke="black" points="739.5,-25.5 840.5,-25.5 "/>
<text text-anchor="start" x="747.5" y="-13.5" font-family="Helvetica,sans-Serif" font-size="10.00">+ WrapTMessage()</text>
</a>
</g>
</g>
<!-- Node1&#45;&gt;Node7 -->
<g id="edge6" class="edge"><title>Node1&#45;&gt;Node7</title>
<path fill="none" stroke="midnightblue" d="M489.573,-128.456C545.587,-120.12 647.752,-101.84 730,-70 734.801,-68.1414 739.682,-65.9478 744.481,-63.5844"/>
<polygon fill="none" stroke="midnightblue" points="488.728,-125.042 479.335,-129.945 489.735,-131.969 488.728,-125.042"/>
</g>
</g>
</svg>
