<?xml version="1.0" encoding="UTF-8" standalone="no"?>
<!DOCTYPE svg PUBLIC "-//W3C//DTD SVG 1.1//EN"
 "http://www.w3.org/Graphics/SVG/1.1/DTD/svg11.dtd">
<!-- Generated by graphviz version 2.36.0 (20140111.2315)
 -->
<!-- Title: /home/travis/build/AliceO2Group/AliceO2/Framework/Core/include/Framework/DataAllocator.h Pages: 1 -->
<!--zoomable 286 -->
<svg id="main" version="1.1" xmlns="http://www.w3.org/2000/svg" xmlns:xlink="http://www.w3.org/1999/xlink" xml:space="preserve" onload="init(evt)">
<style type="text/css"><![CDATA[
.edge:hover path { stroke: red; }
.edge:hover polygon { stroke: red; fill: red; }
]]></style>
<script type="text/javascript"><![CDATA[
var edges = document.getElementsByTagName('g');
if (edges && edges.length) {
  for (var i=0;i<edges.length;i++) {
    if (edges[i].id.substr(0,4)=='edge') {
      edges[i].setAttribute('class','edge');
    }
  }
}
]]></script>
        <defs>
                <circle id="rim" cx="0" cy="0" r="7"/>
                <circle id="rim2" cx="0" cy="0" r="3.5"/>
                <g id="zoomPlus">
                        <use xlink:href="#rim" fill="#404040">
                                <set attributeName="fill" to="#808080" begin="zoomplus.mouseover" end="zoomplus.mouseout"/>
                        </use>
                        <path d="M-4,0h8M0,-4v8" fill="none" stroke="white" stroke-width="1.5" pointer-events="none"/>
                </g>
                <g id="zoomMin">
                        <use xlink:href="#rim" fill="#404040">
                                <set attributeName="fill" to="#808080" begin="zoomminus.mouseover" end="zoomminus.mouseout"/>
                        </use>
                        <path d="M-4,0h8" fill="none" stroke="white" stroke-width="1.5" pointer-events="none"/>
                </g>
                <g id="dirArrow">
                        <path fill="none" stroke="white" stroke-width="1.5" d="M0,-3.0v7 M-2.5,-0.5L0,-3.0L2.5,-0.5"/>
                </g>
               <g id="resetDef">
                       <use xlink:href="#rim2" fill="#404040">
                               <set attributeName="fill" to="#808080" begin="reset.mouseover" end="reset.mouseout"/>
                       </use>
               </g>
        </defs>

<script type="text/javascript">
var viewWidth = 1613;
var viewHeight = 286;
var sectionId = 'dynsection-0';
</script>
<script xlink:href="../../svgpan.js"/>
<svg id="graph" class="graph">
<g id="viewport">
<title>/home/travis/build/AliceO2Group/AliceO2/Framework/Core/include/Framework/DataAllocator.h</title>
<!-- Node1 -->
<g id="node1" class="node"><title>Node1</title>
<polygon fill="#bfbfbf" stroke="black" points="817.5,-225 817.5,-277 956.5,-277 956.5,-225 817.5,-225"/>
<text text-anchor="start" x="825.5" y="-265" font-family="Helvetica,sans-Serif" font-size="10.00">/home/travis/build</text>
<text text-anchor="start" x="825.5" y="-254" font-family="Helvetica,sans-Serif" font-size="10.00">/AliceO2Group/AliceO2</text>
<text text-anchor="start" x="825.5" y="-243" font-family="Helvetica,sans-Serif" font-size="10.00">/Framework/Core/include</text>
<text text-anchor="middle" x="887" y="-232" font-family="Helvetica,sans-Serif" font-size="10.00">/Framework/DataAllocator.h</text>
</g>
<!-- Node2 -->
<g id="node2" class="node"><title>Node2</title>
<polygon fill="none" stroke="#bfbfbf" points="0,-168.5 0,-187.5 118,-187.5 118,-168.5 0,-168.5"/>
<text text-anchor="middle" x="59" y="-175.5" font-family="Helvetica,sans-Serif" font-size="10.00">fairmq/FairMQDevice.h</text>
</g>
<!-- Node1&#45;&gt;Node2 -->
<g id="edge1" class="edge"><title>Node1&#45;&gt;Node2</title>
<path fill="none" stroke="midnightblue" d="M817.432,-245.239C684.232,-235.912 384.011,-213.872 132,-188 130.889,-187.886 129.768,-187.769 128.64,-187.65"/>
<polygon fill="midnightblue" stroke="midnightblue" points="128.661,-184.131 118.339,-186.521 127.898,-191.09 128.661,-184.131"/>
</g>
<!-- Node3 -->
<g id="node3" class="node"><title>Node3</title>
<g id="a_node3"><a xlink:href="../../dc/dcd/DataHeader_8h.html" target="_top" xlink:title="Headers/DataHeader.h">
<polygon fill="none" stroke="black" points="247.5,-56.5 247.5,-75.5 364.5,-75.5 364.5,-56.5 247.5,-56.5"/>
<text text-anchor="middle" x="306" y="-63.5" font-family="Helvetica,sans-Serif" font-size="10.00">Headers/DataHeader.h</text>
</a>
</g>
</g>
<!-- Node1&#45;&gt;Node3 -->
<g id="edge2" class="edge"><title>Node1&#45;&gt;Node3</title>
<path fill="none" stroke="midnightblue" d="M817.277,-248.385C671.467,-244.199 339.206,-230.199 235,-188 192.436,-170.763 137.911,-149.081 165,-112 181.74,-89.0857 210.277,-77.5671 237.318,-71.8764"/>
<polygon fill="midnightblue" stroke="midnightblue" points="238,-75.3096 247.188,-70.0333 236.715,-68.4285 238,-75.3096"/>
</g>
<!-- Node9 -->
<g id="node9" class="node"><title>Node9</title>
<g id="a_node9"><a xlink:href="../../d6/df4/OutputRoute_8h.html" target="_top" xlink:title="Framework/OutputRoute.h">
<polygon fill="none" stroke="black" points="244,-168.5 244,-187.5 376,-187.5 376,-168.5 244,-168.5"/>
<text text-anchor="middle" x="310" y="-175.5" font-family="Helvetica,sans-Serif" font-size="10.00">Framework/OutputRoute.h</text>
</a>
</g>
</g>
<!-- Node1&#45;&gt;Node9 -->
<g id="edge8" class="edge"><title>Node1&#45;&gt;Node9</title>
<path fill="none" stroke="midnightblue" d="M817.4,-241.436C708.584,-228.046 498.974,-202.253 386.221,-188.379"/>
<polygon fill="midnightblue" stroke="midnightblue" points="386.634,-184.904 376.282,-187.156 385.779,-191.851 386.634,-184.904"/>
</g>
<!-- Node12 -->
<g id="node12" class="node"><title>Node12</title>
<polygon fill="none" stroke="#bfbfbf" points="388.5,-112.5 388.5,-131.5 429.5,-131.5 429.5,-112.5 388.5,-112.5"/>
<text text-anchor="middle" x="409" y="-119.5" font-family="Helvetica,sans-Serif" font-size="10.00">string</text>
</g>
<!-- Node1&#45;&gt;Node12 -->
<g id="edge34" class="edge"><title>Node1&#45;&gt;Node12</title>
<path fill="none" stroke="midnightblue" d="M817.365,-249.827C703.055,-248.08 482.625,-238.1 426,-188 413.052,-176.544 409.398,-156.564 408.617,-141.771"/>
<polygon fill="midnightblue" stroke="midnightblue" points="412.116,-141.646 408.473,-131.697 405.117,-141.746 412.116,-141.646"/>
</g>
<!-- Node13 -->
<g id="node13" class="node"><title>Node13</title>
<g id="a_node13"><a xlink:href="../../d7/d31/DataChunk_8h.html" target="_top" xlink:title="Framework/DataChunk.h">
<polygon fill="none" stroke="black" points="1042,-168.5 1042,-187.5 1168,-187.5 1168,-168.5 1042,-168.5"/>
<text text-anchor="middle" x="1105" y="-175.5" font-family="Helvetica,sans-Serif" font-size="10.00">Framework/DataChunk.h</text>
</a>
</g>
</g>
<!-- Node1&#45;&gt;Node13 -->
<g id="edge13" class="edge"><title>Node1&#45;&gt;Node13</title>
<path fill="none" stroke="midnightblue" d="M956.576,-227.34C993.968,-215.162 1038.51,-200.654 1068.98,-190.73"/>
<polygon fill="midnightblue" stroke="midnightblue" points="1070.32,-193.975 1078.75,-187.55 1068.15,-187.319 1070.32,-193.975"/>
</g>
<!-- Node14 -->
<g id="node14" class="node"><title>Node14</title>
<g id="a_node14"><a xlink:href="../../dc/dc4/MessageContext_8h.html" target="_top" xlink:title="Framework/MessageContext.h">
<polygon fill="none" stroke="black" points="434.5,-168.5 434.5,-187.5 585.5,-187.5 585.5,-168.5 434.5,-168.5"/>
<text text-anchor="middle" x="510" y="-175.5" font-family="Helvetica,sans-Serif" font-size="10.00">Framework/MessageContext.h</text>
</a>
</g>
</g>
<!-- Node1&#45;&gt;Node14 -->
<g id="edge14" class="edge"><title>Node1&#45;&gt;Node14</title>
<path fill="none" stroke="midnightblue" d="M817.413,-236.895C744.661,-223.194 631.967,-201.97 565.133,-189.383"/>
<polygon fill="midnightblue" stroke="midnightblue" points="565.689,-185.926 555.214,-187.515 564.394,-192.806 565.689,-185.926"/>
</g>
<!-- Node16 -->
<g id="node16" class="node"><title>Node16</title>
<polygon fill="none" stroke="#bfbfbf" points="614,-112.5 614,-131.5 658,-131.5 658,-112.5 614,-112.5"/>
<text text-anchor="middle" x="636" y="-119.5" font-family="Helvetica,sans-Serif" font-size="10.00">vector</text>
</g>
<!-- Node1&#45;&gt;Node16 -->
<g id="edge32" class="edge"><title>Node1&#45;&gt;Node16</title>
<path fill="none" stroke="midnightblue" d="M817.308,-242.515C750.452,-233.727 656.436,-216.598 634,-188 623.782,-174.976 625.925,-155.548 629.621,-141.324"/>
<polygon fill="midnightblue" stroke="midnightblue" points="633.001,-142.24 632.572,-131.654 626.306,-140.197 633.001,-142.24"/>
</g>
<!-- Node17 -->
<g id="node17" class="node"><title>Node17</title>
<g id="a_node17"><a xlink:href="../../d2/d80/RootObjectContext_8h.html" target="_top" xlink:title="Framework/RootObjectContext.h">
<polygon fill="none" stroke="black" points="642.5,-168.5 642.5,-187.5 803.5,-187.5 803.5,-168.5 642.5,-168.5"/>
<text text-anchor="middle" x="723" y="-175.5" font-family="Helvetica,sans-Serif" font-size="10.00">Framework/RootObjectContext.h</text>
</a>
</g>
</g>
<!-- Node1&#45;&gt;Node17 -->
<g id="edge19" class="edge"><title>Node1&#45;&gt;Node17</title>
<path fill="none" stroke="midnightblue" d="M829.18,-224.968C803.226,-213.732 773.724,-200.96 752.415,-191.735"/>
<polygon fill="midnightblue" stroke="midnightblue" points="753.522,-188.4 742.955,-187.639 750.741,-194.824 753.522,-188.4"/>
</g>
<!-- Node18 -->
<g id="node18" class="node"><title>Node18</title>
<polygon fill="none" stroke="#bfbfbf" points="792.5,-112.5 792.5,-131.5 919.5,-131.5 919.5,-112.5 792.5,-112.5"/>
<text text-anchor="middle" x="856" y="-119.5" font-family="Helvetica,sans-Serif" font-size="10.00">fairmq/FairMQMessage.h</text>
</g>
<!-- Node1&#45;&gt;Node18 -->
<g id="edge31" class="edge"><title>Node1&#45;&gt;Node18</title>
<path fill="none" stroke="midnightblue" d="M868.834,-224.739C862.152,-213.963 855.393,-200.911 852,-188 848,-172.777 849.533,-154.888 851.765,-141.734"/>
<polygon fill="midnightblue" stroke="midnightblue" points="855.266,-142.071 853.784,-131.581 848.401,-140.706 855.266,-142.071"/>
</g>
<!-- Node20 -->
<g id="node20" class="node"><title>Node20</title>
<g id="a_node20"><a xlink:href="../../d8/d3c/TMessageSerializer_8h.html" target="_top" xlink:title="Framework/TMessageSerializer.h">
<polygon fill="none" stroke="black" points="860.5,-168.5 860.5,-187.5 1023.5,-187.5 1023.5,-168.5 860.5,-168.5"/>
<text text-anchor="middle" x="942" y="-175.5" font-family="Helvetica,sans-Serif" font-size="10.00">Framework/TMessageSerializer.h</text>
</a>
</g>
</g>
<!-- Node1&#45;&gt;Node20 -->
<g id="edge25" class="edge"><title>Node1&#45;&gt;Node20</title>
<path fill="none" stroke="midnightblue" d="M906.546,-224.768C913.971,-215.183 922.242,-204.506 928.926,-195.877"/>
<polygon fill="midnightblue" stroke="midnightblue" points="931.859,-197.806 935.216,-187.757 926.325,-193.519 931.859,-197.806"/>
</g>
<!-- Node23 -->
<g id="node23" class="node"><title>Node23</title>
<g id="a_node23"><a xlink:href="../../d0/d95/TypeTraits_8h.html" target="_top" xlink:title="Framework/TypeTraits.h">
<polygon fill="none" stroke="black" points="1224.5,-168.5 1224.5,-187.5 1347.5,-187.5 1347.5,-168.5 1224.5,-168.5"/>
<text text-anchor="middle" x="1286" y="-175.5" font-family="Helvetica,sans-Serif" font-size="10.00">Framework/TypeTraits.h</text>
</a>
</g>
</g>
<!-- Node1&#45;&gt;Node23 -->
<g id="edge29" class="edge"><title>Node1&#45;&gt;Node23</title>
<path fill="none" stroke="midnightblue" d="M956.5,-237.633C1033.32,-223.962 1155.7,-202.186 1227.71,-189.372"/>
<polygon fill="midnightblue" stroke="midnightblue" points="1228.73,-192.747 1237.96,-187.549 1227.5,-185.855 1228.73,-192.747"/>
</g>
<!-- Node24 -->
<g id="node24" class="node"><title>Node24</title>
<polygon fill="none" stroke="#bfbfbf" points="1210,-112.5 1210,-131.5 1272,-131.5 1272,-112.5 1210,-112.5"/>
<text text-anchor="middle" x="1241" y="-119.5" font-family="Helvetica,sans-Serif" font-size="10.00">type_traits</text>
</g>
<!-- Node1&#45;&gt;Node24 -->
<g id="edge36" class="edge"><title>Node1&#45;&gt;Node24</title>
<path fill="none" stroke="midnightblue" d="M956.522,-246.37C1017.84,-240.64 1107.94,-225.896 1177,-188 1198.39,-176.265 1217.21,-155.12 1228.81,-140.137"/>
<polygon fill="midnightblue" stroke="midnightblue" points="1231.89,-141.855 1235.05,-131.743 1226.28,-137.675 1231.89,-141.855"/>
</g>
<!-- Node25 -->
<g id="node25" class="node"><title>Node25</title>
<polygon fill="none" stroke="#bfbfbf" points="1365.5,-168.5 1365.5,-187.5 1400.5,-187.5 1400.5,-168.5 1365.5,-168.5"/>
<text text-anchor="middle" x="1383" y="-175.5" font-family="Helvetica,sans-Serif" font-size="10.00">map</text>
</g>
<!-- Node1&#45;&gt;Node25 -->
<g id="edge33" class="edge"><title>Node1&#45;&gt;Node25</title>
<path fill="none" stroke="midnightblue" d="M956.873,-244.94C1047.09,-237.48 1208.87,-220.962 1355.35,-187.713"/>
<polygon fill="midnightblue" stroke="midnightblue" points="1356.46,-191.049 1365.42,-185.395 1354.89,-184.228 1356.46,-191.049"/>
</g>
<!-- Node26 -->
<g id="node26" class="node"><title>Node26</title>
<polygon fill="none" stroke="#bfbfbf" points="1419,-168.5 1419,-187.5 1459,-187.5 1459,-168.5 1419,-168.5"/>
<text text-anchor="middle" x="1439" y="-175.5" font-family="Helvetica,sans-Serif" font-size="10.00">utility</text>
</g>
<!-- Node1&#45;&gt;Node26 -->
<g id="edge35" class="edge"><title>Node1&#45;&gt;Node26</title>
<path fill="none" stroke="midnightblue" d="M956.856,-245.565C1057.57,-238.301 1249.06,-221.229 1409,-188 1409.1,-187.979 1409.2,-187.958 1409.3,-187.937"/>
<polygon fill="midnightblue" stroke="midnightblue" points="1409.93,-191.388 1418.79,-185.582 1408.24,-184.594 1409.93,-191.388"/>
</g>
<!-- Node27 -->
<g id="node27" class="node"><title>Node27</title>
<polygon fill="none" stroke="#bfbfbf" points="1477.5,-168.5 1477.5,-187.5 1530.5,-187.5 1530.5,-168.5 1477.5,-168.5"/>
<text text-anchor="middle" x="1504" y="-175.5" font-family="Helvetica,sans-Serif" font-size="10.00">gsl/span</text>
</g>
<!-- Node1&#45;&gt;Node27 -->
<g id="edge37" class="edge"><title>Node1&#45;&gt;Node27</title>
<path fill="none" stroke="midnightblue" d="M956.75,-245.695C1064.4,-238.358 1277.53,-221.087 1467.47,-187.848"/>
<polygon fill="midnightblue" stroke="midnightblue" points="1468.11,-191.287 1477.35,-186.099 1466.9,-184.394 1468.11,-191.287"/>
</g>
<!-- Node28 -->
<g id="node28" class="node"><title>Node28</title>
<polygon fill="none" stroke="#bfbfbf" points="1549,-168.5 1549,-187.5 1605,-187.5 1605,-168.5 1549,-168.5"/>
<text text-anchor="middle" x="1577" y="-175.5" font-family="Helvetica,sans-Serif" font-size="10.00">TClass.h</text>
</g>
<!-- Node1&#45;&gt;Node28 -->
<g id="edge38" class="edge"><title>Node1&#45;&gt;Node28</title>
<path fill="none" stroke="midnightblue" d="M956.882,-246.521C1076.67,-239.851 1328.65,-222.741 1539,-188 1539.1,-187.983 1539.2,-187.967 1539.3,-187.95"/>
<polygon fill="midnightblue" stroke="midnightblue" points="1539.7,-191.437 1548.87,-186.119 1538.39,-184.562 1539.7,-191.437"/>
</g>
<!-- Node4 -->
<g id="node4" class="node"><title>Node4</title>
<polygon fill="none" stroke="#bfbfbf" points="226,-0.5 226,-19.5 272,-19.5 272,-0.5 226,-0.5"/>
<text text-anchor="middle" x="249" y="-7.5" font-family="Helvetica,sans-Serif" font-size="10.00">cstdint</text>
</g>
<!-- Node3&#45;&gt;Node4 -->
<g id="edge3" class="edge"><title>Node3&#45;&gt;Node4</title>
<path fill="none" stroke="midnightblue" d="M296.842,-56.324C288.499,-48.4196 275.968,-36.5482 265.823,-26.9377"/>
<polygon fill="midnightblue" stroke="midnightblue" points="267.991,-24.1705 258.325,-19.8339 263.177,-29.2522 267.991,-24.1705"/>
</g>
<!-- Node5 -->
<g id="node5" class="node"><title>Node5</title>
<polygon fill="none" stroke="#bfbfbf" points="290,-0.5 290,-19.5 342,-19.5 342,-0.5 290,-0.5"/>
<text text-anchor="middle" x="316" y="-7.5" font-family="Helvetica,sans-Serif" font-size="10.00">memory</text>
</g>
<!-- Node3&#45;&gt;Node5 -->
<g id="edge4" class="edge"><title>Node3&#45;&gt;Node5</title>
<path fill="none" stroke="midnightblue" d="M307.651,-56.083C308.976,-48.9272 310.882,-38.6353 312.539,-29.6911"/>
<polygon fill="midnightblue" stroke="midnightblue" points="316,-30.2212 314.379,-19.7511 309.117,-28.9466 316,-30.2212"/>
</g>
<!-- Node6 -->
<g id="node6" class="node"><title>Node6</title>
<polygon fill="none" stroke="#bfbfbf" points="433.5,-0.5 433.5,-19.5 482.5,-19.5 482.5,-0.5 433.5,-0.5"/>
<text text-anchor="middle" x="458" y="-7.5" font-family="Helvetica,sans-Serif" font-size="10.00">cassert</text>
</g>
<!-- Node3&#45;&gt;Node6 -->
<g id="edge5" class="edge"><title>Node3&#45;&gt;Node6</title>
<path fill="none" stroke="midnightblue" d="M330.085,-56.4435C355.545,-47.3986 395.894,-33.064 424.459,-22.9158"/>
<polygon fill="midnightblue" stroke="midnightblue" points="425.777,-26.1622 434.028,-19.5164 423.433,-19.5661 425.777,-26.1622"/>
</g>
<!-- Node7 -->
<g id="node7" class="node"><title>Node7</title>
<polygon fill="none" stroke="#bfbfbf" points="360,-0.5 360,-19.5 406,-19.5 406,-0.5 360,-0.5"/>
<text text-anchor="middle" x="383" y="-7.5" font-family="Helvetica,sans-Serif" font-size="10.00">cstring</text>
</g>
<!-- Node3&#45;&gt;Node7 -->
<g id="edge6" class="edge"><title>Node3&#45;&gt;Node7</title>
<path fill="none" stroke="midnightblue" d="M318.371,-56.324C330.158,-48.0577 348.132,-35.4527 362.136,-25.6322"/>
<polygon fill="midnightblue" stroke="midnightblue" points="364.482,-28.2619 370.659,-19.6545 360.462,-22.5307 364.482,-28.2619"/>
</g>
<!-- Node8 -->
<g id="node8" class="node"><title>Node8</title>
<polygon fill="none" stroke="#bfbfbf" points="152,-0.5 152,-19.5 208,-19.5 208,-0.5 152,-0.5"/>
<text text-anchor="middle" x="180" y="-7.5" font-family="Helvetica,sans-Serif" font-size="10.00">algorithm</text>
</g>
<!-- Node3&#45;&gt;Node8 -->
<g id="edge7" class="edge"><title>Node3&#45;&gt;Node8</title>
<path fill="none" stroke="midnightblue" d="M286.035,-56.4435C265.391,-47.5961 232.937,-33.6875 209.368,-23.5865"/>
<polygon fill="midnightblue" stroke="midnightblue" points="210.442,-20.2387 199.872,-19.5164 207.684,-26.6727 210.442,-20.2387"/>
</g>
<!-- Node10 -->
<g id="node10" class="node"><title>Node10</title>
<g id="a_node10"><a xlink:href="../../db/d2d/OutputSpec_8h.html" target="_top" xlink:title="Framework/OutputSpec.h">
<polygon fill="none" stroke="black" points="242,-112.5 242,-131.5 370,-131.5 370,-112.5 242,-112.5"/>
<text text-anchor="middle" x="306" y="-119.5" font-family="Helvetica,sans-Serif" font-size="10.00">Framework/OutputSpec.h</text>
</a>
</g>
</g>
<!-- Node9&#45;&gt;Node10 -->
<g id="edge9" class="edge"><title>Node9&#45;&gt;Node10</title>
<path fill="none" stroke="midnightblue" d="M309.339,-168.083C308.815,-161.006 308.064,-150.861 307.406,-141.986"/>
<polygon fill="midnightblue" stroke="midnightblue" points="310.877,-141.465 306.648,-131.751 303.897,-141.982 310.877,-141.465"/>
</g>
<!-- Node11 -->
<g id="node11" class="node"><title>Node11</title>
<polygon fill="none" stroke="#bfbfbf" points="174.5,-112.5 174.5,-131.5 223.5,-131.5 223.5,-112.5 174.5,-112.5"/>
<text text-anchor="middle" x="199" y="-119.5" font-family="Helvetica,sans-Serif" font-size="10.00">cstddef</text>
</g>
<!-- Node9&#45;&gt;Node11 -->
<g id="edge11" class="edge"><title>Node9&#45;&gt;Node11</title>
<path fill="none" stroke="midnightblue" d="M292.166,-168.324C274.284,-159.625 246.525,-146.12 225.954,-136.113"/>
<polygon fill="midnightblue" stroke="midnightblue" points="227.313,-132.882 216.79,-131.655 224.251,-139.177 227.313,-132.882"/>
</g>
<!-- Node9&#45;&gt;Node12 -->
<g id="edge12" class="edge"><title>Node9&#45;&gt;Node12</title>
<path fill="none" stroke="midnightblue" d="M325.906,-168.324C341.638,-159.743 365.942,-146.486 384.209,-136.522"/>
<polygon fill="midnightblue" stroke="midnightblue" points="386.03,-139.516 393.133,-131.655 382.678,-133.37 386.03,-139.516"/>
</g>
<!-- Node10&#45;&gt;Node3 -->
<g id="edge10" class="edge"><title>Node10&#45;&gt;Node3</title>
<path fill="none" stroke="midnightblue" d="M306,-112.083C306,-105.006 306,-94.8611 306,-85.9865"/>
<polygon fill="midnightblue" stroke="midnightblue" points="309.5,-85.751 306,-75.7511 302.5,-85.7511 309.5,-85.751"/>
</g>
<!-- Node14&#45;&gt;Node6 -->
<g id="edge17" class="edge"><title>Node14&#45;&gt;Node6</title>
<path fill="none" stroke="midnightblue" d="M501.78,-168.479C494.072,-159.962 482.88,-146.133 477,-132 462.756,-97.7633 459.102,-54.0243 458.219,-29.6148"/>
<polygon fill="midnightblue" stroke="midnightblue" points="461.717,-29.4991 457.977,-19.5864 454.719,-29.6679 461.717,-29.4991"/>
</g>
<!-- Node14&#45;&gt;Node12 -->
<g id="edge18" class="edge"><title>Node14&#45;&gt;Node12</title>
<path fill="none" stroke="midnightblue" d="M493.773,-168.324C477.649,-159.703 452.7,-146.364 434.036,-136.386"/>
<polygon fill="midnightblue" stroke="midnightblue" points="435.656,-133.283 425.187,-131.655 432.356,-139.456 435.656,-133.283"/>
</g>
<!-- Node15 -->
<g id="node15" class="node"><title>Node15</title>
<polygon fill="none" stroke="#bfbfbf" points="486,-112.5 486,-131.5 596,-131.5 596,-112.5 486,-112.5"/>
<text text-anchor="middle" x="541" y="-119.5" font-family="Helvetica,sans-Serif" font-size="10.00">fairmq/FairMQParts.h</text>
</g>
<!-- Node14&#45;&gt;Node15 -->
<g id="edge15" class="edge"><title>Node14&#45;&gt;Node15</title>
<path fill="none" stroke="midnightblue" d="M515.119,-168.083C519.408,-160.613 525.658,-149.724 530.942,-140.52"/>
<polygon fill="midnightblue" stroke="midnightblue" points="534.033,-142.166 535.976,-131.751 527.962,-138.681 534.033,-142.166"/>
</g>
<!-- Node14&#45;&gt;Node16 -->
<g id="edge16" class="edge"><title>Node14&#45;&gt;Node16</title>
<path fill="none" stroke="midnightblue" d="M529.965,-168.444C550.609,-159.596 583.063,-145.687 606.632,-135.586"/>
<polygon fill="midnightblue" stroke="midnightblue" points="608.316,-138.673 616.128,-131.516 605.558,-132.239 608.316,-138.673"/>
</g>
<!-- Node17&#45;&gt;Node6 -->
<g id="edge23" class="edge"><title>Node17&#45;&gt;Node6</title>
<path fill="none" stroke="midnightblue" d="M730.374,-168.263C740.592,-155.04 756.464,-129.621 744,-112 685.931,-29.9101 555.365,-14.089 492.763,-11.3489"/>
<polygon fill="midnightblue" stroke="midnightblue" points="492.724,-7.84549 482.608,-10.9944 492.48,-14.8412 492.724,-7.84549"/>
</g>
<!-- Node17&#45;&gt;Node12 -->
<g id="edge24" class="edge"><title>Node17&#45;&gt;Node12</title>
<path fill="none" stroke="midnightblue" d="M673.246,-168.444C607.587,-157.152 493.992,-137.616 439.666,-128.274"/>
<polygon fill="midnightblue" stroke="midnightblue" points="440.071,-124.792 429.622,-126.547 438.884,-131.691 440.071,-124.792"/>
</g>
<!-- Node17&#45;&gt;Node16 -->
<g id="edge22" class="edge"><title>Node17&#45;&gt;Node16</title>
<path fill="none" stroke="midnightblue" d="M709.022,-168.324C695.45,-159.9 674.62,-146.971 658.675,-137.074"/>
<polygon fill="midnightblue" stroke="midnightblue" points="660.286,-133.954 649.943,-131.655 656.594,-139.902 660.286,-133.954"/>
</g>
<!-- Node17&#45;&gt;Node18 -->
<g id="edge20" class="edge"><title>Node17&#45;&gt;Node18</title>
<path fill="none" stroke="midnightblue" d="M744.074,-168.444C766.06,-159.517 800.734,-145.439 825.664,-135.317"/>
<polygon fill="midnightblue" stroke="midnightblue" points="827.076,-138.521 835.024,-131.516 824.442,-132.035 827.076,-138.521"/>
</g>
<!-- Node19 -->
<g id="node19" class="node"><title>Node19</title>
<polygon fill="none" stroke="#bfbfbf" points="676.5,-112.5 676.5,-131.5 735.5,-131.5 735.5,-112.5 676.5,-112.5"/>
<text text-anchor="middle" x="706" y="-119.5" font-family="Helvetica,sans-Serif" font-size="10.00">TObject.h</text>
</g>
<!-- Node17&#45;&gt;Node19 -->
<g id="edge21" class="edge"><title>Node17&#45;&gt;Node19</title>
<path fill="none" stroke="midnightblue" d="M720.193,-168.083C717.915,-160.849 714.629,-150.409 711.792,-141.397"/>
<polygon fill="midnightblue" stroke="midnightblue" points="715.096,-140.239 708.755,-131.751 708.419,-142.341 715.096,-140.239"/>
</g>
<!-- Node20&#45;&gt;Node18 -->
<g id="edge26" class="edge"><title>Node20&#45;&gt;Node18</title>
<path fill="none" stroke="midnightblue" d="M928.183,-168.324C914.767,-159.9 894.176,-146.971 878.414,-137.074"/>
<polygon fill="midnightblue" stroke="midnightblue" points="880.113,-134.008 869.783,-131.655 876.391,-139.936 880.113,-134.008"/>
</g>
<!-- Node21 -->
<g id="node21" class="node"><title>Node21</title>
<polygon fill="none" stroke="#bfbfbf" points="1040.5,-112.5 1040.5,-131.5 1111.5,-131.5 1111.5,-112.5 1040.5,-112.5"/>
<text text-anchor="middle" x="1076" y="-119.5" font-family="Helvetica,sans-Serif" font-size="10.00">TMessage.h</text>
</g>
<!-- Node20&#45;&gt;Node21 -->
<g id="edge27" class="edge"><title>Node20&#45;&gt;Node21</title>
<path fill="none" stroke="midnightblue" d="M963.233,-168.444C985.384,-159.517 1020.32,-145.439 1045.44,-135.317"/>
<polygon fill="midnightblue" stroke="midnightblue" points="1046.9,-138.501 1054.87,-131.516 1044.28,-132.008 1046.9,-138.501"/>
</g>
<!-- Node22 -->
<g id="node22" class="node"><title>Node22</title>
<polygon fill="none" stroke="#bfbfbf" points="937.5,-112.5 937.5,-131.5 1022.5,-131.5 1022.5,-112.5 937.5,-112.5"/>
<text text-anchor="middle" x="980" y="-119.5" font-family="Helvetica,sans-Serif" font-size="10.00">TClonesArray.h</text>
</g>
<!-- Node20&#45;&gt;Node22 -->
<g id="edge28" class="edge"><title>Node20&#45;&gt;Node22</title>
<path fill="none" stroke="midnightblue" d="M948.275,-168.083C953.642,-160.455 961.518,-149.264 968.079,-139.941"/>
<polygon fill="midnightblue" stroke="midnightblue" points="970.949,-141.943 973.842,-131.751 965.225,-137.915 970.949,-141.943"/>
</g>
<!-- Node23&#45;&gt;Node24 -->
<g id="edge30" class="edge"><title>Node23&#45;&gt;Node24</title>
<path fill="none" stroke="midnightblue" d="M1278.57,-168.083C1272.15,-160.377 1262.69,-149.033 1254.88,-139.653"/>
<polygon fill="midnightblue" stroke="midnightblue" points="1257.38,-137.193 1248.29,-131.751 1252.01,-141.674 1257.38,-137.193"/>
</g>
</g>
</svg>
        <g id="navigator" transform="translate(0 0)" fill="#404254">
                <rect fill="#f2f5e9" fill-opacity="0.5" stroke="#606060" stroke-width=".5" x="0" y="0" width="60" height="60"/>
                <use id="zoomplus" xlink:href="#zoomPlus" x="17" y="9" onmousedown="handleZoom(evt,'in')"/>
                <use id="zoomminus" xlink:href="#zoomMin" x="42" y="9" onmousedown="handleZoom(evt,'out')"/>
                <use id="reset" xlink:href="#resetDef" x="30" y="36" onmousedown="handleReset()"/>
                <g id="arrowUp" xlink:href="#dirArrow" transform="translate(30 24)" onmousedown="handlePan(0,-1)">
                  <use xlink:href="#rim" fill="#404040">
                        <set attributeName="fill" to="#808080" begin="arrowUp.mouseover" end="arrowUp.mouseout"/>
                  </use>
                  <path fill="none" stroke="white" stroke-width="1.5" d="M0,-3.0v7 M-2.5,-0.5L0,-3.0L2.5,-0.5"/>
                </g>
                <g id="arrowRight" xlink:href="#dirArrow" transform="rotate(90) translate(36 -43)" onmousedown="handlePan(1,0)">
                  <use xlink:href="#rim" fill="#404040">
                        <set attributeName="fill" to="#808080" begin="arrowRight.mouseover" end="arrowRight.mouseout"/>
                  </use>
                  <path fill="none" stroke="white" stroke-width="1.5" d="M0,-3.0v7 M-2.5,-0.5L0,-3.0L2.5,-0.5"/>
                </g>
                <g id="arrowDown" xlink:href="#dirArrow" transform="rotate(180) translate(-30 -48)" onmousedown="handlePan(0,1)">
                  <use xlink:href="#rim" fill="#404040">
                        <set attributeName="fill" to="#808080" begin="arrowDown.mouseover" end="arrowDown.mouseout"/>
                  </use>
                  <path fill="none" stroke="white" stroke-width="1.5" d="M0,-3.0v7 M-2.5,-0.5L0,-3.0L2.5,-0.5"/>
                </g>
                <g id="arrowLeft" xlink:href="#dirArrow" transform="rotate(270) translate(-36 17)" onmousedown="handlePan(-1,0)">
                  <use xlink:href="#rim" fill="#404040">
                        <set attributeName="fill" to="#808080" begin="arrowLeft.mouseover" end="arrowLeft.mouseout"/>
                  </use>
                  <path fill="none" stroke="white" stroke-width="1.5" d="M0,-3.0v7 M-2.5,-0.5L0,-3.0L2.5,-0.5"/>
                </g>
        </g>
        <svg viewBox="0 0 15 15" width="100%" height="30px" preserveAspectRatio="xMaxYMin meet">
         <g id="arrow_out" transform="scale(0.3 0.3)">
          <a xlink:href="DataAllocator_8h__incl_org.svg" target="_base">
           <rect id="button" ry="5" rx="5" y="6" x="6" height="38" width="38"
                fill="#f2f5e9" fill-opacity="0.5" stroke="#606060" stroke-width="1.0"/>
           <path id="arrow"
             d="M 11.500037,31.436501 C 11.940474,20.09759 22.043105,11.32322 32.158766,21.979434 L 37.068811,17.246167 C 37.068811,17.246167 37.088388,32 37.088388,32 L 22.160133,31.978069 C 22.160133,31.978069 26.997745,27.140456 26.997745,27.140456 C 18.528582,18.264221 13.291696,25.230495 11.500037,31.436501 z"
             style="fill:#404040;"/>
          </a>
         </g>
        </svg>
</svg>
