<?xml version="1.0" encoding="UTF-8" standalone="no"?>
<!DOCTYPE svg PUBLIC "-//W3C//DTD SVG 1.1//EN"
 "http://www.w3.org/Graphics/SVG/1.1/DTD/svg11.dtd">
<!-- Generated by graphviz version 2.36.0 (20140111.2315)
 -->
<!-- Title: /home/travis/build/AliceO2Group/AliceO2/DataFormats/simulation/include/SimulationDataFormat/MCTrack.h Pages: 1 -->
<svg width="806pt" height="240pt"
 viewBox="0.00 0.00 805.84 240.00" xmlns="http://www.w3.org/2000/svg" xmlns:xlink="http://www.w3.org/1999/xlink">
<g id="graph0" class="graph" transform="scale(1 1) rotate(0) translate(4 236)">
<title>/home/travis/build/AliceO2Group/AliceO2/DataFormats/simulation/include/SimulationDataFormat/MCTrack.h</title>
<!-- Node1 -->
<g id="node1" class="node"><title>Node1</title>
<polygon fill="#bfbfbf" stroke="black" points="262.337,-168.5 262.337,-231.5 413.337,-231.5 413.337,-168.5 262.337,-168.5"/>
<text text-anchor="start" x="270.337" y="-219.5" font-family="Helvetica,sans-Serif" font-size="10.00">/home/travis/build</text>
<text text-anchor="start" x="270.337" y="-208.5" font-family="Helvetica,sans-Serif" font-size="10.00">/AliceO2Group/AliceO2</text>
<text text-anchor="start" x="270.337" y="-197.5" font-family="Helvetica,sans-Serif" font-size="10.00">/DataFormats/simulation</text>
<text text-anchor="start" x="270.337" y="-186.5" font-family="Helvetica,sans-Serif" font-size="10.00">/include/SimulationDataFormat</text>
<text text-anchor="middle" x="337.837" y="-175.5" font-family="Helvetica,sans-Serif" font-size="10.00">/MCTrack.h</text>
</g>
<!-- Node2 -->
<g id="node2" class="node"><title>Node2</title>
<polygon fill="none" stroke="#bfbfbf" points="43.837,-56.5 43.837,-75.5 99.837,-75.5 99.837,-56.5 43.837,-56.5"/>
<text text-anchor="middle" x="71.837" y="-63.5" font-family="Helvetica,sans-Serif" font-size="10.00">Rtypes.h</text>
</g>
<!-- Node1&#45;&gt;Node2 -->
<g id="edge1" class="edge"><title>Node1&#45;&gt;Node2</title>
<path fill="none" stroke="midnightblue" d="M262.26,-194.618C174.225,-187.751 36.7337,-170.954 4.83698,-132 -11.1866,-112.431 17.2259,-92.5652 41.8513,-80.0367"/>
<polygon fill="midnightblue" stroke="midnightblue" points="43.5249,-83.1152 51.0033,-75.6103 40.477,-76.8136 43.5249,-83.1152"/>
</g>
<!-- Node3 -->
<g id="node3" class="node"><title>Node3</title>
<polygon fill="none" stroke="#bfbfbf" points="13.837,-112.5 13.837,-131.5 105.837,-131.5 105.837,-112.5 13.837,-112.5"/>
<text text-anchor="middle" x="59.837" y="-119.5" font-family="Helvetica,sans-Serif" font-size="10.00">TLorentzVector.h</text>
</g>
<!-- Node1&#45;&gt;Node3 -->
<g id="edge2" class="edge"><title>Node1&#45;&gt;Node3</title>
<path fill="none" stroke="midnightblue" d="M262.239,-178.333C210.291,-164.131 143.305,-145.819 100.948,-134.239"/>
<polygon fill="midnightblue" stroke="midnightblue" points="101.825,-130.85 91.2556,-131.589 99.9787,-137.603 101.825,-130.85"/>
</g>
<!-- Node4 -->
<g id="node4" class="node"><title>Node4</title>
<polygon fill="none" stroke="#bfbfbf" points="124.337,-112.5 124.337,-131.5 177.337,-131.5 177.337,-112.5 124.337,-112.5"/>
<text text-anchor="middle" x="150.837" y="-119.5" font-family="Helvetica,sans-Serif" font-size="10.00">TMath.h</text>
</g>
<!-- Node1&#45;&gt;Node4 -->
<g id="edge3" class="edge"><title>Node1&#45;&gt;Node4</title>
<path fill="none" stroke="midnightblue" d="M262.585,-168.416C234.246,-156.899 203.58,-144.436 181.554,-135.484"/>
<polygon fill="midnightblue" stroke="midnightblue" points="182.663,-132.157 172.081,-131.634 180.028,-138.642 182.663,-132.157"/>
</g>
<!-- Node5 -->
<g id="node5" class="node"><title>Node5</title>
<polygon fill="none" stroke="#bfbfbf" points="195.337,-112.5 195.337,-131.5 260.337,-131.5 260.337,-112.5 195.337,-112.5"/>
<text text-anchor="middle" x="227.837" y="-119.5" font-family="Helvetica,sans-Serif" font-size="10.00">TVector3.h</text>
</g>
<!-- Node1&#45;&gt;Node5 -->
<g id="edge4" class="edge"><title>Node1&#45;&gt;Node5</title>
<path fill="none" stroke="midnightblue" d="M293.413,-168.307C278.059,-157.699 261.562,-146.301 248.956,-137.591"/>
<polygon fill="midnightblue" stroke="midnightblue" points="250.753,-134.579 240.536,-131.774 246.774,-140.338 250.753,-134.579"/>
</g>
<!-- Node6 -->
<g id="node6" class="node"><title>Node6</title>
<g id="a_node6"><a xlink:href="../../d6/d31/DetID_8h.html" target="_top" xlink:title="DetectorsBase/DetID.h">
<polygon fill="none" stroke="black" points="278.337,-112.5 278.337,-131.5 397.337,-131.5 397.337,-112.5 278.337,-112.5"/>
<text text-anchor="middle" x="337.837" y="-119.5" font-family="Helvetica,sans-Serif" font-size="10.00">DetectorsBase/DetID.h</text>
</a>
</g>
</g>
<!-- Node1&#45;&gt;Node6 -->
<g id="edge5" class="edge"><title>Node1&#45;&gt;Node6</title>
<path fill="none" stroke="midnightblue" d="M337.837,-168.088C337.837,-159.15 337.837,-149.669 337.837,-141.719"/>
<polygon fill="midnightblue" stroke="midnightblue" points="341.337,-141.718 337.837,-131.718 334.337,-141.718 341.337,-141.718"/>
</g>
<!-- Node14 -->
<g id="node14" class="node"><title>Node14</title>
<polygon fill="none" stroke="#bfbfbf" points="415.337,-112.5 415.337,-131.5 510.337,-131.5 510.337,-112.5 415.337,-112.5"/>
<text text-anchor="middle" x="462.837" y="-119.5" font-family="Helvetica,sans-Serif" font-size="10.00">TDatabasePDG.h</text>
</g>
<!-- Node1&#45;&gt;Node14 -->
<g id="edge15" class="edge"><title>Node1&#45;&gt;Node14</title>
<path fill="none" stroke="midnightblue" d="M388.319,-168.307C406.217,-157.425 425.481,-145.713 439.938,-136.923"/>
<polygon fill="midnightblue" stroke="midnightblue" points="441.955,-139.792 448.681,-131.607 438.318,-133.811 441.955,-139.792"/>
</g>
<!-- Node15 -->
<g id="node15" class="node"><title>Node15</title>
<polygon fill="none" stroke="#bfbfbf" points="528.837,-112.5 528.837,-131.5 592.837,-131.5 592.837,-112.5 528.837,-112.5"/>
<text text-anchor="middle" x="560.837" y="-119.5" font-family="Helvetica,sans-Serif" font-size="10.00">TParticle.h</text>
</g>
<!-- Node1&#45;&gt;Node15 -->
<g id="edge16" class="edge"><title>Node1&#45;&gt;Node15</title>
<path fill="none" stroke="midnightblue" d="M413.646,-173.164C451.762,-160.173 496.1,-145.063 526.072,-134.848"/>
<polygon fill="midnightblue" stroke="midnightblue" points="527.319,-138.121 535.656,-131.582 525.061,-131.495 527.319,-138.121"/>
</g>
<!-- Node16 -->
<g id="node16" class="node"><title>Node16</title>
<polygon fill="none" stroke="#bfbfbf" points="610.837,-112.5 610.837,-131.5 696.837,-131.5 696.837,-112.5 610.837,-112.5"/>
<text text-anchor="middle" x="653.837" y="-119.5" font-family="Helvetica,sans-Serif" font-size="10.00">TParticlePDG.h</text>
</g>
<!-- Node1&#45;&gt;Node16 -->
<g id="edge17" class="edge"><title>Node1&#45;&gt;Node16</title>
<path fill="none" stroke="midnightblue" d="M413.527,-180.796C474.295,-166.181 557.6,-146.146 608.467,-133.912"/>
<polygon fill="midnightblue" stroke="midnightblue" points="609.287,-137.314 618.191,-131.573 607.65,-130.509 609.287,-137.314"/>
</g>
<!-- Node17 -->
<g id="node17" class="node"><title>Node17</title>
<polygon fill="none" stroke="#bfbfbf" points="715.337,-112.5 715.337,-131.5 798.337,-131.5 798.337,-112.5 715.337,-112.5"/>
<text text-anchor="middle" x="756.837" y="-119.5" font-family="Helvetica,sans-Serif" font-size="10.00">TMCProcess.h</text>
</g>
<!-- Node1&#45;&gt;Node17 -->
<g id="edge18" class="edge"><title>Node1&#45;&gt;Node17</title>
<path fill="none" stroke="midnightblue" d="M413.715,-185.237C498.178,-169.917 632.373,-145.576 705.393,-132.331"/>
<polygon fill="midnightblue" stroke="midnightblue" points="706.064,-135.767 715.279,-130.538 704.815,-128.879 706.064,-135.767"/>
</g>
<!-- Node6&#45;&gt;Node2 -->
<g id="edge9" class="edge"><title>Node6&#45;&gt;Node2</title>
<path fill="none" stroke="midnightblue" d="M295.688,-112.444C244.538,-102.06 159.046,-84.7041 109.84,-74.7149"/>
<polygon fill="midnightblue" stroke="midnightblue" points="110.413,-71.2599 99.9164,-72.7003 109.02,-78.1199 110.413,-71.2599"/>
</g>
<!-- Node7 -->
<g id="node7" class="node"><title>Node7</title>
<polygon fill="none" stroke="#bfbfbf" points="204.837,-56.5 204.837,-75.5 250.837,-75.5 250.837,-56.5 204.837,-56.5"/>
<text text-anchor="middle" x="227.837" y="-63.5" font-family="Helvetica,sans-Serif" font-size="10.00">cstdint</text>
</g>
<!-- Node6&#45;&gt;Node7 -->
<g id="edge6" class="edge"><title>Node6&#45;&gt;Node7</title>
<path fill="none" stroke="midnightblue" d="M320.164,-112.324C302.443,-103.625 274.934,-90.1202 254.549,-80.113"/>
<polygon fill="midnightblue" stroke="midnightblue" points="255.986,-76.9195 245.467,-75.6545 252.901,-83.2031 255.986,-76.9195"/>
</g>
<!-- Node8 -->
<g id="node8" class="node"><title>Node8</title>
<polygon fill="none" stroke="#bfbfbf" points="274.837,-0.5 274.837,-19.5 312.837,-19.5 312.837,-0.5 274.837,-0.5"/>
<text text-anchor="middle" x="293.837" y="-7.5" font-family="Helvetica,sans-Serif" font-size="10.00">array</text>
</g>
<!-- Node6&#45;&gt;Node8 -->
<g id="edge7" class="edge"><title>Node6&#45;&gt;Node8</title>
<path fill="none" stroke="midnightblue" d="M326.79,-112.34C317.237,-104.129 304.017,-90.8636 297.837,-76 291.794,-61.4661 291.141,-43.5166 291.802,-30.1648"/>
<polygon fill="midnightblue" stroke="midnightblue" points="295.321,-30.0609 292.619,-19.8163 288.343,-29.5097 295.321,-30.0609"/>
</g>
<!-- Node9 -->
<g id="node9" class="node"><title>Node9</title>
<polygon fill="none" stroke="#bfbfbf" points="306.837,-56.5 306.837,-75.5 368.837,-75.5 368.837,-56.5 306.837,-56.5"/>
<text text-anchor="middle" x="337.837" y="-63.5" font-family="Helvetica,sans-Serif" font-size="10.00">type_traits</text>
</g>
<!-- Node6&#45;&gt;Node9 -->
<g id="edge8" class="edge"><title>Node6&#45;&gt;Node9</title>
<path fill="none" stroke="midnightblue" d="M337.837,-112.083C337.837,-105.006 337.837,-94.8611 337.837,-85.9865"/>
<polygon fill="midnightblue" stroke="midnightblue" points="341.337,-85.751 337.837,-75.7511 334.337,-85.7511 341.337,-85.751"/>
</g>
<!-- Node10 -->
<g id="node10" class="node"><title>Node10</title>
<g id="a_node10"><a xlink:href="../../d9/ded/Utils_8h.html" target="_top" xlink:title="DetectorsBase/Utils.h">
<polygon fill="none" stroke="black" points="387.337,-56.5 387.337,-75.5 500.337,-75.5 500.337,-56.5 387.337,-56.5"/>
<text text-anchor="middle" x="443.837" y="-63.5" font-family="Helvetica,sans-Serif" font-size="10.00">DetectorsBase/Utils.h</text>
</a>
</g>
</g>
<!-- Node6&#45;&gt;Node10 -->
<g id="edge10" class="edge"><title>Node6&#45;&gt;Node10</title>
<path fill="none" stroke="midnightblue" d="M354.868,-112.324C371.867,-103.664 398.213,-90.2424 417.83,-80.249"/>
<polygon fill="midnightblue" stroke="midnightblue" points="419.527,-83.3125 426.849,-75.6545 416.349,-77.0752 419.527,-83.3125"/>
</g>
<!-- Node13 -->
<g id="node13" class="node"><title>Node13</title>
<polygon fill="none" stroke="#bfbfbf" points="518.337,-56.5 518.337,-75.5 567.337,-75.5 567.337,-56.5 518.337,-56.5"/>
<text text-anchor="middle" x="542.837" y="-63.5" font-family="Helvetica,sans-Serif" font-size="10.00">cassert</text>
</g>
<!-- Node6&#45;&gt;Node13 -->
<g id="edge14" class="edge"><title>Node6&#45;&gt;Node13</title>
<path fill="none" stroke="midnightblue" d="M370.304,-112.471C402.755,-103.943 454.341,-90.3774 508.537,-76.0762"/>
<polygon fill="midnightblue" stroke="midnightblue" points="509.548,-79.4293 518.324,-73.4932 507.762,-72.6611 509.548,-79.4293"/>
</g>
<!-- Node10&#45;&gt;Node8 -->
<g id="edge13" class="edge"><title>Node10&#45;&gt;Node8</title>
<path fill="none" stroke="midnightblue" d="M420.069,-56.4435C393.73,-46.9613 351.242,-31.6657 322.933,-21.4745"/>
<polygon fill="midnightblue" stroke="midnightblue" points="323.795,-18.0651 313.201,-17.971 321.424,-24.6513 323.795,-18.0651"/>
</g>
<!-- Node11 -->
<g id="node11" class="node"><title>Node11</title>
<g id="a_node11"><a xlink:href="../../d1/daa/Base_2include_2DetectorsBase_2Constants_8h.html" target="_top" xlink:title="DetectorsBase/Constants.h">
<polygon fill="none" stroke="black" points="359.837,-0.5 359.837,-19.5 497.837,-19.5 497.837,-0.5 359.837,-0.5"/>
<text text-anchor="middle" x="428.837" y="-7.5" font-family="Helvetica,sans-Serif" font-size="10.00">DetectorsBase/Constants.h</text>
</a>
</g>
</g>
<!-- Node10&#45;&gt;Node11 -->
<g id="edge11" class="edge"><title>Node10&#45;&gt;Node11</title>
<path fill="none" stroke="midnightblue" d="M441.36,-56.083C439.35,-48.8486 436.451,-38.4087 433.947,-29.3968"/>
<polygon fill="midnightblue" stroke="midnightblue" points="437.317,-28.4495 431.268,-19.7511 430.572,-30.323 437.317,-28.4495"/>
</g>
<!-- Node12 -->
<g id="node12" class="node"><title>Node12</title>
<polygon fill="none" stroke="#bfbfbf" points="515.837,-0.5 515.837,-19.5 559.837,-19.5 559.837,-0.5 515.837,-0.5"/>
<text text-anchor="middle" x="537.837" y="-7.5" font-family="Helvetica,sans-Serif" font-size="10.00">cmath</text>
</g>
<!-- Node10&#45;&gt;Node12 -->
<g id="edge12" class="edge"><title>Node10&#45;&gt;Node12</title>
<path fill="none" stroke="midnightblue" d="M458.94,-56.324C473.74,-47.8215 496.531,-34.7288 513.819,-24.7975"/>
<polygon fill="midnightblue" stroke="midnightblue" points="515.844,-27.6707 522.772,-19.6545 512.357,-21.6009 515.844,-27.6707"/>
</g>
</g>
</svg>
