<?xml version="1.0" encoding="UTF-8" standalone="no"?>
<!DOCTYPE svg PUBLIC "-//W3C//DTD SVG 1.1//EN"
 "http://www.w3.org/Graphics/SVG/1.1/DTD/svg11.dtd">
<!-- Generated by graphviz version 2.36.0 (20140111.2315)
 -->
<!-- Title: /home/travis/build/AliceO2Group/AliceO2/Detectors/Base/src/DetMatrixCache.cxx Pages: 1 -->
<!--zoomable 310 -->
<svg id="main" version="1.1" xmlns="http://www.w3.org/2000/svg" xmlns:xlink="http://www.w3.org/1999/xlink" xml:space="preserve" onload="init(evt)">
<style type="text/css"><![CDATA[
.edge:hover path { stroke: red; }
.edge:hover polygon { stroke: red; fill: red; }
]]></style>
<script type="text/javascript"><![CDATA[
var edges = document.getElementsByTagName('g');
if (edges && edges.length) {
  for (var i=0;i<edges.length;i++) {
    if (edges[i].id.substr(0,4)=='edge') {
      edges[i].setAttribute('class','edge');
    }
  }
}
]]></script>
        <defs>
                <circle id="rim" cx="0" cy="0" r="7"/>
                <circle id="rim2" cx="0" cy="0" r="3.5"/>
                <g id="zoomPlus">
                        <use xlink:href="#rim" fill="#404040">
                                <set attributeName="fill" to="#808080" begin="zoomplus.mouseover" end="zoomplus.mouseout"/>
                        </use>
                        <path d="M-4,0h8M0,-4v8" fill="none" stroke="white" stroke-width="1.5" pointer-events="none"/>
                </g>
                <g id="zoomMin">
                        <use xlink:href="#rim" fill="#404040">
                                <set attributeName="fill" to="#808080" begin="zoomminus.mouseover" end="zoomminus.mouseout"/>
                        </use>
                        <path d="M-4,0h8" fill="none" stroke="white" stroke-width="1.5" pointer-events="none"/>
                </g>
                <g id="dirArrow">
                        <path fill="none" stroke="white" stroke-width="1.5" d="M0,-3.0v7 M-2.5,-0.5L0,-3.0L2.5,-0.5"/>
                </g>
               <g id="resetDef">
                       <use xlink:href="#rim2" fill="#404040">
                               <set attributeName="fill" to="#808080" begin="reset.mouseover" end="reset.mouseout"/>
                       </use>
               </g>
        </defs>

<script type="text/javascript">
var viewWidth = 1696;
var viewHeight = 310;
var sectionId = 'dynsection-0';
</script>
<script xlink:href="../../svgpan.js"/>
<svg id="graph" class="graph">
<g id="viewport">
<title>/home/travis/build/AliceO2Group/AliceO2/Detectors/Base/src/DetMatrixCache.cxx</title>
<!-- Node1 -->
<g id="node1" class="node"><title>Node1</title>
<polygon fill="#bfbfbf" stroke="black" points="1246,-249 1246,-301 1396,-301 1396,-249 1246,-249"/>
<text text-anchor="start" x="1254" y="-289" font-family="Helvetica,sans-Serif" font-size="10.00">/home/travis/build</text>
<text text-anchor="start" x="1254" y="-278" font-family="Helvetica,sans-Serif" font-size="10.00">/AliceO2Group/AliceO2</text>
<text text-anchor="start" x="1254" y="-267" font-family="Helvetica,sans-Serif" font-size="10.00">/Detectors/Base/src/DetMatrix</text>
<text text-anchor="middle" x="1321" y="-256" font-family="Helvetica,sans-Serif" font-size="10.00">Cache.cxx</text>
</g>
<!-- Node2 -->
<g id="node2" class="node"><title>Node2</title>
<g id="a_node2"><a xlink:href="../../d4/d20/DetMatrixCache_8h.html" target="_top" xlink:title="DetectorsBase/DetMatrixCache.h">
<polygon fill="none" stroke="black" points="1239,-192.5 1239,-211.5 1403,-211.5 1403,-192.5 1239,-192.5"/>
<text text-anchor="middle" x="1321" y="-199.5" font-family="Helvetica,sans-Serif" font-size="10.00">DetectorsBase/DetMatrixCache.h</text>
</a>
</g>
</g>
<!-- Node1&#45;&gt;Node2 -->
<g id="edge1" class="edge"><title>Node1&#45;&gt;Node2</title>
<path fill="none" stroke="midnightblue" d="M1321,-248.768C1321,-239.89 1321,-230.074 1321,-221.816"/>
<polygon fill="midnightblue" stroke="midnightblue" points="1324.5,-221.757 1321,-211.757 1317.5,-221.757 1324.5,-221.757"/>
</g>
<!-- Node10 -->
<g id="node10" class="node"><title>Node10</title>
<polygon fill="none" stroke="#bfbfbf" points="0,-74.5 0,-93.5 76,-93.5 76,-74.5 0,-74.5"/>
<text text-anchor="middle" x="38" y="-81.5" font-family="Helvetica,sans-Serif" font-size="10.00">TGeoMatrix.h</text>
</g>
<!-- Node1&#45;&gt;Node10 -->
<g id="edge29" class="edge"><title>Node1&#45;&gt;Node10</title>
<path fill="none" stroke="midnightblue" d="M1245.66,-267.865C1051.45,-251.09 518.624,-198.969 85,-100 80.7726,-99.0351 76.3791,-97.8653 72.0506,-96.6093"/>
<polygon fill="midnightblue" stroke="midnightblue" points="72.7642,-93.1672 62.1774,-93.578 70.7097,-99.8589 72.7642,-93.1672"/>
</g>
<!-- Node20 -->
<g id="node20" class="node"><title>Node20</title>
<g id="a_node20"><a xlink:href="../../d9/ded/Utils_8h.html" target="_top" xlink:title="DetectorsBase/Utils.h">
<polygon fill="none" stroke="black" points="1555.5,-74.5 1555.5,-93.5 1668.5,-93.5 1668.5,-74.5 1555.5,-74.5"/>
<text text-anchor="middle" x="1612" y="-81.5" font-family="Helvetica,sans-Serif" font-size="10.00">DetectorsBase/Utils.h</text>
</a>
</g>
</g>
<!-- Node1&#45;&gt;Node20 -->
<g id="edge28" class="edge"><title>Node1&#45;&gt;Node20</title>
<path fill="none" stroke="midnightblue" d="M1396.26,-257.218C1454.8,-240.592 1534.32,-209.648 1585,-156 1598.7,-141.497 1605.64,-119.341 1609.02,-103.641"/>
<polygon fill="midnightblue" stroke="midnightblue" points="1612.51,-104.024 1610.9,-93.5523 1605.63,-102.741 1612.51,-104.024"/>
</g>
<!-- Node3 -->
<g id="node3" class="node"><title>Node3</title>
<polygon fill="none" stroke="#bfbfbf" points="1443,-136.5 1443,-155.5 1487,-155.5 1487,-136.5 1443,-136.5"/>
<text text-anchor="middle" x="1465" y="-143.5" font-family="Helvetica,sans-Serif" font-size="10.00">vector</text>
</g>
<!-- Node2&#45;&gt;Node3 -->
<g id="edge2" class="edge"><title>Node2&#45;&gt;Node3</title>
<path fill="none" stroke="midnightblue" d="M1343.82,-192.444C1367.97,-183.385 1406.28,-169.021 1433.35,-158.871"/>
<polygon fill="midnightblue" stroke="midnightblue" points="1434.63,-162.127 1442.76,-155.339 1432.17,-155.573 1434.63,-162.127"/>
</g>
<!-- Node4 -->
<g id="node4" class="node"><title>Node4</title>
<polygon fill="none" stroke="#bfbfbf" points="1296,-6.5 1296,-25.5 1334,-25.5 1334,-6.5 1296,-6.5"/>
<text text-anchor="middle" x="1315" y="-13.5" font-family="Helvetica,sans-Serif" font-size="10.00">array</text>
</g>
<!-- Node2&#45;&gt;Node4 -->
<g id="edge3" class="edge"><title>Node2&#45;&gt;Node4</title>
<path fill="none" stroke="midnightblue" d="M1314.37,-192.275C1308.23,-183.607 1299.54,-169.669 1296,-156 1284.99,-113.519 1298.89,-61.9814 1308.09,-35.1786"/>
<polygon fill="midnightblue" stroke="midnightblue" points="1311.45,-36.1914 1311.55,-25.597 1304.86,-33.8155 1311.45,-36.1914"/>
</g>
<!-- Node5 -->
<g id="node5" class="node"><title>Node5</title>
<g id="a_node5"><a xlink:href="../../dd/d76/Cartesian3D_8h.html" target="_top" xlink:title="MathUtils/Cartesian3D.h">
<polygon fill="none" stroke="black" points="654.5,-136.5 654.5,-155.5 779.5,-155.5 779.5,-136.5 654.5,-136.5"/>
<text text-anchor="middle" x="717" y="-143.5" font-family="Helvetica,sans-Serif" font-size="10.00">MathUtils/Cartesian3D.h</text>
</a>
</g>
</g>
<!-- Node2&#45;&gt;Node5 -->
<g id="edge4" class="edge"><title>Node2&#45;&gt;Node5</title>
<path fill="none" stroke="midnightblue" d="M1238.91,-193.661C1120.37,-183.063 903.085,-163.637 789.9,-153.518"/>
<polygon fill="midnightblue" stroke="midnightblue" points="789.882,-150.002 779.61,-152.598 789.258,-156.974 789.882,-150.002"/>
</g>
<!-- Node9 -->
<g id="node9" class="node"><title>Node9</title>
<polygon fill="none" stroke="#bfbfbf" points="1193,-74.5 1193,-93.5 1249,-93.5 1249,-74.5 1193,-74.5"/>
<text text-anchor="middle" x="1221" y="-81.5" font-family="Helvetica,sans-Serif" font-size="10.00">Rtypes.h</text>
</g>
<!-- Node2&#45;&gt;Node9 -->
<g id="edge26" class="edge"><title>Node2&#45;&gt;Node9</title>
<path fill="none" stroke="midnightblue" d="M1306.9,-192.273C1294.33,-184.016 1275.98,-170.722 1263,-156 1248.69,-139.765 1236.64,-117.955 1229.16,-102.81"/>
<polygon fill="midnightblue" stroke="midnightblue" points="1232.21,-101.065 1224.75,-93.5405 1225.89,-104.074 1232.21,-101.065"/>
</g>
<!-- Node17 -->
<g id="node17" class="node"><title>Node17</title>
<g id="a_node17"><a xlink:href="../../d6/d31/DetID_8h.html" target="_top" xlink:title="DetectorsBase/DetID.h">
<polygon fill="none" stroke="black" points="1305.5,-136.5 1305.5,-155.5 1424.5,-155.5 1424.5,-136.5 1305.5,-136.5"/>
<text text-anchor="middle" x="1365" y="-143.5" font-family="Helvetica,sans-Serif" font-size="10.00">DetectorsBase/DetID.h</text>
</a>
</g>
</g>
<!-- Node2&#45;&gt;Node17 -->
<g id="edge16" class="edge"><title>Node2&#45;&gt;Node17</title>
<path fill="none" stroke="midnightblue" d="M1328.27,-192.083C1334.54,-184.377 1343.79,-173.033 1351.43,-163.653"/>
<polygon fill="midnightblue" stroke="midnightblue" points="1354.27,-165.714 1357.87,-155.751 1348.84,-161.293 1354.27,-165.714"/>
</g>
<!-- Node24 -->
<g id="node24" class="node"><title>Node24</title>
<polygon fill="none" stroke="#bfbfbf" points="1505.5,-136.5 1505.5,-155.5 1576.5,-155.5 1576.5,-136.5 1505.5,-136.5"/>
<text text-anchor="middle" x="1541" y="-143.5" font-family="Helvetica,sans-Serif" font-size="10.00">FairLogger.h</text>
</g>
<!-- Node2&#45;&gt;Node24 -->
<g id="edge27" class="edge"><title>Node2&#45;&gt;Node24</title>
<path fill="none" stroke="midnightblue" d="M1355.86,-192.444C1393.92,-183.102 1454.96,-168.119 1496.46,-157.933"/>
<polygon fill="midnightblue" stroke="midnightblue" points="1497.43,-161.299 1506.3,-155.516 1495.76,-154.501 1497.43,-161.299"/>
</g>
<!-- Node6 -->
<g id="node6" class="node"><title>Node6</title>
<polygon fill="none" stroke="#bfbfbf" points="851.5,-74.5 851.5,-93.5 1000.5,-93.5 1000.5,-74.5 851.5,-74.5"/>
<text text-anchor="middle" x="926" y="-81.5" font-family="Helvetica,sans-Serif" font-size="10.00">Math/GenVector/Rotation3D.h</text>
</g>
<!-- Node5&#45;&gt;Node6 -->
<g id="edge5" class="edge"><title>Node5&#45;&gt;Node6</title>
<path fill="none" stroke="midnightblue" d="M746.945,-136.403C783.572,-125.889 845.695,-108.054 886.284,-96.4016"/>
<polygon fill="midnightblue" stroke="midnightblue" points="887.465,-99.7041 896.111,-93.5806 885.533,-92.9759 887.465,-99.7041"/>
</g>
<!-- Node7 -->
<g id="node7" class="node"><title>Node7</title>
<polygon fill="none" stroke="#bfbfbf" points="1019,-74.5 1019,-93.5 1175,-93.5 1175,-74.5 1019,-74.5"/>
<text text-anchor="middle" x="1097" y="-81.5" font-family="Helvetica,sans-Serif" font-size="10.00">Math/GenVector/Transform3D.h</text>
</g>
<!-- Node5&#45;&gt;Node7 -->
<g id="edge6" class="edge"><title>Node5&#45;&gt;Node7</title>
<path fill="none" stroke="midnightblue" d="M774.113,-136.473C833.008,-127.616 927.485,-113.228 1009,-100 1018.31,-98.4892 1028.17,-96.849 1037.78,-95.2263"/>
<polygon fill="midnightblue" stroke="midnightblue" points="1038.41,-98.6698 1047.69,-93.5477 1037.24,-91.7682 1038.41,-98.6698"/>
</g>
<!-- Node8 -->
<g id="node8" class="node"><title>Node8</title>
<polygon fill="none" stroke="#bfbfbf" points="94,-74.5 94,-93.5 254,-93.5 254,-74.5 94,-74.5"/>
<text text-anchor="middle" x="174" y="-81.5" font-family="Helvetica,sans-Serif" font-size="10.00">Math/GenVector/Translation3D.h</text>
</g>
<!-- Node5&#45;&gt;Node8 -->
<g id="edge7" class="edge"><title>Node5&#45;&gt;Node8</title>
<path fill="none" stroke="midnightblue" d="M654.422,-140.156C566.72,-133.057 402.351,-118.627 263,-100 252.643,-98.6155 241.642,-96.9345 231.036,-95.2053"/>
<polygon fill="midnightblue" stroke="midnightblue" points="231.461,-91.728 221.022,-93.5408 230.313,-98.6332 231.461,-91.728"/>
</g>
<!-- Node5&#45;&gt;Node9 -->
<g id="edge8" class="edge"><title>Node5&#45;&gt;Node9</title>
<path fill="none" stroke="midnightblue" d="M779.522,-144.673C870.02,-142.924 1042.2,-134.792 1184,-100 1187.07,-99.2479 1190.21,-98.2889 1193.31,-97.2203"/>
<polygon fill="midnightblue" stroke="midnightblue" points="1194.81,-100.393 1202.9,-93.5528 1192.31,-93.8543 1194.81,-100.393"/>
</g>
<!-- Node5&#45;&gt;Node10 -->
<g id="edge9" class="edge"><title>Node5&#45;&gt;Node10</title>
<path fill="none" stroke="midnightblue" d="M654.465,-145.442C540.268,-145.171 290.779,-139.577 85,-100 80.4291,-99.1209 75.6809,-97.9391 71.0366,-96.6227"/>
<polygon fill="midnightblue" stroke="midnightblue" points="71.7313,-93.175 61.1447,-93.5912 69.6802,-99.8678 71.7313,-93.175"/>
</g>
<!-- Node11 -->
<g id="node11" class="node"><title>Node11</title>
<polygon fill="none" stroke="#bfbfbf" points="272.5,-69 272.5,-99 423.5,-99 423.5,-69 272.5,-69"/>
<text text-anchor="start" x="280.5" y="-87" font-family="Helvetica,sans-Serif" font-size="10.00">Math/GenVector/Displacement</text>
<text text-anchor="middle" x="348" y="-76" font-family="Helvetica,sans-Serif" font-size="10.00">Vector3D.h</text>
</g>
<!-- Node5&#45;&gt;Node11 -->
<g id="edge10" class="edge"><title>Node5&#45;&gt;Node11</title>
<path fill="none" stroke="midnightblue" d="M661.446,-136.492C606.287,-127.978 519.041,-114.333 433.422,-100.053"/>
<polygon fill="midnightblue" stroke="midnightblue" points="433.972,-96.597 423.532,-98.4 432.818,-103.501 433.972,-96.597"/>
</g>
<!-- Node12 -->
<g id="node12" class="node"><title>Node12</title>
<polygon fill="none" stroke="#bfbfbf" points="442,-74.5 442,-93.5 618,-93.5 618,-74.5 442,-74.5"/>
<text text-anchor="middle" x="530" y="-81.5" font-family="Helvetica,sans-Serif" font-size="10.00">Math/GenVector/PositionVector3D.h</text>
</g>
<!-- Node5&#45;&gt;Node12 -->
<g id="edge11" class="edge"><title>Node5&#45;&gt;Node12</title>
<path fill="none" stroke="midnightblue" d="M690.207,-136.403C657.714,-125.978 602.792,-108.356 566.462,-96.6992"/>
<polygon fill="midnightblue" stroke="midnightblue" points="567.334,-93.3031 556.743,-93.5806 565.195,-99.9685 567.334,-93.3031"/>
</g>
<!-- Node13 -->
<g id="node13" class="node"><title>Node13</title>
<g id="a_node13"><a xlink:href="../../d2/dd0/Cartesian2D_8h.html" target="_top" xlink:title="MathUtils/Cartesian2D.h">
<polygon fill="none" stroke="black" points="708.5,-74.5 708.5,-93.5 833.5,-93.5 833.5,-74.5 708.5,-74.5"/>
<text text-anchor="middle" x="771" y="-81.5" font-family="Helvetica,sans-Serif" font-size="10.00">MathUtils/Cartesian2D.h</text>
</a>
</g>
</g>
<!-- Node5&#45;&gt;Node13 -->
<g id="edge12" class="edge"><title>Node5&#45;&gt;Node13</title>
<path fill="none" stroke="midnightblue" d="M724.737,-136.403C732.997,-127.225 746.277,-112.47 756.494,-101.117"/>
<polygon fill="midnightblue" stroke="midnightblue" points="759.189,-103.355 763.277,-93.5806 753.986,-98.6722 759.189,-103.355"/>
</g>
<!-- Node16 -->
<g id="node16" class="node"><title>Node16</title>
<polygon fill="none" stroke="#bfbfbf" points="636,-74.5 636,-93.5 690,-93.5 690,-74.5 636,-74.5"/>
<text text-anchor="middle" x="663" y="-81.5" font-family="Helvetica,sans-Serif" font-size="10.00">iostream</text>
</g>
<!-- Node5&#45;&gt;Node16 -->
<g id="edge15" class="edge"><title>Node5&#45;&gt;Node16</title>
<path fill="none" stroke="midnightblue" d="M709.263,-136.403C701.003,-127.225 687.723,-112.47 677.506,-101.117"/>
<polygon fill="midnightblue" stroke="midnightblue" points="680.014,-98.6722 670.723,-93.5806 674.811,-103.355 680.014,-98.6722"/>
</g>
<!-- Node14 -->
<g id="node14" class="node"><title>Node14</title>
<polygon fill="none" stroke="#bfbfbf" points="604.5,-1 604.5,-31 755.5,-31 755.5,-1 604.5,-1"/>
<text text-anchor="start" x="612.5" y="-19" font-family="Helvetica,sans-Serif" font-size="10.00">Math/GenVector/Displacement</text>
<text text-anchor="middle" x="680" y="-8" font-family="Helvetica,sans-Serif" font-size="10.00">Vector2D.h</text>
</g>
<!-- Node13&#45;&gt;Node14 -->
<g id="edge13" class="edge"><title>Node13&#45;&gt;Node14</title>
<path fill="none" stroke="midnightblue" d="M759.103,-74.3717C746.221,-65.0286 725.22,-49.7966 708.093,-37.375"/>
<polygon fill="midnightblue" stroke="midnightblue" points="709.703,-34.2194 699.553,-31.1815 705.593,-39.8859 709.703,-34.2194"/>
</g>
<!-- Node15 -->
<g id="node15" class="node"><title>Node15</title>
<polygon fill="none" stroke="#bfbfbf" points="774,-6.5 774,-25.5 950,-25.5 950,-6.5 774,-6.5"/>
<text text-anchor="middle" x="862" y="-13.5" font-family="Helvetica,sans-Serif" font-size="10.00">Math/GenVector/PositionVector2D.h</text>
</g>
<!-- Node13&#45;&gt;Node15 -->
<g id="edge14" class="edge"><title>Node13&#45;&gt;Node15</title>
<path fill="none" stroke="midnightblue" d="M782.897,-74.3717C797.884,-63.5015 823.862,-44.6602 841.942,-31.5474"/>
<polygon fill="midnightblue" stroke="midnightblue" points="844.06,-34.3349 850.1,-25.6305 839.95,-28.6684 844.06,-34.3349"/>
</g>
<!-- Node17&#45;&gt;Node4 -->
<g id="edge18" class="edge"><title>Node17&#45;&gt;Node4</title>
<path fill="none" stroke="midnightblue" d="M1357.5,-136.298C1350.43,-127.647 1340.03,-113.722 1334,-100 1324.82,-79.1087 1319.8,-53.2312 1317.26,-35.978"/>
<polygon fill="midnightblue" stroke="midnightblue" points="1320.67,-35.0313 1315.88,-25.5787 1313.73,-35.9522 1320.67,-35.0313"/>
</g>
<!-- Node17&#45;&gt;Node9 -->
<g id="edge20" class="edge"><title>Node17&#45;&gt;Node9</title>
<path fill="none" stroke="midnightblue" d="M1344.37,-136.403C1319.88,-126.2 1278.85,-109.105 1250.89,-97.4544"/>
<polygon fill="midnightblue" stroke="midnightblue" points="1252.17,-94.196 1241.59,-93.5806 1249.48,-100.658 1252.17,-94.196"/>
</g>
<!-- Node18 -->
<g id="node18" class="node"><title>Node18</title>
<polygon fill="none" stroke="#bfbfbf" points="1343,-74.5 1343,-93.5 1389,-93.5 1389,-74.5 1343,-74.5"/>
<text text-anchor="middle" x="1366" y="-81.5" font-family="Helvetica,sans-Serif" font-size="10.00">cstdint</text>
</g>
<!-- Node17&#45;&gt;Node18 -->
<g id="edge17" class="edge"><title>Node17&#45;&gt;Node18</title>
<path fill="none" stroke="midnightblue" d="M1365.14,-136.403C1365.28,-127.938 1365.5,-114.728 1365.69,-103.82"/>
<polygon fill="midnightblue" stroke="midnightblue" points="1369.19,-103.638 1365.86,-93.5806 1362.19,-103.521 1369.19,-103.638"/>
</g>
<!-- Node19 -->
<g id="node19" class="node"><title>Node19</title>
<polygon fill="none" stroke="#bfbfbf" points="1475,-74.5 1475,-93.5 1537,-93.5 1537,-74.5 1475,-74.5"/>
<text text-anchor="middle" x="1506" y="-81.5" font-family="Helvetica,sans-Serif" font-size="10.00">type_traits</text>
</g>
<!-- Node17&#45;&gt;Node19 -->
<g id="edge19" class="edge"><title>Node17&#45;&gt;Node19</title>
<path fill="none" stroke="midnightblue" d="M1385.2,-136.403C1409.07,-126.245 1449,-109.255 1476.37,-97.6074"/>
<polygon fill="midnightblue" stroke="midnightblue" points="1478,-100.717 1485.84,-93.5806 1475.26,-94.2757 1478,-100.717"/>
</g>
<!-- Node17&#45;&gt;Node20 -->
<g id="edge21" class="edge"><title>Node17&#45;&gt;Node20</title>
<path fill="none" stroke="midnightblue" d="M1400.13,-136.467C1444.02,-125.805 1519.19,-107.545 1567.19,-95.886"/>
<polygon fill="midnightblue" stroke="midnightblue" points="1568.1,-99.2651 1576.99,-93.5034 1566.45,-92.4629 1568.1,-99.2651"/>
</g>
<!-- Node23 -->
<g id="node23" class="node"><title>Node23</title>
<polygon fill="none" stroke="#bfbfbf" points="1407.5,-74.5 1407.5,-93.5 1456.5,-93.5 1456.5,-74.5 1407.5,-74.5"/>
<text text-anchor="middle" x="1432" y="-81.5" font-family="Helvetica,sans-Serif" font-size="10.00">cassert</text>
</g>
<!-- Node17&#45;&gt;Node23 -->
<g id="edge25" class="edge"><title>Node17&#45;&gt;Node23</title>
<path fill="none" stroke="midnightblue" d="M1374.6,-136.403C1385.05,-127.047 1401.97,-111.895 1414.74,-100.46"/>
<polygon fill="midnightblue" stroke="midnightblue" points="1417.3,-102.859 1422.42,-93.5806 1412.63,-97.6445 1417.3,-102.859"/>
</g>
<!-- Node20&#45;&gt;Node4 -->
<g id="edge24" class="edge"><title>Node20&#45;&gt;Node4</title>
<path fill="none" stroke="midnightblue" d="M1574.09,-74.4985C1564.59,-72.3725 1554.42,-70.0998 1545,-68 1472.71,-51.894 1387.62,-33.0574 1344,-23.4104"/>
<polygon fill="midnightblue" stroke="midnightblue" points="1344.61,-19.96 1334.09,-21.2183 1343.09,-26.7949 1344.61,-19.96"/>
</g>
<!-- Node21 -->
<g id="node21" class="node"><title>Node21</title>
<g id="a_node21"><a xlink:href="../../d1/daa/Base_2include_2DetectorsBase_2Constants_8h.html" target="_top" xlink:title="DetectorsBase/Constants.h">
<polygon fill="none" stroke="black" points="1488,-6.5 1488,-25.5 1626,-25.5 1626,-6.5 1488,-6.5"/>
<text text-anchor="middle" x="1557" y="-13.5" font-family="Helvetica,sans-Serif" font-size="10.00">DetectorsBase/Constants.h</text>
</a>
</g>
</g>
<!-- Node20&#45;&gt;Node21 -->
<g id="edge22" class="edge"><title>Node20&#45;&gt;Node21</title>
<path fill="none" stroke="midnightblue" d="M1604.81,-74.3717C1596.21,-64.053 1581.63,-46.5513 1570.82,-33.5854"/>
<polygon fill="midnightblue" stroke="midnightblue" points="1573.46,-31.2827 1564.37,-25.8411 1568.08,-35.764 1573.46,-31.2827"/>
</g>
<!-- Node22 -->
<g id="node22" class="node"><title>Node22</title>
<polygon fill="none" stroke="#bfbfbf" points="1644,-6.5 1644,-25.5 1688,-25.5 1688,-6.5 1644,-6.5"/>
<text text-anchor="middle" x="1666" y="-13.5" font-family="Helvetica,sans-Serif" font-size="10.00">cmath</text>
</g>
<!-- Node20&#45;&gt;Node22 -->
<g id="edge23" class="edge"><title>Node20&#45;&gt;Node22</title>
<path fill="none" stroke="midnightblue" d="M1619.06,-74.3717C1627.5,-64.053 1641.82,-46.5513 1652.43,-33.5854"/>
<polygon fill="midnightblue" stroke="midnightblue" points="1655.14,-35.7971 1658.77,-25.8411 1649.73,-31.3644 1655.14,-35.7971"/>
</g>
</g>
</svg>
        <g id="navigator" transform="translate(0 0)" fill="#404254">
                <rect fill="#f2f5e9" fill-opacity="0.5" stroke="#606060" stroke-width=".5" x="0" y="0" width="60" height="60"/>
                <use id="zoomplus" xlink:href="#zoomPlus" x="17" y="9" onmousedown="handleZoom(evt,'in')"/>
                <use id="zoomminus" xlink:href="#zoomMin" x="42" y="9" onmousedown="handleZoom(evt,'out')"/>
                <use id="reset" xlink:href="#resetDef" x="30" y="36" onmousedown="handleReset()"/>
                <g id="arrowUp" xlink:href="#dirArrow" transform="translate(30 24)" onmousedown="handlePan(0,-1)">
                  <use xlink:href="#rim" fill="#404040">
                        <set attributeName="fill" to="#808080" begin="arrowUp.mouseover" end="arrowUp.mouseout"/>
                  </use>
                  <path fill="none" stroke="white" stroke-width="1.5" d="M0,-3.0v7 M-2.5,-0.5L0,-3.0L2.5,-0.5"/>
                </g>
                <g id="arrowRight" xlink:href="#dirArrow" transform="rotate(90) translate(36 -43)" onmousedown="handlePan(1,0)">
                  <use xlink:href="#rim" fill="#404040">
                        <set attributeName="fill" to="#808080" begin="arrowRight.mouseover" end="arrowRight.mouseout"/>
                  </use>
                  <path fill="none" stroke="white" stroke-width="1.5" d="M0,-3.0v7 M-2.5,-0.5L0,-3.0L2.5,-0.5"/>
                </g>
                <g id="arrowDown" xlink:href="#dirArrow" transform="rotate(180) translate(-30 -48)" onmousedown="handlePan(0,1)">
                  <use xlink:href="#rim" fill="#404040">
                        <set attributeName="fill" to="#808080" begin="arrowDown.mouseover" end="arrowDown.mouseout"/>
                  </use>
                  <path fill="none" stroke="white" stroke-width="1.5" d="M0,-3.0v7 M-2.5,-0.5L0,-3.0L2.5,-0.5"/>
                </g>
                <g id="arrowLeft" xlink:href="#dirArrow" transform="rotate(270) translate(-36 17)" onmousedown="handlePan(-1,0)">
                  <use xlink:href="#rim" fill="#404040">
                        <set attributeName="fill" to="#808080" begin="arrowLeft.mouseover" end="arrowLeft.mouseout"/>
                  </use>
                  <path fill="none" stroke="white" stroke-width="1.5" d="M0,-3.0v7 M-2.5,-0.5L0,-3.0L2.5,-0.5"/>
                </g>
        </g>
        <svg viewBox="0 0 15 15" width="100%" height="30px" preserveAspectRatio="xMaxYMin meet">
         <g id="arrow_out" transform="scale(0.3 0.3)">
          <a xlink:href="DetMatrixCache_8cxx__incl_org.svg" target="_base">
           <rect id="button" ry="5" rx="5" y="6" x="6" height="38" width="38"
                fill="#f2f5e9" fill-opacity="0.5" stroke="#606060" stroke-width="1.0"/>
           <path id="arrow"
             d="M 11.500037,31.436501 C 11.940474,20.09759 22.043105,11.32322 32.158766,21.979434 L 37.068811,17.246167 C 37.068811,17.246167 37.088388,32 37.088388,32 L 22.160133,31.978069 C 22.160133,31.978069 26.997745,27.140456 26.997745,27.140456 C 18.528582,18.264221 13.291696,25.230495 11.500037,31.436501 z"
             style="fill:#404040;"/>
          </a>
         </g>
        </svg>
</svg>
