<?xml version="1.0" encoding="UTF-8" standalone="no"?>
<!DOCTYPE svg PUBLIC "-//W3C//DTD SVG 1.1//EN"
 "http://www.w3.org/Graphics/SVG/1.1/DTD/svg11.dtd">
<!-- Generated by graphviz version 2.36.0 (20140111.2315)
 -->
<!-- Title: o2::DataFormat::TPC::ClusterHardwareContainer Pages: 1 -->
<svg width="392pt" height="366pt"
 viewBox="0.00 0.00 392.00 366.00" xmlns="http://www.w3.org/2000/svg" xmlns:xlink="http://www.w3.org/1999/xlink">
<g id="graph0" class="graph" transform="scale(1 1) rotate(0) translate(4 362)">
<title>o2::DataFormat::TPC::ClusterHardwareContainer</title>
<!-- Node1 -->
<g id="node1" class="node"><title>Node1</title>
<polygon fill="#bfbfbf" stroke="black" points="69,-1 69,-69 207,-69 207,-1 69,-1"/>
<text text-anchor="start" x="77" y="-57" font-family="Helvetica,sans-Serif" font-size="10.00">o2::DataFormat::TPC</text>
<text text-anchor="middle" x="138" y="-46" font-family="Helvetica,sans-Serif" font-size="10.00">::ClusterHardwareContainer</text>
<polyline fill="none" stroke="black" points="69,-39 207,-39 "/>
<text text-anchor="middle" x="138" y="-27" font-family="Helvetica,sans-Serif" font-size="10.00"> </text>
<polyline fill="none" stroke="black" points="69,-20 207,-20 "/>
<text text-anchor="middle" x="138" y="-8" font-family="Helvetica,sans-Serif" font-size="10.00"> </text>
</g>
<!-- Node2 -->
<g id="node2" class="node"><title>Node2</title>
<polygon fill="none" stroke="#bfbfbf" points="-0.5,-140.5 -0.5,-197.5 50.5,-197.5 50.5,-140.5 -0.5,-140.5"/>
<text text-anchor="middle" x="25" y="-185.5" font-family="Helvetica,sans-Serif" font-size="10.00">uint64_t</text>
<polyline fill="none" stroke="#bfbfbf" points="-0.5,-178.5 50.5,-178.5 "/>
<text text-anchor="middle" x="25" y="-166.5" font-family="Helvetica,sans-Serif" font-size="10.00"> </text>
<polyline fill="none" stroke="#bfbfbf" points="-0.5,-159.5 50.5,-159.5 "/>
<text text-anchor="middle" x="25" y="-147.5" font-family="Helvetica,sans-Serif" font-size="10.00"> </text>
</g>
<!-- Node2&#45;&gt;Node1 -->
<g id="edge1" class="edge"><title>Node2&#45;&gt;Node1</title>
<path fill="none" stroke="#404040" d="M21.4174,-140.161C20.7443,-123.632 22.5953,-103.036 33,-88 39.615,-78.4403 48.5092,-70.5574 58.3354,-64.079"/>
<polygon fill="none" stroke="#404040" points="58.5411,-63.9567 61.6546,-57.4524 68.8561,-57.8248 65.7426,-64.3291 58.5411,-63.9567"/>
<text text-anchor="middle" x="53" y="-91.5" font-family="Helvetica,sans-Serif" font-size="10.00"> +mRDH</text>
</g>
<!-- Node3 -->
<g id="node3" class="node"><title>Node3</title>
<polygon fill="none" stroke="#bfbfbf" points="95.5,-300.5 95.5,-357.5 146.5,-357.5 146.5,-300.5 95.5,-300.5"/>
<text text-anchor="middle" x="121" y="-345.5" font-family="Helvetica,sans-Serif" font-size="10.00">uint16_t</text>
<polyline fill="none" stroke="#bfbfbf" points="95.5,-338.5 146.5,-338.5 "/>
<text text-anchor="middle" x="121" y="-326.5" font-family="Helvetica,sans-Serif" font-size="10.00"> </text>
<polyline fill="none" stroke="#bfbfbf" points="95.5,-319.5 146.5,-319.5 "/>
<text text-anchor="middle" x="121" y="-307.5" font-family="Helvetica,sans-Serif" font-size="10.00"> </text>
</g>
<!-- Node3&#45;&gt;Node1 -->
<g id="edge2" class="edge"><title>Node3&#45;&gt;Node1</title>
<path fill="none" stroke="#404040" d="M111.601,-300.451C99.1588,-259.967 80.504,-182.246 96,-118 99.0979,-105.156 104.569,-92.0639 110.56,-80.2204"/>
<polygon fill="none" stroke="#404040" points="110.743,-79.8785 110.045,-72.7012 116.402,-69.2969 117.1,-76.4742 110.743,-79.8785"/>
<text text-anchor="middle" x="144.5" y="-172" font-family="Helvetica,sans-Serif" font-size="10.00"> +mCRU</text>
<text text-anchor="middle" x="144.5" y="-161" font-family="Helvetica,sans-Serif" font-size="10.00">+mNumberOfClusters</text>
</g>
<!-- Node5 -->
<g id="node5" class="node"><title>Node5</title>
<g id="a_node5"><a xlink:href="../../df/d9e/structo2_1_1DataFormat_1_1TPC_1_1ClusterHardware.html" target="_top" xlink:title="{o2::DataFormat::TPC\l::ClusterHardware\n||+ getPad()\l+ getTimeLocal()\l+ getSigmaPad2()\l+ getSigmaTime2()\l}">
<polygon fill="none" stroke="black" points="202.5,-118.5 202.5,-219.5 313.5,-219.5 313.5,-118.5 202.5,-118.5"/>
<text text-anchor="start" x="210.5" y="-207.5" font-family="Helvetica,sans-Serif" font-size="10.00">o2::DataFormat::TPC</text>
<text text-anchor="middle" x="258" y="-196.5" font-family="Helvetica,sans-Serif" font-size="10.00">::ClusterHardware</text>
<polyline fill="none" stroke="black" points="202.5,-189.5 313.5,-189.5 "/>
<text text-anchor="middle" x="258" y="-177.5" font-family="Helvetica,sans-Serif" font-size="10.00"> </text>
<polyline fill="none" stroke="black" points="202.5,-170.5 313.5,-170.5 "/>
<text text-anchor="start" x="210.5" y="-158.5" font-family="Helvetica,sans-Serif" font-size="10.00">+ getPad()</text>
<text text-anchor="start" x="210.5" y="-147.5" font-family="Helvetica,sans-Serif" font-size="10.00">+ getTimeLocal()</text>
<text text-anchor="start" x="210.5" y="-136.5" font-family="Helvetica,sans-Serif" font-size="10.00">+ getSigmaPad2()</text>
<text text-anchor="start" x="210.5" y="-125.5" font-family="Helvetica,sans-Serif" font-size="10.00">+ getSigmaTime2()</text>
</a>
</g>
</g>
<!-- Node3&#45;&gt;Node5 -->
<g id="edge5" class="edge"><title>Node3&#45;&gt;Node5</title>
<path fill="none" stroke="#404040" d="M141.329,-300.158C154.886,-282.028 173.389,-258.099 191,-238 193.703,-234.915 196.51,-231.791 199.375,-228.664"/>
<polygon fill="none" stroke="#404040" points="199.385,-228.654 200.549,-221.537 207.566,-219.875 206.402,-226.991 199.385,-228.654"/>
<text text-anchor="middle" x="213" y="-263" font-family="Helvetica,sans-Serif" font-size="10.00"> +mQMax</text>
<text text-anchor="middle" x="213" y="-252" font-family="Helvetica,sans-Serif" font-size="10.00">+mQTot</text>
</g>
<!-- Node4 -->
<g id="node4" class="node"><title>Node4</title>
<polygon fill="none" stroke="#bfbfbf" points="331.5,-140.5 331.5,-197.5 382.5,-197.5 382.5,-140.5 331.5,-140.5"/>
<text text-anchor="middle" x="357" y="-185.5" font-family="Helvetica,sans-Serif" font-size="10.00">uint32_t</text>
<polyline fill="none" stroke="#bfbfbf" points="331.5,-178.5 382.5,-178.5 "/>
<text text-anchor="middle" x="357" y="-166.5" font-family="Helvetica,sans-Serif" font-size="10.00"> </text>
<polyline fill="none" stroke="#bfbfbf" points="331.5,-159.5 382.5,-159.5 "/>
<text text-anchor="middle" x="357" y="-147.5" font-family="Helvetica,sans-Serif" font-size="10.00"> </text>
</g>
<!-- Node4&#45;&gt;Node1 -->
<g id="edge3" class="edge"><title>Node4&#45;&gt;Node1</title>
<path fill="none" stroke="#404040" d="M341.571,-140.368C336.156,-132.405 329.52,-124.203 322,-118 291.821,-93.1096 252.886,-74.3154 218.609,-61.042"/>
<polygon fill="none" stroke="#404040" points="218.417,-60.9698 211.394,-62.6053 207.183,-56.7514 214.206,-55.1159 218.417,-60.9698"/>
<text text-anchor="middle" x="336.5" y="-91.5" font-family="Helvetica,sans-Serif" font-size="10.00"> +mTimeBinOffset</text>
</g>
<!-- Node5&#45;&gt;Node1 -->
<g id="edge4" class="edge"><title>Node5&#45;&gt;Node1</title>
<path fill="none" stroke="#404040" d="M212.975,-118.473C200.988,-105.286 188.148,-91.1629 176.542,-78.3964"/>
<polygon fill="none" stroke="#404040" points="176.411,-78.2524 169.415,-76.5035 168.339,-69.3731 175.335,-71.1221 176.411,-78.2524"/>
<text text-anchor="middle" x="222.5" y="-91.5" font-family="Helvetica,sans-Serif" font-size="10.00"> +mClusters</text>
</g>
<!-- Node6 -->
<g id="node6" class="node"><title>Node6</title>
<g id="a_node6"><a xlink:href="../../d4/dc3/classfloat.html" target="_top" xlink:title="{float\n||}">
<polygon fill="none" stroke="black" points="222.5,-300.5 222.5,-357.5 257.5,-357.5 257.5,-300.5 222.5,-300.5"/>
<text text-anchor="middle" x="240" y="-345.5" font-family="Helvetica,sans-Serif" font-size="10.00">float</text>
<polyline fill="none" stroke="black" points="222.5,-338.5 257.5,-338.5 "/>
<text text-anchor="middle" x="240" y="-326.5" font-family="Helvetica,sans-Serif" font-size="10.00"> </text>
<polyline fill="none" stroke="black" points="222.5,-319.5 257.5,-319.5 "/>
<text text-anchor="middle" x="240" y="-307.5" font-family="Helvetica,sans-Serif" font-size="10.00"> </text>
</a>
</g>
</g>
<!-- Node6&#45;&gt;Node5 -->
<g id="edge6" class="edge"><title>Node6&#45;&gt;Node5</title>
<path fill="none" stroke="#404040" d="M238.643,-300.311C238.178,-282.453 238.326,-258.767 241,-238 241.279,-235.831 241.603,-233.632 241.964,-231.417"/>
<polygon fill="none" stroke="#404040" points="241.985,-231.302 239.162,-224.667 244.201,-219.509 247.025,-226.144 241.985,-231.302"/>
<text text-anchor="middle" x="285" y="-274" font-family="Helvetica,sans-Serif" font-size="10.00"> +mSigmaTime2Pre</text>
<text text-anchor="middle" x="285" y="-263" font-family="Helvetica,sans-Serif" font-size="10.00">+mTimePre</text>
<text text-anchor="middle" x="285" y="-252" font-family="Helvetica,sans-Serif" font-size="10.00">+mSigmaPad2Pre</text>
<text text-anchor="middle" x="285" y="-241" font-family="Helvetica,sans-Serif" font-size="10.00">+mPadPre</text>
</g>
<!-- Node7 -->
<g id="node7" class="node"><title>Node7</title>
<polygon fill="none" stroke="#bfbfbf" points="328,-300.5 328,-357.5 374,-357.5 374,-300.5 328,-300.5"/>
<text text-anchor="middle" x="351" y="-345.5" font-family="Helvetica,sans-Serif" font-size="10.00">uint8_t</text>
<polyline fill="none" stroke="#bfbfbf" points="328,-338.5 374,-338.5 "/>
<text text-anchor="middle" x="351" y="-326.5" font-family="Helvetica,sans-Serif" font-size="10.00"> </text>
<polyline fill="none" stroke="#bfbfbf" points="328,-319.5 374,-319.5 "/>
<text text-anchor="middle" x="351" y="-307.5" font-family="Helvetica,sans-Serif" font-size="10.00"> </text>
</g>
<!-- Node7&#45;&gt;Node5 -->
<g id="edge7" class="edge"><title>Node7&#45;&gt;Node5</title>
<path fill="none" stroke="#404040" d="M348.298,-300.111C345.54,-281.52 340.014,-257.087 329,-238 326.734,-234.073 324.174,-230.229 321.405,-226.493"/>
<polygon fill="none" stroke="#404040" points="321.18,-226.214 314.3,-224.054 313.647,-216.873 320.527,-219.032 321.18,-226.214"/>
<text text-anchor="middle" x="364.5" y="-263" font-family="Helvetica,sans-Serif" font-size="10.00"> +mRow</text>
<text text-anchor="middle" x="364.5" y="-252" font-family="Helvetica,sans-Serif" font-size="10.00">+mFlags</text>
</g>
</g>
</svg>
