<?xml version="1.0" encoding="UTF-8" standalone="no"?>
<!DOCTYPE svg PUBLIC "-//W3C//DTD SVG 1.1//EN"
 "http://www.w3.org/Graphics/SVG/1.1/DTD/svg11.dtd">
<!-- Generated by graphviz version 2.36.0 (20140111.2315)
 -->
<!-- Title: o2::Header::DataIdentifier Pages: 1 -->
<svg width="334pt" height="228pt"
 viewBox="0.00 0.00 334.00 228.00" xmlns="http://www.w3.org/2000/svg" xmlns:xlink="http://www.w3.org/1999/xlink">
<g id="graph0" class="graph" transform="scale(1 1) rotate(0) translate(4 224)">
<title>o2::Header::DataIdentifier</title>
<!-- Node1 -->
<g id="node1" class="node"><title>Node1</title>
<polygon fill="#bfbfbf" stroke="black" points="92.5,-0.5 92.5,-101.5 221.5,-101.5 221.5,-0.5 92.5,-0.5"/>
<text text-anchor="middle" x="157" y="-89.5" font-family="Helvetica,sans-Serif" font-size="10.00">o2::Header::DataIdentifier</text>
<polyline fill="none" stroke="black" points="92.5,-82.5 221.5,-82.5 "/>
<text text-anchor="middle" x="157" y="-70.5" font-family="Helvetica,sans-Serif" font-size="10.00"> </text>
<polyline fill="none" stroke="black" points="92.5,-63.5 221.5,-63.5 "/>
<text text-anchor="start" x="100.5" y="-51.5" font-family="Helvetica,sans-Serif" font-size="10.00">+ DataIdentifier()</text>
<text text-anchor="start" x="100.5" y="-40.5" font-family="Helvetica,sans-Serif" font-size="10.00">+ DataIdentifier()</text>
<text text-anchor="start" x="100.5" y="-29.5" font-family="Helvetica,sans-Serif" font-size="10.00">+ DataIdentifier()</text>
<text text-anchor="start" x="100.5" y="-18.5" font-family="Helvetica,sans-Serif" font-size="10.00">+ operator==()</text>
<text text-anchor="start" x="100.5" y="-7.5" font-family="Helvetica,sans-Serif" font-size="10.00">+ print()</text>
</g>
<!-- Node2 -->
<g id="node2" class="node"><title>Node2</title>
<polygon fill="none" stroke="#bfbfbf" points="0,-151 0,-219 142,-219 142,-151 0,-151"/>
<text text-anchor="start" x="8" y="-207" font-family="Helvetica,sans-Serif" font-size="10.00">Descriptor&lt; gSizeDataOrigin</text>
<text text-anchor="middle" x="71" y="-196" font-family="Helvetica,sans-Serif" font-size="10.00">String, printDataOrigin &gt;</text>
<polyline fill="none" stroke="#bfbfbf" points="0,-189 142,-189 "/>
<text text-anchor="middle" x="71" y="-177" font-family="Helvetica,sans-Serif" font-size="10.00"> </text>
<polyline fill="none" stroke="#bfbfbf" points="0,-170 142,-170 "/>
<text text-anchor="middle" x="71" y="-158" font-family="Helvetica,sans-Serif" font-size="10.00"> </text>
</g>
<!-- Node2&#45;&gt;Node1 -->
<g id="edge1" class="edge"><title>Node2&#45;&gt;Node1</title>
<path fill="none" stroke="#404040" d="M92.7014,-150.691C100.434,-138.823 109.395,-125.068 118.127,-111.665"/>
<polygon fill="none" stroke="#404040" points="118.185,-111.576 118.109,-104.365 124.736,-101.522 124.812,-108.732 118.185,-111.576"/>
<text text-anchor="middle" x="139" y="-123.5" font-family="Helvetica,sans-Serif" font-size="10.00"> +dataOrigin</text>
</g>
<!-- Node3 -->
<g id="node3" class="node"><title>Node3</title>
<polygon fill="none" stroke="#bfbfbf" points="160,-151 160,-219 326,-219 326,-151 160,-151"/>
<text text-anchor="start" x="168" y="-207" font-family="Helvetica,sans-Serif" font-size="10.00">Descriptor&lt; gSizeDataDescription</text>
<text text-anchor="middle" x="243" y="-196" font-family="Helvetica,sans-Serif" font-size="10.00">String, printDataDescription &gt;</text>
<polyline fill="none" stroke="#bfbfbf" points="160,-189 326,-189 "/>
<text text-anchor="middle" x="243" y="-177" font-family="Helvetica,sans-Serif" font-size="10.00"> </text>
<polyline fill="none" stroke="#bfbfbf" points="160,-170 326,-170 "/>
<text text-anchor="middle" x="243" y="-158" font-family="Helvetica,sans-Serif" font-size="10.00"> </text>
</g>
<!-- Node3&#45;&gt;Node1 -->
<g id="edge2" class="edge"><title>Node3&#45;&gt;Node1</title>
<path fill="none" stroke="#404040" d="M221.299,-150.691C213.566,-138.823 204.605,-125.068 195.873,-111.665"/>
<polygon fill="none" stroke="#404040" points="195.815,-111.576 189.188,-108.732 189.264,-101.522 195.891,-104.365 195.815,-111.576"/>
<text text-anchor="middle" x="246" y="-123.5" font-family="Helvetica,sans-Serif" font-size="10.00"> +dataDescription</text>
</g>
</g>
</svg>
