<?xml version="1.0" encoding="UTF-8" standalone="no"?>
<!DOCTYPE svg PUBLIC "-//W3C//DTD SVG 1.1//EN"
 "http://www.w3.org/Graphics/SVG/1.1/DTD/svg11.dtd">
<!-- Generated by graphviz version 2.36.0 (20140111.2315)
 -->
<!-- Title: /home/travis/build/AliceO2Group/AliceO2/Detectors/Base/src/Track.cxx Pages: 1 -->
<svg width="2065pt" height="410pt"
 viewBox="0.00 0.00 2065.00 410.00" xmlns="http://www.w3.org/2000/svg" xmlns:xlink="http://www.w3.org/1999/xlink">
<g id="graph0" class="graph" transform="scale(1 1) rotate(0) translate(4 406)">
<title>/home/travis/build/AliceO2Group/AliceO2/Detectors/Base/src/Track.cxx</title>
<!-- Node1 -->
<g id="node1" class="node"><title>Node1</title>
<polygon fill="#bfbfbf" stroke="black" points="1478.5,-360.5 1478.5,-401.5 1629.5,-401.5 1629.5,-360.5 1478.5,-360.5"/>
<text text-anchor="start" x="1486.5" y="-389.5" font-family="Helvetica,sans-Serif" font-size="10.00">/home/travis/build</text>
<text text-anchor="start" x="1486.5" y="-378.5" font-family="Helvetica,sans-Serif" font-size="10.00">/AliceO2Group/AliceO2</text>
<text text-anchor="middle" x="1554" y="-367.5" font-family="Helvetica,sans-Serif" font-size="10.00">/Detectors/Base/src/Track.cxx</text>
</g>
<!-- Node2 -->
<g id="node2" class="node"><title>Node2</title>
<g id="a_node2"><a xlink:href="../../d7/d65/Detectors_2Base_2include_2DetectorsBase_2Track_8h.html" target="_top" xlink:title="DetectorsBase/Track.h">
<polygon fill="none" stroke="black" points="1547,-304.5 1547,-323.5 1665,-323.5 1665,-304.5 1547,-304.5"/>
<text text-anchor="middle" x="1606" y="-311.5" font-family="Helvetica,sans-Serif" font-size="10.00">DetectorsBase/Track.h</text>
</a>
</g>
</g>
<!-- Node1&#45;&gt;Node2 -->
<g id="edge1" class="edge"><title>Node1&#45;&gt;Node2</title>
<path fill="none" stroke="midnightblue" d="M1569.6,-360.498C1576.96,-351.299 1585.65,-340.436 1592.69,-331.632"/>
<polygon fill="midnightblue" stroke="midnightblue" points="1595.56,-333.648 1599.08,-323.652 1590.1,-329.275 1595.56,-333.648"/>
</g>
<!-- Node35 -->
<g id="node35" class="node"><title>Node35</title>
<polygon fill="none" stroke="#bfbfbf" points="1440.5,-136.5 1440.5,-155.5 1511.5,-155.5 1511.5,-136.5 1440.5,-136.5"/>
<text text-anchor="middle" x="1476" y="-143.5" font-family="Helvetica,sans-Serif" font-size="10.00">FairLogger.h</text>
</g>
<!-- Node1&#45;&gt;Node35 -->
<g id="edge48" class="edge"><title>Node1&#45;&gt;Node35</title>
<path fill="none" stroke="midnightblue" d="M1547.35,-360.135C1532.44,-315.59 1496.51,-208.27 1482.12,-165.27"/>
<polygon fill="midnightblue" stroke="midnightblue" points="1485.37,-163.958 1478.87,-155.586 1478.73,-166.18 1485.37,-163.958"/>
</g>
<!-- Node3 -->
<g id="node3" class="node"><title>Node3</title>
<polygon fill="none" stroke="#bfbfbf" points="1191,-74.5 1191,-93.5 1247,-93.5 1247,-74.5 1191,-74.5"/>
<text text-anchor="middle" x="1219" y="-81.5" font-family="Helvetica,sans-Serif" font-size="10.00">Rtypes.h</text>
</g>
<!-- Node2&#45;&gt;Node3 -->
<g id="edge2" class="edge"><title>Node2&#45;&gt;Node3</title>
<path fill="none" stroke="midnightblue" d="M1546.74,-311.042C1401.71,-305.916 1037.06,-290.899 987,-268 954.991,-253.359 944.47,-244.519 931,-212 878.867,-86.1399 828.179,-236.519 1182,-100 1184.24,-99.1368 1186.55,-98.233 1188.86,-97.3154"/>
<polygon fill="midnightblue" stroke="midnightblue" points="1190.32,-100.501 1198.31,-93.5333 1187.72,-94.0029 1190.32,-100.501"/>
</g>
<!-- Node4 -->
<g id="node4" class="node"><title>Node4</title>
<polygon fill="none" stroke="#bfbfbf" points="1606,-248.5 1606,-267.5 1662,-267.5 1662,-248.5 1606,-248.5"/>
<text text-anchor="middle" x="1634" y="-255.5" font-family="Helvetica,sans-Serif" font-size="10.00">algorithm</text>
</g>
<!-- Node2&#45;&gt;Node4 -->
<g id="edge3" class="edge"><title>Node2&#45;&gt;Node4</title>
<path fill="none" stroke="midnightblue" d="M1610.62,-304.083C1614.46,-296.691 1620.02,-285.953 1624.76,-276.811"/>
<polygon fill="midnightblue" stroke="midnightblue" points="1627.97,-278.24 1629.46,-267.751 1621.75,-275.018 1627.97,-278.24"/>
</g>
<!-- Node5 -->
<g id="node5" class="node"><title>Node5</title>
<polygon fill="none" stroke="#bfbfbf" points="1525,-6.5 1525,-25.5 1563,-25.5 1563,-6.5 1525,-6.5"/>
<text text-anchor="middle" x="1544" y="-13.5" font-family="Helvetica,sans-Serif" font-size="10.00">array</text>
</g>
<!-- Node2&#45;&gt;Node5 -->
<g id="edge4" class="edge"><title>Node2&#45;&gt;Node5</title>
<path fill="none" stroke="midnightblue" d="M1603.03,-304.455C1599.97,-295.463 1595.22,-280.858 1592,-268 1570.53,-182.24 1553.4,-77.9127 1546.86,-35.883"/>
<polygon fill="midnightblue" stroke="midnightblue" points="1550.29,-35.0998 1545.31,-25.7477 1543.37,-36.1634 1550.29,-35.0998"/>
</g>
<!-- Node6 -->
<g id="node6" class="node"><title>Node6</title>
<polygon fill="none" stroke="#bfbfbf" points="1680.5,-248.5 1680.5,-267.5 1721.5,-267.5 1721.5,-248.5 1680.5,-248.5"/>
<text text-anchor="middle" x="1701" y="-255.5" font-family="Helvetica,sans-Serif" font-size="10.00">cfloat</text>
</g>
<!-- Node2&#45;&gt;Node6 -->
<g id="edge5" class="edge"><title>Node2&#45;&gt;Node6</title>
<path fill="none" stroke="midnightblue" d="M1621.26,-304.324C1636.22,-295.822 1659.25,-282.729 1676.73,-272.797"/>
<polygon fill="midnightblue" stroke="midnightblue" points="1678.81,-275.639 1685.77,-267.655 1675.35,-269.553 1678.81,-275.639"/>
</g>
<!-- Node7 -->
<g id="node7" class="node"><title>Node7</title>
<polygon fill="none" stroke="#bfbfbf" points="1701,-6.5 1701,-25.5 1745,-25.5 1745,-6.5 1701,-6.5"/>
<text text-anchor="middle" x="1723" y="-13.5" font-family="Helvetica,sans-Serif" font-size="10.00">cmath</text>
</g>
<!-- Node2&#45;&gt;Node7 -->
<g id="edge6" class="edge"><title>Node2&#45;&gt;Node7</title>
<path fill="none" stroke="midnightblue" d="M1665.11,-313.896C1762.18,-314.142 1949.54,-309.084 1999,-268 2022.25,-248.687 2019,-233.225 2019,-203 2019,-203 2019,-203 2019,-145 2019,-31.1029 1832.08,-17.3946 1755.32,-16.5674"/>
<polygon fill="midnightblue" stroke="midnightblue" points="1755.26,-13.0672 1745.25,-16.5271 1755.23,-20.0672 1755.26,-13.0672"/>
</g>
<!-- Node8 -->
<g id="node8" class="node"><title>Node8</title>
<polygon fill="none" stroke="#bfbfbf" points="1740,-248.5 1740,-267.5 1786,-267.5 1786,-248.5 1740,-248.5"/>
<text text-anchor="middle" x="1763" y="-255.5" font-family="Helvetica,sans-Serif" font-size="10.00">cstring</text>
</g>
<!-- Node2&#45;&gt;Node8 -->
<g id="edge7" class="edge"><title>Node2&#45;&gt;Node8</title>
<path fill="none" stroke="midnightblue" d="M1630.88,-304.444C1657.76,-295.199 1700.7,-280.428 1730.29,-270.25"/>
<polygon fill="midnightblue" stroke="midnightblue" points="1731.46,-273.551 1739.77,-266.988 1729.18,-266.931 1731.46,-273.551"/>
</g>
<!-- Node9 -->
<g id="node9" class="node"><title>Node9</title>
<polygon fill="none" stroke="#bfbfbf" points="0,-74.5 0,-93.5 54,-93.5 54,-74.5 0,-74.5"/>
<text text-anchor="middle" x="27" y="-81.5" font-family="Helvetica,sans-Serif" font-size="10.00">iostream</text>
</g>
<!-- Node2&#45;&gt;Node9 -->
<g id="edge8" class="edge"><title>Node2&#45;&gt;Node9</title>
<path fill="none" stroke="midnightblue" d="M1546.56,-312.338C1420.31,-310.286 1116.29,-301.923 864,-268 503.498,-219.527 410.417,-207.76 63,-100 60.4213,-99.2002 57.7726,-98.2856 55.1381,-97.3114"/>
<polygon fill="midnightblue" stroke="midnightblue" points="56.3966,-94.0454 45.8103,-93.6206 53.8211,-100.554 56.3966,-94.0454"/>
</g>
<!-- Node10 -->
<g id="node10" class="node"><title>Node10</title>
<polygon fill="none" stroke="#bfbfbf" points="1804.5,-248.5 1804.5,-267.5 1887.5,-267.5 1887.5,-248.5 1804.5,-248.5"/>
<text text-anchor="middle" x="1846" y="-255.5" font-family="Helvetica,sans-Serif" font-size="10.00">Math/SMatrix.h</text>
</g>
<!-- Node2&#45;&gt;Node10 -->
<g id="edge9" class="edge"><title>Node2&#45;&gt;Node10</title>
<path fill="none" stroke="midnightblue" d="M1644.03,-304.444C1685.81,-295.043 1752.98,-279.929 1798.27,-269.739"/>
<polygon fill="midnightblue" stroke="midnightblue" points="1799.16,-273.126 1808.15,-267.516 1797.62,-266.297 1799.16,-273.126"/>
</g>
<!-- Node11 -->
<g id="node11" class="node"><title>Node11</title>
<polygon fill="none" stroke="#bfbfbf" points="1905.5,-248.5 1905.5,-267.5 1990.5,-267.5 1990.5,-248.5 1905.5,-248.5"/>
<text text-anchor="middle" x="1948" y="-255.5" font-family="Helvetica,sans-Serif" font-size="10.00">Math/SVector.h</text>
</g>
<!-- Node2&#45;&gt;Node11 -->
<g id="edge10" class="edge"><title>Node2&#45;&gt;Node11</title>
<path fill="none" stroke="midnightblue" d="M1662.73,-304.497C1719.05,-295.986 1808.14,-282.343 1895.37,-268.079"/>
<polygon fill="midnightblue" stroke="midnightblue" points="1896.14,-271.5 1905.44,-266.428 1895.01,-264.592 1896.14,-271.5"/>
</g>
<!-- Node12 -->
<g id="node12" class="node"><title>Node12</title>
<g id="a_node12"><a xlink:href="../../d4/de2/BaseCluster_8h.html" target="_top" xlink:title="DetectorsBase/BaseCluster.h">
<polygon fill="none" stroke="black" points="996.5,-248.5 996.5,-267.5 1143.5,-267.5 1143.5,-248.5 996.5,-248.5"/>
<text text-anchor="middle" x="1070" y="-255.5" font-family="Helvetica,sans-Serif" font-size="10.00">DetectorsBase/BaseCluster.h</text>
</a>
</g>
</g>
<!-- Node2&#45;&gt;Node12 -->
<g id="edge11" class="edge"><title>Node2&#45;&gt;Node12</title>
<path fill="none" stroke="midnightblue" d="M1546.85,-307.041C1451.41,-297.425 1263.12,-278.456 1153.87,-267.449"/>
<polygon fill="midnightblue" stroke="midnightblue" points="1154.17,-263.962 1143.87,-266.442 1153.47,-270.927 1154.17,-263.962"/>
</g>
<!-- Node17 -->
<g id="node17" class="node"><title>Node17</title>
<g id="a_node17"><a xlink:href="../../dd/d76/Cartesian3D_8h.html" target="_top" xlink:title="MathUtils/Cartesian3D.h">
<polygon fill="none" stroke="black" points="720.5,-136.5 720.5,-155.5 845.5,-155.5 845.5,-136.5 720.5,-136.5"/>
<text text-anchor="middle" x="783" y="-143.5" font-family="Helvetica,sans-Serif" font-size="10.00">MathUtils/Cartesian3D.h</text>
</a>
</g>
</g>
<!-- Node2&#45;&gt;Node17 -->
<g id="edge47" class="edge"><title>Node2&#45;&gt;Node17</title>
<path fill="none" stroke="midnightblue" d="M1546.78,-311.707C1387.15,-307.875 956.023,-295.114 898,-268 849.383,-245.281 810.931,-192.123 793.374,-164.446"/>
<polygon fill="midnightblue" stroke="midnightblue" points="796.279,-162.488 788.053,-155.811 790.319,-166.16 796.279,-162.488"/>
</g>
<!-- Node32 -->
<g id="node32" class="node"><title>Node32</title>
<g id="a_node32"><a xlink:href="../../d9/ded/Utils_8h.html" target="_top" xlink:title="DetectorsBase/Utils.h">
<polygon fill="none" stroke="black" points="1591.5,-74.5 1591.5,-93.5 1704.5,-93.5 1704.5,-74.5 1591.5,-74.5"/>
<text text-anchor="middle" x="1648" y="-81.5" font-family="Helvetica,sans-Serif" font-size="10.00">DetectorsBase/Utils.h</text>
</a>
</g>
</g>
<!-- Node2&#45;&gt;Node32 -->
<g id="edge46" class="edge"><title>Node2&#45;&gt;Node32</title>
<path fill="none" stroke="midnightblue" d="M1603.15,-304.157C1599.48,-291.64 1593.94,-268.046 1597,-248 1605.3,-193.701 1628.29,-132.633 1640.37,-103.026"/>
<polygon fill="midnightblue" stroke="midnightblue" points="1643.67,-104.19 1644.28,-93.6123 1637.21,-101.506 1643.67,-104.19"/>
</g>
<!-- Node33 -->
<g id="node33" class="node"><title>Node33</title>
<g id="a_node33"><a xlink:href="../../d1/daa/Base_2include_2DetectorsBase_2Constants_8h.html" target="_top" xlink:title="DetectorsBase/Constants.h">
<polygon fill="none" stroke="black" points="1913,-6.5 1913,-25.5 2051,-25.5 2051,-6.5 1913,-6.5"/>
<text text-anchor="middle" x="1982" y="-13.5" font-family="Helvetica,sans-Serif" font-size="10.00">DetectorsBase/Constants.h</text>
</a>
</g>
</g>
<!-- Node2&#45;&gt;Node33 -->
<g id="edge45" class="edge"><title>Node2&#45;&gt;Node33</title>
<path fill="none" stroke="midnightblue" d="M1665.29,-313.062C1765.5,-312.114 1963.03,-305.388 2020,-268 2047.79,-249.761 2057,-236.241 2057,-203 2057,-203 2057,-203 2057,-145 2057,-99.1514 2020.74,-55.1742 1998.64,-32.6347"/>
<polygon fill="midnightblue" stroke="midnightblue" points="2001.08,-30.1203 1991.5,-25.5884 1996.16,-35.1032 2001.08,-30.1203"/>
</g>
<!-- Node12&#45;&gt;Node9 -->
<g id="edge16" class="edge"><title>Node12&#45;&gt;Node9</title>
<path fill="none" stroke="midnightblue" d="M996.364,-251.607C828.226,-237.982 404.245,-196.181 63,-100 60.1896,-99.2079 57.3044,-98.257 54.4495,-97.2232"/>
<polygon fill="midnightblue" stroke="midnightblue" points="55.5985,-93.9141 45.0118,-93.5001 53.0297,-100.426 55.5985,-93.9141"/>
</g>
<!-- Node13 -->
<g id="node13" class="node"><title>Node13</title>
<polygon fill="none" stroke="#bfbfbf" points="940.5,-192.5 940.5,-211.5 999.5,-211.5 999.5,-192.5 940.5,-192.5"/>
<text text-anchor="middle" x="970" y="-199.5" font-family="Helvetica,sans-Serif" font-size="10.00">TObject.h</text>
</g>
<!-- Node12&#45;&gt;Node13 -->
<g id="edge12" class="edge"><title>Node12&#45;&gt;Node13</title>
<path fill="none" stroke="midnightblue" d="M1053.93,-248.324C1038.04,-239.743 1013.49,-226.486 995.042,-216.522"/>
<polygon fill="midnightblue" stroke="midnightblue" points="996.489,-213.326 986.027,-211.655 993.163,-219.486 996.489,-213.326"/>
</g>
<!-- Node14 -->
<g id="node14" class="node"><title>Node14</title>
<polygon fill="none" stroke="#bfbfbf" points="1017.5,-192.5 1017.5,-211.5 1058.5,-211.5 1058.5,-192.5 1017.5,-192.5"/>
<text text-anchor="middle" x="1038" y="-199.5" font-family="Helvetica,sans-Serif" font-size="10.00">bitset</text>
</g>
<!-- Node12&#45;&gt;Node14 -->
<g id="edge13" class="edge"><title>Node12&#45;&gt;Node14</title>
<path fill="none" stroke="midnightblue" d="M1064.72,-248.083C1060.29,-240.613 1053.84,-229.724 1048.38,-220.52"/>
<polygon fill="midnightblue" stroke="midnightblue" points="1051.29,-218.57 1043.19,-211.751 1045.27,-222.138 1051.29,-218.57"/>
</g>
<!-- Node15 -->
<g id="node15" class="node"><title>Node15</title>
<polygon fill="none" stroke="#bfbfbf" points="1077,-192.5 1077,-211.5 1127,-211.5 1127,-192.5 1077,-192.5"/>
<text text-anchor="middle" x="1102" y="-199.5" font-family="Helvetica,sans-Serif" font-size="10.00">iomanip</text>
</g>
<!-- Node12&#45;&gt;Node15 -->
<g id="edge14" class="edge"><title>Node12&#45;&gt;Node15</title>
<path fill="none" stroke="midnightblue" d="M1075.28,-248.083C1079.71,-240.613 1086.16,-229.724 1091.62,-220.52"/>
<polygon fill="midnightblue" stroke="midnightblue" points="1094.73,-222.138 1096.81,-211.751 1088.71,-218.57 1094.73,-222.138"/>
</g>
<!-- Node16 -->
<g id="node16" class="node"><title>Node16</title>
<polygon fill="none" stroke="#bfbfbf" points="1145.5,-192.5 1145.5,-211.5 1174.5,-211.5 1174.5,-192.5 1145.5,-192.5"/>
<text text-anchor="middle" x="1160" y="-199.5" font-family="Helvetica,sans-Serif" font-size="10.00">ios</text>
</g>
<!-- Node12&#45;&gt;Node16 -->
<g id="edge15" class="edge"><title>Node12&#45;&gt;Node16</title>
<path fill="none" stroke="midnightblue" d="M1084.46,-248.324C1098.5,-239.9 1120.05,-226.971 1136.54,-217.074"/>
<polygon fill="midnightblue" stroke="midnightblue" points="1138.8,-219.801 1145.58,-211.655 1135.2,-213.798 1138.8,-219.801"/>
</g>
<!-- Node12&#45;&gt;Node17 -->
<g id="edge17" class="edge"><title>Node12&#45;&gt;Node17</title>
<path fill="none" stroke="midnightblue" d="M1040.68,-248.448C1012.35,-239.962 968.34,-226.203 931,-212 888.11,-195.686 839.629,-173.694 810.198,-159.933"/>
<polygon fill="midnightblue" stroke="midnightblue" points="811.522,-156.688 800.983,-155.602 808.545,-163.023 811.522,-156.688"/>
</g>
<!-- Node27 -->
<g id="node27" class="node"><title>Node27</title>
<g id="a_node27"><a xlink:href="../../d4/d20/DetMatrixCache_8h.html" target="_top" xlink:title="DetectorsBase/DetMatrixCache.h">
<polygon fill="none" stroke="black" points="1193,-192.5 1193,-211.5 1357,-211.5 1357,-192.5 1193,-192.5"/>
<text text-anchor="middle" x="1275" y="-199.5" font-family="Helvetica,sans-Serif" font-size="10.00">DetectorsBase/DetMatrixCache.h</text>
</a>
</g>
</g>
<!-- Node12&#45;&gt;Node27 -->
<g id="edge29" class="edge"><title>Node12&#45;&gt;Node27</title>
<path fill="none" stroke="midnightblue" d="M1102.48,-248.444C1137.72,-239.162 1194.1,-224.309 1232.76,-214.127"/>
<polygon fill="midnightblue" stroke="midnightblue" points="1233.89,-217.448 1242.67,-211.516 1232.11,-210.679 1233.89,-217.448"/>
</g>
<!-- Node17&#45;&gt;Node3 -->
<g id="edge21" class="edge"><title>Node17&#45;&gt;Node3</title>
<path fill="none" stroke="midnightblue" d="M845.571,-140.038C941.397,-132.083 1119.92,-115.767 1182,-100 1184.99,-99.2396 1188.07,-98.2894 1191.1,-97.2386"/>
<polygon fill="midnightblue" stroke="midnightblue" points="1192.42,-100.483 1200.51,-93.6479 1189.92,-93.9426 1192.42,-100.483"/>
</g>
<!-- Node17&#45;&gt;Node9 -->
<g id="edge28" class="edge"><title>Node17&#45;&gt;Node9</title>
<path fill="none" stroke="midnightblue" d="M720.237,-143.742C568.877,-140.281 187.12,-128.879 63,-100 59.9335,-99.2865 56.7932,-98.3373 53.7071,-97.2616"/>
<polygon fill="midnightblue" stroke="midnightblue" points="54.7779,-93.922 44.1904,-93.5277 52.2211,-100.438 54.7779,-93.922"/>
</g>
<!-- Node18 -->
<g id="node18" class="node"><title>Node18</title>
<polygon fill="none" stroke="#bfbfbf" points="1024.5,-74.5 1024.5,-93.5 1173.5,-93.5 1173.5,-74.5 1024.5,-74.5"/>
<text text-anchor="middle" x="1099" y="-81.5" font-family="Helvetica,sans-Serif" font-size="10.00">Math/GenVector/Rotation3D.h</text>
</g>
<!-- Node17&#45;&gt;Node18 -->
<g id="edge18" class="edge"><title>Node17&#45;&gt;Node18</title>
<path fill="none" stroke="midnightblue" d="M827.94,-136.467C884.917,-125.649 983.087,-107.009 1044.34,-95.3781"/>
<polygon fill="midnightblue" stroke="midnightblue" points="1045.04,-98.8074 1054.22,-93.5034 1043.74,-91.9303 1045.04,-98.8074"/>
</g>
<!-- Node19 -->
<g id="node19" class="node"><title>Node19</title>
<polygon fill="none" stroke="#bfbfbf" points="72,-74.5 72,-93.5 228,-93.5 228,-74.5 72,-74.5"/>
<text text-anchor="middle" x="150" y="-81.5" font-family="Helvetica,sans-Serif" font-size="10.00">Math/GenVector/Transform3D.h</text>
</g>
<!-- Node17&#45;&gt;Node19 -->
<g id="edge19" class="edge"><title>Node17&#45;&gt;Node19</title>
<path fill="none" stroke="midnightblue" d="M720.169,-141.634C618.401,-135.776 411.318,-122.167 237,-100 226.63,-98.6813 215.61,-97.0006 205.023,-95.2444"/>
<polygon fill="midnightblue" stroke="midnightblue" points="205.486,-91.7729 195.041,-93.5467 204.312,-98.6738 205.486,-91.7729"/>
</g>
<!-- Node20 -->
<g id="node20" class="node"><title>Node20</title>
<polygon fill="none" stroke="#bfbfbf" points="246,-74.5 246,-93.5 406,-93.5 406,-74.5 246,-74.5"/>
<text text-anchor="middle" x="326" y="-81.5" font-family="Helvetica,sans-Serif" font-size="10.00">Math/GenVector/Translation3D.h</text>
</g>
<!-- Node17&#45;&gt;Node20 -->
<g id="edge20" class="edge"><title>Node17&#45;&gt;Node20</title>
<path fill="none" stroke="midnightblue" d="M720.376,-138.217C647.053,-130.072 522.009,-115.552 415,-100 405.115,-98.5633 394.634,-96.912 384.466,-95.242"/>
<polygon fill="midnightblue" stroke="midnightblue" points="384.877,-91.7622 374.438,-93.573 383.727,-98.6672 384.877,-91.7622"/>
</g>
<!-- Node21 -->
<g id="node21" class="node"><title>Node21</title>
<polygon fill="none" stroke="#bfbfbf" points="424,-74.5 424,-93.5 500,-93.5 500,-74.5 424,-74.5"/>
<text text-anchor="middle" x="462" y="-81.5" font-family="Helvetica,sans-Serif" font-size="10.00">TGeoMatrix.h</text>
</g>
<!-- Node17&#45;&gt;Node21 -->
<g id="edge22" class="edge"><title>Node17&#45;&gt;Node21</title>
<path fill="none" stroke="midnightblue" d="M720.454,-137.378C664.578,-129.942 580.714,-117.235 509,-100 504.878,-99.0093 500.592,-97.8409 496.361,-96.6005"/>
<polygon fill="midnightblue" stroke="midnightblue" points="497.275,-93.2201 486.688,-93.6256 495.218,-99.9108 497.275,-93.2201"/>
</g>
<!-- Node22 -->
<g id="node22" class="node"><title>Node22</title>
<polygon fill="none" stroke="#bfbfbf" points="518.5,-69 518.5,-99 669.5,-99 669.5,-69 518.5,-69"/>
<text text-anchor="start" x="526.5" y="-87" font-family="Helvetica,sans-Serif" font-size="10.00">Math/GenVector/Displacement</text>
<text text-anchor="middle" x="594" y="-76" font-family="Helvetica,sans-Serif" font-size="10.00">Vector3D.h</text>
</g>
<!-- Node17&#45;&gt;Node22 -->
<g id="edge23" class="edge"><title>Node17&#45;&gt;Node22</title>
<path fill="none" stroke="midnightblue" d="M755.921,-136.403C727.838,-127.488 683.18,-113.311 647.87,-102.101"/>
<polygon fill="midnightblue" stroke="midnightblue" points="648.77,-98.7152 638.18,-99.0253 646.652,-105.387 648.77,-98.7152"/>
</g>
<!-- Node23 -->
<g id="node23" class="node"><title>Node23</title>
<polygon fill="none" stroke="#bfbfbf" points="688,-74.5 688,-93.5 864,-93.5 864,-74.5 688,-74.5"/>
<text text-anchor="middle" x="776" y="-81.5" font-family="Helvetica,sans-Serif" font-size="10.00">Math/GenVector/PositionVector3D.h</text>
</g>
<!-- Node17&#45;&gt;Node23 -->
<g id="edge24" class="edge"><title>Node17&#45;&gt;Node23</title>
<path fill="none" stroke="midnightblue" d="M781.997,-136.403C781.009,-127.938 779.468,-114.728 778.196,-103.82"/>
<polygon fill="midnightblue" stroke="midnightblue" points="781.636,-103.108 777.001,-93.5806 774.684,-103.919 781.636,-103.108"/>
</g>
<!-- Node24 -->
<g id="node24" class="node"><title>Node24</title>
<g id="a_node24"><a xlink:href="../../d2/dd0/Cartesian2D_8h.html" target="_top" xlink:title="MathUtils/Cartesian2D.h">
<polygon fill="none" stroke="black" points="881.5,-74.5 881.5,-93.5 1006.5,-93.5 1006.5,-74.5 881.5,-74.5"/>
<text text-anchor="middle" x="944" y="-81.5" font-family="Helvetica,sans-Serif" font-size="10.00">MathUtils/Cartesian2D.h</text>
</a>
</g>
</g>
<!-- Node17&#45;&gt;Node24 -->
<g id="edge25" class="edge"><title>Node17&#45;&gt;Node24</title>
<path fill="none" stroke="midnightblue" d="M806.067,-136.403C833.685,-126.111 880.12,-108.806 911.396,-97.1504"/>
<polygon fill="midnightblue" stroke="midnightblue" points="912.827,-100.352 920.975,-93.5806 910.383,-93.7931 912.827,-100.352"/>
</g>
<!-- Node25 -->
<g id="node25" class="node"><title>Node25</title>
<polygon fill="none" stroke="#bfbfbf" points="777.5,-1 777.5,-31 928.5,-31 928.5,-1 777.5,-1"/>
<text text-anchor="start" x="785.5" y="-19" font-family="Helvetica,sans-Serif" font-size="10.00">Math/GenVector/Displacement</text>
<text text-anchor="middle" x="853" y="-8" font-family="Helvetica,sans-Serif" font-size="10.00">Vector2D.h</text>
</g>
<!-- Node24&#45;&gt;Node25 -->
<g id="edge26" class="edge"><title>Node24&#45;&gt;Node25</title>
<path fill="none" stroke="midnightblue" d="M932.103,-74.3717C919.221,-65.0286 898.22,-49.7966 881.093,-37.375"/>
<polygon fill="midnightblue" stroke="midnightblue" points="882.703,-34.2194 872.553,-31.1815 878.593,-39.8859 882.703,-34.2194"/>
</g>
<!-- Node26 -->
<g id="node26" class="node"><title>Node26</title>
<polygon fill="none" stroke="#bfbfbf" points="947,-6.5 947,-25.5 1123,-25.5 1123,-6.5 947,-6.5"/>
<text text-anchor="middle" x="1035" y="-13.5" font-family="Helvetica,sans-Serif" font-size="10.00">Math/GenVector/PositionVector2D.h</text>
</g>
<!-- Node24&#45;&gt;Node26 -->
<g id="edge27" class="edge"><title>Node24&#45;&gt;Node26</title>
<path fill="none" stroke="midnightblue" d="M955.897,-74.3717C970.884,-63.5015 996.862,-44.6602 1014.94,-31.5474"/>
<polygon fill="midnightblue" stroke="midnightblue" points="1017.06,-34.3349 1023.1,-25.6305 1012.95,-28.6684 1017.06,-34.3349"/>
</g>
<!-- Node27&#45;&gt;Node3 -->
<g id="edge43" class="edge"><title>Node27&#45;&gt;Node3</title>
<path fill="none" stroke="midnightblue" d="M1270.79,-192.281C1261.62,-173.294 1239.71,-127.892 1227.53,-102.662"/>
<polygon fill="midnightblue" stroke="midnightblue" points="1230.61,-100.989 1223.11,-93.5048 1224.3,-104.032 1230.61,-100.989"/>
</g>
<!-- Node27&#45;&gt;Node5 -->
<g id="edge31" class="edge"><title>Node27&#45;&gt;Node5</title>
<path fill="none" stroke="midnightblue" d="M1273.24,-192.45C1268.98,-169.041 1260.73,-103.308 1294,-68 1323.81,-36.3612 1454.88,-23.2576 1514.4,-18.8659"/>
<polygon fill="midnightblue" stroke="midnightblue" points="1514.91,-22.3386 1524.64,-18.1447 1514.42,-15.3559 1514.91,-22.3386"/>
</g>
<!-- Node27&#45;&gt;Node17 -->
<g id="edge32" class="edge"><title>Node27&#45;&gt;Node17</title>
<path fill="none" stroke="midnightblue" d="M1197.31,-192.473C1103.61,-182.189 947.325,-165.036 855.846,-154.995"/>
<polygon fill="midnightblue" stroke="midnightblue" points="856.16,-151.509 845.838,-153.897 855.396,-158.467 856.16,-151.509"/>
</g>
<!-- Node28 -->
<g id="node28" class="node"><title>Node28</title>
<polygon fill="none" stroke="#bfbfbf" points="1165,-136.5 1165,-155.5 1209,-155.5 1209,-136.5 1165,-136.5"/>
<text text-anchor="middle" x="1187" y="-143.5" font-family="Helvetica,sans-Serif" font-size="10.00">vector</text>
</g>
<!-- Node27&#45;&gt;Node28 -->
<g id="edge30" class="edge"><title>Node27&#45;&gt;Node28</title>
<path fill="none" stroke="midnightblue" d="M1260.86,-192.324C1247.13,-183.9 1226.06,-170.971 1209.94,-161.074"/>
<polygon fill="midnightblue" stroke="midnightblue" points="1211.46,-157.902 1201.1,-155.655 1207.8,-163.868 1211.46,-157.902"/>
</g>
<!-- Node29 -->
<g id="node29" class="node"><title>Node29</title>
<g id="a_node29"><a xlink:href="../../d6/d31/DetID_8h.html" target="_top" xlink:title="DetectorsBase/DetID.h">
<polygon fill="none" stroke="black" points="1303.5,-136.5 1303.5,-155.5 1422.5,-155.5 1422.5,-136.5 1303.5,-136.5"/>
<text text-anchor="middle" x="1363" y="-143.5" font-family="Helvetica,sans-Serif" font-size="10.00">DetectorsBase/DetID.h</text>
</a>
</g>
</g>
<!-- Node27&#45;&gt;Node29 -->
<g id="edge33" class="edge"><title>Node27&#45;&gt;Node29</title>
<path fill="none" stroke="midnightblue" d="M1289.14,-192.324C1302.87,-183.9 1323.94,-170.971 1340.06,-161.074"/>
<polygon fill="midnightblue" stroke="midnightblue" points="1342.2,-163.868 1348.9,-155.655 1338.54,-157.902 1342.2,-163.868"/>
</g>
<!-- Node27&#45;&gt;Node35 -->
<g id="edge44" class="edge"><title>Node27&#45;&gt;Node35</title>
<path fill="none" stroke="midnightblue" d="M1306.85,-192.444C1341.4,-183.162 1396.68,-168.309 1434.58,-158.127"/>
<polygon fill="midnightblue" stroke="midnightblue" points="1435.55,-161.491 1444.3,-155.516 1433.73,-154.731 1435.55,-161.491"/>
</g>
<!-- Node29&#45;&gt;Node3 -->
<g id="edge37" class="edge"><title>Node29&#45;&gt;Node3</title>
<path fill="none" stroke="midnightblue" d="M1342.37,-136.403C1317.88,-126.2 1276.85,-109.105 1248.89,-97.4544"/>
<polygon fill="midnightblue" stroke="midnightblue" points="1250.17,-94.196 1239.59,-93.5806 1247.48,-100.658 1250.17,-94.196"/>
</g>
<!-- Node29&#45;&gt;Node5 -->
<g id="edge35" class="edge"><title>Node29&#45;&gt;Node5</title>
<path fill="none" stroke="midnightblue" d="M1422.64,-137.316C1450.35,-131.141 1482.14,-120.019 1505,-100 1524.42,-82.9902 1534.89,-54.2232 1539.95,-35.4211"/>
<polygon fill="midnightblue" stroke="midnightblue" points="1543.36,-36.2113 1542.33,-25.6664 1536.56,-34.5502 1543.36,-36.2113"/>
</g>
<!-- Node30 -->
<g id="node30" class="node"><title>Node30</title>
<polygon fill="none" stroke="#bfbfbf" points="1303,-74.5 1303,-93.5 1349,-93.5 1349,-74.5 1303,-74.5"/>
<text text-anchor="middle" x="1326" y="-81.5" font-family="Helvetica,sans-Serif" font-size="10.00">cstdint</text>
</g>
<!-- Node29&#45;&gt;Node30 -->
<g id="edge34" class="edge"><title>Node29&#45;&gt;Node30</title>
<path fill="none" stroke="midnightblue" d="M1357.7,-136.403C1352.2,-127.493 1343.47,-113.325 1336.56,-102.118"/>
<polygon fill="midnightblue" stroke="midnightblue" points="1339.52,-100.255 1331.29,-93.5806 1333.56,-103.929 1339.52,-100.255"/>
</g>
<!-- Node31 -->
<g id="node31" class="node"><title>Node31</title>
<polygon fill="none" stroke="#bfbfbf" points="1367,-74.5 1367,-93.5 1429,-93.5 1429,-74.5 1367,-74.5"/>
<text text-anchor="middle" x="1398" y="-81.5" font-family="Helvetica,sans-Serif" font-size="10.00">type_traits</text>
</g>
<!-- Node29&#45;&gt;Node31 -->
<g id="edge36" class="edge"><title>Node29&#45;&gt;Node31</title>
<path fill="none" stroke="midnightblue" d="M1368.01,-136.403C1373.16,-127.582 1381.31,-113.608 1387.82,-102.455"/>
<polygon fill="midnightblue" stroke="midnightblue" points="1390.98,-103.982 1392.99,-93.5806 1384.93,-100.455 1390.98,-103.982"/>
</g>
<!-- Node29&#45;&gt;Node32 -->
<g id="edge38" class="edge"><title>Node29&#45;&gt;Node32</title>
<path fill="none" stroke="midnightblue" d="M1403.53,-136.467C1454.6,-125.716 1542.36,-107.239 1597.68,-95.5947"/>
<polygon fill="midnightblue" stroke="midnightblue" points="1598.54,-98.9885 1607.61,-93.5034 1597.1,-92.1386 1598.54,-98.9885"/>
</g>
<!-- Node34 -->
<g id="node34" class="node"><title>Node34</title>
<polygon fill="none" stroke="#bfbfbf" points="1447.5,-74.5 1447.5,-93.5 1496.5,-93.5 1496.5,-74.5 1447.5,-74.5"/>
<text text-anchor="middle" x="1472" y="-81.5" font-family="Helvetica,sans-Serif" font-size="10.00">cassert</text>
</g>
<!-- Node29&#45;&gt;Node34 -->
<g id="edge42" class="edge"><title>Node29&#45;&gt;Node34</title>
<path fill="none" stroke="midnightblue" d="M1378.62,-136.403C1396.59,-126.512 1426.32,-110.144 1447.41,-98.5378"/>
<polygon fill="midnightblue" stroke="midnightblue" points="1449.34,-101.469 1456.41,-93.5806 1445.96,-95.3367 1449.34,-101.469"/>
</g>
<!-- Node32&#45;&gt;Node5 -->
<g id="edge41" class="edge"><title>Node32&#45;&gt;Node5</title>
<path fill="none" stroke="midnightblue" d="M1634.4,-74.3717C1617.04,-63.3533 1586.77,-44.1449 1566.08,-31.0142"/>
<polygon fill="midnightblue" stroke="midnightblue" points="1567.92,-28.0336 1557.6,-25.6305 1564.17,-33.9439 1567.92,-28.0336"/>
</g>
<!-- Node32&#45;&gt;Node7 -->
<g id="edge40" class="edge"><title>Node32&#45;&gt;Node7</title>
<path fill="none" stroke="midnightblue" d="M1657.8,-74.3717C1669.87,-63.7581 1690.56,-45.5453 1705.4,-32.4855"/>
<polygon fill="midnightblue" stroke="midnightblue" points="1707.76,-35.0749 1712.95,-25.8411 1703.13,-29.8199 1707.76,-35.0749"/>
</g>
<!-- Node32&#45;&gt;Node33 -->
<g id="edge39" class="edge"><title>Node32&#45;&gt;Node33</title>
<path fill="none" stroke="midnightblue" d="M1691.32,-74.4393C1752.14,-62.4212 1862.75,-40.5646 1928.59,-27.5547"/>
<polygon fill="midnightblue" stroke="midnightblue" points="1929.62,-30.9178 1938.75,-25.5455 1928.27,-24.0506 1929.62,-30.9178"/>
</g>
</g>
</svg>
