<?xml version="1.0" encoding="UTF-8" standalone="no"?>
<!DOCTYPE svg PUBLIC "-//W3C//DTD SVG 1.1//EN"
 "http://www.w3.org/Graphics/SVG/1.1/DTD/svg11.dtd">
<!-- Generated by graphviz version 2.36.0 (20140111.2315)
 -->
<!-- Title: o2::Header::DataHeader Pages: 1 -->
<svg width="1386pt" height="1084pt"
 viewBox="0.00 0.00 1386.19 1084.00" xmlns="http://www.w3.org/2000/svg" xmlns:xlink="http://www.w3.org/1999/xlink">
<g id="graph0" class="graph" transform="scale(1 1) rotate(0) translate(4 1080)">
<title>o2::Header::DataHeader</title>
<!-- Node1 -->
<g id="node1" class="node"><title>Node1</title>
<polygon fill="#bfbfbf" stroke="black" points="661.688,-0.5 661.688,-189.5 784.688,-189.5 784.688,-0.5 661.688,-0.5"/>
<text text-anchor="middle" x="723.188" y="-177.5" font-family="Helvetica,sans-Serif" font-size="10.00">o2::Header::DataHeader</text>
<polyline fill="none" stroke="black" points="661.688,-170.5 784.688,-170.5 "/>
<text text-anchor="middle" x="723.188" y="-158.5" font-family="Helvetica,sans-Serif" font-size="10.00"> </text>
<polyline fill="none" stroke="black" points="661.688,-151.5 784.688,-151.5 "/>
<text text-anchor="start" x="669.688" y="-139.5" font-family="Helvetica,sans-Serif" font-size="10.00">+ DataHeader()</text>
<text text-anchor="start" x="669.688" y="-128.5" font-family="Helvetica,sans-Serif" font-size="10.00">+ DataHeader()</text>
<text text-anchor="start" x="669.688" y="-117.5" font-family="Helvetica,sans-Serif" font-size="10.00">+ DataHeader()</text>
<text text-anchor="start" x="669.688" y="-106.5" font-family="Helvetica,sans-Serif" font-size="10.00">+ operator=()</text>
<text text-anchor="start" x="669.688" y="-95.5" font-family="Helvetica,sans-Serif" font-size="10.00">+ operator=()</text>
<text text-anchor="start" x="669.688" y="-84.5" font-family="Helvetica,sans-Serif" font-size="10.00">+ operator=()</text>
<text text-anchor="start" x="669.688" y="-73.5" font-family="Helvetica,sans-Serif" font-size="10.00">+ operator=()</text>
<text text-anchor="start" x="669.688" y="-62.5" font-family="Helvetica,sans-Serif" font-size="10.00">+ operator==()</text>
<text text-anchor="start" x="669.688" y="-51.5" font-family="Helvetica,sans-Serif" font-size="10.00">+ operator==()</text>
<text text-anchor="start" x="669.688" y="-40.5" font-family="Helvetica,sans-Serif" font-size="10.00">+ operator==()</text>
<text text-anchor="start" x="669.688" y="-29.5" font-family="Helvetica,sans-Serif" font-size="10.00">+ operator==()</text>
<text text-anchor="start" x="669.688" y="-18.5" font-family="Helvetica,sans-Serif" font-size="10.00">+ print()</text>
<text text-anchor="start" x="669.688" y="-7.5" font-family="Helvetica,sans-Serif" font-size="10.00">+ Get()</text>
</g>
<!-- Node2 -->
<g id="node2" class="node"><title>Node2</title>
<g id="a_node2"><a xlink:href="../../d9/d75/structo2_1_1Header_1_1BaseHeader.html" target="_top" xlink:title="the base header struct Every header type must begin (i.e. derive) with this. Don&#39;t use this struct di...">
<polygon fill="none" stroke="black" points="137.688,-248.5 137.688,-371.5 262.688,-371.5 262.688,-248.5 137.688,-248.5"/>
<text text-anchor="middle" x="200.188" y="-359.5" font-family="Helvetica,sans-Serif" font-size="10.00">o2::Header::BaseHeader</text>
<polyline fill="none" stroke="black" points="137.688,-352.5 262.688,-352.5 "/>
<text text-anchor="middle" x="200.188" y="-340.5" font-family="Helvetica,sans-Serif" font-size="10.00"> </text>
<polyline fill="none" stroke="black" points="137.688,-333.5 262.688,-333.5 "/>
<text text-anchor="start" x="145.688" y="-321.5" font-family="Helvetica,sans-Serif" font-size="10.00">+ BaseHeader()</text>
<text text-anchor="start" x="145.688" y="-310.5" font-family="Helvetica,sans-Serif" font-size="10.00">+ BaseHeader()</text>
<text text-anchor="start" x="145.688" y="-299.5" font-family="Helvetica,sans-Serif" font-size="10.00">+ BaseHeader()</text>
<text text-anchor="start" x="145.688" y="-288.5" font-family="Helvetica,sans-Serif" font-size="10.00">+ size()</text>
<text text-anchor="start" x="145.688" y="-277.5" font-family="Helvetica,sans-Serif" font-size="10.00">+ data()</text>
<text text-anchor="start" x="145.688" y="-266.5" font-family="Helvetica,sans-Serif" font-size="10.00">+ next()</text>
<text text-anchor="start" x="145.688" y="-255.5" font-family="Helvetica,sans-Serif" font-size="10.00">+ get()</text>
</a>
</g>
</g>
<!-- Node2&#45;&gt;Node1 -->
<g id="edge1" class="edge"><title>Node2&#45;&gt;Node1</title>
<path fill="none" stroke="midnightblue" d="M272.083,-271.195C311.226,-251.265 360.803,-227.068 406.188,-208 493.364,-171.375 597.151,-136.253 661.616,-115.398"/>
<polygon fill="none" stroke="midnightblue" points="270.188,-268.233 262.877,-275.901 273.375,-274.465 270.188,-268.233"/>
</g>
<!-- Node3 -->
<g id="node3" class="node"><title>Node3</title>
<g id="a_node3"><a xlink:href="../../d0/da5/structo2_1_1Header_1_1Descriptor.html" target="_top" xlink:title="{o2::Header::Descriptor\l\&lt; gSizeHeaderDescriptionString \&gt;\n||+ Descriptor()\l+ Descriptor()\l+ Descriptor()\l+ Descriptor()\l+ operator=()\l+ operator ItgType()\l+ runtimeInit()\l+ operator==()\l+ operator==()\l+ operator!=()\l+ operator!=()\l+ print()\l}">
<polygon fill="none" stroke="black" points="459.188,-502.5 459.188,-691.5 625.188,-691.5 625.188,-502.5 459.188,-502.5"/>
<text text-anchor="start" x="467.188" y="-679.5" font-family="Helvetica,sans-Serif" font-size="10.00">o2::Header::Descriptor</text>
<text text-anchor="middle" x="542.188" y="-668.5" font-family="Helvetica,sans-Serif" font-size="10.00">&lt; gSizeHeaderDescriptionString &gt;</text>
<polyline fill="none" stroke="black" points="459.188,-661.5 625.188,-661.5 "/>
<text text-anchor="middle" x="542.188" y="-649.5" font-family="Helvetica,sans-Serif" font-size="10.00"> </text>
<polyline fill="none" stroke="black" points="459.188,-642.5 625.188,-642.5 "/>
<text text-anchor="start" x="467.188" y="-630.5" font-family="Helvetica,sans-Serif" font-size="10.00">+ Descriptor()</text>
<text text-anchor="start" x="467.188" y="-619.5" font-family="Helvetica,sans-Serif" font-size="10.00">+ Descriptor()</text>
<text text-anchor="start" x="467.188" y="-608.5" font-family="Helvetica,sans-Serif" font-size="10.00">+ Descriptor()</text>
<text text-anchor="start" x="467.188" y="-597.5" font-family="Helvetica,sans-Serif" font-size="10.00">+ Descriptor()</text>
<text text-anchor="start" x="467.188" y="-586.5" font-family="Helvetica,sans-Serif" font-size="10.00">+ operator=()</text>
<text text-anchor="start" x="467.188" y="-575.5" font-family="Helvetica,sans-Serif" font-size="10.00">+ operator ItgType()</text>
<text text-anchor="start" x="467.188" y="-564.5" font-family="Helvetica,sans-Serif" font-size="10.00">+ runtimeInit()</text>
<text text-anchor="start" x="467.188" y="-553.5" font-family="Helvetica,sans-Serif" font-size="10.00">+ operator==()</text>
<text text-anchor="start" x="467.188" y="-542.5" font-family="Helvetica,sans-Serif" font-size="10.00">+ operator==()</text>
<text text-anchor="start" x="467.188" y="-531.5" font-family="Helvetica,sans-Serif" font-size="10.00">+ operator!=()</text>
<text text-anchor="start" x="467.188" y="-520.5" font-family="Helvetica,sans-Serif" font-size="10.00">+ operator!=()</text>
<text text-anchor="start" x="467.188" y="-509.5" font-family="Helvetica,sans-Serif" font-size="10.00">+ print()</text>
</a>
</g>
</g>
<!-- Node3&#45;&gt;Node2 -->
<g id="edge2" class="edge"><title>Node3&#45;&gt;Node2</title>
<path fill="none" stroke="#404040" d="M458.994,-503.903C456.063,-501.197 453.124,-498.556 450.188,-496 439.587,-486.772 435.532,-486.297 424.188,-478 372.525,-440.215 361.523,-428.23 310.188,-390 298.135,-381.024 285.245,-371.606 272.685,-362.526"/>
<polygon fill="none" stroke="#404040" points="272.44,-362.349 265.234,-362.085 262.706,-355.331 269.913,-355.596 272.44,-362.349"/>
<text text-anchor="middle" x="452.688" y="-431.5" font-family="Helvetica,sans-Serif" font-size="10.00"> +description</text>
</g>
<!-- Node4 -->
<g id="node4" class="node"><title>Node4</title>
<polygon fill="none" stroke="#bfbfbf" points="1117.19,-1017.5 1117.19,-1074.5 1155.19,-1074.5 1155.19,-1017.5 1117.19,-1017.5"/>
<text text-anchor="middle" x="1136.19" y="-1062.5" font-family="Helvetica,sans-Serif" font-size="10.00">Type</text>
<polyline fill="none" stroke="#bfbfbf" points="1117.19,-1055.5 1155.19,-1055.5 "/>
<text text-anchor="middle" x="1136.19" y="-1043.5" font-family="Helvetica,sans-Serif" font-size="10.00"> </text>
<polyline fill="none" stroke="#bfbfbf" points="1117.19,-1036.5 1155.19,-1036.5 "/>
<text text-anchor="middle" x="1136.19" y="-1024.5" font-family="Helvetica,sans-Serif" font-size="10.00"> </text>
</g>
<!-- Node4&#45;&gt;Node3 -->
<g id="edge3" class="edge"><title>Node4&#45;&gt;Node3</title>
<path fill="none" stroke="#404040" d="M1132.65,-1017.19C1124.17,-953.555 1101.25,-799.467 1073.19,-756 1057.37,-731.503 1048.57,-726.028 1021.19,-716 940.347,-686.391 712.199,-734.418 634.188,-698 633.807,-697.822 633.427,-697.642 633.048,-697.46"/>
<polygon fill="none" stroke="#404040" points="632.817,-697.333 625.632,-697.949 622.3,-691.554 629.485,-690.938 632.817,-697.333"/>
<text text-anchor="middle" x="1132.19" y="-848.5" font-family="Helvetica,sans-Serif" font-size="10.00"> +itg</text>
</g>
<!-- Node8 -->
<g id="node8" class="node"><title>Node8</title>
<g id="a_node8"><a xlink:href="../../d0/da5/structo2_1_1Header_1_1Descriptor.html" target="_top" xlink:title="{o2::Header::Descriptor\l\&lt; N, PrinterPolicy \&gt;\n||+ Descriptor()\l+ Descriptor()\l+ Descriptor()\l+ operator=()\l+ operator ItgType()\l+ Descriptor()\l+ runtimeInit()\l+ operator==()\l+ operator!=()\l+ operator==()\l+ operator!=()\l+ print()\l}">
<polygon fill="none" stroke="black" points="536.188,-756.5 536.188,-945.5 652.188,-945.5 652.188,-756.5 536.188,-756.5"/>
<text text-anchor="start" x="544.188" y="-933.5" font-family="Helvetica,sans-Serif" font-size="10.00">o2::Header::Descriptor</text>
<text text-anchor="middle" x="594.188" y="-922.5" font-family="Helvetica,sans-Serif" font-size="10.00">&lt; N, PrinterPolicy &gt;</text>
<polyline fill="none" stroke="black" points="536.188,-915.5 652.188,-915.5 "/>
<text text-anchor="middle" x="594.188" y="-903.5" font-family="Helvetica,sans-Serif" font-size="10.00"> </text>
<polyline fill="none" stroke="black" points="536.188,-896.5 652.188,-896.5 "/>
<text text-anchor="start" x="544.188" y="-884.5" font-family="Helvetica,sans-Serif" font-size="10.00">+ Descriptor()</text>
<text text-anchor="start" x="544.188" y="-873.5" font-family="Helvetica,sans-Serif" font-size="10.00">+ Descriptor()</text>
<text text-anchor="start" x="544.188" y="-862.5" font-family="Helvetica,sans-Serif" font-size="10.00">+ Descriptor()</text>
<text text-anchor="start" x="544.188" y="-851.5" font-family="Helvetica,sans-Serif" font-size="10.00">+ operator=()</text>
<text text-anchor="start" x="544.188" y="-840.5" font-family="Helvetica,sans-Serif" font-size="10.00">+ operator ItgType()</text>
<text text-anchor="start" x="544.188" y="-829.5" font-family="Helvetica,sans-Serif" font-size="10.00">+ Descriptor()</text>
<text text-anchor="start" x="544.188" y="-818.5" font-family="Helvetica,sans-Serif" font-size="10.00">+ runtimeInit()</text>
<text text-anchor="start" x="544.188" y="-807.5" font-family="Helvetica,sans-Serif" font-size="10.00">+ operator==()</text>
<text text-anchor="start" x="544.188" y="-796.5" font-family="Helvetica,sans-Serif" font-size="10.00">+ operator!=()</text>
<text text-anchor="start" x="544.188" y="-785.5" font-family="Helvetica,sans-Serif" font-size="10.00">+ operator==()</text>
<text text-anchor="start" x="544.188" y="-774.5" font-family="Helvetica,sans-Serif" font-size="10.00">+ operator!=()</text>
<text text-anchor="start" x="544.188" y="-763.5" font-family="Helvetica,sans-Serif" font-size="10.00">+ print()</text>
</a>
</g>
</g>
<!-- Node4&#45;&gt;Node8 -->
<g id="edge8" class="edge"><title>Node4&#45;&gt;Node8</title>
<path fill="none" stroke="#404040" d="M1117.09,-1041.08C1031.15,-1023.43 684.058,-951.895 674.188,-946 669.841,-943.404 665.616,-940.487 661.526,-937.329"/>
<polygon fill="none" stroke="#404040" points="661.443,-937.26 654.274,-936.482 652.236,-929.565 659.405,-930.343 661.443,-937.26"/>
<text text-anchor="middle" x="906.188" y="-978.5" font-family="Helvetica,sans-Serif" font-size="10.00"> +itg</text>
</g>
<!-- Node9 -->
<g id="node9" class="node"><title>Node9</title>
<g id="a_node9"><a xlink:href="../../d0/da5/structo2_1_1Header_1_1Descriptor.html" target="_top" xlink:title="{o2::Header::Descriptor\l\&lt; gSizeSerializationMethodString \&gt;\n||+ Descriptor()\l+ Descriptor()\l+ Descriptor()\l+ Descriptor()\l+ operator=()\l+ operator ItgType()\l+ runtimeInit()\l+ operator==()\l+ operator==()\l+ operator!=()\l+ operator!=()\l+ print()\l}">
<polygon fill="none" stroke="black" points="271.188,-502.5 271.188,-691.5 441.188,-691.5 441.188,-502.5 271.188,-502.5"/>
<text text-anchor="start" x="279.188" y="-679.5" font-family="Helvetica,sans-Serif" font-size="10.00">o2::Header::Descriptor</text>
<text text-anchor="middle" x="356.188" y="-668.5" font-family="Helvetica,sans-Serif" font-size="10.00">&lt; gSizeSerializationMethodString &gt;</text>
<polyline fill="none" stroke="black" points="271.188,-661.5 441.188,-661.5 "/>
<text text-anchor="middle" x="356.188" y="-649.5" font-family="Helvetica,sans-Serif" font-size="10.00"> </text>
<polyline fill="none" stroke="black" points="271.188,-642.5 441.188,-642.5 "/>
<text text-anchor="start" x="279.188" y="-630.5" font-family="Helvetica,sans-Serif" font-size="10.00">+ Descriptor()</text>
<text text-anchor="start" x="279.188" y="-619.5" font-family="Helvetica,sans-Serif" font-size="10.00">+ Descriptor()</text>
<text text-anchor="start" x="279.188" y="-608.5" font-family="Helvetica,sans-Serif" font-size="10.00">+ Descriptor()</text>
<text text-anchor="start" x="279.188" y="-597.5" font-family="Helvetica,sans-Serif" font-size="10.00">+ Descriptor()</text>
<text text-anchor="start" x="279.188" y="-586.5" font-family="Helvetica,sans-Serif" font-size="10.00">+ operator=()</text>
<text text-anchor="start" x="279.188" y="-575.5" font-family="Helvetica,sans-Serif" font-size="10.00">+ operator ItgType()</text>
<text text-anchor="start" x="279.188" y="-564.5" font-family="Helvetica,sans-Serif" font-size="10.00">+ runtimeInit()</text>
<text text-anchor="start" x="279.188" y="-553.5" font-family="Helvetica,sans-Serif" font-size="10.00">+ operator==()</text>
<text text-anchor="start" x="279.188" y="-542.5" font-family="Helvetica,sans-Serif" font-size="10.00">+ operator==()</text>
<text text-anchor="start" x="279.188" y="-531.5" font-family="Helvetica,sans-Serif" font-size="10.00">+ operator!=()</text>
<text text-anchor="start" x="279.188" y="-520.5" font-family="Helvetica,sans-Serif" font-size="10.00">+ operator!=()</text>
<text text-anchor="start" x="279.188" y="-509.5" font-family="Helvetica,sans-Serif" font-size="10.00">+ print()</text>
</a>
</g>
</g>
<!-- Node4&#45;&gt;Node9 -->
<g id="edge15" class="edge"><title>Node4&#45;&gt;Node9</title>
<path fill="none" stroke="#404040" d="M1117.11,-1036.91C1079.79,-1021.3 994.322,-986.581 920.188,-964 886.982,-953.886 867.604,-971.625 844.188,-946 774.527,-869.765 887.515,-785.561 811.188,-716 781.505,-688.948 486.641,-714.854 450.188,-698 449.803,-697.822 449.418,-697.641 449.035,-697.459"/>
<polygon fill="none" stroke="#404040" points="448.691,-697.272 441.509,-697.923 438.146,-691.544 445.327,-690.893 448.691,-697.272"/>
<text text-anchor="middle" x="854.188" y="-848.5" font-family="Helvetica,sans-Serif" font-size="10.00"> +itg</text>
</g>
<!-- Node12 -->
<g id="node12" class="node"><title>Node12</title>
<g id="a_node12"><a xlink:href="../../d0/da5/structo2_1_1Header_1_1Descriptor.html" target="_top" xlink:title="{o2::Header::Descriptor\l\&lt; gSizeDataOriginString,\l printDataOrigin \&gt;\n||+ Descriptor()\l+ Descriptor()\l+ Descriptor()\l+ Descriptor()\l+ operator=()\l+ operator ItgType()\l+ runtimeInit()\l+ operator==()\l+ operator==()\l+ operator!=()\l+ operator!=()\l+ print()\l}">
<polygon fill="none" stroke="black" points="791.688,-497 791.688,-697 916.688,-697 916.688,-497 791.688,-497"/>
<text text-anchor="start" x="799.688" y="-685" font-family="Helvetica,sans-Serif" font-size="10.00">o2::Header::Descriptor</text>
<text text-anchor="start" x="799.688" y="-674" font-family="Helvetica,sans-Serif" font-size="10.00">&lt; gSizeDataOriginString,</text>
<text text-anchor="middle" x="854.188" y="-663" font-family="Helvetica,sans-Serif" font-size="10.00"> printDataOrigin &gt;</text>
<polyline fill="none" stroke="black" points="791.688,-656 916.688,-656 "/>
<text text-anchor="middle" x="854.188" y="-644" font-family="Helvetica,sans-Serif" font-size="10.00"> </text>
<polyline fill="none" stroke="black" points="791.688,-637 916.688,-637 "/>
<text text-anchor="start" x="799.688" y="-625" font-family="Helvetica,sans-Serif" font-size="10.00">+ Descriptor()</text>
<text text-anchor="start" x="799.688" y="-614" font-family="Helvetica,sans-Serif" font-size="10.00">+ Descriptor()</text>
<text text-anchor="start" x="799.688" y="-603" font-family="Helvetica,sans-Serif" font-size="10.00">+ Descriptor()</text>
<text text-anchor="start" x="799.688" y="-592" font-family="Helvetica,sans-Serif" font-size="10.00">+ Descriptor()</text>
<text text-anchor="start" x="799.688" y="-581" font-family="Helvetica,sans-Serif" font-size="10.00">+ operator=()</text>
<text text-anchor="start" x="799.688" y="-570" font-family="Helvetica,sans-Serif" font-size="10.00">+ operator ItgType()</text>
<text text-anchor="start" x="799.688" y="-559" font-family="Helvetica,sans-Serif" font-size="10.00">+ runtimeInit()</text>
<text text-anchor="start" x="799.688" y="-548" font-family="Helvetica,sans-Serif" font-size="10.00">+ operator==()</text>
<text text-anchor="start" x="799.688" y="-537" font-family="Helvetica,sans-Serif" font-size="10.00">+ operator==()</text>
<text text-anchor="start" x="799.688" y="-526" font-family="Helvetica,sans-Serif" font-size="10.00">+ operator!=()</text>
<text text-anchor="start" x="799.688" y="-515" font-family="Helvetica,sans-Serif" font-size="10.00">+ operator!=()</text>
<text text-anchor="start" x="799.688" y="-504" font-family="Helvetica,sans-Serif" font-size="10.00">+ print()</text>
</a>
</g>
</g>
<!-- Node4&#45;&gt;Node12 -->
<g id="edge25" class="edge"><title>Node4&#45;&gt;Node12</title>
<path fill="none" stroke="#404040" d="M1145.16,-1017.15C1163.5,-954.201 1197.33,-799.926 1119.19,-716 1101.66,-697.176 1088.07,-707.549 1064.19,-698 1018.09,-679.569 967.837,-655.778 928.05,-636.025"/>
<polygon fill="none" stroke="#404040" points="927.855,-635.928 920.7,-636.828 917.118,-630.569 924.272,-629.67 927.855,-635.928"/>
<text text-anchor="middle" x="1179.19" y="-848.5" font-family="Helvetica,sans-Serif" font-size="10.00"> +itg</text>
</g>
<!-- Node13 -->
<g id="node13" class="node"><title>Node13</title>
<g id="a_node13"><a xlink:href="../../d0/da5/structo2_1_1Header_1_1Descriptor.html" target="_top" xlink:title="{o2::Header::Descriptor\l\&lt; gSizeDataDescriptionString,\l printDataDescription \&gt;\n||+ Descriptor()\l+ Descriptor()\l+ Descriptor()\l+ Descriptor()\l+ operator=()\l+ operator ItgType()\l+ runtimeInit()\l+ operator==()\l+ operator==()\l+ operator!=()\l+ operator!=()\l+ print()\l}">
<polygon fill="none" stroke="black" points="1073.69,-497 1073.69,-697 1222.69,-697 1222.69,-497 1073.69,-497"/>
<text text-anchor="start" x="1081.69" y="-685" font-family="Helvetica,sans-Serif" font-size="10.00">o2::Header::Descriptor</text>
<text text-anchor="start" x="1081.69" y="-674" font-family="Helvetica,sans-Serif" font-size="10.00">&lt; gSizeDataDescriptionString,</text>
<text text-anchor="middle" x="1148.19" y="-663" font-family="Helvetica,sans-Serif" font-size="10.00"> printDataDescription &gt;</text>
<polyline fill="none" stroke="black" points="1073.69,-656 1222.69,-656 "/>
<text text-anchor="middle" x="1148.19" y="-644" font-family="Helvetica,sans-Serif" font-size="10.00"> </text>
<polyline fill="none" stroke="black" points="1073.69,-637 1222.69,-637 "/>
<text text-anchor="start" x="1081.69" y="-625" font-family="Helvetica,sans-Serif" font-size="10.00">+ Descriptor()</text>
<text text-anchor="start" x="1081.69" y="-614" font-family="Helvetica,sans-Serif" font-size="10.00">+ Descriptor()</text>
<text text-anchor="start" x="1081.69" y="-603" font-family="Helvetica,sans-Serif" font-size="10.00">+ Descriptor()</text>
<text text-anchor="start" x="1081.69" y="-592" font-family="Helvetica,sans-Serif" font-size="10.00">+ Descriptor()</text>
<text text-anchor="start" x="1081.69" y="-581" font-family="Helvetica,sans-Serif" font-size="10.00">+ operator=()</text>
<text text-anchor="start" x="1081.69" y="-570" font-family="Helvetica,sans-Serif" font-size="10.00">+ operator ItgType()</text>
<text text-anchor="start" x="1081.69" y="-559" font-family="Helvetica,sans-Serif" font-size="10.00">+ runtimeInit()</text>
<text text-anchor="start" x="1081.69" y="-548" font-family="Helvetica,sans-Serif" font-size="10.00">+ operator==()</text>
<text text-anchor="start" x="1081.69" y="-537" font-family="Helvetica,sans-Serif" font-size="10.00">+ operator==()</text>
<text text-anchor="start" x="1081.69" y="-526" font-family="Helvetica,sans-Serif" font-size="10.00">+ operator!=()</text>
<text text-anchor="start" x="1081.69" y="-515" font-family="Helvetica,sans-Serif" font-size="10.00">+ operator!=()</text>
<text text-anchor="start" x="1081.69" y="-504" font-family="Helvetica,sans-Serif" font-size="10.00">+ print()</text>
</a>
</g>
</g>
<!-- Node4&#45;&gt;Node13 -->
<g id="edge31" class="edge"><title>Node4&#45;&gt;Node13</title>
<path fill="none" stroke="#404040" d="M1155.43,-1041.86C1196.12,-1034.05 1290.32,-1009.63 1329.19,-946 1373.21,-873.939 1361.98,-833.816 1329.19,-756 1310.15,-710.836 1270.46,-673.846 1233.08,-647.041"/>
<polygon fill="none" stroke="#404040" points="1232.98,-646.966 1225.77,-646.814 1223.14,-640.1 1230.35,-640.253 1232.98,-646.966"/>
<text text-anchor="middle" x="1368.19" y="-848.5" font-family="Helvetica,sans-Serif" font-size="10.00"> +itg</text>
</g>
<!-- Node5 -->
<g id="node5" class="node"><title>Node5</title>
<polygon fill="none" stroke="#bfbfbf" points="154.688,-1017 154.688,-1075 183.688,-1075 183.688,-1017 154.688,-1017"/>
<polyline fill="none" stroke="#bfbfbf" points="154.688,-1055 183.688,-1055 "/>
<text text-anchor="middle" x="169.188" y="-1043" font-family="Helvetica,sans-Serif" font-size="10.00"> </text>
<polyline fill="none" stroke="#bfbfbf" points="154.688,-1036 183.688,-1036 "/>
<text text-anchor="middle" x="169.188" y="-1024" font-family="Helvetica,sans-Serif" font-size="10.00"> </text>
</g>
<!-- Node5&#45;&gt;Node2 -->
<g id="edge13" class="edge"><title>Node5&#45;&gt;Node2</title>
<path fill="none" stroke="#404040" d="M154.464,-1043.97C128.434,-1041.29 74.5514,-1031.74 48.188,-998 -29.5065,-898.566 8.82552,-842.028 15.188,-716 22.5307,-570.556 -33.5812,-510.506 48.188,-390 66.5417,-362.952 97.1537,-344.567 126.115,-332.392"/>
<polygon fill="none" stroke="#404040" points="126.373,-332.29 130.477,-326.36 137.528,-327.867 133.425,-333.797 126.373,-332.29"/>
<text text-anchor="middle" x="27.688" y="-724.5" font-family="Helvetica,sans-Serif" font-size="10.00"> +@5</text>
</g>
<!-- Node5&#45;&gt;Node2 -->
<g id="edge20" class="edge"><title>Node5&#45;&gt;Node2</title>
<path fill="none" stroke="#404040" d="M154.523,-1031.64C136.406,-1014.05 106.474,-981.222 94.188,-946 63.4052,-857.749 70.0958,-831.21 63.188,-738 53.3357,-605.059 -5.56567,-571.474 96.188,-390 104.009,-376.052 115.413,-363.794 127.833,-353.353"/>
<polygon fill="none" stroke="#404040" points="128.071,-353.165 130.298,-346.306 137.486,-345.725 135.258,-352.583 128.071,-353.165"/>
<text text-anchor="middle" x="75.688" y="-724.5" font-family="Helvetica,sans-Serif" font-size="10.00"> +@7</text>
</g>
<!-- Node5&#45;&gt;Node3 -->
<g id="edge4" class="edge"><title>Node5&#45;&gt;Node3</title>
<path fill="none" stroke="#404040" d="M164.855,-1016.85C157.82,-960.197 150.573,-831.434 215.188,-756 252.859,-712.021 282.891,-729.562 339.188,-716 387.776,-704.295 406.183,-721.693 450.188,-698 450.302,-697.939 450.415,-697.877 450.529,-697.816"/>
<polygon fill="none" stroke="#404040" points="450.61,-697.767 453.68,-691.242 460.884,-691.566 457.814,-698.091 450.61,-697.767"/>
<text text-anchor="middle" x="227.688" y="-848.5" font-family="Helvetica,sans-Serif" font-size="10.00"> +@3</text>
</g>
<!-- Node5&#45;&gt;Node8 -->
<g id="edge9" class="edge"><title>Node5&#45;&gt;Node8</title>
<path fill="none" stroke="#404040" d="M183.811,-1040.65C224.802,-1028.25 343.916,-990.673 437.188,-946 467.035,-931.704 498.589,-913.478 525.517,-896.887"/>
<polygon fill="none" stroke="#404040" points="525.791,-896.717 528.774,-890.152 535.981,-890.38 532.999,-896.945 525.791,-896.717"/>
<text text-anchor="middle" x="407.688" y="-978.5" font-family="Helvetica,sans-Serif" font-size="10.00"> +@3</text>
</g>
<!-- Node5&#45;&gt;Node9 -->
<g id="edge16" class="edge"><title>Node5&#45;&gt;Node9</title>
<path fill="none" stroke="#404040" d="M154.584,-1020.71C124.686,-967.487 64.0212,-838.761 122.188,-756 135.769,-736.677 150.367,-747.038 172.188,-738 210.762,-722.022 223.089,-722.094 257.188,-698 258.653,-696.965 260.116,-695.907 261.575,-694.828"/>
<polygon fill="none" stroke="#404040" points="261.648,-694.771 263.946,-687.936 271.14,-687.429 268.841,-694.264 261.648,-694.771"/>
<text text-anchor="middle" x="134.688" y="-848.5" font-family="Helvetica,sans-Serif" font-size="10.00"> +@3</text>
</g>
<!-- Node5&#45;&gt;Node12 -->
<g id="edge26" class="edge"><title>Node5&#45;&gt;Node12</title>
<path fill="none" stroke="#404040" d="M183.812,-1042.66C218.61,-1037.18 309.118,-1023.4 385.188,-1016 418.093,-1012.8 658.843,-1021.41 682.188,-998 720.226,-959.858 660.109,-796 696.188,-756 729.662,-718.888 769.087,-770.343 807.188,-738 816.89,-729.764 824.597,-719.459 830.717,-708.196"/>
<polygon fill="none" stroke="#404040" points="830.849,-707.925 829.886,-700.779 836.112,-697.141 837.075,-704.288 830.849,-707.925"/>
<text text-anchor="middle" x="708.688" y="-848.5" font-family="Helvetica,sans-Serif" font-size="10.00"> +@3</text>
</g>
<!-- Node5&#45;&gt;Node13 -->
<g id="edge32" class="edge"><title>Node5&#45;&gt;Node13</title>
<path fill="none" stroke="#404040" d="M183.81,-1042.64C218.604,-1037.11 309.103,-1023.25 385.188,-1016 526.954,-1002.49 923.849,-1049 1022.19,-946 1051.54,-915.257 1029.66,-795.946 1044.19,-756 1050.26,-739.29 1058.42,-722.582 1067.51,-706.621"/>
<polygon fill="none" stroke="#404040" points="1067.52,-706.595 1067.11,-699.396 1073.6,-696.248 1074.01,-703.448 1067.52,-706.595"/>
<text text-anchor="middle" x="1056.69" y="-848.5" font-family="Helvetica,sans-Serif" font-size="10.00"> +@3</text>
</g>
<!-- Node6 -->
<g id="node6" class="node"><title>Node6</title>
<polygon fill="none" stroke="#bfbfbf" points="394.688,-1017.5 394.688,-1074.5 429.688,-1074.5 429.688,-1017.5 394.688,-1017.5"/>
<text text-anchor="middle" x="412.188" y="-1062.5" font-family="Helvetica,sans-Serif" font-size="10.00">char</text>
<polyline fill="none" stroke="#bfbfbf" points="394.688,-1055.5 429.688,-1055.5 "/>
<text text-anchor="middle" x="412.188" y="-1043.5" font-family="Helvetica,sans-Serif" font-size="10.00"> </text>
<polyline fill="none" stroke="#bfbfbf" points="394.688,-1036.5 429.688,-1036.5 "/>
<text text-anchor="middle" x="412.188" y="-1024.5" font-family="Helvetica,sans-Serif" font-size="10.00"> </text>
</g>
<!-- Node6&#45;&gt;Node2 -->
<g id="edge12" class="edge"><title>Node6&#45;&gt;Node2</title>
<path fill="none" stroke="#404040" d="M394.276,-1041.49C368.203,-1035.73 319.109,-1022.42 284.188,-998 259.377,-980.651 252.934,-973.461 240.188,-946 204.136,-868.325 254.159,-828.248 208.188,-756 196.011,-736.862 134.728,-718.087 124.188,-698 60.5547,-576.734 80.6101,-516.452 133.188,-390 134.295,-387.338 135.526,-384.699 136.861,-382.092"/>
<polygon fill="none" stroke="#404040" points="136.924,-381.982 136.434,-374.787 142.886,-371.567 143.377,-378.762 136.924,-381.982"/>
<text text-anchor="middle" x="215.688" y="-724.5" font-family="Helvetica,sans-Serif" font-size="10.00"> +magicString</text>
</g>
<!-- Node6&#45;&gt;Node3 -->
<g id="edge5" class="edge"><title>Node6&#45;&gt;Node3</title>
<path fill="none" stroke="#404040" d="M394.59,-1028.39C376.683,-1010.16 350.061,-979.067 339.188,-946 312.81,-865.781 321.467,-838.564 339.188,-756 343.279,-736.939 341.902,-728.099 357.188,-716 390.199,-689.871 413.427,-718.52 450.188,-698 450.297,-697.939 450.407,-697.878 450.516,-697.816"/>
<polygon fill="none" stroke="#404040" points="450.307,-697.946 453.301,-691.385 460.508,-691.625 457.515,-698.185 450.307,-697.946"/>
<text text-anchor="middle" x="349.688" y="-848.5" font-family="Helvetica,sans-Serif" font-size="10.00"> +str</text>
</g>
<!-- Node6&#45;&gt;Node8 -->
<g id="edge10" class="edge"><title>Node6&#45;&gt;Node8</title>
<path fill="none" stroke="#404040" d="M429.97,-1026.14C452.494,-1002.26 492.584,-959.744 527.514,-922.703"/>
<polygon fill="none" stroke="#404040" points="527.571,-922.643 528.777,-915.534 535.804,-913.913 534.598,-921.022 527.571,-922.643"/>
<text text-anchor="middle" x="497.688" y="-978.5" font-family="Helvetica,sans-Serif" font-size="10.00"> +str</text>
</g>
<!-- Node6&#45;&gt;Node9 -->
<g id="edge17" class="edge"><title>Node6&#45;&gt;Node9</title>
<path fill="none" stroke="#404040" d="M394.572,-1040.45C372.772,-1034.08 335.555,-1020.65 311.188,-998 291.804,-979.986 290.186,-971.224 282.188,-946 251.15,-848.114 225.8,-812.76 260.188,-716 261.808,-711.441 263.688,-706.93 265.782,-702.484"/>
<polygon fill="none" stroke="#404040" points="265.907,-702.242 265.1,-695.076 271.404,-691.575 272.211,-698.741 265.907,-702.242"/>
<text text-anchor="middle" x="292.688" y="-848.5" font-family="Helvetica,sans-Serif" font-size="10.00"> +str</text>
</g>
<!-- Node6&#45;&gt;Node12 -->
<g id="edge27" class="edge"><title>Node6&#45;&gt;Node12</title>
<path fill="none" stroke="#404040" d="M429.804,-1044.16C507.144,-1040.08 815.115,-1019.34 868.188,-946 894.722,-909.333 885.434,-796.539 873.147,-709.196"/>
<polygon fill="none" stroke="#404040" points="873.109,-708.928 868.294,-703.56 871.397,-697.051 876.212,-702.419 873.109,-708.928"/>
<text text-anchor="middle" x="896.688" y="-848.5" font-family="Helvetica,sans-Serif" font-size="10.00"> +str</text>
</g>
<!-- Node6&#45;&gt;Node13 -->
<g id="edge33" class="edge"><title>Node6&#45;&gt;Node13</title>
<path fill="none" stroke="#404040" d="M429.923,-1043.25C478.435,-1038.49 617.434,-1025.07 733.188,-1016 793.358,-1011.28 950.49,-1025.55 1004.19,-998 1021.6,-989.063 1014.98,-973.327 1032.19,-964 1063.84,-946.848 1169.19,-972.833 1193.19,-946 1221.34,-914.529 1199.03,-797.817 1193.19,-756 1191.05,-740.693 1187.8,-724.788 1184.01,-709.222"/>
<polygon fill="none" stroke="#404040" points="1183.96,-709.033 1178.61,-704.2 1181.01,-697.401 1186.36,-702.234 1183.96,-709.033"/>
<text text-anchor="middle" x="1217.69" y="-848.5" font-family="Helvetica,sans-Serif" font-size="10.00"> +str</text>
</g>
<!-- Node7 -->
<g id="node7" class="node"><title>Node7</title>
<polygon fill="none" stroke="#bfbfbf" points="742.688,-1017.5 742.688,-1074.5 771.688,-1074.5 771.688,-1017.5 742.688,-1017.5"/>
<text text-anchor="middle" x="757.188" y="-1062.5" font-family="Helvetica,sans-Serif" font-size="10.00">int</text>
<polyline fill="none" stroke="#bfbfbf" points="742.688,-1055.5 771.688,-1055.5 "/>
<text text-anchor="middle" x="757.188" y="-1043.5" font-family="Helvetica,sans-Serif" font-size="10.00"> </text>
<polyline fill="none" stroke="#bfbfbf" points="742.688,-1036.5 771.688,-1036.5 "/>
<text text-anchor="middle" x="757.188" y="-1024.5" font-family="Helvetica,sans-Serif" font-size="10.00"> </text>
</g>
<!-- Node7&#45;&gt;Node3 -->
<g id="edge6" class="edge"><title>Node7&#45;&gt;Node3</title>
<path fill="none" stroke="#404040" d="M757.78,-1017.15C758.584,-952.705 757.121,-795.746 725.188,-756 709.607,-736.607 693.142,-751.408 672.188,-738 655.761,-727.489 640.022,-714.421 625.522,-700.525"/>
<polygon fill="none" stroke="#404040" points="625.201,-700.209 618.121,-698.843 616.658,-691.782 623.739,-693.148 625.201,-700.209"/>
<text text-anchor="middle" x="783.688" y="-859.5" font-family="Helvetica,sans-Serif" font-size="10.00"> +arraySize</text>
<text text-anchor="middle" x="783.688" y="-848.5" font-family="Helvetica,sans-Serif" font-size="10.00">+size</text>
<text text-anchor="middle" x="783.688" y="-837.5" font-family="Helvetica,sans-Serif" font-size="10.00">+bitcount</text>
</g>
<!-- Node7&#45;&gt;Node8 -->
<g id="edge11" class="edge"><title>Node7&#45;&gt;Node8</title>
<path fill="none" stroke="#404040" d="M742.624,-1036.57C728.65,-1028.02 707.472,-1013.83 692.188,-998 679.75,-985.12 667.867,-970.478 656.938,-955.558"/>
<polygon fill="none" stroke="#404040" points="656.885,-955.484 650.139,-952.936 649.897,-945.729 656.643,-948.277 656.885,-955.484"/>
<text text-anchor="middle" x="717.688" y="-989.5" font-family="Helvetica,sans-Serif" font-size="10.00"> +arraySize</text>
<text text-anchor="middle" x="717.688" y="-978.5" font-family="Helvetica,sans-Serif" font-size="10.00">+size</text>
<text text-anchor="middle" x="717.688" y="-967.5" font-family="Helvetica,sans-Serif" font-size="10.00">+bitcount</text>
</g>
<!-- Node7&#45;&gt;Node9 -->
<g id="edge18" class="edge"><title>Node7&#45;&gt;Node9</title>
<path fill="none" stroke="#404040" d="M742.646,-1044.6C688.86,-1042.84 501.99,-1034.19 457.188,-998 360.88,-920.197 380.225,-859.646 357.188,-738 355.107,-727.011 353.742,-715.449 352.902,-703.875"/>
<polygon fill="none" stroke="#404040" points="352.899,-703.813 348.561,-698.053 352.21,-691.833 356.548,-697.593 352.899,-703.813"/>
<text text-anchor="middle" x="432.688" y="-859.5" font-family="Helvetica,sans-Serif" font-size="10.00"> +arraySize</text>
<text text-anchor="middle" x="432.688" y="-848.5" font-family="Helvetica,sans-Serif" font-size="10.00">+size</text>
<text text-anchor="middle" x="432.688" y="-837.5" font-family="Helvetica,sans-Serif" font-size="10.00">+bitcount</text>
</g>
<!-- Node7&#45;&gt;Node12 -->
<g id="edge28" class="edge"><title>Node7&#45;&gt;Node12</title>
<path fill="none" stroke="#404040" d="M772,-1040.67C805.008,-1030.22 884.866,-1000.39 925.188,-946 976.929,-876.203 913.158,-820.663 971.188,-756 986.963,-738.422 1007.61,-757.323 1021.19,-738 1054.76,-690.238 987.185,-649.19 928.202,-624.114"/>
<polygon fill="none" stroke="#404040" points="928.028,-624.042 920.956,-625.453 916.934,-619.467 924.006,-618.057 928.028,-624.042"/>
<text text-anchor="middle" x="996.688" y="-859.5" font-family="Helvetica,sans-Serif" font-size="10.00"> +arraySize</text>
<text text-anchor="middle" x="996.688" y="-848.5" font-family="Helvetica,sans-Serif" font-size="10.00">+size</text>
<text text-anchor="middle" x="996.688" y="-837.5" font-family="Helvetica,sans-Serif" font-size="10.00">+bitcount</text>
</g>
<!-- Node7&#45;&gt;Node13 -->
<g id="edge34" class="edge"><title>Node7&#45;&gt;Node13</title>
<path fill="none" stroke="#404040" d="M771.757,-1043.82C821.564,-1039.59 984.441,-1024.01 1029.19,-998 1046.11,-988.163 1039.91,-973.203 1057.19,-964 1093.64,-944.581 1214.43,-976.589 1242.19,-946 1276.57,-908.106 1253.01,-762.281 1231.19,-716 1229.95,-713.372 1228.65,-710.74 1227.3,-708.109"/>
<polygon fill="none" stroke="#404040" points="1227.18,-707.886 1220.82,-704.497 1221.5,-697.318 1227.86,-700.707 1227.18,-707.886"/>
<text text-anchor="middle" x="1285.69" y="-859.5" font-family="Helvetica,sans-Serif" font-size="10.00"> +arraySize</text>
<text text-anchor="middle" x="1285.69" y="-848.5" font-family="Helvetica,sans-Serif" font-size="10.00">+size</text>
<text text-anchor="middle" x="1285.69" y="-837.5" font-family="Helvetica,sans-Serif" font-size="10.00">+bitcount</text>
</g>
<!-- Node8&#45;&gt;Node1 -->
<g id="edge38" class="edge"><title>Node8&#45;&gt;Node1</title>
<path fill="none" stroke="#404040" d="M643.223,-756.237C652.8,-741.943 663.531,-727.984 675.188,-716 685.503,-705.395 695.884,-710.865 703.188,-698 715.187,-676.863 720.307,-368.837 722.21,-201.829"/>
<polygon fill="none" stroke="#404040" points="722.21,-201.808 718.278,-195.764 722.344,-189.809 726.277,-195.853 722.21,-201.808"/>
<text text-anchor="middle" x="768.688" y="-437" font-family="Helvetica,sans-Serif" font-size="10.00"> +sHeaderType</text>
<text text-anchor="middle" x="768.688" y="-426" font-family="Helvetica,sans-Serif" font-size="10.00">+sSerializationMethod</text>
</g>
<!-- Node8&#45;&gt;Node2 -->
<g id="edge22" class="edge"><title>Node8&#45;&gt;Node2</title>
<path fill="none" stroke="#404040" d="M536.186,-808.991C507.544,-790.411 471.778,-769.607 437.188,-756 322.161,-710.751 242.945,-794.086 165.188,-698 93.0972,-608.916 132.092,-467.654 166.49,-382.687"/>
<polygon fill="none" stroke="#404040" points="166.493,-382.68 165.093,-375.606 171.085,-371.593 172.484,-378.667 166.493,-382.68"/>
<text text-anchor="middle" x="213.688" y="-600" font-family="Helvetica,sans-Serif" font-size="10.00"> +sHeaderType</text>
<text text-anchor="middle" x="213.688" y="-589" font-family="Helvetica,sans-Serif" font-size="10.00">+sSerializationMethod</text>
</g>
<!-- Node8&#45;&gt;Node3 -->
<g id="edge7" class="edge"><title>Node8&#45;&gt;Node3</title>
<path fill="none" stroke="orange" d="M529.787,-784.504C519.289,-770.218 509.969,-754.424 504.188,-738 498.962,-723.152 498.552,-707.21 500.919,-691.592"/>
<polygon fill="orange" stroke="orange" points="527.23,-786.921 536.087,-792.735 532.788,-782.667 527.23,-786.921"/>
<text text-anchor="start" x="504.188" y="-730" font-family="Helvetica,sans-Serif" font-size="10.00"> &lt; gSizeHeaderDescription</text>
<text text-anchor="middle" x="563.188" y="-719" font-family="Helvetica,sans-Serif" font-size="10.00">String &gt;</text>
</g>
<!-- Node8&#45;&gt;Node9 -->
<g id="edge19" class="edge"><title>Node8&#45;&gt;Node9</title>
<path fill="none" stroke="orange" d="M527.522,-804.739C500.363,-787.74 468.122,-769.328 437.188,-756 410.052,-744.308 392.42,-760.432 373.188,-738 362.033,-724.988 355.707,-708.625 352.404,-691.716"/>
<polygon fill="orange" stroke="orange" points="525.831,-807.811 536.153,-810.2 529.574,-801.895 525.831,-807.811"/>
<text text-anchor="start" x="373.188" y="-730" font-family="Helvetica,sans-Serif" font-size="10.00"> &lt; gSizeSerializationMethod</text>
<text text-anchor="middle" x="434.688" y="-719" font-family="Helvetica,sans-Serif" font-size="10.00">String &gt;</text>
</g>
<!-- Node8&#45;&gt;Node12 -->
<g id="edge29" class="edge"><title>Node8&#45;&gt;Node12</title>
<path fill="none" stroke="orange" d="M658.497,-757.617C672.549,-739.169 685.96,-723.235 695.188,-716 711.17,-703.47 719.939,-708.72 737.188,-698 755.912,-686.364 774.718,-671.842 791.61,-657.503"/>
<polygon fill="orange" stroke="orange" points="655.662,-755.564 652.447,-765.659 661.256,-759.773 655.662,-755.564"/>
<text text-anchor="start" x="695.188" y="-730" font-family="Helvetica,sans-Serif" font-size="10.00"> &lt; gSizeDataOriginString,</text>
<text text-anchor="middle" x="751.188" y="-719" font-family="Helvetica,sans-Serif" font-size="10.00"> printDataOrigin &gt;</text>
</g>
<!-- Node8&#45;&gt;Node13 -->
<g id="edge35" class="edge"><title>Node8&#45;&gt;Node13</title>
<path fill="none" stroke="orange" d="M660.224,-765.011C664.704,-761.664 669.364,-758.624 674.188,-756 728.136,-726.657 751.45,-752.242 811.188,-738 863.419,-725.547 875.313,-717.892 925.188,-698 975.24,-678.038 1030.51,-653.271 1073.51,-633.379"/>
<polygon fill="orange" stroke="orange" points="657.952,-762.347 652.357,-771.344 662.342,-767.8 657.952,-762.347"/>
<text text-anchor="start" x="881.188" y="-730" font-family="Helvetica,sans-Serif" font-size="10.00"> &lt; gSizeDataDescriptionString,</text>
<text text-anchor="middle" x="949.188" y="-719" font-family="Helvetica,sans-Serif" font-size="10.00"> printDataDescription &gt;</text>
</g>
<!-- Node9&#45;&gt;Node1 -->
<g id="edge36" class="edge"><title>Node9&#45;&gt;Node1</title>
<path fill="none" stroke="#404040" d="M397.033,-502.111C439.102,-406.455 500.891,-269.205 518.188,-248 555.055,-202.802 608.216,-163.894 651.164,-136.759"/>
<polygon fill="none" stroke="#404040" points="651.374,-136.628 654.356,-130.063 661.564,-130.29 658.582,-136.856 651.374,-136.628"/>
<text text-anchor="middle" x="582.688" y="-307.5" font-family="Helvetica,sans-Serif" font-size="10.00"> +payloadSerializationMethod</text>
</g>
<!-- Node9&#45;&gt;Node2 -->
<g id="edge14" class="edge"><title>Node9&#45;&gt;Node2</title>
<path fill="none" stroke="#404040" d="M271.131,-510.801C263.011,-500.252 255.477,-489.217 249.188,-478 232.882,-448.916 221.529,-413.875 213.889,-383.417"/>
<polygon fill="none" stroke="#404040" points="213.842,-383.223 208.552,-378.323 211.04,-371.555 216.33,-376.454 213.842,-383.223"/>
<text text-anchor="middle" x="279.688" y="-431.5" font-family="Helvetica,sans-Serif" font-size="10.00"> +serialization</text>
</g>
<!-- Node10 -->
<g id="node10" class="node"><title>Node10</title>
<polygon fill="none" stroke="#bfbfbf" points="643.688,-568.5 643.688,-625.5 694.688,-625.5 694.688,-568.5 643.688,-568.5"/>
<text text-anchor="middle" x="669.188" y="-613.5" font-family="Helvetica,sans-Serif" font-size="10.00">uint32_t</text>
<polyline fill="none" stroke="#bfbfbf" points="643.688,-606.5 694.688,-606.5 "/>
<text text-anchor="middle" x="669.188" y="-594.5" font-family="Helvetica,sans-Serif" font-size="10.00"> </text>
<polyline fill="none" stroke="#bfbfbf" points="643.688,-587.5 694.688,-587.5 "/>
<text text-anchor="middle" x="669.188" y="-575.5" font-family="Helvetica,sans-Serif" font-size="10.00"> </text>
</g>
<!-- Node10&#45;&gt;Node1 -->
<g id="edge37" class="edge"><title>Node10&#45;&gt;Node1</title>
<path fill="none" stroke="#404040" d="M664.712,-568.146C656.009,-508.681 639.552,-365.181 662.188,-248 665.175,-232.538 669.724,-216.652 675.02,-201.249"/>
<polygon fill="none" stroke="#404040" points="675.154,-200.876 673.413,-193.879 679.202,-189.58 680.944,-196.578 675.154,-200.876"/>
<text text-anchor="middle" x="685.688" y="-313" font-family="Helvetica,sans-Serif" font-size="10.00"> +reserved</text>
<text text-anchor="middle" x="685.688" y="-302" font-family="Helvetica,sans-Serif" font-size="10.00">+sVersion</text>
</g>
<!-- Node10&#45;&gt;Node2 -->
<g id="edge21" class="edge"><title>Node10&#45;&gt;Node2</title>
<path fill="none" stroke="#404040" d="M666.752,-568.203C663.265,-545.53 654.79,-514.352 634.188,-496 606.975,-471.758 585.261,-497.043 554.188,-478 510.86,-451.447 524.618,-416.385 481.188,-390 448.928,-370.402 434.702,-381.565 398.188,-372 357.058,-361.225 311.695,-347.395 274.779,-335.629"/>
<polygon fill="none" stroke="#404040" points="274.533,-335.55 267.598,-337.528 263.106,-331.887 270.04,-329.909 274.533,-335.55"/>
<text text-anchor="middle" x="594.188" y="-470" font-family="Helvetica,sans-Serif" font-size="10.00"> +headerVersion</text>
<text text-anchor="middle" x="594.188" y="-459" font-family="Helvetica,sans-Serif" font-size="10.00">+headerSize</text>
<text text-anchor="middle" x="594.188" y="-448" font-family="Helvetica,sans-Serif" font-size="10.00">+sMagicString</text>
<text text-anchor="middle" x="594.188" y="-437" font-family="Helvetica,sans-Serif" font-size="10.00">+flagsNextHeader</text>
<text text-anchor="middle" x="594.188" y="-426" font-family="Helvetica,sans-Serif" font-size="10.00">+magicStringInt</text>
<text text-anchor="middle" x="594.188" y="-415" font-family="Helvetica,sans-Serif" font-size="10.00">+flagsUnused</text>
<text text-anchor="middle" x="594.188" y="-404" font-family="Helvetica,sans-Serif" font-size="10.00">+flags</text>
<text text-anchor="middle" x="594.188" y="-393" font-family="Helvetica,sans-Serif" font-size="10.00">+sVersion</text>
</g>
<!-- Node11 -->
<g id="node11" class="node"><title>Node11</title>
<polygon fill="none" stroke="#bfbfbf" points="1021.69,-281.5 1021.69,-338.5 1072.69,-338.5 1072.69,-281.5 1021.69,-281.5"/>
<text text-anchor="middle" x="1047.19" y="-326.5" font-family="Helvetica,sans-Serif" font-size="10.00">uint64_t</text>
<polyline fill="none" stroke="#bfbfbf" points="1021.69,-319.5 1072.69,-319.5 "/>
<text text-anchor="middle" x="1047.19" y="-307.5" font-family="Helvetica,sans-Serif" font-size="10.00"> </text>
<polyline fill="none" stroke="#bfbfbf" points="1021.69,-300.5 1072.69,-300.5 "/>
<text text-anchor="middle" x="1047.19" y="-288.5" font-family="Helvetica,sans-Serif" font-size="10.00"> </text>
</g>
<!-- Node11&#45;&gt;Node1 -->
<g id="edge23" class="edge"><title>Node11&#45;&gt;Node1</title>
<path fill="none" stroke="#404040" d="M1032.84,-281.484C1026.08,-270.221 1017.28,-257.608 1007.19,-248 945.908,-189.632 857.836,-147.156 796.061,-122.179"/>
<polygon fill="none" stroke="#404040" points="795.996,-122.153 788.942,-123.653 784.845,-117.719 791.898,-116.219 795.996,-122.153"/>
<text text-anchor="middle" x="1020.69" y="-222" font-family="Helvetica,sans-Serif" font-size="10.00"> +payloadSize</text>
<text text-anchor="middle" x="1020.69" y="-211" font-family="Helvetica,sans-Serif" font-size="10.00">+subSpecification</text>
</g>
<!-- Node12&#45;&gt;Node1 -->
<g id="edge24" class="edge"><title>Node12&#45;&gt;Node1</title>
<path fill="none" stroke="#404040" d="M841.647,-496.849C836.452,-462.744 829.636,-424.476 821.188,-390 805.588,-326.334 782.64,-256.677 762.871,-201.153"/>
<polygon fill="none" stroke="#404040" points="762.753,-200.823 756.963,-196.524 758.705,-189.526 764.495,-193.825 762.753,-200.823"/>
<text text-anchor="middle" x="843.188" y="-307.5" font-family="Helvetica,sans-Serif" font-size="10.00"> +dataOrigin</text>
</g>
<!-- Node13&#45;&gt;Node1 -->
<g id="edge30" class="edge"><title>Node13&#45;&gt;Node1</title>
<path fill="none" stroke="#404040" d="M1073.68,-529.34C1029.45,-487.185 974.355,-429.886 934.188,-372 899.285,-321.7 909.58,-297.957 874.188,-248 851.195,-215.545 821.066,-183.684 793.774,-157.583"/>
<polygon fill="none" stroke="#404040" points="793.748,-157.558 786.639,-156.346 785.025,-149.317 792.133,-150.53 793.748,-157.558"/>
<text text-anchor="middle" x="973.188" y="-307.5" font-family="Helvetica,sans-Serif" font-size="10.00"> +dataDescription</text>
</g>
</g>
</svg>
