<?xml version="1.0" encoding="UTF-8" standalone="no"?>
<!DOCTYPE svg PUBLIC "-//W3C//DTD SVG 1.1//EN"
 "http://www.w3.org/Graphics/SVG/1.1/DTD/svg11.dtd">
<!-- Generated by graphviz version 2.36.0 (20140111.2315)
 -->
<!-- Title: /home/travis/build/AliceO2Group/AliceO2/Detectors/Base/include/DetectorsBase/GeometryManager.h Pages: 1 -->
<svg width="2079pt" height="254pt"
 viewBox="0.00 0.00 2079.00 254.00" xmlns="http://www.w3.org/2000/svg" xmlns:xlink="http://www.w3.org/1999/xlink">
<g id="graph0" class="graph" transform="scale(1 1) rotate(0) translate(4 250)">
<title>/home/travis/build/AliceO2Group/AliceO2/Detectors/Base/include/DetectorsBase/GeometryManager.h</title>
<!-- Node1 -->
<g id="node1" class="node"><title>Node1</title>
<polygon fill="#bfbfbf" stroke="black" points="368,-193 368,-245 544,-245 544,-193 368,-193"/>
<text text-anchor="start" x="376" y="-233" font-family="Helvetica,sans-Serif" font-size="10.00">/home/travis/build</text>
<text text-anchor="start" x="376" y="-222" font-family="Helvetica,sans-Serif" font-size="10.00">/AliceO2Group/AliceO2</text>
<text text-anchor="start" x="376" y="-211" font-family="Helvetica,sans-Serif" font-size="10.00">/Detectors/Base/include</text>
<text text-anchor="middle" x="456" y="-200" font-family="Helvetica,sans-Serif" font-size="10.00">/DetectorsBase/GeometryManager.h</text>
</g>
<!-- Node2 -->
<g id="node2" class="node"><title>Node2</title>
<polygon fill="none" stroke="#bfbfbf" points="0,-136.5 0,-155.5 86,-155.5 86,-136.5 0,-136.5"/>
<text text-anchor="middle" x="43" y="-143.5" font-family="Helvetica,sans-Serif" font-size="10.00">TGeoManager.h</text>
</g>
<!-- Node1&#45;&gt;Node2 -->
<g id="edge1" class="edge"><title>Node1&#45;&gt;Node2</title>
<path fill="none" stroke="midnightblue" d="M367.721,-202.871C296.984,-190.741 194.894,-173.218 95.9973,-156.17"/>
<polygon fill="midnightblue" stroke="midnightblue" points="96.5787,-152.719 86.1295,-154.469 95.3894,-159.617 96.5787,-152.719"/>
</g>
<!-- Node3 -->
<g id="node3" class="node"><title>Node3</title>
<polygon fill="none" stroke="#bfbfbf" points="104.5,-136.5 104.5,-155.5 187.5,-155.5 187.5,-136.5 104.5,-136.5"/>
<text text-anchor="middle" x="146" y="-143.5" font-family="Helvetica,sans-Serif" font-size="10.00">TGeoMaterial.h</text>
</g>
<!-- Node1&#45;&gt;Node3 -->
<g id="edge2" class="edge"><title>Node1&#45;&gt;Node3</title>
<path fill="none" stroke="midnightblue" d="M367.996,-197.844C311.128,-184.82 239.363,-168.383 193.081,-157.783"/>
<polygon fill="midnightblue" stroke="midnightblue" points="193.85,-154.369 183.321,-155.548 192.287,-161.192 193.85,-154.369"/>
</g>
<!-- Node4 -->
<g id="node4" class="node"><title>Node4</title>
<polygon fill="none" stroke="#bfbfbf" points="206,-136.5 206,-155.5 316,-155.5 316,-136.5 206,-136.5"/>
<text text-anchor="middle" x="261" y="-143.5" font-family="Helvetica,sans-Serif" font-size="10.00">TGeoPhysicalNode.h</text>
</g>
<!-- Node1&#45;&gt;Node4 -->
<g id="edge3" class="edge"><title>Node1&#45;&gt;Node4</title>
<path fill="none" stroke="midnightblue" d="M387.25,-192.968C355.693,-181.478 319.722,-168.381 294.271,-159.114"/>
<polygon fill="midnightblue" stroke="midnightblue" points="295.321,-155.771 284.727,-155.639 292.926,-162.349 295.321,-155.771"/>
</g>
<!-- Node5 -->
<g id="node5" class="node"><title>Node5</title>
<polygon fill="none" stroke="#bfbfbf" points="334.5,-136.5 334.5,-155.5 411.5,-155.5 411.5,-136.5 334.5,-136.5"/>
<text text-anchor="middle" x="373" y="-143.5" font-family="Helvetica,sans-Serif" font-size="10.00">TGeoShape.h</text>
</g>
<!-- Node1&#45;&gt;Node5 -->
<g id="edge4" class="edge"><title>Node1&#45;&gt;Node5</title>
<path fill="none" stroke="midnightblue" d="M426.504,-192.768C414.591,-182.578 401.235,-171.153 390.847,-162.267"/>
<polygon fill="midnightblue" stroke="midnightblue" points="393.111,-159.598 383.237,-155.757 388.561,-164.917 393.111,-159.598"/>
</g>
<!-- Node6 -->
<g id="node6" class="node"><title>Node6</title>
<polygon fill="none" stroke="#bfbfbf" points="429.5,-136.5 429.5,-155.5 482.5,-155.5 482.5,-136.5 429.5,-136.5"/>
<text text-anchor="middle" x="456" y="-143.5" font-family="Helvetica,sans-Serif" font-size="10.00">TMath.h</text>
</g>
<!-- Node1&#45;&gt;Node6 -->
<g id="edge5" class="edge"><title>Node1&#45;&gt;Node6</title>
<path fill="none" stroke="midnightblue" d="M456,-192.768C456,-183.89 456,-174.074 456,-165.816"/>
<polygon fill="midnightblue" stroke="midnightblue" points="459.5,-165.757 456,-155.757 452.5,-165.757 459.5,-165.757"/>
</g>
<!-- Node7 -->
<g id="node7" class="node"><title>Node7</title>
<polygon fill="none" stroke="#bfbfbf" points="500.5,-136.5 500.5,-155.5 559.5,-155.5 559.5,-136.5 500.5,-136.5"/>
<text text-anchor="middle" x="530" y="-143.5" font-family="Helvetica,sans-Serif" font-size="10.00">TObject.h</text>
</g>
<!-- Node1&#45;&gt;Node7 -->
<g id="edge6" class="edge"><title>Node1&#45;&gt;Node7</title>
<path fill="none" stroke="midnightblue" d="M482.298,-192.768C492.708,-182.78 504.355,-171.605 513.535,-162.798"/>
<polygon fill="midnightblue" stroke="midnightblue" points="516.08,-165.206 520.873,-155.757 511.234,-160.155 516.08,-165.206"/>
</g>
<!-- Node8 -->
<g id="node8" class="node"><title>Node8</title>
<g id="a_node8"><a xlink:href="../../d6/d31/DetID_8h.html" target="_top" xlink:title="DetectorsBase/DetID.h">
<polygon fill="none" stroke="black" points="577.5,-136.5 577.5,-155.5 696.5,-155.5 696.5,-136.5 577.5,-136.5"/>
<text text-anchor="middle" x="637" y="-143.5" font-family="Helvetica,sans-Serif" font-size="10.00">DetectorsBase/DetID.h</text>
</a>
</g>
</g>
<!-- Node1&#45;&gt;Node8 -->
<g id="edge7" class="edge"><title>Node1&#45;&gt;Node8</title>
<path fill="none" stroke="midnightblue" d="M519.814,-192.968C548.846,-181.58 581.903,-168.613 605.488,-159.361"/>
<polygon fill="midnightblue" stroke="midnightblue" points="606.946,-162.549 614.977,-155.639 604.389,-156.032 606.946,-162.549"/>
</g>
<!-- Node17 -->
<g id="node17" class="node"><title>Node17</title>
<polygon fill="none" stroke="#bfbfbf" points="714.5,-136.5 714.5,-155.5 785.5,-155.5 785.5,-136.5 714.5,-136.5"/>
<text text-anchor="middle" x="750" y="-143.5" font-family="Helvetica,sans-Serif" font-size="10.00">FairLogger.h</text>
</g>
<!-- Node1&#45;&gt;Node17 -->
<g id="edge17" class="edge"><title>Node1&#45;&gt;Node17</title>
<path fill="none" stroke="midnightblue" d="M544.21,-196.698C597.136,-183.916 662.235,-168.195 704.86,-157.901"/>
<polygon fill="midnightblue" stroke="midnightblue" points="705.761,-161.284 714.66,-155.534 704.118,-154.48 705.761,-161.284"/>
</g>
<!-- Node18 -->
<g id="node18" class="node"><title>Node18</title>
<g id="a_node18"><a xlink:href="../../dd/d76/Cartesian3D_8h.html" target="_top" xlink:title="MathUtils/Cartesian3D.h">
<polygon fill="none" stroke="black" points="1279.5,-136.5 1279.5,-155.5 1404.5,-155.5 1404.5,-136.5 1279.5,-136.5"/>
<text text-anchor="middle" x="1342" y="-143.5" font-family="Helvetica,sans-Serif" font-size="10.00">MathUtils/Cartesian3D.h</text>
</a>
</g>
</g>
<!-- Node1&#45;&gt;Node18 -->
<g id="edge18" class="edge"><title>Node1&#45;&gt;Node18</title>
<path fill="none" stroke="midnightblue" d="M544.192,-210.933C719.152,-196.912 1107.2,-165.816 1268.97,-152.852"/>
<polygon fill="midnightblue" stroke="midnightblue" points="1269.61,-156.313 1279.3,-152.025 1269.05,-149.335 1269.61,-156.313"/>
</g>
<!-- Node9 -->
<g id="node9" class="node"><title>Node9</title>
<polygon fill="none" stroke="#bfbfbf" points="398,-74.5 398,-93.5 444,-93.5 444,-74.5 398,-74.5"/>
<text text-anchor="middle" x="421" y="-81.5" font-family="Helvetica,sans-Serif" font-size="10.00">cstdint</text>
</g>
<!-- Node8&#45;&gt;Node9 -->
<g id="edge8" class="edge"><title>Node8&#45;&gt;Node9</title>
<path fill="none" stroke="midnightblue" d="M596.378,-136.48C559.797,-128.409 504.755,-115.273 458,-100 455.432,-99.1613 452.789,-98.2304 450.153,-97.2547"/>
<polygon fill="midnightblue" stroke="midnightblue" points="451.371,-93.9732 440.782,-93.6103 448.834,-100.497 451.371,-93.9732"/>
</g>
<!-- Node10 -->
<g id="node10" class="node"><title>Node10</title>
<polygon fill="none" stroke="#bfbfbf" points="468,-6.5 468,-25.5 506,-25.5 506,-6.5 468,-6.5"/>
<text text-anchor="middle" x="487" y="-13.5" font-family="Helvetica,sans-Serif" font-size="10.00">array</text>
</g>
<!-- Node8&#45;&gt;Node10 -->
<g id="edge9" class="edge"><title>Node8&#45;&gt;Node10</title>
<path fill="none" stroke="midnightblue" d="M589.66,-136.483C551.867,-128.634 503.278,-115.82 491,-100 476.87,-81.7934 478.817,-53.9889 482.279,-35.6548"/>
<polygon fill="midnightblue" stroke="midnightblue" points="485.702,-36.3854 484.441,-25.8659 478.867,-34.8758 485.702,-36.3854"/>
</g>
<!-- Node11 -->
<g id="node11" class="node"><title>Node11</title>
<polygon fill="none" stroke="#bfbfbf" points="500,-74.5 500,-93.5 562,-93.5 562,-74.5 500,-74.5"/>
<text text-anchor="middle" x="531" y="-81.5" font-family="Helvetica,sans-Serif" font-size="10.00">type_traits</text>
</g>
<!-- Node8&#45;&gt;Node11 -->
<g id="edge10" class="edge"><title>Node8&#45;&gt;Node11</title>
<path fill="none" stroke="midnightblue" d="M621.813,-136.403C604.338,-126.512 575.421,-110.144 554.917,-98.5378"/>
<polygon fill="midnightblue" stroke="midnightblue" points="556.586,-95.4607 546.159,-93.5806 553.138,-101.553 556.586,-95.4607"/>
</g>
<!-- Node12 -->
<g id="node12" class="node"><title>Node12</title>
<polygon fill="none" stroke="#bfbfbf" points="779,-74.5 779,-93.5 835,-93.5 835,-74.5 779,-74.5"/>
<text text-anchor="middle" x="807" y="-81.5" font-family="Helvetica,sans-Serif" font-size="10.00">Rtypes.h</text>
</g>
<!-- Node8&#45;&gt;Node12 -->
<g id="edge11" class="edge"><title>Node8&#45;&gt;Node12</title>
<path fill="none" stroke="midnightblue" d="M663.426,-136.4C690.167,-127.602 732.64,-113.366 769,-100 771.388,-99.1221 773.853,-98.1957 776.327,-97.2516"/>
<polygon fill="midnightblue" stroke="midnightblue" points="777.709,-100.47 785.764,-93.5879 775.175,-93.9442 777.709,-100.47"/>
</g>
<!-- Node13 -->
<g id="node13" class="node"><title>Node13</title>
<g id="a_node13"><a xlink:href="../../d9/ded/Utils_8h.html" target="_top" xlink:title="DetectorsBase/Utils.h">
<polygon fill="none" stroke="black" points="580.5,-74.5 580.5,-93.5 693.5,-93.5 693.5,-74.5 580.5,-74.5"/>
<text text-anchor="middle" x="637" y="-81.5" font-family="Helvetica,sans-Serif" font-size="10.00">DetectorsBase/Utils.h</text>
</a>
</g>
</g>
<!-- Node8&#45;&gt;Node13 -->
<g id="edge12" class="edge"><title>Node8&#45;&gt;Node13</title>
<path fill="none" stroke="midnightblue" d="M637,-136.403C637,-127.938 637,-114.728 637,-103.82"/>
<polygon fill="midnightblue" stroke="midnightblue" points="640.5,-103.581 637,-93.5806 633.5,-103.581 640.5,-103.581"/>
</g>
<!-- Node16 -->
<g id="node16" class="node"><title>Node16</title>
<polygon fill="none" stroke="#bfbfbf" points="711.5,-74.5 711.5,-93.5 760.5,-93.5 760.5,-74.5 711.5,-74.5"/>
<text text-anchor="middle" x="736" y="-81.5" font-family="Helvetica,sans-Serif" font-size="10.00">cassert</text>
</g>
<!-- Node8&#45;&gt;Node16 -->
<g id="edge16" class="edge"><title>Node8&#45;&gt;Node16</title>
<path fill="none" stroke="midnightblue" d="M651.184,-136.403C667.358,-126.601 694.026,-110.439 713.143,-98.8526"/>
<polygon fill="midnightblue" stroke="midnightblue" points="715.104,-101.757 721.842,-93.5806 711.476,-95.7705 715.104,-101.757"/>
</g>
<!-- Node13&#45;&gt;Node10 -->
<g id="edge15" class="edge"><title>Node13&#45;&gt;Node10</title>
<path fill="none" stroke="midnightblue" d="M617.39,-74.3717C591.42,-62.9447 545.429,-42.7088 515.589,-29.5791"/>
<polygon fill="midnightblue" stroke="midnightblue" points="516.703,-26.2456 506.14,-25.4218 513.884,-32.6528 516.703,-26.2456"/>
</g>
<!-- Node14 -->
<g id="node14" class="node"><title>Node14</title>
<g id="a_node14"><a xlink:href="../../d1/daa/Base_2include_2DetectorsBase_2Constants_8h.html" target="_top" xlink:title="DetectorsBase/Constants.h">
<polygon fill="none" stroke="black" points="553,-6.5 553,-25.5 691,-25.5 691,-6.5 553,-6.5"/>
<text text-anchor="middle" x="622" y="-13.5" font-family="Helvetica,sans-Serif" font-size="10.00">DetectorsBase/Constants.h</text>
</a>
</g>
</g>
<!-- Node13&#45;&gt;Node14 -->
<g id="edge13" class="edge"><title>Node13&#45;&gt;Node14</title>
<path fill="none" stroke="midnightblue" d="M635.039,-74.3717C632.828,-64.6426 629.165,-48.528 626.284,-35.8504"/>
<polygon fill="midnightblue" stroke="midnightblue" points="629.639,-34.8167 624.009,-25.8411 622.813,-36.3682 629.639,-34.8167"/>
</g>
<!-- Node15 -->
<g id="node15" class="node"><title>Node15</title>
<polygon fill="none" stroke="#bfbfbf" points="709,-6.5 709,-25.5 753,-25.5 753,-6.5 709,-6.5"/>
<text text-anchor="middle" x="731" y="-13.5" font-family="Helvetica,sans-Serif" font-size="10.00">cmath</text>
</g>
<!-- Node13&#45;&gt;Node15 -->
<g id="edge14" class="edge"><title>Node13&#45;&gt;Node15</title>
<path fill="none" stroke="midnightblue" d="M649.289,-74.3717C664.771,-63.5015 691.605,-44.6602 710.281,-31.5474"/>
<polygon fill="midnightblue" stroke="midnightblue" points="712.535,-34.2413 718.708,-25.6305 708.513,-28.5124 712.535,-34.2413"/>
</g>
<!-- Node18&#45;&gt;Node12 -->
<g id="edge22" class="edge"><title>Node18&#45;&gt;Node12</title>
<path fill="none" stroke="midnightblue" d="M1279.15,-145.415C1183.54,-144.691 996.472,-137.942 843,-100 840.007,-99.2601 836.94,-98.3089 833.92,-97.245"/>
<polygon fill="midnightblue" stroke="midnightblue" points="835.168,-93.975 824.581,-93.5829 832.613,-100.492 835.168,-93.975"/>
</g>
<!-- Node19 -->
<g id="node19" class="node"><title>Node19</title>
<polygon fill="none" stroke="#bfbfbf" points="852.5,-74.5 852.5,-93.5 1001.5,-93.5 1001.5,-74.5 852.5,-74.5"/>
<text text-anchor="middle" x="927" y="-81.5" font-family="Helvetica,sans-Serif" font-size="10.00">Math/GenVector/Rotation3D.h</text>
</g>
<!-- Node18&#45;&gt;Node19 -->
<g id="edge19" class="edge"><title>Node18&#45;&gt;Node19</title>
<path fill="none" stroke="midnightblue" d="M1279.35,-137.272C1212.71,-128.865 1104.24,-114.657 1011,-100 1001.86,-98.564 992.191,-96.9365 982.783,-95.2962"/>
<polygon fill="midnightblue" stroke="midnightblue" points="983.174,-91.8112 972.717,-93.5198 981.957,-98.7047 983.174,-91.8112"/>
</g>
<!-- Node20 -->
<g id="node20" class="node"><title>Node20</title>
<polygon fill="none" stroke="#bfbfbf" points="1020,-74.5 1020,-93.5 1176,-93.5 1176,-74.5 1020,-74.5"/>
<text text-anchor="middle" x="1098" y="-81.5" font-family="Helvetica,sans-Serif" font-size="10.00">Math/GenVector/Transform3D.h</text>
</g>
<!-- Node18&#45;&gt;Node20 -->
<g id="edge20" class="edge"><title>Node18&#45;&gt;Node20</title>
<path fill="none" stroke="midnightblue" d="M1307.3,-136.467C1264.03,-125.827 1189.99,-107.622 1142.57,-95.9593"/>
<polygon fill="midnightblue" stroke="midnightblue" points="1143.13,-92.4926 1132.58,-93.5034 1141.46,-99.2901 1143.13,-92.4926"/>
</g>
<!-- Node21 -->
<g id="node21" class="node"><title>Node21</title>
<polygon fill="none" stroke="#bfbfbf" points="1194,-74.5 1194,-93.5 1354,-93.5 1354,-74.5 1194,-74.5"/>
<text text-anchor="middle" x="1274" y="-81.5" font-family="Helvetica,sans-Serif" font-size="10.00">Math/GenVector/Translation3D.h</text>
</g>
<!-- Node18&#45;&gt;Node21 -->
<g id="edge21" class="edge"><title>Node18&#45;&gt;Node21</title>
<path fill="none" stroke="midnightblue" d="M1332.26,-136.403C1321.65,-127.047 1304.48,-111.895 1291.52,-100.46"/>
<polygon fill="midnightblue" stroke="midnightblue" points="1293.54,-97.5724 1283.72,-93.5806 1288.91,-102.821 1293.54,-97.5724"/>
</g>
<!-- Node22 -->
<g id="node22" class="node"><title>Node22</title>
<polygon fill="none" stroke="#bfbfbf" points="1372,-74.5 1372,-93.5 1448,-93.5 1448,-74.5 1372,-74.5"/>
<text text-anchor="middle" x="1410" y="-81.5" font-family="Helvetica,sans-Serif" font-size="10.00">TGeoMatrix.h</text>
</g>
<!-- Node18&#45;&gt;Node22 -->
<g id="edge23" class="edge"><title>Node18&#45;&gt;Node22</title>
<path fill="none" stroke="midnightblue" d="M1351.74,-136.403C1362.35,-127.047 1379.52,-111.895 1392.48,-100.46"/>
<polygon fill="midnightblue" stroke="midnightblue" points="1395.09,-102.821 1400.28,-93.5806 1390.46,-97.5724 1395.09,-102.821"/>
</g>
<!-- Node23 -->
<g id="node23" class="node"><title>Node23</title>
<polygon fill="none" stroke="#bfbfbf" points="1466.5,-69 1466.5,-99 1617.5,-99 1617.5,-69 1466.5,-69"/>
<text text-anchor="start" x="1474.5" y="-87" font-family="Helvetica,sans-Serif" font-size="10.00">Math/GenVector/Displacement</text>
<text text-anchor="middle" x="1542" y="-76" font-family="Helvetica,sans-Serif" font-size="10.00">Vector3D.h</text>
</g>
<!-- Node18&#45;&gt;Node23 -->
<g id="edge24" class="edge"><title>Node18&#45;&gt;Node23</title>
<path fill="none" stroke="midnightblue" d="M1370.66,-136.403C1400.5,-127.45 1448.03,-113.19 1485.47,-101.958"/>
<polygon fill="midnightblue" stroke="midnightblue" points="1486.68,-105.251 1495.25,-99.0253 1484.66,-98.5465 1486.68,-105.251"/>
</g>
<!-- Node24 -->
<g id="node24" class="node"><title>Node24</title>
<polygon fill="none" stroke="#bfbfbf" points="1636,-74.5 1636,-93.5 1812,-93.5 1812,-74.5 1636,-74.5"/>
<text text-anchor="middle" x="1724" y="-81.5" font-family="Helvetica,sans-Serif" font-size="10.00">Math/GenVector/PositionVector3D.h</text>
</g>
<!-- Node18&#45;&gt;Node24 -->
<g id="edge25" class="edge"><title>Node18&#45;&gt;Node24</title>
<path fill="none" stroke="midnightblue" d="M1396.33,-136.467C1465.77,-125.559 1585.84,-106.701 1659.75,-95.0918"/>
<polygon fill="midnightblue" stroke="midnightblue" points="1660.53,-98.5127 1669.86,-93.5034 1659.44,-91.5975 1660.53,-98.5127"/>
</g>
<!-- Node25 -->
<g id="node25" class="node"><title>Node25</title>
<g id="a_node25"><a xlink:href="../../d2/dd0/Cartesian2D_8h.html" target="_top" xlink:title="MathUtils/Cartesian2D.h">
<polygon fill="none" stroke="black" points="1829.5,-74.5 1829.5,-93.5 1954.5,-93.5 1954.5,-74.5 1829.5,-74.5"/>
<text text-anchor="middle" x="1892" y="-81.5" font-family="Helvetica,sans-Serif" font-size="10.00">MathUtils/Cartesian2D.h</text>
</a>
</g>
</g>
<!-- Node18&#45;&gt;Node25 -->
<g id="edge26" class="edge"><title>Node18&#45;&gt;Node25</title>
<path fill="none" stroke="midnightblue" d="M1404.53,-141.346C1496.08,-135.491 1671.85,-122.335 1820,-100 1828.17,-98.7686 1836.81,-97.2016 1845.16,-95.5472"/>
<polygon fill="midnightblue" stroke="midnightblue" points="1846.05,-98.9369 1855.14,-93.5027 1844.65,-92.0791 1846.05,-98.9369"/>
</g>
<!-- Node28 -->
<g id="node28" class="node"><title>Node28</title>
<polygon fill="none" stroke="#bfbfbf" points="1973,-74.5 1973,-93.5 2027,-93.5 2027,-74.5 1973,-74.5"/>
<text text-anchor="middle" x="2000" y="-81.5" font-family="Helvetica,sans-Serif" font-size="10.00">iostream</text>
</g>
<!-- Node18&#45;&gt;Node28 -->
<g id="edge29" class="edge"><title>Node18&#45;&gt;Node28</title>
<path fill="none" stroke="midnightblue" d="M1404.56,-142.946C1540.31,-138.087 1858.12,-124.42 1963,-100 1966.07,-99.2844 1969.22,-98.3488 1972.33,-97.2942"/>
<polygon fill="midnightblue" stroke="midnightblue" points="1973.82,-100.47 1981.93,-93.6431 1971.33,-93.9272 1973.82,-100.47"/>
</g>
<!-- Node26 -->
<g id="node26" class="node"><title>Node26</title>
<polygon fill="none" stroke="#bfbfbf" points="1725.5,-1 1725.5,-31 1876.5,-31 1876.5,-1 1725.5,-1"/>
<text text-anchor="start" x="1733.5" y="-19" font-family="Helvetica,sans-Serif" font-size="10.00">Math/GenVector/Displacement</text>
<text text-anchor="middle" x="1801" y="-8" font-family="Helvetica,sans-Serif" font-size="10.00">Vector2D.h</text>
</g>
<!-- Node25&#45;&gt;Node26 -->
<g id="edge27" class="edge"><title>Node25&#45;&gt;Node26</title>
<path fill="none" stroke="midnightblue" d="M1880.1,-74.3717C1867.22,-65.0286 1846.22,-49.7966 1829.09,-37.375"/>
<polygon fill="midnightblue" stroke="midnightblue" points="1830.7,-34.2194 1820.55,-31.1815 1826.59,-39.8859 1830.7,-34.2194"/>
</g>
<!-- Node27 -->
<g id="node27" class="node"><title>Node27</title>
<polygon fill="none" stroke="#bfbfbf" points="1895,-6.5 1895,-25.5 2071,-25.5 2071,-6.5 1895,-6.5"/>
<text text-anchor="middle" x="1983" y="-13.5" font-family="Helvetica,sans-Serif" font-size="10.00">Math/GenVector/PositionVector2D.h</text>
</g>
<!-- Node25&#45;&gt;Node27 -->
<g id="edge28" class="edge"><title>Node25&#45;&gt;Node27</title>
<path fill="none" stroke="midnightblue" d="M1903.9,-74.3717C1918.88,-63.5015 1944.86,-44.6602 1962.94,-31.5474"/>
<polygon fill="midnightblue" stroke="midnightblue" points="1965.06,-34.3349 1971.1,-25.6305 1960.95,-28.6684 1965.06,-34.3349"/>
</g>
</g>
</svg>
