<?xml version="1.0" encoding="UTF-8" standalone="no"?>
<!DOCTYPE svg PUBLIC "-//W3C//DTD SVG 1.1//EN"
 "http://www.w3.org/Graphics/SVG/1.1/DTD/svg11.dtd">
<!-- Generated by graphviz version 2.36.0 (20140111.2315)
 -->
<!-- Title: /home/travis/build/AliceO2Group/AliceO2/Detectors/ITSMFT/common/reconstruction/src/Cluster.cxx Pages: 1 -->
<svg width="1675pt" height="434pt"
 viewBox="0.00 0.00 1675.00 434.00" xmlns="http://www.w3.org/2000/svg" xmlns:xlink="http://www.w3.org/1999/xlink">
<g id="graph0" class="graph" transform="scale(1 1) rotate(0) translate(4 430)">
<title>/home/travis/build/AliceO2Group/AliceO2/Detectors/ITSMFT/common/reconstruction/src/Cluster.cxx</title>
<!-- Node1 -->
<g id="node1" class="node"><title>Node1</title>
<polygon fill="#bfbfbf" stroke="black" points="1408.5,-373 1408.5,-425 1559.5,-425 1559.5,-373 1408.5,-373"/>
<text text-anchor="start" x="1416.5" y="-413" font-family="Helvetica,sans-Serif" font-size="10.00">/home/travis/build</text>
<text text-anchor="start" x="1416.5" y="-402" font-family="Helvetica,sans-Serif" font-size="10.00">/AliceO2Group/AliceO2</text>
<text text-anchor="start" x="1416.5" y="-391" font-family="Helvetica,sans-Serif" font-size="10.00">/Detectors/ITSMFT/common</text>
<text text-anchor="middle" x="1484" y="-380" font-family="Helvetica,sans-Serif" font-size="10.00">/reconstruction/src/Cluster.cxx</text>
</g>
<!-- Node2 -->
<g id="node2" class="node"><title>Node2</title>
<g id="a_node2"><a xlink:href="../../dc/de1/ITSMFT_2common_2reconstruction_2include_2ITSMFTReconstruction_2Cluster_8h.html" target="_top" xlink:title="ITSMFTReconstruction\l/Cluster.h">
<polygon fill="none" stroke="black" points="1079.5,-305 1079.5,-335 1198.5,-335 1198.5,-305 1079.5,-305"/>
<text text-anchor="start" x="1087.5" y="-323" font-family="Helvetica,sans-Serif" font-size="10.00">ITSMFTReconstruction</text>
<text text-anchor="middle" x="1139" y="-312" font-family="Helvetica,sans-Serif" font-size="10.00">/Cluster.h</text>
</a>
</g>
</g>
<!-- Node1&#45;&gt;Node2 -->
<g id="edge1" class="edge"><title>Node1&#45;&gt;Node2</title>
<path fill="none" stroke="midnightblue" d="M1408.29,-381.102C1348.66,-367.794 1266.22,-349.395 1208.31,-336.47"/>
<polygon fill="midnightblue" stroke="midnightblue" points="1209.04,-333.046 1198.52,-334.284 1207.52,-339.878 1209.04,-333.046"/>
</g>
<!-- Node30 -->
<g id="node30" class="node"><title>Node30</title>
<polygon fill="none" stroke="#bfbfbf" points="1441.5,-136.5 1441.5,-155.5 1512.5,-155.5 1512.5,-136.5 1441.5,-136.5"/>
<text text-anchor="middle" x="1477" y="-143.5" font-family="Helvetica,sans-Serif" font-size="10.00">FairLogger.h</text>
</g>
<!-- Node1&#45;&gt;Node30 -->
<g id="edge36" class="edge"><title>Node1&#45;&gt;Node30</title>
<path fill="none" stroke="midnightblue" d="M1465.83,-372.739C1459.15,-361.963 1452.39,-348.911 1449,-336 1432.87,-274.629 1456.48,-199.442 1469.45,-165.356"/>
<polygon fill="midnightblue" stroke="midnightblue" points="1472.8,-166.39 1473.22,-155.803 1466.29,-163.819 1472.8,-166.39"/>
</g>
<!-- Node31 -->
<g id="node31" class="node"><title>Node31</title>
<polygon fill="none" stroke="#bfbfbf" points="1457.5,-310.5 1457.5,-329.5 1510.5,-329.5 1510.5,-310.5 1457.5,-310.5"/>
<text text-anchor="middle" x="1484" y="-317.5" font-family="Helvetica,sans-Serif" font-size="10.00">TMath.h</text>
</g>
<!-- Node1&#45;&gt;Node31 -->
<g id="edge37" class="edge"><title>Node1&#45;&gt;Node31</title>
<path fill="none" stroke="midnightblue" d="M1484,-372.787C1484,-362.069 1484,-349.785 1484,-339.871"/>
<polygon fill="midnightblue" stroke="midnightblue" points="1487.5,-339.558 1484,-329.558 1480.5,-339.558 1487.5,-339.558"/>
</g>
<!-- Node32 -->
<g id="node32" class="node"><title>Node32</title>
<polygon fill="none" stroke="#bfbfbf" points="1529,-310.5 1529,-329.5 1585,-329.5 1585,-310.5 1529,-310.5"/>
<text text-anchor="middle" x="1557" y="-317.5" font-family="Helvetica,sans-Serif" font-size="10.00">TString.h</text>
</g>
<!-- Node1&#45;&gt;Node32 -->
<g id="edge38" class="edge"><title>Node1&#45;&gt;Node32</title>
<path fill="none" stroke="midnightblue" d="M1507.9,-372.787C1519.06,-361.02 1532,-347.366 1541.8,-337.033"/>
<polygon fill="midnightblue" stroke="midnightblue" points="1544.55,-339.223 1548.89,-329.558 1539.47,-334.407 1544.55,-339.223"/>
</g>
<!-- Node33 -->
<g id="node33" class="node"><title>Node33</title>
<polygon fill="none" stroke="#bfbfbf" points="1603.5,-310.5 1603.5,-329.5 1648.5,-329.5 1648.5,-310.5 1603.5,-310.5"/>
<text text-anchor="middle" x="1626" y="-317.5" font-family="Helvetica,sans-Serif" font-size="10.00">cstdlib</text>
</g>
<!-- Node1&#45;&gt;Node33 -->
<g id="edge39" class="edge"><title>Node1&#45;&gt;Node33</title>
<path fill="none" stroke="midnightblue" d="M1530.5,-372.787C1554.13,-359.972 1581.89,-344.918 1601.37,-334.354"/>
<polygon fill="midnightblue" stroke="midnightblue" points="1603.1,-337.401 1610.22,-329.558 1599.76,-331.248 1603.1,-337.401"/>
</g>
<!-- Node3 -->
<g id="node3" class="node"><title>Node3</title>
<g id="a_node3"><a xlink:href="../../d4/de2/BaseCluster_8h.html" target="_top" xlink:title="DetectorsBase/BaseCluster.h">
<polygon fill="none" stroke="black" points="934.5,-248.5 934.5,-267.5 1081.5,-267.5 1081.5,-248.5 934.5,-248.5"/>
<text text-anchor="middle" x="1008" y="-255.5" font-family="Helvetica,sans-Serif" font-size="10.00">DetectorsBase/BaseCluster.h</text>
</a>
</g>
</g>
<!-- Node2&#45;&gt;Node3 -->
<g id="edge2" class="edge"><title>Node2&#45;&gt;Node3</title>
<path fill="none" stroke="midnightblue" d="M1108.29,-304.933C1086.38,-294.9 1057.17,-281.519 1035.92,-271.789"/>
<polygon fill="midnightblue" stroke="midnightblue" points="1037.33,-268.582 1026.78,-267.6 1034.41,-274.946 1037.33,-268.582"/>
</g>
<!-- Node4 -->
<g id="node4" class="node"><title>Node4</title>
<polygon fill="none" stroke="#bfbfbf" points="1181.5,-192.5 1181.5,-211.5 1240.5,-211.5 1240.5,-192.5 1181.5,-192.5"/>
<text text-anchor="middle" x="1211" y="-199.5" font-family="Helvetica,sans-Serif" font-size="10.00">TObject.h</text>
</g>
<!-- Node3&#45;&gt;Node4 -->
<g id="edge3" class="edge"><title>Node3&#45;&gt;Node4</title>
<path fill="none" stroke="midnightblue" d="M1040.17,-248.444C1075.78,-238.971 1133.2,-223.695 1171.51,-213.504"/>
<polygon fill="midnightblue" stroke="midnightblue" points="1172.53,-216.855 1181.3,-210.902 1170.73,-210.09 1172.53,-216.855"/>
</g>
<!-- Node5 -->
<g id="node5" class="node"><title>Node5</title>
<polygon fill="none" stroke="#bfbfbf" points="1258.5,-192.5 1258.5,-211.5 1299.5,-211.5 1299.5,-192.5 1258.5,-192.5"/>
<text text-anchor="middle" x="1279" y="-199.5" font-family="Helvetica,sans-Serif" font-size="10.00">bitset</text>
</g>
<!-- Node3&#45;&gt;Node5 -->
<g id="edge4" class="edge"><title>Node3&#45;&gt;Node5</title>
<path fill="none" stroke="midnightblue" d="M1062.91,-248.465C1109.79,-240.79 1179.14,-228.519 1248.62,-211.868"/>
<polygon fill="midnightblue" stroke="midnightblue" points="1249.53,-215.248 1258.42,-209.489 1247.88,-208.446 1249.53,-215.248"/>
</g>
<!-- Node6 -->
<g id="node6" class="node"><title>Node6</title>
<polygon fill="none" stroke="#bfbfbf" points="701,-192.5 701,-211.5 751,-211.5 751,-192.5 701,-192.5"/>
<text text-anchor="middle" x="726" y="-199.5" font-family="Helvetica,sans-Serif" font-size="10.00">iomanip</text>
</g>
<!-- Node3&#45;&gt;Node6 -->
<g id="edge5" class="edge"><title>Node3&#45;&gt;Node6</title>
<path fill="none" stroke="midnightblue" d="M954.054,-248.478C905.915,-240.588 833.302,-227.988 761.343,-212.162"/>
<polygon fill="midnightblue" stroke="midnightblue" points="761.718,-208.66 751.197,-209.908 760.199,-215.493 761.718,-208.66"/>
</g>
<!-- Node7 -->
<g id="node7" class="node"><title>Node7</title>
<polygon fill="none" stroke="#bfbfbf" points="769.5,-192.5 769.5,-211.5 798.5,-211.5 798.5,-192.5 769.5,-192.5"/>
<text text-anchor="middle" x="784" y="-199.5" font-family="Helvetica,sans-Serif" font-size="10.00">ios</text>
</g>
<!-- Node3&#45;&gt;Node7 -->
<g id="edge6" class="edge"><title>Node3&#45;&gt;Node7</title>
<path fill="none" stroke="midnightblue" d="M967.072,-248.479C927.463,-240.016 865.828,-226.272 813,-212 811.537,-211.605 810.037,-211.185 808.526,-210.751"/>
<polygon fill="midnightblue" stroke="midnightblue" points="809.276,-207.321 798.691,-207.791 807.259,-214.024 809.276,-207.321"/>
</g>
<!-- Node8 -->
<g id="node8" class="node"><title>Node8</title>
<polygon fill="none" stroke="#bfbfbf" points="0,-74.5 0,-93.5 54,-93.5 54,-74.5 0,-74.5"/>
<text text-anchor="middle" x="27" y="-81.5" font-family="Helvetica,sans-Serif" font-size="10.00">iostream</text>
</g>
<!-- Node3&#45;&gt;Node8 -->
<g id="edge7" class="edge"><title>Node3&#45;&gt;Node8</title>
<path fill="none" stroke="midnightblue" d="M986.367,-248.498C949.938,-234.526 873.782,-206.787 807,-192 481.693,-119.972 385.08,-185.305 63,-100 60.1774,-99.2524 57.2842,-98.331 54.4242,-97.3156"/>
<polygon fill="midnightblue" stroke="midnightblue" points="55.5675,-94.0046 44.9798,-93.6171 53.015,-100.523 55.5675,-94.0046"/>
</g>
<!-- Node9 -->
<g id="node9" class="node"><title>Node9</title>
<g id="a_node9"><a xlink:href="../../dd/d76/Cartesian3D_8h.html" target="_top" xlink:title="MathUtils/Cartesian3D.h">
<polygon fill="none" stroke="black" points="855.5,-136.5 855.5,-155.5 980.5,-155.5 980.5,-136.5 855.5,-136.5"/>
<text text-anchor="middle" x="918" y="-143.5" font-family="Helvetica,sans-Serif" font-size="10.00">MathUtils/Cartesian3D.h</text>
</a>
</g>
</g>
<!-- Node3&#45;&gt;Node9 -->
<g id="edge8" class="edge"><title>Node3&#45;&gt;Node9</title>
<path fill="none" stroke="midnightblue" d="M1000.94,-248.368C985.954,-230.055 950.767,-187.049 931.387,-163.362"/>
<polygon fill="midnightblue" stroke="midnightblue" points="934.071,-161.115 925.029,-155.591 928.653,-165.547 934.071,-161.115"/>
</g>
<!-- Node20 -->
<g id="node20" class="node"><title>Node20</title>
<g id="a_node20"><a xlink:href="../../d4/d20/DetMatrixCache_8h.html" target="_top" xlink:title="DetectorsBase/DetMatrixCache.h">
<polygon fill="none" stroke="black" points="999,-192.5 999,-211.5 1163,-211.5 1163,-192.5 999,-192.5"/>
<text text-anchor="middle" x="1081" y="-199.5" font-family="Helvetica,sans-Serif" font-size="10.00">DetectorsBase/DetMatrixCache.h</text>
</a>
</g>
</g>
<!-- Node3&#45;&gt;Node20 -->
<g id="edge20" class="edge"><title>Node3&#45;&gt;Node20</title>
<path fill="none" stroke="midnightblue" d="M1019.73,-248.324C1030.84,-240.107 1047.74,-227.602 1060.98,-217.807"/>
<polygon fill="midnightblue" stroke="midnightblue" points="1063.1,-220.595 1069.06,-211.834 1058.94,-214.967 1063.1,-220.595"/>
</g>
<!-- Node9&#45;&gt;Node8 -->
<g id="edge19" class="edge"><title>Node9&#45;&gt;Node8</title>
<path fill="none" stroke="midnightblue" d="M855.421,-137.314C850.546,-136.829 845.695,-136.383 841,-136 668.498,-121.945 231.883,-137.857 63,-100 59.9278,-99.3113 56.7839,-98.3779 53.6957,-97.3115"/>
<polygon fill="midnightblue" stroke="midnightblue" points="54.7645,-93.9713 44.1766,-93.5878 52.2144,-100.49 54.7645,-93.9713"/>
</g>
<!-- Node10 -->
<g id="node10" class="node"><title>Node10</title>
<polygon fill="none" stroke="#bfbfbf" points="672.5,-74.5 672.5,-93.5 821.5,-93.5 821.5,-74.5 672.5,-74.5"/>
<text text-anchor="middle" x="747" y="-81.5" font-family="Helvetica,sans-Serif" font-size="10.00">Math/GenVector/Rotation3D.h</text>
</g>
<!-- Node9&#45;&gt;Node10 -->
<g id="edge9" class="edge"><title>Node9&#45;&gt;Node10</title>
<path fill="none" stroke="midnightblue" d="M893.5,-136.403C864.04,-126.067 814.421,-108.656 781.198,-96.9994"/>
<polygon fill="midnightblue" stroke="midnightblue" points="782.05,-93.5889 771.455,-93.5806 779.732,-100.194 782.05,-93.5889"/>
</g>
<!-- Node11 -->
<g id="node11" class="node"><title>Node11</title>
<polygon fill="none" stroke="#bfbfbf" points="840,-74.5 840,-93.5 996,-93.5 996,-74.5 840,-74.5"/>
<text text-anchor="middle" x="918" y="-81.5" font-family="Helvetica,sans-Serif" font-size="10.00">Math/GenVector/Transform3D.h</text>
</g>
<!-- Node9&#45;&gt;Node11 -->
<g id="edge10" class="edge"><title>Node9&#45;&gt;Node11</title>
<path fill="none" stroke="midnightblue" d="M918,-136.403C918,-127.938 918,-114.728 918,-103.82"/>
<polygon fill="midnightblue" stroke="midnightblue" points="921.5,-103.581 918,-93.5806 914.5,-103.581 921.5,-103.581"/>
</g>
<!-- Node12 -->
<g id="node12" class="node"><title>Node12</title>
<polygon fill="none" stroke="#bfbfbf" points="1014,-74.5 1014,-93.5 1174,-93.5 1174,-74.5 1014,-74.5"/>
<text text-anchor="middle" x="1094" y="-81.5" font-family="Helvetica,sans-Serif" font-size="10.00">Math/GenVector/Translation3D.h</text>
</g>
<!-- Node9&#45;&gt;Node12 -->
<g id="edge11" class="edge"><title>Node9&#45;&gt;Node12</title>
<path fill="none" stroke="midnightblue" d="M943.217,-136.403C973.668,-126.022 1025.05,-108.506 1059.24,-96.849"/>
<polygon fill="midnightblue" stroke="midnightblue" points="1060.49,-100.12 1068.83,-93.5806 1058.24,-93.4946 1060.49,-100.12"/>
</g>
<!-- Node13 -->
<g id="node13" class="node"><title>Node13</title>
<polygon fill="none" stroke="#bfbfbf" points="1192,-74.5 1192,-93.5 1248,-93.5 1248,-74.5 1192,-74.5"/>
<text text-anchor="middle" x="1220" y="-81.5" font-family="Helvetica,sans-Serif" font-size="10.00">Rtypes.h</text>
</g>
<!-- Node9&#45;&gt;Node13 -->
<g id="edge12" class="edge"><title>Node9&#45;&gt;Node13</title>
<path fill="none" stroke="midnightblue" d="M980.692,-138.247C1034.93,-131.486 1115.1,-119.28 1183,-100 1185.81,-99.2012 1188.7,-98.2583 1191.57,-97.2406"/>
<polygon fill="midnightblue" stroke="midnightblue" points="1192.99,-100.444 1201.07,-93.5922 1190.48,-93.9087 1192.99,-100.444"/>
</g>
<!-- Node14 -->
<g id="node14" class="node"><title>Node14</title>
<polygon fill="none" stroke="#bfbfbf" points="72,-74.5 72,-93.5 148,-93.5 148,-74.5 72,-74.5"/>
<text text-anchor="middle" x="110" y="-81.5" font-family="Helvetica,sans-Serif" font-size="10.00">TGeoMatrix.h</text>
</g>
<!-- Node9&#45;&gt;Node14 -->
<g id="edge13" class="edge"><title>Node9&#45;&gt;Node14</title>
<path fill="none" stroke="midnightblue" d="M855.419,-137.347C850.544,-136.854 845.694,-136.397 841,-136 537.665,-110.316 456.461,-154.727 157,-100 152.197,-99.1223 147.203,-97.8918 142.341,-96.5092"/>
<polygon fill="midnightblue" stroke="midnightblue" points="143.237,-93.1229 132.65,-93.5216 141.175,-99.8123 143.237,-93.1229"/>
</g>
<!-- Node15 -->
<g id="node15" class="node"><title>Node15</title>
<polygon fill="none" stroke="#bfbfbf" points="309.5,-69 309.5,-99 460.5,-99 460.5,-69 309.5,-69"/>
<text text-anchor="start" x="317.5" y="-87" font-family="Helvetica,sans-Serif" font-size="10.00">Math/GenVector/Displacement</text>
<text text-anchor="middle" x="385" y="-76" font-family="Helvetica,sans-Serif" font-size="10.00">Vector3D.h</text>
</g>
<!-- Node9&#45;&gt;Node15 -->
<g id="edge14" class="edge"><title>Node9&#45;&gt;Node15</title>
<path fill="none" stroke="midnightblue" d="M855.397,-137.579C850.526,-137.033 845.684,-136.501 841,-136 679.493,-118.727 635.833,-122.263 470.953,-100.064"/>
<polygon fill="midnightblue" stroke="midnightblue" points="471.334,-96.5832 460.954,-98.7059 470.392,-103.52 471.334,-96.5832"/>
</g>
<!-- Node16 -->
<g id="node16" class="node"><title>Node16</title>
<polygon fill="none" stroke="#bfbfbf" points="479,-74.5 479,-93.5 655,-93.5 655,-74.5 479,-74.5"/>
<text text-anchor="middle" x="567" y="-81.5" font-family="Helvetica,sans-Serif" font-size="10.00">Math/GenVector/PositionVector3D.h</text>
</g>
<!-- Node9&#45;&gt;Node16 -->
<g id="edge15" class="edge"><title>Node9&#45;&gt;Node16</title>
<path fill="none" stroke="midnightblue" d="M868.083,-136.467C804.534,-125.604 694.851,-106.855 626.872,-95.2346"/>
<polygon fill="midnightblue" stroke="midnightblue" points="627.192,-91.7385 616.745,-93.5034 626.012,-98.6384 627.192,-91.7385"/>
</g>
<!-- Node17 -->
<g id="node17" class="node"><title>Node17</title>
<g id="a_node17"><a xlink:href="../../d2/dd0/Cartesian2D_8h.html" target="_top" xlink:title="MathUtils/Cartesian2D.h">
<polygon fill="none" stroke="black" points="166.5,-74.5 166.5,-93.5 291.5,-93.5 291.5,-74.5 166.5,-74.5"/>
<text text-anchor="middle" x="229" y="-81.5" font-family="Helvetica,sans-Serif" font-size="10.00">MathUtils/Cartesian2D.h</text>
</a>
</g>
</g>
<!-- Node9&#45;&gt;Node17 -->
<g id="edge16" class="edge"><title>Node9&#45;&gt;Node17</title>
<path fill="none" stroke="midnightblue" d="M855.412,-137.42C850.539,-136.911 845.691,-136.43 841,-136 601.03,-114.005 538.708,-132.988 300,-100 291.749,-98.8597 283.024,-97.3079 274.62,-95.6331"/>
<polygon fill="midnightblue" stroke="midnightblue" points="275.084,-92.155 264.582,-93.5487 273.661,-99.0088 275.084,-92.155"/>
</g>
<!-- Node18 -->
<g id="node18" class="node"><title>Node18</title>
<polygon fill="none" stroke="#bfbfbf" points="244.5,-1 244.5,-31 395.5,-31 395.5,-1 244.5,-1"/>
<text text-anchor="start" x="252.5" y="-19" font-family="Helvetica,sans-Serif" font-size="10.00">Math/GenVector/Displacement</text>
<text text-anchor="middle" x="320" y="-8" font-family="Helvetica,sans-Serif" font-size="10.00">Vector2D.h</text>
</g>
<!-- Node17&#45;&gt;Node18 -->
<g id="edge17" class="edge"><title>Node17&#45;&gt;Node18</title>
<path fill="none" stroke="midnightblue" d="M240.897,-74.3717C253.779,-65.0286 274.78,-49.7966 291.907,-37.375"/>
<polygon fill="midnightblue" stroke="midnightblue" points="294.407,-39.8859 300.447,-31.1815 290.297,-34.2194 294.407,-39.8859"/>
</g>
<!-- Node19 -->
<g id="node19" class="node"><title>Node19</title>
<polygon fill="none" stroke="#bfbfbf" points="50,-6.5 50,-25.5 226,-25.5 226,-6.5 50,-6.5"/>
<text text-anchor="middle" x="138" y="-13.5" font-family="Helvetica,sans-Serif" font-size="10.00">Math/GenVector/PositionVector2D.h</text>
</g>
<!-- Node17&#45;&gt;Node19 -->
<g id="edge18" class="edge"><title>Node17&#45;&gt;Node19</title>
<path fill="none" stroke="midnightblue" d="M217.103,-74.3717C202.116,-63.5015 176.138,-44.6602 158.058,-31.5474"/>
<polygon fill="midnightblue" stroke="midnightblue" points="160.05,-28.6684 149.9,-25.6305 155.94,-34.3349 160.05,-28.6684"/>
</g>
<!-- Node20&#45;&gt;Node9 -->
<g id="edge23" class="edge"><title>Node20&#45;&gt;Node9</title>
<path fill="none" stroke="midnightblue" d="M1055.17,-192.444C1027.75,-183.359 984.223,-168.939 953.568,-158.783"/>
<polygon fill="midnightblue" stroke="midnightblue" points="954.3,-155.339 943.707,-155.516 952.099,-161.984 954.3,-155.339"/>
</g>
<!-- Node20&#45;&gt;Node13 -->
<g id="edge34" class="edge"><title>Node20&#45;&gt;Node13</title>
<path fill="none" stroke="midnightblue" d="M1091.45,-192.281C1115.01,-172.619 1172.51,-124.63 1201.97,-100.05"/>
<polygon fill="midnightblue" stroke="midnightblue" points="1204.37,-102.599 1209.81,-93.5048 1199.89,-97.2249 1204.37,-102.599"/>
</g>
<!-- Node21 -->
<g id="node21" class="node"><title>Node21</title>
<polygon fill="none" stroke="#bfbfbf" points="1059,-136.5 1059,-155.5 1103,-155.5 1103,-136.5 1059,-136.5"/>
<text text-anchor="middle" x="1081" y="-143.5" font-family="Helvetica,sans-Serif" font-size="10.00">vector</text>
</g>
<!-- Node20&#45;&gt;Node21 -->
<g id="edge21" class="edge"><title>Node20&#45;&gt;Node21</title>
<path fill="none" stroke="midnightblue" d="M1081,-192.083C1081,-185.006 1081,-174.861 1081,-165.986"/>
<polygon fill="midnightblue" stroke="midnightblue" points="1084.5,-165.751 1081,-155.751 1077.5,-165.751 1084.5,-165.751"/>
</g>
<!-- Node22 -->
<g id="node22" class="node"><title>Node22</title>
<polygon fill="none" stroke="#bfbfbf" points="1274,-6.5 1274,-25.5 1312,-25.5 1312,-6.5 1274,-6.5"/>
<text text-anchor="middle" x="1293" y="-13.5" font-family="Helvetica,sans-Serif" font-size="10.00">array</text>
</g>
<!-- Node20&#45;&gt;Node22 -->
<g id="edge22" class="edge"><title>Node20&#45;&gt;Node22</title>
<path fill="none" stroke="midnightblue" d="M1106.12,-192.435C1143.49,-178.528 1213.82,-147.695 1256,-100 1272.7,-81.1199 1282.96,-53.4824 1288.32,-35.3692"/>
<polygon fill="midnightblue" stroke="midnightblue" points="1291.7,-36.2845 1290.98,-25.7141 1284.95,-34.4259 1291.7,-36.2845"/>
</g>
<!-- Node23 -->
<g id="node23" class="node"><title>Node23</title>
<g id="a_node23"><a xlink:href="../../d6/d31/DetID_8h.html" target="_top" xlink:title="DetectorsBase/DetID.h">
<polygon fill="none" stroke="black" points="1304.5,-136.5 1304.5,-155.5 1423.5,-155.5 1423.5,-136.5 1304.5,-136.5"/>
<text text-anchor="middle" x="1364" y="-143.5" font-family="Helvetica,sans-Serif" font-size="10.00">DetectorsBase/DetID.h</text>
</a>
</g>
</g>
<!-- Node20&#45;&gt;Node23 -->
<g id="edge24" class="edge"><title>Node20&#45;&gt;Node23</title>
<path fill="none" stroke="midnightblue" d="M1125.84,-192.444C1175.62,-182.944 1255.98,-167.611 1309.39,-157.42"/>
<polygon fill="midnightblue" stroke="midnightblue" points="1310.2,-160.829 1319.37,-155.516 1308.89,-153.953 1310.2,-160.829"/>
</g>
<!-- Node20&#45;&gt;Node30 -->
<g id="edge35" class="edge"><title>Node20&#45;&gt;Node30</title>
<path fill="none" stroke="midnightblue" d="M1159.99,-192.47C1228.98,-184.653 1332.04,-172.094 1431.28,-156.017"/>
<polygon fill="midnightblue" stroke="midnightblue" points="1431.88,-159.466 1441.18,-154.399 1430.75,-152.557 1431.88,-159.466"/>
</g>
<!-- Node23&#45;&gt;Node13 -->
<g id="edge28" class="edge"><title>Node23&#45;&gt;Node13</title>
<path fill="none" stroke="midnightblue" d="M1343.37,-136.403C1318.88,-126.2 1277.85,-109.105 1249.89,-97.4544"/>
<polygon fill="midnightblue" stroke="midnightblue" points="1251.17,-94.196 1240.59,-93.5806 1248.48,-100.658 1251.17,-94.196"/>
</g>
<!-- Node23&#45;&gt;Node22 -->
<g id="edge26" class="edge"><title>Node23&#45;&gt;Node22</title>
<path fill="none" stroke="midnightblue" d="M1357.68,-136.251C1351.35,-127.337 1341.51,-113.012 1334,-100 1321.49,-78.328 1309.03,-52.3181 1301.19,-35.262"/>
<polygon fill="midnightblue" stroke="midnightblue" points="1304.27,-33.574 1296.94,-25.9181 1297.9,-36.4702 1304.27,-33.574"/>
</g>
<!-- Node24 -->
<g id="node24" class="node"><title>Node24</title>
<polygon fill="none" stroke="#bfbfbf" points="1474,-74.5 1474,-93.5 1520,-93.5 1520,-74.5 1474,-74.5"/>
<text text-anchor="middle" x="1497" y="-81.5" font-family="Helvetica,sans-Serif" font-size="10.00">cstdint</text>
</g>
<!-- Node23&#45;&gt;Node24 -->
<g id="edge25" class="edge"><title>Node23&#45;&gt;Node24</title>
<path fill="none" stroke="midnightblue" d="M1383.18,-136.395C1403.32,-127.354 1435.9,-112.709 1464,-100 1465.58,-99.2868 1467.2,-98.5538 1468.83,-97.8134"/>
<polygon fill="midnightblue" stroke="midnightblue" points="1470.5,-100.899 1478.16,-93.5792 1467.61,-94.5251 1470.5,-100.899"/>
</g>
<!-- Node25 -->
<g id="node25" class="node"><title>Node25</title>
<polygon fill="none" stroke="#bfbfbf" points="1538,-74.5 1538,-93.5 1600,-93.5 1600,-74.5 1538,-74.5"/>
<text text-anchor="middle" x="1569" y="-81.5" font-family="Helvetica,sans-Serif" font-size="10.00">type_traits</text>
</g>
<!-- Node23&#45;&gt;Node25 -->
<g id="edge27" class="edge"><title>Node23&#45;&gt;Node25</title>
<path fill="none" stroke="midnightblue" d="M1399.04,-136.446C1432.63,-128.01 1484.64,-114.332 1529,-100 1531.78,-99.1022 1534.65,-98.1256 1537.52,-97.1159"/>
<polygon fill="midnightblue" stroke="midnightblue" points="1538.92,-100.329 1547.12,-93.6209 1536.53,-93.7514 1538.92,-100.329"/>
</g>
<!-- Node26 -->
<g id="node26" class="node"><title>Node26</title>
<g id="a_node26"><a xlink:href="../../d9/ded/Utils_8h.html" target="_top" xlink:title="DetectorsBase/Utils.h">
<polygon fill="none" stroke="black" points="1342.5,-74.5 1342.5,-93.5 1455.5,-93.5 1455.5,-74.5 1342.5,-74.5"/>
<text text-anchor="middle" x="1399" y="-81.5" font-family="Helvetica,sans-Serif" font-size="10.00">DetectorsBase/Utils.h</text>
</a>
</g>
</g>
<!-- Node23&#45;&gt;Node26 -->
<g id="edge29" class="edge"><title>Node23&#45;&gt;Node26</title>
<path fill="none" stroke="midnightblue" d="M1369.01,-136.403C1374.16,-127.582 1382.31,-113.608 1388.82,-102.455"/>
<polygon fill="midnightblue" stroke="midnightblue" points="1391.98,-103.982 1393.99,-93.5806 1385.93,-100.455 1391.98,-103.982"/>
</g>
<!-- Node29 -->
<g id="node29" class="node"><title>Node29</title>
<polygon fill="none" stroke="#bfbfbf" points="1618.5,-74.5 1618.5,-93.5 1667.5,-93.5 1667.5,-74.5 1618.5,-74.5"/>
<text text-anchor="middle" x="1643" y="-81.5" font-family="Helvetica,sans-Serif" font-size="10.00">cassert</text>
</g>
<!-- Node23&#45;&gt;Node29 -->
<g id="edge33" class="edge"><title>Node23&#45;&gt;Node29</title>
<path fill="none" stroke="midnightblue" d="M1418.13,-136.46C1478.83,-126.628 1573.31,-110.488 1608,-100 1610.49,-99.2466 1613.04,-98.3701 1615.58,-97.4262"/>
<polygon fill="midnightblue" stroke="midnightblue" points="1617.16,-100.563 1625.12,-93.5695 1614.54,-94.0733 1617.16,-100.563"/>
</g>
<!-- Node26&#45;&gt;Node22 -->
<g id="edge32" class="edge"><title>Node26&#45;&gt;Node22</title>
<path fill="none" stroke="midnightblue" d="M1385.14,-74.3717C1367.45,-63.3533 1336.6,-44.1449 1315.51,-31.0142"/>
<polygon fill="midnightblue" stroke="midnightblue" points="1317.2,-27.945 1306.86,-25.6305 1313.5,-33.8872 1317.2,-27.945"/>
</g>
<!-- Node27 -->
<g id="node27" class="node"><title>Node27</title>
<g id="a_node27"><a xlink:href="../../d1/daa/Base_2include_2DetectorsBase_2Constants_8h.html" target="_top" xlink:title="DetectorsBase/Constants.h">
<polygon fill="none" stroke="black" points="1330,-6.5 1330,-25.5 1468,-25.5 1468,-6.5 1330,-6.5"/>
<text text-anchor="middle" x="1399" y="-13.5" font-family="Helvetica,sans-Serif" font-size="10.00">DetectorsBase/Constants.h</text>
</a>
</g>
</g>
<!-- Node26&#45;&gt;Node27 -->
<g id="edge30" class="edge"><title>Node26&#45;&gt;Node27</title>
<path fill="none" stroke="midnightblue" d="M1399,-74.3717C1399,-64.6426 1399,-48.528 1399,-35.8504"/>
<polygon fill="midnightblue" stroke="midnightblue" points="1402.5,-35.8411 1399,-25.8411 1395.5,-35.8412 1402.5,-35.8411"/>
</g>
<!-- Node28 -->
<g id="node28" class="node"><title>Node28</title>
<polygon fill="none" stroke="#bfbfbf" points="1486,-6.5 1486,-25.5 1530,-25.5 1530,-6.5 1486,-6.5"/>
<text text-anchor="middle" x="1508" y="-13.5" font-family="Helvetica,sans-Serif" font-size="10.00">cmath</text>
</g>
<!-- Node26&#45;&gt;Node28 -->
<g id="edge31" class="edge"><title>Node26&#45;&gt;Node28</title>
<path fill="none" stroke="midnightblue" d="M1413.25,-74.3717C1431.53,-63.3039 1463.45,-43.9724 1485.15,-30.838"/>
<polygon fill="midnightblue" stroke="midnightblue" points="1487.01,-33.804 1493.75,-25.6305 1483.38,-27.8161 1487.01,-33.804"/>
</g>
</g>
</svg>
