<?xml version="1.0" encoding="UTF-8" standalone="no"?>
<!DOCTYPE svg PUBLIC "-//W3C//DTD SVG 1.1//EN"
 "http://www.w3.org/Graphics/SVG/1.1/DTD/svg11.dtd">
<!-- Generated by graphviz version 2.36.0 (20140111.2315)
 -->
<!-- Title: o2::Header::BaseHeader Pages: 1 -->
<!--zoomable 824 -->
<svg id="main" version="1.1" xmlns="http://www.w3.org/2000/svg" xmlns:xlink="http://www.w3.org/1999/xlink" xml:space="preserve" onload="init(evt)">
<style type="text/css"><![CDATA[
.edge:hover path { stroke: red; }
.edge:hover polygon { stroke: red; fill: red; }
]]></style>
<script type="text/javascript"><![CDATA[
var edges = document.getElementsByTagName('g');
if (edges && edges.length) {
  for (var i=0;i<edges.length;i++) {
    if (edges[i].id.substr(0,4)=='edge') {
      edges[i].setAttribute('class','edge');
    }
  }
}
]]></script>
        <defs>
                <circle id="rim" cx="0" cy="0" r="7"/>
                <circle id="rim2" cx="0" cy="0" r="3.5"/>
                <g id="zoomPlus">
                        <use xlink:href="#rim" fill="#404040">
                                <set attributeName="fill" to="#808080" begin="zoomplus.mouseover" end="zoomplus.mouseout"/>
                        </use>
                        <path d="M-4,0h8M0,-4v8" fill="none" stroke="white" stroke-width="1.5" pointer-events="none"/>
                </g>
                <g id="zoomMin">
                        <use xlink:href="#rim" fill="#404040">
                                <set attributeName="fill" to="#808080" begin="zoomminus.mouseover" end="zoomminus.mouseout"/>
                        </use>
                        <path d="M-4,0h8" fill="none" stroke="white" stroke-width="1.5" pointer-events="none"/>
                </g>
                <g id="dirArrow">
                        <path fill="none" stroke="white" stroke-width="1.5" d="M0,-3.0v7 M-2.5,-0.5L0,-3.0L2.5,-0.5"/>
                </g>
               <g id="resetDef">
                       <use xlink:href="#rim2" fill="#404040">
                               <set attributeName="fill" to="#808080" begin="reset.mouseover" end="reset.mouseout"/>
                       </use>
               </g>
        </defs>

<script type="text/javascript">
var viewWidth = 885;
var viewHeight = 824;
var sectionId = 'dynsection-1';
</script>
<script xlink:href="../../svgpan.js"/>
<svg id="graph" class="graph">
<g id="viewport">
<title>o2::Header::BaseHeader</title>
<!-- Node1 -->
<g id="node1" class="node"><title>Node1</title>
<polygon fill="#bfbfbf" stroke="black" points="282.397,-0.5 282.397,-123.5 407.397,-123.5 407.397,-0.5 282.397,-0.5"/>
<text text-anchor="middle" x="344.897" y="-111.5" font-family="Helvetica,sans-Serif" font-size="10.00">o2::Header::BaseHeader</text>
<polyline fill="none" stroke="black" points="282.397,-104.5 407.397,-104.5 "/>
<text text-anchor="middle" x="344.897" y="-92.5" font-family="Helvetica,sans-Serif" font-size="10.00"> </text>
<polyline fill="none" stroke="black" points="282.397,-85.5 407.397,-85.5 "/>
<text text-anchor="start" x="290.397" y="-73.5" font-family="Helvetica,sans-Serif" font-size="10.00">+ BaseHeader()</text>
<text text-anchor="start" x="290.397" y="-62.5" font-family="Helvetica,sans-Serif" font-size="10.00">+ BaseHeader()</text>
<text text-anchor="start" x="290.397" y="-51.5" font-family="Helvetica,sans-Serif" font-size="10.00">+ BaseHeader()</text>
<text text-anchor="start" x="290.397" y="-40.5" font-family="Helvetica,sans-Serif" font-size="10.00">+ size()</text>
<text text-anchor="start" x="290.397" y="-29.5" font-family="Helvetica,sans-Serif" font-size="10.00">+ data()</text>
<text text-anchor="start" x="290.397" y="-18.5" font-family="Helvetica,sans-Serif" font-size="10.00">+ next()</text>
<text text-anchor="start" x="290.397" y="-7.5" font-family="Helvetica,sans-Serif" font-size="10.00">+ get()</text>
</g>
<!-- Node2 -->
<g id="node2" class="node"><title>Node2</title>
<g id="a_node2"><a xlink:href="../../d0/da5/structo2_1_1Header_1_1Descriptor.html" target="_top" xlink:title="{o2::Header::Descriptor\l\&lt; gSizeHeaderDescriptionString \&gt;\n||+ Descriptor()\l+ Descriptor()\l+ Descriptor()\l+ Descriptor()\l+ operator=()\l+ operator ItgType()\l+ runtimeInit()\l+ operator==()\l+ operator==()\l+ operator!=()\l+ operator!=()\l+ print()\l}">
<polygon fill="none" stroke="black" points="459.897,-248.5 459.897,-437.5 625.897,-437.5 625.897,-248.5 459.897,-248.5"/>
<text text-anchor="start" x="467.897" y="-425.5" font-family="Helvetica,sans-Serif" font-size="10.00">o2::Header::Descriptor</text>
<text text-anchor="middle" x="542.897" y="-414.5" font-family="Helvetica,sans-Serif" font-size="10.00">&lt; gSizeHeaderDescriptionString &gt;</text>
<polyline fill="none" stroke="black" points="459.897,-407.5 625.897,-407.5 "/>
<text text-anchor="middle" x="542.897" y="-395.5" font-family="Helvetica,sans-Serif" font-size="10.00"> </text>
<polyline fill="none" stroke="black" points="459.897,-388.5 625.897,-388.5 "/>
<text text-anchor="start" x="467.897" y="-376.5" font-family="Helvetica,sans-Serif" font-size="10.00">+ Descriptor()</text>
<text text-anchor="start" x="467.897" y="-365.5" font-family="Helvetica,sans-Serif" font-size="10.00">+ Descriptor()</text>
<text text-anchor="start" x="467.897" y="-354.5" font-family="Helvetica,sans-Serif" font-size="10.00">+ Descriptor()</text>
<text text-anchor="start" x="467.897" y="-343.5" font-family="Helvetica,sans-Serif" font-size="10.00">+ Descriptor()</text>
<text text-anchor="start" x="467.897" y="-332.5" font-family="Helvetica,sans-Serif" font-size="10.00">+ operator=()</text>
<text text-anchor="start" x="467.897" y="-321.5" font-family="Helvetica,sans-Serif" font-size="10.00">+ operator ItgType()</text>
<text text-anchor="start" x="467.897" y="-310.5" font-family="Helvetica,sans-Serif" font-size="10.00">+ runtimeInit()</text>
<text text-anchor="start" x="467.897" y="-299.5" font-family="Helvetica,sans-Serif" font-size="10.00">+ operator==()</text>
<text text-anchor="start" x="467.897" y="-288.5" font-family="Helvetica,sans-Serif" font-size="10.00">+ operator==()</text>
<text text-anchor="start" x="467.897" y="-277.5" font-family="Helvetica,sans-Serif" font-size="10.00">+ operator!=()</text>
<text text-anchor="start" x="467.897" y="-266.5" font-family="Helvetica,sans-Serif" font-size="10.00">+ operator!=()</text>
<text text-anchor="start" x="467.897" y="-255.5" font-family="Helvetica,sans-Serif" font-size="10.00">+ print()</text>
</a>
</g>
</g>
<!-- Node2&#45;&gt;Node1 -->
<g id="edge1" class="edge"><title>Node2&#45;&gt;Node1</title>
<path fill="none" stroke="#404040" d="M476.415,-248.321C449.829,-210.859 419.724,-168.438 395.032,-133.645"/>
<polygon fill="none" stroke="#404040" points="394.832,-133.363 388.097,-130.785 387.887,-123.576 394.621,-126.155 394.832,-133.363"/>
<text text-anchor="middle" x="490.397" y="-183.5" font-family="Helvetica,sans-Serif" font-size="10.00"> +description</text>
</g>
<!-- Node3 -->
<g id="node3" class="node"><title>Node3</title>
<polygon fill="none" stroke="#bfbfbf" points="506.897,-757.5 506.897,-814.5 544.897,-814.5 544.897,-757.5 506.897,-757.5"/>
<text text-anchor="middle" x="525.897" y="-802.5" font-family="Helvetica,sans-Serif" font-size="10.00">Type</text>
<polyline fill="none" stroke="#bfbfbf" points="506.897,-795.5 544.897,-795.5 "/>
<text text-anchor="middle" x="525.897" y="-783.5" font-family="Helvetica,sans-Serif" font-size="10.00"> </text>
<polyline fill="none" stroke="#bfbfbf" points="506.897,-776.5 544.897,-776.5 "/>
<text text-anchor="middle" x="525.897" y="-764.5" font-family="Helvetica,sans-Serif" font-size="10.00"> </text>
</g>
<!-- Node3&#45;&gt;Node2 -->
<g id="edge2" class="edge"><title>Node3&#45;&gt;Node2</title>
<path fill="none" stroke="#404040" d="M545.207,-777.548C561.725,-770.117 584.704,-757.049 596.897,-738 609.502,-718.306 603.114,-709.315 604.897,-686 611.336,-601.801 621.147,-578.866 604.897,-496 601.859,-480.511 597.234,-464.61 591.851,-449.2"/>
<polygon fill="none" stroke="#404040" points="591.706,-448.802 585.895,-444.533 587.6,-437.526 593.412,-441.795 591.706,-448.802"/>
<text text-anchor="middle" x="623.897" y="-588.5" font-family="Helvetica,sans-Serif" font-size="10.00"> +itg</text>
</g>
<!-- Node7 -->
<g id="node7" class="node"><title>Node7</title>
<g id="a_node7"><a xlink:href="../../d0/da5/structo2_1_1Header_1_1Descriptor.html" target="_top" xlink:title="{o2::Header::Descriptor\l\&lt; N, PrinterPolicy \&gt;\n||+ Descriptor()\l+ Descriptor()\l+ Descriptor()\l+ operator=()\l+ operator ItgType()\l+ Descriptor()\l+ runtimeInit()\l+ operator==()\l+ operator!=()\l+ operator==()\l+ operator!=()\l+ print()\l}">
<polygon fill="none" stroke="black" points="279.897,-496.5 279.897,-685.5 395.897,-685.5 395.897,-496.5 279.897,-496.5"/>
<text text-anchor="start" x="287.897" y="-673.5" font-family="Helvetica,sans-Serif" font-size="10.00">o2::Header::Descriptor</text>
<text text-anchor="middle" x="337.897" y="-662.5" font-family="Helvetica,sans-Serif" font-size="10.00">&lt; N, PrinterPolicy &gt;</text>
<polyline fill="none" stroke="black" points="279.897,-655.5 395.897,-655.5 "/>
<text text-anchor="middle" x="337.897" y="-643.5" font-family="Helvetica,sans-Serif" font-size="10.00"> </text>
<polyline fill="none" stroke="black" points="279.897,-636.5 395.897,-636.5 "/>
<text text-anchor="start" x="287.897" y="-624.5" font-family="Helvetica,sans-Serif" font-size="10.00">+ Descriptor()</text>
<text text-anchor="start" x="287.897" y="-613.5" font-family="Helvetica,sans-Serif" font-size="10.00">+ Descriptor()</text>
<text text-anchor="start" x="287.897" y="-602.5" font-family="Helvetica,sans-Serif" font-size="10.00">+ Descriptor()</text>
<text text-anchor="start" x="287.897" y="-591.5" font-family="Helvetica,sans-Serif" font-size="10.00">+ operator=()</text>
<text text-anchor="start" x="287.897" y="-580.5" font-family="Helvetica,sans-Serif" font-size="10.00">+ operator ItgType()</text>
<text text-anchor="start" x="287.897" y="-569.5" font-family="Helvetica,sans-Serif" font-size="10.00">+ Descriptor()</text>
<text text-anchor="start" x="287.897" y="-558.5" font-family="Helvetica,sans-Serif" font-size="10.00">+ runtimeInit()</text>
<text text-anchor="start" x="287.897" y="-547.5" font-family="Helvetica,sans-Serif" font-size="10.00">+ operator==()</text>
<text text-anchor="start" x="287.897" y="-536.5" font-family="Helvetica,sans-Serif" font-size="10.00">+ operator!=()</text>
<text text-anchor="start" x="287.897" y="-525.5" font-family="Helvetica,sans-Serif" font-size="10.00">+ operator==()</text>
<text text-anchor="start" x="287.897" y="-514.5" font-family="Helvetica,sans-Serif" font-size="10.00">+ operator!=()</text>
<text text-anchor="start" x="287.897" y="-503.5" font-family="Helvetica,sans-Serif" font-size="10.00">+ print()</text>
</a>
</g>
</g>
<!-- Node3&#45;&gt;Node7 -->
<g id="edge7" class="edge"><title>Node3&#45;&gt;Node7</title>
<path fill="none" stroke="#404040" d="M506.747,-770.69C482.827,-752.373 441.236,-719.041 409.897,-686 408,-684 406.105,-681.953 404.216,-679.867"/>
<polygon fill="none" stroke="#404040" points="403.914,-679.523 396.948,-677.66 395.989,-670.513 402.955,-672.376 403.914,-679.523"/>
<text text-anchor="middle" x="474.897" y="-718.5" font-family="Helvetica,sans-Serif" font-size="10.00"> +itg</text>
</g>
<!-- Node8 -->
<g id="node8" class="node"><title>Node8</title>
<g id="a_node8"><a xlink:href="../../d0/da5/structo2_1_1Header_1_1Descriptor.html" target="_top" xlink:title="{o2::Header::Descriptor\l\&lt; gSizeSerializationMethodString \&gt;\n||+ Descriptor()\l+ Descriptor()\l+ Descriptor()\l+ Descriptor()\l+ operator=()\l+ operator ItgType()\l+ runtimeInit()\l+ operator==()\l+ operator==()\l+ operator!=()\l+ operator!=()\l+ print()\l}">
<polygon fill="none" stroke="black" points="105.897,-248.5 105.897,-437.5 275.897,-437.5 275.897,-248.5 105.897,-248.5"/>
<text text-anchor="start" x="113.897" y="-425.5" font-family="Helvetica,sans-Serif" font-size="10.00">o2::Header::Descriptor</text>
<text text-anchor="middle" x="190.897" y="-414.5" font-family="Helvetica,sans-Serif" font-size="10.00">&lt; gSizeSerializationMethodString &gt;</text>
<polyline fill="none" stroke="black" points="105.897,-407.5 275.897,-407.5 "/>
<text text-anchor="middle" x="190.897" y="-395.5" font-family="Helvetica,sans-Serif" font-size="10.00"> </text>
<polyline fill="none" stroke="black" points="105.897,-388.5 275.897,-388.5 "/>
<text text-anchor="start" x="113.897" y="-376.5" font-family="Helvetica,sans-Serif" font-size="10.00">+ Descriptor()</text>
<text text-anchor="start" x="113.897" y="-365.5" font-family="Helvetica,sans-Serif" font-size="10.00">+ Descriptor()</text>
<text text-anchor="start" x="113.897" y="-354.5" font-family="Helvetica,sans-Serif" font-size="10.00">+ Descriptor()</text>
<text text-anchor="start" x="113.897" y="-343.5" font-family="Helvetica,sans-Serif" font-size="10.00">+ Descriptor()</text>
<text text-anchor="start" x="113.897" y="-332.5" font-family="Helvetica,sans-Serif" font-size="10.00">+ operator=()</text>
<text text-anchor="start" x="113.897" y="-321.5" font-family="Helvetica,sans-Serif" font-size="10.00">+ operator ItgType()</text>
<text text-anchor="start" x="113.897" y="-310.5" font-family="Helvetica,sans-Serif" font-size="10.00">+ runtimeInit()</text>
<text text-anchor="start" x="113.897" y="-299.5" font-family="Helvetica,sans-Serif" font-size="10.00">+ operator==()</text>
<text text-anchor="start" x="113.897" y="-288.5" font-family="Helvetica,sans-Serif" font-size="10.00">+ operator==()</text>
<text text-anchor="start" x="113.897" y="-277.5" font-family="Helvetica,sans-Serif" font-size="10.00">+ operator!=()</text>
<text text-anchor="start" x="113.897" y="-266.5" font-family="Helvetica,sans-Serif" font-size="10.00">+ operator!=()</text>
<text text-anchor="start" x="113.897" y="-255.5" font-family="Helvetica,sans-Serif" font-size="10.00">+ print()</text>
</a>
</g>
</g>
<!-- Node3&#45;&gt;Node8 -->
<g id="edge14" class="edge"><title>Node3&#45;&gt;Node8</title>
<path fill="none" stroke="#404040" d="M506.726,-782.384C471.434,-777.121 394.272,-763.518 333.897,-738 293.8,-721.053 275.538,-721.885 250.897,-686 202.198,-615.08 258.032,-569.847 213.897,-496 207.416,-485.156 197.349,-489.396 191.897,-478 187.649,-469.123 184.778,-459.52 182.945,-449.675"/>
<polygon fill="none" stroke="#404040" points="182.913,-449.455 178.098,-444.088 181.2,-437.578 186.016,-442.946 182.913,-449.455"/>
<text text-anchor="middle" x="260.897" y="-588.5" font-family="Helvetica,sans-Serif" font-size="10.00"> +itg</text>
</g>
<!-- Node4 -->
<g id="node4" class="node"><title>Node4</title>
<polygon fill="none" stroke="#bfbfbf" points="73.3968,-757 73.3968,-815 102.397,-815 102.397,-757 73.3968,-757"/>
<polyline fill="none" stroke="#bfbfbf" points="73.3968,-795 102.397,-795 "/>
<text text-anchor="middle" x="87.8968" y="-783" font-family="Helvetica,sans-Serif" font-size="10.00"> </text>
<polyline fill="none" stroke="#bfbfbf" points="73.3968,-776 102.397,-776 "/>
<text text-anchor="middle" x="87.8968" y="-764" font-family="Helvetica,sans-Serif" font-size="10.00"> </text>
</g>
<!-- Node4&#45;&gt;Node1 -->
<g id="edge12" class="edge"><title>Node4&#45;&gt;Node1</title>
<path fill="none" stroke="#404040" d="M80.13,-756.933C58.6968,-673.547 6.09342,-422.27 96.8968,-248 134.108,-176.583 212.788,-125.367 271.605,-95.1836"/>
<polygon fill="none" stroke="#404040" points="271.618,-95.1772 275.185,-88.9101 282.342,-89.7924 278.775,-96.0595 271.618,-95.1772"/>
<text text-anchor="middle" x="59.3968" y="-464.5" font-family="Helvetica,sans-Serif" font-size="10.00"> +@5</text>
</g>
<!-- Node4&#45;&gt;Node1 -->
<g id="edge19" class="edge"><title>Node4&#45;&gt;Node1</title>
<path fill="none" stroke="#404040" d="M73.3371,-759.845C62.7756,-740.351 49.1244,-712.317 41.8968,-686 -9.65748,-498.282 -18.3802,-432.438 43.8968,-248 61.2857,-196.501 62.7449,-176.317 104.897,-142 152.294,-103.412 219.19,-83.4269 270.321,-73.2251"/>
<polygon fill="none" stroke="#404040" points="270.506,-73.1901 275.656,-68.1428 282.296,-70.9556 277.146,-76.0029 270.506,-73.1901"/>
<text text-anchor="middle" x="13.3968" y="-464.5" font-family="Helvetica,sans-Serif" font-size="10.00"> +@7</text>
</g>
<!-- Node4&#45;&gt;Node2 -->
<g id="edge3" class="edge"><title>Node4&#45;&gt;Node2</title>
<path fill="none" stroke="#404040" d="M102.435,-783.225C161.66,-775.933 382.12,-748.194 392.897,-738 472.042,-663.135 359.777,-577.654 431.897,-496 451.741,-473.533 475.069,-498.545 496.897,-478 505.695,-469.718 512.811,-459.681 518.566,-448.866"/>
<polygon fill="none" stroke="#404040" points="518.674,-448.641 517.672,-441.5 523.879,-437.829 524.88,-444.97 518.674,-448.641"/>
<text text-anchor="middle" x="444.397" y="-588.5" font-family="Helvetica,sans-Serif" font-size="10.00"> +@3</text>
</g>
<!-- Node4&#45;&gt;Node7 -->
<g id="edge8" class="edge"><title>Node4&#45;&gt;Node7</title>
<path fill="none" stroke="#404040" d="M102.823,-778.618C134.118,-764.786 207.993,-729.737 259.897,-686 263.728,-682.772 267.516,-679.339 271.237,-675.766"/>
<polygon fill="none" stroke="#404040" points="271.304,-675.699 272.714,-668.627 279.785,-667.208 278.375,-674.28 271.304,-675.699"/>
<text text-anchor="middle" x="247.397" y="-718.5" font-family="Helvetica,sans-Serif" font-size="10.00"> +@3</text>
</g>
<!-- Node4&#45;&gt;Node8 -->
<g id="edge15" class="edge"><title>Node4&#45;&gt;Node8</title>
<path fill="none" stroke="#404040" d="M84.8932,-756.767C80.2455,-704.179 74.4765,-588.204 101.897,-496 106.631,-480.079 113.363,-464.072 121.032,-448.731"/>
<polygon fill="none" stroke="#404040" points="121.236,-448.339 120.451,-441.17 126.767,-437.689 127.551,-444.858 121.236,-448.339"/>
<text text-anchor="middle" x="114.397" y="-588.5" font-family="Helvetica,sans-Serif" font-size="10.00"> +@3</text>
</g>
<!-- Node5 -->
<g id="node5" class="node"><title>Node5</title>
<polygon fill="none" stroke="#bfbfbf" points="655.397,-757.5 655.397,-814.5 690.397,-814.5 690.397,-757.5 655.397,-757.5"/>
<text text-anchor="middle" x="672.897" y="-802.5" font-family="Helvetica,sans-Serif" font-size="10.00">char</text>
<polyline fill="none" stroke="#bfbfbf" points="655.397,-795.5 690.397,-795.5 "/>
<text text-anchor="middle" x="672.897" y="-783.5" font-family="Helvetica,sans-Serif" font-size="10.00"> </text>
<polyline fill="none" stroke="#bfbfbf" points="655.397,-776.5 690.397,-776.5 "/>
<text text-anchor="middle" x="672.897" y="-764.5" font-family="Helvetica,sans-Serif" font-size="10.00"> </text>
</g>
<!-- Node5&#45;&gt;Node1 -->
<g id="edge11" class="edge"><title>Node5&#45;&gt;Node1</title>
<path fill="none" stroke="#404040" d="M682.419,-757.345C684.397,-751.034 686.348,-744.323 687.897,-738 693.476,-715.218 694.889,-709.369 696.897,-686 713.723,-490.114 734.11,-417.739 634.897,-248 587.224,-166.438 487.732,-115.035 418.667,-87.6619"/>
<polygon fill="none" stroke="#404040" points="418.621,-87.644 411.581,-89.2087 407.43,-83.3127 414.469,-81.748 418.621,-87.644"/>
<text text-anchor="middle" x="741.397" y="-464.5" font-family="Helvetica,sans-Serif" font-size="10.00"> +magicString</text>
</g>
<!-- Node5&#45;&gt;Node2 -->
<g id="edge4" class="edge"><title>Node5&#45;&gt;Node2</title>
<path fill="none" stroke="#404040" d="M673.678,-757.341C674.279,-704.734 671.341,-587.361 637.897,-496 632.03,-479.973 624.317,-463.837 615.817,-448.374"/>
<polygon fill="none" stroke="#404040" points="615.735,-448.228 609.297,-444.979 609.821,-437.786 616.258,-441.036 615.735,-448.228"/>
<text text-anchor="middle" x="682.397" y="-588.5" font-family="Helvetica,sans-Serif" font-size="10.00"> +str</text>
</g>
<!-- Node5&#45;&gt;Node7 -->
<g id="edge9" class="edge"><title>Node5&#45;&gt;Node7</title>
<path fill="none" stroke="#404040" d="M655.322,-775.905C623.09,-759.535 552.025,-724.875 488.897,-704 454.707,-692.694 440.203,-705.451 409.897,-686 408.383,-685.028 406.889,-684.014 405.414,-682.959"/>
<polygon fill="none" stroke="#404040" points="405.377,-682.93 398.19,-682.336 395.974,-675.474 403.161,-676.068 405.377,-682.93"/>
<text text-anchor="middle" x="582.397" y="-718.5" font-family="Helvetica,sans-Serif" font-size="10.00"> +str</text>
</g>
<!-- Node5&#45;&gt;Node8 -->
<g id="edge16" class="edge"><title>Node5&#45;&gt;Node8</title>
<path fill="none" stroke="#404040" d="M655.101,-765.999C639.71,-749.573 616.855,-725.202 596.897,-704 589.354,-695.988 584.545,-695.974 579.897,-686 543.992,-608.946 601.39,-569.04 557.897,-496 505.941,-408.749 432.609,-471.93 336.897,-438 319.882,-431.968 302.838,-423.615 286.711,-414.356"/>
<polygon fill="none" stroke="#404040" points="286.576,-414.277 279.375,-414.657 276.254,-408.156 283.455,-407.776 286.576,-414.277"/>
<text text-anchor="middle" x="590.397" y="-588.5" font-family="Helvetica,sans-Serif" font-size="10.00"> +str</text>
</g>
<!-- Node6 -->
<g id="node6" class="node"><title>Node6</title>
<polygon fill="none" stroke="#bfbfbf" points="323.397,-757.5 323.397,-814.5 352.397,-814.5 352.397,-757.5 323.397,-757.5"/>
<text text-anchor="middle" x="337.897" y="-802.5" font-family="Helvetica,sans-Serif" font-size="10.00">int</text>
<polyline fill="none" stroke="#bfbfbf" points="323.397,-795.5 352.397,-795.5 "/>
<text text-anchor="middle" x="337.897" y="-783.5" font-family="Helvetica,sans-Serif" font-size="10.00"> </text>
<polyline fill="none" stroke="#bfbfbf" points="323.397,-776.5 352.397,-776.5 "/>
<text text-anchor="middle" x="337.897" y="-764.5" font-family="Helvetica,sans-Serif" font-size="10.00"> </text>
</g>
<!-- Node6&#45;&gt;Node2 -->
<g id="edge5" class="edge"><title>Node6&#45;&gt;Node2</title>
<path fill="none" stroke="#404040" d="M352.451,-782.719C375.65,-778.313 420.936,-766.426 445.897,-738 461.768,-719.926 454.732,-709.25 460.897,-686 483.165,-602.018 467.848,-573.615 506.897,-496 511.577,-486.697 517.602,-487.487 521.897,-478 525.936,-469.078 529.217,-459.518 531.879,-449.764"/>
<polygon fill="none" stroke="#404040" points="531.957,-449.449 529.509,-442.666 534.829,-437.798 537.277,-444.581 531.957,-449.449"/>
<text text-anchor="middle" x="532.397" y="-599.5" font-family="Helvetica,sans-Serif" font-size="10.00"> +arraySize</text>
<text text-anchor="middle" x="532.397" y="-588.5" font-family="Helvetica,sans-Serif" font-size="10.00">+size</text>
<text text-anchor="middle" x="532.397" y="-577.5" font-family="Helvetica,sans-Serif" font-size="10.00">+bitcount</text>
</g>
<!-- Node6&#45;&gt;Node7 -->
<g id="edge10" class="edge"><title>Node6&#45;&gt;Node7</title>
<path fill="none" stroke="#404040" d="M337.897,-757.348C337.897,-741.342 337.897,-720.063 337.897,-698.114"/>
<polygon fill="none" stroke="#404040" points="337.897,-697.881 333.897,-691.881 337.897,-685.881 341.897,-691.881 337.897,-697.881"/>
<text text-anchor="middle" x="363.397" y="-729.5" font-family="Helvetica,sans-Serif" font-size="10.00"> +arraySize</text>
<text text-anchor="middle" x="363.397" y="-718.5" font-family="Helvetica,sans-Serif" font-size="10.00">+size</text>
<text text-anchor="middle" x="363.397" y="-707.5" font-family="Helvetica,sans-Serif" font-size="10.00">+bitcount</text>
</g>
<!-- Node6&#45;&gt;Node8 -->
<g id="edge17" class="edge"><title>Node6&#45;&gt;Node8</title>
<path fill="none" stroke="#404040" d="M323.335,-782.543C286.851,-775.469 192.349,-751.217 162.897,-686 129.462,-611.964 139.59,-519.765 156.359,-449.759"/>
<polygon fill="none" stroke="#404040" points="156.428,-449.484 153.997,-442.695 159.329,-437.84 161.76,-444.629 156.428,-449.484"/>
<text text-anchor="middle" x="188.397" y="-599.5" font-family="Helvetica,sans-Serif" font-size="10.00"> +arraySize</text>
<text text-anchor="middle" x="188.397" y="-588.5" font-family="Helvetica,sans-Serif" font-size="10.00">+size</text>
<text text-anchor="middle" x="188.397" y="-577.5" font-family="Helvetica,sans-Serif" font-size="10.00">+bitcount</text>
</g>
<!-- Node7&#45;&gt;Node1 -->
<g id="edge21" class="edge"><title>Node7&#45;&gt;Node1</title>
<path fill="none" stroke="#404040" d="M339.14,-496.39C340.509,-393.353 342.68,-229.897 343.928,-135.938"/>
<polygon fill="none" stroke="#404040" points="343.931,-135.714 340.011,-129.661 344.09,-123.715 348.01,-129.767 343.931,-135.714"/>
<text text-anchor="middle" x="391.397" y="-346" font-family="Helvetica,sans-Serif" font-size="10.00"> +sHeaderType</text>
<text text-anchor="middle" x="391.397" y="-335" font-family="Helvetica,sans-Serif" font-size="10.00">+sSerializationMethod</text>
</g>
<!-- Node7&#45;&gt;Node2 -->
<g id="edge6" class="edge"><title>Node7&#45;&gt;Node2</title>
<path fill="none" stroke="orange" d="M357.278,-486.875C362.791,-475.407 369.854,-464.737 378.897,-456 401.072,-434.576 419.079,-453.216 445.897,-438 450.588,-435.338 455.219,-432.396 459.763,-429.246"/>
<polygon fill="orange" stroke="orange" points="353.99,-485.657 353.18,-496.221 360.401,-488.468 353.99,-485.657"/>
<text text-anchor="start" x="378.897" y="-470" font-family="Helvetica,sans-Serif" font-size="10.00"> &lt; gSizeHeaderDescription</text>
<text text-anchor="middle" x="437.897" y="-459" font-family="Helvetica,sans-Serif" font-size="10.00">String &gt;</text>
</g>
<!-- Node7&#45;&gt;Node8 -->
<g id="edge18" class="edge"><title>Node7&#45;&gt;Node8</title>
<path fill="none" stroke="orange" d="M271.715,-505.107C267.879,-501.855 263.934,-498.796 259.897,-496 239.791,-482.076 223.31,-496.988 207.897,-478 198.512,-466.439 192.737,-452.368 189.358,-437.745"/>
<polygon fill="orange" stroke="orange" points="269.651,-507.957 279.432,-512.03 274.326,-502.747 269.651,-507.957"/>
<text text-anchor="start" x="207.897" y="-470" font-family="Helvetica,sans-Serif" font-size="10.00"> &lt; gSizeSerializationMethod</text>
<text text-anchor="middle" x="269.397" y="-459" font-family="Helvetica,sans-Serif" font-size="10.00">String &gt;</text>
</g>
<!-- Node8&#45;&gt;Node1 -->
<g id="edge13" class="edge"><title>Node8&#45;&gt;Node1</title>
<path fill="none" stroke="#404040" d="M219.477,-248.32C232.227,-213.503 249.117,-174.576 269.897,-142 271.756,-139.085 273.732,-136.184 275.799,-133.309"/>
<polygon fill="none" stroke="#404040" points="275.876,-133.208 276.323,-126.01 283.138,-123.655 282.692,-130.852 275.876,-133.208"/>
<text text-anchor="middle" x="300.397" y="-183.5" font-family="Helvetica,sans-Serif" font-size="10.00"> +serialization</text>
</g>
<!-- Node9 -->
<g id="node9" class="node"><title>Node9</title>
<polygon fill="none" stroke="#bfbfbf" points="770.397,-314.5 770.397,-371.5 821.397,-371.5 821.397,-314.5 770.397,-314.5"/>
<text text-anchor="middle" x="795.897" y="-359.5" font-family="Helvetica,sans-Serif" font-size="10.00">uint32_t</text>
<polyline fill="none" stroke="#bfbfbf" points="770.397,-352.5 821.397,-352.5 "/>
<text text-anchor="middle" x="795.897" y="-340.5" font-family="Helvetica,sans-Serif" font-size="10.00"> </text>
<polyline fill="none" stroke="#bfbfbf" points="770.397,-333.5 821.397,-333.5 "/>
<text text-anchor="middle" x="795.897" y="-321.5" font-family="Helvetica,sans-Serif" font-size="10.00"> </text>
</g>
<!-- Node9&#45;&gt;Node1 -->
<g id="edge20" class="edge"><title>Node9&#45;&gt;Node1</title>
<path fill="none" stroke="#404040" d="M799.158,-314.33C802.573,-271.138 802.14,-187.898 755.897,-142 709.452,-95.9026 524.904,-75.5645 419.58,-67.5577"/>
<polygon fill="none" stroke="#404040" points="419.423,-67.5462 413.145,-71.0942 407.455,-66.6638 413.733,-63.1159 419.423,-67.5462"/>
<text text-anchor="middle" x="836.897" y="-222" font-family="Helvetica,sans-Serif" font-size="10.00"> +headerVersion</text>
<text text-anchor="middle" x="836.897" y="-211" font-family="Helvetica,sans-Serif" font-size="10.00">+headerSize</text>
<text text-anchor="middle" x="836.897" y="-200" font-family="Helvetica,sans-Serif" font-size="10.00">+sMagicString</text>
<text text-anchor="middle" x="836.897" y="-189" font-family="Helvetica,sans-Serif" font-size="10.00">+flagsNextHeader</text>
<text text-anchor="middle" x="836.897" y="-178" font-family="Helvetica,sans-Serif" font-size="10.00">+magicStringInt</text>
<text text-anchor="middle" x="836.897" y="-167" font-family="Helvetica,sans-Serif" font-size="10.00">+flagsUnused</text>
<text text-anchor="middle" x="836.897" y="-156" font-family="Helvetica,sans-Serif" font-size="10.00">+flags</text>
<text text-anchor="middle" x="836.897" y="-145" font-family="Helvetica,sans-Serif" font-size="10.00">+sVersion</text>
</g>
</g>
</svg>
        <g id="navigator" transform="translate(0 0)" fill="#404254">
                <rect fill="#f2f5e9" fill-opacity="0.5" stroke="#606060" stroke-width=".5" x="0" y="0" width="60" height="60"/>
                <use id="zoomplus" xlink:href="#zoomPlus" x="17" y="9" onmousedown="handleZoom(evt,'in')"/>
                <use id="zoomminus" xlink:href="#zoomMin" x="42" y="9" onmousedown="handleZoom(evt,'out')"/>
                <use id="reset" xlink:href="#resetDef" x="30" y="36" onmousedown="handleReset()"/>
                <g id="arrowUp" xlink:href="#dirArrow" transform="translate(30 24)" onmousedown="handlePan(0,-1)">
                  <use xlink:href="#rim" fill="#404040">
                        <set attributeName="fill" to="#808080" begin="arrowUp.mouseover" end="arrowUp.mouseout"/>
                  </use>
                  <path fill="none" stroke="white" stroke-width="1.5" d="M0,-3.0v7 M-2.5,-0.5L0,-3.0L2.5,-0.5"/>
                </g>
                <g id="arrowRight" xlink:href="#dirArrow" transform="rotate(90) translate(36 -43)" onmousedown="handlePan(1,0)">
                  <use xlink:href="#rim" fill="#404040">
                        <set attributeName="fill" to="#808080" begin="arrowRight.mouseover" end="arrowRight.mouseout"/>
                  </use>
                  <path fill="none" stroke="white" stroke-width="1.5" d="M0,-3.0v7 M-2.5,-0.5L0,-3.0L2.5,-0.5"/>
                </g>
                <g id="arrowDown" xlink:href="#dirArrow" transform="rotate(180) translate(-30 -48)" onmousedown="handlePan(0,1)">
                  <use xlink:href="#rim" fill="#404040">
                        <set attributeName="fill" to="#808080" begin="arrowDown.mouseover" end="arrowDown.mouseout"/>
                  </use>
                  <path fill="none" stroke="white" stroke-width="1.5" d="M0,-3.0v7 M-2.5,-0.5L0,-3.0L2.5,-0.5"/>
                </g>
                <g id="arrowLeft" xlink:href="#dirArrow" transform="rotate(270) translate(-36 17)" onmousedown="handlePan(-1,0)">
                  <use xlink:href="#rim" fill="#404040">
                        <set attributeName="fill" to="#808080" begin="arrowLeft.mouseover" end="arrowLeft.mouseout"/>
                  </use>
                  <path fill="none" stroke="white" stroke-width="1.5" d="M0,-3.0v7 M-2.5,-0.5L0,-3.0L2.5,-0.5"/>
                </g>
        </g>
        <svg viewBox="0 0 15 15" width="100%" height="30px" preserveAspectRatio="xMaxYMin meet">
         <g id="arrow_out" transform="scale(0.3 0.3)">
          <a xlink:href="structo2_1_1Header_1_1BaseHeader__coll__graph_org.svg" target="_base">
           <rect id="button" ry="5" rx="5" y="6" x="6" height="38" width="38"
                fill="#f2f5e9" fill-opacity="0.5" stroke="#606060" stroke-width="1.0"/>
           <path id="arrow"
             d="M 11.500037,31.436501 C 11.940474,20.09759 22.043105,11.32322 32.158766,21.979434 L 37.068811,17.246167 C 37.068811,17.246167 37.088388,32 37.088388,32 L 22.160133,31.978069 C 22.160133,31.978069 26.997745,27.140456 26.997745,27.140456 C 18.528582,18.264221 13.291696,25.230495 11.500037,31.436501 z"
             style="fill:#404040;"/>
          </a>
         </g>
        </svg>
</svg>
