<?xml version="1.0" encoding="UTF-8" standalone="no"?>
<!DOCTYPE svg PUBLIC "-//W3C//DTD SVG 1.1//EN"
 "http://www.w3.org/Graphics/SVG/1.1/DTD/svg11.dtd">
<!-- Generated by graphviz version 2.36.0 (20140111.2315)
 -->
<!-- Title: /home/travis/build/AliceO2Group/AliceO2/Detectors/TPC/reconstruction/macro/convertTracks.C Pages: 1 -->
<svg width="2091pt" height="490pt"
 viewBox="0.00 0.00 2091.00 490.00" xmlns="http://www.w3.org/2000/svg" xmlns:xlink="http://www.w3.org/1999/xlink">
<g id="graph0" class="graph" transform="scale(1 1) rotate(0) translate(4 486)">
<title>/home/travis/build/AliceO2Group/AliceO2/Detectors/TPC/reconstruction/macro/convertTracks.C</title>
<!-- Node1 -->
<g id="node1" class="node"><title>Node1</title>
<polygon fill="#bfbfbf" stroke="black" points="1319,-429 1319,-481 1469,-481 1469,-429 1319,-429"/>
<text text-anchor="start" x="1327" y="-469" font-family="Helvetica,sans-Serif" font-size="10.00">/home/travis/build</text>
<text text-anchor="start" x="1327" y="-458" font-family="Helvetica,sans-Serif" font-size="10.00">/AliceO2Group/AliceO2</text>
<text text-anchor="start" x="1327" y="-447" font-family="Helvetica,sans-Serif" font-size="10.00">/Detectors/TPC/reconstruction</text>
<text text-anchor="middle" x="1394" y="-436" font-family="Helvetica,sans-Serif" font-size="10.00">/macro/convertTracks.C</text>
</g>
<!-- Node2 -->
<g id="node2" class="node"><title>Node2</title>
<polygon fill="none" stroke="#bfbfbf" points="0,-136.5 0,-155.5 44,-155.5 44,-136.5 0,-136.5"/>
<text text-anchor="middle" x="22" y="-143.5" font-family="Helvetica,sans-Serif" font-size="10.00">vector</text>
</g>
<!-- Node1&#45;&gt;Node2 -->
<g id="edge1" class="edge"><title>Node1&#45;&gt;Node2</title>
<path fill="none" stroke="midnightblue" d="M1318.61,-450.976C1032.25,-439.002 28,-392.349 28,-327 28,-327 28,-327 28,-263 28,-228.67 25.3467,-188.701 23.569,-165.775"/>
<polygon fill="midnightblue" stroke="midnightblue" points="27.051,-165.41 22.7599,-155.723 20.0736,-165.972 27.051,-165.41"/>
</g>
<!-- Node3 -->
<g id="node3" class="node"><title>Node3</title>
<polygon fill="none" stroke="#bfbfbf" points="1120,-372.5 1120,-391.5 1170,-391.5 1170,-372.5 1120,-372.5"/>
<text text-anchor="middle" x="1145" y="-379.5" font-family="Helvetica,sans-Serif" font-size="10.00">fstream</text>
</g>
<!-- Node1&#45;&gt;Node3 -->
<g id="edge2" class="edge"><title>Node1&#45;&gt;Node3</title>
<path fill="none" stroke="midnightblue" d="M1318.95,-432.601C1272.95,-419.483 1216.18,-403.297 1180.28,-393.059"/>
<polygon fill="midnightblue" stroke="midnightblue" points="1180.86,-389.586 1170.28,-390.21 1178.94,-396.318 1180.86,-389.586"/>
</g>
<!-- Node4 -->
<g id="node4" class="node"><title>Node4</title>
<polygon fill="none" stroke="#bfbfbf" points="1609,-74.5 1609,-93.5 1663,-93.5 1663,-74.5 1609,-74.5"/>
<text text-anchor="middle" x="1636" y="-81.5" font-family="Helvetica,sans-Serif" font-size="10.00">iostream</text>
</g>
<!-- Node1&#45;&gt;Node4 -->
<g id="edge3" class="edge"><title>Node1&#45;&gt;Node4</title>
<path fill="none" stroke="midnightblue" d="M1469.05,-452.091C1515.41,-446.677 1572.14,-431.587 1605,-392 1676.56,-305.789 1651.88,-155.526 1640.45,-103.418"/>
<polygon fill="midnightblue" stroke="midnightblue" points="1643.85,-102.559 1638.2,-93.5974 1637.03,-104.127 1643.85,-102.559"/>
</g>
<!-- Node5 -->
<g id="node5" class="node"><title>Node5</title>
<polygon fill="none" stroke="#bfbfbf" points="1226.5,-372.5 1226.5,-391.5 1285.5,-391.5 1285.5,-372.5 1226.5,-372.5"/>
<text text-anchor="middle" x="1256" y="-379.5" font-family="Helvetica,sans-Serif" font-size="10.00">TROOT.h</text>
</g>
<!-- Node1&#45;&gt;Node5 -->
<g id="edge4" class="edge"><title>Node1&#45;&gt;Node5</title>
<path fill="none" stroke="midnightblue" d="M1345.35,-428.968C1324,-417.986 1299.8,-405.537 1281.98,-396.366"/>
<polygon fill="midnightblue" stroke="midnightblue" points="1283.28,-393.102 1272.79,-391.639 1280.08,-399.326 1283.28,-393.102"/>
</g>
<!-- Node6 -->
<g id="node6" class="node"><title>Node6</title>
<polygon fill="none" stroke="#bfbfbf" points="1303.5,-372.5 1303.5,-391.5 1350.5,-391.5 1350.5,-372.5 1303.5,-372.5"/>
<text text-anchor="middle" x="1327" y="-379.5" font-family="Helvetica,sans-Serif" font-size="10.00">TFile.h</text>
</g>
<!-- Node1&#45;&gt;Node6 -->
<g id="edge5" class="edge"><title>Node1&#45;&gt;Node6</title>
<path fill="none" stroke="midnightblue" d="M1370.19,-428.768C1360.86,-418.881 1350.43,-407.831 1342.16,-399.066"/>
<polygon fill="midnightblue" stroke="midnightblue" points="1344.67,-396.628 1335.26,-391.757 1339.58,-401.432 1344.67,-396.628"/>
</g>
<!-- Node7 -->
<g id="node7" class="node"><title>Node7</title>
<polygon fill="none" stroke="#bfbfbf" points="1369,-372.5 1369,-391.5 1419,-391.5 1419,-372.5 1369,-372.5"/>
<text text-anchor="middle" x="1394" y="-379.5" font-family="Helvetica,sans-Serif" font-size="10.00">TTree.h</text>
</g>
<!-- Node1&#45;&gt;Node7 -->
<g id="edge6" class="edge"><title>Node1&#45;&gt;Node7</title>
<path fill="none" stroke="midnightblue" d="M1394,-428.768C1394,-419.89 1394,-410.074 1394,-401.816"/>
<polygon fill="midnightblue" stroke="midnightblue" points="1397.5,-401.757 1394,-391.757 1390.5,-401.757 1397.5,-401.757"/>
</g>
<!-- Node8 -->
<g id="node8" class="node"><title>Node8</title>
<polygon fill="none" stroke="#bfbfbf" points="1437,-372.5 1437,-391.5 1493,-391.5 1493,-372.5 1437,-372.5"/>
<text text-anchor="middle" x="1465" y="-379.5" font-family="Helvetica,sans-Serif" font-size="10.00">TChain.h</text>
</g>
<!-- Node1&#45;&gt;Node8 -->
<g id="edge7" class="edge"><title>Node1&#45;&gt;Node8</title>
<path fill="none" stroke="midnightblue" d="M1419.23,-428.768C1429.12,-418.881 1440.17,-407.831 1448.93,-399.066"/>
<polygon fill="midnightblue" stroke="midnightblue" points="1451.65,-401.303 1456.24,-391.757 1446.7,-396.353 1451.65,-401.303"/>
</g>
<!-- Node9 -->
<g id="node9" class="node"><title>Node9</title>
<polygon fill="none" stroke="#bfbfbf" points="1511.5,-372.5 1511.5,-391.5 1596.5,-391.5 1596.5,-372.5 1511.5,-372.5"/>
<text text-anchor="middle" x="1554" y="-379.5" font-family="Helvetica,sans-Serif" font-size="10.00">TClonesArray.h</text>
</g>
<!-- Node1&#45;&gt;Node9 -->
<g id="edge8" class="edge"><title>Node1&#45;&gt;Node9</title>
<path fill="none" stroke="midnightblue" d="M1450.41,-428.968C1475.73,-417.732 1504.51,-404.96 1525.3,-395.735"/>
<polygon fill="midnightblue" stroke="midnightblue" points="1526.81,-398.894 1534.53,-391.639 1523.97,-392.496 1526.81,-398.894"/>
</g>
<!-- Node10 -->
<g id="node10" class="node"><title>Node10</title>
<g id="a_node10"><a xlink:href="../../d5/dc9/TrackTPC_8h.html" target="_top" xlink:title="TPCReconstruction/TrackTPC.h">
<polygon fill="none" stroke="black" points="1652.5,-372.5 1652.5,-391.5 1811.5,-391.5 1811.5,-372.5 1652.5,-372.5"/>
<text text-anchor="middle" x="1732" y="-379.5" font-family="Helvetica,sans-Serif" font-size="10.00">TPCReconstruction/TrackTPC.h</text>
</a>
</g>
</g>
<!-- Node1&#45;&gt;Node10 -->
<g id="edge9" class="edge"><title>Node1&#45;&gt;Node10</title>
<path fill="none" stroke="midnightblue" d="M1469.01,-438.243C1533.64,-424.666 1625.17,-405.441 1681.44,-393.62"/>
<polygon fill="midnightblue" stroke="midnightblue" points="1682.46,-396.982 1691.53,-391.501 1681.02,-390.132 1682.46,-396.982"/>
</g>
<!-- Node11 -->
<g id="node11" class="node"><title>Node11</title>
<g id="a_node11"><a xlink:href="../../d7/d65/Detectors_2Base_2include_2DetectorsBase_2Track_8h.html" target="_top" xlink:title="DetectorsBase/Track.h">
<polygon fill="none" stroke="black" points="671,-316.5 671,-335.5 789,-335.5 789,-316.5 671,-316.5"/>
<text text-anchor="middle" x="730" y="-323.5" font-family="Helvetica,sans-Serif" font-size="10.00">DetectorsBase/Track.h</text>
</a>
</g>
</g>
<!-- Node1&#45;&gt;Node11 -->
<g id="edge64" class="edge"><title>Node1&#45;&gt;Node11</title>
<path fill="none" stroke="midnightblue" d="M1319,-430.457C1287.13,-419.758 1249.84,-406.3 1217,-392 1199.5,-384.38 1197.28,-377.497 1179,-372 1109.78,-351.178 907.022,-336.991 799.232,-330.694"/>
<polygon fill="midnightblue" stroke="midnightblue" points="799.29,-327.191 789.105,-330.109 798.887,-334.18 799.29,-327.191"/>
</g>
<!-- Node44 -->
<g id="node44" class="node"><title>Node44</title>
<g id="a_node44"><a xlink:href="../../d6/d6f/TPC_2reconstruction_2include_2TPCReconstruction_2Cluster_8h.html" target="_top" xlink:title="TPCReconstruction/Cluster.h">
<polygon fill="none" stroke="black" points="1762,-316.5 1762,-335.5 1908,-335.5 1908,-316.5 1762,-316.5"/>
<text text-anchor="middle" x="1835" y="-323.5" font-family="Helvetica,sans-Serif" font-size="10.00">TPCReconstruction/Cluster.h</text>
</a>
</g>
</g>
<!-- Node1&#45;&gt;Node44 -->
<g id="edge65" class="edge"><title>Node1&#45;&gt;Node44</title>
<path fill="none" stroke="midnightblue" d="M1469.01,-452.965C1577.36,-449.874 1770.18,-437.883 1820,-392 1832.63,-380.371 1835.66,-360.419 1835.98,-345.68"/>
<polygon fill="midnightblue" stroke="midnightblue" points="1839.48,-345.587 1835.8,-335.649 1832.48,-345.708 1839.48,-345.587"/>
</g>
<!-- Node10&#45;&gt;Node11 -->
<g id="edge10" class="edge"><title>Node10&#45;&gt;Node11</title>
<path fill="none" stroke="midnightblue" d="M1652.41,-375.123C1636.7,-374.029 1620.33,-372.938 1605,-372 1305.31,-353.677 947.573,-336.857 799.471,-330.115"/>
<polygon fill="midnightblue" stroke="midnightblue" points="799.322,-326.605 789.173,-329.647 799.004,-333.598 799.322,-326.605"/>
</g>
<!-- Node43 -->
<g id="node43" class="node"><title>Node43</title>
<g id="a_node43"><a xlink:href="../../d1/d73/Defs_8h.html" target="_top" xlink:title="Common definitions for 2D coordinates. ">
<polygon fill="none" stroke="black" points="1685,-192.5 1685,-211.5 1777,-211.5 1777,-192.5 1685,-192.5"/>
<text text-anchor="middle" x="1731" y="-199.5" font-family="Helvetica,sans-Serif" font-size="10.00">TPCBase/Defs.h</text>
</a>
</g>
</g>
<!-- Node10&#45;&gt;Node43 -->
<g id="edge57" class="edge"><title>Node10&#45;&gt;Node43</title>
<path fill="none" stroke="midnightblue" d="M1731.95,-372.415C1731.8,-345.227 1731.32,-260.563 1731.11,-222.217"/>
<polygon fill="midnightblue" stroke="midnightblue" points="1734.61,-221.899 1731.05,-211.918 1727.61,-221.938 1734.61,-221.899"/>
</g>
<!-- Node10&#45;&gt;Node44 -->
<g id="edge61" class="edge"><title>Node10&#45;&gt;Node44</title>
<path fill="none" stroke="midnightblue" d="M1748.55,-372.324C1764.99,-363.703 1790.43,-350.364 1809.47,-340.386"/>
<polygon fill="midnightblue" stroke="midnightblue" points="1811.26,-343.398 1818.49,-335.655 1808.01,-337.198 1811.26,-343.398"/>
</g>
<!-- Node11&#45;&gt;Node4 -->
<g id="edge17" class="edge"><title>Node11&#45;&gt;Node4</title>
<path fill="none" stroke="midnightblue" d="M769.55,-316.478C809.593,-307.74 873.249,-293.549 928,-280 1228.14,-205.724 1307.31,-199.681 1600,-100 1602.41,-99.1787 1604.89,-98.2748 1607.37,-97.3303"/>
<polygon fill="midnightblue" stroke="midnightblue" points="1608.77,-100.541 1616.75,-93.5754 1606.17,-94.0418 1608.77,-100.541"/>
</g>
<!-- Node12 -->
<g id="node12" class="node"><title>Node12</title>
<polygon fill="none" stroke="#bfbfbf" points="558,-74.5 558,-93.5 614,-93.5 614,-74.5 558,-74.5"/>
<text text-anchor="middle" x="586" y="-81.5" font-family="Helvetica,sans-Serif" font-size="10.00">Rtypes.h</text>
</g>
<!-- Node11&#45;&gt;Node12 -->
<g id="edge11" class="edge"><title>Node11&#45;&gt;Node12</title>
<path fill="none" stroke="midnightblue" d="M757.955,-316.35C775.999,-309.353 798.536,-297.711 812,-280 836.057,-248.354 849.694,-225.311 828,-192 821.798,-182.477 680.548,-123.727 616.767,-97.5561"/>
<polygon fill="midnightblue" stroke="midnightblue" points="617.808,-94.2005 607.228,-93.6481 615.154,-100.678 617.808,-94.2005"/>
</g>
<!-- Node13 -->
<g id="node13" class="node"><title>Node13</title>
<polygon fill="none" stroke="#bfbfbf" points="1155,-254.5 1155,-273.5 1211,-273.5 1211,-254.5 1155,-254.5"/>
<text text-anchor="middle" x="1183" y="-261.5" font-family="Helvetica,sans-Serif" font-size="10.00">algorithm</text>
</g>
<!-- Node11&#45;&gt;Node13 -->
<g id="edge12" class="edge"><title>Node11&#45;&gt;Node13</title>
<path fill="none" stroke="midnightblue" d="M789.254,-322.858C869.788,-318.966 1017.88,-308.314 1141,-280 1144.69,-279.152 1148.5,-278.081 1152.25,-276.903"/>
<polygon fill="midnightblue" stroke="midnightblue" points="1153.58,-280.148 1161.92,-273.615 1151.33,-273.52 1153.58,-280.148"/>
</g>
<!-- Node14 -->
<g id="node14" class="node"><title>Node14</title>
<polygon fill="none" stroke="#bfbfbf" points="233,-6.5 233,-25.5 271,-25.5 271,-6.5 233,-6.5"/>
<text text-anchor="middle" x="252" y="-13.5" font-family="Helvetica,sans-Serif" font-size="10.00">array</text>
</g>
<!-- Node11&#45;&gt;Node14 -->
<g id="edge13" class="edge"><title>Node11&#45;&gt;Node14</title>
<path fill="none" stroke="midnightblue" d="M670.659,-325.175C560.935,-324.548 331.288,-318.508 263,-280 165.908,-225.248 67.0561,-160.67 129,-68 152.255,-33.2103 177.353,-48.0474 216,-32 218.493,-30.9646 221.084,-29.8879 223.68,-28.8078"/>
<polygon fill="midnightblue" stroke="midnightblue" points="225.06,-32.0242 232.947,-24.9491 222.37,-25.562 225.06,-32.0242"/>
</g>
<!-- Node15 -->
<g id="node15" class="node"><title>Node15</title>
<polygon fill="none" stroke="#bfbfbf" points="100.5,-254.5 100.5,-273.5 141.5,-273.5 141.5,-254.5 100.5,-254.5"/>
<text text-anchor="middle" x="121" y="-261.5" font-family="Helvetica,sans-Serif" font-size="10.00">cfloat</text>
</g>
<!-- Node11&#45;&gt;Node15 -->
<g id="edge14" class="edge"><title>Node11&#45;&gt;Node15</title>
<path fill="none" stroke="midnightblue" d="M670.714,-322.801C544.379,-317.717 252.328,-303.733 156,-280 153.172,-279.303 150.28,-278.402 147.431,-277.387"/>
<polygon fill="midnightblue" stroke="midnightblue" points="148.644,-274.103 138.06,-273.632 146.041,-280.601 148.644,-274.103"/>
</g>
<!-- Node16 -->
<g id="node16" class="node"><title>Node16</title>
<polygon fill="none" stroke="#bfbfbf" points="1669,-6.5 1669,-25.5 1713,-25.5 1713,-6.5 1669,-6.5"/>
<text text-anchor="middle" x="1691" y="-13.5" font-family="Helvetica,sans-Serif" font-size="10.00">cmath</text>
</g>
<!-- Node11&#45;&gt;Node16 -->
<g id="edge15" class="edge"><title>Node11&#45;&gt;Node16</title>
<path fill="none" stroke="midnightblue" d="M789.217,-324.976C882.083,-323.732 1067.06,-316.376 1219,-280 1429.69,-229.557 1530.98,-264.464 1672,-100 1687.3,-82.1571 1690.92,-54.4606 1691.47,-36.0335"/>
<polygon fill="midnightblue" stroke="midnightblue" points="1694.97,-35.9365 1691.5,-25.9289 1687.97,-35.9212 1694.97,-35.9365"/>
</g>
<!-- Node17 -->
<g id="node17" class="node"><title>Node17</title>
<polygon fill="none" stroke="#bfbfbf" points="272,-254.5 272,-273.5 318,-273.5 318,-254.5 272,-254.5"/>
<text text-anchor="middle" x="295" y="-261.5" font-family="Helvetica,sans-Serif" font-size="10.00">cstring</text>
</g>
<!-- Node11&#45;&gt;Node17 -->
<g id="edge16" class="edge"><title>Node11&#45;&gt;Node17</title>
<path fill="none" stroke="midnightblue" d="M670.79,-324.394C591.188,-322.232 445.917,-313.523 327,-280 324.658,-279.34 322.274,-278.524 319.917,-277.617"/>
<polygon fill="midnightblue" stroke="midnightblue" points="321.122,-274.325 310.556,-273.538 318.325,-280.742 321.122,-274.325"/>
</g>
<!-- Node18 -->
<g id="node18" class="node"><title>Node18</title>
<polygon fill="none" stroke="#bfbfbf" points="336.5,-254.5 336.5,-273.5 419.5,-273.5 419.5,-254.5 336.5,-254.5"/>
<text text-anchor="middle" x="378" y="-261.5" font-family="Helvetica,sans-Serif" font-size="10.00">Math/SMatrix.h</text>
</g>
<!-- Node11&#45;&gt;Node18 -->
<g id="edge18" class="edge"><title>Node11&#45;&gt;Node18</title>
<path fill="none" stroke="midnightblue" d="M670.797,-318.725C609.572,-311.643 511.423,-298.628 428,-280 423.326,-278.956 418.451,-277.704 413.658,-276.375"/>
<polygon fill="midnightblue" stroke="midnightblue" points="414.602,-273.004 404.022,-273.578 412.65,-279.727 414.602,-273.004"/>
</g>
<!-- Node19 -->
<g id="node19" class="node"><title>Node19</title>
<polygon fill="none" stroke="#bfbfbf" points="437.5,-254.5 437.5,-273.5 522.5,-273.5 522.5,-254.5 437.5,-254.5"/>
<text text-anchor="middle" x="480" y="-261.5" font-family="Helvetica,sans-Serif" font-size="10.00">Math/SVector.h</text>
</g>
<!-- Node11&#45;&gt;Node19 -->
<g id="edge19" class="edge"><title>Node11&#45;&gt;Node19</title>
<path fill="none" stroke="midnightblue" d="M691.839,-316.437C652.85,-307.609 590.596,-293.298 537,-280 532.037,-278.769 526.84,-277.447 521.689,-276.116"/>
<polygon fill="midnightblue" stroke="midnightblue" points="522.474,-272.704 511.915,-273.569 520.709,-279.478 522.474,-272.704"/>
</g>
<!-- Node20 -->
<g id="node20" class="node"><title>Node20</title>
<g id="a_node20"><a xlink:href="../../d4/de2/BaseCluster_8h.html" target="_top" xlink:title="DetectorsBase/BaseCluster.h">
<polygon fill="none" stroke="black" points="656.5,-254.5 656.5,-273.5 803.5,-273.5 803.5,-254.5 656.5,-254.5"/>
<text text-anchor="middle" x="730" y="-261.5" font-family="Helvetica,sans-Serif" font-size="10.00">DetectorsBase/BaseCluster.h</text>
</a>
</g>
</g>
<!-- Node11&#45;&gt;Node20 -->
<g id="edge20" class="edge"><title>Node11&#45;&gt;Node20</title>
<path fill="none" stroke="midnightblue" d="M730,-316.403C730,-307.938 730,-294.728 730,-283.82"/>
<polygon fill="midnightblue" stroke="midnightblue" points="733.5,-283.581 730,-273.581 726.5,-283.581 733.5,-283.581"/>
</g>
<!-- Node25 -->
<g id="node25" class="node"><title>Node25</title>
<g id="a_node25"><a xlink:href="../../dd/d76/Cartesian3D_8h.html" target="_top" xlink:title="MathUtils/Cartesian3D.h">
<polygon fill="none" stroke="black" points="916.5,-136.5 916.5,-155.5 1041.5,-155.5 1041.5,-136.5 916.5,-136.5"/>
<text text-anchor="middle" x="979" y="-143.5" font-family="Helvetica,sans-Serif" font-size="10.00">MathUtils/Cartesian3D.h</text>
</a>
</g>
</g>
<!-- Node11&#45;&gt;Node25 -->
<g id="edge56" class="edge"><title>Node11&#45;&gt;Node25</title>
<path fill="none" stroke="midnightblue" d="M789.192,-320.328C824.033,-315.042 867.331,-303.814 899,-280 938.721,-250.132 962.732,-194.266 973.052,-165.367"/>
<polygon fill="midnightblue" stroke="midnightblue" points="976.427,-166.316 976.342,-155.721 969.801,-164.056 976.427,-166.316"/>
</g>
<!-- Node39 -->
<g id="node39" class="node"><title>Node39</title>
<g id="a_node39"><a xlink:href="../../d9/ded/Utils_8h.html" target="_top" xlink:title="DetectorsBase/Utils.h">
<polygon fill="none" stroke="black" points="138.5,-74.5 138.5,-93.5 251.5,-93.5 251.5,-74.5 138.5,-74.5"/>
<text text-anchor="middle" x="195" y="-81.5" font-family="Helvetica,sans-Serif" font-size="10.00">DetectorsBase/Utils.h</text>
</a>
</g>
</g>
<!-- Node11&#45;&gt;Node39 -->
<g id="edge55" class="edge"><title>Node11&#45;&gt;Node39</title>
<path fill="none" stroke="midnightblue" d="M710.216,-316.477C674.75,-301.394 597.807,-269.561 531,-248 470.678,-228.532 451.063,-237.426 393,-212 322.259,-181.022 247.99,-126.513 214.004,-100.139"/>
<polygon fill="midnightblue" stroke="midnightblue" points="215.92,-97.1933 205.89,-93.7796 211.602,-102.703 215.92,-97.1933"/>
</g>
<!-- Node40 -->
<g id="node40" class="node"><title>Node40</title>
<g id="a_node40"><a xlink:href="../../d1/daa/Base_2include_2DetectorsBase_2Constants_8h.html" target="_top" xlink:title="DetectorsBase/Constants.h">
<polygon fill="none" stroke="black" points="69,-6.5 69,-25.5 207,-25.5 207,-6.5 69,-6.5"/>
<text text-anchor="middle" x="138" y="-13.5" font-family="Helvetica,sans-Serif" font-size="10.00">DetectorsBase/Constants.h</text>
</a>
</g>
</g>
<!-- Node11&#45;&gt;Node40 -->
<g id="edge54" class="edge"><title>Node11&#45;&gt;Node40</title>
<path fill="none" stroke="midnightblue" d="M670.864,-324.737C520.945,-323.528 134.768,-316.834 91,-280 64.031,-257.303 72,-238.249 72,-203 72,-203 72,-203 72,-145 72,-100.66 103.673,-56.3255 123.137,-33.2678"/>
<polygon fill="midnightblue" stroke="midnightblue" points="125.965,-35.3509 129.907,-25.5169 120.693,-30.7459 125.965,-35.3509"/>
</g>
<!-- Node20&#45;&gt;Node4 -->
<g id="edge25" class="edge"><title>Node20&#45;&gt;Node4</title>
<path fill="none" stroke="midnightblue" d="M755.615,-254.413C839.899,-226.168 1103.77,-137.842 1113,-136 1325.84,-93.5232 1388.89,-150.385 1600,-100 1603,-99.2843 1606.07,-98.3487 1609.09,-97.2941"/>
<polygon fill="midnightblue" stroke="midnightblue" points="1610.39,-100.543 1618.43,-93.6429 1607.85,-94.0232 1610.39,-100.543"/>
</g>
<!-- Node21 -->
<g id="node21" class="node"><title>Node21</title>
<polygon fill="none" stroke="#bfbfbf" points="632.5,-192.5 632.5,-211.5 691.5,-211.5 691.5,-192.5 632.5,-192.5"/>
<text text-anchor="middle" x="662" y="-199.5" font-family="Helvetica,sans-Serif" font-size="10.00">TObject.h</text>
</g>
<!-- Node20&#45;&gt;Node21 -->
<g id="edge21" class="edge"><title>Node20&#45;&gt;Node21</title>
<path fill="none" stroke="midnightblue" d="M720.257,-254.403C709.653,-245.047 692.481,-229.895 679.521,-218.46"/>
<polygon fill="midnightblue" stroke="midnightblue" points="681.539,-215.572 671.725,-211.581 676.907,-220.821 681.539,-215.572"/>
</g>
<!-- Node22 -->
<g id="node22" class="node"><title>Node22</title>
<polygon fill="none" stroke="#bfbfbf" points="709.5,-192.5 709.5,-211.5 750.5,-211.5 750.5,-192.5 709.5,-192.5"/>
<text text-anchor="middle" x="730" y="-199.5" font-family="Helvetica,sans-Serif" font-size="10.00">bitset</text>
</g>
<!-- Node20&#45;&gt;Node22 -->
<g id="edge22" class="edge"><title>Node20&#45;&gt;Node22</title>
<path fill="none" stroke="midnightblue" d="M730,-254.403C730,-245.938 730,-232.728 730,-221.82"/>
<polygon fill="midnightblue" stroke="midnightblue" points="733.5,-221.581 730,-211.581 726.5,-221.581 733.5,-221.581"/>
</g>
<!-- Node23 -->
<g id="node23" class="node"><title>Node23</title>
<polygon fill="none" stroke="#bfbfbf" points="769,-192.5 769,-211.5 819,-211.5 819,-192.5 769,-192.5"/>
<text text-anchor="middle" x="794" y="-199.5" font-family="Helvetica,sans-Serif" font-size="10.00">iomanip</text>
</g>
<!-- Node20&#45;&gt;Node23 -->
<g id="edge23" class="edge"><title>Node20&#45;&gt;Node23</title>
<path fill="none" stroke="midnightblue" d="M739.17,-254.403C749.15,-245.047 765.312,-229.895 777.509,-218.46"/>
<polygon fill="midnightblue" stroke="midnightblue" points="779.946,-220.973 784.847,-211.581 775.158,-215.867 779.946,-220.973"/>
</g>
<!-- Node24 -->
<g id="node24" class="node"><title>Node24</title>
<polygon fill="none" stroke="#bfbfbf" points="402.5,-192.5 402.5,-211.5 431.5,-211.5 431.5,-192.5 402.5,-192.5"/>
<text text-anchor="middle" x="417" y="-199.5" font-family="Helvetica,sans-Serif" font-size="10.00">ios</text>
</g>
<!-- Node20&#45;&gt;Node24 -->
<g id="edge24" class="edge"><title>Node20&#45;&gt;Node24</title>
<path fill="none" stroke="midnightblue" d="M661.188,-254.492C604.443,-246.649 521.847,-233.335 441.383,-211.643"/>
<polygon fill="midnightblue" stroke="midnightblue" points="442.152,-208.225 431.583,-208.956 440.301,-214.976 442.152,-208.225"/>
</g>
<!-- Node20&#45;&gt;Node25 -->
<g id="edge26" class="edge"><title>Node20&#45;&gt;Node25</title>
<path fill="none" stroke="midnightblue" d="M748.31,-254.47C791.569,-234.317 900.3,-183.663 951.512,-159.806"/>
<polygon fill="midnightblue" stroke="midnightblue" points="953.077,-162.938 960.664,-155.542 950.121,-156.593 953.077,-162.938"/>
</g>
<!-- Node35 -->
<g id="node35" class="node"><title>Node35</title>
<g id="a_node35"><a xlink:href="../../d4/d20/DetMatrixCache_8h.html" target="_top" xlink:title="DetectorsBase/DetMatrixCache.h">
<polygon fill="none" stroke="black" points="450,-192.5 450,-211.5 614,-211.5 614,-192.5 450,-192.5"/>
<text text-anchor="middle" x="532" y="-199.5" font-family="Helvetica,sans-Serif" font-size="10.00">DetectorsBase/DetMatrixCache.h</text>
</a>
</g>
</g>
<!-- Node20&#45;&gt;Node35 -->
<g id="edge38" class="edge"><title>Node20&#45;&gt;Node35</title>
<path fill="none" stroke="midnightblue" d="M701.631,-254.403C667.079,-243.933 608.576,-226.205 570.115,-214.55"/>
<polygon fill="midnightblue" stroke="midnightblue" points="570.901,-211.131 560.316,-211.581 568.871,-217.83 570.901,-211.131"/>
</g>
<!-- Node25&#45;&gt;Node4 -->
<g id="edge37" class="edge"><title>Node25&#45;&gt;Node4</title>
<path fill="none" stroke="midnightblue" d="M1041.59,-137.418C1046.46,-136.909 1051.31,-136.429 1056,-136 1297.3,-113.928 1364.1,-155.343 1600,-100 1603.07,-99.2809 1606.2,-98.3281 1609.29,-97.2503"/>
<polygon fill="midnightblue" stroke="midnightblue" points="1610.78,-100.427 1618.81,-93.5141 1608.22,-93.9108 1610.78,-100.427"/>
</g>
<!-- Node25&#45;&gt;Node12 -->
<g id="edge30" class="edge"><title>Node25&#45;&gt;Node12</title>
<path fill="none" stroke="midnightblue" d="M916.168,-137.954C821.574,-127.211 650.652,-107.221 623,-100 620.011,-99.2195 616.942,-98.2562 613.911,-97.1975"/>
<polygon fill="midnightblue" stroke="midnightblue" points="615.093,-93.9023 604.502,-93.5968 612.591,-100.44 615.093,-93.9023"/>
</g>
<!-- Node26 -->
<g id="node26" class="node"><title>Node26</title>
<polygon fill="none" stroke="#bfbfbf" points="1267.5,-74.5 1267.5,-93.5 1416.5,-93.5 1416.5,-74.5 1267.5,-74.5"/>
<text text-anchor="middle" x="1342" y="-81.5" font-family="Helvetica,sans-Serif" font-size="10.00">Math/GenVector/Rotation3D.h</text>
</g>
<!-- Node25&#45;&gt;Node26 -->
<g id="edge27" class="edge"><title>Node25&#45;&gt;Node26</title>
<path fill="none" stroke="midnightblue" d="M1033.57,-136.475C1089.85,-127.62 1180.12,-113.233 1258,-100 1266.7,-98.5215 1275.9,-96.9188 1284.9,-95.3297"/>
<polygon fill="midnightblue" stroke="midnightblue" points="1285.7,-98.7427 1294.93,-93.5487 1284.47,-91.8504 1285.7,-98.7427"/>
</g>
<!-- Node27 -->
<g id="node27" class="node"><title>Node27</title>
<polygon fill="none" stroke="#bfbfbf" points="1435,-74.5 1435,-93.5 1591,-93.5 1591,-74.5 1435,-74.5"/>
<text text-anchor="middle" x="1513" y="-81.5" font-family="Helvetica,sans-Serif" font-size="10.00">Math/GenVector/Transform3D.h</text>
</g>
<!-- Node25&#45;&gt;Node27 -->
<g id="edge28" class="edge"><title>Node25&#45;&gt;Node27</title>
<path fill="none" stroke="midnightblue" d="M1041.6,-137.581C1046.47,-137.035 1051.32,-136.502 1056,-136 1219.84,-118.434 1261.68,-121.858 1425,-100 1435.24,-98.629 1446.12,-96.9544 1456.61,-95.2274"/>
<polygon fill="midnightblue" stroke="midnightblue" points="1457.23,-98.6725 1466.51,-93.5638 1456.07,-91.7692 1457.23,-98.6725"/>
</g>
<!-- Node28 -->
<g id="node28" class="node"><title>Node28</title>
<polygon fill="none" stroke="#bfbfbf" points="632,-74.5 632,-93.5 792,-93.5 792,-74.5 632,-74.5"/>
<text text-anchor="middle" x="712" y="-81.5" font-family="Helvetica,sans-Serif" font-size="10.00">Math/GenVector/Translation3D.h</text>
</g>
<!-- Node25&#45;&gt;Node28 -->
<g id="edge29" class="edge"><title>Node25&#45;&gt;Node28</title>
<path fill="none" stroke="midnightblue" d="M941.029,-136.467C893.383,-125.76 811.645,-107.392 759.793,-95.74"/>
<polygon fill="midnightblue" stroke="midnightblue" points="760.364,-92.2811 749.84,-93.5034 758.829,-99.1108 760.364,-92.2811"/>
</g>
<!-- Node29 -->
<g id="node29" class="node"><title>Node29</title>
<polygon fill="none" stroke="#bfbfbf" points="810,-74.5 810,-93.5 886,-93.5 886,-74.5 810,-74.5"/>
<text text-anchor="middle" x="848" y="-81.5" font-family="Helvetica,sans-Serif" font-size="10.00">TGeoMatrix.h</text>
</g>
<!-- Node25&#45;&gt;Node29 -->
<g id="edge31" class="edge"><title>Node25&#45;&gt;Node29</title>
<path fill="none" stroke="midnightblue" d="M960.231,-136.403C938.149,-126.29 901.281,-109.404 875.861,-97.761"/>
<polygon fill="midnightblue" stroke="midnightblue" points="877.284,-94.5627 866.734,-93.5806 874.369,-100.927 877.284,-94.5627"/>
</g>
<!-- Node30 -->
<g id="node30" class="node"><title>Node30</title>
<polygon fill="none" stroke="#bfbfbf" points="904.5,-69 904.5,-99 1055.5,-99 1055.5,-69 904.5,-69"/>
<text text-anchor="start" x="912.5" y="-87" font-family="Helvetica,sans-Serif" font-size="10.00">Math/GenVector/Displacement</text>
<text text-anchor="middle" x="980" y="-76" font-family="Helvetica,sans-Serif" font-size="10.00">Vector3D.h</text>
</g>
<!-- Node25&#45;&gt;Node30 -->
<g id="edge32" class="edge"><title>Node25&#45;&gt;Node30</title>
<path fill="none" stroke="midnightblue" d="M979.143,-136.403C979.261,-129.341 979.434,-118.975 979.593,-109.399"/>
<polygon fill="midnightblue" stroke="midnightblue" points="983.097,-109.198 979.764,-99.1408 976.098,-109.081 983.097,-109.198"/>
</g>
<!-- Node31 -->
<g id="node31" class="node"><title>Node31</title>
<polygon fill="none" stroke="#bfbfbf" points="1074,-74.5 1074,-93.5 1250,-93.5 1250,-74.5 1074,-74.5"/>
<text text-anchor="middle" x="1162" y="-81.5" font-family="Helvetica,sans-Serif" font-size="10.00">Math/GenVector/PositionVector3D.h</text>
</g>
<!-- Node25&#45;&gt;Node31 -->
<g id="edge33" class="edge"><title>Node25&#45;&gt;Node31</title>
<path fill="none" stroke="midnightblue" d="M1005.22,-136.403C1037.02,-125.978 1090.77,-108.356 1126.32,-96.6992"/>
<polygon fill="midnightblue" stroke="midnightblue" points="1127.42,-100.022 1135.83,-93.5806 1125.24,-93.3704 1127.42,-100.022"/>
</g>
<!-- Node32 -->
<g id="node32" class="node"><title>Node32</title>
<g id="a_node32"><a xlink:href="../../d2/dd0/Cartesian2D_8h.html" target="_top" xlink:title="MathUtils/Cartesian2D.h">
<polygon fill="none" stroke="black" points="1757.5,-74.5 1757.5,-93.5 1882.5,-93.5 1882.5,-74.5 1757.5,-74.5"/>
<text text-anchor="middle" x="1820" y="-81.5" font-family="Helvetica,sans-Serif" font-size="10.00">MathUtils/Cartesian2D.h</text>
</a>
</g>
</g>
<!-- Node25&#45;&gt;Node32 -->
<g id="edge34" class="edge"><title>Node25&#45;&gt;Node32</title>
<path fill="none" stroke="midnightblue" d="M1041.65,-141.693C1163.27,-135.104 1439.81,-119.299 1672,-100 1696.55,-97.9598 1723.35,-95.3577 1747.31,-92.8957"/>
<polygon fill="midnightblue" stroke="midnightblue" points="1747.81,-96.3631 1757.39,-91.8512 1747.09,-89.4003 1747.81,-96.3631"/>
</g>
<!-- Node33 -->
<g id="node33" class="node"><title>Node33</title>
<polygon fill="none" stroke="#bfbfbf" points="1737.5,-1 1737.5,-31 1888.5,-31 1888.5,-1 1737.5,-1"/>
<text text-anchor="start" x="1745.5" y="-19" font-family="Helvetica,sans-Serif" font-size="10.00">Math/GenVector/Displacement</text>
<text text-anchor="middle" x="1813" y="-8" font-family="Helvetica,sans-Serif" font-size="10.00">Vector2D.h</text>
</g>
<!-- Node32&#45;&gt;Node33 -->
<g id="edge35" class="edge"><title>Node32&#45;&gt;Node33</title>
<path fill="none" stroke="midnightblue" d="M1819.08,-74.3717C1818.19,-65.9715 1816.8,-52.811 1815.57,-41.2126"/>
<polygon fill="midnightblue" stroke="midnightblue" points="1819.04,-40.7565 1814.5,-31.1815 1812.08,-41.4949 1819.04,-40.7565"/>
</g>
<!-- Node34 -->
<g id="node34" class="node"><title>Node34</title>
<polygon fill="none" stroke="#bfbfbf" points="1907,-6.5 1907,-25.5 2083,-25.5 2083,-6.5 1907,-6.5"/>
<text text-anchor="middle" x="1995" y="-13.5" font-family="Helvetica,sans-Serif" font-size="10.00">Math/GenVector/PositionVector2D.h</text>
</g>
<!-- Node32&#45;&gt;Node34 -->
<g id="edge36" class="edge"><title>Node32&#45;&gt;Node34</title>
<path fill="none" stroke="midnightblue" d="M1842.88,-74.3717C1873.49,-62.8274 1927.94,-42.2926 1962.71,-29.1772"/>
<polygon fill="midnightblue" stroke="midnightblue" points="1964.27,-32.3296 1972.39,-25.5259 1961.8,-25.7799 1964.27,-32.3296"/>
</g>
<!-- Node35&#45;&gt;Node2 -->
<g id="edge39" class="edge"><title>Node35&#45;&gt;Node2</title>
<path fill="none" stroke="midnightblue" d="M451.47,-192.473C337.267,-180.381 133.368,-158.792 54.4439,-150.435"/>
<polygon fill="midnightblue" stroke="midnightblue" points="54.4721,-146.919 44.1592,-149.346 53.735,-153.88 54.4721,-146.919"/>
</g>
<!-- Node35&#45;&gt;Node12 -->
<g id="edge52" class="edge"><title>Node35&#45;&gt;Node12</title>
<path fill="none" stroke="midnightblue" d="M581.774,-192.45C602.828,-186.104 625.366,-175.089 638,-156 651.369,-135.801 628.236,-113.39 608.685,-99.2534"/>
<polygon fill="midnightblue" stroke="midnightblue" points="610.598,-96.3213 600.37,-93.5552 606.64,-102.095 610.598,-96.3213"/>
</g>
<!-- Node35&#45;&gt;Node14 -->
<g id="edge40" class="edge"><title>Node35&#45;&gt;Node14</title>
<path fill="none" stroke="midnightblue" d="M531.981,-192.296C531.428,-168.494 526.443,-101.849 489,-68 458.643,-40.5565 337.646,-25.3778 281.234,-19.6665"/>
<polygon fill="midnightblue" stroke="midnightblue" points="281.467,-16.1726 271.173,-18.6794 280.783,-23.1392 281.467,-16.1726"/>
</g>
<!-- Node35&#45;&gt;Node25 -->
<g id="edge41" class="edge"><title>Node35&#45;&gt;Node25</title>
<path fill="none" stroke="midnightblue" d="M602.828,-192.444C685.861,-182.413 822.744,-165.877 906.494,-155.759"/>
<polygon fill="midnightblue" stroke="midnightblue" points="906.929,-159.232 916.437,-154.558 906.089,-152.283 906.929,-159.232"/>
</g>
<!-- Node36 -->
<g id="node36" class="node"><title>Node36</title>
<g id="a_node36"><a xlink:href="../../d6/d31/DetID_8h.html" target="_top" xlink:title="DetectorsBase/DetID.h">
<polygon fill="none" stroke="black" points="382.5,-136.5 382.5,-155.5 501.5,-155.5 501.5,-136.5 382.5,-136.5"/>
<text text-anchor="middle" x="442" y="-143.5" font-family="Helvetica,sans-Serif" font-size="10.00">DetectorsBase/DetID.h</text>
</a>
</g>
</g>
<!-- Node35&#45;&gt;Node36 -->
<g id="edge42" class="edge"><title>Node35&#45;&gt;Node36</title>
<path fill="none" stroke="midnightblue" d="M517.54,-192.324C503.5,-183.9 481.952,-170.971 465.457,-161.074"/>
<polygon fill="midnightblue" stroke="midnightblue" points="466.8,-157.798 456.424,-155.655 463.198,-163.801 466.8,-157.798"/>
</g>
<!-- Node42 -->
<g id="node42" class="node"><title>Node42</title>
<polygon fill="none" stroke="#bfbfbf" points="558.5,-136.5 558.5,-155.5 629.5,-155.5 629.5,-136.5 558.5,-136.5"/>
<text text-anchor="middle" x="594" y="-143.5" font-family="Helvetica,sans-Serif" font-size="10.00">FairLogger.h</text>
</g>
<!-- Node35&#45;&gt;Node42 -->
<g id="edge53" class="edge"><title>Node35&#45;&gt;Node42</title>
<path fill="none" stroke="midnightblue" d="M541.961,-192.324C551.127,-184.341 564.937,-172.313 576.028,-162.653"/>
<polygon fill="midnightblue" stroke="midnightblue" points="578.615,-165.041 583.857,-155.834 574.018,-159.762 578.615,-165.041"/>
</g>
<!-- Node36&#45;&gt;Node12 -->
<g id="edge46" class="edge"><title>Node36&#45;&gt;Node12</title>
<path fill="none" stroke="midnightblue" d="M462.632,-136.403C487.119,-126.2 528.147,-109.105 556.109,-97.4544"/>
<polygon fill="midnightblue" stroke="midnightblue" points="557.522,-100.658 565.407,-93.5806 554.83,-94.196 557.522,-100.658"/>
</g>
<!-- Node36&#45;&gt;Node14 -->
<g id="edge44" class="edge"><title>Node36&#45;&gt;Node14</title>
<path fill="none" stroke="midnightblue" d="M450.778,-136.057C464.736,-120.745 488.781,-89.1161 472,-68 448.445,-38.3602 335.225,-24.4159 281.031,-19.3543"/>
<polygon fill="midnightblue" stroke="midnightblue" points="281.296,-15.8641 271.023,-18.4584 280.671,-22.8362 281.296,-15.8641"/>
</g>
<!-- Node37 -->
<g id="node37" class="node"><title>Node37</title>
<polygon fill="none" stroke="#bfbfbf" points="270,-74.5 270,-93.5 316,-93.5 316,-74.5 270,-74.5"/>
<text text-anchor="middle" x="293" y="-81.5" font-family="Helvetica,sans-Serif" font-size="10.00">cstdint</text>
</g>
<!-- Node36&#45;&gt;Node37 -->
<g id="edge43" class="edge"><title>Node36&#45;&gt;Node37</title>
<path fill="none" stroke="midnightblue" d="M418.048,-136.356C394.258,-127.637 356.835,-113.563 325,-100 323.409,-99.3221 321.78,-98.6117 320.142,-97.884"/>
<polygon fill="midnightblue" stroke="midnightblue" points="321.389,-94.6061 310.839,-93.6359 318.481,-100.974 321.389,-94.6061"/>
</g>
<!-- Node38 -->
<g id="node38" class="node"><title>Node38</title>
<polygon fill="none" stroke="#bfbfbf" points="334,-74.5 334,-93.5 396,-93.5 396,-74.5 334,-74.5"/>
<text text-anchor="middle" x="365" y="-81.5" font-family="Helvetica,sans-Serif" font-size="10.00">type_traits</text>
</g>
<!-- Node36&#45;&gt;Node38 -->
<g id="edge45" class="edge"><title>Node36&#45;&gt;Node38</title>
<path fill="none" stroke="midnightblue" d="M430.968,-136.403C418.732,-126.869 398.771,-111.315 384.007,-99.8106"/>
<polygon fill="midnightblue" stroke="midnightblue" points="386.051,-96.9663 376.012,-93.5806 381.748,-102.488 386.051,-96.9663"/>
</g>
<!-- Node36&#45;&gt;Node39 -->
<g id="edge47" class="edge"><title>Node36&#45;&gt;Node39</title>
<path fill="none" stroke="midnightblue" d="M406.873,-136.467C362.98,-125.805 287.811,-107.545 239.814,-95.886"/>
<polygon fill="midnightblue" stroke="midnightblue" points="240.549,-92.4629 230.006,-93.5034 238.897,-99.2651 240.549,-92.4629"/>
</g>
<!-- Node41 -->
<g id="node41" class="node"><title>Node41</title>
<polygon fill="none" stroke="#bfbfbf" points="414.5,-74.5 414.5,-93.5 463.5,-93.5 463.5,-74.5 414.5,-74.5"/>
<text text-anchor="middle" x="439" y="-81.5" font-family="Helvetica,sans-Serif" font-size="10.00">cassert</text>
</g>
<!-- Node36&#45;&gt;Node41 -->
<g id="edge51" class="edge"><title>Node36&#45;&gt;Node41</title>
<path fill="none" stroke="midnightblue" d="M441.57,-136.403C441.147,-127.938 440.486,-114.728 439.941,-103.82"/>
<polygon fill="midnightblue" stroke="midnightblue" points="443.424,-103.393 439.429,-93.5806 436.433,-103.743 443.424,-103.393"/>
</g>
<!-- Node39&#45;&gt;Node14 -->
<g id="edge50" class="edge"><title>Node39&#45;&gt;Node14</title>
<path fill="none" stroke="midnightblue" d="M202.452,-74.3717C211.363,-64.053 226.478,-46.5513 237.676,-33.5854"/>
<polygon fill="midnightblue" stroke="midnightblue" points="240.477,-35.6971 244.364,-25.8411 235.179,-31.1217 240.477,-35.6971"/>
</g>
<!-- Node39&#45;&gt;Node16 -->
<g id="edge49" class="edge"><title>Node39&#45;&gt;Node16</title>
<path fill="none" stroke="midnightblue" d="M227.009,-74.454C237.736,-71.9312 249.814,-69.4575 261,-68 544.343,-31.0825 1473.17,-19.3315 1658.61,-17.328"/>
<polygon fill="midnightblue" stroke="midnightblue" points="1658.84,-20.8259 1668.8,-17.2198 1658.76,-13.8263 1658.84,-20.8259"/>
</g>
<!-- Node39&#45;&gt;Node40 -->
<g id="edge48" class="edge"><title>Node39&#45;&gt;Node40</title>
<path fill="none" stroke="midnightblue" d="M187.548,-74.3717C178.637,-64.053 163.522,-46.5513 152.324,-33.5854"/>
<polygon fill="midnightblue" stroke="midnightblue" points="154.821,-31.1217 145.636,-25.8411 149.523,-35.6971 154.821,-31.1217"/>
</g>
<!-- Node43&#45;&gt;Node16 -->
<g id="edge58" class="edge"><title>Node43&#45;&gt;Node16</title>
<path fill="none" stroke="midnightblue" d="M1729.52,-192.237C1725.87,-170.883 1715.91,-114.498 1705,-68 1702.44,-57.0889 1699.14,-44.9882 1696.38,-35.3129"/>
<polygon fill="midnightblue" stroke="midnightblue" points="1699.72,-34.245 1693.58,-25.6124 1692.99,-36.1913 1699.72,-34.245"/>
</g>
<!-- Node43&#45;&gt;Node25 -->
<g id="edge60" class="edge"><title>Node43&#45;&gt;Node25</title>
<path fill="none" stroke="midnightblue" d="M1684.81,-197.683C1558.3,-188.598 1205.42,-163.259 1051.9,-152.235"/>
<polygon fill="midnightblue" stroke="midnightblue" points="1051.86,-148.723 1041.64,-151.498 1051.36,-155.705 1051.86,-148.723"/>
</g>
<!-- Node43&#45;&gt;Node32 -->
<g id="edge59" class="edge"><title>Node43&#45;&gt;Node32</title>
<path fill="none" stroke="midnightblue" d="M1737.69,-192.281C1752.45,-173.041 1788.02,-126.677 1807.21,-101.664"/>
<polygon fill="midnightblue" stroke="midnightblue" points="1810.16,-103.569 1813.47,-93.5048 1804.61,-99.3081 1810.16,-103.569"/>
</g>
<!-- Node45 -->
<g id="node45" class="node"><title>Node45</title>
<polygon fill="none" stroke="#bfbfbf" points="1773.5,-249 1773.5,-279 1868.5,-279 1868.5,-249 1773.5,-249"/>
<text text-anchor="start" x="1781.5" y="-267" font-family="Helvetica,sans-Serif" font-size="10.00">boost/serialization</text>
<text text-anchor="middle" x="1821" y="-256" font-family="Helvetica,sans-Serif" font-size="10.00">/base_object.hpp</text>
</g>
<!-- Node44&#45;&gt;Node45 -->
<g id="edge62" class="edge"><title>Node44&#45;&gt;Node45</title>
<path fill="none" stroke="midnightblue" d="M1832.99,-316.403C1831.33,-309.265 1828.88,-298.752 1826.62,-289.09"/>
<polygon fill="midnightblue" stroke="midnightblue" points="1829.98,-288.084 1824.3,-279.141 1823.16,-289.675 1829.98,-288.084"/>
</g>
<!-- Node46 -->
<g id="node46" class="node"><title>Node46</title>
<polygon fill="none" stroke="#bfbfbf" points="1887,-254.5 1887,-273.5 1979,-273.5 1979,-254.5 1887,-254.5"/>
<text text-anchor="middle" x="1933" y="-261.5" font-family="Helvetica,sans-Serif" font-size="10.00">FairTimeStamp.h</text>
</g>
<!-- Node44&#45;&gt;Node46 -->
<g id="edge63" class="edge"><title>Node44&#45;&gt;Node46</title>
<path fill="none" stroke="midnightblue" d="M1849.04,-316.403C1865.05,-306.601 1891.45,-290.439 1910.37,-278.853"/>
<polygon fill="midnightblue" stroke="midnightblue" points="1912.28,-281.787 1918.99,-273.581 1908.63,-275.817 1912.28,-281.787"/>
</g>
</g>
</svg>
