<?xml version="1.0" encoding="UTF-8" standalone="no"?>
<!DOCTYPE svg PUBLIC "-//W3C//DTD SVG 1.1//EN"
 "http://www.w3.org/Graphics/SVG/1.1/DTD/svg11.dtd">
<!-- Generated by graphviz version 2.36.0 (20140111.2315)
 -->
<!-- Title: /home/travis/build/AliceO2Group/AliceO2/Detectors/ITSMFT/MFT/macros/run_clus.C Pages: 1 -->
<svg width="1911pt" height="594pt"
 viewBox="0.00 0.00 1910.51 594.00" xmlns="http://www.w3.org/2000/svg" xmlns:xlink="http://www.w3.org/1999/xlink">
<g id="graph0" class="graph" transform="scale(1 1) rotate(0) translate(4 590)">
<title>/home/travis/build/AliceO2Group/AliceO2/Detectors/ITSMFT/MFT/macros/run_clus.C</title>
<!-- Node1 -->
<g id="node1" class="node"><title>Node1</title>
<polygon fill="#bfbfbf" stroke="black" points="746.5,-533 746.5,-585 871.5,-585 871.5,-533 746.5,-533"/>
<text text-anchor="start" x="754.5" y="-573" font-family="Helvetica,sans-Serif" font-size="10.00">/home/travis/build</text>
<text text-anchor="start" x="754.5" y="-562" font-family="Helvetica,sans-Serif" font-size="10.00">/AliceO2Group/AliceO2</text>
<text text-anchor="start" x="754.5" y="-551" font-family="Helvetica,sans-Serif" font-size="10.00">/Detectors/ITSMFT/MFT</text>
<text text-anchor="middle" x="809" y="-540" font-family="Helvetica,sans-Serif" font-size="10.00">/macros/run_clus.C</text>
</g>
<!-- Node2 -->
<g id="node2" class="node"><title>Node2</title>
<polygon fill="none" stroke="#bfbfbf" points="465,-470.5 465,-489.5 517,-489.5 517,-470.5 465,-470.5"/>
<text text-anchor="middle" x="491" y="-477.5" font-family="Helvetica,sans-Serif" font-size="10.00">sstream</text>
</g>
<!-- Node1&#45;&gt;Node2 -->
<g id="edge1" class="edge"><title>Node1&#45;&gt;Node2</title>
<path fill="none" stroke="midnightblue" d="M746.273,-547.529C688.564,-537.117 600.978,-519.339 527,-496 524.425,-495.188 521.779,-494.265 519.146,-493.285"/>
<polygon fill="midnightblue" stroke="midnightblue" points="520.407,-490.02 509.821,-489.585 517.826,-496.526 520.407,-490.02"/>
</g>
<!-- Node3 -->
<g id="node3" class="node"><title>Node3</title>
<polygon fill="none" stroke="#bfbfbf" points="535.5,-470.5 535.5,-489.5 612.5,-489.5 612.5,-470.5 535.5,-470.5"/>
<text text-anchor="middle" x="574" y="-477.5" font-family="Helvetica,sans-Serif" font-size="10.00">TStopwatch.h</text>
</g>
<!-- Node1&#45;&gt;Node3 -->
<g id="edge2" class="edge"><title>Node1&#45;&gt;Node3</title>
<path fill="none" stroke="midnightblue" d="M746.333,-537.467C702.586,-523.132 645.766,-504.515 609.579,-492.658"/>
<polygon fill="midnightblue" stroke="midnightblue" points="610.541,-489.29 599.948,-489.502 608.361,-495.942 610.541,-489.29"/>
</g>
<!-- Node4 -->
<g id="node4" class="node"><title>Node4</title>
<polygon fill="none" stroke="#bfbfbf" points="707.5,-142.5 707.5,-161.5 778.5,-161.5 778.5,-142.5 707.5,-142.5"/>
<text text-anchor="middle" x="743" y="-149.5" font-family="Helvetica,sans-Serif" font-size="10.00">FairLogger.h</text>
</g>
<!-- Node1&#45;&gt;Node4 -->
<g id="edge3" class="edge"><title>Node1&#45;&gt;Node4</title>
<path fill="none" stroke="midnightblue" d="M746.419,-545.649C716.544,-536.668 682.67,-521.454 661,-496 636.403,-467.108 641,-450.945 641,-413 641,-413 641,-413 641,-275 641,-226.462 689.108,-187.051 719.246,-167.124"/>
<polygon fill="midnightblue" stroke="midnightblue" points="721.398,-169.903 727.95,-161.577 717.636,-164 721.398,-169.903"/>
</g>
<!-- Node5 -->
<g id="node5" class="node"><title>Node5</title>
<polygon fill="none" stroke="#bfbfbf" points="669.5,-470.5 669.5,-489.5 746.5,-489.5 746.5,-470.5 669.5,-470.5"/>
<text text-anchor="middle" x="708" y="-477.5" font-family="Helvetica,sans-Serif" font-size="10.00">FairRunAna.h</text>
</g>
<!-- Node1&#45;&gt;Node5 -->
<g id="edge4" class="edge"><title>Node1&#45;&gt;Node5</title>
<path fill="none" stroke="midnightblue" d="M775.929,-532.787C759.883,-520.554 741.162,-506.282 727.441,-495.821"/>
<polygon fill="midnightblue" stroke="midnightblue" points="729.3,-492.837 719.225,-489.558 725.056,-498.404 729.3,-492.837"/>
</g>
<!-- Node6 -->
<g id="node6" class="node"><title>Node6</title>
<polygon fill="none" stroke="#bfbfbf" points="765,-470.5 765,-489.5 853,-489.5 853,-470.5 765,-470.5"/>
<text text-anchor="middle" x="809" y="-477.5" font-family="Helvetica,sans-Serif" font-size="10.00">FairFileSource.h</text>
</g>
<!-- Node1&#45;&gt;Node6 -->
<g id="edge5" class="edge"><title>Node1&#45;&gt;Node6</title>
<path fill="none" stroke="midnightblue" d="M809,-532.787C809,-522.069 809,-509.785 809,-499.871"/>
<polygon fill="midnightblue" stroke="midnightblue" points="812.5,-499.558 809,-489.558 805.5,-499.558 812.5,-499.558"/>
</g>
<!-- Node7 -->
<g id="node7" class="node"><title>Node7</title>
<polygon fill="none" stroke="#bfbfbf" points="871.5,-470.5 871.5,-489.5 962.5,-489.5 962.5,-470.5 871.5,-470.5"/>
<text text-anchor="middle" x="917" y="-477.5" font-family="Helvetica,sans-Serif" font-size="10.00">FairRuntimeDb.h</text>
</g>
<!-- Node1&#45;&gt;Node7 -->
<g id="edge6" class="edge"><title>Node1&#45;&gt;Node7</title>
<path fill="none" stroke="midnightblue" d="M844.363,-532.787C861.684,-520.438 881.922,-506.01 896.629,-495.523"/>
<polygon fill="midnightblue" stroke="midnightblue" points="898.886,-498.213 904.997,-489.558 894.823,-492.513 898.886,-498.213"/>
</g>
<!-- Node8 -->
<g id="node8" class="node"><title>Node8</title>
<polygon fill="none" stroke="#bfbfbf" points="980.5,-470.5 980.5,-489.5 1081.5,-489.5 1081.5,-470.5 980.5,-470.5"/>
<text text-anchor="middle" x="1031" y="-477.5" font-family="Helvetica,sans-Serif" font-size="10.00">FairParRootFileIo.h</text>
</g>
<!-- Node1&#45;&gt;Node8 -->
<g id="edge7" class="edge"><title>Node1&#45;&gt;Node8</title>
<path fill="none" stroke="midnightblue" d="M871.726,-536.244C912.279,-522.178 963.509,-504.409 996.749,-492.88"/>
<polygon fill="midnightblue" stroke="midnightblue" points="998.155,-496.097 1006.46,-489.513 995.861,-489.483 998.155,-496.097"/>
</g>
<!-- Node9 -->
<g id="node9" class="node"><title>Node9</title>
<polygon fill="none" stroke="#bfbfbf" points="1100,-470.5 1100,-489.5 1192,-489.5 1192,-470.5 1100,-470.5"/>
<text text-anchor="middle" x="1146" y="-477.5" font-family="Helvetica,sans-Serif" font-size="10.00">FairSystemInfo.h</text>
</g>
<!-- Node1&#45;&gt;Node9 -->
<g id="edge8" class="edge"><title>Node1&#45;&gt;Node9</title>
<path fill="none" stroke="midnightblue" d="M871.684,-545.005C928.754,-532.976 1015.26,-514.246 1090,-496 1094.95,-494.793 1100.12,-493.477 1105.25,-492.143"/>
<polygon fill="midnightblue" stroke="midnightblue" points="1106.19,-495.515 1114.96,-489.578 1104.4,-488.747 1106.19,-495.515"/>
</g>
<!-- Node10 -->
<g id="node10" class="node"><title>Node10</title>
<g id="a_node10"><a xlink:href="../../db/d12/ITSMFT_2MFT_2reconstruction_2include_2MFTReconstruction_2ClustererTask_8h.html" target="_top" xlink:title="MFTReconstruction/Clusterer\lTask.h">
<polygon fill="none" stroke="black" points="1405,-465 1405,-495 1551,-495 1551,-465 1405,-465"/>
<text text-anchor="start" x="1413" y="-483" font-family="Helvetica,sans-Serif" font-size="10.00">MFTReconstruction/Clusterer</text>
<text text-anchor="middle" x="1478" y="-472" font-family="Helvetica,sans-Serif" font-size="10.00">Task.h</text>
</a>
</g>
</g>
<!-- Node1&#45;&gt;Node10 -->
<g id="edge9" class="edge"><title>Node1&#45;&gt;Node10</title>
<path fill="none" stroke="midnightblue" d="M871.637,-550.791C992.769,-536.849 1259.12,-506.192 1394.89,-490.565"/>
<polygon fill="midnightblue" stroke="midnightblue" points="1395.3,-494.042 1404.84,-489.421 1394.5,-487.088 1395.3,-494.042"/>
</g>
<!-- Node11 -->
<g id="node11" class="node"><title>Node11</title>
<polygon fill="none" stroke="#bfbfbf" points="1640.5,-402.5 1640.5,-421.5 1703.5,-421.5 1703.5,-402.5 1640.5,-402.5"/>
<text text-anchor="middle" x="1672" y="-409.5" font-family="Helvetica,sans-Serif" font-size="10.00">FairTask.h</text>
</g>
<!-- Node10&#45;&gt;Node11 -->
<g id="edge10" class="edge"><title>Node10&#45;&gt;Node11</title>
<path fill="none" stroke="midnightblue" d="M1519.62,-464.841C1554.63,-452.93 1604.12,-436.094 1637.09,-424.876"/>
<polygon fill="midnightblue" stroke="midnightblue" points="1638.42,-428.121 1646.76,-421.587 1636.17,-421.494 1638.42,-428.121"/>
</g>
<!-- Node12 -->
<g id="node12" class="node"><title>Node12</title>
<polygon fill="none" stroke="#bfbfbf" points="1263.5,-402.5 1263.5,-421.5 1400.5,-421.5 1400.5,-402.5 1263.5,-402.5"/>
<text text-anchor="middle" x="1332" y="-409.5" font-family="Helvetica,sans-Serif" font-size="10.00">MFTBase/GeometryTGeo.h</text>
</g>
<!-- Node10&#45;&gt;Node12 -->
<g id="edge11" class="edge"><title>Node10&#45;&gt;Node12</title>
<path fill="none" stroke="midnightblue" d="M1446.68,-464.841C1421.09,-453.272 1385.21,-437.055 1360.44,-425.855"/>
<polygon fill="midnightblue" stroke="midnightblue" points="1361.76,-422.612 1351.21,-421.682 1358.88,-428.99 1361.76,-422.612"/>
</g>
<!-- Node13 -->
<g id="node13" class="node"><title>Node13</title>
<g id="a_node13"><a xlink:href="../../df/d2e/PixelReader_8h.html" target="_top" xlink:title="Definition of the ITS pixel reader. ">
<polygon fill="none" stroke="black" points="1625.5,-261 1625.5,-291 1744.5,-291 1744.5,-261 1625.5,-261"/>
<text text-anchor="start" x="1633.5" y="-279" font-family="Helvetica,sans-Serif" font-size="10.00">ITSMFTReconstruction</text>
<text text-anchor="middle" x="1685" y="-268" font-family="Helvetica,sans-Serif" font-size="10.00">/PixelReader.h</text>
</a>
</g>
</g>
<!-- Node10&#45;&gt;Node13 -->
<g id="edge12" class="edge"><title>Node10&#45;&gt;Node13</title>
<path fill="none" stroke="midnightblue" d="M1498.7,-464.975C1512.58,-455.212 1531,-441.559 1546,-428 1592.87,-385.623 1641.5,-329.502 1666.96,-299.011"/>
<polygon fill="midnightblue" stroke="midnightblue" points="1669.82,-301.053 1673.51,-291.123 1664.43,-296.582 1669.82,-301.053"/>
</g>
<!-- Node19 -->
<g id="node19" class="node"><title>Node19</title>
<g id="a_node19"><a xlink:href="../../d6/d04/ITSMFT_2common_2reconstruction_2include_2ITSMFTReconstruction_2Clusterer_8h.html" target="_top" xlink:title="ITSMFTReconstruction\l/Clusterer.h">
<polygon fill="none" stroke="black" points="1418.5,-397 1418.5,-427 1537.5,-427 1537.5,-397 1418.5,-397"/>
<text text-anchor="start" x="1426.5" y="-415" font-family="Helvetica,sans-Serif" font-size="10.00">ITSMFTReconstruction</text>
<text text-anchor="middle" x="1478" y="-404" font-family="Helvetica,sans-Serif" font-size="10.00">/Clusterer.h</text>
</a>
</g>
</g>
<!-- Node10&#45;&gt;Node19 -->
<g id="edge21" class="edge"><title>Node10&#45;&gt;Node19</title>
<path fill="none" stroke="midnightblue" d="M1478,-464.679C1478,-456.722 1478,-446.605 1478,-437.436"/>
<polygon fill="midnightblue" stroke="midnightblue" points="1481.5,-437.293 1478,-427.293 1474.5,-437.293 1481.5,-437.293"/>
</g>
<!-- Node14 -->
<g id="node14" class="node"><title>Node14</title>
<polygon fill="none" stroke="#bfbfbf" points="1611,-74.5 1611,-93.5 1667,-93.5 1667,-74.5 1611,-74.5"/>
<text text-anchor="middle" x="1639" y="-81.5" font-family="Helvetica,sans-Serif" font-size="10.00">Rtypes.h</text>
</g>
<!-- Node13&#45;&gt;Node14 -->
<g id="edge13" class="edge"><title>Node13&#45;&gt;Node14</title>
<path fill="none" stroke="midnightblue" d="M1743.29,-260.975C1820.03,-239.796 1939.82,-195.696 1891,-136 1864.43,-103.516 1740.94,-91.2367 1677.24,-87.0065"/>
<polygon fill="midnightblue" stroke="midnightblue" points="1677.38,-83.5088 1667.18,-86.3728 1676.94,-90.4949 1677.38,-83.5088"/>
</g>
<!-- Node15 -->
<g id="node15" class="node"><title>Node15</title>
<g id="a_node15"><a xlink:href="../../d0/d06/ITSMFT_2common_2base_2include_2ITSMFTBase_2Digit_8h.html" target="_top" xlink:title="ITSMFTBase/Digit.h">
<polygon fill="none" stroke="black" points="1631.5,-204.5 1631.5,-223.5 1738.5,-223.5 1738.5,-204.5 1631.5,-204.5"/>
<text text-anchor="middle" x="1685" y="-211.5" font-family="Helvetica,sans-Serif" font-size="10.00">ITSMFTBase/Digit.h</text>
</a>
</g>
</g>
<!-- Node13&#45;&gt;Node15 -->
<g id="edge14" class="edge"><title>Node13&#45;&gt;Node15</title>
<path fill="none" stroke="midnightblue" d="M1685,-260.781C1685,-252.781 1685,-242.689 1685,-234.017"/>
<polygon fill="midnightblue" stroke="midnightblue" points="1688.5,-233.73 1685,-223.731 1681.5,-233.731 1688.5,-233.73"/>
</g>
<!-- Node17 -->
<g id="node17" class="node"><title>Node17</title>
<g id="a_node17"><a xlink:href="../../d7/dcd/MCCompLabel_8h.html" target="_top" xlink:title="SimulationDataFormat\l/MCCompLabel.h">
<polygon fill="none" stroke="black" points="1768,-137 1768,-167 1882,-167 1882,-137 1768,-137"/>
<text text-anchor="start" x="1776" y="-155" font-family="Helvetica,sans-Serif" font-size="10.00">SimulationDataFormat</text>
<text text-anchor="middle" x="1825" y="-144" font-family="Helvetica,sans-Serif" font-size="10.00">/MCCompLabel.h</text>
</a>
</g>
</g>
<!-- Node13&#45;&gt;Node17 -->
<g id="edge20" class="edge"><title>Node13&#45;&gt;Node17</title>
<path fill="none" stroke="midnightblue" d="M1702.57,-260.941C1715.09,-250.825 1732.25,-236.769 1747,-224 1765.98,-207.571 1787.01,-188.375 1802.44,-174.088"/>
<polygon fill="midnightblue" stroke="midnightblue" points="1805.01,-176.474 1809.96,-167.105 1800.25,-171.345 1805.01,-176.474"/>
</g>
<!-- Node15&#45;&gt;Node14 -->
<g id="edge19" class="edge"><title>Node15&#45;&gt;Node14</title>
<path fill="none" stroke="midnightblue" d="M1694.59,-204.259C1709.29,-189.769 1734.33,-159.992 1721,-136 1711.11,-118.195 1692.13,-105.803 1674.93,-97.6962"/>
<polygon fill="midnightblue" stroke="midnightblue" points="1676.18,-94.4258 1665.62,-93.6263 1673.38,-100.839 1676.18,-94.4258"/>
</g>
<!-- Node16 -->
<g id="node16" class="node"><title>Node16</title>
<polygon fill="none" stroke="#bfbfbf" points="1506.5,-137 1506.5,-167 1601.5,-167 1601.5,-137 1506.5,-137"/>
<text text-anchor="start" x="1514.5" y="-155" font-family="Helvetica,sans-Serif" font-size="10.00">boost/serialization</text>
<text text-anchor="middle" x="1554" y="-144" font-family="Helvetica,sans-Serif" font-size="10.00">/base_object.hpp</text>
</g>
<!-- Node15&#45;&gt;Node16 -->
<g id="edge15" class="edge"><title>Node15&#45;&gt;Node16</title>
<path fill="none" stroke="midnightblue" d="M1666.23,-204.403C1647.43,-195.793 1617.92,-182.274 1593.87,-171.261"/>
<polygon fill="midnightblue" stroke="midnightblue" points="1595.17,-168.007 1584.62,-167.025 1592.26,-174.372 1595.17,-168.007"/>
</g>
<!-- Node15&#45;&gt;Node17 -->
<g id="edge16" class="edge"><title>Node15&#45;&gt;Node17</title>
<path fill="none" stroke="midnightblue" d="M1705.06,-204.403C1725.33,-195.717 1757.25,-182.035 1783.07,-170.969"/>
<polygon fill="midnightblue" stroke="midnightblue" points="1784.46,-174.182 1792.27,-167.025 1781.7,-167.748 1784.46,-174.182"/>
</g>
<!-- Node18 -->
<g id="node18" class="node"><title>Node18</title>
<polygon fill="none" stroke="#bfbfbf" points="1620,-142.5 1620,-161.5 1712,-161.5 1712,-142.5 1620,-142.5"/>
<text text-anchor="middle" x="1666" y="-149.5" font-family="Helvetica,sans-Serif" font-size="10.00">FairTimeStamp.h</text>
</g>
<!-- Node15&#45;&gt;Node18 -->
<g id="edge18" class="edge"><title>Node15&#45;&gt;Node18</title>
<path fill="none" stroke="midnightblue" d="M1682.28,-204.403C1679.54,-195.76 1675.24,-182.17 1671.74,-171.134"/>
<polygon fill="midnightblue" stroke="midnightblue" points="1675.07,-170.057 1668.72,-161.581 1668.4,-172.171 1675.07,-170.057"/>
</g>
<!-- Node17&#45;&gt;Node14 -->
<g id="edge17" class="edge"><title>Node17&#45;&gt;Node14</title>
<path fill="none" stroke="midnightblue" d="M1785.1,-136.841C1751.68,-124.982 1704.49,-108.239 1672.88,-97.0216"/>
<polygon fill="midnightblue" stroke="midnightblue" points="1673.79,-93.6325 1663.2,-93.5868 1671.45,-100.229 1673.79,-93.6325"/>
</g>
<!-- Node19&#45;&gt;Node13 -->
<g id="edge61" class="edge"><title>Node19&#45;&gt;Node13</title>
<path fill="none" stroke="midnightblue" d="M1500.12,-396.807C1515.63,-386.746 1536.76,-372.811 1555,-360 1574.49,-346.306 1578.14,-341.155 1598,-328 1614.84,-316.847 1634.17,-305.39 1650.32,-296.167"/>
<polygon fill="midnightblue" stroke="midnightblue" points="1652.45,-298.986 1659.43,-291.014 1649,-292.894 1652.45,-298.986"/>
</g>
<!-- Node19&#45;&gt;Node14 -->
<g id="edge64" class="edge"><title>Node19&#45;&gt;Node14</title>
<path fill="none" stroke="midnightblue" d="M1478,-396.917C1478,-372.502 1478,-320.736 1478,-277 1478,-277 1478,-277 1478,-213 1478,-177.642 1474.05,-162.007 1498,-136 1530.85,-100.331 1555.55,-116.906 1601,-100 1603.38,-99.1129 1605.85,-98.1799 1608.32,-97.2313"/>
<polygon fill="midnightblue" stroke="midnightblue" points="1609.7,-100.448 1617.75,-93.5589 1607.16,-93.9249 1609.7,-100.448"/>
</g>
<!-- Node20 -->
<g id="node20" class="node"><title>Node20</title>
<g id="a_node20"><a xlink:href="../../dc/de1/ITSMFT_2common_2reconstruction_2include_2ITSMFTReconstruction_2Cluster_8h.html" target="_top" xlink:title="ITSMFTReconstruction\l/Cluster.h">
<polygon fill="none" stroke="black" points="999.5,-329 999.5,-359 1118.5,-359 1118.5,-329 999.5,-329"/>
<text text-anchor="start" x="1007.5" y="-347" font-family="Helvetica,sans-Serif" font-size="10.00">ITSMFTReconstruction</text>
<text text-anchor="middle" x="1059" y="-336" font-family="Helvetica,sans-Serif" font-size="10.00">/Cluster.h</text>
</a>
</g>
</g>
<!-- Node19&#45;&gt;Node20 -->
<g id="edge22" class="edge"><title>Node19&#45;&gt;Node20</title>
<path fill="none" stroke="midnightblue" d="M1418.21,-397.737C1415.1,-397.13 1412.02,-396.547 1409,-396 1312.25,-378.457 1199.6,-362.907 1128.79,-353.72"/>
<polygon fill="midnightblue" stroke="midnightblue" points="1129.02,-350.221 1118.66,-352.411 1128.13,-357.163 1129.02,-350.221"/>
</g>
<!-- Node38 -->
<g id="node38" class="node"><title>Node38</title>
<polygon fill="none" stroke="#bfbfbf" points="1406,-142.5 1406,-161.5 1450,-161.5 1450,-142.5 1406,-142.5"/>
<text text-anchor="middle" x="1428" y="-149.5" font-family="Helvetica,sans-Serif" font-size="10.00">vector</text>
</g>
<!-- Node19&#45;&gt;Node38 -->
<g id="edge63" class="edge"><title>Node19&#45;&gt;Node38</title>
<path fill="none" stroke="midnightblue" d="M1418.32,-397.333C1362.26,-384.21 1286.31,-365.581 1282,-360 1227.46,-289.452 1350.92,-200.796 1404.61,-166.977"/>
<polygon fill="midnightblue" stroke="midnightblue" points="1406.52,-169.911 1413.18,-161.672 1402.84,-163.959 1406.52,-169.911"/>
</g>
<!-- Node47 -->
<g id="node47" class="node"><title>Node47</title>
<g id="a_node47"><a xlink:href="../../d0/d2d/common_2base_2include_2ITSMFTBase_2GeometryTGeo_8h.html" target="_top" xlink:title="ITSMFTBase/GeometryTGeo.h">
<polygon fill="none" stroke="black" points="1290.5,-334.5 1290.5,-353.5 1443.5,-353.5 1443.5,-334.5 1290.5,-334.5"/>
<text text-anchor="middle" x="1367" y="-341.5" font-family="Helvetica,sans-Serif" font-size="10.00">ITSMFTBase/GeometryTGeo.h</text>
</a>
</g>
</g>
<!-- Node19&#45;&gt;Node47 -->
<g id="edge57" class="edge"><title>Node19&#45;&gt;Node47</title>
<path fill="none" stroke="midnightblue" d="M1454.19,-396.841C1435.33,-385.63 1409.14,-370.056 1390.39,-358.91"/>
<polygon fill="midnightblue" stroke="midnightblue" points="1391.99,-355.784 1381.6,-353.682 1388.41,-361.801 1391.99,-355.784"/>
</g>
<!-- Node50 -->
<g id="node50" class="node"><title>Node50</title>
<polygon fill="none" stroke="#bfbfbf" points="1506,-334.5 1506,-353.5 1546,-353.5 1546,-334.5 1506,-334.5"/>
<text text-anchor="middle" x="1526" y="-341.5" font-family="Helvetica,sans-Serif" font-size="10.00">utility</text>
</g>
<!-- Node19&#45;&gt;Node50 -->
<g id="edge62" class="edge"><title>Node19&#45;&gt;Node50</title>
<path fill="none" stroke="midnightblue" d="M1488.42,-396.679C1495.83,-386.49 1505.81,-372.759 1513.63,-362.011"/>
<polygon fill="midnightblue" stroke="midnightblue" points="1516.53,-363.974 1519.58,-353.828 1510.87,-359.857 1516.53,-363.974"/>
</g>
<!-- Node21 -->
<g id="node21" class="node"><title>Node21</title>
<g id="a_node21"><a xlink:href="../../d4/de2/BaseCluster_8h.html" target="_top" xlink:title="DetectorsBase/BaseCluster.h">
<polygon fill="none" stroke="black" points="877.5,-266.5 877.5,-285.5 1024.5,-285.5 1024.5,-266.5 877.5,-266.5"/>
<text text-anchor="middle" x="951" y="-273.5" font-family="Helvetica,sans-Serif" font-size="10.00">DetectorsBase/BaseCluster.h</text>
</a>
</g>
</g>
<!-- Node20&#45;&gt;Node21 -->
<g id="edge23" class="edge"><title>Node20&#45;&gt;Node21</title>
<path fill="none" stroke="midnightblue" d="M1035.83,-328.841C1017.57,-317.681 992.233,-302.198 974.011,-291.063"/>
<polygon fill="midnightblue" stroke="midnightblue" points="975.565,-287.91 965.207,-285.682 971.914,-293.883 975.565,-287.91"/>
</g>
<!-- Node22 -->
<g id="node22" class="node"><title>Node22</title>
<polygon fill="none" stroke="#bfbfbf" points="887.5,-204.5 887.5,-223.5 946.5,-223.5 946.5,-204.5 887.5,-204.5"/>
<text text-anchor="middle" x="917" y="-211.5" font-family="Helvetica,sans-Serif" font-size="10.00">TObject.h</text>
</g>
<!-- Node21&#45;&gt;Node22 -->
<g id="edge24" class="edge"><title>Node21&#45;&gt;Node22</title>
<path fill="none" stroke="midnightblue" d="M946.129,-266.403C941.13,-257.582 933.211,-243.608 926.891,-232.455"/>
<polygon fill="midnightblue" stroke="midnightblue" points="929.838,-230.555 921.862,-223.581 923.747,-234.006 929.838,-230.555"/>
</g>
<!-- Node23 -->
<g id="node23" class="node"><title>Node23</title>
<polygon fill="none" stroke="#bfbfbf" points="964.5,-204.5 964.5,-223.5 1005.5,-223.5 1005.5,-204.5 964.5,-204.5"/>
<text text-anchor="middle" x="985" y="-211.5" font-family="Helvetica,sans-Serif" font-size="10.00">bitset</text>
</g>
<!-- Node21&#45;&gt;Node23 -->
<g id="edge25" class="edge"><title>Node21&#45;&gt;Node23</title>
<path fill="none" stroke="midnightblue" d="M955.871,-266.403C960.87,-257.582 968.789,-243.608 975.109,-232.455"/>
<polygon fill="midnightblue" stroke="midnightblue" points="978.253,-234.006 980.138,-223.581 972.162,-230.555 978.253,-234.006"/>
</g>
<!-- Node24 -->
<g id="node24" class="node"><title>Node24</title>
<polygon fill="none" stroke="#bfbfbf" points="1024,-204.5 1024,-223.5 1074,-223.5 1074,-204.5 1024,-204.5"/>
<text text-anchor="middle" x="1049" y="-211.5" font-family="Helvetica,sans-Serif" font-size="10.00">iomanip</text>
</g>
<!-- Node21&#45;&gt;Node24 -->
<g id="edge26" class="edge"><title>Node21&#45;&gt;Node24</title>
<path fill="none" stroke="midnightblue" d="M965.041,-266.403C981.051,-256.601 1007.45,-240.439 1026.37,-228.853"/>
<polygon fill="midnightblue" stroke="midnightblue" points="1028.28,-231.787 1034.99,-223.581 1024.63,-225.817 1028.28,-231.787"/>
</g>
<!-- Node25 -->
<g id="node25" class="node"><title>Node25</title>
<polygon fill="none" stroke="#bfbfbf" points="801.5,-204.5 801.5,-223.5 830.5,-223.5 830.5,-204.5 801.5,-204.5"/>
<text text-anchor="middle" x="816" y="-211.5" font-family="Helvetica,sans-Serif" font-size="10.00">ios</text>
</g>
<!-- Node21&#45;&gt;Node25 -->
<g id="edge27" class="edge"><title>Node21&#45;&gt;Node25</title>
<path fill="none" stroke="midnightblue" d="M931.658,-266.403C907.479,-255.657 866.099,-237.266 839.945,-225.642"/>
<polygon fill="midnightblue" stroke="midnightblue" points="841.294,-222.412 830.735,-221.549 838.451,-228.808 841.294,-222.412"/>
</g>
<!-- Node26 -->
<g id="node26" class="node"><title>Node26</title>
<polygon fill="none" stroke="#bfbfbf" points="0,-74.5 0,-93.5 54,-93.5 54,-74.5 0,-74.5"/>
<text text-anchor="middle" x="27" y="-81.5" font-family="Helvetica,sans-Serif" font-size="10.00">iostream</text>
</g>
<!-- Node21&#45;&gt;Node26 -->
<g id="edge28" class="edge"><title>Node21&#45;&gt;Node26</title>
<path fill="none" stroke="midnightblue" d="M884.163,-266.494C734.692,-246.466 362.965,-191.046 63,-100 60.3578,-99.198 57.6438,-98.2709 54.948,-97.2789"/>
<polygon fill="midnightblue" stroke="midnightblue" points="56.011,-93.9355 45.4247,-93.5092 53.4346,-100.444 56.011,-93.9355"/>
</g>
<!-- Node27 -->
<g id="node27" class="node"><title>Node27</title>
<g id="a_node27"><a xlink:href="../../dd/d76/Cartesian3D_8h.html" target="_top" xlink:title="MathUtils/Cartesian3D.h">
<polygon fill="none" stroke="black" points="796.5,-142.5 796.5,-161.5 921.5,-161.5 921.5,-142.5 796.5,-142.5"/>
<text text-anchor="middle" x="859" y="-149.5" font-family="Helvetica,sans-Serif" font-size="10.00">MathUtils/Cartesian3D.h</text>
</a>
</g>
</g>
<!-- Node21&#45;&gt;Node27 -->
<g id="edge29" class="edge"><title>Node21&#45;&gt;Node27</title>
<path fill="none" stroke="midnightblue" d="M932.296,-266.342C915.894,-257.815 892.602,-243.274 879,-224 868.056,-208.492 863.08,-187.141 860.831,-171.912"/>
<polygon fill="midnightblue" stroke="midnightblue" points="864.266,-171.163 859.588,-161.657 857.316,-172.006 864.266,-171.163"/>
</g>
<!-- Node37 -->
<g id="node37" class="node"><title>Node37</title>
<g id="a_node37"><a xlink:href="../../d4/d20/DetMatrixCache_8h.html" target="_top" xlink:title="DetectorsBase/DetMatrixCache.h">
<polygon fill="none" stroke="black" points="1092,-204.5 1092,-223.5 1256,-223.5 1256,-204.5 1092,-204.5"/>
<text text-anchor="middle" x="1174" y="-211.5" font-family="Helvetica,sans-Serif" font-size="10.00">DetectorsBase/DetMatrixCache.h</text>
</a>
</g>
</g>
<!-- Node21&#45;&gt;Node37 -->
<g id="edge41" class="edge"><title>Node21&#45;&gt;Node37</title>
<path fill="none" stroke="midnightblue" d="M982.95,-266.403C1022.28,-255.822 1089.16,-237.827 1132.45,-226.18"/>
<polygon fill="midnightblue" stroke="midnightblue" points="1133.36,-229.559 1142.11,-223.581 1131.54,-222.799 1133.36,-229.559"/>
</g>
<!-- Node27&#45;&gt;Node14 -->
<g id="edge33" class="edge"><title>Node27&#45;&gt;Node14</title>
<path fill="none" stroke="midnightblue" d="M921.77,-147.792C1088.76,-139.102 1535.67,-114.767 1601,-100 1604.25,-99.2651 1607.59,-98.2944 1610.87,-97.1993"/>
<polygon fill="midnightblue" stroke="midnightblue" points="1612.27,-100.416 1620.42,-93.6522 1609.83,-93.8544 1612.27,-100.416"/>
</g>
<!-- Node27&#45;&gt;Node26 -->
<g id="edge40" class="edge"><title>Node27&#45;&gt;Node26</title>
<path fill="none" stroke="midnightblue" d="M823.663,-142.495C812.048,-140.006 799.031,-137.543 787,-136 467.441,-95.0214 377.252,-171.011 63,-100 59.929,-99.306 56.7859,-98.3693 53.6981,-97.3008"/>
<polygon fill="midnightblue" stroke="midnightblue" points="54.7673,-93.9608 44.1795,-93.575 52.2158,-100.479 54.7673,-93.9608"/>
</g>
<!-- Node28 -->
<g id="node28" class="node"><title>Node28</title>
<polygon fill="none" stroke="#bfbfbf" points="71.5,-74.5 71.5,-93.5 220.5,-93.5 220.5,-74.5 71.5,-74.5"/>
<text text-anchor="middle" x="146" y="-81.5" font-family="Helvetica,sans-Serif" font-size="10.00">Math/GenVector/Rotation3D.h</text>
</g>
<!-- Node27&#45;&gt;Node28 -->
<g id="edge30" class="edge"><title>Node27&#45;&gt;Node28</title>
<path fill="none" stroke="midnightblue" d="M822.913,-142.444C811.486,-140.014 798.767,-137.598 787,-136 541.184,-102.62 476.269,-129.851 230,-100 219.853,-98.77 209.073,-97.1133 198.739,-95.3494"/>
<polygon fill="midnightblue" stroke="midnightblue" points="199.049,-91.8502 188.594,-93.5615 197.834,-98.744 199.049,-91.8502"/>
</g>
<!-- Node29 -->
<g id="node29" class="node"><title>Node29</title>
<polygon fill="none" stroke="#bfbfbf" points="239,-74.5 239,-93.5 395,-93.5 395,-74.5 239,-74.5"/>
<text text-anchor="middle" x="317" y="-81.5" font-family="Helvetica,sans-Serif" font-size="10.00">Math/GenVector/Transform3D.h</text>
</g>
<!-- Node27&#45;&gt;Node29 -->
<g id="edge31" class="edge"><title>Node27&#45;&gt;Node29</title>
<path fill="none" stroke="midnightblue" d="M822.144,-142.496C810.908,-140.127 798.49,-137.731 787,-136 617.936,-110.525 573.48,-122.541 404,-100 393.753,-98.6371 382.866,-96.9512 372.389,-95.207"/>
<polygon fill="midnightblue" stroke="midnightblue" points="372.948,-91.752 362.503,-93.5256 371.774,-98.6529 372.948,-91.752"/>
</g>
<!-- Node30 -->
<g id="node30" class="node"><title>Node30</title>
<polygon fill="none" stroke="#bfbfbf" points="413,-74.5 413,-93.5 573,-93.5 573,-74.5 413,-74.5"/>
<text text-anchor="middle" x="493" y="-81.5" font-family="Helvetica,sans-Serif" font-size="10.00">Math/GenVector/Translation3D.h</text>
</g>
<!-- Node27&#45;&gt;Node30 -->
<g id="edge32" class="edge"><title>Node27&#45;&gt;Node30</title>
<path fill="none" stroke="midnightblue" d="M819.06,-142.43C808.638,-140.262 797.41,-137.987 787,-136 743.26,-127.652 625.683,-107.517 553.162,-95.1904"/>
<polygon fill="midnightblue" stroke="midnightblue" points="553.686,-91.7292 543.241,-93.5049 552.513,-98.6303 553.686,-91.7292"/>
</g>
<!-- Node31 -->
<g id="node31" class="node"><title>Node31</title>
<polygon fill="none" stroke="#bfbfbf" points="591,-74.5 591,-93.5 667,-93.5 667,-74.5 591,-74.5"/>
<text text-anchor="middle" x="629" y="-81.5" font-family="Helvetica,sans-Serif" font-size="10.00">TGeoMatrix.h</text>
</g>
<!-- Node27&#45;&gt;Node31 -->
<g id="edge34" class="edge"><title>Node27&#45;&gt;Node31</title>
<path fill="none" stroke="midnightblue" d="M827.354,-142.438C790.984,-132.528 729.542,-115.568 677,-100 673.246,-98.8878 669.334,-97.7049 665.436,-96.5103"/>
<polygon fill="midnightblue" stroke="midnightblue" points="666.455,-93.1621 655.867,-93.5502 664.386,-99.8494 666.455,-93.1621"/>
</g>
<!-- Node32 -->
<g id="node32" class="node"><title>Node32</title>
<polygon fill="none" stroke="#bfbfbf" points="685.5,-69 685.5,-99 836.5,-99 836.5,-69 685.5,-69"/>
<text text-anchor="start" x="693.5" y="-87" font-family="Helvetica,sans-Serif" font-size="10.00">Math/GenVector/Displacement</text>
<text text-anchor="middle" x="761" y="-76" font-family="Helvetica,sans-Serif" font-size="10.00">Vector3D.h</text>
</g>
<!-- Node27&#45;&gt;Node32 -->
<g id="edge35" class="edge"><title>Node27&#45;&gt;Node32</title>
<path fill="none" stroke="midnightblue" d="M846.188,-142.372C832.124,-132.9 809.074,-117.376 790.495,-104.864"/>
<polygon fill="midnightblue" stroke="midnightblue" points="792.307,-101.864 782.057,-99.1815 788.397,-107.671 792.307,-101.864"/>
</g>
<!-- Node33 -->
<g id="node33" class="node"><title>Node33</title>
<polygon fill="none" stroke="#bfbfbf" points="855,-74.5 855,-93.5 1031,-93.5 1031,-74.5 855,-74.5"/>
<text text-anchor="middle" x="943" y="-81.5" font-family="Helvetica,sans-Serif" font-size="10.00">Math/GenVector/PositionVector3D.h</text>
</g>
<!-- Node27&#45;&gt;Node33 -->
<g id="edge36" class="edge"><title>Node27&#45;&gt;Node33</title>
<path fill="none" stroke="midnightblue" d="M869.982,-142.372C883.69,-131.6 907.361,-113.002 924.028,-99.9065"/>
<polygon fill="midnightblue" stroke="midnightblue" points="926.315,-102.561 932.016,-93.6305 921.99,-97.0566 926.315,-102.561"/>
</g>
<!-- Node34 -->
<g id="node34" class="node"><title>Node34</title>
<g id="a_node34"><a xlink:href="../../d2/dd0/Cartesian2D_8h.html" target="_top" xlink:title="MathUtils/Cartesian2D.h">
<polygon fill="none" stroke="black" points="1048.5,-74.5 1048.5,-93.5 1173.5,-93.5 1173.5,-74.5 1048.5,-74.5"/>
<text text-anchor="middle" x="1111" y="-81.5" font-family="Helvetica,sans-Serif" font-size="10.00">MathUtils/Cartesian2D.h</text>
</a>
</g>
</g>
<!-- Node27&#45;&gt;Node34 -->
<g id="edge37" class="edge"><title>Node27&#45;&gt;Node34</title>
<path fill="none" stroke="midnightblue" d="M891.686,-142.439C936.913,-130.594 1018.63,-109.192 1068.53,-96.1223"/>
<polygon fill="midnightblue" stroke="midnightblue" points="1069.58,-99.465 1078.37,-93.5455 1067.81,-92.6934 1069.58,-99.465"/>
</g>
<!-- Node35 -->
<g id="node35" class="node"><title>Node35</title>
<polygon fill="none" stroke="#bfbfbf" points="1043.5,-1 1043.5,-31 1194.5,-31 1194.5,-1 1043.5,-1"/>
<text text-anchor="start" x="1051.5" y="-19" font-family="Helvetica,sans-Serif" font-size="10.00">Math/GenVector/Displacement</text>
<text text-anchor="middle" x="1119" y="-8" font-family="Helvetica,sans-Serif" font-size="10.00">Vector2D.h</text>
</g>
<!-- Node34&#45;&gt;Node35 -->
<g id="edge38" class="edge"><title>Node34&#45;&gt;Node35</title>
<path fill="none" stroke="midnightblue" d="M1112.05,-74.3717C1113.06,-65.9715 1114.66,-52.811 1116.07,-41.2126"/>
<polygon fill="midnightblue" stroke="midnightblue" points="1119.55,-41.53 1117.28,-31.1815 1112.6,-40.6876 1119.55,-41.53"/>
</g>
<!-- Node36 -->
<g id="node36" class="node"><title>Node36</title>
<polygon fill="none" stroke="#bfbfbf" points="849,-6.5 849,-25.5 1025,-25.5 1025,-6.5 849,-6.5"/>
<text text-anchor="middle" x="937" y="-13.5" font-family="Helvetica,sans-Serif" font-size="10.00">Math/GenVector/PositionVector2D.h</text>
</g>
<!-- Node34&#45;&gt;Node36 -->
<g id="edge39" class="edge"><title>Node34&#45;&gt;Node36</title>
<path fill="none" stroke="midnightblue" d="M1088.25,-74.3717C1057.82,-62.8274 1003.68,-42.2926 969.103,-29.1772"/>
<polygon fill="midnightblue" stroke="midnightblue" points="970.069,-25.8 959.477,-25.5259 967.586,-32.345 970.069,-25.8"/>
</g>
<!-- Node37&#45;&gt;Node4 -->
<g id="edge56" class="edge"><title>Node37&#45;&gt;Node4</title>
<path fill="none" stroke="midnightblue" d="M1093.41,-204.499C989.044,-193.352 817.019,-174.456 788,-168 783.84,-167.075 779.523,-165.91 775.283,-164.642"/>
<polygon fill="midnightblue" stroke="midnightblue" points="776.228,-161.269 765.637,-161.555 774.094,-167.936 776.228,-161.269"/>
</g>
<!-- Node37&#45;&gt;Node14 -->
<g id="edge55" class="edge"><title>Node37&#45;&gt;Node14</title>
<path fill="none" stroke="midnightblue" d="M1238.62,-204.46C1275.07,-197.893 1320.64,-186.672 1358,-168 1378.06,-157.976 1376.63,-145.365 1397,-136 1480.65,-97.5446 1512.4,-125.029 1601,-100 1603.98,-99.1595 1607.04,-98.1702 1610.08,-97.1073"/>
<polygon fill="midnightblue" stroke="midnightblue" points="1611.41,-100.346 1619.54,-93.5528 1608.94,-93.7935 1611.41,-100.346"/>
</g>
<!-- Node37&#45;&gt;Node27 -->
<g id="edge44" class="edge"><title>Node37&#45;&gt;Node27</title>
<path fill="none" stroke="midnightblue" d="M1129.2,-204.467C1072.41,-193.649 974.546,-175.009 913.485,-163.378"/>
<polygon fill="midnightblue" stroke="midnightblue" points="914.121,-159.936 903.643,-161.503 912.811,-166.813 914.121,-159.936"/>
</g>
<!-- Node37&#45;&gt;Node38 -->
<g id="edge42" class="edge"><title>Node37&#45;&gt;Node38</title>
<path fill="none" stroke="midnightblue" d="M1230.3,-204.426C1274.76,-196.927 1338.08,-184.629 1392,-168 1394.58,-167.204 1397.23,-166.292 1399.86,-165.32"/>
<polygon fill="midnightblue" stroke="midnightblue" points="1401.18,-168.564 1409.19,-161.632 1398.61,-162.054 1401.18,-168.564"/>
</g>
<!-- Node39 -->
<g id="node39" class="node"><title>Node39</title>
<polygon fill="none" stroke="#bfbfbf" points="1221,-6.5 1221,-25.5 1259,-25.5 1259,-6.5 1221,-6.5"/>
<text text-anchor="middle" x="1240" y="-13.5" font-family="Helvetica,sans-Serif" font-size="10.00">array</text>
</g>
<!-- Node37&#45;&gt;Node39 -->
<g id="edge43" class="edge"><title>Node37&#45;&gt;Node39</title>
<path fill="none" stroke="midnightblue" d="M1176.92,-204.325C1186.95,-174.538 1220.13,-76.0132 1233.91,-35.0787"/>
<polygon fill="midnightblue" stroke="midnightblue" points="1237.24,-36.1687 1237.11,-25.5746 1230.6,-33.9348 1237.24,-36.1687"/>
</g>
<!-- Node40 -->
<g id="node40" class="node"><title>Node40</title>
<g id="a_node40"><a xlink:href="../../d6/d31/DetID_8h.html" target="_top" xlink:title="DetectorsBase/DetID.h">
<polygon fill="none" stroke="black" points="1230.5,-142.5 1230.5,-161.5 1349.5,-161.5 1349.5,-142.5 1230.5,-142.5"/>
<text text-anchor="middle" x="1290" y="-149.5" font-family="Helvetica,sans-Serif" font-size="10.00">DetectorsBase/DetID.h</text>
</a>
</g>
</g>
<!-- Node37&#45;&gt;Node40 -->
<g id="edge45" class="edge"><title>Node37&#45;&gt;Node40</title>
<path fill="none" stroke="midnightblue" d="M1190.62,-204.403C1209.92,-194.423 1241.96,-177.849 1264.43,-166.225"/>
<polygon fill="midnightblue" stroke="midnightblue" points="1266.14,-169.284 1273.41,-161.581 1262.92,-163.066 1266.14,-169.284"/>
</g>
<!-- Node40&#45;&gt;Node14 -->
<g id="edge49" class="edge"><title>Node40&#45;&gt;Node14</title>
<path fill="none" stroke="midnightblue" d="M1330.26,-142.465C1341.18,-140.251 1353.03,-137.944 1364,-136 1468.91,-117.411 1498.13,-127.735 1601,-100 1603.99,-99.1951 1607.06,-98.2294 1610.1,-97.1809"/>
<polygon fill="midnightblue" stroke="midnightblue" points="1611.42,-100.423 1619.56,-93.6456 1608.97,-93.8656 1611.42,-100.423"/>
</g>
<!-- Node40&#45;&gt;Node39 -->
<g id="edge47" class="edge"><title>Node40&#45;&gt;Node39</title>
<path fill="none" stroke="midnightblue" d="M1283.6,-142.431C1276.58,-132.65 1265.47,-115.937 1259,-100 1250.42,-78.8552 1245.28,-53.0299 1242.55,-35.8582"/>
<polygon fill="midnightblue" stroke="midnightblue" points="1245.94,-34.9028 1241.03,-25.5165 1239.02,-35.9185 1245.94,-34.9028"/>
</g>
<!-- Node41 -->
<g id="node41" class="node"><title>Node41</title>
<polygon fill="none" stroke="#bfbfbf" points="1268,-74.5 1268,-93.5 1314,-93.5 1314,-74.5 1268,-74.5"/>
<text text-anchor="middle" x="1291" y="-81.5" font-family="Helvetica,sans-Serif" font-size="10.00">cstdint</text>
</g>
<!-- Node40&#45;&gt;Node41 -->
<g id="edge46" class="edge"><title>Node40&#45;&gt;Node41</title>
<path fill="none" stroke="midnightblue" d="M1290.13,-142.372C1290.28,-132.643 1290.52,-116.528 1290.71,-103.85"/>
<polygon fill="midnightblue" stroke="midnightblue" points="1294.21,-103.893 1290.87,-93.8411 1287.21,-103.787 1294.21,-103.893"/>
</g>
<!-- Node42 -->
<g id="node42" class="node"><title>Node42</title>
<polygon fill="none" stroke="#bfbfbf" points="1332,-74.5 1332,-93.5 1394,-93.5 1394,-74.5 1332,-74.5"/>
<text text-anchor="middle" x="1363" y="-81.5" font-family="Helvetica,sans-Serif" font-size="10.00">type_traits</text>
</g>
<!-- Node40&#45;&gt;Node42 -->
<g id="edge48" class="edge"><title>Node40&#45;&gt;Node42</title>
<path fill="none" stroke="midnightblue" d="M1299.54,-142.372C1311.17,-131.856 1331.05,-113.882 1345.47,-100.85"/>
<polygon fill="midnightblue" stroke="midnightblue" points="1348.15,-103.144 1353.22,-93.8411 1343.46,-97.9514 1348.15,-103.144"/>
</g>
<!-- Node43 -->
<g id="node43" class="node"><title>Node43</title>
<g id="a_node43"><a xlink:href="../../d9/ded/Utils_8h.html" target="_top" xlink:title="DetectorsBase/Utils.h">
<polygon fill="none" stroke="black" points="1412.5,-74.5 1412.5,-93.5 1525.5,-93.5 1525.5,-74.5 1412.5,-74.5"/>
<text text-anchor="middle" x="1469" y="-81.5" font-family="Helvetica,sans-Serif" font-size="10.00">DetectorsBase/Utils.h</text>
</a>
</g>
</g>
<!-- Node40&#45;&gt;Node43 -->
<g id="edge50" class="edge"><title>Node40&#45;&gt;Node43</title>
<path fill="none" stroke="midnightblue" d="M1313.4,-142.372C1344.84,-130.778 1400.88,-110.116 1436.43,-97.0087"/>
<polygon fill="midnightblue" stroke="midnightblue" points="1437.71,-100.269 1445.88,-93.5259 1435.28,-93.7015 1437.71,-100.269"/>
</g>
<!-- Node46 -->
<g id="node46" class="node"><title>Node46</title>
<polygon fill="none" stroke="#bfbfbf" points="1543.5,-74.5 1543.5,-93.5 1592.5,-93.5 1592.5,-74.5 1543.5,-74.5"/>
<text text-anchor="middle" x="1568" y="-81.5" font-family="Helvetica,sans-Serif" font-size="10.00">cassert</text>
</g>
<!-- Node40&#45;&gt;Node46 -->
<g id="edge54" class="edge"><title>Node40&#45;&gt;Node46</title>
<path fill="none" stroke="midnightblue" d="M1332.06,-142.446C1399.29,-128.743 1524.39,-103.085 1534,-100 1536.42,-99.2232 1538.9,-98.3305 1541.36,-97.3759"/>
<polygon fill="midnightblue" stroke="midnightblue" points="1542.75,-100.589 1550.63,-93.502 1540.05,-94.1307 1542.75,-100.589"/>
</g>
<!-- Node43&#45;&gt;Node39 -->
<g id="edge53" class="edge"><title>Node43&#45;&gt;Node39</title>
<path fill="none" stroke="midnightblue" d="M1439.06,-74.3717C1394.84,-61.6264 1312.6,-37.9227 1268.95,-25.3432"/>
<polygon fill="midnightblue" stroke="midnightblue" points="1269.81,-21.95 1259.23,-22.5437 1267.87,-28.6762 1269.81,-21.95"/>
</g>
<!-- Node44 -->
<g id="node44" class="node"><title>Node44</title>
<g id="a_node44"><a xlink:href="../../d1/daa/Base_2include_2DetectorsBase_2Constants_8h.html" target="_top" xlink:title="DetectorsBase/Constants.h">
<polygon fill="none" stroke="black" points="1454,-6.5 1454,-25.5 1592,-25.5 1592,-6.5 1454,-6.5"/>
<text text-anchor="middle" x="1523" y="-13.5" font-family="Helvetica,sans-Serif" font-size="10.00">DetectorsBase/Constants.h</text>
</a>
</g>
</g>
<!-- Node43&#45;&gt;Node44 -->
<g id="edge51" class="edge"><title>Node43&#45;&gt;Node44</title>
<path fill="none" stroke="midnightblue" d="M1476.06,-74.3717C1484.5,-64.053 1498.82,-46.5513 1509.43,-33.5854"/>
<polygon fill="midnightblue" stroke="midnightblue" points="1512.14,-35.7971 1515.77,-25.8411 1506.73,-31.3644 1512.14,-35.7971"/>
</g>
<!-- Node45 -->
<g id="node45" class="node"><title>Node45</title>
<polygon fill="none" stroke="#bfbfbf" points="1392,-6.5 1392,-25.5 1436,-25.5 1436,-6.5 1392,-6.5"/>
<text text-anchor="middle" x="1414" y="-13.5" font-family="Helvetica,sans-Serif" font-size="10.00">cmath</text>
</g>
<!-- Node43&#45;&gt;Node45 -->
<g id="edge52" class="edge"><title>Node43&#45;&gt;Node45</title>
<path fill="none" stroke="midnightblue" d="M1461.81,-74.3717C1453.21,-64.053 1438.63,-46.5513 1427.82,-33.5854"/>
<polygon fill="midnightblue" stroke="midnightblue" points="1430.46,-31.2827 1421.37,-25.8411 1425.08,-35.764 1430.46,-31.2827"/>
</g>
<!-- Node47&#45;&gt;Node37 -->
<g id="edge58" class="edge"><title>Node47&#45;&gt;Node37</title>
<path fill="none" stroke="midnightblue" d="M1354.04,-334.403C1321.42,-312.77 1235.68,-255.906 1195.44,-229.217"/>
<polygon fill="midnightblue" stroke="midnightblue" points="1197.17,-226.17 1186.91,-223.56 1193.31,-232.004 1197.17,-226.17"/>
</g>
<!-- Node48 -->
<g id="node48" class="node"><title>Node48</title>
<polygon fill="none" stroke="#bfbfbf" points="1321.5,-266.5 1321.5,-285.5 1390.5,-285.5 1390.5,-266.5 1321.5,-266.5"/>
<text text-anchor="middle" x="1356" y="-273.5" font-family="Helvetica,sans-Serif" font-size="10.00">TObjArray.h</text>
</g>
<!-- Node47&#45;&gt;Node48 -->
<g id="edge59" class="edge"><title>Node47&#45;&gt;Node48</title>
<path fill="none" stroke="midnightblue" d="M1365.56,-334.372C1363.94,-324.643 1361.25,-308.528 1359.14,-295.85"/>
<polygon fill="midnightblue" stroke="midnightblue" points="1362.57,-295.13 1357.47,-285.841 1355.67,-296.28 1362.57,-295.13"/>
</g>
<!-- Node49 -->
<g id="node49" class="node"><title>Node49</title>
<polygon fill="none" stroke="#bfbfbf" points="1408.5,-266.5 1408.5,-285.5 1449.5,-285.5 1449.5,-266.5 1408.5,-266.5"/>
<text text-anchor="middle" x="1429" y="-273.5" font-family="Helvetica,sans-Serif" font-size="10.00">string</text>
</g>
<!-- Node47&#45;&gt;Node49 -->
<g id="edge60" class="edge"><title>Node47&#45;&gt;Node49</title>
<path fill="none" stroke="midnightblue" d="M1375.11,-334.372C1384.89,-323.955 1401.55,-306.217 1413.77,-293.216"/>
<polygon fill="midnightblue" stroke="midnightblue" points="1416.4,-295.526 1420.69,-285.841 1411.3,-290.733 1416.4,-295.526"/>
</g>
</g>
</svg>
