<?xml version="1.0" encoding="UTF-8" standalone="no"?>
<!DOCTYPE svg PUBLIC "-//W3C//DTD SVG 1.1//EN"
 "http://www.w3.org/Graphics/SVG/1.1/DTD/svg11.dtd">
<!-- Generated by graphviz version 2.36.0 (20140111.2315)
 -->
<!-- Title: /home/travis/build/AliceO2Group/AliceO2/Detectors/Base/include/DetectorsBase/DetID.h Pages: 1 -->
<svg width="444pt" height="174pt"
 viewBox="0.00 0.00 444.00 174.00" xmlns="http://www.w3.org/2000/svg" xmlns:xlink="http://www.w3.org/1999/xlink">
<g id="graph0" class="graph" transform="scale(1 1) rotate(0) translate(4 170)">
<title>/home/travis/build/AliceO2Group/AliceO2/Detectors/Base/include/DetectorsBase/DetID.h</title>
<!-- Node1 -->
<g id="node1" class="node"><title>Node1</title>
<polygon fill="#bfbfbf" stroke="black" points="110,-113 110,-165 232,-165 232,-113 110,-113"/>
<text text-anchor="start" x="118" y="-153" font-family="Helvetica,sans-Serif" font-size="10.00">/home/travis/build</text>
<text text-anchor="start" x="118" y="-142" font-family="Helvetica,sans-Serif" font-size="10.00">/AliceO2Group/AliceO2</text>
<text text-anchor="start" x="118" y="-131" font-family="Helvetica,sans-Serif" font-size="10.00">/Detectors/Base/include</text>
<text text-anchor="middle" x="171" y="-120" font-family="Helvetica,sans-Serif" font-size="10.00">/DetectorsBase/DetID.h</text>
</g>
<!-- Node2 -->
<g id="node2" class="node"><title>Node2</title>
<polygon fill="none" stroke="#bfbfbf" points="0,-56.5 0,-75.5 46,-75.5 46,-56.5 0,-56.5"/>
<text text-anchor="middle" x="23" y="-63.5" font-family="Helvetica,sans-Serif" font-size="10.00">cstdint</text>
</g>
<!-- Node1&#45;&gt;Node2 -->
<g id="edge1" class="edge"><title>Node1&#45;&gt;Node2</title>
<path fill="none" stroke="midnightblue" d="M118.821,-112.968C95.6113,-101.834 69.2568,-89.1908 50.0695,-79.986"/>
<polygon fill="midnightblue" stroke="midnightblue" points="51.5379,-76.8086 41.0078,-75.6389 48.5101,-83.1199 51.5379,-76.8086"/>
</g>
<!-- Node3 -->
<g id="node3" class="node"><title>Node3</title>
<polygon fill="none" stroke="#bfbfbf" points="94,-0.5 94,-19.5 132,-19.5 132,-0.5 94,-0.5"/>
<text text-anchor="middle" x="113" y="-7.5" font-family="Helvetica,sans-Serif" font-size="10.00">array</text>
</g>
<!-- Node1&#45;&gt;Node3 -->
<g id="edge2" class="edge"><title>Node1&#45;&gt;Node3</title>
<path fill="none" stroke="midnightblue" d="M125.727,-112.839C112.725,-103.154 100.142,-90.8005 93,-76 85.5677,-60.598 92.9482,-41.8167 100.759,-28.4106"/>
<polygon fill="midnightblue" stroke="midnightblue" points="103.875,-30.0338 106.316,-19.724 97.9788,-26.2613 103.875,-30.0338"/>
</g>
<!-- Node4 -->
<g id="node4" class="node"><title>Node4</title>
<polygon fill="none" stroke="#bfbfbf" points="102,-56.5 102,-75.5 164,-75.5 164,-56.5 102,-56.5"/>
<text text-anchor="middle" x="133" y="-63.5" font-family="Helvetica,sans-Serif" font-size="10.00">type_traits</text>
</g>
<!-- Node1&#45;&gt;Node4 -->
<g id="edge3" class="edge"><title>Node1&#45;&gt;Node4</title>
<path fill="none" stroke="midnightblue" d="M157.496,-112.768C152.528,-103.486 147.012,-93.1794 142.473,-84.7004"/>
<polygon fill="midnightblue" stroke="midnightblue" points="145.492,-82.9222 137.687,-75.7572 139.32,-86.2254 145.492,-82.9222"/>
</g>
<!-- Node5 -->
<g id="node5" class="node"><title>Node5</title>
<polygon fill="none" stroke="#bfbfbf" points="182,-56.5 182,-75.5 238,-75.5 238,-56.5 182,-56.5"/>
<text text-anchor="middle" x="210" y="-63.5" font-family="Helvetica,sans-Serif" font-size="10.00">Rtypes.h</text>
</g>
<!-- Node1&#45;&gt;Node5 -->
<g id="edge4" class="edge"><title>Node1&#45;&gt;Node5</title>
<path fill="none" stroke="midnightblue" d="M184.86,-112.768C189.958,-103.486 195.62,-93.1794 200.277,-84.7004"/>
<polygon fill="midnightblue" stroke="midnightblue" points="203.443,-86.207 205.19,-75.7572 197.308,-82.8369 203.443,-86.207"/>
</g>
<!-- Node6 -->
<g id="node6" class="node"><title>Node6</title>
<g id="a_node6"><a xlink:href="../../d9/ded/Utils_8h.html" target="_top" xlink:title="DetectorsBase/Utils.h">
<polygon fill="none" stroke="black" points="256.5,-56.5 256.5,-75.5 369.5,-75.5 369.5,-56.5 256.5,-56.5"/>
<text text-anchor="middle" x="313" y="-63.5" font-family="Helvetica,sans-Serif" font-size="10.00">DetectorsBase/Utils.h</text>
</a>
</g>
</g>
<!-- Node1&#45;&gt;Node6 -->
<g id="edge5" class="edge"><title>Node1&#45;&gt;Node6</title>
<path fill="none" stroke="midnightblue" d="M221.064,-112.968C243.231,-101.885 268.388,-89.3062 286.775,-80.1123"/>
<polygon fill="midnightblue" stroke="midnightblue" points="288.343,-83.2416 295.722,-75.6389 285.213,-76.9806 288.343,-83.2416"/>
</g>
<!-- Node9 -->
<g id="node9" class="node"><title>Node9</title>
<polygon fill="none" stroke="#bfbfbf" points="387.5,-56.5 387.5,-75.5 436.5,-75.5 436.5,-56.5 387.5,-56.5"/>
<text text-anchor="middle" x="412" y="-63.5" font-family="Helvetica,sans-Serif" font-size="10.00">cassert</text>
</g>
<!-- Node1&#45;&gt;Node9 -->
<g id="edge9" class="edge"><title>Node1&#45;&gt;Node9</title>
<path fill="none" stroke="midnightblue" d="M232.126,-119.992C278.141,-106.435 339.557,-88.3421 377.409,-77.1906"/>
<polygon fill="midnightblue" stroke="midnightblue" points="378.825,-80.4223 387.429,-74.2389 376.847,-73.7076 378.825,-80.4223"/>
</g>
<!-- Node6&#45;&gt;Node3 -->
<g id="edge8" class="edge"><title>Node6&#45;&gt;Node3</title>
<path fill="none" stroke="midnightblue" d="M281.309,-56.4435C242.95,-46.0866 178.904,-28.7941 141.863,-18.7929"/>
<polygon fill="midnightblue" stroke="midnightblue" points="142.741,-15.4049 132.175,-16.1772 140.917,-22.1629 142.741,-15.4049"/>
</g>
<!-- Node7 -->
<g id="node7" class="node"><title>Node7</title>
<g id="a_node7"><a xlink:href="../../d1/daa/Base_2include_2DetectorsBase_2Constants_8h.html" target="_top" xlink:title="DetectorsBase/Constants.h">
<polygon fill="none" stroke="black" points="189,-0.5 189,-19.5 327,-19.5 327,-0.5 189,-0.5"/>
<text text-anchor="middle" x="258" y="-7.5" font-family="Helvetica,sans-Serif" font-size="10.00">DetectorsBase/Constants.h</text>
</a>
</g>
</g>
<!-- Node6&#45;&gt;Node7 -->
<g id="edge6" class="edge"><title>Node6&#45;&gt;Node7</title>
<path fill="none" stroke="midnightblue" d="M303.918,-56.083C295.829,-48.1409 283.805,-36.3354 274.09,-26.7973"/>
<polygon fill="midnightblue" stroke="midnightblue" points="276.501,-24.2595 266.913,-19.7511 271.597,-29.2545 276.501,-24.2595"/>
</g>
<!-- Node8 -->
<g id="node8" class="node"><title>Node8</title>
<polygon fill="none" stroke="#bfbfbf" points="345,-0.5 345,-19.5 389,-19.5 389,-0.5 345,-0.5"/>
<text text-anchor="middle" x="367" y="-7.5" font-family="Helvetica,sans-Serif" font-size="10.00">cmath</text>
</g>
<!-- Node6&#45;&gt;Node8 -->
<g id="edge7" class="edge"><title>Node6&#45;&gt;Node8</title>
<path fill="none" stroke="midnightblue" d="M321.917,-56.083C329.78,-48.2195 341.431,-36.5688 350.919,-27.0813"/>
<polygon fill="midnightblue" stroke="midnightblue" points="353.653,-29.2971 358.249,-19.7511 348.703,-24.3473 353.653,-29.2971"/>
</g>
</g>
</svg>
