<?xml version="1.0" encoding="UTF-8" standalone="no"?>
<!DOCTYPE svg PUBLIC "-//W3C//DTD SVG 1.1//EN"
 "http://www.w3.org/Graphics/SVG/1.1/DTD/svg11.dtd">
<!-- Generated by graphviz version 2.36.0 (20140111.2315)
 -->
<!-- Title: /home/travis/build/AliceO2Group/AliceO2/Detectors/ITSMFT/ITS/reconstruction/src/CATracker.cxx Pages: 1 -->
<!--zoomable 602 -->
<svg id="main" version="1.1" xmlns="http://www.w3.org/2000/svg" xmlns:xlink="http://www.w3.org/1999/xlink" xml:space="preserve" onload="init(evt)">
<style type="text/css"><![CDATA[
.edge:hover path { stroke: red; }
.edge:hover polygon { stroke: red; fill: red; }
]]></style>
<script type="text/javascript"><![CDATA[
var edges = document.getElementsByTagName('g');
if (edges && edges.length) {
  for (var i=0;i<edges.length;i++) {
    if (edges[i].id.substr(0,4)=='edge') {
      edges[i].setAttribute('class','edge');
    }
  }
}
]]></script>
        <defs>
                <circle id="rim" cx="0" cy="0" r="7"/>
                <circle id="rim2" cx="0" cy="0" r="3.5"/>
                <g id="zoomPlus">
                        <use xlink:href="#rim" fill="#404040">
                                <set attributeName="fill" to="#808080" begin="zoomplus.mouseover" end="zoomplus.mouseout"/>
                        </use>
                        <path d="M-4,0h8M0,-4v8" fill="none" stroke="white" stroke-width="1.5" pointer-events="none"/>
                </g>
                <g id="zoomMin">
                        <use xlink:href="#rim" fill="#404040">
                                <set attributeName="fill" to="#808080" begin="zoomminus.mouseover" end="zoomminus.mouseout"/>
                        </use>
                        <path d="M-4,0h8" fill="none" stroke="white" stroke-width="1.5" pointer-events="none"/>
                </g>
                <g id="dirArrow">
                        <path fill="none" stroke="white" stroke-width="1.5" d="M0,-3.0v7 M-2.5,-0.5L0,-3.0L2.5,-0.5"/>
                </g>
               <g id="resetDef">
                       <use xlink:href="#rim2" fill="#404040">
                               <set attributeName="fill" to="#808080" begin="reset.mouseover" end="reset.mouseout"/>
                       </use>
               </g>
        </defs>

<script type="text/javascript">
var viewWidth = 1999;
var viewHeight = 602;
var sectionId = 'dynsection-0';
</script>
<script xlink:href="../../svgpan.js"/>
<svg id="graph" class="graph">
<g id="viewport">
<title>/home/travis/build/AliceO2Group/AliceO2/Detectors/ITSMFT/ITS/reconstruction/src/CATracker.cxx</title>
<!-- Node1 -->
<g id="node1" class="node"><title>Node1</title>
<polygon fill="#bfbfbf" stroke="black" points="283.5,-541 283.5,-593 450.5,-593 450.5,-541 283.5,-541"/>
<text text-anchor="start" x="291.5" y="-581" font-family="Helvetica,sans-Serif" font-size="10.00">/home/travis/build</text>
<text text-anchor="start" x="291.5" y="-570" font-family="Helvetica,sans-Serif" font-size="10.00">/AliceO2Group/AliceO2</text>
<text text-anchor="start" x="291.5" y="-559" font-family="Helvetica,sans-Serif" font-size="10.00">/Detectors/ITSMFT/ITS</text>
<text text-anchor="middle" x="367" y="-548" font-family="Helvetica,sans-Serif" font-size="10.00">/reconstruction/src/CATracker.cxx</text>
</g>
<!-- Node2 -->
<g id="node2" class="node"><title>Node2</title>
<g id="a_node2"><a xlink:href="../../d0/d37/CATracker_8h.html" target="_top" xlink:title="ITSReconstruction/CATracker.h">
<polygon fill="none" stroke="black" points="194.5,-484.5 194.5,-503.5 351.5,-503.5 351.5,-484.5 194.5,-484.5"/>
<text text-anchor="middle" x="273" y="-491.5" font-family="Helvetica,sans-Serif" font-size="10.00">ITSReconstruction/CATracker.h</text>
</a>
</g>
</g>
<!-- Node1&#45;&gt;Node2 -->
<g id="edge1" class="edge"><title>Node1&#45;&gt;Node2</title>
<path fill="none" stroke="midnightblue" d="M333.859,-540.968C320.212,-530.66 304.853,-519.059 292.978,-510.09"/>
<polygon fill="midnightblue" stroke="midnightblue" points="294.752,-507.044 284.663,-503.81 290.533,-512.63 294.752,-507.044"/>
</g>
<!-- Node7 -->
<g id="node7" class="node"><title>Node7</title>
<g id="a_node7"><a xlink:href="../../d7/d65/Detectors_2Base_2include_2DetectorsBase_2Track_8h.html" target="_top" xlink:title="DetectorsBase/Track.h">
<polygon fill="none" stroke="black" points="894,-304.5 894,-323.5 1012,-323.5 1012,-304.5 894,-304.5"/>
<text text-anchor="middle" x="953" y="-311.5" font-family="Helvetica,sans-Serif" font-size="10.00">DetectorsBase/Track.h</text>
</a>
</g>
</g>
<!-- Node1&#45;&gt;Node7 -->
<g id="edge66" class="edge"><title>Node1&#45;&gt;Node7</title>
<path fill="none" stroke="midnightblue" d="M396.923,-540.903C419.076,-523.238 450.568,-499.986 481,-484 630.384,-405.526 824.205,-348.987 909.486,-326.165"/>
<polygon fill="midnightblue" stroke="midnightblue" points="910.571,-329.498 919.338,-323.55 908.775,-322.733 910.571,-329.498"/>
</g>
<!-- Node9 -->
<g id="node9" class="node"><title>Node9</title>
<polygon fill="none" stroke="#bfbfbf" points="144,-248.5 144,-267.5 200,-267.5 200,-248.5 144,-248.5"/>
<text text-anchor="middle" x="172" y="-255.5" font-family="Helvetica,sans-Serif" font-size="10.00">algorithm</text>
</g>
<!-- Node1&#45;&gt;Node9 -->
<g id="edge62" class="edge"><title>Node1&#45;&gt;Node9</title>
<path fill="none" stroke="midnightblue" d="M283.261,-552.231C226.508,-537.597 157.83,-507.848 135,-448 111.997,-387.698 144.72,-310.877 162.21,-276.734"/>
<polygon fill="midnightblue" stroke="midnightblue" points="165.475,-278.048 167.071,-267.574 159.292,-274.767 165.475,-278.048"/>
</g>
<!-- Node36 -->
<g id="node36" class="node"><title>Node36</title>
<polygon fill="none" stroke="#bfbfbf" points="53.5,-74.5 53.5,-93.5 102.5,-93.5 102.5,-74.5 53.5,-74.5"/>
<text text-anchor="middle" x="78" y="-81.5" font-family="Helvetica,sans-Serif" font-size="10.00">cassert</text>
</g>
<!-- Node1&#45;&gt;Node36 -->
<g id="edge63" class="edge"><title>Node1&#45;&gt;Node36</title>
<path fill="none" stroke="midnightblue" d="M283.263,-552.873C174.946,-533.482 0,-492.892 0,-433 0,-433 0,-433 0,-313 0,-230.432 46.3604,-139.661 67.5981,-102.41"/>
<polygon fill="midnightblue" stroke="midnightblue" points="70.6331,-104.153 72.6387,-93.75 64.5833,-100.632 70.6331,-104.153"/>
</g>
<!-- Node39 -->
<g id="node39" class="node"><title>Node39</title>
<polygon fill="none" stroke="#bfbfbf" points="490.5,-484.5 490.5,-503.5 543.5,-503.5 543.5,-484.5 490.5,-484.5"/>
<text text-anchor="middle" x="517" y="-491.5" font-family="Helvetica,sans-Serif" font-size="10.00">TMath.h</text>
</g>
<!-- Node1&#45;&gt;Node39 -->
<g id="edge64" class="edge"><title>Node1&#45;&gt;Node39</title>
<path fill="none" stroke="midnightblue" d="M419.884,-540.968C443.407,-529.834 470.118,-517.191 489.565,-507.986"/>
<polygon fill="midnightblue" stroke="midnightblue" points="491.208,-511.081 498.749,-503.639 488.213,-504.754 491.208,-511.081"/>
</g>
<!-- Node40 -->
<g id="node40" class="node"><title>Node40</title>
<polygon fill="none" stroke="#bfbfbf" points="562,-484.5 562,-503.5 632,-503.5 632,-484.5 562,-484.5"/>
<text text-anchor="middle" x="597" y="-491.5" font-family="Helvetica,sans-Serif" font-size="10.00">Riostream.h</text>
</g>
<!-- Node1&#45;&gt;Node40 -->
<g id="edge65" class="edge"><title>Node1&#45;&gt;Node40</title>
<path fill="none" stroke="midnightblue" d="M448.089,-540.968C486.086,-529.239 529.507,-515.835 559.616,-506.54"/>
<polygon fill="midnightblue" stroke="midnightblue" points="560.767,-509.848 569.29,-503.554 558.702,-503.159 560.767,-509.848"/>
</g>
<!-- Node3 -->
<g id="node3" class="node"><title>Node3</title>
<polygon fill="none" stroke="#bfbfbf" points="111,-136.5 111,-155.5 155,-155.5 155,-136.5 111,-136.5"/>
<text text-anchor="middle" x="133" y="-143.5" font-family="Helvetica,sans-Serif" font-size="10.00">vector</text>
</g>
<!-- Node2&#45;&gt;Node3 -->
<g id="edge2" class="edge"><title>Node2&#45;&gt;Node3</title>
<path fill="none" stroke="midnightblue" d="M194.307,-484.824C171.533,-478.391 149.051,-467.227 135,-448 70.6521,-359.951 109.886,-215.432 126.586,-165.021"/>
<polygon fill="midnightblue" stroke="midnightblue" points="129.917,-166.098 129.848,-155.503 123.295,-163.828 129.917,-166.098"/>
</g>
<!-- Node4 -->
<g id="node4" class="node"><title>Node4</title>
<polygon fill="none" stroke="#bfbfbf" points="221,-6.5 221,-25.5 259,-25.5 259,-6.5 221,-6.5"/>
<text text-anchor="middle" x="240" y="-13.5" font-family="Helvetica,sans-Serif" font-size="10.00">array</text>
</g>
<!-- Node2&#45;&gt;Node4 -->
<g id="edge3" class="edge"><title>Node2&#45;&gt;Node4</title>
<path fill="none" stroke="midnightblue" d="M194.422,-484.698C126.106,-472.612 38,-443.056 38,-371 38,-371 38,-371 38,-313 38,-204.078 -23.6696,-153.351 44,-68 64.6055,-42.0106 161.285,-26.6293 210.724,-20.3354"/>
<polygon fill="midnightblue" stroke="midnightblue" points="211.298,-23.7913 220.795,-19.0961 210.443,-16.8437 211.298,-23.7913"/>
</g>
<!-- Node5 -->
<g id="node5" class="node"><title>Node5</title>
<g id="a_node5"><a xlink:href="../../d1/db5/CAaux_8h.html" target="_top" xlink:title="ITSReconstruction/CAaux.h">
<polygon fill="none" stroke="black" points="256,-360.5 256,-379.5 396,-379.5 396,-360.5 256,-360.5"/>
<text text-anchor="middle" x="326" y="-367.5" font-family="Helvetica,sans-Serif" font-size="10.00">ITSReconstruction/CAaux.h</text>
</a>
</g>
</g>
<!-- Node2&#45;&gt;Node5 -->
<g id="edge4" class="edge"><title>Node2&#45;&gt;Node5</title>
<path fill="none" stroke="midnightblue" d="M280.918,-484.344C288.401,-475.727 299.433,-461.827 306,-448 314.869,-429.327 320.204,-406.168 323.106,-390.152"/>
<polygon fill="midnightblue" stroke="midnightblue" points="326.619,-390.356 324.804,-379.918 319.714,-389.21 326.619,-390.356"/>
</g>
<!-- Node2&#45;&gt;Node7 -->
<g id="edge61" class="edge"><title>Node2&#45;&gt;Node7</title>
<path fill="none" stroke="midnightblue" d="M283.556,-484.426C318.436,-456.173 428.861,-367.377 448,-360 534.994,-326.469 773.183,-332.797 866,-324 871.714,-323.458 877.637,-322.881 883.583,-322.289"/>
<polygon fill="midnightblue" stroke="midnightblue" points="883.978,-325.767 893.578,-321.284 883.278,-318.802 883.978,-325.767"/>
</g>
<!-- Node38 -->
<g id="node38" class="node"><title>Node38</title>
<g id="a_node38"><a xlink:href="../../d5/df0/CATrackingStation_8h.html" target="_top" xlink:title="ITSReconstruction/CATracking\lStation.h">
<polygon fill="none" stroke="black" points="144.5,-417 144.5,-447 297.5,-447 297.5,-417 144.5,-417"/>
<text text-anchor="start" x="152.5" y="-435" font-family="Helvetica,sans-Serif" font-size="10.00">ITSReconstruction/CATracking</text>
<text text-anchor="middle" x="221" y="-424" font-family="Helvetica,sans-Serif" font-size="10.00">Station.h</text>
</a>
</g>
</g>
<!-- Node2&#45;&gt;Node38 -->
<g id="edge56" class="edge"><title>Node2&#45;&gt;Node38</title>
<path fill="none" stroke="midnightblue" d="M265.55,-484.403C258.902,-476.733 248.878,-465.167 240.021,-454.948"/>
<polygon fill="midnightblue" stroke="midnightblue" points="242.45,-452.405 233.255,-447.141 237.16,-456.99 242.45,-452.405"/>
</g>
<!-- Node5&#45;&gt;Node3 -->
<g id="edge5" class="edge"><title>Node5&#45;&gt;Node3</title>
<path fill="none" stroke="midnightblue" d="M317.616,-360.325C309.64,-351.694 297.741,-337.783 290,-324 259.43,-269.572 285.187,-237.075 242,-192 230.962,-180.48 192.962,-166.307 164.921,-156.982"/>
<polygon fill="midnightblue" stroke="midnightblue" points="165.702,-153.555 155.109,-153.78 163.53,-160.21 165.702,-153.555"/>
</g>
<!-- Node5&#45;&gt;Node4 -->
<g id="edge6" class="edge"><title>Node5&#45;&gt;Node4</title>
<path fill="none" stroke="midnightblue" d="M324.556,-360.183C319.787,-333.057 302.597,-249.227 264,-192 250.991,-172.712 236.319,-176.851 226,-156 208.611,-120.866 212.717,-106.519 220,-68 222.154,-56.6077 226.792,-44.5005 231.059,-34.9425"/>
<polygon fill="midnightblue" stroke="midnightblue" points="234.306,-36.2633 235.41,-25.7261 227.976,-33.2752 234.306,-36.2633"/>
</g>
<!-- Node6 -->
<g id="node6" class="node"><title>Node6</title>
<polygon fill="none" stroke="#bfbfbf" points="1931,-6.5 1931,-25.5 1975,-25.5 1975,-6.5 1931,-6.5"/>
<text text-anchor="middle" x="1953" y="-13.5" font-family="Helvetica,sans-Serif" font-size="10.00">cmath</text>
</g>
<!-- Node5&#45;&gt;Node6 -->
<g id="edge7" class="edge"><title>Node5&#45;&gt;Node6</title>
<path fill="none" stroke="midnightblue" d="M396.215,-368.095C712.675,-363.562 1991,-340.227 1991,-259 1991,-259 1991,-259 1991,-145 1991,-104.231 1973.06,-59.0653 1961.84,-34.7866"/>
<polygon fill="midnightblue" stroke="midnightblue" points="1964.98,-33.2455 1957.51,-25.734 1958.67,-36.2655 1964.98,-33.2455"/>
</g>
<!-- Node5&#45;&gt;Node7 -->
<g id="edge8" class="edge"><title>Node5&#45;&gt;Node7</title>
<path fill="none" stroke="midnightblue" d="M396.112,-361.34C400.81,-360.872 405.473,-360.421 410,-360 612.423,-341.169 663.543,-342.461 866,-324 871.716,-323.479 877.64,-322.915 883.587,-322.333"/>
<polygon fill="midnightblue" stroke="midnightblue" points="883.978,-325.812 893.583,-321.341 883.287,-318.846 883.978,-325.812"/>
</g>
<!-- Node35 -->
<g id="node35" class="node"><title>Node35</title>
<g id="a_node35"><a xlink:href="../../d1/daa/Base_2include_2DetectorsBase_2Constants_8h.html" target="_top" xlink:title="DetectorsBase/Constants.h">
<polygon fill="none" stroke="black" points="843,-6.5 843,-25.5 981,-25.5 981,-6.5 843,-6.5"/>
<text text-anchor="middle" x="912" y="-13.5" font-family="Helvetica,sans-Serif" font-size="10.00">DetectorsBase/Constants.h</text>
</a>
</g>
</g>
<!-- Node5&#45;&gt;Node35 -->
<g id="edge55" class="edge"><title>Node5&#45;&gt;Node35</title>
<path fill="none" stroke="midnightblue" d="M396.121,-361.579C539.327,-345.472 852,-305.035 852,-259 852,-259 852,-259 852,-201 852,-141.847 821.124,-121.193 847,-68 854.875,-51.8114 870.652,-39.2378 884.689,-30.6258"/>
<polygon fill="midnightblue" stroke="midnightblue" points="886.627,-33.5495 893.563,-25.5403 883.146,-27.4763 886.627,-33.5495"/>
</g>
<!-- Node7&#45;&gt;Node4 -->
<g id="edge11" class="edge"><title>Node7&#45;&gt;Node4</title>
<path fill="none" stroke="midnightblue" d="M893.659,-310.768C810.302,-306.673 663.713,-295.677 619,-268 530.071,-212.954 580.43,-128.335 495,-68 458.808,-42.4391 328.206,-26.0932 269.245,-19.8581"/>
<polygon fill="midnightblue" stroke="midnightblue" points="269.415,-16.3571 259.109,-18.8115 268.696,-23.3201 269.415,-16.3571"/>
</g>
<!-- Node7&#45;&gt;Node6 -->
<g id="edge13" class="edge"><title>Node7&#45;&gt;Node6</title>
<path fill="none" stroke="midnightblue" d="M1012.03,-312.683C1179.56,-311.342 1655.69,-304.348 1807,-268 1876.06,-251.409 1953,-274.029 1953,-203 1953,-203 1953,-203 1953,-145 1953,-106.248 1953,-60.8973 1953,-35.9188"/>
<polygon fill="midnightblue" stroke="midnightblue" points="1956.5,-35.6912 1953,-25.6913 1949.5,-35.6913 1956.5,-35.6912"/>
</g>
<!-- Node8 -->
<g id="node8" class="node"><title>Node8</title>
<polygon fill="none" stroke="#bfbfbf" points="431,-74.5 431,-93.5 487,-93.5 487,-74.5 431,-74.5"/>
<text text-anchor="middle" x="459" y="-81.5" font-family="Helvetica,sans-Serif" font-size="10.00">Rtypes.h</text>
</g>
<!-- Node7&#45;&gt;Node8 -->
<g id="edge9" class="edge"><title>Node7&#45;&gt;Node8</title>
<path fill="none" stroke="midnightblue" d="M893.957,-312.006C833.015,-309.161 736.216,-299.495 659,-268 571.823,-232.443 498.764,-140.71 470.993,-102.309"/>
<polygon fill="midnightblue" stroke="midnightblue" points="473.569,-99.8913 464.927,-93.7619 467.86,-103.943 473.569,-99.8913"/>
</g>
<!-- Node7&#45;&gt;Node9 -->
<g id="edge10" class="edge"><title>Node7&#45;&gt;Node9</title>
<path fill="none" stroke="midnightblue" d="M893.978,-308.919C741.376,-298.368 336.873,-270.4 210.37,-261.653"/>
<polygon fill="midnightblue" stroke="midnightblue" points="210.59,-258.16 200.372,-260.962 210.107,-265.143 210.59,-258.16"/>
</g>
<!-- Node10 -->
<g id="node10" class="node"><title>Node10</title>
<polygon fill="none" stroke="#bfbfbf" points="1032.5,-248.5 1032.5,-267.5 1073.5,-267.5 1073.5,-248.5 1032.5,-248.5"/>
<text text-anchor="middle" x="1053" y="-255.5" font-family="Helvetica,sans-Serif" font-size="10.00">cfloat</text>
</g>
<!-- Node7&#45;&gt;Node10 -->
<g id="edge12" class="edge"><title>Node7&#45;&gt;Node10</title>
<path fill="none" stroke="midnightblue" d="M969.067,-304.324C984.958,-295.743 1009.51,-282.486 1027.96,-272.522"/>
<polygon fill="midnightblue" stroke="midnightblue" points="1029.84,-275.486 1036.97,-267.655 1026.51,-269.326 1029.84,-275.486"/>
</g>
<!-- Node11 -->
<g id="node11" class="node"><title>Node11</title>
<polygon fill="none" stroke="#bfbfbf" points="1092,-248.5 1092,-267.5 1138,-267.5 1138,-248.5 1092,-248.5"/>
<text text-anchor="middle" x="1115" y="-255.5" font-family="Helvetica,sans-Serif" font-size="10.00">cstring</text>
</g>
<!-- Node7&#45;&gt;Node11 -->
<g id="edge14" class="edge"><title>Node7&#45;&gt;Node11</title>
<path fill="none" stroke="midnightblue" d="M978.669,-304.444C1006.64,-295.119 1051.49,-280.172 1082.04,-269.986"/>
<polygon fill="midnightblue" stroke="midnightblue" points="1083.43,-273.212 1091.81,-266.729 1081.22,-266.571 1083.43,-273.212"/>
</g>
<!-- Node12 -->
<g id="node12" class="node"><title>Node12</title>
<polygon fill="none" stroke="#bfbfbf" points="1833,-74.5 1833,-93.5 1887,-93.5 1887,-74.5 1833,-74.5"/>
<text text-anchor="middle" x="1860" y="-81.5" font-family="Helvetica,sans-Serif" font-size="10.00">iostream</text>
</g>
<!-- Node7&#45;&gt;Node12 -->
<g id="edge15" class="edge"><title>Node7&#45;&gt;Node12</title>
<path fill="none" stroke="midnightblue" d="M959.657,-304.185C970.974,-289.887 995.438,-261.85 1023,-248 1346.09,-85.6437 1475.9,-201.332 1823,-100 1825.81,-99.1805 1828.69,-98.2238 1831.56,-97.1973"/>
<polygon fill="midnightblue" stroke="midnightblue" points="1832.98,-100.398 1841.06,-93.5365 1830.47,-93.8664 1832.98,-100.398"/>
</g>
<!-- Node13 -->
<g id="node13" class="node"><title>Node13</title>
<polygon fill="none" stroke="#bfbfbf" points="1156.5,-248.5 1156.5,-267.5 1239.5,-267.5 1239.5,-248.5 1156.5,-248.5"/>
<text text-anchor="middle" x="1198" y="-255.5" font-family="Helvetica,sans-Serif" font-size="10.00">Math/SMatrix.h</text>
</g>
<!-- Node7&#45;&gt;Node13 -->
<g id="edge16" class="edge"><title>Node7&#45;&gt;Node13</title>
<path fill="none" stroke="midnightblue" d="M991.821,-304.444C1034.56,-295.023 1103.33,-279.866 1149.57,-269.675"/>
<polygon fill="midnightblue" stroke="midnightblue" points="1150.35,-273.087 1159.36,-267.516 1148.84,-266.251 1150.35,-273.087"/>
</g>
<!-- Node14 -->
<g id="node14" class="node"><title>Node14</title>
<polygon fill="none" stroke="#bfbfbf" points="1257.5,-248.5 1257.5,-267.5 1342.5,-267.5 1342.5,-248.5 1257.5,-248.5"/>
<text text-anchor="middle" x="1300" y="-255.5" font-family="Helvetica,sans-Serif" font-size="10.00">Math/SVector.h</text>
</g>
<!-- Node7&#45;&gt;Node14 -->
<g id="edge17" class="edge"><title>Node7&#45;&gt;Node14</title>
<path fill="none" stroke="midnightblue" d="M1011.27,-304.463C1068.66,-295.975 1159.1,-282.387 1247.51,-268.052"/>
<polygon fill="midnightblue" stroke="midnightblue" points="1248.14,-271.496 1257.44,-266.437 1247.01,-264.587 1248.14,-271.496"/>
</g>
<!-- Node15 -->
<g id="node15" class="node"><title>Node15</title>
<g id="a_node15"><a xlink:href="../../d4/de2/BaseCluster_8h.html" target="_top" xlink:title="DetectorsBase/BaseCluster.h">
<polygon fill="none" stroke="black" points="668.5,-248.5 668.5,-267.5 815.5,-267.5 815.5,-248.5 668.5,-248.5"/>
<text text-anchor="middle" x="742" y="-255.5" font-family="Helvetica,sans-Serif" font-size="10.00">DetectorsBase/BaseCluster.h</text>
</a>
</g>
</g>
<!-- Node7&#45;&gt;Node15 -->
<g id="edge18" class="edge"><title>Node7&#45;&gt;Node15</title>
<path fill="none" stroke="midnightblue" d="M919.566,-304.444C883.144,-295.122 824.77,-280.183 784.971,-269.997"/>
<polygon fill="midnightblue" stroke="midnightblue" points="785.833,-266.605 775.277,-267.516 784.097,-273.387 785.833,-266.605"/>
</g>
<!-- Node20 -->
<g id="node20" class="node"><title>Node20</title>
<g id="a_node20"><a xlink:href="../../dd/d76/Cartesian3D_8h.html" target="_top" xlink:title="MathUtils/Cartesian3D.h">
<polygon fill="none" stroke="black" points="881.5,-136.5 881.5,-155.5 1006.5,-155.5 1006.5,-136.5 881.5,-136.5"/>
<text text-anchor="middle" x="944" y="-143.5" font-family="Helvetica,sans-Serif" font-size="10.00">MathUtils/Cartesian3D.h</text>
</a>
</g>
</g>
<!-- Node7&#45;&gt;Node20 -->
<g id="edge54" class="edge"><title>Node7&#45;&gt;Node20</title>
<path fill="none" stroke="midnightblue" d="M952.516,-304.075C951.099,-277.945 946.939,-201.211 945.007,-165.577"/>
<polygon fill="midnightblue" stroke="midnightblue" points="948.501,-165.364 944.465,-155.568 941.511,-165.743 948.501,-165.364"/>
</g>
<!-- Node34 -->
<g id="node34" class="node"><title>Node34</title>
<g id="a_node34"><a xlink:href="../../d9/ded/Utils_8h.html" target="_top" xlink:title="DetectorsBase/Utils.h">
<polygon fill="none" stroke="black" points="543.5,-74.5 543.5,-93.5 656.5,-93.5 656.5,-74.5 543.5,-74.5"/>
<text text-anchor="middle" x="600" y="-81.5" font-family="Helvetica,sans-Serif" font-size="10.00">DetectorsBase/Utils.h</text>
</a>
</g>
</g>
<!-- Node7&#45;&gt;Node34 -->
<g id="edge53" class="edge"><title>Node7&#45;&gt;Node34</title>
<path fill="none" stroke="midnightblue" d="M946.281,-304.331C929.298,-282.883 882.469,-226.577 833,-192 769.135,-147.361 683.668,-113.74 636.002,-96.9404"/>
<polygon fill="midnightblue" stroke="midnightblue" points="637.021,-93.5891 626.426,-93.613 634.723,-100.201 637.021,-93.5891"/>
</g>
<!-- Node7&#45;&gt;Node35 -->
<g id="edge52" class="edge"><title>Node7&#45;&gt;Node35</title>
<path fill="none" stroke="midnightblue" d="M1012.09,-312.482C1221.39,-309.877 1915,-294.353 1915,-203 1915,-203 1915,-203 1915,-145 1915,-109.751 1923.18,-90.446 1896,-68 1861.31,-39.3523 1219.02,-23.3457 991.266,-18.5516"/>
<polygon fill="midnightblue" stroke="midnightblue" points="991.133,-15.0482 981.062,-18.3385 990.987,-22.0466 991.133,-15.0482"/>
</g>
<!-- Node15&#45;&gt;Node12 -->
<g id="edge23" class="edge"><title>Node15&#45;&gt;Node12</title>
<path fill="none" stroke="midnightblue" d="M767.079,-248.412C815.45,-231.696 924.823,-193.161 1015,-156 1034.86,-147.816 1038.12,-141.04 1059,-136 1389.44,-56.2355 1490.98,-172.896 1823,-100 1826.25,-99.2865 1829.58,-98.3133 1832.85,-97.2027"/>
<polygon fill="midnightblue" stroke="midnightblue" points="1834.23,-100.422 1842.32,-93.5817 1831.73,-93.883 1834.23,-100.422"/>
</g>
<!-- Node16 -->
<g id="node16" class="node"><title>Node16</title>
<polygon fill="none" stroke="#bfbfbf" points="637.5,-192.5 637.5,-211.5 696.5,-211.5 696.5,-192.5 637.5,-192.5"/>
<text text-anchor="middle" x="667" y="-199.5" font-family="Helvetica,sans-Serif" font-size="10.00">TObject.h</text>
</g>
<!-- Node15&#45;&gt;Node16 -->
<g id="edge19" class="edge"><title>Node15&#45;&gt;Node16</title>
<path fill="none" stroke="midnightblue" d="M729.95,-248.324C718.537,-240.107 701.169,-227.602 687.565,-217.807"/>
<polygon fill="midnightblue" stroke="midnightblue" points="689.43,-214.837 679.269,-211.834 685.34,-220.517 689.43,-214.837"/>
</g>
<!-- Node17 -->
<g id="node17" class="node"><title>Node17</title>
<polygon fill="none" stroke="#bfbfbf" points="714.5,-192.5 714.5,-211.5 755.5,-211.5 755.5,-192.5 714.5,-192.5"/>
<text text-anchor="middle" x="735" y="-199.5" font-family="Helvetica,sans-Serif" font-size="10.00">bitset</text>
</g>
<!-- Node15&#45;&gt;Node17 -->
<g id="edge20" class="edge"><title>Node15&#45;&gt;Node17</title>
<path fill="none" stroke="midnightblue" d="M740.844,-248.083C739.916,-240.927 738.582,-230.635 737.423,-221.691"/>
<polygon fill="midnightblue" stroke="midnightblue" points="740.891,-221.218 736.134,-211.751 733.949,-222.118 740.891,-221.218"/>
</g>
<!-- Node18 -->
<g id="node18" class="node"><title>Node18</title>
<polygon fill="none" stroke="#bfbfbf" points="774,-192.5 774,-211.5 824,-211.5 824,-192.5 774,-192.5"/>
<text text-anchor="middle" x="799" y="-199.5" font-family="Helvetica,sans-Serif" font-size="10.00">iomanip</text>
</g>
<!-- Node15&#45;&gt;Node18 -->
<g id="edge21" class="edge"><title>Node15&#45;&gt;Node18</title>
<path fill="none" stroke="midnightblue" d="M751.158,-248.324C759.501,-240.42 772.032,-228.548 782.177,-218.938"/>
<polygon fill="midnightblue" stroke="midnightblue" points="784.823,-221.252 789.675,-211.834 780.009,-216.171 784.823,-221.252"/>
</g>
<!-- Node19 -->
<g id="node19" class="node"><title>Node19</title>
<polygon fill="none" stroke="#bfbfbf" points="590.5,-192.5 590.5,-211.5 619.5,-211.5 619.5,-192.5 590.5,-192.5"/>
<text text-anchor="middle" x="605" y="-199.5" font-family="Helvetica,sans-Serif" font-size="10.00">ios</text>
</g>
<!-- Node15&#45;&gt;Node19 -->
<g id="edge22" class="edge"><title>Node15&#45;&gt;Node19</title>
<path fill="none" stroke="midnightblue" d="M720.292,-248.444C695.514,-238.677 655.089,-222.743 629.284,-212.572"/>
<polygon fill="midnightblue" stroke="midnightblue" points="630.438,-209.264 619.851,-208.854 627.871,-215.777 630.438,-209.264"/>
</g>
<!-- Node15&#45;&gt;Node20 -->
<g id="edge24" class="edge"><title>Node15&#45;&gt;Node20</title>
<path fill="none" stroke="midnightblue" d="M760.321,-248.408C778.837,-239.616 808.179,-225.383 833,-212 864.131,-195.215 899.227,-174.32 921.467,-160.825"/>
<polygon fill="midnightblue" stroke="midnightblue" points="923.443,-163.72 930.162,-155.529 919.801,-157.742 923.443,-163.72"/>
</g>
<!-- Node30 -->
<g id="node30" class="node"><title>Node30</title>
<g id="a_node30"><a xlink:href="../../d4/d20/DetMatrixCache_8h.html" target="_top" xlink:title="DetectorsBase/DetMatrixCache.h">
<polygon fill="none" stroke="black" points="332,-192.5 332,-211.5 496,-211.5 496,-192.5 332,-192.5"/>
<text text-anchor="middle" x="414" y="-199.5" font-family="Helvetica,sans-Serif" font-size="10.00">DetectorsBase/DetMatrixCache.h</text>
</a>
</g>
</g>
<!-- Node15&#45;&gt;Node30 -->
<g id="edge36" class="edge"><title>Node15&#45;&gt;Node30</title>
<path fill="none" stroke="midnightblue" d="M690.027,-248.444C631.849,-238.865 537.641,-223.356 475.753,-213.167"/>
<polygon fill="midnightblue" stroke="midnightblue" points="476.165,-209.687 465.729,-211.516 475.028,-216.594 476.165,-209.687"/>
</g>
<!-- Node20&#45;&gt;Node8 -->
<g id="edge28" class="edge"><title>Node20&#45;&gt;Node8</title>
<path fill="none" stroke="midnightblue" d="M881.26,-139.844C800.626,-132.821 656.428,-118.924 534,-100 521.922,-98.1331 508.834,-95.6697 497.024,-93.28"/>
<polygon fill="midnightblue" stroke="midnightblue" points="497.533,-89.8113 487.031,-91.2158 496.117,-96.6666 497.533,-89.8113"/>
</g>
<!-- Node20&#45;&gt;Node12 -->
<g id="edge35" class="edge"><title>Node20&#45;&gt;Node12</title>
<path fill="none" stroke="midnightblue" d="M1006.58,-137.307C1011.45,-136.823 1016.3,-136.379 1021,-136 1198.82,-121.635 1648.71,-138.063 1823,-100 1826.25,-99.2902 1829.58,-98.3192 1832.85,-97.2099"/>
<polygon fill="midnightblue" stroke="midnightblue" points="1834.23,-100.429 1842.33,-93.5902 1831.73,-93.8901 1834.23,-100.429"/>
</g>
<!-- Node21 -->
<g id="node21" class="node"><title>Node21</title>
<polygon fill="none" stroke="#bfbfbf" points="1049.5,-74.5 1049.5,-93.5 1198.5,-93.5 1198.5,-74.5 1049.5,-74.5"/>
<text text-anchor="middle" x="1124" y="-81.5" font-family="Helvetica,sans-Serif" font-size="10.00">Math/GenVector/Rotation3D.h</text>
</g>
<!-- Node20&#45;&gt;Node21 -->
<g id="edge25" class="edge"><title>Node20&#45;&gt;Node21</title>
<path fill="none" stroke="midnightblue" d="M969.79,-136.403C1000.93,-126.022 1053.48,-108.506 1088.45,-96.849"/>
<polygon fill="midnightblue" stroke="midnightblue" points="1089.88,-100.063 1098.26,-93.5806 1087.66,-93.4225 1089.88,-100.063"/>
</g>
<!-- Node22 -->
<g id="node22" class="node"><title>Node22</title>
<polygon fill="none" stroke="#bfbfbf" points="1217,-74.5 1217,-93.5 1373,-93.5 1373,-74.5 1217,-74.5"/>
<text text-anchor="middle" x="1295" y="-81.5" font-family="Helvetica,sans-Serif" font-size="10.00">Math/GenVector/Transform3D.h</text>
</g>
<!-- Node20&#45;&gt;Node22 -->
<g id="edge26" class="edge"><title>Node20&#45;&gt;Node22</title>
<path fill="none" stroke="midnightblue" d="M993.917,-136.467C1057.47,-125.604 1167.15,-106.855 1235.13,-95.2346"/>
<polygon fill="midnightblue" stroke="midnightblue" points="1235.99,-98.6384 1245.26,-93.5034 1234.81,-91.7385 1235.99,-98.6384"/>
</g>
<!-- Node23 -->
<g id="node23" class="node"><title>Node23</title>
<polygon fill="none" stroke="#bfbfbf" points="1391,-74.5 1391,-93.5 1551,-93.5 1551,-74.5 1391,-74.5"/>
<text text-anchor="middle" x="1471" y="-81.5" font-family="Helvetica,sans-Serif" font-size="10.00">Math/GenVector/Translation3D.h</text>
</g>
<!-- Node20&#45;&gt;Node23 -->
<g id="edge27" class="edge"><title>Node20&#45;&gt;Node23</title>
<path fill="none" stroke="midnightblue" d="M1006.6,-137.593C1011.47,-137.044 1016.32,-136.507 1021,-136 1181.3,-118.64 1222.19,-121.411 1382,-100 1392.36,-98.6124 1403.36,-96.9299 1413.96,-95.2002"/>
<polygon fill="midnightblue" stroke="midnightblue" points="1414.69,-98.6281 1423.98,-93.5355 1413.54,-91.7229 1414.69,-98.6281"/>
</g>
<!-- Node24 -->
<g id="node24" class="node"><title>Node24</title>
<polygon fill="none" stroke="#bfbfbf" points="1569,-74.5 1569,-93.5 1645,-93.5 1645,-74.5 1569,-74.5"/>
<text text-anchor="middle" x="1607" y="-81.5" font-family="Helvetica,sans-Serif" font-size="10.00">TGeoMatrix.h</text>
</g>
<!-- Node20&#45;&gt;Node24 -->
<g id="edge29" class="edge"><title>Node20&#45;&gt;Node24</title>
<path fill="none" stroke="midnightblue" d="M1006.59,-137.421C1011.46,-136.912 1016.31,-136.431 1021,-136 1260.08,-114.057 1324.13,-144.827 1560,-100 1564.57,-99.1309 1569.32,-97.9549 1573.97,-96.6414"/>
<polygon fill="midnightblue" stroke="midnightblue" points="1575.32,-99.8868 1583.86,-93.6121 1573.27,-93.1936 1575.32,-99.8868"/>
</g>
<!-- Node25 -->
<g id="node25" class="node"><title>Node25</title>
<polygon fill="none" stroke="#bfbfbf" points="1663.5,-69 1663.5,-99 1814.5,-99 1814.5,-69 1663.5,-69"/>
<text text-anchor="start" x="1671.5" y="-87" font-family="Helvetica,sans-Serif" font-size="10.00">Math/GenVector/Displacement</text>
<text text-anchor="middle" x="1739" y="-76" font-family="Helvetica,sans-Serif" font-size="10.00">Vector3D.h</text>
</g>
<!-- Node20&#45;&gt;Node25 -->
<g id="edge30" class="edge"><title>Node20&#45;&gt;Node25</title>
<path fill="none" stroke="midnightblue" d="M1006.58,-137.369C1011.46,-136.872 1016.31,-136.407 1021,-136 1298.44,-111.918 1372.37,-132.058 1652.99,-100.019"/>
<polygon fill="midnightblue" stroke="midnightblue" points="1653.53,-103.48 1663.07,-98.8572 1652.73,-96.5265 1653.53,-103.48"/>
</g>
<!-- Node26 -->
<g id="node26" class="node"><title>Node26</title>
<polygon fill="none" stroke="#bfbfbf" points="856,-74.5 856,-93.5 1032,-93.5 1032,-74.5 856,-74.5"/>
<text text-anchor="middle" x="944" y="-81.5" font-family="Helvetica,sans-Serif" font-size="10.00">Math/GenVector/PositionVector3D.h</text>
</g>
<!-- Node20&#45;&gt;Node26 -->
<g id="edge31" class="edge"><title>Node20&#45;&gt;Node26</title>
<path fill="none" stroke="midnightblue" d="M944,-136.403C944,-127.938 944,-114.728 944,-103.82"/>
<polygon fill="midnightblue" stroke="midnightblue" points="947.5,-103.581 944,-93.5806 940.5,-103.581 947.5,-103.581"/>
</g>
<!-- Node27 -->
<g id="node27" class="node"><title>Node27</title>
<g id="a_node27"><a xlink:href="../../d2/dd0/Cartesian2D_8h.html" target="_top" xlink:title="MathUtils/Cartesian2D.h">
<polygon fill="none" stroke="black" points="674.5,-74.5 674.5,-93.5 799.5,-93.5 799.5,-74.5 674.5,-74.5"/>
<text text-anchor="middle" x="737" y="-81.5" font-family="Helvetica,sans-Serif" font-size="10.00">MathUtils/Cartesian2D.h</text>
</a>
</g>
</g>
<!-- Node20&#45;&gt;Node27 -->
<g id="edge32" class="edge"><title>Node20&#45;&gt;Node27</title>
<path fill="none" stroke="midnightblue" d="M914.342,-136.403C878.066,-125.889 816.536,-108.054 776.336,-96.4016"/>
<polygon fill="midnightblue" stroke="midnightblue" points="777.182,-93.003 766.603,-93.5806 775.233,-99.7263 777.182,-93.003"/>
</g>
<!-- Node28 -->
<g id="node28" class="node"><title>Node28</title>
<polygon fill="none" stroke="#bfbfbf" points="479.5,-1 479.5,-31 630.5,-31 630.5,-1 479.5,-1"/>
<text text-anchor="start" x="487.5" y="-19" font-family="Helvetica,sans-Serif" font-size="10.00">Math/GenVector/Displacement</text>
<text text-anchor="middle" x="555" y="-8" font-family="Helvetica,sans-Serif" font-size="10.00">Vector2D.h</text>
</g>
<!-- Node27&#45;&gt;Node28 -->
<g id="edge33" class="edge"><title>Node27&#45;&gt;Node28</title>
<path fill="none" stroke="midnightblue" d="M713.207,-74.3717C685.463,-64.3109 638.891,-47.4219 603.44,-34.5662"/>
<polygon fill="midnightblue" stroke="midnightblue" points="604.355,-31.1751 593.761,-31.0562 601.969,-37.7558 604.355,-31.1751"/>
</g>
<!-- Node29 -->
<g id="node29" class="node"><title>Node29</title>
<polygon fill="none" stroke="#bfbfbf" points="649,-6.5 649,-25.5 825,-25.5 825,-6.5 649,-6.5"/>
<text text-anchor="middle" x="737" y="-13.5" font-family="Helvetica,sans-Serif" font-size="10.00">Math/GenVector/PositionVector2D.h</text>
</g>
<!-- Node27&#45;&gt;Node29 -->
<g id="edge34" class="edge"><title>Node27&#45;&gt;Node29</title>
<path fill="none" stroke="midnightblue" d="M737,-74.3717C737,-64.6426 737,-48.528 737,-35.8504"/>
<polygon fill="midnightblue" stroke="midnightblue" points="740.5,-35.8411 737,-25.8411 733.5,-35.8412 740.5,-35.8411"/>
</g>
<!-- Node30&#45;&gt;Node3 -->
<g id="edge37" class="edge"><title>Node30&#45;&gt;Node3</title>
<path fill="none" stroke="midnightblue" d="M369.475,-192.444C312.55,-181.504 215.364,-162.828 165.147,-153.178"/>
<polygon fill="midnightblue" stroke="midnightblue" points="165.657,-149.712 155.176,-151.262 164.336,-156.586 165.657,-149.712"/>
</g>
<!-- Node30&#45;&gt;Node4 -->
<g id="edge38" class="edge"><title>Node30&#45;&gt;Node4</title>
<path fill="none" stroke="midnightblue" d="M348.361,-192.446C304.884,-185.278 253.467,-173.393 240,-156 212.751,-120.808 224.766,-64.1751 233.612,-35.2629"/>
<polygon fill="midnightblue" stroke="midnightblue" points="236.977,-36.2344 236.759,-25.6418 230.324,-34.0582 236.977,-36.2344"/>
</g>
<!-- Node30&#45;&gt;Node8 -->
<g id="edge50" class="edge"><title>Node30&#45;&gt;Node8</title>
<path fill="none" stroke="midnightblue" d="M429.783,-192.467C442.203,-184.769 458.605,-172.179 466,-156 473.624,-139.32 470.087,-118.185 465.75,-103.327"/>
<polygon fill="midnightblue" stroke="midnightblue" points="469.054,-102.171 462.598,-93.7707 462.406,-104.364 469.054,-102.171"/>
</g>
<!-- Node30&#45;&gt;Node20 -->
<g id="edge39" class="edge"><title>Node30&#45;&gt;Node20</title>
<path fill="none" stroke="midnightblue" d="M496.231,-192.622C599.01,-182.15 773.306,-164.391 871.376,-154.399"/>
<polygon fill="midnightblue" stroke="midnightblue" points="871.901,-157.864 881.495,-153.368 871.191,-150.9 871.901,-157.864"/>
</g>
<!-- Node31 -->
<g id="node31" class="node"><title>Node31</title>
<g id="a_node31"><a xlink:href="../../d6/d31/DetID_8h.html" target="_top" xlink:title="DetectorsBase/DetID.h">
<polygon fill="none" stroke="black" points="249.5,-136.5 249.5,-155.5 368.5,-155.5 368.5,-136.5 249.5,-136.5"/>
<text text-anchor="middle" x="309" y="-143.5" font-family="Helvetica,sans-Serif" font-size="10.00">DetectorsBase/DetID.h</text>
</a>
</g>
</g>
<!-- Node30&#45;&gt;Node31 -->
<g id="edge40" class="edge"><title>Node30&#45;&gt;Node31</title>
<path fill="none" stroke="midnightblue" d="M397.13,-192.324C380.291,-183.664 354.193,-170.242 334.762,-160.249"/>
<polygon fill="midnightblue" stroke="midnightblue" points="336.322,-157.116 325.828,-155.655 333.12,-163.341 336.322,-157.116"/>
</g>
<!-- Node37 -->
<g id="node37" class="node"><title>Node37</title>
<polygon fill="none" stroke="#bfbfbf" points="386.5,-136.5 386.5,-155.5 457.5,-155.5 457.5,-136.5 386.5,-136.5"/>
<text text-anchor="middle" x="422" y="-143.5" font-family="Helvetica,sans-Serif" font-size="10.00">FairLogger.h</text>
</g>
<!-- Node30&#45;&gt;Node37 -->
<g id="edge51" class="edge"><title>Node30&#45;&gt;Node37</title>
<path fill="none" stroke="midnightblue" d="M415.321,-192.083C416.381,-184.927 417.906,-174.635 419.231,-165.691"/>
<polygon fill="midnightblue" stroke="midnightblue" points="422.7,-166.156 420.704,-155.751 415.776,-165.13 422.7,-166.156"/>
</g>
<!-- Node31&#45;&gt;Node4 -->
<g id="edge42" class="edge"><title>Node31&#45;&gt;Node4</title>
<path fill="none" stroke="midnightblue" d="M302.353,-136.331C295.729,-127.479 285.493,-113.201 278,-100 265.82,-78.5425 254.4,-52.4862 247.321,-35.3608"/>
<polygon fill="midnightblue" stroke="midnightblue" points="250.513,-33.9195 243.506,-25.9729 244.028,-36.5549 250.513,-33.9195"/>
</g>
<!-- Node31&#45;&gt;Node8 -->
<g id="edge44" class="edge"><title>Node31&#45;&gt;Node8</title>
<path fill="none" stroke="midnightblue" d="M330.679,-136.413C353.438,-127.387 390.258,-112.754 422,-100 424.09,-99.1601 426.246,-98.2917 428.417,-97.4156"/>
<polygon fill="midnightblue" stroke="midnightblue" points="429.919,-100.584 437.877,-93.5894 427.295,-94.0943 429.919,-100.584"/>
</g>
<!-- Node32 -->
<g id="node32" class="node"><title>Node32</title>
<polygon fill="none" stroke="#bfbfbf" points="367,-74.5 367,-93.5 413,-93.5 413,-74.5 367,-74.5"/>
<text text-anchor="middle" x="390" y="-81.5" font-family="Helvetica,sans-Serif" font-size="10.00">cstdint</text>
</g>
<!-- Node31&#45;&gt;Node32 -->
<g id="edge41" class="edge"><title>Node31&#45;&gt;Node32</title>
<path fill="none" stroke="midnightblue" d="M320.605,-136.403C333.477,-126.869 354.474,-111.315 370.006,-99.8106"/>
<polygon fill="midnightblue" stroke="midnightblue" points="372.464,-102.345 378.416,-93.5806 368.297,-96.7204 372.464,-102.345"/>
</g>
<!-- Node33 -->
<g id="node33" class="node"><title>Node33</title>
<polygon fill="none" stroke="#bfbfbf" points="287,-74.5 287,-93.5 349,-93.5 349,-74.5 287,-74.5"/>
<text text-anchor="middle" x="318" y="-81.5" font-family="Helvetica,sans-Serif" font-size="10.00">type_traits</text>
</g>
<!-- Node31&#45;&gt;Node33 -->
<g id="edge43" class="edge"><title>Node31&#45;&gt;Node33</title>
<path fill="none" stroke="midnightblue" d="M310.289,-136.403C311.573,-127.849 313.583,-114.45 315.229,-103.476"/>
<polygon fill="midnightblue" stroke="midnightblue" points="318.691,-103.989 316.713,-93.5806 311.768,-102.951 318.691,-103.989"/>
</g>
<!-- Node31&#45;&gt;Node34 -->
<g id="edge45" class="edge"><title>Node31&#45;&gt;Node34</title>
<path fill="none" stroke="midnightblue" d="M350.384,-136.467C402.529,-125.716 492.141,-107.239 548.616,-95.5947"/>
<polygon fill="midnightblue" stroke="midnightblue" points="549.671,-98.9507 558.759,-93.5034 548.258,-92.0949 549.671,-98.9507"/>
</g>
<!-- Node31&#45;&gt;Node36 -->
<g id="edge49" class="edge"><title>Node31&#45;&gt;Node36</title>
<path fill="none" stroke="midnightblue" d="M275.903,-136.403C232.386,-125.1 156.304,-105.339 112.23,-93.8908"/>
<polygon fill="midnightblue" stroke="midnightblue" points="113.102,-90.5013 102.543,-91.3749 111.342,-97.2765 113.102,-90.5013"/>
</g>
<!-- Node34&#45;&gt;Node4 -->
<g id="edge48" class="edge"><title>Node34&#45;&gt;Node4</title>
<path fill="none" stroke="midnightblue" d="M560.615,-74.4337C550.338,-72.2659 539.266,-69.9896 529,-68 434.242,-49.6346 321.462,-30.5212 269.227,-21.8246"/>
<polygon fill="midnightblue" stroke="midnightblue" points="269.758,-18.3648 259.319,-20.1791 268.611,-25.2702 269.758,-18.3648"/>
</g>
<!-- Node34&#45;&gt;Node6 -->
<g id="edge47" class="edge"><title>Node34&#45;&gt;Node6</title>
<path fill="none" stroke="midnightblue" d="M631.52,-74.4763C642.085,-71.9549 653.98,-69.4764 665,-68 918.646,-34.0164 1747.12,-20.0483 1920.86,-17.4565"/>
<polygon fill="midnightblue" stroke="midnightblue" points="1920.95,-20.9556 1930.9,-17.3086 1920.85,-13.9564 1920.95,-20.9556"/>
</g>
<!-- Node34&#45;&gt;Node35 -->
<g id="edge46" class="edge"><title>Node34&#45;&gt;Node35</title>
<path fill="none" stroke="midnightblue" d="M636.407,-74.4418C645.719,-72.2958 655.722,-70.028 665,-68 731.832,-53.3909 809.088,-37.618 859.152,-27.5431"/>
<polygon fill="midnightblue" stroke="midnightblue" points="859.985,-30.9458 869.099,-25.5442 858.606,-24.0829 859.985,-30.9458"/>
</g>
<!-- Node38&#45;&gt;Node3 -->
<g id="edge58" class="edge"><title>Node38&#45;&gt;Node3</title>
<path fill="none" stroke="midnightblue" d="M222.417,-416.73C224.462,-394.859 228,-351.719 228,-315 228,-315 228,-315 228,-257 228,-213.739 185.392,-179.086 157.245,-160.915"/>
<polygon fill="midnightblue" stroke="midnightblue" points="159.03,-157.903 148.687,-155.604 155.339,-163.851 159.03,-157.903"/>
</g>
<!-- Node38&#45;&gt;Node5 -->
<g id="edge60" class="edge"><title>Node38&#45;&gt;Node5</title>
<path fill="none" stroke="midnightblue" d="M245.618,-416.933C262.7,-407.171 285.33,-394.24 302.225,-384.586"/>
<polygon fill="midnightblue" stroke="midnightblue" points="304.004,-387.6 310.95,-379.6 300.531,-381.523 304.004,-387.6"/>
</g>
<!-- Node38&#45;&gt;Node9 -->
<g id="edge57" class="edge"><title>Node38&#45;&gt;Node9</title>
<path fill="none" stroke="midnightblue" d="M216.99,-416.925C208.163,-385.939 187.054,-311.844 177.215,-277.304"/>
<polygon fill="midnightblue" stroke="midnightblue" points="180.552,-276.243 174.446,-267.585 173.819,-278.161 180.552,-276.243"/>
</g>
<!-- Node38&#45;&gt;Node36 -->
<g id="edge59" class="edge"><title>Node38&#45;&gt;Node36</title>
<path fill="none" stroke="midnightblue" d="M212.243,-416.605C195.54,-388.713 158.69,-325.027 135,-268 110.685,-209.468 90.9987,-136.732 82.5131,-103.329"/>
<polygon fill="midnightblue" stroke="midnightblue" points="85.8979,-102.437 80.0743,-93.5861 79.1074,-104.137 85.8979,-102.437"/>
</g>
</g>
</svg>
        <g id="navigator" transform="translate(0 0)" fill="#404254">
                <rect fill="#f2f5e9" fill-opacity="0.5" stroke="#606060" stroke-width=".5" x="0" y="0" width="60" height="60"/>
                <use id="zoomplus" xlink:href="#zoomPlus" x="17" y="9" onmousedown="handleZoom(evt,'in')"/>
                <use id="zoomminus" xlink:href="#zoomMin" x="42" y="9" onmousedown="handleZoom(evt,'out')"/>
                <use id="reset" xlink:href="#resetDef" x="30" y="36" onmousedown="handleReset()"/>
                <g id="arrowUp" xlink:href="#dirArrow" transform="translate(30 24)" onmousedown="handlePan(0,-1)">
                  <use xlink:href="#rim" fill="#404040">
                        <set attributeName="fill" to="#808080" begin="arrowUp.mouseover" end="arrowUp.mouseout"/>
                  </use>
                  <path fill="none" stroke="white" stroke-width="1.5" d="M0,-3.0v7 M-2.5,-0.5L0,-3.0L2.5,-0.5"/>
                </g>
                <g id="arrowRight" xlink:href="#dirArrow" transform="rotate(90) translate(36 -43)" onmousedown="handlePan(1,0)">
                  <use xlink:href="#rim" fill="#404040">
                        <set attributeName="fill" to="#808080" begin="arrowRight.mouseover" end="arrowRight.mouseout"/>
                  </use>
                  <path fill="none" stroke="white" stroke-width="1.5" d="M0,-3.0v7 M-2.5,-0.5L0,-3.0L2.5,-0.5"/>
                </g>
                <g id="arrowDown" xlink:href="#dirArrow" transform="rotate(180) translate(-30 -48)" onmousedown="handlePan(0,1)">
                  <use xlink:href="#rim" fill="#404040">
                        <set attributeName="fill" to="#808080" begin="arrowDown.mouseover" end="arrowDown.mouseout"/>
                  </use>
                  <path fill="none" stroke="white" stroke-width="1.5" d="M0,-3.0v7 M-2.5,-0.5L0,-3.0L2.5,-0.5"/>
                </g>
                <g id="arrowLeft" xlink:href="#dirArrow" transform="rotate(270) translate(-36 17)" onmousedown="handlePan(-1,0)">
                  <use xlink:href="#rim" fill="#404040">
                        <set attributeName="fill" to="#808080" begin="arrowLeft.mouseover" end="arrowLeft.mouseout"/>
                  </use>
                  <path fill="none" stroke="white" stroke-width="1.5" d="M0,-3.0v7 M-2.5,-0.5L0,-3.0L2.5,-0.5"/>
                </g>
        </g>
        <svg viewBox="0 0 15 15" width="100%" height="30px" preserveAspectRatio="xMaxYMin meet">
         <g id="arrow_out" transform="scale(0.3 0.3)">
          <a xlink:href="CATracker_8cxx__incl_org.svg" target="_base">
           <rect id="button" ry="5" rx="5" y="6" x="6" height="38" width="38"
                fill="#f2f5e9" fill-opacity="0.5" stroke="#606060" stroke-width="1.0"/>
           <path id="arrow"
             d="M 11.500037,31.436501 C 11.940474,20.09759 22.043105,11.32322 32.158766,21.979434 L 37.068811,17.246167 C 37.068811,17.246167 37.088388,32 37.088388,32 L 22.160133,31.978069 C 22.160133,31.978069 26.997745,27.140456 26.997745,27.140456 C 18.528582,18.264221 13.291696,25.230495 11.500037,31.436501 z"
             style="fill:#404040;"/>
          </a>
         </g>
        </svg>
</svg>
