<?xml version="1.0" encoding="UTF-8" standalone="no"?>
<!DOCTYPE svg PUBLIC "-//W3C//DTD SVG 1.1//EN"
 "http://www.w3.org/Graphics/SVG/1.1/DTD/svg11.dtd">
<!-- Generated by graphviz version 2.36.0 (20140111.2315)
 -->
<!-- Title: /home/travis/build/AliceO2Group/AliceO2/Detectors/ITSMFT/MFT/reconstruction/src/ClustererTask.cxx Pages: 1 -->
<svg width="2419pt" height="582pt"
 viewBox="0.00 0.00 2419.00 582.00" xmlns="http://www.w3.org/2000/svg" xmlns:xlink="http://www.w3.org/1999/xlink">
<g id="graph0" class="graph" transform="scale(1 1) rotate(0) translate(4 578)">
<title>/home/travis/build/AliceO2Group/AliceO2/Detectors/ITSMFT/MFT/reconstruction/src/ClustererTask.cxx</title>
<!-- Node1 -->
<g id="node1" class="node"><title>Node1</title>
<polygon fill="#bfbfbf" stroke="black" points="1854.5,-521 1854.5,-573 2035.5,-573 2035.5,-521 1854.5,-521"/>
<text text-anchor="start" x="1862.5" y="-561" font-family="Helvetica,sans-Serif" font-size="10.00">/home/travis/build</text>
<text text-anchor="start" x="1862.5" y="-550" font-family="Helvetica,sans-Serif" font-size="10.00">/AliceO2Group/AliceO2</text>
<text text-anchor="start" x="1862.5" y="-539" font-family="Helvetica,sans-Serif" font-size="10.00">/Detectors/ITSMFT/MFT</text>
<text text-anchor="middle" x="1945" y="-528" font-family="Helvetica,sans-Serif" font-size="10.00">/reconstruction/src/ClustererTask.cxx</text>
</g>
<!-- Node2 -->
<g id="node2" class="node"><title>Node2</title>
<g id="a_node2"><a xlink:href="../../d9/d03/ITSMFT_2MFT_2base_2include_2MFTBase_2Constants_8h.html" target="_top" xlink:title="MFTBase/Constants.h">
<polygon fill="none" stroke="black" points="844,-322.5 844,-341.5 960,-341.5 960,-322.5 844,-322.5"/>
<text text-anchor="middle" x="902" y="-329.5" font-family="Helvetica,sans-Serif" font-size="10.00">MFTBase/Constants.h</text>
</a>
</g>
</g>
<!-- Node1&#45;&gt;Node2 -->
<g id="edge1" class="edge"><title>Node1&#45;&gt;Node2</title>
<path fill="none" stroke="midnightblue" d="M1854.08,-541.572C1739.53,-534.778 1537.08,-518.728 1367,-484 1265.48,-463.271 1242.58,-447.924 1144,-416 1069.2,-391.777 982.141,-361.369 935.537,-344.911"/>
<polygon fill="midnightblue" stroke="midnightblue" points="936.547,-341.556 925.952,-341.521 934.213,-348.155 936.547,-341.556"/>
</g>
<!-- Node4 -->
<g id="node4" class="node"><title>Node4</title>
<g id="a_node4"><a xlink:href="../../d6/d2e/ITSMFT_2MFT_2base_2include_2MFTBase_2Geometry_8h.html" target="_top" xlink:title="MFTBase/Geometry.h">
<polygon fill="none" stroke="black" points="1963.5,-458.5 1963.5,-477.5 2076.5,-477.5 2076.5,-458.5 1963.5,-458.5"/>
<text text-anchor="middle" x="2020" y="-465.5" font-family="Helvetica,sans-Serif" font-size="10.00">MFTBase/Geometry.h</text>
</a>
</g>
</g>
<!-- Node1&#45;&gt;Node4 -->
<g id="edge3" class="edge"><title>Node1&#45;&gt;Node4</title>
<path fill="none" stroke="midnightblue" d="M1969.56,-520.787C1981.13,-508.904 1994.58,-495.096 2004.68,-484.727"/>
<polygon fill="midnightblue" stroke="midnightblue" points="2007.19,-487.163 2011.66,-477.558 2002.18,-482.279 2007.19,-487.163"/>
</g>
<!-- Node6 -->
<g id="node6" class="node"><title>Node6</title>
<g id="a_node6"><a xlink:href="../../d5/d61/EventHeader_8h.html" target="_top" xlink:title="MFTSimulation/EventHeader.h">
<polygon fill="none" stroke="black" points="1794.5,-458.5 1794.5,-477.5 1945.5,-477.5 1945.5,-458.5 1794.5,-458.5"/>
<text text-anchor="middle" x="1870" y="-465.5" font-family="Helvetica,sans-Serif" font-size="10.00">MFTSimulation/EventHeader.h</text>
</a>
</g>
</g>
<!-- Node1&#45;&gt;Node6 -->
<g id="edge5" class="edge"><title>Node1&#45;&gt;Node6</title>
<path fill="none" stroke="midnightblue" d="M1920.44,-520.787C1908.87,-508.904 1895.42,-495.096 1885.32,-484.727"/>
<polygon fill="midnightblue" stroke="midnightblue" points="1887.82,-482.279 1878.34,-477.558 1882.81,-487.163 1887.82,-482.279"/>
</g>
<!-- Node10 -->
<g id="node10" class="node"><title>Node10</title>
<g id="a_node10"><a xlink:href="../../db/d12/ITSMFT_2MFT_2reconstruction_2include_2MFTReconstruction_2ClustererTask_8h.html" target="_top" xlink:title="MFTReconstruction/Clusterer\lTask.h">
<polygon fill="none" stroke="black" points="1376,-453 1376,-483 1522,-483 1522,-453 1376,-453"/>
<text text-anchor="start" x="1384" y="-471" font-family="Helvetica,sans-Serif" font-size="10.00">MFTReconstruction/Clusterer</text>
<text text-anchor="middle" x="1449" y="-460" font-family="Helvetica,sans-Serif" font-size="10.00">Task.h</text>
</a>
</g>
</g>
<!-- Node1&#45;&gt;Node10 -->
<g id="edge9" class="edge"><title>Node1&#45;&gt;Node10</title>
<path fill="none" stroke="midnightblue" d="M1854.31,-531.922C1762.39,-517.652 1621.36,-495.758 1532.22,-481.919"/>
<polygon fill="midnightblue" stroke="midnightblue" points="1532.56,-478.431 1522.15,-480.355 1531.49,-485.348 1532.56,-478.431"/>
</g>
<!-- Node16 -->
<g id="node16" class="node"><title>Node16</title>
<g id="a_node16"><a xlink:href="../../d7/dcd/MCCompLabel_8h.html" target="_top" xlink:title="SimulationDataFormat\l/MCCompLabel.h">
<polygon fill="none" stroke="black" points="1692,-193 1692,-223 1806,-223 1806,-193 1692,-193"/>
<text text-anchor="start" x="1700" y="-211" font-family="Helvetica,sans-Serif" font-size="10.00">SimulationDataFormat</text>
<text text-anchor="middle" x="1749" y="-200" font-family="Helvetica,sans-Serif" font-size="10.00">/MCCompLabel.h</text>
</a>
</g>
</g>
<!-- Node1&#45;&gt;Node16 -->
<g id="edge65" class="edge"><title>Node1&#45;&gt;Node16</title>
<path fill="none" stroke="midnightblue" d="M1854.3,-526.205C1791.08,-506.449 1718,-468.924 1718,-401 1718,-401 1718,-401 1718,-331 1718,-296.007 1730.13,-257.059 1739.21,-232.794"/>
<polygon fill="midnightblue" stroke="midnightblue" points="1742.52,-233.936 1742.88,-223.347 1736,-231.406 1742.52,-233.936"/>
</g>
<!-- Node45 -->
<g id="node45" class="node"><title>Node45</title>
<polygon fill="none" stroke="#bfbfbf" points="1554.5,-136.5 1554.5,-155.5 1625.5,-155.5 1625.5,-136.5 1554.5,-136.5"/>
<text text-anchor="middle" x="1590" y="-143.5" font-family="Helvetica,sans-Serif" font-size="10.00">FairLogger.h</text>
</g>
<!-- Node1&#45;&gt;Node45 -->
<g id="edge71" class="edge"><title>Node1&#45;&gt;Node45</title>
<path fill="none" stroke="midnightblue" d="M2035.58,-544.532C2135.7,-537.537 2283,-508.91 2283,-401 2283,-401 2283,-401 2283,-331 2283,-196.69 1790.59,-158.07 1635.92,-149.252"/>
<polygon fill="midnightblue" stroke="midnightblue" points="1635.98,-145.75 1625.8,-148.69 1635.59,-152.739 1635.98,-145.75"/>
</g>
<!-- Node50 -->
<g id="node50" class="node"><title>Node50</title>
<g id="a_node50"><a xlink:href="../../db/d14/MCTruthContainer_8h.html" target="_top" xlink:title="Definition of a container to keep Monte Carlo truth external to simulation objects. ">
<polygon fill="none" stroke="black" points="2095,-453 2095,-483 2209,-483 2209,-453 2095,-453"/>
<text text-anchor="start" x="2103" y="-471" font-family="Helvetica,sans-Serif" font-size="10.00">SimulationDataFormat</text>
<text text-anchor="middle" x="2152" y="-460" font-family="Helvetica,sans-Serif" font-size="10.00">/MCTruthContainer.h</text>
</a>
</g>
</g>
<!-- Node1&#45;&gt;Node50 -->
<g id="edge66" class="edge"><title>Node1&#45;&gt;Node50</title>
<path fill="none" stroke="midnightblue" d="M2012.49,-520.894C2042.55,-509.715 2077.22,-496.815 2104.49,-486.673"/>
<polygon fill="midnightblue" stroke="midnightblue" points="2106.02,-489.837 2114.18,-483.07 2103.58,-483.276 2106.02,-489.837"/>
</g>
<!-- Node53 -->
<g id="node53" class="node"><title>Node53</title>
<polygon fill="none" stroke="#bfbfbf" points="2311,-458.5 2311,-477.5 2411,-477.5 2411,-458.5 2311,-458.5"/>
<text text-anchor="middle" x="2361" y="-465.5" font-family="Helvetica,sans-Serif" font-size="10.00">FairRootManager.h</text>
</g>
<!-- Node1&#45;&gt;Node53 -->
<g id="edge72" class="edge"><title>Node1&#45;&gt;Node53</title>
<path fill="none" stroke="midnightblue" d="M2035.7,-531.456C2106.94,-519.687 2208.56,-502.139 2297,-484 2303.24,-482.721 2309.79,-481.287 2316.24,-479.827"/>
<polygon fill="midnightblue" stroke="midnightblue" points="2317.24,-483.186 2326.2,-477.528 2315.67,-476.365 2317.24,-483.186"/>
</g>
<!-- Node3 -->
<g id="node3" class="node"><title>Node3</title>
<polygon fill="none" stroke="#bfbfbf" points="673.5,-198.5 673.5,-217.5 732.5,-217.5 732.5,-198.5 673.5,-198.5"/>
<text text-anchor="middle" x="703" y="-205.5" font-family="Helvetica,sans-Serif" font-size="10.00">TObject.h</text>
</g>
<!-- Node2&#45;&gt;Node3 -->
<g id="edge2" class="edge"><title>Node2&#45;&gt;Node3</title>
<path fill="none" stroke="midnightblue" d="M888.007,-322.421C854.038,-301.596 766.972,-248.219 725.55,-222.825"/>
<polygon fill="midnightblue" stroke="midnightblue" points="727.333,-219.812 716.978,-217.569 723.674,-225.78 727.333,-219.812"/>
</g>
<!-- Node5 -->
<g id="node5" class="node"><title>Node5</title>
<polygon fill="none" stroke="#bfbfbf" points="2014,-390.5 2014,-409.5 2076,-409.5 2076,-390.5 2014,-390.5"/>
<text text-anchor="middle" x="2045" y="-397.5" font-family="Helvetica,sans-Serif" font-size="10.00">TNamed.h</text>
</g>
<!-- Node4&#45;&gt;Node5 -->
<g id="edge4" class="edge"><title>Node4&#45;&gt;Node5</title>
<path fill="none" stroke="midnightblue" d="M2023.27,-458.372C2026.99,-448.544 2033.18,-432.202 2038,-419.467"/>
<polygon fill="midnightblue" stroke="midnightblue" points="2041.38,-420.433 2041.65,-409.841 2034.84,-417.953 2041.38,-420.433"/>
</g>
<!-- Node7 -->
<g id="node7" class="node"><title>Node7</title>
<polygon fill="none" stroke="#bfbfbf" points="1898,-390.5 1898,-409.5 1996,-409.5 1996,-390.5 1898,-390.5"/>
<text text-anchor="middle" x="1947" y="-397.5" font-family="Helvetica,sans-Serif" font-size="10.00">FairEventHeader.h</text>
</g>
<!-- Node6&#45;&gt;Node7 -->
<g id="edge6" class="edge"><title>Node6&#45;&gt;Node7</title>
<path fill="none" stroke="midnightblue" d="M1880.07,-458.372C1892.45,-447.758 1913.7,-429.545 1928.93,-416.485"/>
<polygon fill="midnightblue" stroke="midnightblue" points="1931.37,-419.006 1936.69,-409.841 1926.81,-413.692 1931.37,-419.006"/>
</g>
<!-- Node8 -->
<g id="node8" class="node"><title>Node8</title>
<polygon fill="none" stroke="#bfbfbf" points="1746.5,-385 1746.5,-415 1841.5,-415 1841.5,-385 1746.5,-385"/>
<text text-anchor="start" x="1754.5" y="-403" font-family="Helvetica,sans-Serif" font-size="10.00">boost/serialization</text>
<text text-anchor="middle" x="1794" y="-392" font-family="Helvetica,sans-Serif" font-size="10.00">/access.hpp</text>
</g>
<!-- Node6&#45;&gt;Node8 -->
<g id="edge7" class="edge"><title>Node6&#45;&gt;Node8</title>
<path fill="none" stroke="midnightblue" d="M1860.06,-458.372C1849.5,-449.2 1832.41,-434.354 1818.25,-422.062"/>
<polygon fill="midnightblue" stroke="midnightblue" points="1820.18,-419.096 1810.33,-415.181 1815.59,-424.381 1820.18,-419.096"/>
</g>
<!-- Node9 -->
<g id="node9" class="node"><title>Node9</title>
<polygon fill="none" stroke="#bfbfbf" points="1824.5,-193 1824.5,-223 1919.5,-223 1919.5,-193 1824.5,-193"/>
<text text-anchor="start" x="1832.5" y="-211" font-family="Helvetica,sans-Serif" font-size="10.00">boost/serialization</text>
<text text-anchor="middle" x="1872" y="-200" font-family="Helvetica,sans-Serif" font-size="10.00">/base_object.hpp</text>
</g>
<!-- Node6&#45;&gt;Node9 -->
<g id="edge8" class="edge"><title>Node6&#45;&gt;Node9</title>
<path fill="none" stroke="midnightblue" d="M1870.07,-458.416C1870.34,-423.168 1871.38,-288.806 1871.81,-233.257"/>
<polygon fill="midnightblue" stroke="midnightblue" points="1875.31,-233.277 1871.89,-223.25 1868.31,-233.223 1875.31,-233.277"/>
</g>
<!-- Node11 -->
<g id="node11" class="node"><title>Node11</title>
<polygon fill="none" stroke="#bfbfbf" points="1153.5,-390.5 1153.5,-409.5 1216.5,-409.5 1216.5,-390.5 1153.5,-390.5"/>
<text text-anchor="middle" x="1185" y="-397.5" font-family="Helvetica,sans-Serif" font-size="10.00">FairTask.h</text>
</g>
<!-- Node10&#45;&gt;Node11 -->
<g id="edge10" class="edge"><title>Node10&#45;&gt;Node11</title>
<path fill="none" stroke="midnightblue" d="M1375.97,-452.973C1331.87,-443.86 1274.76,-430.92 1225,-416 1222.04,-415.113 1218.99,-414.117 1215.94,-413.072"/>
<polygon fill="midnightblue" stroke="midnightblue" points="1217,-409.733 1206.41,-409.635 1214.63,-416.318 1217,-409.733"/>
</g>
<!-- Node12 -->
<g id="node12" class="node"><title>Node12</title>
<polygon fill="none" stroke="#bfbfbf" points="1234.5,-390.5 1234.5,-409.5 1371.5,-409.5 1371.5,-390.5 1234.5,-390.5"/>
<text text-anchor="middle" x="1303" y="-397.5" font-family="Helvetica,sans-Serif" font-size="10.00">MFTBase/GeometryTGeo.h</text>
</g>
<!-- Node10&#45;&gt;Node12 -->
<g id="edge11" class="edge"><title>Node10&#45;&gt;Node12</title>
<path fill="none" stroke="midnightblue" d="M1417.68,-452.841C1392.09,-441.272 1356.21,-425.055 1331.44,-413.855"/>
<polygon fill="midnightblue" stroke="midnightblue" points="1332.76,-410.612 1322.21,-409.682 1329.88,-416.99 1332.76,-410.612"/>
</g>
<!-- Node13 -->
<g id="node13" class="node"><title>Node13</title>
<g id="a_node13"><a xlink:href="../../df/d2e/PixelReader_8h.html" target="_top" xlink:title="Definition of the ITS pixel reader. ">
<polygon fill="none" stroke="black" points="1506.5,-317 1506.5,-347 1625.5,-347 1625.5,-317 1506.5,-317"/>
<text text-anchor="start" x="1514.5" y="-335" font-family="Helvetica,sans-Serif" font-size="10.00">ITSMFTReconstruction</text>
<text text-anchor="middle" x="1566" y="-324" font-family="Helvetica,sans-Serif" font-size="10.00">/PixelReader.h</text>
</a>
</g>
</g>
<!-- Node10&#45;&gt;Node13 -->
<g id="edge12" class="edge"><title>Node10&#45;&gt;Node13</title>
<path fill="none" stroke="midnightblue" d="M1472.26,-452.909C1486.33,-443.617 1504.01,-430.511 1517,-416 1533.2,-397.909 1546.78,-373.655 1555.5,-356.041"/>
<polygon fill="midnightblue" stroke="midnightblue" points="1558.66,-357.548 1559.84,-347.019 1552.35,-354.518 1558.66,-357.548"/>
</g>
<!-- Node18 -->
<g id="node18" class="node"><title>Node18</title>
<g id="a_node18"><a xlink:href="../../d6/d04/ITSMFT_2common_2reconstruction_2include_2ITSMFTReconstruction_2Clusterer_8h.html" target="_top" xlink:title="ITSMFTReconstruction\l/Clusterer.h">
<polygon fill="none" stroke="black" points="1389.5,-385 1389.5,-415 1508.5,-415 1508.5,-385 1389.5,-385"/>
<text text-anchor="start" x="1397.5" y="-403" font-family="Helvetica,sans-Serif" font-size="10.00">ITSMFTReconstruction</text>
<text text-anchor="middle" x="1449" y="-392" font-family="Helvetica,sans-Serif" font-size="10.00">/Clusterer.h</text>
</a>
</g>
</g>
<!-- Node10&#45;&gt;Node18 -->
<g id="edge21" class="edge"><title>Node10&#45;&gt;Node18</title>
<path fill="none" stroke="midnightblue" d="M1449,-452.679C1449,-444.722 1449,-434.605 1449,-425.436"/>
<polygon fill="midnightblue" stroke="midnightblue" points="1452.5,-425.293 1449,-415.293 1445.5,-425.293 1452.5,-425.293"/>
</g>
<!-- Node14 -->
<g id="node14" class="node"><title>Node14</title>
<polygon fill="none" stroke="#bfbfbf" points="1544,-74.5 1544,-93.5 1600,-93.5 1600,-74.5 1544,-74.5"/>
<text text-anchor="middle" x="1572" y="-81.5" font-family="Helvetica,sans-Serif" font-size="10.00">Rtypes.h</text>
</g>
<!-- Node13&#45;&gt;Node14 -->
<g id="edge13" class="edge"><title>Node13&#45;&gt;Node14</title>
<path fill="none" stroke="midnightblue" d="M1554.9,-316.751C1548.02,-307 1539.79,-293.446 1536,-280 1518.59,-218.253 1525.05,-196.636 1546,-136 1550,-124.427 1556.17,-112.181 1561.5,-102.59"/>
<polygon fill="midnightblue" stroke="midnightblue" points="1564.66,-104.109 1566.62,-93.6964 1558.6,-100.617 1564.66,-104.109"/>
</g>
<!-- Node15 -->
<g id="node15" class="node"><title>Node15</title>
<g id="a_node15"><a xlink:href="../../d0/d06/ITSMFT_2common_2base_2include_2ITSMFTBase_2Digit_8h.html" target="_top" xlink:title="ITSMFTBase/Digit.h">
<polygon fill="none" stroke="black" points="1544.5,-260.5 1544.5,-279.5 1651.5,-279.5 1651.5,-260.5 1544.5,-260.5"/>
<text text-anchor="middle" x="1598" y="-267.5" font-family="Helvetica,sans-Serif" font-size="10.00">ITSMFTBase/Digit.h</text>
</a>
</g>
</g>
<!-- Node13&#45;&gt;Node15 -->
<g id="edge14" class="edge"><title>Node13&#45;&gt;Node15</title>
<path fill="none" stroke="midnightblue" d="M1573.58,-316.781C1578.09,-308.332 1583.84,-297.548 1588.63,-288.569"/>
<polygon fill="midnightblue" stroke="midnightblue" points="1591.73,-290.201 1593.34,-279.731 1585.55,-286.907 1591.73,-290.201"/>
</g>
<!-- Node13&#45;&gt;Node16 -->
<g id="edge20" class="edge"><title>Node13&#45;&gt;Node16</title>
<path fill="none" stroke="midnightblue" d="M1595.15,-316.869C1614.11,-307.271 1639.11,-293.846 1660,-280 1683.08,-264.705 1707.55,-244.891 1724.98,-230.082"/>
<polygon fill="midnightblue" stroke="midnightblue" points="1727.62,-232.425 1732.93,-223.256 1723.06,-227.113 1727.62,-232.425"/>
</g>
<!-- Node15&#45;&gt;Node9 -->
<g id="edge15" class="edge"><title>Node15&#45;&gt;Node9</title>
<path fill="none" stroke="midnightblue" d="M1642.62,-260.463C1684.45,-252.3 1748.95,-239.303 1814.38,-224.074"/>
<polygon fill="midnightblue" stroke="midnightblue" points="1815.52,-227.401 1824.46,-221.711 1813.93,-220.585 1815.52,-227.401"/>
</g>
<!-- Node15&#45;&gt;Node14 -->
<g id="edge19" class="edge"><title>Node15&#45;&gt;Node14</title>
<path fill="none" stroke="midnightblue" d="M1612.08,-260.259C1623.35,-252.355 1638.35,-239.584 1645,-224 1650.59,-210.92 1646.38,-206.155 1645,-192 1642.54,-166.755 1647,-157.779 1634,-136 1624.89,-120.734 1609.46,-108.019 1596.28,-99.103"/>
<polygon fill="midnightblue" stroke="midnightblue" points="1597.92,-95.9996 1587.61,-93.5526 1594.15,-101.894 1597.92,-95.9996"/>
</g>
<!-- Node15&#45;&gt;Node16 -->
<g id="edge16" class="edge"><title>Node15&#45;&gt;Node16</title>
<path fill="none" stroke="midnightblue" d="M1619.63,-260.403C1641.59,-251.679 1676.23,-237.914 1704.14,-226.824"/>
<polygon fill="midnightblue" stroke="midnightblue" points="1705.7,-229.971 1713.7,-223.025 1703.12,-223.465 1705.7,-229.971"/>
</g>
<!-- Node17 -->
<g id="node17" class="node"><title>Node17</title>
<polygon fill="none" stroke="#bfbfbf" points="1544,-198.5 1544,-217.5 1636,-217.5 1636,-198.5 1544,-198.5"/>
<text text-anchor="middle" x="1590" y="-205.5" font-family="Helvetica,sans-Serif" font-size="10.00">FairTimeStamp.h</text>
</g>
<!-- Node15&#45;&gt;Node17 -->
<g id="edge18" class="edge"><title>Node15&#45;&gt;Node17</title>
<path fill="none" stroke="midnightblue" d="M1596.85,-260.403C1595.73,-251.938 1593.96,-238.728 1592.51,-227.82"/>
<polygon fill="midnightblue" stroke="midnightblue" points="1595.94,-227.03 1591.14,-217.581 1589,-227.955 1595.94,-227.03"/>
</g>
<!-- Node16&#45;&gt;Node14 -->
<g id="edge17" class="edge"><title>Node16&#45;&gt;Node14</title>
<path fill="none" stroke="midnightblue" d="M1737.36,-192.772C1724.17,-177.325 1701.46,-152.64 1678,-136 1655.32,-119.915 1626.78,-106.514 1605.03,-97.4913"/>
<polygon fill="midnightblue" stroke="midnightblue" points="1606.15,-94.1659 1595.56,-93.6602 1603.52,-100.655 1606.15,-94.1659"/>
</g>
<!-- Node18&#45;&gt;Node13 -->
<g id="edge61" class="edge"><title>Node18&#45;&gt;Node13</title>
<path fill="none" stroke="midnightblue" d="M1474.1,-384.841C1491.06,-375.272 1513.66,-362.523 1532.21,-352.062"/>
<polygon fill="midnightblue" stroke="midnightblue" points="1533.95,-355.097 1540.94,-347.135 1530.51,-349 1533.95,-355.097"/>
</g>
<!-- Node18&#45;&gt;Node14 -->
<g id="edge64" class="edge"><title>Node18&#45;&gt;Node14</title>
<path fill="none" stroke="midnightblue" d="M1451.95,-384.994C1460.79,-344.701 1489.26,-225.645 1535,-136 1541.24,-123.766 1550.26,-111.264 1557.83,-101.7"/>
<polygon fill="midnightblue" stroke="midnightblue" points="1560.64,-103.793 1564.26,-93.8345 1555.22,-99.3652 1560.64,-103.793"/>
</g>
<!-- Node19 -->
<g id="node19" class="node"><title>Node19</title>
<g id="a_node19"><a xlink:href="../../dc/de1/ITSMFT_2common_2reconstruction_2include_2ITSMFTReconstruction_2Cluster_8h.html" target="_top" xlink:title="ITSMFTReconstruction\l/Cluster.h">
<polygon fill="none" stroke="black" points="1034.5,-317 1034.5,-347 1153.5,-347 1153.5,-317 1034.5,-317"/>
<text text-anchor="start" x="1042.5" y="-335" font-family="Helvetica,sans-Serif" font-size="10.00">ITSMFTReconstruction</text>
<text text-anchor="middle" x="1094" y="-324" font-family="Helvetica,sans-Serif" font-size="10.00">/Cluster.h</text>
</a>
</g>
</g>
<!-- Node18&#45;&gt;Node19 -->
<g id="edge22" class="edge"><title>Node18&#45;&gt;Node19</title>
<path fill="none" stroke="midnightblue" d="M1389.19,-385.854C1386.08,-385.216 1383.01,-384.595 1380,-384 1306.37,-369.437 1221.7,-354.571 1163.7,-344.676"/>
<polygon fill="midnightblue" stroke="midnightblue" points="1164,-341.176 1153.55,-342.949 1162.82,-348.077 1164,-341.176"/>
</g>
<!-- Node36 -->
<g id="node36" class="node"><title>Node36</title>
<polygon fill="none" stroke="#bfbfbf" points="1406,-136.5 1406,-155.5 1450,-155.5 1450,-136.5 1406,-136.5"/>
<text text-anchor="middle" x="1428" y="-143.5" font-family="Helvetica,sans-Serif" font-size="10.00">vector</text>
</g>
<!-- Node18&#45;&gt;Node36 -->
<g id="edge63" class="edge"><title>Node18&#45;&gt;Node36</title>
<path fill="none" stroke="midnightblue" d="M1447.81,-384.729C1444.24,-341.829 1433.59,-214.021 1429.56,-165.745"/>
<polygon fill="midnightblue" stroke="midnightblue" points="1433.03,-165.192 1428.71,-155.518 1426.05,-165.774 1433.03,-165.192"/>
</g>
<!-- Node46 -->
<g id="node46" class="node"><title>Node46</title>
<g id="a_node46"><a xlink:href="../../d0/d2d/common_2base_2include_2ITSMFTBase_2GeometryTGeo_8h.html" target="_top" xlink:title="ITSMFTBase/GeometryTGeo.h">
<polygon fill="none" stroke="black" points="1258.5,-322.5 1258.5,-341.5 1411.5,-341.5 1411.5,-322.5 1258.5,-322.5"/>
<text text-anchor="middle" x="1335" y="-329.5" font-family="Helvetica,sans-Serif" font-size="10.00">ITSMFTBase/GeometryTGeo.h</text>
</a>
</g>
</g>
<!-- Node18&#45;&gt;Node46 -->
<g id="edge57" class="edge"><title>Node18&#45;&gt;Node46</title>
<path fill="none" stroke="midnightblue" d="M1424.54,-384.841C1405.09,-373.579 1378.03,-357.913 1358.76,-346.757"/>
<polygon fill="midnightblue" stroke="midnightblue" points="1360.4,-343.663 1350,-341.682 1356.9,-349.721 1360.4,-343.663"/>
</g>
<!-- Node49 -->
<g id="node49" class="node"><title>Node49</title>
<polygon fill="none" stroke="#bfbfbf" points="1200,-322.5 1200,-341.5 1240,-341.5 1240,-322.5 1200,-322.5"/>
<text text-anchor="middle" x="1220" y="-329.5" font-family="Helvetica,sans-Serif" font-size="10.00">utility</text>
</g>
<!-- Node18&#45;&gt;Node49 -->
<g id="edge62" class="edge"><title>Node18&#45;&gt;Node49</title>
<path fill="none" stroke="midnightblue" d="M1389.4,-385.382C1340.19,-373.847 1274.45,-357.683 1249,-348 1247.4,-347.39 1245.77,-346.715 1244.14,-345.999"/>
<polygon fill="midnightblue" stroke="midnightblue" points="1245.58,-342.806 1235.05,-341.61 1242.54,-349.11 1245.58,-342.806"/>
</g>
<!-- Node20 -->
<g id="node20" class="node"><title>Node20</title>
<g id="a_node20"><a xlink:href="../../d4/de2/BaseCluster_8h.html" target="_top" xlink:title="DetectorsBase/BaseCluster.h">
<polygon fill="none" stroke="black" points="860.5,-260.5 860.5,-279.5 1007.5,-279.5 1007.5,-260.5 860.5,-260.5"/>
<text text-anchor="middle" x="934" y="-267.5" font-family="Helvetica,sans-Serif" font-size="10.00">DetectorsBase/BaseCluster.h</text>
</a>
</g>
</g>
<!-- Node19&#45;&gt;Node20 -->
<g id="edge23" class="edge"><title>Node19&#45;&gt;Node20</title>
<path fill="none" stroke="midnightblue" d="M1056.49,-316.933C1029.13,-306.674 992.439,-292.915 966.365,-283.137"/>
<polygon fill="midnightblue" stroke="midnightblue" points="967.526,-279.834 956.933,-279.6 965.068,-286.388 967.526,-279.834"/>
</g>
<!-- Node20&#45;&gt;Node3 -->
<g id="edge24" class="edge"><title>Node20&#45;&gt;Node3</title>
<path fill="none" stroke="midnightblue" d="M893.957,-260.489C855.9,-252.136 797.189,-238.56 747,-224 743.459,-222.973 739.78,-221.834 736.126,-220.657"/>
<polygon fill="midnightblue" stroke="midnightblue" points="737.214,-217.331 726.621,-217.501 735.008,-223.974 737.214,-217.331"/>
</g>
<!-- Node21 -->
<g id="node21" class="node"><title>Node21</title>
<polygon fill="none" stroke="#bfbfbf" points="995.5,-198.5 995.5,-217.5 1036.5,-217.5 1036.5,-198.5 995.5,-198.5"/>
<text text-anchor="middle" x="1016" y="-205.5" font-family="Helvetica,sans-Serif" font-size="10.00">bitset</text>
</g>
<!-- Node20&#45;&gt;Node21 -->
<g id="edge25" class="edge"><title>Node20&#45;&gt;Node21</title>
<path fill="none" stroke="midnightblue" d="M945.749,-260.403C958.901,-250.78 980.434,-235.024 996.198,-223.489"/>
<polygon fill="midnightblue" stroke="midnightblue" points="998.27,-226.31 1004.27,-217.581 994.136,-220.661 998.27,-226.31"/>
</g>
<!-- Node22 -->
<g id="node22" class="node"><title>Node22</title>
<polygon fill="none" stroke="#bfbfbf" points="880,-198.5 880,-217.5 930,-217.5 930,-198.5 880,-198.5"/>
<text text-anchor="middle" x="905" y="-205.5" font-family="Helvetica,sans-Serif" font-size="10.00">iomanip</text>
</g>
<!-- Node20&#45;&gt;Node22 -->
<g id="edge26" class="edge"><title>Node20&#45;&gt;Node22</title>
<path fill="none" stroke="midnightblue" d="M929.845,-260.403C925.624,-251.671 918.963,-237.889 913.6,-226.794"/>
<polygon fill="midnightblue" stroke="midnightblue" points="916.65,-225.061 909.147,-217.581 910.348,-228.107 916.65,-225.061"/>
</g>
<!-- Node23 -->
<g id="node23" class="node"><title>Node23</title>
<polygon fill="none" stroke="#bfbfbf" points="948.5,-198.5 948.5,-217.5 977.5,-217.5 977.5,-198.5 948.5,-198.5"/>
<text text-anchor="middle" x="963" y="-205.5" font-family="Helvetica,sans-Serif" font-size="10.00">ios</text>
</g>
<!-- Node20&#45;&gt;Node23 -->
<g id="edge27" class="edge"><title>Node20&#45;&gt;Node23</title>
<path fill="none" stroke="midnightblue" d="M938.155,-260.403C942.376,-251.671 949.037,-237.889 954.4,-226.794"/>
<polygon fill="midnightblue" stroke="midnightblue" points="957.652,-228.107 958.853,-217.581 951.35,-225.061 957.652,-228.107"/>
</g>
<!-- Node24 -->
<g id="node24" class="node"><title>Node24</title>
<polygon fill="none" stroke="#bfbfbf" points="0,-74.5 0,-93.5 54,-93.5 54,-74.5 0,-74.5"/>
<text text-anchor="middle" x="27" y="-81.5" font-family="Helvetica,sans-Serif" font-size="10.00">iostream</text>
</g>
<!-- Node20&#45;&gt;Node24 -->
<g id="edge28" class="edge"><title>Node20&#45;&gt;Node24</title>
<path fill="none" stroke="midnightblue" d="M916.663,-260.397C883.447,-244.3 808.161,-209.661 741,-192 446.478,-114.551 355.52,-181.165 62,-100 59.3438,-99.2655 56.6245,-98.3724 53.9332,-97.3919"/>
<polygon fill="midnightblue" stroke="midnightblue" points="55.0545,-94.0705 44.4708,-93.5849 52.4416,-100.565 55.0545,-94.0705"/>
</g>
<!-- Node25 -->
<g id="node25" class="node"><title>Node25</title>
<g id="a_node25"><a xlink:href="../../dd/d76/Cartesian3D_8h.html" target="_top" xlink:title="MathUtils/Cartesian3D.h">
<polygon fill="none" stroke="black" points="789.5,-136.5 789.5,-155.5 914.5,-155.5 914.5,-136.5 789.5,-136.5"/>
<text text-anchor="middle" x="852" y="-143.5" font-family="Helvetica,sans-Serif" font-size="10.00">MathUtils/Cartesian3D.h</text>
</a>
</g>
</g>
<!-- Node20&#45;&gt;Node25 -->
<g id="edge29" class="edge"><title>Node20&#45;&gt;Node25</title>
<path fill="none" stroke="midnightblue" d="M915.496,-260.365C901.221,-252.76 882.095,-240.349 871,-224 859.19,-206.597 854.709,-182.548 853.016,-165.98"/>
<polygon fill="midnightblue" stroke="midnightblue" points="856.495,-165.578 852.233,-155.879 849.516,-166.119 856.495,-165.578"/>
</g>
<!-- Node35 -->
<g id="node35" class="node"><title>Node35</title>
<g id="a_node35"><a xlink:href="../../d4/d20/DetMatrixCache_8h.html" target="_top" xlink:title="DetectorsBase/DetMatrixCache.h">
<polygon fill="none" stroke="black" points="1190,-198.5 1190,-217.5 1354,-217.5 1354,-198.5 1190,-198.5"/>
<text text-anchor="middle" x="1272" y="-205.5" font-family="Helvetica,sans-Serif" font-size="10.00">DetectorsBase/DetMatrixCache.h</text>
</a>
</g>
</g>
<!-- Node20&#45;&gt;Node35 -->
<g id="edge41" class="edge"><title>Node20&#45;&gt;Node35</title>
<path fill="none" stroke="midnightblue" d="M982.068,-260.467C1043.14,-249.626 1148.45,-230.932 1213.94,-219.306"/>
<polygon fill="midnightblue" stroke="midnightblue" points="1214.86,-222.697 1224.1,-217.503 1213.64,-215.805 1214.86,-222.697"/>
</g>
<!-- Node25&#45;&gt;Node14 -->
<g id="edge33" class="edge"><title>Node25&#45;&gt;Node14</title>
<path fill="none" stroke="midnightblue" d="M914.733,-143.42C1060.4,-139.338 1418.02,-126.833 1535,-100 1538.24,-99.2562 1541.57,-98.2639 1544.84,-97.1426"/>
<polygon fill="midnightblue" stroke="midnightblue" points="1546.22,-100.359 1554.31,-93.5106 1543.72,-93.8235 1546.22,-100.359"/>
</g>
<!-- Node25&#45;&gt;Node24 -->
<g id="edge40" class="edge"><title>Node25&#45;&gt;Node24</title>
<path fill="none" stroke="midnightblue" d="M789.42,-137.336C784.544,-136.846 779.694,-136.392 775,-136 458.81,-109.568 371.105,-171.616 62,-100 59.1019,-99.3285 56.1411,-98.4297 53.2294,-97.404"/>
<polygon fill="midnightblue" stroke="midnightblue" points="54.2647,-94.0484 43.6804,-93.5753 51.6595,-100.546 54.2647,-94.0484"/>
</g>
<!-- Node26 -->
<g id="node26" class="node"><title>Node26</title>
<polygon fill="none" stroke="#bfbfbf" points="71.5,-74.5 71.5,-93.5 220.5,-93.5 220.5,-74.5 71.5,-74.5"/>
<text text-anchor="middle" x="146" y="-81.5" font-family="Helvetica,sans-Serif" font-size="10.00">Math/GenVector/Rotation3D.h</text>
</g>
<!-- Node25&#45;&gt;Node26 -->
<g id="edge30" class="edge"><title>Node25&#45;&gt;Node26</title>
<path fill="none" stroke="midnightblue" d="M789.413,-137.417C784.539,-136.909 779.691,-136.429 775,-136 533.258,-113.902 470.965,-129.382 230,-100 219.853,-98.7628 209.074,-97.1028 198.74,-95.3379"/>
<polygon fill="midnightblue" stroke="midnightblue" points="199.051,-91.8387 188.595,-93.5497 197.836,-98.7324 199.051,-91.8387"/>
</g>
<!-- Node27 -->
<g id="node27" class="node"><title>Node27</title>
<polygon fill="none" stroke="#bfbfbf" points="239,-74.5 239,-93.5 395,-93.5 395,-74.5 239,-74.5"/>
<text text-anchor="middle" x="317" y="-81.5" font-family="Helvetica,sans-Serif" font-size="10.00">Math/GenVector/Transform3D.h</text>
</g>
<!-- Node25&#45;&gt;Node27 -->
<g id="edge31" class="edge"><title>Node25&#45;&gt;Node27</title>
<path fill="none" stroke="midnightblue" d="M789.397,-137.579C784.526,-137.033 779.684,-136.501 775,-136 610.276,-118.383 568.184,-122.089 404,-100 393.974,-98.6512 383.336,-97.0009 373.066,-95.2941"/>
<polygon fill="midnightblue" stroke="midnightblue" points="373.401,-91.801 362.956,-93.5777 372.229,-98.7022 373.401,-91.801"/>
</g>
<!-- Node28 -->
<g id="node28" class="node"><title>Node28</title>
<polygon fill="none" stroke="#bfbfbf" points="413,-74.5 413,-93.5 573,-93.5 573,-74.5 413,-74.5"/>
<text text-anchor="middle" x="493" y="-81.5" font-family="Helvetica,sans-Serif" font-size="10.00">Math/GenVector/Translation3D.h</text>
</g>
<!-- Node25&#45;&gt;Node28 -->
<g id="edge32" class="edge"><title>Node25&#45;&gt;Node28</title>
<path fill="none" stroke="midnightblue" d="M800.737,-136.485C746.423,-127.456 658.16,-112.765 582,-100 572.71,-98.4429 562.875,-96.7899 553.263,-95.172"/>
<polygon fill="midnightblue" stroke="midnightblue" points="553.802,-91.7136 543.36,-93.5041 552.64,-98.6164 553.802,-91.7136"/>
</g>
<!-- Node29 -->
<g id="node29" class="node"><title>Node29</title>
<polygon fill="none" stroke="#bfbfbf" points="591,-74.5 591,-93.5 667,-93.5 667,-74.5 591,-74.5"/>
<text text-anchor="middle" x="629" y="-81.5" font-family="Helvetica,sans-Serif" font-size="10.00">TGeoMatrix.h</text>
</g>
<!-- Node25&#45;&gt;Node29 -->
<g id="edge34" class="edge"><title>Node25&#45;&gt;Node29</title>
<path fill="none" stroke="midnightblue" d="M816.103,-136.475C780.419,-127.847 724.198,-113.84 676,-100 672.218,-98.9141 668.28,-97.7348 664.364,-96.5308"/>
<polygon fill="midnightblue" stroke="midnightblue" points="665.364,-93.1764 654.775,-93.5257 663.271,-99.8561 665.364,-93.1764"/>
</g>
<!-- Node30 -->
<g id="node30" class="node"><title>Node30</title>
<polygon fill="none" stroke="#bfbfbf" points="685.5,-69 685.5,-99 836.5,-99 836.5,-69 685.5,-69"/>
<text text-anchor="start" x="693.5" y="-87" font-family="Helvetica,sans-Serif" font-size="10.00">Math/GenVector/Displacement</text>
<text text-anchor="middle" x="761" y="-76" font-family="Helvetica,sans-Serif" font-size="10.00">Vector3D.h</text>
</g>
<!-- Node25&#45;&gt;Node30 -->
<g id="edge35" class="edge"><title>Node25&#45;&gt;Node30</title>
<path fill="none" stroke="midnightblue" d="M838.962,-136.403C826.522,-128.201 807.327,-115.545 791.097,-104.844"/>
<polygon fill="midnightblue" stroke="midnightblue" points="792.722,-101.723 782.447,-99.1408 788.869,-107.567 792.722,-101.723"/>
</g>
<!-- Node31 -->
<g id="node31" class="node"><title>Node31</title>
<polygon fill="none" stroke="#bfbfbf" points="855,-74.5 855,-93.5 1031,-93.5 1031,-74.5 855,-74.5"/>
<text text-anchor="middle" x="943" y="-81.5" font-family="Helvetica,sans-Serif" font-size="10.00">Math/GenVector/PositionVector3D.h</text>
</g>
<!-- Node25&#45;&gt;Node31 -->
<g id="edge36" class="edge"><title>Node25&#45;&gt;Node31</title>
<path fill="none" stroke="midnightblue" d="M865.038,-136.403C879.769,-126.691 903.973,-110.732 921.509,-99.1697"/>
<polygon fill="midnightblue" stroke="midnightblue" points="923.564,-102.007 929.986,-93.5806 919.711,-96.1632 923.564,-102.007"/>
</g>
<!-- Node32 -->
<g id="node32" class="node"><title>Node32</title>
<g id="a_node32"><a xlink:href="../../d2/dd0/Cartesian2D_8h.html" target="_top" xlink:title="MathUtils/Cartesian2D.h">
<polygon fill="none" stroke="black" points="1048.5,-74.5 1048.5,-93.5 1173.5,-93.5 1173.5,-74.5 1048.5,-74.5"/>
<text text-anchor="middle" x="1111" y="-81.5" font-family="Helvetica,sans-Serif" font-size="10.00">MathUtils/Cartesian2D.h</text>
</a>
</g>
</g>
<!-- Node25&#45;&gt;Node32 -->
<g id="edge37" class="edge"><title>Node25&#45;&gt;Node32</title>
<path fill="none" stroke="midnightblue" d="M888.833,-136.467C934.955,-125.783 1014.01,-107.469 1064.32,-95.8129"/>
<polygon fill="midnightblue" stroke="midnightblue" points="1065.34,-99.17 1074.29,-93.5034 1063.76,-92.3506 1065.34,-99.17"/>
</g>
<!-- Node33 -->
<g id="node33" class="node"><title>Node33</title>
<polygon fill="none" stroke="#bfbfbf" points="855.5,-1 855.5,-31 1006.5,-31 1006.5,-1 855.5,-1"/>
<text text-anchor="start" x="863.5" y="-19" font-family="Helvetica,sans-Serif" font-size="10.00">Math/GenVector/Displacement</text>
<text text-anchor="middle" x="931" y="-8" font-family="Helvetica,sans-Serif" font-size="10.00">Vector2D.h</text>
</g>
<!-- Node32&#45;&gt;Node33 -->
<g id="edge38" class="edge"><title>Node32&#45;&gt;Node33</title>
<path fill="none" stroke="midnightblue" d="M1087.47,-74.3717C1060.03,-64.3109 1013.97,-47.4219 978.908,-34.5662"/>
<polygon fill="midnightblue" stroke="midnightblue" points="979.929,-31.2128 969.335,-31.0562 977.519,-37.7849 979.929,-31.2128"/>
</g>
<!-- Node34 -->
<g id="node34" class="node"><title>Node34</title>
<polygon fill="none" stroke="#bfbfbf" points="1025,-6.5 1025,-25.5 1201,-25.5 1201,-6.5 1025,-6.5"/>
<text text-anchor="middle" x="1113" y="-13.5" font-family="Helvetica,sans-Serif" font-size="10.00">Math/GenVector/PositionVector2D.h</text>
</g>
<!-- Node32&#45;&gt;Node34 -->
<g id="edge39" class="edge"><title>Node32&#45;&gt;Node34</title>
<path fill="none" stroke="midnightblue" d="M1111.26,-74.3717C1111.56,-64.6426 1112.04,-48.528 1112.43,-35.8504"/>
<polygon fill="midnightblue" stroke="midnightblue" points="1115.93,-35.9426 1112.73,-25.8411 1108.93,-35.7305 1115.93,-35.9426"/>
</g>
<!-- Node35&#45;&gt;Node14 -->
<g id="edge55" class="edge"><title>Node35&#45;&gt;Node14</title>
<path fill="none" stroke="midnightblue" d="M1286.07,-198.387C1313.73,-181.56 1374.46,-145.158 1397,-136 1455.73,-112.144 1474.84,-119.949 1535,-100 1537.56,-99.1499 1540.2,-98.211 1542.84,-97.2301"/>
<polygon fill="midnightblue" stroke="midnightblue" points="1544.16,-100.471 1552.21,-93.577 1541.62,-93.9495 1544.16,-100.471"/>
</g>
<!-- Node35&#45;&gt;Node25 -->
<g id="edge44" class="edge"><title>Node35&#45;&gt;Node25</title>
<path fill="none" stroke="midnightblue" d="M1212.27,-198.467C1135.6,-187.515 1002.82,-168.546 921.648,-156.95"/>
<polygon fill="midnightblue" stroke="midnightblue" points="921.918,-153.453 911.524,-155.503 920.928,-160.383 921.918,-153.453"/>
</g>
<!-- Node35&#45;&gt;Node36 -->
<g id="edge42" class="edge"><title>Node35&#45;&gt;Node36</title>
<path fill="none" stroke="midnightblue" d="M1294.35,-198.403C1320.99,-188.156 1365.71,-170.956 1396.01,-159.302"/>
<polygon fill="midnightblue" stroke="midnightblue" points="1397.61,-162.437 1405.69,-155.581 1395.1,-155.904 1397.61,-162.437"/>
</g>
<!-- Node37 -->
<g id="node37" class="node"><title>Node37</title>
<polygon fill="none" stroke="#bfbfbf" points="1221,-6.5 1221,-25.5 1259,-25.5 1259,-6.5 1221,-6.5"/>
<text text-anchor="middle" x="1240" y="-13.5" font-family="Helvetica,sans-Serif" font-size="10.00">array</text>
</g>
<!-- Node35&#45;&gt;Node37 -->
<g id="edge43" class="edge"><title>Node35&#45;&gt;Node37</title>
<path fill="none" stroke="midnightblue" d="M1258.63,-198.336C1246.22,-189.421 1228.57,-174.278 1221,-156 1204.05,-115.077 1220.77,-62.1501 1231.88,-34.9258"/>
<polygon fill="midnightblue" stroke="midnightblue" points="1235.18,-36.1008 1235.91,-25.5311 1228.75,-33.3386 1235.18,-36.1008"/>
</g>
<!-- Node38 -->
<g id="node38" class="node"><title>Node38</title>
<g id="a_node38"><a xlink:href="../../d6/d31/DetID_8h.html" target="_top" xlink:title="DetectorsBase/DetID.h">
<polygon fill="none" stroke="black" points="1230.5,-136.5 1230.5,-155.5 1349.5,-155.5 1349.5,-136.5 1230.5,-136.5"/>
<text text-anchor="middle" x="1290" y="-143.5" font-family="Helvetica,sans-Serif" font-size="10.00">DetectorsBase/DetID.h</text>
</a>
</g>
</g>
<!-- Node35&#45;&gt;Node38 -->
<g id="edge45" class="edge"><title>Node35&#45;&gt;Node38</title>
<path fill="none" stroke="midnightblue" d="M1274.58,-198.403C1277.15,-189.849 1281.17,-176.45 1284.46,-165.476"/>
<polygon fill="midnightblue" stroke="midnightblue" points="1287.9,-166.165 1287.43,-155.581 1281.2,-164.153 1287.9,-166.165"/>
</g>
<!-- Node35&#45;&gt;Node45 -->
<g id="edge56" class="edge"><title>Node35&#45;&gt;Node45</title>
<path fill="none" stroke="midnightblue" d="M1317.22,-198.467C1377.52,-187.09 1483.67,-167.062 1544.24,-155.634"/>
<polygon fill="midnightblue" stroke="midnightblue" points="1545.1,-159.034 1554.28,-153.74 1543.8,-152.155 1545.1,-159.034"/>
</g>
<!-- Node38&#45;&gt;Node14 -->
<g id="edge49" class="edge"><title>Node38&#45;&gt;Node14</title>
<path fill="none" stroke="midnightblue" d="M1349.7,-137.502C1399.8,-130.389 1472.93,-118.079 1535,-100 1537.81,-99.1823 1540.69,-98.2268 1543.56,-97.201"/>
<polygon fill="midnightblue" stroke="midnightblue" points="1544.99,-100.402 1553.06,-93.5413 1542.47,-93.8701 1544.99,-100.402"/>
</g>
<!-- Node38&#45;&gt;Node37 -->
<g id="edge47" class="edge"><title>Node38&#45;&gt;Node37</title>
<path fill="none" stroke="midnightblue" d="M1282.5,-136.298C1275.43,-127.647 1265.03,-113.722 1259,-100 1249.82,-79.1087 1244.8,-53.2312 1242.26,-35.978"/>
<polygon fill="midnightblue" stroke="midnightblue" points="1245.67,-35.0313 1240.88,-25.5787 1238.73,-35.9522 1245.67,-35.0313"/>
</g>
<!-- Node39 -->
<g id="node39" class="node"><title>Node39</title>
<polygon fill="none" stroke="#bfbfbf" points="1480,-74.5 1480,-93.5 1526,-93.5 1526,-74.5 1480,-74.5"/>
<text text-anchor="middle" x="1503" y="-81.5" font-family="Helvetica,sans-Serif" font-size="10.00">cstdint</text>
</g>
<!-- Node38&#45;&gt;Node39 -->
<g id="edge46" class="edge"><title>Node38&#45;&gt;Node39</title>
<path fill="none" stroke="midnightblue" d="M1333.56,-136.433C1370.42,-128.635 1424.38,-115.922 1470,-100 1472.12,-99.2586 1474.3,-98.4318 1476.47,-97.5578"/>
<polygon fill="midnightblue" stroke="midnightblue" points="1477.98,-100.718 1485.77,-93.5434 1475.2,-94.2911 1477.98,-100.718"/>
</g>
<!-- Node40 -->
<g id="node40" class="node"><title>Node40</title>
<polygon fill="none" stroke="#bfbfbf" points="1268,-74.5 1268,-93.5 1330,-93.5 1330,-74.5 1268,-74.5"/>
<text text-anchor="middle" x="1299" y="-81.5" font-family="Helvetica,sans-Serif" font-size="10.00">type_traits</text>
</g>
<!-- Node38&#45;&gt;Node40 -->
<g id="edge48" class="edge"><title>Node38&#45;&gt;Node40</title>
<path fill="none" stroke="midnightblue" d="M1291.29,-136.403C1292.57,-127.849 1294.58,-114.45 1296.23,-103.476"/>
<polygon fill="midnightblue" stroke="midnightblue" points="1299.69,-103.989 1297.71,-93.5806 1292.77,-102.951 1299.69,-103.989"/>
</g>
<!-- Node41 -->
<g id="node41" class="node"><title>Node41</title>
<g id="a_node41"><a xlink:href="../../d9/ded/Utils_8h.html" target="_top" xlink:title="DetectorsBase/Utils.h">
<polygon fill="none" stroke="black" points="1348.5,-74.5 1348.5,-93.5 1461.5,-93.5 1461.5,-74.5 1348.5,-74.5"/>
<text text-anchor="middle" x="1405" y="-81.5" font-family="Helvetica,sans-Serif" font-size="10.00">DetectorsBase/Utils.h</text>
</a>
</g>
</g>
<!-- Node38&#45;&gt;Node41 -->
<g id="edge50" class="edge"><title>Node38&#45;&gt;Node41</title>
<path fill="none" stroke="midnightblue" d="M1306.48,-136.403C1325.61,-126.423 1357.37,-109.849 1379.65,-98.2253"/>
<polygon fill="midnightblue" stroke="midnightblue" points="1381.31,-101.309 1388.55,-93.5806 1378.07,-95.1033 1381.31,-101.309"/>
</g>
<!-- Node44 -->
<g id="node44" class="node"><title>Node44</title>
<polygon fill="none" stroke="#bfbfbf" points="1919.5,-74.5 1919.5,-93.5 1968.5,-93.5 1968.5,-74.5 1919.5,-74.5"/>
<text text-anchor="middle" x="1944" y="-81.5" font-family="Helvetica,sans-Serif" font-size="10.00">cassert</text>
</g>
<!-- Node38&#45;&gt;Node44 -->
<g id="edge54" class="edge"><title>Node38&#45;&gt;Node44</title>
<path fill="none" stroke="midnightblue" d="M1349.77,-139.516C1483.45,-127.252 1803.16,-97.9214 1909.18,-88.1949"/>
<polygon fill="midnightblue" stroke="midnightblue" points="1909.69,-91.6626 1919.33,-87.2636 1909.05,-84.6919 1909.69,-91.6626"/>
</g>
<!-- Node41&#45;&gt;Node37 -->
<g id="edge53" class="edge"><title>Node41&#45;&gt;Node37</title>
<path fill="none" stroke="midnightblue" d="M1383.43,-74.3717C1353.98,-62.592 1301.13,-41.4512 1268.46,-28.3841"/>
<polygon fill="midnightblue" stroke="midnightblue" points="1269.6,-25.0716 1259.02,-24.6073 1267,-31.5709 1269.6,-25.0716"/>
</g>
<!-- Node42 -->
<g id="node42" class="node"><title>Node42</title>
<g id="a_node42"><a xlink:href="../../d1/daa/Base_2include_2DetectorsBase_2Constants_8h.html" target="_top" xlink:title="DetectorsBase/Constants.h">
<polygon fill="none" stroke="black" points="1392,-6.5 1392,-25.5 1530,-25.5 1530,-6.5 1392,-6.5"/>
<text text-anchor="middle" x="1461" y="-13.5" font-family="Helvetica,sans-Serif" font-size="10.00">DetectorsBase/Constants.h</text>
</a>
</g>
</g>
<!-- Node41&#45;&gt;Node42 -->
<g id="edge51" class="edge"><title>Node41&#45;&gt;Node42</title>
<path fill="none" stroke="midnightblue" d="M1412.32,-74.3717C1421.08,-64.053 1435.93,-46.5513 1446.93,-33.5854"/>
<polygon fill="midnightblue" stroke="midnightblue" points="1449.7,-35.7307 1453.5,-25.8411 1444.36,-31.2018 1449.7,-35.7307"/>
</g>
<!-- Node43 -->
<g id="node43" class="node"><title>Node43</title>
<polygon fill="none" stroke="#bfbfbf" points="1330,-6.5 1330,-25.5 1374,-25.5 1374,-6.5 1330,-6.5"/>
<text text-anchor="middle" x="1352" y="-13.5" font-family="Helvetica,sans-Serif" font-size="10.00">cmath</text>
</g>
<!-- Node41&#45;&gt;Node43 -->
<g id="edge52" class="edge"><title>Node41&#45;&gt;Node43</title>
<path fill="none" stroke="midnightblue" d="M1398.07,-74.3717C1389.86,-64.1512 1376,-46.884 1365.62,-33.9571"/>
<polygon fill="midnightblue" stroke="midnightblue" points="1368.09,-31.4468 1359.1,-25.8411 1362.63,-35.8298 1368.09,-31.4468"/>
</g>
<!-- Node46&#45;&gt;Node35 -->
<g id="edge58" class="edge"><title>Node46&#45;&gt;Node35</title>
<path fill="none" stroke="midnightblue" d="M1318.36,-322.44C1303.73,-313.889 1283.33,-299.254 1274,-280 1266.11,-263.73 1266.61,-242.806 1268.46,-227.896"/>
<polygon fill="midnightblue" stroke="midnightblue" points="1271.95,-228.265 1270.04,-217.844 1265.03,-227.183 1271.95,-228.265"/>
</g>
<!-- Node47 -->
<g id="node47" class="node"><title>Node47</title>
<polygon fill="none" stroke="#bfbfbf" points="1342.5,-260.5 1342.5,-279.5 1411.5,-279.5 1411.5,-260.5 1342.5,-260.5"/>
<text text-anchor="middle" x="1377" y="-267.5" font-family="Helvetica,sans-Serif" font-size="10.00">TObjArray.h</text>
</g>
<!-- Node46&#45;&gt;Node47 -->
<g id="edge59" class="edge"><title>Node46&#45;&gt;Node47</title>
<path fill="none" stroke="midnightblue" d="M1341.02,-322.403C1347.32,-313.403 1357.37,-299.041 1365.25,-287.782"/>
<polygon fill="midnightblue" stroke="midnightblue" points="1368.13,-289.78 1370.99,-279.581 1362.39,-285.766 1368.13,-289.78"/>
</g>
<!-- Node48 -->
<g id="node48" class="node"><title>Node48</title>
<polygon fill="none" stroke="#bfbfbf" points="1283.5,-260.5 1283.5,-279.5 1324.5,-279.5 1324.5,-260.5 1283.5,-260.5"/>
<text text-anchor="middle" x="1304" y="-267.5" font-family="Helvetica,sans-Serif" font-size="10.00">string</text>
</g>
<!-- Node46&#45;&gt;Node48 -->
<g id="edge60" class="edge"><title>Node46&#45;&gt;Node48</title>
<path fill="none" stroke="midnightblue" d="M1330.56,-322.403C1326.05,-313.671 1318.93,-299.889 1313.19,-288.794"/>
<polygon fill="midnightblue" stroke="midnightblue" points="1316.13,-286.858 1308.43,-279.581 1309.91,-290.071 1316.13,-286.858"/>
</g>
<!-- Node50&#45;&gt;Node5 -->
<g id="edge67" class="edge"><title>Node50&#45;&gt;Node5</title>
<path fill="none" stroke="midnightblue" d="M2129.05,-452.841C2110.95,-441.681 2085.85,-426.198 2067.8,-415.063"/>
<polygon fill="midnightblue" stroke="midnightblue" points="2069.42,-411.953 2059.08,-409.682 2065.75,-417.911 2069.42,-411.953"/>
</g>
<!-- Node50&#45;&gt;Node44 -->
<g id="edge68" class="edge"><title>Node50&#45;&gt;Node44</title>
<path fill="none" stroke="midnightblue" d="M2181.59,-452.936C2196.73,-444.296 2214.2,-431.836 2225,-416 2246.39,-384.656 2245,-370.945 2245,-333 2245,-333 2245,-333 2245,-207 2245,-150.069 2057.71,-107.043 1978.61,-91.4085"/>
<polygon fill="midnightblue" stroke="midnightblue" points="1979.12,-87.9421 1968.63,-89.4695 1977.78,-94.8135 1979.12,-87.9421"/>
</g>
<!-- Node51 -->
<g id="node51" class="node"><title>Node51</title>
<polygon fill="none" stroke="#bfbfbf" points="2157.5,-390.5 2157.5,-409.5 2216.5,-409.5 2216.5,-390.5 2157.5,-390.5"/>
<text text-anchor="middle" x="2187" y="-397.5" font-family="Helvetica,sans-Serif" font-size="10.00">stdexcept</text>
</g>
<!-- Node50&#45;&gt;Node51 -->
<g id="edge69" class="edge"><title>Node50&#45;&gt;Node51</title>
<path fill="none" stroke="midnightblue" d="M2159.59,-452.679C2164.84,-442.796 2171.84,-429.579 2177.46,-418.986"/>
<polygon fill="midnightblue" stroke="midnightblue" points="2180.73,-420.303 2182.32,-409.828 2174.54,-417.023 2180.73,-420.303"/>
</g>
<!-- Node52 -->
<g id="node52" class="node"><title>Node52</title>
<polygon fill="none" stroke="#bfbfbf" points="2094.5,-390.5 2094.5,-409.5 2139.5,-409.5 2139.5,-390.5 2094.5,-390.5"/>
<text text-anchor="middle" x="2117" y="-397.5" font-family="Helvetica,sans-Serif" font-size="10.00">gsl/gsl</text>
</g>
<!-- Node50&#45;&gt;Node52 -->
<g id="edge70" class="edge"><title>Node50&#45;&gt;Node52</title>
<path fill="none" stroke="midnightblue" d="M2144.41,-452.679C2139.16,-442.796 2132.16,-429.579 2126.54,-418.986"/>
<polygon fill="midnightblue" stroke="midnightblue" points="2129.46,-417.023 2121.68,-409.828 2123.27,-420.303 2129.46,-417.023"/>
</g>
</g>
</svg>
