<?xml version="1.0" encoding="UTF-8" standalone="no"?>
<!DOCTYPE svg PUBLIC "-//W3C//DTD SVG 1.1//EN"
 "http://www.w3.org/Graphics/SVG/1.1/DTD/svg11.dtd">
<!-- Generated by graphviz version 2.36.0 (20140111.2315)
 -->
<!-- Title: o2::Base::GeometryManager Pages: 1 -->
<svg width="169pt" height="292pt"
 viewBox="0.00 0.00 169.00 292.00" xmlns="http://www.w3.org/2000/svg" xmlns:xlink="http://www.w3.org/1999/xlink">
<g id="graph0" class="graph" transform="scale(1 1) rotate(0) translate(4 288)">
<title>o2::Base::GeometryManager</title>
<!-- Node1 -->
<g id="node1" class="node"><title>Node1</title>
<polygon fill="#bfbfbf" stroke="black" points="0,-0.5 0,-167.5 142,-167.5 142,-0.5 0,-0.5"/>
<text text-anchor="middle" x="71" y="-155.5" font-family="Helvetica,sans-Serif" font-size="10.00">o2::Base::GeometryManager</text>
<polyline fill="none" stroke="black" points="0,-148.5 142,-148.5 "/>
<text text-anchor="middle" x="71" y="-136.5" font-family="Helvetica,sans-Serif" font-size="10.00"> </text>
<polyline fill="none" stroke="black" points="0,-129.5 142,-129.5 "/>
<text text-anchor="start" x="8" y="-117.5" font-family="Helvetica,sans-Serif" font-size="10.00">+ ~GeometryManager()</text>
<text text-anchor="start" x="8" y="-106.5" font-family="Helvetica,sans-Serif" font-size="10.00">+ getOriginalMatrix()</text>
<text text-anchor="start" x="8" y="-95.5" font-family="Helvetica,sans-Serif" font-size="10.00">+ getOriginalMatrix()</text>
<text text-anchor="start" x="8" y="-84.5" font-family="Helvetica,sans-Serif" font-size="10.00">+ getSymbolicName()</text>
<text text-anchor="start" x="8" y="-73.5" font-family="Helvetica,sans-Serif" font-size="10.00">+ getPNEntry()</text>
<text text-anchor="start" x="8" y="-62.5" font-family="Helvetica,sans-Serif" font-size="10.00">+ getMatrix()</text>
<text text-anchor="start" x="8" y="-51.5" font-family="Helvetica,sans-Serif" font-size="10.00">+ getSensID()</text>
<text text-anchor="start" x="8" y="-40.5" font-family="Helvetica,sans-Serif" font-size="10.00">+ MeanMaterialBudget()</text>
<text text-anchor="start" x="8" y="-29.5" font-family="Helvetica,sans-Serif" font-size="10.00">+ MeanMaterialBudget()</text>
<text text-anchor="start" x="8" y="-18.5" font-family="Helvetica,sans-Serif" font-size="10.00">+ MeanMaterialBudget()</text>
<text text-anchor="start" x="8" y="-7.5" font-family="Helvetica,sans-Serif" font-size="10.00"># ClassDefOverride()</text>
</g>
<!-- Node2 -->
<g id="node2" class="node"><title>Node2</title>
<polygon fill="none" stroke="#bfbfbf" points="12.5,-226.5 12.5,-283.5 63.5,-283.5 63.5,-226.5 12.5,-226.5"/>
<text text-anchor="middle" x="38" y="-271.5" font-family="Helvetica,sans-Serif" font-size="10.00">TObject</text>
<polyline fill="none" stroke="#bfbfbf" points="12.5,-264.5 63.5,-264.5 "/>
<text text-anchor="middle" x="38" y="-252.5" font-family="Helvetica,sans-Serif" font-size="10.00"> </text>
<polyline fill="none" stroke="#bfbfbf" points="12.5,-245.5 63.5,-245.5 "/>
<text text-anchor="middle" x="38" y="-233.5" font-family="Helvetica,sans-Serif" font-size="10.00"> </text>
</g>
<!-- Node2&#45;&gt;Node1 -->
<g id="edge1" class="edge"><title>Node2&#45;&gt;Node1</title>
<path fill="none" stroke="midnightblue" d="M45.3356,-216.433C48.166,-201.938 51.5235,-184.743 54.8612,-167.65"/>
<polygon fill="none" stroke="midnightblue" points="41.8569,-215.986 43.3755,-226.471 48.7271,-217.327 41.8569,-215.986"/>
</g>
<!-- Node3 -->
<g id="node3" class="node"><title>Node3</title>
<polygon fill="none" stroke="#bfbfbf" points="82,-226.5 82,-283.5 126,-283.5 126,-226.5 82,-226.5"/>
<text text-anchor="middle" x="104" y="-271.5" font-family="Helvetica,sans-Serif" font-size="10.00">UInt_t</text>
<polyline fill="none" stroke="#bfbfbf" points="82,-264.5 126,-264.5 "/>
<text text-anchor="middle" x="104" y="-252.5" font-family="Helvetica,sans-Serif" font-size="10.00"> </text>
<polyline fill="none" stroke="#bfbfbf" points="82,-245.5 126,-245.5 "/>
<text text-anchor="middle" x="104" y="-233.5" font-family="Helvetica,sans-Serif" font-size="10.00"> </text>
</g>
<!-- Node3&#45;&gt;Node1 -->
<g id="edge2" class="edge"><title>Node3&#45;&gt;Node1</title>
<path fill="none" stroke="#404040" d="M98.6245,-226.471C96.0574,-213.324 92.8177,-196.733 89.4683,-179.58"/>
<polygon fill="none" stroke="#404040" points="89.4386,-179.428 84.3629,-174.306 87.1388,-167.65 92.2146,-172.772 89.4386,-179.428"/>
<text text-anchor="middle" x="128" y="-200" font-family="Helvetica,sans-Serif" font-size="10.00"> #sDetOffset</text>
<text text-anchor="middle" x="128" y="-189" font-family="Helvetica,sans-Serif" font-size="10.00">#sSensorMask</text>
</g>
</g>
</svg>
