<?xml version="1.0" encoding="UTF-8" standalone="no"?>
<!DOCTYPE svg PUBLIC "-//W3C//DTD SVG 1.1//EN"
 "http://www.w3.org/Graphics/SVG/1.1/DTD/svg11.dtd">
<!-- Generated by graphviz version 2.36.0 (20140111.2315)
 -->
<!-- Title: /home/travis/build/AliceO2Group/AliceO2/Framework/Core/src/DataProcessor.cxx Pages: 1 -->
<svg width="1029pt" height="162pt"
 viewBox="0.00 0.00 1029.00 162.00" xmlns="http://www.w3.org/2000/svg" xmlns:xlink="http://www.w3.org/1999/xlink">
<g id="graph0" class="graph" transform="scale(1 1) rotate(0) translate(4 158)">
<title>/home/travis/build/AliceO2Group/AliceO2/Framework/Core/src/DataProcessor.cxx</title>
<!-- Node1 -->
<g id="node1" class="node"><title>Node1</title>
<polygon fill="#bfbfbf" stroke="black" points="498,-112.5 498,-153.5 694,-153.5 694,-112.5 498,-112.5"/>
<text text-anchor="start" x="506" y="-141.5" font-family="Helvetica,sans-Serif" font-size="10.00">/home/travis/build</text>
<text text-anchor="start" x="506" y="-130.5" font-family="Helvetica,sans-Serif" font-size="10.00">/AliceO2Group/AliceO2</text>
<text text-anchor="middle" x="596" y="-119.5" font-family="Helvetica,sans-Serif" font-size="10.00">/Framework/Core/src/DataProcessor.cxx</text>
</g>
<!-- Node2 -->
<g id="node2" class="node"><title>Node2</title>
<g id="a_node2"><a xlink:href="../../d9/df0/DataProcessor_8h.html" target="_top" xlink:title="Framework/DataProcessor.h">
<polygon fill="none" stroke="black" points="0,-56.5 0,-75.5 142,-75.5 142,-56.5 0,-56.5"/>
<text text-anchor="middle" x="71" y="-63.5" font-family="Helvetica,sans-Serif" font-size="10.00">Framework/DataProcessor.h</text>
</a>
</g>
</g>
<!-- Node1&#45;&gt;Node2 -->
<g id="edge1" class="edge"><title>Node1&#45;&gt;Node2</title>
<path fill="none" stroke="midnightblue" d="M497.867,-119.85C397.317,-107.401 242.926,-88.2861 149.977,-76.7781"/>
<polygon fill="midnightblue" stroke="midnightblue" points="150.143,-73.272 139.789,-75.5167 149.283,-80.219 150.143,-73.272"/>
</g>
<!-- Node3 -->
<g id="node3" class="node"><title>Node3</title>
<g id="a_node3"><a xlink:href="../../d2/d80/RootObjectContext_8h.html" target="_top" xlink:title="Framework/RootObjectContext.h">
<polygon fill="none" stroke="black" points="341.5,-56.5 341.5,-75.5 502.5,-75.5 502.5,-56.5 341.5,-56.5"/>
<text text-anchor="middle" x="422" y="-63.5" font-family="Helvetica,sans-Serif" font-size="10.00">Framework/RootObjectContext.h</text>
</a>
</g>
</g>
<!-- Node1&#45;&gt;Node3 -->
<g id="edge2" class="edge"><title>Node1&#45;&gt;Node3</title>
<path fill="none" stroke="midnightblue" d="M543.794,-112.498C514.808,-101.67 479.653,-88.5369 454.577,-79.1696"/>
<polygon fill="midnightblue" stroke="midnightblue" points="455.755,-75.8733 445.162,-75.6525 453.305,-82.4307 455.755,-75.8733"/>
</g>
<!-- Node9 -->
<g id="node9" class="node"><title>Node9</title>
<g id="a_node9"><a xlink:href="../../dc/dc4/MessageContext_8h.html" target="_top" xlink:title="Framework/MessageContext.h">
<polygon fill="none" stroke="black" points="520.5,-56.5 520.5,-75.5 671.5,-75.5 671.5,-56.5 520.5,-56.5"/>
<text text-anchor="middle" x="596" y="-63.5" font-family="Helvetica,sans-Serif" font-size="10.00">Framework/MessageContext.h</text>
</a>
</g>
</g>
<!-- Node1&#45;&gt;Node9 -->
<g id="edge8" class="edge"><title>Node1&#45;&gt;Node9</title>
<path fill="none" stroke="midnightblue" d="M596,-112.498C596,-104.065 596,-94.2351 596,-85.874"/>
<polygon fill="midnightblue" stroke="midnightblue" points="599.5,-85.6525 596,-75.6525 592.5,-85.6525 599.5,-85.6525"/>
</g>
<!-- Node10 -->
<g id="node10" class="node"><title>Node10</title>
<polygon fill="none" stroke="#bfbfbf" points="639,-0.5 639,-19.5 749,-19.5 749,-0.5 639,-0.5"/>
<text text-anchor="middle" x="694" y="-7.5" font-family="Helvetica,sans-Serif" font-size="10.00">fairmq/FairMQParts.h</text>
</g>
<!-- Node1&#45;&gt;Node10 -->
<g id="edge23" class="edge"><title>Node1&#45;&gt;Node10</title>
<path fill="none" stroke="midnightblue" d="M638.393,-112.415C653.656,-103.37 669.647,-91.2152 680,-76 689.233,-62.43 692.529,-43.8822 693.634,-30.0723"/>
<polygon fill="midnightblue" stroke="midnightblue" points="697.144,-29.9567 694.13,-19.7997 690.152,-29.6194 697.144,-29.9567"/>
</g>
<!-- Node11 -->
<g id="node11" class="node"><title>Node11</title>
<g id="a_node11"><a xlink:href="../../d8/d3c/TMessageSerializer_8h.html" target="_top" xlink:title="Framework/TMessageSerializer.h">
<polygon fill="none" stroke="black" points="160.5,-56.5 160.5,-75.5 323.5,-75.5 323.5,-56.5 160.5,-56.5"/>
<text text-anchor="middle" x="242" y="-63.5" font-family="Helvetica,sans-Serif" font-size="10.00">Framework/TMessageSerializer.h</text>
</a>
</g>
</g>
<!-- Node1&#45;&gt;Node11 -->
<g id="edge13" class="edge"><title>Node1&#45;&gt;Node11</title>
<path fill="none" stroke="midnightblue" d="M497.861,-113.98C433.657,-102.191 352.051,-87.2071 298.486,-77.3717"/>
<polygon fill="midnightblue" stroke="midnightblue" points="298.959,-73.9001 288.491,-75.5365 297.695,-80.785 298.959,-73.9001"/>
</g>
<!-- Node14 -->
<g id="node14" class="node"><title>Node14</title>
<g id="a_node14"><a xlink:href="../../dc/dcd/DataHeader_8h.html" target="_top" xlink:title="Headers/DataHeader.h">
<polygon fill="none" stroke="black" points="734.5,-56.5 734.5,-75.5 851.5,-75.5 851.5,-56.5 734.5,-56.5"/>
<text text-anchor="middle" x="793" y="-63.5" font-family="Helvetica,sans-Serif" font-size="10.00">Headers/DataHeader.h</text>
</a>
</g>
</g>
<!-- Node1&#45;&gt;Node14 -->
<g id="edge17" class="edge"><title>Node1&#45;&gt;Node14</title>
<path fill="none" stroke="midnightblue" d="M655.106,-112.498C688.461,-101.493 729.031,-88.1065 757.501,-78.7128"/>
<polygon fill="midnightblue" stroke="midnightblue" points="758.635,-82.0242 767.035,-75.5671 756.442,-75.3767 758.635,-82.0242"/>
</g>
<!-- Node19 -->
<g id="node19" class="node"><title>Node19</title>
<polygon fill="none" stroke="#bfbfbf" points="870,-56.5 870,-75.5 988,-75.5 988,-56.5 870,-56.5"/>
<text text-anchor="middle" x="929" y="-63.5" font-family="Helvetica,sans-Serif" font-size="10.00">fairmq/FairMQDevice.h</text>
</g>
<!-- Node1&#45;&gt;Node19 -->
<g id="edge24" class="edge"><title>Node1&#45;&gt;Node19</title>
<path fill="none" stroke="midnightblue" d="M694.11,-112.849C753.216,-101.312 826.239,-87.0584 875.03,-77.5348"/>
<polygon fill="midnightblue" stroke="midnightblue" points="875.915,-80.9281 885.059,-75.577 874.574,-74.0577 875.915,-80.9281"/>
</g>
<!-- Node4 -->
<g id="node4" class="node"><title>Node4</title>
<polygon fill="none" stroke="#bfbfbf" points="227.5,-0.5 227.5,-19.5 354.5,-19.5 354.5,-0.5 227.5,-0.5"/>
<text text-anchor="middle" x="291" y="-7.5" font-family="Helvetica,sans-Serif" font-size="10.00">fairmq/FairMQMessage.h</text>
</g>
<!-- Node3&#45;&gt;Node4 -->
<g id="edge3" class="edge"><title>Node3&#45;&gt;Node4</title>
<path fill="none" stroke="midnightblue" d="M401.243,-56.4435C379.684,-47.5566 345.737,-33.5632 321.206,-23.4514"/>
<polygon fill="midnightblue" stroke="midnightblue" points="322.239,-20.0917 311.66,-19.5164 319.572,-26.5634 322.239,-20.0917"/>
</g>
<!-- Node5 -->
<g id="node5" class="node"><title>Node5</title>
<polygon fill="none" stroke="#bfbfbf" points="372.5,-0.5 372.5,-19.5 431.5,-19.5 431.5,-0.5 372.5,-0.5"/>
<text text-anchor="middle" x="402" y="-7.5" font-family="Helvetica,sans-Serif" font-size="10.00">TObject.h</text>
</g>
<!-- Node3&#45;&gt;Node5 -->
<g id="edge4" class="edge"><title>Node3&#45;&gt;Node5</title>
<path fill="none" stroke="midnightblue" d="M418.697,-56.083C416.018,-48.8486 412.151,-38.4087 408.814,-29.3968"/>
<polygon fill="midnightblue" stroke="midnightblue" points="411.996,-27.9129 405.241,-19.7511 405.432,-30.3442 411.996,-27.9129"/>
</g>
<!-- Node6 -->
<g id="node6" class="node"><title>Node6</title>
<polygon fill="none" stroke="#bfbfbf" points="509,-0.5 509,-19.5 553,-19.5 553,-0.5 509,-0.5"/>
<text text-anchor="middle" x="531" y="-7.5" font-family="Helvetica,sans-Serif" font-size="10.00">vector</text>
</g>
<!-- Node3&#45;&gt;Node6 -->
<g id="edge5" class="edge"><title>Node3&#45;&gt;Node6</title>
<path fill="none" stroke="midnightblue" d="M439.513,-56.324C457.072,-47.6247 484.331,-34.1202 504.531,-24.113"/>
<polygon fill="midnightblue" stroke="midnightblue" points="506.124,-27.23 513.531,-19.6545 503.016,-20.9575 506.124,-27.23"/>
</g>
<!-- Node7 -->
<g id="node7" class="node"><title>Node7</title>
<polygon fill="none" stroke="#bfbfbf" points="571.5,-0.5 571.5,-19.5 620.5,-19.5 620.5,-0.5 571.5,-0.5"/>
<text text-anchor="middle" x="596" y="-7.5" font-family="Helvetica,sans-Serif" font-size="10.00">cassert</text>
</g>
<!-- Node3&#45;&gt;Node7 -->
<g id="edge6" class="edge"><title>Node3&#45;&gt;Node7</title>
<path fill="none" stroke="midnightblue" d="M449.571,-56.4435C479.966,-47.0106 528.899,-31.8245 561.736,-21.6337"/>
<polygon fill="midnightblue" stroke="midnightblue" points="562.858,-24.9501 571.371,-18.6433 560.783,-18.2647 562.858,-24.9501"/>
</g>
<!-- Node8 -->
<g id="node8" class="node"><title>Node8</title>
<polygon fill="none" stroke="#bfbfbf" points="449.5,-0.5 449.5,-19.5 490.5,-19.5 490.5,-0.5 449.5,-0.5"/>
<text text-anchor="middle" x="470" y="-7.5" font-family="Helvetica,sans-Serif" font-size="10.00">string</text>
</g>
<!-- Node3&#45;&gt;Node8 -->
<g id="edge7" class="edge"><title>Node3&#45;&gt;Node8</title>
<path fill="none" stroke="midnightblue" d="M429.926,-56.083C436.846,-48.2982 447.065,-36.8015 455.452,-27.3665"/>
<polygon fill="midnightblue" stroke="midnightblue" points="458.194,-29.5505 462.221,-19.7511 452.962,-24.8999 458.194,-29.5505"/>
</g>
<!-- Node9&#45;&gt;Node6 -->
<g id="edge10" class="edge"><title>Node9&#45;&gt;Node6</title>
<path fill="none" stroke="midnightblue" d="M585.557,-56.324C575.854,-48.2631 561.185,-36.0765 549.5,-26.3695"/>
<polygon fill="midnightblue" stroke="midnightblue" points="551.562,-23.532 541.633,-19.8339 547.089,-28.9163 551.562,-23.532"/>
</g>
<!-- Node9&#45;&gt;Node7 -->
<g id="edge11" class="edge"><title>Node9&#45;&gt;Node7</title>
<path fill="none" stroke="midnightblue" d="M596,-56.083C596,-49.0059 596,-38.8611 596,-29.9865"/>
<polygon fill="midnightblue" stroke="midnightblue" points="599.5,-29.751 596,-19.7511 592.5,-29.7511 599.5,-29.751"/>
</g>
<!-- Node9&#45;&gt;Node8 -->
<g id="edge12" class="edge"><title>Node9&#45;&gt;Node8</title>
<path fill="none" stroke="midnightblue" d="M576.035,-56.4435C555.391,-47.5961 522.937,-33.6875 499.368,-23.5865"/>
<polygon fill="midnightblue" stroke="midnightblue" points="500.442,-20.2387 489.872,-19.5164 497.684,-26.6727 500.442,-20.2387"/>
</g>
<!-- Node9&#45;&gt;Node10 -->
<g id="edge9" class="edge"><title>Node9&#45;&gt;Node10</title>
<path fill="none" stroke="midnightblue" d="M611.745,-56.324C627.319,-47.7428 651.377,-34.486 669.459,-24.5224"/>
<polygon fill="midnightblue" stroke="midnightblue" points="671.224,-27.546 678.294,-19.6545 667.846,-21.4152 671.224,-27.546"/>
</g>
<!-- Node11&#45;&gt;Node4 -->
<g id="edge14" class="edge"><title>Node11&#45;&gt;Node4</title>
<path fill="none" stroke="midnightblue" d="M250.091,-56.083C257.155,-48.2982 267.588,-36.8015 276.149,-27.3665"/>
<polygon fill="midnightblue" stroke="midnightblue" points="278.931,-29.5087 283.059,-19.7511 273.747,-24.8047 278.931,-29.5087"/>
</g>
<!-- Node12 -->
<g id="node12" class="node"><title>Node12</title>
<polygon fill="none" stroke="#bfbfbf" points="35.5,-0.5 35.5,-19.5 106.5,-19.5 106.5,-0.5 35.5,-0.5"/>
<text text-anchor="middle" x="71" y="-7.5" font-family="Helvetica,sans-Serif" font-size="10.00">TMessage.h</text>
</g>
<!-- Node11&#45;&gt;Node12 -->
<g id="edge15" class="edge"><title>Node11&#45;&gt;Node12</title>
<path fill="none" stroke="midnightblue" d="M214.905,-56.4435C186.012,-47.3196 140.075,-32.8133 107.895,-22.6509"/>
<polygon fill="midnightblue" stroke="midnightblue" points="108.559,-19.1903 97.9687,-19.5164 106.451,-25.8654 108.559,-19.1903"/>
</g>
<!-- Node13 -->
<g id="node13" class="node"><title>Node13</title>
<polygon fill="none" stroke="#bfbfbf" points="124.5,-0.5 124.5,-19.5 209.5,-19.5 209.5,-0.5 124.5,-0.5"/>
<text text-anchor="middle" x="167" y="-7.5" font-family="Helvetica,sans-Serif" font-size="10.00">TClonesArray.h</text>
</g>
<!-- Node11&#45;&gt;Node13 -->
<g id="edge16" class="edge"><title>Node11&#45;&gt;Node13</title>
<path fill="none" stroke="midnightblue" d="M229.95,-56.324C218.537,-48.1066 201.169,-35.6017 187.565,-25.8069"/>
<polygon fill="midnightblue" stroke="midnightblue" points="189.43,-22.8366 179.269,-19.8339 185.34,-28.5174 189.43,-22.8366"/>
</g>
<!-- Node14&#45;&gt;Node7 -->
<g id="edge20" class="edge"><title>Node14&#45;&gt;Node7</title>
<path fill="none" stroke="midnightblue" d="M761.785,-56.4435C725.984,-46.6303 667.469,-30.5905 630.388,-20.4261"/>
<polygon fill="midnightblue" stroke="midnightblue" points="631.104,-16.9933 620.534,-17.7251 629.253,-23.7442 631.104,-16.9933"/>
</g>
<!-- Node15 -->
<g id="node15" class="node"><title>Node15</title>
<polygon fill="none" stroke="#bfbfbf" points="975,-0.5 975,-19.5 1021,-19.5 1021,-0.5 975,-0.5"/>
<text text-anchor="middle" x="998" y="-7.5" font-family="Helvetica,sans-Serif" font-size="10.00">cstdint</text>
</g>
<!-- Node14&#45;&gt;Node15 -->
<g id="edge18" class="edge"><title>Node14&#45;&gt;Node15</title>
<path fill="none" stroke="midnightblue" d="M826,-56.4745C860.646,-47.4987 916.691,-32.9067 965,-20 965.1,-19.9732 965.201,-19.9463 965.302,-19.9194"/>
<polygon fill="midnightblue" stroke="midnightblue" points="966.185,-23.3064 974.929,-17.3247 964.363,-16.5475 966.185,-23.3064"/>
</g>
<!-- Node16 -->
<g id="node16" class="node"><title>Node16</title>
<polygon fill="none" stroke="#bfbfbf" points="767,-0.5 767,-19.5 819,-19.5 819,-0.5 767,-0.5"/>
<text text-anchor="middle" x="793" y="-7.5" font-family="Helvetica,sans-Serif" font-size="10.00">memory</text>
</g>
<!-- Node14&#45;&gt;Node16 -->
<g id="edge19" class="edge"><title>Node14&#45;&gt;Node16</title>
<path fill="none" stroke="midnightblue" d="M793,-56.083C793,-49.0059 793,-38.8611 793,-29.9865"/>
<polygon fill="midnightblue" stroke="midnightblue" points="796.5,-29.751 793,-19.7511 789.5,-29.7511 796.5,-29.751"/>
</g>
<!-- Node17 -->
<g id="node17" class="node"><title>Node17</title>
<polygon fill="none" stroke="#bfbfbf" points="837,-0.5 837,-19.5 883,-19.5 883,-0.5 837,-0.5"/>
<text text-anchor="middle" x="860" y="-7.5" font-family="Helvetica,sans-Serif" font-size="10.00">cstring</text>
</g>
<!-- Node14&#45;&gt;Node17 -->
<g id="edge21" class="edge"><title>Node14&#45;&gt;Node17</title>
<path fill="none" stroke="midnightblue" d="M803.765,-56.324C813.766,-48.2631 828.887,-36.0765 840.93,-26.3695"/>
<polygon fill="midnightblue" stroke="midnightblue" points="843.45,-28.8343 849.039,-19.8339 839.057,-23.3841 843.45,-28.8343"/>
</g>
<!-- Node18 -->
<g id="node18" class="node"><title>Node18</title>
<polygon fill="none" stroke="#bfbfbf" points="901,-0.5 901,-19.5 957,-19.5 957,-0.5 901,-0.5"/>
<text text-anchor="middle" x="929" y="-7.5" font-family="Helvetica,sans-Serif" font-size="10.00">algorithm</text>
</g>
<!-- Node14&#45;&gt;Node18 -->
<g id="edge22" class="edge"><title>Node14&#45;&gt;Node18</title>
<path fill="none" stroke="midnightblue" d="M814.55,-56.4435C837.031,-47.5171 872.488,-33.4387 897.98,-23.3168"/>
<polygon fill="midnightblue" stroke="midnightblue" points="899.549,-26.4598 907.551,-19.5164 896.965,-19.9539 899.549,-26.4598"/>
</g>
</g>
</svg>
