<?xml version="1.0" encoding="UTF-8" standalone="no"?>
<!DOCTYPE svg PUBLIC "-//W3C//DTD SVG 1.1//EN"
 "http://www.w3.org/Graphics/SVG/1.1/DTD/svg11.dtd">
<!-- Generated by graphviz version 2.36.0 (20140111.2315)
 -->
<!-- Title: o2::tof::Detector Pages: 1 -->
<!--zoomable 890 -->
<svg id="main" version="1.1" xmlns="http://www.w3.org/2000/svg" xmlns:xlink="http://www.w3.org/1999/xlink" xml:space="preserve" onload="init(evt)">
<style type="text/css"><![CDATA[
.edge:hover path { stroke: red; }
.edge:hover polygon { stroke: red; fill: red; }
]]></style>
<script type="text/javascript"><![CDATA[
var edges = document.getElementsByTagName('g');
if (edges && edges.length) {
  for (var i=0;i<edges.length;i++) {
    if (edges[i].id.substr(0,4)=='edge') {
      edges[i].setAttribute('class','edge');
    }
  }
}
]]></script>
        <defs>
                <circle id="rim" cx="0" cy="0" r="7"/>
                <circle id="rim2" cx="0" cy="0" r="3.5"/>
                <g id="zoomPlus">
                        <use xlink:href="#rim" fill="#404040">
                                <set attributeName="fill" to="#808080" begin="zoomplus.mouseover" end="zoomplus.mouseout"/>
                        </use>
                        <path d="M-4,0h8M0,-4v8" fill="none" stroke="white" stroke-width="1.5" pointer-events="none"/>
                </g>
                <g id="zoomMin">
                        <use xlink:href="#rim" fill="#404040">
                                <set attributeName="fill" to="#808080" begin="zoomminus.mouseover" end="zoomminus.mouseout"/>
                        </use>
                        <path d="M-4,0h8" fill="none" stroke="white" stroke-width="1.5" pointer-events="none"/>
                </g>
                <g id="dirArrow">
                        <path fill="none" stroke="white" stroke-width="1.5" d="M0,-3.0v7 M-2.5,-0.5L0,-3.0L2.5,-0.5"/>
                </g>
               <g id="resetDef">
                       <use xlink:href="#rim2" fill="#404040">
                               <set attributeName="fill" to="#808080" begin="reset.mouseover" end="reset.mouseout"/>
                       </use>
               </g>
        </defs>

<script type="text/javascript">
var viewWidth = 278;
var viewHeight = 890;
var sectionId = 'dynsection-1';
</script>
<script xlink:href="../../svgpan.js"/>
<svg id="graph" class="graph">
<g id="viewport">
<title>o2::tof::Detector</title>
<!-- Node1 -->
<g id="node1" class="node"><title>Node1</title>
<polygon fill="#bfbfbf" stroke="black" points="72.5,-0.5 72.5,-211.5 189.5,-211.5 189.5,-0.5 72.5,-0.5"/>
<text text-anchor="middle" x="131" y="-199.5" font-family="Helvetica,sans-Serif" font-size="10.00">o2::tof::Detector</text>
<polyline fill="none" stroke="black" points="72.5,-192.5 189.5,-192.5 "/>
<text text-anchor="middle" x="131" y="-180.5" font-family="Helvetica,sans-Serif" font-size="10.00"> </text>
<polyline fill="none" stroke="black" points="72.5,-173.5 189.5,-173.5 "/>
<text text-anchor="start" x="80.5" y="-161.5" font-family="Helvetica,sans-Serif" font-size="10.00">+ Detector()</text>
<text text-anchor="start" x="80.5" y="-150.5" font-family="Helvetica,sans-Serif" font-size="10.00">+ Detector()</text>
<text text-anchor="start" x="80.5" y="-139.5" font-family="Helvetica,sans-Serif" font-size="10.00">+ ~Detector()</text>
<text text-anchor="start" x="80.5" y="-128.5" font-family="Helvetica,sans-Serif" font-size="10.00">+ Initialize()</text>
<text text-anchor="start" x="80.5" y="-117.5" font-family="Helvetica,sans-Serif" font-size="10.00">+ ProcessHits()</text>
<text text-anchor="start" x="80.5" y="-106.5" font-family="Helvetica,sans-Serif" font-size="10.00">+ Register()</text>
<text text-anchor="start" x="80.5" y="-95.5" font-family="Helvetica,sans-Serif" font-size="10.00">+ getHits()</text>
<text text-anchor="start" x="80.5" y="-84.5" font-family="Helvetica,sans-Serif" font-size="10.00">+ Reset()</text>
<text text-anchor="start" x="80.5" y="-73.5" font-family="Helvetica,sans-Serif" font-size="10.00">+ EndOfEvent()</text>
<text text-anchor="start" x="80.5" y="-62.5" font-family="Helvetica,sans-Serif" font-size="10.00">+ CreateMaterials()</text>
<text text-anchor="start" x="80.5" y="-51.5" font-family="Helvetica,sans-Serif" font-size="10.00">+ ConstructGeometry()</text>
<text text-anchor="start" x="80.5" y="-40.5" font-family="Helvetica,sans-Serif" font-size="10.00">+ setTOFholes()</text>
<text text-anchor="start" x="80.5" y="-29.5" font-family="Helvetica,sans-Serif" font-size="10.00"># addHit()</text>
<text text-anchor="start" x="80.5" y="-18.5" font-family="Helvetica,sans-Serif" font-size="10.00"># DefineGeometry()</text>
<text text-anchor="start" x="80.5" y="-7.5" font-family="Helvetica,sans-Serif" font-size="10.00"># MaterialMixer()</text>
</g>
<!-- Node2 -->
<g id="node2" class="node"><title>Node2</title>
<g id="a_node2"><a xlink:href="../../d4/d8a/classo2_1_1Base_1_1DetImpl.html" target="_top" xlink:title="{o2::Base::DetImpl\&lt;\l Detector \&gt;\n||+ updateHitTrackIndices()\l}">
<polygon fill="none" stroke="black" points="66,-251 66,-319 196,-319 196,-251 66,-251"/>
<text text-anchor="start" x="74" y="-307" font-family="Helvetica,sans-Serif" font-size="10.00">o2::Base::DetImpl&lt;</text>
<text text-anchor="middle" x="131" y="-296" font-family="Helvetica,sans-Serif" font-size="10.00"> Detector &gt;</text>
<polyline fill="none" stroke="black" points="66,-289 196,-289 "/>
<text text-anchor="middle" x="131" y="-277" font-family="Helvetica,sans-Serif" font-size="10.00"> </text>
<polyline fill="none" stroke="black" points="66,-270 196,-270 "/>
<text text-anchor="start" x="74" y="-258" font-family="Helvetica,sans-Serif" font-size="10.00">+ updateHitTrackIndices()</text>
</a>
</g>
</g>
<!-- Node2&#45;&gt;Node1 -->
<g id="edge1" class="edge"><title>Node2&#45;&gt;Node1</title>
<path fill="none" stroke="midnightblue" d="M131,-240.624C131,-231.677 131,-221.891 131,-211.812"/>
<polygon fill="none" stroke="midnightblue" points="127.5,-240.708 131,-250.708 134.5,-240.708 127.5,-240.708"/>
</g>
<!-- Node3 -->
<g id="node3" class="node"><title>Node3</title>
<g id="a_node3"><a xlink:href="../../d7/d02/classo2_1_1Base_1_1Detector.html" target="_top" xlink:title="{o2::Base::Detector\n||+ Detector()\l+ Detector()\l+ ~Detector()\l+ Material()\l+ Mixture()\l+ Medium()\l+ Matrix()\l+ defineWrapperVolume()\l+ setNumberOfWrapperVolumes()\l+ defineLayer()\l+ defineLayerTurbo()\l+ getMaterialID()\l+ getMediumID()\l+ getMediumIDMappingAsVector()\l+ addNameTo()\l+ updateHitTrackIndices()\l+ GetCollection()\l+ setDensityFactor()\l+ getDensityFactor()\l+ initFieldTrackingParams()\l# Detector()\l# operator=()\l}">
<polygon fill="none" stroke="black" points="28.5,-477 28.5,-765 195.5,-765 195.5,-477 28.5,-477"/>
<text text-anchor="middle" x="112" y="-753" font-family="Helvetica,sans-Serif" font-size="10.00">o2::Base::Detector</text>
<polyline fill="none" stroke="black" points="28.5,-746 195.5,-746 "/>
<text text-anchor="middle" x="112" y="-734" font-family="Helvetica,sans-Serif" font-size="10.00"> </text>
<polyline fill="none" stroke="black" points="28.5,-727 195.5,-727 "/>
<text text-anchor="start" x="36.5" y="-715" font-family="Helvetica,sans-Serif" font-size="10.00">+ Detector()</text>
<text text-anchor="start" x="36.5" y="-704" font-family="Helvetica,sans-Serif" font-size="10.00">+ Detector()</text>
<text text-anchor="start" x="36.5" y="-693" font-family="Helvetica,sans-Serif" font-size="10.00">+ ~Detector()</text>
<text text-anchor="start" x="36.5" y="-682" font-family="Helvetica,sans-Serif" font-size="10.00">+ Material()</text>
<text text-anchor="start" x="36.5" y="-671" font-family="Helvetica,sans-Serif" font-size="10.00">+ Mixture()</text>
<text text-anchor="start" x="36.5" y="-660" font-family="Helvetica,sans-Serif" font-size="10.00">+ Medium()</text>
<text text-anchor="start" x="36.5" y="-649" font-family="Helvetica,sans-Serif" font-size="10.00">+ Matrix()</text>
<text text-anchor="start" x="36.5" y="-638" font-family="Helvetica,sans-Serif" font-size="10.00">+ defineWrapperVolume()</text>
<text text-anchor="start" x="36.5" y="-627" font-family="Helvetica,sans-Serif" font-size="10.00">+ setNumberOfWrapperVolumes()</text>
<text text-anchor="start" x="36.5" y="-616" font-family="Helvetica,sans-Serif" font-size="10.00">+ defineLayer()</text>
<text text-anchor="start" x="36.5" y="-605" font-family="Helvetica,sans-Serif" font-size="10.00">+ defineLayerTurbo()</text>
<text text-anchor="start" x="36.5" y="-594" font-family="Helvetica,sans-Serif" font-size="10.00">+ getMaterialID()</text>
<text text-anchor="start" x="36.5" y="-583" font-family="Helvetica,sans-Serif" font-size="10.00">+ getMediumID()</text>
<text text-anchor="start" x="36.5" y="-572" font-family="Helvetica,sans-Serif" font-size="10.00">+ getMediumIDMappingAsVector()</text>
<text text-anchor="start" x="36.5" y="-561" font-family="Helvetica,sans-Serif" font-size="10.00">+ addNameTo()</text>
<text text-anchor="start" x="36.5" y="-550" font-family="Helvetica,sans-Serif" font-size="10.00">+ updateHitTrackIndices()</text>
<text text-anchor="start" x="36.5" y="-539" font-family="Helvetica,sans-Serif" font-size="10.00">+ GetCollection()</text>
<text text-anchor="start" x="36.5" y="-528" font-family="Helvetica,sans-Serif" font-size="10.00">+ setDensityFactor()</text>
<text text-anchor="start" x="36.5" y="-517" font-family="Helvetica,sans-Serif" font-size="10.00">+ getDensityFactor()</text>
<text text-anchor="start" x="36.5" y="-506" font-family="Helvetica,sans-Serif" font-size="10.00">+ initFieldTrackingParams()</text>
<text text-anchor="start" x="36.5" y="-495" font-family="Helvetica,sans-Serif" font-size="10.00"># Detector()</text>
<text text-anchor="start" x="36.5" y="-484" font-family="Helvetica,sans-Serif" font-size="10.00"># operator=()</text>
</a>
</g>
</g>
<!-- Node3&#45;&gt;Node2 -->
<g id="edge2" class="edge"><title>Node3&#45;&gt;Node2</title>
<path fill="none" stroke="midnightblue" d="M113.376,-466.824C114.474,-434.167 116.232,-399.909 119,-368 120.405,-351.803 122.908,-333.928 125.266,-319.012"/>
<polygon fill="none" stroke="midnightblue" points="109.875,-466.797 113.055,-476.903 116.871,-467.019 109.875,-466.797"/>
</g>
<!-- Node7 -->
<g id="node7" class="node"><title>Node7</title>
<g id="a_node7"><a xlink:href="../../d4/d8a/classo2_1_1Base_1_1DetImpl.html" target="_top" xlink:title="{o2::Base::DetImpl\&lt;\l Det \&gt;\n||+ updateHitTrackIndices()\l}">
<polygon fill="none" stroke="black" points="128,-369 128,-437 258,-437 258,-369 128,-369"/>
<text text-anchor="start" x="136" y="-425" font-family="Helvetica,sans-Serif" font-size="10.00">o2::Base::DetImpl&lt;</text>
<text text-anchor="middle" x="193" y="-414" font-family="Helvetica,sans-Serif" font-size="10.00"> Det &gt;</text>
<polyline fill="none" stroke="black" points="128,-407 258,-407 "/>
<text text-anchor="middle" x="193" y="-395" font-family="Helvetica,sans-Serif" font-size="10.00"> </text>
<polyline fill="none" stroke="black" points="128,-388 258,-388 "/>
<text text-anchor="start" x="136" y="-376" font-family="Helvetica,sans-Serif" font-size="10.00">+ updateHitTrackIndices()</text>
</a>
</g>
</g>
<!-- Node3&#45;&gt;Node7 -->
<g id="edge7" class="edge"><title>Node3&#45;&gt;Node7</title>
<path fill="none" stroke="midnightblue" d="M169.213,-467.433C173.334,-456.443 177.175,-446.201 180.517,-437.289"/>
<polygon fill="none" stroke="midnightblue" points="165.924,-466.234 165.69,-476.827 172.478,-468.692 165.924,-466.234"/>
</g>
<!-- Node4 -->
<g id="node4" class="node"><title>Node4</title>
<g id="a_node4"><a xlink:href="../../d6/d0c/classFairDetector.html" target="_top" xlink:title="{FairDetector\n||}">
<polygon fill="none" stroke="black" points="-0.5,-824.5 -0.5,-881.5 70.5,-881.5 70.5,-824.5 -0.5,-824.5"/>
<text text-anchor="middle" x="35" y="-869.5" font-family="Helvetica,sans-Serif" font-size="10.00">FairDetector</text>
<polyline fill="none" stroke="black" points="-0.5,-862.5 70.5,-862.5 "/>
<text text-anchor="middle" x="35" y="-850.5" font-family="Helvetica,sans-Serif" font-size="10.00"> </text>
<polyline fill="none" stroke="black" points="-0.5,-843.5 70.5,-843.5 "/>
<text text-anchor="middle" x="35" y="-831.5" font-family="Helvetica,sans-Serif" font-size="10.00"> </text>
</a>
</g>
</g>
<!-- Node4&#45;&gt;Node3 -->
<g id="edge3" class="edge"><title>Node4&#45;&gt;Node3</title>
<path fill="none" stroke="midnightblue" d="M47.5626,-814.475C52.3114,-800.291 58.0444,-783.166 64.1085,-765.053"/>
<polygon fill="none" stroke="midnightblue" points="44.1438,-813.663 44.288,-824.257 50.7817,-815.885 44.1438,-813.663"/>
</g>
<!-- Node5 -->
<g id="node5" class="node"><title>Node5</title>
<g id="a_node5"><a xlink:href="../../d9/d7d/classFloat__t.html" target="_top" xlink:title="{Float_t\n||}">
<polygon fill="none" stroke="black" points="88.5,-824.5 88.5,-881.5 135.5,-881.5 135.5,-824.5 88.5,-824.5"/>
<text text-anchor="middle" x="112" y="-869.5" font-family="Helvetica,sans-Serif" font-size="10.00">Float_t</text>
<polyline fill="none" stroke="black" points="88.5,-862.5 135.5,-862.5 "/>
<text text-anchor="middle" x="112" y="-850.5" font-family="Helvetica,sans-Serif" font-size="10.00"> </text>
<polyline fill="none" stroke="black" points="88.5,-843.5 135.5,-843.5 "/>
<text text-anchor="middle" x="112" y="-831.5" font-family="Helvetica,sans-Serif" font-size="10.00"> </text>
</a>
</g>
</g>
<!-- Node5&#45;&gt;Node3 -->
<g id="edge4" class="edge"><title>Node5&#45;&gt;Node3</title>
<path fill="none" stroke="#404040" d="M112,-824.257C112,-811.43 112,-795.089 112,-777.273"/>
<polygon fill="none" stroke="#404040" points="112,-777.053 108,-771.053 112,-765.053 116,-771.053 112,-777.053"/>
<text text-anchor="middle" x="151.5" y="-792.5" font-family="Helvetica,sans-Serif" font-size="10.00"> #mDensityFactor</text>
</g>
<!-- Node6 -->
<g id="node6" class="node"><title>Node6</title>
<polygon fill="none" stroke="#bfbfbf" points="174,-824.5 174,-881.5 254,-881.5 254,-824.5 174,-824.5"/>
<text text-anchor="middle" x="214" y="-869.5" font-family="Helvetica,sans-Serif" font-size="10.00">map&lt; int, int &gt;</text>
<polyline fill="none" stroke="#bfbfbf" points="174,-862.5 254,-862.5 "/>
<text text-anchor="middle" x="214" y="-850.5" font-family="Helvetica,sans-Serif" font-size="10.00"> </text>
<polyline fill="none" stroke="#bfbfbf" points="174,-843.5 254,-843.5 "/>
<text text-anchor="middle" x="214" y="-831.5" font-family="Helvetica,sans-Serif" font-size="10.00"> </text>
</g>
<!-- Node6&#45;&gt;Node3 -->
<g id="edge5" class="edge"><title>Node6&#45;&gt;Node3</title>
<path fill="none" stroke="#404040" d="M206.014,-824.211C202.181,-811.762 197.276,-796.991 192,-784 190.969,-781.462 189.915,-778.908 188.842,-776.343"/>
<polygon fill="none" stroke="#404040" points="188.726,-776.072 182.691,-772.124 184.014,-765.035 190.049,-768.983 188.726,-776.072"/>
<text text-anchor="middle" x="235" y="-798" font-family="Helvetica,sans-Serif" font-size="10.00"> #mMapMaterial</text>
<text text-anchor="middle" x="235" y="-787" font-family="Helvetica,sans-Serif" font-size="10.00">#mMapMedium</text>
</g>
<!-- Node7&#45;&gt;Node2 -->
<g id="edge6" class="edge"><title>Node7&#45;&gt;Node2</title>
<path fill="none" stroke="orange" d="M170.42,-359.753C163.289,-346.411 155.515,-331.866 148.769,-319.246"/>
<polygon fill="orange" stroke="orange" points="167.433,-361.59 175.233,-368.759 173.606,-358.29 167.433,-361.59"/>
<text text-anchor="middle" x="193.5" y="-341.5" font-family="Helvetica,sans-Serif" font-size="10.00"> &lt; Detector &gt;</text>
</g>
</g>
</svg>
        <g id="navigator" transform="translate(0 0)" fill="#404254">
                <rect fill="#f2f5e9" fill-opacity="0.5" stroke="#606060" stroke-width=".5" x="0" y="0" width="60" height="60"/>
                <use id="zoomplus" xlink:href="#zoomPlus" x="17" y="9" onmousedown="handleZoom(evt,'in')"/>
                <use id="zoomminus" xlink:href="#zoomMin" x="42" y="9" onmousedown="handleZoom(evt,'out')"/>
                <use id="reset" xlink:href="#resetDef" x="30" y="36" onmousedown="handleReset()"/>
                <g id="arrowUp" xlink:href="#dirArrow" transform="translate(30 24)" onmousedown="handlePan(0,-1)">
                  <use xlink:href="#rim" fill="#404040">
                        <set attributeName="fill" to="#808080" begin="arrowUp.mouseover" end="arrowUp.mouseout"/>
                  </use>
                  <path fill="none" stroke="white" stroke-width="1.5" d="M0,-3.0v7 M-2.5,-0.5L0,-3.0L2.5,-0.5"/>
                </g>
                <g id="arrowRight" xlink:href="#dirArrow" transform="rotate(90) translate(36 -43)" onmousedown="handlePan(1,0)">
                  <use xlink:href="#rim" fill="#404040">
                        <set attributeName="fill" to="#808080" begin="arrowRight.mouseover" end="arrowRight.mouseout"/>
                  </use>
                  <path fill="none" stroke="white" stroke-width="1.5" d="M0,-3.0v7 M-2.5,-0.5L0,-3.0L2.5,-0.5"/>
                </g>
                <g id="arrowDown" xlink:href="#dirArrow" transform="rotate(180) translate(-30 -48)" onmousedown="handlePan(0,1)">
                  <use xlink:href="#rim" fill="#404040">
                        <set attributeName="fill" to="#808080" begin="arrowDown.mouseover" end="arrowDown.mouseout"/>
                  </use>
                  <path fill="none" stroke="white" stroke-width="1.5" d="M0,-3.0v7 M-2.5,-0.5L0,-3.0L2.5,-0.5"/>
                </g>
                <g id="arrowLeft" xlink:href="#dirArrow" transform="rotate(270) translate(-36 17)" onmousedown="handlePan(-1,0)">
                  <use xlink:href="#rim" fill="#404040">
                        <set attributeName="fill" to="#808080" begin="arrowLeft.mouseover" end="arrowLeft.mouseout"/>
                  </use>
                  <path fill="none" stroke="white" stroke-width="1.5" d="M0,-3.0v7 M-2.5,-0.5L0,-3.0L2.5,-0.5"/>
                </g>
        </g>
        <svg viewBox="0 0 15 15" width="100%" height="30px" preserveAspectRatio="xMaxYMin meet">
         <g id="arrow_out" transform="scale(0.3 0.3)">
          <a xlink:href="classo2_1_1tof_1_1Detector__coll__graph_org.svg" target="_base">
           <rect id="button" ry="5" rx="5" y="6" x="6" height="38" width="38"
                fill="#f2f5e9" fill-opacity="0.5" stroke="#606060" stroke-width="1.0"/>
           <path id="arrow"
             d="M 11.500037,31.436501 C 11.940474,20.09759 22.043105,11.32322 32.158766,21.979434 L 37.068811,17.246167 C 37.068811,17.246167 37.088388,32 37.088388,32 L 22.160133,31.978069 C 22.160133,31.978069 26.997745,27.140456 26.997745,27.140456 C 18.528582,18.264221 13.291696,25.230495 11.500037,31.436501 z"
             style="fill:#404040;"/>
          </a>
         </g>
        </svg>
</svg>
