<?xml version="1.0" encoding="UTF-8" standalone="no"?>
<!DOCTYPE svg PUBLIC "-//W3C//DTD SVG 1.1//EN"
 "http://www.w3.org/Graphics/SVG/1.1/DTD/svg11.dtd">
<!-- Generated by graphviz version 2.36.0 (20140111.2315)
 -->
<!-- Title: o2::Header::NameHeader&lt; N &gt; Pages: 1 -->
<svg width="971pt" height="964pt"
 viewBox="0.00 0.00 971.47 964.00" xmlns="http://www.w3.org/2000/svg" xmlns:xlink="http://www.w3.org/1999/xlink">
<g id="graph0" class="graph" transform="scale(1 1) rotate(0) translate(4 960)">
<title>o2::Header::NameHeader&lt; N &gt;</title>
<!-- Node1 -->
<g id="node1" class="node"><title>Node1</title>
<polygon fill="#bfbfbf" stroke="black" points="600.471,-0.5 600.471,-101.5 754.471,-101.5 754.471,-0.5 600.471,-0.5"/>
<text text-anchor="middle" x="677.471" y="-89.5" font-family="Helvetica,sans-Serif" font-size="10.00">o2::Header::NameHeader&lt; N &gt;</text>
<polyline fill="none" stroke="black" points="600.471,-82.5 754.471,-82.5 "/>
<text text-anchor="middle" x="677.471" y="-70.5" font-family="Helvetica,sans-Serif" font-size="10.00"> </text>
<polyline fill="none" stroke="black" points="600.471,-63.5 754.471,-63.5 "/>
<text text-anchor="start" x="608.471" y="-51.5" font-family="Helvetica,sans-Serif" font-size="10.00">+ NameHeader()</text>
<text text-anchor="start" x="608.471" y="-40.5" font-family="Helvetica,sans-Serif" font-size="10.00">+ NameHeader()</text>
<text text-anchor="start" x="608.471" y="-29.5" font-family="Helvetica,sans-Serif" font-size="10.00">+ operator=()</text>
<text text-anchor="start" x="608.471" y="-18.5" font-family="Helvetica,sans-Serif" font-size="10.00">+ sHeaderType()</text>
<text text-anchor="start" x="608.471" y="-7.5" font-family="Helvetica,sans-Serif" font-size="10.00">+ sHeaderType()</text>
</g>
<!-- Node2 -->
<g id="node2" class="node"><title>Node2</title>
<g id="a_node2"><a xlink:href="../../d9/d75/structo2_1_1Header_1_1BaseHeader.html" target="_top" xlink:title="the base header struct Every header type must begin (i.e. derive) with this. Don&#39;t use this struct di...">
<polygon fill="none" stroke="black" points="614.971,-140.5 614.971,-263.5 739.971,-263.5 739.971,-140.5 614.971,-140.5"/>
<text text-anchor="middle" x="677.471" y="-251.5" font-family="Helvetica,sans-Serif" font-size="10.00">o2::Header::BaseHeader</text>
<polyline fill="none" stroke="black" points="614.971,-244.5 739.971,-244.5 "/>
<text text-anchor="middle" x="677.471" y="-232.5" font-family="Helvetica,sans-Serif" font-size="10.00"> </text>
<polyline fill="none" stroke="black" points="614.971,-225.5 739.971,-225.5 "/>
<text text-anchor="start" x="622.971" y="-213.5" font-family="Helvetica,sans-Serif" font-size="10.00">+ BaseHeader()</text>
<text text-anchor="start" x="622.971" y="-202.5" font-family="Helvetica,sans-Serif" font-size="10.00">+ BaseHeader()</text>
<text text-anchor="start" x="622.971" y="-191.5" font-family="Helvetica,sans-Serif" font-size="10.00">+ BaseHeader()</text>
<text text-anchor="start" x="622.971" y="-180.5" font-family="Helvetica,sans-Serif" font-size="10.00">+ size()</text>
<text text-anchor="start" x="622.971" y="-169.5" font-family="Helvetica,sans-Serif" font-size="10.00">+ data()</text>
<text text-anchor="start" x="622.971" y="-158.5" font-family="Helvetica,sans-Serif" font-size="10.00">+ next()</text>
<text text-anchor="start" x="622.971" y="-147.5" font-family="Helvetica,sans-Serif" font-size="10.00">+ get()</text>
</a>
</g>
</g>
<!-- Node2&#45;&gt;Node1 -->
<g id="edge1" class="edge"><title>Node2&#45;&gt;Node1</title>
<path fill="none" stroke="midnightblue" d="M677.471,-130.339C677.471,-120.631 677.471,-110.835 677.471,-101.615"/>
<polygon fill="none" stroke="midnightblue" points="673.971,-130.396 677.471,-140.396 680.971,-130.396 673.971,-130.396"/>
</g>
<!-- Node3 -->
<g id="node3" class="node"><title>Node3</title>
<g id="a_node3"><a xlink:href="../../d0/da5/structo2_1_1Header_1_1Descriptor.html" target="_top" xlink:title="{o2::Header::Descriptor\l\&lt; gSizeHeaderDescriptionString \&gt;\n||+ Descriptor()\l+ Descriptor()\l+ Descriptor()\l+ Descriptor()\l+ operator=()\l+ operator ItgType()\l+ runtimeInit()\l+ operator==()\l+ operator==()\l+ operator!=()\l+ operator!=()\l+ print()\l}">
<polygon fill="none" stroke="black" points="224.471,-388.5 224.471,-577.5 390.471,-577.5 390.471,-388.5 224.471,-388.5"/>
<text text-anchor="start" x="232.471" y="-565.5" font-family="Helvetica,sans-Serif" font-size="10.00">o2::Header::Descriptor</text>
<text text-anchor="middle" x="307.471" y="-554.5" font-family="Helvetica,sans-Serif" font-size="10.00">&lt; gSizeHeaderDescriptionString &gt;</text>
<polyline fill="none" stroke="black" points="224.471,-547.5 390.471,-547.5 "/>
<text text-anchor="middle" x="307.471" y="-535.5" font-family="Helvetica,sans-Serif" font-size="10.00"> </text>
<polyline fill="none" stroke="black" points="224.471,-528.5 390.471,-528.5 "/>
<text text-anchor="start" x="232.471" y="-516.5" font-family="Helvetica,sans-Serif" font-size="10.00">+ Descriptor()</text>
<text text-anchor="start" x="232.471" y="-505.5" font-family="Helvetica,sans-Serif" font-size="10.00">+ Descriptor()</text>
<text text-anchor="start" x="232.471" y="-494.5" font-family="Helvetica,sans-Serif" font-size="10.00">+ Descriptor()</text>
<text text-anchor="start" x="232.471" y="-483.5" font-family="Helvetica,sans-Serif" font-size="10.00">+ Descriptor()</text>
<text text-anchor="start" x="232.471" y="-472.5" font-family="Helvetica,sans-Serif" font-size="10.00">+ operator=()</text>
<text text-anchor="start" x="232.471" y="-461.5" font-family="Helvetica,sans-Serif" font-size="10.00">+ operator ItgType()</text>
<text text-anchor="start" x="232.471" y="-450.5" font-family="Helvetica,sans-Serif" font-size="10.00">+ runtimeInit()</text>
<text text-anchor="start" x="232.471" y="-439.5" font-family="Helvetica,sans-Serif" font-size="10.00">+ operator==()</text>
<text text-anchor="start" x="232.471" y="-428.5" font-family="Helvetica,sans-Serif" font-size="10.00">+ operator==()</text>
<text text-anchor="start" x="232.471" y="-417.5" font-family="Helvetica,sans-Serif" font-size="10.00">+ operator!=()</text>
<text text-anchor="start" x="232.471" y="-406.5" font-family="Helvetica,sans-Serif" font-size="10.00">+ operator!=()</text>
<text text-anchor="start" x="232.471" y="-395.5" font-family="Helvetica,sans-Serif" font-size="10.00">+ print()</text>
</a>
</g>
</g>
<!-- Node3&#45;&gt;Node2 -->
<g id="edge2" class="edge"><title>Node3&#45;&gt;Node2</title>
<path fill="none" stroke="#404040" d="M390.645,-388.577C425.888,-352.408 468.857,-312.469 512.471,-282 540.521,-262.404 574.184,-245.31 603.769,-232.083"/>
<polygon fill="none" stroke="#404040" points="603.899,-232.026 607.786,-225.953 614.888,-227.206 611,-233.279 603.899,-232.026"/>
<text text-anchor="middle" x="540.971" y="-323.5" font-family="Helvetica,sans-Serif" font-size="10.00"> +description</text>
</g>
<!-- Node4 -->
<g id="node4" class="node"><title>Node4</title>
<polygon fill="none" stroke="#bfbfbf" points="300.471,-897.5 300.471,-954.5 338.471,-954.5 338.471,-897.5 300.471,-897.5"/>
<text text-anchor="middle" x="319.471" y="-942.5" font-family="Helvetica,sans-Serif" font-size="10.00">Type</text>
<polyline fill="none" stroke="#bfbfbf" points="300.471,-935.5 338.471,-935.5 "/>
<text text-anchor="middle" x="319.471" y="-923.5" font-family="Helvetica,sans-Serif" font-size="10.00"> </text>
<polyline fill="none" stroke="#bfbfbf" points="300.471,-916.5 338.471,-916.5 "/>
<text text-anchor="middle" x="319.471" y="-904.5" font-family="Helvetica,sans-Serif" font-size="10.00"> </text>
</g>
<!-- Node4&#45;&gt;Node3 -->
<g id="edge3" class="edge"><title>Node4&#45;&gt;Node3</title>
<path fill="none" stroke="#404040" d="M300.432,-920.855C263.005,-911.529 180.85,-884.939 150.471,-826 111.782,-750.94 119.68,-714.631 150.471,-636 157.71,-617.512 185.275,-588.733 215.334,-561.168"/>
<polygon fill="none" stroke="#404040" points="215.399,-561.11 217.16,-554.117 224.292,-553.052 222.531,-560.045 215.399,-561.11"/>
<text text-anchor="middle" x="160.471" y="-728.5" font-family="Helvetica,sans-Serif" font-size="10.00"> +itg</text>
</g>
<!-- Node8 -->
<g id="node8" class="node"><title>Node8</title>
<g id="a_node8"><a xlink:href="../../d0/da5/structo2_1_1Header_1_1Descriptor.html" target="_top" xlink:title="{o2::Header::Descriptor\l\&lt; N, PrinterPolicy \&gt;\n||+ Descriptor()\l+ Descriptor()\l+ Descriptor()\l+ operator=()\l+ operator ItgType()\l+ Descriptor()\l+ runtimeInit()\l+ operator==()\l+ operator!=()\l+ operator==()\l+ operator!=()\l+ print()\l}">
<polygon fill="none" stroke="black" points="261.471,-636.5 261.471,-825.5 377.471,-825.5 377.471,-636.5 261.471,-636.5"/>
<text text-anchor="start" x="269.471" y="-813.5" font-family="Helvetica,sans-Serif" font-size="10.00">o2::Header::Descriptor</text>
<text text-anchor="middle" x="319.471" y="-802.5" font-family="Helvetica,sans-Serif" font-size="10.00">&lt; N, PrinterPolicy &gt;</text>
<polyline fill="none" stroke="black" points="261.471,-795.5 377.471,-795.5 "/>
<text text-anchor="middle" x="319.471" y="-783.5" font-family="Helvetica,sans-Serif" font-size="10.00"> </text>
<polyline fill="none" stroke="black" points="261.471,-776.5 377.471,-776.5 "/>
<text text-anchor="start" x="269.471" y="-764.5" font-family="Helvetica,sans-Serif" font-size="10.00">+ Descriptor()</text>
<text text-anchor="start" x="269.471" y="-753.5" font-family="Helvetica,sans-Serif" font-size="10.00">+ Descriptor()</text>
<text text-anchor="start" x="269.471" y="-742.5" font-family="Helvetica,sans-Serif" font-size="10.00">+ Descriptor()</text>
<text text-anchor="start" x="269.471" y="-731.5" font-family="Helvetica,sans-Serif" font-size="10.00">+ operator=()</text>
<text text-anchor="start" x="269.471" y="-720.5" font-family="Helvetica,sans-Serif" font-size="10.00">+ operator ItgType()</text>
<text text-anchor="start" x="269.471" y="-709.5" font-family="Helvetica,sans-Serif" font-size="10.00">+ Descriptor()</text>
<text text-anchor="start" x="269.471" y="-698.5" font-family="Helvetica,sans-Serif" font-size="10.00">+ runtimeInit()</text>
<text text-anchor="start" x="269.471" y="-687.5" font-family="Helvetica,sans-Serif" font-size="10.00">+ operator==()</text>
<text text-anchor="start" x="269.471" y="-676.5" font-family="Helvetica,sans-Serif" font-size="10.00">+ operator!=()</text>
<text text-anchor="start" x="269.471" y="-665.5" font-family="Helvetica,sans-Serif" font-size="10.00">+ operator==()</text>
<text text-anchor="start" x="269.471" y="-654.5" font-family="Helvetica,sans-Serif" font-size="10.00">+ operator!=()</text>
<text text-anchor="start" x="269.471" y="-643.5" font-family="Helvetica,sans-Serif" font-size="10.00">+ print()</text>
</a>
</g>
</g>
<!-- Node4&#45;&gt;Node8 -->
<g id="edge8" class="edge"><title>Node4&#45;&gt;Node8</title>
<path fill="none" stroke="#404040" d="M319.471,-897.348C319.471,-881.342 319.471,-860.063 319.471,-838.114"/>
<polygon fill="none" stroke="#404040" points="319.471,-837.881 315.471,-831.881 319.471,-825.881 323.471,-831.881 319.471,-837.881"/>
<text text-anchor="middle" x="329.471" y="-858.5" font-family="Helvetica,sans-Serif" font-size="10.00"> +itg</text>
</g>
<!-- Node9 -->
<g id="node9" class="node"><title>Node9</title>
<g id="a_node9"><a xlink:href="../../d0/da5/structo2_1_1Header_1_1Descriptor.html" target="_top" xlink:title="{o2::Header::Descriptor\l\&lt; gSizeSerializationMethodString \&gt;\n||+ Descriptor()\l+ Descriptor()\l+ Descriptor()\l+ Descriptor()\l+ operator=()\l+ operator ItgType()\l+ runtimeInit()\l+ operator==()\l+ operator==()\l+ operator!=()\l+ operator!=()\l+ print()\l}">
<polygon fill="none" stroke="black" points="472.471,-388.5 472.471,-577.5 642.471,-577.5 642.471,-388.5 472.471,-388.5"/>
<text text-anchor="start" x="480.471" y="-565.5" font-family="Helvetica,sans-Serif" font-size="10.00">o2::Header::Descriptor</text>
<text text-anchor="middle" x="557.471" y="-554.5" font-family="Helvetica,sans-Serif" font-size="10.00">&lt; gSizeSerializationMethodString &gt;</text>
<polyline fill="none" stroke="black" points="472.471,-547.5 642.471,-547.5 "/>
<text text-anchor="middle" x="557.471" y="-535.5" font-family="Helvetica,sans-Serif" font-size="10.00"> </text>
<polyline fill="none" stroke="black" points="472.471,-528.5 642.471,-528.5 "/>
<text text-anchor="start" x="480.471" y="-516.5" font-family="Helvetica,sans-Serif" font-size="10.00">+ Descriptor()</text>
<text text-anchor="start" x="480.471" y="-505.5" font-family="Helvetica,sans-Serif" font-size="10.00">+ Descriptor()</text>
<text text-anchor="start" x="480.471" y="-494.5" font-family="Helvetica,sans-Serif" font-size="10.00">+ Descriptor()</text>
<text text-anchor="start" x="480.471" y="-483.5" font-family="Helvetica,sans-Serif" font-size="10.00">+ Descriptor()</text>
<text text-anchor="start" x="480.471" y="-472.5" font-family="Helvetica,sans-Serif" font-size="10.00">+ operator=()</text>
<text text-anchor="start" x="480.471" y="-461.5" font-family="Helvetica,sans-Serif" font-size="10.00">+ operator ItgType()</text>
<text text-anchor="start" x="480.471" y="-450.5" font-family="Helvetica,sans-Serif" font-size="10.00">+ runtimeInit()</text>
<text text-anchor="start" x="480.471" y="-439.5" font-family="Helvetica,sans-Serif" font-size="10.00">+ operator==()</text>
<text text-anchor="start" x="480.471" y="-428.5" font-family="Helvetica,sans-Serif" font-size="10.00">+ operator==()</text>
<text text-anchor="start" x="480.471" y="-417.5" font-family="Helvetica,sans-Serif" font-size="10.00">+ operator!=()</text>
<text text-anchor="start" x="480.471" y="-406.5" font-family="Helvetica,sans-Serif" font-size="10.00">+ operator!=()</text>
<text text-anchor="start" x="480.471" y="-395.5" font-family="Helvetica,sans-Serif" font-size="10.00">+ print()</text>
</a>
</g>
</g>
<!-- Node4&#45;&gt;Node9 -->
<g id="edge15" class="edge"><title>Node4&#45;&gt;Node9</title>
<path fill="none" stroke="#404040" d="M338.499,-925.308C371.035,-924.69 436.895,-918.215 468.471,-878 501.754,-835.61 451.652,-678.751 484.471,-636 499.619,-616.267 521.525,-637.094 537.471,-618 544.557,-609.515 549.715,-599.628 553.415,-589.141"/>
<polygon fill="none" stroke="#404040" points="553.439,-589.06 551.327,-582.166 556.879,-577.564 558.991,-584.459 553.439,-589.06"/>
<text text-anchor="middle" x="494.471" y="-728.5" font-family="Helvetica,sans-Serif" font-size="10.00"> +itg</text>
</g>
<!-- Node5 -->
<g id="node5" class="node"><title>Node5</title>
<polygon fill="none" stroke="#bfbfbf" points="629.971,-897 629.971,-955 658.971,-955 658.971,-897 629.971,-897"/>
<polyline fill="none" stroke="#bfbfbf" points="629.971,-935 658.971,-935 "/>
<text text-anchor="middle" x="644.471" y="-923" font-family="Helvetica,sans-Serif" font-size="10.00"> </text>
<polyline fill="none" stroke="#bfbfbf" points="629.971,-916 658.971,-916 "/>
<text text-anchor="middle" x="644.471" y="-904" font-family="Helvetica,sans-Serif" font-size="10.00"> </text>
</g>
<!-- Node5&#45;&gt;Node2 -->
<g id="edge13" class="edge"><title>Node5&#45;&gt;Node2</title>
<path fill="none" stroke="#404040" d="M659.046,-919.189C674.87,-912.044 699.483,-898.312 711.471,-878 770.544,-777.908 733.24,-734.057 739.471,-618 745.967,-497.013 717.852,-358.064 697.357,-275.561"/>
<polygon fill="none" stroke="#404040" points="697.327,-275.442 691.982,-270.602 694.394,-263.807 699.739,-268.647 697.327,-275.442"/>
<text text-anchor="middle" x="752.971" y="-604.5" font-family="Helvetica,sans-Serif" font-size="10.00"> +@5</text>
</g>
<!-- Node5&#45;&gt;Node2 -->
<g id="edge20" class="edge"><title>Node5&#45;&gt;Node2</title>
<path fill="none" stroke="#404040" d="M659.238,-920.831C678.905,-914.577 713.628,-900.98 734.471,-878 791.315,-815.328 768.061,-659.926 769.471,-618 774.537,-467.298 776.396,-422.815 722.471,-282 721.567,-279.639 720.6,-277.265 719.581,-274.887"/>
<polygon fill="none" stroke="#404040" points="719.489,-274.687 713.35,-270.904 714.48,-263.782 720.62,-267.565 719.489,-274.687"/>
<text text-anchor="middle" x="782.971" y="-604.5" font-family="Helvetica,sans-Serif" font-size="10.00"> +@7</text>
</g>
<!-- Node5&#45;&gt;Node3 -->
<g id="edge4" class="edge"><title>Node5&#45;&gt;Node3</title>
<path fill="none" stroke="#404040" d="M629.957,-917.916C603.828,-904.271 549.455,-871.612 526.471,-826 503.428,-780.272 543.041,-637.079 512.471,-596 498.62,-577.388 484.39,-588.032 463.471,-578 442.834,-568.103 421.395,-556.288 401.258,-544.43"/>
<polygon fill="none" stroke="#404040" points="401.168,-544.377 393.966,-544.743 390.858,-538.236 398.06,-537.87 401.168,-544.377"/>
<text text-anchor="middle" x="538.971" y="-728.5" font-family="Helvetica,sans-Serif" font-size="10.00"> +@3</text>
</g>
<!-- Node5&#45;&gt;Node8 -->
<g id="edge9" class="edge"><title>Node5&#45;&gt;Node8</title>
<path fill="none" stroke="#404040" d="M629.689,-922.147C588.455,-913.613 470.052,-885.129 391.471,-826 389.982,-824.88 388.509,-823.721 387.051,-822.528"/>
<polygon fill="none" stroke="#404040" points="386.645,-822.168 379.503,-821.175 377.672,-814.2 384.814,-815.193 386.645,-822.168"/>
<text text-anchor="middle" x="494.971" y="-858.5" font-family="Helvetica,sans-Serif" font-size="10.00"> +@3</text>
</g>
<!-- Node5&#45;&gt;Node9 -->
<g id="edge16" class="edge"><title>Node5&#45;&gt;Node9</title>
<path fill="none" stroke="#404040" d="M642.104,-896.832C637.396,-844.832 625.462,-730.441 604.471,-636 601.104,-620.852 596.951,-605.032 592.52,-589.565"/>
<polygon fill="none" stroke="#404040" points="592.454,-589.34 586.931,-584.705 589.085,-577.823 594.609,-582.459 592.454,-589.34"/>
<text text-anchor="middle" x="647.971" y="-728.5" font-family="Helvetica,sans-Serif" font-size="10.00"> +@3</text>
</g>
<!-- Node6 -->
<g id="node6" class="node"><title>Node6</title>
<polygon fill="none" stroke="#bfbfbf" points="461.971,-897.5 461.971,-954.5 496.971,-954.5 496.971,-897.5 461.971,-897.5"/>
<text text-anchor="middle" x="479.471" y="-942.5" font-family="Helvetica,sans-Serif" font-size="10.00">char</text>
<polyline fill="none" stroke="#bfbfbf" points="461.971,-935.5 496.971,-935.5 "/>
<text text-anchor="middle" x="479.471" y="-923.5" font-family="Helvetica,sans-Serif" font-size="10.00"> </text>
<polyline fill="none" stroke="#bfbfbf" points="461.971,-916.5 496.971,-916.5 "/>
<text text-anchor="middle" x="479.471" y="-904.5" font-family="Helvetica,sans-Serif" font-size="10.00"> </text>
</g>
<!-- Node6&#45;&gt;Node2 -->
<g id="edge12" class="edge"><title>Node6&#45;&gt;Node2</title>
<path fill="none" stroke="#404040" d="M496.975,-921.714C535.348,-913.468 626.476,-887.95 664.471,-826 671.568,-814.428 675.529,-437.826 676.908,-275.865"/>
<polygon fill="none" stroke="#404040" points="676.909,-275.654 672.96,-269.621 677.01,-263.654 680.96,-269.688 676.909,-275.654"/>
<text text-anchor="middle" x="703.971" y="-604.5" font-family="Helvetica,sans-Serif" font-size="10.00"> +magicString</text>
</g>
<!-- Node6&#45;&gt;Node3 -->
<g id="edge5" class="edge"><title>Node6&#45;&gt;Node3</title>
<path fill="none" stroke="#404040" d="M461.855,-915.022C449.055,-906.796 432.46,-893.914 423.471,-878 369.927,-783.203 419.195,-739.519 385.471,-636 380.369,-620.341 373.812,-604.325 366.67,-588.843"/>
<polygon fill="none" stroke="#404040" points="366.517,-588.52 360.333,-584.811 361.378,-577.676 367.562,-581.385 366.517,-588.52"/>
<text text-anchor="middle" x="412.971" y="-728.5" font-family="Helvetica,sans-Serif" font-size="10.00"> +str</text>
</g>
<!-- Node6&#45;&gt;Node8 -->
<g id="edge10" class="edge"><title>Node6&#45;&gt;Node8</title>
<path fill="none" stroke="#404040" d="M461.782,-921.506C438.696,-916.069 398.425,-903.452 374.471,-878 363.267,-866.096 354.289,-851.691 347.11,-836.625"/>
<polygon fill="none" stroke="#404040" points="347.068,-836.53 340.976,-832.671 342.195,-825.564 348.287,-829.422 347.068,-836.53"/>
<text text-anchor="middle" x="384.971" y="-858.5" font-family="Helvetica,sans-Serif" font-size="10.00"> +str</text>
</g>
<!-- Node6&#45;&gt;Node9 -->
<g id="edge17" class="edge"><title>Node6&#45;&gt;Node9</title>
<path fill="none" stroke="#404040" d="M497.123,-908.759C515.489,-890.61 543.24,-859.364 555.471,-826 583.136,-750.533 582.102,-659.247 574.985,-589.975"/>
<polygon fill="none" stroke="#404040" points="574.952,-589.672 570.321,-584.144 573.642,-577.744 578.273,-583.271 574.952,-589.672"/>
<text text-anchor="middle" x="589.971" y="-728.5" font-family="Helvetica,sans-Serif" font-size="10.00"> +str</text>
</g>
<!-- Node7 -->
<g id="node7" class="node"><title>Node7</title>
<polygon fill="none" stroke="#bfbfbf" points="177.971,-897.5 177.971,-954.5 206.971,-954.5 206.971,-897.5 177.971,-897.5"/>
<text text-anchor="middle" x="192.471" y="-942.5" font-family="Helvetica,sans-Serif" font-size="10.00">int</text>
<polyline fill="none" stroke="#bfbfbf" points="177.971,-935.5 206.971,-935.5 "/>
<text text-anchor="middle" x="192.471" y="-923.5" font-family="Helvetica,sans-Serif" font-size="10.00"> </text>
<polyline fill="none" stroke="#bfbfbf" points="177.971,-916.5 206.971,-916.5 "/>
<text text-anchor="middle" x="192.471" y="-904.5" font-family="Helvetica,sans-Serif" font-size="10.00"> </text>
</g>
<!-- Node7&#45;&gt;Node3 -->
<g id="edge6" class="edge"><title>Node7&#45;&gt;Node3</title>
<path fill="none" stroke="#404040" d="M177.941,-918.634C150.626,-905.755 92.3178,-873.717 69.4707,-826 33.0033,-749.836 24.8316,-707.681 69.4707,-636 100.362,-586.395 137.98,-609.074 187.471,-578 196.346,-572.428 205.346,-566.33 214.221,-560.003"/>
<polygon fill="none" stroke="#404040" points="214.463,-559.828 216.968,-553.066 224.174,-552.778 221.668,-559.54 214.463,-559.828"/>
<text text-anchor="middle" x="94.9707" y="-739.5" font-family="Helvetica,sans-Serif" font-size="10.00"> +arraySize</text>
<text text-anchor="middle" x="94.9707" y="-728.5" font-family="Helvetica,sans-Serif" font-size="10.00">+size</text>
<text text-anchor="middle" x="94.9707" y="-717.5" font-family="Helvetica,sans-Serif" font-size="10.00">+bitcount</text>
</g>
<!-- Node7&#45;&gt;Node8 -->
<g id="edge11" class="edge"><title>Node7&#45;&gt;Node8</title>
<path fill="none" stroke="#404040" d="M207.039,-902.86C218.993,-884.695 236.817,-857.608 254.768,-830.327"/>
<polygon fill="none" stroke="#404040" points="254.781,-830.308 254.738,-823.097 261.377,-820.284 261.421,-827.495 254.781,-830.308"/>
<text text-anchor="middle" x="270.971" y="-869.5" font-family="Helvetica,sans-Serif" font-size="10.00"> +arraySize</text>
<text text-anchor="middle" x="270.971" y="-858.5" font-family="Helvetica,sans-Serif" font-size="10.00">+size</text>
<text text-anchor="middle" x="270.971" y="-847.5" font-family="Helvetica,sans-Serif" font-size="10.00">+bitcount</text>
</g>
<!-- Node7&#45;&gt;Node9 -->
<g id="edge18" class="edge"><title>Node7&#45;&gt;Node9</title>
<path fill="none" stroke="#404040" d="M189.065,-897.39C181.738,-832.717 167.732,-674.012 201.471,-636 219.225,-615.997 294.996,-626.144 320.471,-618 369.758,-602.244 420.231,-575.459 461.863,-549.96"/>
<polygon fill="none" stroke="#404040" points="462.055,-549.84 465.044,-543.278 472.251,-543.512 469.263,-550.075 462.055,-549.84"/>
<text text-anchor="middle" x="226.971" y="-739.5" font-family="Helvetica,sans-Serif" font-size="10.00"> +arraySize</text>
<text text-anchor="middle" x="226.971" y="-728.5" font-family="Helvetica,sans-Serif" font-size="10.00">+size</text>
<text text-anchor="middle" x="226.971" y="-717.5" font-family="Helvetica,sans-Serif" font-size="10.00">+bitcount</text>
</g>
<!-- Node8&#45;&gt;Node1 -->
<g id="edge24" class="edge"><title>Node8&#45;&gt;Node1</title>
<path fill="none" stroke="#404040" d="M261.361,-639.313C259.765,-638.151 258.135,-637.044 256.471,-636 208.187,-605.69 181.576,-641.13 129.471,-618 104.089,-606.733 95.7472,-601.819 81.4707,-578 13.128,-463.976 -37.9725,-390.759 38.4707,-282 164.465,-102.742 444.259,-62.5371 588.169,-53.9642"/>
<polygon fill="none" stroke="#404040" points="588.416,-53.9507 594.188,-49.6277 600.398,-53.2926 594.627,-57.6156 588.416,-53.9507"/>
<text text-anchor="middle" x="86.9707" y="-329" font-family="Helvetica,sans-Serif" font-size="10.00"> +sHeaderType</text>
<text text-anchor="middle" x="86.9707" y="-318" font-family="Helvetica,sans-Serif" font-size="10.00">+sSerializationMethod</text>
</g>
<!-- Node8&#45;&gt;Node2 -->
<g id="edge22" class="edge"><title>Node8&#45;&gt;Node2</title>
<path fill="none" stroke="#404040" d="M261.137,-646.91C256.769,-642.95 252.207,-639.27 247.471,-636 224.561,-620.181 213.022,-629.057 187.471,-618 154.939,-603.922 136.167,-608.714 118.471,-578 76.3132,-504.832 70.1212,-457.233 118.471,-388 174.931,-307.153 463.774,-243.092 602.676,-216.433"/>
<polygon fill="none" stroke="#404040" points="603.043,-216.364 608.19,-211.313 614.832,-214.122 609.685,-219.173 603.043,-216.364"/>
<text text-anchor="middle" x="166.971" y="-486" font-family="Helvetica,sans-Serif" font-size="10.00"> +sHeaderType</text>
<text text-anchor="middle" x="166.971" y="-475" font-family="Helvetica,sans-Serif" font-size="10.00">+sSerializationMethod</text>
</g>
<!-- Node8&#45;&gt;Node3 -->
<g id="edge7" class="edge"><title>Node8&#45;&gt;Node3</title>
<path fill="none" stroke="orange" d="M253.676,-640.86C251.64,-639.17 249.571,-637.546 247.471,-636 228.787,-622.245 211.75,-637.025 198.471,-618 179.333,-590.581 197.543,-561.627 224.199,-537.676"/>
<polygon fill="orange" stroke="orange" points="251.556,-643.659 261.357,-647.682 256.204,-638.425 251.556,-643.659"/>
<text text-anchor="start" x="198.471" y="-610" font-family="Helvetica,sans-Serif" font-size="10.00"> &lt; gSizeHeaderDescription</text>
<text text-anchor="middle" x="257.471" y="-599" font-family="Helvetica,sans-Serif" font-size="10.00">String &gt;</text>
</g>
<!-- Node8&#45;&gt;Node9 -->
<g id="edge19" class="edge"><title>Node8&#45;&gt;Node9</title>
<path fill="none" stroke="orange" d="M383.871,-632.001C393.578,-619.428 403.898,-607.09 414.471,-596 431.879,-577.741 452.372,-559.956 472.321,-544.133"/>
<polygon fill="orange" stroke="orange" points="380.841,-630.204 377.584,-640.286 386.417,-634.435 380.841,-630.204"/>
<text text-anchor="start" x="414.471" y="-610" font-family="Helvetica,sans-Serif" font-size="10.00"> &lt; gSizeSerializationMethod</text>
<text text-anchor="middle" x="475.971" y="-599" font-family="Helvetica,sans-Serif" font-size="10.00">String &gt;</text>
</g>
<!-- Node9&#45;&gt;Node2 -->
<g id="edge14" class="edge"><title>Node9&#45;&gt;Node2</title>
<path fill="none" stroke="#404040" d="M567.836,-388.486C574.395,-353.594 585.081,-314.574 602.471,-282 604.099,-278.95 605.877,-275.933 607.775,-272.959"/>
<polygon fill="none" stroke="#404040" points="607.818,-272.898 607.945,-265.688 614.65,-263.033 614.522,-270.243 607.818,-272.898"/>
<text text-anchor="middle" x="632.971" y="-323.5" font-family="Helvetica,sans-Serif" font-size="10.00"> +serialization</text>
</g>
<!-- Node10 -->
<g id="node10" class="node"><title>Node10</title>
<polygon fill="none" stroke="#bfbfbf" points="874.971,-454.5 874.971,-511.5 925.971,-511.5 925.971,-454.5 874.971,-454.5"/>
<text text-anchor="middle" x="900.471" y="-499.5" font-family="Helvetica,sans-Serif" font-size="10.00">uint32_t</text>
<polyline fill="none" stroke="#bfbfbf" points="874.971,-492.5 925.971,-492.5 "/>
<text text-anchor="middle" x="900.471" y="-480.5" font-family="Helvetica,sans-Serif" font-size="10.00"> </text>
<polyline fill="none" stroke="#bfbfbf" points="874.971,-473.5 925.971,-473.5 "/>
<text text-anchor="middle" x="900.471" y="-461.5" font-family="Helvetica,sans-Serif" font-size="10.00"> </text>
</g>
<!-- Node10&#45;&gt;Node1 -->
<g id="edge23" class="edge"><title>Node10&#45;&gt;Node1</title>
<path fill="none" stroke="#404040" d="M912.222,-454.179C927.21,-414.305 948.38,-339.39 923.471,-282 891.189,-207.624 821.696,-146.337 764.779,-105.782"/>
<polygon fill="none" stroke="#404040" points="764.502,-105.588 757.293,-105.422 754.674,-98.7033 761.883,-98.8697 764.502,-105.588"/>
<text text-anchor="middle" x="939.471" y="-199.5" font-family="Helvetica,sans-Serif" font-size="10.00"> +sVersion</text>
</g>
<!-- Node10&#45;&gt;Node2 -->
<g id="edge21" class="edge"><title>Node10&#45;&gt;Node2</title>
<path fill="none" stroke="#404040" d="M884.211,-454.227C871.736,-432.017 854.788,-399.776 843.471,-370 829.109,-332.212 845.283,-313.914 820.471,-282 802.728,-259.179 776.447,-242.008 751.239,-229.604"/>
<polygon fill="none" stroke="#404040" points="751.016,-229.5 743.886,-230.576 740.15,-224.408 747.28,-223.332 751.016,-229.5"/>
<text text-anchor="middle" x="883.471" y="-362" font-family="Helvetica,sans-Serif" font-size="10.00"> +headerVersion</text>
<text text-anchor="middle" x="883.471" y="-351" font-family="Helvetica,sans-Serif" font-size="10.00">+headerSize</text>
<text text-anchor="middle" x="883.471" y="-340" font-family="Helvetica,sans-Serif" font-size="10.00">+sMagicString</text>
<text text-anchor="middle" x="883.471" y="-329" font-family="Helvetica,sans-Serif" font-size="10.00">+flagsNextHeader</text>
<text text-anchor="middle" x="883.471" y="-318" font-family="Helvetica,sans-Serif" font-size="10.00">+magicStringInt</text>
<text text-anchor="middle" x="883.471" y="-307" font-family="Helvetica,sans-Serif" font-size="10.00">+flagsUnused</text>
<text text-anchor="middle" x="883.471" y="-296" font-family="Helvetica,sans-Serif" font-size="10.00">+flags</text>
<text text-anchor="middle" x="883.471" y="-285" font-family="Helvetica,sans-Serif" font-size="10.00">+sVersion</text>
</g>
</g>
</svg>
