<?xml version="1.0" encoding="UTF-8" standalone="no"?>
<!DOCTYPE svg PUBLIC "-//W3C//DTD SVG 1.1//EN"
 "http://www.w3.org/Graphics/SVG/1.1/DTD/svg11.dtd">
<!-- Generated by graphviz version 2.36.0 (20140111.2315)
 -->
<!-- Title: /home/travis/build/AliceO2Group/AliceO2/Framework/Core/include/Framework/ProcessingContext.h Pages: 1 -->
<!--zoomable 342 -->
<svg id="main" version="1.1" xmlns="http://www.w3.org/2000/svg" xmlns:xlink="http://www.w3.org/1999/xlink" xml:space="preserve" onload="init(evt)">
<style type="text/css"><![CDATA[
.edge:hover path { stroke: red; }
.edge:hover polygon { stroke: red; fill: red; }
]]></style>
<script type="text/javascript"><![CDATA[
var edges = document.getElementsByTagName('g');
if (edges && edges.length) {
  for (var i=0;i<edges.length;i++) {
    if (edges[i].id.substr(0,4)=='edge') {
      edges[i].setAttribute('class','edge');
    }
  }
}
]]></script>
        <defs>
                <circle id="rim" cx="0" cy="0" r="7"/>
                <circle id="rim2" cx="0" cy="0" r="3.5"/>
                <g id="zoomPlus">
                        <use xlink:href="#rim" fill="#404040">
                                <set attributeName="fill" to="#808080" begin="zoomplus.mouseover" end="zoomplus.mouseout"/>
                        </use>
                        <path d="M-4,0h8M0,-4v8" fill="none" stroke="white" stroke-width="1.5" pointer-events="none"/>
                </g>
                <g id="zoomMin">
                        <use xlink:href="#rim" fill="#404040">
                                <set attributeName="fill" to="#808080" begin="zoomminus.mouseover" end="zoomminus.mouseout"/>
                        </use>
                        <path d="M-4,0h8" fill="none" stroke="white" stroke-width="1.5" pointer-events="none"/>
                </g>
                <g id="dirArrow">
                        <path fill="none" stroke="white" stroke-width="1.5" d="M0,-3.0v7 M-2.5,-0.5L0,-3.0L2.5,-0.5"/>
                </g>
               <g id="resetDef">
                       <use xlink:href="#rim2" fill="#404040">
                               <set attributeName="fill" to="#808080" begin="reset.mouseover" end="reset.mouseout"/>
                       </use>
               </g>
        </defs>

<script type="text/javascript">
var viewWidth = 2390;
var viewHeight = 342;
var sectionId = 'dynsection-0';
</script>
<script xlink:href="../../svgpan.js"/>
<svg id="graph" class="graph">
<g id="viewport">
<title>/home/travis/build/AliceO2Group/AliceO2/Framework/Core/include/Framework/ProcessingContext.h</title>
<!-- Node1 -->
<g id="node1" class="node"><title>Node1</title>
<polygon fill="#bfbfbf" stroke="black" points="1118.82,-281 1118.82,-333 1281.82,-333 1281.82,-281 1118.82,-281"/>
<text text-anchor="start" x="1126.82" y="-321" font-family="Helvetica,sans-Serif" font-size="10.00">/home/travis/build</text>
<text text-anchor="start" x="1126.82" y="-310" font-family="Helvetica,sans-Serif" font-size="10.00">/AliceO2Group/AliceO2</text>
<text text-anchor="start" x="1126.82" y="-299" font-family="Helvetica,sans-Serif" font-size="10.00">/Framework/Core/include</text>
<text text-anchor="middle" x="1200.32" y="-288" font-family="Helvetica,sans-Serif" font-size="10.00">/Framework/ProcessingContext.h</text>
</g>
<!-- Node2 -->
<g id="node2" class="node"><title>Node2</title>
<g id="a_node2"><a xlink:href="../../d6/d5c/InputRecord_8h.html" target="_top" xlink:title="Framework/InputRecord.h">
<polygon fill="none" stroke="black" points="579.317,-224.5 579.317,-243.5 709.317,-243.5 709.317,-224.5 579.317,-224.5"/>
<text text-anchor="middle" x="644.317" y="-231.5" font-family="Helvetica,sans-Serif" font-size="10.00">Framework/InputRecord.h</text>
</a>
</g>
</g>
<!-- Node1&#45;&gt;Node2 -->
<g id="edge1" class="edge"><title>Node1&#45;&gt;Node2</title>
<path fill="none" stroke="midnightblue" d="M1118.58,-295.562C1011.07,-281.834 823.66,-257.902 719.519,-244.603"/>
<polygon fill="midnightblue" stroke="midnightblue" points="719.761,-241.106 709.399,-243.311 718.875,-248.049 719.761,-241.106"/>
</g>
<!-- Node27 -->
<g id="node27" class="node"><title>Node27</title>
<g id="a_node27"><a xlink:href="../../d8/d17/ServiceRegistry_8h.html" target="_top" xlink:title="Framework/ServiceRegistry.h">
<polygon fill="none" stroke="black" points="1127.32,-224.5 1127.32,-243.5 1273.32,-243.5 1273.32,-224.5 1127.32,-224.5"/>
<text text-anchor="middle" x="1200.32" y="-231.5" font-family="Helvetica,sans-Serif" font-size="10.00">Framework/ServiceRegistry.h</text>
</a>
</g>
</g>
<!-- Node1&#45;&gt;Node27 -->
<g id="edge37" class="edge"><title>Node1&#45;&gt;Node27</title>
<path fill="none" stroke="midnightblue" d="M1200.32,-280.768C1200.32,-271.89 1200.32,-262.074 1200.32,-253.816"/>
<polygon fill="midnightblue" stroke="midnightblue" points="1203.82,-253.757 1200.32,-243.757 1196.82,-253.757 1203.82,-253.757"/>
</g>
<!-- Node31 -->
<g id="node31" class="node"><title>Node31</title>
<g id="a_node31"><a xlink:href="../../d1/d28/DataAllocator_8h.html" target="_top" xlink:title="Framework/DataAllocator.h">
<polygon fill="none" stroke="black" points="1793.32,-224.5 1793.32,-243.5 1929.32,-243.5 1929.32,-224.5 1793.32,-224.5"/>
<text text-anchor="middle" x="1861.32" y="-231.5" font-family="Helvetica,sans-Serif" font-size="10.00">Framework/DataAllocator.h</text>
</a>
</g>
</g>
<!-- Node1&#45;&gt;Node31 -->
<g id="edge44" class="edge"><title>Node1&#45;&gt;Node31</title>
<path fill="none" stroke="midnightblue" d="M1282.03,-297.223C1410.33,-283.442 1657.36,-256.908 1783.32,-243.378"/>
<polygon fill="midnightblue" stroke="midnightblue" points="1783.71,-246.856 1793.28,-242.308 1782.97,-239.896 1783.71,-246.856"/>
</g>
<!-- Node3 -->
<g id="node3" class="node"><title>Node3</title>
<g id="a_node3"><a xlink:href="../../d5/dfb/DataRef_8h.html" target="_top" xlink:title="Framework/DataRef.h">
<polygon fill="none" stroke="black" points="463.817,-112.5 463.817,-131.5 576.817,-131.5 576.817,-112.5 463.817,-112.5"/>
<text text-anchor="middle" x="520.317" y="-119.5" font-family="Helvetica,sans-Serif" font-size="10.00">Framework/DataRef.h</text>
</a>
</g>
</g>
<!-- Node2&#45;&gt;Node3 -->
<g id="edge2" class="edge"><title>Node2&#45;&gt;Node3</title>
<path fill="none" stroke="midnightblue" d="M634.587,-224.368C613.671,-205.814 564.182,-161.913 537.719,-138.438"/>
<polygon fill="midnightblue" stroke="midnightblue" points="539.805,-135.609 530.002,-131.591 535.16,-140.846 539.805,-135.609"/>
</g>
<!-- Node4 -->
<g id="node4" class="node"><title>Node4</title>
<g id="a_node4"><a xlink:href="../../d5/db8/DataRefUtils_8h.html" target="_top" xlink:title="Framework/DataRefUtils.h">
<polygon fill="none" stroke="black" points="361.317,-168.5 361.317,-187.5 495.317,-187.5 495.317,-168.5 361.317,-168.5"/>
<text text-anchor="middle" x="428.317" y="-175.5" font-family="Helvetica,sans-Serif" font-size="10.00">Framework/DataRefUtils.h</text>
</a>
</g>
</g>
<!-- Node2&#45;&gt;Node4 -->
<g id="edge3" class="edge"><title>Node2&#45;&gt;Node4</title>
<path fill="none" stroke="midnightblue" d="M610.091,-224.444C572.805,-215.122 513.048,-200.183 472.306,-189.997"/>
<polygon fill="midnightblue" stroke="midnightblue" points="472.933,-186.546 462.383,-187.516 471.235,-193.337 472.933,-186.546"/>
</g>
<!-- Node7 -->
<g id="node7" class="node"><title>Node7</title>
<polygon fill="none" stroke="#bfbfbf" points="80.3169,-0.5 80.3169,-19.5 132.317,-19.5 132.317,-0.5 80.3169,-0.5"/>
<text text-anchor="middle" x="106.317" y="-7.5" font-family="Helvetica,sans-Serif" font-size="10.00">memory</text>
</g>
<!-- Node2&#45;&gt;Node7 -->
<g id="edge35" class="edge"><title>Node2&#45;&gt;Node7</title>
<path fill="none" stroke="midnightblue" d="M579.118,-232.828C449.82,-231.676 165.701,-224.882 76.3169,-188 16.4012,-163.278 -21.9375,-109.728 14.3169,-56 27.164,-36.9609 50.4704,-25.6782 70.4098,-19.1718"/>
<polygon fill="midnightblue" stroke="midnightblue" points="71.5755,-22.4767 80.161,-16.2687 69.578,-15.7677 71.5755,-22.4767"/>
</g>
<!-- Node8 -->
<g id="node8" class="node"><title>Node8</title>
<polygon fill="none" stroke="#bfbfbf" points="1262.82,-0.5 1262.82,-19.5 1311.82,-19.5 1311.82,-0.5 1262.82,-0.5"/>
<text text-anchor="middle" x="1287.32" y="-7.5" font-family="Helvetica,sans-Serif" font-size="10.00">cassert</text>
</g>
<!-- Node2&#45;&gt;Node8 -->
<g id="edge33" class="edge"><title>Node2&#45;&gt;Node8</title>
<path fill="none" stroke="midnightblue" d="M645.149,-224.314C647.874,-201.27 658.776,-138.533 698.317,-112 790.539,-50.117 1140.46,-21.1002 1252.55,-13.2585"/>
<polygon fill="midnightblue" stroke="midnightblue" points="1252.9,-16.7427 1262.64,-12.5654 1252.42,-9.75916 1252.9,-16.7427"/>
</g>
<!-- Node9 -->
<g id="node9" class="node"><title>Node9</title>
<polygon fill="none" stroke="#bfbfbf" points="360.317,-0.5 360.317,-19.5 406.317,-19.5 406.317,-0.5 360.317,-0.5"/>
<text text-anchor="middle" x="383.317" y="-7.5" font-family="Helvetica,sans-Serif" font-size="10.00">cstring</text>
</g>
<!-- Node2&#45;&gt;Node9 -->
<g id="edge32" class="edge"><title>Node2&#45;&gt;Node9</title>
<path fill="none" stroke="midnightblue" d="M579.086,-233.127C433.604,-231.815 90.1962,-219.338 24.3169,-132 -60.2233,-19.9226 245.781,-10.623 349.848,-10.6281"/>
<polygon fill="midnightblue" stroke="midnightblue" points="350.101,-14.1288 360.112,-10.6595 350.123,-7.12885 350.101,-14.1288"/>
</g>
<!-- Node11 -->
<g id="node11" class="node"><title>Node11</title>
<g id="a_node11"><a xlink:href="../../d8/d3c/TMessageSerializer_8h.html" target="_top" xlink:title="Framework/TMessageSerializer.h">
<polygon fill="none" stroke="black" points="33.8169,-112.5 33.8169,-131.5 196.817,-131.5 196.817,-112.5 33.8169,-112.5"/>
<text text-anchor="middle" x="115.317" y="-119.5" font-family="Helvetica,sans-Serif" font-size="10.00">Framework/TMessageSerializer.h</text>
</a>
</g>
</g>
<!-- Node2&#45;&gt;Node11 -->
<g id="edge27" class="edge"><title>Node2&#45;&gt;Node11</title>
<path fill="none" stroke="midnightblue" d="M579.116,-229.478C506.703,-224.491 386.763,-213.023 286.317,-188 234.369,-175.059 176.694,-150.979 143.355,-136.04"/>
<polygon fill="midnightblue" stroke="midnightblue" points="144.376,-132.66 133.823,-131.719 141.487,-139.035 144.376,-132.66"/>
</g>
<!-- Node12 -->
<g id="node12" class="node"><title>Node12</title>
<polygon fill="none" stroke="#bfbfbf" points="1740.82,-56.5 1740.82,-75.5 1867.82,-75.5 1867.82,-56.5 1740.82,-56.5"/>
<text text-anchor="middle" x="1804.32" y="-63.5" font-family="Helvetica,sans-Serif" font-size="10.00">fairmq/FairMQMessage.h</text>
</g>
<!-- Node2&#45;&gt;Node12 -->
<g id="edge26" class="edge"><title>Node2&#45;&gt;Node12</title>
<path fill="none" stroke="midnightblue" d="M703.766,-224.451C742.769,-217.569 794.32,-206.018 837.317,-188 895.541,-163.601 897.111,-130.989 957.317,-112 1118.56,-61.1434 1544,-89.4756 1730.59,-75.9306"/>
<polygon fill="midnightblue" stroke="midnightblue" points="1730.95,-79.4133 1740.65,-75.1397 1730.4,-72.4348 1730.95,-79.4133"/>
</g>
<!-- Node15 -->
<g id="node15" class="node"><title>Node15</title>
<polygon fill="none" stroke="#bfbfbf" points="595.317,-112.5 595.317,-131.5 651.317,-131.5 651.317,-112.5 595.317,-112.5"/>
<text text-anchor="middle" x="623.317" y="-119.5" font-family="Helvetica,sans-Serif" font-size="10.00">TClass.h</text>
</g>
<!-- Node2&#45;&gt;Node15 -->
<g id="edge28" class="edge"><title>Node2&#45;&gt;Node15</title>
<path fill="none" stroke="midnightblue" d="M641.008,-224.169C637.779,-215.192 632.975,-200.818 630.317,-188 627.144,-172.7 625.36,-155.057 624.388,-142.017"/>
<polygon fill="midnightblue" stroke="midnightblue" points="627.872,-141.667 623.728,-131.916 620.887,-142.123 627.872,-141.667"/>
</g>
<!-- Node18 -->
<g id="node18" class="node"><title>Node18</title>
<polygon fill="none" stroke="#bfbfbf" points="1348.32,-112.5 1348.32,-131.5 1410.32,-131.5 1410.32,-112.5 1348.32,-112.5"/>
<text text-anchor="middle" x="1379.32" y="-119.5" font-family="Helvetica,sans-Serif" font-size="10.00">type_traits</text>
</g>
<!-- Node2&#45;&gt;Node18 -->
<g id="edge36" class="edge"><title>Node2&#45;&gt;Node18</title>
<path fill="none" stroke="midnightblue" d="M709.482,-227.236C765.31,-221.118 847.377,-209.3 916.317,-188 936.455,-181.778 939.009,-173.643 959.317,-168 1094.28,-130.495 1261.67,-123.906 1337.96,-122.977"/>
<polygon fill="midnightblue" stroke="midnightblue" points="1338.14,-126.475 1348.1,-122.881 1338.07,-119.476 1338.14,-126.475"/>
</g>
<!-- Node20 -->
<g id="node20" class="node"><title>Node20</title>
<g id="a_node20"><a xlink:href="../../d5/d19/InputRoute_8h.html" target="_top" xlink:title="Framework/InputRoute.h">
<polygon fill="none" stroke="black" points="672.817,-168.5 672.817,-187.5 797.817,-187.5 797.817,-168.5 672.817,-168.5"/>
<text text-anchor="middle" x="735.317" y="-175.5" font-family="Helvetica,sans-Serif" font-size="10.00">Framework/InputRoute.h</text>
</a>
</g>
</g>
<!-- Node2&#45;&gt;Node20 -->
<g id="edge20" class="edge"><title>Node2&#45;&gt;Node20</title>
<path fill="none" stroke="midnightblue" d="M658.938,-224.324C673.266,-215.822 695.329,-202.729 712.066,-192.797"/>
<polygon fill="midnightblue" stroke="midnightblue" points="713.919,-195.768 720.732,-187.655 710.346,-189.748 713.919,-195.768"/>
</g>
<!-- Node22 -->
<g id="node22" class="node"><title>Node22</title>
<polygon fill="none" stroke="#bfbfbf" points="1681.82,-56.5 1681.82,-75.5 1722.82,-75.5 1722.82,-56.5 1681.82,-56.5"/>
<text text-anchor="middle" x="1702.32" y="-63.5" font-family="Helvetica,sans-Serif" font-size="10.00">string</text>
</g>
<!-- Node2&#45;&gt;Node22 -->
<g id="edge30" class="edge"><title>Node2&#45;&gt;Node22</title>
<path fill="none" stroke="midnightblue" d="M689.682,-224.49C722.941,-217.285 768.667,-205.336 806.317,-188 861.293,-162.686 861.956,-131.311 919.317,-112 1062.26,-63.876 1544.2,-65.3438 1671.35,-66.6108"/>
<polygon fill="midnightblue" stroke="midnightblue" points="1671.51,-70.1126 1681.54,-66.7198 1671.58,-63.113 1671.51,-70.1126"/>
</g>
<!-- Node24 -->
<g id="node24" class="node"><title>Node24</title>
<polygon fill="none" stroke="#bfbfbf" points="295.817,-168.5 295.817,-187.5 342.817,-187.5 342.817,-168.5 295.817,-168.5"/>
<text text-anchor="middle" x="319.317" y="-175.5" font-family="Helvetica,sans-Serif" font-size="10.00">iterator</text>
</g>
<!-- Node2&#45;&gt;Node24 -->
<g id="edge29" class="edge"><title>Node2&#45;&gt;Node24</title>
<path fill="none" stroke="midnightblue" d="M579.276,-225.125C522.109,-217.716 436.527,-205.44 352.948,-187.919"/>
<polygon fill="midnightblue" stroke="midnightblue" points="353.54,-184.467 343.031,-185.813 352.086,-191.314 353.54,-184.467"/>
</g>
<!-- Node25 -->
<g id="node25" class="node"><title>Node25</title>
<polygon fill="none" stroke="#bfbfbf" points="2052.32,-56.5 2052.32,-75.5 2096.32,-75.5 2096.32,-56.5 2052.32,-56.5"/>
<text text-anchor="middle" x="2074.32" y="-63.5" font-family="Helvetica,sans-Serif" font-size="10.00">vector</text>
</g>
<!-- Node2&#45;&gt;Node25 -->
<g id="edge31" class="edge"><title>Node2&#45;&gt;Node25</title>
<path fill="none" stroke="midnightblue" d="M704.363,-224.427C750.172,-217.065 814.513,-204.944 869.317,-188 891.005,-181.294 894.42,-173.989 916.317,-168 1397.87,-36.2941 1545.79,-157.826 2042.18,-75.7754"/>
<polygon fill="midnightblue" stroke="midnightblue" points="2042.82,-79.2167 2052.11,-74.115 2041.67,-72.3126 2042.82,-79.2167"/>
</g>
<!-- Node26 -->
<g id="node26" class="node"><title>Node26</title>
<polygon fill="none" stroke="#bfbfbf" points="968.817,-168.5 968.817,-187.5 1027.82,-187.5 1027.82,-168.5 968.817,-168.5"/>
<text text-anchor="middle" x="998.317" y="-175.5" font-family="Helvetica,sans-Serif" font-size="10.00">exception</text>
</g>
<!-- Node2&#45;&gt;Node26 -->
<g id="edge34" class="edge"><title>Node2&#45;&gt;Node26</title>
<path fill="none" stroke="midnightblue" d="M709.507,-224.648C772.358,-216.333 870.075,-202.717 954.317,-188 955.757,-187.748 957.222,-187.485 958.701,-187.214"/>
<polygon fill="midnightblue" stroke="midnightblue" points="959.374,-190.649 968.539,-185.333 958.06,-183.773 959.374,-190.649"/>
</g>
<!-- Node4&#45;&gt;Node3 -->
<g id="edge4" class="edge"><title>Node4&#45;&gt;Node3</title>
<path fill="none" stroke="midnightblue" d="M443.098,-168.324C457.584,-159.822 479.89,-146.729 496.81,-136.797"/>
<polygon fill="midnightblue" stroke="midnightblue" points="498.72,-139.735 505.572,-131.655 495.176,-133.698 498.72,-139.735"/>
</g>
<!-- Node5 -->
<g id="node5" class="node"><title>Node5</title>
<g id="a_node5"><a xlink:href="../../dc/dcd/DataHeader_8h.html" target="_top" xlink:title="Headers/DataHeader.h">
<polygon fill="none" stroke="black" points="533.817,-56.5 533.817,-75.5 650.817,-75.5 650.817,-56.5 533.817,-56.5"/>
<text text-anchor="middle" x="592.317" y="-63.5" font-family="Helvetica,sans-Serif" font-size="10.00">Headers/DataHeader.h</text>
</a>
</g>
</g>
<!-- Node4&#45;&gt;Node5 -->
<g id="edge5" class="edge"><title>Node4&#45;&gt;Node5</title>
<path fill="none" stroke="midnightblue" d="M360.901,-169.248C314.546,-162.37 258.835,-150.496 244.317,-132 238.829,-125.008 238.448,-118.676 244.317,-112 262.41,-91.4165 427.005,-77.5361 523.21,-71.1053"/>
<polygon fill="midnightblue" stroke="midnightblue" points="523.694,-74.5811 533.443,-70.4321 523.235,-67.5962 523.694,-74.5811"/>
</g>
<!-- Node4&#45;&gt;Node11 -->
<g id="edge11" class="edge"><title>Node4&#45;&gt;Node11</title>
<path fill="none" stroke="midnightblue" d="M378.721,-168.444C323.318,-158.885 233.674,-143.419 174.612,-133.23"/>
<polygon fill="midnightblue" stroke="midnightblue" points="175.13,-129.768 164.681,-131.516 173.94,-136.666 175.13,-129.768"/>
</g>
<!-- Node4&#45;&gt;Node15 -->
<g id="edge15" class="edge"><title>Node4&#45;&gt;Node15</title>
<path fill="none" stroke="midnightblue" d="M459.215,-168.444C493.376,-158.984 548.431,-143.738 585.232,-133.546"/>
<polygon fill="midnightblue" stroke="midnightblue" points="586.392,-136.857 595.096,-130.815 584.524,-130.111 586.392,-136.857"/>
</g>
<!-- Node16 -->
<g id="node16" class="node"><title>Node16</title>
<polygon fill="none" stroke="#bfbfbf" points="386.817,-112.5 386.817,-131.5 445.817,-131.5 445.817,-112.5 386.817,-112.5"/>
<text text-anchor="middle" x="416.317" y="-119.5" font-family="Helvetica,sans-Serif" font-size="10.00">stdexcept</text>
</g>
<!-- Node4&#45;&gt;Node16 -->
<g id="edge16" class="edge"><title>Node4&#45;&gt;Node16</title>
<path fill="none" stroke="midnightblue" d="M426.335,-168.083C424.745,-160.927 422.458,-150.635 420.47,-141.691"/>
<polygon fill="midnightblue" stroke="midnightblue" points="423.848,-140.754 418.262,-131.751 417.014,-142.272 423.848,-140.754"/>
</g>
<!-- Node17 -->
<g id="node17" class="node"><title>Node17</title>
<polygon fill="none" stroke="#bfbfbf" points="253.317,-112.5 253.317,-131.5 305.317,-131.5 305.317,-112.5 253.317,-112.5"/>
<text text-anchor="middle" x="279.317" y="-119.5" font-family="Helvetica,sans-Serif" font-size="10.00">sstream</text>
</g>
<!-- Node4&#45;&gt;Node17 -->
<g id="edge17" class="edge"><title>Node4&#45;&gt;Node17</title>
<path fill="none" stroke="midnightblue" d="M404.707,-168.444C379.859,-159.438 340.542,-145.189 312.563,-135.049"/>
<polygon fill="midnightblue" stroke="midnightblue" points="313.41,-131.633 302.816,-131.516 311.025,-138.214 313.41,-131.633"/>
</g>
<!-- Node4&#45;&gt;Node18 -->
<g id="edge18" class="edge"><title>Node4&#45;&gt;Node18</title>
<path fill="none" stroke="midnightblue" d="M495.568,-173.181C679.845,-162.718 1189.05,-133.804 1337.93,-125.35"/>
<polygon fill="midnightblue" stroke="midnightblue" points="1338.23,-128.839 1348.01,-124.777 1337.83,-121.85 1338.23,-128.839"/>
</g>
<!-- Node19 -->
<g id="node19" class="node"><title>Node19</title>
<polygon fill="none" stroke="#bfbfbf" points="323.817,-112.5 323.817,-131.5 368.817,-131.5 368.817,-112.5 323.817,-112.5"/>
<text text-anchor="middle" x="346.317" y="-119.5" font-family="Helvetica,sans-Serif" font-size="10.00">gsl/gsl</text>
</g>
<!-- Node4&#45;&gt;Node19 -->
<g id="edge19" class="edge"><title>Node4&#45;&gt;Node19</title>
<path fill="none" stroke="midnightblue" d="M415.142,-168.324C402.47,-159.979 383.084,-147.212 368.111,-137.352"/>
<polygon fill="midnightblue" stroke="midnightblue" points="369.736,-134.231 359.459,-131.655 365.886,-140.078 369.736,-134.231"/>
</g>
<!-- Node6 -->
<g id="node6" class="node"><title>Node6</title>
<polygon fill="none" stroke="#bfbfbf" points="603.317,-0.5 603.317,-19.5 649.317,-19.5 649.317,-0.5 603.317,-0.5"/>
<text text-anchor="middle" x="626.317" y="-7.5" font-family="Helvetica,sans-Serif" font-size="10.00">cstdint</text>
</g>
<!-- Node5&#45;&gt;Node6 -->
<g id="edge6" class="edge"><title>Node5&#45;&gt;Node6</title>
<path fill="none" stroke="midnightblue" d="M597.931,-56.083C602.684,-48.5341 609.635,-37.4948 615.469,-28.2298"/>
<polygon fill="midnightblue" stroke="midnightblue" points="618.441,-30.0783 620.807,-19.7511 612.517,-26.3486 618.441,-30.0783"/>
</g>
<!-- Node5&#45;&gt;Node7 -->
<g id="edge7" class="edge"><title>Node5&#45;&gt;Node7</title>
<path fill="none" stroke="midnightblue" d="M533.694,-58.4863C432.008,-47.188 225.828,-24.279 142.486,-15.0188"/>
<polygon fill="midnightblue" stroke="midnightblue" points="142.809,-11.5333 132.484,-13.9075 142.036,-18.4905 142.809,-11.5333"/>
</g>
<!-- Node5&#45;&gt;Node8 -->
<g id="edge8" class="edge"><title>Node5&#45;&gt;Node8</title>
<path fill="none" stroke="midnightblue" d="M650.859,-57.5189C655.747,-56.9745 660.615,-56.4597 665.317,-56 888.652,-34.168 1158.06,-18.1905 1252.55,-12.8982"/>
<polygon fill="midnightblue" stroke="midnightblue" points="1252.89,-16.3846 1262.68,-12.3341 1252.51,-9.39542 1252.89,-16.3846"/>
</g>
<!-- Node5&#45;&gt;Node9 -->
<g id="edge9" class="edge"><title>Node5&#45;&gt;Node9</title>
<path fill="none" stroke="midnightblue" d="M559.2,-56.4435C520.106,-46.3426 455.479,-29.6449 416.4,-19.5478"/>
<polygon fill="midnightblue" stroke="midnightblue" points="417.129,-16.1214 406.572,-17.0084 415.378,-22.8988 417.129,-16.1214"/>
</g>
<!-- Node10 -->
<g id="node10" class="node"><title>Node10</title>
<polygon fill="none" stroke="#bfbfbf" points="529.317,-0.5 529.317,-19.5 585.317,-19.5 585.317,-0.5 529.317,-0.5"/>
<text text-anchor="middle" x="557.317" y="-7.5" font-family="Helvetica,sans-Serif" font-size="10.00">algorithm</text>
</g>
<!-- Node5&#45;&gt;Node10 -->
<g id="edge10" class="edge"><title>Node5&#45;&gt;Node10</title>
<path fill="none" stroke="midnightblue" d="M586.537,-56.083C581.645,-48.5341 574.489,-37.4948 568.484,-28.2298"/>
<polygon fill="midnightblue" stroke="midnightblue" points="571.365,-26.239 562.989,-19.7511 565.491,-30.0463 571.365,-26.239"/>
</g>
<!-- Node11&#45;&gt;Node12 -->
<g id="edge12" class="edge"><title>Node11&#45;&gt;Node12</title>
<path fill="none" stroke="midnightblue" d="M196.83,-114.749C212.579,-113.701 228.955,-112.721 244.317,-112 901.286,-81.1459 1070.29,-124.06 1730.41,-75.9742"/>
<polygon fill="midnightblue" stroke="midnightblue" points="1730.93,-79.445 1740.65,-75.2235 1730.42,-72.4637 1730.93,-79.445"/>
</g>
<!-- Node13 -->
<g id="node13" class="node"><title>Node13</title>
<polygon fill="none" stroke="#bfbfbf" points="156.817,-56.5 156.817,-75.5 227.817,-75.5 227.817,-56.5 156.817,-56.5"/>
<text text-anchor="middle" x="192.317" y="-63.5" font-family="Helvetica,sans-Serif" font-size="10.00">TMessage.h</text>
</g>
<!-- Node11&#45;&gt;Node13 -->
<g id="edge13" class="edge"><title>Node11&#45;&gt;Node13</title>
<path fill="none" stroke="midnightblue" d="M127.688,-112.324C139.475,-104.058 157.449,-91.4527 171.452,-81.6322"/>
<polygon fill="midnightblue" stroke="midnightblue" points="173.798,-84.2619 179.976,-75.6545 169.779,-78.5307 173.798,-84.2619"/>
</g>
<!-- Node14 -->
<g id="node14" class="node"><title>Node14</title>
<polygon fill="none" stroke="#bfbfbf" points="53.8169,-56.5 53.8169,-75.5 138.817,-75.5 138.817,-56.5 53.8169,-56.5"/>
<text text-anchor="middle" x="96.3169" y="-63.5" font-family="Helvetica,sans-Serif" font-size="10.00">TClonesArray.h</text>
</g>
<!-- Node11&#45;&gt;Node14 -->
<g id="edge14" class="edge"><title>Node11&#45;&gt;Node14</title>
<path fill="none" stroke="midnightblue" d="M112.179,-112.083C109.634,-104.849 105.961,-94.4087 102.79,-85.3968"/>
<polygon fill="midnightblue" stroke="midnightblue" points="106.017,-84.0225 99.396,-75.7511 99.4135,-86.3459 106.017,-84.0225"/>
</g>
<!-- Node21 -->
<g id="node21" class="node"><title>Node21</title>
<g id="a_node21"><a xlink:href="../../d5/d3f/InputSpec_8h.html" target="_top" xlink:title="Framework/InputSpec.h">
<polygon fill="none" stroke="black" points="707.817,-112.5 707.817,-131.5 828.817,-131.5 828.817,-112.5 707.817,-112.5"/>
<text text-anchor="middle" x="768.317" y="-119.5" font-family="Helvetica,sans-Serif" font-size="10.00">Framework/InputSpec.h</text>
</a>
</g>
</g>
<!-- Node20&#45;&gt;Node21 -->
<g id="edge21" class="edge"><title>Node20&#45;&gt;Node21</title>
<path fill="none" stroke="midnightblue" d="M740.766,-168.083C745.331,-160.613 751.985,-149.724 757.61,-140.52"/>
<polygon fill="midnightblue" stroke="midnightblue" points="760.741,-142.109 762.969,-131.751 754.768,-138.459 760.741,-142.109"/>
</g>
<!-- Node20&#45;&gt;Node22 -->
<g id="edge25" class="edge"><title>Node20&#45;&gt;Node22</title>
<path fill="none" stroke="midnightblue" d="M754.9,-168.438C775.455,-159.432 808.7,-144.816 837.317,-132 856.922,-123.22 860.455,-117.121 881.317,-112 1035.54,-74.145 1541.85,-68.0995 1671.73,-67.1654"/>
<polygon fill="midnightblue" stroke="midnightblue" points="1671.8,-70.6651 1681.78,-67.0982 1671.76,-63.6653 1671.8,-70.6651"/>
</g>
<!-- Node23 -->
<g id="node23" class="node"><title>Node23</title>
<polygon fill="none" stroke="#bfbfbf" points="1523.82,-112.5 1523.82,-131.5 1572.82,-131.5 1572.82,-112.5 1523.82,-112.5"/>
<text text-anchor="middle" x="1548.32" y="-119.5" font-family="Helvetica,sans-Serif" font-size="10.00">cstddef</text>
</g>
<!-- Node20&#45;&gt;Node23 -->
<g id="edge24" class="edge"><title>Node20&#45;&gt;Node23</title>
<path fill="none" stroke="midnightblue" d="M797.942,-172.944C918.196,-165.14 1189.79,-147.439 1418.32,-132 1450.46,-129.829 1487.06,-127.289 1513.22,-125.462"/>
<polygon fill="midnightblue" stroke="midnightblue" points="1513.67,-128.939 1523.4,-124.75 1513.18,-121.956 1513.67,-128.939"/>
</g>
<!-- Node21&#45;&gt;Node5 -->
<g id="edge23" class="edge"><title>Node21&#45;&gt;Node5</title>
<path fill="none" stroke="midnightblue" d="M740.429,-112.444C710.563,-103.28 663.002,-88.6876 629.861,-78.5192"/>
<polygon fill="midnightblue" stroke="midnightblue" points="630.661,-75.1037 620.074,-75.5164 628.608,-81.7958 630.661,-75.1037"/>
</g>
<!-- Node21&#45;&gt;Node22 -->
<g id="edge22" class="edge"><title>Node21&#45;&gt;Node22</title>
<path fill="none" stroke="midnightblue" d="M828.863,-113.381C833.749,-112.874 838.613,-112.405 843.317,-112 1166.58,-84.1687 1559.86,-71.1653 1671.47,-67.8674"/>
<polygon fill="midnightblue" stroke="midnightblue" points="1671.78,-71.3601 1681.67,-67.5701 1671.57,-64.363 1671.78,-71.3601"/>
</g>
<!-- Node27&#45;&gt;Node18 -->
<g id="edge41" class="edge"><title>Node27&#45;&gt;Node18</title>
<path fill="none" stroke="midnightblue" d="M1217.44,-224.343C1234.42,-215.615 1261.04,-201.533 1283.32,-188 1310.19,-171.669 1340.03,-151.058 1359.19,-137.476"/>
<polygon fill="midnightblue" stroke="midnightblue" points="1361.33,-140.251 1367.44,-131.597 1357.27,-134.55 1361.33,-140.251"/>
</g>
<!-- Node27&#45;&gt;Node22 -->
<g id="edge40" class="edge"><title>Node27&#45;&gt;Node22</title>
<path fill="none" stroke="midnightblue" d="M1273.34,-232.593C1418.77,-231.02 1733.52,-223.504 1766.32,-188 1796.26,-155.587 1749.1,-106.541 1720.93,-82.0397"/>
<polygon fill="midnightblue" stroke="midnightblue" points="1723.14,-79.3197 1713.24,-75.541 1718.62,-84.6675 1723.14,-79.3197"/>
</g>
<!-- Node27&#45;&gt;Node26 -->
<g id="edge38" class="edge"><title>Node27&#45;&gt;Node26</title>
<path fill="none" stroke="midnightblue" d="M1168.31,-224.444C1132.87,-214.971 1075.73,-199.695 1037.61,-189.504"/>
<polygon fill="midnightblue" stroke="midnightblue" points="1038.44,-186.103 1027.87,-186.902 1036.63,-192.865 1038.44,-186.103"/>
</g>
<!-- Node28 -->
<g id="node28" class="node"><title>Node28</title>
<polygon fill="none" stroke="#bfbfbf" points="1215.82,-168.5 1215.82,-187.5 1274.82,-187.5 1274.82,-168.5 1215.82,-168.5"/>
<text text-anchor="middle" x="1245.32" y="-175.5" font-family="Helvetica,sans-Serif" font-size="10.00">functional</text>
</g>
<!-- Node27&#45;&gt;Node28 -->
<g id="edge39" class="edge"><title>Node27&#45;&gt;Node28</title>
<path fill="none" stroke="midnightblue" d="M1207.75,-224.083C1214.17,-216.377 1223.62,-205.033 1231.44,-195.653"/>
<polygon fill="midnightblue" stroke="midnightblue" points="1234.31,-197.674 1238.02,-187.751 1228.93,-193.193 1234.31,-197.674"/>
</g>
<!-- Node29 -->
<g id="node29" class="node"><title>Node29</title>
<polygon fill="none" stroke="#bfbfbf" points="1045.82,-168.5 1045.82,-187.5 1096.82,-187.5 1096.82,-168.5 1045.82,-168.5"/>
<text text-anchor="middle" x="1071.32" y="-175.5" font-family="Helvetica,sans-Serif" font-size="10.00">typeinfo</text>
</g>
<!-- Node27&#45;&gt;Node29 -->
<g id="edge42" class="edge"><title>Node27&#45;&gt;Node29</title>
<path fill="none" stroke="midnightblue" d="M1179.88,-224.444C1158.65,-215.557 1125.22,-201.563 1101.06,-191.451"/>
<polygon fill="midnightblue" stroke="midnightblue" points="1102.24,-188.149 1091.66,-187.516 1099.53,-194.606 1102.24,-188.149"/>
</g>
<!-- Node30 -->
<g id="node30" class="node"><title>Node30</title>
<polygon fill="none" stroke="#bfbfbf" points="1114.82,-168.5 1114.82,-187.5 1197.82,-187.5 1197.82,-168.5 1114.82,-168.5"/>
<text text-anchor="middle" x="1156.32" y="-175.5" font-family="Helvetica,sans-Serif" font-size="10.00">unordered_map</text>
</g>
<!-- Node27&#45;&gt;Node30 -->
<g id="edge43" class="edge"><title>Node27&#45;&gt;Node30</title>
<path fill="none" stroke="midnightblue" d="M1193.05,-224.083C1186.77,-216.377 1177.53,-205.033 1169.89,-195.653"/>
<polygon fill="midnightblue" stroke="midnightblue" points="1172.48,-193.293 1163.45,-187.751 1167.05,-197.714 1172.48,-193.293"/>
</g>
<!-- Node31&#45;&gt;Node5 -->
<g id="edge46" class="edge"><title>Node31&#45;&gt;Node5</title>
<path fill="none" stroke="midnightblue" d="M1793.28,-225.555C1743.41,-218.892 1674.55,-207.152 1616.32,-188 1597.06,-181.666 1594,-175.862 1575.32,-168 1507.03,-139.271 1490.95,-126.611 1418.32,-112 1274.22,-83.0113 832.467,-71.6103 661.187,-68.2049"/>
<polygon fill="midnightblue" stroke="midnightblue" points="661.1,-64.7026 651.034,-68.0061 660.963,-71.7012 661.1,-64.7026"/>
</g>
<!-- Node31&#45;&gt;Node11 -->
<g id="edge64" class="edge"><title>Node31&#45;&gt;Node11</title>
<path fill="none" stroke="midnightblue" d="M1793.07,-231.142C1667.36,-227.095 1404.15,-215.54 1317.32,-188 1300.61,-182.7 1300.15,-172.899 1283.32,-168 1172.4,-135.724 359.674,-138.021 244.317,-132 232.199,-131.368 219.447,-130.601 206.87,-129.785"/>
<polygon fill="midnightblue" stroke="midnightblue" points="207.045,-126.289 196.836,-129.122 206.583,-133.274 207.045,-126.289"/>
</g>
<!-- Node31&#45;&gt;Node12 -->
<g id="edge67" class="edge"><title>Node31&#45;&gt;Node12</title>
<path fill="none" stroke="midnightblue" d="M1860.89,-224.406C1859.61,-204.044 1854.73,-151.601 1837.32,-112 1832.79,-101.71 1825.59,-91.5031 1819.07,-83.4182"/>
<polygon fill="midnightblue" stroke="midnightblue" points="1821.55,-80.9367 1812.41,-75.5744 1816.21,-85.4646 1821.55,-80.9367"/>
</g>
<!-- Node31&#45;&gt;Node15 -->
<g id="edge74" class="edge"><title>Node31&#45;&gt;Node15</title>
<path fill="none" stroke="midnightblue" d="M1793.04,-229.472C1702.36,-224.079 1537.42,-211.804 1398.32,-188 1361.77,-181.746 1353.98,-173.544 1317.32,-168 1044.84,-126.796 972.808,-156.428 698.317,-132 686.294,-130.93 673.222,-129.466 661.409,-128.03"/>
<polygon fill="midnightblue" stroke="midnightblue" points="661.766,-124.547 651.41,-126.785 660.901,-131.494 661.766,-124.547"/>
</g>
<!-- Node31&#45;&gt;Node18 -->
<g id="edge72" class="edge"><title>Node31&#45;&gt;Node18</title>
<path fill="none" stroke="midnightblue" d="M1793.05,-227.066C1736.06,-220.905 1653.17,-209.115 1583.32,-188 1562.75,-181.784 1559.49,-175.374 1539.32,-168 1499.7,-153.521 1453.16,-140.904 1420.52,-132.745"/>
<polygon fill="midnightblue" stroke="midnightblue" points="1420.98,-129.254 1410.43,-130.256 1419.3,-136.05 1420.98,-129.254"/>
</g>
<!-- Node31&#45;&gt;Node22 -->
<g id="edge70" class="edge"><title>Node31&#45;&gt;Node22</title>
<path fill="none" stroke="midnightblue" d="M1859.07,-224.5C1852.97,-202.955 1834.2,-145.539 1799.32,-112 1789.2,-102.274 1757.21,-88.3429 1732.7,-78.5645"/>
<polygon fill="midnightblue" stroke="midnightblue" points="1733.66,-75.1818 1723.08,-74.7811 1731.1,-81.6966 1733.66,-75.1818"/>
</g>
<!-- Node31&#45;&gt;Node25 -->
<g id="edge68" class="edge"><title>Node31&#45;&gt;Node25</title>
<path fill="none" stroke="midnightblue" d="M1929.43,-232.072C2062.72,-229.546 2347.64,-220.379 2377.32,-188 2417.14,-144.558 2192.06,-91.7997 2106.39,-73.5675"/>
<polygon fill="midnightblue" stroke="midnightblue" points="2106.93,-70.1053 2096.43,-71.4695 2105.49,-76.9551 2106.93,-70.1053"/>
</g>
<!-- Node32 -->
<g id="node32" class="node"><title>Node32</title>
<polygon fill="none" stroke="#bfbfbf" points="1889.32,-168.5 1889.32,-187.5 2007.32,-187.5 2007.32,-168.5 1889.32,-168.5"/>
<text text-anchor="middle" x="1948.32" y="-175.5" font-family="Helvetica,sans-Serif" font-size="10.00">fairmq/FairMQDevice.h</text>
</g>
<!-- Node31&#45;&gt;Node32 -->
<g id="edge45" class="edge"><title>Node31&#45;&gt;Node32</title>
<path fill="none" stroke="midnightblue" d="M1875.29,-224.324C1888.87,-215.9 1909.7,-202.971 1925.64,-193.074"/>
<polygon fill="midnightblue" stroke="midnightblue" points="1927.72,-195.902 1934.37,-187.655 1924.03,-189.954 1927.72,-195.902"/>
</g>
<!-- Node33 -->
<g id="node33" class="node"><title>Node33</title>
<g id="a_node33"><a xlink:href="../../d6/df4/OutputRoute_8h.html" target="_top" xlink:title="Framework/OutputRoute.h">
<polygon fill="none" stroke="black" points="1625.32,-168.5 1625.32,-187.5 1757.32,-187.5 1757.32,-168.5 1625.32,-168.5"/>
<text text-anchor="middle" x="1691.32" y="-175.5" font-family="Helvetica,sans-Serif" font-size="10.00">Framework/OutputRoute.h</text>
</a>
</g>
</g>
<!-- Node31&#45;&gt;Node33 -->
<g id="edge47" class="edge"><title>Node31&#45;&gt;Node33</title>
<path fill="none" stroke="midnightblue" d="M1834.38,-224.444C1805.66,-215.32 1759.99,-200.813 1728,-190.651"/>
<polygon fill="midnightblue" stroke="midnightblue" points="1728.72,-187.208 1718.13,-187.516 1726.6,-193.88 1728.72,-187.208"/>
</g>
<!-- Node35 -->
<g id="node35" class="node"><title>Node35</title>
<g id="a_node35"><a xlink:href="../../d7/d31/DataChunk_8h.html" target="_top" xlink:title="Framework/DataChunk.h">
<polygon fill="none" stroke="black" points="2025.32,-168.5 2025.32,-187.5 2151.32,-187.5 2151.32,-168.5 2025.32,-168.5"/>
<text text-anchor="middle" x="2088.32" y="-175.5" font-family="Helvetica,sans-Serif" font-size="10.00">Framework/DataChunk.h</text>
</a>
</g>
</g>
<!-- Node31&#45;&gt;Node35 -->
<g id="edge52" class="edge"><title>Node31&#45;&gt;Node35</title>
<path fill="none" stroke="midnightblue" d="M1897.29,-224.444C1936.64,-215.083 1999.8,-200.056 2042.63,-189.868"/>
<polygon fill="midnightblue" stroke="midnightblue" points="2043.6,-193.236 2052.52,-187.516 2041.98,-186.426 2043.6,-193.236"/>
</g>
<!-- Node36 -->
<g id="node36" class="node"><title>Node36</title>
<g id="a_node36"><a xlink:href="../../dc/dc4/MessageContext_8h.html" target="_top" xlink:title="Framework/MessageContext.h">
<polygon fill="none" stroke="black" points="1889.82,-112.5 1889.82,-131.5 2040.82,-131.5 2040.82,-112.5 1889.82,-112.5"/>
<text text-anchor="middle" x="1965.32" y="-119.5" font-family="Helvetica,sans-Serif" font-size="10.00">Framework/MessageContext.h</text>
</a>
</g>
</g>
<!-- Node31&#45;&gt;Node36 -->
<g id="edge53" class="edge"><title>Node31&#45;&gt;Node36</title>
<path fill="none" stroke="midnightblue" d="M1929.56,-231.612C2055.92,-228.331 2316.01,-217.977 2343.32,-188 2349.3,-181.429 2349.22,-174.647 2343.32,-168 2340.9,-165.275 2162.15,-144.919 2051.36,-132.537"/>
<polygon fill="midnightblue" stroke="midnightblue" points="2051.51,-129.033 2041.19,-131.402 2050.74,-135.99 2051.51,-129.033"/>
</g>
<!-- Node38 -->
<g id="node38" class="node"><title>Node38</title>
<g id="a_node38"><a xlink:href="../../d2/d80/RootObjectContext_8h.html" target="_top" xlink:title="Framework/RootObjectContext.h">
<polygon fill="none" stroke="black" points="2058.82,-112.5 2058.82,-131.5 2219.82,-131.5 2219.82,-112.5 2058.82,-112.5"/>
<text text-anchor="middle" x="2139.32" y="-119.5" font-family="Helvetica,sans-Serif" font-size="10.00">Framework/RootObjectContext.h</text>
</a>
</g>
</g>
<!-- Node31&#45;&gt;Node38 -->
<g id="edge58" class="edge"><title>Node31&#45;&gt;Node38</title>
<path fill="none" stroke="midnightblue" d="M1929.8,-231.829C2059.57,-228.898 2330.92,-219.082 2359.32,-188 2401.67,-141.642 2308.4,-127.731 2230.5,-123.884"/>
<polygon fill="midnightblue" stroke="midnightblue" points="2230.26,-120.37 2220.12,-123.425 2229.95,-127.363 2230.26,-120.37"/>
</g>
<!-- Node40 -->
<g id="node40" class="node"><title>Node40</title>
<g id="a_node40"><a xlink:href="../../d0/d95/TypeTraits_8h.html" target="_top" xlink:title="Framework/TypeTraits.h">
<polygon fill="none" stroke="black" points="1407.82,-168.5 1407.82,-187.5 1530.82,-187.5 1530.82,-168.5 1407.82,-168.5"/>
<text text-anchor="middle" x="1469.32" y="-175.5" font-family="Helvetica,sans-Serif" font-size="10.00">Framework/TypeTraits.h</text>
</a>
</g>
</g>
<!-- Node31&#45;&gt;Node40 -->
<g id="edge65" class="edge"><title>Node31&#45;&gt;Node40</title>
<path fill="none" stroke="midnightblue" d="M1799.2,-224.444C1729,-214.772 1614.89,-199.053 1540.97,-188.871"/>
<polygon fill="midnightblue" stroke="midnightblue" points="1541.2,-185.369 1530.82,-187.472 1540.25,-192.304 1541.2,-185.369"/>
</g>
<!-- Node41 -->
<g id="node41" class="node"><title>Node41</title>
<polygon fill="none" stroke="#bfbfbf" points="2169.82,-168.5 2169.82,-187.5 2204.82,-187.5 2204.82,-168.5 2169.82,-168.5"/>
<text text-anchor="middle" x="2187.32" y="-175.5" font-family="Helvetica,sans-Serif" font-size="10.00">map</text>
</g>
<!-- Node31&#45;&gt;Node41 -->
<g id="edge69" class="edge"><title>Node31&#45;&gt;Node41</title>
<path fill="none" stroke="midnightblue" d="M1929.35,-226.145C1988.11,-219.456 2075.33,-207.69 2159.95,-187.697"/>
<polygon fill="midnightblue" stroke="midnightblue" points="2160.82,-191.088 2169.72,-185.348 2159.18,-184.282 2160.82,-191.088"/>
</g>
<!-- Node42 -->
<g id="node42" class="node"><title>Node42</title>
<polygon fill="none" stroke="#bfbfbf" points="2223.32,-168.5 2223.32,-187.5 2263.32,-187.5 2263.32,-168.5 2223.32,-168.5"/>
<text text-anchor="middle" x="2243.32" y="-175.5" font-family="Helvetica,sans-Serif" font-size="10.00">utility</text>
</g>
<!-- Node31&#45;&gt;Node42 -->
<g id="edge71" class="edge"><title>Node31&#45;&gt;Node42</title>
<path fill="none" stroke="midnightblue" d="M1929.35,-227.642C2000.66,-221.249 2115.69,-208.738 2213.32,-188 2213.42,-187.979 2213.52,-187.957 2213.62,-187.936"/>
<polygon fill="midnightblue" stroke="midnightblue" points="2214.25,-191.385 2223.1,-185.556 2212.55,-184.595 2214.25,-191.385"/>
</g>
<!-- Node43 -->
<g id="node43" class="node"><title>Node43</title>
<polygon fill="none" stroke="#bfbfbf" points="2281.82,-168.5 2281.82,-187.5 2334.82,-187.5 2334.82,-168.5 2281.82,-168.5"/>
<text text-anchor="middle" x="2308.32" y="-175.5" font-family="Helvetica,sans-Serif" font-size="10.00">gsl/span</text>
</g>
<!-- Node31&#45;&gt;Node43 -->
<g id="edge73" class="edge"><title>Node31&#45;&gt;Node43</title>
<path fill="none" stroke="midnightblue" d="M1929.36,-228.397C2009.12,-222.363 2145.41,-210.07 2271.81,-187.848"/>
<polygon fill="midnightblue" stroke="midnightblue" points="2272.44,-191.292 2281.67,-186.091 2271.21,-184.4 2272.44,-191.292"/>
</g>
<!-- Node33&#45;&gt;Node22 -->
<g id="edge51" class="edge"><title>Node33&#45;&gt;Node22</title>
<path fill="none" stroke="midnightblue" d="M1701.76,-168.245C1710.74,-159.969 1723.06,-146.663 1728.32,-132 1734.25,-115.453 1725.18,-96.8564 1716.17,-83.8077"/>
<polygon fill="midnightblue" stroke="midnightblue" points="1718.92,-81.65 1710.12,-75.7536 1713.32,-85.8523 1718.92,-81.65"/>
</g>
<!-- Node33&#45;&gt;Node23 -->
<g id="edge50" class="edge"><title>Node33&#45;&gt;Node23</title>
<path fill="none" stroke="midnightblue" d="M1668.66,-168.444C1644.91,-159.478 1607.41,-145.314 1580.58,-135.183"/>
<polygon fill="midnightblue" stroke="midnightblue" points="1581.46,-131.775 1570.87,-131.516 1578.99,-138.324 1581.46,-131.775"/>
</g>
<!-- Node34 -->
<g id="node34" class="node"><title>Node34</title>
<g id="a_node34"><a xlink:href="../../db/d2d/OutputSpec_8h.html" target="_top" xlink:title="Framework/OutputSpec.h">
<polygon fill="none" stroke="black" points="1591.32,-112.5 1591.32,-131.5 1719.32,-131.5 1719.32,-112.5 1591.32,-112.5"/>
<text text-anchor="middle" x="1655.32" y="-119.5" font-family="Helvetica,sans-Serif" font-size="10.00">Framework/OutputSpec.h</text>
</a>
</g>
</g>
<!-- Node33&#45;&gt;Node34 -->
<g id="edge48" class="edge"><title>Node33&#45;&gt;Node34</title>
<path fill="none" stroke="midnightblue" d="M1685.37,-168.083C1680.34,-160.534 1672.98,-149.495 1666.8,-140.23"/>
<polygon fill="midnightblue" stroke="midnightblue" points="1669.61,-138.13 1661.15,-131.751 1663.79,-142.013 1669.61,-138.13"/>
</g>
<!-- Node34&#45;&gt;Node5 -->
<g id="edge49" class="edge"><title>Node34&#45;&gt;Node5</title>
<path fill="none" stroke="midnightblue" d="M1591.17,-112.898C1587.84,-112.571 1584.54,-112.269 1581.32,-112 1236.47,-83.2258 822.339,-71.878 661.185,-68.3434"/>
<polygon fill="midnightblue" stroke="midnightblue" points="661.012,-64.839 650.939,-68.1218 660.861,-71.8373 661.012,-64.839"/>
</g>
<!-- Node36&#45;&gt;Node8 -->
<g id="edge56" class="edge"><title>Node36&#45;&gt;Node8</title>
<path fill="none" stroke="midnightblue" d="M1956.96,-112.314C1942.24,-97.6708 1910.06,-68.4534 1876.32,-56 1773.66,-18.117 1432.89,-12.1225 1322.3,-11.1765"/>
<polygon fill="midnightblue" stroke="midnightblue" points="1322.06,-7.67467 1312.04,-11.0978 1322.01,-14.6745 1322.06,-7.67467"/>
</g>
<!-- Node36&#45;&gt;Node22 -->
<g id="edge57" class="edge"><title>Node36&#45;&gt;Node22</title>
<path fill="none" stroke="midnightblue" d="M1911.98,-112.477C1866.54,-104.826 1799.37,-92.5947 1732.67,-76.1347"/>
<polygon fill="midnightblue" stroke="midnightblue" points="1733.38,-72.7057 1722.83,-73.6755 1731.68,-79.4966 1733.38,-72.7057"/>
</g>
<!-- Node36&#45;&gt;Node25 -->
<g id="edge55" class="edge"><title>Node36&#45;&gt;Node25</title>
<path fill="none" stroke="midnightblue" d="M1982.83,-112.324C2000.39,-103.625 2027.65,-90.1202 2047.85,-80.113"/>
<polygon fill="midnightblue" stroke="midnightblue" points="2049.44,-83.23 2056.85,-75.6545 2046.33,-76.9575 2049.44,-83.23"/>
</g>
<!-- Node37 -->
<g id="node37" class="node"><title>Node37</title>
<polygon fill="none" stroke="#bfbfbf" points="1924.32,-56.5 1924.32,-75.5 2034.32,-75.5 2034.32,-56.5 1924.32,-56.5"/>
<text text-anchor="middle" x="1979.32" y="-63.5" font-family="Helvetica,sans-Serif" font-size="10.00">fairmq/FairMQParts.h</text>
</g>
<!-- Node36&#45;&gt;Node37 -->
<g id="edge54" class="edge"><title>Node36&#45;&gt;Node37</title>
<path fill="none" stroke="midnightblue" d="M1967.63,-112.083C1969.48,-104.927 1972.15,-94.6353 1974.47,-85.6911"/>
<polygon fill="midnightblue" stroke="midnightblue" points="1977.93,-86.3094 1977.05,-75.7511 1971.15,-84.5527 1977.93,-86.3094"/>
</g>
<!-- Node38&#45;&gt;Node8 -->
<g id="edge62" class="edge"><title>Node38&#45;&gt;Node8</title>
<path fill="none" stroke="midnightblue" d="M2137.53,-112.413C2134,-97.9188 2124.66,-68.9202 2104.32,-56 2037.64,-13.6423 1470.03,-10.9193 1322.33,-10.9334"/>
<polygon fill="midnightblue" stroke="midnightblue" points="1322.05,-7.43346 1312.05,-10.939 1322.05,-14.4335 1322.05,-7.43346"/>
</g>
<!-- Node38&#45;&gt;Node12 -->
<g id="edge59" class="edge"><title>Node38&#45;&gt;Node12</title>
<path fill="none" stroke="midnightblue" d="M2086.24,-112.444C2026.82,-102.865 1930.6,-87.3556 1867.39,-77.1667"/>
<polygon fill="midnightblue" stroke="midnightblue" points="1867.58,-73.6525 1857.15,-75.5164 1866.47,-80.5633 1867.58,-73.6525"/>
</g>
<!-- Node38&#45;&gt;Node22 -->
<g id="edge63" class="edge"><title>Node38&#45;&gt;Node22</title>
<path fill="none" stroke="midnightblue" d="M2058.8,-112.954C1956.55,-102.618 1787.64,-85.1036 1733.17,-75.8656"/>
<polygon fill="midnightblue" stroke="midnightblue" points="1733.58,-72.3804 1723.1,-73.9718 1732.28,-79.2598 1733.58,-72.3804"/>
</g>
<!-- Node38&#45;&gt;Node25 -->
<g id="edge61" class="edge"><title>Node38&#45;&gt;Node25</title>
<path fill="none" stroke="midnightblue" d="M2128.87,-112.324C2119.17,-104.263 2104.5,-92.0765 2092.82,-82.3695"/>
<polygon fill="midnightblue" stroke="midnightblue" points="2094.88,-79.532 2084.95,-75.8339 2090.41,-84.9163 2094.88,-79.532"/>
</g>
<!-- Node39 -->
<g id="node39" class="node"><title>Node39</title>
<polygon fill="none" stroke="#bfbfbf" points="2152.82,-56.5 2152.82,-75.5 2211.82,-75.5 2211.82,-56.5 2152.82,-56.5"/>
<text text-anchor="middle" x="2182.32" y="-63.5" font-family="Helvetica,sans-Serif" font-size="10.00">TObject.h</text>
</g>
<!-- Node38&#45;&gt;Node39 -->
<g id="edge60" class="edge"><title>Node38&#45;&gt;Node39</title>
<path fill="none" stroke="midnightblue" d="M2146.42,-112.083C2152.55,-104.377 2161.59,-93.0333 2169.06,-83.6531"/>
<polygon fill="midnightblue" stroke="midnightblue" points="2171.86,-85.7542 2175.35,-75.7511 2166.38,-81.3936 2171.86,-85.7542"/>
</g>
<!-- Node40&#45;&gt;Node18 -->
<g id="edge66" class="edge"><title>Node40&#45;&gt;Node18</title>
<path fill="none" stroke="midnightblue" d="M1454.86,-168.324C1440.82,-159.9 1419.27,-146.971 1402.77,-137.074"/>
<polygon fill="midnightblue" stroke="midnightblue" points="1404.12,-133.798 1393.74,-131.655 1400.52,-139.801 1404.12,-133.798"/>
</g>
</g>
</svg>
        <g id="navigator" transform="translate(0 0)" fill="#404254">
                <rect fill="#f2f5e9" fill-opacity="0.5" stroke="#606060" stroke-width=".5" x="0" y="0" width="60" height="60"/>
                <use id="zoomplus" xlink:href="#zoomPlus" x="17" y="9" onmousedown="handleZoom(evt,'in')"/>
                <use id="zoomminus" xlink:href="#zoomMin" x="42" y="9" onmousedown="handleZoom(evt,'out')"/>
                <use id="reset" xlink:href="#resetDef" x="30" y="36" onmousedown="handleReset()"/>
                <g id="arrowUp" xlink:href="#dirArrow" transform="translate(30 24)" onmousedown="handlePan(0,-1)">
                  <use xlink:href="#rim" fill="#404040">
                        <set attributeName="fill" to="#808080" begin="arrowUp.mouseover" end="arrowUp.mouseout"/>
                  </use>
                  <path fill="none" stroke="white" stroke-width="1.5" d="M0,-3.0v7 M-2.5,-0.5L0,-3.0L2.5,-0.5"/>
                </g>
                <g id="arrowRight" xlink:href="#dirArrow" transform="rotate(90) translate(36 -43)" onmousedown="handlePan(1,0)">
                  <use xlink:href="#rim" fill="#404040">
                        <set attributeName="fill" to="#808080" begin="arrowRight.mouseover" end="arrowRight.mouseout"/>
                  </use>
                  <path fill="none" stroke="white" stroke-width="1.5" d="M0,-3.0v7 M-2.5,-0.5L0,-3.0L2.5,-0.5"/>
                </g>
                <g id="arrowDown" xlink:href="#dirArrow" transform="rotate(180) translate(-30 -48)" onmousedown="handlePan(0,1)">
                  <use xlink:href="#rim" fill="#404040">
                        <set attributeName="fill" to="#808080" begin="arrowDown.mouseover" end="arrowDown.mouseout"/>
                  </use>
                  <path fill="none" stroke="white" stroke-width="1.5" d="M0,-3.0v7 M-2.5,-0.5L0,-3.0L2.5,-0.5"/>
                </g>
                <g id="arrowLeft" xlink:href="#dirArrow" transform="rotate(270) translate(-36 17)" onmousedown="handlePan(-1,0)">
                  <use xlink:href="#rim" fill="#404040">
                        <set attributeName="fill" to="#808080" begin="arrowLeft.mouseover" end="arrowLeft.mouseout"/>
                  </use>
                  <path fill="none" stroke="white" stroke-width="1.5" d="M0,-3.0v7 M-2.5,-0.5L0,-3.0L2.5,-0.5"/>
                </g>
        </g>
        <svg viewBox="0 0 15 15" width="100%" height="30px" preserveAspectRatio="xMaxYMin meet">
         <g id="arrow_out" transform="scale(0.3 0.3)">
          <a xlink:href="ProcessingContext_8h__incl_org.svg" target="_base">
           <rect id="button" ry="5" rx="5" y="6" x="6" height="38" width="38"
                fill="#f2f5e9" fill-opacity="0.5" stroke="#606060" stroke-width="1.0"/>
           <path id="arrow"
             d="M 11.500037,31.436501 C 11.940474,20.09759 22.043105,11.32322 32.158766,21.979434 L 37.068811,17.246167 C 37.068811,17.246167 37.088388,32 37.088388,32 L 22.160133,31.978069 C 22.160133,31.978069 26.997745,27.140456 26.997745,27.140456 C 18.528582,18.264221 13.291696,25.230495 11.500037,31.436501 z"
             style="fill:#404040;"/>
          </a>
         </g>
        </svg>
</svg>
