<?xml version="1.0" encoding="UTF-8" standalone="no"?>
<!DOCTYPE svg PUBLIC "-//W3C//DTD SVG 1.1//EN"
 "http://www.w3.org/Graphics/SVG/1.1/DTD/svg11.dtd">
<!-- Generated by graphviz version 2.36.0 (20140111.2315)
 -->
<!-- Title: o2::Base::BaseCluster&lt; T &gt; Pages: 1 -->
<svg width="421pt" height="590pt"
 viewBox="0.00 0.00 421.00 590.00" xmlns="http://www.w3.org/2000/svg" xmlns:xlink="http://www.w3.org/1999/xlink">
<g id="graph0" class="graph" transform="scale(1 1) rotate(0) translate(4 586)">
<title>o2::Base::BaseCluster&lt; T &gt;</title>
<!-- Node1 -->
<g id="node1" class="node"><title>Node1</title>
<polygon fill="#bfbfbf" stroke="black" points="130,-0.5 130,-453.5 270,-453.5 270,-0.5 130,-0.5"/>
<text text-anchor="middle" x="200" y="-441.5" font-family="Helvetica,sans-Serif" font-size="10.00">o2::Base::BaseCluster&lt; T &gt;</text>
<polyline fill="none" stroke="black" points="130,-434.5 270,-434.5 "/>
<text text-anchor="middle" x="200" y="-422.5" font-family="Helvetica,sans-Serif" font-size="10.00"> </text>
<polyline fill="none" stroke="black" points="130,-415.5 270,-415.5 "/>
<text text-anchor="start" x="138" y="-403.5" font-family="Helvetica,sans-Serif" font-size="10.00">+ BaseCluster()</text>
<text text-anchor="start" x="138" y="-392.5" font-family="Helvetica,sans-Serif" font-size="10.00">+ BaseCluster()</text>
<text text-anchor="start" x="138" y="-381.5" font-family="Helvetica,sans-Serif" font-size="10.00">+ BaseCluster()</text>
<text text-anchor="start" x="138" y="-370.5" font-family="Helvetica,sans-Serif" font-size="10.00">+ BaseCluster()</text>
<text text-anchor="start" x="138" y="-359.5" font-family="Helvetica,sans-Serif" font-size="10.00">+ BaseCluster()</text>
<text text-anchor="start" x="138" y="-348.5" font-family="Helvetica,sans-Serif" font-size="10.00">+ getX()</text>
<text text-anchor="start" x="138" y="-337.5" font-family="Helvetica,sans-Serif" font-size="10.00">+ getY()</text>
<text text-anchor="start" x="138" y="-326.5" font-family="Helvetica,sans-Serif" font-size="10.00">+ getZ()</text>
<text text-anchor="start" x="138" y="-315.5" font-family="Helvetica,sans-Serif" font-size="10.00">+ getSigmaY2()</text>
<text text-anchor="start" x="138" y="-304.5" font-family="Helvetica,sans-Serif" font-size="10.00">+ getSigmaZ2()</text>
<text text-anchor="start" x="138" y="-293.5" font-family="Helvetica,sans-Serif" font-size="10.00">+ getSigmaYZ()</text>
<text text-anchor="start" x="138" y="-282.5" font-family="Helvetica,sans-Serif" font-size="10.00">+ getXYZ()</text>
<text text-anchor="start" x="138" y="-271.5" font-family="Helvetica,sans-Serif" font-size="10.00">+ getXYZ()</text>
<text text-anchor="start" x="138" y="-260.5" font-family="Helvetica,sans-Serif" font-size="10.00">+ getXYZLoc()</text>
<text text-anchor="start" x="138" y="-249.5" font-family="Helvetica,sans-Serif" font-size="10.00">+ getXYZGlo()</text>
<text text-anchor="start" x="138" y="-238.5" font-family="Helvetica,sans-Serif" font-size="10.00">+ getXYZGloRot()</text>
<text text-anchor="start" x="138" y="-227.5" font-family="Helvetica,sans-Serif" font-size="10.00">+ getSensorID()</text>
<text text-anchor="start" x="138" y="-216.5" font-family="Helvetica,sans-Serif" font-size="10.00">+ getCount()</text>
<text text-anchor="start" x="138" y="-205.5" font-family="Helvetica,sans-Serif" font-size="10.00">+ getBits()</text>
<text text-anchor="start" x="138" y="-194.5" font-family="Helvetica,sans-Serif" font-size="10.00">+ isBitSet()</text>
<text text-anchor="start" x="138" y="-183.5" font-family="Helvetica,sans-Serif" font-size="10.00">+ operator Point3D&lt; T &gt; &amp;()</text>
<text text-anchor="start" x="138" y="-172.5" font-family="Helvetica,sans-Serif" font-size="10.00">+ setSensorID()</text>
<text text-anchor="start" x="138" y="-161.5" font-family="Helvetica,sans-Serif" font-size="10.00">+ setCount()</text>
<text text-anchor="start" x="138" y="-150.5" font-family="Helvetica,sans-Serif" font-size="10.00">+ setBits()</text>
<text text-anchor="start" x="138" y="-139.5" font-family="Helvetica,sans-Serif" font-size="10.00">+ setBit()</text>
<text text-anchor="start" x="138" y="-128.5" font-family="Helvetica,sans-Serif" font-size="10.00">+ resetBit()</text>
<text text-anchor="start" x="138" y="-117.5" font-family="Helvetica,sans-Serif" font-size="10.00">+ setX()</text>
<text text-anchor="start" x="138" y="-106.5" font-family="Helvetica,sans-Serif" font-size="10.00">+ setY()</text>
<text text-anchor="start" x="138" y="-95.5" font-family="Helvetica,sans-Serif" font-size="10.00">+ setZ()</text>
<text text-anchor="start" x="138" y="-84.5" font-family="Helvetica,sans-Serif" font-size="10.00">+ setXYZ()</text>
<text text-anchor="start" x="138" y="-73.5" font-family="Helvetica,sans-Serif" font-size="10.00">+ setPos()</text>
<text text-anchor="start" x="138" y="-62.5" font-family="Helvetica,sans-Serif" font-size="10.00">+ setSigmaY2()</text>
<text text-anchor="start" x="138" y="-51.5" font-family="Helvetica,sans-Serif" font-size="10.00">+ setSigmaZ2()</text>
<text text-anchor="start" x="138" y="-40.5" font-family="Helvetica,sans-Serif" font-size="10.00">+ setSigmaYZ()</text>
<text text-anchor="start" x="138" y="-29.5" font-family="Helvetica,sans-Serif" font-size="10.00">+ setErrors()</text>
<text text-anchor="start" x="138" y="-18.5" font-family="Helvetica,sans-Serif" font-size="10.00"># ~BaseCluster()</text>
<text text-anchor="start" x="138" y="-7.5" font-family="Helvetica,sans-Serif" font-size="10.00"># ClassDefOverride()</text>
</g>
<!-- Node2 -->
<g id="node2" class="node"><title>Node2</title>
<polygon fill="none" stroke="#bfbfbf" points="-0.5,-524.5 -0.5,-581.5 50.5,-581.5 50.5,-524.5 -0.5,-524.5"/>
<text text-anchor="middle" x="25" y="-569.5" font-family="Helvetica,sans-Serif" font-size="10.00">TObject</text>
<polyline fill="none" stroke="#bfbfbf" points="-0.5,-562.5 50.5,-562.5 "/>
<text text-anchor="middle" x="25" y="-550.5" font-family="Helvetica,sans-Serif" font-size="10.00"> </text>
<polyline fill="none" stroke="#bfbfbf" points="-0.5,-543.5 50.5,-543.5 "/>
<text text-anchor="middle" x="25" y="-531.5" font-family="Helvetica,sans-Serif" font-size="10.00"> </text>
</g>
<!-- Node2&#45;&gt;Node1 -->
<g id="edge1" class="edge"><title>Node2&#45;&gt;Node1</title>
<path fill="none" stroke="midnightblue" d="M44.8965,-515.163C65.602,-476.828 99.2253,-414.577 129.882,-357.818"/>
<polygon fill="none" stroke="midnightblue" points="41.5933,-513.914 39.9204,-524.376 47.7523,-517.241 41.5933,-513.914"/>
</g>
<!-- Node3 -->
<g id="node3" class="node"><title>Node3</title>
<polygon fill="none" stroke="#bfbfbf" points="68.5,-524.5 68.5,-581.5 109.5,-581.5 109.5,-524.5 68.5,-524.5"/>
<text text-anchor="middle" x="89" y="-569.5" font-family="Helvetica,sans-Serif" font-size="10.00">int8_t</text>
<polyline fill="none" stroke="#bfbfbf" points="68.5,-562.5 109.5,-562.5 "/>
<text text-anchor="middle" x="89" y="-550.5" font-family="Helvetica,sans-Serif" font-size="10.00"> </text>
<polyline fill="none" stroke="#bfbfbf" points="68.5,-543.5 109.5,-543.5 "/>
<text text-anchor="middle" x="89" y="-531.5" font-family="Helvetica,sans-Serif" font-size="10.00"> </text>
</g>
<!-- Node3&#45;&gt;Node1 -->
<g id="edge2" class="edge"><title>Node3&#45;&gt;Node1</title>
<path fill="none" stroke="#404040" d="M98.4638,-524.376C105.264,-504.527 115.135,-475.714 126.085,-443.752"/>
<polygon fill="none" stroke="#404040" points="126.11,-443.677 124.271,-436.705 130,-432.325 131.839,-439.298 126.11,-443.677"/>
<text text-anchor="middle" x="137.5" y="-486.5" font-family="Helvetica,sans-Serif" font-size="10.00"> #mCount</text>
</g>
<!-- Node4 -->
<g id="node4" class="node"><title>Node4</title>
<polygon fill="none" stroke="#bfbfbf" points="128,-524.5 128,-581.5 204,-581.5 204,-524.5 128,-524.5"/>
<text text-anchor="middle" x="166" y="-569.5" font-family="Helvetica,sans-Serif" font-size="10.00">Point3D&lt; T &gt;</text>
<polyline fill="none" stroke="#bfbfbf" points="128,-562.5 204,-562.5 "/>
<text text-anchor="middle" x="166" y="-550.5" font-family="Helvetica,sans-Serif" font-size="10.00"> </text>
<polyline fill="none" stroke="#bfbfbf" points="128,-543.5 204,-543.5 "/>
<text text-anchor="middle" x="166" y="-531.5" font-family="Helvetica,sans-Serif" font-size="10.00"> </text>
</g>
<!-- Node4&#45;&gt;Node1 -->
<g id="edge3" class="edge"><title>Node4&#45;&gt;Node1</title>
<path fill="none" stroke="#404040" d="M168.899,-524.376C170.485,-509.259 172.617,-488.944 175.025,-465.998"/>
<polygon fill="none" stroke="#404040" points="175.055,-465.707 171.703,-459.322 176.308,-453.772 179.66,-460.157 175.055,-465.707"/>
<text text-anchor="middle" x="192" y="-486.5" font-family="Helvetica,sans-Serif" font-size="10.00"> #mPos</text>
</g>
<!-- Node5 -->
<g id="node5" class="node"><title>Node5</title>
<polygon fill="none" stroke="#bfbfbf" points="222.5,-524.5 222.5,-581.5 273.5,-581.5 273.5,-524.5 222.5,-524.5"/>
<text text-anchor="middle" x="248" y="-569.5" font-family="Helvetica,sans-Serif" font-size="10.00">uint16_t</text>
<polyline fill="none" stroke="#bfbfbf" points="222.5,-562.5 273.5,-562.5 "/>
<text text-anchor="middle" x="248" y="-550.5" font-family="Helvetica,sans-Serif" font-size="10.00"> </text>
<polyline fill="none" stroke="#bfbfbf" points="222.5,-543.5 273.5,-543.5 "/>
<text text-anchor="middle" x="248" y="-531.5" font-family="Helvetica,sans-Serif" font-size="10.00"> </text>
</g>
<!-- Node5&#45;&gt;Node1 -->
<g id="edge4" class="edge"><title>Node5&#45;&gt;Node1</title>
<path fill="none" stroke="#404040" d="M239.484,-524.434C237.824,-518.401 236.222,-512.018 235,-506 232.342,-492.911 229.852,-479.431 227.524,-465.796"/>
<polygon fill="none" stroke="#404040" points="227.494,-465.615 222.561,-460.355 225.519,-453.779 230.452,-459.039 227.494,-465.615"/>
<text text-anchor="middle" x="264" y="-486.5" font-family="Helvetica,sans-Serif" font-size="10.00"> #mSensorID</text>
</g>
<!-- Node6 -->
<g id="node6" class="node"><title>Node6</title>
<polygon fill="none" stroke="#bfbfbf" points="292,-524.5 292,-581.5 338,-581.5 338,-524.5 292,-524.5"/>
<text text-anchor="middle" x="315" y="-569.5" font-family="Helvetica,sans-Serif" font-size="10.00">uint8_t</text>
<polyline fill="none" stroke="#bfbfbf" points="292,-562.5 338,-562.5 "/>
<text text-anchor="middle" x="315" y="-550.5" font-family="Helvetica,sans-Serif" font-size="10.00"> </text>
<polyline fill="none" stroke="#bfbfbf" points="292,-543.5 338,-543.5 "/>
<text text-anchor="middle" x="315" y="-531.5" font-family="Helvetica,sans-Serif" font-size="10.00"> </text>
</g>
<!-- Node6&#45;&gt;Node1 -->
<g id="edge5" class="edge"><title>Node6&#45;&gt;Node1</title>
<path fill="none" stroke="#404040" d="M308.109,-524.407C304.062,-508.899 298.645,-489.25 293,-472 287.162,-454.16 280.78,-435.708 274.181,-417.308"/>
<polygon fill="none" stroke="#404040" points="274.125,-417.151 268.324,-412.866 270.048,-405.864 275.849,-410.149 274.125,-417.151"/>
<text text-anchor="middle" x="320" y="-486.5" font-family="Helvetica,sans-Serif" font-size="10.00"> #mBits</text>
</g>
<!-- Node7 -->
<g id="node7" class="node"><title>Node7</title>
<polygon fill="none" stroke="#bfbfbf" points="357.5,-524.5 357.5,-581.5 386.5,-581.5 386.5,-524.5 357.5,-524.5"/>
<text text-anchor="middle" x="372" y="-569.5" font-family="Helvetica,sans-Serif" font-size="10.00">T</text>
<polyline fill="none" stroke="#bfbfbf" points="357.5,-562.5 386.5,-562.5 "/>
<text text-anchor="middle" x="372" y="-550.5" font-family="Helvetica,sans-Serif" font-size="10.00"> </text>
<polyline fill="none" stroke="#bfbfbf" points="357.5,-543.5 386.5,-543.5 "/>
<text text-anchor="middle" x="372" y="-531.5" font-family="Helvetica,sans-Serif" font-size="10.00"> </text>
</g>
<!-- Node7&#45;&gt;Node1 -->
<g id="edge6" class="edge"><title>Node7&#45;&gt;Node1</title>
<path fill="none" stroke="#404040" d="M362.411,-524.156C356.746,-508.57 349.11,-488.925 341,-472 321.772,-431.872 298.41,-389.459 276.278,-351.45"/>
<polygon fill="none" stroke="#404040" points="276.136,-351.208 269.652,-348.051 270.072,-340.852 276.556,-344.009 276.136,-351.208"/>
<text text-anchor="middle" x="384" y="-497.5" font-family="Helvetica,sans-Serif" font-size="10.00"> #mSigmaYZ</text>
<text text-anchor="middle" x="384" y="-486.5" font-family="Helvetica,sans-Serif" font-size="10.00">#mSigmaZ2</text>
<text text-anchor="middle" x="384" y="-475.5" font-family="Helvetica,sans-Serif" font-size="10.00">#mSigmaY2</text>
</g>
</g>
</svg>
