<?xml version="1.0" encoding="UTF-8" standalone="no"?>
<!DOCTYPE svg PUBLIC "-//W3C//DTD SVG 1.1//EN"
 "http://www.w3.org/Graphics/SVG/1.1/DTD/svg11.dtd">
<!-- Generated by graphviz version 2.36.0 (20140111.2315)
 -->
<!-- Title: /home/travis/build/AliceO2Group/AliceO2/Framework/Core/include/Framework/TMessageSerializer.h Pages: 1 -->
<svg width="326pt" height="118pt"
 viewBox="0.00 0.00 326.00 118.00" xmlns="http://www.w3.org/2000/svg" xmlns:xlink="http://www.w3.org/1999/xlink">
<g id="graph0" class="graph" transform="scale(1 1) rotate(0) translate(4 114)">
<title>/home/travis/build/AliceO2Group/AliceO2/Framework/Core/include/Framework/TMessageSerializer.h</title>
<!-- Node1 -->
<g id="node1" class="node"><title>Node1</title>
<polygon fill="#bfbfbf" stroke="black" points="97,-57 97,-109 263,-109 263,-57 97,-57"/>
<text text-anchor="start" x="105" y="-97" font-family="Helvetica,sans-Serif" font-size="10.00">/home/travis/build</text>
<text text-anchor="start" x="105" y="-86" font-family="Helvetica,sans-Serif" font-size="10.00">/AliceO2Group/AliceO2</text>
<text text-anchor="start" x="105" y="-75" font-family="Helvetica,sans-Serif" font-size="10.00">/Framework/Core/include</text>
<text text-anchor="middle" x="180" y="-64" font-family="Helvetica,sans-Serif" font-size="10.00">/Framework/TMessageSerializer.h</text>
</g>
<!-- Node2 -->
<g id="node2" class="node"><title>Node2</title>
<polygon fill="none" stroke="#bfbfbf" points="-0.5,-0.5 -0.5,-19.5 126.5,-19.5 126.5,-0.5 -0.5,-0.5"/>
<text text-anchor="middle" x="63" y="-7.5" font-family="Helvetica,sans-Serif" font-size="10.00">fairmq/FairMQMessage.h</text>
</g>
<!-- Node1&#45;&gt;Node2 -->
<g id="edge1" class="edge"><title>Node1&#45;&gt;Node2</title>
<path fill="none" stroke="midnightblue" d="M138.75,-56.9681C120.989,-46.1897 100.897,-33.9975 85.8711,-24.879"/>
<polygon fill="midnightblue" stroke="midnightblue" points="87.6007,-21.8346 77.2359,-19.6389 83.9692,-27.819 87.6007,-21.8346"/>
</g>
<!-- Node3 -->
<g id="node3" class="node"><title>Node3</title>
<polygon fill="none" stroke="#bfbfbf" points="144.5,-0.5 144.5,-19.5 215.5,-19.5 215.5,-0.5 144.5,-0.5"/>
<text text-anchor="middle" x="180" y="-7.5" font-family="Helvetica,sans-Serif" font-size="10.00">TMessage.h</text>
</g>
<!-- Node1&#45;&gt;Node3 -->
<g id="edge2" class="edge"><title>Node1&#45;&gt;Node3</title>
<path fill="none" stroke="midnightblue" d="M180,-56.7681C180,-47.8897 180,-38.0737 180,-29.8165"/>
<polygon fill="midnightblue" stroke="midnightblue" points="183.5,-29.7571 180,-19.7572 176.5,-29.7572 183.5,-29.7571"/>
</g>
<!-- Node4 -->
<g id="node4" class="node"><title>Node4</title>
<polygon fill="none" stroke="#bfbfbf" points="233.5,-0.5 233.5,-19.5 318.5,-19.5 318.5,-0.5 233.5,-0.5"/>
<text text-anchor="middle" x="276" y="-7.5" font-family="Helvetica,sans-Serif" font-size="10.00">TClonesArray.h</text>
</g>
<!-- Node1&#45;&gt;Node4 -->
<g id="edge3" class="edge"><title>Node1&#45;&gt;Node4</title>
<path fill="none" stroke="midnightblue" d="M213.846,-56.9681C227.92,-46.559 243.777,-34.8313 255.952,-25.827"/>
<polygon fill="midnightblue" stroke="midnightblue" points="258.13,-28.5699 264.089,-19.8095 253.967,-22.9418 258.13,-28.5699"/>
</g>
</g>
</svg>
