<?xml version="1.0" encoding="UTF-8" standalone="no"?>
<!DOCTYPE svg PUBLIC "-//W3C//DTD SVG 1.1//EN"
 "http://www.w3.org/Graphics/SVG/1.1/DTD/svg11.dtd">
<!-- Generated by graphviz version 2.36.0 (20140111.2315)
 -->
<!-- Title: /home/travis/build/AliceO2Group/AliceO2/Detectors/Base/src/DetID.cxx Pages: 1 -->
<svg width="463pt" height="218pt"
 viewBox="0.00 0.00 463.00 218.00" xmlns="http://www.w3.org/2000/svg" xmlns:xlink="http://www.w3.org/1999/xlink">
<g id="graph0" class="graph" transform="scale(1 1) rotate(0) translate(4 214)">
<title>/home/travis/build/AliceO2Group/AliceO2/Detectors/Base/src/DetID.cxx</title>
<!-- Node1 -->
<g id="node1" class="node"><title>Node1</title>
<polygon fill="#bfbfbf" stroke="black" points="279,-168.5 279,-209.5 431,-209.5 431,-168.5 279,-168.5"/>
<text text-anchor="start" x="287" y="-197.5" font-family="Helvetica,sans-Serif" font-size="10.00">/home/travis/build</text>
<text text-anchor="start" x="287" y="-186.5" font-family="Helvetica,sans-Serif" font-size="10.00">/AliceO2Group/AliceO2</text>
<text text-anchor="middle" x="355" y="-175.5" font-family="Helvetica,sans-Serif" font-size="10.00">/Detectors/Base/src/DetID.cxx</text>
</g>
<!-- Node2 -->
<g id="node2" class="node"><title>Node2</title>
<g id="a_node2"><a xlink:href="../../d6/d31/DetID_8h.html" target="_top" xlink:title="DetectorsBase/DetID.h">
<polygon fill="none" stroke="black" points="150.5,-112.5 150.5,-131.5 269.5,-131.5 269.5,-112.5 150.5,-112.5"/>
<text text-anchor="middle" x="210" y="-119.5" font-family="Helvetica,sans-Serif" font-size="10.00">DetectorsBase/DetID.h</text>
</a>
</g>
</g>
<!-- Node1&#45;&gt;Node2 -->
<g id="edge1" class="edge"><title>Node1&#45;&gt;Node2</title>
<path fill="none" stroke="midnightblue" d="M311.495,-168.498C287.875,-157.909 259.338,-145.117 238.547,-135.797"/>
<polygon fill="midnightblue" stroke="midnightblue" points="239.859,-132.549 229.302,-131.652 236.995,-138.937 239.859,-132.549"/>
</g>
<!-- Node10 -->
<g id="node10" class="node"><title>Node10</title>
<polygon fill="none" stroke="#bfbfbf" points="387.5,-56.5 387.5,-75.5 436.5,-75.5 436.5,-56.5 387.5,-56.5"/>
<text text-anchor="middle" x="412" y="-63.5" font-family="Helvetica,sans-Serif" font-size="10.00">cassert</text>
</g>
<!-- Node1&#45;&gt;Node10 -->
<g id="edge12" class="edge"><title>Node1&#45;&gt;Node10</title>
<path fill="none" stroke="midnightblue" d="M357.394,-168.401C359.911,-152.519 364.828,-129.918 374,-112 379.451,-101.35 387.857,-91.0358 395.378,-82.9743"/>
<polygon fill="midnightblue" stroke="midnightblue" points="397.97,-85.3303 402.462,-75.735 392.967,-80.4345 397.97,-85.3303"/>
</g>
<!-- Node11 -->
<g id="node11" class="node"><title>Node11</title>
<polygon fill="none" stroke="#bfbfbf" points="383.5,-112.5 383.5,-131.5 454.5,-131.5 454.5,-112.5 383.5,-112.5"/>
<text text-anchor="middle" x="419" y="-119.5" font-family="Helvetica,sans-Serif" font-size="10.00">FairLogger.h</text>
</g>
<!-- Node1&#45;&gt;Node11 -->
<g id="edge11" class="edge"><title>Node1&#45;&gt;Node11</title>
<path fill="none" stroke="midnightblue" d="M374.202,-168.498C383.543,-159.011 394.625,-147.756 403.43,-138.813"/>
<polygon fill="midnightblue" stroke="midnightblue" points="405.959,-141.234 410.481,-131.652 400.971,-136.323 405.959,-141.234"/>
</g>
<!-- Node3 -->
<g id="node3" class="node"><title>Node3</title>
<polygon fill="none" stroke="#bfbfbf" points="0,-56.5 0,-75.5 46,-75.5 46,-56.5 0,-56.5"/>
<text text-anchor="middle" x="23" y="-63.5" font-family="Helvetica,sans-Serif" font-size="10.00">cstdint</text>
</g>
<!-- Node2&#45;&gt;Node3 -->
<g id="edge2" class="edge"><title>Node2&#45;&gt;Node3</title>
<path fill="none" stroke="midnightblue" d="M180.369,-112.444C146.438,-102.645 91.0095,-86.6391 55.8024,-76.4723"/>
<polygon fill="midnightblue" stroke="midnightblue" points="56.586,-73.0557 46.0075,-73.6439 54.6439,-79.7809 56.586,-73.0557"/>
</g>
<!-- Node4 -->
<g id="node4" class="node"><title>Node4</title>
<polygon fill="none" stroke="#bfbfbf" points="121,-0.5 121,-19.5 159,-19.5 159,-0.5 121,-0.5"/>
<text text-anchor="middle" x="140" y="-7.5" font-family="Helvetica,sans-Serif" font-size="10.00">array</text>
</g>
<!-- Node2&#45;&gt;Node4 -->
<g id="edge3" class="edge"><title>Node2&#45;&gt;Node4</title>
<path fill="none" stroke="midnightblue" d="M150.324,-112.432C128.575,-106.103 106.122,-95.1057 93,-76 80.8724,-58.3419 100.29,-38.4354 117.721,-25.3584"/>
<polygon fill="midnightblue" stroke="midnightblue" points="119.825,-28.1571 125.972,-19.5272 115.785,-22.4407 119.825,-28.1571"/>
</g>
<!-- Node5 -->
<g id="node5" class="node"><title>Node5</title>
<polygon fill="none" stroke="#bfbfbf" points="102,-56.5 102,-75.5 164,-75.5 164,-56.5 102,-56.5"/>
<text text-anchor="middle" x="133" y="-63.5" font-family="Helvetica,sans-Serif" font-size="10.00">type_traits</text>
</g>
<!-- Node2&#45;&gt;Node5 -->
<g id="edge4" class="edge"><title>Node2&#45;&gt;Node5</title>
<path fill="none" stroke="midnightblue" d="M197.629,-112.324C185.842,-104.058 167.868,-91.4527 153.864,-81.6322"/>
<polygon fill="midnightblue" stroke="midnightblue" points="155.538,-78.5307 145.341,-75.6545 151.518,-84.2619 155.538,-78.5307"/>
</g>
<!-- Node6 -->
<g id="node6" class="node"><title>Node6</title>
<polygon fill="none" stroke="#bfbfbf" points="182,-56.5 182,-75.5 238,-75.5 238,-56.5 182,-56.5"/>
<text text-anchor="middle" x="210" y="-63.5" font-family="Helvetica,sans-Serif" font-size="10.00">Rtypes.h</text>
</g>
<!-- Node2&#45;&gt;Node6 -->
<g id="edge5" class="edge"><title>Node2&#45;&gt;Node6</title>
<path fill="none" stroke="midnightblue" d="M210,-112.083C210,-105.006 210,-94.8611 210,-85.9865"/>
<polygon fill="midnightblue" stroke="midnightblue" points="213.5,-85.751 210,-75.7511 206.5,-85.7511 213.5,-85.751"/>
</g>
<!-- Node7 -->
<g id="node7" class="node"><title>Node7</title>
<g id="a_node7"><a xlink:href="../../d9/ded/Utils_8h.html" target="_top" xlink:title="DetectorsBase/Utils.h">
<polygon fill="none" stroke="black" points="256.5,-56.5 256.5,-75.5 369.5,-75.5 369.5,-56.5 256.5,-56.5"/>
<text text-anchor="middle" x="313" y="-63.5" font-family="Helvetica,sans-Serif" font-size="10.00">DetectorsBase/Utils.h</text>
</a>
</g>
</g>
<!-- Node2&#45;&gt;Node7 -->
<g id="edge6" class="edge"><title>Node2&#45;&gt;Node7</title>
<path fill="none" stroke="midnightblue" d="M226.549,-112.324C242.992,-103.703 268.435,-90.3643 287.468,-80.3855"/>
<polygon fill="midnightblue" stroke="midnightblue" points="289.261,-83.3977 296.492,-75.6545 286.011,-77.198 289.261,-83.3977"/>
</g>
<!-- Node2&#45;&gt;Node10 -->
<g id="edge10" class="edge"><title>Node2&#45;&gt;Node10</title>
<path fill="none" stroke="midnightblue" d="M242.008,-112.444C278.92,-102.576 339.383,-86.4126 377.369,-76.2577"/>
<polygon fill="midnightblue" stroke="midnightblue" points="378.692,-79.527 387.449,-73.5631 376.885,-72.7644 378.692,-79.527"/>
</g>
<!-- Node7&#45;&gt;Node4 -->
<g id="edge9" class="edge"><title>Node7&#45;&gt;Node4</title>
<path fill="none" stroke="midnightblue" d="M285.588,-56.4435C253.778,-46.5146 201.548,-30.2114 169.054,-20.069"/>
<polygon fill="midnightblue" stroke="midnightblue" points="169.838,-16.6471 159.249,-17.0084 167.752,-23.3291 169.838,-16.6471"/>
</g>
<!-- Node8 -->
<g id="node8" class="node"><title>Node8</title>
<g id="a_node8"><a xlink:href="../../d1/daa/Base_2include_2DetectorsBase_2Constants_8h.html" target="_top" xlink:title="DetectorsBase/Constants.h">
<polygon fill="none" stroke="black" points="189,-0.5 189,-19.5 327,-19.5 327,-0.5 189,-0.5"/>
<text text-anchor="middle" x="258" y="-7.5" font-family="Helvetica,sans-Serif" font-size="10.00">DetectorsBase/Constants.h</text>
</a>
</g>
</g>
<!-- Node7&#45;&gt;Node8 -->
<g id="edge7" class="edge"><title>Node7&#45;&gt;Node8</title>
<path fill="none" stroke="midnightblue" d="M303.918,-56.083C295.829,-48.1409 283.805,-36.3354 274.09,-26.7973"/>
<polygon fill="midnightblue" stroke="midnightblue" points="276.501,-24.2595 266.913,-19.7511 271.597,-29.2545 276.501,-24.2595"/>
</g>
<!-- Node9 -->
<g id="node9" class="node"><title>Node9</title>
<polygon fill="none" stroke="#bfbfbf" points="345,-0.5 345,-19.5 389,-19.5 389,-0.5 345,-0.5"/>
<text text-anchor="middle" x="367" y="-7.5" font-family="Helvetica,sans-Serif" font-size="10.00">cmath</text>
</g>
<!-- Node7&#45;&gt;Node9 -->
<g id="edge8" class="edge"><title>Node7&#45;&gt;Node9</title>
<path fill="none" stroke="midnightblue" d="M321.917,-56.083C329.78,-48.2195 341.431,-36.5688 350.919,-27.0813"/>
<polygon fill="midnightblue" stroke="midnightblue" points="353.653,-29.2971 358.249,-19.7511 348.703,-24.3473 353.653,-29.2971"/>
</g>
</g>
</svg>
