<?xml version="1.0" encoding="UTF-8" standalone="no"?>
<!DOCTYPE svg PUBLIC "-//W3C//DTD SVG 1.1//EN"
 "http://www.w3.org/Graphics/SVG/1.1/DTD/svg11.dtd">
<!-- Generated by graphviz version 2.36.0 (20140111.2315)
 -->
<!-- Title: o2::Header::HeartbeatFrameSequence&lt; SlotDataT &gt;::iterator Pages: 1 -->
<svg width="557pt" height="522pt"
 viewBox="0.00 0.00 557.00 522.00" xmlns="http://www.w3.org/2000/svg" xmlns:xlink="http://www.w3.org/1999/xlink">
<g id="graph0" class="graph" transform="scale(1 1) rotate(0) translate(4 518)">
<title>o2::Header::HeartbeatFrameSequence&lt; SlotDataT &gt;::iterator</title>
<!-- Node1 -->
<g id="node1" class="node"><title>Node1</title>
<polygon fill="#bfbfbf" stroke="black" points="217.5,-1 217.5,-179 358.5,-179 358.5,-1 217.5,-1"/>
<text text-anchor="start" x="225.5" y="-167" font-family="Helvetica,sans-Serif" font-size="10.00">o2::Header::HeartbeatFrame</text>
<text text-anchor="start" x="225.5" y="-156" font-family="Helvetica,sans-Serif" font-size="10.00">Sequence&lt; SlotDataT &gt;::</text>
<text text-anchor="middle" x="288" y="-145" font-family="Helvetica,sans-Serif" font-size="10.00">iterator</text>
<polyline fill="none" stroke="black" points="217.5,-138 358.5,-138 "/>
<text text-anchor="middle" x="288" y="-126" font-family="Helvetica,sans-Serif" font-size="10.00"> </text>
<polyline fill="none" stroke="black" points="217.5,-119 358.5,-119 "/>
<text text-anchor="start" x="225.5" y="-107" font-family="Helvetica,sans-Serif" font-size="10.00">+ iterator()</text>
<text text-anchor="start" x="225.5" y="-96" font-family="Helvetica,sans-Serif" font-size="10.00">+ ~iterator()</text>
<text text-anchor="start" x="225.5" y="-85" font-family="Helvetica,sans-Serif" font-size="10.00">+ iterator()</text>
<text text-anchor="start" x="225.5" y="-74" font-family="Helvetica,sans-Serif" font-size="10.00">+ operator++()</text>
<text text-anchor="start" x="225.5" y="-63" font-family="Helvetica,sans-Serif" font-size="10.00">+ operator*()</text>
<text text-anchor="start" x="225.5" y="-52" font-family="Helvetica,sans-Serif" font-size="10.00">+ operator==()</text>
<text text-anchor="start" x="225.5" y="-41" font-family="Helvetica,sans-Serif" font-size="10.00">+ operator!=()</text>
<text text-anchor="start" x="225.5" y="-30" font-family="Helvetica,sans-Serif" font-size="10.00">+ isEnd()</text>
<text text-anchor="start" x="225.5" y="-19" font-family="Helvetica,sans-Serif" font-size="10.00">+ isValid()</text>
<text text-anchor="start" x="225.5" y="-8" font-family="Helvetica,sans-Serif" font-size="10.00">+ getSlotData()</text>
</g>
<!-- Node2 -->
<g id="node2" class="node"><title>Node2</title>
<g id="a_node2"><a xlink:href="../../d5/d8c/structo2_1_1Header_1_1HeartbeatFrameSequence_1_1FrameData.html" target="_top" xlink:title="descriptor pointing to one frame ">
<polygon fill="none" stroke="black" points="0.5,-289.5 0.5,-368.5 141.5,-368.5 141.5,-289.5 0.5,-289.5"/>
<text text-anchor="start" x="8.5" y="-356.5" font-family="Helvetica,sans-Serif" font-size="10.00">o2::Header::HeartbeatFrame</text>
<text text-anchor="start" x="8.5" y="-345.5" font-family="Helvetica,sans-Serif" font-size="10.00">Sequence&lt; SlotDataT &gt;::</text>
<text text-anchor="middle" x="71" y="-334.5" font-family="Helvetica,sans-Serif" font-size="10.00">FrameData</text>
<polyline fill="none" stroke="black" points="0.5,-327.5 141.5,-327.5 "/>
<text text-anchor="middle" x="71" y="-315.5" font-family="Helvetica,sans-Serif" font-size="10.00"> </text>
<polyline fill="none" stroke="black" points="0.5,-308.5 141.5,-308.5 "/>
<text text-anchor="middle" x="71" y="-296.5" font-family="Helvetica,sans-Serif" font-size="10.00"> </text>
</a>
</g>
</g>
<!-- Node2&#45;&gt;Node1 -->
<g id="edge1" class="edge"><title>Node2&#45;&gt;Node1</title>
<path fill="none" stroke="#404040" d="M97.6324,-289.275C116.635,-262.624 143.433,-226.947 170,-198 181.85,-185.088 195.065,-172.011 208.243,-159.643"/>
<polygon fill="none" stroke="#404040" points="208.543,-159.364 210.223,-152.351 217.342,-151.204 215.663,-158.217 208.543,-159.364"/>
<text text-anchor="middle" x="193" y="-212.5" font-family="Helvetica,sans-Serif" font-size="10.00"> #mCache</text>
</g>
<!-- Node3 -->
<g id="node3" class="node"><title>Node3</title>
<polygon fill="none" stroke="#bfbfbf" points="-0.5,-456.5 -0.5,-513.5 68.5,-513.5 68.5,-456.5 -0.5,-456.5"/>
<text text-anchor="middle" x="34" y="-501.5" font-family="Helvetica,sans-Serif" font-size="10.00">const byte *</text>
<polyline fill="none" stroke="#bfbfbf" points="-0.5,-494.5 68.5,-494.5 "/>
<text text-anchor="middle" x="34" y="-482.5" font-family="Helvetica,sans-Serif" font-size="10.00"> </text>
<polyline fill="none" stroke="#bfbfbf" points="-0.5,-475.5 68.5,-475.5 "/>
<text text-anchor="middle" x="34" y="-463.5" font-family="Helvetica,sans-Serif" font-size="10.00"> </text>
</g>
<!-- Node3&#45;&gt;Node2 -->
<g id="edge2" class="edge"><title>Node3&#45;&gt;Node2</title>
<path fill="none" stroke="#404040" d="M40.6149,-456.468C45.6701,-435.427 52.7786,-405.84 58.8492,-380.574"/>
<polygon fill="none" stroke="#404040" points="58.9289,-380.241 56.4413,-373.473 61.7323,-368.574 64.22,-375.342 58.9289,-380.241"/>
<text text-anchor="middle" x="65" y="-429.5" font-family="Helvetica,sans-Serif" font-size="10.00"> +buffer</text>
</g>
<!-- Node4 -->
<g id="node4" class="node"><title>Node4</title>
<polygon fill="none" stroke="#bfbfbf" points="86.5,-456.5 86.5,-513.5 129.5,-513.5 129.5,-456.5 86.5,-456.5"/>
<text text-anchor="middle" x="108" y="-501.5" font-family="Helvetica,sans-Serif" font-size="10.00">size_t</text>
<polyline fill="none" stroke="#bfbfbf" points="86.5,-494.5 129.5,-494.5 "/>
<text text-anchor="middle" x="108" y="-482.5" font-family="Helvetica,sans-Serif" font-size="10.00"> </text>
<polyline fill="none" stroke="#bfbfbf" points="86.5,-475.5 129.5,-475.5 "/>
<text text-anchor="middle" x="108" y="-463.5" font-family="Helvetica,sans-Serif" font-size="10.00"> </text>
</g>
<!-- Node4&#45;&gt;Node2 -->
<g id="edge3" class="edge"><title>Node4&#45;&gt;Node2</title>
<path fill="none" stroke="#404040" d="M101.385,-456.468C96.3299,-435.427 89.2214,-405.84 83.1508,-380.574"/>
<polygon fill="none" stroke="#404040" points="83.0711,-380.241 77.78,-375.342 80.2677,-368.574 85.5587,-373.473 83.0711,-380.241"/>
<text text-anchor="middle" x="111" y="-429.5" font-family="Helvetica,sans-Serif" font-size="10.00"> +size</text>
</g>
<!-- Node5 -->
<g id="node5" class="node"><title>Node5</title>
<polygon fill="none" stroke="#bfbfbf" points="160,-300.5 160,-357.5 252,-357.5 252,-300.5 160,-300.5"/>
<text text-anchor="middle" x="206" y="-345.5" font-family="Helvetica,sans-Serif" font-size="10.00">IteratorDirections</text>
<polyline fill="none" stroke="#bfbfbf" points="160,-338.5 252,-338.5 "/>
<text text-anchor="middle" x="206" y="-326.5" font-family="Helvetica,sans-Serif" font-size="10.00"> </text>
<polyline fill="none" stroke="#bfbfbf" points="160,-319.5 252,-319.5 "/>
<text text-anchor="middle" x="206" y="-307.5" font-family="Helvetica,sans-Serif" font-size="10.00"> </text>
</g>
<!-- Node5&#45;&gt;Node1 -->
<g id="edge4" class="edge"><title>Node5&#45;&gt;Node1</title>
<path fill="none" stroke="#404040" d="M207.911,-300.427C210.402,-273.631 215.961,-232.104 228,-198 228.893,-195.471 229.843,-192.931 230.843,-190.389"/>
<polygon fill="none" stroke="#404040" points="230.876,-190.31 229.509,-183.23 235.519,-179.245 236.886,-186.326 230.876,-190.31"/>
<text text-anchor="middle" x="256" y="-212.5" font-family="Helvetica,sans-Serif" font-size="10.00"> #mDirection</text>
</g>
<!-- Node6 -->
<g id="node6" class="node"><title>Node6</title>
<polygon fill="none" stroke="#bfbfbf" points="270.5,-300.5 270.5,-357.5 305.5,-357.5 305.5,-300.5 270.5,-300.5"/>
<text text-anchor="middle" x="288" y="-345.5" font-family="Helvetica,sans-Serif" font-size="10.00">bool</text>
<polyline fill="none" stroke="#bfbfbf" points="270.5,-338.5 305.5,-338.5 "/>
<text text-anchor="middle" x="288" y="-326.5" font-family="Helvetica,sans-Serif" font-size="10.00"> </text>
<polyline fill="none" stroke="#bfbfbf" points="270.5,-319.5 305.5,-319.5 "/>
<text text-anchor="middle" x="288" y="-307.5" font-family="Helvetica,sans-Serif" font-size="10.00"> </text>
</g>
<!-- Node6&#45;&gt;Node1 -->
<g id="edge5" class="edge"><title>Node6&#45;&gt;Node1</title>
<path fill="none" stroke="#404040" d="M288,-300.349C288,-273.459 288,-230.972 288,-191.278"/>
<polygon fill="none" stroke="#404040" points="288,-191.07 284,-185.07 288,-179.07 292,-185.07 288,-191.07"/>
<text text-anchor="middle" x="317.5" y="-212.5" font-family="Helvetica,sans-Serif" font-size="10.00"> #mIsCached</text>
</g>
<!-- Node7 -->
<g id="node7" class="node"><title>Node7</title>
<g id="a_node7"><a xlink:href="../../dd/d39/classo2_1_1Header_1_1HeartbeatFrameSequence.html" target="_top" xlink:title="{o2::Header::HeartbeatFrame\lSequence\&lt; SlotDataT \&gt;\n||+ HeartbeatFrameSequence()\l+ ~HeartbeatFrameSequence()\l+ addSlot()\l+ clear()\l+ getNColumns()\l+ getNSlots()\l+ getSlotData()\l+ begin()\l+ end()\l}">
<polygon fill="none" stroke="black" points="324,-251 324,-407 476,-407 476,-251 324,-251"/>
<text text-anchor="start" x="332" y="-395" font-family="Helvetica,sans-Serif" font-size="10.00">o2::Header::HeartbeatFrame</text>
<text text-anchor="middle" x="400" y="-384" font-family="Helvetica,sans-Serif" font-size="10.00">Sequence&lt; SlotDataT &gt;</text>
<polyline fill="none" stroke="black" points="324,-377 476,-377 "/>
<text text-anchor="middle" x="400" y="-365" font-family="Helvetica,sans-Serif" font-size="10.00"> </text>
<polyline fill="none" stroke="black" points="324,-358 476,-358 "/>
<text text-anchor="start" x="332" y="-346" font-family="Helvetica,sans-Serif" font-size="10.00">+ HeartbeatFrameSequence()</text>
<text text-anchor="start" x="332" y="-335" font-family="Helvetica,sans-Serif" font-size="10.00">+ ~HeartbeatFrameSequence()</text>
<text text-anchor="start" x="332" y="-324" font-family="Helvetica,sans-Serif" font-size="10.00">+ addSlot()</text>
<text text-anchor="start" x="332" y="-313" font-family="Helvetica,sans-Serif" font-size="10.00">+ clear()</text>
<text text-anchor="start" x="332" y="-302" font-family="Helvetica,sans-Serif" font-size="10.00">+ getNColumns()</text>
<text text-anchor="start" x="332" y="-291" font-family="Helvetica,sans-Serif" font-size="10.00">+ getNSlots()</text>
<text text-anchor="start" x="332" y="-280" font-family="Helvetica,sans-Serif" font-size="10.00">+ getSlotData()</text>
<text text-anchor="start" x="332" y="-269" font-family="Helvetica,sans-Serif" font-size="10.00">+ begin()</text>
<text text-anchor="start" x="332" y="-258" font-family="Helvetica,sans-Serif" font-size="10.00">+ end()</text>
</a>
</g>
</g>
<!-- Node7&#45;&gt;Node1 -->
<g id="edge6" class="edge"><title>Node7&#45;&gt;Node1</title>
<path fill="none" stroke="#404040" d="M373.39,-250.78C366.643,-233.189 359.016,-214.753 351,-198 349.697,-195.278 348.349,-192.533 346.963,-189.777"/>
<polygon fill="none" stroke="#404040" points="346.961,-189.772 340.653,-186.276 341.454,-179.11 347.761,-182.605 346.961,-189.772"/>
<text text-anchor="middle" x="388" y="-212.5" font-family="Helvetica,sans-Serif" font-size="10.00"> #mParent</text>
</g>
<!-- Node8 -->
<g id="node8" class="node"><title>Node8</title>
<polygon fill="none" stroke="#bfbfbf" points="494,-300.5 494,-357.5 550,-357.5 550,-300.5 494,-300.5"/>
<text text-anchor="middle" x="522" y="-345.5" font-family="Helvetica,sans-Serif" font-size="10.00">unsigned</text>
<polyline fill="none" stroke="#bfbfbf" points="494,-338.5 550,-338.5 "/>
<text text-anchor="middle" x="522" y="-326.5" font-family="Helvetica,sans-Serif" font-size="10.00"> </text>
<polyline fill="none" stroke="#bfbfbf" points="494,-319.5 550,-319.5 "/>
<text text-anchor="middle" x="522" y="-307.5" font-family="Helvetica,sans-Serif" font-size="10.00"> </text>
</g>
<!-- Node8&#45;&gt;Node1 -->
<g id="edge7" class="edge"><title>Node8&#45;&gt;Node1</title>
<path fill="none" stroke="#404040" d="M512.405,-300.302C506.123,-284.569 496.873,-265.069 485,-250 452.664,-208.96 407.88,-171.75 369.181,-143.661"/>
<polygon fill="none" stroke="#404040" points="368.725,-143.335 361.518,-143.098 358.965,-136.354 366.172,-136.591 368.725,-143.335"/>
<text text-anchor="middle" x="492" y="-223.5" font-family="Helvetica,sans-Serif" font-size="10.00"> #mEnd</text>
<text text-anchor="middle" x="492" y="-212.5" font-family="Helvetica,sans-Serif" font-size="10.00">#mColumn</text>
<text text-anchor="middle" x="492" y="-201.5" font-family="Helvetica,sans-Serif" font-size="10.00">#mRow</text>
</g>
</g>
</svg>
