<?xml version="1.0" encoding="UTF-8" standalone="no"?>
<!DOCTYPE svg PUBLIC "-//W3C//DTD SVG 1.1//EN"
 "http://www.w3.org/Graphics/SVG/1.1/DTD/svg11.dtd">
<!-- Generated by graphviz version 2.36.0 (20140111.2315)
 -->
<!-- Title: /home/travis/build/AliceO2Group/AliceO2/Detectors/ITSMFT/ITS/reconstruction/include/ITSReconstruction/CATrackingStation.h Pages: 1 -->
<!--zoomable 488 -->
<svg id="main" version="1.1" xmlns="http://www.w3.org/2000/svg" xmlns:xlink="http://www.w3.org/1999/xlink" xml:space="preserve" onload="init(evt)">
<style type="text/css"><![CDATA[
.edge:hover path { stroke: red; }
.edge:hover polygon { stroke: red; fill: red; }
]]></style>
<script type="text/javascript"><![CDATA[
var edges = document.getElementsByTagName('g');
if (edges && edges.length) {
  for (var i=0;i<edges.length;i++) {
    if (edges[i].id.substr(0,4)=='edge') {
      edges[i].setAttribute('class','edge');
    }
  }
}
]]></script>
        <defs>
                <circle id="rim" cx="0" cy="0" r="7"/>
                <circle id="rim2" cx="0" cy="0" r="3.5"/>
                <g id="zoomPlus">
                        <use xlink:href="#rim" fill="#404040">
                                <set attributeName="fill" to="#808080" begin="zoomplus.mouseover" end="zoomplus.mouseout"/>
                        </use>
                        <path d="M-4,0h8M0,-4v8" fill="none" stroke="white" stroke-width="1.5" pointer-events="none"/>
                </g>
                <g id="zoomMin">
                        <use xlink:href="#rim" fill="#404040">
                                <set attributeName="fill" to="#808080" begin="zoomminus.mouseover" end="zoomminus.mouseout"/>
                        </use>
                        <path d="M-4,0h8" fill="none" stroke="white" stroke-width="1.5" pointer-events="none"/>
                </g>
                <g id="dirArrow">
                        <path fill="none" stroke="white" stroke-width="1.5" d="M0,-3.0v7 M-2.5,-0.5L0,-3.0L2.5,-0.5"/>
                </g>
               <g id="resetDef">
                       <use xlink:href="#rim2" fill="#404040">
                               <set attributeName="fill" to="#808080" begin="reset.mouseover" end="reset.mouseout"/>
                       </use>
               </g>
        </defs>

<script type="text/javascript">
var viewWidth = 1894;
var viewHeight = 488;
var sectionId = 'dynsection-0';
</script>
<script xlink:href="../../svgpan.js"/>
<svg id="graph" class="graph">
<g id="viewport">
<title>/home/travis/build/AliceO2Group/AliceO2/Detectors/ITSMFT/ITS/reconstruction/include/ITSReconstruction/CATrackingStation.h</title>
<!-- Node1 -->
<g id="node1" class="node"><title>Node1</title>
<polygon fill="#bfbfbf" stroke="black" points="704.5,-416.5 704.5,-479.5 899.5,-479.5 899.5,-416.5 704.5,-416.5"/>
<text text-anchor="start" x="712.5" y="-467.5" font-family="Helvetica,sans-Serif" font-size="10.00">/home/travis/build</text>
<text text-anchor="start" x="712.5" y="-456.5" font-family="Helvetica,sans-Serif" font-size="10.00">/AliceO2Group/AliceO2</text>
<text text-anchor="start" x="712.5" y="-445.5" font-family="Helvetica,sans-Serif" font-size="10.00">/Detectors/ITSMFT/ITS</text>
<text text-anchor="start" x="712.5" y="-434.5" font-family="Helvetica,sans-Serif" font-size="10.00">/reconstruction/include</text>
<text text-anchor="middle" x="802" y="-423.5" font-family="Helvetica,sans-Serif" font-size="10.00">/ITSReconstruction/CATrackingStation.h</text>
</g>
<!-- Node2 -->
<g id="node2" class="node"><title>Node2</title>
<polygon fill="none" stroke="#bfbfbf" points="807,-248.5 807,-267.5 863,-267.5 863,-248.5 807,-248.5"/>
<text text-anchor="middle" x="835" y="-255.5" font-family="Helvetica,sans-Serif" font-size="10.00">algorithm</text>
</g>
<!-- Node1&#45;&gt;Node2 -->
<g id="edge1" class="edge"><title>Node1&#45;&gt;Node2</title>
<path fill="none" stroke="midnightblue" d="M807.375,-416.376C814.27,-377.099 826.014,-310.19 831.71,-277.746"/>
<polygon fill="midnightblue" stroke="midnightblue" points="835.172,-278.263 833.454,-267.809 828.278,-277.053 835.172,-278.263"/>
</g>
<!-- Node3 -->
<g id="node3" class="node"><title>Node3</title>
<polygon fill="none" stroke="#bfbfbf" points="828,-136.5 828,-155.5 872,-155.5 872,-136.5 828,-136.5"/>
<text text-anchor="middle" x="850" y="-143.5" font-family="Helvetica,sans-Serif" font-size="10.00">vector</text>
</g>
<!-- Node1&#45;&gt;Node3 -->
<g id="edge2" class="edge"><title>Node1&#45;&gt;Node3</title>
<path fill="none" stroke="midnightblue" d="M793.566,-416.325C787.002,-389.739 779,-350.126 779,-315 779,-315 779,-315 779,-257 779,-218.101 810.73,-182.052 831.766,-162.426"/>
<polygon fill="midnightblue" stroke="midnightblue" points="834.114,-165.021 839.217,-155.736 829.437,-159.813 834.114,-165.021"/>
</g>
<!-- Node4 -->
<g id="node4" class="node"><title>Node4</title>
<polygon fill="none" stroke="#bfbfbf" points="352.5,-74.5 352.5,-93.5 401.5,-93.5 401.5,-74.5 352.5,-74.5"/>
<text text-anchor="middle" x="377" y="-81.5" font-family="Helvetica,sans-Serif" font-size="10.00">cassert</text>
</g>
<!-- Node1&#45;&gt;Node4 -->
<g id="edge3" class="edge"><title>Node1&#45;&gt;Node4</title>
<path fill="none" stroke="midnightblue" d="M704.213,-433.253C636.69,-417.602 559,-384.494 559,-315 559,-315 559,-315 559,-201 559,-182.696 452.96,-124.749 402.762,-98.3435"/>
<polygon fill="midnightblue" stroke="midnightblue" points="404.279,-95.1868 393.796,-93.6501 401.032,-101.389 404.279,-95.1868"/>
</g>
<!-- Node5 -->
<g id="node5" class="node"><title>Node5</title>
<g id="a_node5"><a xlink:href="../../d1/db5/CAaux_8h.html" target="_top" xlink:title="ITSReconstruction/CAaux.h">
<polygon fill="none" stroke="black" points="1572,-360.5 1572,-379.5 1712,-379.5 1712,-360.5 1572,-360.5"/>
<text text-anchor="middle" x="1642" y="-367.5" font-family="Helvetica,sans-Serif" font-size="10.00">ITSReconstruction/CAaux.h</text>
</a>
</g>
</g>
<!-- Node1&#45;&gt;Node5 -->
<g id="edge4" class="edge"><title>Node1&#45;&gt;Node5</title>
<path fill="none" stroke="midnightblue" d="M899.591,-438.17C1067.16,-423.01 1406.48,-392.309 1561.49,-378.285"/>
<polygon fill="midnightblue" stroke="midnightblue" points="1562.23,-381.732 1571.87,-377.345 1561.6,-374.76 1562.23,-381.732"/>
</g>
<!-- Node5&#45;&gt;Node3 -->
<g id="edge5" class="edge"><title>Node5&#45;&gt;Node3</title>
<path fill="none" stroke="midnightblue" d="M1572,-366.115C1414.76,-358.519 1039.03,-333.819 933,-268 893.448,-243.449 868.07,-192.292 856.784,-165.023"/>
<polygon fill="midnightblue" stroke="midnightblue" points="859.968,-163.557 853.034,-155.545 853.458,-166.132 859.968,-163.557"/>
</g>
<!-- Node6 -->
<g id="node6" class="node"><title>Node6</title>
<polygon fill="none" stroke="#bfbfbf" points="1545,-6.5 1545,-25.5 1583,-25.5 1583,-6.5 1545,-6.5"/>
<text text-anchor="middle" x="1564" y="-13.5" font-family="Helvetica,sans-Serif" font-size="10.00">array</text>
</g>
<!-- Node5&#45;&gt;Node6 -->
<g id="edge6" class="edge"><title>Node5&#45;&gt;Node6</title>
<path fill="none" stroke="midnightblue" d="M1667.68,-360.466C1705.57,-346.066 1772,-313.104 1772,-259 1772,-259 1772,-259 1772,-145 1772,-102.155 1748.71,-93.1196 1714,-68 1677.16,-41.3409 1625.35,-27.8453 1593.27,-21.6293"/>
<polygon fill="midnightblue" stroke="midnightblue" points="1593.66,-18.1429 1583.19,-19.7918 1592.4,-25.0293 1593.66,-18.1429"/>
</g>
<!-- Node7 -->
<g id="node7" class="node"><title>Node7</title>
<polygon fill="none" stroke="#bfbfbf" points="1804,-6.5 1804,-25.5 1848,-25.5 1848,-6.5 1804,-6.5"/>
<text text-anchor="middle" x="1826" y="-13.5" font-family="Helvetica,sans-Serif" font-size="10.00">cmath</text>
</g>
<!-- Node5&#45;&gt;Node7 -->
<g id="edge7" class="edge"><title>Node5&#45;&gt;Node7</title>
<path fill="none" stroke="midnightblue" d="M1712.25,-366.279C1784.33,-359.275 1886,-335.786 1886,-259 1886,-259 1886,-259 1886,-145 1886,-101.667 1857.46,-57.2201 1839.75,-33.8084"/>
<polygon fill="midnightblue" stroke="midnightblue" points="1842.28,-31.3645 1833.36,-25.6489 1836.77,-35.6802 1842.28,-31.3645"/>
</g>
<!-- Node8 -->
<g id="node8" class="node"><title>Node8</title>
<g id="a_node8"><a xlink:href="../../d7/d65/Detectors_2Base_2include_2DetectorsBase_2Track_8h.html" target="_top" xlink:title="DetectorsBase/Track.h">
<polygon fill="none" stroke="black" points="1453,-304.5 1453,-323.5 1571,-323.5 1571,-304.5 1453,-304.5"/>
<text text-anchor="middle" x="1512" y="-311.5" font-family="Helvetica,sans-Serif" font-size="10.00">DetectorsBase/Track.h</text>
</a>
</g>
</g>
<!-- Node5&#45;&gt;Node8 -->
<g id="edge8" class="edge"><title>Node5&#45;&gt;Node8</title>
<path fill="none" stroke="midnightblue" d="M1621.4,-360.444C1600.01,-351.557 1566.32,-337.563 1541.98,-327.451"/>
<polygon fill="midnightblue" stroke="midnightblue" points="1543.08,-324.12 1532.5,-323.516 1540.39,-330.585 1543.08,-324.12"/>
</g>
<!-- Node35 -->
<g id="node35" class="node"><title>Node35</title>
<g id="a_node35"><a xlink:href="../../d1/daa/Base_2include_2DetectorsBase_2Constants_8h.html" target="_top" xlink:title="DetectorsBase/Constants.h">
<polygon fill="none" stroke="black" points="1648,-6.5 1648,-25.5 1786,-25.5 1786,-6.5 1648,-6.5"/>
<text text-anchor="middle" x="1717" y="-13.5" font-family="Helvetica,sans-Serif" font-size="10.00">DetectorsBase/Constants.h</text>
</a>
</g>
</g>
<!-- Node5&#45;&gt;Node35 -->
<g id="edge55" class="edge"><title>Node5&#45;&gt;Node35</title>
<path fill="none" stroke="midnightblue" d="M1712.03,-360.656C1771.75,-349.173 1848,-322.146 1848,-259 1848,-259 1848,-259 1848,-145 1848,-88.7186 1785.38,-49.0744 1746.73,-29.9661"/>
<polygon fill="midnightblue" stroke="midnightblue" points="1748,-26.697 1737.47,-25.5529 1744.99,-33.0157 1748,-26.697"/>
</g>
<!-- Node8&#45;&gt;Node2 -->
<g id="edge10" class="edge"><title>Node8&#45;&gt;Node2</title>
<path fill="none" stroke="midnightblue" d="M1452.62,-309.251C1345.24,-302.308 1111.62,-286.464 915,-268 901.385,-266.721 886.491,-265.106 873.284,-263.597"/>
<polygon fill="midnightblue" stroke="midnightblue" points="873.448,-260.093 863.112,-262.418 872.643,-267.046 873.448,-260.093"/>
</g>
<!-- Node8&#45;&gt;Node6 -->
<g id="edge11" class="edge"><title>Node8&#45;&gt;Node6</title>
<path fill="none" stroke="midnightblue" d="M1513.5,-304.461C1520.57,-264.2 1550.66,-92.912 1560.72,-35.6953"/>
<polygon fill="midnightblue" stroke="midnightblue" points="1564.21,-36.0289 1562.49,-25.5741 1557.32,-34.8177 1564.21,-36.0289"/>
</g>
<!-- Node8&#45;&gt;Node7 -->
<g id="edge13" class="edge"><title>Node8&#45;&gt;Node7</title>
<path fill="none" stroke="midnightblue" d="M1571.45,-307.249C1614.94,-301.416 1674.56,-289.973 1723,-268 1766.96,-248.059 1810,-251.267 1810,-203 1810,-203 1810,-203 1810,-145 1810,-105.77 1817.49,-60.2954 1822.22,-35.4904"/>
<polygon fill="midnightblue" stroke="midnightblue" points="1825.66,-36.133 1824.16,-25.6447 1818.8,-34.7781 1825.66,-36.133"/>
</g>
<!-- Node9 -->
<g id="node9" class="node"><title>Node9</title>
<polygon fill="none" stroke="#bfbfbf" points="1442,-74.5 1442,-93.5 1498,-93.5 1498,-74.5 1442,-74.5"/>
<text text-anchor="middle" x="1470" y="-81.5" font-family="Helvetica,sans-Serif" font-size="10.00">Rtypes.h</text>
</g>
<!-- Node8&#45;&gt;Node9 -->
<g id="edge9" class="edge"><title>Node8&#45;&gt;Node9</title>
<path fill="none" stroke="midnightblue" d="M1510.71,-304.472C1507.68,-284.674 1499.8,-234.08 1492,-192 1486.23,-160.861 1478.63,-124.818 1474.04,-103.518"/>
<polygon fill="midnightblue" stroke="midnightblue" points="1477.42,-102.609 1471.88,-93.5768 1470.58,-104.091 1477.42,-102.609"/>
</g>
<!-- Node10 -->
<g id="node10" class="node"><title>Node10</title>
<polygon fill="none" stroke="#bfbfbf" points="1612.5,-248.5 1612.5,-267.5 1653.5,-267.5 1653.5,-248.5 1612.5,-248.5"/>
<text text-anchor="middle" x="1633" y="-255.5" font-family="Helvetica,sans-Serif" font-size="10.00">cfloat</text>
</g>
<!-- Node8&#45;&gt;Node10 -->
<g id="edge12" class="edge"><title>Node8&#45;&gt;Node10</title>
<path fill="none" stroke="midnightblue" d="M1531.17,-304.444C1550.91,-295.636 1581.89,-281.812 1604.49,-271.722"/>
<polygon fill="midnightblue" stroke="midnightblue" points="1606.21,-274.788 1613.92,-267.516 1603.36,-268.396 1606.21,-274.788"/>
</g>
<!-- Node11 -->
<g id="node11" class="node"><title>Node11</title>
<polygon fill="none" stroke="#bfbfbf" points="957,-248.5 957,-267.5 1003,-267.5 1003,-248.5 957,-248.5"/>
<text text-anchor="middle" x="980" y="-255.5" font-family="Helvetica,sans-Serif" font-size="10.00">cstring</text>
</g>
<!-- Node8&#45;&gt;Node11 -->
<g id="edge14" class="edge"><title>Node8&#45;&gt;Node11</title>
<path fill="none" stroke="midnightblue" d="M1452.64,-311.195C1360.43,-307.617 1177.22,-297.411 1013.56,-267.965"/>
<polygon fill="midnightblue" stroke="midnightblue" points="1013.77,-264.446 1003.3,-266.09 1012.51,-271.332 1013.77,-264.446"/>
</g>
<!-- Node12 -->
<g id="node12" class="node"><title>Node12</title>
<polygon fill="none" stroke="#bfbfbf" points="1188,-74.5 1188,-93.5 1242,-93.5 1242,-74.5 1188,-74.5"/>
<text text-anchor="middle" x="1215" y="-81.5" font-family="Helvetica,sans-Serif" font-size="10.00">iostream</text>
</g>
<!-- Node8&#45;&gt;Node12 -->
<g id="edge15" class="edge"><title>Node8&#45;&gt;Node12</title>
<path fill="none" stroke="midnightblue" d="M1509.27,-304.186C1501.28,-278.996 1477.42,-207.51 1459,-192 1407.88,-148.953 1373.63,-184.125 1313,-156 1281.76,-141.509 1250.35,-116.471 1231.8,-100.33"/>
<polygon fill="midnightblue" stroke="midnightblue" points="1234.03,-97.6283 1224.22,-93.6103 1229.38,-102.865 1234.03,-97.6283"/>
</g>
<!-- Node13 -->
<g id="node13" class="node"><title>Node13</title>
<polygon fill="none" stroke="#bfbfbf" points="1021.5,-248.5 1021.5,-267.5 1104.5,-267.5 1104.5,-248.5 1021.5,-248.5"/>
<text text-anchor="middle" x="1063" y="-255.5" font-family="Helvetica,sans-Serif" font-size="10.00">Math/SMatrix.h</text>
</g>
<!-- Node8&#45;&gt;Node13 -->
<g id="edge16" class="edge"><title>Node8&#45;&gt;Node13</title>
<path fill="none" stroke="midnightblue" d="M1452.69,-307.541C1376.68,-300.271 1240.61,-286.335 1114.9,-268.202"/>
<polygon fill="midnightblue" stroke="midnightblue" points="1115.11,-264.696 1104.71,-266.719 1114.1,-271.623 1115.11,-264.696"/>
</g>
<!-- Node14 -->
<g id="node14" class="node"><title>Node14</title>
<polygon fill="none" stroke="#bfbfbf" points="1122.5,-248.5 1122.5,-267.5 1207.5,-267.5 1207.5,-248.5 1122.5,-248.5"/>
<text text-anchor="middle" x="1165" y="-255.5" font-family="Helvetica,sans-Serif" font-size="10.00">Math/SVector.h</text>
</g>
<!-- Node8&#45;&gt;Node14 -->
<g id="edge17" class="edge"><title>Node8&#45;&gt;Node14</title>
<path fill="none" stroke="midnightblue" d="M1453.25,-304.489C1395.69,-296.056 1305.22,-282.547 1217.67,-268.246"/>
<polygon fill="midnightblue" stroke="midnightblue" points="1218,-264.753 1207.56,-266.589 1216.87,-271.661 1218,-264.753"/>
</g>
<!-- Node15 -->
<g id="node15" class="node"><title>Node15</title>
<g id="a_node15"><a xlink:href="../../d4/de2/BaseCluster_8h.html" target="_top" xlink:title="DetectorsBase/BaseCluster.h">
<polygon fill="none" stroke="black" points="1225.5,-248.5 1225.5,-267.5 1372.5,-267.5 1372.5,-248.5 1225.5,-248.5"/>
<text text-anchor="middle" x="1299" y="-255.5" font-family="Helvetica,sans-Serif" font-size="10.00">DetectorsBase/BaseCluster.h</text>
</a>
</g>
</g>
<!-- Node8&#45;&gt;Node15 -->
<g id="edge18" class="edge"><title>Node8&#45;&gt;Node15</title>
<path fill="none" stroke="midnightblue" d="M1478.25,-304.444C1441.48,-295.122 1382.55,-280.183 1342.38,-269.997"/>
<polygon fill="midnightblue" stroke="midnightblue" points="1343.15,-266.581 1332.59,-267.516 1341.43,-273.367 1343.15,-266.581"/>
</g>
<!-- Node20 -->
<g id="node20" class="node"><title>Node20</title>
<g id="a_node20"><a xlink:href="../../dd/d76/Cartesian3D_8h.html" target="_top" xlink:title="MathUtils/Cartesian3D.h">
<polygon fill="none" stroke="black" points="889.5,-136.5 889.5,-155.5 1014.5,-155.5 1014.5,-136.5 889.5,-136.5"/>
<text text-anchor="middle" x="952" y="-143.5" font-family="Helvetica,sans-Serif" font-size="10.00">MathUtils/Cartesian3D.h</text>
</a>
</g>
</g>
<!-- Node8&#45;&gt;Node20 -->
<g id="edge54" class="edge"><title>Node8&#45;&gt;Node20</title>
<path fill="none" stroke="midnightblue" d="M1452.82,-312.712C1315,-311.427 981.736,-304.534 948,-268 922.309,-240.177 934.763,-191.581 944.394,-165.235"/>
<polygon fill="midnightblue" stroke="midnightblue" points="947.73,-166.312 948.107,-155.724 941.209,-163.767 947.73,-166.312"/>
</g>
<!-- Node34 -->
<g id="node34" class="node"><title>Node34</title>
<g id="a_node34"><a xlink:href="../../d9/ded/Utils_8h.html" target="_top" xlink:title="DetectorsBase/Utils.h">
<polygon fill="none" stroke="black" points="1592.5,-74.5 1592.5,-93.5 1705.5,-93.5 1705.5,-74.5 1592.5,-74.5"/>
<text text-anchor="middle" x="1649" y="-81.5" font-family="Helvetica,sans-Serif" font-size="10.00">DetectorsBase/Utils.h</text>
</a>
</g>
</g>
<!-- Node8&#45;&gt;Node34 -->
<g id="edge53" class="edge"><title>Node8&#45;&gt;Node34</title>
<path fill="none" stroke="midnightblue" d="M1571.04,-311.49C1603.43,-307.258 1641.15,-296.03 1662,-268 1698.87,-218.442 1672.42,-138.946 1657.42,-103.313"/>
<polygon fill="midnightblue" stroke="midnightblue" points="1660.45,-101.493 1653.22,-93.7451 1654.04,-104.308 1660.45,-101.493"/>
</g>
<!-- Node8&#45;&gt;Node35 -->
<g id="edge52" class="edge"><title>Node8&#45;&gt;Node35</title>
<path fill="none" stroke="midnightblue" d="M1571.2,-308.746C1636.96,-300.42 1734,-275.8 1734,-203 1734,-203 1734,-203 1734,-145 1734,-105.731 1726.04,-60.2709 1721.01,-35.4788"/>
<polygon fill="midnightblue" stroke="midnightblue" points="1724.43,-34.7072 1718.95,-25.6387 1717.58,-36.1442 1724.43,-34.7072"/>
</g>
<!-- Node15&#45;&gt;Node12 -->
<g id="edge23" class="edge"><title>Node15&#45;&gt;Node12</title>
<path fill="none" stroke="midnightblue" d="M1292.02,-248.432C1281.21,-235.429 1259.42,-210.293 1238,-192 1216.35,-173.506 1198.33,-181.164 1185,-156 1175.37,-137.811 1188.14,-115.848 1199.87,-101.213"/>
<polygon fill="midnightblue" stroke="midnightblue" points="1202.61,-103.39 1206.48,-93.5261 1197.31,-98.8261 1202.61,-103.39"/>
</g>
<!-- Node16 -->
<g id="node16" class="node"><title>Node16</title>
<polygon fill="none" stroke="#bfbfbf" points="995.5,-192.5 995.5,-211.5 1054.5,-211.5 1054.5,-192.5 995.5,-192.5"/>
<text text-anchor="middle" x="1025" y="-199.5" font-family="Helvetica,sans-Serif" font-size="10.00">TObject.h</text>
</g>
<!-- Node15&#45;&gt;Node16 -->
<g id="edge19" class="edge"><title>Node15&#45;&gt;Node16</title>
<path fill="none" stroke="midnightblue" d="M1250.96,-248.482C1205.33,-240.247 1134.57,-227.104 1064.69,-212.299"/>
<polygon fill="midnightblue" stroke="midnightblue" points="1065.35,-208.861 1054.84,-210.199 1063.89,-215.707 1065.35,-208.861"/>
</g>
<!-- Node17 -->
<g id="node17" class="node"><title>Node17</title>
<polygon fill="none" stroke="#bfbfbf" points="1072.5,-192.5 1072.5,-211.5 1113.5,-211.5 1113.5,-192.5 1072.5,-192.5"/>
<text text-anchor="middle" x="1093" y="-199.5" font-family="Helvetica,sans-Serif" font-size="10.00">bitset</text>
</g>
<!-- Node15&#45;&gt;Node17 -->
<g id="edge20" class="edge"><title>Node15&#45;&gt;Node17</title>
<path fill="none" stroke="midnightblue" d="M1263.82,-248.458C1230.23,-240.201 1177.97,-227.094 1123.46,-212.041"/>
<polygon fill="midnightblue" stroke="midnightblue" points="1124.2,-208.612 1113.62,-209.309 1122.32,-215.357 1124.2,-208.612"/>
</g>
<!-- Node18 -->
<g id="node18" class="node"><title>Node18</title>
<polygon fill="none" stroke="#bfbfbf" points="1132,-192.5 1132,-211.5 1182,-211.5 1182,-192.5 1132,-192.5"/>
<text text-anchor="middle" x="1157" y="-199.5" font-family="Helvetica,sans-Serif" font-size="10.00">iomanip</text>
</g>
<!-- Node15&#45;&gt;Node18 -->
<g id="edge21" class="edge"><title>Node15&#45;&gt;Node18</title>
<path fill="none" stroke="midnightblue" d="M1276.5,-248.444C1252.92,-239.478 1215.68,-225.314 1189.04,-215.183"/>
<polygon fill="midnightblue" stroke="midnightblue" points="1189.99,-211.8 1179.4,-211.516 1187.5,-218.342 1189.99,-211.8"/>
</g>
<!-- Node19 -->
<g id="node19" class="node"><title>Node19</title>
<polygon fill="none" stroke="#bfbfbf" points="1200.5,-192.5 1200.5,-211.5 1229.5,-211.5 1229.5,-192.5 1200.5,-192.5"/>
<text text-anchor="middle" x="1215" y="-199.5" font-family="Helvetica,sans-Serif" font-size="10.00">ios</text>
</g>
<!-- Node15&#45;&gt;Node19 -->
<g id="edge22" class="edge"><title>Node15&#45;&gt;Node19</title>
<path fill="none" stroke="midnightblue" d="M1285.5,-248.324C1272.4,-239.9 1252.29,-226.971 1236.89,-217.074"/>
<polygon fill="midnightblue" stroke="midnightblue" points="1238.77,-214.118 1228.46,-211.655 1234.98,-220.006 1238.77,-214.118"/>
</g>
<!-- Node15&#45;&gt;Node20 -->
<g id="edge24" class="edge"><title>Node15&#45;&gt;Node20</title>
<path fill="none" stroke="midnightblue" d="M1228.15,-248.466C1138.88,-237.471 995.817,-218.947 986,-212 970.44,-200.99 961.453,-180.635 956.671,-165.627"/>
<polygon fill="midnightblue" stroke="midnightblue" points="959.995,-164.518 953.899,-155.853 953.261,-166.428 959.995,-164.518"/>
</g>
<!-- Node30 -->
<g id="node30" class="node"><title>Node30</title>
<g id="a_node30"><a xlink:href="../../d4/d20/DetMatrixCache_8h.html" target="_top" xlink:title="DetectorsBase/DetMatrixCache.h">
<polygon fill="none" stroke="black" points="1286,-192.5 1286,-211.5 1450,-211.5 1450,-192.5 1286,-192.5"/>
<text text-anchor="middle" x="1368" y="-199.5" font-family="Helvetica,sans-Serif" font-size="10.00">DetectorsBase/DetMatrixCache.h</text>
</a>
</g>
</g>
<!-- Node15&#45;&gt;Node30 -->
<g id="edge36" class="edge"><title>Node15&#45;&gt;Node30</title>
<path fill="none" stroke="midnightblue" d="M1310.09,-248.324C1320.49,-240.185 1336.26,-227.839 1348.72,-218.087"/>
<polygon fill="midnightblue" stroke="midnightblue" points="1350.99,-220.753 1356.71,-211.834 1346.68,-215.241 1350.99,-220.753"/>
</g>
<!-- Node20&#45;&gt;Node9 -->
<g id="edge28" class="edge"><title>Node20&#45;&gt;Node9</title>
<path fill="none" stroke="midnightblue" d="M1014.6,-140.549C1100.62,-133.997 1260.07,-120.297 1395,-100 1407.09,-98.1819 1420.18,-95.7322 1431.99,-93.3401"/>
<polygon fill="midnightblue" stroke="midnightblue" points="1432.89,-96.7261 1441.98,-91.2701 1431.47,-89.8717 1432.89,-96.7261"/>
</g>
<!-- Node20&#45;&gt;Node12 -->
<g id="edge35" class="edge"><title>Node20&#45;&gt;Node12</title>
<path fill="none" stroke="midnightblue" d="M1010.33,-136.492C1056.4,-129.031 1122.04,-116.75 1178,-100 1180.65,-99.2074 1183.37,-98.2978 1186.08,-97.3269"/>
<polygon fill="midnightblue" stroke="midnightblue" points="1187.58,-100.497 1195.66,-93.6413 1185.07,-93.9634 1187.58,-100.497"/>
</g>
<!-- Node21 -->
<g id="node21" class="node"><title>Node21</title>
<polygon fill="none" stroke="#bfbfbf" points="877.5,-74.5 877.5,-93.5 1026.5,-93.5 1026.5,-74.5 877.5,-74.5"/>
<text text-anchor="middle" x="952" y="-81.5" font-family="Helvetica,sans-Serif" font-size="10.00">Math/GenVector/Rotation3D.h</text>
</g>
<!-- Node20&#45;&gt;Node21 -->
<g id="edge25" class="edge"><title>Node20&#45;&gt;Node21</title>
<path fill="none" stroke="midnightblue" d="M952,-136.403C952,-127.938 952,-114.728 952,-103.82"/>
<polygon fill="midnightblue" stroke="midnightblue" points="955.5,-103.581 952,-93.5806 948.5,-103.581 955.5,-103.581"/>
</g>
<!-- Node22 -->
<g id="node22" class="node"><title>Node22</title>
<polygon fill="none" stroke="#bfbfbf" points="0,-74.5 0,-93.5 156,-93.5 156,-74.5 0,-74.5"/>
<text text-anchor="middle" x="78" y="-81.5" font-family="Helvetica,sans-Serif" font-size="10.00">Math/GenVector/Transform3D.h</text>
</g>
<!-- Node20&#45;&gt;Node22 -->
<g id="edge26" class="edge"><title>Node20&#45;&gt;Node22</title>
<path fill="none" stroke="midnightblue" d="M889.201,-136.872C886.092,-136.557 883.012,-136.264 880,-136 563.032,-108.248 481.239,-135.094 165,-100 154.037,-98.7834 142.362,-97.0653 131.242,-95.2239"/>
<polygon fill="midnightblue" stroke="midnightblue" points="131.669,-91.7462 121.222,-93.5089 130.488,-98.6458 131.669,-91.7462"/>
</g>
<!-- Node23 -->
<g id="node23" class="node"><title>Node23</title>
<polygon fill="none" stroke="#bfbfbf" points="174,-74.5 174,-93.5 334,-93.5 334,-74.5 174,-74.5"/>
<text text-anchor="middle" x="254" y="-81.5" font-family="Helvetica,sans-Serif" font-size="10.00">Math/GenVector/Translation3D.h</text>
</g>
<!-- Node20&#45;&gt;Node23 -->
<g id="edge27" class="edge"><title>Node20&#45;&gt;Node23</title>
<path fill="none" stroke="midnightblue" d="M889.195,-136.934C886.088,-136.602 883.01,-136.289 880,-136 641.891,-113.156 580.568,-127.912 343,-100 332.038,-98.7121 320.371,-96.9973 309.216,-95.1881"/>
<polygon fill="midnightblue" stroke="midnightblue" points="309.591,-91.7023 299.151,-93.5096 308.439,-98.6069 309.591,-91.7023"/>
</g>
<!-- Node24 -->
<g id="node24" class="node"><title>Node24</title>
<polygon fill="none" stroke="#bfbfbf" points="420,-74.5 420,-93.5 496,-93.5 496,-74.5 420,-74.5"/>
<text text-anchor="middle" x="458" y="-81.5" font-family="Helvetica,sans-Serif" font-size="10.00">TGeoMatrix.h</text>
</g>
<!-- Node20&#45;&gt;Node24 -->
<g id="edge29" class="edge"><title>Node20&#45;&gt;Node24</title>
<path fill="none" stroke="midnightblue" d="M889.184,-137.04C886.079,-136.681 883.005,-136.332 880,-136 713.58,-117.614 669.018,-133.644 505,-100 500.537,-99.0846 495.9,-97.9021 491.354,-96.6029"/>
<polygon fill="midnightblue" stroke="midnightblue" points="492.235,-93.2125 481.649,-93.6311 490.186,-99.9057 492.235,-93.2125"/>
</g>
<!-- Node25 -->
<g id="node25" class="node"><title>Node25</title>
<polygon fill="none" stroke="#bfbfbf" points="514.5,-69 514.5,-99 665.5,-99 665.5,-69 514.5,-69"/>
<text text-anchor="start" x="522.5" y="-87" font-family="Helvetica,sans-Serif" font-size="10.00">Math/GenVector/Displacement</text>
<text text-anchor="middle" x="590" y="-76" font-family="Helvetica,sans-Serif" font-size="10.00">Vector3D.h</text>
</g>
<!-- Node20&#45;&gt;Node25 -->
<g id="edge30" class="edge"><title>Node20&#45;&gt;Node25</title>
<path fill="none" stroke="midnightblue" d="M898.085,-136.464C844.364,-127.909 759.247,-114.218 675.477,-100.067"/>
<polygon fill="midnightblue" stroke="midnightblue" points="675.978,-96.6026 665.535,-98.3846 674.81,-103.504 675.978,-96.6026"/>
</g>
<!-- Node26 -->
<g id="node26" class="node"><title>Node26</title>
<polygon fill="none" stroke="#bfbfbf" points="684,-74.5 684,-93.5 860,-93.5 860,-74.5 684,-74.5"/>
<text text-anchor="middle" x="772" y="-81.5" font-family="Helvetica,sans-Serif" font-size="10.00">Math/GenVector/PositionVector3D.h</text>
</g>
<!-- Node20&#45;&gt;Node26 -->
<g id="edge31" class="edge"><title>Node20&#45;&gt;Node26</title>
<path fill="none" stroke="midnightblue" d="M926.21,-136.403C895.067,-126.022 842.519,-108.506 807.547,-96.849"/>
<polygon fill="midnightblue" stroke="midnightblue" points="808.335,-93.4225 797.742,-93.5806 806.122,-100.063 808.335,-93.4225"/>
</g>
<!-- Node27 -->
<g id="node27" class="node"><title>Node27</title>
<g id="a_node27"><a xlink:href="../../d2/dd0/Cartesian2D_8h.html" target="_top" xlink:title="MathUtils/Cartesian2D.h">
<polygon fill="none" stroke="black" points="1044.5,-74.5 1044.5,-93.5 1169.5,-93.5 1169.5,-74.5 1044.5,-74.5"/>
<text text-anchor="middle" x="1107" y="-81.5" font-family="Helvetica,sans-Serif" font-size="10.00">MathUtils/Cartesian2D.h</text>
</a>
</g>
</g>
<!-- Node20&#45;&gt;Node27 -->
<g id="edge32" class="edge"><title>Node20&#45;&gt;Node27</title>
<path fill="none" stroke="midnightblue" d="M974.208,-136.403C1000.68,-126.156 1045.11,-108.956 1075.22,-97.3021"/>
<polygon fill="midnightblue" stroke="midnightblue" points="1076.77,-100.455 1084.83,-93.5806 1074.24,-93.9266 1076.77,-100.455"/>
</g>
<!-- Node28 -->
<g id="node28" class="node"><title>Node28</title>
<polygon fill="none" stroke="#bfbfbf" points="1122.5,-1 1122.5,-31 1273.5,-31 1273.5,-1 1122.5,-1"/>
<text text-anchor="start" x="1130.5" y="-19" font-family="Helvetica,sans-Serif" font-size="10.00">Math/GenVector/Displacement</text>
<text text-anchor="middle" x="1198" y="-8" font-family="Helvetica,sans-Serif" font-size="10.00">Vector2D.h</text>
</g>
<!-- Node27&#45;&gt;Node28 -->
<g id="edge33" class="edge"><title>Node27&#45;&gt;Node28</title>
<path fill="none" stroke="midnightblue" d="M1118.9,-74.3717C1131.78,-65.0286 1152.78,-49.7966 1169.91,-37.375"/>
<polygon fill="midnightblue" stroke="midnightblue" points="1172.41,-39.8859 1178.45,-31.1815 1168.3,-34.2194 1172.41,-39.8859"/>
</g>
<!-- Node29 -->
<g id="node29" class="node"><title>Node29</title>
<polygon fill="none" stroke="#bfbfbf" points="928,-6.5 928,-25.5 1104,-25.5 1104,-6.5 928,-6.5"/>
<text text-anchor="middle" x="1016" y="-13.5" font-family="Helvetica,sans-Serif" font-size="10.00">Math/GenVector/PositionVector2D.h</text>
</g>
<!-- Node27&#45;&gt;Node29 -->
<g id="edge34" class="edge"><title>Node27&#45;&gt;Node29</title>
<path fill="none" stroke="midnightblue" d="M1095.1,-74.3717C1080.12,-63.5015 1054.14,-44.6602 1036.06,-31.5474"/>
<polygon fill="midnightblue" stroke="midnightblue" points="1038.05,-28.6684 1027.9,-25.6305 1033.94,-34.3349 1038.05,-28.6684"/>
</g>
<!-- Node30&#45;&gt;Node3 -->
<g id="edge37" class="edge"><title>Node30&#45;&gt;Node3</title>
<path fill="none" stroke="midnightblue" d="M1285.86,-195.419C1172.15,-187.365 971.509,-171.888 882.226,-156.065"/>
<polygon fill="midnightblue" stroke="midnightblue" points="882.63,-152.58 872.157,-154.185 881.344,-159.461 882.63,-152.58"/>
</g>
<!-- Node30&#45;&gt;Node6 -->
<g id="edge38" class="edge"><title>Node30&#45;&gt;Node6</title>
<path fill="none" stroke="midnightblue" d="M1399.04,-192.354C1420.65,-185.2 1449.2,-173.37 1470,-156 1511.42,-121.406 1542.12,-64.0919 1555.92,-35.0549"/>
<polygon fill="midnightblue" stroke="midnightblue" points="1559.21,-36.2767 1560.23,-25.7309 1552.86,-33.3397 1559.21,-36.2767"/>
</g>
<!-- Node30&#45;&gt;Node9 -->
<g id="edge50" class="edge"><title>Node30&#45;&gt;Node9</title>
<path fill="none" stroke="midnightblue" d="M1394.93,-192.465C1412.98,-185.416 1435.95,-173.668 1450,-156 1461.93,-140.997 1466.75,-119.268 1468.69,-103.806"/>
<polygon fill="midnightblue" stroke="midnightblue" points="1472.17,-104.132 1469.66,-93.8405 1465.21,-103.455 1472.17,-104.132"/>
</g>
<!-- Node30&#45;&gt;Node20 -->
<g id="edge39" class="edge"><title>Node30&#45;&gt;Node20</title>
<path fill="none" stroke="midnightblue" d="M1302.08,-192.444C1226.55,-182.639 1103.13,-166.618 1024.81,-156.452"/>
<polygon fill="midnightblue" stroke="midnightblue" points="1024.91,-152.936 1014.55,-155.119 1024.01,-159.877 1024.91,-152.936"/>
</g>
<!-- Node31 -->
<g id="node31" class="node"><title>Node31</title>
<g id="a_node31"><a xlink:href="../../d6/d31/DetID_8h.html" target="_top" xlink:title="DetectorsBase/DetID.h">
<polygon fill="none" stroke="black" points="1322.5,-136.5 1322.5,-155.5 1441.5,-155.5 1441.5,-136.5 1322.5,-136.5"/>
<text text-anchor="middle" x="1382" y="-143.5" font-family="Helvetica,sans-Serif" font-size="10.00">DetectorsBase/DetID.h</text>
</a>
</g>
</g>
<!-- Node30&#45;&gt;Node31 -->
<g id="edge40" class="edge"><title>Node30&#45;&gt;Node31</title>
<path fill="none" stroke="midnightblue" d="M1370.31,-192.083C1372.17,-184.927 1374.84,-174.635 1377.15,-165.691"/>
<polygon fill="midnightblue" stroke="midnightblue" points="1380.61,-166.309 1379.73,-155.751 1373.83,-164.553 1380.61,-166.309"/>
</g>
<!-- Node36 -->
<g id="node36" class="node"><title>Node36</title>
<polygon fill="none" stroke="#bfbfbf" points="1194.5,-136.5 1194.5,-155.5 1265.5,-155.5 1265.5,-136.5 1194.5,-136.5"/>
<text text-anchor="middle" x="1230" y="-143.5" font-family="Helvetica,sans-Serif" font-size="10.00">FairLogger.h</text>
</g>
<!-- Node30&#45;&gt;Node36 -->
<g id="edge51" class="edge"><title>Node30&#45;&gt;Node36</title>
<path fill="none" stroke="midnightblue" d="M1346.13,-192.444C1323.22,-183.478 1287.02,-169.314 1261.13,-159.183"/>
<polygon fill="midnightblue" stroke="midnightblue" points="1262.35,-155.901 1251.76,-155.516 1259.8,-162.42 1262.35,-155.901"/>
</g>
<!-- Node31&#45;&gt;Node4 -->
<g id="edge49" class="edge"><title>Node31&#45;&gt;Node4</title>
<path fill="none" stroke="midnightblue" d="M1322.33,-139.583C1306.62,-138.278 1289.68,-136.98 1274,-136 1082.43,-124.027 597.951,-143.496 411,-100 408.172,-99.3421 405.288,-98.452 402.455,-97.4317"/>
<polygon fill="midnightblue" stroke="midnightblue" points="403.752,-94.1809 393.173,-93.6092 401.087,-100.654 403.752,-94.1809"/>
</g>
<!-- Node31&#45;&gt;Node6 -->
<g id="edge42" class="edge"><title>Node31&#45;&gt;Node6</title>
<path fill="none" stroke="midnightblue" d="M1385.58,-136.346C1392.5,-120.624 1409.16,-87.2221 1433,-68 1463.16,-43.6865 1506.28,-29.9172 1534.69,-22.9635"/>
<polygon fill="midnightblue" stroke="midnightblue" points="1535.85,-26.2879 1544.81,-20.6243 1534.27,-19.4679 1535.85,-26.2879"/>
</g>
<!-- Node31&#45;&gt;Node9 -->
<g id="edge44" class="edge"><title>Node31&#45;&gt;Node9</title>
<path fill="none" stroke="midnightblue" d="M1394.61,-136.403C1408.72,-126.78 1431.83,-111.024 1448.75,-99.4891"/>
<polygon fill="midnightblue" stroke="midnightblue" points="1451.12,-102.106 1457.42,-93.5806 1447.18,-96.3222 1451.12,-102.106"/>
</g>
<!-- Node32 -->
<g id="node32" class="node"><title>Node32</title>
<polygon fill="none" stroke="#bfbfbf" points="1340,-74.5 1340,-93.5 1386,-93.5 1386,-74.5 1340,-74.5"/>
<text text-anchor="middle" x="1363" y="-81.5" font-family="Helvetica,sans-Serif" font-size="10.00">cstdint</text>
</g>
<!-- Node31&#45;&gt;Node32 -->
<g id="edge41" class="edge"><title>Node31&#45;&gt;Node32</title>
<path fill="none" stroke="midnightblue" d="M1379.28,-136.403C1376.54,-127.76 1372.24,-114.17 1368.74,-103.134"/>
<polygon fill="midnightblue" stroke="midnightblue" points="1372.07,-102.057 1365.72,-93.5806 1365.4,-104.171 1372.07,-102.057"/>
</g>
<!-- Node33 -->
<g id="node33" class="node"><title>Node33</title>
<polygon fill="none" stroke="#bfbfbf" points="1260,-74.5 1260,-93.5 1322,-93.5 1322,-74.5 1260,-74.5"/>
<text text-anchor="middle" x="1291" y="-81.5" font-family="Helvetica,sans-Serif" font-size="10.00">type_traits</text>
</g>
<!-- Node31&#45;&gt;Node33 -->
<g id="edge43" class="edge"><title>Node31&#45;&gt;Node33</title>
<path fill="none" stroke="midnightblue" d="M1368.96,-136.403C1354.23,-126.691 1330.03,-110.732 1312.49,-99.1697"/>
<polygon fill="midnightblue" stroke="midnightblue" points="1314.29,-96.1632 1304.01,-93.5806 1310.44,-102.007 1314.29,-96.1632"/>
</g>
<!-- Node31&#45;&gt;Node34 -->
<g id="edge45" class="edge"><title>Node31&#45;&gt;Node34</title>
<path fill="none" stroke="midnightblue" d="M1419.97,-136.467C1467.62,-125.76 1549.35,-107.392 1601.21,-95.74"/>
<polygon fill="midnightblue" stroke="midnightblue" points="1602.17,-99.1108 1611.16,-93.5034 1600.64,-92.2811 1602.17,-99.1108"/>
</g>
<!-- Node34&#45;&gt;Node6 -->
<g id="edge48" class="edge"><title>Node34&#45;&gt;Node6</title>
<path fill="none" stroke="midnightblue" d="M1637.89,-74.3717C1624.02,-63.6004 1600.06,-45.0021 1583.2,-31.9065"/>
<polygon fill="midnightblue" stroke="midnightblue" points="1585.16,-28.999 1575.11,-25.6305 1580.87,-34.528 1585.16,-28.999"/>
</g>
<!-- Node34&#45;&gt;Node7 -->
<g id="edge47" class="edge"><title>Node34&#45;&gt;Node7</title>
<path fill="none" stroke="midnightblue" d="M1676.53,-74.4268C1706.15,-64.9625 1754.45,-48.8261 1795,-32 1796.59,-31.3383 1798.22,-30.635 1799.86,-29.9079"/>
<polygon fill="midnightblue" stroke="midnightblue" points="1801.51,-32.9988 1809.1,-25.6079 1798.56,-26.6518 1801.51,-32.9988"/>
</g>
<!-- Node34&#45;&gt;Node35 -->
<g id="edge46" class="edge"><title>Node34&#45;&gt;Node35</title>
<path fill="none" stroke="midnightblue" d="M1657.89,-74.3717C1668.72,-63.8564 1687.24,-45.8819 1700.67,-32.8496"/>
<polygon fill="midnightblue" stroke="midnightblue" points="1703.15,-35.3174 1707.89,-25.8411 1698.28,-30.2944 1703.15,-35.3174"/>
</g>
</g>
</svg>
        <g id="navigator" transform="translate(0 0)" fill="#404254">
                <rect fill="#f2f5e9" fill-opacity="0.5" stroke="#606060" stroke-width=".5" x="0" y="0" width="60" height="60"/>
                <use id="zoomplus" xlink:href="#zoomPlus" x="17" y="9" onmousedown="handleZoom(evt,'in')"/>
                <use id="zoomminus" xlink:href="#zoomMin" x="42" y="9" onmousedown="handleZoom(evt,'out')"/>
                <use id="reset" xlink:href="#resetDef" x="30" y="36" onmousedown="handleReset()"/>
                <g id="arrowUp" xlink:href="#dirArrow" transform="translate(30 24)" onmousedown="handlePan(0,-1)">
                  <use xlink:href="#rim" fill="#404040">
                        <set attributeName="fill" to="#808080" begin="arrowUp.mouseover" end="arrowUp.mouseout"/>
                  </use>
                  <path fill="none" stroke="white" stroke-width="1.5" d="M0,-3.0v7 M-2.5,-0.5L0,-3.0L2.5,-0.5"/>
                </g>
                <g id="arrowRight" xlink:href="#dirArrow" transform="rotate(90) translate(36 -43)" onmousedown="handlePan(1,0)">
                  <use xlink:href="#rim" fill="#404040">
                        <set attributeName="fill" to="#808080" begin="arrowRight.mouseover" end="arrowRight.mouseout"/>
                  </use>
                  <path fill="none" stroke="white" stroke-width="1.5" d="M0,-3.0v7 M-2.5,-0.5L0,-3.0L2.5,-0.5"/>
                </g>
                <g id="arrowDown" xlink:href="#dirArrow" transform="rotate(180) translate(-30 -48)" onmousedown="handlePan(0,1)">
                  <use xlink:href="#rim" fill="#404040">
                        <set attributeName="fill" to="#808080" begin="arrowDown.mouseover" end="arrowDown.mouseout"/>
                  </use>
                  <path fill="none" stroke="white" stroke-width="1.5" d="M0,-3.0v7 M-2.5,-0.5L0,-3.0L2.5,-0.5"/>
                </g>
                <g id="arrowLeft" xlink:href="#dirArrow" transform="rotate(270) translate(-36 17)" onmousedown="handlePan(-1,0)">
                  <use xlink:href="#rim" fill="#404040">
                        <set attributeName="fill" to="#808080" begin="arrowLeft.mouseover" end="arrowLeft.mouseout"/>
                  </use>
                  <path fill="none" stroke="white" stroke-width="1.5" d="M0,-3.0v7 M-2.5,-0.5L0,-3.0L2.5,-0.5"/>
                </g>
        </g>
        <svg viewBox="0 0 15 15" width="100%" height="30px" preserveAspectRatio="xMaxYMin meet">
         <g id="arrow_out" transform="scale(0.3 0.3)">
          <a xlink:href="CATrackingStation_8h__incl_org.svg" target="_base">
           <rect id="button" ry="5" rx="5" y="6" x="6" height="38" width="38"
                fill="#f2f5e9" fill-opacity="0.5" stroke="#606060" stroke-width="1.0"/>
           <path id="arrow"
             d="M 11.500037,31.436501 C 11.940474,20.09759 22.043105,11.32322 32.158766,21.979434 L 37.068811,17.246167 C 37.068811,17.246167 37.088388,32 37.088388,32 L 22.160133,31.978069 C 22.160133,31.978069 26.997745,27.140456 26.997745,27.140456 C 18.528582,18.264221 13.291696,25.230495 11.500037,31.436501 z"
             style="fill:#404040;"/>
          </a>
         </g>
        </svg>
</svg>
