<?xml version="1.0" encoding="UTF-8" standalone="no"?>
<!DOCTYPE svg PUBLIC "-//W3C//DTD SVG 1.1//EN"
 "http://www.w3.org/Graphics/SVG/1.1/DTD/svg11.dtd">
<!-- Generated by graphviz version 2.36.0 (20140111.2315)
 -->
<!-- Title: o2::Header::HeartbeatHeader Pages: 1 -->
<svg width="392pt" height="228pt"
 viewBox="0.00 0.00 392.00 228.00" xmlns="http://www.w3.org/2000/svg" xmlns:xlink="http://www.w3.org/1999/xlink">
<g id="graph0" class="graph" transform="scale(1 1) rotate(0) translate(4 224)">
<title>o2::Header::HeartbeatHeader</title>
<!-- Node1 -->
<g id="node1" class="node"><title>Node1</title>
<polygon fill="#bfbfbf" stroke="black" points="93.5,-0.5 93.5,-79.5 238.5,-79.5 238.5,-0.5 93.5,-0.5"/>
<text text-anchor="middle" x="166" y="-67.5" font-family="Helvetica,sans-Serif" font-size="10.00">o2::Header::HeartbeatHeader</text>
<polyline fill="none" stroke="black" points="93.5,-60.5 238.5,-60.5 "/>
<text text-anchor="middle" x="166" y="-48.5" font-family="Helvetica,sans-Serif" font-size="10.00"> </text>
<polyline fill="none" stroke="black" points="93.5,-41.5 238.5,-41.5 "/>
<text text-anchor="start" x="101.5" y="-29.5" font-family="Helvetica,sans-Serif" font-size="10.00">+ operator bool()</text>
<text text-anchor="start" x="101.5" y="-18.5" font-family="Helvetica,sans-Serif" font-size="10.00">+ operator&lt;()</text>
<text text-anchor="start" x="101.5" y="-7.5" font-family="Helvetica,sans-Serif" font-size="10.00">+ operator uint64_t()</text>
</g>
<!-- Node2 -->
<g id="node2" class="node"><title>Node2</title>
<polygon fill="none" stroke="#bfbfbf" points="-0.5,-161.5 -0.5,-218.5 50.5,-218.5 50.5,-161.5 -0.5,-161.5"/>
<text text-anchor="middle" x="25" y="-206.5" font-family="Helvetica,sans-Serif" font-size="10.00">uint64_t</text>
<polyline fill="none" stroke="#bfbfbf" points="-0.5,-199.5 50.5,-199.5 "/>
<text text-anchor="middle" x="25" y="-187.5" font-family="Helvetica,sans-Serif" font-size="10.00"> </text>
<polyline fill="none" stroke="#bfbfbf" points="-0.5,-180.5 50.5,-180.5 "/>
<text text-anchor="middle" x="25" y="-168.5" font-family="Helvetica,sans-Serif" font-size="10.00"> </text>
</g>
<!-- Node2&#45;&gt;Node1 -->
<g id="edge1" class="edge"><title>Node2&#45;&gt;Node1</title>
<path fill="none" stroke="#404040" d="M27.4121,-161.187C30.3959,-141.602 37.0704,-115.805 52,-98 60.4906,-87.8743 71.2235,-79.3709 82.6906,-72.284"/>
<polygon fill="none" stroke="#404040" points="82.9679,-72.1254 86.1904,-65.6744 93.3846,-66.1679 90.1621,-72.6189 82.9679,-72.1254"/>
<text text-anchor="middle" x="83" y="-117.5" font-family="Helvetica,sans-Serif" font-size="10.00"> +headerWord</text>
</g>
<!-- Node3 -->
<g id="node3" class="node"><title>Node3</title>
<polygon fill="none" stroke="#bfbfbf" points="93.5,-161 93.5,-219 122.5,-219 122.5,-161 93.5,-161"/>
<polyline fill="none" stroke="#bfbfbf" points="93.5,-199 122.5,-199 "/>
<text text-anchor="middle" x="108" y="-187" font-family="Helvetica,sans-Serif" font-size="10.00"> </text>
<polyline fill="none" stroke="#bfbfbf" points="93.5,-180 122.5,-180 "/>
<text text-anchor="middle" x="108" y="-168" font-family="Helvetica,sans-Serif" font-size="10.00"> </text>
</g>
<!-- Node3&#45;&gt;Node1 -->
<g id="edge2" class="edge"><title>Node3&#45;&gt;Node1</title>
<path fill="none" stroke="#404040" d="M112.828,-160.814C116.523,-142.468 122.451,-118.27 131,-98 132.045,-95.5223 133.187,-93.0265 134.401,-90.5361"/>
<polygon fill="none" stroke="#404040" points="134.503,-90.342 133.76,-83.1692 140.096,-79.7249 140.838,-86.8977 134.503,-90.342"/>
<text text-anchor="middle" x="146.5" y="-117.5" font-family="Helvetica,sans-Serif" font-size="10.00"> +@11</text>
</g>
<!-- Node4 -->
<g id="node4" class="node"><title>Node4</title>
<polygon fill="none" stroke="#bfbfbf" points="140.5,-161.5 140.5,-218.5 191.5,-218.5 191.5,-161.5 140.5,-161.5"/>
<text text-anchor="middle" x="166" y="-206.5" font-family="Helvetica,sans-Serif" font-size="10.00">uint16_t</text>
<polyline fill="none" stroke="#bfbfbf" points="140.5,-199.5 191.5,-199.5 "/>
<text text-anchor="middle" x="166" y="-187.5" font-family="Helvetica,sans-Serif" font-size="10.00"> </text>
<polyline fill="none" stroke="#bfbfbf" points="140.5,-180.5 191.5,-180.5 "/>
<text text-anchor="middle" x="166" y="-168.5" font-family="Helvetica,sans-Serif" font-size="10.00"> </text>
</g>
<!-- Node4&#45;&gt;Node1 -->
<g id="edge3" class="edge"><title>Node4&#45;&gt;Node1</title>
<path fill="none" stroke="#404040" d="M166,-161.162C166,-141.643 166,-114.99 166,-91.7447"/>
<polygon fill="none" stroke="#404040" points="166,-91.6029 162,-85.603 166,-79.6029 170,-85.6029 166,-91.6029"/>
<text text-anchor="middle" x="189.5" y="-123" font-family="Helvetica,sans-Serif" font-size="10.00"> +reserved</text>
<text text-anchor="middle" x="189.5" y="-112" font-family="Helvetica,sans-Serif" font-size="10.00">+bcid</text>
</g>
<!-- Node5 -->
<g id="node5" class="node"><title>Node5</title>
<polygon fill="none" stroke="#bfbfbf" points="210.5,-161.5 210.5,-218.5 261.5,-218.5 261.5,-161.5 210.5,-161.5"/>
<text text-anchor="middle" x="236" y="-206.5" font-family="Helvetica,sans-Serif" font-size="10.00">uint32_t</text>
<polyline fill="none" stroke="#bfbfbf" points="210.5,-199.5 261.5,-199.5 "/>
<text text-anchor="middle" x="236" y="-187.5" font-family="Helvetica,sans-Serif" font-size="10.00"> </text>
<polyline fill="none" stroke="#bfbfbf" points="210.5,-180.5 261.5,-180.5 "/>
<text text-anchor="middle" x="236" y="-168.5" font-family="Helvetica,sans-Serif" font-size="10.00"> </text>
</g>
<!-- Node5&#45;&gt;Node1 -->
<g id="edge4" class="edge"><title>Node5&#45;&gt;Node1</title>
<path fill="none" stroke="#404040" d="M232.677,-161.17C229.649,-142.532 224.056,-117.868 214,-98 212.62,-95.273 211.085,-92.5639 209.437,-89.8925"/>
<polygon fill="none" stroke="#404040" points="209.339,-89.7482 202.66,-87.0296 202.601,-79.8187 209.28,-82.5373 209.339,-89.7482"/>
<text text-anchor="middle" x="243" y="-117.5" font-family="Helvetica,sans-Serif" font-size="10.00"> +orbit</text>
</g>
<!-- Node6 -->
<g id="node6" class="node"><title>Node6</title>
<polygon fill="none" stroke="#bfbfbf" points="280,-161.5 280,-218.5 326,-218.5 326,-161.5 280,-161.5"/>
<text text-anchor="middle" x="303" y="-206.5" font-family="Helvetica,sans-Serif" font-size="10.00">uint8_t</text>
<polyline fill="none" stroke="#bfbfbf" points="280,-199.5 326,-199.5 "/>
<text text-anchor="middle" x="303" y="-187.5" font-family="Helvetica,sans-Serif" font-size="10.00"> </text>
<polyline fill="none" stroke="#bfbfbf" points="280,-180.5 326,-180.5 "/>
<text text-anchor="middle" x="303" y="-168.5" font-family="Helvetica,sans-Serif" font-size="10.00"> </text>
</g>
<!-- Node6&#45;&gt;Node1 -->
<g id="edge5" class="edge"><title>Node6&#45;&gt;Node1</title>
<path fill="none" stroke="#404040" d="M295.109,-161.462C288.463,-142.011 277.387,-116.259 261,-98 257.11,-93.6653 252.811,-89.5585 248.254,-85.6864"/>
<polygon fill="none" stroke="#404040" points="248.013,-85.4966 240.825,-84.9254 238.587,-78.0702 245.776,-78.6414 248.013,-85.4966"/>
<text text-anchor="middle" x="336" y="-134" font-family="Helvetica,sans-Serif" font-size="10.00"> +triggerType</text>
<text text-anchor="middle" x="336" y="-123" font-family="Helvetica,sans-Serif" font-size="10.00">+headerLength</text>
<text text-anchor="middle" x="336" y="-112" font-family="Helvetica,sans-Serif" font-size="10.00">+blockType</text>
<text text-anchor="middle" x="336" y="-101" font-family="Helvetica,sans-Serif" font-size="10.00">+reservedTriggerType</text>
</g>
</g>
</svg>
