<?xml version="1.0" encoding="UTF-8" standalone="no"?>
<!DOCTYPE svg PUBLIC "-//W3C//DTD SVG 1.1//EN"
 "http://www.w3.org/Graphics/SVG/1.1/DTD/svg11.dtd">
<!-- Generated by graphviz version 2.36.0 (20140111.2315)
 -->
<!-- Title: /home/travis/build/AliceO2Group/AliceO2/Framework/Core/src/DataRelayer.cxx Pages: 1 -->
<svg width="2076pt" height="342pt"
 viewBox="0.00 0.00 2075.93 342.00" xmlns="http://www.w3.org/2000/svg" xmlns:xlink="http://www.w3.org/1999/xlink">
<g id="graph0" class="graph" transform="scale(1 1) rotate(0) translate(4 338)">
<title>/home/travis/build/AliceO2Group/AliceO2/Framework/Core/src/DataRelayer.cxx</title>
<!-- Node1 -->
<g id="node1" class="node"><title>Node1</title>
<polygon fill="#bfbfbf" stroke="black" points="910.43,-292.5 910.43,-333.5 1095.43,-333.5 1095.43,-292.5 910.43,-292.5"/>
<text text-anchor="start" x="918.43" y="-321.5" font-family="Helvetica,sans-Serif" font-size="10.00">/home/travis/build</text>
<text text-anchor="start" x="918.43" y="-310.5" font-family="Helvetica,sans-Serif" font-size="10.00">/AliceO2Group/AliceO2</text>
<text text-anchor="middle" x="1002.93" y="-299.5" font-family="Helvetica,sans-Serif" font-size="10.00">/Framework/Core/src/DataRelayer.cxx</text>
</g>
<!-- Node2 -->
<g id="node2" class="node"><title>Node2</title>
<g id="a_node2"><a xlink:href="../../df/d59/DataRelayer_8h.html" target="_top" xlink:title="Framework/DataRelayer.h">
<polygon fill="none" stroke="black" points="217.43,-236.5 217.43,-255.5 348.43,-255.5 348.43,-236.5 217.43,-236.5"/>
<text text-anchor="middle" x="282.93" y="-243.5" font-family="Helvetica,sans-Serif" font-size="10.00">Framework/DataRelayer.h</text>
</a>
</g>
</g>
<!-- Node1&#45;&gt;Node2 -->
<g id="edge1" class="edge"><title>Node1&#45;&gt;Node2</title>
<path fill="none" stroke="midnightblue" d="M910.277,-303.635C766.284,-290.636 491.561,-265.835 358.665,-253.837"/>
<polygon fill="midnightblue" stroke="midnightblue" points="358.846,-250.339 348.572,-252.926 358.216,-257.311 358.846,-250.339"/>
</g>
<!-- Node16 -->
<g id="node16" class="node"><title>Node16</title>
<g id="a_node16"><a xlink:href="../../d6/d68/DataSpecUtils_8h.html" target="_top" xlink:title="Framework/DataSpecUtils.h">
<polygon fill="none" stroke="black" points="932.93,-180.5 932.93,-199.5 1072.93,-199.5 1072.93,-180.5 932.93,-180.5"/>
<text text-anchor="middle" x="1002.93" y="-187.5" font-family="Helvetica,sans-Serif" font-size="10.00">Framework/DataSpecUtils.h</text>
</a>
</g>
</g>
<!-- Node1&#45;&gt;Node16 -->
<g id="edge20" class="edge"><title>Node1&#45;&gt;Node16</title>
<path fill="none" stroke="midnightblue" d="M1002.93,-292.29C1002.93,-269.48 1002.93,-232.189 1002.93,-209.781"/>
<polygon fill="midnightblue" stroke="midnightblue" points="1006.43,-209.575 1002.93,-199.575 999.43,-209.575 1006.43,-209.575"/>
</g>
<!-- Node18 -->
<g id="node18" class="node"><title>Node18</title>
<g id="a_node18"><a xlink:href="../../d3/d26/MetricsService_8h.html" target="_top" xlink:title="Framework/MetricsService.h">
<polygon fill="none" stroke="black" points="516.93,-236.5 516.93,-255.5 658.93,-255.5 658.93,-236.5 516.93,-236.5"/>
<text text-anchor="middle" x="587.93" y="-243.5" font-family="Helvetica,sans-Serif" font-size="10.00">Framework/MetricsService.h</text>
</a>
</g>
</g>
<!-- Node1&#45;&gt;Node18 -->
<g id="edge25" class="edge"><title>Node1&#45;&gt;Node18</title>
<path fill="none" stroke="midnightblue" d="M910.313,-297.494C831.874,-285.208 721.453,-267.913 652.331,-257.087"/>
<polygon fill="midnightblue" stroke="midnightblue" points="652.862,-253.628 642.441,-255.538 651.779,-260.543 652.862,-253.628"/>
</g>
<!-- Node27 -->
<g id="node27" class="node"><title>Node27</title>
<g id="a_node27"><a xlink:href="../../d6/dc9/DataProcessingHeader_8h.html" target="_top" xlink:title="Framework/DataProcessing\lHeader.h">
<polygon fill="none" stroke="black" points="835.93,-113 835.93,-143 973.93,-143 973.93,-113 835.93,-113"/>
<text text-anchor="start" x="843.93" y="-131" font-family="Helvetica,sans-Serif" font-size="10.00">Framework/DataProcessing</text>
<text text-anchor="middle" x="904.93" y="-120" font-family="Helvetica,sans-Serif" font-size="10.00">Header.h</text>
</a>
</g>
</g>
<!-- Node1&#45;&gt;Node27 -->
<g id="edge38" class="edge"><title>Node1&#45;&gt;Node27</title>
<path fill="none" stroke="midnightblue" d="M985.739,-292.303C967.907,-270.927 940.377,-235.126 923.93,-200 916.945,-185.082 912.173,-167.155 909.159,-153.047"/>
<polygon fill="midnightblue" stroke="midnightblue" points="912.568,-152.244 907.189,-143.116 905.702,-153.606 912.568,-152.244"/>
</g>
<!-- Node29 -->
<g id="node29" class="node"><title>Node29</title>
<g id="a_node29"><a xlink:href="../../d5/dfb/DataRef_8h.html" target="_top" xlink:title="Framework/DataRef.h">
<polygon fill="none" stroke="black" points="1836.43,-118.5 1836.43,-137.5 1949.43,-137.5 1949.43,-118.5 1836.43,-118.5"/>
<text text-anchor="middle" x="1892.93" y="-125.5" font-family="Helvetica,sans-Serif" font-size="10.00">Framework/DataRef.h</text>
</a>
</g>
</g>
<!-- Node1&#45;&gt;Node29 -->
<g id="edge45" class="edge"><title>Node1&#45;&gt;Node29</title>
<path fill="none" stroke="midnightblue" d="M1095.63,-309.945C1241.79,-304.171 1532.95,-282.322 1763.93,-200 1804.29,-185.617 1847.09,-159.638 1871.84,-143.409"/>
<polygon fill="midnightblue" stroke="midnightblue" points="1874.01,-146.166 1880.4,-137.711 1870.14,-140.339 1874.01,-146.166"/>
</g>
<!-- Node30 -->
<g id="node30" class="node"><title>Node30</title>
<g id="a_node30"><a xlink:href="../../d6/d5c/InputRecord_8h.html" target="_top" xlink:title="Framework/InputRecord.h">
<polygon fill="none" stroke="black" points="1319.93,-236.5 1319.93,-255.5 1449.93,-255.5 1449.93,-236.5 1319.93,-236.5"/>
<text text-anchor="middle" x="1384.93" y="-243.5" font-family="Helvetica,sans-Serif" font-size="10.00">Framework/InputRecord.h</text>
</a>
</g>
</g>
<!-- Node1&#45;&gt;Node30 -->
<g id="edge46" class="edge"><title>Node1&#45;&gt;Node30</title>
<path fill="none" stroke="midnightblue" d="M1095.89,-296.182C1167.23,-284.044 1263.6,-267.646 1325.02,-257.194"/>
<polygon fill="midnightblue" stroke="midnightblue" points="1325.67,-260.634 1334.94,-255.506 1324.5,-253.733 1325.67,-260.634"/>
</g>
<!-- Node40 -->
<g id="node40" class="node"><title>Node40</title>
<polygon fill="none" stroke="#bfbfbf" points="1951.93,-236.5 1951.93,-255.5 2067.93,-255.5 2067.93,-236.5 1951.93,-236.5"/>
<text text-anchor="middle" x="2009.93" y="-243.5" font-family="Helvetica,sans-Serif" font-size="10.00">fairmq/FairMQLogger.h</text>
</g>
<!-- Node1&#45;&gt;Node40 -->
<g id="edge72" class="edge"><title>Node1&#45;&gt;Node40</title>
<path fill="none" stroke="midnightblue" d="M1095.65,-308.432C1263.77,-301.52 1630.06,-284.431 1937.93,-256 1939.2,-255.883 1940.48,-255.761 1941.77,-255.634"/>
<polygon fill="midnightblue" stroke="midnightblue" points="1942.22,-259.107 1951.81,-254.592 1941.5,-252.144 1942.22,-259.107"/>
</g>
<!-- Node3 -->
<g id="node3" class="node"><title>Node3</title>
<polygon fill="none" stroke="#bfbfbf" points="1328.43,-56.5 1328.43,-75.5 1455.43,-75.5 1455.43,-56.5 1328.43,-56.5"/>
<text text-anchor="middle" x="1391.93" y="-63.5" font-family="Helvetica,sans-Serif" font-size="10.00">fairmq/FairMQMessage.h</text>
</g>
<!-- Node2&#45;&gt;Node3 -->
<g id="edge2" class="edge"><title>Node2&#45;&gt;Node3</title>
<path fill="none" stroke="midnightblue" d="M348.606,-241.944C533.368,-233.261 1046.54,-208.523 1081.93,-200 1175.95,-177.36 1191.89,-149.727 1280.93,-112 1307.78,-100.623 1338.53,-88.2059 1360.84,-79.3028"/>
<polygon fill="midnightblue" stroke="midnightblue" points="1362.16,-82.5462 1370.15,-75.5959 1359.57,-76.0426 1362.16,-82.5462"/>
</g>
<!-- Node4 -->
<g id="node4" class="node"><title>Node4</title>
<g id="a_node4"><a xlink:href="../../d5/d19/InputRoute_8h.html" target="_top" xlink:title="Framework/InputRoute.h">
<polygon fill="none" stroke="black" points="271.43,-180.5 271.43,-199.5 396.43,-199.5 396.43,-180.5 271.43,-180.5"/>
<text text-anchor="middle" x="333.93" y="-187.5" font-family="Helvetica,sans-Serif" font-size="10.00">Framework/InputRoute.h</text>
</a>
</g>
</g>
<!-- Node2&#45;&gt;Node4 -->
<g id="edge3" class="edge"><title>Node2&#45;&gt;Node4</title>
<path fill="none" stroke="midnightblue" d="M291.352,-236.083C298.778,-228.22 309.782,-216.569 318.742,-207.081"/>
<polygon fill="midnightblue" stroke="midnightblue" points="321.344,-209.424 325.665,-199.751 316.254,-204.618 321.344,-209.424"/>
</g>
<!-- Node13 -->
<g id="node13" class="node"><title>Node13</title>
<polygon fill="none" stroke="#bfbfbf" points="104.43,-118.5 104.43,-137.5 153.43,-137.5 153.43,-118.5 104.43,-118.5"/>
<text text-anchor="middle" x="128.93" y="-125.5" font-family="Helvetica,sans-Serif" font-size="10.00">cstddef</text>
</g>
<!-- Node2&#45;&gt;Node13 -->
<g id="edge18" class="edge"><title>Node2&#45;&gt;Node13</title>
<path fill="none" stroke="midnightblue" d="M217.201,-243.731C144.283,-240.77 33.3844,-231.117 6.93016,-200 -21.3439,-166.743 48.7932,-145.392 94.0809,-135.481"/>
<polygon fill="midnightblue" stroke="midnightblue" points="95.0825,-138.847 104.153,-133.372 93.6483,-131.995 95.0825,-138.847"/>
</g>
<!-- Node14 -->
<g id="node14" class="node"><title>Node14</title>
<g id="a_node14"><a xlink:href="../../d7/d12/ForwardRoute_8h.html" target="_top" xlink:title="Framework/ForwardRoute.h">
<polygon fill="none" stroke="black" points="15.9302,-180.5 15.9302,-199.5 153.93,-199.5 153.93,-180.5 15.9302,-180.5"/>
<text text-anchor="middle" x="84.9302" y="-187.5" font-family="Helvetica,sans-Serif" font-size="10.00">Framework/ForwardRoute.h</text>
</a>
</g>
</g>
<!-- Node2&#45;&gt;Node14 -->
<g id="edge14" class="edge"><title>Node2&#45;&gt;Node14</title>
<path fill="none" stroke="midnightblue" d="M251.556,-236.444C217.668,-227.201 163.527,-212.436 126.207,-202.257"/>
<polygon fill="midnightblue" stroke="midnightblue" points="126.726,-198.771 116.157,-199.516 124.884,-205.524 126.726,-198.771"/>
</g>
<!-- Node15 -->
<g id="node15" class="node"><title>Node15</title>
<polygon fill="none" stroke="#bfbfbf" points="209.93,-180.5 209.93,-199.5 253.93,-199.5 253.93,-180.5 209.93,-180.5"/>
<text text-anchor="middle" x="231.93" y="-187.5" font-family="Helvetica,sans-Serif" font-size="10.00">vector</text>
</g>
<!-- Node2&#45;&gt;Node15 -->
<g id="edge19" class="edge"><title>Node2&#45;&gt;Node15</title>
<path fill="none" stroke="midnightblue" d="M274.509,-236.083C267.082,-228.22 256.078,-216.569 247.118,-207.081"/>
<polygon fill="midnightblue" stroke="midnightblue" points="249.606,-204.618 240.195,-199.751 244.517,-209.424 249.606,-204.618"/>
</g>
<!-- Node5 -->
<g id="node5" class="node"><title>Node5</title>
<g id="a_node5"><a xlink:href="../../d5/d3f/InputSpec_8h.html" target="_top" xlink:title="Framework/InputSpec.h">
<polygon fill="none" stroke="black" points="248.43,-118.5 248.43,-137.5 369.43,-137.5 369.43,-118.5 248.43,-118.5"/>
<text text-anchor="middle" x="308.93" y="-125.5" font-family="Helvetica,sans-Serif" font-size="10.00">Framework/InputSpec.h</text>
</a>
</g>
</g>
<!-- Node4&#45;&gt;Node5 -->
<g id="edge4" class="edge"><title>Node4&#45;&gt;Node5</title>
<path fill="none" stroke="midnightblue" d="M330.348,-180.403C326.747,-171.76 321.084,-158.17 316.486,-147.134"/>
<polygon fill="midnightblue" stroke="midnightblue" points="319.582,-145.465 312.505,-137.581 313.121,-148.158 319.582,-145.465"/>
</g>
<!-- Node6 -->
<g id="node6" class="node"><title>Node6</title>
<polygon fill="none" stroke="#bfbfbf" points="199.43,-56.5 199.43,-75.5 240.43,-75.5 240.43,-56.5 199.43,-56.5"/>
<text text-anchor="middle" x="219.93" y="-63.5" font-family="Helvetica,sans-Serif" font-size="10.00">string</text>
</g>
<!-- Node4&#45;&gt;Node6 -->
<g id="edge13" class="edge"><title>Node4&#45;&gt;Node6</title>
<path fill="none" stroke="midnightblue" d="M298.454,-180.378C278.207,-173.688 253.943,-162.37 238.93,-144 225.479,-127.541 221.342,-102.932 220.176,-85.9877"/>
<polygon fill="midnightblue" stroke="midnightblue" points="223.661,-85.5288 219.767,-75.6757 216.667,-85.8069 223.661,-85.5288"/>
</g>
<!-- Node4&#45;&gt;Node13 -->
<g id="edge12" class="edge"><title>Node4&#45;&gt;Node13</title>
<path fill="none" stroke="midnightblue" d="M304.559,-180.403C267.181,-169.464 202.733,-150.601 163.166,-139.02"/>
<polygon fill="midnightblue" stroke="midnightblue" points="164.014,-135.622 153.434,-136.172 162.048,-142.34 164.014,-135.622"/>
</g>
<!-- Node5&#45;&gt;Node6 -->
<g id="edge5" class="edge"><title>Node5&#45;&gt;Node6</title>
<path fill="none" stroke="midnightblue" d="M296.179,-118.403C281.903,-108.78 258.533,-93.0242 241.422,-81.4891"/>
<polygon fill="midnightblue" stroke="midnightblue" points="242.906,-78.2684 232.658,-75.5806 238.993,-84.0727 242.906,-78.2684"/>
</g>
<!-- Node7 -->
<g id="node7" class="node"><title>Node7</title>
<g id="a_node7"><a xlink:href="../../dc/dcd/DataHeader_8h.html" target="_top" xlink:title="Headers/DataHeader.h">
<polygon fill="none" stroke="black" points="963.43,-56.5 963.43,-75.5 1080.43,-75.5 1080.43,-56.5 963.43,-56.5"/>
<text text-anchor="middle" x="1021.93" y="-63.5" font-family="Helvetica,sans-Serif" font-size="10.00">Headers/DataHeader.h</text>
</a>
</g>
</g>
<!-- Node5&#45;&gt;Node7 -->
<g id="edge6" class="edge"><title>Node5&#45;&gt;Node7</title>
<path fill="none" stroke="midnightblue" d="M369.72,-121.884C501.794,-110.77 814.21,-84.48 953.195,-72.7841"/>
<polygon fill="midnightblue" stroke="midnightblue" points="953.627,-76.2603 963.298,-71.934 953.04,-69.2849 953.627,-76.2603"/>
</g>
<!-- Node8 -->
<g id="node8" class="node"><title>Node8</title>
<polygon fill="none" stroke="#bfbfbf" points="668.93,-0.5 668.93,-19.5 714.93,-19.5 714.93,-0.5 668.93,-0.5"/>
<text text-anchor="middle" x="691.93" y="-7.5" font-family="Helvetica,sans-Serif" font-size="10.00">cstdint</text>
</g>
<!-- Node7&#45;&gt;Node8 -->
<g id="edge7" class="edge"><title>Node7&#45;&gt;Node8</title>
<path fill="none" stroke="midnightblue" d="M969.641,-56.4435C901.033,-45.2168 782.624,-25.8409 725.15,-16.4359"/>
<polygon fill="midnightblue" stroke="midnightblue" points="725.587,-12.9609 715.153,-14.8 724.456,-19.8691 725.587,-12.9609"/>
</g>
<!-- Node9 -->
<g id="node9" class="node"><title>Node9</title>
<polygon fill="none" stroke="#bfbfbf" points="1067.93,-0.5 1067.93,-19.5 1119.93,-19.5 1119.93,-0.5 1067.93,-0.5"/>
<text text-anchor="middle" x="1093.93" y="-7.5" font-family="Helvetica,sans-Serif" font-size="10.00">memory</text>
</g>
<!-- Node7&#45;&gt;Node9 -->
<g id="edge8" class="edge"><title>Node7&#45;&gt;Node9</title>
<path fill="none" stroke="midnightblue" d="M1033.5,-56.324C1044.35,-48.1849 1060.81,-35.8395 1073.81,-26.0874"/>
<polygon fill="midnightblue" stroke="midnightblue" points="1076.25,-28.6339 1082.15,-19.8339 1072.05,-23.0339 1076.25,-28.6339"/>
</g>
<!-- Node10 -->
<g id="node10" class="node"><title>Node10</title>
<polygon fill="none" stroke="#bfbfbf" points="1275.43,-0.5 1275.43,-19.5 1324.43,-19.5 1324.43,-0.5 1275.43,-0.5"/>
<text text-anchor="middle" x="1299.93" y="-7.5" font-family="Helvetica,sans-Serif" font-size="10.00">cassert</text>
</g>
<!-- Node7&#45;&gt;Node10 -->
<g id="edge9" class="edge"><title>Node7&#45;&gt;Node10</title>
<path fill="none" stroke="midnightblue" d="M1065.98,-56.4435C1121.15,-45.7265 1214.56,-27.5832 1265.04,-17.7766"/>
<polygon fill="midnightblue" stroke="midnightblue" points="1265.99,-21.1589 1275.14,-15.8162 1264.65,-14.2874 1265.99,-21.1589"/>
</g>
<!-- Node11 -->
<g id="node11" class="node"><title>Node11</title>
<polygon fill="none" stroke="#bfbfbf" points="929.93,-0.5 929.93,-19.5 975.93,-19.5 975.93,-0.5 929.93,-0.5"/>
<text text-anchor="middle" x="952.93" y="-7.5" font-family="Helvetica,sans-Serif" font-size="10.00">cstring</text>
</g>
<!-- Node7&#45;&gt;Node11 -->
<g id="edge10" class="edge"><title>Node7&#45;&gt;Node11</title>
<path fill="none" stroke="midnightblue" d="M1010.84,-56.324C1000.44,-48.1849 984.67,-35.8395 972.209,-26.0874"/>
<polygon fill="midnightblue" stroke="midnightblue" points="974.25,-23.2407 964.218,-19.8339 969.936,-28.7533 974.25,-23.2407"/>
</g>
<!-- Node12 -->
<g id="node12" class="node"><title>Node12</title>
<polygon fill="none" stroke="#bfbfbf" points="993.93,-0.5 993.93,-19.5 1049.93,-19.5 1049.93,-0.5 993.93,-0.5"/>
<text text-anchor="middle" x="1021.93" y="-7.5" font-family="Helvetica,sans-Serif" font-size="10.00">algorithm</text>
</g>
<!-- Node7&#45;&gt;Node12 -->
<g id="edge11" class="edge"><title>Node7&#45;&gt;Node12</title>
<path fill="none" stroke="midnightblue" d="M1021.93,-56.083C1021.93,-49.0059 1021.93,-38.8611 1021.93,-29.9865"/>
<polygon fill="midnightblue" stroke="midnightblue" points="1025.43,-29.751 1021.93,-19.7511 1018.43,-29.7511 1025.43,-29.751"/>
</g>
<!-- Node14&#45;&gt;Node5 -->
<g id="edge15" class="edge"><title>Node14&#45;&gt;Node5</title>
<path fill="none" stroke="midnightblue" d="M117.024,-180.403C156.529,-169.822 223.71,-151.827 267.191,-140.18"/>
<polygon fill="midnightblue" stroke="midnightblue" points="268.142,-143.549 276.896,-137.581 266.331,-136.787 268.142,-143.549"/>
</g>
<!-- Node14&#45;&gt;Node6 -->
<g id="edge17" class="edge"><title>Node14&#45;&gt;Node6</title>
<path fill="none" stroke="midnightblue" d="M83.3812,-180.265C81.1464,-164.707 78.8811,-131.961 94.9302,-112 117.842,-83.5037 160.313,-73.0439 189.332,-69.2099"/>
<polygon fill="midnightblue" stroke="midnightblue" points="189.81,-72.6782 199.353,-68.076 189.023,-65.7226 189.81,-72.6782"/>
</g>
<!-- Node14&#45;&gt;Node13 -->
<g id="edge16" class="edge"><title>Node14&#45;&gt;Node13</title>
<path fill="none" stroke="midnightblue" d="M91.2343,-180.403C97.8343,-171.403 108.367,-157.041 116.623,-145.782"/>
<polygon fill="midnightblue" stroke="midnightblue" points="119.546,-147.714 122.638,-137.581 113.902,-143.575 119.546,-147.714"/>
</g>
<!-- Node16&#45;&gt;Node5 -->
<g id="edge23" class="edge"><title>Node16&#45;&gt;Node5</title>
<path fill="none" stroke="midnightblue" d="M932.888,-182.944C800.059,-171.461 512.942,-146.638 379.616,-135.111"/>
<polygon fill="midnightblue" stroke="midnightblue" points="379.779,-131.612 369.514,-134.238 379.176,-138.586 379.779,-131.612"/>
</g>
<!-- Node16&#45;&gt;Node7 -->
<g id="edge24" class="edge"><title>Node16&#45;&gt;Node7</title>
<path fill="none" stroke="midnightblue" d="M1004.3,-180.226C1007.36,-160.53 1014.85,-112.437 1019.02,-85.7004"/>
<polygon fill="midnightblue" stroke="midnightblue" points="1022.5,-86.1139 1020.58,-75.6944 1015.58,-85.0367 1022.5,-86.1139"/>
</g>
<!-- Node17 -->
<g id="node17" class="node"><title>Node17</title>
<g id="a_node17"><a xlink:href="../../db/d2d/OutputSpec_8h.html" target="_top" xlink:title="Framework/OutputSpec.h">
<polygon fill="none" stroke="black" points="1029.93,-118.5 1029.93,-137.5 1157.93,-137.5 1157.93,-118.5 1029.93,-118.5"/>
<text text-anchor="middle" x="1093.93" y="-125.5" font-family="Helvetica,sans-Serif" font-size="10.00">Framework/OutputSpec.h</text>
</a>
</g>
</g>
<!-- Node16&#45;&gt;Node17 -->
<g id="edge21" class="edge"><title>Node16&#45;&gt;Node17</title>
<path fill="none" stroke="midnightblue" d="M1015.97,-180.403C1030.7,-170.691 1054.9,-154.732 1072.44,-143.17"/>
<polygon fill="midnightblue" stroke="midnightblue" points="1074.49,-146.007 1080.92,-137.581 1070.64,-140.163 1074.49,-146.007"/>
</g>
<!-- Node17&#45;&gt;Node7 -->
<g id="edge22" class="edge"><title>Node17&#45;&gt;Node7</title>
<path fill="none" stroke="midnightblue" d="M1083.61,-118.403C1072.28,-108.958 1053.86,-93.6056 1040.09,-82.1342"/>
<polygon fill="midnightblue" stroke="midnightblue" points="1042.15,-79.2937 1032.23,-75.5806 1037.67,-84.6713 1042.15,-79.2937"/>
</g>
<!-- Node18&#45;&gt;Node6 -->
<g id="edge36" class="edge"><title>Node18&#45;&gt;Node6</title>
<path fill="none" stroke="midnightblue" d="M516.926,-241.77C410.941,-236.211 221.538,-223.142 200.93,-200 172.334,-167.885 194.779,-113.049 209.581,-84.8726"/>
<polygon fill="midnightblue" stroke="midnightblue" points="212.824,-86.2379 214.579,-75.7895 206.691,-82.8628 212.824,-86.2379"/>
</g>
<!-- Node18&#45;&gt;Node15 -->
<g id="edge37" class="edge"><title>Node18&#45;&gt;Node15</title>
<path fill="none" stroke="midnightblue" d="M516.788,-238.376C452.706,-231.683 355.843,-219.77 264.115,-200.236"/>
<polygon fill="midnightblue" stroke="midnightblue" points="264.625,-196.765 254.111,-198.07 263.144,-203.607 264.625,-196.765"/>
</g>
<!-- Node19 -->
<g id="node19" class="node"><title>Node19</title>
<g id="a_node19"><a xlink:href="../../de/d56/Variant_8h.html" target="_top" xlink:title="Framework/Variant.h">
<polygon fill="none" stroke="black" points="534.43,-180.5 534.43,-199.5 641.43,-199.5 641.43,-180.5 534.43,-180.5"/>
<text text-anchor="middle" x="587.93" y="-187.5" font-family="Helvetica,sans-Serif" font-size="10.00">Framework/Variant.h</text>
</a>
</g>
</g>
<!-- Node18&#45;&gt;Node19 -->
<g id="edge26" class="edge"><title>Node18&#45;&gt;Node19</title>
<path fill="none" stroke="midnightblue" d="M587.93,-236.083C587.93,-229.006 587.93,-218.861 587.93,-209.986"/>
<polygon fill="midnightblue" stroke="midnightblue" points="591.43,-209.751 587.93,-199.751 584.43,-209.751 591.43,-209.751"/>
</g>
<!-- Node26 -->
<g id="node26" class="node"><title>Node26</title>
<polygon fill="none" stroke="#bfbfbf" points="659.43,-180.5 659.43,-199.5 694.43,-199.5 694.43,-180.5 659.43,-180.5"/>
<text text-anchor="middle" x="676.93" y="-187.5" font-family="Helvetica,sans-Serif" font-size="10.00">map</text>
</g>
<!-- Node18&#45;&gt;Node26 -->
<g id="edge35" class="edge"><title>Node18&#45;&gt;Node26</title>
<path fill="none" stroke="midnightblue" d="M602.23,-236.324C616.113,-227.9 637.423,-214.971 653.734,-205.074"/>
<polygon fill="midnightblue" stroke="midnightblue" points="655.932,-207.834 662.666,-199.655 652.301,-201.85 655.932,-207.834"/>
</g>
<!-- Node19&#45;&gt;Node8 -->
<g id="edge29" class="edge"><title>Node19&#45;&gt;Node8</title>
<path fill="none" stroke="midnightblue" d="M539.881,-180.458C518.988,-174.101 496.46,-163.074 483.93,-144 476.122,-132.113 479.281,-125.441 483.93,-112 494.276,-82.0862 501.564,-73.5131 527.93,-56 568.048,-29.3523 623.629,-18.3933 658.677,-13.949"/>
<polygon fill="midnightblue" stroke="midnightblue" points="659.325,-17.3974 668.855,-12.7687 658.518,-10.444 659.325,-17.3974"/>
</g>
<!-- Node19&#45;&gt;Node11 -->
<g id="edge28" class="edge"><title>Node19&#45;&gt;Node11</title>
<path fill="none" stroke="midnightblue" d="M619.787,-180.445C645.182,-172.886 681.135,-160.497 709.93,-144 729.385,-132.854 730.281,-124.447 748.93,-112 792.921,-82.6388 806.499,-79.399 853.93,-56 877.105,-44.5672 903.799,-32.4958 923.625,-23.7369"/>
<polygon fill="midnightblue" stroke="midnightblue" points="925.289,-26.8287 933.035,-19.6002 922.472,-20.4205 925.289,-26.8287"/>
</g>
<!-- Node20 -->
<g id="node20" class="node"><title>Node20</title>
<polygon fill="none" stroke="#bfbfbf" points="1289.93,-118.5 1289.93,-137.5 1351.93,-137.5 1351.93,-118.5 1289.93,-118.5"/>
<text text-anchor="middle" x="1320.93" y="-125.5" font-family="Helvetica,sans-Serif" font-size="10.00">type_traits</text>
</g>
<!-- Node19&#45;&gt;Node20 -->
<g id="edge27" class="edge"><title>Node19&#45;&gt;Node20</title>
<path fill="none" stroke="midnightblue" d="M641.668,-180.949C644.46,-180.609 647.226,-180.29 649.93,-180 878.951,-155.438 937.395,-163.167 1166.93,-144 1205.17,-140.807 1248.69,-136.507 1279.68,-133.329"/>
<polygon fill="midnightblue" stroke="midnightblue" points="1280.1,-136.805 1289.69,-132.298 1279.38,-129.842 1280.1,-136.805"/>
</g>
<!-- Node21 -->
<g id="node21" class="node"><title>Node21</title>
<polygon fill="none" stroke="#bfbfbf" points="502.43,-118.5 502.43,-137.5 547.43,-137.5 547.43,-118.5 502.43,-118.5"/>
<text text-anchor="middle" x="524.93" y="-125.5" font-family="Helvetica,sans-Serif" font-size="10.00">cstdlib</text>
</g>
<!-- Node19&#45;&gt;Node21 -->
<g id="edge30" class="edge"><title>Node19&#45;&gt;Node21</title>
<path fill="none" stroke="midnightblue" d="M578.904,-180.403C569.173,-171.136 553.472,-156.183 541.507,-144.788"/>
<polygon fill="midnightblue" stroke="midnightblue" points="543.595,-141.943 533.94,-137.581 538.767,-147.012 543.595,-141.943"/>
</g>
<!-- Node22 -->
<g id="node22" class="node"><title>Node22</title>
<polygon fill="none" stroke="#bfbfbf" points="758.43,-118.5 758.43,-137.5 817.43,-137.5 817.43,-118.5 758.43,-118.5"/>
<text text-anchor="middle" x="787.93" y="-125.5" font-family="Helvetica,sans-Serif" font-size="10.00">stdexcept</text>
</g>
<!-- Node19&#45;&gt;Node22 -->
<g id="edge31" class="edge"><title>Node19&#45;&gt;Node22</title>
<path fill="none" stroke="midnightblue" d="M619.139,-180.47C650.726,-171.726 700.907,-157.53 743.93,-144 747.087,-143.007 750.361,-141.948 753.634,-140.868"/>
<polygon fill="midnightblue" stroke="midnightblue" points="754.962,-144.115 763.331,-137.617 752.737,-137.478 754.962,-144.115"/>
</g>
<!-- Node23 -->
<g id="node23" class="node"><title>Node23</title>
<polygon fill="none" stroke="#bfbfbf" points="565.43,-118.5 565.43,-137.5 610.43,-137.5 610.43,-118.5 565.43,-118.5"/>
<text text-anchor="middle" x="587.93" y="-125.5" font-family="Helvetica,sans-Serif" font-size="10.00">iosfwd</text>
</g>
<!-- Node19&#45;&gt;Node23 -->
<g id="edge32" class="edge"><title>Node19&#45;&gt;Node23</title>
<path fill="none" stroke="midnightblue" d="M587.93,-180.403C587.93,-171.938 587.93,-158.728 587.93,-147.82"/>
<polygon fill="midnightblue" stroke="midnightblue" points="591.43,-147.581 587.93,-137.581 584.43,-147.581 591.43,-147.581"/>
</g>
<!-- Node24 -->
<g id="node24" class="node"><title>Node24</title>
<polygon fill="none" stroke="#bfbfbf" points="536.93,-56.5 536.93,-75.5 590.93,-75.5 590.93,-56.5 536.93,-56.5"/>
<text text-anchor="middle" x="563.93" y="-63.5" font-family="Helvetica,sans-Serif" font-size="10.00">iostream</text>
</g>
<!-- Node19&#45;&gt;Node24 -->
<g id="edge33" class="edge"><title>Node19&#45;&gt;Node24</title>
<path fill="none" stroke="midnightblue" d="M546.879,-180.383C526.97,-173.916 504.836,-162.814 492.93,-144 485.325,-131.982 486.075,-124.461 492.93,-112 500.817,-97.6632 515.416,-87.2525 529.333,-80.0792"/>
<polygon fill="midnightblue" stroke="midnightblue" points="531.222,-83.0578 538.769,-75.6217 528.232,-76.7285 531.222,-83.0578"/>
</g>
<!-- Node25 -->
<g id="node25" class="node"><title>Node25</title>
<polygon fill="none" stroke="#bfbfbf" points="628.43,-118.5 628.43,-137.5 701.43,-137.5 701.43,-118.5 628.43,-118.5"/>
<text text-anchor="middle" x="664.93" y="-125.5" font-family="Helvetica,sans-Serif" font-size="10.00">initializer_list</text>
</g>
<!-- Node19&#45;&gt;Node25 -->
<g id="edge34" class="edge"><title>Node19&#45;&gt;Node25</title>
<path fill="none" stroke="midnightblue" d="M598.962,-180.403C611.199,-170.869 631.159,-155.315 645.923,-143.811"/>
<polygon fill="midnightblue" stroke="midnightblue" points="648.182,-146.488 653.918,-137.581 643.879,-140.966 648.182,-146.488"/>
</g>
<!-- Node27&#45;&gt;Node7 -->
<g id="edge39" class="edge"><title>Node27&#45;&gt;Node7</title>
<path fill="none" stroke="midnightblue" d="M932.361,-112.933C951.66,-103.036 977.314,-89.8803 996.219,-80.1852"/>
<polygon fill="midnightblue" stroke="midnightblue" points="997.859,-83.2776 1005.16,-75.6 994.665,-77.0489 997.859,-83.2776"/>
</g>
<!-- Node27&#45;&gt;Node8 -->
<g id="edge40" class="edge"><title>Node27&#45;&gt;Node8</title>
<path fill="none" stroke="midnightblue" d="M878.812,-112.776C837.366,-90.2047 757.09,-46.4863 716.582,-24.4253"/>
<polygon fill="midnightblue" stroke="midnightblue" points="718.103,-21.2682 707.647,-19.5592 714.755,-27.4157 718.103,-21.2682"/>
</g>
<!-- Node27&#45;&gt;Node9 -->
<g id="edge43" class="edge"><title>Node27&#45;&gt;Node9</title>
<path fill="none" stroke="midnightblue" d="M911.159,-112.917C918.941,-96.8918 933.731,-71.0031 953.93,-56 962.467,-49.6591 1019.19,-32.511 1057.77,-21.3088"/>
<polygon fill="midnightblue" stroke="midnightblue" points="1058.99,-24.5985 1067.62,-18.46 1057.05,-17.8737 1058.99,-24.5985"/>
</g>
<!-- Node27&#45;&gt;Node10 -->
<g id="edge44" class="edge"><title>Node27&#45;&gt;Node10</title>
<path fill="none" stroke="midnightblue" d="M956.991,-112.994C993.898,-102.961 1044.55,-88.9841 1088.93,-76 1151.47,-57.7053 1223.98,-35.0476 1265.65,-21.8871"/>
<polygon fill="midnightblue" stroke="midnightblue" points="1266.83,-25.1859 1275.31,-18.8333 1264.72,-18.5118 1266.83,-25.1859"/>
</g>
<!-- Node27&#45;&gt;Node24 -->
<g id="edge42" class="edge"><title>Node27&#45;&gt;Node24</title>
<path fill="none" stroke="midnightblue" d="M835.581,-113.761C832.319,-113.161 829.09,-112.571 825.93,-112 746.006,-97.5497 652.156,-81.7013 601.294,-73.2057"/>
<polygon fill="midnightblue" stroke="midnightblue" points="601.554,-69.7006 591.114,-71.5075 600.402,-76.6052 601.554,-69.7006"/>
</g>
<!-- Node28 -->
<g id="node28" class="node"><title>Node28</title>
<polygon fill="none" stroke="#bfbfbf" points="863.43,-56.5 863.43,-75.5 906.43,-75.5 906.43,-56.5 863.43,-56.5"/>
<text text-anchor="middle" x="884.93" y="-63.5" font-family="Helvetica,sans-Serif" font-size="10.00">cstdio</text>
</g>
<!-- Node27&#45;&gt;Node28 -->
<g id="edge41" class="edge"><title>Node27&#45;&gt;Node28</title>
<path fill="none" stroke="midnightblue" d="M900.19,-112.781C897.464,-104.601 894.008,-94.2341 891.075,-85.4344"/>
<polygon fill="midnightblue" stroke="midnightblue" points="894.323,-84.1105 887.84,-75.7305 887.682,-86.3242 894.323,-84.1105"/>
</g>
<!-- Node30&#45;&gt;Node3 -->
<g id="edge61" class="edge"><title>Node30&#45;&gt;Node3</title>
<path fill="none" stroke="midnightblue" d="M1401.56,-236.464C1414.42,-228.841 1431.27,-216.356 1438.93,-200 1448.82,-178.888 1418,-115.612 1401.56,-84.5677"/>
<polygon fill="midnightblue" stroke="midnightblue" points="1404.61,-82.8621 1396.79,-75.7151 1398.45,-86.1795 1404.61,-82.8621"/>
</g>
<!-- Node30&#45;&gt;Node4 -->
<g id="edge60" class="edge"><title>Node30&#45;&gt;Node4</title>
<path fill="none" stroke="midnightblue" d="M1319.86,-243.571C1163.17,-239.787 752.586,-227.825 410.93,-200 409.463,-199.881 407.981,-199.755 406.487,-199.624"/>
<polygon fill="midnightblue" stroke="midnightblue" points="406.792,-196.137 396.509,-198.686 406.138,-203.106 406.792,-196.137"/>
</g>
<!-- Node30&#45;&gt;Node6 -->
<g id="edge65" class="edge"><title>Node30&#45;&gt;Node6</title>
<path fill="none" stroke="midnightblue" d="M1319.69,-245.638C1145.59,-246.698 673.218,-245.197 524.93,-200 452.093,-177.8 447.812,-142.243 377.93,-112 335.18,-93.4985 282.668,-80.2882 250.25,-73.1483"/>
<polygon fill="midnightblue" stroke="midnightblue" points="250.981,-69.7256 240.469,-71.0444 249.509,-76.5691 250.981,-69.7256"/>
</g>
<!-- Node30&#45;&gt;Node9 -->
<g id="edge70" class="edge"><title>Node30&#45;&gt;Node9</title>
<path fill="none" stroke="midnightblue" d="M1350.9,-236.413C1328.92,-229.491 1300.81,-217.91 1280.93,-200 1226.38,-150.847 1254.65,-104.965 1199.93,-56 1180.03,-38.1963 1152.05,-26.7216 1129.83,-19.8178"/>
<polygon fill="midnightblue" stroke="midnightblue" points="1130.66,-16.4131 1120.08,-16.9611 1128.69,-23.1309 1130.66,-16.4131"/>
</g>
<!-- Node30&#45;&gt;Node10 -->
<g id="edge68" class="edge"><title>Node30&#45;&gt;Node10</title>
<path fill="none" stroke="midnightblue" d="M1449.93,-241.02C1613.58,-229.748 2024.9,-193.032 1957.93,-112 1877.89,-15.1559 1459.21,-9.95817 1334.82,-10.5915"/>
<polygon fill="midnightblue" stroke="midnightblue" points="1334.68,-7.09225 1324.71,-10.6596 1334.73,-14.0921 1334.68,-7.09225"/>
</g>
<!-- Node30&#45;&gt;Node11 -->
<g id="edge67" class="edge"><title>Node30&#45;&gt;Node11</title>
<path fill="none" stroke="midnightblue" d="M1349.51,-236.465C1323.48,-229.218 1287.92,-217.226 1259.93,-200 1211.47,-170.176 1210.81,-148.232 1166.93,-112 1134.02,-84.8278 1126.96,-75.3694 1088.93,-56 1070.75,-46.7422 1020.04,-30.8732 985.939,-20.666"/>
<polygon fill="midnightblue" stroke="midnightblue" points="986.528,-17.1898 975.945,-17.6936 984.532,-23.8993 986.528,-17.1898"/>
</g>
<!-- Node30&#45;&gt;Node15 -->
<g id="edge66" class="edge"><title>Node30&#45;&gt;Node15</title>
<path fill="none" stroke="midnightblue" d="M1319.7,-244.536C1115.12,-242.747 486.899,-234.638 264.048,-199.936"/>
<polygon fill="midnightblue" stroke="midnightblue" points="264.495,-196.462 254.063,-198.317 263.374,-203.372 264.495,-196.462"/>
</g>
<!-- Node30&#45;&gt;Node20 -->
<g id="edge71" class="edge"><title>Node30&#45;&gt;Node20</title>
<path fill="none" stroke="midnightblue" d="M1396.51,-236.298C1411.75,-223.752 1435.23,-199.904 1422.93,-180 1415.05,-167.25 1380.81,-151.742 1354.15,-141.199"/>
<polygon fill="midnightblue" stroke="midnightblue" points="1355.32,-137.899 1344.73,-137.553 1352.8,-144.427 1355.32,-137.899"/>
</g>
<!-- Node30&#45;&gt;Node29 -->
<g id="edge47" class="edge"><title>Node30&#45;&gt;Node29</title>
<path fill="none" stroke="midnightblue" d="M1450,-241.278C1518.42,-236.212 1628.71,-224.762 1720.93,-200 1774.65,-185.576 1833.92,-158.435 1866.97,-142.209"/>
<polygon fill="midnightblue" stroke="midnightblue" points="1868.95,-145.134 1876.35,-137.55 1865.84,-138.864 1868.95,-145.134"/>
</g>
<!-- Node31 -->
<g id="node31" class="node"><title>Node31</title>
<g id="a_node31"><a xlink:href="../../d5/db8/DataRefUtils_8h.html" target="_top" xlink:title="Framework/DataRefUtils.h">
<polygon fill="none" stroke="black" points="1546.93,-180.5 1546.93,-199.5 1680.93,-199.5 1680.93,-180.5 1546.93,-180.5"/>
<text text-anchor="middle" x="1613.93" y="-187.5" font-family="Helvetica,sans-Serif" font-size="10.00">Framework/DataRefUtils.h</text>
</a>
</g>
</g>
<!-- Node30&#45;&gt;Node31 -->
<g id="edge48" class="edge"><title>Node30&#45;&gt;Node31</title>
<path fill="none" stroke="midnightblue" d="M1421.22,-236.444C1460.91,-227.083 1524.64,-212.056 1567.84,-201.868"/>
<polygon fill="midnightblue" stroke="midnightblue" points="1568.88,-205.218 1577.81,-199.516 1567.28,-198.405 1568.88,-205.218"/>
</g>
<!-- Node32 -->
<g id="node32" class="node"><title>Node32</title>
<g id="a_node32"><a xlink:href="../../d8/d3c/TMessageSerializer_8h.html" target="_top" xlink:title="Framework/TMessageSerializer.h">
<polygon fill="none" stroke="black" points="1446.43,-118.5 1446.43,-137.5 1609.43,-137.5 1609.43,-118.5 1446.43,-118.5"/>
<text text-anchor="middle" x="1527.93" y="-125.5" font-family="Helvetica,sans-Serif" font-size="10.00">Framework/TMessageSerializer.h</text>
</a>
</g>
</g>
<!-- Node30&#45;&gt;Node32 -->
<g id="edge62" class="edge"><title>Node30&#45;&gt;Node32</title>
<path fill="none" stroke="midnightblue" d="M1424.54,-236.485C1447.46,-229.833 1475.52,-218.518 1494.93,-200 1509.95,-185.666 1518.8,-163.159 1523.49,-147.337"/>
<polygon fill="midnightblue" stroke="midnightblue" points="1526.88,-148.199 1526.1,-137.633 1520.12,-146.381 1526.88,-148.199"/>
</g>
<!-- Node35 -->
<g id="node35" class="node"><title>Node35</title>
<polygon fill="none" stroke="#bfbfbf" points="1761.93,-118.5 1761.93,-137.5 1817.93,-137.5 1817.93,-118.5 1761.93,-118.5"/>
<text text-anchor="middle" x="1789.93" y="-125.5" font-family="Helvetica,sans-Serif" font-size="10.00">TClass.h</text>
</g>
<!-- Node30&#45;&gt;Node35 -->
<g id="edge63" class="edge"><title>Node30&#45;&gt;Node35</title>
<path fill="none" stroke="midnightblue" d="M1450,-244.137C1513.36,-241.306 1611.33,-231.571 1689.93,-200 1722.48,-186.924 1754.56,-161.269 1773.28,-144.643"/>
<polygon fill="midnightblue" stroke="midnightblue" points="1775.86,-147.034 1780.9,-137.718 1771.15,-141.854 1775.86,-147.034"/>
</g>
<!-- Node38 -->
<g id="node38" class="node"><title>Node38</title>
<polygon fill="none" stroke="#bfbfbf" points="1290.43,-180.5 1290.43,-199.5 1337.43,-199.5 1337.43,-180.5 1290.43,-180.5"/>
<text text-anchor="middle" x="1313.93" y="-187.5" font-family="Helvetica,sans-Serif" font-size="10.00">iterator</text>
</g>
<!-- Node30&#45;&gt;Node38 -->
<g id="edge64" class="edge"><title>Node30&#45;&gt;Node38</title>
<path fill="none" stroke="midnightblue" d="M1373.52,-236.324C1362.82,-228.185 1346.59,-215.839 1333.77,-206.087"/>
<polygon fill="midnightblue" stroke="midnightblue" points="1335.62,-203.102 1325.55,-199.834 1331.39,-208.673 1335.62,-203.102"/>
</g>
<!-- Node39 -->
<g id="node39" class="node"><title>Node39</title>
<polygon fill="none" stroke="#bfbfbf" points="1355.43,-180.5 1355.43,-199.5 1414.43,-199.5 1414.43,-180.5 1355.43,-180.5"/>
<text text-anchor="middle" x="1384.93" y="-187.5" font-family="Helvetica,sans-Serif" font-size="10.00">exception</text>
</g>
<!-- Node30&#45;&gt;Node39 -->
<g id="edge69" class="edge"><title>Node30&#45;&gt;Node39</title>
<path fill="none" stroke="midnightblue" d="M1384.93,-236.083C1384.93,-229.006 1384.93,-218.861 1384.93,-209.986"/>
<polygon fill="midnightblue" stroke="midnightblue" points="1388.43,-209.751 1384.93,-199.751 1381.43,-209.751 1388.43,-209.751"/>
</g>
<!-- Node31&#45;&gt;Node7 -->
<g id="edge50" class="edge"><title>Node31&#45;&gt;Node7</title>
<path fill="none" stroke="midnightblue" d="M1573.38,-180.451C1537.19,-172.406 1482.96,-159.325 1436.93,-144 1401.77,-132.292 1395.71,-121.639 1359.93,-112 1268.72,-87.4331 1159.91,-76.0088 1090.86,-70.8878"/>
<polygon fill="midnightblue" stroke="midnightblue" points="1090.78,-67.3727 1080.55,-70.148 1090.28,-74.3547 1090.78,-67.3727"/>
</g>
<!-- Node31&#45;&gt;Node20 -->
<g id="edge58" class="edge"><title>Node31&#45;&gt;Node20</title>
<path fill="none" stroke="midnightblue" d="M1572.26,-180.467C1516.34,-169.015 1417.61,-148.799 1362,-137.41"/>
<polygon fill="midnightblue" stroke="midnightblue" points="1362.63,-133.967 1352.13,-135.39 1361.23,-140.825 1362.63,-133.967"/>
</g>
<!-- Node31&#45;&gt;Node22 -->
<g id="edge56" class="edge"><title>Node31&#45;&gt;Node22</title>
<path fill="none" stroke="midnightblue" d="M1546.63,-185.719C1362.51,-176.667 861.819,-151.515 826.93,-144 823.42,-143.244 819.809,-142.219 816.267,-141.059"/>
<polygon fill="midnightblue" stroke="midnightblue" points="817.206,-137.675 806.612,-137.536 814.807,-144.251 817.206,-137.675"/>
</g>
<!-- Node31&#45;&gt;Node29 -->
<g id="edge49" class="edge"><title>Node31&#45;&gt;Node29</title>
<path fill="none" stroke="midnightblue" d="M1655,-180.424C1697.73,-171.467 1766.56,-156.947 1825.93,-144 1832.12,-142.65 1838.63,-141.214 1845.06,-139.786"/>
<polygon fill="midnightblue" stroke="midnightblue" points="1846.03,-143.154 1855.03,-137.561 1844.51,-136.322 1846.03,-143.154"/>
</g>
<!-- Node31&#45;&gt;Node32 -->
<g id="edge51" class="edge"><title>Node31&#45;&gt;Node32</title>
<path fill="none" stroke="midnightblue" d="M1601.61,-180.403C1587.81,-170.78 1565.23,-155.024 1548.7,-143.489"/>
<polygon fill="midnightblue" stroke="midnightblue" points="1550.43,-140.432 1540.23,-137.581 1546.43,-146.173 1550.43,-140.432"/>
</g>
<!-- Node31&#45;&gt;Node35 -->
<g id="edge55" class="edge"><title>Node31&#45;&gt;Node35</title>
<path fill="none" stroke="midnightblue" d="M1641.85,-180.442C1669.85,-171.733 1714.11,-157.616 1751.93,-144 1754.32,-143.138 1756.79,-142.223 1759.27,-141.287"/>
<polygon fill="midnightblue" stroke="midnightblue" points="1760.65,-144.507 1768.71,-137.638 1758.12,-137.978 1760.65,-144.507"/>
</g>
<!-- Node36 -->
<g id="node36" class="node"><title>Node36</title>
<polygon fill="none" stroke="#bfbfbf" points="1627.93,-118.5 1627.93,-137.5 1679.93,-137.5 1679.93,-118.5 1627.93,-118.5"/>
<text text-anchor="middle" x="1653.93" y="-125.5" font-family="Helvetica,sans-Serif" font-size="10.00">sstream</text>
</g>
<!-- Node31&#45;&gt;Node36 -->
<g id="edge57" class="edge"><title>Node31&#45;&gt;Node36</title>
<path fill="none" stroke="midnightblue" d="M1619.66,-180.403C1625.6,-171.493 1635.05,-157.325 1642.52,-146.118"/>
<polygon fill="midnightblue" stroke="midnightblue" points="1645.57,-147.843 1648.21,-137.581 1639.75,-143.96 1645.57,-147.843"/>
</g>
<!-- Node37 -->
<g id="node37" class="node"><title>Node37</title>
<polygon fill="none" stroke="#bfbfbf" points="1698.43,-118.5 1698.43,-137.5 1743.43,-137.5 1743.43,-118.5 1698.43,-118.5"/>
<text text-anchor="middle" x="1720.93" y="-125.5" font-family="Helvetica,sans-Serif" font-size="10.00">gsl/gsl</text>
</g>
<!-- Node31&#45;&gt;Node37 -->
<g id="edge59" class="edge"><title>Node31&#45;&gt;Node37</title>
<path fill="none" stroke="midnightblue" d="M1629.26,-180.403C1646.9,-170.512 1676.09,-154.144 1696.79,-142.538"/>
<polygon fill="midnightblue" stroke="midnightblue" points="1698.62,-145.524 1705.63,-137.581 1695.19,-139.419 1698.62,-145.524"/>
</g>
<!-- Node32&#45;&gt;Node3 -->
<g id="edge52" class="edge"><title>Node32&#45;&gt;Node3</title>
<path fill="none" stroke="midnightblue" d="M1508.44,-118.403C1485.52,-108.29 1447.24,-91.4036 1420.85,-79.761"/>
<polygon fill="midnightblue" stroke="midnightblue" points="1421.94,-76.4148 1411.38,-75.5806 1419.12,-82.8193 1421.94,-76.4148"/>
</g>
<!-- Node33 -->
<g id="node33" class="node"><title>Node33</title>
<polygon fill="none" stroke="#bfbfbf" points="1483.43,-56.5 1483.43,-75.5 1554.43,-75.5 1554.43,-56.5 1483.43,-56.5"/>
<text text-anchor="middle" x="1518.93" y="-63.5" font-family="Helvetica,sans-Serif" font-size="10.00">TMessage.h</text>
</g>
<!-- Node32&#45;&gt;Node33 -->
<g id="edge53" class="edge"><title>Node32&#45;&gt;Node33</title>
<path fill="none" stroke="midnightblue" d="M1526.64,-118.403C1525.36,-109.849 1523.35,-96.4497 1521.7,-85.4762"/>
<polygon fill="midnightblue" stroke="midnightblue" points="1525.16,-84.9507 1520.22,-75.5806 1518.24,-85.9892 1525.16,-84.9507"/>
</g>
<!-- Node34 -->
<g id="node34" class="node"><title>Node34</title>
<polygon fill="none" stroke="#bfbfbf" points="1572.43,-56.5 1572.43,-75.5 1657.43,-75.5 1657.43,-56.5 1572.43,-56.5"/>
<text text-anchor="middle" x="1614.93" y="-63.5" font-family="Helvetica,sans-Serif" font-size="10.00">TClonesArray.h</text>
</g>
<!-- Node32&#45;&gt;Node34 -->
<g id="edge54" class="edge"><title>Node32&#45;&gt;Node34</title>
<path fill="none" stroke="midnightblue" d="M1540.4,-118.403C1554.35,-108.78 1577.2,-93.0242 1593.92,-81.4891"/>
<polygon fill="midnightblue" stroke="midnightblue" points="1596.24,-84.1392 1602.49,-75.5806 1592.27,-78.3767 1596.24,-84.1392"/>
</g>
</g>
</svg>
