<?xml version="1.0" encoding="UTF-8" standalone="no"?>
<!DOCTYPE svg PUBLIC "-//W3C//DTD SVG 1.1//EN"
 "http://www.w3.org/Graphics/SVG/1.1/DTD/svg11.dtd">
<!-- Generated by graphviz version 2.36.0 (20140111.2315)
 -->
<!-- Title: /home/travis/build/AliceO2Group/AliceO2/Detectors/ITSMFT/common/reconstruction/src/Clusterer.cxx Pages: 1 -->
<svg width="2225pt" height="526pt"
 viewBox="0.00 0.00 2225.00 526.00" xmlns="http://www.w3.org/2000/svg" xmlns:xlink="http://www.w3.org/1999/xlink">
<g id="graph0" class="graph" transform="scale(1 1) rotate(0) translate(4 522)">
<title>/home/travis/build/AliceO2Group/AliceO2/Detectors/ITSMFT/common/reconstruction/src/Clusterer.cxx</title>
<!-- Node1 -->
<g id="node1" class="node"><title>Node1</title>
<polygon fill="#bfbfbf" stroke="black" points="1378.5,-465 1378.5,-517 1537.5,-517 1537.5,-465 1378.5,-465"/>
<text text-anchor="start" x="1386.5" y="-505" font-family="Helvetica,sans-Serif" font-size="10.00">/home/travis/build</text>
<text text-anchor="start" x="1386.5" y="-494" font-family="Helvetica,sans-Serif" font-size="10.00">/AliceO2Group/AliceO2</text>
<text text-anchor="start" x="1386.5" y="-483" font-family="Helvetica,sans-Serif" font-size="10.00">/Detectors/ITSMFT/common</text>
<text text-anchor="middle" x="1458" y="-472" font-family="Helvetica,sans-Serif" font-size="10.00">/reconstruction/src/Clusterer.cxx</text>
</g>
<!-- Node2 -->
<g id="node2" class="node"><title>Node2</title>
<polygon fill="none" stroke="#bfbfbf" points="695,-402.5 695,-421.5 751,-421.5 751,-402.5 695,-402.5"/>
<text text-anchor="middle" x="723" y="-409.5" font-family="Helvetica,sans-Serif" font-size="10.00">algorithm</text>
</g>
<!-- Node1&#45;&gt;Node2 -->
<g id="edge1" class="edge"><title>Node1&#45;&gt;Node2</title>
<path fill="none" stroke="midnightblue" d="M1378.28,-489.402C1248.34,-486.975 983.416,-475.954 765,-428 761.112,-427.146 757.092,-426.031 753.15,-424.793"/>
<polygon fill="midnightblue" stroke="midnightblue" points="754.225,-421.461 743.63,-421.543 751.963,-428.086 754.225,-421.461"/>
</g>
<!-- Node3 -->
<g id="node3" class="node"><title>Node3</title>
<polygon fill="none" stroke="#bfbfbf" points="783.5,-142.5 783.5,-161.5 854.5,-161.5 854.5,-142.5 783.5,-142.5"/>
<text text-anchor="middle" x="819" y="-149.5" font-family="Helvetica,sans-Serif" font-size="10.00">FairLogger.h</text>
</g>
<!-- Node1&#45;&gt;Node3 -->
<g id="edge2" class="edge"><title>Node1&#45;&gt;Node3</title>
<path fill="none" stroke="midnightblue" d="M1378.45,-489.59C1199.15,-486.517 779,-466.369 779,-345 779,-345 779,-345 779,-275 779,-236.167 797.525,-193.686 809.362,-170.508"/>
<polygon fill="midnightblue" stroke="midnightblue" points="812.513,-172.036 814.095,-161.56 806.325,-168.763 812.513,-172.036"/>
</g>
<!-- Node4 -->
<g id="node4" class="node"><title>Node4</title>
<g id="a_node4"><a xlink:href="../../d6/d04/ITSMFT_2common_2reconstruction_2include_2ITSMFTReconstruction_2Clusterer_8h.html" target="_top" xlink:title="ITSMFTReconstruction\l/Clusterer.h">
<polygon fill="none" stroke="black" points="1398.5,-397 1398.5,-427 1517.5,-427 1517.5,-397 1398.5,-397"/>
<text text-anchor="start" x="1406.5" y="-415" font-family="Helvetica,sans-Serif" font-size="10.00">ITSMFTReconstruction</text>
<text text-anchor="middle" x="1458" y="-404" font-family="Helvetica,sans-Serif" font-size="10.00">/Clusterer.h</text>
</a>
</g>
</g>
<!-- Node1&#45;&gt;Node4 -->
<g id="edge3" class="edge"><title>Node1&#45;&gt;Node4</title>
<path fill="none" stroke="midnightblue" d="M1458,-464.787C1458,-456.029 1458,-446.225 1458,-437.523"/>
<polygon fill="midnightblue" stroke="midnightblue" points="1461.5,-437.252 1458,-427.252 1454.5,-437.252 1461.5,-437.252"/>
</g>
<!-- Node5 -->
<g id="node5" class="node"><title>Node5</title>
<g id="a_node5"><a xlink:href="../../dc/de1/ITSMFT_2common_2reconstruction_2include_2ITSMFTReconstruction_2Cluster_8h.html" target="_top" xlink:title="ITSMFTReconstruction\l/Cluster.h">
<polygon fill="none" stroke="black" points="1115.5,-329 1115.5,-359 1234.5,-359 1234.5,-329 1115.5,-329"/>
<text text-anchor="start" x="1123.5" y="-347" font-family="Helvetica,sans-Serif" font-size="10.00">ITSMFTReconstruction</text>
<text text-anchor="middle" x="1175" y="-336" font-family="Helvetica,sans-Serif" font-size="10.00">/Cluster.h</text>
</a>
</g>
</g>
<!-- Node1&#45;&gt;Node5 -->
<g id="edge55" class="edge"><title>Node1&#45;&gt;Node5</title>
<path fill="none" stroke="midnightblue" d="M1409.03,-464.908C1352.73,-436.064 1261.64,-389.392 1211.32,-363.607"/>
<polygon fill="midnightblue" stroke="midnightblue" points="1212.91,-360.49 1202.41,-359.045 1209.72,-366.72 1212.91,-360.49"/>
</g>
<!-- Node39 -->
<g id="node39" class="node"><title>Node39</title>
<g id="a_node39"><a xlink:href="../../d7/dcd/MCCompLabel_8h.html" target="_top" xlink:title="SimulationDataFormat\l/MCCompLabel.h">
<polygon fill="none" stroke="black" points="1768,-137 1768,-167 1882,-167 1882,-137 1768,-137"/>
<text text-anchor="start" x="1776" y="-155" font-family="Helvetica,sans-Serif" font-size="10.00">SimulationDataFormat</text>
<text text-anchor="middle" x="1825" y="-144" font-family="Helvetica,sans-Serif" font-size="10.00">/MCCompLabel.h</text>
</a>
</g>
</g>
<!-- Node1&#45;&gt;Node39 -->
<g id="edge58" class="edge"><title>Node1&#45;&gt;Node39</title>
<path fill="none" stroke="midnightblue" d="M1537.59,-475.521C1646.6,-453.382 1829,-407.066 1829,-345 1829,-345 1829,-345 1829,-275 1829,-241.186 1827.45,-202.128 1826.28,-177.499"/>
<polygon fill="midnightblue" stroke="midnightblue" points="1829.76,-177.085 1825.77,-167.27 1822.77,-177.43 1829.76,-177.085"/>
</g>
<!-- Node42 -->
<g id="node42" class="node"><title>Node42</title>
<g id="a_node42"><a xlink:href="../../d3/dba/SegmentationAlpide_8h.html" target="_top" xlink:title="Definition of the SegmentationAlpide class. ">
<polygon fill="none" stroke="black" points="1857.5,-402.5 1857.5,-421.5 2030.5,-421.5 2030.5,-402.5 1857.5,-402.5"/>
<text text-anchor="middle" x="1944" y="-409.5" font-family="Helvetica,sans-Serif" font-size="10.00">ITSMFTBase/SegmentationAlpide.h</text>
</a>
</g>
</g>
<!-- Node1&#45;&gt;Node42 -->
<g id="edge56" class="edge"><title>Node1&#45;&gt;Node42</title>
<path fill="none" stroke="midnightblue" d="M1537.71,-477.371C1633.42,-462.207 1792.04,-437.076 1880.11,-423.123"/>
<polygon fill="midnightblue" stroke="midnightblue" points="1880.9,-426.542 1890.23,-421.52 1879.8,-419.628 1880.9,-426.542"/>
</g>
<!-- Node43 -->
<g id="node43" class="node"><title>Node43</title>
<g id="a_node43"><a xlink:href="../../db/d14/MCTruthContainer_8h.html" target="_top" xlink:title="Definition of a container to keep Monte Carlo truth external to simulation objects. ">
<polygon fill="none" stroke="black" points="2049,-397 2049,-427 2163,-427 2163,-397 2049,-397"/>
<text text-anchor="start" x="2057" y="-415" font-family="Helvetica,sans-Serif" font-size="10.00">SimulationDataFormat</text>
<text text-anchor="middle" x="2106" y="-404" font-family="Helvetica,sans-Serif" font-size="10.00">/MCTruthContainer.h</text>
</a>
</g>
</g>
<!-- Node1&#45;&gt;Node43 -->
<g id="edge59" class="edge"><title>Node1&#45;&gt;Node43</title>
<path fill="none" stroke="midnightblue" d="M1537.8,-484.379C1648.16,-475.959 1853.7,-457.958 2038.79,-427.904"/>
<polygon fill="midnightblue" stroke="midnightblue" points="2039.4,-431.35 2048.7,-426.279 2038.27,-424.442 2039.4,-431.35"/>
</g>
<!-- Node4&#45;&gt;Node5 -->
<g id="edge4" class="edge"><title>Node4&#45;&gt;Node5</title>
<path fill="none" stroke="midnightblue" d="M1398.33,-397.084C1353.36,-386.597 1291.6,-372.193 1244.42,-361.191"/>
<polygon fill="midnightblue" stroke="midnightblue" points="1245.12,-357.76 1234.59,-358.897 1243.53,-364.577 1245.12,-357.76"/>
</g>
<!-- Node16 -->
<g id="node16" class="node"><title>Node16</title>
<polygon fill="none" stroke="#bfbfbf" points="1544,-74.5 1544,-93.5 1600,-93.5 1600,-74.5 1544,-74.5"/>
<text text-anchor="middle" x="1572" y="-81.5" font-family="Helvetica,sans-Serif" font-size="10.00">Rtypes.h</text>
</g>
<!-- Node4&#45;&gt;Node16 -->
<g id="edge54" class="edge"><title>Node4&#45;&gt;Node16</title>
<path fill="none" stroke="midnightblue" d="M1517.66,-397.874C1616.05,-372.649 1809.55,-307.108 1891,-168 1898.19,-155.727 1900.23,-146.821 1891,-136 1855.33,-94.1731 1687.24,-86.499 1610.44,-85.1989"/>
<polygon fill="midnightblue" stroke="midnightblue" points="1610.28,-81.6964 1600.24,-85.0549 1610.19,-88.6957 1610.28,-81.6964"/>
</g>
<!-- Node24 -->
<g id="node24" class="node"><title>Node24</title>
<polygon fill="none" stroke="#bfbfbf" points="1406,-142.5 1406,-161.5 1450,-161.5 1450,-142.5 1406,-142.5"/>
<text text-anchor="middle" x="1428" y="-149.5" font-family="Helvetica,sans-Serif" font-size="10.00">vector</text>
</g>
<!-- Node4&#45;&gt;Node24 -->
<g id="edge53" class="edge"><title>Node4&#45;&gt;Node24</title>
<path fill="none" stroke="midnightblue" d="M1456.34,-396.761C1451.26,-353.046 1435.88,-220.755 1430.17,-171.629"/>
<polygon fill="midnightblue" stroke="midnightblue" points="1433.62,-171.034 1428.99,-161.505 1426.67,-171.843 1433.62,-171.034"/>
</g>
<!-- Node33 -->
<g id="node33" class="node"><title>Node33</title>
<g id="a_node33"><a xlink:href="../../d0/d2d/common_2base_2include_2ITSMFTBase_2GeometryTGeo_8h.html" target="_top" xlink:title="ITSMFTBase/GeometryTGeo.h">
<polygon fill="none" stroke="black" points="1252.5,-334.5 1252.5,-353.5 1405.5,-353.5 1405.5,-334.5 1252.5,-334.5"/>
<text text-anchor="middle" x="1329" y="-341.5" font-family="Helvetica,sans-Serif" font-size="10.00">ITSMFTBase/GeometryTGeo.h</text>
</a>
</g>
</g>
<!-- Node4&#45;&gt;Node33 -->
<g id="edge39" class="edge"><title>Node4&#45;&gt;Node33</title>
<path fill="none" stroke="midnightblue" d="M1430.33,-396.841C1408.01,-385.425 1376.86,-369.485 1355,-358.303"/>
<polygon fill="midnightblue" stroke="midnightblue" points="1356.47,-355.121 1345.97,-353.682 1353.28,-361.353 1356.47,-355.121"/>
</g>
<!-- Node36 -->
<g id="node36" class="node"><title>Node36</title>
<g id="a_node36"><a xlink:href="../../df/d2e/PixelReader_8h.html" target="_top" xlink:title="Definition of the ITS pixel reader. ">
<polygon fill="none" stroke="black" points="1516.5,-261 1516.5,-291 1635.5,-291 1635.5,-261 1516.5,-261"/>
<text text-anchor="start" x="1524.5" y="-279" font-family="Helvetica,sans-Serif" font-size="10.00">ITSMFTReconstruction</text>
<text text-anchor="middle" x="1576" y="-268" font-family="Helvetica,sans-Serif" font-size="10.00">/PixelReader.h</text>
</a>
</g>
</g>
<!-- Node4&#45;&gt;Node36 -->
<g id="edge43" class="edge"><title>Node4&#45;&gt;Node36</title>
<path fill="none" stroke="midnightblue" d="M1473.87,-396.818C1484.71,-386.877 1499.19,-373.078 1511,-360 1528.65,-340.451 1547,-316.651 1559.68,-299.558"/>
<polygon fill="midnightblue" stroke="midnightblue" points="1562.66,-301.418 1565.76,-291.289 1557.02,-297.271 1562.66,-301.418"/>
</g>
<!-- Node41 -->
<g id="node41" class="node"><title>Node41</title>
<polygon fill="none" stroke="#bfbfbf" points="1462,-334.5 1462,-353.5 1502,-353.5 1502,-334.5 1462,-334.5"/>
<text text-anchor="middle" x="1482" y="-341.5" font-family="Helvetica,sans-Serif" font-size="10.00">utility</text>
</g>
<!-- Node4&#45;&gt;Node41 -->
<g id="edge52" class="edge"><title>Node4&#45;&gt;Node41</title>
<path fill="none" stroke="midnightblue" d="M1463.21,-396.679C1466.76,-386.898 1471.51,-373.852 1475.34,-363.315"/>
<polygon fill="midnightblue" stroke="midnightblue" points="1478.66,-364.422 1478.79,-353.828 1472.08,-362.03 1478.66,-364.422"/>
</g>
<!-- Node6 -->
<g id="node6" class="node"><title>Node6</title>
<g id="a_node6"><a xlink:href="../../d4/de2/BaseCluster_8h.html" target="_top" xlink:title="DetectorsBase/BaseCluster.h">
<polygon fill="none" stroke="black" points="931.5,-266.5 931.5,-285.5 1078.5,-285.5 1078.5,-266.5 931.5,-266.5"/>
<text text-anchor="middle" x="1005" y="-273.5" font-family="Helvetica,sans-Serif" font-size="10.00">DetectorsBase/BaseCluster.h</text>
</a>
</g>
</g>
<!-- Node5&#45;&gt;Node6 -->
<g id="edge5" class="edge"><title>Node5&#45;&gt;Node6</title>
<path fill="none" stroke="midnightblue" d="M1138.53,-328.841C1108.33,-317.118 1065.85,-300.624 1036.97,-289.411"/>
<polygon fill="midnightblue" stroke="midnightblue" points="1037.95,-286.038 1027.36,-285.682 1035.42,-292.564 1037.95,-286.038"/>
</g>
<!-- Node7 -->
<g id="node7" class="node"><title>Node7</title>
<polygon fill="none" stroke="#bfbfbf" points="1004.5,-204.5 1004.5,-223.5 1063.5,-223.5 1063.5,-204.5 1004.5,-204.5"/>
<text text-anchor="middle" x="1034" y="-211.5" font-family="Helvetica,sans-Serif" font-size="10.00">TObject.h</text>
</g>
<!-- Node6&#45;&gt;Node7 -->
<g id="edge6" class="edge"><title>Node6&#45;&gt;Node7</title>
<path fill="none" stroke="midnightblue" d="M1009.15,-266.403C1013.38,-257.671 1020.04,-243.889 1025.4,-232.794"/>
<polygon fill="midnightblue" stroke="midnightblue" points="1028.65,-234.107 1029.85,-223.581 1022.35,-231.061 1028.65,-234.107"/>
</g>
<!-- Node8 -->
<g id="node8" class="node"><title>Node8</title>
<polygon fill="none" stroke="#bfbfbf" points="1081.5,-204.5 1081.5,-223.5 1122.5,-223.5 1122.5,-204.5 1081.5,-204.5"/>
<text text-anchor="middle" x="1102" y="-211.5" font-family="Helvetica,sans-Serif" font-size="10.00">bitset</text>
</g>
<!-- Node6&#45;&gt;Node8 -->
<g id="edge7" class="edge"><title>Node6&#45;&gt;Node8</title>
<path fill="none" stroke="midnightblue" d="M1018.9,-266.403C1034.74,-256.601 1060.87,-240.439 1079.6,-228.853"/>
<polygon fill="midnightblue" stroke="midnightblue" points="1081.46,-231.818 1088.13,-223.581 1077.78,-225.865 1081.46,-231.818"/>
</g>
<!-- Node9 -->
<g id="node9" class="node"><title>Node9</title>
<polygon fill="none" stroke="#bfbfbf" points="850,-204.5 850,-223.5 900,-223.5 900,-204.5 850,-204.5"/>
<text text-anchor="middle" x="875" y="-211.5" font-family="Helvetica,sans-Serif" font-size="10.00">iomanip</text>
</g>
<!-- Node6&#45;&gt;Node9 -->
<g id="edge8" class="edge"><title>Node6&#45;&gt;Node9</title>
<path fill="none" stroke="midnightblue" d="M986.374,-266.403C964.557,-256.334 928.196,-239.552 902.983,-227.915"/>
<polygon fill="midnightblue" stroke="midnightblue" points="904.138,-224.593 893.591,-223.581 901.204,-230.949 904.138,-224.593"/>
</g>
<!-- Node10 -->
<g id="node10" class="node"><title>Node10</title>
<polygon fill="none" stroke="#bfbfbf" points="918.5,-204.5 918.5,-223.5 947.5,-223.5 947.5,-204.5 918.5,-204.5"/>
<text text-anchor="middle" x="933" y="-211.5" font-family="Helvetica,sans-Serif" font-size="10.00">ios</text>
</g>
<!-- Node6&#45;&gt;Node10 -->
<g id="edge9" class="edge"><title>Node6&#45;&gt;Node10</title>
<path fill="none" stroke="midnightblue" d="M994.684,-266.403C983.349,-256.958 964.927,-241.606 951.161,-230.134"/>
<polygon fill="midnightblue" stroke="midnightblue" points="953.22,-227.294 943.297,-223.581 948.738,-232.671 953.22,-227.294"/>
</g>
<!-- Node11 -->
<g id="node11" class="node"><title>Node11</title>
<polygon fill="none" stroke="#bfbfbf" points="0,-74.5 0,-93.5 54,-93.5 54,-74.5 0,-74.5"/>
<text text-anchor="middle" x="27" y="-81.5" font-family="Helvetica,sans-Serif" font-size="10.00">iostream</text>
</g>
<!-- Node6&#45;&gt;Node11 -->
<g id="edge10" class="edge"><title>Node6&#45;&gt;Node11</title>
<path fill="none" stroke="midnightblue" d="M931.373,-266.697C771.029,-247.453 379.27,-194.116 63,-100 60.3535,-99.2124 57.6366,-98.2951 54.9388,-97.3094"/>
<polygon fill="midnightblue" stroke="midnightblue" points="55.9994,-93.9653 45.4127,-93.5493 53.4293,-100.476 55.9994,-93.9653"/>
</g>
<!-- Node12 -->
<g id="node12" class="node"><title>Node12</title>
<g id="a_node12"><a xlink:href="../../dd/d76/Cartesian3D_8h.html" target="_top" xlink:title="MathUtils/Cartesian3D.h">
<polygon fill="none" stroke="black" points="872.5,-142.5 872.5,-161.5 997.5,-161.5 997.5,-142.5 872.5,-142.5"/>
<text text-anchor="middle" x="935" y="-149.5" font-family="Helvetica,sans-Serif" font-size="10.00">MathUtils/Cartesian3D.h</text>
</a>
</g>
</g>
<!-- Node6&#45;&gt;Node12 -->
<g id="edge11" class="edge"><title>Node6&#45;&gt;Node12</title>
<path fill="none" stroke="midnightblue" d="M999.966,-266.226C988.513,-246.266 960.328,-197.144 945.12,-170.638"/>
<polygon fill="midnightblue" stroke="midnightblue" points="948.001,-168.626 939.989,-161.694 941.93,-172.11 948.001,-168.626"/>
</g>
<!-- Node23 -->
<g id="node23" class="node"><title>Node23</title>
<g id="a_node23"><a xlink:href="../../d4/d20/DetMatrixCache_8h.html" target="_top" xlink:title="DetectorsBase/DetMatrixCache.h">
<polygon fill="none" stroke="black" points="1187,-204.5 1187,-223.5 1351,-223.5 1351,-204.5 1187,-204.5"/>
<text text-anchor="middle" x="1269" y="-211.5" font-family="Helvetica,sans-Serif" font-size="10.00">DetectorsBase/DetMatrixCache.h</text>
</a>
</g>
</g>
<!-- Node6&#45;&gt;Node23 -->
<g id="edge23" class="edge"><title>Node6&#45;&gt;Node23</title>
<path fill="none" stroke="midnightblue" d="M1042.54,-266.467C1089.65,-255.76 1170.47,-237.392 1221.74,-225.74"/>
<polygon fill="midnightblue" stroke="midnightblue" points="1222.61,-229.133 1231.59,-223.503 1221.06,-222.307 1222.61,-229.133"/>
</g>
<!-- Node12&#45;&gt;Node11 -->
<g id="edge22" class="edge"><title>Node12&#45;&gt;Node11</title>
<path fill="none" stroke="midnightblue" d="M899.667,-142.461C888.053,-139.971 875.035,-137.514 863,-136 509.87,-91.5619 410.346,-177.63 63,-100 59.9274,-99.3133 56.7832,-98.3811 53.6949,-97.3154"/>
<polygon fill="midnightblue" stroke="midnightblue" points="54.7635,-93.9752 44.1756,-93.5925 52.2139,-100.494 54.7635,-93.9752"/>
</g>
<!-- Node13 -->
<g id="node13" class="node"><title>Node13</title>
<polygon fill="none" stroke="#bfbfbf" points="850.5,-74.5 850.5,-93.5 999.5,-93.5 999.5,-74.5 850.5,-74.5"/>
<text text-anchor="middle" x="925" y="-81.5" font-family="Helvetica,sans-Serif" font-size="10.00">Math/GenVector/Rotation3D.h</text>
</g>
<!-- Node12&#45;&gt;Node13 -->
<g id="edge12" class="edge"><title>Node12&#45;&gt;Node13</title>
<path fill="none" stroke="midnightblue" d="M933.693,-142.372C932.219,-132.643 929.777,-116.528 927.856,-103.85"/>
<polygon fill="midnightblue" stroke="midnightblue" points="931.298,-103.204 926.34,-93.8411 924.377,-104.253 931.298,-103.204"/>
</g>
<!-- Node14 -->
<g id="node14" class="node"><title>Node14</title>
<polygon fill="none" stroke="#bfbfbf" points="1018,-74.5 1018,-93.5 1174,-93.5 1174,-74.5 1018,-74.5"/>
<text text-anchor="middle" x="1096" y="-81.5" font-family="Helvetica,sans-Serif" font-size="10.00">Math/GenVector/Transform3D.h</text>
</g>
<!-- Node12&#45;&gt;Node14 -->
<g id="edge13" class="edge"><title>Node12&#45;&gt;Node14</title>
<path fill="none" stroke="midnightblue" d="M956.048,-142.372C984.088,-130.877 1033.87,-110.469 1065.88,-97.3465"/>
<polygon fill="midnightblue" stroke="midnightblue" points="1067.28,-100.557 1075.2,-93.5259 1064.62,-94.0805 1067.28,-100.557"/>
</g>
<!-- Node15 -->
<g id="node15" class="node"><title>Node15</title>
<polygon fill="none" stroke="#bfbfbf" points="72,-74.5 72,-93.5 232,-93.5 232,-74.5 72,-74.5"/>
<text text-anchor="middle" x="152" y="-81.5" font-family="Helvetica,sans-Serif" font-size="10.00">Math/GenVector/Translation3D.h</text>
</g>
<!-- Node12&#45;&gt;Node15 -->
<g id="edge14" class="edge"><title>Node12&#45;&gt;Node15</title>
<path fill="none" stroke="midnightblue" d="M899.288,-142.474C887.767,-140.016 874.898,-137.575 863,-136 588.487,-99.6629 516.16,-131.057 241,-100 229.913,-98.7487 218.109,-97.033 206.844,-95.2082"/>
<polygon fill="midnightblue" stroke="midnightblue" points="207.125,-91.7068 196.685,-93.5117 205.972,-98.6112 207.125,-91.7068"/>
</g>
<!-- Node12&#45;&gt;Node16 -->
<g id="edge15" class="edge"><title>Node12&#45;&gt;Node16</title>
<path fill="none" stroke="midnightblue" d="M997.818,-147.967C1130.09,-141.203 1433.41,-123.601 1534,-100 1537.25,-99.2386 1540.58,-98.2511 1543.86,-97.1463"/>
<polygon fill="midnightblue" stroke="midnightblue" points="1545.26,-100.361 1553.41,-93.5885 1542.81,-93.8021 1545.26,-100.361"/>
</g>
<!-- Node17 -->
<g id="node17" class="node"><title>Node17</title>
<polygon fill="none" stroke="#bfbfbf" points="250,-74.5 250,-93.5 326,-93.5 326,-74.5 250,-74.5"/>
<text text-anchor="middle" x="288" y="-81.5" font-family="Helvetica,sans-Serif" font-size="10.00">TGeoMatrix.h</text>
</g>
<!-- Node12&#45;&gt;Node17 -->
<g id="edge16" class="edge"><title>Node12&#45;&gt;Node17</title>
<path fill="none" stroke="midnightblue" d="M898.91,-142.47C887.482,-140.042 874.764,-137.619 863,-136 630.425,-103.984 566.738,-143.311 336,-100 331.211,-99.101 326.228,-97.8811 321.364,-96.5228"/>
<polygon fill="midnightblue" stroke="midnightblue" points="322.232,-93.1289 311.647,-93.5991 320.215,-99.832 322.232,-93.1289"/>
</g>
<!-- Node18 -->
<g id="node18" class="node"><title>Node18</title>
<polygon fill="none" stroke="#bfbfbf" points="344.5,-69 344.5,-99 495.5,-99 495.5,-69 344.5,-69"/>
<text text-anchor="start" x="352.5" y="-87" font-family="Helvetica,sans-Serif" font-size="10.00">Math/GenVector/Displacement</text>
<text text-anchor="middle" x="420" y="-76" font-family="Helvetica,sans-Serif" font-size="10.00">Vector3D.h</text>
</g>
<!-- Node12&#45;&gt;Node18 -->
<g id="edge17" class="edge"><title>Node12&#45;&gt;Node18</title>
<path fill="none" stroke="midnightblue" d="M897.766,-142.465C886.628,-140.122 874.358,-137.749 863,-136 708.191,-112.158 665.158,-121.505 506.101,-100.08"/>
<polygon fill="midnightblue" stroke="midnightblue" points="506.338,-96.5794 495.956,-98.6927 505.39,-103.515 506.338,-96.5794"/>
</g>
<!-- Node19 -->
<g id="node19" class="node"><title>Node19</title>
<polygon fill="none" stroke="#bfbfbf" points="514,-74.5 514,-93.5 690,-93.5 690,-74.5 514,-74.5"/>
<text text-anchor="middle" x="602" y="-81.5" font-family="Helvetica,sans-Serif" font-size="10.00">Math/GenVector/PositionVector3D.h</text>
</g>
<!-- Node12&#45;&gt;Node19 -->
<g id="edge18" class="edge"><title>Node12&#45;&gt;Node19</title>
<path fill="none" stroke="midnightblue" d="M894.275,-142.424C884.069,-140.3 873.138,-138.046 863,-136 791.785,-121.625 709.505,-105.652 656.67,-95.4777"/>
<polygon fill="midnightblue" stroke="midnightblue" points="657.313,-92.0374 646.832,-93.5847 655.99,-98.9113 657.313,-92.0374"/>
</g>
<!-- Node20 -->
<g id="node20" class="node"><title>Node20</title>
<g id="a_node20"><a xlink:href="../../d2/dd0/Cartesian2D_8h.html" target="_top" xlink:title="MathUtils/Cartesian2D.h">
<polygon fill="none" stroke="black" points="707.5,-74.5 707.5,-93.5 832.5,-93.5 832.5,-74.5 707.5,-74.5"/>
<text text-anchor="middle" x="770" y="-81.5" font-family="Helvetica,sans-Serif" font-size="10.00">MathUtils/Cartesian2D.h</text>
</a>
</g>
</g>
<!-- Node12&#45;&gt;Node20 -->
<g id="edge19" class="edge"><title>Node12&#45;&gt;Node20</title>
<path fill="none" stroke="midnightblue" d="M913.429,-142.372C884.692,-130.877 833.672,-110.469 800.866,-97.3465"/>
<polygon fill="midnightblue" stroke="midnightblue" points="801.899,-93.9902 791.315,-93.5259 799.3,-100.49 801.899,-93.9902"/>
</g>
<!-- Node21 -->
<g id="node21" class="node"><title>Node21</title>
<polygon fill="none" stroke="#bfbfbf" points="603.5,-1 603.5,-31 754.5,-31 754.5,-1 603.5,-1"/>
<text text-anchor="start" x="611.5" y="-19" font-family="Helvetica,sans-Serif" font-size="10.00">Math/GenVector/Displacement</text>
<text text-anchor="middle" x="679" y="-8" font-family="Helvetica,sans-Serif" font-size="10.00">Vector2D.h</text>
</g>
<!-- Node20&#45;&gt;Node21 -->
<g id="edge20" class="edge"><title>Node20&#45;&gt;Node21</title>
<path fill="none" stroke="midnightblue" d="M758.103,-74.3717C745.221,-65.0286 724.22,-49.7966 707.093,-37.375"/>
<polygon fill="midnightblue" stroke="midnightblue" points="708.703,-34.2194 698.553,-31.1815 704.593,-39.8859 708.703,-34.2194"/>
</g>
<!-- Node22 -->
<g id="node22" class="node"><title>Node22</title>
<polygon fill="none" stroke="#bfbfbf" points="773,-6.5 773,-25.5 949,-25.5 949,-6.5 773,-6.5"/>
<text text-anchor="middle" x="861" y="-13.5" font-family="Helvetica,sans-Serif" font-size="10.00">Math/GenVector/PositionVector2D.h</text>
</g>
<!-- Node20&#45;&gt;Node22 -->
<g id="edge21" class="edge"><title>Node20&#45;&gt;Node22</title>
<path fill="none" stroke="midnightblue" d="M781.897,-74.3717C796.884,-63.5015 822.862,-44.6602 840.942,-31.5474"/>
<polygon fill="midnightblue" stroke="midnightblue" points="843.06,-34.3349 849.1,-25.6305 838.95,-28.6684 843.06,-34.3349"/>
</g>
<!-- Node23&#45;&gt;Node3 -->
<g id="edge38" class="edge"><title>Node23&#45;&gt;Node3</title>
<path fill="none" stroke="midnightblue" d="M1186.87,-205.938C1086.77,-196.971 923.597,-181.09 864,-168 859.838,-167.086 855.519,-165.928 851.278,-164.663"/>
<polygon fill="midnightblue" stroke="midnightblue" points="852.222,-161.29 841.631,-161.58 850.091,-167.958 852.222,-161.29"/>
</g>
<!-- Node23&#45;&gt;Node12 -->
<g id="edge26" class="edge"><title>Node23&#45;&gt;Node12</title>
<path fill="none" stroke="midnightblue" d="M1221.5,-204.467C1161.15,-193.626 1057.09,-174.932 992.371,-163.306"/>
<polygon fill="midnightblue" stroke="midnightblue" points="992.797,-159.827 982.335,-161.503 991.559,-166.716 992.797,-159.827"/>
</g>
<!-- Node23&#45;&gt;Node16 -->
<g id="edge37" class="edge"><title>Node23&#45;&gt;Node16</title>
<path fill="none" stroke="midnightblue" d="M1289.13,-204.356C1307.63,-196.06 1335.52,-182.654 1358,-168 1376.78,-155.757 1377.03,-146.195 1397,-136 1453.07,-107.373 1474.17,-119.592 1534,-100 1536.63,-99.1399 1539.33,-98.194 1542.04,-97.2085"/>
<polygon fill="midnightblue" stroke="midnightblue" points="1543.55,-100.377 1551.65,-93.5477 1541.06,-93.8347 1543.55,-100.377"/>
</g>
<!-- Node23&#45;&gt;Node24 -->
<g id="edge24" class="edge"><title>Node23&#45;&gt;Node24</title>
<path fill="none" stroke="midnightblue" d="M1293.62,-204.351C1318.54,-195.515 1358.12,-181.25 1392,-168 1394.1,-167.179 1396.26,-166.317 1398.44,-165.439"/>
<polygon fill="midnightblue" stroke="midnightblue" points="1399.96,-168.6 1407.88,-161.567 1397.3,-162.123 1399.96,-168.6"/>
</g>
<!-- Node25 -->
<g id="node25" class="node"><title>Node25</title>
<polygon fill="none" stroke="#bfbfbf" points="1221,-6.5 1221,-25.5 1259,-25.5 1259,-6.5 1221,-6.5"/>
<text text-anchor="middle" x="1240" y="-13.5" font-family="Helvetica,sans-Serif" font-size="10.00">array</text>
</g>
<!-- Node23&#45;&gt;Node25 -->
<g id="edge25" class="edge"><title>Node23&#45;&gt;Node25</title>
<path fill="none" stroke="midnightblue" d="M1254.92,-204.259C1243.65,-196.355 1228.65,-183.584 1222,-168 1202.79,-123.021 1220.81,-64.0684 1232.23,-34.9186"/>
<polygon fill="midnightblue" stroke="midnightblue" points="1235.5,-36.1883 1236.06,-25.6086 1229.02,-33.5252 1235.5,-36.1883"/>
</g>
<!-- Node26 -->
<g id="node26" class="node"><title>Node26</title>
<g id="a_node26"><a xlink:href="../../d6/d31/DetID_8h.html" target="_top" xlink:title="DetectorsBase/DetID.h">
<polygon fill="none" stroke="black" points="1230.5,-142.5 1230.5,-161.5 1349.5,-161.5 1349.5,-142.5 1230.5,-142.5"/>
<text text-anchor="middle" x="1290" y="-149.5" font-family="Helvetica,sans-Serif" font-size="10.00">DetectorsBase/DetID.h</text>
</a>
</g>
</g>
<!-- Node23&#45;&gt;Node26 -->
<g id="edge27" class="edge"><title>Node23&#45;&gt;Node26</title>
<path fill="none" stroke="midnightblue" d="M1272.01,-204.403C1275.03,-195.76 1279.79,-182.17 1283.65,-171.134"/>
<polygon fill="midnightblue" stroke="midnightblue" points="1287,-172.175 1287,-161.581 1280.39,-169.863 1287,-172.175"/>
</g>
<!-- Node26&#45;&gt;Node16 -->
<g id="edge31" class="edge"><title>Node26&#45;&gt;Node16</title>
<path fill="none" stroke="midnightblue" d="M1331.78,-142.46C1398.92,-128.708 1524.32,-102.899 1534,-100 1536.8,-99.1606 1539.69,-98.2022 1542.56,-97.185"/>
<polygon fill="midnightblue" stroke="midnightblue" points="1543.98,-100.388 1552.11,-93.5875 1541.52,-93.8375 1543.98,-100.388"/>
</g>
<!-- Node26&#45;&gt;Node25 -->
<g id="edge29" class="edge"><title>Node26&#45;&gt;Node25</title>
<path fill="none" stroke="midnightblue" d="M1283.6,-142.431C1276.58,-132.65 1265.47,-115.937 1259,-100 1250.42,-78.8552 1245.28,-53.0299 1242.55,-35.8582"/>
<polygon fill="midnightblue" stroke="midnightblue" points="1245.94,-34.9028 1241.03,-25.5165 1239.02,-35.9185 1245.94,-34.9028"/>
</g>
<!-- Node27 -->
<g id="node27" class="node"><title>Node27</title>
<polygon fill="none" stroke="#bfbfbf" points="1268,-74.5 1268,-93.5 1314,-93.5 1314,-74.5 1268,-74.5"/>
<text text-anchor="middle" x="1291" y="-81.5" font-family="Helvetica,sans-Serif" font-size="10.00">cstdint</text>
</g>
<!-- Node26&#45;&gt;Node27 -->
<g id="edge28" class="edge"><title>Node26&#45;&gt;Node27</title>
<path fill="none" stroke="midnightblue" d="M1290.13,-142.372C1290.28,-132.643 1290.52,-116.528 1290.71,-103.85"/>
<polygon fill="midnightblue" stroke="midnightblue" points="1294.21,-103.893 1290.87,-93.8411 1287.21,-103.787 1294.21,-103.893"/>
</g>
<!-- Node28 -->
<g id="node28" class="node"><title>Node28</title>
<polygon fill="none" stroke="#bfbfbf" points="1332,-74.5 1332,-93.5 1394,-93.5 1394,-74.5 1332,-74.5"/>
<text text-anchor="middle" x="1363" y="-81.5" font-family="Helvetica,sans-Serif" font-size="10.00">type_traits</text>
</g>
<!-- Node26&#45;&gt;Node28 -->
<g id="edge30" class="edge"><title>Node26&#45;&gt;Node28</title>
<path fill="none" stroke="midnightblue" d="M1299.54,-142.372C1311.17,-131.856 1331.05,-113.882 1345.47,-100.85"/>
<polygon fill="midnightblue" stroke="midnightblue" points="1348.15,-103.144 1353.22,-93.8411 1343.46,-97.9514 1348.15,-103.144"/>
</g>
<!-- Node29 -->
<g id="node29" class="node"><title>Node29</title>
<g id="a_node29"><a xlink:href="../../d9/ded/Utils_8h.html" target="_top" xlink:title="DetectorsBase/Utils.h">
<polygon fill="none" stroke="black" points="1412.5,-74.5 1412.5,-93.5 1525.5,-93.5 1525.5,-74.5 1412.5,-74.5"/>
<text text-anchor="middle" x="1469" y="-81.5" font-family="Helvetica,sans-Serif" font-size="10.00">DetectorsBase/Utils.h</text>
</a>
</g>
</g>
<!-- Node26&#45;&gt;Node29 -->
<g id="edge32" class="edge"><title>Node26&#45;&gt;Node29</title>
<path fill="none" stroke="midnightblue" d="M1313.4,-142.372C1344.84,-130.778 1400.88,-110.116 1436.43,-97.0087"/>
<polygon fill="midnightblue" stroke="midnightblue" points="1437.71,-100.269 1445.88,-93.5259 1435.28,-93.7015 1437.71,-100.269"/>
</g>
<!-- Node32 -->
<g id="node32" class="node"><title>Node32</title>
<polygon fill="none" stroke="#bfbfbf" points="1860.5,-74.5 1860.5,-93.5 1909.5,-93.5 1909.5,-74.5 1860.5,-74.5"/>
<text text-anchor="middle" x="1885" y="-81.5" font-family="Helvetica,sans-Serif" font-size="10.00">cassert</text>
</g>
<!-- Node26&#45;&gt;Node32 -->
<g id="edge36" class="edge"><title>Node26&#45;&gt;Node32</title>
<path fill="none" stroke="midnightblue" d="M1347.98,-142.493C1363.86,-140.267 1381.08,-137.947 1397,-136 1566.73,-115.24 1770.33,-95.6794 1850.32,-88.2015"/>
<polygon fill="midnightblue" stroke="midnightblue" points="1850.7,-91.6813 1860.34,-87.2684 1850.06,-84.7115 1850.7,-91.6813"/>
</g>
<!-- Node29&#45;&gt;Node25 -->
<g id="edge35" class="edge"><title>Node29&#45;&gt;Node25</title>
<path fill="none" stroke="midnightblue" d="M1439.06,-74.3717C1394.84,-61.6264 1312.6,-37.9227 1268.95,-25.3432"/>
<polygon fill="midnightblue" stroke="midnightblue" points="1269.81,-21.95 1259.23,-22.5437 1267.87,-28.6762 1269.81,-21.95"/>
</g>
<!-- Node30 -->
<g id="node30" class="node"><title>Node30</title>
<g id="a_node30"><a xlink:href="../../d1/daa/Base_2include_2DetectorsBase_2Constants_8h.html" target="_top" xlink:title="DetectorsBase/Constants.h">
<polygon fill="none" stroke="black" points="1345,-6.5 1345,-25.5 1483,-25.5 1483,-6.5 1345,-6.5"/>
<text text-anchor="middle" x="1414" y="-13.5" font-family="Helvetica,sans-Serif" font-size="10.00">DetectorsBase/Constants.h</text>
</a>
</g>
</g>
<!-- Node29&#45;&gt;Node30 -->
<g id="edge33" class="edge"><title>Node29&#45;&gt;Node30</title>
<path fill="none" stroke="midnightblue" d="M1461.81,-74.3717C1453.21,-64.053 1438.63,-46.5513 1427.82,-33.5854"/>
<polygon fill="midnightblue" stroke="midnightblue" points="1430.46,-31.2827 1421.37,-25.8411 1425.08,-35.764 1430.46,-31.2827"/>
</g>
<!-- Node31 -->
<g id="node31" class="node"><title>Node31</title>
<polygon fill="none" stroke="#bfbfbf" points="1501,-6.5 1501,-25.5 1545,-25.5 1545,-6.5 1501,-6.5"/>
<text text-anchor="middle" x="1523" y="-13.5" font-family="Helvetica,sans-Serif" font-size="10.00">cmath</text>
</g>
<!-- Node29&#45;&gt;Node31 -->
<g id="edge34" class="edge"><title>Node29&#45;&gt;Node31</title>
<path fill="none" stroke="midnightblue" d="M1476.06,-74.3717C1484.5,-64.053 1498.82,-46.5513 1509.43,-33.5854"/>
<polygon fill="midnightblue" stroke="midnightblue" points="1512.14,-35.7971 1515.77,-25.8411 1506.73,-31.3644 1512.14,-35.7971"/>
</g>
<!-- Node33&#45;&gt;Node23 -->
<g id="edge40" class="edge"><title>Node33&#45;&gt;Node23</title>
<path fill="none" stroke="midnightblue" d="M1333.54,-334.369C1341.17,-318.554 1354.48,-284.323 1341,-260 1332.91,-245.405 1317.9,-234.918 1303.66,-227.761"/>
<polygon fill="midnightblue" stroke="midnightblue" points="1305.05,-224.546 1294.5,-223.528 1302.11,-230.9 1305.05,-224.546"/>
</g>
<!-- Node34 -->
<g id="node34" class="node"><title>Node34</title>
<polygon fill="none" stroke="#bfbfbf" points="1263.5,-266.5 1263.5,-285.5 1332.5,-285.5 1332.5,-266.5 1263.5,-266.5"/>
<text text-anchor="middle" x="1298" y="-273.5" font-family="Helvetica,sans-Serif" font-size="10.00">TObjArray.h</text>
</g>
<!-- Node33&#45;&gt;Node34 -->
<g id="edge41" class="edge"><title>Node33&#45;&gt;Node34</title>
<path fill="none" stroke="midnightblue" d="M1324.95,-334.372C1320.29,-324.446 1312.5,-307.874 1306.5,-295.086"/>
<polygon fill="midnightblue" stroke="midnightblue" points="1309.57,-293.404 1302.15,-285.841 1303.24,-296.38 1309.57,-293.404"/>
</g>
<!-- Node35 -->
<g id="node35" class="node"><title>Node35</title>
<polygon fill="none" stroke="#bfbfbf" points="1204.5,-266.5 1204.5,-285.5 1245.5,-285.5 1245.5,-266.5 1204.5,-266.5"/>
<text text-anchor="middle" x="1225" y="-273.5" font-family="Helvetica,sans-Serif" font-size="10.00">string</text>
</g>
<!-- Node33&#45;&gt;Node35 -->
<g id="edge42" class="edge"><title>Node33&#45;&gt;Node35</title>
<path fill="none" stroke="midnightblue" d="M1315.4,-334.372C1298.04,-323.353 1267.77,-304.145 1247.08,-291.014"/>
<polygon fill="midnightblue" stroke="midnightblue" points="1248.92,-288.034 1238.6,-285.63 1245.17,-293.944 1248.92,-288.034"/>
</g>
<!-- Node36&#45;&gt;Node16 -->
<g id="edge44" class="edge"><title>Node36&#45;&gt;Node16</title>
<path fill="none" stroke="midnightblue" d="M1558.24,-260.963C1547.95,-251.692 1535.91,-238.588 1530,-224 1515.31,-187.74 1514.37,-172.669 1528,-136 1533.09,-122.299 1543.7,-109.818 1553.23,-100.633"/>
<polygon fill="midnightblue" stroke="midnightblue" points="1555.77,-103.049 1560.83,-93.738 1551.07,-97.8647 1555.77,-103.049"/>
</g>
<!-- Node37 -->
<g id="node37" class="node"><title>Node37</title>
<g id="a_node37"><a xlink:href="../../d0/d06/ITSMFT_2common_2base_2include_2ITSMFTBase_2Digit_8h.html" target="_top" xlink:title="ITSMFTBase/Digit.h">
<polygon fill="none" stroke="black" points="1538.5,-204.5 1538.5,-223.5 1645.5,-223.5 1645.5,-204.5 1538.5,-204.5"/>
<text text-anchor="middle" x="1592" y="-211.5" font-family="Helvetica,sans-Serif" font-size="10.00">ITSMFTBase/Digit.h</text>
</a>
</g>
</g>
<!-- Node36&#45;&gt;Node37 -->
<g id="edge45" class="edge"><title>Node36&#45;&gt;Node37</title>
<path fill="none" stroke="midnightblue" d="M1579.79,-260.781C1581.97,-252.601 1584.74,-242.234 1587.08,-233.434"/>
<polygon fill="midnightblue" stroke="midnightblue" points="1590.48,-234.295 1589.67,-223.731 1583.71,-232.491 1590.48,-234.295"/>
</g>
<!-- Node36&#45;&gt;Node39 -->
<g id="edge51" class="edge"><title>Node36&#45;&gt;Node39</title>
<path fill="none" stroke="midnightblue" d="M1605.05,-260.766C1650.13,-238.681 1736.92,-196.158 1786.94,-171.647"/>
<polygon fill="midnightblue" stroke="midnightblue" points="1788.69,-174.686 1796.13,-167.143 1785.61,-168.4 1788.69,-174.686"/>
</g>
<!-- Node37&#45;&gt;Node16 -->
<g id="edge50" class="edge"><title>Node37&#45;&gt;Node16</title>
<path fill="none" stroke="midnightblue" d="M1574.5,-204.465C1561.21,-196.917 1543.92,-184.533 1536,-168 1525.13,-145.324 1541.94,-118.55 1556.05,-101.671"/>
<polygon fill="midnightblue" stroke="midnightblue" points="1559,-103.621 1563.03,-93.8211 1553.77,-98.9713 1559,-103.621"/>
</g>
<!-- Node38 -->
<g id="node38" class="node"><title>Node38</title>
<polygon fill="none" stroke="#bfbfbf" points="1544.5,-137 1544.5,-167 1639.5,-167 1639.5,-137 1544.5,-137"/>
<text text-anchor="start" x="1552.5" y="-155" font-family="Helvetica,sans-Serif" font-size="10.00">boost/serialization</text>
<text text-anchor="middle" x="1592" y="-144" font-family="Helvetica,sans-Serif" font-size="10.00">/base_object.hpp</text>
</g>
<!-- Node37&#45;&gt;Node38 -->
<g id="edge46" class="edge"><title>Node37&#45;&gt;Node38</title>
<path fill="none" stroke="midnightblue" d="M1592,-204.403C1592,-197.341 1592,-186.975 1592,-177.399"/>
<polygon fill="midnightblue" stroke="midnightblue" points="1595.5,-177.141 1592,-167.141 1588.5,-177.141 1595.5,-177.141"/>
</g>
<!-- Node37&#45;&gt;Node39 -->
<g id="edge47" class="edge"><title>Node37&#45;&gt;Node39</title>
<path fill="none" stroke="midnightblue" d="M1625.38,-204.403C1660.6,-195.336 1716.95,-180.825 1760.81,-169.529"/>
<polygon fill="midnightblue" stroke="midnightblue" points="1761.72,-172.909 1770.54,-167.025 1759.98,-166.13 1761.72,-172.909"/>
</g>
<!-- Node40 -->
<g id="node40" class="node"><title>Node40</title>
<polygon fill="none" stroke="#bfbfbf" points="1658,-142.5 1658,-161.5 1750,-161.5 1750,-142.5 1658,-142.5"/>
<text text-anchor="middle" x="1704" y="-149.5" font-family="Helvetica,sans-Serif" font-size="10.00">FairTimeStamp.h</text>
</g>
<!-- Node37&#45;&gt;Node40 -->
<g id="edge49" class="edge"><title>Node37&#45;&gt;Node40</title>
<path fill="none" stroke="midnightblue" d="M1608.05,-204.403C1626.59,-194.468 1657.34,-177.997 1679.02,-166.381"/>
<polygon fill="midnightblue" stroke="midnightblue" points="1680.82,-169.388 1687.98,-161.581 1677.52,-163.218 1680.82,-169.388"/>
</g>
<!-- Node39&#45;&gt;Node16 -->
<g id="edge48" class="edge"><title>Node39&#45;&gt;Node16</title>
<path fill="none" stroke="midnightblue" d="M1771.04,-136.922C1722.53,-124.27 1652.55,-106.012 1609.79,-94.8576"/>
<polygon fill="midnightblue" stroke="midnightblue" points="1610.61,-91.4561 1600.05,-92.3184 1608.85,-98.2294 1610.61,-91.4561"/>
</g>
<!-- Node42&#45;&gt;Node16 -->
<g id="edge57" class="edge"><title>Node42&#45;&gt;Node16</title>
<path fill="none" stroke="midnightblue" d="M1944.44,-402.223C1945.48,-380.822 1948,-324.247 1948,-277 1948,-277 1948,-277 1948,-213 1948,-174.436 1939.36,-158.444 1908,-136 1860.86,-102.262 1688.11,-90.2688 1610.37,-86.5166"/>
<polygon fill="midnightblue" stroke="midnightblue" points="1610.2,-83.0053 1600.05,-86.0404 1609.88,-89.9979 1610.2,-83.0053"/>
</g>
<!-- Node43&#45;&gt;Node32 -->
<g id="edge61" class="edge"><title>Node43&#45;&gt;Node32</title>
<path fill="none" stroke="midnightblue" d="M2109.75,-396.64C2115.79,-372.238 2127,-321.034 2127,-277 2127,-277 2127,-277 2127,-213 2127,-120.288 1986.5,-94.547 1919.61,-87.5456"/>
<polygon fill="midnightblue" stroke="midnightblue" points="1919.83,-84.0506 1909.54,-86.5754 1919.15,-91.0183 1919.83,-84.0506"/>
</g>
<!-- Node44 -->
<g id="node44" class="node"><title>Node44</title>
<polygon fill="none" stroke="#bfbfbf" points="2155,-334.5 2155,-353.5 2217,-353.5 2217,-334.5 2155,-334.5"/>
<text text-anchor="middle" x="2186" y="-341.5" font-family="Helvetica,sans-Serif" font-size="10.00">TNamed.h</text>
</g>
<!-- Node43&#45;&gt;Node44 -->
<g id="edge60" class="edge"><title>Node43&#45;&gt;Node44</title>
<path fill="none" stroke="midnightblue" d="M2123.36,-396.679C2136.33,-385.981 2154.03,-371.377 2167.31,-360.422"/>
<polygon fill="midnightblue" stroke="midnightblue" points="2169.81,-362.892 2175.3,-353.828 2165.36,-357.492 2169.81,-362.892"/>
</g>
<!-- Node45 -->
<g id="node45" class="node"><title>Node45</title>
<polygon fill="none" stroke="#bfbfbf" points="1976.5,-334.5 1976.5,-353.5 2035.5,-353.5 2035.5,-334.5 1976.5,-334.5"/>
<text text-anchor="middle" x="2006" y="-341.5" font-family="Helvetica,sans-Serif" font-size="10.00">stdexcept</text>
</g>
<!-- Node43&#45;&gt;Node45 -->
<g id="edge62" class="edge"><title>Node43&#45;&gt;Node45</title>
<path fill="none" stroke="midnightblue" d="M2084.3,-396.679C2067.53,-385.611 2044.43,-370.363 2027.67,-359.3"/>
<polygon fill="midnightblue" stroke="midnightblue" points="2029.36,-356.225 2019.09,-353.638 2025.51,-362.067 2029.36,-356.225"/>
</g>
<!-- Node46 -->
<g id="node46" class="node"><title>Node46</title>
<polygon fill="none" stroke="#bfbfbf" points="2053.5,-334.5 2053.5,-353.5 2098.5,-353.5 2098.5,-334.5 2053.5,-334.5"/>
<text text-anchor="middle" x="2076" y="-341.5" font-family="Helvetica,sans-Serif" font-size="10.00">gsl/gsl</text>
</g>
<!-- Node43&#45;&gt;Node46 -->
<g id="edge63" class="edge"><title>Node43&#45;&gt;Node46</title>
<path fill="none" stroke="midnightblue" d="M2099.49,-396.679C2095,-386.796 2088.99,-373.579 2084.18,-362.986"/>
<polygon fill="midnightblue" stroke="midnightblue" points="2087.34,-361.484 2080.01,-353.828 2080.96,-364.38 2087.34,-361.484"/>
</g>
</g>
</svg>
