<?xml version="1.0" encoding="UTF-8" standalone="no"?>
<!DOCTYPE svg PUBLIC "-//W3C//DTD SVG 1.1//EN"
 "http://www.w3.org/Graphics/SVG/1.1/DTD/svg11.dtd">
<!-- Generated by graphviz version 2.36.0 (20140111.2315)
 -->
<!-- Title: /home/travis/build/AliceO2Group/AliceO2/Detectors/ITSMFT/ITS/reconstruction/include/ITSReconstruction/ClustererTask.h Pages: 1 -->
<svg width="2087pt" height="536pt"
 viewBox="0.00 0.00 2087.00 536.00" xmlns="http://www.w3.org/2000/svg" xmlns:xlink="http://www.w3.org/1999/xlink">
<g id="graph0" class="graph" transform="scale(1 1) rotate(0) translate(4 532)">
<title>/home/travis/build/AliceO2Group/AliceO2/Detectors/ITSMFT/ITS/reconstruction/include/ITSReconstruction/ClustererTask.h</title>
<!-- Node1 -->
<g id="node1" class="node"><title>Node1</title>
<polygon fill="#bfbfbf" stroke="black" points="1452,-464.5 1452,-527.5 1626,-527.5 1626,-464.5 1452,-464.5"/>
<text text-anchor="start" x="1460" y="-515.5" font-family="Helvetica,sans-Serif" font-size="10.00">/home/travis/build</text>
<text text-anchor="start" x="1460" y="-504.5" font-family="Helvetica,sans-Serif" font-size="10.00">/AliceO2Group/AliceO2</text>
<text text-anchor="start" x="1460" y="-493.5" font-family="Helvetica,sans-Serif" font-size="10.00">/Detectors/ITSMFT/ITS</text>
<text text-anchor="start" x="1460" y="-482.5" font-family="Helvetica,sans-Serif" font-size="10.00">/reconstruction/include</text>
<text text-anchor="middle" x="1539" y="-471.5" font-family="Helvetica,sans-Serif" font-size="10.00">/ITSReconstruction/ClustererTask.h</text>
</g>
<!-- Node2 -->
<g id="node2" class="node"><title>Node2</title>
<polygon fill="none" stroke="#bfbfbf" points="1428.5,-402.5 1428.5,-421.5 1491.5,-421.5 1491.5,-402.5 1428.5,-402.5"/>
<text text-anchor="middle" x="1460" y="-409.5" font-family="Helvetica,sans-Serif" font-size="10.00">FairTask.h</text>
</g>
<!-- Node1&#45;&gt;Node2 -->
<g id="edge1" class="edge"><title>Node1&#45;&gt;Node2</title>
<path fill="none" stroke="midnightblue" d="M1509.58,-464.466C1497.95,-452.394 1485.07,-439.024 1475.35,-428.938"/>
<polygon fill="midnightblue" stroke="midnightblue" points="1477.78,-426.413 1468.32,-421.64 1472.74,-431.27 1477.78,-426.413"/>
</g>
<!-- Node3 -->
<g id="node3" class="node"><title>Node3</title>
<g id="a_node3"><a xlink:href="../../df/d9a/ITS_2base_2include_2ITSBase_2GeometryTGeo_8h.html" target="_top" xlink:title="ITSBase/GeometryTGeo.h">
<polygon fill="none" stroke="black" points="318.5,-334.5 318.5,-353.5 451.5,-353.5 451.5,-334.5 318.5,-334.5"/>
<text text-anchor="middle" x="385" y="-341.5" font-family="Helvetica,sans-Serif" font-size="10.00">ITSBase/GeometryTGeo.h</text>
</a>
</g>
</g>
<!-- Node1&#45;&gt;Node3 -->
<g id="edge2" class="edge"><title>Node1&#45;&gt;Node3</title>
<path fill="none" stroke="midnightblue" d="M1535.79,-464.494C1531.61,-441.576 1522.03,-411.565 1500,-396 1453.06,-362.829 523.138,-366.25 466,-360 455.764,-358.88 444.878,-357.204 434.518,-355.372"/>
<polygon fill="midnightblue" stroke="midnightblue" points="434.846,-351.874 424.377,-353.504 433.578,-358.758 434.846,-351.874"/>
</g>
<!-- Node37 -->
<g id="node37" class="node"><title>Node37</title>
<g id="a_node37"><a xlink:href="../../df/d2e/PixelReader_8h.html" target="_top" xlink:title="Definition of the ITS pixel reader. ">
<polygon fill="none" stroke="black" points="1562.5,-261 1562.5,-291 1681.5,-291 1681.5,-261 1562.5,-261"/>
<text text-anchor="start" x="1570.5" y="-279" font-family="Helvetica,sans-Serif" font-size="10.00">ITSMFTReconstruction</text>
<text text-anchor="middle" x="1622" y="-268" font-family="Helvetica,sans-Serif" font-size="10.00">/PixelReader.h</text>
</a>
</g>
</g>
<!-- Node1&#45;&gt;Node37 -->
<g id="edge51" class="edge"><title>Node1&#45;&gt;Node37</title>
<path fill="none" stroke="midnightblue" d="M1550.72,-464.228C1567.49,-420.177 1597.98,-340.098 1613.06,-300.484"/>
<polygon fill="midnightblue" stroke="midnightblue" points="1616.34,-301.7 1616.63,-291.109 1609.8,-299.21 1616.34,-301.7"/>
</g>
<!-- Node42 -->
<g id="node42" class="node"><title>Node42</title>
<g id="a_node42"><a xlink:href="../../d6/d04/ITSMFT_2common_2reconstruction_2include_2ITSMFTReconstruction_2Clusterer_8h.html" target="_top" xlink:title="ITSMFTReconstruction\l/Clusterer.h">
<polygon fill="none" stroke="black" points="1586.5,-397 1586.5,-427 1705.5,-427 1705.5,-397 1586.5,-397"/>
<text text-anchor="start" x="1594.5" y="-415" font-family="Helvetica,sans-Serif" font-size="10.00">ITSMFTReconstruction</text>
<text text-anchor="middle" x="1646" y="-404" font-family="Helvetica,sans-Serif" font-size="10.00">/Clusterer.h</text>
</a>
</g>
</g>
<!-- Node1&#45;&gt;Node42 -->
<g id="edge60" class="edge"><title>Node1&#45;&gt;Node42</title>
<path fill="none" stroke="midnightblue" d="M1578.84,-464.466C1592.46,-454.033 1607.34,-442.631 1619.62,-433.216"/>
<polygon fill="midnightblue" stroke="midnightblue" points="1621.85,-435.913 1627.66,-427.053 1617.6,-430.357 1621.85,-435.913"/>
</g>
<!-- Node4 -->
<g id="node4" class="node"><title>Node4</title>
<polygon fill="none" stroke="#bfbfbf" points="444,-142.5 444,-161.5 488,-161.5 488,-142.5 444,-142.5"/>
<text text-anchor="middle" x="466" y="-149.5" font-family="Helvetica,sans-Serif" font-size="10.00">vector</text>
</g>
<!-- Node3&#45;&gt;Node4 -->
<g id="edge3" class="edge"><title>Node3&#45;&gt;Node4</title>
<path fill="none" stroke="midnightblue" d="M386.582,-334.473C390.948,-312.126 404.425,-250.389 428,-204 434.281,-191.64 443.542,-179.136 451.349,-169.602"/>
<polygon fill="midnightblue" stroke="midnightblue" points="454.19,-171.664 457.983,-161.771 448.849,-167.139 454.19,-171.664"/>
</g>
<!-- Node5 -->
<g id="node5" class="node"><title>Node5</title>
<polygon fill="none" stroke="#bfbfbf" points="240,-6.5 240,-25.5 278,-25.5 278,-6.5 240,-6.5"/>
<text text-anchor="middle" x="259" y="-13.5" font-family="Helvetica,sans-Serif" font-size="10.00">array</text>
</g>
<!-- Node3&#45;&gt;Node5 -->
<g id="edge4" class="edge"><title>Node3&#45;&gt;Node5</title>
<path fill="none" stroke="midnightblue" d="M360.73,-334.457C319.452,-318.196 240,-278.632 240,-215 240,-215 240,-215 240,-151 240,-109.451 249.066,-61.3655 254.673,-35.5985"/>
<polygon fill="midnightblue" stroke="midnightblue" points="258.115,-36.2433 256.894,-25.719 251.285,-34.7076 258.115,-36.2433"/>
</g>
<!-- Node6 -->
<g id="node6" class="node"><title>Node6</title>
<polygon fill="none" stroke="#bfbfbf" points="1087.5,-204.5 1087.5,-223.5 1128.5,-223.5 1128.5,-204.5 1087.5,-204.5"/>
<text text-anchor="middle" x="1108" y="-211.5" font-family="Helvetica,sans-Serif" font-size="10.00">string</text>
</g>
<!-- Node3&#45;&gt;Node6 -->
<g id="edge5" class="edge"><title>Node3&#45;&gt;Node6</title>
<path fill="none" stroke="midnightblue" d="M451.656,-340.796C547.256,-336.583 728.385,-324.673 879,-292 952.395,-276.078 1035.15,-244.761 1078.26,-227.372"/>
<polygon fill="midnightblue" stroke="midnightblue" points="1079.65,-230.587 1087.59,-223.577 1077.01,-224.103 1079.65,-230.587"/>
</g>
<!-- Node7 -->
<g id="node7" class="node"><title>Node7</title>
<polygon fill="none" stroke="#bfbfbf" points="648,-74.5 648,-93.5 724,-93.5 724,-74.5 648,-74.5"/>
<text text-anchor="middle" x="686" y="-81.5" font-family="Helvetica,sans-Serif" font-size="10.00">TGeoMatrix.h</text>
</g>
<!-- Node3&#45;&gt;Node7 -->
<g id="edge6" class="edge"><title>Node3&#45;&gt;Node7</title>
<path fill="none" stroke="midnightblue" d="M383.981,-334.193C380.79,-301.927 374.531,-189.286 435,-136 464.548,-109.962 573.382,-95.5393 637.63,-89.1245"/>
<polygon fill="midnightblue" stroke="midnightblue" points="638.309,-92.5753 647.925,-88.127 637.634,-85.6079 638.309,-92.5753"/>
</g>
<!-- Node8 -->
<g id="node8" class="node"><title>Node8</title>
<polygon fill="none" stroke="#bfbfbf" points="1010.5,-204.5 1010.5,-223.5 1069.5,-223.5 1069.5,-204.5 1010.5,-204.5"/>
<text text-anchor="middle" x="1040" y="-211.5" font-family="Helvetica,sans-Serif" font-size="10.00">TObject.h</text>
</g>
<!-- Node3&#45;&gt;Node8 -->
<g id="edge7" class="edge"><title>Node3&#45;&gt;Node8</title>
<path fill="none" stroke="midnightblue" d="M451.556,-339.324C536.177,-333.678 686.382,-320.392 812,-292 884.778,-275.551 966.974,-244.579 1010.03,-227.352"/>
<polygon fill="midnightblue" stroke="midnightblue" points="1011.39,-230.577 1019.35,-223.59 1008.77,-224.085 1011.39,-230.577"/>
</g>
<!-- Node9 -->
<g id="node9" class="node"><title>Node9</title>
<g id="a_node9"><a xlink:href="../../d6/d31/DetID_8h.html" target="_top" xlink:title="DetectorsBase/DetID.h">
<polygon fill="none" stroke="black" points="268.5,-142.5 268.5,-161.5 387.5,-161.5 387.5,-142.5 268.5,-142.5"/>
<text text-anchor="middle" x="328" y="-149.5" font-family="Helvetica,sans-Serif" font-size="10.00">DetectorsBase/DetID.h</text>
</a>
</g>
</g>
<!-- Node3&#45;&gt;Node9 -->
<g id="edge8" class="edge"><title>Node3&#45;&gt;Node9</title>
<path fill="none" stroke="midnightblue" d="M377.717,-334.215C370.069,-324.508 358.297,-308.109 352,-292 336.007,-251.088 330.643,-199.265 328.865,-171.908"/>
<polygon fill="midnightblue" stroke="midnightblue" points="332.352,-171.575 328.302,-161.785 325.363,-171.964 332.352,-171.575"/>
</g>
<!-- Node12 -->
<g id="node12" class="node"><title>Node12</title>
<polygon fill="none" stroke="#bfbfbf" points="1768,-74.5 1768,-93.5 1824,-93.5 1824,-74.5 1768,-74.5"/>
<text text-anchor="middle" x="1796" y="-81.5" font-family="Helvetica,sans-Serif" font-size="10.00">Rtypes.h</text>
</g>
<!-- Node3&#45;&gt;Node12 -->
<g id="edge50" class="edge"><title>Node3&#45;&gt;Node12</title>
<path fill="none" stroke="midnightblue" d="M451.551,-342.154C629.18,-339.416 1111.45,-328.722 1266,-292 1339.98,-274.422 1355.24,-258.513 1423,-224 1491.53,-189.093 1500.07,-163.225 1572,-136 1651.16,-106.039 1677.84,-124.013 1759,-100 1761.8,-99.1703 1764.69,-98.2068 1767.55,-97.176"/>
<polygon fill="midnightblue" stroke="midnightblue" points="1768.98,-100.376 1777.05,-93.5091 1766.46,-93.8456 1768.98,-100.376"/>
</g>
<!-- Node13 -->
<g id="node13" class="node"><title>Node13</title>
<g id="a_node13"><a xlink:href="../../d9/ded/Utils_8h.html" target="_top" xlink:title="DetectorsBase/Utils.h">
<polygon fill="none" stroke="black" points="98.5,-74.5 98.5,-93.5 211.5,-93.5 211.5,-74.5 98.5,-74.5"/>
<text text-anchor="middle" x="155" y="-81.5" font-family="Helvetica,sans-Serif" font-size="10.00">DetectorsBase/Utils.h</text>
</a>
</g>
</g>
<!-- Node3&#45;&gt;Node13 -->
<g id="edge18" class="edge"><title>Node3&#45;&gt;Node13</title>
<path fill="none" stroke="midnightblue" d="M318.296,-335.562C286.725,-328.866 250.636,-316.148 226,-292 172.297,-239.362 159.194,-144.381 156.013,-103.997"/>
<polygon fill="midnightblue" stroke="midnightblue" points="159.499,-103.676 155.342,-93.9307 152.515,-104.141 159.499,-103.676"/>
</g>
<!-- Node17 -->
<g id="node17" class="node"><title>Node17</title>
<g id="a_node17"><a xlink:href="../../db/dcc/Detectors_2Base_2include_2DetectorsBase_2GeometryManager_8h.html" target="_top" xlink:title="DetectorsBase/GeometryManager.h">
<polygon fill="none" stroke="black" points="630.5,-266.5 630.5,-285.5 803.5,-285.5 803.5,-266.5 630.5,-266.5"/>
<text text-anchor="middle" x="717" y="-273.5" font-family="Helvetica,sans-Serif" font-size="10.00">DetectorsBase/GeometryManager.h</text>
</a>
</g>
</g>
<!-- Node3&#45;&gt;Node17 -->
<g id="edge19" class="edge"><title>Node3&#45;&gt;Node17</title>
<path fill="none" stroke="midnightblue" d="M428.063,-334.439C488.517,-322.421 598.463,-300.565 663.907,-287.555"/>
<polygon fill="midnightblue" stroke="midnightblue" points="664.888,-290.928 674.013,-285.546 663.523,-284.063 664.888,-290.928"/>
</g>
<!-- Node34 -->
<g id="node34" class="node"><title>Node34</title>
<g id="a_node34"><a xlink:href="../../d0/d2d/common_2base_2include_2ITSMFTBase_2GeometryTGeo_8h.html" target="_top" xlink:title="ITSMFTBase/GeometryTGeo.h">
<polygon fill="none" stroke="black" points="1104.5,-266.5 1104.5,-285.5 1257.5,-285.5 1257.5,-266.5 1104.5,-266.5"/>
<text text-anchor="middle" x="1181" y="-273.5" font-family="Helvetica,sans-Serif" font-size="10.00">ITSMFTBase/GeometryTGeo.h</text>
</a>
</g>
</g>
<!-- Node3&#45;&gt;Node34 -->
<g id="edge40" class="edge"><title>Node3&#45;&gt;Node34</title>
<path fill="none" stroke="midnightblue" d="M451.531,-338.208C568.701,-329.666 819.498,-310.922 1031,-292 1051.5,-290.166 1073.56,-288.044 1094.28,-285.983"/>
<polygon fill="midnightblue" stroke="midnightblue" points="1094.73,-289.455 1104.34,-284.978 1094.04,-282.49 1094.73,-289.455"/>
</g>
<!-- Node9&#45;&gt;Node5 -->
<g id="edge10" class="edge"><title>Node9&#45;&gt;Node5</title>
<path fill="none" stroke="midnightblue" d="M322.188,-142.156C315.702,-132.128 305.061,-115.194 297,-100 285.437,-78.2037 273.884,-52.2207 266.605,-35.2048"/>
<polygon fill="midnightblue" stroke="midnightblue" points="269.783,-33.7329 262.664,-25.8863 263.336,-36.4598 269.783,-33.7329"/>
</g>
<!-- Node10 -->
<g id="node10" class="node"><title>Node10</title>
<polygon fill="none" stroke="#bfbfbf" points="306,-74.5 306,-93.5 352,-93.5 352,-74.5 306,-74.5"/>
<text text-anchor="middle" x="329" y="-81.5" font-family="Helvetica,sans-Serif" font-size="10.00">cstdint</text>
</g>
<!-- Node9&#45;&gt;Node10 -->
<g id="edge9" class="edge"><title>Node9&#45;&gt;Node10</title>
<path fill="none" stroke="midnightblue" d="M328.131,-142.372C328.278,-132.643 328.522,-116.528 328.714,-103.85"/>
<polygon fill="midnightblue" stroke="midnightblue" points="332.214,-103.893 328.866,-93.8411 325.215,-103.787 332.214,-103.893"/>
</g>
<!-- Node11 -->
<g id="node11" class="node"><title>Node11</title>
<polygon fill="none" stroke="#bfbfbf" points="370,-74.5 370,-93.5 432,-93.5 432,-74.5 370,-74.5"/>
<text text-anchor="middle" x="401" y="-81.5" font-family="Helvetica,sans-Serif" font-size="10.00">type_traits</text>
</g>
<!-- Node9&#45;&gt;Node11 -->
<g id="edge11" class="edge"><title>Node9&#45;&gt;Node11</title>
<path fill="none" stroke="midnightblue" d="M337.543,-142.372C349.174,-131.856 369.055,-113.882 383.469,-100.85"/>
<polygon fill="midnightblue" stroke="midnightblue" points="386.151,-103.144 391.221,-93.8411 381.456,-97.9514 386.151,-103.144"/>
</g>
<!-- Node9&#45;&gt;Node12 -->
<g id="edge12" class="edge"><title>Node9&#45;&gt;Node12</title>
<path fill="none" stroke="midnightblue" d="M380.387,-142.461C397.725,-139.955 417.148,-137.489 435,-136 728.312,-111.531 1470.9,-160.253 1759,-100 1762.26,-99.3189 1765.59,-98.3659 1768.86,-97.2668"/>
<polygon fill="midnightblue" stroke="midnightblue" points="1770.24,-100.488 1778.34,-93.6576 1767.75,-93.9464 1770.24,-100.488"/>
</g>
<!-- Node9&#45;&gt;Node13 -->
<g id="edge13" class="edge"><title>Node9&#45;&gt;Node13</title>
<path fill="none" stroke="midnightblue" d="M305.383,-142.372C275.123,-130.827 221.297,-110.293 186.919,-97.1772"/>
<polygon fill="midnightblue" stroke="midnightblue" points="187.939,-93.8203 177.348,-93.5259 185.444,-100.36 187.939,-93.8203"/>
</g>
<!-- Node16 -->
<g id="node16" class="node"><title>Node16</title>
<polygon fill="none" stroke="#bfbfbf" points="450.5,-74.5 450.5,-93.5 499.5,-93.5 499.5,-74.5 450.5,-74.5"/>
<text text-anchor="middle" x="475" y="-81.5" font-family="Helvetica,sans-Serif" font-size="10.00">cassert</text>
</g>
<!-- Node9&#45;&gt;Node16 -->
<g id="edge17" class="edge"><title>Node9&#45;&gt;Node16</title>
<path fill="none" stroke="midnightblue" d="M347.218,-142.372C372.529,-131.007 417.245,-110.931 446.5,-97.7961"/>
<polygon fill="midnightblue" stroke="midnightblue" points="448.088,-100.919 455.778,-93.6305 445.221,-94.5335 448.088,-100.919"/>
</g>
<!-- Node13&#45;&gt;Node5 -->
<g id="edge16" class="edge"><title>Node13&#45;&gt;Node5</title>
<path fill="none" stroke="midnightblue" d="M168.596,-74.3717C185.958,-63.3533 216.226,-44.1449 236.917,-31.0142"/>
<polygon fill="midnightblue" stroke="midnightblue" points="238.833,-33.9439 245.4,-25.6305 235.082,-28.0336 238.833,-33.9439"/>
</g>
<!-- Node14 -->
<g id="node14" class="node"><title>Node14</title>
<g id="a_node14"><a xlink:href="../../d1/daa/Base_2include_2DetectorsBase_2Constants_8h.html" target="_top" xlink:title="DetectorsBase/Constants.h">
<polygon fill="none" stroke="black" points="0,-6.5 0,-25.5 138,-25.5 138,-6.5 0,-6.5"/>
<text text-anchor="middle" x="69" y="-13.5" font-family="Helvetica,sans-Serif" font-size="10.00">DetectorsBase/Constants.h</text>
</a>
</g>
</g>
<!-- Node13&#45;&gt;Node14 -->
<g id="edge14" class="edge"><title>Node13&#45;&gt;Node14</title>
<path fill="none" stroke="midnightblue" d="M143.757,-74.3717C129.722,-63.6004 105.488,-45.0021 88.4236,-31.9065"/>
<polygon fill="midnightblue" stroke="midnightblue" points="90.3097,-28.9421 80.2458,-25.6305 86.048,-34.4953 90.3097,-28.9421"/>
</g>
<!-- Node15 -->
<g id="node15" class="node"><title>Node15</title>
<polygon fill="none" stroke="#bfbfbf" points="156,-6.5 156,-25.5 200,-25.5 200,-6.5 156,-6.5"/>
<text text-anchor="middle" x="178" y="-13.5" font-family="Helvetica,sans-Serif" font-size="10.00">cmath</text>
</g>
<!-- Node13&#45;&gt;Node15 -->
<g id="edge15" class="edge"><title>Node13&#45;&gt;Node15</title>
<path fill="none" stroke="midnightblue" d="M158.007,-74.3717C161.432,-64.5443 167.127,-48.2018 171.564,-35.4673"/>
<polygon fill="midnightblue" stroke="midnightblue" points="174.933,-36.4359 174.919,-25.8411 168.323,-34.1324 174.933,-36.4359"/>
</g>
<!-- Node17&#45;&gt;Node8 -->
<g id="edge25" class="edge"><title>Node17&#45;&gt;Node8</title>
<path fill="none" stroke="midnightblue" d="M765.444,-266.462C821.137,-256.573 915.269,-239.633 996,-224 997.435,-223.722 998.896,-223.437 1000.37,-223.146"/>
<polygon fill="midnightblue" stroke="midnightblue" points="1001.07,-226.575 1010.19,-221.185 999.703,-219.711 1001.07,-226.575"/>
</g>
<!-- Node17&#45;&gt;Node9 -->
<g id="edge26" class="edge"><title>Node17&#45;&gt;Node9</title>
<path fill="none" stroke="midnightblue" d="M646.261,-266.469C594.243,-258.858 522.39,-245.52 462,-224 420.254,-209.124 375.472,-183.114 349.695,-167.044"/>
<polygon fill="midnightblue" stroke="midnightblue" points="351.423,-163.995 341.099,-161.612 347.683,-169.913 351.423,-163.995"/>
</g>
<!-- Node18 -->
<g id="node18" class="node"><title>Node18</title>
<polygon fill="none" stroke="#bfbfbf" points="542,-204.5 542,-223.5 628,-223.5 628,-204.5 542,-204.5"/>
<text text-anchor="middle" x="585" y="-211.5" font-family="Helvetica,sans-Serif" font-size="10.00">TGeoManager.h</text>
</g>
<!-- Node17&#45;&gt;Node18 -->
<g id="edge20" class="edge"><title>Node17&#45;&gt;Node18</title>
<path fill="none" stroke="midnightblue" d="M698.088,-266.403C675.837,-256.29 638.688,-239.404 613.074,-227.761"/>
<polygon fill="midnightblue" stroke="midnightblue" points="614.429,-224.532 603.877,-223.581 611.533,-230.905 614.429,-224.532"/>
</g>
<!-- Node19 -->
<g id="node19" class="node"><title>Node19</title>
<polygon fill="none" stroke="#bfbfbf" points="646.5,-204.5 646.5,-223.5 729.5,-223.5 729.5,-204.5 646.5,-204.5"/>
<text text-anchor="middle" x="688" y="-211.5" font-family="Helvetica,sans-Serif" font-size="10.00">TGeoMaterial.h</text>
</g>
<!-- Node17&#45;&gt;Node19 -->
<g id="edge21" class="edge"><title>Node17&#45;&gt;Node19</title>
<path fill="none" stroke="midnightblue" d="M712.845,-266.403C708.624,-257.671 701.963,-243.889 696.6,-232.794"/>
<polygon fill="midnightblue" stroke="midnightblue" points="699.65,-231.061 692.147,-223.581 693.348,-234.107 699.65,-231.061"/>
</g>
<!-- Node20 -->
<g id="node20" class="node"><title>Node20</title>
<polygon fill="none" stroke="#bfbfbf" points="748,-204.5 748,-223.5 858,-223.5 858,-204.5 748,-204.5"/>
<text text-anchor="middle" x="803" y="-211.5" font-family="Helvetica,sans-Serif" font-size="10.00">TGeoPhysicalNode.h</text>
</g>
<!-- Node17&#45;&gt;Node20 -->
<g id="edge22" class="edge"><title>Node17&#45;&gt;Node20</title>
<path fill="none" stroke="midnightblue" d="M729.322,-266.403C743.116,-256.78 765.699,-241.024 782.232,-229.489"/>
<polygon fill="midnightblue" stroke="midnightblue" points="784.503,-232.173 790.701,-223.581 780.497,-226.432 784.503,-232.173"/>
</g>
<!-- Node21 -->
<g id="node21" class="node"><title>Node21</title>
<polygon fill="none" stroke="#bfbfbf" points="876.5,-204.5 876.5,-223.5 953.5,-223.5 953.5,-204.5 876.5,-204.5"/>
<text text-anchor="middle" x="915" y="-211.5" font-family="Helvetica,sans-Serif" font-size="10.00">TGeoShape.h</text>
</g>
<!-- Node17&#45;&gt;Node21 -->
<g id="edge23" class="edge"><title>Node17&#45;&gt;Node21</title>
<path fill="none" stroke="midnightblue" d="M745.369,-266.403C779.921,-255.933 838.424,-238.205 876.885,-226.55"/>
<polygon fill="midnightblue" stroke="midnightblue" points="878.129,-229.83 886.684,-223.581 876.099,-223.131 878.129,-229.83"/>
</g>
<!-- Node22 -->
<g id="node22" class="node"><title>Node22</title>
<polygon fill="none" stroke="#bfbfbf" points="470.5,-204.5 470.5,-223.5 523.5,-223.5 523.5,-204.5 470.5,-204.5"/>
<text text-anchor="middle" x="497" y="-211.5" font-family="Helvetica,sans-Serif" font-size="10.00">TMath.h</text>
</g>
<!-- Node17&#45;&gt;Node22 -->
<g id="edge24" class="edge"><title>Node17&#45;&gt;Node22</title>
<path fill="none" stroke="midnightblue" d="M685.479,-266.403C645.221,-255.424 575.701,-236.464 533.28,-224.895"/>
<polygon fill="midnightblue" stroke="midnightblue" points="534.198,-221.517 523.63,-222.263 532.356,-228.271 534.198,-221.517"/>
</g>
<!-- Node23 -->
<g id="node23" class="node"><title>Node23</title>
<polygon fill="none" stroke="#bfbfbf" points="520.5,-142.5 520.5,-161.5 591.5,-161.5 591.5,-142.5 520.5,-142.5"/>
<text text-anchor="middle" x="556" y="-149.5" font-family="Helvetica,sans-Serif" font-size="10.00">FairLogger.h</text>
</g>
<!-- Node17&#45;&gt;Node23 -->
<g id="edge27" class="edge"><title>Node17&#45;&gt;Node23</title>
<path fill="none" stroke="midnightblue" d="M777.124,-266.496C845.826,-256.167 950.332,-238.346 962,-224 967.608,-217.104 967.961,-210.594 962,-204 908.678,-145.014 683.99,-183.495 606,-168 600.962,-166.999 595.705,-165.706 590.572,-164.3"/>
<polygon fill="midnightblue" stroke="midnightblue" points="591.523,-160.932 580.944,-161.502 589.57,-167.654 591.523,-160.932"/>
</g>
<!-- Node24 -->
<g id="node24" class="node"><title>Node24</title>
<g id="a_node24"><a xlink:href="../../dd/d76/Cartesian3D_8h.html" target="_top" xlink:title="MathUtils/Cartesian3D.h">
<polygon fill="none" stroke="black" points="1299.5,-142.5 1299.5,-161.5 1424.5,-161.5 1424.5,-142.5 1299.5,-142.5"/>
<text text-anchor="middle" x="1362" y="-149.5" font-family="Helvetica,sans-Serif" font-size="10.00">MathUtils/Cartesian3D.h</text>
</a>
</g>
</g>
<!-- Node17&#45;&gt;Node24 -->
<g id="edge28" class="edge"><title>Node17&#45;&gt;Node24</title>
<path fill="none" stroke="midnightblue" d="M803.747,-271.701C984.563,-264.402 1386.76,-245.797 1407,-224 1423.02,-206.753 1400.99,-183.054 1382.5,-167.88"/>
<polygon fill="midnightblue" stroke="midnightblue" points="1384.43,-164.953 1374.4,-161.561 1380.13,-170.472 1384.43,-164.953"/>
</g>
<!-- Node24&#45;&gt;Node7 -->
<g id="edge33" class="edge"><title>Node24&#45;&gt;Node7</title>
<path fill="none" stroke="midnightblue" d="M1299.31,-150.625C1185.43,-148.905 937.49,-140.371 733,-100 728.433,-99.0985 723.688,-97.9037 719.045,-96.5809"/>
<polygon fill="midnightblue" stroke="midnightblue" points="719.741,-93.1334 709.154,-93.5446 717.686,-99.8252 719.741,-93.1334"/>
</g>
<!-- Node24&#45;&gt;Node12 -->
<g id="edge32" class="edge"><title>Node24&#45;&gt;Node12</title>
<path fill="none" stroke="midnightblue" d="M1405.2,-142.423C1417.4,-140.159 1430.69,-137.838 1443,-136 1582.8,-115.118 1622.02,-134.875 1759,-100 1761.99,-99.2379 1765.07,-98.2866 1768.1,-97.2351"/>
<polygon fill="midnightblue" stroke="midnightblue" points="1769.41,-100.479 1777.51,-93.6436 1766.92,-93.9393 1769.41,-100.479"/>
</g>
<!-- Node25 -->
<g id="node25" class="node"><title>Node25</title>
<polygon fill="none" stroke="#bfbfbf" points="1283.5,-74.5 1283.5,-93.5 1432.5,-93.5 1432.5,-74.5 1283.5,-74.5"/>
<text text-anchor="middle" x="1358" y="-81.5" font-family="Helvetica,sans-Serif" font-size="10.00">Math/GenVector/Rotation3D.h</text>
</g>
<!-- Node24&#45;&gt;Node25 -->
<g id="edge29" class="edge"><title>Node24&#45;&gt;Node25</title>
<path fill="none" stroke="midnightblue" d="M1361.48,-142.372C1360.89,-132.643 1359.91,-116.528 1359.14,-103.85"/>
<polygon fill="midnightblue" stroke="midnightblue" points="1362.63,-103.611 1358.54,-93.8411 1355.65,-104.035 1362.63,-103.611"/>
</g>
<!-- Node26 -->
<g id="node26" class="node"><title>Node26</title>
<polygon fill="none" stroke="#bfbfbf" points="1451,-74.5 1451,-93.5 1607,-93.5 1607,-74.5 1451,-74.5"/>
<text text-anchor="middle" x="1529" y="-81.5" font-family="Helvetica,sans-Serif" font-size="10.00">Math/GenVector/Transform3D.h</text>
</g>
<!-- Node24&#45;&gt;Node26 -->
<g id="edge30" class="edge"><title>Node24&#45;&gt;Node26</title>
<path fill="none" stroke="midnightblue" d="M1383.83,-142.372C1412.92,-130.877 1464.56,-110.469 1497.76,-97.3465"/>
<polygon fill="midnightblue" stroke="midnightblue" points="1499.41,-100.456 1507.43,-93.5259 1496.84,-93.9464 1499.41,-100.456"/>
</g>
<!-- Node27 -->
<g id="node27" class="node"><title>Node27</title>
<polygon fill="none" stroke="#bfbfbf" points="742,-74.5 742,-93.5 902,-93.5 902,-74.5 742,-74.5"/>
<text text-anchor="middle" x="822" y="-81.5" font-family="Helvetica,sans-Serif" font-size="10.00">Math/GenVector/Translation3D.h</text>
</g>
<!-- Node24&#45;&gt;Node27 -->
<g id="edge31" class="edge"><title>Node24&#45;&gt;Node27</title>
<path fill="none" stroke="midnightblue" d="M1299.26,-144.936C1212.18,-136.281 1049.82,-119.282 912,-100 901.776,-98.5696 890.925,-96.8954 880.428,-95.1942"/>
<polygon fill="midnightblue" stroke="midnightblue" points="880.941,-91.7315 870.505,-93.5619 879.804,-98.6387 880.941,-91.7315"/>
</g>
<!-- Node28 -->
<g id="node28" class="node"><title>Node28</title>
<polygon fill="none" stroke="#bfbfbf" points="920.5,-69 920.5,-99 1071.5,-99 1071.5,-69 920.5,-69"/>
<text text-anchor="start" x="928.5" y="-87" font-family="Helvetica,sans-Serif" font-size="10.00">Math/GenVector/Displacement</text>
<text text-anchor="middle" x="996" y="-76" font-family="Helvetica,sans-Serif" font-size="10.00">Vector3D.h</text>
</g>
<!-- Node24&#45;&gt;Node28 -->
<g id="edge34" class="edge"><title>Node24&#45;&gt;Node28</title>
<path fill="none" stroke="midnightblue" d="M1314.53,-142.439C1255.69,-131.829 1154.33,-113.552 1081.75,-100.462"/>
<polygon fill="midnightblue" stroke="midnightblue" points="1082.16,-96.9814 1071.7,-98.6511 1080.92,-103.87 1082.16,-96.9814"/>
</g>
<!-- Node29 -->
<g id="node29" class="node"><title>Node29</title>
<polygon fill="none" stroke="#bfbfbf" points="1090,-74.5 1090,-93.5 1266,-93.5 1266,-74.5 1090,-74.5"/>
<text text-anchor="middle" x="1178" y="-81.5" font-family="Helvetica,sans-Serif" font-size="10.00">Math/GenVector/PositionVector3D.h</text>
</g>
<!-- Node24&#45;&gt;Node29 -->
<g id="edge35" class="edge"><title>Node24&#45;&gt;Node29</title>
<path fill="none" stroke="midnightblue" d="M1337.95,-142.372C1305.62,-130.778 1248.02,-110.116 1211.48,-97.0087"/>
<polygon fill="midnightblue" stroke="midnightblue" points="1212.36,-93.6078 1201.77,-93.5259 1210,-100.197 1212.36,-93.6078"/>
</g>
<!-- Node30 -->
<g id="node30" class="node"><title>Node30</title>
<g id="a_node30"><a xlink:href="../../d2/dd0/Cartesian2D_8h.html" target="_top" xlink:title="MathUtils/Cartesian2D.h">
<polygon fill="none" stroke="black" points="1625.5,-74.5 1625.5,-93.5 1750.5,-93.5 1750.5,-74.5 1625.5,-74.5"/>
<text text-anchor="middle" x="1688" y="-81.5" font-family="Helvetica,sans-Serif" font-size="10.00">MathUtils/Cartesian2D.h</text>
</a>
</g>
</g>
<!-- Node24&#45;&gt;Node30 -->
<g id="edge36" class="edge"><title>Node24&#45;&gt;Node30</title>
<path fill="none" stroke="midnightblue" d="M1405.16,-142.432C1455.72,-132.375 1541.97,-115.143 1616,-100 1622.81,-98.6074 1629.98,-97.129 1637.04,-95.6642"/>
<polygon fill="midnightblue" stroke="midnightblue" points="1638.19,-99.0006 1647.27,-93.5395 1636.76,-92.147 1638.19,-99.0006"/>
</g>
<!-- Node33 -->
<g id="node33" class="node"><title>Node33</title>
<polygon fill="none" stroke="#bfbfbf" points="1913,-74.5 1913,-93.5 1967,-93.5 1967,-74.5 1913,-74.5"/>
<text text-anchor="middle" x="1940" y="-81.5" font-family="Helvetica,sans-Serif" font-size="10.00">iostream</text>
</g>
<!-- Node24&#45;&gt;Node33 -->
<g id="edge39" class="edge"><title>Node24&#45;&gt;Node33</title>
<path fill="none" stroke="midnightblue" d="M1424.79,-144.79C1514.98,-135.732 1686.4,-118.007 1832,-100 1855.63,-97.0782 1882.1,-93.4074 1902.92,-90.4285"/>
<polygon fill="midnightblue" stroke="midnightblue" points="1903.56,-93.8739 1912.95,-88.9848 1902.56,-86.9453 1903.56,-93.8739"/>
</g>
<!-- Node31 -->
<g id="node31" class="node"><title>Node31</title>
<polygon fill="none" stroke="#bfbfbf" points="1703.5,-1 1703.5,-31 1854.5,-31 1854.5,-1 1703.5,-1"/>
<text text-anchor="start" x="1711.5" y="-19" font-family="Helvetica,sans-Serif" font-size="10.00">Math/GenVector/Displacement</text>
<text text-anchor="middle" x="1779" y="-8" font-family="Helvetica,sans-Serif" font-size="10.00">Vector2D.h</text>
</g>
<!-- Node30&#45;&gt;Node31 -->
<g id="edge37" class="edge"><title>Node30&#45;&gt;Node31</title>
<path fill="none" stroke="midnightblue" d="M1699.9,-74.3717C1712.78,-65.0286 1733.78,-49.7966 1750.91,-37.375"/>
<polygon fill="midnightblue" stroke="midnightblue" points="1753.41,-39.8859 1759.45,-31.1815 1749.3,-34.2194 1753.41,-39.8859"/>
</g>
<!-- Node32 -->
<g id="node32" class="node"><title>Node32</title>
<polygon fill="none" stroke="#bfbfbf" points="1509,-6.5 1509,-25.5 1685,-25.5 1685,-6.5 1509,-6.5"/>
<text text-anchor="middle" x="1597" y="-13.5" font-family="Helvetica,sans-Serif" font-size="10.00">Math/GenVector/PositionVector2D.h</text>
</g>
<!-- Node30&#45;&gt;Node32 -->
<g id="edge38" class="edge"><title>Node30&#45;&gt;Node32</title>
<path fill="none" stroke="midnightblue" d="M1676.1,-74.3717C1661.12,-63.5015 1635.14,-44.6602 1617.06,-31.5474"/>
<polygon fill="midnightblue" stroke="midnightblue" points="1619.05,-28.6684 1608.9,-25.6305 1614.94,-34.3349 1619.05,-28.6684"/>
</g>
<!-- Node34&#45;&gt;Node6 -->
<g id="edge49" class="edge"><title>Node34&#45;&gt;Node6</title>
<path fill="none" stroke="midnightblue" d="M1170.54,-266.403C1159.05,-256.958 1140.37,-241.606 1126.41,-230.134"/>
<polygon fill="midnightblue" stroke="midnightblue" points="1128.39,-227.226 1118.44,-223.581 1123.94,-232.634 1128.39,-227.226"/>
</g>
<!-- Node35 -->
<g id="node35" class="node"><title>Node35</title>
<g id="a_node35"><a xlink:href="../../d4/d20/DetMatrixCache_8h.html" target="_top" xlink:title="DetectorsBase/DetMatrixCache.h">
<polygon fill="none" stroke="black" points="1234,-204.5 1234,-223.5 1398,-223.5 1398,-204.5 1234,-204.5"/>
<text text-anchor="middle" x="1316" y="-211.5" font-family="Helvetica,sans-Serif" font-size="10.00">DetectorsBase/DetMatrixCache.h</text>
</a>
</g>
</g>
<!-- Node34&#45;&gt;Node35 -->
<g id="edge41" class="edge"><title>Node34&#45;&gt;Node35</title>
<path fill="none" stroke="midnightblue" d="M1200.34,-266.403C1223.1,-256.29 1261.09,-239.404 1287.29,-227.761"/>
<polygon fill="midnightblue" stroke="midnightblue" points="1288.98,-230.84 1296.69,-223.581 1286.13,-224.444 1288.98,-230.84"/>
</g>
<!-- Node36 -->
<g id="node36" class="node"><title>Node36</title>
<polygon fill="none" stroke="#bfbfbf" points="1146.5,-204.5 1146.5,-223.5 1215.5,-223.5 1215.5,-204.5 1146.5,-204.5"/>
<text text-anchor="middle" x="1181" y="-211.5" font-family="Helvetica,sans-Serif" font-size="10.00">TObjArray.h</text>
</g>
<!-- Node34&#45;&gt;Node36 -->
<g id="edge48" class="edge"><title>Node34&#45;&gt;Node36</title>
<path fill="none" stroke="midnightblue" d="M1181,-266.403C1181,-257.938 1181,-244.728 1181,-233.82"/>
<polygon fill="midnightblue" stroke="midnightblue" points="1184.5,-233.581 1181,-223.581 1177.5,-233.581 1184.5,-233.581"/>
</g>
<!-- Node35&#45;&gt;Node4 -->
<g id="edge42" class="edge"><title>Node35&#45;&gt;Node4</title>
<path fill="none" stroke="midnightblue" d="M1233.76,-204.761C1230.46,-204.493 1227.2,-204.237 1224,-204 908.019,-180.569 823.566,-225.619 512,-168 507.416,-167.152 502.657,-165.967 498.015,-164.631"/>
<polygon fill="midnightblue" stroke="midnightblue" points="498.742,-161.19 488.153,-161.535 496.646,-167.869 498.742,-161.19"/>
</g>
<!-- Node35&#45;&gt;Node5 -->
<g id="edge43" class="edge"><title>Node35&#45;&gt;Node5</title>
<path fill="none" stroke="midnightblue" d="M1255.49,-204.441C1136.77,-187.307 865.157,-146.43 639,-100 580.29,-87.947 566.479,-81.1264 508,-68 428.711,-50.2026 334.645,-31.6194 288.092,-22.5906"/>
<polygon fill="midnightblue" stroke="midnightblue" points="288.59,-19.1222 278.108,-20.6595 287.261,-25.9948 288.59,-19.1222"/>
</g>
<!-- Node35&#45;&gt;Node9 -->
<g id="edge45" class="edge"><title>Node35&#45;&gt;Node9</title>
<path fill="none" stroke="midnightblue" d="M1233.76,-204.741C1230.46,-204.478 1227.2,-204.229 1224,-204 873.867,-178.903 784.533,-200.402 435,-168 420.947,-166.697 405.912,-164.865 391.686,-162.926"/>
<polygon fill="midnightblue" stroke="midnightblue" points="391.884,-159.42 381.496,-161.502 390.915,-166.352 391.884,-159.42"/>
</g>
<!-- Node35&#45;&gt;Node12 -->
<g id="edge46" class="edge"><title>Node35&#45;&gt;Node12</title>
<path fill="none" stroke="midnightblue" d="M1341.6,-204.484C1365.64,-196.177 1402.39,-182.677 1433,-168 1458.5,-155.774 1461.24,-145.151 1488,-136 1602.97,-96.6848 1641.54,-131.073 1759,-100 1761.99,-99.2101 1765.05,-98.2406 1768.08,-97.1781"/>
<polygon fill="midnightblue" stroke="midnightblue" points="1769.41,-100.42 1777.49,-93.5728 1766.9,-93.8833 1769.41,-100.42"/>
</g>
<!-- Node35&#45;&gt;Node23 -->
<g id="edge47" class="edge"><title>Node35&#45;&gt;Node23</title>
<path fill="none" stroke="midnightblue" d="M1233.76,-204.793C1230.46,-204.515 1227.2,-204.25 1224,-204 949.701,-182.602 876.939,-215.854 606,-168 600.833,-167.087 595.447,-165.821 590.204,-164.406"/>
<polygon fill="midnightblue" stroke="midnightblue" points="590.973,-160.985 580.394,-161.559 589.022,-167.708 590.973,-160.985"/>
</g>
<!-- Node35&#45;&gt;Node24 -->
<g id="edge44" class="edge"><title>Node35&#45;&gt;Node24</title>
<path fill="none" stroke="midnightblue" d="M1322.59,-204.403C1329.49,-195.403 1340.5,-181.041 1349.13,-169.782"/>
<polygon fill="midnightblue" stroke="midnightblue" points="1352.11,-171.646 1355.42,-161.581 1346.56,-167.387 1352.11,-171.646"/>
</g>
<!-- Node37&#45;&gt;Node12 -->
<g id="edge52" class="edge"><title>Node37&#45;&gt;Node12</title>
<path fill="none" stroke="midnightblue" d="M1611.35,-260.654C1592.46,-233.33 1557.79,-173.233 1588,-136 1636.94,-75.6897 1684.72,-122.679 1759,-100 1761.64,-99.1929 1764.36,-98.2733 1767.07,-97.2959"/>
<polygon fill="midnightblue" stroke="midnightblue" points="1768.58,-100.464 1776.65,-93.6 1766.06,-93.9332 1768.58,-100.464"/>
</g>
<!-- Node38 -->
<g id="node38" class="node"><title>Node38</title>
<g id="a_node38"><a xlink:href="../../d0/d06/ITSMFT_2common_2base_2include_2ITSMFTBase_2Digit_8h.html" target="_top" xlink:title="ITSMFTBase/Digit.h">
<polygon fill="none" stroke="black" points="1600.5,-204.5 1600.5,-223.5 1707.5,-223.5 1707.5,-204.5 1600.5,-204.5"/>
<text text-anchor="middle" x="1654" y="-211.5" font-family="Helvetica,sans-Serif" font-size="10.00">ITSMFTBase/Digit.h</text>
</a>
</g>
</g>
<!-- Node37&#45;&gt;Node38 -->
<g id="edge53" class="edge"><title>Node37&#45;&gt;Node38</title>
<path fill="none" stroke="midnightblue" d="M1629.58,-260.781C1634.09,-252.332 1639.84,-241.548 1644.63,-232.569"/>
<polygon fill="midnightblue" stroke="midnightblue" points="1647.73,-234.201 1649.34,-223.731 1641.55,-230.907 1647.73,-234.201"/>
</g>
<!-- Node40 -->
<g id="node40" class="node"><title>Node40</title>
<g id="a_node40"><a xlink:href="../../d7/dcd/MCCompLabel_8h.html" target="_top" xlink:title="SimulationDataFormat\l/MCCompLabel.h">
<polygon fill="none" stroke="black" points="1830,-137 1830,-167 1944,-167 1944,-137 1830,-137"/>
<text text-anchor="start" x="1838" y="-155" font-family="Helvetica,sans-Serif" font-size="10.00">SimulationDataFormat</text>
<text text-anchor="middle" x="1887" y="-144" font-family="Helvetica,sans-Serif" font-size="10.00">/MCCompLabel.h</text>
</a>
</g>
</g>
<!-- Node37&#45;&gt;Node40 -->
<g id="edge59" class="edge"><title>Node37&#45;&gt;Node40</title>
<path fill="none" stroke="midnightblue" d="M1652.66,-260.886C1700.73,-238.756 1793.83,-195.896 1847.07,-171.384"/>
<polygon fill="midnightblue" stroke="midnightblue" points="1848.59,-174.536 1856.21,-167.175 1845.66,-168.178 1848.59,-174.536"/>
</g>
<!-- Node38&#45;&gt;Node12 -->
<g id="edge58" class="edge"><title>Node38&#45;&gt;Node12</title>
<path fill="none" stroke="midnightblue" d="M1636.5,-204.465C1623.21,-196.917 1605.92,-184.533 1598,-168 1591.85,-155.175 1589.11,-147.1 1598,-136 1643.84,-78.7752 1689.01,-121.848 1759,-100 1761.64,-99.1764 1764.35,-98.2455 1767.05,-97.2606"/>
<polygon fill="midnightblue" stroke="midnightblue" points="1768.57,-100.427 1776.63,-93.5529 1766.04,-93.8989 1768.57,-100.427"/>
</g>
<!-- Node39 -->
<g id="node39" class="node"><title>Node39</title>
<polygon fill="none" stroke="#bfbfbf" points="1606.5,-137 1606.5,-167 1701.5,-167 1701.5,-137 1606.5,-137"/>
<text text-anchor="start" x="1614.5" y="-155" font-family="Helvetica,sans-Serif" font-size="10.00">boost/serialization</text>
<text text-anchor="middle" x="1654" y="-144" font-family="Helvetica,sans-Serif" font-size="10.00">/base_object.hpp</text>
</g>
<!-- Node38&#45;&gt;Node39 -->
<g id="edge54" class="edge"><title>Node38&#45;&gt;Node39</title>
<path fill="none" stroke="midnightblue" d="M1654,-204.403C1654,-197.341 1654,-186.975 1654,-177.399"/>
<polygon fill="midnightblue" stroke="midnightblue" points="1657.5,-177.141 1654,-167.141 1650.5,-177.141 1657.5,-177.141"/>
</g>
<!-- Node38&#45;&gt;Node40 -->
<g id="edge55" class="edge"><title>Node38&#45;&gt;Node40</title>
<path fill="none" stroke="midnightblue" d="M1687.38,-204.403C1722.6,-195.336 1778.95,-180.825 1822.81,-169.529"/>
<polygon fill="midnightblue" stroke="midnightblue" points="1823.72,-172.909 1832.54,-167.025 1821.98,-166.13 1823.72,-172.909"/>
</g>
<!-- Node41 -->
<g id="node41" class="node"><title>Node41</title>
<polygon fill="none" stroke="#bfbfbf" points="1720,-142.5 1720,-161.5 1812,-161.5 1812,-142.5 1720,-142.5"/>
<text text-anchor="middle" x="1766" y="-149.5" font-family="Helvetica,sans-Serif" font-size="10.00">FairTimeStamp.h</text>
</g>
<!-- Node38&#45;&gt;Node41 -->
<g id="edge57" class="edge"><title>Node38&#45;&gt;Node41</title>
<path fill="none" stroke="midnightblue" d="M1670.05,-204.403C1688.59,-194.468 1719.34,-177.997 1741.02,-166.381"/>
<polygon fill="midnightblue" stroke="midnightblue" points="1742.82,-169.388 1749.98,-161.581 1739.52,-163.218 1742.82,-169.388"/>
</g>
<!-- Node40&#45;&gt;Node12 -->
<g id="edge56" class="edge"><title>Node40&#45;&gt;Node12</title>
<path fill="none" stroke="midnightblue" d="M1867.25,-136.679C1852.14,-125.713 1831.36,-110.645 1816.14,-99.6085"/>
<polygon fill="midnightblue" stroke="midnightblue" points="1818.06,-96.6758 1807.91,-93.6379 1813.95,-102.342 1818.06,-96.6758"/>
</g>
<!-- Node42&#45;&gt;Node4 -->
<g id="edge73" class="edge"><title>Node42&#45;&gt;Node4</title>
<path fill="none" stroke="midnightblue" d="M1586.2,-403.407C1566.98,-400.999 1545.6,-398.352 1526,-396 1124.45,-347.807 1013.02,-395.269 622,-292 547.295,-272.27 504.632,-288.441 462,-224 451.805,-208.589 454.898,-186.929 459.227,-171.595"/>
<polygon fill="midnightblue" stroke="midnightblue" points="462.671,-172.319 462.424,-161.727 456.012,-170.161 462.671,-172.319"/>
</g>
<!-- Node42&#45;&gt;Node12 -->
<g id="edge74" class="edge"><title>Node42&#45;&gt;Node12</title>
<path fill="none" stroke="midnightblue" d="M1661.2,-396.773C1708.47,-352.585 1851.19,-219.728 1875,-204 1906.86,-182.958 1932.42,-200.161 1953,-168 1983.5,-120.325 1889.53,-98.3445 1833.91,-89.7232"/>
<polygon fill="midnightblue" stroke="midnightblue" points="1834.42,-86.2597 1824.01,-88.2658 1833.4,-93.1851 1834.42,-86.2597"/>
</g>
<!-- Node42&#45;&gt;Node34 -->
<g id="edge70" class="edge"><title>Node42&#45;&gt;Node34</title>
<path fill="none" stroke="midnightblue" d="M1597.12,-396.913C1504.46,-370.213 1305,-312.733 1220.31,-288.329"/>
<polygon fill="midnightblue" stroke="midnightblue" points="1221.15,-284.928 1210.57,-285.522 1219.21,-291.654 1221.15,-284.928"/>
</g>
<!-- Node42&#45;&gt;Node37 -->
<g id="edge71" class="edge"><title>Node42&#45;&gt;Node37</title>
<path fill="none" stroke="midnightblue" d="M1643.43,-396.66C1639.35,-373.891 1631.35,-329.203 1626.36,-301.349"/>
<polygon fill="midnightblue" stroke="midnightblue" points="1629.76,-300.464 1624.55,-291.237 1622.87,-301.698 1629.76,-300.464"/>
</g>
<!-- Node43 -->
<g id="node43" class="node"><title>Node43</title>
<g id="a_node43"><a xlink:href="../../dc/de1/ITSMFT_2common_2reconstruction_2include_2ITSMFTReconstruction_2Cluster_8h.html" target="_top" xlink:title="ITSMFTReconstruction\l/Cluster.h">
<polygon fill="none" stroke="black" points="1891.5,-329 1891.5,-359 2010.5,-359 2010.5,-329 1891.5,-329"/>
<text text-anchor="start" x="1899.5" y="-347" font-family="Helvetica,sans-Serif" font-size="10.00">ITSMFTReconstruction</text>
<text text-anchor="middle" x="1951" y="-336" font-family="Helvetica,sans-Serif" font-size="10.00">/Cluster.h</text>
</a>
</g>
</g>
<!-- Node42&#45;&gt;Node43 -->
<g id="edge61" class="edge"><title>Node42&#45;&gt;Node43</title>
<path fill="none" stroke="midnightblue" d="M1705.53,-398.118C1755.94,-387.21 1828.26,-371.561 1881.35,-360.073"/>
<polygon fill="midnightblue" stroke="midnightblue" points="1882.33,-363.442 1891.36,-357.906 1880.84,-356.6 1882.33,-363.442"/>
</g>
<!-- Node48 -->
<g id="node48" class="node"><title>Node48</title>
<polygon fill="none" stroke="#bfbfbf" points="1650,-334.5 1650,-353.5 1690,-353.5 1690,-334.5 1650,-334.5"/>
<text text-anchor="middle" x="1670" y="-341.5" font-family="Helvetica,sans-Serif" font-size="10.00">utility</text>
</g>
<!-- Node42&#45;&gt;Node48 -->
<g id="edge72" class="edge"><title>Node42&#45;&gt;Node48</title>
<path fill="none" stroke="midnightblue" d="M1651.21,-396.679C1654.76,-386.898 1659.51,-373.852 1663.34,-363.315"/>
<polygon fill="midnightblue" stroke="midnightblue" points="1666.66,-364.422 1666.79,-353.828 1660.08,-362.03 1666.66,-364.422"/>
</g>
<!-- Node44 -->
<g id="node44" class="node"><title>Node44</title>
<g id="a_node44"><a xlink:href="../../d4/de2/BaseCluster_8h.html" target="_top" xlink:title="DetectorsBase/BaseCluster.h">
<polygon fill="none" stroke="black" points="1884.5,-266.5 1884.5,-285.5 2031.5,-285.5 2031.5,-266.5 1884.5,-266.5"/>
<text text-anchor="middle" x="1958" y="-273.5" font-family="Helvetica,sans-Serif" font-size="10.00">DetectorsBase/BaseCluster.h</text>
</a>
</g>
</g>
<!-- Node43&#45;&gt;Node44 -->
<g id="edge62" class="edge"><title>Node43&#45;&gt;Node44</title>
<path fill="none" stroke="midnightblue" d="M1952.52,-328.679C1953.53,-319.101 1954.88,-306.394 1955.99,-295.977"/>
<polygon fill="midnightblue" stroke="midnightblue" points="1959.49,-296.142 1957.06,-285.828 1952.53,-295.403 1959.49,-296.142"/>
</g>
<!-- Node44&#45;&gt;Node8 -->
<g id="edge63" class="edge"><title>Node44&#45;&gt;Node8</title>
<path fill="none" stroke="midnightblue" d="M1884.24,-270.886C1688.03,-259.923 1163.06,-230.449 1079.77,-223.416"/>
<polygon fill="midnightblue" stroke="midnightblue" points="1080.01,-219.923 1069.71,-222.401 1079.31,-226.888 1080.01,-219.923"/>
</g>
<!-- Node44&#45;&gt;Node24 -->
<g id="edge68" class="edge"><title>Node44&#45;&gt;Node24</title>
<path fill="none" stroke="midnightblue" d="M1884.47,-268.269C1810.12,-260.643 1692.2,-246.294 1592,-224 1520.47,-208.085 1439.03,-180.664 1394.81,-164.964"/>
<polygon fill="midnightblue" stroke="midnightblue" points="1395.77,-161.59 1385.17,-161.519 1393.41,-168.182 1395.77,-161.59"/>
</g>
<!-- Node44&#45;&gt;Node33 -->
<g id="edge67" class="edge"><title>Node44&#45;&gt;Node33</title>
<path fill="none" stroke="midnightblue" d="M1965.59,-266.357C1973.46,-256.771 1985.26,-240.474 1990,-224 1995.43,-205.143 1998.63,-166.17 1986,-136 1980.19,-122.113 1968.92,-109.52 1958.99,-100.321"/>
<polygon fill="midnightblue" stroke="midnightblue" points="1961.28,-97.6681 1951.45,-93.7121 1956.66,-102.934 1961.28,-97.6681"/>
</g>
<!-- Node44&#45;&gt;Node35 -->
<g id="edge69" class="edge"><title>Node44&#45;&gt;Node35</title>
<path fill="none" stroke="midnightblue" d="M1884.35,-268.117C1766.75,-257.126 1536.74,-235.63 1408.31,-223.627"/>
<polygon fill="midnightblue" stroke="midnightblue" points="1408.39,-220.119 1398.11,-222.674 1407.74,-227.089 1408.39,-220.119"/>
</g>
<!-- Node45 -->
<g id="node45" class="node"><title>Node45</title>
<polygon fill="none" stroke="#bfbfbf" points="2038.5,-204.5 2038.5,-223.5 2079.5,-223.5 2079.5,-204.5 2038.5,-204.5"/>
<text text-anchor="middle" x="2059" y="-211.5" font-family="Helvetica,sans-Serif" font-size="10.00">bitset</text>
</g>
<!-- Node44&#45;&gt;Node45 -->
<g id="edge64" class="edge"><title>Node44&#45;&gt;Node45</title>
<path fill="none" stroke="midnightblue" d="M1972.47,-266.403C1989.05,-256.557 2016.43,-240.291 2035.95,-228.695"/>
<polygon fill="midnightblue" stroke="midnightblue" points="2037.75,-231.697 2044.56,-223.581 2034.17,-225.679 2037.75,-231.697"/>
</g>
<!-- Node46 -->
<g id="node46" class="node"><title>Node46</title>
<polygon fill="none" stroke="#bfbfbf" points="1884,-204.5 1884,-223.5 1934,-223.5 1934,-204.5 1884,-204.5"/>
<text text-anchor="middle" x="1909" y="-211.5" font-family="Helvetica,sans-Serif" font-size="10.00">iomanip</text>
</g>
<!-- Node44&#45;&gt;Node46 -->
<g id="edge65" class="edge"><title>Node44&#45;&gt;Node46</title>
<path fill="none" stroke="midnightblue" d="M1950.98,-266.403C1943.56,-257.314 1931.67,-242.756 1922.43,-231.449"/>
<polygon fill="midnightblue" stroke="midnightblue" points="1925.04,-229.112 1916.01,-223.581 1919.62,-233.54 1925.04,-229.112"/>
</g>
<!-- Node47 -->
<g id="node47" class="node"><title>Node47</title>
<polygon fill="none" stroke="#bfbfbf" points="1952.5,-204.5 1952.5,-223.5 1981.5,-223.5 1981.5,-204.5 1952.5,-204.5"/>
<text text-anchor="middle" x="1967" y="-211.5" font-family="Helvetica,sans-Serif" font-size="10.00">ios</text>
</g>
<!-- Node44&#45;&gt;Node47 -->
<g id="edge66" class="edge"><title>Node44&#45;&gt;Node47</title>
<path fill="none" stroke="midnightblue" d="M1959.29,-266.403C1960.57,-257.849 1962.58,-244.45 1964.23,-233.476"/>
<polygon fill="midnightblue" stroke="midnightblue" points="1967.69,-233.989 1965.71,-223.581 1960.77,-232.951 1967.69,-233.989"/>
</g>
</g>
</svg>
