<?xml version="1.0" encoding="UTF-8" standalone="no"?>
<!DOCTYPE svg PUBLIC "-//W3C//DTD SVG 1.1//EN"
 "http://www.w3.org/Graphics/SVG/1.1/DTD/svg11.dtd">
<!-- Generated by graphviz version 2.36.0 (20140111.2315)
 -->
<!-- Title: /home/travis/build/AliceO2Group/AliceO2/Detectors/TPC/reconstruction/src/HardwareClusterDecoder.cxx Pages: 1 -->
<svg width="1601pt" height="726pt"
 viewBox="0.00 0.00 1601.00 726.00" xmlns="http://www.w3.org/2000/svg" xmlns:xlink="http://www.w3.org/1999/xlink">
<g id="graph0" class="graph" transform="scale(1 1) rotate(0) translate(4 722)">
<title>/home/travis/build/AliceO2Group/AliceO2/Detectors/TPC/reconstruction/src/HardwareClusterDecoder.cxx</title>
<!-- Node1 -->
<g id="node1" class="node"><title>Node1</title>
<polygon fill="#bfbfbf" stroke="black" points="810.5,-665 810.5,-717 975.5,-717 975.5,-665 810.5,-665"/>
<text text-anchor="start" x="818.5" y="-705" font-family="Helvetica,sans-Serif" font-size="10.00">/home/travis/build</text>
<text text-anchor="start" x="818.5" y="-694" font-family="Helvetica,sans-Serif" font-size="10.00">/AliceO2Group/AliceO2</text>
<text text-anchor="start" x="818.5" y="-683" font-family="Helvetica,sans-Serif" font-size="10.00">/Detectors/TPC/reconstruction</text>
<text text-anchor="middle" x="893" y="-672" font-family="Helvetica,sans-Serif" font-size="10.00">/src/HardwareClusterDecoder.cxx</text>
</g>
<!-- Node2 -->
<g id="node2" class="node"><title>Node2</title>
<g id="a_node2"><a xlink:href="../../d2/d41/HardwareClusterDecoder_8h.html" target="_top" xlink:title="TPCReconstruction/Hardware\lClusterDecoder.h">
<polygon fill="none" stroke="black" points="239,-597 239,-627 387,-627 387,-597 239,-597"/>
<text text-anchor="start" x="247" y="-615" font-family="Helvetica,sans-Serif" font-size="10.00">TPCReconstruction/Hardware</text>
<text text-anchor="middle" x="313" y="-604" font-family="Helvetica,sans-Serif" font-size="10.00">ClusterDecoder.h</text>
</a>
</g>
</g>
<!-- Node1&#45;&gt;Node2 -->
<g id="edge1" class="edge"><title>Node1&#45;&gt;Node2</title>
<path fill="none" stroke="midnightblue" d="M810.151,-680.673C712.245,-669.394 544.499,-649.261 401,-628 399.889,-627.835 398.769,-627.668 397.644,-627.498"/>
<polygon fill="midnightblue" stroke="midnightblue" points="397.798,-623.98 387.381,-625.912 396.729,-630.898 397.798,-623.98"/>
</g>
<!-- Node6 -->
<g id="node6" class="node"><title>Node6</title>
<g id="a_node6"><a xlink:href="../../de/dcd/ClusterNative_8h.html" target="_top" xlink:title="Class of a TPC cluster in TPC&#45;native coordinates (row, time) ">
<polygon fill="none" stroke="black" points="-0.5,-472.5 -0.5,-491.5 164.5,-491.5 164.5,-472.5 -0.5,-472.5"/>
<text text-anchor="middle" x="82" y="-479.5" font-family="Helvetica,sans-Serif" font-size="10.00">DataFormatsTPC/ClusterNative.h</text>
</a>
</g>
</g>
<!-- Node1&#45;&gt;Node6 -->
<g id="edge61" class="edge"><title>Node1&#45;&gt;Node6</title>
<path fill="none" stroke="midnightblue" d="M810.393,-689.105C656.224,-686.324 331.143,-674.901 230,-628 167.304,-598.927 115.355,-531.823 93.334,-500.147"/>
<polygon fill="midnightblue" stroke="midnightblue" points="95.9975,-497.839 87.4822,-491.535 90.2077,-501.773 95.9975,-497.839"/>
</g>
<!-- Node7 -->
<g id="node7" class="node"><title>Node7</title>
<g id="a_node7"><a xlink:href="../../d6/d51/TPC_2base_2include_2TPCBase_2Constants_8h.html" target="_top" xlink:title="TPCBase/Constants.h">
<polygon fill="none" stroke="black" points="246,-192.5 246,-211.5 362,-211.5 362,-192.5 246,-192.5"/>
<text text-anchor="middle" x="304" y="-199.5" font-family="Helvetica,sans-Serif" font-size="10.00">TPCBase/Constants.h</text>
</a>
</g>
</g>
<!-- Node1&#45;&gt;Node7 -->
<g id="edge62" class="edge"><title>Node1&#45;&gt;Node7</title>
<path fill="none" stroke="midnightblue" d="M810.284,-682.059C673.475,-666.612 415,-626.625 415,-545 415,-545 415,-545 415,-313 415,-266.824 365.937,-233.426 333.048,-216.226"/>
<polygon fill="midnightblue" stroke="midnightblue" points="334.352,-212.964 323.845,-211.609 331.214,-219.221 334.352,-212.964"/>
</g>
<!-- Node8 -->
<g id="node8" class="node"><title>Node8</title>
<g id="a_node8"><a xlink:href="../../d7/d2c/Mapper_8h.html" target="_top" xlink:title="TPCBase/Mapper.h">
<polygon fill="none" stroke="black" points="803.5,-472.5 803.5,-491.5 906.5,-491.5 906.5,-472.5 803.5,-472.5"/>
<text text-anchor="middle" x="855" y="-479.5" font-family="Helvetica,sans-Serif" font-size="10.00">TPCBase/Mapper.h</text>
</a>
</g>
</g>
<!-- Node1&#45;&gt;Node8 -->
<g id="edge63" class="edge"><title>Node1&#45;&gt;Node8</title>
<path fill="none" stroke="midnightblue" d="M886.945,-664.731C884.347,-653.513 881.371,-640.129 879,-628 870.176,-582.862 861.88,-529.402 857.743,-501.717"/>
<polygon fill="midnightblue" stroke="midnightblue" points="861.161,-500.909 856.235,-491.53 854.237,-501.934 861.161,-500.909"/>
</g>
<!-- Node36 -->
<g id="node36" class="node"><title>Node36</title>
<g id="a_node36"><a xlink:href="../../d3/dc4/ClusterHardware_8h.html" target="_top" xlink:title="Class of a TPC cluster as produced by the hardware cluster finder (needs a postprocessing step to con...">
<polygon fill="none" stroke="black" points="997.5,-602.5 997.5,-621.5 1176.5,-621.5 1176.5,-602.5 997.5,-602.5"/>
<text text-anchor="middle" x="1087" y="-609.5" font-family="Helvetica,sans-Serif" font-size="10.00">DataFormatsTPC/ClusterHardware.h</text>
</a>
</g>
</g>
<!-- Node1&#45;&gt;Node36 -->
<g id="edge59" class="edge"><title>Node1&#45;&gt;Node36</title>
<path fill="none" stroke="midnightblue" d="M956.254,-664.894C989.59,-651.663 1029,-636.02 1055.77,-625.394"/>
<polygon fill="midnightblue" stroke="midnightblue" points="1057.37,-628.525 1065.38,-621.583 1054.79,-622.019 1057.37,-628.525"/>
</g>
<!-- Node38 -->
<g id="node38" class="node"><title>Node38</title>
<polygon fill="none" stroke="#bfbfbf" points="1195,-602.5 1195,-621.5 1251,-621.5 1251,-602.5 1195,-602.5"/>
<text text-anchor="middle" x="1223" y="-609.5" font-family="Helvetica,sans-Serif" font-size="10.00">algorithm</text>
</g>
<!-- Node1&#45;&gt;Node38 -->
<g id="edge64" class="edge"><title>Node1&#45;&gt;Node38</title>
<path fill="none" stroke="midnightblue" d="M975.737,-676.237C1034.71,-665.508 1115.53,-648.927 1185,-628 1187.8,-627.156 1190.69,-626.195 1193.56,-625.176"/>
<polygon fill="midnightblue" stroke="midnightblue" points="1194.98,-628.378 1203.1,-621.575 1192.51,-621.828 1194.98,-628.378"/>
</g>
<!-- Node39 -->
<g id="node39" class="node"><title>Node39</title>
<g id="a_node39"><a xlink:href="../../db/dad/ParameterDetector_8h.html" target="_top" xlink:title="Definition of the parameter class for the detector. ">
<polygon fill="none" stroke="black" points="921.5,-534.5 921.5,-553.5 1074.5,-553.5 1074.5,-534.5 921.5,-534.5"/>
<text text-anchor="middle" x="998" y="-541.5" font-family="Helvetica,sans-Serif" font-size="10.00">TPCBase/ParameterDetector.h</text>
</a>
</g>
</g>
<!-- Node1&#45;&gt;Node39 -->
<g id="edge65" class="edge"><title>Node1&#45;&gt;Node39</title>
<path fill="none" stroke="midnightblue" d="M908.541,-664.715C920.637,-645.473 938.148,-618.55 955,-596 963.901,-584.089 974.69,-571.298 983.234,-561.505"/>
<polygon fill="midnightblue" stroke="midnightblue" points="986.068,-563.582 990.06,-553.768 980.819,-558.951 986.068,-563.582"/>
</g>
<!-- Node40 -->
<g id="node40" class="node"><title>Node40</title>
<g id="a_node40"><a xlink:href="../../db/d5b/ParameterGas_8h.html" target="_top" xlink:title="Definition of the parameter class for the detector gas. ">
<polygon fill="none" stroke="black" points="1093,-534.5 1093,-553.5 1227,-553.5 1227,-534.5 1093,-534.5"/>
<text text-anchor="middle" x="1160" y="-541.5" font-family="Helvetica,sans-Serif" font-size="10.00">TPCBase/ParameterGas.h</text>
</a>
</g>
</g>
<!-- Node1&#45;&gt;Node40 -->
<g id="edge67" class="edge"><title>Node1&#45;&gt;Node40</title>
<path fill="none" stroke="midnightblue" d="M918.216,-664.754C945.645,-637.335 985.903,-597.24 988,-596 1009.33,-583.385 1070.58,-566.751 1113.9,-555.966"/>
<polygon fill="midnightblue" stroke="midnightblue" points="1114.79,-559.35 1123.67,-553.557 1113.12,-552.553 1114.79,-559.35"/>
</g>
<!-- Node41 -->
<g id="node41" class="node"><title>Node41</title>
<g id="a_node41"><a xlink:href="../../d3/d47/ParameterElectronics_8h.html" target="_top" xlink:title="Definition of the parameter class for the detector electronics. ">
<polygon fill="none" stroke="black" points="939,-472.5 939,-491.5 1103,-491.5 1103,-472.5 939,-472.5"/>
<text text-anchor="middle" x="1021" y="-479.5" font-family="Helvetica,sans-Serif" font-size="10.00">TPCBase/ParameterElectronics.h</text>
</a>
</g>
</g>
<!-- Node1&#45;&gt;Node41 -->
<g id="edge69" class="edge"><title>Node1&#45;&gt;Node41</title>
<path fill="none" stroke="midnightblue" d="M888.706,-664.949C884.259,-630.458 881.661,-568.075 912,-528 924.369,-511.663 943.727,-501.221 962.72,-494.563"/>
<polygon fill="midnightblue" stroke="midnightblue" points="963.823,-497.885 972.279,-491.502 961.688,-491.219 963.823,-497.885"/>
</g>
<!-- Node3 -->
<g id="node3" class="node"><title>Node3</title>
<polygon fill="none" stroke="#bfbfbf" points="317,-360.5 317,-379.5 361,-379.5 361,-360.5 317,-360.5"/>
<text text-anchor="middle" x="339" y="-367.5" font-family="Helvetica,sans-Serif" font-size="10.00">vector</text>
</g>
<!-- Node2&#45;&gt;Node3 -->
<g id="edge2" class="edge"><title>Node2&#45;&gt;Node3</title>
<path fill="none" stroke="midnightblue" d="M315.1,-596.729C316.568,-586.512 318.523,-572.425 320,-560 327.381,-497.898 334.253,-424.088 337.32,-389.996"/>
<polygon fill="midnightblue" stroke="midnightblue" points="340.838,-389.949 338.24,-379.678 333.865,-389.327 340.838,-389.949"/>
</g>
<!-- Node4 -->
<g id="node4" class="node"><title>Node4</title>
<g id="a_node4"><a xlink:href="../../db/d19/DigitalCurrentClusterIntegrator_8h.html" target="_top" xlink:title="TPCReconstruction/Digital\lCurrentClusterIntegrator.h">
<polygon fill="none" stroke="black" points="177,-529 177,-559 311,-559 311,-529 177,-529"/>
<text text-anchor="start" x="185" y="-547" font-family="Helvetica,sans-Serif" font-size="10.00">TPCReconstruction/Digital</text>
<text text-anchor="middle" x="244" y="-536" font-family="Helvetica,sans-Serif" font-size="10.00">CurrentClusterIntegrator.h</text>
</a>
</g>
</g>
<!-- Node2&#45;&gt;Node4 -->
<g id="edge3" class="edge"><title>Node2&#45;&gt;Node4</title>
<path fill="none" stroke="midnightblue" d="M298.028,-596.679C288.805,-587.857 276.806,-576.38 266.46,-566.483"/>
<polygon fill="midnightblue" stroke="midnightblue" points="268.588,-563.676 258.943,-559.293 263.75,-568.735 268.588,-563.676"/>
</g>
<!-- Node4&#45;&gt;Node3 -->
<g id="edge4" class="edge"><title>Node4&#45;&gt;Node3</title>
<path fill="none" stroke="midnightblue" d="M255.782,-528.811C263.732,-518.866 274.162,-505.067 282,-492 303.018,-456.96 322.072,-412.923 331.932,-388.812"/>
<polygon fill="midnightblue" stroke="midnightblue" points="335.189,-390.094 335.682,-379.511 328.697,-387.477 335.189,-390.094"/>
</g>
<!-- Node5 -->
<g id="node5" class="node"><title>Node5</title>
<polygon fill="none" stroke="#bfbfbf" points="221,-472.5 221,-491.5 273,-491.5 273,-472.5 221,-472.5"/>
<text text-anchor="middle" x="247" y="-479.5" font-family="Helvetica,sans-Serif" font-size="10.00">memory</text>
</g>
<!-- Node4&#45;&gt;Node5 -->
<g id="edge5" class="edge"><title>Node4&#45;&gt;Node5</title>
<path fill="none" stroke="midnightblue" d="M244.711,-528.781C245.115,-520.691 245.627,-510.462 246.064,-501.725"/>
<polygon fill="midnightblue" stroke="midnightblue" points="249.56,-501.893 246.563,-491.731 242.568,-501.543 249.56,-501.893"/>
</g>
<!-- Node4&#45;&gt;Node6 -->
<g id="edge6" class="edge"><title>Node4&#45;&gt;Node6</title>
<path fill="none" stroke="midnightblue" d="M206.018,-528.933C178.321,-518.674 141.17,-504.915 114.77,-495.137"/>
<polygon fill="midnightblue" stroke="midnightblue" points="115.813,-491.791 105.22,-491.6 113.382,-498.355 115.813,-491.791"/>
</g>
<!-- Node4&#45;&gt;Node7 -->
<g id="edge9" class="edge"><title>Node4&#45;&gt;Node7</title>
<path fill="none" stroke="midnightblue" d="M233.184,-528.869C218.214,-507.86 193,-466.599 193,-427 193,-427 193,-427 193,-313 193,-266.824 242.063,-233.426 274.952,-216.226"/>
<polygon fill="midnightblue" stroke="midnightblue" points="276.786,-219.221 284.155,-211.609 273.648,-212.964 276.786,-219.221"/>
</g>
<!-- Node4&#45;&gt;Node8 -->
<g id="edge10" class="edge"><title>Node4&#45;&gt;Node8</title>
<path fill="none" stroke="midnightblue" d="M311.135,-536.407C430.45,-524.691 677.715,-500.409 793.139,-489.075"/>
<polygon fill="midnightblue" stroke="midnightblue" points="793.612,-492.545 803.222,-488.085 792.928,-485.579 793.612,-492.545"/>
</g>
<!-- Node6&#45;&gt;Node3 -->
<g id="edge7" class="edge"><title>Node6&#45;&gt;Node3</title>
<path fill="none" stroke="midnightblue" d="M102.166,-472.368C147.3,-453.051 256.622,-406.259 309.45,-383.648"/>
<polygon fill="midnightblue" stroke="midnightblue" points="311.111,-386.744 318.927,-379.591 308.357,-380.309 311.111,-386.744"/>
</g>
<!-- Node6&#45;&gt;Node7 -->
<g id="edge8" class="edge"><title>Node6&#45;&gt;Node7</title>
<path fill="none" stroke="midnightblue" d="M86.99,-472.49C97.0894,-454.436 119,-410.693 119,-371 119,-371 119,-371 119,-313 119,-255.133 186.698,-227.024 240.19,-213.845"/>
<polygon fill="midnightblue" stroke="midnightblue" points="241.052,-217.238 249.993,-211.554 239.459,-210.422 241.052,-217.238"/>
</g>
<!-- Node8&#45;&gt;Node3 -->
<g id="edge12" class="edge"><title>Node8&#45;&gt;Node3</title>
<path fill="none" stroke="midnightblue" d="M803.151,-478.624C706.043,-473.655 500.554,-460.541 434,-436 403.707,-424.83 373.812,-401.87 355.879,-386.45"/>
<polygon fill="midnightblue" stroke="midnightblue" points="357.899,-383.565 348.086,-379.571 353.267,-388.813 357.899,-383.565"/>
</g>
<!-- Node9 -->
<g id="node9" class="node"><title>Node9</title>
<polygon fill="none" stroke="#bfbfbf" points="837.5,-416.5 837.5,-435.5 872.5,-435.5 872.5,-416.5 837.5,-416.5"/>
<text text-anchor="middle" x="855" y="-423.5" font-family="Helvetica,sans-Serif" font-size="10.00">map</text>
</g>
<!-- Node8&#45;&gt;Node9 -->
<g id="edge11" class="edge"><title>Node8&#45;&gt;Node9</title>
<path fill="none" stroke="midnightblue" d="M855,-472.083C855,-465.006 855,-454.861 855,-445.986"/>
<polygon fill="midnightblue" stroke="midnightblue" points="858.5,-445.751 855,-435.751 851.5,-445.751 858.5,-445.751"/>
</g>
<!-- Node10 -->
<g id="node10" class="node"><title>Node10</title>
<polygon fill="none" stroke="#bfbfbf" points="1244,-416.5 1244,-435.5 1282,-435.5 1282,-416.5 1244,-416.5"/>
<text text-anchor="middle" x="1263" y="-423.5" font-family="Helvetica,sans-Serif" font-size="10.00">array</text>
</g>
<!-- Node8&#45;&gt;Node10 -->
<g id="edge13" class="edge"><title>Node8&#45;&gt;Node10</title>
<path fill="none" stroke="midnightblue" d="M906.748,-474.79C1009.62,-462.446 1230,-436 1230,-436 1231.28,-435.75 1232.58,-435.477 1233.89,-435.187"/>
<polygon fill="midnightblue" stroke="midnightblue" points="1235.05,-438.507 1243.92,-432.715 1233.37,-431.711 1235.05,-438.507"/>
</g>
<!-- Node11 -->
<g id="node11" class="node"><title>Node11</title>
<polygon fill="none" stroke="#bfbfbf" points="890.5,-416.5 890.5,-435.5 931.5,-435.5 931.5,-416.5 890.5,-416.5"/>
<text text-anchor="middle" x="911" y="-423.5" font-family="Helvetica,sans-Serif" font-size="10.00">string</text>
</g>
<!-- Node8&#45;&gt;Node11 -->
<g id="edge14" class="edge"><title>Node8&#45;&gt;Node11</title>
<path fill="none" stroke="midnightblue" d="M863.997,-472.324C872.194,-464.42 884.506,-452.548 894.472,-442.938"/>
<polygon fill="midnightblue" stroke="midnightblue" points="897.07,-445.295 901.839,-435.834 892.211,-440.256 897.07,-445.295"/>
</g>
<!-- Node12 -->
<g id="node12" class="node"><title>Node12</title>
<polygon fill="none" stroke="#bfbfbf" points="1073,-136.5 1073,-155.5 1117,-155.5 1117,-136.5 1073,-136.5"/>
<text text-anchor="middle" x="1095" y="-143.5" font-family="Helvetica,sans-Serif" font-size="10.00">cmath</text>
</g>
<!-- Node8&#45;&gt;Node12 -->
<g id="edge15" class="edge"><title>Node8&#45;&gt;Node12</title>
<path fill="none" stroke="midnightblue" d="M906.777,-474.078C986.818,-463.208 1132.44,-442.684 1142,-436 1169.06,-417.075 1178,-404.024 1178,-371 1178,-371 1178,-371 1178,-257 1178,-215.911 1140.64,-180.444 1116.05,-161.549"/>
<polygon fill="midnightblue" stroke="midnightblue" points="1118.09,-158.704 1107.97,-155.575 1113.93,-164.333 1118.09,-158.704"/>
</g>
<!-- Node13 -->
<g id="node13" class="node"><title>Node13</title>
<g id="a_node13"><a xlink:href="../../d1/d73/Defs_8h.html" target="_top" xlink:title="Common definitions for 2D coordinates. ">
<polygon fill="none" stroke="black" points="864,-192.5 864,-211.5 956,-211.5 956,-192.5 864,-192.5"/>
<text text-anchor="middle" x="910" y="-199.5" font-family="Helvetica,sans-Serif" font-size="10.00">TPCBase/Defs.h</text>
</a>
</g>
</g>
<!-- Node8&#45;&gt;Node13 -->
<g id="edge16" class="edge"><title>Node8&#45;&gt;Node13</title>
<path fill="none" stroke="midnightblue" d="M906.626,-473.649C981.447,-462.793 1112.02,-443.002 1120,-436 1142.72,-416.064 1140,-401.225 1140,-371 1140,-371 1140,-371 1140,-313 1140,-236.271 1034.54,-213.017 966.44,-206"/>
<polygon fill="midnightblue" stroke="midnightblue" points="966.551,-202.495 956.267,-205.043 965.895,-209.465 966.551,-202.495"/>
</g>
<!-- Node26 -->
<g id="node26" class="node"><title>Node26</title>
<g id="a_node26"><a xlink:href="../../de/d41/PadPos_8h.html" target="_top" xlink:title="TPCBase/PadPos.h">
<polygon fill="none" stroke="black" points="663.5,-304.5 663.5,-323.5 768.5,-323.5 768.5,-304.5 663.5,-304.5"/>
<text text-anchor="middle" x="716" y="-311.5" font-family="Helvetica,sans-Serif" font-size="10.00">TPCBase/PadPos.h</text>
</a>
</g>
</g>
<!-- Node8&#45;&gt;Node26 -->
<g id="edge31" class="edge"><title>Node8&#45;&gt;Node26</title>
<path fill="none" stroke="midnightblue" d="M803.236,-472.567C763.827,-464.966 714.316,-452.46 702,-436 695.994,-427.973 706.569,-365.438 712.455,-333.558"/>
<polygon fill="midnightblue" stroke="midnightblue" points="715.9,-334.174 714.306,-323.699 709.021,-332.881 715.9,-334.174"/>
</g>
<!-- Node27 -->
<g id="node27" class="node"><title>Node27</title>
<g id="a_node27"><a xlink:href="../../dd/d0b/PadSecPos_8h.html" target="_top" xlink:title="TPCBase/PadSecPos.h">
<polygon fill="none" stroke="black" points="572,-360.5 572,-379.5 694,-379.5 694,-360.5 572,-360.5"/>
<text text-anchor="middle" x="633" y="-367.5" font-family="Helvetica,sans-Serif" font-size="10.00">TPCBase/PadSecPos.h</text>
</a>
</g>
</g>
<!-- Node8&#45;&gt;Node27 -->
<g id="edge32" class="edge"><title>Node8&#45;&gt;Node27</title>
<path fill="none" stroke="midnightblue" d="M803.27,-479.537C763.03,-475.975 707.712,-465.502 669,-436 653.644,-424.297 643.938,-404.06 638.525,-389.268"/>
<polygon fill="midnightblue" stroke="midnightblue" points="641.805,-388.04 635.322,-379.66 635.164,-390.253 641.805,-388.04"/>
</g>
<!-- Node28 -->
<g id="node28" class="node"><title>Node28</title>
<g id="a_node28"><a xlink:href="../../d3/dd6/Sector_8h.html" target="_top" xlink:title="TPCBase/Sector.h">
<polygon fill="none" stroke="black" points="646.5,-248.5 646.5,-267.5 745.5,-267.5 745.5,-248.5 646.5,-248.5"/>
<text text-anchor="middle" x="696" y="-255.5" font-family="Helvetica,sans-Serif" font-size="10.00">TPCBase/Sector.h</text>
</a>
</g>
</g>
<!-- Node8&#45;&gt;Node28 -->
<g id="edge58" class="edge"><title>Node8&#45;&gt;Node28</title>
<path fill="none" stroke="midnightblue" d="M803.213,-475.126C760.345,-469.011 698.508,-457.254 648,-436 606.302,-418.453 584.455,-419.828 563,-380 536.2,-330.249 613.809,-290.354 661.565,-271.254"/>
<polygon fill="midnightblue" stroke="midnightblue" points="662.91,-274.486 670.966,-267.606 660.377,-267.961 662.91,-274.486"/>
</g>
<!-- Node29 -->
<g id="node29" class="node"><title>Node29</title>
<g id="a_node29"><a xlink:href="../../da/d61/PadROCPos_8h.html" target="_top" xlink:title="TPCBase/PadROCPos.h">
<polygon fill="none" stroke="black" points="900,-360.5 900,-379.5 1028,-379.5 1028,-360.5 900,-360.5"/>
<text text-anchor="middle" x="964" y="-367.5" font-family="Helvetica,sans-Serif" font-size="10.00">TPCBase/PadROCPos.h</text>
</a>
</g>
</g>
<!-- Node8&#45;&gt;Node29 -->
<g id="edge37" class="edge"><title>Node8&#45;&gt;Node29</title>
<path fill="none" stroke="midnightblue" d="M882.059,-472.491C900.629,-465.402 924.607,-453.593 940,-436 951.5,-422.856 957.676,-403.714 960.867,-389.605"/>
<polygon fill="midnightblue" stroke="midnightblue" points="964.343,-390.066 962.831,-379.58 957.474,-388.72 964.343,-390.066"/>
</g>
<!-- Node31 -->
<g id="node31" class="node"><title>Node31</title>
<g id="a_node31"><a xlink:href="../../d3/d54/DigitPos_8h.html" target="_top" xlink:title="TPCBase/DigitPos.h">
<polygon fill="none" stroke="black" points="711,-416.5 711,-435.5 819,-435.5 819,-416.5 711,-416.5"/>
<text text-anchor="middle" x="765" y="-423.5" font-family="Helvetica,sans-Serif" font-size="10.00">TPCBase/DigitPos.h</text>
</a>
</g>
</g>
<!-- Node8&#45;&gt;Node31 -->
<g id="edge43" class="edge"><title>Node8&#45;&gt;Node31</title>
<path fill="none" stroke="midnightblue" d="M840.54,-472.324C826.5,-463.9 804.952,-450.971 788.457,-441.074"/>
<polygon fill="midnightblue" stroke="midnightblue" points="789.8,-437.798 779.424,-435.655 786.198,-443.801 789.8,-437.798"/>
</g>
<!-- Node33 -->
<g id="node33" class="node"><title>Node33</title>
<g id="a_node33"><a xlink:href="../../d1/d1f/FECInfo_8h.html" target="_top" xlink:title="TPCBase/FECInfo.h">
<polygon fill="none" stroke="black" points="1359.5,-248.5 1359.5,-267.5 1466.5,-267.5 1466.5,-248.5 1359.5,-248.5"/>
<text text-anchor="middle" x="1413" y="-255.5" font-family="Helvetica,sans-Serif" font-size="10.00">TPCBase/FECInfo.h</text>
</a>
</g>
</g>
<!-- Node8&#45;&gt;Node33 -->
<g id="edge51" class="edge"><title>Node8&#45;&gt;Node33</title>
<path fill="none" stroke="midnightblue" d="M906.798,-474.445C999.666,-462.642 1185.5,-438.781 1192,-436 1282.38,-397.357 1366.41,-311.086 1398.86,-275.172"/>
<polygon fill="midnightblue" stroke="midnightblue" points="1401.61,-277.351 1405.65,-267.556 1396.38,-272.693 1401.61,-277.351"/>
</g>
<!-- Node34 -->
<g id="node34" class="node"><title>Node34</title>
<g id="a_node34"><a xlink:href="../../da/d9d/PadRegionInfo_8h.html" target="_top" xlink:title="TPCBase/PadRegionInfo.h">
<polygon fill="none" stroke="black" points="443.5,-416.5 443.5,-435.5 578.5,-435.5 578.5,-416.5 443.5,-416.5"/>
<text text-anchor="middle" x="511" y="-423.5" font-family="Helvetica,sans-Serif" font-size="10.00">TPCBase/PadRegionInfo.h</text>
</a>
</g>
</g>
<!-- Node8&#45;&gt;Node34 -->
<g id="edge53" class="edge"><title>Node8&#45;&gt;Node34</title>
<path fill="none" stroke="midnightblue" d="M803.5,-472.916C742.743,-463.378 641.672,-447.513 575.689,-437.155"/>
<polygon fill="midnightblue" stroke="midnightblue" points="575.834,-433.635 565.412,-435.541 574.748,-440.55 575.834,-433.635"/>
</g>
<!-- Node35 -->
<g id="node35" class="node"><title>Node35</title>
<g id="a_node35"><a xlink:href="../../d6/d42/PartitionInfo_8h.html" target="_top" xlink:title="TPCBase/PartitionInfo.h">
<polygon fill="none" stroke="black" points="988.5,-416.5 988.5,-435.5 1111.5,-435.5 1111.5,-416.5 988.5,-416.5"/>
<text text-anchor="middle" x="1050" y="-423.5" font-family="Helvetica,sans-Serif" font-size="10.00">TPCBase/PartitionInfo.h</text>
</a>
</g>
</g>
<!-- Node8&#45;&gt;Node35 -->
<g id="edge57" class="edge"><title>Node8&#45;&gt;Node35</title>
<path fill="none" stroke="midnightblue" d="M885.898,-472.444C919.274,-463.201 972.594,-448.436 1009.35,-438.257"/>
<polygon fill="midnightblue" stroke="midnightblue" points="1010.54,-441.558 1019.25,-435.516 1008.67,-434.812 1010.54,-441.558"/>
</g>
<!-- Node13&#45;&gt;Node12 -->
<g id="edge17" class="edge"><title>Node13&#45;&gt;Node12</title>
<path fill="none" stroke="midnightblue" d="M939.314,-192.444C973.068,-182.591 1028.32,-166.462 1063.12,-156.304"/>
<polygon fill="midnightblue" stroke="midnightblue" points="1064.17,-159.644 1072.79,-153.483 1062.21,-152.925 1064.17,-159.644"/>
</g>
<!-- Node14 -->
<g id="node14" class="node"><title>Node14</title>
<g id="a_node14"><a xlink:href="../../d2/dd0/Cartesian2D_8h.html" target="_top" xlink:title="MathUtils/Cartesian2D.h">
<polygon fill="none" stroke="black" points="344.5,-74.5 344.5,-93.5 469.5,-93.5 469.5,-74.5 344.5,-74.5"/>
<text text-anchor="middle" x="407" y="-81.5" font-family="Helvetica,sans-Serif" font-size="10.00">MathUtils/Cartesian2D.h</text>
</a>
</g>
</g>
<!-- Node13&#45;&gt;Node14 -->
<g id="edge18" class="edge"><title>Node13&#45;&gt;Node14</title>
<path fill="none" stroke="midnightblue" d="M873.013,-192.47C783.082,-171.731 553.082,-118.689 453.797,-95.7921"/>
<polygon fill="midnightblue" stroke="midnightblue" points="454.572,-92.379 444.041,-93.5423 452.999,-99.2 454.572,-92.379"/>
</g>
<!-- Node17 -->
<g id="node17" class="node"><title>Node17</title>
<g id="a_node17"><a xlink:href="../../dd/d76/Cartesian3D_8h.html" target="_top" xlink:title="MathUtils/Cartesian3D.h">
<polygon fill="none" stroke="black" points="847.5,-136.5 847.5,-155.5 972.5,-155.5 972.5,-136.5 847.5,-136.5"/>
<text text-anchor="middle" x="910" y="-143.5" font-family="Helvetica,sans-Serif" font-size="10.00">MathUtils/Cartesian3D.h</text>
</a>
</g>
</g>
<!-- Node13&#45;&gt;Node17 -->
<g id="edge21" class="edge"><title>Node13&#45;&gt;Node17</title>
<path fill="none" stroke="midnightblue" d="M910,-192.083C910,-185.006 910,-174.861 910,-165.986"/>
<polygon fill="midnightblue" stroke="midnightblue" points="913.5,-165.751 910,-155.751 906.5,-165.751 913.5,-165.751"/>
</g>
<!-- Node15 -->
<g id="node15" class="node"><title>Node15</title>
<polygon fill="none" stroke="#bfbfbf" points="240.5,-1 240.5,-31 391.5,-31 391.5,-1 240.5,-1"/>
<text text-anchor="start" x="248.5" y="-19" font-family="Helvetica,sans-Serif" font-size="10.00">Math/GenVector/Displacement</text>
<text text-anchor="middle" x="316" y="-8" font-family="Helvetica,sans-Serif" font-size="10.00">Vector2D.h</text>
</g>
<!-- Node14&#45;&gt;Node15 -->
<g id="edge19" class="edge"><title>Node14&#45;&gt;Node15</title>
<path fill="none" stroke="midnightblue" d="M395.103,-74.3717C382.221,-65.0286 361.22,-49.7966 344.093,-37.375"/>
<polygon fill="midnightblue" stroke="midnightblue" points="345.703,-34.2194 335.553,-31.1815 341.593,-39.8859 345.703,-34.2194"/>
</g>
<!-- Node16 -->
<g id="node16" class="node"><title>Node16</title>
<polygon fill="none" stroke="#bfbfbf" points="410,-6.5 410,-25.5 586,-25.5 586,-6.5 410,-6.5"/>
<text text-anchor="middle" x="498" y="-13.5" font-family="Helvetica,sans-Serif" font-size="10.00">Math/GenVector/PositionVector2D.h</text>
</g>
<!-- Node14&#45;&gt;Node16 -->
<g id="edge20" class="edge"><title>Node14&#45;&gt;Node16</title>
<path fill="none" stroke="midnightblue" d="M418.897,-74.3717C433.884,-63.5015 459.862,-44.6602 477.942,-31.5474"/>
<polygon fill="midnightblue" stroke="midnightblue" points="480.06,-34.3349 486.1,-25.6305 475.95,-28.6684 480.06,-34.3349"/>
</g>
<!-- Node17&#45;&gt;Node14 -->
<g id="edge29" class="edge"><title>Node17&#45;&gt;Node14</title>
<path fill="none" stroke="midnightblue" d="M847.289,-140.457C763.165,-133.906 609.271,-120.317 479,-100 470.928,-98.7411 462.393,-97.1744 454.131,-95.5325"/>
<polygon fill="midnightblue" stroke="midnightblue" points="454.737,-92.0839 444.238,-93.508 453.333,-98.9418 454.737,-92.0839"/>
</g>
<!-- Node18 -->
<g id="node18" class="node"><title>Node18</title>
<polygon fill="none" stroke="#bfbfbf" points="1197.5,-74.5 1197.5,-93.5 1346.5,-93.5 1346.5,-74.5 1197.5,-74.5"/>
<text text-anchor="middle" x="1272" y="-81.5" font-family="Helvetica,sans-Serif" font-size="10.00">Math/GenVector/Rotation3D.h</text>
</g>
<!-- Node17&#45;&gt;Node18 -->
<g id="edge22" class="edge"><title>Node17&#45;&gt;Node18</title>
<path fill="none" stroke="midnightblue" d="M964.378,-136.465C1020.45,-127.602 1110.4,-113.208 1188,-100 1196.7,-98.519 1205.9,-96.915 1214.9,-95.3253"/>
<polygon fill="midnightblue" stroke="midnightblue" points="1215.7,-98.7383 1224.93,-93.544 1214.47,-91.8461 1215.7,-98.7383"/>
</g>
<!-- Node19 -->
<g id="node19" class="node"><title>Node19</title>
<polygon fill="none" stroke="#bfbfbf" points="1365,-74.5 1365,-93.5 1521,-93.5 1521,-74.5 1365,-74.5"/>
<text text-anchor="middle" x="1443" y="-81.5" font-family="Helvetica,sans-Serif" font-size="10.00">Math/GenVector/Transform3D.h</text>
</g>
<!-- Node17&#45;&gt;Node19 -->
<g id="edge23" class="edge"><title>Node17&#45;&gt;Node19</title>
<path fill="none" stroke="midnightblue" d="M972.8,-140.005C1059.12,-132.831 1219.19,-118.42 1355,-100 1365.24,-98.6109 1376.12,-96.9277 1386.61,-95.1978"/>
<polygon fill="midnightblue" stroke="midnightblue" points="1387.23,-98.6427 1396.51,-93.533 1386.07,-91.7396 1387.23,-98.6427"/>
</g>
<!-- Node20 -->
<g id="node20" class="node"><title>Node20</title>
<polygon fill="none" stroke="#bfbfbf" points="488,-74.5 488,-93.5 648,-93.5 648,-74.5 488,-74.5"/>
<text text-anchor="middle" x="568" y="-81.5" font-family="Helvetica,sans-Serif" font-size="10.00">Math/GenVector/Translation3D.h</text>
</g>
<!-- Node17&#45;&gt;Node20 -->
<g id="edge24" class="edge"><title>Node17&#45;&gt;Node20</title>
<path fill="none" stroke="midnightblue" d="M861.363,-136.467C799.443,-125.604 692.573,-106.855 626.337,-95.2346"/>
<polygon fill="midnightblue" stroke="midnightblue" points="626.924,-91.7841 616.469,-93.5034 625.714,-98.6788 626.924,-91.7841"/>
</g>
<!-- Node21 -->
<g id="node21" class="node"><title>Node21</title>
<polygon fill="none" stroke="#bfbfbf" points="666,-74.5 666,-93.5 722,-93.5 722,-74.5 666,-74.5"/>
<text text-anchor="middle" x="694" y="-81.5" font-family="Helvetica,sans-Serif" font-size="10.00">Rtypes.h</text>
</g>
<!-- Node17&#45;&gt;Node21 -->
<g id="edge25" class="edge"><title>Node17&#45;&gt;Node21</title>
<path fill="none" stroke="midnightblue" d="M869.378,-136.48C832.797,-128.409 777.755,-115.273 731,-100 728.432,-99.1613 725.789,-98.2304 723.153,-97.2547"/>
<polygon fill="midnightblue" stroke="midnightblue" points="724.371,-93.9732 713.782,-93.6103 721.834,-100.497 724.371,-93.9732"/>
</g>
<!-- Node22 -->
<g id="node22" class="node"><title>Node22</title>
<polygon fill="none" stroke="#bfbfbf" points="740,-74.5 740,-93.5 816,-93.5 816,-74.5 740,-74.5"/>
<text text-anchor="middle" x="778" y="-81.5" font-family="Helvetica,sans-Serif" font-size="10.00">TGeoMatrix.h</text>
</g>
<!-- Node17&#45;&gt;Node22 -->
<g id="edge26" class="edge"><title>Node17&#45;&gt;Node22</title>
<path fill="none" stroke="midnightblue" d="M891.088,-136.403C868.837,-126.29 831.688,-109.404 806.074,-97.761"/>
<polygon fill="midnightblue" stroke="midnightblue" points="807.429,-94.5324 796.877,-93.5806 804.533,-100.905 807.429,-94.5324"/>
</g>
<!-- Node23 -->
<g id="node23" class="node"><title>Node23</title>
<polygon fill="none" stroke="#bfbfbf" points="834.5,-69 834.5,-99 985.5,-99 985.5,-69 834.5,-69"/>
<text text-anchor="start" x="842.5" y="-87" font-family="Helvetica,sans-Serif" font-size="10.00">Math/GenVector/Displacement</text>
<text text-anchor="middle" x="910" y="-76" font-family="Helvetica,sans-Serif" font-size="10.00">Vector3D.h</text>
</g>
<!-- Node17&#45;&gt;Node23 -->
<g id="edge27" class="edge"><title>Node17&#45;&gt;Node23</title>
<path fill="none" stroke="midnightblue" d="M910,-136.403C910,-129.341 910,-118.975 910,-109.399"/>
<polygon fill="midnightblue" stroke="midnightblue" points="913.5,-109.141 910,-99.1408 906.5,-109.141 913.5,-109.141"/>
</g>
<!-- Node24 -->
<g id="node24" class="node"><title>Node24</title>
<polygon fill="none" stroke="#bfbfbf" points="1004,-74.5 1004,-93.5 1180,-93.5 1180,-74.5 1004,-74.5"/>
<text text-anchor="middle" x="1092" y="-81.5" font-family="Helvetica,sans-Serif" font-size="10.00">Math/GenVector/PositionVector3D.h</text>
</g>
<!-- Node17&#45;&gt;Node24 -->
<g id="edge28" class="edge"><title>Node17&#45;&gt;Node24</title>
<path fill="none" stroke="midnightblue" d="M936.076,-136.403C967.566,-126.022 1020.7,-108.506 1056.06,-96.849"/>
<polygon fill="midnightblue" stroke="midnightblue" points="1057.57,-100.036 1065.97,-93.5806 1055.38,-93.3876 1057.57,-100.036"/>
</g>
<!-- Node25 -->
<g id="node25" class="node"><title>Node25</title>
<polygon fill="none" stroke="#bfbfbf" points="1539,-74.5 1539,-93.5 1593,-93.5 1593,-74.5 1539,-74.5"/>
<text text-anchor="middle" x="1566" y="-81.5" font-family="Helvetica,sans-Serif" font-size="10.00">iostream</text>
</g>
<!-- Node17&#45;&gt;Node25 -->
<g id="edge30" class="edge"><title>Node17&#45;&gt;Node25</title>
<path fill="none" stroke="midnightblue" d="M972.757,-140.991C1124.95,-131.194 1503.21,-106.375 1530,-100 1533,-99.2863 1536.07,-98.352 1539.09,-97.2981"/>
<polygon fill="midnightblue" stroke="midnightblue" points="1540.39,-100.547 1548.44,-93.6479 1537.85,-94.0272 1540.39,-100.547"/>
</g>
<!-- Node27&#45;&gt;Node26 -->
<g id="edge36" class="edge"><title>Node27&#45;&gt;Node26</title>
<path fill="none" stroke="midnightblue" d="M646.335,-360.324C659.162,-351.979 678.785,-339.212 693.94,-329.352"/>
<polygon fill="midnightblue" stroke="midnightblue" points="696.224,-332.042 702.698,-323.655 692.407,-326.174 696.224,-332.042"/>
</g>
<!-- Node27&#45;&gt;Node28 -->
<g id="edge33" class="edge"><title>Node27&#45;&gt;Node28</title>
<path fill="none" stroke="midnightblue" d="M634.592,-360.08C637.192,-347.06 643.177,-322.399 654,-304 660.405,-293.111 669.851,-282.682 678.164,-274.611"/>
<polygon fill="midnightblue" stroke="midnightblue" points="680.705,-277.027 685.65,-267.657 675.941,-271.899 680.705,-277.027"/>
</g>
<!-- Node28&#45;&gt;Node7 -->
<g id="edge34" class="edge"><title>Node28&#45;&gt;Node7</title>
<path fill="none" stroke="midnightblue" d="M646.353,-250.161C576.95,-240.6 450.668,-223.204 372.4,-212.422"/>
<polygon fill="midnightblue" stroke="midnightblue" points="372.542,-208.909 362.157,-211.011 371.586,-215.843 372.542,-208.909"/>
</g>
<!-- Node28&#45;&gt;Node13 -->
<g id="edge35" class="edge"><title>Node28&#45;&gt;Node13</title>
<path fill="none" stroke="midnightblue" d="M729.909,-248.444C766.849,-239.122 826.054,-224.183 866.418,-213.997"/>
<polygon fill="midnightblue" stroke="midnightblue" points="867.41,-217.357 876.25,-211.516 865.697,-210.57 867.41,-217.357"/>
</g>
<!-- Node29&#45;&gt;Node13 -->
<g id="edge38" class="edge"><title>Node29&#45;&gt;Node13</title>
<path fill="none" stroke="midnightblue" d="M965.537,-360.42C967.482,-347.824 970.013,-323.687 965,-304 956.829,-271.908 936.159,-239.005 922.616,-219.812"/>
<polygon fill="midnightblue" stroke="midnightblue" points="925.331,-217.594 916.626,-211.555 919.665,-221.705 925.331,-217.594"/>
</g>
<!-- Node29&#45;&gt;Node26 -->
<g id="edge42" class="edge"><title>Node29&#45;&gt;Node26</title>
<path fill="none" stroke="midnightblue" d="M924.704,-360.444C881.441,-351.023 811.827,-335.866 765.027,-325.675"/>
<polygon fill="midnightblue" stroke="midnightblue" points="765.628,-322.224 755.112,-323.516 764.139,-329.064 765.628,-322.224"/>
</g>
<!-- Node30 -->
<g id="node30" class="node"><title>Node30</title>
<g id="a_node30"><a xlink:href="../../dc/d14/ROC_8h.html" target="_top" xlink:title="TPCBase/ROC.h">
<polygon fill="none" stroke="black" points="863.5,-304.5 863.5,-323.5 956.5,-323.5 956.5,-304.5 863.5,-304.5"/>
<text text-anchor="middle" x="910" y="-311.5" font-family="Helvetica,sans-Serif" font-size="10.00">TPCBase/ROC.h</text>
</a>
</g>
</g>
<!-- Node29&#45;&gt;Node30 -->
<g id="edge39" class="edge"><title>Node29&#45;&gt;Node30</title>
<path fill="none" stroke="midnightblue" d="M955.083,-360.083C947.22,-352.22 935.569,-340.569 926.081,-331.081"/>
<polygon fill="midnightblue" stroke="midnightblue" points="928.297,-328.347 918.751,-323.751 923.347,-333.297 928.297,-328.347"/>
</g>
<!-- Node30&#45;&gt;Node13 -->
<g id="edge40" class="edge"><title>Node30&#45;&gt;Node13</title>
<path fill="none" stroke="midnightblue" d="M910,-304.368C910,-286.617 910,-245.666 910,-221.597"/>
<polygon fill="midnightblue" stroke="midnightblue" points="913.5,-221.591 910,-211.591 906.5,-221.591 913.5,-221.591"/>
</g>
<!-- Node30&#45;&gt;Node28 -->
<g id="edge41" class="edge"><title>Node30&#45;&gt;Node28</title>
<path fill="none" stroke="midnightblue" d="M876.091,-304.444C839.151,-295.122 779.946,-280.183 739.582,-269.997"/>
<polygon fill="midnightblue" stroke="midnightblue" points="740.303,-266.57 729.75,-267.516 738.59,-273.357 740.303,-266.57"/>
</g>
<!-- Node31&#45;&gt;Node13 -->
<g id="edge44" class="edge"><title>Node31&#45;&gt;Node13</title>
<path fill="none" stroke="midnightblue" d="M819.16,-416.934C897.486,-405.145 1033.48,-384.152 1037,-380 1085.61,-322.69 982.256,-247.716 933.549,-217.022"/>
<polygon fill="midnightblue" stroke="midnightblue" points="935.215,-213.937 924.868,-211.656 931.534,-219.891 935.215,-213.937"/>
</g>
<!-- Node31&#45;&gt;Node26 -->
<g id="edge49" class="edge"><title>Node31&#45;&gt;Node26</title>
<path fill="none" stroke="midnightblue" d="M761.155,-416.368C753.176,-398.456 734.675,-356.923 723.995,-332.948"/>
<polygon fill="midnightblue" stroke="midnightblue" points="727.093,-331.302 719.827,-323.591 720.699,-334.15 727.093,-331.302"/>
</g>
<!-- Node31&#45;&gt;Node27 -->
<g id="edge50" class="edge"><title>Node31&#45;&gt;Node27</title>
<path fill="none" stroke="midnightblue" d="M744.084,-416.444C722.264,-407.517 687.85,-393.439 663.108,-383.317"/>
<polygon fill="midnightblue" stroke="midnightblue" points="664.399,-380.063 653.818,-379.516 661.748,-386.542 664.399,-380.063"/>
</g>
<!-- Node32 -->
<g id="node32" class="node"><title>Node32</title>
<g id="a_node32"><a xlink:href="../../df/d26/CRU_8h.html" target="_top" xlink:title="TPCBase/CRU.h">
<polygon fill="none" stroke="black" points="788.5,-360.5 788.5,-379.5 881.5,-379.5 881.5,-360.5 788.5,-360.5"/>
<text text-anchor="middle" x="835" y="-367.5" font-family="Helvetica,sans-Serif" font-size="10.00">TPCBase/CRU.h</text>
</a>
</g>
</g>
<!-- Node31&#45;&gt;Node32 -->
<g id="edge45" class="edge"><title>Node31&#45;&gt;Node32</title>
<path fill="none" stroke="midnightblue" d="M776.247,-416.324C786.797,-408.185 802.801,-395.839 815.442,-386.087"/>
<polygon fill="midnightblue" stroke="midnightblue" points="817.769,-388.713 823.549,-379.834 813.493,-383.171 817.769,-388.713"/>
</g>
<!-- Node32&#45;&gt;Node13 -->
<g id="edge46" class="edge"><title>Node32&#45;&gt;Node13</title>
<path fill="none" stroke="midnightblue" d="M836.875,-360.379C839.768,-347.731 845.85,-323.53 854,-304 866.814,-273.292 886.549,-239.951 898.846,-220.297"/>
<polygon fill="midnightblue" stroke="midnightblue" points="901.971,-221.905 904.373,-211.586 896.06,-218.155 901.971,-221.905"/>
</g>
<!-- Node32&#45;&gt;Node28 -->
<g id="edge47" class="edge"><title>Node32&#45;&gt;Node28</title>
<path fill="none" stroke="midnightblue" d="M828.651,-360.156C818.742,-346.793 798.495,-321.194 777,-304 760.933,-291.148 740.702,-279.906 724.479,-271.873"/>
<polygon fill="midnightblue" stroke="midnightblue" points="725.98,-268.711 715.451,-267.526 722.943,-275.018 725.98,-268.711"/>
</g>
<!-- Node32&#45;&gt;Node30 -->
<g id="edge48" class="edge"><title>Node32&#45;&gt;Node30</title>
<path fill="none" stroke="midnightblue" d="M847.05,-360.324C858.463,-352.107 875.831,-339.602 889.435,-329.807"/>
<polygon fill="midnightblue" stroke="midnightblue" points="891.66,-332.517 897.731,-323.834 887.57,-326.837 891.66,-332.517"/>
</g>
<!-- Node33&#45;&gt;Node25 -->
<g id="edge52" class="edge"><title>Node33&#45;&gt;Node25</title>
<path fill="none" stroke="midnightblue" d="M1420.8,-248.234C1445.15,-220.855 1520.06,-136.65 1551.68,-101.101"/>
<polygon fill="midnightblue" stroke="midnightblue" points="1554.37,-103.342 1558.4,-93.5442 1549.14,-98.6897 1554.37,-103.342"/>
</g>
<!-- Node34&#45;&gt;Node3 -->
<g id="edge54" class="edge"><title>Node34&#45;&gt;Node3</title>
<path fill="none" stroke="midnightblue" d="M483.746,-416.444C453.146,-406.837 403.539,-391.262 371.09,-381.075"/>
<polygon fill="midnightblue" stroke="midnightblue" points="371.793,-377.627 361.204,-377.971 369.696,-384.306 371.793,-377.627"/>
</g>
<!-- Node34&#45;&gt;Node13 -->
<g id="edge55" class="edge"><title>Node34&#45;&gt;Node13</title>
<path fill="none" stroke="midnightblue" d="M513.719,-416.341C523.873,-385.739 562.849,-282.661 637,-248 706.847,-215.351 796.429,-205.953 853.54,-203.484"/>
<polygon fill="midnightblue" stroke="midnightblue" points="853.951,-206.971 863.813,-203.1 853.69,-199.976 853.951,-206.971"/>
</g>
<!-- Node34&#45;&gt;Node26 -->
<g id="edge56" class="edge"><title>Node34&#45;&gt;Node26</title>
<path fill="none" stroke="midnightblue" d="M515.531,-416.438C523.343,-402.504 540.68,-374.978 563,-360 589.838,-341.989 624.014,-331.047 653.255,-324.472"/>
<polygon fill="midnightblue" stroke="midnightblue" points="654.317,-327.825 663.372,-322.324 652.864,-320.978 654.317,-327.825"/>
</g>
<!-- Node37 -->
<g id="node37" class="node"><title>Node37</title>
<polygon fill="none" stroke="#bfbfbf" points="1245,-534.5 1245,-553.5 1291,-553.5 1291,-534.5 1245,-534.5"/>
<text text-anchor="middle" x="1268" y="-541.5" font-family="Helvetica,sans-Serif" font-size="10.00">cstdint</text>
</g>
<!-- Node36&#45;&gt;Node37 -->
<g id="edge60" class="edge"><title>Node36&#45;&gt;Node37</title>
<path fill="none" stroke="midnightblue" d="M1114.79,-602.484C1144.97,-593.006 1194.43,-576.801 1236,-560 1237.64,-559.336 1239.32,-558.631 1241.01,-557.903"/>
<polygon fill="midnightblue" stroke="midnightblue" points="1242.87,-560.903 1250.55,-553.6 1239.99,-554.522 1242.87,-560.903"/>
</g>
<!-- Node39&#45;&gt;Node10 -->
<g id="edge66" class="edge"><title>Node39&#45;&gt;Node10</title>
<path fill="none" stroke="midnightblue" d="M1017.49,-534.47C1063.73,-514.226 1180.29,-463.205 1234.48,-439.484"/>
<polygon fill="midnightblue" stroke="midnightblue" points="1236.09,-442.602 1243.84,-435.386 1233.28,-436.19 1236.09,-442.602"/>
</g>
<!-- Node40&#45;&gt;Node10 -->
<g id="edge68" class="edge"><title>Node40&#45;&gt;Node10</title>
<path fill="none" stroke="midnightblue" d="M1167.74,-534.281C1184.98,-514.872 1226.72,-467.861 1248.78,-443.011"/>
<polygon fill="midnightblue" stroke="midnightblue" points="1251.43,-445.306 1255.45,-435.505 1246.19,-440.659 1251.43,-445.306"/>
</g>
<!-- Node41&#45;&gt;Node10 -->
<g id="edge70" class="edge"><title>Node41&#45;&gt;Node10</title>
<path fill="none" stroke="midnightblue" d="M1063.98,-472.454C1106.35,-463.865 1172.85,-449.936 1230,-436 1231.27,-435.691 1232.56,-435.37 1233.86,-435.039"/>
<polygon fill="midnightblue" stroke="midnightblue" points="1235.07,-438.34 1243.85,-432.411 1233.29,-431.57 1235.07,-438.34"/>
</g>
</g>
</svg>
