<?xml version="1.0" encoding="UTF-8" standalone="no"?>
<!DOCTYPE svg PUBLIC "-//W3C//DTD SVG 1.1//EN"
 "http://www.w3.org/Graphics/SVG/1.1/DTD/svg11.dtd">
<!-- Generated by graphviz version 2.36.0 (20140111.2315)
 -->
<!-- Title: /home/travis/build/AliceO2Group/AliceO2/Detectors/TPC/simulation/include/TPCSimulation/Point.h Pages: 1 -->
<svg width="1556pt" height="420pt"
 viewBox="0.00 0.00 1556.00 420.00" xmlns="http://www.w3.org/2000/svg" xmlns:xlink="http://www.w3.org/1999/xlink">
<g id="graph0" class="graph" transform="scale(1 1) rotate(0) translate(4 416)">
<title>/home/travis/build/AliceO2Group/AliceO2/Detectors/TPC/simulation/include/TPCSimulation/Point.h</title>
<!-- Node1 -->
<g id="node1" class="node"><title>Node1</title>
<polygon fill="#bfbfbf" stroke="black" points="827.5,-359 827.5,-411 980.5,-411 980.5,-359 827.5,-359"/>
<text text-anchor="start" x="835.5" y="-399" font-family="Helvetica,sans-Serif" font-size="10.00">/home/travis/build</text>
<text text-anchor="start" x="835.5" y="-388" font-family="Helvetica,sans-Serif" font-size="10.00">/AliceO2Group/AliceO2</text>
<text text-anchor="start" x="835.5" y="-377" font-family="Helvetica,sans-Serif" font-size="10.00">/Detectors/TPC/simulation</text>
<text text-anchor="middle" x="904" y="-366" font-family="Helvetica,sans-Serif" font-size="10.00">/include/TPCSimulation/Point.h</text>
</g>
<!-- Node2 -->
<g id="node2" class="node"><title>Node2</title>
<g id="a_node2"><a xlink:href="../../de/d5b/CheckClusterShape_8C.html" target="_top" xlink:title="/home/travis/build\l/AliceO2Group/AliceO2\l/Detectors/ITSMFT/ITS\l/macros/test/CheckClusterShape.C">
<polygon fill="none" stroke="black" points="234.5,-269 234.5,-321 407.5,-321 407.5,-269 234.5,-269"/>
<text text-anchor="start" x="242.5" y="-309" font-family="Helvetica,sans-Serif" font-size="10.00">/home/travis/build</text>
<text text-anchor="start" x="242.5" y="-298" font-family="Helvetica,sans-Serif" font-size="10.00">/AliceO2Group/AliceO2</text>
<text text-anchor="start" x="242.5" y="-287" font-family="Helvetica,sans-Serif" font-size="10.00">/Detectors/ITSMFT/ITS</text>
<text text-anchor="middle" x="321" y="-276" font-family="Helvetica,sans-Serif" font-size="10.00">/macros/test/CheckClusterShape.C</text>
</a>
</g>
</g>
<!-- Node1&#45;&gt;Node2 -->
<g id="edge1" class="edge"><title>Node1&#45;&gt;Node2</title>
<path fill="none" stroke="midnightblue" d="M817.106,-376.099C720.196,-366.529 559.036,-348.346 422,-322 417.288,-321.094 412.469,-320.097 407.617,-319.038"/>
<polygon fill="midnightblue" stroke="midnightblue" points="816.856,-379.591 827.15,-377.083 817.538,-372.625 816.856,-379.591"/>
</g>
<!-- Node3 -->
<g id="node3" class="node"><title>Node3</title>
<g id="a_node3"><a xlink:href="../../da/d96/TPC_2simulation_2include_2TPCSimulation_2Detector_8h.html" target="_top" xlink:title="/home/travis/build\l/AliceO2Group/AliceO2\l/Detectors/TPC/simulation\l/include/TPCSimulation/Detector.h">
<polygon fill="none" stroke="black" points="464,-269 464,-321 632,-321 632,-269 464,-269"/>
<text text-anchor="start" x="472" y="-309" font-family="Helvetica,sans-Serif" font-size="10.00">/home/travis/build</text>
<text text-anchor="start" x="472" y="-298" font-family="Helvetica,sans-Serif" font-size="10.00">/AliceO2Group/AliceO2</text>
<text text-anchor="start" x="472" y="-287" font-family="Helvetica,sans-Serif" font-size="10.00">/Detectors/TPC/simulation</text>
<text text-anchor="middle" x="548" y="-276" font-family="Helvetica,sans-Serif" font-size="10.00">/include/TPCSimulation/Detector.h</text>
</a>
</g>
</g>
<!-- Node1&#45;&gt;Node3 -->
<g id="edge2" class="edge"><title>Node1&#45;&gt;Node3</title>
<path fill="none" stroke="midnightblue" d="M817.237,-362.553C760.925,-348.633 687.918,-330.587 632.137,-316.798"/>
<polygon fill="midnightblue" stroke="midnightblue" points="816.644,-366.012 827.192,-365.014 818.324,-359.216 816.644,-366.012"/>
</g>
<!-- Node5 -->
<g id="node5" class="node"><title>Node5</title>
<g id="a_node5"><a xlink:href="../../d2/d2c/TPC_2simulation_2src_2Detector_8cxx.html" target="_top" xlink:title="/home/travis/build\l/AliceO2Group/AliceO2\l/Detectors/TPC/simulation\l/src/Detector.cxx">
<polygon fill="none" stroke="black" points="-0.5,-174 -0.5,-226 132.5,-226 132.5,-174 -0.5,-174"/>
<text text-anchor="start" x="7.5" y="-214" font-family="Helvetica,sans-Serif" font-size="10.00">/home/travis/build</text>
<text text-anchor="start" x="7.5" y="-203" font-family="Helvetica,sans-Serif" font-size="10.00">/AliceO2Group/AliceO2</text>
<text text-anchor="start" x="7.5" y="-192" font-family="Helvetica,sans-Serif" font-size="10.00">/Detectors/TPC/simulation</text>
<text text-anchor="middle" x="66" y="-181" font-family="Helvetica,sans-Serif" font-size="10.00">/src/Detector.cxx</text>
</a>
</g>
</g>
<!-- Node1&#45;&gt;Node5 -->
<g id="edge21" class="edge"><title>Node1&#45;&gt;Node5</title>
<path fill="none" stroke="midnightblue" d="M817.134,-380.066C704.187,-373.593 514.329,-357.666 455,-322 429.627,-306.747 441.423,-283.169 416,-268 310.525,-205.065 260.729,-263.453 142,-232 135.801,-230.358 129.434,-228.335 123.148,-226.117"/>
<polygon fill="midnightblue" stroke="midnightblue" points="816.964,-383.562 827.145,-380.627 817.356,-376.573 816.964,-383.562"/>
</g>
<!-- Node10 -->
<g id="node10" class="node"><title>Node10</title>
<g id="a_node10"><a xlink:href="../../de/d92/TPC_2simulation_2include_2TPCSimulation_2Digitizer_8h.html" target="_top" xlink:title="/home/travis/build\l/AliceO2Group/AliceO2\l/Detectors/TPC/simulation\l/include/TPCSimulation/Digitizer.h">
<polygon fill="none" stroke="black" points="820.5,-269 820.5,-321 987.5,-321 987.5,-269 820.5,-269"/>
<text text-anchor="start" x="828.5" y="-309" font-family="Helvetica,sans-Serif" font-size="10.00">/home/travis/build</text>
<text text-anchor="start" x="828.5" y="-298" font-family="Helvetica,sans-Serif" font-size="10.00">/AliceO2Group/AliceO2</text>
<text text-anchor="start" x="828.5" y="-287" font-family="Helvetica,sans-Serif" font-size="10.00">/Detectors/TPC/simulation</text>
<text text-anchor="middle" x="904" y="-276" font-family="Helvetica,sans-Serif" font-size="10.00">/include/TPCSimulation/Digitizer.h</text>
</a>
</g>
</g>
<!-- Node1&#45;&gt;Node10 -->
<g id="edge9" class="edge"><title>Node1&#45;&gt;Node10</title>
<path fill="none" stroke="midnightblue" d="M904,-348.489C904,-339.309 904,-329.616 904,-321.092"/>
<polygon fill="midnightblue" stroke="midnightblue" points="900.5,-348.547 904,-358.547 907.5,-348.547 900.5,-348.547"/>
</g>
<!-- Node13 -->
<g id="node13" class="node"><title>Node13</title>
<g id="a_node13"><a xlink:href="../../df/d46/TPC_2simulation_2src_2DigitizerTask_8cxx.html" target="_top" xlink:title="/home/travis/build\l/AliceO2Group/AliceO2\l/Detectors/TPC/simulation\l/src/DigitizerTask.cxx">
<polygon fill="none" stroke="black" points="625.5,-79 625.5,-131 758.5,-131 758.5,-79 625.5,-79"/>
<text text-anchor="start" x="633.5" y="-119" font-family="Helvetica,sans-Serif" font-size="10.00">/home/travis/build</text>
<text text-anchor="start" x="633.5" y="-108" font-family="Helvetica,sans-Serif" font-size="10.00">/AliceO2Group/AliceO2</text>
<text text-anchor="start" x="633.5" y="-97" font-family="Helvetica,sans-Serif" font-size="10.00">/Detectors/TPC/simulation</text>
<text text-anchor="middle" x="692" y="-86" font-family="Helvetica,sans-Serif" font-size="10.00">/src/DigitizerTask.cxx</text>
</a>
</g>
</g>
<!-- Node1&#45;&gt;Node13 -->
<g id="edge23" class="edge"><title>Node1&#45;&gt;Node13</title>
<path fill="none" stroke="midnightblue" d="M834.415,-354.29C785.857,-329.404 724.786,-288.776 696,-232 679.868,-200.182 682.657,-157.8 686.813,-131.207"/>
<polygon fill="midnightblue" stroke="midnightblue" points="833.127,-357.559 843.636,-358.906 836.261,-351.3 833.127,-357.559"/>
</g>
<!-- Node16 -->
<g id="node16" class="node"><title>Node16</title>
<g id="a_node16"><a xlink:href="../../d9/d59/testHitsDigitsClusters_8C.html" target="_top" xlink:title="/home/travis/build\l/AliceO2Group/AliceO2\l/Detectors/TPC/simulation\l/macro/testHitsDigitsClusters.C">
<polygon fill="none" stroke="black" points="1240.5,-174 1240.5,-226 1397.5,-226 1397.5,-174 1240.5,-174"/>
<text text-anchor="start" x="1248.5" y="-214" font-family="Helvetica,sans-Serif" font-size="10.00">/home/travis/build</text>
<text text-anchor="start" x="1248.5" y="-203" font-family="Helvetica,sans-Serif" font-size="10.00">/AliceO2Group/AliceO2</text>
<text text-anchor="start" x="1248.5" y="-192" font-family="Helvetica,sans-Serif" font-size="10.00">/Detectors/TPC/simulation</text>
<text text-anchor="middle" x="1319" y="-181" font-family="Helvetica,sans-Serif" font-size="10.00">/macro/testHitsDigitsClusters.C</text>
</a>
</g>
</g>
<!-- Node1&#45;&gt;Node16 -->
<g id="edge20" class="edge"><title>Node1&#45;&gt;Node16</title>
<path fill="none" stroke="midnightblue" d="M955.67,-353.197C969.414,-343.954 983.814,-333.254 996,-322 1018.54,-301.185 1012.71,-283.822 1039,-268 1113.38,-223.226 1147.14,-254.49 1231,-232 1237.57,-230.238 1244.35,-228.219 1251.1,-226.076"/>
<polygon fill="midnightblue" stroke="midnightblue" points="953.652,-350.336 947.222,-358.757 957.5,-356.183 953.652,-350.336"/>
</g>
<!-- Node17 -->
<g id="node17" class="node"><title>Node17</title>
<g id="a_node17"><a xlink:href="../../d7/d0a/TPC_2simulation_2src_2Digitizer_8cxx.html" target="_top" xlink:title="/home/travis/build\l/AliceO2Group/AliceO2\l/Detectors/TPC/simulation\l/src/Digitizer.cxx">
<polygon fill="none" stroke="black" points="1415.5,-174 1415.5,-226 1548.5,-226 1548.5,-174 1415.5,-174"/>
<text text-anchor="start" x="1423.5" y="-214" font-family="Helvetica,sans-Serif" font-size="10.00">/home/travis/build</text>
<text text-anchor="start" x="1423.5" y="-203" font-family="Helvetica,sans-Serif" font-size="10.00">/AliceO2Group/AliceO2</text>
<text text-anchor="start" x="1423.5" y="-192" font-family="Helvetica,sans-Serif" font-size="10.00">/Detectors/TPC/simulation</text>
<text text-anchor="middle" x="1482" y="-181" font-family="Helvetica,sans-Serif" font-size="10.00">/src/Digitizer.cxx</text>
</a>
</g>
</g>
<!-- Node1&#45;&gt;Node17 -->
<g id="edge22" class="edge"><title>Node1&#45;&gt;Node17</title>
<path fill="none" stroke="midnightblue" d="M980.042,-354.426C998.077,-345.506 1016.55,-334.657 1032,-322 1055.31,-302.906 1046.77,-282.83 1073,-268 1202.59,-194.739 1261.67,-268.467 1406,-232 1412.36,-230.394 1418.88,-228.365 1425.31,-226.115"/>
<polygon fill="midnightblue" stroke="midnightblue" points="978.176,-351.438 970.668,-358.914 981.199,-357.752 978.176,-351.438"/>
</g>
<!-- Node19 -->
<g id="node19" class="node"><title>Node19</title>
<g id="a_node19"><a xlink:href="../../d3/df4/Point_8cxx.html" target="_top" xlink:title="/home/travis/build\l/AliceO2Group/AliceO2\l/Detectors/TPC/simulation\l/src/Point.cxx">
<polygon fill="none" stroke="black" points="1081.5,-269 1081.5,-321 1214.5,-321 1214.5,-269 1081.5,-269"/>
<text text-anchor="start" x="1089.5" y="-309" font-family="Helvetica,sans-Serif" font-size="10.00">/home/travis/build</text>
<text text-anchor="start" x="1089.5" y="-298" font-family="Helvetica,sans-Serif" font-size="10.00">/AliceO2Group/AliceO2</text>
<text text-anchor="start" x="1089.5" y="-287" font-family="Helvetica,sans-Serif" font-size="10.00">/Detectors/TPC/simulation</text>
<text text-anchor="middle" x="1148" y="-276" font-family="Helvetica,sans-Serif" font-size="10.00">/src/Point.cxx</text>
</a>
</g>
</g>
<!-- Node1&#45;&gt;Node19 -->
<g id="edge24" class="edge"><title>Node1&#45;&gt;Node19</title>
<path fill="none" stroke="midnightblue" d="M983.266,-355.412C1014.92,-343.996 1050.97,-330.995 1081.26,-320.072"/>
<polygon fill="midnightblue" stroke="midnightblue" points="981.814,-352.215 973.594,-358.901 984.188,-358.8 981.814,-352.215"/>
</g>
<!-- Node20 -->
<g id="node20" class="node"><title>Node20</title>
<g id="a_node20"><a xlink:href="../../dd/dd7/testTPCSimulation_8cxx.html" target="_top" xlink:title="This task tests several small components of the TPC simulation. ">
<polygon fill="none" stroke="black" points="1233,-269 1233,-321 1373,-321 1373,-269 1233,-269"/>
<text text-anchor="start" x="1241" y="-309" font-family="Helvetica,sans-Serif" font-size="10.00">/home/travis/build</text>
<text text-anchor="start" x="1241" y="-298" font-family="Helvetica,sans-Serif" font-size="10.00">/AliceO2Group/AliceO2</text>
<text text-anchor="start" x="1241" y="-287" font-family="Helvetica,sans-Serif" font-size="10.00">/Detectors/TPC/simulation</text>
<text text-anchor="middle" x="1303" y="-276" font-family="Helvetica,sans-Serif" font-size="10.00">/test/testTPCSimulation.cxx</text>
</a>
</g>
</g>
<!-- Node1&#45;&gt;Node20 -->
<g id="edge25" class="edge"><title>Node1&#45;&gt;Node20</title>
<path fill="none" stroke="midnightblue" d="M990.773,-370.089C1055.29,-359.034 1145.23,-342.115 1223,-322 1226.25,-321.159 1229.57,-320.259 1232.9,-319.318"/>
<polygon fill="midnightblue" stroke="midnightblue" points="989.914,-366.685 980.643,-371.813 991.088,-373.586 989.914,-366.685"/>
</g>
<!-- Node4 -->
<g id="node4" class="node"><title>Node4</title>
<g id="a_node4"><a xlink:href="../../d3/d85/Detectors_2EMCAL_2testsimulation_2run__sim__emcal_8C.html" target="_top" xlink:title="/home/travis/build\l/AliceO2Group/AliceO2\l/Detectors/EMCAL/testsimulation\l/run_sim_emcal.C">
<polygon fill="none" stroke="black" points="151,-174 151,-226 315,-226 315,-174 151,-174"/>
<text text-anchor="start" x="159" y="-214" font-family="Helvetica,sans-Serif" font-size="10.00">/home/travis/build</text>
<text text-anchor="start" x="159" y="-203" font-family="Helvetica,sans-Serif" font-size="10.00">/AliceO2Group/AliceO2</text>
<text text-anchor="start" x="159" y="-192" font-family="Helvetica,sans-Serif" font-size="10.00">/Detectors/EMCAL/testsimulation</text>
<text text-anchor="middle" x="233" y="-181" font-family="Helvetica,sans-Serif" font-size="10.00">/run_sim_emcal.C</text>
</a>
</g>
</g>
<!-- Node3&#45;&gt;Node4 -->
<g id="edge3" class="edge"><title>Node3&#45;&gt;Node4</title>
<path fill="none" stroke="midnightblue" d="M453.924,-268.549C404.24,-254.99 348.581,-239.582 324,-232 317.939,-230.131 311.673,-228.133 305.396,-226.087"/>
<polygon fill="midnightblue" stroke="midnightblue" points="453.201,-271.98 463.77,-271.233 455.043,-265.226 453.201,-271.98"/>
</g>
<!-- Node3&#45;&gt;Node5 -->
<g id="edge4" class="edge"><title>Node3&#45;&gt;Node5</title>
<path fill="none" stroke="midnightblue" d="M453.889,-268.758C452.586,-268.498 451.289,-268.245 450,-268 314.604,-242.263 275.474,-266.341 142,-232 135.652,-230.367 129.131,-228.319 122.705,-226.06"/>
<polygon fill="midnightblue" stroke="midnightblue" points="453.476,-272.247 463.982,-270.878 454.915,-265.397 453.476,-272.247"/>
</g>
<!-- Node6 -->
<g id="node6" class="node"><title>Node6</title>
<g id="a_node6"><a xlink:href="../../d7/d11/o2__sim__tpc_8cxx.html" target="_top" xlink:title="/home/travis/build\l/AliceO2Group/AliceO2\l/Framework/TestWorkflows\l/src/o2_sim_tpc.cxx">
<polygon fill="none" stroke="black" points="333.5,-174 333.5,-226 470.5,-226 470.5,-174 333.5,-174"/>
<text text-anchor="start" x="341.5" y="-214" font-family="Helvetica,sans-Serif" font-size="10.00">/home/travis/build</text>
<text text-anchor="start" x="341.5" y="-203" font-family="Helvetica,sans-Serif" font-size="10.00">/AliceO2Group/AliceO2</text>
<text text-anchor="start" x="341.5" y="-192" font-family="Helvetica,sans-Serif" font-size="10.00">/Framework/TestWorkflows</text>
<text text-anchor="middle" x="402" y="-181" font-family="Helvetica,sans-Serif" font-size="10.00">/src/o2_sim_tpc.cxx</text>
</a>
</g>
</g>
<!-- Node3&#45;&gt;Node6 -->
<g id="edge5" class="edge"><title>Node3&#45;&gt;Node6</title>
<path fill="none" stroke="midnightblue" d="M499.955,-263.396C480.936,-251.281 459.348,-237.53 441.288,-226.026"/>
<polygon fill="midnightblue" stroke="midnightblue" points="498.176,-266.412 508.49,-268.833 501.936,-260.508 498.176,-266.412"/>
</g>
<!-- Node7 -->
<g id="node7" class="node"><title>Node7</title>
<g id="a_node7"><a xlink:href="../../d9/d71/run__sim_8C.html" target="_top" xlink:title="/home/travis/build\l/AliceO2Group/AliceO2\l/macro/run_sim.C">
<polygon fill="none" stroke="black" points="489,-179.5 489,-220.5 607,-220.5 607,-179.5 489,-179.5"/>
<text text-anchor="start" x="497" y="-208.5" font-family="Helvetica,sans-Serif" font-size="10.00">/home/travis/build</text>
<text text-anchor="start" x="497" y="-197.5" font-family="Helvetica,sans-Serif" font-size="10.00">/AliceO2Group/AliceO2</text>
<text text-anchor="middle" x="548" y="-186.5" font-family="Helvetica,sans-Serif" font-size="10.00">/macro/run_sim.C</text>
</a>
</g>
</g>
<!-- Node3&#45;&gt;Node7 -->
<g id="edge6" class="edge"><title>Node3&#45;&gt;Node7</title>
<path fill="none" stroke="midnightblue" d="M548,-258.258C548,-245.535 548,-231.676 548,-220.78"/>
<polygon fill="midnightblue" stroke="midnightblue" points="544.5,-258.587 548,-268.587 551.5,-258.587 544.5,-258.587"/>
</g>
<!-- Node8 -->
<g id="node8" class="node"><title>Node8</title>
<g id="a_node8"><a xlink:href="../../d7/d08/run__sim__tpc_8C.html" target="_top" xlink:title="/home/travis/build\l/AliceO2Group/AliceO2\l/macro/run_sim_tpc.C">
<polygon fill="none" stroke="black" points="489,-84.5 489,-125.5 607,-125.5 607,-84.5 489,-84.5"/>
<text text-anchor="start" x="497" y="-113.5" font-family="Helvetica,sans-Serif" font-size="10.00">/home/travis/build</text>
<text text-anchor="start" x="497" y="-102.5" font-family="Helvetica,sans-Serif" font-size="10.00">/AliceO2Group/AliceO2</text>
<text text-anchor="middle" x="548" y="-91.5" font-family="Helvetica,sans-Serif" font-size="10.00">/macro/run_sim_tpc.C</text>
</a>
</g>
</g>
<!-- Node3&#45;&gt;Node8 -->
<g id="edge7" class="edge"><title>Node3&#45;&gt;Node8</title>
<path fill="none" stroke="midnightblue" d="M593.838,-262.074C602.827,-253.437 611.009,-243.304 616,-232 627.488,-205.979 627.488,-194.021 616,-168 608.386,-150.754 593.344,-136.234 579.339,-125.591"/>
<polygon fill="midnightblue" stroke="midnightblue" points="591.256,-259.688 586.149,-268.971 595.93,-264.899 591.256,-259.688"/>
</g>
<!-- Node9 -->
<g id="node9" class="node"><title>Node9</title>
<g id="a_node9"><a xlink:href="../../d3/d56/runTPC_8cxx.html" target="_top" xlink:title="/home/travis/build\l/AliceO2Group/AliceO2\l/run/runTPC.cxx">
<polygon fill="none" stroke="black" points="701,-0.5 701,-41.5 819,-41.5 819,-0.5 701,-0.5"/>
<text text-anchor="start" x="709" y="-29.5" font-family="Helvetica,sans-Serif" font-size="10.00">/home/travis/build</text>
<text text-anchor="start" x="709" y="-18.5" font-family="Helvetica,sans-Serif" font-size="10.00">/AliceO2Group/AliceO2</text>
<text text-anchor="middle" x="760" y="-7.5" font-family="Helvetica,sans-Serif" font-size="10.00">/run/runTPC.cxx</text>
</a>
</g>
</g>
<!-- Node8&#45;&gt;Node9 -->
<g id="edge8" class="edge"><title>Node8&#45;&gt;Node9</title>
<path fill="none" stroke="midnightblue" d="M608.203,-80.7138C640.206,-68.3356 679.103,-53.2905 709.51,-41.5291"/>
<polygon fill="midnightblue" stroke="midnightblue" points="606.574,-77.5913 598.51,-84.4631 609.099,-84.1199 606.574,-77.5913"/>
</g>
<!-- Node11 -->
<g id="node11" class="node"><title>Node11</title>
<g id="a_node11"><a xlink:href="../../db/d60/testTracks_8C.html" target="_top" xlink:title="/home/travis/build\l/AliceO2Group/AliceO2\l/Detectors/TPC/reconstruction\l/macro/testTracks.C">
<polygon fill="none" stroke="black" points="915,-174 915,-226 1065,-226 1065,-174 915,-174"/>
<text text-anchor="start" x="923" y="-214" font-family="Helvetica,sans-Serif" font-size="10.00">/home/travis/build</text>
<text text-anchor="start" x="923" y="-203" font-family="Helvetica,sans-Serif" font-size="10.00">/AliceO2Group/AliceO2</text>
<text text-anchor="start" x="923" y="-192" font-family="Helvetica,sans-Serif" font-size="10.00">/Detectors/TPC/reconstruction</text>
<text text-anchor="middle" x="990" y="-181" font-family="Helvetica,sans-Serif" font-size="10.00">/macro/testTracks.C</text>
</a>
</g>
</g>
<!-- Node10&#45;&gt;Node11 -->
<g id="edge10" class="edge"><title>Node10&#45;&gt;Node11</title>
<path fill="none" stroke="midnightblue" d="M934.322,-261.21C945.003,-249.659 956.83,-236.87 966.826,-226.06"/>
<polygon fill="midnightblue" stroke="midnightblue" points="931.72,-258.869 927.5,-268.587 936.859,-263.622 931.72,-258.869"/>
</g>
<!-- Node12 -->
<g id="node12" class="node"><title>Node12</title>
<g id="a_node12"><a xlink:href="../../dd/d4b/TPC_2simulation_2include_2TPCSimulation_2DigitizerTask_8h.html" target="_top" xlink:title="/home/travis/build\l/AliceO2Group/AliceO2\l/Detectors/TPC/simulation\l/include/TPCSimulation/Digitizer\lTask.h">
<polygon fill="none" stroke="black" points="739,-168.5 739,-231.5 897,-231.5 897,-168.5 739,-168.5"/>
<text text-anchor="start" x="747" y="-219.5" font-family="Helvetica,sans-Serif" font-size="10.00">/home/travis/build</text>
<text text-anchor="start" x="747" y="-208.5" font-family="Helvetica,sans-Serif" font-size="10.00">/AliceO2Group/AliceO2</text>
<text text-anchor="start" x="747" y="-197.5" font-family="Helvetica,sans-Serif" font-size="10.00">/Detectors/TPC/simulation</text>
<text text-anchor="start" x="747" y="-186.5" font-family="Helvetica,sans-Serif" font-size="10.00">/include/TPCSimulation/Digitizer</text>
<text text-anchor="middle" x="818" y="-175.5" font-family="Helvetica,sans-Serif" font-size="10.00">Task.h</text>
</a>
</g>
</g>
<!-- Node10&#45;&gt;Node12 -->
<g id="edge11" class="edge"><title>Node10&#45;&gt;Node12</title>
<path fill="none" stroke="midnightblue" d="M873.596,-261.121C864.737,-251.541 855.096,-241.115 846.368,-231.677"/>
<polygon fill="midnightblue" stroke="midnightblue" points="871.141,-263.622 880.5,-268.587 876.28,-258.869 871.141,-263.622"/>
</g>
<!-- Node10&#45;&gt;Node13 -->
<g id="edge18" class="edge"><title>Node10&#45;&gt;Node13</title>
<path fill="none" stroke="midnightblue" d="M810.454,-277.916C781.361,-268.767 751.354,-254.435 730,-232 703.694,-204.361 695.538,-159.163 693.047,-131.076"/>
<polygon fill="midnightblue" stroke="midnightblue" points="809.689,-281.339 820.271,-280.824 811.677,-274.628 809.689,-281.339"/>
</g>
<!-- Node10&#45;&gt;Node16 -->
<g id="edge16" class="edge"><title>Node10&#45;&gt;Node16</title>
<path fill="none" stroke="midnightblue" d="M997.721,-268.704C998.819,-268.465 999.913,-268.23 1001,-268 1102.22,-246.576 1130.67,-257.295 1231,-232 1237.75,-230.297 1244.72,-228.292 1251.64,-226.134"/>
<polygon fill="midnightblue" stroke="midnightblue" points="996.709,-265.344 987.726,-270.961 998.251,-272.172 996.709,-265.344"/>
</g>
<!-- Node10&#45;&gt;Node17 -->
<g id="edge17" class="edge"><title>Node10&#45;&gt;Node17</title>
<path fill="none" stroke="midnightblue" d="M997.692,-274.797C1011.51,-272.302 1025.6,-269.943 1039,-268 1201.2,-244.477 1246.9,-271.362 1406,-232 1412.5,-230.392 1419.18,-228.329 1425.74,-226.033"/>
<polygon fill="midnightblue" stroke="midnightblue" points="996.896,-271.385 987.693,-276.634 998.16,-278.269 996.896,-271.385"/>
</g>
<!-- Node18 -->
<g id="node18" class="node"><title>Node18</title>
<g id="a_node18"><a xlink:href="../../d1/dd8/SAMPAProcessing_8cxx.html" target="_top" xlink:title="Implementation of the SAMPA response. ">
<polygon fill="none" stroke="black" points="1083.5,-174 1083.5,-226 1222.5,-226 1222.5,-174 1083.5,-174"/>
<text text-anchor="start" x="1091.5" y="-214" font-family="Helvetica,sans-Serif" font-size="10.00">/home/travis/build</text>
<text text-anchor="start" x="1091.5" y="-203" font-family="Helvetica,sans-Serif" font-size="10.00">/AliceO2Group/AliceO2</text>
<text text-anchor="start" x="1091.5" y="-192" font-family="Helvetica,sans-Serif" font-size="10.00">/Detectors/TPC/simulation</text>
<text text-anchor="middle" x="1153" y="-181" font-family="Helvetica,sans-Serif" font-size="10.00">/src/SAMPAProcessing.cxx</text>
</a>
</g>
</g>
<!-- Node10&#45;&gt;Node18 -->
<g id="edge19" class="edge"><title>Node10&#45;&gt;Node18</title>
<path fill="none" stroke="midnightblue" d="M982.677,-265.471C1011.17,-255.05 1043.58,-243.097 1073,-232 1078.02,-230.108 1083.21,-228.135 1088.42,-226.141"/>
<polygon fill="midnightblue" stroke="midnightblue" points="981.365,-262.223 973.173,-268.942 983.767,-268.798 981.365,-262.223"/>
</g>
<!-- Node12&#45;&gt;Node13 -->
<g id="edge12" class="edge"><title>Node12&#45;&gt;Node13</title>
<path fill="none" stroke="midnightblue" d="M768.197,-162.24C754.053,-151.801 738.981,-140.676 726.007,-131.1"/>
<polygon fill="midnightblue" stroke="midnightblue" points="766.269,-165.168 776.394,-168.291 770.426,-159.536 766.269,-165.168"/>
</g>
<!-- Node14 -->
<g id="node14" class="node"><title>Node14</title>
<g id="a_node14"><a xlink:href="../../d7/d11/macro_2run__digi_8C.html" target="_top" xlink:title="/home/travis/build\l/AliceO2Group/AliceO2\l/macro/run_digi.C">
<polygon fill="none" stroke="black" points="777,-84.5 777,-125.5 895,-125.5 895,-84.5 777,-84.5"/>
<text text-anchor="start" x="785" y="-113.5" font-family="Helvetica,sans-Serif" font-size="10.00">/home/travis/build</text>
<text text-anchor="start" x="785" y="-102.5" font-family="Helvetica,sans-Serif" font-size="10.00">/AliceO2Group/AliceO2</text>
<text text-anchor="middle" x="836" y="-91.5" font-family="Helvetica,sans-Serif" font-size="10.00">/macro/run_digi.C</text>
</a>
</g>
</g>
<!-- Node12&#45;&gt;Node14 -->
<g id="edge13" class="edge"><title>Node12&#45;&gt;Node14</title>
<path fill="none" stroke="midnightblue" d="M825.847,-158.458C828.055,-147.047 830.358,-135.149 832.211,-125.575"/>
<polygon fill="midnightblue" stroke="midnightblue" points="822.408,-157.808 823.944,-168.291 829.28,-159.138 822.408,-157.808"/>
</g>
<!-- Node15 -->
<g id="node15" class="node"><title>Node15</title>
<g id="a_node15"><a xlink:href="../../d3/db7/run__digi__tpc_8C.html" target="_top" xlink:title="/home/travis/build\l/AliceO2Group/AliceO2\l/macro/run_digi_tpc.C">
<polygon fill="none" stroke="black" points="913,-84.5 913,-125.5 1031,-125.5 1031,-84.5 913,-84.5"/>
<text text-anchor="start" x="921" y="-113.5" font-family="Helvetica,sans-Serif" font-size="10.00">/home/travis/build</text>
<text text-anchor="start" x="921" y="-102.5" font-family="Helvetica,sans-Serif" font-size="10.00">/AliceO2Group/AliceO2</text>
<text text-anchor="middle" x="972" y="-91.5" font-family="Helvetica,sans-Serif" font-size="10.00">/macro/run_digi_tpc.C</text>
</a>
</g>
</g>
<!-- Node12&#45;&gt;Node15 -->
<g id="edge14" class="edge"><title>Node12&#45;&gt;Node15</title>
<path fill="none" stroke="midnightblue" d="M877.46,-163.092C898.585,-150.335 921.57,-136.455 939.586,-125.575"/>
<polygon fill="midnightblue" stroke="midnightblue" points="875.603,-160.125 868.852,-168.291 879.222,-166.117 875.603,-160.125"/>
</g>
<!-- Node15&#45;&gt;Node9 -->
<g id="edge15" class="edge"><title>Node15&#45;&gt;Node9</title>
<path fill="none" stroke="midnightblue" d="M911.797,-80.7138C879.794,-68.3356 840.897,-53.2905 810.49,-41.5291"/>
<polygon fill="midnightblue" stroke="midnightblue" points="910.901,-84.1199 921.49,-84.4631 913.426,-77.5913 910.901,-84.1199"/>
</g>
</g>
</svg>
