<?xml version="1.0" encoding="UTF-8" standalone="no"?>
<!DOCTYPE svg PUBLIC "-//W3C//DTD SVG 1.1//EN"
 "http://www.w3.org/Graphics/SVG/1.1/DTD/svg11.dtd">
<!-- Generated by graphviz version 2.36.0 (20140111.2315)
 -->
<!-- Title: o2::framework::ProcessingContext Pages: 1 -->
<svg width="482pt" height="348pt"
 viewBox="0.00 0.00 482.00 348.00" xmlns="http://www.w3.org/2000/svg" xmlns:xlink="http://www.w3.org/1999/xlink">
<g id="graph0" class="graph" transform="scale(1 1) rotate(0) translate(4 344)">
<title>o2::framework::ProcessingContext</title>
<!-- Node1 -->
<g id="node1" class="node"><title>Node1</title>
<polygon fill="#bfbfbf" stroke="black" points="173,-0.5 173,-101.5 307,-101.5 307,-0.5 173,-0.5"/>
<text text-anchor="start" x="181" y="-89.5" font-family="Helvetica,sans-Serif" font-size="10.00">o2::framework::Processing</text>
<text text-anchor="middle" x="240" y="-78.5" font-family="Helvetica,sans-Serif" font-size="10.00">Context</text>
<polyline fill="none" stroke="black" points="173,-71.5 307,-71.5 "/>
<text text-anchor="middle" x="240" y="-59.5" font-family="Helvetica,sans-Serif" font-size="10.00"> </text>
<polyline fill="none" stroke="black" points="173,-52.5 307,-52.5 "/>
<text text-anchor="start" x="181" y="-40.5" font-family="Helvetica,sans-Serif" font-size="10.00">+ ProcessingContext()</text>
<text text-anchor="start" x="181" y="-29.5" font-family="Helvetica,sans-Serif" font-size="10.00">+ inputs()</text>
<text text-anchor="start" x="181" y="-18.5" font-family="Helvetica,sans-Serif" font-size="10.00">+ services()</text>
<text text-anchor="start" x="181" y="-7.5" font-family="Helvetica,sans-Serif" font-size="10.00">+ allocator()</text>
</g>
<!-- Node2 -->
<g id="node2" class="node"><title>Node2</title>
<g id="a_node2"><a xlink:href="../../df/d82/classo2_1_1framework_1_1DataAllocator.html" target="_top" xlink:title="{o2::framework::DataAllocator\n||+ DataAllocator()\l+ newChunk()\l+ adoptChunk()\l+ make()\l+ make()\l+ make()\l+ adopt()\l+ snapshot()\l+ snapshot()\l+ snapshot()\l}">
<polygon fill="none" stroke="black" points="0,-167 0,-323 144,-323 144,-167 0,-167"/>
<text text-anchor="middle" x="72" y="-311" font-family="Helvetica,sans-Serif" font-size="10.00">o2::framework::DataAllocator</text>
<polyline fill="none" stroke="black" points="0,-304 144,-304 "/>
<text text-anchor="middle" x="72" y="-292" font-family="Helvetica,sans-Serif" font-size="10.00"> </text>
<polyline fill="none" stroke="black" points="0,-285 144,-285 "/>
<text text-anchor="start" x="8" y="-273" font-family="Helvetica,sans-Serif" font-size="10.00">+ DataAllocator()</text>
<text text-anchor="start" x="8" y="-262" font-family="Helvetica,sans-Serif" font-size="10.00">+ newChunk()</text>
<text text-anchor="start" x="8" y="-251" font-family="Helvetica,sans-Serif" font-size="10.00">+ adoptChunk()</text>
<text text-anchor="start" x="8" y="-240" font-family="Helvetica,sans-Serif" font-size="10.00">+ make()</text>
<text text-anchor="start" x="8" y="-229" font-family="Helvetica,sans-Serif" font-size="10.00">+ make()</text>
<text text-anchor="start" x="8" y="-218" font-family="Helvetica,sans-Serif" font-size="10.00">+ make()</text>
<text text-anchor="start" x="8" y="-207" font-family="Helvetica,sans-Serif" font-size="10.00">+ adopt()</text>
<text text-anchor="start" x="8" y="-196" font-family="Helvetica,sans-Serif" font-size="10.00">+ snapshot()</text>
<text text-anchor="start" x="8" y="-185" font-family="Helvetica,sans-Serif" font-size="10.00">+ snapshot()</text>
<text text-anchor="start" x="8" y="-174" font-family="Helvetica,sans-Serif" font-size="10.00">+ snapshot()</text>
</a>
</g>
</g>
<!-- Node2&#45;&gt;Node1 -->
<g id="edge1" class="edge"><title>Node2&#45;&gt;Node1</title>
<path fill="none" stroke="#404040" d="M138.214,-166.972C143.208,-161.22 148.178,-155.513 153,-150 164.089,-137.322 176.039,-123.781 187.427,-110.937"/>
<polygon fill="none" stroke="#404040" points="187.633,-110.704 188.624,-103.562 195.598,-101.729 194.607,-108.872 187.633,-110.704"/>
<text text-anchor="middle" x="208" y="-123.5" font-family="Helvetica,sans-Serif" font-size="10.00"> +mAllocator</text>
</g>
<!-- Node3 -->
<g id="node3" class="node"><title>Node3</title>
<g id="a_node3"><a xlink:href="../../d7/d13/classo2_1_1framework_1_1ServiceRegistry.html" target="_top" xlink:title="{o2::framework::ServiceRegistry\n||+ registerService()\l+ get()\l}">
<polygon fill="none" stroke="black" points="162.5,-211 162.5,-279 317.5,-279 317.5,-211 162.5,-211"/>
<text text-anchor="middle" x="240" y="-267" font-family="Helvetica,sans-Serif" font-size="10.00">o2::framework::ServiceRegistry</text>
<polyline fill="none" stroke="black" points="162.5,-260 317.5,-260 "/>
<text text-anchor="middle" x="240" y="-248" font-family="Helvetica,sans-Serif" font-size="10.00"> </text>
<polyline fill="none" stroke="black" points="162.5,-241 317.5,-241 "/>
<text text-anchor="start" x="170.5" y="-229" font-family="Helvetica,sans-Serif" font-size="10.00">+ registerService()</text>
<text text-anchor="start" x="170.5" y="-218" font-family="Helvetica,sans-Serif" font-size="10.00">+ get()</text>
</a>
</g>
</g>
<!-- Node3&#45;&gt;Node1 -->
<g id="edge2" class="edge"><title>Node3&#45;&gt;Node1</title>
<path fill="none" stroke="#404040" d="M240,-210.994C240,-184.374 240,-146.183 240,-113.904"/>
<polygon fill="none" stroke="#404040" points="240,-113.859 236,-107.859 240,-101.859 244,-107.858 240,-113.859"/>
<text text-anchor="middle" x="268" y="-123.5" font-family="Helvetica,sans-Serif" font-size="10.00"> +mServices</text>
</g>
<!-- Node4 -->
<g id="node4" class="node"><title>Node4</title>
<g id="a_node4"><a xlink:href="../../df/d24/classo2_1_1framework_1_1InputRecord.html" target="_top" xlink:title="{o2::framework::InputRecord\n||+ InputRecord()\l+ getPos()\l+ getPos()\l+ getByPos()\l+ get()\l+ get()\l+ get()\l+ get()\l+ get()\l+ get()\l+ size()\l+ begin()\l+ end()\l}">
<polygon fill="none" stroke="black" points="336,-150.5 336,-339.5 474,-339.5 474,-150.5 336,-150.5"/>
<text text-anchor="middle" x="405" y="-327.5" font-family="Helvetica,sans-Serif" font-size="10.00">o2::framework::InputRecord</text>
<polyline fill="none" stroke="black" points="336,-320.5 474,-320.5 "/>
<text text-anchor="middle" x="405" y="-308.5" font-family="Helvetica,sans-Serif" font-size="10.00"> </text>
<polyline fill="none" stroke="black" points="336,-301.5 474,-301.5 "/>
<text text-anchor="start" x="344" y="-289.5" font-family="Helvetica,sans-Serif" font-size="10.00">+ InputRecord()</text>
<text text-anchor="start" x="344" y="-278.5" font-family="Helvetica,sans-Serif" font-size="10.00">+ getPos()</text>
<text text-anchor="start" x="344" y="-267.5" font-family="Helvetica,sans-Serif" font-size="10.00">+ getPos()</text>
<text text-anchor="start" x="344" y="-256.5" font-family="Helvetica,sans-Serif" font-size="10.00">+ getByPos()</text>
<text text-anchor="start" x="344" y="-245.5" font-family="Helvetica,sans-Serif" font-size="10.00">+ get()</text>
<text text-anchor="start" x="344" y="-234.5" font-family="Helvetica,sans-Serif" font-size="10.00">+ get()</text>
<text text-anchor="start" x="344" y="-223.5" font-family="Helvetica,sans-Serif" font-size="10.00">+ get()</text>
<text text-anchor="start" x="344" y="-212.5" font-family="Helvetica,sans-Serif" font-size="10.00">+ get()</text>
<text text-anchor="start" x="344" y="-201.5" font-family="Helvetica,sans-Serif" font-size="10.00">+ get()</text>
<text text-anchor="start" x="344" y="-190.5" font-family="Helvetica,sans-Serif" font-size="10.00">+ get()</text>
<text text-anchor="start" x="344" y="-179.5" font-family="Helvetica,sans-Serif" font-size="10.00">+ size()</text>
<text text-anchor="start" x="344" y="-168.5" font-family="Helvetica,sans-Serif" font-size="10.00">+ begin()</text>
<text text-anchor="start" x="344" y="-157.5" font-family="Helvetica,sans-Serif" font-size="10.00">+ end()</text>
</a>
</g>
</g>
<!-- Node4&#45;&gt;Node1 -->
<g id="edge3" class="edge"><title>Node4&#45;&gt;Node1</title>
<path fill="none" stroke="#404040" d="M335.922,-161.66C332.573,-157.714 329.252,-153.81 326,-150 314.546,-136.579 311.615,-133.282 300,-120 297.409,-117.037 294.752,-114.004 292.066,-110.944"/>
<polygon fill="none" stroke="#404040" points="291.882,-110.734 284.917,-108.867 283.961,-101.72 290.926,-103.587 291.882,-110.734"/>
<text text-anchor="middle" x="333.5" y="-123.5" font-family="Helvetica,sans-Serif" font-size="10.00"> +mInputs</text>
</g>
</g>
</svg>
