<?xml version="1.0" encoding="UTF-8" standalone="no"?>
<!DOCTYPE svg PUBLIC "-//W3C//DTD SVG 1.1//EN"
 "http://www.w3.org/Graphics/SVG/1.1/DTD/svg11.dtd">
<!-- Generated by graphviz version 2.36.0 (20140111.2315)
 -->
<!-- Title: /home/travis/build/AliceO2Group/AliceO2/Framework/DebugGUI/include/DebugGUI/imconfig.h Pages: 1 -->
<svg width="962pt" height="332pt"
 viewBox="0.00 0.00 962.00 332.00" xmlns="http://www.w3.org/2000/svg" xmlns:xlink="http://www.w3.org/1999/xlink">
<g id="graph0" class="graph" transform="scale(1 1) rotate(0) translate(4 328)">
<title>/home/travis/build/AliceO2Group/AliceO2/Framework/DebugGUI/include/DebugGUI/imconfig.h</title>
<!-- Node1 -->
<g id="node1" class="node"><title>Node1</title>
<polygon fill="#bfbfbf" stroke="black" points="425,-271 425,-323 577,-323 577,-271 425,-271"/>
<text text-anchor="start" x="433" y="-311" font-family="Helvetica,sans-Serif" font-size="10.00">/home/travis/build</text>
<text text-anchor="start" x="433" y="-300" font-family="Helvetica,sans-Serif" font-size="10.00">/AliceO2Group/AliceO2</text>
<text text-anchor="start" x="433" y="-289" font-family="Helvetica,sans-Serif" font-size="10.00">/Framework/DebugGUI/include</text>
<text text-anchor="middle" x="501" y="-278" font-family="Helvetica,sans-Serif" font-size="10.00">/DebugGUI/imconfig.h</text>
</g>
<!-- Node2 -->
<g id="node2" class="node"><title>Node2</title>
<g id="a_node2"><a xlink:href="../../d2/d35/include_2DebugGUI_2imgui_8h.html" target="_top" xlink:title="/home/travis/build\l/AliceO2Group/AliceO2\l/Framework/DebugGUI/include\l/DebugGUI/imgui.h">
<polygon fill="none" stroke="black" points="425,-181 425,-233 577,-233 577,-181 425,-181"/>
<text text-anchor="start" x="433" y="-221" font-family="Helvetica,sans-Serif" font-size="10.00">/home/travis/build</text>
<text text-anchor="start" x="433" y="-210" font-family="Helvetica,sans-Serif" font-size="10.00">/AliceO2Group/AliceO2</text>
<text text-anchor="start" x="433" y="-199" font-family="Helvetica,sans-Serif" font-size="10.00">/Framework/DebugGUI/include</text>
<text text-anchor="middle" x="501" y="-188" font-family="Helvetica,sans-Serif" font-size="10.00">/DebugGUI/imgui.h</text>
</a>
</g>
</g>
<!-- Node1&#45;&gt;Node2 -->
<g id="edge1" class="edge"><title>Node1&#45;&gt;Node2</title>
<path fill="none" stroke="midnightblue" d="M501,-260.489C501,-251.309 501,-241.616 501,-233.092"/>
<polygon fill="midnightblue" stroke="midnightblue" points="497.5,-260.547 501,-270.547 504.5,-260.547 497.5,-260.547"/>
</g>
<!-- Node3 -->
<g id="node3" class="node"><title>Node3</title>
<g id="a_node3"><a xlink:href="../../d3/d29/FrameworkGUIDebugger_8cxx.html" target="_top" xlink:title="/home/travis/build\l/AliceO2Group/AliceO2\l/Framework/Core/src/Framework\lGUIDebugger.cxx">
<polygon fill="none" stroke="black" points="-0.5,-91 -0.5,-143 160.5,-143 160.5,-91 -0.5,-91"/>
<text text-anchor="start" x="7.5" y="-131" font-family="Helvetica,sans-Serif" font-size="10.00">/home/travis/build</text>
<text text-anchor="start" x="7.5" y="-120" font-family="Helvetica,sans-Serif" font-size="10.00">/AliceO2Group/AliceO2</text>
<text text-anchor="start" x="7.5" y="-109" font-family="Helvetica,sans-Serif" font-size="10.00">/Framework/Core/src/Framework</text>
<text text-anchor="middle" x="80" y="-98" font-family="Helvetica,sans-Serif" font-size="10.00">GUIDebugger.cxx</text>
</a>
</g>
</g>
<!-- Node2&#45;&gt;Node3 -->
<g id="edge2" class="edge"><title>Node2&#45;&gt;Node3</title>
<path fill="none" stroke="midnightblue" d="M414.87,-192.201C347.786,-180.892 252.51,-163.598 170,-144 166.993,-143.286 163.938,-142.535 160.856,-141.755"/>
<polygon fill="midnightblue" stroke="midnightblue" points="414.532,-195.693 424.973,-193.895 415.69,-188.79 414.532,-195.693"/>
</g>
<!-- Node4 -->
<g id="node4" class="node"><title>Node4</title>
<g id="a_node4"><a xlink:href="../../d7/d5a/FrameworkGUIDevicesGraph_8cxx.html" target="_top" xlink:title="/home/travis/build\l/AliceO2Group/AliceO2\l/Framework/Core/src/Framework\lGUIDevicesGraph.cxx">
<polygon fill="none" stroke="black" points="178.5,-91 178.5,-143 339.5,-143 339.5,-91 178.5,-91"/>
<text text-anchor="start" x="186.5" y="-131" font-family="Helvetica,sans-Serif" font-size="10.00">/home/travis/build</text>
<text text-anchor="start" x="186.5" y="-120" font-family="Helvetica,sans-Serif" font-size="10.00">/AliceO2Group/AliceO2</text>
<text text-anchor="start" x="186.5" y="-109" font-family="Helvetica,sans-Serif" font-size="10.00">/Framework/Core/src/Framework</text>
<text text-anchor="middle" x="259" y="-98" font-family="Helvetica,sans-Serif" font-size="10.00">GUIDevicesGraph.cxx</text>
</a>
</g>
</g>
<!-- Node2&#45;&gt;Node4 -->
<g id="edge3" class="edge"><title>Node2&#45;&gt;Node4</title>
<path fill="none" stroke="midnightblue" d="M422.274,-177.372C391.916,-166.333 357.498,-153.817 328.115,-143.133"/>
<polygon fill="midnightblue" stroke="midnightblue" points="421.382,-180.772 431.976,-180.901 423.775,-174.194 421.382,-180.772"/>
</g>
<!-- Node5 -->
<g id="node5" class="node"><title>Node5</title>
<g id="a_node5"><a xlink:href="../../d4/de4/src_2imgui_8h.html" target="_top" xlink:title="/home/travis/build\l/AliceO2Group/AliceO2\l/Framework/DebugGUI/src\l/imgui.h">
<polygon fill="none" stroke="black" points="358,-91 358,-143 492,-143 492,-91 358,-91"/>
<text text-anchor="start" x="366" y="-131" font-family="Helvetica,sans-Serif" font-size="10.00">/home/travis/build</text>
<text text-anchor="start" x="366" y="-120" font-family="Helvetica,sans-Serif" font-size="10.00">/AliceO2Group/AliceO2</text>
<text text-anchor="start" x="366" y="-109" font-family="Helvetica,sans-Serif" font-size="10.00">/Framework/DebugGUI/src</text>
<text text-anchor="middle" x="425" y="-98" font-family="Helvetica,sans-Serif" font-size="10.00">/imgui.h</text>
</a>
</g>
</g>
<!-- Node2&#45;&gt;Node5 -->
<g id="edge4" class="edge"><title>Node2&#45;&gt;Node5</title>
<path fill="none" stroke="midnightblue" d="M472.367,-172.846C463.851,-162.985 454.665,-152.349 446.67,-143.092"/>
<polygon fill="midnightblue" stroke="midnightblue" points="469.833,-175.266 479.018,-180.547 475.13,-170.691 469.833,-175.266"/>
</g>
<!-- Node10 -->
<g id="node10" class="node"><title>Node10</title>
<g id="a_node10"><a xlink:href="../../dc/d77/imgui__draw_8cpp.html" target="_top" xlink:title="/home/travis/build\l/AliceO2Group/AliceO2\l/Framework/DebugGUI/src\l/imgui_draw.cpp">
<polygon fill="none" stroke="black" points="510,-91 510,-143 644,-143 644,-91 510,-91"/>
<text text-anchor="start" x="518" y="-131" font-family="Helvetica,sans-Serif" font-size="10.00">/home/travis/build</text>
<text text-anchor="start" x="518" y="-120" font-family="Helvetica,sans-Serif" font-size="10.00">/AliceO2Group/AliceO2</text>
<text text-anchor="start" x="518" y="-109" font-family="Helvetica,sans-Serif" font-size="10.00">/Framework/DebugGUI/src</text>
<text text-anchor="middle" x="577" y="-98" font-family="Helvetica,sans-Serif" font-size="10.00">/imgui_draw.cpp</text>
</a>
</g>
</g>
<!-- Node2&#45;&gt;Node10 -->
<g id="edge9" class="edge"><title>Node2&#45;&gt;Node10</title>
<path fill="none" stroke="midnightblue" d="M529.633,-172.846C538.149,-162.985 547.335,-152.349 555.33,-143.092"/>
<polygon fill="midnightblue" stroke="midnightblue" points="526.87,-170.691 522.982,-180.547 532.167,-175.266 526.87,-170.691"/>
</g>
<!-- Node11 -->
<g id="node11" class="node"><title>Node11</title>
<g id="a_node11"><a xlink:href="../../d5/d0a/imgui__demo_8cpp.html" target="_top" xlink:title="/home/travis/build\l/AliceO2Group/AliceO2\l/Framework/DebugGUI/test\l/imgui_demo.cpp">
<polygon fill="none" stroke="black" points="662.5,-91 662.5,-143 799.5,-143 799.5,-91 662.5,-91"/>
<text text-anchor="start" x="670.5" y="-131" font-family="Helvetica,sans-Serif" font-size="10.00">/home/travis/build</text>
<text text-anchor="start" x="670.5" y="-120" font-family="Helvetica,sans-Serif" font-size="10.00">/AliceO2Group/AliceO2</text>
<text text-anchor="start" x="670.5" y="-109" font-family="Helvetica,sans-Serif" font-size="10.00">/Framework/DebugGUI/test</text>
<text text-anchor="middle" x="731" y="-98" font-family="Helvetica,sans-Serif" font-size="10.00">/imgui_demo.cpp</text>
</a>
</g>
</g>
<!-- Node2&#45;&gt;Node11 -->
<g id="edge10" class="edge"><title>Node2&#45;&gt;Node11</title>
<path fill="none" stroke="midnightblue" d="M576.197,-177.229C604.958,-166.225 637.507,-153.771 665.312,-143.133"/>
<polygon fill="midnightblue" stroke="midnightblue" points="574.69,-174.058 566.601,-180.901 577.191,-180.596 574.69,-174.058"/>
</g>
<!-- Node12 -->
<g id="node12" class="node"><title>Node12</title>
<g id="a_node12"><a xlink:href="../../d2/d69/test__ImGUI_8cpp.html" target="_top" xlink:title="/home/travis/build\l/AliceO2Group/AliceO2\l/Framework/DebugGUI/test\l/test_ImGUI.cpp">
<polygon fill="none" stroke="black" points="817.5,-91 817.5,-143 954.5,-143 954.5,-91 817.5,-91"/>
<text text-anchor="start" x="825.5" y="-131" font-family="Helvetica,sans-Serif" font-size="10.00">/home/travis/build</text>
<text text-anchor="start" x="825.5" y="-120" font-family="Helvetica,sans-Serif" font-size="10.00">/AliceO2Group/AliceO2</text>
<text text-anchor="start" x="825.5" y="-109" font-family="Helvetica,sans-Serif" font-size="10.00">/Framework/DebugGUI/test</text>
<text text-anchor="middle" x="886" y="-98" font-family="Helvetica,sans-Serif" font-size="10.00">/test_ImGUI.cpp</text>
</a>
</g>
</g>
<!-- Node2&#45;&gt;Node12 -->
<g id="edge11" class="edge"><title>Node2&#45;&gt;Node12</title>
<path fill="none" stroke="midnightblue" d="M587.411,-191.471C649.288,-180.359 734.341,-163.635 808,-144 811.034,-143.191 814.123,-142.329 817.235,-141.429"/>
<polygon fill="midnightblue" stroke="midnightblue" points="586.528,-188.073 577.298,-193.274 587.757,-194.964 586.528,-188.073"/>
</g>
<!-- Node6 -->
<g id="node6" class="node"><title>Node6</title>
<g id="a_node6"><a xlink:href="../../dc/d32/DebugGUI_8cxx.html" target="_top" xlink:title="/home/travis/build\l/AliceO2Group/AliceO2\l/Framework/DebugGUI/src\l/DebugGUI.cxx">
<polygon fill="none" stroke="black" points="130,-1 130,-53 264,-53 264,-1 130,-1"/>
<text text-anchor="start" x="138" y="-41" font-family="Helvetica,sans-Serif" font-size="10.00">/home/travis/build</text>
<text text-anchor="start" x="138" y="-30" font-family="Helvetica,sans-Serif" font-size="10.00">/AliceO2Group/AliceO2</text>
<text text-anchor="start" x="138" y="-19" font-family="Helvetica,sans-Serif" font-size="10.00">/Framework/DebugGUI/src</text>
<text text-anchor="middle" x="197" y="-8" font-family="Helvetica,sans-Serif" font-size="10.00">/DebugGUI.cxx</text>
</a>
</g>
</g>
<!-- Node5&#45;&gt;Node6 -->
<g id="edge5" class="edge"><title>Node5&#45;&gt;Node6</title>
<path fill="none" stroke="midnightblue" d="M350.457,-87.229C321.946,-76.2249 289.68,-63.7712 262.117,-53.1328"/>
<polygon fill="midnightblue" stroke="midnightblue" points="349.38,-90.5649 359.969,-90.9005 351.901,-84.0344 349.38,-90.5649"/>
</g>
<!-- Node7 -->
<g id="node7" class="node"><title>Node7</title>
<g id="a_node7"><a xlink:href="../../da/d72/imgui_8cpp.html" target="_top" xlink:title="/home/travis/build\l/AliceO2Group/AliceO2\l/Framework/DebugGUI/src\l/imgui.cpp">
<polygon fill="none" stroke="black" points="282,-1 282,-53 416,-53 416,-1 282,-1"/>
<text text-anchor="start" x="290" y="-41" font-family="Helvetica,sans-Serif" font-size="10.00">/home/travis/build</text>
<text text-anchor="start" x="290" y="-30" font-family="Helvetica,sans-Serif" font-size="10.00">/AliceO2Group/AliceO2</text>
<text text-anchor="start" x="290" y="-19" font-family="Helvetica,sans-Serif" font-size="10.00">/Framework/DebugGUI/src</text>
<text text-anchor="middle" x="349" y="-8" font-family="Helvetica,sans-Serif" font-size="10.00">/imgui.cpp</text>
</a>
</g>
</g>
<!-- Node5&#45;&gt;Node7 -->
<g id="edge6" class="edge"><title>Node5&#45;&gt;Node7</title>
<path fill="none" stroke="midnightblue" d="M396.367,-82.8459C387.851,-72.9851 378.665,-62.3492 370.67,-53.0921"/>
<polygon fill="midnightblue" stroke="midnightblue" points="393.833,-85.2662 403.018,-90.5468 399.13,-80.6908 393.833,-85.2662"/>
</g>
<!-- Node8 -->
<g id="node8" class="node"><title>Node8</title>
<g id="a_node8"><a xlink:href="../../da/ddc/imgui_8cxx.html" target="_top" xlink:title="/home/travis/build\l/AliceO2Group/AliceO2\l/Framework/DebugGUI/src\l/imgui.cxx">
<polygon fill="none" stroke="black" points="434,-1 434,-53 568,-53 568,-1 434,-1"/>
<text text-anchor="start" x="442" y="-41" font-family="Helvetica,sans-Serif" font-size="10.00">/home/travis/build</text>
<text text-anchor="start" x="442" y="-30" font-family="Helvetica,sans-Serif" font-size="10.00">/AliceO2Group/AliceO2</text>
<text text-anchor="start" x="442" y="-19" font-family="Helvetica,sans-Serif" font-size="10.00">/Framework/DebugGUI/src</text>
<text text-anchor="middle" x="501" y="-8" font-family="Helvetica,sans-Serif" font-size="10.00">/imgui.cxx</text>
</a>
</g>
</g>
<!-- Node5&#45;&gt;Node8 -->
<g id="edge7" class="edge"><title>Node5&#45;&gt;Node8</title>
<path fill="none" stroke="midnightblue" d="M453.633,-82.8459C462.149,-72.9851 471.335,-62.3492 479.33,-53.0921"/>
<polygon fill="midnightblue" stroke="midnightblue" points="450.87,-80.6908 446.982,-90.5468 456.167,-85.2662 450.87,-80.6908"/>
</g>
<!-- Node9 -->
<g id="node9" class="node"><title>Node9</title>
<g id="a_node9"><a xlink:href="../../d3/d94/imgui__impl__glfw__gl3_8cpp.html" target="_top" xlink:title="/home/travis/build\l/AliceO2Group/AliceO2\l/Framework/DebugGUI/src\l/imgui_impl_glfw_gl3.cpp">
<polygon fill="none" stroke="black" points="586,-1 586,-53 720,-53 720,-1 586,-1"/>
<text text-anchor="start" x="594" y="-41" font-family="Helvetica,sans-Serif" font-size="10.00">/home/travis/build</text>
<text text-anchor="start" x="594" y="-30" font-family="Helvetica,sans-Serif" font-size="10.00">/AliceO2Group/AliceO2</text>
<text text-anchor="start" x="594" y="-19" font-family="Helvetica,sans-Serif" font-size="10.00">/Framework/DebugGUI/src</text>
<text text-anchor="middle" x="653" y="-8" font-family="Helvetica,sans-Serif" font-size="10.00">/imgui_impl_glfw_gl3.cpp</text>
</a>
</g>
</g>
<!-- Node5&#45;&gt;Node9 -->
<g id="edge8" class="edge"><title>Node5&#45;&gt;Node9</title>
<path fill="none" stroke="midnightblue" d="M499.543,-87.229C528.054,-76.2249 560.32,-63.7712 587.883,-53.1328"/>
<polygon fill="midnightblue" stroke="midnightblue" points="498.099,-84.0344 490.031,-90.9005 500.62,-90.5649 498.099,-84.0344"/>
</g>
</g>
</svg>
