<?xml version="1.0" encoding="UTF-8" standalone="no"?>
<!DOCTYPE svg PUBLIC "-//W3C//DTD SVG 1.1//EN"
 "http://www.w3.org/Graphics/SVG/1.1/DTD/svg11.dtd">
<!-- Generated by graphviz version 2.36.0 (20140111.2315)
 -->
<!-- Title: ImGuiStorage::Pair Pages: 1 -->
<svg width="276pt" height="196pt"
 viewBox="0.00 0.00 276.00 196.00" xmlns="http://www.w3.org/2000/svg" xmlns:xlink="http://www.w3.org/1999/xlink">
<g id="graph0" class="graph" transform="scale(1 1) rotate(0) translate(4 192)">
<title>ImGuiStorage::Pair</title>
<!-- Node1 -->
<g id="node1" class="node"><title>Node1</title>
<polygon fill="#bfbfbf" stroke="black" points="75,-0.5 75,-79.5 175,-79.5 175,-0.5 75,-0.5"/>
<text text-anchor="middle" x="125" y="-67.5" font-family="Helvetica,sans-Serif" font-size="10.00">ImGuiStorage::Pair</text>
<polyline fill="none" stroke="black" points="75,-60.5 175,-60.5 "/>
<text text-anchor="middle" x="125" y="-48.5" font-family="Helvetica,sans-Serif" font-size="10.00"> </text>
<polyline fill="none" stroke="black" points="75,-41.5 175,-41.5 "/>
<text text-anchor="start" x="83" y="-29.5" font-family="Helvetica,sans-Serif" font-size="10.00">+ Pair()</text>
<text text-anchor="start" x="83" y="-18.5" font-family="Helvetica,sans-Serif" font-size="10.00">+ Pair()</text>
<text text-anchor="start" x="83" y="-7.5" font-family="Helvetica,sans-Serif" font-size="10.00">+ Pair()</text>
</g>
<!-- Node2 -->
<g id="node2" class="node"><title>Node2</title>
<g id="a_node2"><a xlink:href="../../d4/dc3/classfloat.html" target="_top" xlink:title="{float\n||}">
<polygon fill="none" stroke="black" points="-0.5,-129.5 -0.5,-186.5 34.5,-186.5 34.5,-129.5 -0.5,-129.5"/>
<text text-anchor="middle" x="17" y="-174.5" font-family="Helvetica,sans-Serif" font-size="10.00">float</text>
<polyline fill="none" stroke="black" points="-0.5,-167.5 34.5,-167.5 "/>
<text text-anchor="middle" x="17" y="-155.5" font-family="Helvetica,sans-Serif" font-size="10.00"> </text>
<polyline fill="none" stroke="black" points="-0.5,-148.5 34.5,-148.5 "/>
<text text-anchor="middle" x="17" y="-136.5" font-family="Helvetica,sans-Serif" font-size="10.00"> </text>
</a>
</g>
</g>
<!-- Node2&#45;&gt;Node1 -->
<g id="edge1" class="edge"><title>Node2&#45;&gt;Node1</title>
<path fill="none" stroke="#404040" d="M28.9212,-129.301C34.1849,-118.851 41.0049,-107.262 49,-98 53.9509,-92.2648 59.5721,-86.7525 65.4637,-81.5678"/>
<polygon fill="none" stroke="#404040" points="65.6732,-81.393 67.7175,-74.4777 74.8871,-73.705 72.8428,-80.6203 65.6732,-81.393"/>
<text text-anchor="middle" x="64.5" y="-101.5" font-family="Helvetica,sans-Serif" font-size="10.00"> +val_f</text>
</g>
<!-- Node3 -->
<g id="node3" class="node"><title>Node3</title>
<polygon fill="none" stroke="#bfbfbf" points="56.5,-129 56.5,-187 85.5,-187 85.5,-129 56.5,-129"/>
<polyline fill="none" stroke="#bfbfbf" points="56.5,-167 85.5,-167 "/>
<text text-anchor="middle" x="71" y="-155" font-family="Helvetica,sans-Serif" font-size="10.00"> </text>
<polyline fill="none" stroke="#bfbfbf" points="56.5,-148 85.5,-148 "/>
<text text-anchor="middle" x="71" y="-136" font-family="Helvetica,sans-Serif" font-size="10.00"> </text>
</g>
<!-- Node3&#45;&gt;Node1 -->
<g id="edge2" class="edge"><title>Node3&#45;&gt;Node1</title>
<path fill="none" stroke="#404040" d="M77.3142,-128.778C80.0121,-118.822 83.5742,-107.698 88,-98 89.1779,-95.4191 90.461,-92.82 91.8191,-90.2291"/>
<polygon fill="none" stroke="#404040" points="91.8639,-90.1493 91.3195,-82.9588 97.7475,-79.6906 98.2919,-86.8812 91.8639,-90.1493"/>
<text text-anchor="middle" x="103.5" y="-101.5" font-family="Helvetica,sans-Serif" font-size="10.00"> +@63</text>
</g>
<!-- Node4 -->
<g id="node4" class="node"><title>Node4</title>
<polygon fill="none" stroke="#bfbfbf" points="106.5,-129.5 106.5,-186.5 135.5,-186.5 135.5,-129.5 106.5,-129.5"/>
<text text-anchor="middle" x="121" y="-174.5" font-family="Helvetica,sans-Serif" font-size="10.00">int</text>
<polyline fill="none" stroke="#bfbfbf" points="106.5,-167.5 135.5,-167.5 "/>
<text text-anchor="middle" x="121" y="-155.5" font-family="Helvetica,sans-Serif" font-size="10.00"> </text>
<polyline fill="none" stroke="#bfbfbf" points="106.5,-148.5 135.5,-148.5 "/>
<text text-anchor="middle" x="121" y="-136.5" font-family="Helvetica,sans-Serif" font-size="10.00"> </text>
</g>
<!-- Node4&#45;&gt;Node1 -->
<g id="edge3" class="edge"><title>Node4&#45;&gt;Node1</title>
<path fill="none" stroke="#404040" d="M121.958,-129.215C122.347,-117.939 122.809,-104.549 123.253,-91.6514"/>
<polygon fill="none" stroke="#404040" points="123.258,-91.5147 119.467,-85.3804 123.672,-79.5218 127.462,-85.6561 123.258,-91.5147"/>
<text text-anchor="middle" x="138" y="-101.5" font-family="Helvetica,sans-Serif" font-size="10.00"> +val_i</text>
</g>
<!-- Node5 -->
<g id="node5" class="node"><title>Node5</title>
<polygon fill="none" stroke="#bfbfbf" points="153,-129.5 153,-186.5 209,-186.5 209,-129.5 153,-129.5"/>
<text text-anchor="middle" x="181" y="-174.5" font-family="Helvetica,sans-Serif" font-size="10.00">unsigned</text>
<polyline fill="none" stroke="#bfbfbf" points="153,-167.5 209,-167.5 "/>
<text text-anchor="middle" x="181" y="-155.5" font-family="Helvetica,sans-Serif" font-size="10.00"> </text>
<polyline fill="none" stroke="#bfbfbf" points="153,-148.5 209,-148.5 "/>
<text text-anchor="middle" x="181" y="-136.5" font-family="Helvetica,sans-Serif" font-size="10.00"> </text>
</g>
<!-- Node5&#45;&gt;Node1 -->
<g id="edge4" class="edge"><title>Node5&#45;&gt;Node1</title>
<path fill="none" stroke="#404040" d="M170.59,-129.37C166.606,-119.368 161.847,-108.062 157,-98 155.774,-95.4552 154.484,-92.8664 153.154,-90.2662"/>
<polygon fill="none" stroke="#404040" points="153.123,-90.2086 146.785,-86.7697 147.522,-79.5963 153.86,-83.0352 153.123,-90.2086"/>
<text text-anchor="middle" x="175.5" y="-101.5" font-family="Helvetica,sans-Serif" font-size="10.00"> +key</text>
</g>
<!-- Node6 -->
<g id="node6" class="node"><title>Node6</title>
<polygon fill="none" stroke="#bfbfbf" points="227.5,-129.5 227.5,-186.5 268.5,-186.5 268.5,-129.5 227.5,-129.5"/>
<text text-anchor="middle" x="248" y="-174.5" font-family="Helvetica,sans-Serif" font-size="10.00">void *</text>
<polyline fill="none" stroke="#bfbfbf" points="227.5,-167.5 268.5,-167.5 "/>
<text text-anchor="middle" x="248" y="-155.5" font-family="Helvetica,sans-Serif" font-size="10.00"> </text>
<polyline fill="none" stroke="#bfbfbf" points="227.5,-148.5 268.5,-148.5 "/>
<text text-anchor="middle" x="248" y="-136.5" font-family="Helvetica,sans-Serif" font-size="10.00"> </text>
</g>
<!-- Node6&#45;&gt;Node1 -->
<g id="edge5" class="edge"><title>Node6&#45;&gt;Node1</title>
<path fill="none" stroke="#404040" d="M227.273,-134.039C216.943,-122.889 204.1,-109.459 192,-98 188.382,-94.574 184.599,-91.0954 180.75,-87.6334"/>
<polygon fill="none" stroke="#404040" points="180.683,-87.5738 173.539,-86.5903 171.699,-79.6178 178.843,-80.6013 180.683,-87.5738"/>
<text text-anchor="middle" x="220.5" y="-101.5" font-family="Helvetica,sans-Serif" font-size="10.00"> +val_p</text>
</g>
</g>
</svg>
