<?xml version="1.0" encoding="UTF-8" standalone="no"?>
<!DOCTYPE svg PUBLIC "-//W3C//DTD SVG 1.1//EN"
 "http://www.w3.org/Graphics/SVG/1.1/DTD/svg11.dtd">
<!-- Generated by graphviz version 2.36.0 (20140111.2315)
 -->
<!-- Title: /home/travis/build/AliceO2Group/AliceO2/Detectors/Passive/include/DetectorsPassive/Cave.h Pages: 1 -->
<!--zoomable 230 -->
<svg id="main" version="1.1" xmlns="http://www.w3.org/2000/svg" xmlns:xlink="http://www.w3.org/1999/xlink" xml:space="preserve" onload="init(evt)">
<style type="text/css"><![CDATA[
.edge:hover path { stroke: red; }
.edge:hover polygon { stroke: red; fill: red; }
]]></style>
<script type="text/javascript"><![CDATA[
var edges = document.getElementsByTagName('g');
if (edges && edges.length) {
  for (var i=0;i<edges.length;i++) {
    if (edges[i].id.substr(0,4)=='edge') {
      edges[i].setAttribute('class','edge');
    }
  }
}
]]></script>
        <defs>
                <circle id="rim" cx="0" cy="0" r="7"/>
                <circle id="rim2" cx="0" cy="0" r="3.5"/>
                <g id="zoomPlus">
                        <use xlink:href="#rim" fill="#404040">
                                <set attributeName="fill" to="#808080" begin="zoomplus.mouseover" end="zoomplus.mouseout"/>
                        </use>
                        <path d="M-4,0h8M0,-4v8" fill="none" stroke="white" stroke-width="1.5" pointer-events="none"/>
                </g>
                <g id="zoomMin">
                        <use xlink:href="#rim" fill="#404040">
                                <set attributeName="fill" to="#808080" begin="zoomminus.mouseover" end="zoomminus.mouseout"/>
                        </use>
                        <path d="M-4,0h8" fill="none" stroke="white" stroke-width="1.5" pointer-events="none"/>
                </g>
                <g id="dirArrow">
                        <path fill="none" stroke="white" stroke-width="1.5" d="M0,-3.0v7 M-2.5,-0.5L0,-3.0L2.5,-0.5"/>
                </g>
               <g id="resetDef">
                       <use xlink:href="#rim2" fill="#404040">
                               <set attributeName="fill" to="#808080" begin="reset.mouseover" end="reset.mouseout"/>
                       </use>
               </g>
        </defs>

<script type="text/javascript">
var viewWidth = 2140;
var viewHeight = 230;
var sectionId = 'dynsection-1';
</script>
<script xlink:href="../../svgpan.js"/>
<svg id="graph" class="graph">
<g id="viewport">
<title>/home/travis/build/AliceO2Group/AliceO2/Detectors/Passive/include/DetectorsPassive/Cave.h</title>
<!-- Node1 -->
<g id="node1" class="node"><title>Node1</title>
<polygon fill="#bfbfbf" stroke="black" points="1053,-169 1053,-221 1187,-221 1187,-169 1053,-169"/>
<text text-anchor="start" x="1061" y="-209" font-family="Helvetica,sans-Serif" font-size="10.00">/home/travis/build</text>
<text text-anchor="start" x="1061" y="-198" font-family="Helvetica,sans-Serif" font-size="10.00">/AliceO2Group/AliceO2</text>
<text text-anchor="start" x="1061" y="-187" font-family="Helvetica,sans-Serif" font-size="10.00">/Detectors/Passive/include</text>
<text text-anchor="middle" x="1120" y="-176" font-family="Helvetica,sans-Serif" font-size="10.00">/DetectorsPassive/Cave.h</text>
</g>
<!-- Node2 -->
<g id="node2" class="node"><title>Node2</title>
<g id="a_node2"><a xlink:href="../../d3/ddc/drawEMCALgeometry_8C.html" target="_top" xlink:title="/home/travis/build\l/AliceO2Group/AliceO2\l/Detectors/EMCAL/testsimulation\l/drawEMCALgeometry.C">
<polygon fill="none" stroke="black" points="0,-79 0,-131 164,-131 164,-79 0,-79"/>
<text text-anchor="start" x="8" y="-119" font-family="Helvetica,sans-Serif" font-size="10.00">/home/travis/build</text>
<text text-anchor="start" x="8" y="-108" font-family="Helvetica,sans-Serif" font-size="10.00">/AliceO2Group/AliceO2</text>
<text text-anchor="start" x="8" y="-97" font-family="Helvetica,sans-Serif" font-size="10.00">/Detectors/EMCAL/testsimulation</text>
<text text-anchor="middle" x="82" y="-86" font-family="Helvetica,sans-Serif" font-size="10.00">/drawEMCALgeometry.C</text>
</a>
</g>
</g>
<!-- Node1&#45;&gt;Node2 -->
<g id="edge1" class="edge"><title>Node1&#45;&gt;Node2</title>
<path fill="none" stroke="midnightblue" d="M1042.46,-194.481C879.946,-194.276 492.283,-187.412 173,-132 170.086,-131.494 167.132,-130.931 164.158,-130.321"/>
<polygon fill="midnightblue" stroke="midnightblue" points="1042.83,-197.982 1052.83,-194.486 1042.83,-190.982 1042.83,-197.982"/>
</g>
<!-- Node3 -->
<g id="node3" class="node"><title>Node3</title>
<g id="a_node3"><a xlink:href="../../d5/dce/PutEmcalInTop_8C.html" target="_top" xlink:title="/home/travis/build\l/AliceO2Group/AliceO2\l/Detectors/EMCAL/testsimulation\l/PutEmcalInTop.C">
<polygon fill="none" stroke="black" points="182,-79 182,-131 346,-131 346,-79 182,-79"/>
<text text-anchor="start" x="190" y="-119" font-family="Helvetica,sans-Serif" font-size="10.00">/home/travis/build</text>
<text text-anchor="start" x="190" y="-108" font-family="Helvetica,sans-Serif" font-size="10.00">/AliceO2Group/AliceO2</text>
<text text-anchor="start" x="190" y="-97" font-family="Helvetica,sans-Serif" font-size="10.00">/Detectors/EMCAL/testsimulation</text>
<text text-anchor="middle" x="264" y="-86" font-family="Helvetica,sans-Serif" font-size="10.00">/PutEmcalInTop.C</text>
</a>
</g>
</g>
<!-- Node1&#45;&gt;Node3 -->
<g id="edge2" class="edge"><title>Node1&#45;&gt;Node3</title>
<path fill="none" stroke="midnightblue" d="M1042.8,-192.766C904.05,-189.438 603.774,-177.162 355,-132 352.09,-131.472 349.139,-130.889 346.168,-130.263"/>
<polygon fill="midnightblue" stroke="midnightblue" points="1042.83,-196.268 1052.91,-193 1043,-189.27 1042.83,-196.268"/>
</g>
<!-- Node4 -->
<g id="node4" class="node"><title>Node4</title>
<g id="a_node4"><a xlink:href="../../d3/d85/Detectors_2EMCAL_2testsimulation_2run__sim__emcal_8C.html" target="_top" xlink:title="/home/travis/build\l/AliceO2Group/AliceO2\l/Detectors/EMCAL/testsimulation\l/run_sim_emcal.C">
<polygon fill="none" stroke="black" points="364,-79 364,-131 528,-131 528,-79 364,-79"/>
<text text-anchor="start" x="372" y="-119" font-family="Helvetica,sans-Serif" font-size="10.00">/home/travis/build</text>
<text text-anchor="start" x="372" y="-108" font-family="Helvetica,sans-Serif" font-size="10.00">/AliceO2Group/AliceO2</text>
<text text-anchor="start" x="372" y="-97" font-family="Helvetica,sans-Serif" font-size="10.00">/Detectors/EMCAL/testsimulation</text>
<text text-anchor="middle" x="446" y="-86" font-family="Helvetica,sans-Serif" font-size="10.00">/run_sim_emcal.C</text>
</a>
</g>
</g>
<!-- Node1&#45;&gt;Node4 -->
<g id="edge3" class="edge"><title>Node1&#45;&gt;Node4</title>
<path fill="none" stroke="midnightblue" d="M1042.48,-189.926C930.35,-183.089 716.745,-166.52 538,-132 534.741,-131.371 531.429,-130.681 528.093,-129.944"/>
<polygon fill="midnightblue" stroke="midnightblue" points="1042.49,-193.433 1052.68,-190.538 1042.91,-186.445 1042.49,-193.433"/>
</g>
<!-- Node5 -->
<g id="node5" class="node"><title>Node5</title>
<g id="a_node5"><a xlink:href="../../dd/d56/run__simu_8C.html" target="_top" xlink:title="/home/travis/build\l/AliceO2Group/AliceO2\l/Detectors/ITSMFT/MFT\l/macros/run_simu.C">
<polygon fill="none" stroke="black" points="546.5,-79 546.5,-131 671.5,-131 671.5,-79 546.5,-79"/>
<text text-anchor="start" x="554.5" y="-119" font-family="Helvetica,sans-Serif" font-size="10.00">/home/travis/build</text>
<text text-anchor="start" x="554.5" y="-108" font-family="Helvetica,sans-Serif" font-size="10.00">/AliceO2Group/AliceO2</text>
<text text-anchor="start" x="554.5" y="-97" font-family="Helvetica,sans-Serif" font-size="10.00">/Detectors/ITSMFT/MFT</text>
<text text-anchor="middle" x="609" y="-86" font-family="Helvetica,sans-Serif" font-size="10.00">/macros/run_simu.C</text>
</a>
</g>
</g>
<!-- Node1&#45;&gt;Node5 -->
<g id="edge4" class="edge"><title>Node1&#45;&gt;Node5</title>
<path fill="none" stroke="midnightblue" d="M1042.78,-187.948C954.368,-179.904 805.672,-162.962 681,-132 677.904,-131.231 674.756,-130.378 671.593,-129.463"/>
<polygon fill="midnightblue" stroke="midnightblue" points="1042.72,-191.456 1052.99,-188.862 1043.34,-184.484 1042.72,-191.456"/>
</g>
<!-- Node6 -->
<g id="node6" class="node"><title>Node6</title>
<g id="a_node6"><a xlink:href="../../dc/dd2/PutFrameInTop_8C.html" target="_top" xlink:title="/home/travis/build\l/AliceO2Group/AliceO2\l/Detectors/Passive/macro\l/PutFrameInTop.C">
<polygon fill="none" stroke="black" points="689.5,-79 689.5,-131 820.5,-131 820.5,-79 689.5,-79"/>
<text text-anchor="start" x="697.5" y="-119" font-family="Helvetica,sans-Serif" font-size="10.00">/home/travis/build</text>
<text text-anchor="start" x="697.5" y="-108" font-family="Helvetica,sans-Serif" font-size="10.00">/AliceO2Group/AliceO2</text>
<text text-anchor="start" x="697.5" y="-97" font-family="Helvetica,sans-Serif" font-size="10.00">/Detectors/Passive/macro</text>
<text text-anchor="middle" x="755" y="-86" font-family="Helvetica,sans-Serif" font-size="10.00">/PutFrameInTop.C</text>
</a>
</g>
</g>
<!-- Node1&#45;&gt;Node6 -->
<g id="edge5" class="edge"><title>Node1&#45;&gt;Node6</title>
<path fill="none" stroke="midnightblue" d="M1042.96,-180.208C984.153,-169.037 901.372,-151.919 830,-132 826.947,-131.148 823.837,-130.239 820.705,-129.291"/>
<polygon fill="midnightblue" stroke="midnightblue" points="1042.44,-183.672 1052.92,-182.087 1043.74,-176.794 1042.44,-183.672"/>
</g>
<!-- Node7 -->
<g id="node7" class="node"><title>Node7</title>
<g id="a_node7"><a xlink:href="../../da/da3/Cave_8cxx.html" target="_top" xlink:title="/home/travis/build\l/AliceO2Group/AliceO2\l/Detectors/Passive/src\l/Cave.cxx">
<polygon fill="none" stroke="black" points="839,-79 839,-131 957,-131 957,-79 839,-79"/>
<text text-anchor="start" x="847" y="-119" font-family="Helvetica,sans-Serif" font-size="10.00">/home/travis/build</text>
<text text-anchor="start" x="847" y="-108" font-family="Helvetica,sans-Serif" font-size="10.00">/AliceO2Group/AliceO2</text>
<text text-anchor="start" x="847" y="-97" font-family="Helvetica,sans-Serif" font-size="10.00">/Detectors/Passive/src</text>
<text text-anchor="middle" x="898" y="-86" font-family="Helvetica,sans-Serif" font-size="10.00">/Cave.cxx</text>
</a>
</g>
</g>
<!-- Node1&#45;&gt;Node7 -->
<g id="edge6" class="edge"><title>Node1&#45;&gt;Node7</title>
<path fill="none" stroke="midnightblue" d="M1047.35,-165.203C1018.15,-153.627 984.909,-140.45 957.212,-129.471"/>
<polygon fill="midnightblue" stroke="midnightblue" points="1046.09,-168.469 1056.68,-168.901 1048.67,-161.962 1046.09,-168.469"/>
</g>
<!-- Node8 -->
<g id="node8" class="node"><title>Node8</title>
<g id="a_node8"><a xlink:href="../../de/d69/drawTOFgeometry_8C.html" target="_top" xlink:title="/home/travis/build\l/AliceO2Group/AliceO2\l/Detectors/TOF/prototyping\l/drawTOFgeometry.C">
<polygon fill="none" stroke="black" points="975,-79 975,-131 1111,-131 1111,-79 975,-79"/>
<text text-anchor="start" x="983" y="-119" font-family="Helvetica,sans-Serif" font-size="10.00">/home/travis/build</text>
<text text-anchor="start" x="983" y="-108" font-family="Helvetica,sans-Serif" font-size="10.00">/AliceO2Group/AliceO2</text>
<text text-anchor="start" x="983" y="-97" font-family="Helvetica,sans-Serif" font-size="10.00">/Detectors/TOF/prototyping</text>
<text text-anchor="middle" x="1043" y="-86" font-family="Helvetica,sans-Serif" font-size="10.00">/drawTOFgeometry.C</text>
</a>
</g>
</g>
<!-- Node1&#45;&gt;Node8 -->
<g id="edge7" class="edge"><title>Node1&#45;&gt;Node8</title>
<path fill="none" stroke="midnightblue" d="M1090.99,-160.846C1082.36,-150.985 1073.06,-140.349 1064.96,-131.092"/>
<polygon fill="midnightblue" stroke="midnightblue" points="1088.51,-163.326 1097.73,-168.547 1093.78,-158.716 1088.51,-163.326"/>
</g>
<!-- Node9 -->
<g id="node9" class="node"><title>Node9</title>
<g id="a_node9"><a xlink:href="../../dd/d2b/o2__sim__its__ALP3_8cxx.html" target="_top" xlink:title="/home/travis/build\l/AliceO2Group/AliceO2\l/Framework/TestWorkflows\l/src/o2_sim_its_ALP3.cxx">
<polygon fill="none" stroke="black" points="1129.5,-79 1129.5,-131 1266.5,-131 1266.5,-79 1129.5,-79"/>
<text text-anchor="start" x="1137.5" y="-119" font-family="Helvetica,sans-Serif" font-size="10.00">/home/travis/build</text>
<text text-anchor="start" x="1137.5" y="-108" font-family="Helvetica,sans-Serif" font-size="10.00">/AliceO2Group/AliceO2</text>
<text text-anchor="start" x="1137.5" y="-97" font-family="Helvetica,sans-Serif" font-size="10.00">/Framework/TestWorkflows</text>
<text text-anchor="middle" x="1198" y="-86" font-family="Helvetica,sans-Serif" font-size="10.00">/src/o2_sim_its_ALP3.cxx</text>
</a>
</g>
</g>
<!-- Node1&#45;&gt;Node9 -->
<g id="edge8" class="edge"><title>Node1&#45;&gt;Node9</title>
<path fill="none" stroke="midnightblue" d="M1149.39,-160.846C1158.13,-150.985 1167.55,-140.349 1175.76,-131.092"/>
<polygon fill="midnightblue" stroke="midnightblue" points="1146.57,-158.742 1142.56,-168.547 1151.81,-163.385 1146.57,-158.742"/>
</g>
<!-- Node10 -->
<g id="node10" class="node"><title>Node10</title>
<g id="a_node10"><a xlink:href="../../d7/d11/o2__sim__tpc_8cxx.html" target="_top" xlink:title="/home/travis/build\l/AliceO2Group/AliceO2\l/Framework/TestWorkflows\l/src/o2_sim_tpc.cxx">
<polygon fill="none" stroke="black" points="1284.5,-79 1284.5,-131 1421.5,-131 1421.5,-79 1284.5,-79"/>
<text text-anchor="start" x="1292.5" y="-119" font-family="Helvetica,sans-Serif" font-size="10.00">/home/travis/build</text>
<text text-anchor="start" x="1292.5" y="-108" font-family="Helvetica,sans-Serif" font-size="10.00">/AliceO2Group/AliceO2</text>
<text text-anchor="start" x="1292.5" y="-97" font-family="Helvetica,sans-Serif" font-size="10.00">/Framework/TestWorkflows</text>
<text text-anchor="middle" x="1353" y="-86" font-family="Helvetica,sans-Serif" font-size="10.00">/src/o2_sim_tpc.cxx</text>
</a>
</g>
</g>
<!-- Node1&#45;&gt;Node10 -->
<g id="edge9" class="edge"><title>Node1&#45;&gt;Node10</title>
<path fill="none" stroke="midnightblue" d="M1196.18,-165.229C1225.31,-154.225 1258.29,-141.771 1286.46,-131.133"/>
<polygon fill="midnightblue" stroke="midnightblue" points="1194.58,-162.093 1186.46,-168.901 1197.05,-168.641 1194.58,-162.093"/>
</g>
<!-- Node11 -->
<g id="node11" class="node"><title>Node11</title>
<g id="a_node11"><a xlink:href="../../d9/d71/run__sim_8C.html" target="_top" xlink:title="/home/travis/build\l/AliceO2Group/AliceO2\l/macro/run_sim.C">
<polygon fill="none" stroke="black" points="1440,-84.5 1440,-125.5 1558,-125.5 1558,-84.5 1440,-84.5"/>
<text text-anchor="start" x="1448" y="-113.5" font-family="Helvetica,sans-Serif" font-size="10.00">/home/travis/build</text>
<text text-anchor="start" x="1448" y="-102.5" font-family="Helvetica,sans-Serif" font-size="10.00">/AliceO2Group/AliceO2</text>
<text text-anchor="middle" x="1499" y="-91.5" font-family="Helvetica,sans-Serif" font-size="10.00">/macro/run_sim.C</text>
</a>
</g>
</g>
<!-- Node1&#45;&gt;Node11 -->
<g id="edge10" class="edge"><title>Node1&#45;&gt;Node11</title>
<path fill="none" stroke="midnightblue" d="M1197.17,-182.162C1260.4,-171.607 1351.87,-154.373 1430,-132 1436.52,-130.132 1443.3,-127.924 1449.95,-125.595"/>
<polygon fill="midnightblue" stroke="midnightblue" points="1196.57,-178.715 1187.27,-183.799 1197.71,-185.621 1196.57,-178.715"/>
</g>
<!-- Node12 -->
<g id="node12" class="node"><title>Node12</title>
<g id="a_node12"><a xlink:href="../../db/df3/macro_2run__sim__emcal_8C.html" target="_top" xlink:title="/home/travis/build\l/AliceO2Group/AliceO2\l/macro/run_sim_emcal.C">
<polygon fill="none" stroke="black" points="1576,-84.5 1576,-125.5 1702,-125.5 1702,-84.5 1576,-84.5"/>
<text text-anchor="start" x="1584" y="-113.5" font-family="Helvetica,sans-Serif" font-size="10.00">/home/travis/build</text>
<text text-anchor="start" x="1584" y="-102.5" font-family="Helvetica,sans-Serif" font-size="10.00">/AliceO2Group/AliceO2</text>
<text text-anchor="middle" x="1639" y="-91.5" font-family="Helvetica,sans-Serif" font-size="10.00">/macro/run_sim_emcal.C</text>
</a>
</g>
</g>
<!-- Node1&#45;&gt;Node12 -->
<g id="edge11" class="edge"><title>Node1&#45;&gt;Node12</title>
<path fill="none" stroke="midnightblue" d="M1197.19,-188.218C1287.04,-180.359 1439.38,-163.525 1567,-132 1574.23,-130.215 1581.73,-127.967 1589.06,-125.544"/>
<polygon fill="midnightblue" stroke="midnightblue" points="1196.75,-184.743 1187.09,-189.087 1197.35,-191.717 1196.75,-184.743"/>
</g>
<!-- Node13 -->
<g id="node13" class="node"><title>Node13</title>
<g id="a_node13"><a xlink:href="../../d5/dd2/run__sim__its__ALP3_8C.html" target="_top" xlink:title="/home/travis/build\l/AliceO2Group/AliceO2\l/macro/run_sim_its_ALP3.C">
<polygon fill="none" stroke="black" points="1720,-84.5 1720,-125.5 1860,-125.5 1860,-84.5 1720,-84.5"/>
<text text-anchor="start" x="1728" y="-113.5" font-family="Helvetica,sans-Serif" font-size="10.00">/home/travis/build</text>
<text text-anchor="start" x="1728" y="-102.5" font-family="Helvetica,sans-Serif" font-size="10.00">/AliceO2Group/AliceO2</text>
<text text-anchor="middle" x="1790" y="-91.5" font-family="Helvetica,sans-Serif" font-size="10.00">/macro/run_sim_its_ALP3.C</text>
</a>
</g>
</g>
<!-- Node1&#45;&gt;Node13 -->
<g id="edge12" class="edge"><title>Node1&#45;&gt;Node13</title>
<path fill="none" stroke="midnightblue" d="M1197.2,-191.152C1310.85,-185.781 1529.36,-170.95 1711,-132 1719.05,-130.274 1727.43,-128.028 1735.59,-125.579"/>
<polygon fill="midnightblue" stroke="midnightblue" points="1197.03,-187.656 1187.2,-191.613 1197.35,-194.649 1197.03,-187.656"/>
</g>
<!-- Node14 -->
<g id="node14" class="node"><title>Node14</title>
<g id="a_node14"><a xlink:href="../../d4/d5f/run__sim__mft_8C.html" target="_top" xlink:title="/home/travis/build\l/AliceO2Group/AliceO2\l/macro/run_sim_mft.C">
<polygon fill="none" stroke="black" points="1878,-84.5 1878,-125.5 1996,-125.5 1996,-84.5 1878,-84.5"/>
<text text-anchor="start" x="1886" y="-113.5" font-family="Helvetica,sans-Serif" font-size="10.00">/home/travis/build</text>
<text text-anchor="start" x="1886" y="-102.5" font-family="Helvetica,sans-Serif" font-size="10.00">/AliceO2Group/AliceO2</text>
<text text-anchor="middle" x="1937" y="-91.5" font-family="Helvetica,sans-Serif" font-size="10.00">/macro/run_sim_mft.C</text>
</a>
</g>
</g>
<!-- Node1&#45;&gt;Node14 -->
<g id="edge13" class="edge"><title>Node1&#45;&gt;Node14</title>
<path fill="none" stroke="midnightblue" d="M1197.49,-194.734C1334.66,-194.46 1628.45,-186.775 1869,-132 1876.27,-130.344 1883.8,-128.071 1891.09,-125.552"/>
<polygon fill="midnightblue" stroke="midnightblue" points="1197.08,-191.234 1187.09,-194.741 1197.09,-198.234 1197.08,-191.234"/>
</g>
<!-- Node15 -->
<g id="node15" class="node"><title>Node15</title>
<g id="a_node15"><a xlink:href="../../d7/d08/run__sim__tpc_8C.html" target="_top" xlink:title="/home/travis/build\l/AliceO2Group/AliceO2\l/macro/run_sim_tpc.C">
<polygon fill="none" stroke="black" points="2014,-84.5 2014,-125.5 2132,-125.5 2132,-84.5 2014,-84.5"/>
<text text-anchor="start" x="2022" y="-113.5" font-family="Helvetica,sans-Serif" font-size="10.00">/home/travis/build</text>
<text text-anchor="start" x="2022" y="-102.5" font-family="Helvetica,sans-Serif" font-size="10.00">/AliceO2Group/AliceO2</text>
<text text-anchor="middle" x="2073" y="-91.5" font-family="Helvetica,sans-Serif" font-size="10.00">/macro/run_sim_tpc.C</text>
</a>
</g>
</g>
<!-- Node1&#45;&gt;Node15 -->
<g id="edge14" class="edge"><title>Node1&#45;&gt;Node15</title>
<path fill="none" stroke="midnightblue" d="M1197.35,-191.506C1383.44,-185.035 1852.05,-165.813 2005,-132 2012.4,-130.363 2020.07,-128.065 2027.48,-125.506"/>
<polygon fill="midnightblue" stroke="midnightblue" points="1196.98,-188.017 1187.1,-191.859 1197.22,-195.013 1196.98,-188.017"/>
</g>
<!-- Node16 -->
<g id="node16" class="node"><title>Node16</title>
<g id="a_node16"><a xlink:href="../../d3/d56/runTPC_8cxx.html" target="_top" xlink:title="/home/travis/build\l/AliceO2Group/AliceO2\l/run/runTPC.cxx">
<polygon fill="none" stroke="black" points="2014,-0.5 2014,-41.5 2132,-41.5 2132,-0.5 2014,-0.5"/>
<text text-anchor="start" x="2022" y="-29.5" font-family="Helvetica,sans-Serif" font-size="10.00">/home/travis/build</text>
<text text-anchor="start" x="2022" y="-18.5" font-family="Helvetica,sans-Serif" font-size="10.00">/AliceO2Group/AliceO2</text>
<text text-anchor="middle" x="2073" y="-7.5" font-family="Helvetica,sans-Serif" font-size="10.00">/run/runTPC.cxx</text>
</a>
</g>
</g>
<!-- Node15&#45;&gt;Node16 -->
<g id="edge15" class="edge"><title>Node15&#45;&gt;Node16</title>
<path fill="none" stroke="midnightblue" d="M2073,-73.881C2073,-63.1328 2073,-51.309 2073,-41.6671"/>
<polygon fill="midnightblue" stroke="midnightblue" points="2069.5,-74.1501 2073,-84.1501 2076.5,-74.1501 2069.5,-74.1501"/>
</g>
</g>
</svg>
        <g id="navigator" transform="translate(0 0)" fill="#404254">
                <rect fill="#f2f5e9" fill-opacity="0.5" stroke="#606060" stroke-width=".5" x="0" y="0" width="60" height="60"/>
                <use id="zoomplus" xlink:href="#zoomPlus" x="17" y="9" onmousedown="handleZoom(evt,'in')"/>
                <use id="zoomminus" xlink:href="#zoomMin" x="42" y="9" onmousedown="handleZoom(evt,'out')"/>
                <use id="reset" xlink:href="#resetDef" x="30" y="36" onmousedown="handleReset()"/>
                <g id="arrowUp" xlink:href="#dirArrow" transform="translate(30 24)" onmousedown="handlePan(0,-1)">
                  <use xlink:href="#rim" fill="#404040">
                        <set attributeName="fill" to="#808080" begin="arrowUp.mouseover" end="arrowUp.mouseout"/>
                  </use>
                  <path fill="none" stroke="white" stroke-width="1.5" d="M0,-3.0v7 M-2.5,-0.5L0,-3.0L2.5,-0.5"/>
                </g>
                <g id="arrowRight" xlink:href="#dirArrow" transform="rotate(90) translate(36 -43)" onmousedown="handlePan(1,0)">
                  <use xlink:href="#rim" fill="#404040">
                        <set attributeName="fill" to="#808080" begin="arrowRight.mouseover" end="arrowRight.mouseout"/>
                  </use>
                  <path fill="none" stroke="white" stroke-width="1.5" d="M0,-3.0v7 M-2.5,-0.5L0,-3.0L2.5,-0.5"/>
                </g>
                <g id="arrowDown" xlink:href="#dirArrow" transform="rotate(180) translate(-30 -48)" onmousedown="handlePan(0,1)">
                  <use xlink:href="#rim" fill="#404040">
                        <set attributeName="fill" to="#808080" begin="arrowDown.mouseover" end="arrowDown.mouseout"/>
                  </use>
                  <path fill="none" stroke="white" stroke-width="1.5" d="M0,-3.0v7 M-2.5,-0.5L0,-3.0L2.5,-0.5"/>
                </g>
                <g id="arrowLeft" xlink:href="#dirArrow" transform="rotate(270) translate(-36 17)" onmousedown="handlePan(-1,0)">
                  <use xlink:href="#rim" fill="#404040">
                        <set attributeName="fill" to="#808080" begin="arrowLeft.mouseover" end="arrowLeft.mouseout"/>
                  </use>
                  <path fill="none" stroke="white" stroke-width="1.5" d="M0,-3.0v7 M-2.5,-0.5L0,-3.0L2.5,-0.5"/>
                </g>
        </g>
        <svg viewBox="0 0 15 15" width="100%" height="30px" preserveAspectRatio="xMaxYMin meet">
         <g id="arrow_out" transform="scale(0.3 0.3)">
          <a xlink:href="Cave_8h__dep__incl_org.svg" target="_base">
           <rect id="button" ry="5" rx="5" y="6" x="6" height="38" width="38"
                fill="#f2f5e9" fill-opacity="0.5" stroke="#606060" stroke-width="1.0"/>
           <path id="arrow"
             d="M 11.500037,31.436501 C 11.940474,20.09759 22.043105,11.32322 32.158766,21.979434 L 37.068811,17.246167 C 37.068811,17.246167 37.088388,32 37.088388,32 L 22.160133,31.978069 C 22.160133,31.978069 26.997745,27.140456 26.997745,27.140456 C 18.528582,18.264221 13.291696,25.230495 11.500037,31.436501 z"
             style="fill:#404040;"/>
          </a>
         </g>
        </svg>
</svg>
