<?xml version="1.0" encoding="UTF-8" standalone="no"?>
<!DOCTYPE svg PUBLIC "-//W3C//DTD SVG 1.1//EN"
 "http://www.w3.org/Graphics/SVG/1.1/DTD/svg11.dtd">
<!-- Generated by graphviz version 2.36.0 (20140111.2315)
 -->
<!-- Title: /home/travis/build/AliceO2Group/AliceO2/Detectors/ITSMFT/ITS/base/src/GeometryTGeo.cxx Pages: 1 -->
<!--zoomable 422 -->
<svg id="main" version="1.1" xmlns="http://www.w3.org/2000/svg" xmlns:xlink="http://www.w3.org/1999/xlink" xml:space="preserve" onload="init(evt)">
<style type="text/css"><![CDATA[
.edge:hover path { stroke: red; }
.edge:hover polygon { stroke: red; fill: red; }
]]></style>
<script type="text/javascript"><![CDATA[
var edges = document.getElementsByTagName('g');
if (edges && edges.length) {
  for (var i=0;i<edges.length;i++) {
    if (edges[i].id.substr(0,4)=='edge') {
      edges[i].setAttribute('class','edge');
    }
  }
}
]]></script>
        <defs>
                <circle id="rim" cx="0" cy="0" r="7"/>
                <circle id="rim2" cx="0" cy="0" r="3.5"/>
                <g id="zoomPlus">
                        <use xlink:href="#rim" fill="#404040">
                                <set attributeName="fill" to="#808080" begin="zoomplus.mouseover" end="zoomplus.mouseout"/>
                        </use>
                        <path d="M-4,0h8M0,-4v8" fill="none" stroke="white" stroke-width="1.5" pointer-events="none"/>
                </g>
                <g id="zoomMin">
                        <use xlink:href="#rim" fill="#404040">
                                <set attributeName="fill" to="#808080" begin="zoomminus.mouseover" end="zoomminus.mouseout"/>
                        </use>
                        <path d="M-4,0h8" fill="none" stroke="white" stroke-width="1.5" pointer-events="none"/>
                </g>
                <g id="dirArrow">
                        <path fill="none" stroke="white" stroke-width="1.5" d="M0,-3.0v7 M-2.5,-0.5L0,-3.0L2.5,-0.5"/>
                </g>
               <g id="resetDef">
                       <use xlink:href="#rim2" fill="#404040">
                               <set attributeName="fill" to="#808080" begin="reset.mouseover" end="reset.mouseout"/>
                       </use>
               </g>
        </defs>

<script type="text/javascript">
var viewWidth = 2072;
var viewHeight = 422;
var sectionId = 'dynsection-0';
</script>
<script xlink:href="../../svgpan.js"/>
<svg id="graph" class="graph">
<g id="viewport">
<title>/home/travis/build/AliceO2Group/AliceO2/Detectors/ITSMFT/ITS/base/src/GeometryTGeo.cxx</title>
<!-- Node1 -->
<g id="node1" class="node"><title>Node1</title>
<polygon fill="#bfbfbf" stroke="black" points="1229,-361 1229,-413 1375,-413 1375,-361 1229,-361"/>
<text text-anchor="start" x="1237" y="-401" font-family="Helvetica,sans-Serif" font-size="10.00">/home/travis/build</text>
<text text-anchor="start" x="1237" y="-390" font-family="Helvetica,sans-Serif" font-size="10.00">/AliceO2Group/AliceO2</text>
<text text-anchor="start" x="1237" y="-379" font-family="Helvetica,sans-Serif" font-size="10.00">/Detectors/ITSMFT/ITS</text>
<text text-anchor="middle" x="1302" y="-368" font-family="Helvetica,sans-Serif" font-size="10.00">/base/src/GeometryTGeo.cxx</text>
</g>
<!-- Node2 -->
<g id="node2" class="node"><title>Node2</title>
<g id="a_node2"><a xlink:href="../../d3/dba/SegmentationAlpide_8h.html" target="_top" xlink:title="Definition of the SegmentationAlpide class. ">
<polygon fill="none" stroke="black" points="553.5,-248.5 553.5,-267.5 726.5,-267.5 726.5,-248.5 553.5,-248.5"/>
<text text-anchor="middle" x="640" y="-255.5" font-family="Helvetica,sans-Serif" font-size="10.00">ITSMFTBase/SegmentationAlpide.h</text>
</a>
</g>
</g>
<!-- Node1&#45;&gt;Node2 -->
<g id="edge1" class="edge"><title>Node1&#45;&gt;Node2</title>
<path fill="none" stroke="midnightblue" d="M1228.66,-384.637C1126.15,-381.093 935.078,-368.493 779,-324 736.332,-311.836 690.35,-287.988 663.425,-272.807"/>
<polygon fill="midnightblue" stroke="midnightblue" points="664.826,-269.577 654.409,-267.644 661.348,-275.651 664.826,-269.577"/>
</g>
<!-- Node4 -->
<g id="node4" class="node"><title>Node4</title>
<g id="a_node4"><a xlink:href="../../df/d9a/ITS_2base_2include_2ITSBase_2GeometryTGeo_8h.html" target="_top" xlink:title="ITSBase/GeometryTGeo.h">
<polygon fill="none" stroke="black" points="382.5,-304.5 382.5,-323.5 515.5,-323.5 515.5,-304.5 382.5,-304.5"/>
<text text-anchor="middle" x="449" y="-311.5" font-family="Helvetica,sans-Serif" font-size="10.00">ITSBase/GeometryTGeo.h</text>
</a>
</g>
</g>
<!-- Node1&#45;&gt;Node4 -->
<g id="edge3" class="edge"><title>Node1&#45;&gt;Node4</title>
<path fill="none" stroke="midnightblue" d="M1228.9,-379.916C1069,-366.606 689.386,-335.009 525.983,-321.408"/>
<polygon fill="midnightblue" stroke="midnightblue" points="525.793,-317.88 515.537,-320.538 525.212,-324.856 525.793,-317.88"/>
</g>
<!-- Node8 -->
<g id="node8" class="node"><title>Node8</title>
<polygon fill="none" stroke="#bfbfbf" points="767,-74.5 767,-93.5 843,-93.5 843,-74.5 767,-74.5"/>
<text text-anchor="middle" x="805" y="-81.5" font-family="Helvetica,sans-Serif" font-size="10.00">TGeoMatrix.h</text>
</g>
<!-- Node1&#45;&gt;Node8 -->
<g id="edge62" class="edge"><title>Node1&#45;&gt;Node8</title>
<path fill="none" stroke="midnightblue" d="M1305.16,-360.752C1311.11,-311.165 1322.45,-204.747 1312,-192 1179.82,-30.7634 1053.85,-152.221 852,-100 848.1,-98.991 844.047,-97.8465 840.028,-96.6503"/>
<polygon fill="midnightblue" stroke="midnightblue" points="840.805,-93.227 830.217,-93.6182 838.738,-99.9149 840.805,-93.227"/>
</g>
<!-- Node9 -->
<g id="node9" class="node"><title>Node9</title>
<polygon fill="none" stroke="#bfbfbf" points="629.5,-192.5 629.5,-211.5 688.5,-211.5 688.5,-192.5 629.5,-192.5"/>
<text text-anchor="middle" x="659" y="-199.5" font-family="Helvetica,sans-Serif" font-size="10.00">TObject.h</text>
</g>
<!-- Node1&#45;&gt;Node9 -->
<g id="edge67" class="edge"><title>Node1&#45;&gt;Node9</title>
<path fill="none" stroke="midnightblue" d="M1228.73,-372.351C1137.94,-354.203 979.403,-318.444 850,-268 830.362,-260.345 826.687,-255.529 807,-248 787.167,-240.415 735.365,-225.031 698.656,-214.376"/>
<polygon fill="midnightblue" stroke="midnightblue" points="699.321,-210.925 688.742,-211.507 697.375,-217.649 699.321,-210.925"/>
</g>
<!-- Node17 -->
<g id="node17" class="node"><title>Node17</title>
<g id="a_node17"><a xlink:href="../../db/dcc/Detectors_2Base_2include_2DetectorsBase_2GeometryManager_8h.html" target="_top" xlink:title="DetectorsBase/GeometryManager.h">
<polygon fill="none" stroke="black" points="859.5,-248.5 859.5,-267.5 1032.5,-267.5 1032.5,-248.5 859.5,-248.5"/>
<text text-anchor="middle" x="946" y="-255.5" font-family="Helvetica,sans-Serif" font-size="10.00">DetectorsBase/GeometryManager.h</text>
</a>
</g>
</g>
<!-- Node1&#45;&gt;Node17 -->
<g id="edge52" class="edge"><title>Node1&#45;&gt;Node17</title>
<path fill="none" stroke="midnightblue" d="M1228.99,-370.522C1183.14,-359.777 1123.19,-343.842 1072,-324 1034.55,-309.486 993.66,-287.07 968.922,-272.72"/>
<polygon fill="midnightblue" stroke="midnightblue" points="970.67,-269.687 960.273,-267.648 967.129,-275.726 970.67,-269.687"/>
</g>
<!-- Node18 -->
<g id="node18" class="node"><title>Node18</title>
<polygon fill="none" stroke="#bfbfbf" points="923,-192.5 923,-211.5 1009,-211.5 1009,-192.5 923,-192.5"/>
<text text-anchor="middle" x="966" y="-199.5" font-family="Helvetica,sans-Serif" font-size="10.00">TGeoManager.h</text>
</g>
<!-- Node1&#45;&gt;Node18 -->
<g id="edge56" class="edge"><title>Node1&#45;&gt;Node18</title>
<path fill="none" stroke="midnightblue" d="M1255.99,-360.938C1183.78,-321.611 1046.34,-246.756 990.5,-216.344"/>
<polygon fill="midnightblue" stroke="midnightblue" points="992.113,-213.237 981.657,-211.527 988.764,-219.384 992.113,-213.237"/>
</g>
<!-- Node20 -->
<g id="node20" class="node"><title>Node20</title>
<polygon fill="none" stroke="#bfbfbf" points="1027,-192.5 1027,-211.5 1137,-211.5 1137,-192.5 1027,-192.5"/>
<text text-anchor="middle" x="1082" y="-199.5" font-family="Helvetica,sans-Serif" font-size="10.00">TGeoPhysicalNode.h</text>
</g>
<!-- Node1&#45;&gt;Node20 -->
<g id="edge57" class="edge"><title>Node1&#45;&gt;Node20</title>
<path fill="none" stroke="midnightblue" d="M1271.87,-360.938C1225.68,-322.514 1138.71,-250.175 1100.64,-218.508"/>
<polygon fill="midnightblue" stroke="midnightblue" points="1102.4,-215.419 1092.48,-211.715 1097.93,-220.801 1102.4,-215.419"/>
</g>
<!-- Node21 -->
<g id="node21" class="node"><title>Node21</title>
<polygon fill="none" stroke="#bfbfbf" points="1155.5,-192.5 1155.5,-211.5 1232.5,-211.5 1232.5,-192.5 1155.5,-192.5"/>
<text text-anchor="middle" x="1194" y="-199.5" font-family="Helvetica,sans-Serif" font-size="10.00">TGeoShape.h</text>
</g>
<!-- Node1&#45;&gt;Node21 -->
<g id="edge58" class="edge"><title>Node1&#45;&gt;Node21</title>
<path fill="none" stroke="midnightblue" d="M1287.21,-360.938C1265.01,-323.325 1223.63,-253.212 1204.37,-220.566"/>
<polygon fill="midnightblue" stroke="midnightblue" points="1207.24,-218.548 1199.14,-211.715 1201.21,-222.106 1207.24,-218.548"/>
</g>
<!-- Node22 -->
<g id="node22" class="node"><title>Node22</title>
<polygon fill="none" stroke="#bfbfbf" points="1250.5,-192.5 1250.5,-211.5 1303.5,-211.5 1303.5,-192.5 1250.5,-192.5"/>
<text text-anchor="middle" x="1277" y="-199.5" font-family="Helvetica,sans-Serif" font-size="10.00">TMath.h</text>
</g>
<!-- Node1&#45;&gt;Node22 -->
<g id="edge59" class="edge"><title>Node1&#45;&gt;Node22</title>
<path fill="none" stroke="midnightblue" d="M1295.52,-360.806C1292.85,-349.602 1289.92,-336.208 1288,-324 1282.33,-288.009 1279.3,-245.498 1277.93,-221.653"/>
<polygon fill="midnightblue" stroke="midnightblue" points="1281.42,-221.354 1277.39,-211.556 1274.43,-221.729 1281.42,-221.354"/>
</g>
<!-- Node23 -->
<g id="node23" class="node"><title>Node23</title>
<polygon fill="none" stroke="#bfbfbf" points="591.5,-136.5 591.5,-155.5 662.5,-155.5 662.5,-136.5 591.5,-136.5"/>
<text text-anchor="middle" x="627" y="-143.5" font-family="Helvetica,sans-Serif" font-size="10.00">FairLogger.h</text>
</g>
<!-- Node1&#45;&gt;Node23 -->
<g id="edge54" class="edge"><title>Node1&#45;&gt;Node23</title>
<path fill="none" stroke="midnightblue" d="M1228.72,-375.973C1158.81,-365.652 1050.84,-347.74 959,-324 857.216,-297.689 834.949,-280.595 735,-248 684.082,-231.395 651.713,-255.158 620,-212 610.146,-198.589 613.876,-179.218 618.862,-165.113"/>
<polygon fill="midnightblue" stroke="midnightblue" points="622.228,-166.123 622.716,-155.539 615.735,-163.509 622.228,-166.123"/>
</g>
<!-- Node24 -->
<g id="node24" class="node"><title>Node24</title>
<g id="a_node24"><a xlink:href="../../dd/d76/Cartesian3D_8h.html" target="_top" xlink:title="MathUtils/Cartesian3D.h">
<polygon fill="none" stroke="black" points="1307.5,-136.5 1307.5,-155.5 1432.5,-155.5 1432.5,-136.5 1307.5,-136.5"/>
<text text-anchor="middle" x="1370" y="-143.5" font-family="Helvetica,sans-Serif" font-size="10.00">MathUtils/Cartesian3D.h</text>
</a>
</g>
</g>
<!-- Node1&#45;&gt;Node24 -->
<g id="edge53" class="edge"><title>Node1&#45;&gt;Node24</title>
<path fill="none" stroke="midnightblue" d="M1309.15,-360.875C1322.86,-312.687 1352.56,-208.289 1364.69,-165.68"/>
<polygon fill="midnightblue" stroke="midnightblue" points="1368.12,-166.398 1367.49,-155.822 1361.39,-164.482 1368.12,-166.398"/>
</g>
<!-- Node36 -->
<g id="node36" class="node"><title>Node36</title>
<polygon fill="none" stroke="#bfbfbf" points="71.5,-192.5 71.5,-211.5 140.5,-211.5 140.5,-192.5 71.5,-192.5"/>
<text text-anchor="middle" x="106" y="-199.5" font-family="Helvetica,sans-Serif" font-size="10.00">TObjArray.h</text>
</g>
<!-- Node1&#45;&gt;Node36 -->
<g id="edge66" class="edge"><title>Node1&#45;&gt;Node36</title>
<path fill="none" stroke="midnightblue" d="M1228.85,-386.068C1071.26,-385.135 688.421,-377.058 373,-324 279.859,-308.333 249.115,-316.385 168,-268 147.37,-255.694 129.12,-234.665 117.855,-219.865"/>
<polygon fill="midnightblue" stroke="midnightblue" points="120.521,-217.582 111.784,-211.589 114.876,-221.722 120.521,-217.582"/>
</g>
<!-- Node37 -->
<g id="node37" class="node"><title>Node37</title>
<polygon fill="none" stroke="#bfbfbf" points="1368.5,-304.5 1368.5,-323.5 1441.5,-323.5 1441.5,-304.5 1368.5,-304.5"/>
<text text-anchor="middle" x="1405" y="-311.5" font-family="Helvetica,sans-Serif" font-size="10.00">TGeoBBox.h</text>
</g>
<!-- Node1&#45;&gt;Node37 -->
<g id="edge55" class="edge"><title>Node1&#45;&gt;Node37</title>
<path fill="none" stroke="midnightblue" d="M1338.31,-360.968C1353.56,-350.458 1370.76,-338.603 1383.87,-329.565"/>
<polygon fill="midnightblue" stroke="midnightblue" points="1385.97,-332.367 1392.22,-323.81 1382,-326.603 1385.97,-332.367"/>
</g>
<!-- Node38 -->
<g id="node38" class="node"><title>Node38</title>
<polygon fill="none" stroke="#bfbfbf" points="1460,-304.5 1460,-323.5 1516,-323.5 1516,-304.5 1460,-304.5"/>
<text text-anchor="middle" x="1488" y="-311.5" font-family="Helvetica,sans-Serif" font-size="10.00">TString.h</text>
</g>
<!-- Node1&#45;&gt;Node38 -->
<g id="edge60" class="edge"><title>Node1&#45;&gt;Node38</title>
<path fill="none" stroke="midnightblue" d="M1367.58,-360.968C1397.54,-349.529 1431.68,-336.497 1455.94,-327.237"/>
<polygon fill="midnightblue" stroke="midnightblue" points="1457.27,-330.475 1465.37,-323.639 1454.78,-323.935 1457.27,-330.475"/>
</g>
<!-- Node39 -->
<g id="node39" class="node"><title>Node39</title>
<polygon fill="none" stroke="#bfbfbf" points="1534,-304.5 1534,-323.5 1590,-323.5 1590,-304.5 1534,-304.5"/>
<text text-anchor="middle" x="1562" y="-311.5" font-family="Helvetica,sans-Serif" font-size="10.00">TClass.h</text>
</g>
<!-- Node1&#45;&gt;Node39 -->
<g id="edge61" class="edge"><title>Node1&#45;&gt;Node39</title>
<path fill="none" stroke="midnightblue" d="M1375.12,-366.034C1423.51,-352.818 1485.01,-336.025 1523.95,-325.391"/>
<polygon fill="midnightblue" stroke="midnightblue" points="1525.1,-328.705 1533.82,-322.694 1523.25,-321.953 1525.1,-328.705"/>
</g>
<!-- Node40 -->
<g id="node40" class="node"><title>Node40</title>
<polygon fill="none" stroke="#bfbfbf" points="1608,-304.5 1608,-323.5 1680,-323.5 1680,-304.5 1608,-304.5"/>
<text text-anchor="middle" x="1644" y="-311.5" font-family="Helvetica,sans-Serif" font-size="10.00">TGeoNode.h</text>
</g>
<!-- Node1&#45;&gt;Node40 -->
<g id="edge63" class="edge"><title>Node1&#45;&gt;Node40</title>
<path fill="none" stroke="midnightblue" d="M1375.37,-370.769C1442.95,-356.739 1541.13,-336.357 1598.18,-324.512"/>
<polygon fill="midnightblue" stroke="midnightblue" points="1598.92,-327.933 1608,-322.474 1597.5,-321.08 1598.92,-327.933"/>
</g>
<!-- Node41 -->
<g id="node41" class="node"><title>Node41</title>
<polygon fill="none" stroke="#bfbfbf" points="1698,-304.5 1698,-323.5 1780,-323.5 1780,-304.5 1698,-304.5"/>
<text text-anchor="middle" x="1739" y="-311.5" font-family="Helvetica,sans-Serif" font-size="10.00">TGeoVolume.h</text>
</g>
<!-- Node1&#45;&gt;Node41 -->
<g id="edge64" class="edge"><title>Node1&#45;&gt;Node41</title>
<path fill="none" stroke="midnightblue" d="M1375.18,-374.705C1450.85,-362.93 1572.68,-343.697 1687.77,-324.185"/>
<polygon fill="midnightblue" stroke="midnightblue" points="1688.54,-327.605 1697.81,-322.479 1687.37,-320.703 1688.54,-327.605"/>
</g>
<!-- Node42 -->
<g id="node42" class="node"><title>Node42</title>
<polygon fill="none" stroke="#bfbfbf" points="1798.5,-304.5 1798.5,-323.5 1873.5,-323.5 1873.5,-304.5 1798.5,-304.5"/>
<text text-anchor="middle" x="1836" y="-311.5" font-family="Helvetica,sans-Serif" font-size="10.00">TMathBase.h</text>
</g>
<!-- Node1&#45;&gt;Node42 -->
<g id="edge65" class="edge"><title>Node1&#45;&gt;Node42</title>
<path fill="none" stroke="midnightblue" d="M1375.22,-378.124C1468.64,-367.752 1635.4,-348.153 1788.28,-324.025"/>
<polygon fill="midnightblue" stroke="midnightblue" points="1789,-327.454 1798.33,-322.429 1787.9,-320.541 1789,-327.454"/>
</g>
<!-- Node43 -->
<g id="node43" class="node"><title>Node43</title>
<polygon fill="none" stroke="#bfbfbf" points="1892,-304.5 1892,-323.5 1938,-323.5 1938,-304.5 1892,-304.5"/>
<text text-anchor="middle" x="1915" y="-311.5" font-family="Helvetica,sans-Serif" font-size="10.00">cctype</text>
</g>
<!-- Node1&#45;&gt;Node43 -->
<g id="edge68" class="edge"><title>Node1&#45;&gt;Node43</title>
<path fill="none" stroke="midnightblue" d="M1375.34,-381.928C1483.98,-375.064 1694.08,-358.603 1881.63,-323.746"/>
<polygon fill="midnightblue" stroke="midnightblue" points="1882.49,-327.145 1891.67,-321.858 1881.2,-320.266 1882.49,-327.145"/>
</g>
<!-- Node44 -->
<g id="node44" class="node"><title>Node44</title>
<polygon fill="none" stroke="#bfbfbf" points="1956.5,-304.5 1956.5,-323.5 1999.5,-323.5 1999.5,-304.5 1956.5,-304.5"/>
<text text-anchor="middle" x="1978" y="-311.5" font-family="Helvetica,sans-Serif" font-size="10.00">cstdio</text>
</g>
<!-- Node1&#45;&gt;Node44 -->
<g id="edge69" class="edge"><title>Node1&#45;&gt;Node44</title>
<path fill="none" stroke="midnightblue" d="M1375.18,-383.413C1493.57,-378.251 1734.37,-363.709 1946.37,-323.738"/>
<polygon fill="midnightblue" stroke="midnightblue" points="1947.28,-327.129 1956.45,-321.816 1945.97,-320.253 1947.28,-327.129"/>
</g>
<!-- Node45 -->
<g id="node45" class="node"><title>Node45</title>
<polygon fill="none" stroke="#bfbfbf" points="2018,-304.5 2018,-323.5 2064,-323.5 2064,-304.5 2018,-304.5"/>
<text text-anchor="middle" x="2041" y="-311.5" font-family="Helvetica,sans-Serif" font-size="10.00">cstring</text>
</g>
<!-- Node1&#45;&gt;Node45 -->
<g id="edge70" class="edge"><title>Node1&#45;&gt;Node45</title>
<path fill="none" stroke="midnightblue" d="M1375.23,-383.874C1502.27,-379.246 1771.62,-365.278 2007.54,-323.721"/>
<polygon fill="midnightblue" stroke="midnightblue" points="2008.45,-327.114 2017.68,-321.913 2007.22,-320.222 2008.45,-327.114"/>
</g>
<!-- Node3 -->
<g id="node3" class="node"><title>Node3</title>
<polygon fill="none" stroke="#bfbfbf" points="510,-74.5 510,-93.5 566,-93.5 566,-74.5 510,-74.5"/>
<text text-anchor="middle" x="538" y="-81.5" font-family="Helvetica,sans-Serif" font-size="10.00">Rtypes.h</text>
</g>
<!-- Node2&#45;&gt;Node3 -->
<g id="edge2" class="edge"><title>Node2&#45;&gt;Node3</title>
<path fill="none" stroke="midnightblue" d="M626.589,-248.479C614.757,-240.362 597.763,-227.156 587,-212 562.683,-177.76 548.515,-129.861 542.123,-103.764"/>
<polygon fill="midnightblue" stroke="midnightblue" points="545.463,-102.673 539.788,-93.7259 538.645,-104.259 545.463,-102.673"/>
</g>
<!-- Node4&#45;&gt;Node3 -->
<g id="edge51" class="edge"><title>Node4&#45;&gt;Node3</title>
<path fill="none" stroke="midnightblue" d="M452.38,-304.341C465.459,-270.835 512.911,-149.273 530.963,-103.027"/>
<polygon fill="midnightblue" stroke="midnightblue" points="534.24,-104.256 534.616,-93.6681 527.72,-101.711 534.24,-104.256"/>
</g>
<!-- Node5 -->
<g id="node5" class="node"><title>Node5</title>
<polygon fill="none" stroke="#bfbfbf" points="28,-136.5 28,-155.5 72,-155.5 72,-136.5 28,-136.5"/>
<text text-anchor="middle" x="50" y="-143.5" font-family="Helvetica,sans-Serif" font-size="10.00">vector</text>
</g>
<!-- Node4&#45;&gt;Node5 -->
<g id="edge4" class="edge"><title>Node4&#45;&gt;Node5</title>
<path fill="none" stroke="midnightblue" d="M382.247,-308.482C324.373,-303.123 238.994,-291.717 168,-268 117.464,-251.117 93.5479,-254.938 62,-212 52.3389,-198.851 49.7079,-180.257 49.278,-166.322"/>
<polygon fill="midnightblue" stroke="midnightblue" points="52.7797,-165.952 49.3285,-155.935 45.7798,-165.918 52.7797,-165.952"/>
</g>
<!-- Node6 -->
<g id="node6" class="node"><title>Node6</title>
<polygon fill="none" stroke="#bfbfbf" points="100,-6.5 100,-25.5 138,-25.5 138,-6.5 100,-6.5"/>
<text text-anchor="middle" x="119" y="-13.5" font-family="Helvetica,sans-Serif" font-size="10.00">array</text>
</g>
<!-- Node4&#45;&gt;Node6 -->
<g id="edge5" class="edge"><title>Node4&#45;&gt;Node6</title>
<path fill="none" stroke="midnightblue" d="M382.265,-310.442C257.187,-303.819 0,-280.749 0,-203 0,-203 0,-203 0,-145 0,-90.9647 57.5872,-50.166 92.6408,-30.3369"/>
<polygon fill="midnightblue" stroke="midnightblue" points="94.3436,-33.395 101.441,-25.5289 90.9873,-27.252 94.3436,-33.395"/>
</g>
<!-- Node7 -->
<g id="node7" class="node"><title>Node7</title>
<polygon fill="none" stroke="#bfbfbf" points="341.5,-192.5 341.5,-211.5 382.5,-211.5 382.5,-192.5 341.5,-192.5"/>
<text text-anchor="middle" x="362" y="-199.5" font-family="Helvetica,sans-Serif" font-size="10.00">string</text>
</g>
<!-- Node4&#45;&gt;Node7 -->
<g id="edge6" class="edge"><title>Node4&#45;&gt;Node7</title>
<path fill="none" stroke="midnightblue" d="M436.727,-304.417C425.41,-296.064 408.648,-282.532 397,-268 385.374,-253.496 375.688,-234.564 369.475,-220.876"/>
<polygon fill="midnightblue" stroke="midnightblue" points="372.631,-219.359 365.426,-211.591 366.215,-222.157 372.631,-219.359"/>
</g>
<!-- Node4&#45;&gt;Node8 -->
<g id="edge7" class="edge"><title>Node4&#45;&gt;Node8</title>
<path fill="none" stroke="midnightblue" d="M456.007,-304.456C463.34,-295.465 475.137,-280.861 485,-268 529.305,-210.23 521.14,-175.956 582,-136 635.045,-101.175 708.742,-89.9541 756.65,-86.439"/>
<polygon fill="midnightblue" stroke="midnightblue" points="757.008,-89.9232 766.761,-85.7834 756.555,-82.9379 757.008,-89.9232"/>
</g>
<!-- Node4&#45;&gt;Node9 -->
<g id="edge8" class="edge"><title>Node4&#45;&gt;Node9</title>
<path fill="none" stroke="midnightblue" d="M515.745,-312.137C591.257,-309.581 707.359,-300.33 735,-268 752.561,-247.46 720.673,-227.868 692.975,-215.665"/>
<polygon fill="midnightblue" stroke="midnightblue" points="694.016,-212.306 683.44,-211.667 691.309,-218.762 694.016,-212.306"/>
</g>
<!-- Node10 -->
<g id="node10" class="node"><title>Node10</title>
<g id="a_node10"><a xlink:href="../../d6/d31/DetID_8h.html" target="_top" xlink:title="DetectorsBase/DetID.h">
<polygon fill="none" stroke="black" points="263.5,-136.5 263.5,-155.5 382.5,-155.5 382.5,-136.5 263.5,-136.5"/>
<text text-anchor="middle" x="323" y="-143.5" font-family="Helvetica,sans-Serif" font-size="10.00">DetectorsBase/DetID.h</text>
</a>
</g>
</g>
<!-- Node4&#45;&gt;Node10 -->
<g id="edge9" class="edge"><title>Node4&#45;&gt;Node10</title>
<path fill="none" stroke="midnightblue" d="M446.657,-304.486C440.511,-283.394 422.214,-227.835 391,-192 379.668,-178.99 363.714,-168.169 350.107,-160.4"/>
<polygon fill="midnightblue" stroke="midnightblue" points="351.603,-157.23 341.147,-155.521 348.255,-163.377 351.603,-157.23"/>
</g>
<!-- Node13 -->
<g id="node13" class="node"><title>Node13</title>
<g id="a_node13"><a xlink:href="../../d9/ded/Utils_8h.html" target="_top" xlink:title="DetectorsBase/Utils.h">
<polygon fill="none" stroke="black" points="378.5,-74.5 378.5,-93.5 491.5,-93.5 491.5,-74.5 378.5,-74.5"/>
<text text-anchor="middle" x="435" y="-81.5" font-family="Helvetica,sans-Serif" font-size="10.00">DetectorsBase/Utils.h</text>
</a>
</g>
</g>
<!-- Node4&#45;&gt;Node13 -->
<g id="edge19" class="edge"><title>Node4&#45;&gt;Node13</title>
<path fill="none" stroke="midnightblue" d="M448.468,-304.341C446.424,-271.046 439.041,-150.805 436.161,-103.912"/>
<polygon fill="midnightblue" stroke="midnightblue" points="439.639,-103.435 435.532,-93.6681 432.652,-103.864 439.639,-103.435"/>
</g>
<!-- Node4&#45;&gt;Node17 -->
<g id="edge20" class="edge"><title>Node4&#45;&gt;Node17</title>
<path fill="none" stroke="midnightblue" d="M515.512,-305.773C603.648,-296.197 759.394,-279.275 857.421,-268.624"/>
<polygon fill="midnightblue" stroke="midnightblue" points="858.042,-272.077 867.606,-267.518 857.286,-265.118 858.042,-272.077"/>
</g>
<!-- Node34 -->
<g id="node34" class="node"><title>Node34</title>
<g id="a_node34"><a xlink:href="../../d0/d2d/common_2base_2include_2ITSMFTBase_2GeometryTGeo_8h.html" target="_top" xlink:title="ITSMFTBase/GeometryTGeo.h">
<polygon fill="none" stroke="black" points="177.5,-248.5 177.5,-267.5 330.5,-267.5 330.5,-248.5 177.5,-248.5"/>
<text text-anchor="middle" x="254" y="-255.5" font-family="Helvetica,sans-Serif" font-size="10.00">ITSMFTBase/GeometryTGeo.h</text>
</a>
</g>
</g>
<!-- Node4&#45;&gt;Node34 -->
<g id="edge41" class="edge"><title>Node4&#45;&gt;Node34</title>
<path fill="none" stroke="midnightblue" d="M418.102,-304.444C384.726,-295.201 331.406,-280.436 294.651,-270.257"/>
<polygon fill="midnightblue" stroke="midnightblue" points="295.325,-266.812 284.754,-267.516 293.457,-273.558 295.325,-266.812"/>
</g>
<!-- Node10&#45;&gt;Node3 -->
<g id="edge13" class="edge"><title>Node10&#45;&gt;Node3</title>
<path fill="none" stroke="midnightblue" d="M362.426,-136.489C398.567,-128.331 453.385,-115.059 500,-100 502.63,-99.1504 505.34,-98.2118 508.044,-97.2311"/>
<polygon fill="midnightblue" stroke="midnightblue" points="509.557,-100.401 517.663,-93.5784 507.072,-93.8567 509.557,-100.401"/>
</g>
<!-- Node10&#45;&gt;Node6 -->
<g id="edge11" class="edge"><title>Node10&#45;&gt;Node6</title>
<path fill="none" stroke="midnightblue" d="M263.466,-141.267C228.956,-136.311 186.612,-125.098 157,-100 137.394,-83.3822 127.379,-54.5106 122.671,-35.5791"/>
<polygon fill="midnightblue" stroke="midnightblue" points="126.072,-34.748 120.48,-25.7489 119.239,-36.2708 126.072,-34.748"/>
</g>
<!-- Node11 -->
<g id="node11" class="node"><title>Node11</title>
<polygon fill="none" stroke="#bfbfbf" points="234,-74.5 234,-93.5 280,-93.5 280,-74.5 234,-74.5"/>
<text text-anchor="middle" x="257" y="-81.5" font-family="Helvetica,sans-Serif" font-size="10.00">cstdint</text>
</g>
<!-- Node10&#45;&gt;Node11 -->
<g id="edge10" class="edge"><title>Node10&#45;&gt;Node11</title>
<path fill="none" stroke="midnightblue" d="M313.544,-136.403C303.252,-127.047 286.584,-111.895 274.006,-100.46"/>
<polygon fill="midnightblue" stroke="midnightblue" points="276.192,-97.7176 266.439,-93.5806 271.484,-102.897 276.192,-97.7176"/>
</g>
<!-- Node12 -->
<g id="node12" class="node"><title>Node12</title>
<polygon fill="none" stroke="#bfbfbf" points="298,-74.5 298,-93.5 360,-93.5 360,-74.5 298,-74.5"/>
<text text-anchor="middle" x="329" y="-81.5" font-family="Helvetica,sans-Serif" font-size="10.00">type_traits</text>
</g>
<!-- Node10&#45;&gt;Node12 -->
<g id="edge12" class="edge"><title>Node10&#45;&gt;Node12</title>
<path fill="none" stroke="midnightblue" d="M323.86,-136.403C324.706,-127.938 326.027,-114.728 327.118,-103.82"/>
<polygon fill="midnightblue" stroke="midnightblue" points="330.629,-103.879 328.142,-93.5806 323.664,-103.183 330.629,-103.879"/>
</g>
<!-- Node10&#45;&gt;Node13 -->
<g id="edge14" class="edge"><title>Node10&#45;&gt;Node13</title>
<path fill="none" stroke="midnightblue" d="M339.047,-136.403C357.593,-126.468 388.34,-109.997 410.022,-98.3812"/>
<polygon fill="midnightblue" stroke="midnightblue" points="411.821,-101.388 418.983,-93.5806 408.515,-95.2177 411.821,-101.388"/>
</g>
<!-- Node16 -->
<g id="node16" class="node"><title>Node16</title>
<polygon fill="none" stroke="#bfbfbf" points="166.5,-74.5 166.5,-93.5 215.5,-93.5 215.5,-74.5 166.5,-74.5"/>
<text text-anchor="middle" x="191" y="-81.5" font-family="Helvetica,sans-Serif" font-size="10.00">cassert</text>
</g>
<!-- Node10&#45;&gt;Node16 -->
<g id="edge18" class="edge"><title>Node10&#45;&gt;Node16</title>
<path fill="none" stroke="midnightblue" d="M304.088,-136.403C281.837,-126.29 244.688,-109.404 219.074,-97.761"/>
<polygon fill="midnightblue" stroke="midnightblue" points="220.429,-94.5324 209.877,-93.5806 217.533,-100.905 220.429,-94.5324"/>
</g>
<!-- Node13&#45;&gt;Node6 -->
<g id="edge17" class="edge"><title>Node13&#45;&gt;Node6</title>
<path fill="none" stroke="midnightblue" d="M397.464,-74.47C387.866,-72.3236 377.557,-70.0484 368,-68 288.543,-50.9699 194.551,-32.0501 148.052,-22.7719"/>
<polygon fill="midnightblue" stroke="midnightblue" points="148.571,-19.3066 138.08,-20.7847 147.203,-26.1716 148.571,-19.3066"/>
</g>
<!-- Node14 -->
<g id="node14" class="node"><title>Node14</title>
<g id="a_node14"><a xlink:href="../../d1/daa/Base_2include_2DetectorsBase_2Constants_8h.html" target="_top" xlink:title="DetectorsBase/Constants.h">
<polygon fill="none" stroke="black" points="311,-6.5 311,-25.5 449,-25.5 449,-6.5 311,-6.5"/>
<text text-anchor="middle" x="380" y="-13.5" font-family="Helvetica,sans-Serif" font-size="10.00">DetectorsBase/Constants.h</text>
</a>
</g>
</g>
<!-- Node13&#45;&gt;Node14 -->
<g id="edge15" class="edge"><title>Node13&#45;&gt;Node14</title>
<path fill="none" stroke="midnightblue" d="M427.81,-74.3717C419.211,-64.053 404.626,-46.5513 393.821,-33.5854"/>
<polygon fill="midnightblue" stroke="midnightblue" points="396.458,-31.2827 387.368,-25.8411 391.081,-35.764 396.458,-31.2827"/>
</g>
<!-- Node15 -->
<g id="node15" class="node"><title>Node15</title>
<polygon fill="none" stroke="#bfbfbf" points="467,-6.5 467,-25.5 511,-25.5 511,-6.5 467,-6.5"/>
<text text-anchor="middle" x="489" y="-13.5" font-family="Helvetica,sans-Serif" font-size="10.00">cmath</text>
</g>
<!-- Node13&#45;&gt;Node15 -->
<g id="edge16" class="edge"><title>Node13&#45;&gt;Node15</title>
<path fill="none" stroke="midnightblue" d="M442.06,-74.3717C450.502,-64.053 464.822,-46.5513 475.43,-33.5854"/>
<polygon fill="midnightblue" stroke="midnightblue" points="478.143,-35.7971 481.766,-25.8411 472.725,-31.3644 478.143,-35.7971"/>
</g>
<!-- Node17&#45;&gt;Node9 -->
<g id="edge26" class="edge"><title>Node17&#45;&gt;Node9</title>
<path fill="none" stroke="midnightblue" d="M898.456,-248.466C849.434,-239.604 770.802,-225.211 703,-212 701.565,-211.72 700.104,-211.433 698.629,-211.142"/>
<polygon fill="midnightblue" stroke="midnightblue" points="699.3,-207.707 688.807,-209.175 697.925,-214.57 699.3,-207.707"/>
</g>
<!-- Node17&#45;&gt;Node10 -->
<g id="edge27" class="edge"><title>Node17&#45;&gt;Node10</title>
<path fill="none" stroke="midnightblue" d="M886.009,-248.453C843.365,-241.345 785.169,-229.53 736,-212 717.652,-205.458 715.628,-197.697 697,-192 594.264,-160.58 469.376,-150.954 393.069,-148.09"/>
<polygon fill="midnightblue" stroke="midnightblue" points="392.747,-144.577 382.632,-147.73 392.505,-151.573 392.747,-144.577"/>
</g>
<!-- Node17&#45;&gt;Node18 -->
<g id="edge21" class="edge"><title>Node17&#45;&gt;Node18</title>
<path fill="none" stroke="midnightblue" d="M949.303,-248.083C951.982,-240.849 955.849,-230.409 959.186,-221.397"/>
<polygon fill="midnightblue" stroke="midnightblue" points="962.568,-222.344 962.759,-211.751 956.004,-219.913 962.568,-222.344"/>
</g>
<!-- Node19 -->
<g id="node19" class="node"><title>Node19</title>
<polygon fill="none" stroke="#bfbfbf" points="745.5,-192.5 745.5,-211.5 828.5,-211.5 828.5,-192.5 745.5,-192.5"/>
<text text-anchor="middle" x="787" y="-199.5" font-family="Helvetica,sans-Serif" font-size="10.00">TGeoMaterial.h</text>
</g>
<!-- Node17&#45;&gt;Node19 -->
<g id="edge22" class="edge"><title>Node17&#45;&gt;Node19</title>
<path fill="none" stroke="midnightblue" d="M920.806,-248.444C894.057,-239.359 851.597,-224.939 821.695,-214.783"/>
<polygon fill="midnightblue" stroke="midnightblue" points="822.671,-211.418 812.076,-211.516 820.419,-218.046 822.671,-211.418"/>
</g>
<!-- Node17&#45;&gt;Node20 -->
<g id="edge23" class="edge"><title>Node17&#45;&gt;Node20</title>
<path fill="none" stroke="midnightblue" d="M967.55,-248.444C990.031,-239.517 1025.49,-225.439 1050.98,-215.317"/>
<polygon fill="midnightblue" stroke="midnightblue" points="1052.55,-218.46 1060.55,-211.516 1049.97,-211.954 1052.55,-218.46"/>
</g>
<!-- Node17&#45;&gt;Node21 -->
<g id="edge24" class="edge"><title>Node17&#45;&gt;Node21</title>
<path fill="none" stroke="midnightblue" d="M985.296,-248.444C1028.69,-238.996 1098.58,-223.776 1145.39,-213.585"/>
<polygon fill="midnightblue" stroke="midnightblue" points="1146.27,-216.975 1155.3,-211.428 1144.78,-210.135 1146.27,-216.975"/>
</g>
<!-- Node17&#45;&gt;Node22 -->
<g id="edge25" class="edge"><title>Node17&#45;&gt;Node22</title>
<path fill="none" stroke="midnightblue" d="M1013.98,-248.47C1071.69,-240.807 1156.88,-228.511 1240.41,-211.951"/>
<polygon fill="midnightblue" stroke="midnightblue" points="1241.21,-215.361 1250.33,-209.964 1239.83,-208.497 1241.21,-215.361"/>
</g>
<!-- Node17&#45;&gt;Node23 -->
<g id="edge28" class="edge"><title>Node17&#45;&gt;Node23</title>
<path fill="none" stroke="midnightblue" d="M934.563,-248.44C915.399,-234.509 875.142,-206.988 837,-192 782.544,-170.602 715.944,-158.529 672.549,-152.389"/>
<polygon fill="midnightblue" stroke="midnightblue" points="672.96,-148.912 662.578,-151.024 672.011,-155.848 672.96,-148.912"/>
</g>
<!-- Node17&#45;&gt;Node24 -->
<g id="edge29" class="edge"><title>Node17&#45;&gt;Node24</title>
<path fill="none" stroke="midnightblue" d="M935.671,-248.099C921.287,-234.66 898.628,-208.963 914,-192 939.199,-164.192 1175,-152.929 1297.24,-148.929"/>
<polygon fill="midnightblue" stroke="midnightblue" points="1297.39,-152.426 1307.27,-148.609 1297.17,-145.43 1297.39,-152.426"/>
</g>
<!-- Node24&#45;&gt;Node3 -->
<g id="edge33" class="edge"><title>Node24&#45;&gt;Node3</title>
<path fill="none" stroke="midnightblue" d="M1307.46,-140.49C1144.1,-128.709 708.063,-97.2642 576.261,-87.7592"/>
<polygon fill="midnightblue" stroke="midnightblue" points="576.46,-84.2645 566.234,-87.0361 575.956,-91.2464 576.46,-84.2645"/>
</g>
<!-- Node24&#45;&gt;Node8 -->
<g id="edge34" class="edge"><title>Node24&#45;&gt;Node8</title>
<path fill="none" stroke="midnightblue" d="M1307.4,-137.499C1302.53,-136.971 1297.69,-136.465 1293,-136 1097.31,-116.582 1044.92,-138.141 852,-100 847.434,-99.0972 842.688,-97.9018 838.045,-96.5786"/>
<polygon fill="midnightblue" stroke="midnightblue" points="838.741,-93.1311 828.154,-93.542 836.687,-99.8228 838.741,-93.1311"/>
</g>
<!-- Node25 -->
<g id="node25" class="node"><title>Node25</title>
<polygon fill="none" stroke="#bfbfbf" points="861.5,-74.5 861.5,-93.5 1010.5,-93.5 1010.5,-74.5 861.5,-74.5"/>
<text text-anchor="middle" x="936" y="-81.5" font-family="Helvetica,sans-Serif" font-size="10.00">Math/GenVector/Rotation3D.h</text>
</g>
<!-- Node24&#45;&gt;Node25 -->
<g id="edge30" class="edge"><title>Node24&#45;&gt;Node25</title>
<path fill="none" stroke="midnightblue" d="M1307.33,-137.317C1222.05,-126.796 1073.89,-108.272 1020,-100 1010.65,-98.5656 1000.75,-96.914 991.139,-95.2427"/>
<polygon fill="midnightblue" stroke="midnightblue" points="991.727,-91.7924 981.271,-93.5021 990.511,-98.686 991.727,-91.7924"/>
</g>
<!-- Node26 -->
<g id="node26" class="node"><title>Node26</title>
<polygon fill="none" stroke="#bfbfbf" points="1029,-74.5 1029,-93.5 1185,-93.5 1185,-74.5 1029,-74.5"/>
<text text-anchor="middle" x="1107" y="-81.5" font-family="Helvetica,sans-Serif" font-size="10.00">Math/GenVector/Transform3D.h</text>
</g>
<!-- Node24&#45;&gt;Node26 -->
<g id="edge31" class="edge"><title>Node24&#45;&gt;Node26</title>
<path fill="none" stroke="midnightblue" d="M1332.6,-136.467C1285.67,-125.76 1205.15,-107.392 1154.08,-95.74"/>
<polygon fill="midnightblue" stroke="midnightblue" points="1154.8,-92.3154 1144.27,-93.5034 1153.24,-99.14 1154.8,-92.3154"/>
</g>
<!-- Node27 -->
<g id="node27" class="node"><title>Node27</title>
<polygon fill="none" stroke="#bfbfbf" points="1203,-74.5 1203,-93.5 1363,-93.5 1363,-74.5 1203,-74.5"/>
<text text-anchor="middle" x="1283" y="-81.5" font-family="Helvetica,sans-Serif" font-size="10.00">Math/GenVector/Translation3D.h</text>
</g>
<!-- Node24&#45;&gt;Node27 -->
<g id="edge32" class="edge"><title>Node24&#45;&gt;Node27</title>
<path fill="none" stroke="midnightblue" d="M1357.54,-136.403C1343.58,-126.78 1320.74,-111.024 1304.01,-99.4891"/>
<polygon fill="midnightblue" stroke="midnightblue" points="1305.66,-96.3767 1295.44,-93.5806 1301.69,-102.139 1305.66,-96.3767"/>
</g>
<!-- Node28 -->
<g id="node28" class="node"><title>Node28</title>
<polygon fill="none" stroke="#bfbfbf" points="1381.5,-69 1381.5,-99 1532.5,-99 1532.5,-69 1381.5,-69"/>
<text text-anchor="start" x="1389.5" y="-87" font-family="Helvetica,sans-Serif" font-size="10.00">Math/GenVector/Displacement</text>
<text text-anchor="middle" x="1457" y="-76" font-family="Helvetica,sans-Serif" font-size="10.00">Vector3D.h</text>
</g>
<!-- Node24&#45;&gt;Node28 -->
<g id="edge35" class="edge"><title>Node24&#45;&gt;Node28</title>
<path fill="none" stroke="midnightblue" d="M1382.46,-136.403C1394.36,-128.201 1412.71,-115.545 1428.23,-104.844"/>
<polygon fill="midnightblue" stroke="midnightblue" points="1430.25,-107.699 1436.5,-99.1408 1426.28,-101.937 1430.25,-107.699"/>
</g>
<!-- Node29 -->
<g id="node29" class="node"><title>Node29</title>
<polygon fill="none" stroke="#bfbfbf" points="1551,-74.5 1551,-93.5 1727,-93.5 1727,-74.5 1551,-74.5"/>
<text text-anchor="middle" x="1639" y="-81.5" font-family="Helvetica,sans-Serif" font-size="10.00">Math/GenVector/PositionVector3D.h</text>
</g>
<!-- Node24&#45;&gt;Node29 -->
<g id="edge36" class="edge"><title>Node24&#45;&gt;Node29</title>
<path fill="none" stroke="midnightblue" d="M1408.26,-136.467C1456.26,-125.76 1538.61,-107.392 1590.85,-95.74"/>
<polygon fill="midnightblue" stroke="midnightblue" points="1591.88,-99.0965 1600.88,-93.5034 1590.35,-92.2644 1591.88,-99.0965"/>
</g>
<!-- Node30 -->
<g id="node30" class="node"><title>Node30</title>
<g id="a_node30"><a xlink:href="../../d2/dd0/Cartesian2D_8h.html" target="_top" xlink:title="MathUtils/Cartesian2D.h">
<polygon fill="none" stroke="black" points="1744.5,-74.5 1744.5,-93.5 1869.5,-93.5 1869.5,-74.5 1744.5,-74.5"/>
<text text-anchor="middle" x="1807" y="-81.5" font-family="Helvetica,sans-Serif" font-size="10.00">MathUtils/Cartesian2D.h</text>
</a>
</g>
</g>
<!-- Node24&#45;&gt;Node30 -->
<g id="edge37" class="edge"><title>Node24&#45;&gt;Node30</title>
<path fill="none" stroke="midnightblue" d="M1432.55,-138.879C1505.42,-131.381 1629.33,-117.49 1735,-100 1742.79,-98.7099 1751.03,-97.1671 1759.03,-95.5692"/>
<polygon fill="midnightblue" stroke="midnightblue" points="1759.9,-98.9638 1769,-93.5306 1758.5,-92.1059 1759.9,-98.9638"/>
</g>
<!-- Node33 -->
<g id="node33" class="node"><title>Node33</title>
<polygon fill="none" stroke="#bfbfbf" points="1888,-74.5 1888,-93.5 1942,-93.5 1942,-74.5 1888,-74.5"/>
<text text-anchor="middle" x="1915" y="-81.5" font-family="Helvetica,sans-Serif" font-size="10.00">iostream</text>
</g>
<!-- Node24&#45;&gt;Node33 -->
<g id="edge40" class="edge"><title>Node24&#45;&gt;Node33</title>
<path fill="none" stroke="midnightblue" d="M1432.74,-145.374C1529.63,-144.632 1720.92,-137.9 1878,-100 1881.07,-99.2598 1884.21,-98.3084 1887.32,-97.2443"/>
<polygon fill="midnightblue" stroke="midnightblue" points="1888.82,-100.418 1896.91,-93.5821 1886.32,-93.8779 1888.82,-100.418"/>
</g>
<!-- Node31 -->
<g id="node31" class="node"><title>Node31</title>
<polygon fill="none" stroke="#bfbfbf" points="1822.5,-1 1822.5,-31 1973.5,-31 1973.5,-1 1822.5,-1"/>
<text text-anchor="start" x="1830.5" y="-19" font-family="Helvetica,sans-Serif" font-size="10.00">Math/GenVector/Displacement</text>
<text text-anchor="middle" x="1898" y="-8" font-family="Helvetica,sans-Serif" font-size="10.00">Vector2D.h</text>
</g>
<!-- Node30&#45;&gt;Node31 -->
<g id="edge38" class="edge"><title>Node30&#45;&gt;Node31</title>
<path fill="none" stroke="midnightblue" d="M1818.9,-74.3717C1831.78,-65.0286 1852.78,-49.7966 1869.91,-37.375"/>
<polygon fill="midnightblue" stroke="midnightblue" points="1872.41,-39.8859 1878.45,-31.1815 1868.3,-34.2194 1872.41,-39.8859"/>
</g>
<!-- Node32 -->
<g id="node32" class="node"><title>Node32</title>
<polygon fill="none" stroke="#bfbfbf" points="1628,-6.5 1628,-25.5 1804,-25.5 1804,-6.5 1628,-6.5"/>
<text text-anchor="middle" x="1716" y="-13.5" font-family="Helvetica,sans-Serif" font-size="10.00">Math/GenVector/PositionVector2D.h</text>
</g>
<!-- Node30&#45;&gt;Node32 -->
<g id="edge39" class="edge"><title>Node30&#45;&gt;Node32</title>
<path fill="none" stroke="midnightblue" d="M1795.1,-74.3717C1780.12,-63.5015 1754.14,-44.6602 1736.06,-31.5474"/>
<polygon fill="midnightblue" stroke="midnightblue" points="1738.05,-28.6684 1727.9,-25.6305 1733.94,-34.3349 1738.05,-28.6684"/>
</g>
<!-- Node34&#45;&gt;Node7 -->
<g id="edge50" class="edge"><title>Node34&#45;&gt;Node7</title>
<path fill="none" stroke="midnightblue" d="M271.352,-248.324C288.672,-239.664 315.515,-226.242 335.502,-216.249"/>
<polygon fill="midnightblue" stroke="midnightblue" points="337.312,-219.257 344.691,-211.655 334.181,-212.996 337.312,-219.257"/>
</g>
<!-- Node35 -->
<g id="node35" class="node"><title>Node35</title>
<g id="a_node35"><a xlink:href="../../d4/d20/DetMatrixCache_8h.html" target="_top" xlink:title="DetectorsBase/DetMatrixCache.h">
<polygon fill="none" stroke="black" points="159,-192.5 159,-211.5 323,-211.5 323,-192.5 159,-192.5"/>
<text text-anchor="middle" x="241" y="-199.5" font-family="Helvetica,sans-Serif" font-size="10.00">DetectorsBase/DetMatrixCache.h</text>
</a>
</g>
</g>
<!-- Node34&#45;&gt;Node35 -->
<g id="edge42" class="edge"><title>Node34&#45;&gt;Node35</title>
<path fill="none" stroke="midnightblue" d="M251.853,-248.083C250.131,-240.927 247.653,-230.635 245.5,-221.691"/>
<polygon fill="midnightblue" stroke="midnightblue" points="248.85,-220.654 243.107,-211.751 242.045,-222.293 248.85,-220.654"/>
</g>
<!-- Node34&#45;&gt;Node36 -->
<g id="edge49" class="edge"><title>Node34&#45;&gt;Node36</title>
<path fill="none" stroke="midnightblue" d="M230.549,-248.444C205.867,-239.438 166.815,-225.189 139.023,-215.049"/>
<polygon fill="midnightblue" stroke="midnightblue" points="139.935,-211.656 129.341,-211.516 137.536,-218.232 139.935,-211.656"/>
</g>
<!-- Node35&#45;&gt;Node3 -->
<g id="edge47" class="edge"><title>Node35&#45;&gt;Node3</title>
<path fill="none" stroke="midnightblue" d="M274.876,-192.485C305.62,-184.372 351.974,-171.168 391,-156 435.382,-138.75 484.823,-113.562 513.568,-98.2842"/>
<polygon fill="midnightblue" stroke="midnightblue" points="515.322,-101.315 522.485,-93.5089 512.018,-95.1442 515.322,-101.315"/>
</g>
<!-- Node35&#45;&gt;Node5 -->
<g id="edge43" class="edge"><title>Node35&#45;&gt;Node5</title>
<path fill="none" stroke="midnightblue" d="M210.735,-192.444C175.599,-182.51 117.896,-166.196 82.0259,-156.054"/>
<polygon fill="midnightblue" stroke="midnightblue" points="82.6593,-152.596 72.0843,-153.244 80.7549,-159.332 82.6593,-152.596"/>
</g>
<!-- Node35&#45;&gt;Node6 -->
<g id="edge44" class="edge"><title>Node35&#45;&gt;Node6</title>
<path fill="none" stroke="midnightblue" d="M226.268,-192.287C201.897,-177.003 153.637,-142.873 131,-100 120.349,-79.8275 118.24,-53.2571 118.207,-35.6765"/>
<polygon fill="midnightblue" stroke="midnightblue" points="121.709,-35.6497 118.417,-25.5793 114.71,-35.5046 121.709,-35.6497"/>
</g>
<!-- Node35&#45;&gt;Node10 -->
<g id="edge46" class="edge"><title>Node35&#45;&gt;Node10</title>
<path fill="none" stroke="midnightblue" d="M254.175,-192.324C266.847,-183.979 286.233,-171.212 301.206,-161.352"/>
<polygon fill="midnightblue" stroke="midnightblue" points="303.431,-164.078 309.858,-155.655 299.581,-158.231 303.431,-164.078"/>
</g>
<!-- Node35&#45;&gt;Node23 -->
<g id="edge48" class="edge"><title>Node35&#45;&gt;Node23</title>
<path fill="none" stroke="midnightblue" d="M302.163,-192.444C379.707,-181.595 511.641,-163.138 581.104,-153.421"/>
<polygon fill="midnightblue" stroke="midnightblue" points="581.874,-156.847 591.292,-151.995 580.904,-149.915 581.874,-156.847"/>
</g>
<!-- Node35&#45;&gt;Node24 -->
<g id="edge45" class="edge"><title>Node35&#45;&gt;Node24</title>
<path fill="none" stroke="midnightblue" d="M323.323,-192.653C326.25,-192.421 329.15,-192.203 332,-192 693.9,-166.279 1127.9,-153.196 1297.29,-148.77"/>
<polygon fill="midnightblue" stroke="midnightblue" points="1297.43,-152.268 1307.33,-148.51 1297.25,-145.27 1297.43,-152.268"/>
</g>
</g>
</svg>
        <g id="navigator" transform="translate(0 0)" fill="#404254">
                <rect fill="#f2f5e9" fill-opacity="0.5" stroke="#606060" stroke-width=".5" x="0" y="0" width="60" height="60"/>
                <use id="zoomplus" xlink:href="#zoomPlus" x="17" y="9" onmousedown="handleZoom(evt,'in')"/>
                <use id="zoomminus" xlink:href="#zoomMin" x="42" y="9" onmousedown="handleZoom(evt,'out')"/>
                <use id="reset" xlink:href="#resetDef" x="30" y="36" onmousedown="handleReset()"/>
                <g id="arrowUp" xlink:href="#dirArrow" transform="translate(30 24)" onmousedown="handlePan(0,-1)">
                  <use xlink:href="#rim" fill="#404040">
                        <set attributeName="fill" to="#808080" begin="arrowUp.mouseover" end="arrowUp.mouseout"/>
                  </use>
                  <path fill="none" stroke="white" stroke-width="1.5" d="M0,-3.0v7 M-2.5,-0.5L0,-3.0L2.5,-0.5"/>
                </g>
                <g id="arrowRight" xlink:href="#dirArrow" transform="rotate(90) translate(36 -43)" onmousedown="handlePan(1,0)">
                  <use xlink:href="#rim" fill="#404040">
                        <set attributeName="fill" to="#808080" begin="arrowRight.mouseover" end="arrowRight.mouseout"/>
                  </use>
                  <path fill="none" stroke="white" stroke-width="1.5" d="M0,-3.0v7 M-2.5,-0.5L0,-3.0L2.5,-0.5"/>
                </g>
                <g id="arrowDown" xlink:href="#dirArrow" transform="rotate(180) translate(-30 -48)" onmousedown="handlePan(0,1)">
                  <use xlink:href="#rim" fill="#404040">
                        <set attributeName="fill" to="#808080" begin="arrowDown.mouseover" end="arrowDown.mouseout"/>
                  </use>
                  <path fill="none" stroke="white" stroke-width="1.5" d="M0,-3.0v7 M-2.5,-0.5L0,-3.0L2.5,-0.5"/>
                </g>
                <g id="arrowLeft" xlink:href="#dirArrow" transform="rotate(270) translate(-36 17)" onmousedown="handlePan(-1,0)">
                  <use xlink:href="#rim" fill="#404040">
                        <set attributeName="fill" to="#808080" begin="arrowLeft.mouseover" end="arrowLeft.mouseout"/>
                  </use>
                  <path fill="none" stroke="white" stroke-width="1.5" d="M0,-3.0v7 M-2.5,-0.5L0,-3.0L2.5,-0.5"/>
                </g>
        </g>
        <svg viewBox="0 0 15 15" width="100%" height="30px" preserveAspectRatio="xMaxYMin meet">
         <g id="arrow_out" transform="scale(0.3 0.3)">
          <a xlink:href="ITS_2base_2src_2GeometryTGeo_8cxx__incl_org.svg" target="_base">
           <rect id="button" ry="5" rx="5" y="6" x="6" height="38" width="38"
                fill="#f2f5e9" fill-opacity="0.5" stroke="#606060" stroke-width="1.0"/>
           <path id="arrow"
             d="M 11.500037,31.436501 C 11.940474,20.09759 22.043105,11.32322 32.158766,21.979434 L 37.068811,17.246167 C 37.068811,17.246167 37.088388,32 37.088388,32 L 22.160133,31.978069 C 22.160133,31.978069 26.997745,27.140456 26.997745,27.140456 C 18.528582,18.264221 13.291696,25.230495 11.500037,31.436501 z"
             style="fill:#404040;"/>
          </a>
         </g>
        </svg>
</svg>
