<?xml version="1.0" encoding="UTF-8" standalone="no"?>
<!DOCTYPE svg PUBLIC "-//W3C//DTD SVG 1.1//EN"
 "http://www.w3.org/Graphics/SVG/1.1/DTD/svg11.dtd">
<!-- Generated by graphviz version 2.36.0 (20140111.2315)
 -->
<!-- Title: /home/travis/build/AliceO2Group/AliceO2/Detectors/ITSMFT/MFT/reconstruction/include/MFTReconstruction/ClustererTask.h Pages: 1 -->
<!--zoomable 536 -->
<svg id="main" version="1.1" xmlns="http://www.w3.org/2000/svg" xmlns:xlink="http://www.w3.org/1999/xlink" xml:space="preserve" onload="init(evt)">
<style type="text/css"><![CDATA[
.edge:hover path { stroke: red; }
.edge:hover polygon { stroke: red; fill: red; }
]]></style>
<script type="text/javascript"><![CDATA[
var edges = document.getElementsByTagName('g');
if (edges && edges.length) {
  for (var i=0;i<edges.length;i++) {
    if (edges[i].id.substr(0,4)=='edge') {
      edges[i].setAttribute('class','edge');
    }
  }
}
]]></script>
        <defs>
                <circle id="rim" cx="0" cy="0" r="7"/>
                <circle id="rim2" cx="0" cy="0" r="3.5"/>
                <g id="zoomPlus">
                        <use xlink:href="#rim" fill="#404040">
                                <set attributeName="fill" to="#808080" begin="zoomplus.mouseover" end="zoomplus.mouseout"/>
                        </use>
                        <path d="M-4,0h8M0,-4v8" fill="none" stroke="white" stroke-width="1.5" pointer-events="none"/>
                </g>
                <g id="zoomMin">
                        <use xlink:href="#rim" fill="#404040">
                                <set attributeName="fill" to="#808080" begin="zoomminus.mouseover" end="zoomminus.mouseout"/>
                        </use>
                        <path d="M-4,0h8" fill="none" stroke="white" stroke-width="1.5" pointer-events="none"/>
                </g>
                <g id="dirArrow">
                        <path fill="none" stroke="white" stroke-width="1.5" d="M0,-3.0v7 M-2.5,-0.5L0,-3.0L2.5,-0.5"/>
                </g>
               <g id="resetDef">
                       <use xlink:href="#rim2" fill="#404040">
                               <set attributeName="fill" to="#808080" begin="reset.mouseover" end="reset.mouseout"/>
                       </use>
               </g>
        </defs>

<script type="text/javascript">
var viewWidth = 2052;
var viewHeight = 536;
var sectionId = 'dynsection-0';
</script>
<script xlink:href="../../svgpan.js"/>
<svg id="graph" class="graph">
<g id="viewport">
<title>/home/travis/build/AliceO2Group/AliceO2/Detectors/ITSMFT/MFT/reconstruction/include/MFTReconstruction/ClustererTask.h</title>
<!-- Node1 -->
<g id="node1" class="node"><title>Node1</title>
<polygon fill="#bfbfbf" stroke="black" points="218.5,-464.5 218.5,-527.5 397.5,-527.5 397.5,-464.5 218.5,-464.5"/>
<text text-anchor="start" x="226.5" y="-515.5" font-family="Helvetica,sans-Serif" font-size="10.00">/home/travis/build</text>
<text text-anchor="start" x="226.5" y="-504.5" font-family="Helvetica,sans-Serif" font-size="10.00">/AliceO2Group/AliceO2</text>
<text text-anchor="start" x="226.5" y="-493.5" font-family="Helvetica,sans-Serif" font-size="10.00">/Detectors/ITSMFT/MFT</text>
<text text-anchor="start" x="226.5" y="-482.5" font-family="Helvetica,sans-Serif" font-size="10.00">/reconstruction/include</text>
<text text-anchor="middle" x="308" y="-471.5" font-family="Helvetica,sans-Serif" font-size="10.00">/MFTReconstruction/ClustererTask.h</text>
</g>
<!-- Node2 -->
<g id="node2" class="node"><title>Node2</title>
<polygon fill="none" stroke="#bfbfbf" points="110.5,-402.5 110.5,-421.5 173.5,-421.5 173.5,-402.5 110.5,-402.5"/>
<text text-anchor="middle" x="142" y="-409.5" font-family="Helvetica,sans-Serif" font-size="10.00">FairTask.h</text>
</g>
<!-- Node1&#45;&gt;Node2 -->
<g id="edge1" class="edge"><title>Node1&#45;&gt;Node2</title>
<path fill="none" stroke="midnightblue" d="M246.188,-464.466C219.45,-451.258 189.568,-436.497 168.686,-426.182"/>
<polygon fill="midnightblue" stroke="midnightblue" points="170.006,-422.931 159.49,-421.64 166.906,-429.207 170.006,-422.931"/>
</g>
<!-- Node3 -->
<g id="node3" class="node"><title>Node3</title>
<polygon fill="none" stroke="#bfbfbf" points="191.5,-402.5 191.5,-421.5 328.5,-421.5 328.5,-402.5 191.5,-402.5"/>
<text text-anchor="middle" x="260" y="-409.5" font-family="Helvetica,sans-Serif" font-size="10.00">MFTBase/GeometryTGeo.h</text>
</g>
<!-- Node1&#45;&gt;Node3 -->
<g id="edge2" class="edge"><title>Node1&#45;&gt;Node3</title>
<path fill="none" stroke="midnightblue" d="M290.127,-464.466C283.41,-452.991 276.007,-440.345 270.22,-430.459"/>
<polygon fill="midnightblue" stroke="midnightblue" points="273.13,-428.502 265.057,-421.64 267.089,-432.038 273.13,-428.502"/>
</g>
<!-- Node4 -->
<g id="node4" class="node"><title>Node4</title>
<g id="a_node4"><a xlink:href="../../df/d2e/PixelReader_8h.html" target="_top" xlink:title="Definition of the ITS pixel reader. ">
<polygon fill="none" stroke="black" points="294.5,-261 294.5,-291 413.5,-291 413.5,-261 294.5,-261"/>
<text text-anchor="start" x="302.5" y="-279" font-family="Helvetica,sans-Serif" font-size="10.00">ITSMFTReconstruction</text>
<text text-anchor="middle" x="354" y="-268" font-family="Helvetica,sans-Serif" font-size="10.00">/PixelReader.h</text>
</a>
</g>
</g>
<!-- Node1&#45;&gt;Node4 -->
<g id="edge3" class="edge"><title>Node1&#45;&gt;Node4</title>
<path fill="none" stroke="midnightblue" d="M323.548,-464.327C328.599,-453.15 333.738,-440.248 337,-428 348.61,-384.408 352.295,-331.679 353.462,-301.469"/>
<polygon fill="midnightblue" stroke="midnightblue" points="356.962,-301.525 353.788,-291.417 349.966,-301.298 356.962,-301.525"/>
</g>
<!-- Node10 -->
<g id="node10" class="node"><title>Node10</title>
<g id="a_node10"><a xlink:href="../../d6/d04/ITSMFT_2common_2reconstruction_2include_2ITSMFTReconstruction_2Clusterer_8h.html" target="_top" xlink:title="ITSMFTReconstruction\l/Clusterer.h">
<polygon fill="none" stroke="black" points="430.5,-397 430.5,-427 549.5,-427 549.5,-397 430.5,-397"/>
<text text-anchor="start" x="438.5" y="-415" font-family="Helvetica,sans-Serif" font-size="10.00">ITSMFTReconstruction</text>
<text text-anchor="middle" x="490" y="-404" font-family="Helvetica,sans-Serif" font-size="10.00">/Clusterer.h</text>
</a>
</g>
</g>
<!-- Node1&#45;&gt;Node10 -->
<g id="edge12" class="edge"><title>Node1&#45;&gt;Node10</title>
<path fill="none" stroke="midnightblue" d="M375.77,-464.466C400.596,-453.281 427.895,-440.981 449.579,-431.212"/>
<polygon fill="midnightblue" stroke="midnightblue" points="451.13,-434.352 458.81,-427.053 448.255,-427.969 451.13,-434.352"/>
</g>
<!-- Node5 -->
<g id="node5" class="node"><title>Node5</title>
<polygon fill="none" stroke="#bfbfbf" points="376,-74.5 376,-93.5 432,-93.5 432,-74.5 376,-74.5"/>
<text text-anchor="middle" x="404" y="-81.5" font-family="Helvetica,sans-Serif" font-size="10.00">Rtypes.h</text>
</g>
<!-- Node4&#45;&gt;Node5 -->
<g id="edge4" class="edge"><title>Node4&#45;&gt;Node5</title>
<path fill="none" stroke="midnightblue" d="M357.758,-260.719C366.688,-226.786 389.173,-141.342 399.128,-103.514"/>
<polygon fill="midnightblue" stroke="midnightblue" points="402.524,-104.36 401.685,-93.7988 395.755,-102.579 402.524,-104.36"/>
</g>
<!-- Node6 -->
<g id="node6" class="node"><title>Node6</title>
<g id="a_node6"><a xlink:href="../../d0/d06/ITSMFT_2common_2base_2include_2ITSMFTBase_2Digit_8h.html" target="_top" xlink:title="ITSMFTBase/Digit.h">
<polygon fill="none" stroke="black" points="236.5,-204.5 236.5,-223.5 343.5,-223.5 343.5,-204.5 236.5,-204.5"/>
<text text-anchor="middle" x="290" y="-211.5" font-family="Helvetica,sans-Serif" font-size="10.00">ITSMFTBase/Digit.h</text>
</a>
</g>
</g>
<!-- Node4&#45;&gt;Node6 -->
<g id="edge5" class="edge"><title>Node4&#45;&gt;Node6</title>
<path fill="none" stroke="midnightblue" d="M338.833,-260.781C329.149,-251.703 316.591,-239.929 306.635,-230.595"/>
<polygon fill="midnightblue" stroke="midnightblue" points="309.002,-228.017 299.313,-223.731 304.214,-233.123 309.002,-228.017"/>
</g>
<!-- Node8 -->
<g id="node8" class="node"><title>Node8</title>
<g id="a_node8"><a xlink:href="../../d7/dcd/MCCompLabel_8h.html" target="_top" xlink:title="SimulationDataFormat\l/MCCompLabel.h">
<polygon fill="none" stroke="black" points="0,-137 0,-167 114,-167 114,-137 0,-137"/>
<text text-anchor="start" x="8" y="-155" font-family="Helvetica,sans-Serif" font-size="10.00">SimulationDataFormat</text>
<text text-anchor="middle" x="57" y="-144" font-family="Helvetica,sans-Serif" font-size="10.00">/MCCompLabel.h</text>
</a>
</g>
</g>
<!-- Node4&#45;&gt;Node8 -->
<g id="edge11" class="edge"><title>Node4&#45;&gt;Node8</title>
<path fill="none" stroke="midnightblue" d="M318.637,-260.95C293.129,-250.779 257.892,-236.653 227,-224 183.442,-206.159 133.785,-185.367 99.435,-170.913"/>
<polygon fill="midnightblue" stroke="midnightblue" points="100.745,-167.667 90.1703,-167.012 98.0284,-174.119 100.745,-167.667"/>
</g>
<!-- Node6&#45;&gt;Node5 -->
<g id="edge10" class="edge"><title>Node6&#45;&gt;Node5</title>
<path fill="none" stroke="midnightblue" d="M302.876,-204.27C314.823,-195.813 332.711,-182.211 346,-168 365.35,-147.308 383.323,-119.776 393.984,-102.215"/>
<polygon fill="midnightblue" stroke="midnightblue" points="397.009,-103.975 399.117,-93.5923 390.994,-100.395 397.009,-103.975"/>
</g>
<!-- Node7 -->
<g id="node7" class="node"><title>Node7</title>
<polygon fill="none" stroke="#bfbfbf" points="242.5,-137 242.5,-167 337.5,-167 337.5,-137 242.5,-137"/>
<text text-anchor="start" x="250.5" y="-155" font-family="Helvetica,sans-Serif" font-size="10.00">boost/serialization</text>
<text text-anchor="middle" x="290" y="-144" font-family="Helvetica,sans-Serif" font-size="10.00">/base_object.hpp</text>
</g>
<!-- Node6&#45;&gt;Node7 -->
<g id="edge6" class="edge"><title>Node6&#45;&gt;Node7</title>
<path fill="none" stroke="midnightblue" d="M290,-204.403C290,-197.341 290,-186.975 290,-177.399"/>
<polygon fill="midnightblue" stroke="midnightblue" points="293.5,-177.141 290,-167.141 286.5,-177.141 293.5,-177.141"/>
</g>
<!-- Node6&#45;&gt;Node8 -->
<g id="edge7" class="edge"><title>Node6&#45;&gt;Node8</title>
<path fill="none" stroke="midnightblue" d="M256.617,-204.403C221.404,-195.336 165.053,-180.825 121.189,-169.529"/>
<polygon fill="midnightblue" stroke="midnightblue" points="122.022,-166.13 111.465,-167.025 120.276,-172.909 122.022,-166.13"/>
</g>
<!-- Node9 -->
<g id="node9" class="node"><title>Node9</title>
<polygon fill="none" stroke="#bfbfbf" points="132,-142.5 132,-161.5 224,-161.5 224,-142.5 132,-142.5"/>
<text text-anchor="middle" x="178" y="-149.5" font-family="Helvetica,sans-Serif" font-size="10.00">FairTimeStamp.h</text>
</g>
<!-- Node6&#45;&gt;Node9 -->
<g id="edge9" class="edge"><title>Node6&#45;&gt;Node9</title>
<path fill="none" stroke="midnightblue" d="M273.953,-204.403C255.407,-194.468 224.66,-177.997 202.978,-166.381"/>
<polygon fill="midnightblue" stroke="midnightblue" points="204.485,-163.218 194.017,-161.581 201.179,-169.388 204.485,-163.218"/>
</g>
<!-- Node8&#45;&gt;Node5 -->
<g id="edge8" class="edge"><title>Node8&#45;&gt;Node5</title>
<path fill="none" stroke="midnightblue" d="M114.204,-137.837C117.176,-137.204 120.122,-136.588 123,-136 209.303,-118.37 311.15,-100.648 365.405,-91.4523"/>
<polygon fill="midnightblue" stroke="midnightblue" points="366.325,-94.8465 375.602,-89.7294 365.159,-87.9443 366.325,-94.8465"/>
</g>
<!-- Node10&#45;&gt;Node4 -->
<g id="edge52" class="edge"><title>Node10&#45;&gt;Node4</title>
<path fill="none" stroke="midnightblue" d="M471.465,-396.977C458.801,-387.106 441.868,-373.327 428,-360 407.664,-340.458 386.439,-316.189 371.962,-298.953"/>
<polygon fill="midnightblue" stroke="midnightblue" points="374.519,-296.554 365.431,-291.108 369.14,-301.033 374.519,-296.554"/>
</g>
<!-- Node10&#45;&gt;Node5 -->
<g id="edge55" class="edge"><title>Node10&#45;&gt;Node5</title>
<path fill="none" stroke="midnightblue" d="M480.444,-396.832C474.125,-386.896 466.096,-373.1 461,-360 447.279,-324.732 442,-314.843 442,-277 442,-277 442,-277 442,-213 442,-172.231 424.065,-127.065 412.837,-102.787"/>
<polygon fill="midnightblue" stroke="midnightblue" points="415.98,-101.246 408.508,-93.734 409.665,-104.265 415.98,-101.246"/>
</g>
<!-- Node11 -->
<g id="node11" class="node"><title>Node11</title>
<g id="a_node11"><a xlink:href="../../dc/de1/ITSMFT_2common_2reconstruction_2include_2ITSMFTReconstruction_2Cluster_8h.html" target="_top" xlink:title="ITSMFTReconstruction\l/Cluster.h">
<polygon fill="none" stroke="black" points="864.5,-329 864.5,-359 983.5,-359 983.5,-329 864.5,-329"/>
<text text-anchor="start" x="872.5" y="-347" font-family="Helvetica,sans-Serif" font-size="10.00">ITSMFTReconstruction</text>
<text text-anchor="middle" x="924" y="-336" font-family="Helvetica,sans-Serif" font-size="10.00">/Cluster.h</text>
</a>
</g>
</g>
<!-- Node10&#45;&gt;Node11 -->
<g id="edge13" class="edge"><title>Node10&#45;&gt;Node11</title>
<path fill="none" stroke="midnightblue" d="M549.89,-401.892C629.55,-389.778 770.093,-368.405 854.384,-355.587"/>
<polygon fill="midnightblue" stroke="midnightblue" points="855.017,-359.031 864.377,-354.067 853.964,-352.11 855.017,-359.031"/>
</g>
<!-- Node29 -->
<g id="node29" class="node"><title>Node29</title>
<polygon fill="none" stroke="#bfbfbf" points="505,-142.5 505,-161.5 549,-161.5 549,-142.5 505,-142.5"/>
<text text-anchor="middle" x="527" y="-149.5" font-family="Helvetica,sans-Serif" font-size="10.00">vector</text>
</g>
<!-- Node10&#45;&gt;Node29 -->
<g id="edge54" class="edge"><title>Node10&#45;&gt;Node29</title>
<path fill="none" stroke="midnightblue" d="M549.609,-403.874C602.109,-396.226 672.824,-382.106 690,-360 719.189,-322.433 593.327,-209.249 545.113,-168.135"/>
<polygon fill="midnightblue" stroke="midnightblue" points="547.214,-165.327 537.319,-161.54 542.693,-170.671 547.214,-165.327"/>
</g>
<!-- Node39 -->
<g id="node39" class="node"><title>Node39</title>
<g id="a_node39"><a xlink:href="../../d0/d2d/common_2base_2include_2ITSMFTBase_2GeometryTGeo_8h.html" target="_top" xlink:title="ITSMFTBase/GeometryTGeo.h">
<polygon fill="none" stroke="black" points="528.5,-334.5 528.5,-353.5 681.5,-353.5 681.5,-334.5 528.5,-334.5"/>
<text text-anchor="middle" x="605" y="-341.5" font-family="Helvetica,sans-Serif" font-size="10.00">ITSMFTBase/GeometryTGeo.h</text>
</a>
</g>
</g>
<!-- Node10&#45;&gt;Node39 -->
<g id="edge48" class="edge"><title>Node10&#45;&gt;Node39</title>
<path fill="none" stroke="midnightblue" d="M514.67,-396.841C534.294,-385.579 561.591,-369.913 581.029,-358.757"/>
<polygon fill="midnightblue" stroke="midnightblue" points="582.942,-361.695 589.872,-353.682 579.457,-355.624 582.942,-361.695"/>
</g>
<!-- Node42 -->
<g id="node42" class="node"><title>Node42</title>
<polygon fill="none" stroke="#bfbfbf" points="470,-334.5 470,-353.5 510,-353.5 510,-334.5 470,-334.5"/>
<text text-anchor="middle" x="490" y="-341.5" font-family="Helvetica,sans-Serif" font-size="10.00">utility</text>
</g>
<!-- Node10&#45;&gt;Node42 -->
<g id="edge53" class="edge"><title>Node10&#45;&gt;Node42</title>
<path fill="none" stroke="midnightblue" d="M490,-396.679C490,-387.101 490,-374.394 490,-363.977"/>
<polygon fill="midnightblue" stroke="midnightblue" points="493.5,-363.828 490,-353.828 486.5,-363.828 493.5,-363.828"/>
</g>
<!-- Node12 -->
<g id="node12" class="node"><title>Node12</title>
<g id="a_node12"><a xlink:href="../../d4/de2/BaseCluster_8h.html" target="_top" xlink:title="DetectorsBase/BaseCluster.h">
<polygon fill="none" stroke="black" points="993.5,-266.5 993.5,-285.5 1140.5,-285.5 1140.5,-266.5 993.5,-266.5"/>
<text text-anchor="middle" x="1067" y="-273.5" font-family="Helvetica,sans-Serif" font-size="10.00">DetectorsBase/BaseCluster.h</text>
</a>
</g>
</g>
<!-- Node11&#45;&gt;Node12 -->
<g id="edge14" class="edge"><title>Node11&#45;&gt;Node12</title>
<path fill="none" stroke="midnightblue" d="M954.677,-328.841C979.634,-317.323 1014.57,-301.199 1038.83,-290.004"/>
<polygon fill="midnightblue" stroke="midnightblue" points="1040.58,-293.05 1048.19,-285.682 1037.64,-286.695 1040.58,-293.05"/>
</g>
<!-- Node13 -->
<g id="node13" class="node"><title>Node13</title>
<polygon fill="none" stroke="#bfbfbf" points="937.5,-204.5 937.5,-223.5 996.5,-223.5 996.5,-204.5 937.5,-204.5"/>
<text text-anchor="middle" x="967" y="-211.5" font-family="Helvetica,sans-Serif" font-size="10.00">TObject.h</text>
</g>
<!-- Node12&#45;&gt;Node13 -->
<g id="edge15" class="edge"><title>Node12&#45;&gt;Node13</title>
<path fill="none" stroke="midnightblue" d="M1052.67,-266.403C1036.34,-256.601 1009.4,-240.439 990.088,-228.853"/>
<polygon fill="midnightblue" stroke="midnightblue" points="991.677,-225.724 981.301,-223.581 988.075,-231.727 991.677,-225.724"/>
</g>
<!-- Node14 -->
<g id="node14" class="node"><title>Node14</title>
<polygon fill="none" stroke="#bfbfbf" points="1014.5,-204.5 1014.5,-223.5 1055.5,-223.5 1055.5,-204.5 1014.5,-204.5"/>
<text text-anchor="middle" x="1035" y="-211.5" font-family="Helvetica,sans-Serif" font-size="10.00">bitset</text>
</g>
<!-- Node12&#45;&gt;Node14 -->
<g id="edge16" class="edge"><title>Node12&#45;&gt;Node14</title>
<path fill="none" stroke="midnightblue" d="M1062.42,-266.403C1057.71,-257.582 1050.26,-243.608 1044.31,-232.455"/>
<polygon fill="midnightblue" stroke="midnightblue" points="1047.37,-230.757 1039.58,-223.581 1041.19,-234.051 1047.37,-230.757"/>
</g>
<!-- Node15 -->
<g id="node15" class="node"><title>Node15</title>
<polygon fill="none" stroke="#bfbfbf" points="1074,-204.5 1074,-223.5 1124,-223.5 1124,-204.5 1074,-204.5"/>
<text text-anchor="middle" x="1099" y="-211.5" font-family="Helvetica,sans-Serif" font-size="10.00">iomanip</text>
</g>
<!-- Node12&#45;&gt;Node15 -->
<g id="edge17" class="edge"><title>Node12&#45;&gt;Node15</title>
<path fill="none" stroke="midnightblue" d="M1071.58,-266.403C1076.29,-257.582 1083.74,-243.608 1089.69,-232.455"/>
<polygon fill="midnightblue" stroke="midnightblue" points="1092.81,-234.051 1094.42,-223.581 1086.63,-230.757 1092.81,-234.051"/>
</g>
<!-- Node16 -->
<g id="node16" class="node"><title>Node16</title>
<polygon fill="none" stroke="#bfbfbf" points="1142.5,-204.5 1142.5,-223.5 1171.5,-223.5 1171.5,-204.5 1142.5,-204.5"/>
<text text-anchor="middle" x="1157" y="-211.5" font-family="Helvetica,sans-Serif" font-size="10.00">ios</text>
</g>
<!-- Node12&#45;&gt;Node16 -->
<g id="edge18" class="edge"><title>Node12&#45;&gt;Node16</title>
<path fill="none" stroke="midnightblue" d="M1079.89,-266.403C1094.46,-256.691 1118.4,-240.732 1135.75,-229.17"/>
<polygon fill="midnightblue" stroke="midnightblue" points="1137.75,-232.04 1144.13,-223.581 1133.87,-226.215 1137.75,-232.04"/>
</g>
<!-- Node17 -->
<g id="node17" class="node"><title>Node17</title>
<polygon fill="none" stroke="#bfbfbf" points="1990,-74.5 1990,-93.5 2044,-93.5 2044,-74.5 1990,-74.5"/>
<text text-anchor="middle" x="2017" y="-81.5" font-family="Helvetica,sans-Serif" font-size="10.00">iostream</text>
</g>
<!-- Node12&#45;&gt;Node17 -->
<g id="edge19" class="edge"><title>Node12&#45;&gt;Node17</title>
<path fill="none" stroke="midnightblue" d="M1137.84,-266.489C1293.03,-246.753 1673.68,-192.373 1981,-100 1983.64,-99.2052 1986.36,-98.2829 1989.06,-97.294"/>
<polygon fill="midnightblue" stroke="midnightblue" points="1990.57,-100.46 1998.58,-93.5291 1987.99,-93.9502 1990.57,-100.46"/>
</g>
<!-- Node18 -->
<g id="node18" class="node"><title>Node18</title>
<g id="a_node18"><a xlink:href="../../dd/d76/Cartesian3D_8h.html" target="_top" xlink:title="MathUtils/Cartesian3D.h">
<polygon fill="none" stroke="black" points="1155.5,-142.5 1155.5,-161.5 1280.5,-161.5 1280.5,-142.5 1155.5,-142.5"/>
<text text-anchor="middle" x="1218" y="-149.5" font-family="Helvetica,sans-Serif" font-size="10.00">MathUtils/Cartesian3D.h</text>
</a>
</g>
</g>
<!-- Node12&#45;&gt;Node18 -->
<g id="edge20" class="edge"><title>Node12&#45;&gt;Node18</title>
<path fill="none" stroke="midnightblue" d="M1099.7,-266.49C1124.21,-258.749 1157.28,-245.238 1180,-224 1195.6,-209.417 1206.11,-186.959 1212.06,-171.215"/>
<polygon fill="midnightblue" stroke="midnightblue" points="1215.43,-172.163 1215.45,-161.568 1208.83,-169.842 1215.43,-172.163"/>
</g>
<!-- Node28 -->
<g id="node28" class="node"><title>Node28</title>
<g id="a_node28"><a xlink:href="../../d4/d20/DetMatrixCache_8h.html" target="_top" xlink:title="DetectorsBase/DetMatrixCache.h">
<polygon fill="none" stroke="black" points="738,-204.5 738,-223.5 902,-223.5 902,-204.5 738,-204.5"/>
<text text-anchor="middle" x="820" y="-211.5" font-family="Helvetica,sans-Serif" font-size="10.00">DetectorsBase/DetMatrixCache.h</text>
</a>
</g>
</g>
<!-- Node12&#45;&gt;Node28 -->
<g id="edge32" class="edge"><title>Node12&#45;&gt;Node28</title>
<path fill="none" stroke="midnightblue" d="M1031.87,-266.467C987.98,-255.805 912.811,-237.545 864.814,-225.886"/>
<polygon fill="midnightblue" stroke="midnightblue" points="865.549,-222.463 855.006,-223.503 863.897,-229.265 865.549,-222.463"/>
</g>
<!-- Node18&#45;&gt;Node5 -->
<g id="edge24" class="edge"><title>Node18&#45;&gt;Node5</title>
<path fill="none" stroke="midnightblue" d="M1155.39,-148.04C983.032,-139.73 509.766,-115.764 441,-100 437.757,-99.2566 434.429,-98.2646 431.163,-97.1434"/>
<polygon fill="midnightblue" stroke="midnightblue" points="432.283,-93.8243 421.692,-93.5115 429.776,-100.36 432.283,-93.8243"/>
</g>
<!-- Node18&#45;&gt;Node17 -->
<g id="edge31" class="edge"><title>Node18&#45;&gt;Node17</title>
<path fill="none" stroke="midnightblue" d="M1280.72,-149.448C1438.44,-145.122 1848.45,-131.144 1981,-100 1984.06,-99.2799 1987.2,-98.3265 1990.29,-97.2483"/>
<polygon fill="midnightblue" stroke="midnightblue" points="1991.78,-100.425 1999.81,-93.5117 1989.22,-93.9088 1991.78,-100.425"/>
</g>
<!-- Node19 -->
<g id="node19" class="node"><title>Node19</title>
<polygon fill="none" stroke="#bfbfbf" points="1648.5,-74.5 1648.5,-93.5 1797.5,-93.5 1797.5,-74.5 1648.5,-74.5"/>
<text text-anchor="middle" x="1723" y="-81.5" font-family="Helvetica,sans-Serif" font-size="10.00">Math/GenVector/Rotation3D.h</text>
</g>
<!-- Node18&#45;&gt;Node19 -->
<g id="edge21" class="edge"><title>Node18&#45;&gt;Node19</title>
<path fill="none" stroke="midnightblue" d="M1280.56,-144.531C1362.92,-135.762 1512.12,-118.998 1639,-100 1648.35,-98.5998 1658.26,-96.9653 1667.87,-95.3005"/>
<polygon fill="midnightblue" stroke="midnightblue" points="1668.5,-98.7441 1677.74,-93.5631 1667.28,-91.8501 1668.5,-98.7441"/>
</g>
<!-- Node20 -->
<g id="node20" class="node"><title>Node20</title>
<polygon fill="none" stroke="#bfbfbf" points="1816,-74.5 1816,-93.5 1972,-93.5 1972,-74.5 1816,-74.5"/>
<text text-anchor="middle" x="1894" y="-81.5" font-family="Helvetica,sans-Serif" font-size="10.00">Math/GenVector/Transform3D.h</text>
</g>
<!-- Node18&#45;&gt;Node20 -->
<g id="edge22" class="edge"><title>Node18&#45;&gt;Node20</title>
<path fill="none" stroke="midnightblue" d="M1280.84,-147.254C1388.59,-140.45 1615.44,-124.463 1806,-100 1816.48,-98.6541 1827.63,-96.9607 1838.34,-95.2004"/>
<polygon fill="midnightblue" stroke="midnightblue" points="1839.15,-98.6123 1848.43,-93.5014 1837.99,-91.7094 1839.15,-98.6123"/>
</g>
<!-- Node21 -->
<g id="node21" class="node"><title>Node21</title>
<polygon fill="none" stroke="#bfbfbf" points="870,-74.5 870,-93.5 1030,-93.5 1030,-74.5 870,-74.5"/>
<text text-anchor="middle" x="950" y="-81.5" font-family="Helvetica,sans-Serif" font-size="10.00">Math/GenVector/Translation3D.h</text>
</g>
<!-- Node18&#45;&gt;Node21 -->
<g id="edge23" class="edge"><title>Node18&#45;&gt;Node21</title>
<path fill="none" stroke="midnightblue" d="M1183.24,-142.439C1134.94,-130.545 1047.51,-109.013 994.5,-95.959"/>
<polygon fill="midnightblue" stroke="midnightblue" points="995.247,-92.5384 984.7,-93.5455 993.573,-99.3353 995.247,-92.5384"/>
</g>
<!-- Node22 -->
<g id="node22" class="node"><title>Node22</title>
<polygon fill="none" stroke="#bfbfbf" points="1048,-74.5 1048,-93.5 1124,-93.5 1124,-74.5 1048,-74.5"/>
<text text-anchor="middle" x="1086" y="-81.5" font-family="Helvetica,sans-Serif" font-size="10.00">TGeoMatrix.h</text>
</g>
<!-- Node18&#45;&gt;Node22 -->
<g id="edge25" class="edge"><title>Node18&#45;&gt;Node22</title>
<path fill="none" stroke="midnightblue" d="M1200.74,-142.372C1178.21,-131.106 1138.56,-111.279 1112.28,-98.1403"/>
<polygon fill="midnightblue" stroke="midnightblue" points="1113.77,-94.9722 1103.26,-93.6305 1110.64,-101.233 1113.77,-94.9722"/>
</g>
<!-- Node23 -->
<g id="node23" class="node"><title>Node23</title>
<polygon fill="none" stroke="#bfbfbf" points="1142.5,-69 1142.5,-99 1293.5,-99 1293.5,-69 1142.5,-69"/>
<text text-anchor="start" x="1150.5" y="-87" font-family="Helvetica,sans-Serif" font-size="10.00">Math/GenVector/Displacement</text>
<text text-anchor="middle" x="1218" y="-76" font-family="Helvetica,sans-Serif" font-size="10.00">Vector3D.h</text>
</g>
<!-- Node18&#45;&gt;Node23 -->
<g id="edge26" class="edge"><title>Node18&#45;&gt;Node23</title>
<path fill="none" stroke="midnightblue" d="M1218,-142.372C1218,-133.971 1218,-120.811 1218,-109.213"/>
<polygon fill="midnightblue" stroke="midnightblue" points="1221.5,-109.181 1218,-99.1815 1214.5,-109.181 1221.5,-109.181"/>
</g>
<!-- Node24 -->
<g id="node24" class="node"><title>Node24</title>
<polygon fill="none" stroke="#bfbfbf" points="1312,-74.5 1312,-93.5 1488,-93.5 1488,-74.5 1312,-74.5"/>
<text text-anchor="middle" x="1400" y="-81.5" font-family="Helvetica,sans-Serif" font-size="10.00">Math/GenVector/PositionVector3D.h</text>
</g>
<!-- Node18&#45;&gt;Node24 -->
<g id="edge27" class="edge"><title>Node18&#45;&gt;Node24</title>
<path fill="none" stroke="midnightblue" d="M1241.79,-142.372C1273.76,-130.778 1330.74,-110.116 1366.89,-97.0087"/>
<polygon fill="midnightblue" stroke="midnightblue" points="1368.28,-100.225 1376.49,-93.5259 1365.9,-93.6447 1368.28,-100.225"/>
</g>
<!-- Node25 -->
<g id="node25" class="node"><title>Node25</title>
<g id="a_node25"><a xlink:href="../../d2/dd0/Cartesian2D_8h.html" target="_top" xlink:title="MathUtils/Cartesian2D.h">
<polygon fill="none" stroke="black" points="1505.5,-74.5 1505.5,-93.5 1630.5,-93.5 1630.5,-74.5 1505.5,-74.5"/>
<text text-anchor="middle" x="1568" y="-81.5" font-family="Helvetica,sans-Serif" font-size="10.00">MathUtils/Cartesian2D.h</text>
</a>
</g>
</g>
<!-- Node18&#45;&gt;Node25 -->
<g id="edge28" class="edge"><title>Node18&#45;&gt;Node25</title>
<path fill="none" stroke="midnightblue" d="M1266.78,-142.416C1322.34,-132.554 1415.82,-115.704 1496,-100 1503.15,-98.5996 1510.69,-97.0782 1518.09,-95.5593"/>
<polygon fill="midnightblue" stroke="midnightblue" points="1518.96,-98.9533 1528.05,-93.5013 1517.54,-92.0982 1518.96,-98.9533"/>
</g>
<!-- Node26 -->
<g id="node26" class="node"><title>Node26</title>
<polygon fill="none" stroke="#bfbfbf" points="1583.5,-1 1583.5,-31 1734.5,-31 1734.5,-1 1583.5,-1"/>
<text text-anchor="start" x="1591.5" y="-19" font-family="Helvetica,sans-Serif" font-size="10.00">Math/GenVector/Displacement</text>
<text text-anchor="middle" x="1659" y="-8" font-family="Helvetica,sans-Serif" font-size="10.00">Vector2D.h</text>
</g>
<!-- Node25&#45;&gt;Node26 -->
<g id="edge29" class="edge"><title>Node25&#45;&gt;Node26</title>
<path fill="none" stroke="midnightblue" d="M1579.9,-74.3717C1592.78,-65.0286 1613.78,-49.7966 1630.91,-37.375"/>
<polygon fill="midnightblue" stroke="midnightblue" points="1633.41,-39.8859 1639.45,-31.1815 1629.3,-34.2194 1633.41,-39.8859"/>
</g>
<!-- Node27 -->
<g id="node27" class="node"><title>Node27</title>
<polygon fill="none" stroke="#bfbfbf" points="1389,-6.5 1389,-25.5 1565,-25.5 1565,-6.5 1389,-6.5"/>
<text text-anchor="middle" x="1477" y="-13.5" font-family="Helvetica,sans-Serif" font-size="10.00">Math/GenVector/PositionVector2D.h</text>
</g>
<!-- Node25&#45;&gt;Node27 -->
<g id="edge30" class="edge"><title>Node25&#45;&gt;Node27</title>
<path fill="none" stroke="midnightblue" d="M1556.1,-74.3717C1541.12,-63.5015 1515.14,-44.6602 1497.06,-31.5474"/>
<polygon fill="midnightblue" stroke="midnightblue" points="1499.05,-28.6684 1488.9,-25.6305 1494.94,-34.3349 1499.05,-28.6684"/>
</g>
<!-- Node28&#45;&gt;Node5 -->
<g id="edge46" class="edge"><title>Node28&#45;&gt;Node5</title>
<path fill="none" stroke="midnightblue" d="M737.876,-205.865C694.431,-199.794 641.105,-188.599 597,-168 576.372,-158.366 577.111,-146.671 557,-136 509.316,-110.698 491.836,-118.157 441,-100 438.601,-99.1432 436.128,-98.2233 433.653,-97.276"/>
<polygon fill="midnightblue" stroke="midnightblue" points="434.825,-93.9759 424.238,-93.5628 432.256,-100.488 434.825,-93.9759"/>
</g>
<!-- Node28&#45;&gt;Node18 -->
<g id="edge35" class="edge"><title>Node28&#45;&gt;Node18</title>
<path fill="none" stroke="midnightblue" d="M876.601,-204.467C949.103,-193.537 1074.56,-174.624 1151.53,-163.021"/>
<polygon fill="midnightblue" stroke="midnightblue" points="1152.23,-166.455 1161.59,-161.503 1151.18,-159.533 1152.23,-166.455"/>
</g>
<!-- Node28&#45;&gt;Node29 -->
<g id="edge33" class="edge"><title>Node28&#45;&gt;Node29</title>
<path fill="none" stroke="midnightblue" d="M746.177,-204.489C694.267,-197.438 623.548,-185.678 563,-168 560.349,-167.226 557.63,-166.318 554.93,-165.338"/>
<polygon fill="midnightblue" stroke="midnightblue" points="555.989,-161.994 545.401,-161.587 553.424,-168.507 555.989,-161.994"/>
</g>
<!-- Node30 -->
<g id="node30" class="node"><title>Node30</title>
<polygon fill="none" stroke="#bfbfbf" points="785,-6.5 785,-25.5 823,-25.5 823,-6.5 785,-6.5"/>
<text text-anchor="middle" x="804" y="-13.5" font-family="Helvetica,sans-Serif" font-size="10.00">array</text>
</g>
<!-- Node28&#45;&gt;Node30 -->
<g id="edge34" class="edge"><title>Node28&#45;&gt;Node30</title>
<path fill="none" stroke="midnightblue" d="M820.497,-204.377C820.993,-195.322 821.719,-180.666 822,-168 822.316,-153.781 823.067,-150.182 822,-136 819.307,-100.188 812.116,-58.8231 807.681,-35.5041"/>
<polygon fill="midnightblue" stroke="midnightblue" points="811.102,-34.7576 805.757,-25.6096 804.231,-36.0938 811.102,-34.7576"/>
</g>
<!-- Node31 -->
<g id="node31" class="node"><title>Node31</title>
<g id="a_node31"><a xlink:href="../../d6/d31/DetID_8h.html" target="_top" xlink:title="DetectorsBase/DetID.h">
<polygon fill="none" stroke="black" points="605.5,-142.5 605.5,-161.5 724.5,-161.5 724.5,-142.5 605.5,-142.5"/>
<text text-anchor="middle" x="665" y="-149.5" font-family="Helvetica,sans-Serif" font-size="10.00">DetectorsBase/DetID.h</text>
</a>
</g>
</g>
<!-- Node28&#45;&gt;Node31 -->
<g id="edge36" class="edge"><title>Node28&#45;&gt;Node31</title>
<path fill="none" stroke="midnightblue" d="M797.792,-204.403C771.319,-194.156 726.886,-176.956 696.78,-165.302"/>
<polygon fill="midnightblue" stroke="midnightblue" points="697.756,-161.927 687.167,-161.581 695.229,-168.455 697.756,-161.927"/>
</g>
<!-- Node38 -->
<g id="node38" class="node"><title>Node38</title>
<polygon fill="none" stroke="#bfbfbf" points="742.5,-142.5 742.5,-161.5 813.5,-161.5 813.5,-142.5 742.5,-142.5"/>
<text text-anchor="middle" x="778" y="-149.5" font-family="Helvetica,sans-Serif" font-size="10.00">FairLogger.h</text>
</g>
<!-- Node28&#45;&gt;Node38 -->
<g id="edge47" class="edge"><title>Node28&#45;&gt;Node38</title>
<path fill="none" stroke="midnightblue" d="M813.982,-204.403C807.682,-195.403 797.629,-181.041 789.748,-169.782"/>
<polygon fill="midnightblue" stroke="midnightblue" points="792.608,-167.766 784.006,-161.581 786.874,-171.78 792.608,-167.766"/>
</g>
<!-- Node31&#45;&gt;Node5 -->
<g id="edge40" class="edge"><title>Node31&#45;&gt;Node5</title>
<path fill="none" stroke="midnightblue" d="M623.791,-142.451C568.864,-130.912 474.674,-110.583 441,-100 438.363,-99.1713 435.65,-98.2369 432.949,-97.2497"/>
<polygon fill="midnightblue" stroke="midnightblue" points="433.961,-93.8882 423.371,-93.5384 431.431,-100.415 433.961,-93.8882"/>
</g>
<!-- Node31&#45;&gt;Node30 -->
<g id="edge38" class="edge"><title>Node31&#45;&gt;Node30</title>
<path fill="none" stroke="midnightblue" d="M708.822,-142.488C734.289,-135.326 765.004,-122.498 784,-100 799.204,-81.9927 803.237,-54.336 804.11,-35.9627"/>
<polygon fill="midnightblue" stroke="midnightblue" points="807.611,-35.9615 804.317,-25.8916 800.612,-35.8175 807.611,-35.9615"/>
</g>
<!-- Node32 -->
<g id="node32" class="node"><title>Node32</title>
<polygon fill="none" stroke="#bfbfbf" points="582,-74.5 582,-93.5 628,-93.5 628,-74.5 582,-74.5"/>
<text text-anchor="middle" x="605" y="-81.5" font-family="Helvetica,sans-Serif" font-size="10.00">cstdint</text>
</g>
<!-- Node31&#45;&gt;Node32 -->
<g id="edge37" class="edge"><title>Node31&#45;&gt;Node32</title>
<path fill="none" stroke="midnightblue" d="M657.156,-142.372C647.775,-132.053 631.865,-114.551 620.078,-101.585"/>
<polygon fill="midnightblue" stroke="midnightblue" points="622.354,-98.8862 613.037,-93.8411 617.174,-103.595 622.354,-98.8862"/>
</g>
<!-- Node33 -->
<g id="node33" class="node"><title>Node33</title>
<polygon fill="none" stroke="#bfbfbf" points="646,-74.5 646,-93.5 708,-93.5 708,-74.5 646,-74.5"/>
<text text-anchor="middle" x="677" y="-81.5" font-family="Helvetica,sans-Serif" font-size="10.00">type_traits</text>
</g>
<!-- Node31&#45;&gt;Node33 -->
<g id="edge39" class="edge"><title>Node31&#45;&gt;Node33</title>
<path fill="none" stroke="midnightblue" d="M666.569,-142.372C668.338,-132.643 671.268,-116.528 673.573,-103.85"/>
<polygon fill="midnightblue" stroke="midnightblue" points="677.047,-104.306 675.393,-93.8411 670.16,-103.054 677.047,-104.306"/>
</g>
<!-- Node34 -->
<g id="node34" class="node"><title>Node34</title>
<g id="a_node34"><a xlink:href="../../d9/ded/Utils_8h.html" target="_top" xlink:title="DetectorsBase/Utils.h">
<polygon fill="none" stroke="black" points="450.5,-74.5 450.5,-93.5 563.5,-93.5 563.5,-74.5 450.5,-74.5"/>
<text text-anchor="middle" x="507" y="-81.5" font-family="Helvetica,sans-Serif" font-size="10.00">DetectorsBase/Utils.h</text>
</a>
</g>
</g>
<!-- Node31&#45;&gt;Node34 -->
<g id="edge41" class="edge"><title>Node31&#45;&gt;Node34</title>
<path fill="none" stroke="midnightblue" d="M644.344,-142.372C617.021,-130.958 568.659,-110.756 537.224,-97.6252"/>
<polygon fill="midnightblue" stroke="midnightblue" points="538.237,-94.2554 527.661,-93.6305 535.539,-100.715 538.237,-94.2554"/>
</g>
<!-- Node37 -->
<g id="node37" class="node"><title>Node37</title>
<polygon fill="none" stroke="#bfbfbf" points="726.5,-74.5 726.5,-93.5 775.5,-93.5 775.5,-74.5 726.5,-74.5"/>
<text text-anchor="middle" x="751" y="-81.5" font-family="Helvetica,sans-Serif" font-size="10.00">cassert</text>
</g>
<!-- Node31&#45;&gt;Node37 -->
<g id="edge45" class="edge"><title>Node31&#45;&gt;Node37</title>
<path fill="none" stroke="midnightblue" d="M676.243,-142.372C690.278,-131.6 714.512,-113.002 731.576,-99.9065"/>
<polygon fill="midnightblue" stroke="midnightblue" points="733.952,-102.495 739.754,-93.6305 729.69,-96.9421 733.952,-102.495"/>
</g>
<!-- Node34&#45;&gt;Node30 -->
<g id="edge44" class="edge"><title>Node34&#45;&gt;Node30</title>
<path fill="none" stroke="midnightblue" d="M544.338,-74.4717C553.694,-72.3464 563.712,-70.0807 573,-68 645.567,-51.7433 731.045,-32.9692 774.866,-23.3717"/>
<polygon fill="midnightblue" stroke="midnightblue" points="775.805,-26.7491 784.825,-21.1914 774.308,-19.911 775.805,-26.7491"/>
</g>
<!-- Node35 -->
<g id="node35" class="node"><title>Node35</title>
<g id="a_node35"><a xlink:href="../../d1/daa/Base_2include_2DetectorsBase_2Constants_8h.html" target="_top" xlink:title="DetectorsBase/Constants.h">
<polygon fill="none" stroke="black" points="384,-6.5 384,-25.5 522,-25.5 522,-6.5 384,-6.5"/>
<text text-anchor="middle" x="453" y="-13.5" font-family="Helvetica,sans-Serif" font-size="10.00">DetectorsBase/Constants.h</text>
</a>
</g>
</g>
<!-- Node34&#45;&gt;Node35 -->
<g id="edge42" class="edge"><title>Node34&#45;&gt;Node35</title>
<path fill="none" stroke="midnightblue" d="M499.94,-74.3717C491.498,-64.053 477.178,-46.5513 466.57,-33.5854"/>
<polygon fill="midnightblue" stroke="midnightblue" points="469.275,-31.3644 460.234,-25.8411 463.857,-35.7971 469.275,-31.3644"/>
</g>
<!-- Node36 -->
<g id="node36" class="node"><title>Node36</title>
<polygon fill="none" stroke="#bfbfbf" points="540,-6.5 540,-25.5 584,-25.5 584,-6.5 540,-6.5"/>
<text text-anchor="middle" x="562" y="-13.5" font-family="Helvetica,sans-Serif" font-size="10.00">cmath</text>
</g>
<!-- Node34&#45;&gt;Node36 -->
<g id="edge43" class="edge"><title>Node34&#45;&gt;Node36</title>
<path fill="none" stroke="midnightblue" d="M514.19,-74.3717C522.789,-64.053 537.374,-46.5513 548.179,-33.5854"/>
<polygon fill="midnightblue" stroke="midnightblue" points="550.919,-35.764 554.632,-25.8411 545.542,-31.2827 550.919,-35.764"/>
</g>
<!-- Node39&#45;&gt;Node28 -->
<g id="edge49" class="edge"><title>Node39&#45;&gt;Node28</title>
<path fill="none" stroke="midnightblue" d="M619.441,-334.403C656.007,-312.633 752.499,-255.187 796.964,-228.715"/>
<polygon fill="midnightblue" stroke="midnightblue" points="798.82,-231.683 805.622,-223.56 795.239,-225.668 798.82,-231.683"/>
</g>
<!-- Node40 -->
<g id="node40" class="node"><title>Node40</title>
<polygon fill="none" stroke="#bfbfbf" points="502.5,-266.5 502.5,-285.5 571.5,-285.5 571.5,-266.5 502.5,-266.5"/>
<text text-anchor="middle" x="537" y="-273.5" font-family="Helvetica,sans-Serif" font-size="10.00">TObjArray.h</text>
</g>
<!-- Node39&#45;&gt;Node40 -->
<g id="edge50" class="edge"><title>Node39&#45;&gt;Node40</title>
<path fill="none" stroke="midnightblue" d="M596.11,-334.372C585.276,-323.856 566.757,-305.882 553.33,-292.85"/>
<polygon fill="midnightblue" stroke="midnightblue" points="555.723,-290.294 546.109,-285.841 550.847,-295.317 555.723,-290.294"/>
</g>
<!-- Node41 -->
<g id="node41" class="node"><title>Node41</title>
<polygon fill="none" stroke="#bfbfbf" points="589.5,-266.5 589.5,-285.5 630.5,-285.5 630.5,-266.5 589.5,-266.5"/>
<text text-anchor="middle" x="610" y="-273.5" font-family="Helvetica,sans-Serif" font-size="10.00">string</text>
</g>
<!-- Node39&#45;&gt;Node41 -->
<g id="edge51" class="edge"><title>Node39&#45;&gt;Node41</title>
<path fill="none" stroke="midnightblue" d="M605.654,-334.372C606.391,-324.643 607.612,-308.528 608.572,-295.85"/>
<polygon fill="midnightblue" stroke="midnightblue" points="612.065,-296.077 609.33,-285.841 605.085,-295.548 612.065,-296.077"/>
</g>
</g>
</svg>
        <g id="navigator" transform="translate(0 0)" fill="#404254">
                <rect fill="#f2f5e9" fill-opacity="0.5" stroke="#606060" stroke-width=".5" x="0" y="0" width="60" height="60"/>
                <use id="zoomplus" xlink:href="#zoomPlus" x="17" y="9" onmousedown="handleZoom(evt,'in')"/>
                <use id="zoomminus" xlink:href="#zoomMin" x="42" y="9" onmousedown="handleZoom(evt,'out')"/>
                <use id="reset" xlink:href="#resetDef" x="30" y="36" onmousedown="handleReset()"/>
                <g id="arrowUp" xlink:href="#dirArrow" transform="translate(30 24)" onmousedown="handlePan(0,-1)">
                  <use xlink:href="#rim" fill="#404040">
                        <set attributeName="fill" to="#808080" begin="arrowUp.mouseover" end="arrowUp.mouseout"/>
                  </use>
                  <path fill="none" stroke="white" stroke-width="1.5" d="M0,-3.0v7 M-2.5,-0.5L0,-3.0L2.5,-0.5"/>
                </g>
                <g id="arrowRight" xlink:href="#dirArrow" transform="rotate(90) translate(36 -43)" onmousedown="handlePan(1,0)">
                  <use xlink:href="#rim" fill="#404040">
                        <set attributeName="fill" to="#808080" begin="arrowRight.mouseover" end="arrowRight.mouseout"/>
                  </use>
                  <path fill="none" stroke="white" stroke-width="1.5" d="M0,-3.0v7 M-2.5,-0.5L0,-3.0L2.5,-0.5"/>
                </g>
                <g id="arrowDown" xlink:href="#dirArrow" transform="rotate(180) translate(-30 -48)" onmousedown="handlePan(0,1)">
                  <use xlink:href="#rim" fill="#404040">
                        <set attributeName="fill" to="#808080" begin="arrowDown.mouseover" end="arrowDown.mouseout"/>
                  </use>
                  <path fill="none" stroke="white" stroke-width="1.5" d="M0,-3.0v7 M-2.5,-0.5L0,-3.0L2.5,-0.5"/>
                </g>
                <g id="arrowLeft" xlink:href="#dirArrow" transform="rotate(270) translate(-36 17)" onmousedown="handlePan(-1,0)">
                  <use xlink:href="#rim" fill="#404040">
                        <set attributeName="fill" to="#808080" begin="arrowLeft.mouseover" end="arrowLeft.mouseout"/>
                  </use>
                  <path fill="none" stroke="white" stroke-width="1.5" d="M0,-3.0v7 M-2.5,-0.5L0,-3.0L2.5,-0.5"/>
                </g>
        </g>
        <svg viewBox="0 0 15 15" width="100%" height="30px" preserveAspectRatio="xMaxYMin meet">
         <g id="arrow_out" transform="scale(0.3 0.3)">
          <a xlink:href="ITSMFT_2MFT_2reconstruction_2include_2MFTReconstruction_2ClustererTask_8h__incl_org.svg" target="_base">
           <rect id="button" ry="5" rx="5" y="6" x="6" height="38" width="38"
                fill="#f2f5e9" fill-opacity="0.5" stroke="#606060" stroke-width="1.0"/>
           <path id="arrow"
             d="M 11.500037,31.436501 C 11.940474,20.09759 22.043105,11.32322 32.158766,21.979434 L 37.068811,17.246167 C 37.068811,17.246167 37.088388,32 37.088388,32 L 22.160133,31.978069 C 22.160133,31.978069 26.997745,27.140456 26.997745,27.140456 C 18.528582,18.264221 13.291696,25.230495 11.500037,31.436501 z"
             style="fill:#404040;"/>
          </a>
         </g>
        </svg>
</svg>
