<?xml version="1.0" encoding="UTF-8" standalone="no"?>
<!DOCTYPE svg PUBLIC "-//W3C//DTD SVG 1.1//EN"
 "http://www.w3.org/Graphics/SVG/1.1/DTD/svg11.dtd">
<!-- Generated by graphviz version 2.36.0 (20140111.2315)
 -->
<!-- Title: /home/travis/build/AliceO2Group/AliceO2/Detectors/Base/include/DetectorsBase/Track.h Pages: 1 -->
<svg width="2192pt" height="366pt"
 viewBox="0.00 0.00 2192.00 366.00" xmlns="http://www.w3.org/2000/svg" xmlns:xlink="http://www.w3.org/1999/xlink">
<g id="graph0" class="graph" transform="scale(1 1) rotate(0) translate(4 362)">
<title>/home/travis/build/AliceO2Group/AliceO2/Detectors/Base/include/DetectorsBase/Track.h</title>
<!-- Node1 -->
<g id="node1" class="node"><title>Node1</title>
<polygon fill="#bfbfbf" stroke="black" points="1673,-305 1673,-357 1795,-357 1795,-305 1673,-305"/>
<text text-anchor="start" x="1681" y="-345" font-family="Helvetica,sans-Serif" font-size="10.00">/home/travis/build</text>
<text text-anchor="start" x="1681" y="-334" font-family="Helvetica,sans-Serif" font-size="10.00">/AliceO2Group/AliceO2</text>
<text text-anchor="start" x="1681" y="-323" font-family="Helvetica,sans-Serif" font-size="10.00">/Detectors/Base/include</text>
<text text-anchor="middle" x="1734" y="-312" font-family="Helvetica,sans-Serif" font-size="10.00">/DetectorsBase/Track.h</text>
</g>
<!-- Node2 -->
<g id="node2" class="node"><title>Node2</title>
<polygon fill="none" stroke="#bfbfbf" points="1192,-74.5 1192,-93.5 1248,-93.5 1248,-74.5 1192,-74.5"/>
<text text-anchor="middle" x="1220" y="-81.5" font-family="Helvetica,sans-Serif" font-size="10.00">Rtypes.h</text>
</g>
<!-- Node1&#45;&gt;Node2 -->
<g id="edge1" class="edge"><title>Node1&#45;&gt;Node2</title>
<path fill="none" stroke="midnightblue" d="M1672.82,-327.988C1529.26,-321.856 1177.43,-298.169 1105,-212 1083.15,-186 1078.14,-164.244 1097,-136 1097.69,-134.965 1153.17,-112.22 1189.37,-97.4583"/>
<polygon fill="midnightblue" stroke="midnightblue" points="1191.07,-100.546 1199.01,-93.531 1188.43,-94.0631 1191.07,-100.546"/>
</g>
<!-- Node3 -->
<g id="node3" class="node"><title>Node3</title>
<polygon fill="none" stroke="#bfbfbf" points="1800,-248.5 1800,-267.5 1856,-267.5 1856,-248.5 1800,-248.5"/>
<text text-anchor="middle" x="1828" y="-255.5" font-family="Helvetica,sans-Serif" font-size="10.00">algorithm</text>
</g>
<!-- Node1&#45;&gt;Node3 -->
<g id="edge2" class="edge"><title>Node1&#45;&gt;Node3</title>
<path fill="none" stroke="midnightblue" d="M1767.14,-304.968C1780.79,-294.66 1796.15,-283.059 1808.02,-274.09"/>
<polygon fill="midnightblue" stroke="midnightblue" points="1810.47,-276.63 1816.34,-267.81 1806.25,-271.044 1810.47,-276.63"/>
</g>
<!-- Node4 -->
<g id="node4" class="node"><title>Node4</title>
<polygon fill="none" stroke="#bfbfbf" points="1526,-6.5 1526,-25.5 1564,-25.5 1564,-6.5 1526,-6.5"/>
<text text-anchor="middle" x="1545" y="-13.5" font-family="Helvetica,sans-Serif" font-size="10.00">array</text>
</g>
<!-- Node1&#45;&gt;Node4 -->
<g id="edge3" class="edge"><title>Node1&#45;&gt;Node4</title>
<path fill="none" stroke="midnightblue" d="M1672.63,-311.875C1623.93,-293.27 1564,-258.997 1564,-203 1564,-203 1564,-203 1564,-145 1564,-105.646 1555.1,-60.2174 1549.49,-35.4534"/>
<polygon fill="midnightblue" stroke="midnightblue" points="1552.87,-34.5613 1547.18,-25.6256 1546.06,-36.1608 1552.87,-34.5613"/>
</g>
<!-- Node5 -->
<g id="node5" class="node"><title>Node5</title>
<polygon fill="none" stroke="#bfbfbf" points="1874.5,-248.5 1874.5,-267.5 1915.5,-267.5 1915.5,-248.5 1874.5,-248.5"/>
<text text-anchor="middle" x="1895" y="-255.5" font-family="Helvetica,sans-Serif" font-size="10.00">cfloat</text>
</g>
<!-- Node1&#45;&gt;Node5 -->
<g id="edge4" class="edge"><title>Node1&#45;&gt;Node5</title>
<path fill="none" stroke="midnightblue" d="M1790.76,-304.968C1816.24,-293.732 1845.2,-280.96 1866.12,-271.735"/>
<polygon fill="midnightblue" stroke="midnightblue" points="1867.67,-274.876 1875.41,-267.639 1864.85,-268.472 1867.67,-274.876"/>
</g>
<!-- Node6 -->
<g id="node6" class="node"><title>Node6</title>
<polygon fill="none" stroke="#bfbfbf" points="1630,-6.5 1630,-25.5 1674,-25.5 1674,-6.5 1630,-6.5"/>
<text text-anchor="middle" x="1652" y="-13.5" font-family="Helvetica,sans-Serif" font-size="10.00">cmath</text>
</g>
<!-- Node1&#45;&gt;Node6 -->
<g id="edge5" class="edge"><title>Node1&#45;&gt;Node6</title>
<path fill="none" stroke="midnightblue" d="M1734,-304.699C1734,-279.068 1734,-238.278 1734,-203 1734,-203 1734,-203 1734,-145 1734,-109.642 1733.03,-97.8005 1714,-68 1704.37,-52.9198 1688.81,-40.1391 1675.68,-31.1439"/>
<polygon fill="midnightblue" stroke="midnightblue" points="1677.38,-28.0707 1667.09,-25.5395 1673.55,-33.934 1677.38,-28.0707"/>
</g>
<!-- Node7 -->
<g id="node7" class="node"><title>Node7</title>
<polygon fill="none" stroke="#bfbfbf" points="1934,-248.5 1934,-267.5 1980,-267.5 1980,-248.5 1934,-248.5"/>
<text text-anchor="middle" x="1957" y="-255.5" font-family="Helvetica,sans-Serif" font-size="10.00">cstring</text>
</g>
<!-- Node1&#45;&gt;Node7 -->
<g id="edge6" class="edge"><title>Node1&#45;&gt;Node7</title>
<path fill="none" stroke="midnightblue" d="M1795.23,-310.505C1836.83,-297.261 1890.24,-280.257 1924.05,-269.49"/>
<polygon fill="midnightblue" stroke="midnightblue" points="1925.42,-272.729 1933.88,-266.36 1923.29,-266.059 1925.42,-272.729"/>
</g>
<!-- Node8 -->
<g id="node8" class="node"><title>Node8</title>
<polygon fill="none" stroke="#bfbfbf" points="0,-74.5 0,-93.5 54,-93.5 54,-74.5 0,-74.5"/>
<text text-anchor="middle" x="27" y="-81.5" font-family="Helvetica,sans-Serif" font-size="10.00">iostream</text>
</g>
<!-- Node1&#45;&gt;Node8 -->
<g id="edge7" class="edge"><title>Node1&#45;&gt;Node8</title>
<path fill="none" stroke="midnightblue" d="M1672.79,-326.844C1544.99,-319.832 1240.58,-300.921 987,-268 704.109,-231.274 635.531,-207.755 355,-156 225.05,-132.026 189.544,-138.057 63,-100 60.3558,-99.2048 57.6404,-98.2822 54.9437,-97.2932"/>
<polygon fill="midnightblue" stroke="midnightblue" points="56.0055,-93.9494 45.4191,-93.528 53.4321,-100.459 56.0055,-93.9494"/>
</g>
<!-- Node9 -->
<g id="node9" class="node"><title>Node9</title>
<polygon fill="none" stroke="#bfbfbf" points="1998.5,-248.5 1998.5,-267.5 2081.5,-267.5 2081.5,-248.5 1998.5,-248.5"/>
<text text-anchor="middle" x="2040" y="-255.5" font-family="Helvetica,sans-Serif" font-size="10.00">Math/SMatrix.h</text>
</g>
<!-- Node1&#45;&gt;Node9 -->
<g id="edge8" class="edge"><title>Node1&#45;&gt;Node9</title>
<path fill="none" stroke="midnightblue" d="M1795.19,-315.803C1853.52,-302.268 1940.1,-282.179 1993.14,-269.873"/>
<polygon fill="midnightblue" stroke="midnightblue" points="1994.01,-273.264 2002.96,-267.594 1992.43,-266.445 1994.01,-273.264"/>
</g>
<!-- Node10 -->
<g id="node10" class="node"><title>Node10</title>
<polygon fill="none" stroke="#bfbfbf" points="2099.5,-248.5 2099.5,-267.5 2184.5,-267.5 2184.5,-248.5 2099.5,-248.5"/>
<text text-anchor="middle" x="2142" y="-255.5" font-family="Helvetica,sans-Serif" font-size="10.00">Math/SVector.h</text>
</g>
<!-- Node1&#45;&gt;Node10 -->
<g id="edge9" class="edge"><title>Node1&#45;&gt;Node10</title>
<path fill="none" stroke="midnightblue" d="M1795.08,-319.371C1874.91,-305.479 2013.42,-281.375 2089.03,-268.218"/>
<polygon fill="midnightblue" stroke="midnightblue" points="2090.01,-271.6 2099.26,-266.437 2088.81,-264.703 2090.01,-271.6"/>
</g>
<!-- Node11 -->
<g id="node11" class="node"><title>Node11</title>
<g id="a_node11"><a xlink:href="../../d4/de2/BaseCluster_8h.html" target="_top" xlink:title="DetectorsBase/BaseCluster.h">
<polygon fill="none" stroke="black" points="1286.5,-248.5 1286.5,-267.5 1433.5,-267.5 1433.5,-248.5 1286.5,-248.5"/>
<text text-anchor="middle" x="1360" y="-255.5" font-family="Helvetica,sans-Serif" font-size="10.00">DetectorsBase/BaseCluster.h</text>
</a>
</g>
</g>
<!-- Node1&#45;&gt;Node11 -->
<g id="edge10" class="edge"><title>Node1&#45;&gt;Node11</title>
<path fill="none" stroke="midnightblue" d="M1672.66,-318.355C1601.11,-304.772 1483.87,-282.516 1415.11,-269.462"/>
<polygon fill="midnightblue" stroke="midnightblue" points="1415.39,-265.953 1404.91,-267.526 1414.09,-272.83 1415.39,-265.953"/>
</g>
<!-- Node16 -->
<g id="node16" class="node"><title>Node16</title>
<g id="a_node16"><a xlink:href="../../dd/d76/Cartesian3D_8h.html" target="_top" xlink:title="MathUtils/Cartesian3D.h">
<polygon fill="none" stroke="black" points="785.5,-136.5 785.5,-155.5 910.5,-155.5 910.5,-136.5 785.5,-136.5"/>
<text text-anchor="middle" x="848" y="-143.5" font-family="Helvetica,sans-Serif" font-size="10.00">MathUtils/Cartesian3D.h</text>
</a>
</g>
</g>
<!-- Node1&#45;&gt;Node16 -->
<g id="edge46" class="edge"><title>Node1&#45;&gt;Node16</title>
<path fill="none" stroke="midnightblue" d="M1672.83,-328.368C1524.92,-323.818 1151.41,-308.55 1034,-268 965.103,-244.205 896.443,-189.484 865.306,-162.552"/>
<polygon fill="midnightblue" stroke="midnightblue" points="867.374,-159.709 857.55,-155.741 862.755,-164.969 867.374,-159.709"/>
</g>
<!-- Node31 -->
<g id="node31" class="node"><title>Node31</title>
<g id="a_node31"><a xlink:href="../../d9/ded/Utils_8h.html" target="_top" xlink:title="DetectorsBase/Utils.h">
<polygon fill="none" stroke="black" points="1592.5,-74.5 1592.5,-93.5 1705.5,-93.5 1705.5,-74.5 1592.5,-74.5"/>
<text text-anchor="middle" x="1649" y="-81.5" font-family="Helvetica,sans-Serif" font-size="10.00">DetectorsBase/Utils.h</text>
</a>
</g>
</g>
<!-- Node1&#45;&gt;Node31 -->
<g id="edge45" class="edge"><title>Node1&#45;&gt;Node31</title>
<path fill="none" stroke="midnightblue" d="M1725.22,-304.703C1708.02,-255.112 1670.23,-146.202 1655.28,-103.088"/>
<polygon fill="midnightblue" stroke="midnightblue" points="1658.58,-101.921 1651.99,-93.6208 1651.96,-104.216 1658.58,-101.921"/>
</g>
<!-- Node32 -->
<g id="node32" class="node"><title>Node32</title>
<g id="a_node32"><a xlink:href="../../d1/daa/Base_2include_2DetectorsBase_2Constants_8h.html" target="_top" xlink:title="DetectorsBase/Constants.h">
<polygon fill="none" stroke="black" points="1699,-6.5 1699,-25.5 1837,-25.5 1837,-6.5 1699,-6.5"/>
<text text-anchor="middle" x="1768" y="-13.5" font-family="Helvetica,sans-Serif" font-size="10.00">DetectorsBase/Constants.h</text>
</a>
</g>
</g>
<!-- Node1&#45;&gt;Node32 -->
<g id="edge44" class="edge"><title>Node1&#45;&gt;Node32</title>
<path fill="none" stroke="midnightblue" d="M1746.23,-304.878C1757.34,-279.722 1772,-239.593 1772,-203 1772,-203 1772,-203 1772,-145 1772,-106.229 1770.14,-60.8852 1768.96,-35.9131"/>
<polygon fill="midnightblue" stroke="midnightblue" points="1772.44,-35.5048 1768.46,-25.6884 1765.45,-35.8479 1772.44,-35.5048"/>
</g>
<!-- Node11&#45;&gt;Node8 -->
<g id="edge15" class="edge"><title>Node11&#45;&gt;Node8</title>
<path fill="none" stroke="midnightblue" d="M1287.51,-248.497C1018.74,-216.934 92.9868,-107.901 63,-100 60.1764,-99.256 57.2826,-98.3371 54.4222,-97.3232"/>
<polygon fill="midnightblue" stroke="midnightblue" points="55.5651,-94.012 44.9773,-93.6266 53.0138,-100.531 55.5651,-94.012"/>
</g>
<!-- Node12 -->
<g id="node12" class="node"><title>Node12</title>
<polygon fill="none" stroke="#bfbfbf" points="1296.5,-192.5 1296.5,-211.5 1355.5,-211.5 1355.5,-192.5 1296.5,-192.5"/>
<text text-anchor="middle" x="1326" y="-199.5" font-family="Helvetica,sans-Serif" font-size="10.00">TObject.h</text>
</g>
<!-- Node11&#45;&gt;Node12 -->
<g id="edge11" class="edge"><title>Node11&#45;&gt;Node12</title>
<path fill="none" stroke="midnightblue" d="M1354.39,-248.083C1349.63,-240.534 1342.68,-229.495 1336.85,-220.23"/>
<polygon fill="midnightblue" stroke="midnightblue" points="1339.8,-218.349 1331.51,-211.751 1333.88,-222.078 1339.8,-218.349"/>
</g>
<!-- Node13 -->
<g id="node13" class="node"><title>Node13</title>
<polygon fill="none" stroke="#bfbfbf" points="1373.5,-192.5 1373.5,-211.5 1414.5,-211.5 1414.5,-192.5 1373.5,-192.5"/>
<text text-anchor="middle" x="1394" y="-199.5" font-family="Helvetica,sans-Serif" font-size="10.00">bitset</text>
</g>
<!-- Node11&#45;&gt;Node13 -->
<g id="edge12" class="edge"><title>Node11&#45;&gt;Node13</title>
<path fill="none" stroke="midnightblue" d="M1365.61,-248.083C1370.37,-240.534 1377.32,-229.495 1383.15,-220.23"/>
<polygon fill="midnightblue" stroke="midnightblue" points="1386.12,-222.078 1388.49,-211.751 1380.2,-218.349 1386.12,-222.078"/>
</g>
<!-- Node14 -->
<g id="node14" class="node"><title>Node14</title>
<polygon fill="none" stroke="#bfbfbf" points="1433,-192.5 1433,-211.5 1483,-211.5 1483,-192.5 1433,-192.5"/>
<text text-anchor="middle" x="1458" y="-199.5" font-family="Helvetica,sans-Serif" font-size="10.00">iomanip</text>
</g>
<!-- Node11&#45;&gt;Node14 -->
<g id="edge13" class="edge"><title>Node11&#45;&gt;Node14</title>
<path fill="none" stroke="midnightblue" d="M1375.75,-248.324C1391.32,-239.743 1415.38,-226.486 1433.46,-216.522"/>
<polygon fill="midnightblue" stroke="midnightblue" points="1435.22,-219.546 1442.29,-211.655 1431.85,-213.415 1435.22,-219.546"/>
</g>
<!-- Node15 -->
<g id="node15" class="node"><title>Node15</title>
<polygon fill="none" stroke="#bfbfbf" points="1501.5,-192.5 1501.5,-211.5 1530.5,-211.5 1530.5,-192.5 1501.5,-192.5"/>
<text text-anchor="middle" x="1516" y="-199.5" font-family="Helvetica,sans-Serif" font-size="10.00">ios</text>
</g>
<!-- Node11&#45;&gt;Node15 -->
<g id="edge14" class="edge"><title>Node11&#45;&gt;Node15</title>
<path fill="none" stroke="midnightblue" d="M1385.88,-248.435C1410.68,-240.171 1449.37,-227.134 1491.65,-212.048"/>
<polygon fill="midnightblue" stroke="midnightblue" points="1493.07,-215.259 1501.3,-208.592 1490.71,-208.668 1493.07,-215.259"/>
</g>
<!-- Node11&#45;&gt;Node16 -->
<g id="edge16" class="edge"><title>Node11&#45;&gt;Node16</title>
<path fill="none" stroke="midnightblue" d="M1305.06,-248.495C1253.26,-240.196 1173.57,-226.701 1105,-212 1027.96,-195.482 939.018,-171.986 888.552,-158.233"/>
<polygon fill="midnightblue" stroke="midnightblue" points="889.255,-154.797 878.686,-155.535 887.409,-161.549 889.255,-154.797"/>
</g>
<!-- Node26 -->
<g id="node26" class="node"><title>Node26</title>
<g id="a_node26"><a xlink:href="../../d4/d20/DetMatrixCache_8h.html" target="_top" xlink:title="DetectorsBase/DetMatrixCache.h">
<polygon fill="none" stroke="black" points="1114,-192.5 1114,-211.5 1278,-211.5 1278,-192.5 1114,-192.5"/>
<text text-anchor="middle" x="1196" y="-199.5" font-family="Helvetica,sans-Serif" font-size="10.00">DetectorsBase/DetMatrixCache.h</text>
</a>
</g>
</g>
<!-- Node11&#45;&gt;Node26 -->
<g id="edge28" class="edge"><title>Node11&#45;&gt;Node26</title>
<path fill="none" stroke="midnightblue" d="M1334.01,-248.444C1306.3,-239.32 1262.25,-224.813 1231.38,-214.651"/>
<polygon fill="midnightblue" stroke="midnightblue" points="1232.46,-211.32 1221.86,-211.516 1230.27,-217.968 1232.46,-211.32"/>
</g>
<!-- Node16&#45;&gt;Node2 -->
<g id="edge20" class="edge"><title>Node16&#45;&gt;Node2</title>
<path fill="none" stroke="midnightblue" d="M910.658,-141.304C978.658,-136.207 1089.98,-124.68 1183,-100 1185.99,-99.2079 1189.05,-98.237 1192.08,-97.1737"/>
<polygon fill="midnightblue" stroke="midnightblue" points="1193.41,-100.415 1201.49,-93.5672 1190.9,-93.879 1193.41,-100.415"/>
</g>
<!-- Node16&#45;&gt;Node8 -->
<g id="edge27" class="edge"><title>Node16&#45;&gt;Node8</title>
<path fill="none" stroke="midnightblue" d="M785.419,-137.338C780.544,-136.847 775.694,-136.393 771,-136 457.027,-109.697 370.286,-169.618 63,-100 59.9294,-99.3043 56.7865,-98.3665 53.6989,-97.2974"/>
<polygon fill="midnightblue" stroke="midnightblue" points="54.7682,-93.9574 44.1805,-93.5708 52.2163,-100.476 54.7682,-93.9574"/>
</g>
<!-- Node17 -->
<g id="node17" class="node"><title>Node17</title>
<polygon fill="none" stroke="#bfbfbf" points="850.5,-74.5 850.5,-93.5 999.5,-93.5 999.5,-74.5 850.5,-74.5"/>
<text text-anchor="middle" x="925" y="-81.5" font-family="Helvetica,sans-Serif" font-size="10.00">Math/GenVector/Rotation3D.h</text>
</g>
<!-- Node16&#45;&gt;Node17 -->
<g id="edge17" class="edge"><title>Node16&#45;&gt;Node17</title>
<path fill="none" stroke="midnightblue" d="M859.032,-136.403C871.268,-126.869 891.229,-111.315 905.993,-99.8106"/>
<polygon fill="midnightblue" stroke="midnightblue" points="908.252,-102.488 913.988,-93.5806 903.949,-96.9663 908.252,-102.488"/>
</g>
<!-- Node18 -->
<g id="node18" class="node"><title>Node18</title>
<polygon fill="none" stroke="#bfbfbf" points="1018,-74.5 1018,-93.5 1174,-93.5 1174,-74.5 1018,-74.5"/>
<text text-anchor="middle" x="1096" y="-81.5" font-family="Helvetica,sans-Serif" font-size="10.00">Math/GenVector/Transform3D.h</text>
</g>
<!-- Node16&#45;&gt;Node18 -->
<g id="edge18" class="edge"><title>Node16&#45;&gt;Node18</title>
<path fill="none" stroke="midnightblue" d="M883.269,-136.467C927.34,-125.805 1002.81,-107.545 1051,-95.886"/>
<polygon fill="midnightblue" stroke="midnightblue" points="1051.96,-99.2568 1060.85,-93.5034 1050.31,-92.4531 1051.96,-99.2568"/>
</g>
<!-- Node19 -->
<g id="node19" class="node"><title>Node19</title>
<polygon fill="none" stroke="#bfbfbf" points="72,-74.5 72,-93.5 232,-93.5 232,-74.5 72,-74.5"/>
<text text-anchor="middle" x="152" y="-81.5" font-family="Helvetica,sans-Serif" font-size="10.00">Math/GenVector/Translation3D.h</text>
</g>
<!-- Node16&#45;&gt;Node19 -->
<g id="edge19" class="edge"><title>Node16&#45;&gt;Node19</title>
<path fill="none" stroke="midnightblue" d="M785.412,-137.427C780.538,-136.916 775.691,-136.433 771,-136 535.902,-114.289 475.473,-127.653 241,-100 230.039,-98.7073 218.372,-96.9903 207.217,-95.1805"/>
<polygon fill="midnightblue" stroke="midnightblue" points="207.591,-91.6947 197.152,-93.5018 206.44,-98.5993 207.591,-91.6947"/>
</g>
<!-- Node20 -->
<g id="node20" class="node"><title>Node20</title>
<polygon fill="none" stroke="#bfbfbf" points="250,-74.5 250,-93.5 326,-93.5 326,-74.5 250,-74.5"/>
<text text-anchor="middle" x="288" y="-81.5" font-family="Helvetica,sans-Serif" font-size="10.00">TGeoMatrix.h</text>
</g>
<!-- Node16&#45;&gt;Node20 -->
<g id="edge21" class="edge"><title>Node16&#45;&gt;Node20</title>
<path fill="none" stroke="midnightblue" d="M785.404,-137.504C780.532,-136.975 775.687,-136.467 771,-136 577.522,-116.711 525.727,-137.801 335,-100 330.434,-99.0951 325.689,-97.8984 321.046,-96.5746"/>
<polygon fill="midnightblue" stroke="midnightblue" points="321.742,-93.1272 311.155,-93.5376 319.687,-99.8188 321.742,-93.1272"/>
</g>
<!-- Node21 -->
<g id="node21" class="node"><title>Node21</title>
<polygon fill="none" stroke="#bfbfbf" points="344.5,-69 344.5,-99 495.5,-99 495.5,-69 344.5,-69"/>
<text text-anchor="start" x="352.5" y="-87" font-family="Helvetica,sans-Serif" font-size="10.00">Math/GenVector/Displacement</text>
<text text-anchor="middle" x="420" y="-76" font-family="Helvetica,sans-Serif" font-size="10.00">Vector3D.h</text>
</g>
<!-- Node16&#45;&gt;Node21 -->
<g id="edge22" class="edge"><title>Node16&#45;&gt;Node21</title>
<path fill="none" stroke="midnightblue" d="M785.292,-137.617C718.583,-129.573 609.717,-115.902 505.577,-100.046"/>
<polygon fill="midnightblue" stroke="midnightblue" points="505.93,-96.5593 495.515,-98.5048 504.87,-103.479 505.93,-96.5593"/>
</g>
<!-- Node22 -->
<g id="node22" class="node"><title>Node22</title>
<polygon fill="none" stroke="#bfbfbf" points="514,-74.5 514,-93.5 690,-93.5 690,-74.5 514,-74.5"/>
<text text-anchor="middle" x="602" y="-81.5" font-family="Helvetica,sans-Serif" font-size="10.00">Math/GenVector/PositionVector3D.h</text>
</g>
<!-- Node16&#45;&gt;Node22 -->
<g id="edge23" class="edge"><title>Node16&#45;&gt;Node22</title>
<path fill="none" stroke="midnightblue" d="M813.015,-136.467C769.3,-125.805 694.435,-107.545 646.633,-95.886"/>
<polygon fill="midnightblue" stroke="midnightblue" points="647.408,-92.4727 636.864,-93.5034 645.75,-99.2733 647.408,-92.4727"/>
</g>
<!-- Node23 -->
<g id="node23" class="node"><title>Node23</title>
<g id="a_node23"><a xlink:href="../../d2/dd0/Cartesian2D_8h.html" target="_top" xlink:title="MathUtils/Cartesian2D.h">
<polygon fill="none" stroke="black" points="707.5,-74.5 707.5,-93.5 832.5,-93.5 832.5,-74.5 707.5,-74.5"/>
<text text-anchor="middle" x="770" y="-81.5" font-family="Helvetica,sans-Serif" font-size="10.00">MathUtils/Cartesian2D.h</text>
</a>
</g>
</g>
<!-- Node16&#45;&gt;Node23 -->
<g id="edge24" class="edge"><title>Node16&#45;&gt;Node23</title>
<path fill="none" stroke="midnightblue" d="M836.825,-136.403C824.429,-126.869 804.21,-111.315 789.254,-99.8106"/>
<polygon fill="midnightblue" stroke="midnightblue" points="791.215,-96.9035 781.155,-93.5806 786.947,-102.452 791.215,-96.9035"/>
</g>
<!-- Node24 -->
<g id="node24" class="node"><title>Node24</title>
<polygon fill="none" stroke="#bfbfbf" points="603.5,-1 603.5,-31 754.5,-31 754.5,-1 603.5,-1"/>
<text text-anchor="start" x="611.5" y="-19" font-family="Helvetica,sans-Serif" font-size="10.00">Math/GenVector/Displacement</text>
<text text-anchor="middle" x="679" y="-8" font-family="Helvetica,sans-Serif" font-size="10.00">Vector2D.h</text>
</g>
<!-- Node23&#45;&gt;Node24 -->
<g id="edge25" class="edge"><title>Node23&#45;&gt;Node24</title>
<path fill="none" stroke="midnightblue" d="M758.103,-74.3717C745.221,-65.0286 724.22,-49.7966 707.093,-37.375"/>
<polygon fill="midnightblue" stroke="midnightblue" points="708.703,-34.2194 698.553,-31.1815 704.593,-39.8859 708.703,-34.2194"/>
</g>
<!-- Node25 -->
<g id="node25" class="node"><title>Node25</title>
<polygon fill="none" stroke="#bfbfbf" points="773,-6.5 773,-25.5 949,-25.5 949,-6.5 773,-6.5"/>
<text text-anchor="middle" x="861" y="-13.5" font-family="Helvetica,sans-Serif" font-size="10.00">Math/GenVector/PositionVector2D.h</text>
</g>
<!-- Node23&#45;&gt;Node25 -->
<g id="edge26" class="edge"><title>Node23&#45;&gt;Node25</title>
<path fill="none" stroke="midnightblue" d="M781.897,-74.3717C796.884,-63.5015 822.862,-44.6602 840.942,-31.5474"/>
<polygon fill="midnightblue" stroke="midnightblue" points="843.06,-34.3349 849.1,-25.6305 838.95,-28.6684 843.06,-34.3349"/>
</g>
<!-- Node26&#45;&gt;Node2 -->
<g id="edge42" class="edge"><title>Node26&#45;&gt;Node2</title>
<path fill="none" stroke="midnightblue" d="M1163.35,-192.472C1130.65,-182.21 1087.48,-162.935 1105,-136 1107.51,-132.136 1156.73,-111.186 1189.96,-97.3677"/>
<polygon fill="midnightblue" stroke="midnightblue" points="1191.37,-100.57 1199.27,-93.5073 1188.69,-94.1041 1191.37,-100.57"/>
</g>
<!-- Node26&#45;&gt;Node4 -->
<g id="edge30" class="edge"><title>Node26&#45;&gt;Node4</title>
<path fill="none" stroke="midnightblue" d="M1211.56,-192.421C1224.83,-184.446 1243.68,-171.486 1256,-156 1282.64,-122.528 1261.67,-94.8142 1295,-68 1328.79,-40.8164 1457.15,-25.3798 1515.64,-19.6238"/>
<polygon fill="midnightblue" stroke="midnightblue" points="1516.09,-23.097 1525.71,-18.6611 1515.43,-16.1288 1516.09,-23.097"/>
</g>
<!-- Node26&#45;&gt;Node16 -->
<g id="edge31" class="edge"><title>Node26&#45;&gt;Node16</title>
<path fill="none" stroke="midnightblue" d="M1140.86,-192.444C1079.01,-182.846 978.768,-167.292 913.113,-157.104"/>
<polygon fill="midnightblue" stroke="midnightblue" points="913.302,-153.591 902.884,-155.516 912.229,-160.508 913.302,-153.591"/>
</g>
<!-- Node27 -->
<g id="node27" class="node"><title>Node27</title>
<polygon fill="none" stroke="#bfbfbf" points="1114,-136.5 1114,-155.5 1158,-155.5 1158,-136.5 1114,-136.5"/>
<text text-anchor="middle" x="1136" y="-143.5" font-family="Helvetica,sans-Serif" font-size="10.00">vector</text>
</g>
<!-- Node26&#45;&gt;Node27 -->
<g id="edge29" class="edge"><title>Node26&#45;&gt;Node27</title>
<path fill="none" stroke="midnightblue" d="M1186.36,-192.324C1177.49,-184.341 1164.13,-172.313 1153.39,-162.653"/>
<polygon fill="midnightblue" stroke="midnightblue" points="1155.59,-159.922 1145.82,-155.834 1150.91,-165.125 1155.59,-159.922"/>
</g>
<!-- Node28 -->
<g id="node28" class="node"><title>Node28</title>
<g id="a_node28"><a xlink:href="../../d6/d31/DetID_8h.html" target="_top" xlink:title="DetectorsBase/DetID.h">
<polygon fill="none" stroke="black" points="1339.5,-136.5 1339.5,-155.5 1458.5,-155.5 1458.5,-136.5 1339.5,-136.5"/>
<text text-anchor="middle" x="1399" y="-143.5" font-family="Helvetica,sans-Serif" font-size="10.00">DetectorsBase/DetID.h</text>
</a>
</g>
</g>
<!-- Node26&#45;&gt;Node28 -->
<g id="edge32" class="edge"><title>Node26&#45;&gt;Node28</title>
<path fill="none" stroke="midnightblue" d="M1228.17,-192.444C1263.06,-183.162 1318.89,-168.309 1357.17,-158.127"/>
<polygon fill="midnightblue" stroke="midnightblue" points="1358.22,-161.47 1366.98,-155.516 1356.42,-154.705 1358.22,-161.47"/>
</g>
<!-- Node34 -->
<g id="node34" class="node"><title>Node34</title>
<polygon fill="none" stroke="#bfbfbf" points="1176.5,-136.5 1176.5,-155.5 1247.5,-155.5 1247.5,-136.5 1176.5,-136.5"/>
<text text-anchor="middle" x="1212" y="-143.5" font-family="Helvetica,sans-Serif" font-size="10.00">FairLogger.h</text>
</g>
<!-- Node26&#45;&gt;Node34 -->
<g id="edge43" class="edge"><title>Node26&#45;&gt;Node34</title>
<path fill="none" stroke="midnightblue" d="M1198.64,-192.083C1200.79,-184.849 1203.88,-174.409 1206.55,-165.397"/>
<polygon fill="midnightblue" stroke="midnightblue" points="1209.92,-166.333 1209.41,-155.751 1203.21,-164.345 1209.92,-166.333"/>
</g>
<!-- Node28&#45;&gt;Node2 -->
<g id="edge36" class="edge"><title>Node28&#45;&gt;Node2</title>
<path fill="none" stroke="midnightblue" d="M1373.35,-136.403C1342.38,-126.022 1290.13,-108.506 1255.35,-96.849"/>
<polygon fill="midnightblue" stroke="midnightblue" points="1256.19,-93.4403 1245.6,-93.5806 1253.97,-100.077 1256.19,-93.4403"/>
</g>
<!-- Node28&#45;&gt;Node4 -->
<g id="edge34" class="edge"><title>Node28&#45;&gt;Node4</title>
<path fill="none" stroke="midnightblue" d="M1436.74,-136.442C1459.17,-129.721 1486.88,-118.349 1506,-100 1524.45,-82.2975 1535.1,-54.1455 1540.47,-35.6187"/>
<polygon fill="midnightblue" stroke="midnightblue" points="1543.91,-36.3043 1543.1,-25.7403 1537.15,-34.502 1543.91,-36.3043"/>
</g>
<!-- Node29 -->
<g id="node29" class="node"><title>Node29</title>
<polygon fill="none" stroke="#bfbfbf" points="1304,-74.5 1304,-93.5 1350,-93.5 1350,-74.5 1304,-74.5"/>
<text text-anchor="middle" x="1327" y="-81.5" font-family="Helvetica,sans-Serif" font-size="10.00">cstdint</text>
</g>
<!-- Node28&#45;&gt;Node29 -->
<g id="edge33" class="edge"><title>Node28&#45;&gt;Node29</title>
<path fill="none" stroke="midnightblue" d="M1388.68,-136.403C1377.35,-126.958 1358.93,-111.606 1345.16,-100.134"/>
<polygon fill="midnightblue" stroke="midnightblue" points="1347.22,-97.2937 1337.3,-93.5806 1342.74,-102.671 1347.22,-97.2937"/>
</g>
<!-- Node30 -->
<g id="node30" class="node"><title>Node30</title>
<polygon fill="none" stroke="#bfbfbf" points="1368,-74.5 1368,-93.5 1430,-93.5 1430,-74.5 1368,-74.5"/>
<text text-anchor="middle" x="1399" y="-81.5" font-family="Helvetica,sans-Serif" font-size="10.00">type_traits</text>
</g>
<!-- Node28&#45;&gt;Node30 -->
<g id="edge35" class="edge"><title>Node28&#45;&gt;Node30</title>
<path fill="none" stroke="midnightblue" d="M1399,-136.403C1399,-127.938 1399,-114.728 1399,-103.82"/>
<polygon fill="midnightblue" stroke="midnightblue" points="1402.5,-103.581 1399,-93.5806 1395.5,-103.581 1402.5,-103.581"/>
</g>
<!-- Node28&#45;&gt;Node31 -->
<g id="edge37" class="edge"><title>Node28&#45;&gt;Node31</title>
<path fill="none" stroke="midnightblue" d="M1434.55,-136.467C1478.98,-125.805 1555.06,-107.545 1603.64,-95.886"/>
<polygon fill="midnightblue" stroke="midnightblue" points="1604.66,-99.2405 1613.57,-93.5034 1603.03,-92.4338 1604.66,-99.2405"/>
</g>
<!-- Node33 -->
<g id="node33" class="node"><title>Node33</title>
<polygon fill="none" stroke="#bfbfbf" points="1448.5,-74.5 1448.5,-93.5 1497.5,-93.5 1497.5,-74.5 1448.5,-74.5"/>
<text text-anchor="middle" x="1473" y="-81.5" font-family="Helvetica,sans-Serif" font-size="10.00">cassert</text>
</g>
<!-- Node28&#45;&gt;Node33 -->
<g id="edge41" class="edge"><title>Node28&#45;&gt;Node33</title>
<path fill="none" stroke="midnightblue" d="M1409.6,-136.403C1421.25,-126.958 1440.19,-111.606 1454.33,-100.134"/>
<polygon fill="midnightblue" stroke="midnightblue" points="1456.85,-102.597 1462.42,-93.5806 1452.45,-97.16 1456.85,-102.597"/>
</g>
<!-- Node31&#45;&gt;Node4 -->
<g id="edge40" class="edge"><title>Node31&#45;&gt;Node4</title>
<path fill="none" stroke="midnightblue" d="M1635.4,-74.3717C1618.04,-63.3533 1587.77,-44.1449 1567.08,-31.0142"/>
<polygon fill="midnightblue" stroke="midnightblue" points="1568.92,-28.0336 1558.6,-25.6305 1565.17,-33.9439 1568.92,-28.0336"/>
</g>
<!-- Node31&#45;&gt;Node6 -->
<g id="edge39" class="edge"><title>Node31&#45;&gt;Node6</title>
<path fill="none" stroke="midnightblue" d="M1649.39,-74.3717C1649.83,-64.6426 1650.57,-48.528 1651.14,-35.8504"/>
<polygon fill="midnightblue" stroke="midnightblue" points="1654.64,-35.9898 1651.6,-25.8411 1647.65,-35.6718 1654.64,-35.9898"/>
</g>
<!-- Node31&#45;&gt;Node32 -->
<g id="edge38" class="edge"><title>Node31&#45;&gt;Node32</title>
<path fill="none" stroke="midnightblue" d="M1664.56,-74.3717C1684.69,-63.2051 1719.99,-43.6266 1743.68,-30.4876"/>
<polygon fill="midnightblue" stroke="midnightblue" points="1745.39,-33.5415 1752.44,-25.6305 1742,-27.4199 1745.39,-33.5415"/>
</g>
</g>
</svg>
