<?xml version="1.0" encoding="UTF-8" standalone="no"?>
<!DOCTYPE svg PUBLIC "-//W3C//DTD SVG 1.1//EN"
 "http://www.w3.org/Graphics/SVG/1.1/DTD/svg11.dtd">
<!-- Generated by graphviz version 2.36.0 (20140111.2315)
 -->
<!-- Title: o2::field::MagFieldParam Pages: 1 -->
<svg width="585pt" height="326pt"
 viewBox="0.00 0.00 585.00 326.00" xmlns="http://www.w3.org/2000/svg" xmlns:xlink="http://www.w3.org/1999/xlink">
<g id="graph0" class="graph" transform="scale(1 1) rotate(0) translate(4 322)">
<title>o2::field::MagFieldParam</title>
<!-- Node1 -->
<g id="node1" class="node"><title>Node1</title>
<polygon fill="#bfbfbf" stroke="black" points="214.5,-1 214.5,-179 339.5,-179 339.5,-1 214.5,-1"/>
<text text-anchor="middle" x="277" y="-167" font-family="Helvetica,sans-Serif" font-size="10.00">o2::field::MagFieldParam</text>
<polyline fill="none" stroke="black" points="214.5,-160 339.5,-160 "/>
<text text-anchor="middle" x="277" y="-148" font-family="Helvetica,sans-Serif" font-size="10.00"> </text>
<polyline fill="none" stroke="black" points="214.5,-141 339.5,-141 "/>
<text text-anchor="start" x="222.5" y="-129" font-family="Helvetica,sans-Serif" font-size="10.00">+ MagFieldParam()</text>
<text text-anchor="start" x="222.5" y="-118" font-family="Helvetica,sans-Serif" font-size="10.00">+ SetParam()</text>
<text text-anchor="start" x="222.5" y="-107" font-family="Helvetica,sans-Serif" font-size="10.00">+ GetMapType()</text>
<text text-anchor="start" x="222.5" y="-96" font-family="Helvetica,sans-Serif" font-size="10.00">+ GetBeamType()</text>
<text text-anchor="start" x="222.5" y="-85" font-family="Helvetica,sans-Serif" font-size="10.00">+ GetDefInt()</text>
<text text-anchor="start" x="222.5" y="-74" font-family="Helvetica,sans-Serif" font-size="10.00">+ GetFactorSol()</text>
<text text-anchor="start" x="222.5" y="-63" font-family="Helvetica,sans-Serif" font-size="10.00">+ GetFactorDip()</text>
<text text-anchor="start" x="222.5" y="-52" font-family="Helvetica,sans-Serif" font-size="10.00">+ GetBeamEnergy()</text>
<text text-anchor="start" x="222.5" y="-41" font-family="Helvetica,sans-Serif" font-size="10.00">+ GetMaxField()</text>
<text text-anchor="start" x="222.5" y="-30" font-family="Helvetica,sans-Serif" font-size="10.00">+ GetMapPath()</text>
<text text-anchor="start" x="222.5" y="-19" font-family="Helvetica,sans-Serif" font-size="10.00">+ putParams()</text>
<text text-anchor="start" x="222.5" y="-8" font-family="Helvetica,sans-Serif" font-size="10.00">+ getParams()</text>
</g>
<!-- Node2 -->
<g id="node2" class="node"><title>Node2</title>
<g id="a_node2"><a xlink:href="../../d7/dbb/classFairParGenericSet.html" target="_top" xlink:title="{FairParGenericSet\n||}">
<polygon fill="none" stroke="black" points="-0.5,-260.5 -0.5,-317.5 96.5,-317.5 96.5,-260.5 -0.5,-260.5"/>
<text text-anchor="middle" x="48" y="-305.5" font-family="Helvetica,sans-Serif" font-size="10.00">FairParGenericSet</text>
<polyline fill="none" stroke="black" points="-0.5,-298.5 96.5,-298.5 "/>
<text text-anchor="middle" x="48" y="-286.5" font-family="Helvetica,sans-Serif" font-size="10.00"> </text>
<polyline fill="none" stroke="black" points="-0.5,-279.5 96.5,-279.5 "/>
<text text-anchor="middle" x="48" y="-267.5" font-family="Helvetica,sans-Serif" font-size="10.00"> </text>
</a>
</g>
</g>
<!-- Node2&#45;&gt;Node1 -->
<g id="edge1" class="edge"><title>Node2&#45;&gt;Node1</title>
<path fill="none" stroke="midnightblue" d="M87.1258,-253.583C106.318,-236.76 129.811,-216.253 151,-198 171.548,-180.3 194.095,-161.087 214.365,-143.89"/>
<polygon fill="none" stroke="midnightblue" points="84.6649,-251.086 79.4553,-260.312 89.281,-256.348 84.6649,-251.086"/>
</g>
<!-- Node3 -->
<g id="node3" class="node"><title>Node3</title>
<polygon fill="none" stroke="#bfbfbf" points="115,-260.5 115,-317.5 187,-317.5 187,-260.5 115,-260.5"/>
<text text-anchor="middle" x="151" y="-305.5" font-family="Helvetica,sans-Serif" font-size="10.00">BeamType_t</text>
<polyline fill="none" stroke="#bfbfbf" points="115,-298.5 187,-298.5 "/>
<text text-anchor="middle" x="151" y="-286.5" font-family="Helvetica,sans-Serif" font-size="10.00"> </text>
<polyline fill="none" stroke="#bfbfbf" points="115,-279.5 187,-279.5 "/>
<text text-anchor="middle" x="151" y="-267.5" font-family="Helvetica,sans-Serif" font-size="10.00"> </text>
</g>
<!-- Node3&#45;&gt;Node1 -->
<g id="edge2" class="edge"><title>Node3&#45;&gt;Node1</title>
<path fill="none" stroke="#404040" d="M151.951,-260.194C153.588,-241.639 157.735,-217.215 168,-198 177.61,-180.012 191.283,-163.176 205.711,-148.422"/>
<polygon fill="none" stroke="#404040" points="205.724,-148.409 207.187,-141.348 214.268,-139.982 212.805,-147.044 205.724,-148.409"/>
<text text-anchor="middle" x="200" y="-217.5" font-family="Helvetica,sans-Serif" font-size="10.00"> #mBeamType</text>
</g>
<!-- Node4 -->
<g id="node4" class="node"><title>Node4</title>
<polygon fill="none" stroke="#bfbfbf" points="214,-260.5 214,-317.5 262,-317.5 262,-260.5 214,-260.5"/>
<text text-anchor="middle" x="238" y="-305.5" font-family="Helvetica,sans-Serif" font-size="10.00">TString</text>
<polyline fill="none" stroke="#bfbfbf" points="214,-298.5 262,-298.5 "/>
<text text-anchor="middle" x="238" y="-286.5" font-family="Helvetica,sans-Serif" font-size="10.00"> </text>
<polyline fill="none" stroke="#bfbfbf" points="214,-279.5 262,-279.5 "/>
<text text-anchor="middle" x="238" y="-267.5" font-family="Helvetica,sans-Serif" font-size="10.00"> </text>
</g>
<!-- Node4&#45;&gt;Node1 -->
<g id="edge3" class="edge"><title>Node4&#45;&gt;Node1</title>
<path fill="none" stroke="#404040" d="M235.964,-260.207C235.228,-242.307 235.33,-218.615 239,-198 239.415,-195.671 239.874,-193.325 240.373,-190.97"/>
<polygon fill="none" stroke="#404040" points="240.409,-190.815 237.898,-184.055 243.172,-179.138 245.683,-185.897 240.409,-190.815"/>
<text text-anchor="middle" x="267" y="-217.5" font-family="Helvetica,sans-Serif" font-size="10.00"> #mMapPath</text>
</g>
<!-- Node5 -->
<g id="node5" class="node"><title>Node5</title>
<polygon fill="none" stroke="#bfbfbf" points="289,-260.5 289,-317.5 345,-317.5 345,-260.5 289,-260.5"/>
<text text-anchor="middle" x="317" y="-305.5" font-family="Helvetica,sans-Serif" font-size="10.00">Double_t</text>
<polyline fill="none" stroke="#bfbfbf" points="289,-298.5 345,-298.5 "/>
<text text-anchor="middle" x="317" y="-286.5" font-family="Helvetica,sans-Serif" font-size="10.00"> </text>
<polyline fill="none" stroke="#bfbfbf" points="289,-279.5 345,-279.5 "/>
<text text-anchor="middle" x="317" y="-267.5" font-family="Helvetica,sans-Serif" font-size="10.00"> </text>
</g>
<!-- Node5&#45;&gt;Node1 -->
<g id="edge4" class="edge"><title>Node5&#45;&gt;Node1</title>
<path fill="none" stroke="#404040" d="M311.354,-260.193C307.636,-241.88 302.519,-216.679 297.369,-191.316"/>
<polygon fill="none" stroke="#404040" points="297.313,-191.041 292.199,-185.957 294.925,-179.281 300.039,-184.365 297.313,-191.041"/>
<text text-anchor="middle" x="343" y="-234" font-family="Helvetica,sans-Serif" font-size="10.00"> #mMaxField</text>
<text text-anchor="middle" x="343" y="-223" font-family="Helvetica,sans-Serif" font-size="10.00">#mFactorDip</text>
<text text-anchor="middle" x="343" y="-212" font-family="Helvetica,sans-Serif" font-size="10.00">#mFactorSol</text>
<text text-anchor="middle" x="343" y="-201" font-family="Helvetica,sans-Serif" font-size="10.00">#mBeamEnergy</text>
</g>
<!-- Node6 -->
<g id="node6" class="node"><title>Node6</title>
<polygon fill="none" stroke="#bfbfbf" points="385,-260.5 385,-317.5 435,-317.5 435,-260.5 385,-260.5"/>
<text text-anchor="middle" x="410" y="-305.5" font-family="Helvetica,sans-Serif" font-size="10.00">BMap_t</text>
<polyline fill="none" stroke="#bfbfbf" points="385,-298.5 435,-298.5 "/>
<text text-anchor="middle" x="410" y="-286.5" font-family="Helvetica,sans-Serif" font-size="10.00"> </text>
<polyline fill="none" stroke="#bfbfbf" points="385,-279.5 435,-279.5 "/>
<text text-anchor="middle" x="410" y="-267.5" font-family="Helvetica,sans-Serif" font-size="10.00"> </text>
</g>
<!-- Node6&#45;&gt;Node1 -->
<g id="edge5" class="edge"><title>Node6&#45;&gt;Node1</title>
<path fill="none" stroke="#404040" d="M404.931,-260.212C400.713,-241.665 393.503,-217.242 382,-198 372.689,-182.424 360.66,-167.394 348.085,-153.77"/>
<polygon fill="none" stroke="#404040" points="348.038,-153.721 341.005,-152.132 339.766,-145.028 346.8,-146.617 348.038,-153.721"/>
<text text-anchor="middle" x="429" y="-217.5" font-family="Helvetica,sans-Serif" font-size="10.00"> #mMapType</text>
</g>
<!-- Node7 -->
<g id="node7" class="node"><title>Node7</title>
<polygon fill="none" stroke="#bfbfbf" points="473,-260.5 473,-317.5 509,-317.5 509,-260.5 473,-260.5"/>
<text text-anchor="middle" x="491" y="-305.5" font-family="Helvetica,sans-Serif" font-size="10.00">Int_t</text>
<polyline fill="none" stroke="#bfbfbf" points="473,-298.5 509,-298.5 "/>
<text text-anchor="middle" x="491" y="-286.5" font-family="Helvetica,sans-Serif" font-size="10.00"> </text>
<polyline fill="none" stroke="#bfbfbf" points="473,-279.5 509,-279.5 "/>
<text text-anchor="middle" x="491" y="-267.5" font-family="Helvetica,sans-Serif" font-size="10.00"> </text>
</g>
<!-- Node7&#45;&gt;Node1 -->
<g id="edge6" class="edge"><title>Node7&#45;&gt;Node1</title>
<path fill="none" stroke="#404040" d="M487.424,-260.326C483.755,-241.124 476.435,-215.884 462,-198 433.049,-162.13 388.627,-135.876 350.569,-118.351"/>
<polygon fill="none" stroke="#404040" points="350.465,-118.305 343.356,-119.514 339.506,-113.416 346.615,-112.208 350.465,-118.305"/>
<text text-anchor="middle" x="530" y="-217.5" font-family="Helvetica,sans-Serif" font-size="10.00"> #mDefaultIntegration</text>
</g>
</g>
</svg>
